<svg xmlns="http://www.w3.org/2000/svg" xmlns:xlink="http://www.w3.org/1999/xlink" width="18" height="20.786" viewBox="0 0 18 20.786">
  <defs>
    <clipPath id="clip-path">
      <path id="Path_6983" data-name="Path 6983" d="M-368.027,378.127l.013-4.453,1.784,1.03-.013,4.453Z" fill="none"/>
    </clipPath>
  </defs>
  <g id="Group_9344" data-name="Group 9344" transform="translate(368.835 -362.811)">
    <g id="Group_9298" data-name="Group 9298">
      <g id="Group_9297" data-name="Group 9297">
        <g id="Group_9294" data-name="Group 9294">
          <g id="Group_9292" data-name="Group 9292">
            <path id="Path_6914" data-name="Path 6914" d="M-368.825,367.265l7.714-4.454V373.2l-7.714,4.454Z" fill="#ff8b49"/>
            <path id="Path_6915" data-name="Path 6915" d="M-361.12,362.813v10.392l10.286,5.938V368.751Z" fill="#ffa768"/>
          </g>
          <g id="Group_9293" data-name="Group 9293">
            <path id="Path_6916" data-name="Path 6916" d="M-368.835,367.267v10.392l10.286,5.938V373.205Z" fill="#f2ffe2"/>
            <path id="Path_6917" data-name="Path 6917" d="M-358.549,373.205l7.714-4.454v10.392l-7.714,4.454Z" fill="#cce5c2"/>
          </g>
        </g>
        <g id="Group_9296" data-name="Group 9296">
          <path id="Path_6918" data-name="Path 6918" d="M-368.835,367.267l10.286,5.938,7.714-4.454-10.286-5.938Z" fill="#a6c2b0"/>
          <g id="Group_9295" data-name="Group 9295">
            <path id="Path_6919" data-name="Path 6919" d="M-368.517,367.267l7.4-4.27,9.968,5.755-7.4,4.27Z" fill="#f2ffe2"/>
            <path id="Path_6920" data-name="Path 6920" d="M-368.039,367.542l6.919-3.995,9.49,5.479-6.919,3.995Z" fill="#bad7c4"/>
            <path id="Path_6921" data-name="Path 6921" d="M-361.12,363v.551l9.49,5.479.477-.276Z" fill="#fffff3"/>
          </g>
        </g>
      </g>
    </g>
    <g id="Group_9319" data-name="Group 9319">
      <g id="Group_9308" data-name="Group 9308">
        <g id="Group_9301" data-name="Group 9301">
          <path id="Path_6922" data-name="Path 6922" d="M-351.508,373.107l-.916.53v-1.256l.916-.53Z" fill="#fff"/>
          <g id="Group_9300" data-name="Group 9300">
            <g id="Group_9299" data-name="Group 9299">
              <path id="Path_6923" data-name="Path 6923" d="M-351.508,371.681l-.916.53V370.89l.916-.53Z" fill="#fff"/>
              <path id="Path_6924" data-name="Path 6924" d="M-351.508,371.685l-.916.526v-.135l.778-.453.009-1.185.128-.074Z" fill="#88cfe4"/>
            </g>
            <path id="Path_6925" data-name="Path 6925" d="M-351.508,373.107l-.916.53v-.1l.778-.453.009-1.154.129-.074Z" fill="#88cfe4"/>
          </g>
        </g>
        <g id="Group_9303" data-name="Group 9303">
          <g id="Group_9302" data-name="Group 9302">
            <path id="Path_6926" data-name="Path 6926" d="M-353.346,374.2l-.916.53v-1.256l.916-.53Z" fill="#fff"/>
            <path id="Path_6927" data-name="Path 6927" d="M-353.346,372.771l-.916.53V371.98l.916-.53Z" fill="#fff"/>
          </g>
          <path id="Path_6928" data-name="Path 6928" d="M-353.346,372.776l-.916.526v-.135l.778-.453.009-1.185.128-.074Z" fill="#88cfe4"/>
          <path id="Path_6929" data-name="Path 6929" d="M-353.346,374.2l-.916.53v-.1l.778-.453.009-1.154.129-.074Z" fill="#88cfe4"/>
        </g>
        <g id="Group_9305" data-name="Group 9305">
          <g id="Group_9304" data-name="Group 9304">
            <path id="Path_6930" data-name="Path 6930" d="M-355.159,375.224l-.916.53V374.5l.916-.53Z" fill="#fff"/>
            <path id="Path_6931" data-name="Path 6931" d="M-355.159,373.8l-.916.53v-1.321l.916-.53Z" fill="#fff"/>
          </g>
          <path id="Path_6932" data-name="Path 6932" d="M-355.159,373.8l-.916.526v-.135l.778-.453.009-1.185.128-.074Z" fill="#88cfe4"/>
          <path id="Path_6933" data-name="Path 6933" d="M-355.159,375.224l-.916.53v-.1l.778-.453.009-1.154.129-.074Z" fill="#88cfe4"/>
        </g>
        <g id="Group_9307" data-name="Group 9307">
          <g id="Group_9306" data-name="Group 9306">
            <path id="Path_6934" data-name="Path 6934" d="M-356.947,376.277l-.916.53v-1.256l.916-.53Z" fill="#fff"/>
            <path id="Path_6935" data-name="Path 6935" d="M-356.947,374.851l-.916.53v-1.321l.916-.53Z" fill="#fff"/>
          </g>
          <path id="Path_6936" data-name="Path 6936" d="M-356.947,374.855l-.916.526v-.135l.778-.453.009-1.185.128-.074Z" fill="#88cfe4"/>
          <path id="Path_6937" data-name="Path 6937" d="M-356.947,376.277l-.916.53v-.1l.778-.453.009-1.154.129-.074Z" fill="#88cfe4"/>
        </g>
      </g>
      <g id="Group_9318" data-name="Group 9318">
        <g id="Group_9311" data-name="Group 9311">
          <path id="Path_6938" data-name="Path 6938" d="M-351.508,377.253l-.916.53v-1.255l.916-.53Z" fill="#fff"/>
          <g id="Group_9310" data-name="Group 9310">
            <g id="Group_9309" data-name="Group 9309">
              <path id="Path_6939" data-name="Path 6939" d="M-351.508,375.827l-.916.53v-1.321l.916-.53Z" fill="#fff"/>
              <path id="Path_6940" data-name="Path 6940" d="M-351.508,375.831l-.916.526v-.135l.778-.453.009-1.185.128-.074Z" fill="#88cfe4"/>
            </g>
            <path id="Path_6941" data-name="Path 6941" d="M-351.508,377.253l-.916.53v-.1l.778-.453.009-1.154.129-.074Z" fill="#88cfe4"/>
          </g>
        </g>
        <g id="Group_9313" data-name="Group 9313">
          <g id="Group_9312" data-name="Group 9312">
            <path id="Path_6942" data-name="Path 6942" d="M-353.346,378.343l-.916.53v-1.256l.916-.53Z" fill="#fff"/>
            <path id="Path_6943" data-name="Path 6943" d="M-353.346,376.917l-.916.53v-1.321l.916-.53Z" fill="#fff"/>
          </g>
          <path id="Path_6944" data-name="Path 6944" d="M-353.346,376.922l-.916.526v-.135l.778-.453.009-1.185.128-.074Z" fill="#88cfe4"/>
          <path id="Path_6945" data-name="Path 6945" d="M-353.346,378.343l-.916.53v-.1l.778-.453.009-1.154.129-.074Z" fill="#88cfe4"/>
        </g>
        <g id="Group_9315" data-name="Group 9315">
          <g id="Group_9314" data-name="Group 9314">
            <path id="Path_6946" data-name="Path 6946" d="M-355.159,379.37l-.916.53v-1.255l.916-.53Z" fill="#fff"/>
            <path id="Path_6947" data-name="Path 6947" d="M-355.159,377.944l-.916.53v-1.321l.916-.53Z" fill="#fff"/>
          </g>
          <path id="Path_6948" data-name="Path 6948" d="M-355.159,377.949l-.916.526v-.135l.778-.453.009-1.185.128-.074Z" fill="#88cfe4"/>
          <path id="Path_6949" data-name="Path 6949" d="M-355.159,379.37l-.916.53v-.1l.778-.453.009-1.154.129-.074Z" fill="#88cfe4"/>
        </g>
        <g id="Group_9317" data-name="Group 9317">
          <g id="Group_9316" data-name="Group 9316">
            <path id="Path_6950" data-name="Path 6950" d="M-356.947,380.422l-.916.53V379.7l.916-.53Z" fill="#fff"/>
            <path id="Path_6951" data-name="Path 6951" d="M-356.947,379l-.916.53v-1.321l.916-.53Z" fill="#fff"/>
          </g>
          <path id="Path_6952" data-name="Path 6952" d="M-356.947,379l-.916.526v-.135l.778-.453.009-1.185.128-.074Z" fill="#88cfe4"/>
          <path id="Path_6953" data-name="Path 6953" d="M-356.947,380.422l-.916.53v-.1l.778-.453.009-1.154.129-.074Z" fill="#88cfe4"/>
        </g>
      </g>
    </g>
    <g id="Group_9342" data-name="Group 9342">
      <g id="Group_9337" data-name="Group 9337">
        <g id="Group_9329" data-name="Group 9329">
          <g id="Group_9322" data-name="Group 9322">
            <path id="Path_6954" data-name="Path 6954" d="M-366.915,372.689l.916.53v-1.256l-.916-.53Z" fill="#cdeaf8"/>
            <g id="Group_9321" data-name="Group 9321">
              <g id="Group_9320" data-name="Group 9320">
                <path id="Path_6955" data-name="Path 6955" d="M-366.915,371.263l.916.53v-1.321l-.916-.53Z" fill="#cdeaf8"/>
                <path id="Path_6956" data-name="Path 6956" d="M-366.915,371.267l.916.526v-.135l-.778-.453-.009-1.185-.128-.074Z" fill="#88cfe4"/>
              </g>
              <path id="Path_6957" data-name="Path 6957" d="M-366.915,372.689l.916.53v-.1l-.778-.453-.009-1.154-.129-.074Z" fill="#88cfe4"/>
            </g>
          </g>
          <g id="Group_9324" data-name="Group 9324">
            <g id="Group_9323" data-name="Group 9323">
              <path id="Path_6958" data-name="Path 6958" d="M-365.077,373.779l.916.53v-1.256l-.916-.53Z" fill="#cdeaf8"/>
              <path id="Path_6959" data-name="Path 6959" d="M-365.077,372.353l.916.53v-1.321l-.916-.53Z" fill="#cdeaf8"/>
            </g>
            <path id="Path_6960" data-name="Path 6960" d="M-365.077,372.357l.916.526v-.135l-.778-.453-.009-1.185-.128-.074Z" fill="#88cfe4"/>
            <path id="Path_6961" data-name="Path 6961" d="M-365.077,373.779l.916.53v-.1l-.778-.453-.009-1.154-.129-.074Z" fill="#88cfe4"/>
          </g>
          <g id="Group_9326" data-name="Group 9326">
            <g id="Group_9325" data-name="Group 9325">
              <path id="Path_6962" data-name="Path 6962" d="M-363.264,374.806l.916.53V374.08l-.916-.53Z" fill="#cdeaf8"/>
              <path id="Path_6963" data-name="Path 6963" d="M-363.264,373.38l.916.53v-1.321l-.916-.53Z" fill="#cdeaf8"/>
            </g>
            <path id="Path_6964" data-name="Path 6964" d="M-363.264,373.384l.916.526v-.135l-.778-.453-.009-1.185-.128-.074Z" fill="#88cfe4"/>
            <path id="Path_6965" data-name="Path 6965" d="M-363.264,374.806l.916.53v-.1l-.778-.453-.009-1.154-.129-.074Z" fill="#88cfe4"/>
          </g>
          <g id="Group_9328" data-name="Group 9328">
            <g id="Group_9327" data-name="Group 9327">
              <path id="Path_6966" data-name="Path 6966" d="M-361.476,375.858l.916.53v-1.255l-.916-.53Z" fill="#cdeaf8"/>
              <path id="Path_6967" data-name="Path 6967" d="M-361.476,374.432l.916.53v-1.321l-.916-.53Z" fill="#cdeaf8"/>
            </g>
            <path id="Path_6968" data-name="Path 6968" d="M-361.476,374.437l.916.526v-.135l-.778-.453-.009-1.185-.128-.074Z" fill="#88cfe4"/>
            <path id="Path_6969" data-name="Path 6969" d="M-361.476,375.858l.916.53v-.1l-.778-.453-.009-1.154-.129-.074Z" fill="#88cfe4"/>
          </g>
        </g>
        <g id="Group_9336" data-name="Group 9336">
          <g id="Group_9331" data-name="Group 9331">
            <g id="Group_9330" data-name="Group 9330">
              <path id="Path_6970" data-name="Path 6970" d="M-365.077,377.887l.916.53v-1.255l-.916-.53Z" fill="#cdeaf8"/>
              <path id="Path_6971" data-name="Path 6971" d="M-365.077,376.461l.916.53v-1.321l-.916-.53Z" fill="#cdeaf8"/>
            </g>
            <path id="Path_6972" data-name="Path 6972" d="M-365.077,376.465l.916.526v-.135l-.778-.453-.009-1.185-.128-.074Z" fill="#88cfe4"/>
            <path id="Path_6973" data-name="Path 6973" d="M-365.077,377.887l.916.53v-.1l-.778-.453-.009-1.154-.129-.074Z" fill="#88cfe4"/>
          </g>
          <g id="Group_9333" data-name="Group 9333">
            <g id="Group_9332" data-name="Group 9332">
              <path id="Path_6974" data-name="Path 6974" d="M-363.264,378.914l.916.53v-1.255l-.916-.53Z" fill="#cdeaf8"/>
              <path id="Path_6975" data-name="Path 6975" d="M-363.264,377.488l.916.53V376.7l-.916-.53Z" fill="#cdeaf8"/>
            </g>
            <path id="Path_6976" data-name="Path 6976" d="M-363.264,377.492l.916.526v-.135l-.778-.453-.009-1.185-.128-.074Z" fill="#88cfe4"/>
            <path id="Path_6977" data-name="Path 6977" d="M-363.264,378.914l.916.53v-.1l-.778-.453-.009-1.154-.129-.074Z" fill="#88cfe4"/>
          </g>
          <g id="Group_9335" data-name="Group 9335">
            <g id="Group_9334" data-name="Group 9334">
              <path id="Path_6978" data-name="Path 6978" d="M-361.476,379.966l.916.53V379.24l-.916-.53Z" fill="#cdeaf8"/>
              <path id="Path_6979" data-name="Path 6979" d="M-361.476,378.54l.916.53v-1.321l-.916-.53Z" fill="#cdeaf8"/>
            </g>
            <path id="Path_6980" data-name="Path 6980" d="M-361.476,378.544l.916.526v-.135l-.778-.453-.009-1.185-.128-.074Z" fill="#88cfe4"/>
            <path id="Path_6981" data-name="Path 6981" d="M-361.476,379.966l.916.53v-.1l-.778-.453-.009-1.154-.129-.074Z" fill="#88cfe4"/>
          </g>
        </g>
      </g>
      <g id="Group_9341" data-name="Group 9341">
        <g id="Group_9340" data-name="Group 9340" style="mix-blend-mode: normal;isolation: isolate">
          <g id="Group_9339" data-name="Group 9339" clip-path="url(#clip-path)">
            <g id="Group_9338" data-name="Group 9338">
              <path id="Path_6982" data-name="Path 6982" d="M-366.23,374.7l-1.784-1.03-.013,4.453,1.784,1.03.013-4.453" fill="#969986"/>
            </g>
          </g>
        </g>
      </g>
    </g>
  </g>
</svg>
