<svg xmlns="http://www.w3.org/2000/svg" width="19.31" height="28" viewBox="0 0 19.31 28">
  <g id="Group_8844" data-name="Group 8844" transform="translate(303.229 -320.825)">
    <g id="Group_8842" data-name="Group 8842">
      <g id="Group_8830" data-name="Group 8830">
        <path id="Path_5946" data-name="Path 5946" d="M-283.922,343.179h0v-2.89l-6.481,0-2.24-1.293a2.228,2.228,0,0,0-2.006.083l-2.09,1.207-6.488,0v2.973a.582.582,0,0,0,.345.537l8.377,4.837a2.228,2.228,0,0,0,2.006-.083l8.089-4.67A.794.794,0,0,0-283.922,343.179Z" fill="#9c6da7"/>
        <path id="Path_5947" data-name="Path 5947" d="M-293.574,338.793a2.311,2.311,0,0,0-1.075.282l-2.09,1.207-6.488,0v2.973a.582.582,0,0,0,.345.537l8.377,4.837a1.817,1.817,0,0,0,.931.2Z" fill="#9c6da7"/>
        <path id="Path_5948" data-name="Path 5948" d="M-302.492,340.279h-.735v2.973a.582.582,0,0,0,.345.537l.39.225Z" fill="#ba94cb"/>
        <path id="Path_5949" data-name="Path 5949" d="M-294.376,348.688a2.285,2.285,0,0,0,1.6-.018V345.3h-1.6Z" fill="#ba94cb"/>
        <path id="Path_5950" data-name="Path 5950" d="M-294.505,345.663l-8.377-4.837c-.514-.3-.45-.815.144-1.158l8.089-4.67a2.228,2.228,0,0,1,2.006-.083l8.377,4.837c.514.3.45.815-.144,1.158l-8.089,4.67A2.228,2.228,0,0,1-294.505,345.663Z" fill="#ffecfc"/>
        <path id="Path_5951" data-name="Path 5951" d="M-294.354,344.792l-7.02-4.053c-.431-.248-.377-.683.12-.97l6.779-3.914a1.872,1.872,0,0,1,1.681-.07l7.02,4.054c.431.248.377.683-.121.97l-6.778,3.914A1.868,1.868,0,0,1-294.354,344.792Z" fill="#ba94cb"/>
        <g id="Group_8829" data-name="Group 8829">
          <path id="Path_5952" data-name="Path 5952" d="M-287,343.942a.747.747,0,0,1-.338.586c-.187.108-.339.021-.339-.2a.748.748,0,0,1,.339-.586C-287.154,343.639-287,343.726-287,343.942Z" fill="#ffecfc"/>
          <path id="Path_5953" data-name="Path 5953" d="M-285.914,343.314a.75.75,0,0,1-.339.586c-.186.108-.338.02-.338-.2a.751.751,0,0,1,.338-.586C-286.066,343.01-285.914,343.1-285.914,343.314Z" fill="#ffecfc"/>
          <path id="Path_5954" data-name="Path 5954" d="M-284.826,342.685a.747.747,0,0,1-.338.586c-.187.108-.338.021-.338-.2a.747.747,0,0,1,.338-.586C-284.977,342.382-284.826,342.469-284.826,342.685Z" fill="#ffecfc"/>
        </g>
      </g>
      <g id="Group_8832" data-name="Group 8832">
        <path id="Path_5955" data-name="Path 5955" d="M-283.922,338.56h0v-2.89l-6.481,0-2.24-1.293a2.228,2.228,0,0,0-2.006.083l-2.09,1.207-6.488,0v2.973a.582.582,0,0,0,.345.537l8.377,4.837a2.232,2.232,0,0,0,2.006-.083l8.089-4.671A.792.792,0,0,0-283.922,338.56Z" fill="#9c6da7"/>
        <path id="Path_5956" data-name="Path 5956" d="M-293.574,334.174a2.312,2.312,0,0,0-1.075.282l-2.09,1.207-6.488,0v2.973a.582.582,0,0,0,.345.537l8.377,4.837a1.827,1.827,0,0,0,.931.2Z" fill="#9c6da7"/>
        <path id="Path_5957" data-name="Path 5957" d="M-302.492,335.659h-.735v2.973a.582.582,0,0,0,.345.537l.39.225Z" fill="#ba94cb"/>
        <path id="Path_5958" data-name="Path 5958" d="M-294.376,344.069a2.291,2.291,0,0,0,1.6-.018v-3.376h-1.6Z" fill="#ba94cb"/>
        <path id="Path_5959" data-name="Path 5959" d="M-294.505,341.044l-8.377-4.837c-.514-.3-.45-.815.144-1.158l8.089-4.67a2.228,2.228,0,0,1,2.006-.083l8.377,4.836c.514.3.45.816-.144,1.158l-8.089,4.671A2.232,2.232,0,0,1-294.505,341.044Z" fill="#ffecfc"/>
        <path id="Path_5960" data-name="Path 5960" d="M-294.354,340.173l-7.02-4.053c-.431-.249-.377-.683.12-.97l6.779-3.914a1.872,1.872,0,0,1,1.681-.07l7.02,4.053c.431.249.377.684-.121.971l-6.778,3.914A1.868,1.868,0,0,1-294.354,340.173Z" fill="#ba94cb"/>
        <g id="Group_8831" data-name="Group 8831">
          <path id="Path_5961" data-name="Path 5961" d="M-287,339.323a.747.747,0,0,1-.338.586c-.187.108-.339.021-.339-.2a.748.748,0,0,1,.339-.586C-287.154,339.02-287,339.107-287,339.323Z" fill="#ffecfc"/>
          <path id="Path_5962" data-name="Path 5962" d="M-285.914,338.7a.75.75,0,0,1-.339.586c-.186.107-.338.02-.338-.2a.75.75,0,0,1,.338-.586C-286.066,338.391-285.914,338.479-285.914,338.7Z" fill="#ffecfc"/>
          <path id="Path_5963" data-name="Path 5963" d="M-284.826,338.066a.747.747,0,0,1-.338.586c-.187.108-.338.02-.338-.2a.747.747,0,0,1,.338-.586C-284.977,337.763-284.826,337.85-284.826,338.066Z" fill="#ffecfc"/>
        </g>
      </g>
      <g id="Group_8834" data-name="Group 8834">
        <path id="Path_5964" data-name="Path 5964" d="M-283.922,333.941h0v-2.89l-6.481,0-2.24-1.293a2.228,2.228,0,0,0-2.006.083l-2.09,1.206-6.488,0v2.973a.584.584,0,0,0,.345.537l8.377,4.837a2.232,2.232,0,0,0,2.006-.084l8.089-4.67A.793.793,0,0,0-283.922,333.941Z" fill="#9c6da7"/>
        <path id="Path_5965" data-name="Path 5965" d="M-293.574,329.555a2.311,2.311,0,0,0-1.075.282l-2.09,1.206-6.488,0v2.973a.584.584,0,0,0,.345.537l8.377,4.837a1.817,1.817,0,0,0,.931.2Z" fill="#9c6da7"/>
        <path id="Path_5966" data-name="Path 5966" d="M-302.492,331.04h-.735v2.973a.584.584,0,0,0,.345.537l.39.225Z" fill="#ba94cb"/>
        <path id="Path_5967" data-name="Path 5967" d="M-294.376,339.45a2.286,2.286,0,0,0,1.6-.019v-3.375h-1.6Z" fill="#ba94cb"/>
        <path id="Path_5968" data-name="Path 5968" d="M-294.505,336.425l-8.377-4.837c-.514-.3-.45-.815.144-1.158l8.089-4.67a2.228,2.228,0,0,1,2.006-.083l8.377,4.836c.514.3.45.816-.144,1.158l-8.089,4.67A2.232,2.232,0,0,1-294.505,336.425Z" fill="#ffecfc"/>
        <path id="Path_5969" data-name="Path 5969" d="M-294.354,335.554l-7.02-4.053c-.431-.249-.377-.683.12-.971l6.779-3.913a1.868,1.868,0,0,1,1.681-.07l7.02,4.053c.431.249.377.684-.121.971l-6.778,3.913A1.865,1.865,0,0,1-294.354,335.554Z" fill="#ba94cb"/>
        <g id="Group_8833" data-name="Group 8833">
          <rect id="Rectangle_2969" data-name="Rectangle 2969" width="3.88" height="0.136" transform="matrix(0.866, -0.5, 0.5, 0.866, -290.709, 336.816)" fill="#fffffc"/>
          <path id="Path_5970" data-name="Path 5970" d="M-287,334.7a.747.747,0,0,1-.338.586c-.187.108-.339.02-.339-.2a.746.746,0,0,1,.339-.586C-287.154,334.4-287,334.488-287,334.7Z" fill="#ffecfc"/>
          <path id="Path_5971" data-name="Path 5971" d="M-285.914,334.075a.748.748,0,0,1-.339.586c-.186.108-.338.021-.338-.2a.75.75,0,0,1,.338-.586C-286.066,333.772-285.914,333.86-285.914,334.075Z" fill="#ffecfc"/>
          <path id="Path_5972" data-name="Path 5972" d="M-284.826,333.447a.747.747,0,0,1-.338.586c-.187.108-.338.02-.338-.195a.749.749,0,0,1,.338-.587C-284.977,333.144-284.826,333.231-284.826,333.447Z" fill="#ffecfc"/>
        </g>
      </g>
      <g id="Group_8837" data-name="Group 8837">
        <path id="Path_5973" data-name="Path 5973" d="M-283.922,329.29h0V326.4l-6.481,0-2.24-1.293a2.228,2.228,0,0,0-2.006.083l-2.09,1.207-6.488,0v2.973a.582.582,0,0,0,.345.537l8.377,4.837a2.232,2.232,0,0,0,2.006-.083l8.089-4.671A.792.792,0,0,0-283.922,329.29Z" fill="#9c6da7"/>
        <path id="Path_5974" data-name="Path 5974" d="M-293.574,324.9a2.311,2.311,0,0,0-1.075.282l-2.09,1.207-6.488,0v2.973a.582.582,0,0,0,.345.537l8.377,4.837a1.827,1.827,0,0,0,.931.2Z" fill="#9c6da7"/>
        <path id="Path_5975" data-name="Path 5975" d="M-302.492,326.389h-.735v2.973a.582.582,0,0,0,.345.537l.39.225Z" fill="#ba94cb"/>
        <path id="Path_5976" data-name="Path 5976" d="M-294.376,334.8a2.291,2.291,0,0,0,1.6-.018V331.4h-1.6Z" fill="#ba94cb"/>
        <path id="Path_5977" data-name="Path 5977" d="M-294.505,331.774l-8.377-4.837c-.514-.3-.45-.815.144-1.158l8.089-4.67a2.228,2.228,0,0,1,2.006-.083l8.377,4.836c.514.3.45.816-.144,1.158l-8.089,4.671A2.232,2.232,0,0,1-294.505,331.774Z" fill="#ffecfc"/>
        <path id="Path_5978" data-name="Path 5978" d="M-284.41,326.452l-8.089,4.67a2.228,2.228,0,0,1-2.006.083l-8.377-4.837a.771.771,0,0,1-.257-.227.539.539,0,0,0,.257.8l8.377,4.837a2.232,2.232,0,0,0,2.006-.083l8.089-4.671c.461-.266.6-.638.4-.93A1.13,1.13,0,0,1-284.41,326.452Z" fill="#fffffc"/>
        <g id="Group_8835" data-name="Group 8835">
          <path id="Path_5979" data-name="Path 5979" d="M-287,330.053a.747.747,0,0,1-.338.586c-.187.108-.339.021-.339-.2a.748.748,0,0,1,.339-.586C-287.154,329.75-287,329.837-287,330.053Z" fill="#ffecfc"/>
          <path id="Path_5980" data-name="Path 5980" d="M-290.337,331.886a.748.748,0,0,1-.338.586c-.187.108-.339.02-.339-.2a.749.749,0,0,1,.339-.586C-290.488,331.582-290.337,331.67-290.337,331.886Z" fill="#ffecfc"/>
          <path id="Path_5981" data-name="Path 5981" d="M-290.337,336.679a.747.747,0,0,1-.338.586c-.187.108-.339.02-.339-.2a.746.746,0,0,1,.339-.586C-290.488,336.376-290.337,336.463-290.337,336.679Z" fill="#fffffc"/>
          <path id="Path_5982" data-name="Path 5982" d="M-285.914,329.425a.749.749,0,0,1-.339.586c-.186.107-.338.02-.338-.2a.75.75,0,0,1,.338-.586C-286.066,329.121-285.914,329.209-285.914,329.425Z" fill="#ffecfc"/>
          <path id="Path_5983" data-name="Path 5983" d="M-284.826,328.8a.747.747,0,0,1-.338.586c-.187.108-.338.02-.338-.195a.747.747,0,0,1,.338-.586C-284.977,328.493-284.826,328.58-284.826,328.8Z" fill="#ffecfc"/>
        </g>
        <g id="Group_8836" data-name="Group 8836">
          <path id="Path_5984" data-name="Path 5984" d="M-293.634,326.88l-.543-.313c-.033-.019-.029-.053.01-.075l.523-.3a.143.143,0,0,1,.13-.006l.543.313c.033.02.029.053-.01.075l-.523.3A.146.146,0,0,1-293.634,326.88Z" fill="#ffecfc"/>
        </g>
      </g>
      <g id="Group_8838" data-name="Group 8838">
        <path id="Path_5985" data-name="Path 5985" d="M-294.83,332.459c0,.228-.16.32-.356.206a.788.788,0,0,1-.357-.617c0-.228.16-.32.357-.206A.788.788,0,0,1-294.83,332.459Z" fill="#ffecfc"/>
        <path id="Path_5986" data-name="Path 5986" d="M-295.936,331.825c0,.227-.16.319-.357.206a.79.79,0,0,1-.356-.618c0-.227.16-.319.356-.206A.789.789,0,0,1-295.936,331.825Z" fill="#ba94cb"/>
        <path id="Path_5987" data-name="Path 5987" d="M-294.83,333.794c0,.227-.16.32-.356.206a.789.789,0,0,1-.357-.618c0-.227.16-.319.357-.2A.788.788,0,0,1-294.83,333.794Z" fill="#ffecfc"/>
        <path id="Path_5988" data-name="Path 5988" d="M-295.936,333.16c0,.227-.16.319-.357.206a.792.792,0,0,1-.356-.618c0-.227.16-.32.356-.206A.789.789,0,0,1-295.936,333.16Z" fill="#ffecfc"/>
      </g>
      <g id="Group_8839" data-name="Group 8839">
        <path id="Path_5989" data-name="Path 5989" d="M-294.83,337.048c0,.227-.16.319-.356.206a.79.79,0,0,1-.357-.618c0-.227.16-.319.357-.206A.79.79,0,0,1-294.83,337.048Z" fill="#ffecfc"/>
        <path id="Path_5990" data-name="Path 5990" d="M-295.936,336.413c0,.228-.16.32-.357.206a.788.788,0,0,1-.356-.617c0-.228.16-.32.356-.206A.788.788,0,0,1-295.936,336.413Z" fill="#ffecfc"/>
        <path id="Path_5991" data-name="Path 5991" d="M-294.83,338.383c0,.227-.16.319-.356.205a.787.787,0,0,1-.357-.617c0-.227.16-.32.357-.206A.79.79,0,0,1-294.83,338.383Z" fill="#ba94cb"/>
        <path id="Path_5992" data-name="Path 5992" d="M-295.936,337.748c0,.228-.16.32-.357.206a.79.79,0,0,1-.356-.618c0-.227.16-.319.356-.2A.787.787,0,0,1-295.936,337.748Z" fill="#ffecfc"/>
      </g>
      <g id="Group_8840" data-name="Group 8840">
        <path id="Path_5993" data-name="Path 5993" d="M-294.83,341.642c0,.227-.16.319-.356.206a.79.79,0,0,1-.357-.618c0-.227.16-.319.357-.206A.79.79,0,0,1-294.83,341.642Z" fill="#ffecfc"/>
        <path id="Path_5994" data-name="Path 5994" d="M-295.936,341.007c0,.228-.16.32-.357.206a.788.788,0,0,1-.356-.617c0-.228.16-.32.356-.206A.788.788,0,0,1-295.936,341.007Z" fill="#ba94cb"/>
        <path id="Path_5995" data-name="Path 5995" d="M-294.83,342.977c0,.227-.16.319-.356.205a.787.787,0,0,1-.357-.617c0-.227.16-.32.357-.206A.79.79,0,0,1-294.83,342.977Z" fill="#ffecfc"/>
        <path id="Path_5996" data-name="Path 5996" d="M-295.936,342.342c0,.228-.16.32-.357.206a.79.79,0,0,1-.356-.617c0-.228.16-.32.356-.206A.787.787,0,0,1-295.936,342.342Z" fill="#ba94cb"/>
      </g>
      <g id="Group_8841" data-name="Group 8841">
        <path id="Path_5997" data-name="Path 5997" d="M-294.83,346.281c0,.227-.16.319-.356.206a.79.79,0,0,1-.357-.618c0-.227.16-.32.357-.206A.79.79,0,0,1-294.83,346.281Z" fill="#ba94cb"/>
        <path id="Path_5998" data-name="Path 5998" d="M-295.936,345.646c0,.228-.16.32-.357.206a.79.79,0,0,1-.356-.617c0-.228.16-.32.356-.206A.787.787,0,0,1-295.936,345.646Z" fill="#ffecfc"/>
        <path id="Path_5999" data-name="Path 5999" d="M-294.83,347.615c0,.228-.16.32-.356.206a.787.787,0,0,1-.357-.617c0-.228.16-.32.357-.206A.79.79,0,0,1-294.83,347.615Z" fill="#ffecfc"/>
        <path id="Path_6000" data-name="Path 6000" d="M-295.936,346.981c0,.227-.16.32-.357.206a.79.79,0,0,1-.356-.618c0-.227.16-.319.356-.2A.787.787,0,0,1-295.936,346.981Z" fill="#ba94cb"/>
      </g>
    </g>
    <g id="Group_8843" data-name="Group 8843">
      <path id="Path_6001" data-name="Path 6001" d="M-293.691,326.03a3.059,3.059,0,0,1,.812.643,1.328,1.328,0,0,1,.329.681.968.968,0,0,1-.169.664,1.957,1.957,0,0,1-.681.6l-1.572.908-4.764-2.751,1.572-.907a3.543,3.543,0,0,1,1.032-.393,4.643,4.643,0,0,1,1.151-.1,5.087,5.087,0,0,1,1.178.19A4.824,4.824,0,0,1-293.691,326.03Zm-.787.455a4.02,4.02,0,0,0-.793-.354,3.379,3.379,0,0,0-.787-.155,2.746,2.746,0,0,0-.741.047,2.149,2.149,0,0,0-.66.247l-.8.462,3.353,1.937.8-.463a1.2,1.2,0,0,0,.429-.38.576.576,0,0,0,.079-.429.961.961,0,0,0-.267-.454A2.756,2.756,0,0,0-294.478,326.485Z" fill="#9c6da7"/>
      <path id="Path_6002" data-name="Path 6002" d="M-287.412,325.156l-.693.4a.647.647,0,0,1-.463.062l-2.394-.38a.783.783,0,0,0-.228-.008.57.57,0,0,0-.208.079l-.328.189,1.861,1.074-.768.443-4.764-2.75,1.258-.726a3.686,3.686,0,0,1,.821-.358,2.98,2.98,0,0,1,.776-.123,2.572,2.572,0,0,1,.717.087,2.692,2.692,0,0,1,.646.267,1.773,1.773,0,0,1,.393.3.927.927,0,0,1,.213.327.631.631,0,0,1,.021.342.809.809,0,0,1-.179.342,1.926,1.926,0,0,1,.254-.011,1.92,1.92,0,0,1,.273.026Zm-4.47-.3a1.072,1.072,0,0,0,.314-.254.387.387,0,0,0,.092-.254.4.4,0,0,0-.106-.24,1.074,1.074,0,0,0-.281-.223,1.444,1.444,0,0,0-.764-.2,1.7,1.7,0,0,0-.826.253l-.49.283,1.581.913Z" fill="#9c6da7"/>
    </g>
  </g>
</svg>
