<svg xmlns="http://www.w3.org/2000/svg" width="28" height="44.132" viewBox="0 0 28 44.132">
  <g id="Group_9064" data-name="Group 9064" transform="translate(386.771 -273.595)">
    <path id="Path_6011" data-name="Path 6011" d="M-358.771,311.386l-10.981,6.34V289.782l10.981-6.34Z" fill="#d3c7ba"/>
    <path id="Path_6012" data-name="Path 6012" d="M-375.779,301.539l-10.981,6.34V279.935l10.981-6.34Z" fill="#d3c7ba"/>
    <path id="Path_6013" data-name="Path 6013" d="M-386.771,307.863l17.019,9.864V289.782l-17.019-9.864Z" fill="#e5dbcf"/>
    <path id="Path_6014" data-name="Path 6014" d="M-358.771,311.386l-10.981,6.34v-6.805l10.981-6.34Z" fill="#485b66"/>
    <path id="Path_6015" data-name="Path 6015" d="M-386.771,307.863l17.019,9.864v-6.763l-17.019-9.864Z" fill="#5b6f7c"/>
    <path id="Path_6016" data-name="Path 6016" d="M-375.634,308.126l-6.115-3.544v6.181l6.115,3.544Z" fill="#e5dbcf"/>
    <g id="Group_8859" data-name="Group 8859">
      <path id="Path_6017" data-name="Path 6017" d="M-385.789,302.271l-.184-.107v5.262l3.5,2.03v-.2l-3.319-1.924Z" fill="#e5dbcf"/>
      <g id="Group_8858" data-name="Group 8858">
        <path id="Path_6018" data-name="Path 6018" d="M-385.584,302.389l-.2-.118v5.063l3.319,1.924V309l-3.115-1.806Z" fill="#d3c7ba"/>
        <path id="Path_6019" data-name="Path 6019" d="M-385.584,302.389v4.8l3.115,1.806v-4.8Z" fill="#fff"/>
      </g>
    </g>
    <path id="Path_6020" data-name="Path 6020" d="M-378.9,306.6l-2.418-1.4v5.811l2.418,1.4Z" fill="#d3c7ba"/>
    <path id="Path_6021" data-name="Path 6021" d="M-376.034,308.263l-2.418-1.4v5.811l2.418,1.4Z" fill="#d3c7ba"/>
    <path id="Path_6022" data-name="Path 6022" d="M-358.771,284.4l-10.981,6.34v-.955l10.981-6.34Z" fill="#485b66"/>
    <path id="Path_6023" data-name="Path 6023" d="M-386.771,280.873l17.019,9.864v-.955l-17.019-9.864Z" fill="#5b6f7c"/>
    <path id="Path_6024" data-name="Path 6024" d="M-375.779,273.595l-10.992,6.323,17.019,9.864,10.981-6.34Z" fill="#889baa"/>
    <g id="Group_8860" data-name="Group 8860">
      <path id="Path_6025" data-name="Path 6025" d="M-359.948,283.73l.5-.289-16.306-9.483-10.315,5.933.5.291,9.814-5.645Z" fill="#6b7b8a"/>
      <path id="Path_6026" data-name="Path 6026" d="M-359.948,283.73l-15.806-9.192-9.814,5.645,15.816,9.207Z" fill="#778896"/>
    </g>
    <g id="Group_8864" data-name="Group 8864">
      <g id="Group_8861" data-name="Group 8861">
        <path id="Path_6027" data-name="Path 6027" d="M-385.033,281.893l-.355-.205V300.12l5.087,2.937v-.381l-4.732-2.732Z" fill="#d3c7ba"/>
        <path id="Path_6028" data-name="Path 6028" d="M-385.033,281.893v18.05l4.732,2.732v-18.05Z" fill="#93bfe7"/>
        <path id="Path_6029" data-name="Path 6029" d="M-382.6,283.3l-.127-.074v18.05l.127.074Z" fill="#79b1db"/>
      </g>
      <g id="Group_8862" data-name="Group 8862">
        <path id="Path_6030" data-name="Path 6030" d="M-380.3,287.828l-5.087-2.937v1.469l5.087,2.937Z" fill="#778896"/>
        <path id="Path_6031" data-name="Path 6031" d="M-385,284.688l-.393.2,5.087,2.937v-.449Z" fill="#889baa"/>
        <path id="Path_6032" data-name="Path 6032" d="M-380.3,292.5l-5.087-2.937v1.469l5.087,2.937Z" fill="#778896"/>
        <path id="Path_6033" data-name="Path 6033" d="M-385,289.364l-.393.2,5.087,2.937v-.449Z" fill="#889baa"/>
      </g>
      <g id="Group_8863" data-name="Group 8863">
        <path id="Path_6034" data-name="Path 6034" d="M-380.3,297.574l-5.087-2.937v1.469l5.087,2.937Z" fill="#778896"/>
        <path id="Path_6035" data-name="Path 6035" d="M-385,294.435l-.393.2,5.087,2.937v-.448Z" fill="#889baa"/>
        <path id="Path_6036" data-name="Path 6036" d="M-380.3,302.251l-5.087-2.937v1.469l5.087,2.937Z" fill="#778896"/>
        <path id="Path_6037" data-name="Path 6037" d="M-385,299.111l-.393.2,5.087,2.937V301.8Z" fill="#889baa"/>
      </g>
    </g>
    <g id="Group_8868" data-name="Group 8868">
      <g id="Group_8865" data-name="Group 8865">
        <path id="Path_6038" data-name="Path 6038" d="M-376.3,286.969l-.355-.205V305.2l5.087,2.937v-.381l-4.732-2.732Z" fill="#d3c7ba"/>
        <path id="Path_6039" data-name="Path 6039" d="M-376.3,286.969v18.05l4.732,2.732V289.7Z" fill="#93bfe7"/>
        <path id="Path_6040" data-name="Path 6040" d="M-373.869,288.377-374,288.3v18.05l.127.074Z" fill="#79b1db"/>
      </g>
      <g id="Group_8866" data-name="Group 8866">
        <path id="Path_6041" data-name="Path 6041" d="M-371.566,292.9l-5.087-2.937v1.469l5.087,2.937Z" fill="#778896"/>
        <path id="Path_6042" data-name="Path 6042" d="M-376.261,289.764l-.393.2,5.087,2.937v-.449Z" fill="#889baa"/>
        <path id="Path_6043" data-name="Path 6043" d="M-371.566,297.58l-5.087-2.937v1.469l5.087,2.937Z" fill="#778896"/>
        <path id="Path_6044" data-name="Path 6044" d="M-376.261,294.44l-.393.2,5.087,2.937v-.449Z" fill="#889baa"/>
      </g>
      <g id="Group_8867" data-name="Group 8867">
        <path id="Path_6045" data-name="Path 6045" d="M-371.566,302.65l-5.087-2.937v1.469l5.087,2.937Z" fill="#778896"/>
        <path id="Path_6046" data-name="Path 6046" d="M-376.261,299.51l-.393.2,5.087,2.937V302.2Z" fill="#889baa"/>
        <path id="Path_6047" data-name="Path 6047" d="M-371.566,307.326l-5.087-2.937v1.469l5.087,2.937Z" fill="#778896"/>
        <path id="Path_6048" data-name="Path 6048" d="M-376.261,304.187l-.393.2,5.087,2.937v-.448Z" fill="#889baa"/>
      </g>
    </g>
    <g id="Group_8877" data-name="Group 8877">
      <g id="Group_8869" data-name="Group 8869">
        <path id="Path_6049" data-name="Path 6049" d="M-360.911,286.217v3.207l-1.9,1.1v-3.206Z" fill="#fff"/>
        <path id="Path_6050" data-name="Path 6050" d="M-361.127,286.58v2.708l-1.509.871v-2.708Z" fill="#79b1db"/>
      </g>
      <g id="Group_8870" data-name="Group 8870">
        <path id="Path_6051" data-name="Path 6051" d="M-365.154,288.676v3.207l-1.9,1.1v-3.207Z" fill="#fff"/>
        <path id="Path_6052" data-name="Path 6052" d="M-365.37,289.039v2.708l-1.509.871v-2.708Z" fill="#79b1db"/>
      </g>
      <g id="Group_8871" data-name="Group 8871">
        <path id="Path_6053" data-name="Path 6053" d="M-360.911,291.03v3.207l-1.9,1.1V292.13Z" fill="#fff"/>
        <path id="Path_6054" data-name="Path 6054" d="M-361.127,291.393V294.1l-1.509.871v-2.708Z" fill="#79b1db"/>
      </g>
      <g id="Group_8872" data-name="Group 8872">
        <path id="Path_6055" data-name="Path 6055" d="M-365.154,293.489V296.7l-1.9,1.1v-3.207Z" fill="#fff"/>
        <path id="Path_6056" data-name="Path 6056" d="M-365.37,293.852v2.708l-1.509.871v-2.708Z" fill="#79b1db"/>
      </g>
      <g id="Group_8873" data-name="Group 8873">
        <path id="Path_6057" data-name="Path 6057" d="M-360.911,295.9v3.207l-1.9,1.1V297Z" fill="#fff"/>
        <path id="Path_6058" data-name="Path 6058" d="M-361.127,296.267v2.708l-1.509.871v-2.708Z" fill="#79b1db"/>
      </g>
      <g id="Group_8874" data-name="Group 8874">
        <path id="Path_6059" data-name="Path 6059" d="M-365.154,298.362v3.207l-1.9,1.1v-3.207Z" fill="#fff"/>
        <path id="Path_6060" data-name="Path 6060" d="M-365.37,298.726v2.708l-1.509.871V299.6Z" fill="#79b1db"/>
      </g>
      <g id="Group_8875" data-name="Group 8875">
        <path id="Path_6061" data-name="Path 6061" d="M-360.911,300.708v3.207l-1.9,1.1v-3.206Z" fill="#fff"/>
        <path id="Path_6062" data-name="Path 6062" d="M-361.127,301.072v2.708l-1.509.871v-2.708Z" fill="#79b1db"/>
      </g>
      <g id="Group_8876" data-name="Group 8876">
        <path id="Path_6063" data-name="Path 6063" d="M-365.154,303.168v3.207l-1.9,1.1v-3.207Z" fill="#fff"/>
        <path id="Path_6064" data-name="Path 6064" d="M-365.37,303.531v2.708l-1.509.871V304.4Z" fill="#79b1db"/>
      </g>
    </g>
    <g id="Group_8879" data-name="Group 8879">
      <path id="Path_6065" data-name="Path 6065" d="M-374.775,308.688l-.184-.107v5.262l3.5,2.03v-.2l-3.319-1.924Z" fill="#e5dbcf"/>
      <g id="Group_8878" data-name="Group 8878">
        <path id="Path_6066" data-name="Path 6066" d="M-374.571,308.807l-.2-.118v5.063l3.319,1.924v-.225l-3.115-1.806Z" fill="#d3c7ba"/>
        <path id="Path_6067" data-name="Path 6067" d="M-374.571,308.807v4.838l3.115,1.806v-4.838Z" fill="#fff"/>
      </g>
    </g>
    <g id="Group_8880" data-name="Group 8880">
      <path id="Path_6068" data-name="Path 6068" d="M-376.227,277.336l-3.923,2.268,4.661,2.7,3.923-2.265Z" fill="#6b7b8a"/>
      <path id="Path_6069" data-name="Path 6069" d="M-372.046,280l-3.413,1.97V278.9l3.413-1.97Z" fill="#d3c7ba"/>
      <path id="Path_6070" data-name="Path 6070" d="M-379.513,276.555v3.07l4.055,2.35V278.9Z" fill="#e5dbcf"/>
      <path id="Path_6071" data-name="Path 6071" d="M-377.287,278.248v2.675l1.153.665v-2.675Z" fill="#6b7b8a"/>
      <path id="Path_6072" data-name="Path 6072" d="M-376.205,278.962l-1.022-.59v2.587l1.022.59Z" fill="#889baa"/>
      <path id="Path_6073" data-name="Path 6073" d="M-376.1,274.582l-3.413,1.973,4.055,2.35,3.413-1.97Z" fill="#f4ede6"/>
    </g>
    <g id="Group_8883" data-name="Group 8883">
      <path id="Path_6074" data-name="Path 6074" d="M-370.476,286.9l1.716,1.005,1.154-.648-1.73-1.014Z" fill="#6b7b8a"/>
      <g id="Group_8882" data-name="Group 8882">
        <path id="Path_6075" data-name="Path 6075" d="M-368.76,287.4h-.078v.312l.078.047Z" fill="#889baa"/>
        <path id="Path_6076" data-name="Path 6076" d="M-368.76,287.4l.9-.433v.312l-.9.48Z" fill="#556877"/>
        <path id="Path_6077" data-name="Path 6077" d="M-370.145,286.608h-.078v.312l.078.047Z" fill="#889baa"/>
        <path id="Path_6078" data-name="Path 6078" d="M-370.145,286.608l.9-.433v.312l-.9.48Z" fill="#556877"/>
        <g id="Group_8881" data-name="Group 8881">
          <path id="Path_6079" data-name="Path 6079" d="M-370.293,285.22v1.407l1.611.934v-1.41Z" fill="#e5dbcf"/>
          <path id="Path_6080" data-name="Path 6080" d="M-368.683,286.151v1.41l.876-.5v-1.4Z" fill="#d3c7ba"/>
          <path id="Path_6081" data-name="Path 6081" d="M-370.293,285.22l1.611.931.876-.493-1.624-.94Z" fill="#fff"/>
        </g>
        <path id="Path_6082" data-name="Path 6082" d="M-369.637,286.416a.779.779,0,0,0,.4.668c.214.086.381-.074.374-.357a.775.775,0,0,0-.4-.668C-369.477,285.973-369.644,286.133-369.637,286.416Z" fill="#6b7b8a"/>
        <path id="Path_6083" data-name="Path 6083" d="M-369.5,286.47a.506.506,0,0,0,.262.436c.139.056.249-.048.244-.233a.507.507,0,0,0-.261-.436C-369.4,286.18-369.507,286.285-369.5,286.47Z" fill="#556877"/>
      </g>
    </g>
    <g id="Group_8886" data-name="Group 8886">
      <path id="Path_6084" data-name="Path 6084" d="M-367.887,285.391l1.716,1.005,1.154-.648-1.73-1.014Z" fill="#6b7b8a"/>
      <g id="Group_8885" data-name="Group 8885">
        <path id="Path_6085" data-name="Path 6085" d="M-366.171,285.893h-.078v.312l.078.047Z" fill="#889baa"/>
        <path id="Path_6086" data-name="Path 6086" d="M-366.171,285.893l.9-.433v.312l-.9.48Z" fill="#556877"/>
        <path id="Path_6087" data-name="Path 6087" d="M-367.557,285.1h-.078v.312l.078.047Z" fill="#889baa"/>
        <path id="Path_6088" data-name="Path 6088" d="M-367.557,285.1l.9-.433v.312l-.9.48Z" fill="#556877"/>
        <g id="Group_8884" data-name="Group 8884">
          <path id="Path_6089" data-name="Path 6089" d="M-367.7,283.712v1.407l1.611.934v-1.41Z" fill="#e5dbcf"/>
          <path id="Path_6090" data-name="Path 6090" d="M-366.094,284.643v1.41l.876-.5v-1.4Z" fill="#d3c7ba"/>
          <path id="Path_6091" data-name="Path 6091" d="M-367.7,283.712l1.611.931.876-.493-1.624-.94Z" fill="#fff"/>
        </g>
        <path id="Path_6092" data-name="Path 6092" d="M-367.048,284.908a.777.777,0,0,0,.4.668c.214.085.381-.074.374-.357a.779.779,0,0,0-.4-.668C-366.888,284.465-367.055,284.625-367.048,284.908Z" fill="#6b7b8a"/>
        <path id="Path_6093" data-name="Path 6093" d="M-366.914,284.962a.509.509,0,0,0,.261.436c.14.056.249-.048.245-.233a.509.509,0,0,0-.262-.437C-366.809,284.672-366.919,284.777-366.914,284.962Z" fill="#556877"/>
      </g>
    </g>
    <g id="Group_8889" data-name="Group 8889">
      <path id="Path_6094" data-name="Path 6094" d="M-365.453,283.87l1.716,1.005,1.154-.648-1.73-1.014Z" fill="#6b7b8a"/>
      <g id="Group_8888" data-name="Group 8888">
        <path id="Path_6095" data-name="Path 6095" d="M-363.737,284.372h-.078v.312l.078.047Z" fill="#889baa"/>
        <path id="Path_6096" data-name="Path 6096" d="M-363.737,284.372l.9-.433v.312l-.9.48Z" fill="#556877"/>
        <path id="Path_6097" data-name="Path 6097" d="M-365.123,283.579h-.078v.312l.078.047Z" fill="#889baa"/>
        <path id="Path_6098" data-name="Path 6098" d="M-365.123,283.579l.9-.433v.312l-.9.48Z" fill="#556877"/>
        <g id="Group_8887" data-name="Group 8887">
          <path id="Path_6099" data-name="Path 6099" d="M-365.271,282.19V283.6l1.611.934v-1.41Z" fill="#e5dbcf"/>
          <path id="Path_6100" data-name="Path 6100" d="M-363.66,283.121v1.41l.876-.5v-1.4Z" fill="#d3c7ba"/>
          <path id="Path_6101" data-name="Path 6101" d="M-365.271,282.19l1.611.931.876-.493-1.624-.94Z" fill="#fff"/>
        </g>
        <path id="Path_6102" data-name="Path 6102" d="M-364.614,283.386a.777.777,0,0,0,.4.668c.214.086.381-.074.374-.357a.779.779,0,0,0-.4-.668C-364.454,282.943-364.621,283.1-364.614,283.386Z" fill="#6b7b8a"/>
        <path id="Path_6103" data-name="Path 6103" d="M-364.48,283.44a.507.507,0,0,0,.261.436c.14.057.249-.048.245-.233a.506.506,0,0,0-.262-.436C-364.375,283.151-364.485,283.255-364.48,283.44Z" fill="#556877"/>
      </g>
    </g>
    <path id="Path_6104" data-name="Path 6104" d="M-377.88,286l-1.145-.661v20.229l1.145.661Z" fill="#778896"/>
  </g>
</svg>
