<svg xmlns="http://www.w3.org/2000/svg" width="28.218" height="19.7" viewBox="0 0 28.218 19.7">
  <g id="Group_9348" data-name="Group 9348" transform="translate(296.04 -404.615)">
    <path id="Icon_awesome-cloud" data-name="Icon awesome-cloud" d="M-272.385,413.2a4.2,4.2,0,0,0-2.454-5.411,4.2,4.2,0,0,0-3.808.436,7.021,7.021,0,0,0-9.6-2.535,7.019,7.019,0,0,0-3.488,6.009c0,.117,0,.234.009.353a6.258,6.258,0,0,0-3.843,7.973,6.26,6.26,0,0,0,5.937,4.195h16.127a5.564,5.564,0,0,0,5.583-5.544A5.565,5.565,0,0,0-272.385,413.2Z" transform="translate(0 0)" fill="#0c569c" stroke="#fff" stroke-width="0.2"/>
    <g id="Group_9346" data-name="Group 9346" transform="translate(-290.984 413.307)">
      <path id="Path_6984" data-name="Path 6984" d="M-282.035,417.785q.568-1.6,1.134-3.2c.356-1,.731-1.994,1.062-3a.45.45,0,0,1,.581-.342c.342.06.8-.232,1,.306q1.1,3.049,2.191,6.1a.679.679,0,0,1,0,.187H-277.7c-.187-.509-.381-.984-.531-1.473a.53.53,0,0,0-.6-.425c-.458.014-.918.02-1.373,0a.56.56,0,0,0-.63.472c-.1.333-.264.649-.338.986C-281.286,417.888-281.57,417.945-282.035,417.785Zm3.413-2.543-.819-2.341-.2.031-.77,2.31Z" transform="translate(294.185 -411.041)" fill="#fff"/>
      <path id="Path_6985" data-name="Path 6985" d="M-291.28,416.8a14.346,14.346,0,0,0,1.82.442.867.867,0,0,0,.962-.731.906.906,0,0,0-.582-1.065c-.443-.219-.9-.412-1.346-.62a1.729,1.729,0,0,1-1.079-1.857,1.983,1.983,0,0,1,1.424-1.719,3.321,3.321,0,0,1,2.469.161c.538.216.011.577.082.985-.3-.143-.494-.256-.705-.339a2.722,2.722,0,0,0-.727-.228.863.863,0,0,0-1.021.552.848.848,0,0,0,.535,1.071c.489.25,1,.462,1.478.72a1.75,1.75,0,0,1,.965,1.775,1.994,1.994,0,0,1-1.2,1.828,3.6,3.6,0,0,1-3.037-.117C-291.863,417.38-291.278,417.006-291.28,416.8Z" transform="translate(291.529 -411.08)" fill="#fff"/>
      <path id="Path_6986" data-name="Path 6986" d="M-285.362,411.928v-.692h1.156c1.135,0,2.269-.006,3.4-.005.586,0,.6.017.509.7-.369,0-.75.022-1.128-.006-.467-.035-.591.17-.587.612.019,1.666.006,3.331.005,5,0,.072-.013.143-.023.267h-1.6v-.619c0-1.537-.017-3.075.013-4.612.01-.514-.168-.691-.664-.646C-284.62,411.953-284.967,411.928-285.362,411.928Z" transform="translate(293.254 -411.038)" fill="#fff"/>
      <path id="Path_6987" data-name="Path 6987" d="M-287.149,417.847v-6.576h1.59v.945c0,1.7-.02,3.408,0,5.112.005.422-.127.557-.53.525C-286.427,417.825-286.773,417.847-287.149,417.847Z" transform="translate(292.754 -411.027)" fill="#fff"/>
    </g>
  </g>
</svg>
