<svg xmlns="http://www.w3.org/2000/svg" width="11.273" height="8.82" viewBox="0 0 11.273 8.82">
  <g id="Icon_feather-radio" data-name="Icon feather-radio" transform="translate(0.6 0.849)">
    <path id="Path_2179" data-name="Path 2179" d="M17.015,16.008A1.008,1.008,0,1,1,16.008,15,1.008,1.008,0,0,1,17.015,16.008Z" transform="translate(-10.971 -12.446)" fill="none" stroke="#a8a8a8" stroke-linecap="round" stroke-linejoin="round" stroke-width="1.2"/>
    <path id="Path_2180" data-name="Path 2180" d="M10.176,8.821a3.023,3.023,0,0,1,0,4.277M5.9,13.092a3.023,3.023,0,0,1,0-4.277m5.7-1.421a5.038,5.038,0,0,1,0,7.123m-7.123,0a5.038,5.038,0,0,1,0-7.123" transform="translate(-3.003 -7.395)" fill="none" stroke="#a8a8a8" stroke-linecap="round" stroke-linejoin="round" stroke-width="1.2"/>
  </g>
</svg>
