<svg xmlns="http://www.w3.org/2000/svg" width="12.578" height="10.572" viewBox="0 0 12.578 10.572">
  <g id="Icon_feather-users" data-name="Icon feather-users" transform="translate(0.6 0.663)">
    <path id="Path_1897" data-name="Path 1897" d="M9.775,25.6V24.569A2.069,2.069,0,0,0,7.706,22.5H3.569A2.069,2.069,0,0,0,1.5,24.569V25.6" transform="translate(-1.5 -16.294)" fill="none" stroke="#a8a8a8" stroke-linecap="round" stroke-linejoin="round" stroke-width="1.2"/>
    <path id="Path_1898" data-name="Path 1898" d="M11.638,6.569A2.069,2.069,0,1,1,9.569,4.5,2.069,2.069,0,0,1,11.638,6.569Z" transform="translate(-5.431 -4.5)" fill="none" stroke="#a8a8a8" stroke-linecap="round" stroke-linejoin="round" stroke-width="1.2"/>
    <path id="Path_1899" data-name="Path 1899" d="M31.552,25.731V24.7A2.069,2.069,0,0,0,30,22.7" transform="translate(-20.173 -16.421)" fill="none" stroke="#a8a8a8" stroke-linecap="round" stroke-linejoin="round" stroke-width="1.2"/>
    <path id="Path_1900" data-name="Path 1900" d="M24,4.7A2.069,2.069,0,0,1,24,8.7" transform="translate(-16.242 -4.628)" fill="none" stroke="#a8a8a8" stroke-linecap="round" stroke-linejoin="round" stroke-width="1.2"/>
  </g>
</svg>
