<svg id="Group_2864" data-name="Group 2864" xmlns="http://www.w3.org/2000/svg" width="12" height="12" viewBox="0 0 12 12">
  <g id="Rectangle_2262" data-name="Rectangle 2262" fill="#fee0e6" stroke="#fa6580" stroke-width="0.5">
    <rect width="12" height="12" rx="2" stroke="none"/>
    <rect x="0.25" y="0.25" width="11.5" height="11.5" rx="1.75" fill="none"/>
  </g>
  <path id="Icon_awesome-star" data-name="Icon awesome-star" d="M4.164.2,3.42,1.661,1.754,1.9a.352.352,0,0,0-.2.6l1.205,1.14-.285,1.61A.363.363,0,0,0,3,5.624l1.49-.76,1.49.76a.363.363,0,0,0,.529-.373l-.285-1.61L7.431,2.5a.352.352,0,0,0-.2-.6L5.563,1.661,4.819.2A.37.37,0,0,0,4.164.2Z" transform="translate(1.509 3.167)" fill="#fa6580"/>
</svg>
