<svg width="1496" height="20" viewBox="0 0 1496 20" fill="none" xmlns="http://www.w3.org/2000/svg">
<circle cx="9.587" cy="9.587" r="9.587" fill="#131313"/>
<circle cx="31.9561" cy="9.587" r="9.587" fill="#131313"/>
<circle cx="54.3272" cy="9.587" r="9.587" fill="#131313"/>
<circle cx="76.6964" cy="9.587" r="9.587" fill="#131313"/>
<circle cx="99.0655" cy="9.587" r="9.587" fill="#131313"/>
<circle cx="121.435" cy="9.587" r="9.587" fill="#131313"/>
<circle cx="143.806" cy="9.587" r="9.587" fill="#131313"/>
<circle cx="166.175" cy="9.587" r="9.587" fill="#131313"/>
<circle cx="188.544" cy="9.587" r="9.587" fill="#131313"/>
<circle cx="210.913" cy="9.587" r="9.587" fill="#131313"/>
<circle cx="233.284" cy="9.587" r="9.587" fill="#131313"/>
<circle cx="255.653" cy="9.587" r="9.587" fill="#131313"/>
<circle cx="278.023" cy="9.587" r="9.587" fill="#131313"/>
<circle cx="300.392" cy="9.587" r="9.587" fill="#131313"/>
<circle cx="322.763" cy="9.587" r="9.587" fill="#131313"/>
<circle cx="345.132" cy="9.587" r="9.587" fill="#131313"/>
<circle cx="367.501" cy="9.587" r="9.587" fill="#131313"/>
<circle cx="389.872" cy="9.587" r="9.587" fill="#131313"/>
<circle cx="412.241" cy="9.587" r="9.587" fill="#131313"/>
<circle cx="434.61" cy="9.587" r="9.587" fill="#131313"/>
<circle cx="456.98" cy="9.587" r="9.587" fill="#131313"/>
<circle cx="479.351" cy="9.587" r="9.587" fill="#131313"/>
<circle cx="501.72" cy="9.587" r="9.587" fill="#131313"/>
<circle cx="524.089" cy="9.587" r="9.587" fill="#131313"/>
<circle cx="546.458" cy="9.587" r="9.587" fill="#131313"/>
<circle cx="568.829" cy="9.587" r="9.587" fill="#131313"/>
<circle cx="591.198" cy="9.587" r="9.587" fill="#131313"/>
<circle cx="613.567" cy="9.587" r="9.587" fill="#131313"/>
<circle cx="635.937" cy="9.587" r="9.587" fill="#131313"/>
<circle cx="658.308" cy="9.587" r="9.587" fill="#131313"/>
<circle cx="680.677" cy="9.587" r="9.587" fill="#131313"/>
<circle cx="703.046" cy="9.587" r="9.587" fill="#131313"/>
<circle cx="725.415" cy="9.587" r="9.587" fill="#131313"/>
<circle cx="747.786" cy="9.587" r="9.587" fill="#131313"/>
<circle cx="770.155" cy="9.587" r="9.587" fill="#131313"/>
<circle cx="792.524" cy="9.587" r="9.587" fill="#131313"/>
<circle cx="814.894" cy="9.587" r="9.587" fill="#131313"/>
<circle cx="837.265" cy="9.587" r="9.587" fill="#131313"/>
<circle cx="859.634" cy="9.587" r="9.587" fill="#131313"/>
<circle cx="882.003" cy="9.587" r="9.587" fill="#131313"/>
<circle cx="904.372" cy="9.587" r="9.587" fill="#131313"/>
<circle cx="926.743" cy="9.587" r="9.587" fill="#131313"/>
<circle cx="949.112" cy="9.587" r="9.587" fill="#131313"/>
<circle cx="971.482" cy="9.587" r="9.587" fill="#131313"/>
<circle cx="993.851" cy="9.587" r="9.587" fill="#131313"/>
<circle cx="1016.22" cy="9.587" r="9.587" fill="#131313"/>
<circle cx="1038.59" cy="9.587" r="9.587" fill="#131313"/>
<circle cx="1060.96" cy="9.587" r="9.587" fill="#131313"/>
<circle cx="1083.33" cy="9.587" r="9.587" fill="#131313"/>
<circle cx="1105.7" cy="9.587" r="9.587" fill="#131313"/>
<circle cx="1128.07" cy="9.587" r="9.587" fill="#131313"/>
<circle cx="1150.44" cy="9.587" r="9.587" fill="#131313"/>
<circle cx="1172.81" cy="9.587" r="9.587" fill="#131313"/>
<circle cx="1195.18" cy="9.587" r="9.587" fill="#131313"/>
<circle cx="1217.55" cy="9.587" r="9.587" fill="#131313"/>
<circle cx="1239.92" cy="9.587" r="9.587" fill="#131313"/>
<circle cx="1262.29" cy="9.587" r="9.587" fill="#131313"/>
<circle cx="1284.66" cy="9.587" r="9.587" fill="#131313"/>
<circle cx="1307.03" cy="9.587" r="9.587" fill="#131313"/>
<circle cx="1329.4" cy="9.587" r="9.587" fill="#131313"/>
<circle cx="1351.76" cy="9.587" r="9.587" fill="#131313"/>
<circle cx="1374.14" cy="9.587" r="9.587" fill="#131313"/>
<circle cx="1396.51" cy="9.587" r="9.587" fill="#131313"/>
<circle cx="1418.87" cy="9.587" r="9.587" fill="#131313"/>
<circle cx="1441.24" cy="9.587" r="9.587" fill="#131313"/>
<circle cx="1463.61" cy="9.587" r="9.587" fill="#131313"/>
<circle cx="1485.98" cy="9.587" r="9.587" fill="#131313"/>
</svg>
