<svg width="1728" height="268" viewBox="0 0 1728 268" fill="none" xmlns="http://www.w3.org/2000/svg">
<circle cx="56.2656" cy="51.6201" r="20.899" fill="#959595" stroke="black" stroke-width="6.43046"/>
<path d="M67.5564 55.2124H58.6768V64.07H55.7536V55.2124H46.896V52.2672H55.7536V43.4096H58.6768V52.2672H67.5564V55.2124Z" fill="black"/>
<line x1="258.623" y1="0.783203" x2="258.623" y2="267.647" stroke="black" stroke-width="2.81113"/>
<line x1="780.087" y1="5" x2="780.087" y2="267.84" stroke="black" stroke-width="2.81113"/>
<line x1="508.814" y1="2.18945" x2="508.814" y2="265.03" stroke="black" stroke-width="2.81113"/>
<line x1="1305.77" y1="4.99443" x2="1306.79" y2="262.212" stroke="black" stroke-width="2.81113"/>
<line x1="955.783" y1="5" x2="955.783" y2="267.84" stroke="black" stroke-width="2.81113"/>
<line x1="988.48" y1="4.40234" x2="988.48" y2="267.243" stroke="black" stroke-width="2.81113"/>
<line x1="1481.87" y1="2.18945" x2="1481.87" y2="265.03" stroke="black" stroke-width="6.43046"/>
<circle cx="57.873" cy="104.672" r="14.6706" fill="#D9D9D9" stroke="black" stroke-width="2.81113"/>
<ellipse cx="586.546" cy="26.7053" rx="12.2258" ry="12.0608" fill="#131313"/>
<ellipse cx="610.998" cy="26.7053" rx="12.2258" ry="12.0608" fill="#131313"/>
<ellipse cx="635.45" cy="26.7053" rx="12.2258" ry="12.0608" fill="#131313"/>
<ellipse cx="659.902" cy="26.7053" rx="12.2258" ry="12.0608" fill="#131313"/>
<ellipse cx="684.353" cy="26.7053" rx="12.2258" ry="12.0608" fill="#131313"/>
<ellipse cx="708.804" cy="26.7053" rx="12.2258" ry="12.0608" fill="#131313"/>
<ellipse cx="733.256" cy="26.7053" rx="12.2258" ry="12.0608" fill="#131313"/>
<ellipse cx="619.149" cy="50.8264" rx="12.2258" ry="12.0608" fill="#131313"/>
<ellipse cx="643.601" cy="50.8264" rx="12.2258" ry="12.0608" fill="#131313"/>
<ellipse cx="668.053" cy="50.8264" rx="12.2258" ry="12.0608" fill="#131313"/>
<ellipse cx="692.503" cy="50.8264" rx="12.2258" ry="12.0608" fill="#131313"/>
<ellipse cx="716.955" cy="50.8264" rx="12.2258" ry="12.0608" fill="#131313"/>
<ellipse cx="741.406" cy="50.8264" rx="12.2258" ry="12.0608" fill="#131313"/>
<ellipse cx="570.246" cy="74.9475" rx="12.2258" ry="12.0608" fill="#131313"/>
<ellipse cx="594.698" cy="74.9475" rx="12.2258" ry="12.0608" fill="#131313"/>
<ellipse cx="619.149" cy="74.9475" rx="12.2258" ry="12.0608" fill="#131313"/>
<ellipse cx="643.601" cy="74.9475" rx="12.2258" ry="12.0608" fill="#131313"/>
<ellipse cx="668.053" cy="74.9475" rx="12.2258" ry="12.0608" fill="#131313"/>
<ellipse cx="692.503" cy="74.9475" rx="12.2258" ry="12.0608" fill="#131313"/>
<ellipse cx="716.955" cy="74.9475" rx="12.2258" ry="12.0608" fill="#131313"/>
<ellipse cx="741.406" cy="74.9475" rx="12.2258" ry="12.0608" fill="#131313"/>
<ellipse cx="765.859" cy="74.9475" rx="12.2258" ry="12.0608" fill="#131313"/>
<ellipse cx="570.246" cy="99.0686" rx="12.2258" ry="12.0608" fill="#131313"/>
<ellipse cx="594.698" cy="99.0686" rx="12.2258" ry="12.0608" fill="#131313"/>
<ellipse cx="520.231" cy="76.0452" rx="12.2258" ry="12.0608" fill="#131313"/>
<ellipse cx="544.683" cy="76.0452" rx="12.2258" ry="12.0608" fill="#131313"/>
<ellipse cx="520.231" cy="100.166" rx="12.2258" ry="12.0608" fill="#131313"/>
<ellipse cx="544.683" cy="100.166" rx="12.2258" ry="12.0608" fill="#131313"/>
<ellipse cx="619.149" cy="99.0686" rx="12.2258" ry="12.0608" fill="#131313"/>
<ellipse cx="643.601" cy="99.0686" rx="12.2258" ry="12.0608" fill="#131313"/>
<ellipse cx="668.053" cy="99.0686" rx="12.2258" ry="12.0608" fill="#131313"/>
<ellipse cx="692.503" cy="99.0686" rx="12.2258" ry="12.0608" fill="#131313"/>
<ellipse cx="716.955" cy="99.0686" rx="12.2258" ry="12.0608" fill="#131313"/>
<ellipse cx="741.406" cy="99.0686" rx="12.2258" ry="12.0608" fill="#131313"/>
<ellipse cx="765.859" cy="99.0686" rx="12.2258" ry="12.0608" fill="#131313"/>
<ellipse cx="1462.29" cy="142.453" rx="12.2258" ry="12.0608" fill="#131313"/>
<ellipse cx="1439.79" cy="193.897" rx="12.2258" ry="12.0608" fill="#131313"/>
<ellipse cx="1388.34" cy="168.174" rx="12.2258" ry="12.0608" fill="#131313"/>
<ellipse cx="1439.79" cy="219.619" rx="12.2258" ry="12.0608" fill="#131313"/>
<ellipse cx="1430.29" cy="45.9964" rx="12.2258" ry="12.0608" fill="#131313"/>
<ellipse cx="1454.74" cy="45.9964" rx="12.2258" ry="12.0608" fill="#131313"/>
<ellipse cx="1479.19" cy="45.9964" rx="12.2258" ry="12.0608" fill="#131313"/>
<ellipse cx="1414.06" cy="219.619" rx="12.2258" ry="12.0608" fill="#131313"/>
<ellipse cx="1388.34" cy="193.897" rx="12.2258" ry="12.0608" fill="#131313"/>
<ellipse cx="1388.34" cy="219.619" rx="12.2258" ry="12.0608" fill="#131313"/>
<ellipse cx="1438.43" cy="70.1194" rx="12.2258" ry="12.0608" fill="#131313"/>
<ellipse cx="1462.89" cy="70.1194" rx="12.2258" ry="12.0608" fill="#131313"/>
<ellipse cx="1487.34" cy="70.1194" rx="12.2258" ry="12.0608" fill="#131313"/>
<ellipse cx="1439.79" cy="168.174" rx="12.2258" ry="12.0608" fill="#131313"/>
<ellipse cx="1462.29" cy="193.897" rx="12.2258" ry="12.0608" fill="#131313"/>
<ellipse cx="1365.84" cy="94.2249" rx="12.2258" ry="12.0608" fill="#131313"/>
<ellipse cx="1390.29" cy="94.2249" rx="12.2258" ry="12.0608" fill="#131313"/>
<ellipse cx="1510.36" cy="142.618" rx="12.2258" ry="12.0608" transform="rotate(90 1510.36 142.618)" fill="#131313"/>
<ellipse cx="1510.36" cy="167.07" rx="12.2258" ry="12.0608" transform="rotate(90 1510.36 167.07)" fill="#131313"/>
<ellipse cx="1513.57" cy="194.062" rx="12.2258" ry="12.0608" transform="rotate(90 1513.57 194.062)" fill="#131313"/>
<ellipse cx="1513.57" cy="218.513" rx="12.2258" ry="12.0608" transform="rotate(90 1513.57 218.513)" fill="#131313"/>
<ellipse cx="1413.99" cy="94.2385" rx="12.2258" ry="12.0608" fill="#131313"/>
<ellipse cx="1438.43" cy="94.2385" rx="12.2258" ry="12.0608" fill="#131313"/>
<ellipse cx="1462.89" cy="94.2385" rx="12.2258" ry="12.0608" fill="#131313"/>
<ellipse cx="1487.34" cy="94.2385" rx="12.2258" ry="12.0608" fill="#131313"/>
<ellipse cx="1511.79" cy="94.2385" rx="12.2258" ry="12.0608" fill="#131313"/>
<ellipse cx="1414.06" cy="168.174" rx="12.2258" ry="12.0608" fill="#131313"/>
<ellipse cx="1414.06" cy="193.897" rx="12.2258" ry="12.0608" fill="#131313"/>
<ellipse cx="1439.79" cy="142.453" rx="12.2258" ry="12.0608" fill="#131313"/>
<ellipse cx="1462.29" cy="168.174" rx="12.2258" ry="12.0608" fill="#131313"/>
<ellipse cx="1414.06" cy="142.453" rx="12.2258" ry="12.0608" fill="#131313"/>
<ellipse cx="1388.34" cy="142.453" rx="12.2258" ry="12.0608" fill="#131313"/>
<ellipse cx="1414.06" cy="68.5022" rx="12.2258" ry="12.0608" fill="#131313"/>
<ellipse cx="1365.84" cy="181.035" rx="12.2258" ry="12.0608" fill="#131313"/>
<ellipse cx="1462.29" cy="219.619" rx="12.2258" ry="12.0608" fill="#131313"/>
<ellipse cx="1389.53" cy="118.362" rx="12.2258" ry="12.0608" fill="#131313"/>
<ellipse cx="1413.99" cy="118.362" rx="12.2258" ry="12.0608" fill="#131313"/>
<ellipse cx="1438.43" cy="118.362" rx="12.2258" ry="12.0608" fill="#131313"/>
<ellipse cx="1462.89" cy="118.362" rx="12.2258" ry="12.0608" fill="#131313"/>
<ellipse cx="1487.34" cy="118.362" rx="12.2258" ry="12.0608" fill="#131313"/>
<ellipse cx="1511.79" cy="118.362" rx="12.2258" ry="12.0608" fill="#131313"/>
<ellipse cx="668.053" cy="167.414" rx="12.2258" ry="12.0608" fill="#131313"/>
<ellipse cx="716.955" cy="167.414" rx="12.2258" ry="12.0608" fill="#131313"/>
<ellipse cx="692.503" cy="167.414" rx="12.2258" ry="12.0608" fill="#131313"/>
<ellipse cx="741.406" cy="167.414" rx="12.2258" ry="12.0608" fill="#131313"/>
<ellipse cx="765.859" cy="167.414" rx="12.2258" ry="12.0608" fill="#131313"/>
<ellipse cx="594.698" cy="167.414" rx="12.2258" ry="12.0608" fill="#131313"/>
<ellipse cx="570.246" cy="167.414" rx="12.2258" ry="12.0608" fill="#131313"/>
<ellipse cx="619.149" cy="167.414" rx="12.2258" ry="12.0608" fill="#131313"/>
<ellipse cx="643.601" cy="167.414" rx="12.2258" ry="12.0608" fill="#131313"/>
<ellipse cx="668.053" cy="191.535" rx="12.2258" ry="12.0608" fill="#131313"/>
<ellipse cx="716.955" cy="191.535" rx="12.2258" ry="12.0608" fill="#131313"/>
<ellipse cx="692.503" cy="191.535" rx="12.2258" ry="12.0608" fill="#131313"/>
<ellipse cx="741.406" cy="191.535" rx="12.2258" ry="12.0608" fill="#131313"/>
<ellipse cx="765.859" cy="191.535" rx="12.2258" ry="12.0608" fill="#131313"/>
<ellipse cx="745.297" cy="214.194" rx="12.2258" ry="12.0608" fill="#131313"/>
<ellipse cx="719.575" cy="214.196" rx="12.2258" ry="12.0608" fill="#131313"/>
<ellipse cx="619.903" cy="214.194" rx="12.2258" ry="12.0608" fill="#131313"/>
<ellipse cx="645.625" cy="214.196" rx="12.2258" ry="12.0608" fill="#131313"/>
<ellipse cx="668.131" cy="214.194" rx="12.2258" ry="12.0608" fill="#131313"/>
<ellipse cx="693.854" cy="214.194" rx="12.2258" ry="12.0608" fill="#131313"/>
<ellipse cx="594.698" cy="215.658" rx="12.2258" ry="12.0608" fill="#131313"/>
<ellipse cx="594.181" cy="240.51" rx="12.2258" ry="12.0608" fill="#131313"/>
<ellipse cx="719.575" cy="240.51" rx="12.2258" ry="12.0608" fill="#131313"/>
<ellipse cx="745.297" cy="240.51" rx="12.2258" ry="12.0608" fill="#131313"/>
<ellipse cx="594.698" cy="191.535" rx="12.2258" ry="12.0608" fill="#131313"/>
<ellipse cx="570.246" cy="191.17" rx="12.2258" ry="12.0608" fill="#131313"/>
<ellipse cx="545.952" cy="168.145" rx="12.2258" ry="12.0608" fill="#131313"/>
<ellipse cx="545.952" cy="191.901" rx="12.2258" ry="12.0608" fill="#131313"/>
<ellipse cx="570.246" cy="214.196" rx="12.2258" ry="12.0608" fill="#131313"/>
<ellipse cx="568.459" cy="240.51" rx="12.2258" ry="12.0608" fill="#131313"/>
<ellipse cx="545.952" cy="214.924" rx="12.2258" ry="12.0608" fill="#131313"/>
<ellipse cx="545.952" cy="240.51" rx="12.2258" ry="12.0608" fill="#131313"/>
<ellipse cx="520.231" cy="168.145" rx="12.2258" ry="12.0608" fill="#131313"/>
<ellipse cx="520.231" cy="192.266" rx="12.2258" ry="12.0608" fill="#131313"/>
<ellipse cx="619.149" cy="191.535" rx="12.2258" ry="12.0608" fill="#131313"/>
<ellipse cx="643.601" cy="191.535" rx="12.2258" ry="12.0608" fill="#131313"/>
<rect x="508.005" y="111.102" width="270.079" height="45.0132" fill="#A3A4A8"/>
<rect x="514.436" y="117.533" width="254.003" height="32.1523" rx="16.0761" fill="#B71A1B"/>
<rect x="598.835" y="227.655" width="114.141" height="20.899" rx="5.62665" fill="url(#paint0_linear_539_311)" stroke="black" stroke-width="1.60761"/>
<rect x="86.8105" y="107.887" width="73.9502" height="45.0132" fill="white"/>
<rect x="86.8105" y="50.0137" width="73.9502" height="45.0132" fill="white"/>
<rect x="980.644" y="21.0762" width="22.5066" height="73.9502" fill="url(#paint1_linear_539_311)"/>
<rect x="980.644" y="172.191" width="22.5066" height="73.9502" fill="url(#paint2_linear_539_311)"/>
<line x1="1281.87" y1="5.00441" x2="1281.07" y2="262.222" stroke="black" stroke-width="2.81113"/>
<rect x="1273.23" y="24.291" width="22.5066" height="73.9502" fill="url(#paint3_linear_539_311)"/>
<rect x="1273.23" y="175.406" width="22.5066" height="73.9502" fill="url(#paint4_linear_539_311)"/>
<rect x="989.517" y="94.9551" width="25.3001" height="77.306" rx="6.43046" fill="url(#paint5_linear_539_311)"/>
<mask id="path-135-inside-1_539_311" fill="white">
<rect x="1014.82" y="103.389" width="22.489" height="61.8448" rx="1.60761"/>
</mask>
<rect x="1014.82" y="103.389" width="22.489" height="61.8448" rx="1.60761" fill="#BDBFC4" stroke="#796E6A" stroke-width="5.62225" mask="url(#path-135-inside-1_539_311)"/>
<rect x="1003.57" y="99.1719" width="7.02782" height="68.8726" rx="3.21523" fill="#FCFCFC"/>
<rect x="1307.17" y="97.7676" width="25.3001" height="77.306" rx="6.43046" fill="url(#paint6_linear_539_311)"/>
<mask id="path-138-inside-2_539_311" fill="white">
<rect x="1332.47" y="106.201" width="22.489" height="61.8448" rx="1.60761"/>
</mask>
<rect x="1332.47" y="106.201" width="22.489" height="61.8448" rx="1.60761" fill="#BDBFC4" stroke="#796E6A" stroke-width="5.62225" mask="url(#path-138-inside-2_539_311)"/>
<rect x="1321.23" y="101.984" width="7.02782" height="68.8726" rx="3.21523" fill="#FCFCFC"/>
<rect x="1137.1" y="5" width="25.3001" height="257.218" fill="url(#paint7_linear_539_311)"/>
<rect x="1484.24" y="5.19141" width="30.9224" height="260.029" fill="#281C18"/>
<rect x="1484.24" y="5.19141" width="25.3001" height="257.218" fill="url(#paint8_linear_539_311)"/>
<rect x="1484.27" y="80.9004" width="25.3001" height="104.012" rx="12.6501" fill="#D9D9D9"/>
<rect x="-1.40556" y="1.40556" width="122.029" height="189.335" rx="5.33611" transform="matrix(-1 0 0 1 1656.9 14.8379)" fill="#626060" stroke="black" stroke-width="2.81113"/>
<path d="M1635.71 158.946L1606.9 185.967H1558.88V38.8555H1606.9L1635.71 71.8805V158.946Z" fill="#111110" stroke="black" stroke-width="2.81113"/>
<rect width="24.0077" height="18.0137" rx="3.37084" transform="matrix(-1 0 0 1 1592.49 68.8789)" fill="#D9D9D9"/>
<rect width="24.0077" height="18.0137" rx="3.37084" transform="matrix(-1 0 0 1 1592.49 140.934)" fill="#D9D9D9"/>
<rect width="24.0077" height="18.0137" rx="3.37084" transform="matrix(-1 0 0 1 1621.3 104.906)" fill="#D9D9D9"/>
<circle cx="1666.4" cy="115.442" r="6.43045" fill="#808080"/>
<g clip-path="url(#clip0_539_311)">
<path d="M204.083 31.4692H206.423V37.979C206.423 41.2834 204.602 43.1786 201.429 43.1786C198.29 43.1786 196.485 41.3163 196.485 38.0696V31.4774H198.825V37.9955C198.825 39.9237 199.773 40.9537 201.462 40.9537C203.151 40.9537 204.083 39.9484 204.083 38.0779V31.4692ZM190.898 36.1167H185.608V31.4692H183.268V43.0056H185.608V38.3169H190.89V43.0056H193.23V31.4692H190.89V36.1167H190.898ZM249.503 31.4692V42.9891H251.81V31.4692H249.503ZM240.315 38.0367H244.575V35.9354H240.315V33.5704H246.495V31.4774H238.008V42.9973H246.718V40.8961H240.315V38.0367ZM231.135 39.3963L228.515 31.4609H226.603L223.983 39.3963L221.437 31.4692H218.948L222.969 42.9973H224.906L227.526 35.4245L230.147 42.9973H232.099L236.113 31.4692H233.682L231.135 39.3963ZM214.787 31.5351L219.821 42.9973H217.366L216.328 40.5994H211.046L210.971 40.7642L209.999 42.9973H207.609L212.694 31.4692H214.737L214.787 31.5351ZM215.347 38.2427L213.682 34.378L212.026 38.2427L211.911 38.5064H215.454L215.347 38.2427Z" fill="black"/>
</g>
<line x1="1695.41" y1="5" x2="1695.41" y2="267.84" stroke="black" stroke-width="2.81113"/>
<defs>
<linearGradient id="paint0_linear_539_311" x1="598.031" y1="238.105" x2="713.779" y2="238.105" gradientUnits="userSpaceOnUse">
<stop stop-color="white"/>
<stop offset="1" stop-color="#999999"/>
</linearGradient>
<linearGradient id="paint1_linear_539_311" x1="983.859" y1="58.0513" x2="1001.54" y2="58.0513" gradientUnits="userSpaceOnUse">
<stop offset="0.0336538" stop-color="#D9D9D9"/>
<stop offset="0.54212" stop-color="#A5A5A5"/>
<stop offset="1" stop-color="#737373"/>
</linearGradient>
<linearGradient id="paint2_linear_539_311" x1="983.859" y1="209.167" x2="1001.54" y2="209.167" gradientUnits="userSpaceOnUse">
<stop offset="0.0336538" stop-color="#D9D9D9"/>
<stop offset="0.54212" stop-color="#A5A5A5"/>
<stop offset="1" stop-color="#737373"/>
</linearGradient>
<linearGradient id="paint3_linear_539_311" x1="1276.44" y1="61.2661" x2="1294.13" y2="61.2661" gradientUnits="userSpaceOnUse">
<stop offset="0.0336538" stop-color="#D9D9D9"/>
<stop offset="0.54212" stop-color="#A5A5A5"/>
<stop offset="1" stop-color="#737373"/>
</linearGradient>
<linearGradient id="paint4_linear_539_311" x1="1276.44" y1="212.381" x2="1294.13" y2="212.381" gradientUnits="userSpaceOnUse">
<stop offset="0.0336538" stop-color="#D9D9D9"/>
<stop offset="0.54212" stop-color="#A5A5A5"/>
<stop offset="1" stop-color="#737373"/>
</linearGradient>
<linearGradient id="paint5_linear_539_311" x1="993.131" y1="133.608" x2="1013.01" y2="133.608" gradientUnits="userSpaceOnUse">
<stop offset="0.0336538" stop-color="#6D6361"/>
<stop offset="0.54212" stop-color="#8F827C"/>
<stop offset="1" stop-color="#948A87"/>
</linearGradient>
<linearGradient id="paint6_linear_539_311" x1="1310.79" y1="136.421" x2="1330.67" y2="136.421" gradientUnits="userSpaceOnUse">
<stop offset="0.0336538" stop-color="#6D6361"/>
<stop offset="0.54212" stop-color="#8F827C"/>
<stop offset="1" stop-color="#948A87"/>
</linearGradient>
<linearGradient id="paint7_linear_539_311" x1="1149.75" y1="333.902" x2="1149.75" y2="-44.8975" gradientUnits="userSpaceOnUse">
<stop/>
<stop offset="0.534435" stop-color="#E4E4E4"/>
<stop offset="1"/>
</linearGradient>
<linearGradient id="paint8_linear_539_311" x1="1496.89" y1="334.093" x2="1496.89" y2="-44.7061" gradientUnits="userSpaceOnUse">
<stop/>
<stop offset="0.534435" stop-color="#E4E4E4"/>
<stop offset="1"/>
</linearGradient>
<clipPath id="clip0_539_311">
<rect width="68.5427" height="45.3484" fill="white" transform="translate(183.268 14.6445)"/>
</clipPath>
</defs>
</svg>
