<svg width="1898" height="269" viewBox="0 0 1898 269" fill="none" xmlns="http://www.w3.org/2000/svg">
<path d="M1886.27 0H11.2445C5.03434 0 0 2.3801 0 5.31609V263.147C0 266.083 5.03434 268.463 11.2445 268.463H1886.27C1892.48 268.463 1897.51 266.083 1897.51 263.147V5.31609C1897.51 2.3801 1892.48 0 1886.27 0Z" fill="#29292B"/>
<path d="M23.8949 5.62362H1875.02C1877.96 5.60302 1880.8 6.13488 1882.9 7.10224C1885.01 8.06961 1886.22 9.39329 1886.27 10.7822V258.379C1886.22 259.768 1885.01 261.092 1882.9 262.059C1880.8 263.027 1877.96 263.558 1875.02 263.538H23.8949C20.957 263.558 18.1221 263.027 16.0135 262.059C13.9049 261.092 12.6952 259.768 12.6504 258.379V10.7822C12.6952 9.39329 13.9049 8.06961 16.0135 7.10224C18.1221 6.13488 20.957 5.60302 23.8949 5.62362Z" fill="#F2F2F2"/>
<circle cx="142.006" cy="52.2441" r="20.899" fill="#959595" stroke="black" stroke-width="6.43046"/>
<path d="M153.297 55.8355H144.417V64.693H141.494V55.8355H132.636V52.8903H141.494V44.0327H144.417V52.8903H153.297V55.8355Z" fill="black"/>
<line x1="344.364" y1="1.40625" x2="344.364" y2="268.27" stroke="black" stroke-width="2.81113"/>
<line x1="865.827" y1="5.62305" x2="865.827" y2="268.463" stroke="black" stroke-width="2.81113"/>
<line x1="594.554" y1="2.81152" x2="594.554" y2="265.652" stroke="black" stroke-width="2.81113"/>
<line x1="1391.51" y1="5.61747" x2="1392.53" y2="262.835" stroke="black" stroke-width="2.81113"/>
<line x1="1041.52" y1="5.62305" x2="1041.52" y2="268.463" stroke="black" stroke-width="2.81113"/>
<line x1="1074.22" y1="5.02539" x2="1074.22" y2="267.866" stroke="black" stroke-width="2.81113"/>
<line x1="1567.61" y1="2.81152" x2="1567.61" y2="265.652" stroke="black" stroke-width="6.43046"/>
<circle cx="143.613" cy="105.294" r="14.6706" fill="#D9D9D9" stroke="black" stroke-width="2.81113"/>
<ellipse cx="672.286" cy="27.3294" rx="12.2258" ry="12.0608" fill="#131313"/>
<ellipse cx="696.739" cy="27.3294" rx="12.2258" ry="12.0608" fill="#131313"/>
<ellipse cx="721.191" cy="27.3294" rx="12.2258" ry="12.0608" fill="#131313"/>
<ellipse cx="745.642" cy="27.3294" rx="12.2258" ry="12.0608" fill="#131313"/>
<ellipse cx="770.093" cy="27.3294" rx="12.2258" ry="12.0608" fill="#131313"/>
<ellipse cx="794.544" cy="27.3294" rx="12.2258" ry="12.0608" fill="#131313"/>
<ellipse cx="818.996" cy="27.3294" rx="12.2258" ry="12.0608" fill="#131313"/>
<ellipse cx="704.889" cy="51.4514" rx="12.2258" ry="12.0608" fill="#131313"/>
<ellipse cx="729.341" cy="51.4514" rx="12.2258" ry="12.0608" fill="#131313"/>
<ellipse cx="753.793" cy="51.4495" rx="12.2258" ry="12.0608" fill="#131313"/>
<ellipse cx="778.243" cy="51.4514" rx="12.2258" ry="12.0608" fill="#131313"/>
<ellipse cx="802.696" cy="51.4514" rx="12.2258" ry="12.0608" fill="#131313"/>
<ellipse cx="827.147" cy="51.4514" rx="12.2258" ry="12.0608" fill="#131313"/>
<ellipse cx="655.987" cy="75.5725" rx="12.2258" ry="12.0608" fill="#131313"/>
<ellipse cx="680.439" cy="75.5725" rx="12.2258" ry="12.0608" fill="#131313"/>
<ellipse cx="704.889" cy="75.5725" rx="12.2258" ry="12.0608" fill="#131313"/>
<ellipse cx="729.341" cy="75.5725" rx="12.2258" ry="12.0608" fill="#131313"/>
<ellipse cx="753.793" cy="75.5725" rx="12.2258" ry="12.0608" fill="#131313"/>
<ellipse cx="778.243" cy="75.5725" rx="12.2258" ry="12.0608" fill="#131313"/>
<ellipse cx="802.696" cy="75.5725" rx="12.2258" ry="12.0608" fill="#131313"/>
<ellipse cx="827.147" cy="75.5725" rx="12.2258" ry="12.0608" fill="#131313"/>
<ellipse cx="851.599" cy="75.5725" rx="12.2258" ry="12.0608" fill="#131313"/>
<ellipse cx="655.987" cy="99.6936" rx="12.2258" ry="12.0608" fill="#131313"/>
<ellipse cx="680.439" cy="99.6936" rx="12.2258" ry="12.0608" fill="#131313"/>
<ellipse cx="605.971" cy="76.6692" rx="12.2258" ry="12.0608" fill="#131313"/>
<ellipse cx="630.423" cy="76.6692" rx="12.2258" ry="12.0608" fill="#131313"/>
<ellipse cx="605.971" cy="100.79" rx="12.2258" ry="12.0608" fill="#131313"/>
<ellipse cx="630.423" cy="100.79" rx="12.2258" ry="12.0608" fill="#131313"/>
<ellipse cx="704.889" cy="99.6936" rx="12.2258" ry="12.0608" fill="#131313"/>
<ellipse cx="729.341" cy="99.6936" rx="12.2258" ry="12.0608" fill="#131313"/>
<ellipse cx="753.793" cy="99.6936" rx="12.2258" ry="12.0608" fill="#131313"/>
<ellipse cx="778.243" cy="99.6936" rx="12.2258" ry="12.0608" fill="#131313"/>
<ellipse cx="802.696" cy="99.6936" rx="12.2258" ry="12.0608" fill="#131313"/>
<ellipse cx="827.147" cy="99.6936" rx="12.2258" ry="12.0608" fill="#131313"/>
<ellipse cx="851.599" cy="99.6936" rx="12.2258" ry="12.0608" fill="#131313"/>
<ellipse cx="1548.03" cy="143.077" rx="12.2258" ry="12.0608" fill="#131313"/>
<ellipse cx="1525.53" cy="194.521" rx="12.2258" ry="12.0608" fill="#131313"/>
<ellipse cx="1474.08" cy="168.799" rx="12.2258" ry="12.0608" fill="#131313"/>
<ellipse cx="1525.53" cy="220.243" rx="12.2258" ry="12.0608" fill="#131313"/>
<ellipse cx="1516.03" cy="46.6214" rx="12.2258" ry="12.0608" fill="#131313"/>
<ellipse cx="1540.48" cy="46.6214" rx="12.2258" ry="12.0608" fill="#131313"/>
<ellipse cx="1564.93" cy="46.6214" rx="12.2258" ry="12.0608" fill="#131313"/>
<ellipse cx="1499.8" cy="220.243" rx="12.2258" ry="12.0608" fill="#131313"/>
<ellipse cx="1474.08" cy="194.521" rx="12.2258" ry="12.0608" fill="#131313"/>
<ellipse cx="1474.08" cy="220.243" rx="12.2258" ry="12.0608" fill="#131313"/>
<ellipse cx="1524.18" cy="70.7434" rx="12.2258" ry="12.0608" fill="#131313"/>
<ellipse cx="1548.63" cy="70.7434" rx="12.2258" ry="12.0608" fill="#131313"/>
<ellipse cx="1573.08" cy="70.7434" rx="12.2258" ry="12.0608" fill="#131313"/>
<ellipse cx="1525.53" cy="168.799" rx="12.2258" ry="12.0608" fill="#131313"/>
<ellipse cx="1548.03" cy="194.521" rx="12.2258" ry="12.0608" fill="#131313"/>
<ellipse cx="1451.58" cy="94.8499" rx="12.2258" ry="12.0608" fill="#131313"/>
<ellipse cx="1476.03" cy="94.8499" rx="12.2258" ry="12.0608" fill="#131313"/>
<ellipse cx="1596.1" cy="143.242" rx="12.2258" ry="12.0608" transform="rotate(90 1596.1 143.242)" fill="#131313"/>
<ellipse cx="1596.1" cy="167.695" rx="12.2258" ry="12.0608" transform="rotate(90 1596.1 167.695)" fill="#131313"/>
<ellipse cx="1599.31" cy="194.686" rx="12.2258" ry="12.0608" transform="rotate(90 1599.31 194.686)" fill="#131313"/>
<ellipse cx="1599.31" cy="219.138" rx="12.2258" ry="12.0608" transform="rotate(90 1599.31 219.138)" fill="#131313"/>
<ellipse cx="1499.73" cy="94.8635" rx="12.2258" ry="12.0608" fill="#131313"/>
<ellipse cx="1524.18" cy="94.8635" rx="12.2258" ry="12.0608" fill="#131313"/>
<ellipse cx="1548.63" cy="94.8635" rx="12.2258" ry="12.0608" fill="#131313"/>
<ellipse cx="1573.08" cy="94.8635" rx="12.2258" ry="12.0608" fill="#131313"/>
<ellipse cx="1597.53" cy="94.8635" rx="12.2258" ry="12.0608" fill="#131313"/>
<ellipse cx="1499.8" cy="168.799" rx="12.2258" ry="12.0608" fill="#131313"/>
<ellipse cx="1499.8" cy="194.521" rx="12.2258" ry="12.0608" fill="#131313"/>
<ellipse cx="1525.53" cy="143.077" rx="12.2258" ry="12.0608" fill="#131313"/>
<ellipse cx="1548.03" cy="168.799" rx="12.2258" ry="12.0608" fill="#131313"/>
<ellipse cx="1499.8" cy="143.077" rx="12.2258" ry="12.0608" fill="#131313"/>
<ellipse cx="1474.08" cy="143.077" rx="12.2258" ry="12.0608" fill="#131313"/>
<ellipse cx="1499.8" cy="69.1282" rx="12.2258" ry="12.0608" fill="#131313"/>
<ellipse cx="1451.58" cy="181.66" rx="12.2258" ry="12.0608" fill="#131313"/>
<ellipse cx="1548.03" cy="220.243" rx="12.2258" ry="12.0608" fill="#131313"/>
<ellipse cx="1475.27" cy="118.986" rx="12.2258" ry="12.0608" fill="#131313"/>
<ellipse cx="1499.73" cy="118.986" rx="12.2258" ry="12.0608" fill="#131313"/>
<ellipse cx="1524.18" cy="118.986" rx="12.2258" ry="12.0608" fill="#131313"/>
<ellipse cx="1548.63" cy="118.986" rx="12.2258" ry="12.0608" fill="#131313"/>
<ellipse cx="1573.08" cy="118.986" rx="12.2258" ry="12.0608" fill="#131313"/>
<ellipse cx="1597.53" cy="118.986" rx="12.2258" ry="12.0608" fill="#131313"/>
<ellipse cx="753.793" cy="168.039" rx="12.2258" ry="12.0608" fill="#131313"/>
<ellipse cx="802.696" cy="168.039" rx="12.2258" ry="12.0608" fill="#131313"/>
<ellipse cx="778.243" cy="168.039" rx="12.2258" ry="12.0608" fill="#131313"/>
<ellipse cx="827.147" cy="168.039" rx="12.2258" ry="12.0608" fill="#131313"/>
<ellipse cx="851.599" cy="168.039" rx="12.2258" ry="12.0608" fill="#131313"/>
<ellipse cx="680.439" cy="168.039" rx="12.2258" ry="12.0608" fill="#131313"/>
<ellipse cx="655.987" cy="168.039" rx="12.2258" ry="12.0608" fill="#131313"/>
<ellipse cx="704.889" cy="168.039" rx="12.2258" ry="12.0608" fill="#131313"/>
<ellipse cx="729.341" cy="168.039" rx="12.2258" ry="12.0608" fill="#131313"/>
<ellipse cx="753.793" cy="192.16" rx="12.2258" ry="12.0608" fill="#131313"/>
<ellipse cx="802.696" cy="192.16" rx="12.2258" ry="12.0608" fill="#131313"/>
<ellipse cx="778.243" cy="192.16" rx="12.2258" ry="12.0608" fill="#131313"/>
<ellipse cx="827.147" cy="192.16" rx="12.2258" ry="12.0608" fill="#131313"/>
<ellipse cx="851.599" cy="192.16" rx="12.2258" ry="12.0608" fill="#131313"/>
<ellipse cx="831.037" cy="214.82" rx="12.2258" ry="12.0608" fill="#131313"/>
<ellipse cx="805.316" cy="214.821" rx="12.2258" ry="12.0608" fill="#131313"/>
<ellipse cx="705.643" cy="214.82" rx="12.2258" ry="12.0608" fill="#131313"/>
<ellipse cx="731.365" cy="214.821" rx="12.2258" ry="12.0608" fill="#131313"/>
<ellipse cx="753.871" cy="214.82" rx="12.2258" ry="12.0608" fill="#131313"/>
<ellipse cx="779.594" cy="214.82" rx="12.2258" ry="12.0608" fill="#131313"/>
<ellipse cx="680.439" cy="216.282" rx="12.2258" ry="12.0608" fill="#131313"/>
<ellipse cx="679.921" cy="241.135" rx="12.2258" ry="12.0608" fill="#131313"/>
<ellipse cx="805.316" cy="241.135" rx="12.2258" ry="12.0608" fill="#131313"/>
<ellipse cx="831.037" cy="241.135" rx="12.2258" ry="12.0608" fill="#131313"/>
<ellipse cx="680.439" cy="192.16" rx="12.2258" ry="12.0608" fill="#131313"/>
<ellipse cx="655.987" cy="191.795" rx="12.2258" ry="12.0608" fill="#131313"/>
<ellipse cx="631.693" cy="168.771" rx="12.2258" ry="12.0608" fill="#131313"/>
<ellipse cx="631.693" cy="192.526" rx="12.2258" ry="12.0608" fill="#131313"/>
<ellipse cx="655.987" cy="214.821" rx="12.2258" ry="12.0608" fill="#131313"/>
<ellipse cx="654.199" cy="241.135" rx="12.2258" ry="12.0608" fill="#131313"/>
<ellipse cx="631.693" cy="215.549" rx="12.2258" ry="12.0608" fill="#131313"/>
<ellipse cx="631.693" cy="241.135" rx="12.2258" ry="12.0608" fill="#131313"/>
<ellipse cx="605.971" cy="168.769" rx="12.2258" ry="12.0608" fill="#131313"/>
<ellipse cx="605.971" cy="192.89" rx="12.2258" ry="12.0608" fill="#131313"/>
<ellipse cx="704.889" cy="192.16" rx="12.2258" ry="12.0608" fill="#131313"/>
<ellipse cx="729.341" cy="192.16" rx="12.2258" ry="12.0608" fill="#131313"/>
<rect x="593.745" y="111.725" width="270.079" height="45.0132" fill="#A3A4A8"/>
<rect x="600.176" y="118.155" width="254.003" height="32.1523" rx="16.0761" fill="#B71A1B"/>
<rect x="684.575" y="228.277" width="114.141" height="20.899" rx="5.62665" fill="url(#paint0_linear_470_6326)" stroke="black" stroke-width="1.60761"/>
<rect x="1066.38" y="21.6992" width="22.5066" height="73.9502" fill="url(#paint1_linear_470_6326)"/>
<rect x="1066.38" y="172.814" width="22.5066" height="73.9502" fill="url(#paint2_linear_470_6326)"/>
<line x1="1367.61" y1="5.62746" x2="1366.81" y2="262.845" stroke="black" stroke-width="2.81113"/>
<rect x="1358.97" y="24.9131" width="22.5066" height="73.9502" fill="url(#paint3_linear_470_6326)"/>
<rect x="1358.97" y="176.029" width="22.5066" height="73.9502" fill="url(#paint4_linear_470_6326)"/>
<rect x="1075.26" y="95.5791" width="25.3001" height="77.306" rx="6.43046" fill="url(#paint5_linear_470_6326)"/>
<mask id="path-135-inside-1_470_6326" fill="white">
<rect x="1100.56" y="104.012" width="22.489" height="61.8448" rx="1.60761"/>
</mask>
<rect x="1100.56" y="104.012" width="22.489" height="61.8448" rx="1.60761" fill="#BDBFC4" stroke="#796E6A" stroke-width="5.62225" mask="url(#path-135-inside-1_470_6326)"/>
<rect x="1089.31" y="99.7959" width="7.02782" height="68.8726" rx="3.21523" fill="#FCFCFC"/>
<rect x="1392.91" y="98.3896" width="25.3001" height="77.306" rx="6.43046" fill="url(#paint6_linear_470_6326)"/>
<mask id="path-138-inside-2_470_6326" fill="white">
<rect x="1418.21" y="106.823" width="22.489" height="61.8448" rx="1.60761"/>
</mask>
<rect x="1418.21" y="106.823" width="22.489" height="61.8448" rx="1.60761" fill="#BDBFC4" stroke="#796E6A" stroke-width="5.62225" mask="url(#path-138-inside-2_470_6326)"/>
<rect x="1406.97" y="102.606" width="7.02782" height="68.8726" rx="3.21523" fill="#FCFCFC"/>
<rect x="1222.84" y="5.62305" width="25.3001" height="257.218" fill="url(#paint7_linear_470_6326)"/>
<rect x="1569.98" y="5.81445" width="30.9224" height="260.029" fill="#281C18"/>
<rect x="1569.98" y="5.81445" width="25.3001" height="257.218" fill="url(#paint8_linear_470_6326)"/>
<rect x="1570.01" y="81.5234" width="25.3001" height="104.012" rx="12.6501" fill="#D9D9D9"/>
<rect x="-1.40556" y="1.40556" width="122.029" height="189.335" rx="5.33611" transform="matrix(-1 0 0 1 1742.64 15.4619)" fill="#626060" stroke="black" stroke-width="2.81113"/>
<path d="M1721.45 159.571L1692.64 186.591H1644.62V39.4795H1692.64L1721.45 72.5045V159.571Z" fill="#111110" stroke="black" stroke-width="2.81113"/>
<rect width="24.0077" height="18.0137" rx="3.37084" transform="matrix(-1 0 0 1 1678.23 69.5029)" fill="#D9D9D9"/>
<rect width="24.0077" height="18.0137" rx="3.37084" transform="matrix(-1 0 0 1 1678.23 141.558)" fill="#D9D9D9"/>
<rect width="24.0077" height="18.0137" rx="3.37084" transform="matrix(-1 0 0 1 1707.04 105.53)" fill="#D9D9D9"/>
<circle cx="1752.14" cy="116.065" r="6.43045" fill="#808080"/>
<g clip-path="url(#clip0_470_6326)">
<path d="M289.823 32.0922H292.163V38.602C292.163 41.9064 290.342 43.8017 287.169 43.8017C284.03 43.8017 282.225 41.9394 282.225 38.6927V32.1005H284.565V38.6185C284.565 40.5468 285.513 41.5768 287.202 41.5768C288.892 41.5768 289.823 40.5715 289.823 38.7009V32.0922ZM276.638 36.7397H271.348V32.0922H269.008V43.6286H271.348V38.9399H276.63V43.6286H278.97V32.0922H276.63V36.7397H276.638ZM335.243 32.0922V43.6121H337.55V32.0922H335.243ZM326.055 38.6597H330.316V36.5585H326.055V34.1935H332.236V32.1005H323.748V43.6204H332.458V41.5191H326.055V38.6597ZM316.876 40.0194L314.255 32.084H312.343L309.723 40.0194L307.177 32.0922H304.688L308.709 43.6204H310.646L313.266 36.0476L315.887 43.6204H317.84L321.853 32.0922H319.422L316.876 40.0194ZM300.527 32.1581L305.562 43.6204H303.106L302.068 41.2225H296.786L296.712 41.3873L295.739 43.6204H293.35L298.434 32.0922H300.477L300.527 32.1581ZM301.087 38.8657L299.423 35.001L297.766 38.8657L297.651 39.1294H301.194L301.087 38.8657Z" fill="black"/>
</g>
<path d="M73.0893 0H11.2445C5.03434 0 0 2.3801 0 5.31609V263.147C0 266.083 5.03434 268.463 11.2445 268.463H73.0893C79.2995 268.463 84.3338 266.083 84.3338 263.147V5.31609C84.3338 2.3801 79.2995 0 73.0893 0Z" fill="#28282A"/>
<path d="M56.2227 10.6328H29.517C23.3068 10.6328 18.2725 13.0129 18.2725 15.9489V17.2779C18.2725 20.2139 23.3068 22.594 29.517 22.594H56.2227C62.4329 22.594 67.4672 20.2139 67.4672 17.2779V15.9489C67.4672 13.0129 62.4329 10.6328 56.2227 10.6328Z" fill="white"/>
<path d="M42.8702 42.5284C47.1397 42.5284 50.6008 40.8921 50.6008 38.8736C50.6008 36.8551 47.1397 35.2188 42.8702 35.2188C38.6008 35.2188 35.1396 36.8551 35.1396 38.8736C35.1396 40.8921 38.6008 42.5284 42.8702 42.5284Z" fill="white"/>
<path d="M42.8702 199.705C47.1397 199.705 50.6008 198.069 50.6008 196.05C50.6008 194.032 47.1397 192.396 42.8702 192.396C38.6008 192.396 35.1396 194.032 35.1396 196.05C35.1396 198.069 38.6008 199.705 42.8702 199.705Z" fill="white"/>
<path d="M49.195 65.1182C49.195 63.4667 46.3632 62.1279 42.87 62.1279C39.3767 62.1279 36.5449 63.4667 36.5449 65.1182V82.3955C36.5449 84.047 39.3767 85.3858 42.87 85.3858C46.3632 85.3858 49.195 84.047 49.195 82.3955V65.1182Z" fill="white"/>
<path d="M39.3558 248.527H44.9781C47.9603 248.527 50.8204 249.087 52.9292 250.084C55.0379 251.081 56.2226 252.434 56.2226 253.843V268.463H28.1113V253.843C28.1113 252.434 29.296 251.081 31.4048 250.084C33.5135 249.087 36.3736 248.527 39.3558 248.527Z" fill="white"/>
<path d="M1886.27 0H1824.42C1818.21 0 1813.18 2.3801 1813.18 5.31609V263.147C1813.18 266.083 1818.21 268.463 1824.42 268.463H1886.27C1892.48 268.463 1897.51 266.083 1897.51 263.147V5.31609C1897.51 2.3801 1892.48 0 1886.27 0Z" fill="#28282A"/>
<path d="M1852.53 248.527H1858.16C1861.14 248.527 1864 249.087 1866.11 250.084C1868.22 251.081 1869.4 252.434 1869.4 253.843V268.463H1841.29V253.843C1841.29 252.434 1842.47 251.081 1844.58 250.084C1846.69 249.087 1849.55 248.527 1852.53 248.527Z" fill="white"/>
<path d="M1869.4 10.6328H1842.69C1836.48 10.6328 1831.45 13.0129 1831.45 15.9489V17.2779C1831.45 20.2139 1836.48 22.594 1842.69 22.594H1869.4C1875.61 22.594 1880.64 20.2139 1880.64 17.2779V15.9489C1880.64 13.0129 1875.61 10.6328 1869.4 10.6328Z" fill="white"/>
<path d="M1855.34 93.7402C1863.88 93.7402 1870.81 87.0085 1870.81 78.7046C1870.81 70.4006 1863.88 63.6689 1855.34 63.6689C1846.81 63.6689 1839.88 70.4006 1839.88 78.7046C1839.88 87.0085 1846.81 93.7402 1855.34 93.7402Z" fill="#ACADAF"/>
<path d="M1855.34 93.0579C1863.5 93.0579 1870.1 86.6322 1870.1 78.7057C1870.1 70.7792 1863.5 64.3535 1855.34 64.3535C1847.19 64.3535 1840.59 70.7792 1840.59 78.7057C1840.59 86.6322 1847.19 93.0579 1855.34 93.0579Z" stroke="#707070" stroke-width="1.40104"/>
<path d="M1855.34 86.8898C1860 86.8898 1863.78 83.218 1863.78 78.6886C1863.78 74.1591 1860 70.4873 1855.34 70.4873C1850.69 70.4873 1846.91 74.1591 1846.91 78.6886C1846.91 83.218 1850.69 86.8898 1855.34 86.8898Z" fill="white"/>
<path d="M1855.34 86.2056C1859.61 86.2056 1863.07 82.8397 1863.07 78.6877C1863.07 74.5358 1859.61 71.1699 1855.34 71.1699C1851.07 71.1699 1847.61 74.5358 1847.61 78.6877C1847.61 82.8397 1851.07 86.2056 1855.34 86.2056Z" stroke="#707070" stroke-width="1.40104"/>
<line x1="1786.47" y1="2.81152" x2="1786.47" y2="265.652" stroke="black" stroke-width="2.81113"/>
<defs>
<linearGradient id="paint0_linear_470_6326" x1="683.771" y1="238.727" x2="799.52" y2="238.727" gradientUnits="userSpaceOnUse">
<stop stop-color="white"/>
<stop offset="1" stop-color="#999999"/>
</linearGradient>
<linearGradient id="paint1_linear_470_6326" x1="1069.6" y1="58.6743" x2="1087.28" y2="58.6743" gradientUnits="userSpaceOnUse">
<stop offset="0.0336538" stop-color="#D9D9D9"/>
<stop offset="0.54212" stop-color="#A5A5A5"/>
<stop offset="1" stop-color="#737373"/>
</linearGradient>
<linearGradient id="paint2_linear_470_6326" x1="1069.6" y1="209.79" x2="1087.28" y2="209.79" gradientUnits="userSpaceOnUse">
<stop offset="0.0336538" stop-color="#D9D9D9"/>
<stop offset="0.54212" stop-color="#A5A5A5"/>
<stop offset="1" stop-color="#737373"/>
</linearGradient>
<linearGradient id="paint3_linear_470_6326" x1="1362.18" y1="61.8882" x2="1379.87" y2="61.8882" gradientUnits="userSpaceOnUse">
<stop offset="0.0336538" stop-color="#D9D9D9"/>
<stop offset="0.54212" stop-color="#A5A5A5"/>
<stop offset="1" stop-color="#737373"/>
</linearGradient>
<linearGradient id="paint4_linear_470_6326" x1="1362.18" y1="213.004" x2="1379.87" y2="213.004" gradientUnits="userSpaceOnUse">
<stop offset="0.0336538" stop-color="#D9D9D9"/>
<stop offset="0.54212" stop-color="#A5A5A5"/>
<stop offset="1" stop-color="#737373"/>
</linearGradient>
<linearGradient id="paint5_linear_470_6326" x1="1078.87" y1="134.232" x2="1098.75" y2="134.232" gradientUnits="userSpaceOnUse">
<stop offset="0.0336538" stop-color="#6D6361"/>
<stop offset="0.54212" stop-color="#8F827C"/>
<stop offset="1" stop-color="#948A87"/>
</linearGradient>
<linearGradient id="paint6_linear_470_6326" x1="1396.53" y1="137.043" x2="1416.41" y2="137.043" gradientUnits="userSpaceOnUse">
<stop offset="0.0336538" stop-color="#6D6361"/>
<stop offset="0.54212" stop-color="#8F827C"/>
<stop offset="1" stop-color="#948A87"/>
</linearGradient>
<linearGradient id="paint7_linear_470_6326" x1="1235.49" y1="334.525" x2="1235.49" y2="-44.2744" gradientUnits="userSpaceOnUse">
<stop/>
<stop offset="0.534435" stop-color="#E4E4E4"/>
<stop offset="1"/>
</linearGradient>
<linearGradient id="paint8_linear_470_6326" x1="1582.63" y1="334.716" x2="1582.63" y2="-44.083" gradientUnits="userSpaceOnUse">
<stop/>
<stop offset="0.534435" stop-color="#E4E4E4"/>
<stop offset="1"/>
</linearGradient>
<clipPath id="clip0_470_6326">
<rect width="68.5427" height="45.3484" fill="white" transform="translate(269.008 15.2686)"/>
</clipPath>
</defs>
</svg>
