<svg width="1049" height="58" viewBox="0 0 1049 58" fill="none" xmlns="http://www.w3.org/2000/svg">
<circle cx="9.58895" cy="9.587" r="9.587" fill="#131313"/>
<circle cx="31.9581" cy="9.587" r="9.587" fill="#131313"/>
<circle cx="54.3282" cy="9.587" r="9.587" fill="#131313"/>
<circle cx="76.6973" cy="9.587" r="9.587" fill="#131313"/>
<circle cx="99.0675" cy="9.587" r="9.587" fill="#131313"/>
<circle cx="121.437" cy="9.587" r="9.587" fill="#131313"/>
<circle cx="143.807" cy="9.587" r="9.587" fill="#131313"/>
<circle cx="166.176" cy="9.587" r="9.587" fill="#131313"/>
<circle cx="188.546" cy="9.587" r="9.587" fill="#131313"/>
<circle cx="210.915" cy="9.587" r="9.587" fill="#131313"/>
<circle cx="233.285" cy="9.587" r="9.587" fill="#131313"/>
<circle cx="255.654" cy="9.587" r="9.587" fill="#131313"/>
<circle cx="278.025" cy="9.587" r="9.587" fill="#131313"/>
<circle cx="300.394" cy="9.587" r="9.587" fill="#131313"/>
<circle cx="322.764" cy="9.587" r="9.587" fill="#131313"/>
<circle cx="345.133" cy="9.587" r="9.587" fill="#131313"/>
<circle cx="367.503" cy="9.587" r="9.587" fill="#131313"/>
<circle cx="389.872" cy="9.587" r="9.587" fill="#131313"/>
<circle cx="412.242" cy="9.587" r="9.587" fill="#131313"/>
<circle cx="434.611" cy="9.587" r="9.587" fill="#131313"/>
<circle cx="456.982" cy="9.587" r="9.587" fill="#131313"/>
<circle cx="479.351" cy="9.587" r="9.587" fill="#131313"/>
<circle cx="501.721" cy="9.587" r="9.587" fill="#131313"/>
<circle cx="524.09" cy="9.587" r="9.587" fill="#131313"/>
<circle cx="546.46" cy="9.587" r="9.587" fill="#131313"/>
<circle cx="568.829" cy="9.587" r="9.587" fill="#131313"/>
<circle cx="591.199" cy="9.587" r="9.587" fill="#131313"/>
<circle cx="613.568" cy="9.587" r="9.587" fill="#131313"/>
<circle cx="635.939" cy="9.587" r="9.587" fill="#131313"/>
<circle cx="658.308" cy="9.587" r="9.587" fill="#131313"/>
<circle cx="680.678" cy="9.587" r="9.587" fill="#131313"/>
<circle cx="703.047" cy="9.587" r="9.587" fill="#131313"/>
<circle cx="725.417" cy="9.587" r="9.587" fill="#131313"/>
<circle cx="747.786" cy="9.587" r="9.587" fill="#131313"/>
<circle cx="770.156" cy="9.587" r="9.587" fill="#131313"/>
<circle cx="792.525" cy="9.587" r="9.587" fill="#131313"/>
<circle cx="814.896" cy="9.587" r="9.587" fill="#131313"/>
<circle cx="837.265" cy="9.587" r="9.587" fill="#131313"/>
<circle cx="859.635" cy="9.587" r="9.587" fill="#131313"/>
<circle cx="882.004" cy="9.587" r="9.587" fill="#131313"/>
<circle cx="904.374" cy="9.587" r="9.587" fill="#131313"/>
<circle cx="926.743" cy="9.587" r="9.587" fill="#131313"/>
<circle cx="949.113" cy="9.587" r="9.587" fill="#131313"/>
<circle cx="971.482" cy="9.587" r="9.587" fill="#131313"/>
<circle cx="993.853" cy="9.587" r="9.587" fill="#131313"/>
<circle cx="1016.22" cy="9.587" r="9.587" fill="#131313"/>
<circle cx="1038.59" cy="9.587" r="9.587" fill="#131313"/>
<circle cx="9.58895" cy="28.7608" r="9.587" fill="#131313"/>
<circle cx="31.9581" cy="28.7608" r="9.587" fill="#131313"/>
<circle cx="54.3282" cy="28.7608" r="9.587" fill="#131313"/>
<circle cx="76.6973" cy="28.7608" r="9.587" fill="#131313"/>
<circle cx="99.0675" cy="28.7608" r="9.587" fill="#131313"/>
<circle cx="121.437" cy="28.7608" r="9.587" fill="#131313"/>
<circle cx="143.807" cy="28.7608" r="9.587" fill="#131313"/>
<circle cx="166.176" cy="28.7608" r="9.587" fill="#131313"/>
<circle cx="188.546" cy="28.7608" r="9.587" fill="#131313"/>
<circle cx="210.915" cy="28.7608" r="9.587" fill="#131313"/>
<circle cx="233.285" cy="28.7608" r="9.587" fill="#131313"/>
<circle cx="255.654" cy="28.7608" r="9.587" fill="#131313"/>
<circle cx="278.025" cy="28.7608" r="9.587" fill="#131313"/>
<circle cx="300.394" cy="28.7608" r="9.587" fill="#131313"/>
<circle cx="322.764" cy="28.7608" r="9.587" fill="#131313"/>
<circle cx="345.133" cy="28.7608" r="9.587" fill="#131313"/>
<circle cx="367.503" cy="28.7608" r="9.587" fill="#131313"/>
<circle cx="389.872" cy="28.7608" r="9.587" fill="#131313"/>
<circle cx="412.242" cy="28.7608" r="9.587" fill="#131313"/>
<circle cx="434.611" cy="28.7608" r="9.587" fill="#131313"/>
<circle cx="456.982" cy="28.7608" r="9.587" fill="#131313"/>
<circle cx="479.351" cy="28.7608" r="9.587" fill="#131313"/>
<circle cx="501.721" cy="28.7608" r="9.587" fill="#131313"/>
<circle cx="524.09" cy="28.7608" r="9.587" fill="#131313"/>
<circle cx="546.46" cy="28.7608" r="9.587" fill="#131313"/>
<circle cx="568.829" cy="28.7608" r="9.587" fill="#131313"/>
<circle cx="591.199" cy="28.7608" r="9.587" fill="#131313"/>
<circle cx="613.568" cy="28.7608" r="9.587" fill="#131313"/>
<circle cx="635.939" cy="28.7608" r="9.587" fill="#131313"/>
<circle cx="658.308" cy="28.7608" r="9.587" fill="#131313"/>
<circle cx="680.678" cy="28.7608" r="9.587" fill="#131313"/>
<circle cx="703.047" cy="28.7608" r="9.587" fill="#131313"/>
<circle cx="725.417" cy="28.7608" r="9.587" fill="#131313"/>
<circle cx="747.786" cy="28.7608" r="9.587" fill="#131313"/>
<circle cx="770.156" cy="28.7608" r="9.587" fill="#131313"/>
<circle cx="792.525" cy="28.7608" r="9.587" fill="#131313"/>
<circle cx="814.896" cy="28.7608" r="9.587" fill="#131313"/>
<circle cx="837.265" cy="28.7608" r="9.587" fill="#131313"/>
<circle cx="859.635" cy="28.7608" r="9.587" fill="#131313"/>
<circle cx="882.004" cy="28.7608" r="9.587" fill="#131313"/>
<circle cx="904.374" cy="28.7608" r="9.587" fill="#131313"/>
<circle cx="926.743" cy="28.7608" r="9.587" fill="#131313"/>
<circle cx="949.113" cy="28.7608" r="9.587" fill="#131313"/>
<circle cx="971.482" cy="28.7608" r="9.587" fill="#131313"/>
<circle cx="993.853" cy="28.7608" r="9.587" fill="#131313"/>
<circle cx="1016.22" cy="28.7608" r="9.587" fill="#131313"/>
<circle cx="1038.59" cy="28.7608" r="9.587" fill="#131313"/>
<circle cx="9.587" cy="47.9347" r="9.587" fill="#131313"/>
<circle cx="31.9571" cy="47.9347" r="9.587" fill="#131313"/>
<circle cx="54.3263" cy="47.9347" r="9.587" fill="#131313"/>
<circle cx="76.6964" cy="47.9347" r="9.587" fill="#131313"/>
<circle cx="99.0655" cy="47.9347" r="9.587" fill="#131313"/>
<circle cx="121.436" cy="47.9347" r="9.587" fill="#131313"/>
<circle cx="143.805" cy="47.9347" r="9.587" fill="#131313"/>
<circle cx="166.175" cy="47.9347" r="9.587" fill="#131313"/>
<circle cx="188.544" cy="47.9347" r="9.587" fill="#131313"/>
<circle cx="210.914" cy="47.9347" r="9.587" fill="#131313"/>
<circle cx="233.283" cy="47.9347" r="9.587" fill="#131313"/>
<circle cx="255.653" cy="47.9347" r="9.587" fill="#131313"/>
<circle cx="278.023" cy="47.9347" r="9.587" fill="#131313"/>
<circle cx="300.393" cy="47.9347" r="9.587" fill="#131313"/>
<circle cx="322.762" cy="47.9347" r="9.587" fill="#131313"/>
<circle cx="345.132" cy="47.9347" r="9.587" fill="#131313"/>
<circle cx="367.501" cy="47.9347" r="9.587" fill="#131313"/>
<circle cx="389.871" cy="47.9347" r="9.587" fill="#131313"/>
<circle cx="412.241" cy="47.9347" r="9.587" fill="#131313"/>
<circle cx="434.61" cy="47.9347" r="9.587" fill="#131313"/>
<circle cx="456.981" cy="47.9347" r="9.587" fill="#131313"/>
<circle cx="479.35" cy="47.9347" r="9.587" fill="#131313"/>
<circle cx="501.72" cy="47.9347" r="9.587" fill="#131313"/>
<circle cx="524.089" cy="47.9347" r="9.587" fill="#131313"/>
<circle cx="546.459" cy="47.9347" r="9.587" fill="#131313"/>
<circle cx="770.156" cy="47.9347" r="9.587" fill="#131313"/>
<circle cx="792.526" cy="47.9347" r="9.587" fill="#131313"/>
<circle cx="814.896" cy="47.9347" r="9.587" fill="#131313"/>
<circle cx="837.266" cy="47.9347" r="9.587" fill="#131313"/>
<circle cx="859.635" cy="47.9347" r="9.587" fill="#131313"/>
<circle cx="882.005" cy="47.9347" r="9.587" fill="#131313"/>
<circle cx="904.374" cy="47.9347" r="9.587" fill="#131313"/>
<circle cx="926.744" cy="47.9347" r="9.587" fill="#131313"/>
<circle cx="949.113" cy="47.9347" r="9.587" fill="#131313"/>
<circle cx="971.483" cy="47.9347" r="9.587" fill="#131313"/>
<circle cx="993.853" cy="47.9347" r="9.587" fill="#131313"/>
<circle cx="1016.22" cy="47.9347" r="9.587" fill="#131313"/>
</svg>
