<svg width="445" height="154" viewBox="0 0 445 154" fill="none" xmlns="http://www.w3.org/2000/svg">
<circle cx="121.436" cy="47.9347" r="9.587" fill="#131313"/>
<circle cx="121.436" cy="67.1085" r="9.587" fill="#131313"/>
<circle cx="166.174" cy="47.9347" r="9.587" fill="#131313"/>
<circle cx="166.174" cy="67.1085" r="9.587" fill="#131313"/>
<circle cx="143.805" cy="47.9347" r="9.587" fill="#131313"/>
<circle cx="143.805" cy="67.1085" r="9.587" fill="#131313"/>
<circle cx="188.544" cy="47.9347" r="9.587" fill="#131313"/>
<circle cx="188.544" cy="67.1085" r="9.587" fill="#131313"/>
<circle cx="210.913" cy="47.9347" r="9.587" fill="#131313"/>
<circle cx="210.913" cy="67.1085" r="9.587" fill="#131313"/>
<circle cx="121.436" cy="86.2823" r="9.587" fill="#131313"/>
<circle cx="121.436" cy="105.456" r="9.587" fill="#131313"/>
<circle cx="166.174" cy="86.2823" r="9.587" fill="#131313"/>
<circle cx="166.174" cy="105.456" r="9.587" fill="#131313"/>
<circle cx="143.805" cy="86.2823" r="9.587" fill="#131313"/>
<circle cx="143.805" cy="105.456" r="9.587" fill="#131313"/>
<circle cx="188.544" cy="86.2823" r="9.587" fill="#131313"/>
<circle cx="188.544" cy="105.456" r="9.587" fill="#131313"/>
<circle cx="210.913" cy="86.2823" r="9.587" fill="#131313"/>
<circle cx="210.913" cy="105.456" r="9.587" fill="#131313"/>
<circle cx="121.436" cy="124.632" r="9.587" fill="#131313"/>
<circle cx="121.436" cy="143.806" r="9.587" fill="#131313"/>
<circle cx="166.174" cy="124.632" r="9.587" fill="#131313"/>
<circle cx="166.174" cy="143.806" r="9.587" fill="#131313"/>
<circle cx="143.805" cy="124.632" r="9.587" fill="#131313"/>
<circle cx="143.805" cy="143.806" r="9.587" fill="#131313"/>
<circle cx="188.544" cy="124.632" r="9.587" fill="#131313"/>
<circle cx="188.544" cy="143.806" r="9.587" fill="#131313"/>
<circle cx="210.913" cy="124.632" r="9.587" fill="#131313"/>
<circle cx="210.913" cy="143.806" r="9.587" fill="#131313"/>
<circle cx="233.282" cy="47.9347" r="9.587" fill="#131313"/>
<circle cx="233.282" cy="67.1085" r="9.587" fill="#131313"/>
<circle cx="278.022" cy="47.9347" r="9.587" fill="#131313"/>
<circle cx="278.022" cy="67.1085" r="9.587" fill="#131313"/>
<circle cx="255.652" cy="47.9347" r="9.587" fill="#131313"/>
<circle cx="255.652" cy="67.1085" r="9.587" fill="#131313"/>
<circle cx="300.392" cy="47.9347" r="9.587" fill="#131313"/>
<circle cx="300.392" cy="67.1085" r="9.587" fill="#131313"/>
<circle cx="322.761" cy="47.9347" r="9.587" fill="#131313"/>
<circle cx="322.761" cy="67.1085" r="9.587" fill="#131313"/>
<circle cx="233.282" cy="86.2823" r="9.587" fill="#131313"/>
<circle cx="233.282" cy="105.456" r="9.587" fill="#131313"/>
<circle cx="278.022" cy="86.2823" r="9.587" fill="#131313"/>
<circle cx="278.022" cy="105.456" r="9.587" fill="#131313"/>
<circle cx="255.652" cy="86.2823" r="9.587" fill="#131313"/>
<circle cx="255.652" cy="105.456" r="9.587" fill="#131313"/>
<circle cx="300.392" cy="86.2823" r="9.587" fill="#131313"/>
<circle cx="300.392" cy="105.456" r="9.587" fill="#131313"/>
<circle cx="322.761" cy="86.2823" r="9.587" fill="#131313"/>
<circle cx="322.761" cy="105.456" r="9.587" fill="#131313"/>
<circle cx="233.282" cy="124.632" r="9.587" fill="#131313"/>
<circle cx="233.282" cy="143.806" r="9.587" fill="#131313"/>
<circle cx="278.022" cy="124.632" r="9.587" fill="#131313"/>
<circle cx="278.022" cy="143.806" r="9.587" fill="#131313"/>
<circle cx="255.652" cy="124.632" r="9.587" fill="#131313"/>
<circle cx="255.652" cy="143.806" r="9.587" fill="#131313"/>
<circle cx="300.392" cy="124.632" r="9.587" fill="#131313"/>
<circle cx="300.392" cy="143.806" r="9.587" fill="#131313"/>
<circle cx="322.761" cy="124.632" r="9.587" fill="#131313"/>
<circle cx="322.761" cy="143.806" r="9.587" fill="#131313"/>
<circle cx="345.133" cy="47.9347" r="9.587" fill="#131313"/>
<circle cx="345.133" cy="67.1085" r="9.587" fill="#131313"/>
<circle cx="389.872" cy="47.9347" r="9.587" fill="#131313"/>
<circle cx="389.872" cy="67.1085" r="9.587" fill="#131313"/>
<circle cx="367.502" cy="47.9347" r="9.587" fill="#131313"/>
<circle cx="367.502" cy="67.1085" r="9.587" fill="#131313"/>
<circle cx="412.241" cy="47.9347" r="9.587" fill="#131313"/>
<circle cx="412.241" cy="67.1085" r="9.587" fill="#131313"/>
<circle cx="434.611" cy="47.9347" r="9.587" fill="#131313"/>
<circle cx="434.611" cy="67.1085" r="9.587" fill="#131313"/>
<circle cx="345.133" cy="86.2823" r="9.587" fill="#131313"/>
<circle cx="345.133" cy="105.456" r="9.587" fill="#131313"/>
<circle cx="389.872" cy="86.2823" r="9.587" fill="#131313"/>
<circle cx="389.872" cy="105.456" r="9.587" fill="#131313"/>
<circle cx="367.502" cy="86.2823" r="9.587" fill="#131313"/>
<circle cx="367.502" cy="105.456" r="9.587" fill="#131313"/>
<circle cx="412.241" cy="86.2823" r="9.587" fill="#131313"/>
<circle cx="412.241" cy="105.456" r="9.587" fill="#131313"/>
<circle cx="434.611" cy="86.2823" r="9.587" fill="#131313"/>
<circle cx="434.611" cy="105.456" r="9.587" fill="#131313"/>
<circle cx="345.133" cy="124.632" r="9.587" fill="#131313"/>
<circle cx="345.133" cy="143.806" r="9.587" fill="#131313"/>
<circle cx="389.872" cy="124.632" r="9.587" fill="#131313"/>
<circle cx="389.872" cy="143.806" r="9.587" fill="#131313"/>
<circle cx="367.502" cy="124.632" r="9.587" fill="#131313"/>
<circle cx="367.502" cy="143.806" r="9.587" fill="#131313"/>
<circle cx="412.241" cy="124.632" r="9.587" fill="#131313"/>
<circle cx="412.241" cy="143.806" r="9.587" fill="#131313"/>
<circle cx="434.611" cy="124.632" r="9.587" fill="#131313"/>
<circle cx="434.611" cy="143.806" r="9.587" fill="#131313"/>
<circle cx="9.587" cy="47.9347" r="9.587" fill="#131313"/>
<circle cx="9.587" cy="67.1085" r="9.587" fill="#131313"/>
<circle cx="54.3263" cy="47.9347" r="9.587" fill="#131313"/>
<circle cx="54.3263" cy="67.1085" r="9.587" fill="#131313"/>
<circle cx="31.9561" cy="47.9347" r="9.587" fill="#131313"/>
<circle cx="31.9561" cy="67.1085" r="9.587" fill="#131313"/>
<circle cx="76.6954" cy="47.9347" r="9.587" fill="#131313"/>
<circle cx="76.6954" cy="67.1085" r="9.587" fill="#131313"/>
<circle cx="99.0655" cy="47.9347" r="9.587" fill="#131313"/>
<circle cx="99.0655" cy="67.1085" r="9.587" fill="#131313"/>
<circle cx="9.587" cy="86.2823" r="9.587" fill="#131313"/>
<circle cx="9.587" cy="105.456" r="9.587" fill="#131313"/>
<circle cx="54.3263" cy="86.2823" r="9.587" fill="#131313"/>
<circle cx="54.3263" cy="105.456" r="9.587" fill="#131313"/>
<circle cx="31.9561" cy="86.2823" r="9.587" fill="#131313"/>
<circle cx="31.9561" cy="105.456" r="9.587" fill="#131313"/>
<circle cx="76.6954" cy="86.2823" r="9.587" fill="#131313"/>
<circle cx="76.6954" cy="105.456" r="9.587" fill="#131313"/>
<circle cx="99.0655" cy="86.2823" r="9.587" fill="#131313"/>
<circle cx="99.0655" cy="105.456" r="9.587" fill="#131313"/>
<circle cx="9.587" cy="124.63" r="9.587" fill="#131313"/>
<circle cx="9.587" cy="143.804" r="9.587" fill="#131313"/>
<circle cx="54.3263" cy="124.63" r="9.587" fill="#131313"/>
<circle cx="54.3263" cy="143.804" r="9.587" fill="#131313"/>
<circle cx="31.9561" cy="124.63" r="9.587" fill="#131313"/>
<circle cx="31.9561" cy="143.804" r="9.587" fill="#131313"/>
<circle cx="76.6954" cy="124.63" r="9.587" fill="#131313"/>
<circle cx="76.6954" cy="143.804" r="9.587" fill="#131313"/>
<circle cx="99.0655" cy="124.63" r="9.587" fill="#131313"/>
<circle cx="99.0655" cy="143.804" r="9.587" fill="#131313"/>
<circle cx="9.587" cy="9.587" r="9.587" fill="#131313"/>
<circle cx="31.9561" cy="9.587" r="9.587" fill="#131313"/>
<circle cx="54.3263" cy="9.587" r="9.587" fill="#131313"/>
<circle cx="76.6954" cy="9.587" r="9.587" fill="#131313"/>
<circle cx="99.0655" cy="9.587" r="9.587" fill="#131313"/>
<circle cx="121.435" cy="9.587" r="9.587" fill="#131313"/>
<circle cx="143.805" cy="9.587" r="9.587" fill="#131313"/>
<circle cx="166.175" cy="9.587" r="9.587" fill="#131313"/>
<circle cx="188.544" cy="9.587" r="9.587" fill="#131313"/>
<circle cx="210.914" cy="9.587" r="9.587" fill="#131313"/>
<circle cx="233.283" cy="9.587" r="9.587" fill="#131313"/>
<circle cx="255.653" cy="9.587" r="9.587" fill="#131313"/>
<circle cx="278.023" cy="9.587" r="9.587" fill="#131313"/>
<circle cx="300.393" cy="9.587" r="9.587" fill="#131313"/>
<circle cx="322.762" cy="9.587" r="9.587" fill="#131313"/>
<circle cx="345.132" cy="9.587" r="9.587" fill="#131313"/>
<circle cx="367.501" cy="9.587" r="9.587" fill="#131313"/>
<circle cx="389.871" cy="9.587" r="9.587" fill="#131313"/>
<circle cx="412.24" cy="9.587" r="9.587" fill="#131313"/>
<circle cx="434.61" cy="9.587" r="9.587" fill="#131313"/>
<circle cx="9.587" cy="28.7608" r="9.587" fill="#131313"/>
<circle cx="31.9561" cy="28.7608" r="9.587" fill="#131313"/>
<circle cx="54.3263" cy="28.7608" r="9.587" fill="#131313"/>
<circle cx="76.6954" cy="28.7608" r="9.587" fill="#131313"/>
<circle cx="99.0655" cy="28.7608" r="9.587" fill="#131313"/>
<circle cx="121.435" cy="28.7608" r="9.587" fill="#131313"/>
<circle cx="143.805" cy="28.7608" r="9.587" fill="#131313"/>
<circle cx="166.175" cy="28.7608" r="9.587" fill="#131313"/>
<circle cx="188.544" cy="28.7608" r="9.587" fill="#131313"/>
<circle cx="210.914" cy="28.7608" r="9.587" fill="#131313"/>
<circle cx="233.283" cy="28.7608" r="9.587" fill="#131313"/>
<circle cx="255.653" cy="28.7608" r="9.587" fill="#131313"/>
<circle cx="278.023" cy="28.7608" r="9.587" fill="#131313"/>
<circle cx="300.393" cy="28.7608" r="9.587" fill="#131313"/>
<circle cx="322.762" cy="28.7608" r="9.587" fill="#131313"/>
<circle cx="345.132" cy="28.7608" r="9.587" fill="#131313"/>
<circle cx="367.501" cy="28.7608" r="9.587" fill="#131313"/>
<circle cx="389.871" cy="28.7608" r="9.587" fill="#131313"/>
<circle cx="412.24" cy="28.7608" r="9.587" fill="#131313"/>
<circle cx="434.61" cy="28.7608" r="9.587" fill="#131313"/>
<circle cx="9.587" cy="47.9347" r="9.587" fill="#131313"/>
<circle cx="31.9561" cy="47.9347" r="9.587" fill="#131313"/>
<circle cx="54.3263" cy="47.9347" r="9.587" fill="#131313"/>
</svg>
