<svg width="1728" height="268" viewBox="0 0 1728 268" fill="none" xmlns="http://www.w3.org/2000/svg">
<circle cx="56.2656" cy="50.8378" r="20.899" fill="#959595" stroke="black" stroke-width="6.43046"/>
<path d="M67.5564 54.4292H58.6768V63.2868H55.7536V54.4292H46.896V51.484H55.7536V42.6264H58.6768V51.484H67.5564V54.4292Z" fill="black"/>
<line x1="258.623" y1="2.94904e-08" x2="258.623" y2="266.864" stroke="black" stroke-width="2.81113"/>
<line x1="780.087" y1="4.2168" x2="780.087" y2="267.057" stroke="black" stroke-width="2.81113"/>
<line x1="508.814" y1="1.40527" x2="508.814" y2="264.246" stroke="black" stroke-width="2.81113"/>
<line x1="1305.77" y1="4.21122" x2="1306.79" y2="261.429" stroke="black" stroke-width="2.81113"/>
<line x1="955.783" y1="4.2168" x2="955.783" y2="267.057" stroke="black" stroke-width="2.81113"/>
<line x1="988.48" y1="3.61914" x2="988.48" y2="266.46" stroke="black" stroke-width="2.81113"/>
<line x1="1481.87" y1="1.40527" x2="1481.87" y2="264.246" stroke="black" stroke-width="6.43046"/>
<circle cx="57.873" cy="103.888" r="14.6706" fill="#D9D9D9" stroke="black" stroke-width="2.81113"/>
<ellipse cx="586.546" cy="25.9231" rx="12.2258" ry="12.0608" fill="#131313"/>
<ellipse cx="610.998" cy="25.9231" rx="12.2258" ry="12.0608" fill="#131313"/>
<ellipse cx="635.45" cy="25.9231" rx="12.2258" ry="12.0608" fill="#131313"/>
<ellipse cx="659.902" cy="25.9231" rx="12.2258" ry="12.0608" fill="#131313"/>
<ellipse cx="684.353" cy="25.9231" rx="12.2258" ry="12.0608" fill="#131313"/>
<ellipse cx="708.804" cy="25.9231" rx="12.2258" ry="12.0608" fill="#131313"/>
<ellipse cx="733.256" cy="25.9231" rx="12.2258" ry="12.0608" fill="#131313"/>
<ellipse cx="619.149" cy="50.0452" rx="12.2258" ry="12.0608" fill="#131313"/>
<ellipse cx="643.601" cy="50.0452" rx="12.2258" ry="12.0608" fill="#131313"/>
<ellipse cx="668.053" cy="50.0432" rx="12.2258" ry="12.0608" fill="#131313"/>
<ellipse cx="692.503" cy="50.0452" rx="12.2258" ry="12.0608" fill="#131313"/>
<ellipse cx="716.955" cy="50.0452" rx="12.2258" ry="12.0608" fill="#131313"/>
<ellipse cx="741.406" cy="50.0452" rx="12.2258" ry="12.0608" fill="#131313"/>
<ellipse cx="570.246" cy="74.1663" rx="12.2258" ry="12.0608" fill="#131313"/>
<ellipse cx="594.698" cy="74.1663" rx="12.2258" ry="12.0608" fill="#131313"/>
<ellipse cx="619.149" cy="74.1663" rx="12.2258" ry="12.0608" fill="#131313"/>
<ellipse cx="643.601" cy="74.1663" rx="12.2258" ry="12.0608" fill="#131313"/>
<ellipse cx="668.053" cy="74.1663" rx="12.2258" ry="12.0608" fill="#131313"/>
<ellipse cx="692.503" cy="74.1663" rx="12.2258" ry="12.0608" fill="#131313"/>
<ellipse cx="716.955" cy="74.1663" rx="12.2258" ry="12.0608" fill="#131313"/>
<ellipse cx="741.406" cy="74.1663" rx="12.2258" ry="12.0608" fill="#131313"/>
<ellipse cx="765.859" cy="74.1663" rx="12.2258" ry="12.0608" fill="#131313"/>
<ellipse cx="570.246" cy="98.2874" rx="12.2258" ry="12.0608" fill="#131313"/>
<ellipse cx="594.698" cy="98.2874" rx="12.2258" ry="12.0608" fill="#131313"/>
<ellipse cx="520.231" cy="75.263" rx="12.2258" ry="12.0608" fill="#131313"/>
<ellipse cx="544.683" cy="75.263" rx="12.2258" ry="12.0608" fill="#131313"/>
<ellipse cx="520.231" cy="99.384" rx="12.2258" ry="12.0608" fill="#131313"/>
<ellipse cx="544.683" cy="99.384" rx="12.2258" ry="12.0608" fill="#131313"/>
<ellipse cx="619.149" cy="98.2874" rx="12.2258" ry="12.0608" fill="#131313"/>
<ellipse cx="643.601" cy="98.2874" rx="12.2258" ry="12.0608" fill="#131313"/>
<ellipse cx="668.053" cy="98.2874" rx="12.2258" ry="12.0608" fill="#131313"/>
<ellipse cx="692.503" cy="98.2874" rx="12.2258" ry="12.0608" fill="#131313"/>
<ellipse cx="716.955" cy="98.2874" rx="12.2258" ry="12.0608" fill="#131313"/>
<ellipse cx="741.406" cy="98.2874" rx="12.2258" ry="12.0608" fill="#131313"/>
<ellipse cx="765.859" cy="98.2874" rx="12.2258" ry="12.0608" fill="#131313"/>
<ellipse cx="1462.29" cy="141.671" rx="12.2258" ry="12.0608" fill="#131313"/>
<ellipse cx="1439.79" cy="193.115" rx="12.2258" ry="12.0608" fill="#131313"/>
<ellipse cx="1388.34" cy="167.393" rx="12.2258" ry="12.0608" fill="#131313"/>
<ellipse cx="1439.79" cy="218.837" rx="12.2258" ry="12.0608" fill="#131313"/>
<ellipse cx="1430.29" cy="45.2151" rx="12.2258" ry="12.0608" fill="#131313"/>
<ellipse cx="1454.74" cy="45.2151" rx="12.2258" ry="12.0608" fill="#131313"/>
<ellipse cx="1479.19" cy="45.2151" rx="12.2258" ry="12.0608" fill="#131313"/>
<ellipse cx="1414.06" cy="218.837" rx="12.2258" ry="12.0608" fill="#131313"/>
<ellipse cx="1388.34" cy="193.115" rx="12.2258" ry="12.0608" fill="#131313"/>
<ellipse cx="1388.34" cy="218.837" rx="12.2258" ry="12.0608" fill="#131313"/>
<ellipse cx="1438.43" cy="69.3372" rx="12.2258" ry="12.0608" fill="#131313"/>
<ellipse cx="1462.89" cy="69.3372" rx="12.2258" ry="12.0608" fill="#131313"/>
<ellipse cx="1487.34" cy="69.3372" rx="12.2258" ry="12.0608" fill="#131313"/>
<ellipse cx="1439.79" cy="167.393" rx="12.2258" ry="12.0608" fill="#131313"/>
<ellipse cx="1462.29" cy="193.115" rx="12.2258" ry="12.0608" fill="#131313"/>
<ellipse cx="1365.84" cy="93.4436" rx="12.2258" ry="12.0608" fill="#131313"/>
<ellipse cx="1390.29" cy="93.4436" rx="12.2258" ry="12.0608" fill="#131313"/>
<ellipse cx="1510.36" cy="141.836" rx="12.2258" ry="12.0608" transform="rotate(90 1510.36 141.836)" fill="#131313"/>
<ellipse cx="1510.36" cy="166.288" rx="12.2258" ry="12.0608" transform="rotate(90 1510.36 166.288)" fill="#131313"/>
<ellipse cx="1513.57" cy="193.28" rx="12.2258" ry="12.0608" transform="rotate(90 1513.57 193.28)" fill="#131313"/>
<ellipse cx="1513.57" cy="217.732" rx="12.2258" ry="12.0608" transform="rotate(90 1513.57 217.732)" fill="#131313"/>
<ellipse cx="1413.99" cy="93.4573" rx="12.2258" ry="12.0608" fill="#131313"/>
<ellipse cx="1438.43" cy="93.4573" rx="12.2258" ry="12.0608" fill="#131313"/>
<ellipse cx="1462.89" cy="93.4573" rx="12.2258" ry="12.0608" fill="#131313"/>
<ellipse cx="1487.34" cy="93.4573" rx="12.2258" ry="12.0608" fill="#131313"/>
<ellipse cx="1511.79" cy="93.4573" rx="12.2258" ry="12.0608" fill="#131313"/>
<ellipse cx="1414.06" cy="167.393" rx="12.2258" ry="12.0608" fill="#131313"/>
<ellipse cx="1414.06" cy="193.115" rx="12.2258" ry="12.0608" fill="#131313"/>
<ellipse cx="1439.79" cy="141.671" rx="12.2258" ry="12.0608" fill="#131313"/>
<ellipse cx="1462.29" cy="167.393" rx="12.2258" ry="12.0608" fill="#131313"/>
<ellipse cx="1414.06" cy="141.671" rx="12.2258" ry="12.0608" fill="#131313"/>
<ellipse cx="1388.34" cy="141.671" rx="12.2258" ry="12.0608" fill="#131313"/>
<ellipse cx="1414.06" cy="67.7219" rx="12.2258" ry="12.0608" fill="#131313"/>
<ellipse cx="1365.84" cy="180.254" rx="12.2258" ry="12.0608" fill="#131313"/>
<ellipse cx="1462.29" cy="218.837" rx="12.2258" ry="12.0608" fill="#131313"/>
<ellipse cx="1389.53" cy="117.579" rx="12.2258" ry="12.0608" fill="#131313"/>
<ellipse cx="1413.99" cy="117.579" rx="12.2258" ry="12.0608" fill="#131313"/>
<ellipse cx="1438.43" cy="117.579" rx="12.2258" ry="12.0608" fill="#131313"/>
<ellipse cx="1462.89" cy="117.579" rx="12.2258" ry="12.0608" fill="#131313"/>
<ellipse cx="1487.34" cy="117.579" rx="12.2258" ry="12.0608" fill="#131313"/>
<ellipse cx="1511.79" cy="117.579" rx="12.2258" ry="12.0608" fill="#131313"/>
<ellipse cx="668.053" cy="166.633" rx="12.2258" ry="12.0608" fill="#131313"/>
<ellipse cx="716.955" cy="166.633" rx="12.2258" ry="12.0608" fill="#131313"/>
<ellipse cx="692.503" cy="166.633" rx="12.2258" ry="12.0608" fill="#131313"/>
<ellipse cx="741.406" cy="166.633" rx="12.2258" ry="12.0608" fill="#131313"/>
<ellipse cx="765.859" cy="166.633" rx="12.2258" ry="12.0608" fill="#131313"/>
<ellipse cx="594.698" cy="166.633" rx="12.2258" ry="12.0608" fill="#131313"/>
<ellipse cx="570.246" cy="166.633" rx="12.2258" ry="12.0608" fill="#131313"/>
<ellipse cx="619.149" cy="166.633" rx="12.2258" ry="12.0608" fill="#131313"/>
<ellipse cx="643.601" cy="166.633" rx="12.2258" ry="12.0608" fill="#131313"/>
<ellipse cx="668.053" cy="190.754" rx="12.2258" ry="12.0608" fill="#131313"/>
<ellipse cx="716.955" cy="190.754" rx="12.2258" ry="12.0608" fill="#131313"/>
<ellipse cx="692.503" cy="190.754" rx="12.2258" ry="12.0608" fill="#131313"/>
<ellipse cx="741.406" cy="190.754" rx="12.2258" ry="12.0608" fill="#131313"/>
<ellipse cx="765.859" cy="190.754" rx="12.2258" ry="12.0608" fill="#131313"/>
<ellipse cx="745.297" cy="213.413" rx="12.2258" ry="12.0608" fill="#131313"/>
<ellipse cx="719.575" cy="213.414" rx="12.2258" ry="12.0608" fill="#131313"/>
<ellipse cx="619.903" cy="213.413" rx="12.2258" ry="12.0608" fill="#131313"/>
<ellipse cx="645.625" cy="213.414" rx="12.2258" ry="12.0608" fill="#131313"/>
<ellipse cx="668.131" cy="213.413" rx="12.2258" ry="12.0608" fill="#131313"/>
<ellipse cx="693.854" cy="213.413" rx="12.2258" ry="12.0608" fill="#131313"/>
<ellipse cx="594.698" cy="214.876" rx="12.2258" ry="12.0608" fill="#131313"/>
<ellipse cx="594.181" cy="239.729" rx="12.2258" ry="12.0608" fill="#131313"/>
<ellipse cx="719.575" cy="239.729" rx="12.2258" ry="12.0608" fill="#131313"/>
<ellipse cx="745.297" cy="239.729" rx="12.2258" ry="12.0608" fill="#131313"/>
<ellipse cx="594.698" cy="190.754" rx="12.2258" ry="12.0608" fill="#131313"/>
<ellipse cx="570.246" cy="190.389" rx="12.2258" ry="12.0608" fill="#131313"/>
<ellipse cx="545.952" cy="167.365" rx="12.2258" ry="12.0608" fill="#131313"/>
<ellipse cx="545.952" cy="191.119" rx="12.2258" ry="12.0608" fill="#131313"/>
<ellipse cx="570.246" cy="213.414" rx="12.2258" ry="12.0608" fill="#131313"/>
<ellipse cx="568.459" cy="239.729" rx="12.2258" ry="12.0608" fill="#131313"/>
<ellipse cx="545.952" cy="214.143" rx="12.2258" ry="12.0608" fill="#131313"/>
<ellipse cx="545.952" cy="239.729" rx="12.2258" ry="12.0608" fill="#131313"/>
<ellipse cx="520.231" cy="167.363" rx="12.2258" ry="12.0608" fill="#131313"/>
<ellipse cx="520.231" cy="191.484" rx="12.2258" ry="12.0608" fill="#131313"/>
<ellipse cx="619.149" cy="190.754" rx="12.2258" ry="12.0608" fill="#131313"/>
<ellipse cx="643.601" cy="190.754" rx="12.2258" ry="12.0608" fill="#131313"/>
<rect x="508.005" y="110.318" width="270.079" height="45.0132" fill="#A3A4A8"/>
<rect x="514.436" y="116.749" width="254.003" height="32.1523" rx="16.0761" fill="#B71A1B"/>
<rect x="598.835" y="226.871" width="114.141" height="20.899" rx="5.62665" fill="url(#paint0_linear_617_1736)" stroke="black" stroke-width="1.60761"/>
<rect x="980.644" y="20.293" width="22.5066" height="73.9502" fill="url(#paint1_linear_617_1736)"/>
<rect x="980.644" y="171.408" width="22.5066" height="73.9502" fill="url(#paint2_linear_617_1736)"/>
<line x1="1281.87" y1="4.22121" x2="1281.07" y2="261.439" stroke="black" stroke-width="2.81113"/>
<rect x="1273.23" y="23.5068" width="22.5066" height="73.9502" fill="url(#paint3_linear_617_1736)"/>
<rect x="1273.23" y="174.623" width="22.5066" height="73.9502" fill="url(#paint4_linear_617_1736)"/>
<rect x="989.517" y="94.1729" width="25.3001" height="77.306" rx="6.43046" fill="url(#paint5_linear_617_1736)"/>
<mask id="path-133-inside-1_617_1736" fill="white">
<rect x="1014.82" y="102.605" width="22.489" height="61.8448" rx="1.60761"/>
</mask>
<rect x="1014.82" y="102.605" width="22.489" height="61.8448" rx="1.60761" fill="#BDBFC4" stroke="#796E6A" stroke-width="5.62225" mask="url(#path-133-inside-1_617_1736)"/>
<rect x="1003.57" y="98.3896" width="7.02782" height="68.8726" rx="3.21523" fill="#FCFCFC"/>
<rect x="1307.17" y="96.9834" width="25.3001" height="77.306" rx="6.43046" fill="url(#paint6_linear_617_1736)"/>
<mask id="path-136-inside-2_617_1736" fill="white">
<rect x="1332.47" y="105.417" width="22.489" height="61.8448" rx="1.60761"/>
</mask>
<rect x="1332.47" y="105.417" width="22.489" height="61.8448" rx="1.60761" fill="#BDBFC4" stroke="#796E6A" stroke-width="5.62225" mask="url(#path-136-inside-2_617_1736)"/>
<rect x="1321.23" y="101.2" width="7.02782" height="68.8726" rx="3.21523" fill="#FCFCFC"/>
<rect x="1137.1" y="4.2168" width="25.3001" height="257.218" fill="url(#paint7_linear_617_1736)"/>
<rect x="1484.24" y="4.4082" width="30.9224" height="260.029" fill="#281C18"/>
<rect x="1484.24" y="4.4082" width="25.3001" height="257.218" fill="url(#paint8_linear_617_1736)"/>
<rect x="1484.27" y="80.1172" width="25.3001" height="104.012" rx="12.6501" fill="#D9D9D9"/>
<rect x="-1.40556" y="1.40556" width="122.029" height="189.335" rx="5.33611" transform="matrix(-1 0 0 1 1656.9 14.0557)" fill="#626060" stroke="black" stroke-width="2.81113"/>
<path d="M1635.71 158.164L1606.9 185.185H1558.88V38.0732H1606.9L1635.71 71.0983V158.164Z" fill="#111110" stroke="black" stroke-width="2.81113"/>
<rect width="24.0077" height="18.0137" rx="3.37084" transform="matrix(-1 0 0 1 1592.49 68.0967)" fill="#D9D9D9"/>
<rect width="24.0077" height="18.0137" rx="3.37084" transform="matrix(-1 0 0 1 1592.49 140.151)" fill="#D9D9D9"/>
<rect width="24.0077" height="18.0137" rx="3.37084" transform="matrix(-1 0 0 1 1621.3 104.124)" fill="#D9D9D9"/>
<circle cx="1666.4" cy="114.659" r="6.43045" fill="#808080"/>
<g clip-path="url(#clip0_617_1736)">
<path d="M204.083 30.686H206.423V37.1958C206.423 40.5002 204.602 42.3954 201.429 42.3954C198.29 42.3954 196.485 40.5331 196.485 37.2864V30.6942H198.825V37.2123C198.825 39.1405 199.773 40.1705 201.462 40.1705C203.151 40.1705 204.083 39.1652 204.083 37.2947V30.686ZM190.898 35.3335H185.608V30.686H183.268V42.2224H185.608V37.5336H190.89V42.2224H193.23V30.686H190.89V35.3335H190.898ZM249.503 30.686V42.2059H251.81V30.686H249.503ZM240.315 37.2535H244.575V35.1522H240.315V32.7872H246.495V30.6942H238.008V42.2141H246.718V40.1129H240.315V37.2535ZM231.135 38.6131L228.515 30.6777H226.603L223.983 38.6131L221.437 30.686H218.948L222.969 42.2141H224.906L227.526 34.6413L230.147 42.2141H232.099L236.113 30.686H233.682L231.135 38.6131ZM214.787 30.7519L219.821 42.2141H217.366L216.328 39.8162H211.046L210.971 39.981L209.999 42.2141H207.609L212.694 30.686H214.737L214.787 30.7519ZM215.347 37.4595L213.682 33.5948L212.026 37.4595L211.911 37.7232H215.454L215.347 37.4595Z" fill="black"/>
</g>
<line x1="1700.73" y1="1.40527" x2="1700.73" y2="264.246" stroke="black" stroke-width="2.81113"/>
<defs>
<linearGradient id="paint0_linear_617_1736" x1="598.031" y1="237.321" x2="713.779" y2="237.321" gradientUnits="userSpaceOnUse">
<stop stop-color="white"/>
<stop offset="1" stop-color="#999999"/>
</linearGradient>
<linearGradient id="paint1_linear_617_1736" x1="983.859" y1="57.2681" x2="1001.54" y2="57.2681" gradientUnits="userSpaceOnUse">
<stop offset="0.0336538" stop-color="#D9D9D9"/>
<stop offset="0.54212" stop-color="#A5A5A5"/>
<stop offset="1" stop-color="#737373"/>
</linearGradient>
<linearGradient id="paint2_linear_617_1736" x1="983.859" y1="208.383" x2="1001.54" y2="208.383" gradientUnits="userSpaceOnUse">
<stop offset="0.0336538" stop-color="#D9D9D9"/>
<stop offset="0.54212" stop-color="#A5A5A5"/>
<stop offset="1" stop-color="#737373"/>
</linearGradient>
<linearGradient id="paint3_linear_617_1736" x1="1276.44" y1="60.4819" x2="1294.13" y2="60.4819" gradientUnits="userSpaceOnUse">
<stop offset="0.0336538" stop-color="#D9D9D9"/>
<stop offset="0.54212" stop-color="#A5A5A5"/>
<stop offset="1" stop-color="#737373"/>
</linearGradient>
<linearGradient id="paint4_linear_617_1736" x1="1276.44" y1="211.598" x2="1294.13" y2="211.598" gradientUnits="userSpaceOnUse">
<stop offset="0.0336538" stop-color="#D9D9D9"/>
<stop offset="0.54212" stop-color="#A5A5A5"/>
<stop offset="1" stop-color="#737373"/>
</linearGradient>
<linearGradient id="paint5_linear_617_1736" x1="993.131" y1="132.826" x2="1013.01" y2="132.826" gradientUnits="userSpaceOnUse">
<stop offset="0.0336538" stop-color="#6D6361"/>
<stop offset="0.54212" stop-color="#8F827C"/>
<stop offset="1" stop-color="#948A87"/>
</linearGradient>
<linearGradient id="paint6_linear_617_1736" x1="1310.79" y1="135.636" x2="1330.67" y2="135.636" gradientUnits="userSpaceOnUse">
<stop offset="0.0336538" stop-color="#6D6361"/>
<stop offset="0.54212" stop-color="#8F827C"/>
<stop offset="1" stop-color="#948A87"/>
</linearGradient>
<linearGradient id="paint7_linear_617_1736" x1="1149.75" y1="333.119" x2="1149.75" y2="-45.6807" gradientUnits="userSpaceOnUse">
<stop/>
<stop offset="0.534435" stop-color="#E4E4E4"/>
<stop offset="1"/>
</linearGradient>
<linearGradient id="paint8_linear_617_1736" x1="1496.89" y1="333.31" x2="1496.89" y2="-45.4893" gradientUnits="userSpaceOnUse">
<stop/>
<stop offset="0.534435" stop-color="#E4E4E4"/>
<stop offset="1"/>
</linearGradient>
<clipPath id="clip0_617_1736">
<rect width="68.5427" height="45.3484" fill="white" transform="translate(183.268 13.8623)"/>
</clipPath>
</defs>
</svg>
