<svg width="15" height="14" viewBox="0 0 15 14" fill="none" xmlns="http://www.w3.org/2000/svg">
<path fill-rule="evenodd" clip-rule="evenodd" d="M7.2959 1.01626e-07H7.37402C8.87011 -6.72764e-06 10.0452 -1.35346e-05 10.9627 0.12333C11.9028 0.249733 12.6487 0.514053 13.2348 1.10013C13.8209 1.68622 14.0852 2.43216 14.2116 3.37231C14.335 4.28976 14.335 5.46486 14.335 6.96094V7.03906C14.335 8.53515 14.335 9.71026 14.2116 10.6277C14.0852 11.5678 13.8209 12.3138 13.2348 12.8999C12.6487 13.486 11.9028 13.7503 10.9627 13.8767C10.0452 14 8.87011 14 7.37402 14H7.2959C5.79982 14 4.62472 14 3.70727 13.8767C2.76712 13.7503 2.02118 13.486 1.43509 12.8999C0.849014 12.3138 0.584694 11.5678 0.458291 10.6277C0.334947 9.71026 0.334954 8.53515 0.334961 7.03906V6.96094C0.334954 5.46486 0.334947 4.28976 0.458291 3.37231C0.584694 2.43216 0.849014 1.68622 1.43509 1.10013C2.02118 0.514053 2.76712 0.249733 3.70727 0.12333C4.62472 -1.35346e-05 5.79982 -6.72764e-06 7.2959 1.01626e-07ZM3.84377 1.13859C3.0172 1.24972 2.52348 1.46046 2.15945 1.82449C1.79542 2.18852 1.58468 2.68224 1.47355 3.50881C1.36044 4.3501 1.35935 5.45633 1.35935 7C1.35935 8.54369 1.36044 9.64989 1.47355 10.4912C1.58468 11.3177 1.79542 11.8115 2.15945 12.1755C2.52348 12.5396 3.0172 12.7503 3.84377 12.8614C4.68506 12.9745 5.79129 12.9756 7.33496 12.9756C8.87865 12.9756 9.98485 12.9745 10.8262 12.8614C11.6527 12.7503 12.1465 12.5396 12.5105 12.1755C12.8745 11.8115 13.0853 11.3177 13.1964 10.4912C13.3095 9.64989 13.3106 8.54369 13.3106 7C13.3106 5.45633 13.3095 4.3501 13.1964 3.50881C13.0853 2.68224 12.8745 2.18852 12.5105 1.82449C12.1465 1.46046 11.6527 1.24972 10.8262 1.13859C9.98485 1.02548 8.87865 1.02439 7.33496 1.02439C5.79129 1.02439 4.68506 1.02548 3.84377 1.13859Z" fill="black"/>
</svg>
