<svg id="Component_124_8" data-name="Component 124 – 8" xmlns="http://www.w3.org/2000/svg" width="10" height="10" viewBox="0 0 10 10">
  <circle id="Ellipse_45" data-name="Ellipse 45" cx="5" cy="5" r="5" fill="#fff"/>
  <path id="Icon_awesome-check-circle" data-name="Icon awesome-check-circle" d="M10.188,5.188a5,5,0,1,1-5-5A5,5,0,0,1,10.188,5.188ZM4.609,7.835l3.71-3.71a.323.323,0,0,0,0-.456l-.456-.456a.323.323,0,0,0-.456,0L4.381,6.238,2.969,4.826a.323.323,0,0,0-.456,0l-.456.456a.323.323,0,0,0,0,.456l2.1,2.1A.323.323,0,0,0,4.609,7.835Z" transform="translate(-0.188 -0.188)" fill="#25b89d"/>
</svg>
