<svg width="1050" height="242" viewBox="0 0 1050 242" fill="none" xmlns="http://www.w3.org/2000/svg">
<rect width="99.2225" height="36.8541" transform="translate(941.764 162.292)" fill="black"/>
<path d="M1018.31 165.126H1040.99V196.31H1029.65V199.145H1021.14V196.31H995.628V199.145H987.123V196.31H975.781V187.806H970.113V173.631H975.781V165.126H995.629V159.456H1018.31V165.126Z" fill="#D9D9D9"/>
<rect x="987.126" y="173.632" width="11.3397" height="11.3397" fill="#D7C231"/>
<rect x="987.126" y="173.632" width="11.3397" height="11.3397" stroke="black" stroke-width="5.66986"/>
<rect x="987.126" y="173.632" width="11.3397" height="11.3397" stroke="black" stroke-width="5.66986"/>
<rect x="987.126" y="173.632" width="11.3397" height="11.3397" stroke="black" stroke-width="5.66986"/>
<rect x="987.126" y="173.632" width="11.3397" height="11.3397" stroke="black" stroke-width="5.66986"/>
<rect x="1015.47" y="173.632" width="11.3397" height="11.3397" fill="#D7C231"/>
<rect x="1015.47" y="173.632" width="11.3397" height="11.3397" stroke="black" stroke-width="5.66986"/>
<rect x="1015.47" y="173.632" width="11.3397" height="11.3397" stroke="black" stroke-width="5.66986"/>
<rect x="1015.47" y="173.632" width="11.3397" height="11.3397" stroke="black" stroke-width="5.66986"/>
<rect x="1015.47" y="173.632" width="11.3397" height="11.3397" stroke="black" stroke-width="5.66986"/>
<rect x="953.103" y="176.465" width="8.50479" height="22.6794" fill="#D7C231"/>
<rect x="953.103" y="187.806" width="8.50479" height="11.3397" fill="#D9D9D9"/>
<path d="M935.412 150H933.732L927.717 140.683C927.565 140.449 927.44 140.205 927.342 139.949H927.293C927.336 140.199 927.358 140.735 927.358 141.555V150H925.989V138.311H927.766L933.618 147.481C933.863 147.862 934.02 148.122 934.091 148.264H934.124C934.069 147.927 934.042 147.354 934.042 146.544V138.311H935.412V150ZM944.672 150H938.477V138.311H944.411V139.55H939.846V143.438H944.068V144.669H939.846V148.761H944.672V150ZM955.659 149.201C954.486 149.864 953.181 150.196 951.747 150.196C950.079 150.196 948.728 149.658 947.696 148.582C946.669 147.506 946.155 146.082 946.155 144.31C946.155 142.501 946.726 141.017 947.867 139.86C949.013 138.697 950.464 138.115 952.22 138.115C953.491 138.115 954.559 138.322 955.423 138.735V140.251C954.477 139.653 953.358 139.354 952.065 139.354C950.755 139.354 949.682 139.805 948.845 140.708C948.008 141.61 947.59 142.778 947.59 144.213C947.59 145.691 947.978 146.854 948.755 147.701C949.532 148.544 950.587 148.965 951.918 148.965C952.831 148.965 953.622 148.783 954.29 148.419V145.142H951.731V143.903H955.659V149.201ZM961.479 152.657H958.48V138.311H961.479V139.281H959.67V151.687H961.479V152.657ZM963.705 150.179C963.455 150.179 963.24 150.09 963.061 149.91C962.887 149.731 962.8 149.516 962.8 149.266C962.8 149.016 962.887 148.802 963.061 148.622C963.24 148.438 963.455 148.345 963.705 148.345C963.96 148.345 964.178 148.438 964.357 148.622C964.536 148.802 964.626 149.016 964.626 149.266C964.626 149.516 964.536 149.731 964.357 149.91C964.178 150.09 963.96 150.179 963.705 150.179ZM966.892 152.657H965.702C967.397 150.625 968.245 148.247 968.245 145.525C968.245 142.781 967.392 140.376 965.686 138.311H966.892C968.587 140.3 969.435 142.71 969.435 145.541C969.435 148.362 968.587 150.734 966.892 152.657Z" fill="black"/>
<path d="M1007.37 150H1005.74L1003.78 146.723C1003.6 146.419 1003.43 146.161 1003.26 145.949C1003.09 145.731 1002.92 145.555 1002.74 145.419C1002.57 145.283 1002.38 145.185 1002.17 145.126C1001.97 145.06 1001.74 145.028 1001.48 145.028H1000.36V150H998.99V138.311H1002.48C1002.99 138.311 1003.46 138.376 1003.89 138.507C1004.32 138.632 1004.7 138.825 1005.01 139.085C1005.33 139.346 1005.58 139.672 1005.76 140.064C1005.94 140.449 1006.03 140.903 1006.03 141.425C1006.03 141.832 1005.97 142.207 1005.85 142.55C1005.73 142.887 1005.55 143.188 1005.32 143.455C1005.1 143.721 1004.83 143.949 1004.51 144.139C1004.19 144.324 1003.84 144.468 1003.44 144.571V144.604C1003.64 144.691 1003.8 144.791 1003.95 144.905C1004.09 145.014 1004.23 145.145 1004.36 145.297C1004.49 145.449 1004.62 145.623 1004.74 145.818C1004.88 146.009 1005.02 146.231 1005.18 146.487L1007.37 150ZM1000.36 139.55V143.789H1002.22C1002.56 143.789 1002.88 143.737 1003.16 143.634C1003.46 143.531 1003.71 143.384 1003.92 143.194C1004.13 142.998 1004.3 142.762 1004.42 142.485C1004.54 142.202 1004.6 141.887 1004.6 141.539C1004.6 140.914 1004.39 140.428 1003.99 140.08C1003.58 139.727 1003 139.55 1002.23 139.55H1000.36ZM1015.15 139.55H1011.77V150H1010.4V139.55H1007.04V138.311H1015.15V139.55ZM1026.41 150H1024.73L1018.72 140.683C1018.56 140.449 1018.44 140.205 1018.34 139.949H1018.29C1018.34 140.199 1018.36 140.735 1018.36 141.555V150H1016.99V138.311H1018.77L1024.62 147.481C1024.86 147.862 1025.02 148.122 1025.09 148.264H1025.12C1025.07 147.927 1025.04 147.354 1025.04 146.544V138.311H1026.41V150ZM1032.57 152.657H1029.57V138.311H1032.57V139.281H1030.76V151.687H1032.57V152.657ZM1042.53 145.68H1039.24V148.965H1038.16V145.68H1034.87V144.588H1038.16V141.303H1039.24V144.588H1042.53V145.68ZM1045.79 152.657H1044.6C1046.3 150.625 1047.15 148.247 1047.15 145.525C1047.15 142.781 1046.29 140.376 1044.59 138.311H1045.79C1047.49 140.3 1048.34 142.71 1048.34 145.541C1048.34 148.362 1047.49 150.734 1045.79 152.657Z" fill="black"/>
<rect width="85.0479" height="22" transform="translate(220 220)" fill="#3164A6"/>
<path d="M257.193 227.55H252.629V231.593H256.851V232.824H252.629V238H251.259V226.311H257.193V227.55ZM265.606 238H259.411V226.311H265.345V227.55H260.78V231.438H265.002V232.669H260.78V236.761H265.606V238ZM274.637 232.107C274.637 233.085 274.548 233.952 274.368 234.707C274.194 235.462 273.939 236.101 273.602 236.622C273.271 237.139 272.86 237.533 272.371 237.804C271.888 238.071 271.336 238.204 270.716 238.204C270.13 238.204 269.605 238.076 269.143 237.821C268.687 237.56 268.301 237.182 267.986 236.688C267.671 236.193 267.431 235.587 267.268 234.87C267.105 234.147 267.024 233.321 267.024 232.392C267.024 231.37 267.108 230.468 267.277 229.686C267.451 228.903 267.703 228.248 268.035 227.721C268.366 227.189 268.776 226.789 269.266 226.523C269.76 226.251 270.325 226.115 270.961 226.115C273.412 226.115 274.637 228.112 274.637 232.107ZM273.268 232.237C273.268 228.911 272.477 227.248 270.896 227.248C269.227 227.248 268.393 228.941 268.393 232.327C268.393 235.484 269.211 237.063 270.847 237.063C272.461 237.063 273.268 235.454 273.268 232.237Z" fill="white"/>
<rect width="85.0479" height="22" transform="translate(305.048 220)" fill="#3164A6"/>
<path d="M342.241 227.55H337.677V231.593H341.899V232.824H337.677V238H336.307V226.311H342.241V227.55ZM350.653 238H344.458V226.311H350.393V227.55H345.828V231.438H350.05V232.669H345.828V236.761H350.653V238ZM357.272 238H355.935V227.901C355.832 228.004 355.68 228.123 355.479 228.259C355.283 228.39 355.061 228.52 354.811 228.65C354.566 228.781 354.305 228.903 354.028 229.017C353.756 229.131 353.49 229.221 353.229 229.286V227.933C353.523 227.852 353.832 227.743 354.159 227.607C354.49 227.466 354.813 227.311 355.129 227.142C355.449 226.969 355.751 226.789 356.033 226.605C356.316 226.414 356.56 226.23 356.767 226.05H357.272V238Z" fill="white"/>
<rect width="85.0479" height="22" transform="translate(390.096 220)" fill="#3164A6"/>
<path d="M427.289 227.55H422.724V231.593H426.947V232.824H422.724V238H421.355V226.311H427.289V227.55ZM435.701 238H429.506V226.311H435.44V227.55H430.876V231.438H435.098V232.669H430.876V236.761H435.701V238ZM442.711 229.376C442.711 229.017 442.654 228.705 442.54 228.439C442.432 228.172 442.279 227.952 442.084 227.778C441.894 227.599 441.668 227.466 441.407 227.379C441.146 227.292 440.864 227.248 440.559 227.248C440.299 227.248 440.043 227.284 439.793 227.354C439.543 227.425 439.299 227.523 439.06 227.648C438.826 227.773 438.598 227.922 438.375 228.096C438.158 228.27 437.954 228.463 437.764 228.675V227.24C438.139 226.876 438.557 226.599 439.019 226.409C439.486 226.213 440.054 226.115 440.722 226.115C441.201 226.115 441.644 226.186 442.051 226.327C442.459 226.463 442.812 226.664 443.111 226.931C443.41 227.197 443.643 227.526 443.812 227.917C443.986 228.308 444.073 228.756 444.073 229.262C444.073 229.724 444.018 230.142 443.91 230.517C443.806 230.892 443.646 231.245 443.429 231.577C443.217 231.908 442.948 232.226 442.622 232.53C442.296 232.835 441.913 233.145 441.472 233.46C440.924 233.851 440.47 234.185 440.111 234.462C439.758 234.739 439.475 235 439.263 235.245C439.057 235.484 438.91 235.726 438.823 235.97C438.742 236.209 438.701 236.487 438.701 236.802H444.521V238H437.307V237.421C437.307 236.921 437.361 236.481 437.47 236.101C437.579 235.72 437.758 235.359 438.008 235.017C438.258 234.674 438.584 234.332 438.986 233.99C439.394 233.647 439.891 233.261 440.478 232.832C440.902 232.528 441.255 232.237 441.538 231.96C441.826 231.683 442.057 231.406 442.23 231.128C442.404 230.851 442.527 230.571 442.597 230.289C442.673 230.001 442.711 229.697 442.711 229.376Z" fill="white"/>
<rect width="85.0479" height="22" transform="translate(475.144 220)" fill="#3164A6"/>
<path d="M512.337 227.55H507.772V231.593H511.995V232.824H507.772V238H506.403V226.311H512.337V227.55ZM520.749 238H514.554V226.311H520.488V227.55H515.924V231.438H520.146V232.669H515.924V236.761H520.749V238ZM529.235 234.691C529.235 235.218 529.134 235.699 528.933 236.133C528.737 236.563 528.458 236.932 528.093 237.242C527.735 237.546 527.303 237.783 526.797 237.951C526.292 238.12 525.735 238.204 525.126 238.204C524.012 238.204 523.127 237.992 522.469 237.568V236.133C523.257 236.753 524.159 237.063 525.175 237.063C525.583 237.063 525.95 237.011 526.276 236.908C526.607 236.804 526.89 236.655 527.123 236.459C527.363 236.264 527.545 236.027 527.67 235.75C527.8 235.473 527.865 235.161 527.865 234.813C527.865 233.286 526.778 232.522 524.605 232.522H523.635V231.389H524.556C526.48 231.389 527.441 230.672 527.441 229.237C527.441 227.911 526.708 227.248 525.241 227.248C524.415 227.248 523.64 227.526 522.917 228.08V226.784C523.662 226.338 524.548 226.115 525.575 226.115C526.064 226.115 526.507 226.183 526.903 226.319C527.3 226.455 527.64 226.645 527.922 226.89C528.205 227.134 528.422 227.428 528.574 227.77C528.732 228.112 528.811 228.49 528.811 228.903C528.811 230.441 528.034 231.43 526.48 231.87V231.903C526.876 231.946 527.243 232.044 527.58 232.196C527.917 232.343 528.208 232.536 528.452 232.775C528.697 233.014 528.887 233.297 529.023 233.623C529.164 233.943 529.235 234.299 529.235 234.691Z" fill="white"/>
<rect x="9.01665" y="138.529" width="82.5733" height="74.0333" fill="#AAAAAA"/>
<rect x="9.01665" y="138.529" width="82.5733" height="74.0333" stroke="#747578" stroke-width="2.80674"/>
<rect x="38.7959" y="145.632" width="25.5144" height="45.3589" fill="#FFFEFF"/>
<path d="M72.8174 156.971H84.1562V202.33H18.9521V156.971H30.293V148.467H72.8174V156.971Z" fill="#191718"/>
<rect x="21.7871" y="168.312" width="5.66986" height="17.0096" fill="#FFFEFF"/>
<rect x="75.6494" y="168.312" width="5.66986" height="17.0096" fill="#FFFEFF"/>
<rect x="75.6494" y="154.137" width="11.3397" height="8.50479" fill="#1F7838"/>
<rect x="16.1172" y="154.137" width="11.3397" height="8.50479" fill="#D5C331"/>
<rect x="33.127" y="182.486" width="2.83493" height="17.0096" fill="#888888"/>
<rect x="38.7959" y="182.486" width="2.83493" height="17.0096" fill="#888888"/>
<rect x="44.4668" y="182.486" width="2.83493" height="17.0096" fill="#888888"/>
<rect x="50.1367" y="182.486" width="2.83493" height="17.0096" fill="#888888"/>
<rect x="55.8057" y="182.486" width="2.83493" height="17.0096" fill="#888888"/>
<rect x="61.4756" y="182.486" width="2.83493" height="17.0096" fill="#888888"/>
<rect x="67.1465" y="182.486" width="2.83493" height="17.0096" fill="#888888"/>
<rect width="85.0479" height="22" transform="translate(7.61328 219.636)" fill="#CEAC31"/>
<path d="M45.9561 236.837C44.7823 237.5 43.4781 237.831 42.0435 237.831C40.3752 237.831 39.0248 237.293 37.9923 236.217C36.9652 235.141 36.4517 233.718 36.4517 231.946C36.4517 230.137 37.0223 228.653 38.1635 227.496C39.3101 226.333 40.761 225.751 42.5162 225.751C43.7878 225.751 44.8557 225.958 45.7197 226.371V227.887C44.7742 227.289 43.6547 226.99 42.3614 226.99C41.0517 226.99 39.9785 227.441 39.1416 228.343C38.3047 229.245 37.8863 230.414 37.8863 231.848C37.8863 233.326 38.2749 234.489 39.0519 235.337C39.829 236.179 40.8833 236.601 42.2146 236.601C43.1276 236.601 43.9183 236.418 44.5867 236.054V232.778H42.0272V231.539H45.9561V236.837ZM54.8736 237.636H48.6786V225.947H54.6128V227.186H50.048V231.074H54.2704V232.305H50.048V236.397H54.8736V237.636ZM63.9052 231.742C63.9052 232.721 63.8156 233.587 63.6362 234.343C63.4623 235.098 63.2069 235.736 62.87 236.258C62.5385 236.774 62.1282 237.168 61.6392 237.44C61.1555 237.706 60.6039 237.84 59.9844 237.84C59.3976 237.84 58.8732 237.712 58.4113 237.456C57.9548 237.196 57.569 236.818 57.2538 236.323C56.9386 235.829 56.6995 235.223 56.5365 234.506C56.3734 233.783 56.2919 232.957 56.2919 232.028C56.2919 231.006 56.3761 230.104 56.5446 229.321C56.7185 228.539 56.9712 227.884 57.3027 227.357C57.6342 226.824 58.0444 226.425 58.5335 226.159C59.028 225.887 59.5932 225.751 60.229 225.751C62.6798 225.751 63.9052 227.748 63.9052 231.742ZM62.5358 231.873C62.5358 228.547 61.7451 226.884 60.1638 226.884C58.4955 226.884 57.6613 228.577 57.6613 231.962C57.6613 235.12 58.4792 236.698 60.1149 236.698C61.7288 236.698 62.5358 235.09 62.5358 231.873Z" fill="black"/>
<rect x="108.238" y="138.529" width="82.5733" height="74.0333" fill="#AAAAAA"/>
<rect x="108.238" y="138.529" width="82.5733" height="74.0333" stroke="#747578" stroke-width="2.80674"/>
<rect x="138.018" y="145.632" width="25.5144" height="45.3589" fill="#FFFEFF"/>
<path d="M172.038 156.971H183.377V202.33H118.174V156.971H129.515V148.467H172.038V156.971Z" fill="#191718"/>
<rect x="121.009" y="168.312" width="5.66986" height="17.0096" fill="#FFFEFF"/>
<rect x="174.873" y="168.312" width="5.66986" height="17.0096" fill="#FFFEFF"/>
<rect x="174.873" y="154.137" width="11.3397" height="8.50479" fill="#1F7838"/>
<rect x="115.339" y="154.137" width="11.3397" height="8.50479" fill="#D5C331"/>
<rect x="132.352" y="182.486" width="2.83493" height="17.0096" fill="#888888"/>
<rect x="138.018" y="182.486" width="2.83493" height="17.0096" fill="#888888"/>
<rect x="143.689" y="182.486" width="2.83493" height="17.0096" fill="#888888"/>
<rect x="149.358" y="182.486" width="2.83493" height="17.0096" fill="#888888"/>
<rect x="155.027" y="182.486" width="2.83493" height="17.0096" fill="#888888"/>
<rect x="160.697" y="182.486" width="2.83493" height="17.0096" fill="#888888"/>
<rect x="166.37" y="182.486" width="2.83493" height="17.0096" fill="#888888"/>
<rect width="85.0479" height="22" transform="translate(106.835 219.636)" fill="#CEAC31"/>
<path d="M145.178 236.837C144.004 237.5 142.7 237.831 141.265 237.831C139.597 237.831 138.246 237.293 137.214 236.217C136.187 235.141 135.673 233.718 135.673 231.946C135.673 230.137 136.244 228.653 137.385 227.496C138.532 226.333 139.983 225.751 141.738 225.751C143.01 225.751 144.077 225.958 144.941 226.371V227.887C143.996 227.289 142.876 226.99 141.583 226.99C140.273 226.99 139.2 227.441 138.363 228.343C137.526 229.245 137.108 230.414 137.108 231.848C137.108 233.326 137.497 234.489 138.274 235.337C139.051 236.179 140.105 236.601 141.436 236.601C142.349 236.601 143.14 236.418 143.808 236.054V232.778H141.249V231.539H145.178V236.837ZM154.095 237.636H147.9V225.947H153.834V227.186H149.27V231.074H153.492V232.305H149.27V236.397H154.095V237.636ZM160.714 237.636H159.377V227.536C159.274 227.64 159.122 227.759 158.921 227.895C158.725 228.025 158.502 228.156 158.252 228.286C158.008 228.417 157.747 228.539 157.47 228.653C157.198 228.767 156.932 228.857 156.671 228.922V227.569C156.965 227.487 157.274 227.379 157.6 227.243C157.932 227.102 158.255 226.947 158.57 226.778C158.891 226.604 159.193 226.425 159.475 226.24C159.758 226.05 160.002 225.865 160.209 225.686H160.714V237.636Z" fill="black"/>
<rect x="221.633" y="138.529" width="334.55" height="73.7364" fill="#AAAAAA"/>
<rect x="221.633" y="138.529" width="334.55" height="73.7364" stroke="#747578" stroke-width="2.80674"/>
<rect x="251.415" y="145.63" width="25.5144" height="45.3589" fill="#FFFEFF"/>
<path d="M285.434 156.97H296.774V202.328H231.571V156.97H242.91V148.465H285.434V156.97Z" fill="#191718"/>
<rect x="234.405" y="168.309" width="5.66986" height="17.0096" fill="#FFFEFF"/>
<rect x="288.271" y="168.309" width="5.66986" height="17.0096" fill="#FFFEFF"/>
<rect x="288.271" y="154.136" width="11.3397" height="8.50479" fill="#1F7838"/>
<rect x="228.735" y="154.136" width="11.3397" height="8.50479" fill="#D5C331"/>
<rect x="245.743" y="182.485" width="2.83493" height="17.0096" fill="#888888"/>
<rect x="251.415" y="182.485" width="2.83493" height="17.0096" fill="#888888"/>
<rect x="257.083" y="182.485" width="2.83493" height="17.0096" fill="#888888"/>
<rect x="262.756" y="182.485" width="2.83493" height="17.0096" fill="#888888"/>
<rect x="268.424" y="182.485" width="2.83493" height="17.0096" fill="#888888"/>
<rect x="274.095" y="182.485" width="2.83493" height="17.0096" fill="#888888"/>
<rect x="279.763" y="182.485" width="2.83493" height="17.0096" fill="#888888"/>
<rect x="333.63" y="145.63" width="25.5144" height="45.3589" fill="#FFFEFF"/>
<path d="M367.649 156.97H378.99V202.328H313.787V156.97H325.126V148.465H367.649V156.97Z" fill="#191718"/>
<rect x="316.622" y="168.309" width="5.66986" height="17.0096" fill="#FFFEFF"/>
<rect x="370.485" y="168.309" width="5.66986" height="17.0096" fill="#FFFEFF"/>
<rect x="370.485" y="154.136" width="11.3397" height="8.50479" fill="#1F7838"/>
<rect x="310.95" y="154.136" width="11.3397" height="8.50479" fill="#D5C331"/>
<rect x="327.961" y="182.485" width="2.83493" height="17.0096" fill="#888888"/>
<rect x="333.63" y="182.485" width="2.83493" height="17.0096" fill="#888888"/>
<rect x="339.301" y="182.485" width="2.83493" height="17.0096" fill="#888888"/>
<rect x="344.968" y="182.485" width="2.83493" height="17.0096" fill="#888888"/>
<rect x="350.641" y="182.485" width="2.83493" height="17.0096" fill="#888888"/>
<rect x="356.311" y="182.485" width="2.83493" height="17.0096" fill="#888888"/>
<rect x="361.979" y="182.485" width="2.83493" height="17.0096" fill="#888888"/>
<rect x="415.845" y="145.63" width="25.5144" height="45.3589" fill="#FFFEFF"/>
<path d="M449.863 156.97H461.204V202.328H396.001V156.97H407.339V148.465H449.863V156.97Z" fill="#191718"/>
<rect x="398.835" y="168.309" width="5.66986" height="17.0096" fill="#FFFEFF"/>
<rect x="452.698" y="168.309" width="5.66986" height="17.0096" fill="#FFFEFF"/>
<rect x="452.698" y="154.136" width="11.3397" height="8.50479" fill="#1F7838"/>
<rect x="393.165" y="154.136" width="11.3397" height="8.50479" fill="#D5C331"/>
<rect x="410.173" y="182.485" width="2.83493" height="17.0096" fill="#888888"/>
<rect x="415.845" y="182.485" width="2.83493" height="17.0096" fill="#888888"/>
<rect x="421.514" y="182.485" width="2.83493" height="17.0096" fill="#888888"/>
<rect x="427.183" y="182.485" width="2.83493" height="17.0096" fill="#888888"/>
<rect x="432.854" y="182.485" width="2.83493" height="17.0096" fill="#888888"/>
<rect x="438.524" y="182.485" width="2.83493" height="17.0096" fill="#888888"/>
<rect x="444.192" y="182.485" width="2.83493" height="17.0096" fill="#888888"/>
<rect x="498.057" y="145.63" width="25.5144" height="45.3589" fill="#FFFEFF"/>
<path d="M532.075 156.97H543.416V202.328H478.213V156.97H489.552V148.465H532.075V156.97Z" fill="#191718"/>
<rect x="481.048" y="168.309" width="5.66986" height="17.0096" fill="#FFFEFF"/>
<rect x="534.91" y="168.309" width="5.66986" height="17.0096" fill="#FFFEFF"/>
<rect x="534.91" y="154.136" width="11.3397" height="8.50479" fill="#1F7838"/>
<rect x="475.378" y="154.136" width="11.3397" height="8.50479" fill="#D5C331"/>
<rect x="492.387" y="182.485" width="2.83493" height="17.0096" fill="#888888"/>
<rect x="498.057" y="182.485" width="2.83493" height="17.0096" fill="#888888"/>
<rect x="503.728" y="182.485" width="2.83493" height="17.0096" fill="#888888"/>
<rect x="509.396" y="182.485" width="2.83493" height="17.0096" fill="#888888"/>
<rect x="515.066" y="182.485" width="2.83493" height="17.0096" fill="#888888"/>
<rect x="520.737" y="182.485" width="2.83493" height="17.0096" fill="#888888"/>
<rect x="526.405" y="182.485" width="2.83493" height="17.0096" fill="#888888"/>
<rect x="570.462" y="138.529" width="334.55" height="73.7364" fill="#AAAAAA"/>
<rect x="570.462" y="138.529" width="334.55" height="73.7364" stroke="#747578" stroke-width="2.80674"/>
<rect x="600.243" y="145.63" width="25.5144" height="45.3589" fill="#FFFEFF"/>
<path d="M634.262 156.97H645.603V202.328H580.399V156.97H591.738V148.465H634.262V156.97Z" fill="#191718"/>
<rect x="583.232" y="168.309" width="5.66986" height="17.0096" fill="#FFFEFF"/>
<rect x="637.098" y="168.309" width="5.66986" height="17.0096" fill="#FFFEFF"/>
<rect x="637.098" y="154.136" width="11.3397" height="8.50479" fill="#1F7838"/>
<rect x="577.564" y="154.136" width="11.3397" height="8.50479" fill="#D5C331"/>
<rect x="594.575" y="182.485" width="2.83493" height="17.0096" fill="#888888"/>
<rect x="600.243" y="182.485" width="2.83493" height="17.0096" fill="#888888"/>
<rect x="605.912" y="182.485" width="2.83493" height="17.0096" fill="#888888"/>
<rect x="611.582" y="182.485" width="2.83493" height="17.0096" fill="#888888"/>
<rect x="617.253" y="182.485" width="2.83493" height="17.0096" fill="#888888"/>
<rect x="622.923" y="182.485" width="2.83493" height="17.0096" fill="#888888"/>
<rect x="628.594" y="182.485" width="2.83493" height="17.0096" fill="#888888"/>
<rect x="682.455" y="145.63" width="25.5144" height="45.3589" fill="#FFFEFF"/>
<path d="M716.473 156.97H727.813V202.328H662.61V156.97H673.949V148.465H716.473V156.97Z" fill="#191718"/>
<rect x="665.443" y="168.309" width="5.66986" height="17.0096" fill="#FFFEFF"/>
<rect x="719.309" y="168.309" width="5.66986" height="17.0096" fill="#FFFEFF"/>
<rect x="719.309" y="154.136" width="11.3397" height="8.50479" fill="#1F7838"/>
<rect x="659.777" y="154.136" width="11.3397" height="8.50479" fill="#D5C331"/>
<rect x="676.785" y="182.485" width="2.83493" height="17.0096" fill="#888888"/>
<rect x="682.455" y="182.485" width="2.83493" height="17.0096" fill="#888888"/>
<rect x="688.123" y="182.485" width="2.83493" height="17.0096" fill="#888888"/>
<rect x="693.796" y="182.485" width="2.83493" height="17.0096" fill="#888888"/>
<rect x="699.464" y="182.485" width="2.83493" height="17.0096" fill="#888888"/>
<rect x="705.135" y="182.485" width="2.83493" height="17.0096" fill="#888888"/>
<rect x="710.804" y="182.485" width="2.83493" height="17.0096" fill="#888888"/>
<rect x="764.667" y="145.63" width="25.5144" height="45.3589" fill="#FFFEFF"/>
<path d="M798.687 156.97H810.026V202.328H744.823V156.97H756.162V148.465H798.687V156.97Z" fill="#191718"/>
<rect x="747.656" y="168.309" width="5.66986" height="17.0096" fill="#FFFEFF"/>
<rect x="801.521" y="168.309" width="5.66986" height="17.0096" fill="#FFFEFF"/>
<rect x="801.521" y="154.136" width="11.3397" height="8.50479" fill="#1F7838"/>
<rect x="741.988" y="154.136" width="11.3397" height="8.50479" fill="#D5C331"/>
<rect x="758.998" y="182.485" width="2.83493" height="17.0096" fill="#888888"/>
<rect x="764.667" y="182.485" width="2.83493" height="17.0096" fill="#888888"/>
<rect x="770.336" y="182.485" width="2.83493" height="17.0096" fill="#888888"/>
<rect x="776.006" y="182.485" width="2.83493" height="17.0096" fill="#888888"/>
<rect x="781.677" y="182.485" width="2.83493" height="17.0096" fill="#888888"/>
<rect x="787.345" y="182.485" width="2.83493" height="17.0096" fill="#888888"/>
<rect x="793.018" y="182.485" width="2.83493" height="17.0096" fill="#888888"/>
<rect x="846.879" y="145.63" width="25.5144" height="45.3589" fill="#FFFEFF"/>
<path d="M880.896 156.97H892.235V202.328H827.032V156.97H838.371V148.465H880.896V156.97Z" fill="#191718"/>
<rect x="829.867" y="168.309" width="5.66986" height="17.0096" fill="#FFFEFF"/>
<rect x="883.73" y="168.309" width="5.66986" height="17.0096" fill="#FFFEFF"/>
<rect x="883.73" y="154.136" width="11.3397" height="8.50479" fill="#1F7838"/>
<rect x="824.199" y="154.136" width="11.3397" height="8.50479" fill="#D5C331"/>
<rect x="841.209" y="182.485" width="2.83493" height="17.0096" fill="#888888"/>
<rect x="846.879" y="182.485" width="2.83493" height="17.0096" fill="#888888"/>
<rect x="852.55" y="182.485" width="2.83493" height="17.0096" fill="#888888"/>
<rect x="858.218" y="182.485" width="2.83493" height="17.0096" fill="#888888"/>
<rect x="863.886" y="182.485" width="2.83493" height="17.0096" fill="#888888"/>
<rect x="869.558" y="182.485" width="2.83493" height="17.0096" fill="#888888"/>
<rect x="875.228" y="182.485" width="2.83493" height="17.0096" fill="#888888"/>
<rect width="85.0479" height="22" transform="translate(570.621 219.615)" fill="#3164A6"/>
<rect x="594.476" y="219.615" width="37.3397" height="22" rx="5.66986" fill="#D7C231"/>
<path d="M607.815 227.165H603.25V231.208H607.472V232.439H603.25V237.615H601.88V225.926H607.815V227.165ZM616.227 237.615H610.032V225.926H615.966V227.165H611.401V231.053H615.623V232.284H611.401V236.376H616.227V237.615ZM623.873 225.926V233.646H625.372V234.868H623.873V237.615H622.552V234.868H617.058V233.711C617.569 233.135 618.085 232.521 618.607 231.869C619.129 231.211 619.626 230.545 620.099 229.872C620.577 229.198 621.017 228.527 621.419 227.858C621.827 227.184 622.169 226.54 622.446 225.926H623.873ZM618.566 233.646H622.552V227.923C622.145 228.635 621.759 229.271 621.395 229.831C621.031 230.39 620.683 230.899 620.351 231.355C620.025 231.812 619.713 232.225 619.414 232.594C619.115 232.964 618.832 233.314 618.566 233.646Z" fill="white"/>
<rect width="85.0479" height="22" transform="translate(655.669 219.615)" fill="#3164A6"/>
<rect x="679.523" y="219.615" width="37.3397" height="22" rx="5.66986" fill="#D7C231"/>
<path d="M692.862 227.165H688.298V231.208H692.52V232.439H688.298V237.615H686.928V225.926H692.862V227.165ZM701.275 237.615H695.08V225.926H701.014V227.165H696.449V231.053H700.671V232.284H696.449V236.376H701.275V237.615ZM709.89 234.045C709.89 234.616 709.793 235.132 709.597 235.594C709.401 236.056 709.122 236.452 708.757 236.784C708.399 237.115 707.964 237.371 707.453 237.55C706.942 237.729 706.375 237.819 705.75 237.819C704.663 237.819 703.856 237.656 703.329 237.33V235.912C704.122 236.422 704.934 236.678 705.766 236.678C706.19 236.678 706.57 236.615 706.907 236.49C707.249 236.365 707.54 236.191 707.779 235.969C708.018 235.746 708.2 235.477 708.325 235.162C708.456 234.847 708.521 234.501 708.521 234.126C708.521 233.366 708.266 232.771 707.755 232.341C707.244 231.907 706.502 231.689 705.53 231.689C705.372 231.689 705.206 231.692 705.032 231.697C704.858 231.703 704.685 231.711 704.511 231.722C704.337 231.727 704.166 231.735 703.997 231.746C703.834 231.757 703.685 231.771 703.549 231.787L703.948 225.926H709.352V227.133H705.106L704.869 230.564C705.043 230.554 705.228 230.545 705.424 230.54C705.619 230.529 705.793 230.524 705.945 230.524C706.565 230.524 707.119 230.605 707.608 230.768C708.097 230.931 708.51 231.165 708.847 231.469C709.189 231.768 709.448 232.138 709.621 232.578C709.801 233.012 709.89 233.502 709.89 234.045Z" fill="white"/>
<rect width="85.0479" height="22" transform="translate(740.717 219.615)" fill="#3164A6"/>
<rect x="764.571" y="219.615" width="37.3397" height="22" rx="5.66986" fill="#D7C231"/>
<path d="M777.91 227.165H773.346V231.208H777.568V232.439H773.346V237.615H771.976V225.926H777.91V227.165ZM786.322 237.615H780.127V225.926H786.062V227.165H781.497V231.053H785.719V232.284H781.497V236.376H786.322V237.615ZM795.37 233.906C795.37 234.477 795.278 235.001 795.093 235.48C794.908 235.958 794.653 236.371 794.327 236.719C794.001 237.066 793.612 237.338 793.161 237.534C792.71 237.724 792.221 237.819 791.694 237.819C791.107 237.819 790.58 237.697 790.113 237.452C789.651 237.208 789.257 236.857 788.931 236.401C788.61 235.939 788.366 235.376 788.197 234.713C788.029 234.05 787.945 233.303 787.945 232.472C787.945 231.456 788.056 230.534 788.279 229.708C788.507 228.877 788.828 228.168 789.241 227.581C789.659 226.989 790.162 226.532 790.749 226.212C791.335 225.891 791.99 225.731 792.713 225.731C793.517 225.731 794.164 225.842 794.653 226.065V227.328C794.05 227.019 793.414 226.864 792.746 226.864C792.224 226.864 791.754 226.981 791.335 227.214C790.917 227.448 790.558 227.779 790.259 228.209C789.961 228.633 789.73 229.146 789.567 229.749C789.409 230.352 789.33 231.024 789.33 231.763H789.363C789.901 230.79 790.789 230.304 792.028 230.304C792.539 230.304 792.998 230.39 793.406 230.564C793.819 230.738 794.169 230.986 794.457 231.306C794.751 231.621 794.976 231.999 795.134 232.439C795.292 232.879 795.37 233.368 795.37 233.906ZM794.001 234.078C794.001 233.67 793.949 233.303 793.846 232.977C793.743 232.651 793.593 232.374 793.398 232.146C793.208 231.917 792.971 231.744 792.689 231.624C792.406 231.499 792.085 231.437 791.727 231.437C791.395 231.437 791.088 231.499 790.806 231.624C790.523 231.749 790.278 231.92 790.072 232.138C789.865 232.35 789.702 232.599 789.583 232.887C789.469 233.17 789.412 233.472 789.412 233.792C789.412 234.194 789.469 234.572 789.583 234.925C789.697 235.273 789.857 235.577 790.064 235.838C790.27 236.099 790.515 236.306 790.797 236.458C791.085 236.604 791.403 236.678 791.751 236.678C792.088 236.678 792.395 236.615 792.672 236.49C792.949 236.36 793.186 236.181 793.381 235.952C793.577 235.724 793.729 235.452 793.838 235.137C793.947 234.817 794.001 234.463 794.001 234.078Z" fill="white"/>
<rect width="85.0479" height="22" transform="translate(825.765 219.615)" fill="#3164A6"/>
<rect x="849.619" y="219.615" width="37.3397" height="22" rx="5.66986" fill="#D7C231"/>
<path d="M862.958 227.165H858.393V231.208H862.616V232.439H858.393V237.615H857.024V225.926H862.958V227.165ZM871.37 237.615H865.175V225.926H871.109V227.165H866.545V231.053H870.767V232.284H866.545V236.376H871.37V237.615ZM880.32 226.701C880.141 227.01 879.924 227.396 879.668 227.858C879.418 228.32 879.152 228.839 878.869 229.415C878.587 229.991 878.299 230.611 878.005 231.274C877.712 231.937 877.438 232.621 877.182 233.328C876.927 234.034 876.701 234.751 876.506 235.48C876.315 236.202 876.177 236.914 876.09 237.615H874.655C874.753 236.92 874.902 236.21 875.104 235.488C875.31 234.76 875.541 234.048 875.796 233.352C876.057 232.651 876.332 231.977 876.62 231.331C876.908 230.684 877.188 230.089 877.459 229.545C877.731 229.002 877.978 228.524 878.201 228.111C878.429 227.692 878.611 227.366 878.747 227.133H872.886V225.926H880.32V226.701Z" fill="white"/>
<rect width="133.551" height="22" transform="translate(910.812 219.615)" fill="#3164A6"/>
<rect x="977.674" y="219.615" width="38.3397" height="22" rx="5.66986" fill="#D7C231"/>
<path d="M986.263 233.197V237.615H984.894V225.926H988.106C989.355 225.926 990.323 226.231 991.007 226.839C991.698 227.448 992.043 228.306 992.043 229.415C992.043 230.524 991.66 231.431 990.893 232.138C990.133 232.844 989.103 233.197 987.804 233.197H986.263ZM986.263 227.165V231.958H987.698C988.644 231.958 989.364 231.744 989.858 231.314C990.358 230.88 990.608 230.268 990.608 229.48C990.608 227.937 989.695 227.165 987.869 227.165H986.263ZM996.942 237.811C995.708 237.811 994.722 237.422 993.983 236.645C993.249 235.863 992.882 234.827 992.882 233.54C992.882 232.138 993.265 231.043 994.032 230.255C994.798 229.467 995.833 229.073 997.137 229.073C998.382 229.073 999.352 229.456 1000.05 230.222C1000.75 230.988 1001.1 232.051 1001.1 233.409C1001.1 234.741 1000.72 235.808 999.966 236.613C999.216 237.411 998.208 237.811 996.942 237.811ZM997.039 230.198C996.181 230.198 995.502 230.491 995.002 231.078C994.502 231.659 994.252 232.464 994.252 233.491C994.252 234.48 994.504 235.26 995.01 235.83C995.515 236.401 996.192 236.686 997.039 236.686C997.903 236.686 998.566 236.406 999.028 235.846C999.496 235.287 999.729 234.491 999.729 233.458C999.729 232.415 999.496 231.61 999.028 231.045C998.566 230.48 997.903 230.198 997.039 230.198ZM1009.61 237.615H1003.41V225.926H1009.35V227.165H1004.78V231.053H1009.01V232.284H1004.78V236.376H1009.61V237.615Z" fill="white"/>
<mask id="path-158-inside-1_470_59167" fill="white">
<path d="M472.601 36.084H510.492V79.5884H472.601V36.084Z"/>
</mask>
<path d="M472.601 36.084H510.492V79.5884H472.601V36.084Z" fill="#D9D9D9"/>
<path d="M472.601 36.084V38.8907H510.492V36.084V33.2772H472.601V36.084ZM510.492 79.5884V76.7816H472.601V79.5884V82.3951H510.492V79.5884Z" fill="#747578" mask="url(#path-158-inside-1_470_59167)"/>
<rect x="453.063" y="38.9603" width="37.0657" height="37.0657" rx="18.5329" fill="#474342"/>
<rect x="453.063" y="38.9603" width="37.0657" height="37.0657" rx="18.5329" stroke="black" stroke-width="7.01684"/>
<rect x="453.063" y="38.9603" width="37.0657" height="37.0657" rx="18.5329" stroke="black" stroke-width="7.01684"/>
<rect x="469.927" y="45.8076" width="3.33877" height="23.3714" fill="#0C100F"/>
<rect x="483.282" y="55.8242" width="3.33877" height="23.3714" transform="rotate(90 483.282 55.8242)" fill="#0C100F"/>
<mask id="path-163-inside-2_470_59167" fill="white">
<path d="M940.027 36.084H977.918V79.5884H940.027V36.084Z"/>
</mask>
<path d="M940.027 36.084H977.918V79.5884H940.027V36.084Z" fill="#D9D9D9"/>
<path d="M940.027 36.084V38.8907H977.918V36.084V33.2772H940.027V36.084ZM977.918 79.5884V76.7816H940.027V79.5884V82.3951H977.918V79.5884Z" fill="#747578" mask="url(#path-163-inside-2_470_59167)"/>
<rect x="920.49" y="38.9603" width="37.0657" height="37.0657" rx="18.5329" fill="#474342"/>
<rect x="920.49" y="38.9603" width="37.0657" height="37.0657" rx="18.5329" stroke="black" stroke-width="7.01684"/>
<rect x="920.49" y="38.9603" width="37.0657" height="37.0657" rx="18.5329" stroke="black" stroke-width="7.01684"/>
<rect x="937.354" y="45.8076" width="3.33877" height="23.3714" fill="#0C100F"/>
<rect x="950.709" y="55.8242" width="3.33877" height="23.3714" transform="rotate(90 950.709 55.8242)" fill="#0C100F"/>
<mask id="path-168-inside-3_470_59167" fill="white">
<path d="M544.544 36.084H506.653V79.5884H544.544V36.084Z"/>
</mask>
<path d="M544.544 36.084H506.653V79.5884H544.544V36.084Z" fill="#D9D9D9"/>
<path d="M544.544 36.084V38.8907H506.653V36.084V33.2772H544.544V36.084ZM506.653 79.5884V76.7816H544.544V79.5884V82.3951H506.653V79.5884Z" fill="#747578" mask="url(#path-168-inside-3_470_59167)"/>
<rect x="3.50842" y="-3.50842" width="37.0657" height="37.0657" rx="18.5329" transform="matrix(-1 0 0 1 567.59 42.4688)" fill="#474342"/>
<rect x="3.50842" y="-3.50842" width="37.0657" height="37.0657" rx="18.5329" transform="matrix(-1 0 0 1 567.59 42.4688)" stroke="black" stroke-width="7.01684"/>
<rect x="3.50842" y="-3.50842" width="37.0657" height="37.0657" rx="18.5329" transform="matrix(-1 0 0 1 567.59 42.4688)" stroke="black" stroke-width="7.01684"/>
<rect width="3.33877" height="23.3714" transform="matrix(-1 0 0 1 547.218 45.8076)" fill="#0C100F"/>
<rect width="3.33877" height="23.3714" transform="matrix(0 1 1 0 533.862 55.8242)" fill="#0C100F"/>
<mask id="path-173-inside-4_470_59167" fill="white">
<path d="M39.8906 36.084H1.9997V79.5884H39.8906V36.084Z"/>
</mask>
<path d="M39.8906 36.084H1.9997V79.5884H39.8906V36.084Z" fill="#D9D9D9"/>
<path d="M39.8906 36.084V38.8907H1.9997V36.084V33.2772H39.8906V36.084ZM1.9997 79.5884V76.7816H39.8906V79.5884V82.3951H1.9997V79.5884Z" fill="#747578" mask="url(#path-173-inside-4_470_59167)"/>
<rect x="3.50842" y="-3.50842" width="37.0657" height="37.0657" rx="18.5329" transform="matrix(-1 0 0 1 62.9368 42.4688)" fill="#474342"/>
<rect x="3.50842" y="-3.50842" width="37.0657" height="37.0657" rx="18.5329" transform="matrix(-1 0 0 1 62.9368 42.4688)" stroke="black" stroke-width="7.01684"/>
<rect x="3.50842" y="-3.50842" width="37.0657" height="37.0657" rx="18.5329" transform="matrix(-1 0 0 1 62.9368 42.4688)" stroke="black" stroke-width="7.01684"/>
<rect width="3.33877" height="23.3714" transform="matrix(-1 0 0 1 42.5645 45.8076)" fill="#0C100F"/>
<rect width="3.33877" height="23.3714" transform="matrix(0 1 1 0 29.209 55.8242)" fill="#0C100F"/>
<path d="M2 1V127.303H977.34V4.94697" stroke="black" stroke-width="2.80674"/>
<path d="M512.825 1L511.66 125.332" stroke="#747578" stroke-width="2.80674"/>
</svg>
