<svg width="1726" height="265" viewBox="0 0 1726 265" fill="none" xmlns="http://www.w3.org/2000/svg">
<path d="M10.3586 0.000592684H1715.64C1718.35 -0.0205728 1720.96 0.525891 1722.9 1.51983C1724.84 2.51377 1725.96 3.8738 1726 5.3009V259.699C1725.96 261.126 1724.84 262.486 1722.9 263.48C1720.96 264.474 1718.35 265.021 1715.64 264.999H10.3586C7.65218 265.021 5.04061 264.474 3.09812 263.48C1.15563 262.486 0.0412437 261.126 0 259.699L0 5.3009C0.0412437 3.8738 1.15563 2.51377 3.09812 1.51983C5.04061 0.525891 7.65218 -0.0205728 10.3586 0.000592684Z" fill="#F2F2F2"/>
<g clip-path="url(#clip0_3014_2)">
<rect x="184.56" y="129.615" width="1483.52" height="4.22656" fill="black"/>
<line y1="73.2605" x2="184.56" y2="73.2605" stroke="black" stroke-width="2.81771"/>
<line x1="185.265" y1="9.23744e-08" x2="185.265" y2="266.273" stroke="black" stroke-width="4.22656"/>
<line x1="886.17" y1="6.1583e-08" x2="886.17" y2="266.273" stroke="black" stroke-width="2.81771"/>
<line x1="1668.37" y1="7.39911e-08" x2="1668.37" y2="266.273" stroke="black" stroke-width="3.38544"/>
<circle cx="67.7089" cy="128.647" r="32.4455" fill="#D9D9D9" stroke="black" stroke-width="2.81771"/>
<circle cx="67.7088" cy="128.647" r="22.2892" fill="#D9D9D9" stroke="black" stroke-width="2.81771"/>
<path d="M72.5617 128.849H68.5547V132.846H67.2356V128.849H63.2385V127.519H67.2356V123.522H68.5547V127.519H72.5617V128.849Z" fill="black"/>
<path d="M93.1317 202.796L91.1067 197.549C91.0467 197.393 90.9837 197.213 90.9177 197.009C90.8517 196.799 90.7887 196.577 90.7287 196.343C90.6027 196.829 90.4737 197.234 90.3417 197.558L88.3167 202.796H93.1317ZM96.7677 207.584H95.4177C95.2617 207.584 95.1357 207.545 95.0397 207.467C94.9437 207.389 94.8717 207.29 94.8237 207.17L93.6177 204.056H87.8307L86.6247 207.17C86.5887 207.278 86.5197 207.374 86.4177 207.458C86.3157 207.542 86.1897 207.584 86.0397 207.584H84.6897L89.8467 194.687H91.6107L96.7677 207.584ZM102.037 200.933C102.541 200.933 102.985 200.873 103.369 200.753C103.759 200.627 104.083 200.453 104.341 200.231C104.605 200.003 104.803 199.733 104.935 199.421C105.067 199.109 105.133 198.764 105.133 198.386C105.133 197.618 104.881 197.039 104.377 196.649C103.873 196.259 103.117 196.064 102.109 196.064H100.201V200.933H102.037ZM107.995 207.584H106.447C106.129 207.584 105.895 207.461 105.745 207.215L102.397 202.607C102.295 202.463 102.184 202.361 102.064 202.301C101.95 202.235 101.77 202.202 101.524 202.202H100.201V207.584H98.4644V194.687H102.109C102.925 194.687 103.63 194.771 104.224 194.939C104.818 195.101 105.307 195.338 105.691 195.65C106.081 195.962 106.369 196.34 106.555 196.784C106.741 197.222 106.834 197.714 106.834 198.26C106.834 198.716 106.762 199.142 106.618 199.538C106.474 199.934 106.264 200.291 105.988 200.609C105.718 200.921 105.385 201.188 104.989 201.41C104.599 201.632 104.155 201.8 103.657 201.914C103.879 202.04 104.071 202.223 104.233 202.463L107.995 207.584ZM116.986 206.063C117.16 206.063 117.298 206.114 117.4 206.216C117.502 206.318 117.553 206.45 117.553 206.612V207.584H108.949V207.035C108.949 206.921 108.973 206.804 109.021 206.684C109.069 206.564 109.144 206.453 109.246 206.351L113.377 202.202C113.719 201.854 114.031 201.521 114.313 201.203C114.595 200.879 114.835 200.555 115.033 200.231C115.231 199.907 115.384 199.58 115.492 199.25C115.6 198.914 115.654 198.557 115.654 198.179C115.654 197.801 115.594 197.471 115.474 197.189C115.354 196.901 115.189 196.664 114.979 196.478C114.775 196.292 114.532 196.154 114.25 196.064C113.968 195.968 113.665 195.92 113.341 195.92C113.011 195.92 112.708 195.968 112.432 196.064C112.156 196.16 111.91 196.295 111.694 196.469C111.484 196.637 111.307 196.838 111.163 197.072C111.019 197.306 110.917 197.564 110.857 197.846C110.785 198.056 110.686 198.197 110.56 198.269C110.44 198.335 110.269 198.353 110.047 198.323L109.21 198.179C109.294 197.591 109.456 197.072 109.696 196.622C109.942 196.166 110.248 195.785 110.614 195.479C110.986 195.173 111.409 194.942 111.883 194.786C112.357 194.624 112.87 194.543 113.422 194.543C113.968 194.543 114.478 194.624 114.952 194.786C115.426 194.948 115.837 195.185 116.185 195.497C116.533 195.803 116.806 196.178 117.004 196.622C117.202 197.066 117.301 197.57 117.301 198.134C117.301 198.614 117.229 199.061 117.085 199.475C116.941 199.883 116.746 200.273 116.5 200.645C116.254 201.017 115.969 201.38 115.645 201.734C115.327 202.088 114.988 202.445 114.628 202.805L111.226 206.279C111.466 206.213 111.709 206.162 111.955 206.126C112.201 206.084 112.438 206.063 112.666 206.063H116.986ZM127.427 206.063C127.601 206.063 127.739 206.114 127.841 206.216C127.943 206.318 127.994 206.45 127.994 206.612V207.584H119.39V207.035C119.39 206.921 119.414 206.804 119.462 206.684C119.51 206.564 119.585 206.453 119.687 206.351L123.818 202.202C124.16 201.854 124.472 201.521 124.754 201.203C125.036 200.879 125.276 200.555 125.474 200.231C125.672 199.907 125.825 199.58 125.933 199.25C126.041 198.914 126.095 198.557 126.095 198.179C126.095 197.801 126.035 197.471 125.915 197.189C125.795 196.901 125.63 196.664 125.42 196.478C125.216 196.292 124.973 196.154 124.691 196.064C124.409 195.968 124.106 195.92 123.782 195.92C123.452 195.92 123.149 195.968 122.873 196.064C122.597 196.16 122.351 196.295 122.135 196.469C121.925 196.637 121.748 196.838 121.604 197.072C121.46 197.306 121.358 197.564 121.298 197.846C121.226 198.056 121.127 198.197 121.001 198.269C120.881 198.335 120.71 198.353 120.488 198.323L119.651 198.179C119.735 197.591 119.897 197.072 120.137 196.622C120.383 196.166 120.689 195.785 121.055 195.479C121.427 195.173 121.85 194.942 122.324 194.786C122.798 194.624 123.311 194.543 123.863 194.543C124.409 194.543 124.919 194.624 125.393 194.786C125.867 194.948 126.278 195.185 126.626 195.497C126.974 195.803 127.247 196.178 127.445 196.622C127.643 197.066 127.742 197.57 127.742 198.134C127.742 198.614 127.67 199.061 127.526 199.475C127.382 199.883 127.187 200.273 126.941 200.645C126.695 201.017 126.41 201.38 126.086 201.734C125.768 202.088 125.429 202.445 125.069 202.805L121.667 206.279C121.907 206.213 122.15 206.162 122.396 206.126C122.642 206.084 122.879 206.063 123.107 206.063H127.427ZM137.868 206.063C138.042 206.063 138.18 206.114 138.282 206.216C138.384 206.318 138.435 206.45 138.435 206.612V207.584H129.831V207.035C129.831 206.921 129.855 206.804 129.903 206.684C129.951 206.564 130.026 206.453 130.128 206.351L134.259 202.202C134.601 201.854 134.913 201.521 135.195 201.203C135.477 200.879 135.717 200.555 135.915 200.231C136.113 199.907 136.266 199.58 136.374 199.25C136.482 198.914 136.536 198.557 136.536 198.179C136.536 197.801 136.476 197.471 136.356 197.189C136.236 196.901 136.071 196.664 135.861 196.478C135.657 196.292 135.414 196.154 135.132 196.064C134.85 195.968 134.547 195.92 134.223 195.92C133.893 195.92 133.59 195.968 133.314 196.064C133.038 196.16 132.792 196.295 132.576 196.469C132.366 196.637 132.189 196.838 132.045 197.072C131.901 197.306 131.799 197.564 131.739 197.846C131.667 198.056 131.568 198.197 131.442 198.269C131.322 198.335 131.151 198.353 130.929 198.323L130.092 198.179C130.176 197.591 130.338 197.072 130.578 196.622C130.824 196.166 131.13 195.785 131.496 195.479C131.868 195.173 132.291 194.942 132.765 194.786C133.239 194.624 133.752 194.543 134.304 194.543C134.85 194.543 135.36 194.624 135.834 194.786C136.308 194.948 136.719 195.185 137.067 195.497C137.415 195.803 137.688 196.178 137.886 196.622C138.084 197.066 138.183 197.57 138.183 198.134C138.183 198.614 138.111 199.061 137.967 199.475C137.823 199.883 137.628 200.273 137.382 200.645C137.136 201.017 136.851 201.38 136.527 201.734C136.209 202.088 135.87 202.445 135.51 202.805L132.108 206.279C132.348 206.213 132.591 206.162 132.837 206.126C133.083 206.084 133.32 206.063 133.548 206.063H137.868ZM149.327 201.14C149.327 202.268 149.204 203.246 148.958 204.074C148.718 204.896 148.388 205.577 147.968 206.117C147.548 206.657 147.05 207.059 146.474 207.323C145.904 207.587 145.292 207.719 144.638 207.719C143.978 207.719 143.363 207.587 142.793 207.323C142.229 207.059 141.737 206.657 141.317 206.117C140.897 205.577 140.567 204.896 140.327 204.074C140.087 203.246 139.967 202.268 139.967 201.14C139.967 200.012 140.087 199.034 140.327 198.206C140.567 197.378 140.897 196.694 141.317 196.154C141.737 195.608 142.229 195.203 142.793 194.939C143.363 194.675 143.978 194.543 144.638 194.543C145.292 194.543 145.904 194.675 146.474 194.939C147.05 195.203 147.548 195.608 147.968 196.154C148.388 196.694 148.718 197.378 148.958 198.206C149.204 199.034 149.327 200.012 149.327 201.14ZM147.662 201.14C147.662 200.156 147.578 199.331 147.41 198.665C147.248 197.993 147.026 197.453 146.744 197.045C146.468 196.637 146.147 196.346 145.781 196.172C145.415 195.992 145.034 195.902 144.638 195.902C144.242 195.902 143.861 195.992 143.495 196.172C143.129 196.346 142.808 196.637 142.532 197.045C142.256 197.453 142.034 197.993 141.866 198.665C141.704 199.331 141.623 200.156 141.623 201.14C141.623 202.124 141.704 202.949 141.866 203.615C142.034 204.281 142.256 204.818 142.532 205.226C142.808 205.634 143.129 205.928 143.495 206.108C143.861 206.282 144.242 206.369 144.638 206.369C145.034 206.369 145.415 206.282 145.781 206.108C146.147 205.928 146.468 205.634 146.744 205.226C147.026 204.818 147.248 204.281 147.41 203.615C147.578 202.949 147.662 202.124 147.662 201.14ZM159.471 206.162L159.462 207.584H151.515V194.687H159.462V196.109H153.261V200.393H158.283V201.761H153.261V206.162H159.471Z" fill="#262626"/>
<line x1="-2" y1="47.5911" x2="183" y2="47.5911" stroke="black" stroke-width="2.81771"/>
<line x1="92.6794" y1="5.941e-08" x2="92.6794" y2="71.8516" stroke="black" stroke-width="2.81771"/>
<line x1="61.6842" y1="5.941e-08" x2="61.6842" y2="49.3099" stroke="black" stroke-width="2.81771"/>
<line x1="129.309" y1="5.941e-08" x2="129.309" y2="49.3099" stroke="black" stroke-width="2.81771"/>
</g>
<mask id="path-16-inside-1_3014_2" fill="white">
<path d="M850.341 24.6503H888.38V67.4629H850.341V24.6503Z"/>
</mask>
<path d="M850.341 24.6503H888.38V67.4629H850.341V24.6503Z" fill="#D9D9D9"/>
<path d="M850.341 24.6503V27.468H888.38V24.6503V21.8326H850.341V24.6503ZM888.38 67.4629V64.6452H850.341V67.4629V70.2806H888.38V67.4629Z" fill="#747578" mask="url(#path-16-inside-1_3014_2)"/>
<rect x="830.727" y="27.4117" width="37.2106" height="37.2106" rx="18.6053" fill="#474342"/>
<rect x="830.727" y="27.4117" width="37.2106" height="37.2106" rx="18.6053" stroke="black" stroke-width="7.04427"/>
<rect x="830.727" y="27.4117" width="37.2106" height="37.2106" rx="18.6053" stroke="black" stroke-width="7.04427"/>
<rect x="847.656" y="34.2856" width="3.35182" height="23.4627" fill="#0C100F"/>
<rect x="861.063" y="44.3417" width="3.35182" height="23.4627" transform="rotate(90 861.063 44.3417)" fill="#0C100F"/>
<mask id="path-21-inside-2_3014_2" fill="white">
<path d="M922.565 24.6503H884.526V67.4629H922.565V24.6503Z"/>
</mask>
<path d="M922.565 24.6503H884.526V67.4629H922.565V24.6503Z" fill="#D9D9D9"/>
<path d="M922.565 24.6503V27.468H884.526V24.6503V21.8326H922.565V24.6503ZM884.526 67.4629V64.6452H922.565V67.4629V70.2806H884.526V67.4629Z" fill="#747578" mask="url(#path-21-inside-2_3014_2)"/>
<rect x="3.52214" y="-3.52214" width="37.2106" height="37.2106" rx="18.6053" transform="matrix(-1 0 0 1 945.701 30.9338)" fill="#474342"/>
<rect x="3.52214" y="-3.52214" width="37.2106" height="37.2106" rx="18.6053" transform="matrix(-1 0 0 1 945.701 30.9338)" stroke="black" stroke-width="7.04427"/>
<rect x="3.52214" y="-3.52214" width="37.2106" height="37.2106" rx="18.6053" transform="matrix(-1 0 0 1 945.701 30.9338)" stroke="black" stroke-width="7.04427"/>
<rect width="3.35182" height="23.4627" transform="matrix(-1 0 0 1 925.25 34.2856)" fill="#0C100F"/>
<rect width="3.35182" height="23.4627" transform="matrix(0 1 1 0 911.843 44.3417)" fill="#0C100F"/>
<line x1="1276.63" y1="1.17175" x2="1276.63" y2="129.61" stroke="black" stroke-width="2.81771"/>
<mask id="path-27-inside-3_3014_2" fill="white">
<path d="M1242 24.6503H1280.04V67.4629H1242V24.6503Z"/>
</mask>
<path d="M1242 24.6503H1280.04V67.4629H1242V24.6503Z" fill="#D9D9D9"/>
<path d="M1242 24.6503V27.468H1280.04V24.6503V21.8326H1242V24.6503ZM1280.04 67.4629V64.6452H1242V67.4629V70.2806H1280.04V67.4629Z" fill="#747578" mask="url(#path-27-inside-3_3014_2)"/>
<rect x="1222.39" y="27.4117" width="37.2106" height="37.2106" rx="18.6053" fill="#474342"/>
<rect x="1222.39" y="27.4117" width="37.2106" height="37.2106" rx="18.6053" stroke="black" stroke-width="7.04427"/>
<rect x="1222.39" y="27.4117" width="37.2106" height="37.2106" rx="18.6053" stroke="black" stroke-width="7.04427"/>
<rect x="1239.32" y="34.2856" width="3.35182" height="23.4627" fill="#0C100F"/>
<rect x="1252.73" y="44.3417" width="3.35182" height="23.4627" transform="rotate(90 1252.73 44.3417)" fill="#0C100F"/>
<mask id="path-32-inside-4_3014_2" fill="white">
<path d="M1314.23 24.6503H1276.19V67.4629H1314.23V24.6503Z"/>
</mask>
<path d="M1314.23 24.6503H1276.19V67.4629H1314.23V24.6503Z" fill="#D9D9D9"/>
<path d="M1314.23 24.6503V27.468H1276.19V24.6503V21.8326H1314.23V24.6503ZM1276.19 67.4629V64.6452H1314.23V67.4629V70.2806H1276.19V67.4629Z" fill="#747578" mask="url(#path-32-inside-4_3014_2)"/>
<rect x="3.52214" y="-3.52214" width="37.2106" height="37.2106" rx="18.6053" transform="matrix(-1 0 0 1 1337.36 30.9338)" fill="#474342"/>
<rect x="3.52214" y="-3.52214" width="37.2106" height="37.2106" rx="18.6053" transform="matrix(-1 0 0 1 1337.36 30.9338)" stroke="black" stroke-width="7.04427"/>
<rect x="3.52214" y="-3.52214" width="37.2106" height="37.2106" rx="18.6053" transform="matrix(-1 0 0 1 1337.36 30.9338)" stroke="black" stroke-width="7.04427"/>
<rect width="3.35182" height="23.4627" transform="matrix(-1 0 0 1 1316.91 34.2856)" fill="#0C100F"/>
<rect width="3.35182" height="23.4627" transform="matrix(0 1 1 0 1303.5 44.3417)" fill="#0C100F"/>
<mask id="path-37-inside-5_3014_2" fill="white">
<path d="M850.341 159.992H888.38V202.805H850.341V159.992Z"/>
</mask>
<path d="M850.341 159.992H888.38V202.805H850.341V159.992Z" fill="#D9D9D9"/>
<path d="M850.341 159.992V162.81H888.38V159.992V157.174H850.341V159.992ZM888.38 202.805V199.987H850.341V202.805V205.623H888.38V202.805Z" fill="#747578" mask="url(#path-37-inside-5_3014_2)"/>
<rect x="830.727" y="162.754" width="37.2106" height="37.2106" rx="18.6053" fill="#474342"/>
<rect x="830.727" y="162.754" width="37.2106" height="37.2106" rx="18.6053" stroke="black" stroke-width="7.04427"/>
<rect x="830.727" y="162.754" width="37.2106" height="37.2106" rx="18.6053" stroke="black" stroke-width="7.04427"/>
<rect x="847.656" y="169.628" width="3.35182" height="23.4627" fill="#0C100F"/>
<rect x="861.063" y="179.683" width="3.35182" height="23.4627" transform="rotate(90 861.063 179.683)" fill="#0C100F"/>
<mask id="path-42-inside-6_3014_2" fill="white">
<path d="M922.565 159.992H884.526V202.805H922.565V159.992Z"/>
</mask>
<path d="M922.565 159.992H884.526V202.805H922.565V159.992Z" fill="#D9D9D9"/>
<path d="M922.565 159.992V162.81H884.526V159.992V157.174H922.565V159.992ZM884.526 202.805V199.987H922.565V202.805V205.623H884.526V202.805Z" fill="#747578" mask="url(#path-42-inside-6_3014_2)"/>
<rect x="3.52214" y="-3.52214" width="37.2106" height="37.2106" rx="18.6053" transform="matrix(-1 0 0 1 945.701 166.276)" fill="#474342"/>
<rect x="3.52214" y="-3.52214" width="37.2106" height="37.2106" rx="18.6053" transform="matrix(-1 0 0 1 945.701 166.276)" stroke="black" stroke-width="7.04427"/>
<rect x="3.52214" y="-3.52214" width="37.2106" height="37.2106" rx="18.6053" transform="matrix(-1 0 0 1 945.701 166.276)" stroke="black" stroke-width="7.04427"/>
<rect width="3.35182" height="23.4627" transform="matrix(-1 0 0 1 925.25 169.628)" fill="#0C100F"/>
<rect width="3.35182" height="23.4627" transform="matrix(0 1 1 0 911.843 179.683)" fill="#0C100F"/>
<mask id="path-47-inside-7_3014_2" fill="white">
<path d="M225.624 16.3639H187.585V59.1765H225.624V16.3639Z"/>
</mask>
<path d="M225.624 16.3639H187.585V59.1765H225.624V16.3639Z" fill="#D9D9D9"/>
<path d="M225.624 16.3639V19.1816H187.585V16.3639V13.5462H225.624V16.3639ZM187.585 59.1765V56.3588H225.624V59.1765V61.9942H187.585V59.1765Z" fill="#747578" mask="url(#path-47-inside-7_3014_2)"/>
<rect x="3.52214" y="-3.52214" width="37.2106" height="37.2106" rx="18.6053" transform="matrix(-1 0 0 1 248.76 22.6475)" fill="#474342"/>
<rect x="3.52214" y="-3.52214" width="37.2106" height="37.2106" rx="18.6053" transform="matrix(-1 0 0 1 248.76 22.6475)" stroke="black" stroke-width="7.04427"/>
<rect x="3.52214" y="-3.52214" width="37.2106" height="37.2106" rx="18.6053" transform="matrix(-1 0 0 1 248.76 22.6475)" stroke="black" stroke-width="7.04427"/>
<rect width="3.35182" height="23.4627" transform="matrix(-1 0 0 1 228.309 25.9993)" fill="#0C100F"/>
<rect width="3.35182" height="23.4627" transform="matrix(0 1 1 0 214.901 36.0553)" fill="#0C100F"/>
<mask id="path-52-inside-8_3014_2" fill="white">
<path d="M225.624 208.33H187.585V251.143H225.624V208.33Z"/>
</mask>
<path d="M225.624 208.33H187.585V251.143H225.624V208.33Z" fill="#D9D9D9"/>
<path d="M225.624 208.33V211.148H187.585V208.33V205.512H225.624V208.33ZM187.585 251.143V248.325H225.624V251.143V253.96H187.585V251.143Z" fill="#747578" mask="url(#path-52-inside-8_3014_2)"/>
<rect x="3.52214" y="-3.52214" width="37.2106" height="37.2106" rx="18.6053" transform="matrix(-1 0 0 1 248.76 214.614)" fill="#474342"/>
<rect x="3.52214" y="-3.52214" width="37.2106" height="37.2106" rx="18.6053" transform="matrix(-1 0 0 1 248.76 214.614)" stroke="black" stroke-width="7.04427"/>
<rect x="3.52214" y="-3.52214" width="37.2106" height="37.2106" rx="18.6053" transform="matrix(-1 0 0 1 248.76 214.614)" stroke="black" stroke-width="7.04427"/>
<rect width="3.35182" height="23.4627" transform="matrix(-1 0 0 1 228.309 217.965)" fill="#0C100F"/>
<rect width="3.35182" height="23.4627" transform="matrix(0 1 1 0 214.901 228.021)" fill="#0C100F"/>
<mask id="path-57-inside-9_3014_2" fill="white">
<path d="M1629.44 16.3639H1667.48V59.1765H1629.44V16.3639Z"/>
</mask>
<path d="M1629.44 16.3639H1667.48V59.1765H1629.44V16.3639Z" fill="#D9D9D9"/>
<path d="M1629.44 16.3639V19.1816H1667.48V16.3639V13.5462H1629.44V16.3639ZM1667.48 59.1765V56.3588H1629.44V59.1765V61.9942H1667.48V59.1765Z" fill="#747578" mask="url(#path-57-inside-9_3014_2)"/>
<rect x="1609.82" y="19.1253" width="37.2106" height="37.2106" rx="18.6053" fill="#474342"/>
<rect x="1609.82" y="19.1253" width="37.2106" height="37.2106" rx="18.6053" stroke="black" stroke-width="7.04427"/>
<rect x="1609.82" y="19.1253" width="37.2106" height="37.2106" rx="18.6053" stroke="black" stroke-width="7.04427"/>
<rect x="1626.75" y="25.9993" width="3.35182" height="23.4627" fill="#0C100F"/>
<rect x="1640.16" y="36.0553" width="3.35182" height="23.4627" transform="rotate(90 1640.16 36.0553)" fill="#0C100F"/>
<mask id="path-62-inside-10_3014_2" fill="white">
<path d="M1629.44 208.33H1667.48V251.143H1629.44V208.33Z"/>
</mask>
<path d="M1629.44 208.33H1667.48V251.143H1629.44V208.33Z" fill="#D9D9D9"/>
<path d="M1629.44 208.33V211.148H1667.48V208.33V205.512H1629.44V208.33ZM1667.48 251.143V248.325H1629.44V251.143V253.96H1667.48V251.143Z" fill="#747578" mask="url(#path-62-inside-10_3014_2)"/>
<rect x="1609.82" y="211.091" width="37.2106" height="37.2106" rx="18.6053" fill="#474342"/>
<rect x="1609.82" y="211.091" width="37.2106" height="37.2106" rx="18.6053" stroke="black" stroke-width="7.04427"/>
<rect x="1609.82" y="211.091" width="37.2106" height="37.2106" rx="18.6053" stroke="black" stroke-width="7.04427"/>
<rect x="1626.75" y="217.965" width="3.35182" height="23.4627" fill="#0C100F"/>
<rect x="1640.16" y="228.021" width="3.35182" height="23.4627" transform="rotate(90 1640.16 228.021)" fill="#0C100F"/>
<line x1="517.54" y1="1.17175" x2="517.54" y2="129.61" stroke="black" stroke-width="3.38544"/>
<mask id="path-68-inside-11_3014_2" fill="white">
<path d="M482.63 24.6503H520.669V67.4629H482.63V24.6503Z"/>
</mask>
<path d="M482.63 24.6503H520.669V67.4629H482.63V24.6503Z" fill="#D9D9D9"/>
<path d="M482.63 24.6503V27.468H520.669V24.6503V21.8326H482.63V24.6503ZM520.669 67.4629V64.6452H482.63V67.4629V70.2806H520.669V67.4629Z" fill="#747578" mask="url(#path-68-inside-11_3014_2)"/>
<rect x="463.016" y="27.4117" width="37.2106" height="37.2106" rx="18.6053" fill="#474342"/>
<rect x="463.016" y="27.4117" width="37.2106" height="37.2106" rx="18.6053" stroke="black" stroke-width="7.04427"/>
<rect x="463.016" y="27.4117" width="37.2106" height="37.2106" rx="18.6053" stroke="black" stroke-width="7.04427"/>
<rect x="479.945" y="34.2856" width="3.35182" height="23.4627" fill="#0C100F"/>
<rect x="493.353" y="44.3417" width="3.35182" height="23.4627" transform="rotate(90 493.353 44.3417)" fill="#0C100F"/>
<mask id="path-73-inside-12_3014_2" fill="white">
<path d="M554.854 24.6503H516.815V67.4629H554.854V24.6503Z"/>
</mask>
<path d="M554.854 24.6503H516.815V67.4629H554.854V24.6503Z" fill="#D9D9D9"/>
<path d="M554.854 24.6503V27.468H516.815V24.6503V21.8326H554.854V24.6503ZM516.815 67.4629V64.6452H554.854V67.4629V70.2806H516.815V67.4629Z" fill="#747578" mask="url(#path-73-inside-12_3014_2)"/>
<rect x="3.52214" y="-3.52214" width="37.2106" height="37.2106" rx="18.6053" transform="matrix(-1 0 0 1 577.991 30.9338)" fill="#474342"/>
<rect x="3.52214" y="-3.52214" width="37.2106" height="37.2106" rx="18.6053" transform="matrix(-1 0 0 1 577.991 30.9338)" stroke="black" stroke-width="7.04427"/>
<rect x="3.52214" y="-3.52214" width="37.2106" height="37.2106" rx="18.6053" transform="matrix(-1 0 0 1 577.991 30.9338)" stroke="black" stroke-width="7.04427"/>
<rect width="3.35182" height="23.4627" transform="matrix(-1 0 0 1 557.539 34.2856)" fill="#0C100F"/>
<rect width="3.35182" height="23.4627" transform="matrix(0 1 1 0 544.132 44.3417)" fill="#0C100F"/>
<defs>
<clipPath id="clip0_3014_2">
<rect width="1726" height="265" rx="54.167" fill="white"/>
</clipPath>
</defs>
</svg>
