<svg width="15" height="13" viewBox="0 0 15 13" fill="none" xmlns="http://www.w3.org/2000/svg">
<path d="M7.83333 3.16667L7.08964 1.67928C6.8756 1.2512 6.76858 1.03715 6.60891 0.880776C6.46772 0.742487 6.29755 0.637316 6.11072 0.572873C5.89944 0.5 5.66014 0.5 5.18153 0.5H2.63333C1.8866 0.5 1.51323 0.5 1.22801 0.645325C0.97713 0.773156 0.773156 0.97713 0.645325 1.22801C0.5 1.51323 0.5 1.8866 0.5 2.63333V3.16667M0.5 3.16667H10.6333C11.7534 3.16667 12.3135 3.16667 12.7413 3.38465C13.1176 3.5764 13.4236 3.88236 13.6153 4.25869C13.8333 4.68651 13.8333 5.24656 13.8333 6.36667V9.3C13.8333 10.4201 13.8333 10.9802 13.6153 11.408C13.4236 11.7843 13.1176 12.0903 12.7413 12.282C12.3135 12.5 11.7534 12.5 10.6333 12.5H3.7C2.57989 12.5 2.01984 12.5 1.59202 12.282C1.21569 12.0903 0.909734 11.7843 0.717987 11.408C0.5 10.9802 0.5 10.4201 0.5 9.3V3.16667Z" stroke="#434A51" stroke-linecap="round" stroke-linejoin="round"/>
</svg>
