<svg id="BUndle_Interface" data-name="BUndle Interface" xmlns="http://www.w3.org/2000/svg" width="75.762" height="66.29" viewBox="0 0 75.762 66.29">
  <path id="Path_9324" data-name="Path 9324" d="M74.608,24.808l-15.791-9.47a2.368,2.368,0,0,0-2.436,0l-18.5,11.1-18.5-11.1a2.368,2.368,0,0,0-2.436,0L1.149,24.808a2.368,2.368,0,0,0,0,4.058L36.662,50.174a2.368,2.368,0,0,0,2.439,0L74.613,28.866a2.368,2.368,0,0,0,0-4.058Z" transform="translate(0.001 15.778)" fill="#bed9fd"/>
  <path id="Path_9325" data-name="Path 9325" d="M74.612,23.646,39.1,2.338a2.368,2.368,0,0,0-2.439,0L1.148,23.646a2.368,2.368,0,0,0,0,4.058L36.661,49.012a2.368,2.368,0,0,0,2.439,0L74.612,27.7a2.368,2.368,0,0,0,0-4.058Z" transform="translate(0 -2)" fill="#ddebfd"/>
</svg>
