<svg width="234" height="179" viewBox="0 0 234 179" fill="none" xmlns="http://www.w3.org/2000/svg">
<rect x="11.419" y="44.8067" width="138.94" height="110.59" stroke="black" stroke-width="2.80674"/>
<path d="M48.5192 66.083H116.332L137.594 84.012V139.791H82.3132H27.0312V84.012L48.5192 66.083Z" fill="#040404"/>
<rect x="78.0576" y="77.4229" width="8.50479" height="19.8445" fill="#D9D9D9"/>
<rect x="46.873" y="100.103" width="8.50479" height="19.8445" fill="#D9D9D9"/>
<rect x="109.243" y="100.103" width="8.50479" height="19.8445" fill="#D9D9D9"/>
<path d="M5.98617 170.798H1.53557V169.747H5.98617V170.798ZM12.9474 174.923H11.6106V164.823C11.5073 164.927 11.3552 165.046 11.1541 165.182C10.9585 165.312 10.7357 165.443 10.4857 165.573C10.2411 165.704 9.9803 165.826 9.70316 165.94C9.43145 166.054 9.16517 166.144 8.90433 166.209V164.856C9.19778 164.775 9.50753 164.666 9.83358 164.53C10.1651 164.389 10.4884 164.234 10.8036 164.065C11.1242 163.891 11.4258 163.712 11.7084 163.527C11.991 163.337 12.2355 163.152 12.442 162.973H12.9474V174.923ZM24.3592 169.029C24.3592 170.008 24.2695 170.874 24.0902 171.63C23.9163 172.385 23.6609 173.024 23.324 173.545C22.9925 174.062 22.5822 174.456 22.0931 174.727C21.6095 174.993 21.0579 175.127 20.4384 175.127C19.8515 175.127 19.3271 174.999 18.8652 174.744C18.4087 174.483 18.0229 174.105 17.7077 173.61C17.3925 173.116 17.1534 172.51 16.9904 171.793C16.8274 171.07 16.7459 170.244 16.7459 169.315C16.7459 168.293 16.8301 167.391 16.9986 166.609C17.1725 165.826 17.4251 165.171 17.7566 164.644C18.0881 164.112 18.4984 163.712 18.9875 163.446C19.482 163.174 20.0471 163.038 20.6829 163.038C23.1338 163.038 24.3592 165.035 24.3592 169.029ZM22.9898 169.16C22.9898 165.834 22.1991 164.171 20.6177 164.171C18.9494 164.171 18.1153 165.864 18.1153 169.25C18.1153 172.407 18.9331 173.985 20.5688 173.985C22.1828 173.985 22.9898 172.377 22.9898 169.16ZM33.3582 169.029C33.3582 170.008 33.2685 170.874 33.0892 171.63C32.9153 172.385 32.6599 173.024 32.323 173.545C31.9915 174.062 31.5812 174.456 31.0921 174.727C30.6085 174.993 30.0569 175.127 29.4374 175.127C28.8505 175.127 28.3261 174.999 27.8642 174.744C27.4077 174.483 27.0219 174.105 26.7067 173.61C26.3916 173.116 26.1524 172.51 25.9894 171.793C25.8264 171.07 25.7449 170.244 25.7449 169.315C25.7449 168.293 25.8291 167.391 25.9976 166.609C26.1715 165.826 26.4242 165.171 26.7556 164.644C27.0871 164.112 27.4974 163.712 27.9865 163.446C28.481 163.174 29.0462 163.038 29.682 163.038C32.1328 163.038 33.3582 165.035 33.3582 169.029ZM31.9888 169.16C31.9888 165.834 31.1981 164.171 29.6167 164.171C27.9484 164.171 27.1143 165.864 27.1143 169.25C27.1143 172.407 27.9321 173.985 29.5678 173.985C31.1818 173.985 31.9888 172.377 31.9888 169.16ZM39.6673 170.798H35.2167V169.747H39.6673V170.798ZM47.0197 166.299C47.0197 165.94 46.9627 165.628 46.8486 165.361C46.7399 165.095 46.5877 164.875 46.3921 164.701C46.2019 164.522 45.9764 164.389 45.7155 164.302C45.4547 164.215 45.1721 164.171 44.8678 164.171C44.607 164.171 44.3515 164.207 44.1016 164.277C43.8516 164.348 43.6071 164.446 43.368 164.571C43.1343 164.696 42.9061 164.845 42.6833 165.019C42.4659 165.193 42.2621 165.386 42.0719 165.598V164.163C42.4469 163.799 42.8653 163.522 43.3272 163.332C43.7945 163.136 44.3624 163.038 45.0308 163.038C45.509 163.038 45.9519 163.109 46.3595 163.25C46.767 163.386 47.1203 163.587 47.4191 163.853C47.718 164.12 47.9517 164.448 48.1202 164.84C48.2941 165.231 48.381 165.679 48.381 166.185C48.381 166.647 48.3267 167.065 48.218 167.44C48.1147 167.815 47.9544 168.168 47.737 168.5C47.5251 168.831 47.2561 169.149 46.9301 169.453C46.604 169.758 46.2209 170.067 45.7807 170.383C45.2319 170.774 44.7781 171.108 44.4195 171.385C44.0663 171.662 43.7837 171.923 43.5717 172.168C43.3652 172.407 43.2185 172.649 43.1316 172.893C43.0501 173.132 43.0093 173.409 43.0093 173.725H48.8293V174.923H41.6154V174.344C41.6154 173.844 41.6698 173.404 41.7785 173.024C41.8871 172.643 42.0665 172.282 42.3164 171.939C42.5664 171.597 42.8925 171.255 43.2946 170.912C43.7022 170.57 44.1994 170.184 44.7863 169.755C45.2102 169.451 45.5634 169.16 45.846 168.883C46.134 168.606 46.3649 168.328 46.5388 168.051C46.7127 167.774 46.835 167.494 46.9056 167.212C46.9817 166.924 47.0197 166.619 47.0197 166.299ZM56.6546 163.234V170.953H58.1544V172.176H56.6546V174.923H55.334V172.176H49.8401V171.018C50.3509 170.442 50.8671 169.828 51.3888 169.176C51.9105 168.519 52.4077 167.853 52.8805 167.179C53.3587 166.505 53.7989 165.834 54.201 165.166C54.6086 164.492 54.9509 163.848 55.2281 163.234H56.6546ZM51.3481 170.953H55.334V165.231C54.9265 165.943 54.5407 166.579 54.1766 167.138C53.8125 167.698 53.4647 168.206 53.1332 168.663C52.8071 169.119 52.4947 169.532 52.1958 169.902C51.8969 170.271 51.6143 170.622 51.3481 170.953ZM67.0393 169.029C67.0393 170.008 66.9496 170.874 66.7703 171.63C66.5964 172.385 66.341 173.024 66.0041 173.545C65.6726 174.062 65.2623 174.456 64.7732 174.727C64.2896 174.993 63.738 175.127 63.1185 175.127C62.5316 175.127 62.0072 174.999 61.5453 174.744C61.0889 174.483 60.703 174.105 60.3878 173.61C60.0727 173.116 59.8336 172.51 59.6705 171.793C59.5075 171.07 59.426 170.244 59.426 169.315C59.426 168.293 59.5102 167.391 59.6787 166.609C59.8526 165.826 60.1053 165.171 60.4368 164.644C60.7682 164.112 61.1785 163.712 61.6676 163.446C62.1621 163.174 62.7273 163.038 63.3631 163.038C65.8139 163.038 67.0393 165.035 67.0393 169.029ZM65.6699 169.16C65.6699 165.834 64.8792 164.171 63.2979 164.171C61.6296 164.171 60.7954 165.864 60.7954 169.25C60.7954 172.407 61.6133 173.985 63.2489 173.985C64.8629 173.985 65.6699 172.377 65.6699 169.16ZM70.2998 173.064L68.9956 177.075H68.0419L68.9956 173.064H70.2998ZM79.2418 171.353C79.2418 171.923 79.1439 172.439 78.9483 172.901C78.7527 173.363 78.4728 173.76 78.1087 174.091C77.7501 174.423 77.3153 174.678 76.8045 174.858C76.2937 175.037 75.7258 175.127 75.1009 175.127C74.0141 175.127 73.2071 174.964 72.68 174.638V173.219C73.4734 173.73 74.2858 173.985 75.1172 173.985C75.5411 173.985 75.9215 173.923 76.2584 173.798C76.6007 173.673 76.8915 173.499 77.1306 173.276C77.3697 173.053 77.5517 172.784 77.6767 172.469C77.8071 172.154 77.8723 171.809 77.8723 171.434C77.8723 170.673 77.6169 170.078 77.1061 169.649C76.5953 169.214 75.8535 168.997 74.8808 168.997C74.7232 168.997 74.5575 169 74.3836 169.005C74.2097 169.01 74.0358 169.019 73.8619 169.029C73.688 169.035 73.5168 169.043 73.3484 169.054C73.1854 169.065 73.0359 169.078 72.9001 169.095L73.2995 163.234H78.7038V164.44H74.457L74.2206 167.872C74.3945 167.861 74.5792 167.853 74.7749 167.848C74.9705 167.837 75.1444 167.831 75.2965 167.831C75.916 167.831 76.4703 167.913 76.9594 168.076C77.4485 168.239 77.8615 168.472 78.1984 168.777C78.5408 169.076 78.7989 169.445 78.9728 169.885C79.1521 170.32 79.2418 170.809 79.2418 171.353ZM88.6565 169.029C88.6565 170.008 88.5668 170.874 88.3875 171.63C88.2136 172.385 87.9582 173.024 87.6213 173.545C87.2898 174.062 86.8795 174.456 86.3904 174.727C85.9068 174.993 85.3552 175.127 84.7357 175.127C84.1488 175.127 83.6244 174.999 83.1625 174.744C82.7061 174.483 82.3202 174.105 82.005 173.61C81.6899 173.116 81.4508 172.51 81.2877 171.793C81.1247 171.07 81.0432 170.244 81.0432 169.315C81.0432 168.293 81.1274 167.391 81.2959 166.609C81.4698 165.826 81.7225 165.171 82.054 164.644C82.3854 164.112 82.7957 163.712 83.2848 163.446C83.7793 163.174 84.3445 163.038 84.9803 163.038C87.4311 163.038 88.6565 165.035 88.6565 169.029ZM87.2871 169.16C87.2871 165.834 86.4964 164.171 84.9151 164.171C83.2468 164.171 82.4126 165.864 82.4126 169.25C82.4126 172.407 83.2305 173.985 84.8661 173.985C86.4801 173.985 87.2871 172.377 87.2871 169.16ZM95.9682 163.234L90.3601 176.863H89.113L94.7047 163.234H95.9682ZM104.177 171.214C104.177 171.785 104.084 172.309 103.899 172.787C103.715 173.265 103.459 173.678 103.133 174.026C102.807 174.374 102.419 174.646 101.968 174.841C101.517 175.032 101.027 175.127 100.5 175.127C99.9134 175.127 99.3863 175.004 98.919 174.76C98.4571 174.515 98.0631 174.165 97.737 173.708C97.4164 173.246 97.1719 172.684 97.0034 172.021C96.835 171.358 96.7507 170.611 96.7507 169.779C96.7507 168.763 96.8621 167.842 97.0849 167.016C97.3132 166.185 97.6338 165.476 98.0468 164.889C98.4652 164.296 98.9679 163.84 99.5548 163.519C100.142 163.199 100.796 163.038 101.519 163.038C102.323 163.038 102.97 163.15 103.459 163.372V164.636C102.856 164.326 102.22 164.171 101.552 164.171C101.03 164.171 100.56 164.288 100.142 164.522C99.7232 164.755 99.3646 165.087 99.0657 165.516C98.7668 165.94 98.5359 166.454 98.3728 167.057C98.2152 167.66 98.1364 168.331 98.1364 169.07H98.169C98.707 168.098 99.5955 167.611 100.835 167.611C101.345 167.611 101.805 167.698 102.212 167.872C102.625 168.046 102.976 168.293 103.264 168.614C103.557 168.929 103.783 169.307 103.94 169.747C104.098 170.187 104.177 170.676 104.177 171.214ZM102.807 171.385C102.807 170.978 102.756 170.611 102.652 170.285C102.549 169.959 102.4 169.682 102.204 169.453C102.014 169.225 101.777 169.051 101.495 168.932C101.212 168.807 100.892 168.744 100.533 168.744C100.201 168.744 99.8944 168.807 99.6118 168.932C99.3292 169.057 99.0847 169.228 98.8782 169.445C98.6717 169.657 98.5087 169.907 98.3891 170.195C98.275 170.478 98.218 170.779 98.218 171.1C98.218 171.502 98.275 171.88 98.3891 172.233C98.5033 172.581 98.6636 172.885 98.8701 173.146C99.0766 173.407 99.3211 173.613 99.6037 173.765C99.8917 173.912 100.21 173.985 100.557 173.985C100.894 173.985 101.201 173.923 101.478 173.798C101.756 173.668 101.992 173.488 102.188 173.26C102.383 173.032 102.535 172.76 102.644 172.445C102.753 172.124 102.807 171.771 102.807 171.385ZM113.159 169.029C113.159 170.008 113.07 170.874 112.89 171.63C112.716 172.385 112.461 173.024 112.124 173.545C111.793 174.062 111.382 174.456 110.893 174.727C110.41 174.993 109.858 175.127 109.238 175.127C108.652 175.127 108.127 174.999 107.665 174.744C107.209 174.483 106.823 174.105 106.508 173.61C106.193 173.116 105.954 172.51 105.79 171.793C105.627 171.07 105.546 170.244 105.546 169.315C105.546 168.293 105.63 167.391 105.799 166.609C105.973 165.826 106.225 165.171 106.557 164.644C106.888 164.112 107.298 163.712 107.788 163.446C108.282 163.174 108.847 163.038 109.483 163.038C111.934 163.038 113.159 165.035 113.159 169.029ZM111.79 169.16C111.79 165.834 110.999 164.171 109.418 164.171C107.75 164.171 106.915 165.864 106.915 169.25C106.915 172.407 107.733 173.985 109.369 173.985C110.983 173.985 111.79 172.377 111.79 169.16ZM124.163 174.923H122.794V169.592H116.746V174.923H115.376V163.234H116.746V168.361H122.794V163.234H124.163V174.923ZM132.869 166.959L127.929 173.782H132.82V174.923H125.965V174.507L130.905 167.717H126.43V166.576H132.869V166.959ZM135.086 168.206C134.831 168.206 134.613 168.117 134.434 167.937C134.26 167.758 134.173 167.543 134.173 167.293C134.173 167.043 134.26 166.831 134.434 166.657C134.613 166.484 134.831 166.397 135.086 166.397C135.336 166.397 135.551 166.484 135.73 166.657C135.909 166.831 135.999 167.043 135.999 167.293C135.999 167.543 135.909 167.758 135.73 167.937C135.551 168.117 135.336 168.206 135.086 168.206ZM135.82 173.064L134.516 177.075H133.562L134.516 173.064H135.82ZM143.156 166.299C143.156 165.94 143.099 165.628 142.985 165.361C142.876 165.095 142.724 164.875 142.528 164.701C142.338 164.522 142.113 164.389 141.852 164.302C141.591 164.215 141.308 164.171 141.004 164.171C140.743 164.171 140.488 164.207 140.238 164.277C139.988 164.348 139.743 164.446 139.504 164.571C139.271 164.696 139.042 164.845 138.819 165.019C138.602 165.193 138.398 165.386 138.208 165.598V164.163C138.583 163.799 139.002 163.522 139.463 163.332C139.931 163.136 140.499 163.038 141.167 163.038C141.645 163.038 142.088 163.109 142.496 163.25C142.903 163.386 143.257 163.587 143.555 163.853C143.854 164.12 144.088 164.448 144.256 164.84C144.43 165.231 144.517 165.679 144.517 166.185C144.517 166.647 144.463 167.065 144.354 167.44C144.251 167.815 144.091 168.168 143.873 168.5C143.661 168.831 143.392 169.149 143.066 169.453C142.74 169.758 142.357 170.067 141.917 170.383C141.368 170.774 140.914 171.108 140.556 171.385C140.202 171.662 139.92 171.923 139.708 172.168C139.501 172.407 139.355 172.649 139.268 172.893C139.186 173.132 139.146 173.409 139.146 173.725H144.966V174.923H137.752V174.344C137.752 173.844 137.806 173.404 137.915 173.024C138.023 172.643 138.203 172.282 138.453 171.939C138.703 171.597 139.029 171.255 139.431 170.912C139.838 170.57 140.336 170.184 140.923 169.755C141.346 169.451 141.7 169.16 141.982 168.883C142.27 168.606 142.501 168.328 142.675 168.051C142.849 167.774 142.971 167.494 143.042 167.212C143.118 166.924 143.156 166.619 143.156 166.299ZM156.443 174.923H154.926L153.687 171.646H148.731L147.566 174.923H146.042L150.525 163.234H151.943L156.443 174.923ZM153.239 170.415L151.405 165.435C151.345 165.272 151.286 165.011 151.226 164.652H151.193C151.139 164.984 151.076 165.245 151.006 165.435L149.188 170.415H153.239Z" fill="black"/>
<path d="M71.111 24.6777H69.5949L68.3559 21.4009H63.3999L62.2343 24.6777H60.71L65.1932 12.9888H66.6115L71.111 24.6777ZM67.9076 20.1701L66.0735 15.1896C66.0138 15.0266 65.954 14.7658 65.8942 14.4071H65.8616C65.8073 14.7386 65.7448 14.9994 65.6741 15.1896L63.8564 20.1701H67.9076ZM81.2186 24.6777H79.5884L77.6321 21.4009C77.4527 21.0966 77.2788 20.8385 77.1104 20.6265C76.9419 20.4092 76.768 20.2326 76.5887 20.0967C76.4148 19.9609 76.2246 19.863 76.0181 19.8033C75.817 19.7381 75.5888 19.7055 75.3334 19.7055H74.2085V24.6777H72.8391V12.9888H76.3279C76.8387 12.9888 77.3087 13.054 77.738 13.1844C78.1728 13.3094 78.5477 13.5023 78.8629 13.7632C79.1835 14.024 79.4335 14.3501 79.6128 14.7413C79.7922 15.1271 79.8818 15.5809 79.8818 16.1026C79.8818 16.5101 79.8193 16.8851 79.6943 17.2275C79.5748 17.5644 79.4009 17.866 79.1727 18.1323C78.9499 18.3985 78.6781 18.6268 78.3575 18.817C78.0423 19.0017 77.6864 19.1457 77.2897 19.249V19.2816C77.4853 19.3685 77.6538 19.4691 77.7951 19.5832C77.9418 19.6919 78.0804 19.8223 78.2108 19.9744C78.3412 20.1266 78.4689 20.3005 78.5939 20.4961C78.7243 20.6863 78.8683 20.9091 79.0259 21.1645L81.2186 24.6777ZM74.2085 14.2278V18.4665H76.067C76.4094 18.4665 76.7246 18.4148 77.0126 18.3116C77.306 18.2083 77.5587 18.0616 77.7706 17.8714C77.9826 17.6758 78.1483 17.4394 78.2679 17.1623C78.3874 16.8797 78.4472 16.5645 78.4472 16.2167C78.4472 15.5918 78.2434 15.1054 77.8358 14.7576C77.4337 14.4044 76.8495 14.2278 76.0833 14.2278H74.2085ZM87.2017 24.6777H85.8649V14.5783C85.7616 14.6815 85.6095 14.8011 85.4084 14.9369C85.2128 15.0674 84.99 15.1978 84.74 15.3282C84.4954 15.4586 84.2346 15.5809 83.9575 15.695C83.6857 15.8091 83.4195 15.8988 83.1586 15.964V14.6109C83.4521 14.5294 83.7618 14.4207 84.0879 14.2848C84.4194 14.1436 84.7427 13.9887 85.0579 13.8202C85.3785 13.6463 85.6801 13.467 85.9627 13.2822C86.2453 13.092 86.4898 12.9073 86.6963 12.728H87.2017V24.6777ZM96.5919 16.0537C96.5919 15.695 96.5349 15.3826 96.4208 15.1163C96.3121 14.85 96.1599 14.6299 95.9643 14.456C95.7741 14.2767 95.5486 14.1436 95.2877 14.0566C95.0269 13.9697 94.7443 13.9262 94.44 13.9262C94.1792 13.9262 93.9238 13.9615 93.6738 14.0322C93.4238 14.1028 93.1793 14.2006 92.9402 14.3256C92.7065 14.4506 92.4783 14.6 92.2555 14.7739C92.0381 14.9478 91.8343 15.1407 91.6441 15.3527V13.918C92.0191 13.5539 92.4375 13.2768 92.8994 13.0866C93.3668 12.891 93.9346 12.7932 94.603 12.7932C95.0812 12.7932 95.5241 12.8638 95.9317 13.0051C96.3393 13.1409 96.6925 13.342 96.9914 13.6083C97.2902 13.8746 97.5239 14.2033 97.6924 14.5946C97.8663 14.9859 97.9532 15.4342 97.9532 15.9396C97.9532 16.4015 97.8989 16.8199 97.7902 17.1949C97.6869 17.5698 97.5266 17.923 97.3093 18.2545C97.0973 18.586 96.8283 18.9039 96.5023 19.2082C96.1762 19.5125 95.7931 19.8223 95.353 20.1375C94.8041 20.5287 94.3503 20.8629 93.9917 21.1401C93.6385 21.4172 93.3559 21.6781 93.144 21.9226C92.9375 22.1617 92.7907 22.4035 92.7038 22.6481C92.6223 22.8872 92.5815 23.1643 92.5815 23.4795H98.4015V24.6777H91.1876V24.099C91.1876 23.599 91.242 23.1589 91.3507 22.7785C91.4594 22.3981 91.6387 22.0367 91.8887 21.6944C92.1386 21.352 92.4647 21.0097 92.8668 20.6673C93.2744 20.3249 93.7716 19.9391 94.3585 19.5098C94.7824 19.2055 95.1356 18.9148 95.4182 18.6376C95.7062 18.3605 95.9371 18.0833 96.111 17.8062C96.2849 17.5291 96.4072 17.2492 96.4778 16.9666C96.5539 16.6786 96.5919 16.3743 96.5919 16.0537ZM105.591 16.0537C105.591 15.695 105.534 15.3826 105.42 15.1163C105.311 14.85 105.159 14.6299 104.963 14.456C104.773 14.2767 104.548 14.1436 104.287 14.0566C104.026 13.9697 103.743 13.9262 103.439 13.9262C103.178 13.9262 102.923 13.9615 102.673 14.0322C102.423 14.1028 102.178 14.2006 101.939 14.3256C101.706 14.4506 101.477 14.6 101.254 14.7739C101.037 14.9478 100.833 15.1407 100.643 15.3527V13.918C101.018 13.5539 101.437 13.2768 101.898 13.0866C102.366 12.891 102.934 12.7932 103.602 12.7932C104.08 12.7932 104.523 12.8638 104.931 13.0051C105.338 13.1409 105.691 13.342 105.99 13.6083C106.289 13.8746 106.523 14.2033 106.691 14.5946C106.865 14.9859 106.952 15.4342 106.952 15.9396C106.952 16.4015 106.898 16.8199 106.789 17.1949C106.686 17.5698 106.526 17.923 106.308 18.2545C106.096 18.586 105.827 18.9039 105.501 19.2082C105.175 19.5125 104.792 19.8223 104.352 20.1375C103.803 20.5287 103.349 20.8629 102.991 21.1401C102.637 21.4172 102.355 21.6781 102.143 21.9226C101.936 22.1617 101.79 22.4035 101.703 22.6481C101.621 22.8872 101.581 23.1643 101.581 23.4795H107.401V24.6777H100.187V24.099C100.187 23.599 100.241 23.1589 100.35 22.7785C100.458 22.3981 100.638 22.0367 100.888 21.6944C101.138 21.352 101.464 21.0097 101.866 20.6673C102.273 20.3249 102.771 19.9391 103.358 19.5098C103.781 19.2055 104.135 18.9148 104.417 18.6376C104.705 18.3605 104.936 18.0833 105.11 17.8062C105.284 17.5291 105.406 17.2492 105.477 16.9666C105.553 16.6786 105.591 16.3743 105.591 16.0537ZM116.612 18.7844C116.612 19.7625 116.522 20.6293 116.343 21.3846C116.169 22.14 115.913 22.7785 115.576 23.3002C115.245 23.8164 114.835 24.2104 114.345 24.4821C113.862 24.7484 113.31 24.8815 112.691 24.8815C112.104 24.8815 111.579 24.7538 111.118 24.4984C110.661 24.2376 110.275 23.8599 109.96 23.3654C109.645 22.8709 109.406 22.265 109.243 21.5476C109.08 20.8249 108.998 19.9989 108.998 19.0697C108.998 18.048 109.082 17.1459 109.251 16.3634C109.425 15.5809 109.677 14.9261 110.009 14.399C110.34 13.8664 110.751 13.467 111.24 13.2007C111.734 12.929 112.299 12.7932 112.935 12.7932C115.386 12.7932 116.612 14.7902 116.612 18.7844ZM115.242 18.9148C115.242 15.5891 114.451 13.9262 112.87 13.9262C111.202 13.9262 110.368 15.6189 110.368 19.0044C110.368 22.1617 111.185 23.7403 112.821 23.7403C114.435 23.7403 115.242 22.1318 115.242 18.9148ZM127.518 12.9888L123.19 24.6777H121.682L117.443 12.9888H118.967L122.203 22.2568C122.307 22.5557 122.385 22.9008 122.44 23.292H122.472C122.516 22.966 122.605 22.6155 122.741 22.2405L126.043 12.9888H127.518Z" fill="black"/>
<rect x="176.955" y="3.33877" width="53.4203" height="53.4203" rx="26.7101" fill="#C5C3C4"/>
<rect x="176.955" y="3.33877" width="53.4203" height="53.4203" rx="26.7101" stroke="#DDDDDD" stroke-width="6.67753"/>
<rect x="201.994" y="20.0322" width="3.33877" height="20.0326" fill="#020102"/>
<rect x="193.648" y="31.7168" width="3.33877" height="20.0326" transform="rotate(-90 193.648 31.7168)" fill="#020102"/>
<rect width="33.3877" height="33.3877" transform="translate(193.648 76.792)" fill="#CEAB31"/>
<circle cx="210.342" cy="93.4855" r="10.0163" fill="#CEAB31" stroke="black" stroke-width="3.33877"/>
<rect x="168.342" y="121.599" width="56.5991" height="33.2278" stroke="black" stroke-width="2.80674"/>
<path d="M184.342 129.354C184.615 128.881 185.296 128.881 185.569 129.354L192.936 142.11C193.208 142.583 192.867 143.174 192.321 143.174H177.591C177.045 143.174 176.704 142.583 176.977 142.11L184.342 129.354Z" fill="#CEAB31" stroke="black" stroke-width="1.41747"/>
<circle cx="209.651" cy="138.213" r="10.0163" fill="#397BAB"/>
</svg>
