<svg width="238" height="206" viewBox="0 0 238 206" fill="none" xmlns="http://www.w3.org/2000/svg">
<rect x="14.7801" y="71.6288" width="139.157" height="110.764" stroke="black" stroke-width="2.81113"/>
<path d="M51.9382 92.9392H119.857L141.152 110.896V166.763H85.7851H30.4166V110.896L51.9382 92.9392Z" fill="#040404"/>
<rect x="81.5234" y="104.296" width="8.5181" height="19.8756" fill="#D9D9D9"/>
<rect x="50.2894" y="127.01" width="8.5181" height="19.8756" fill="#D9D9D9"/>
<rect x="112.757" y="127.01" width="8.5181" height="19.8756" fill="#D9D9D9"/>
<path d="M6.02544 197.788H1.56787V196.735H6.02544V197.788ZM12.9975 201.919H11.6586V191.804C11.5552 191.907 11.4028 192.027 11.2014 192.163C11.0055 192.293 10.7824 192.424 10.532 192.555C10.2871 192.685 10.0258 192.808 9.74824 192.922C9.47611 193.036 9.20941 193.126 8.94816 193.191V191.836C9.24207 191.755 9.5523 191.646 9.87887 191.51C10.2109 191.368 10.5347 191.213 10.8504 191.044C11.1715 190.87 11.4736 190.691 11.7566 190.505C12.0396 190.315 12.2845 190.13 12.4914 189.95H12.9975V201.919ZM24.4272 196.016C24.4272 196.996 24.3374 197.864 24.1578 198.621C23.9836 199.377 23.7278 200.017 23.3904 200.539C23.0583 201.056 22.6474 201.451 22.1576 201.723C21.6732 201.99 21.1208 202.123 20.5003 202.123C19.9125 202.123 19.3873 201.995 18.9246 201.739C18.4674 201.478 18.081 201.1 17.7653 200.604C17.4497 200.109 17.2102 199.502 17.0469 198.784C16.8836 198.06 16.802 197.233 16.802 196.302C16.802 195.279 16.8863 194.375 17.0551 193.592C17.2292 192.808 17.4823 192.152 17.8143 191.624C18.1463 191.091 18.5572 190.691 19.0471 190.424C19.5424 190.152 20.1084 190.016 20.7452 190.016C23.1999 190.016 24.4272 192.016 24.4272 196.016ZM23.0556 196.147C23.0556 192.816 22.2637 191.15 20.6799 191.15C19.009 191.15 18.1735 192.846 18.1735 196.237C18.1735 199.399 18.9927 200.98 20.6309 200.98C22.2474 200.98 23.0556 199.369 23.0556 196.147ZM33.4403 196.016C33.4403 196.996 33.3505 197.864 33.1709 198.621C32.9967 199.377 32.7409 200.017 32.4035 200.539C32.0714 201.056 31.6605 201.451 31.1707 201.723C30.6863 201.99 30.1338 202.123 29.5134 202.123C28.9256 202.123 28.4004 201.995 27.9377 201.739C27.4805 201.478 27.0941 201.1 26.7784 200.604C26.4628 200.109 26.2233 199.502 26.06 198.784C25.8967 198.06 25.8151 197.233 25.8151 196.302C25.8151 195.279 25.8994 194.375 26.0682 193.592C26.2423 192.808 26.4954 192.152 26.8274 191.624C27.1594 191.091 27.5703 190.691 28.0602 190.424C28.5555 190.152 29.1215 190.016 29.7583 190.016C32.213 190.016 33.4403 192.016 33.4403 196.016ZM32.0687 196.147C32.0687 192.816 31.2768 191.15 29.693 191.15C28.0221 191.15 27.1866 192.846 27.1866 196.237C27.1866 199.399 28.0058 200.98 29.644 200.98C31.2605 200.98 32.0687 199.369 32.0687 196.147ZM39.7593 197.788H35.3017V196.735H39.7593V197.788ZM47.1232 193.281C47.1232 192.922 47.0661 192.609 46.9518 192.342C46.8429 192.076 46.6905 191.855 46.4946 191.681C46.3041 191.502 46.0782 191.368 45.817 191.281C45.5557 191.194 45.2727 191.15 44.9679 191.15C44.7067 191.15 44.4509 191.186 44.2005 191.257C43.9501 191.327 43.7052 191.425 43.4657 191.55C43.2317 191.676 43.0031 191.825 42.7799 192C42.5622 192.174 42.3581 192.367 42.1676 192.579V191.142C42.5432 190.778 42.9623 190.5 43.4249 190.31C43.893 190.114 44.4617 190.016 45.1312 190.016C45.6102 190.016 46.0537 190.086 46.4619 190.228C46.8701 190.364 47.2239 190.565 47.5233 190.832C47.8226 191.099 48.0566 191.428 48.2254 191.82C48.3995 192.212 48.4866 192.661 48.4866 193.167C48.4866 193.63 48.4322 194.049 48.3233 194.424C48.2199 194.8 48.0594 195.154 47.8417 195.486C47.6294 195.818 47.36 196.136 47.0334 196.441C46.7069 196.746 46.3231 197.056 45.8823 197.371C45.3326 197.763 44.8781 198.098 44.5189 198.376C44.1651 198.653 43.8821 198.914 43.6698 199.159C43.463 199.399 43.3161 199.641 43.229 199.886C43.1473 200.125 43.1065 200.403 43.1065 200.719H48.9356V201.919H41.7105V201.339C41.7105 200.838 41.7649 200.398 41.8737 200.017C41.9826 199.636 42.1622 199.274 42.4126 198.931C42.6629 198.588 42.9895 198.245 43.3923 197.902C43.8005 197.559 44.2985 197.173 44.8863 196.743C45.3108 196.438 45.6646 196.147 45.9476 195.869C46.2361 195.592 46.4674 195.314 46.6415 195.037C46.8157 194.759 46.9382 194.479 47.0089 194.196C47.0851 193.907 47.1232 193.602 47.1232 193.281ZM56.7731 190.212V197.943H58.2753V199.168H56.7731V201.919H55.4505V199.168H49.948V198.008C50.4596 197.431 50.9766 196.816 51.4991 196.163C52.0216 195.505 52.5196 194.838 52.9932 194.163C53.4721 193.488 53.913 192.816 54.3157 192.146C54.7239 191.472 55.0668 190.827 55.3444 190.212H56.7731ZM51.4583 197.943H55.4505V192.212C55.0423 192.925 54.6559 193.562 54.2912 194.122C53.9266 194.683 53.5783 195.192 53.2462 195.649C52.9197 196.106 52.6067 196.52 52.3074 196.89C52.008 197.26 51.725 197.611 51.4583 197.943ZM67.1741 196.016C67.1741 196.996 67.0843 197.864 66.9047 198.621C66.7305 199.377 66.4747 200.017 66.1373 200.539C65.8053 201.056 65.3943 201.451 64.9045 201.723C64.4201 201.99 63.8677 202.123 63.2472 202.123C62.6594 202.123 62.1342 201.995 61.6715 201.739C61.2144 201.478 60.8279 201.1 60.5122 200.604C60.1966 200.109 59.9571 199.502 59.7938 198.784C59.6305 198.06 59.5489 197.233 59.5489 196.302C59.5489 195.279 59.6332 194.375 59.802 193.592C59.9761 192.808 60.2292 192.152 60.5612 191.624C60.8932 191.091 61.3042 190.691 61.794 190.424C62.2893 190.152 62.8553 190.016 63.4921 190.016C65.9468 190.016 67.1741 192.016 67.1741 196.016ZM65.8025 196.147C65.8025 192.816 65.0106 191.15 63.4268 191.15C61.7559 191.15 60.9204 192.846 60.9204 196.237C60.9204 199.399 61.7396 200.98 63.3778 200.98C64.9943 200.98 65.8025 199.369 65.8025 196.147ZM70.4397 200.057L69.1335 204.074H68.1783L69.1335 200.057H70.4397ZM77.1179 197.788H72.6603V196.735H77.1179V197.788ZM86.0902 198.343C86.0902 198.914 85.9922 199.432 85.7963 199.894C85.6003 200.357 85.32 200.754 84.9554 201.086C84.5962 201.418 84.1608 201.674 83.6491 201.854C83.1375 202.033 82.5688 202.123 81.9429 202.123C80.8543 202.123 80.0461 201.96 79.5181 201.633V200.213C80.3128 200.724 81.1264 200.98 81.9592 200.98C82.3837 200.98 82.7647 200.917 83.1021 200.792C83.445 200.667 83.7362 200.493 83.9757 200.27C84.2152 200.047 84.3975 199.777 84.5227 199.461C84.6533 199.146 84.7186 198.8 84.7186 198.425C84.7186 197.663 84.4628 197.067 83.9512 196.637C83.4396 196.201 82.6967 195.984 81.7224 195.984C81.5646 195.984 81.3986 195.986 81.2244 195.992C81.0503 195.997 80.8761 196.005 80.7019 196.016C80.5278 196.022 80.3563 196.03 80.1876 196.041C80.0243 196.052 79.8746 196.065 79.7386 196.082L80.1386 190.212H85.5514V191.42H81.2979L81.0611 194.857C81.2353 194.846 81.4204 194.838 81.6163 194.832C81.8122 194.822 81.9864 194.816 82.1388 194.816C82.7593 194.816 83.3144 194.898 83.8043 195.061C84.2941 195.224 84.7077 195.458 85.0452 195.763C85.3881 196.062 85.6466 196.433 85.8208 196.873C86.0004 197.309 86.0902 197.799 86.0902 198.343ZM95.5197 196.016C95.5197 196.996 95.4298 197.864 95.2502 198.621C95.0761 199.377 94.8203 200.017 94.4828 200.539C94.1508 201.056 93.7399 201.451 93.25 201.723C92.7656 201.99 92.2132 202.123 91.5927 202.123C91.0049 202.123 90.4797 201.995 90.0171 201.739C89.5599 201.478 89.1735 201.1 88.8578 200.604C88.5421 200.109 88.3026 199.502 88.1394 198.784C87.9761 198.06 87.8944 197.233 87.8944 196.302C87.8944 195.279 87.9788 194.375 88.1475 193.592C88.3217 192.808 88.5748 192.152 88.9068 191.624C89.2388 191.091 89.6497 190.691 90.1395 190.424C90.6348 190.152 91.2009 190.016 91.8377 190.016C94.2923 190.016 95.5197 192.016 95.5197 196.016ZM94.1481 196.147C94.1481 192.816 93.3562 191.15 91.7724 191.15C90.1014 191.15 89.266 192.846 89.266 196.237C89.266 199.399 90.0851 200.98 91.7234 200.98C93.3399 200.98 94.1481 199.369 94.1481 196.147ZM102.843 190.212L97.2259 203.862H95.9768L101.577 190.212H102.843ZM111.064 198.204C111.064 198.776 110.971 199.301 110.786 199.78C110.601 200.259 110.346 200.672 110.019 201.021C109.692 201.369 109.303 201.641 108.852 201.837C108.4 202.028 107.91 202.123 107.382 202.123C106.794 202.123 106.266 202 105.798 201.756C105.336 201.511 104.941 201.16 104.614 200.702C104.293 200.24 104.048 199.676 103.88 199.012C103.711 198.348 103.627 197.6 103.627 196.767C103.627 195.75 103.738 194.827 103.961 194C104.19 193.167 104.511 192.457 104.925 191.869C105.344 191.276 105.847 190.818 106.435 190.497C107.023 190.176 107.679 190.016 108.403 190.016C109.208 190.016 109.856 190.127 110.346 190.35V191.616C109.741 191.306 109.105 191.15 108.435 191.15C107.913 191.15 107.442 191.267 107.023 191.502C106.604 191.736 106.244 192.068 105.945 192.498C105.646 192.922 105.414 193.436 105.251 194.041C105.093 194.645 105.014 195.317 105.014 196.057H105.047C105.586 195.083 106.476 194.596 107.717 194.596C108.228 194.596 108.688 194.683 109.096 194.857C109.51 195.031 109.861 195.279 110.15 195.6C110.444 195.916 110.669 196.294 110.827 196.735C110.985 197.176 111.064 197.665 111.064 198.204ZM109.692 198.376C109.692 197.967 109.641 197.6 109.537 197.273C109.434 196.947 109.284 196.669 109.088 196.441C108.898 196.212 108.661 196.038 108.378 195.918C108.095 195.793 107.774 195.73 107.415 195.73C107.083 195.73 106.775 195.793 106.492 195.918C106.209 196.043 105.964 196.215 105.757 196.433C105.551 196.645 105.387 196.895 105.268 197.184C105.153 197.467 105.096 197.769 105.096 198.09C105.096 198.493 105.153 198.871 105.268 199.225C105.382 199.573 105.542 199.878 105.749 200.139C105.956 200.4 106.201 200.607 106.484 200.76C106.772 200.906 107.091 200.98 107.439 200.98C107.777 200.98 108.084 200.917 108.362 200.792C108.639 200.662 108.876 200.482 109.072 200.253C109.268 200.025 109.42 199.753 109.529 199.437C109.638 199.116 109.692 198.762 109.692 198.376ZM120.061 196.016C120.061 196.996 119.971 197.864 119.791 198.621C119.617 199.377 119.361 200.017 119.024 200.539C118.692 201.056 118.281 201.451 117.791 201.723C117.307 201.99 116.754 202.123 116.134 202.123C115.546 202.123 115.021 201.995 114.558 201.739C114.101 201.478 113.715 201.1 113.399 200.604C113.083 200.109 112.844 199.502 112.68 198.784C112.517 198.06 112.436 197.233 112.436 196.302C112.436 195.279 112.52 194.375 112.689 193.592C112.863 192.808 113.116 192.152 113.448 191.624C113.78 191.091 114.191 190.691 114.681 190.424C115.176 190.152 115.742 190.016 116.379 190.016C118.833 190.016 120.061 192.016 120.061 196.016ZM118.689 196.147C118.689 192.816 117.897 191.15 116.313 191.15C114.643 191.15 113.807 192.846 113.807 196.237C113.807 199.399 114.626 200.98 116.264 200.98C117.881 200.98 118.689 199.369 118.689 196.147ZM131.082 201.919H129.711V196.58H123.653V201.919H122.281V190.212H123.653V195.347H129.711V190.212H131.082V201.919ZM139.801 193.943L134.854 200.776H139.752V201.919H132.886V201.502L137.834 194.702H133.352V193.559H139.801V193.943ZM142.022 195.192C141.766 195.192 141.548 195.102 141.369 194.922C141.195 194.743 141.108 194.528 141.108 194.277C141.108 194.027 141.195 193.815 141.369 193.64C141.548 193.466 141.766 193.379 142.022 193.379C142.272 193.379 142.487 193.466 142.667 193.64C142.847 193.815 142.936 194.027 142.936 194.277C142.936 194.528 142.847 194.743 142.667 194.922C142.487 195.102 142.272 195.192 142.022 195.192ZM142.757 200.057L141.451 204.074H140.495L141.451 200.057H142.757ZM150.104 193.281C150.104 192.922 150.047 192.609 149.933 192.342C149.824 192.076 149.672 191.855 149.476 191.681C149.285 191.502 149.059 191.368 148.798 191.281C148.537 191.194 148.254 191.15 147.949 191.15C147.688 191.15 147.432 191.186 147.182 191.257C146.931 191.327 146.686 191.425 146.447 191.55C146.213 191.676 145.984 191.825 145.761 192C145.543 192.174 145.339 192.367 145.149 192.579V191.142C145.524 190.778 145.943 190.5 146.406 190.31C146.874 190.114 147.443 190.016 148.112 190.016C148.591 190.016 149.035 190.086 149.443 190.228C149.851 190.364 150.205 190.565 150.504 190.832C150.804 191.099 151.038 191.428 151.207 191.82C151.381 192.212 151.468 192.661 151.468 193.167C151.468 193.63 151.413 194.049 151.305 194.424C151.201 194.8 151.041 195.154 150.823 195.486C150.611 195.818 150.341 196.136 150.015 196.441C149.688 196.746 149.304 197.056 148.863 197.371C148.314 197.763 147.859 198.098 147.5 198.376C147.146 198.653 146.863 198.914 146.651 199.159C146.444 199.399 146.297 199.641 146.21 199.886C146.129 200.125 146.088 200.403 146.088 200.719H151.917V201.919H144.692V201.339C144.692 200.838 144.746 200.398 144.855 200.017C144.964 199.636 145.143 199.274 145.394 198.931C145.644 198.588 145.971 198.245 146.373 197.902C146.782 197.559 147.28 197.173 147.867 196.743C148.292 196.438 148.646 196.147 148.929 195.869C149.217 195.592 149.449 195.314 149.623 195.037C149.797 194.759 149.919 194.479 149.99 194.196C150.066 193.907 150.104 193.602 150.104 193.281ZM163.412 201.919H161.893L160.652 198.637H155.689L154.521 201.919H152.994L157.485 190.212H158.905L163.412 201.919ZM160.203 197.404L158.366 192.416C158.307 192.253 158.247 191.991 158.187 191.632H158.154C158.1 191.964 158.037 192.225 157.966 192.416L156.146 197.404H160.203Z" fill="black"/>
<path d="M154.54 18H153.021L151.78 14.7181H146.817L145.649 18H144.123L148.613 6.29277H150.033L154.54 18ZM151.331 13.4853L149.495 8.49706C149.435 8.33378 149.375 8.07253 149.315 7.71331H149.282C149.228 8.04531 149.165 8.30656 149.095 8.49706L147.274 13.4853H151.331ZM164.663 18H163.031L161.071 14.7181C160.892 14.4133 160.717 14.1547 160.549 13.9425C160.38 13.7248 160.206 13.5479 160.026 13.4118C159.852 13.2757 159.662 13.1778 159.455 13.1179C159.253 13.0526 159.025 13.0199 158.769 13.0199H157.642V18H156.271V6.29277H159.765C160.277 6.29277 160.747 6.35808 161.177 6.4887C161.613 6.61388 161.988 6.8071 162.304 7.06835C162.625 7.3296 162.875 7.65616 163.055 8.04803C163.235 8.43447 163.324 8.88893 163.324 9.41143C163.324 9.81963 163.262 10.1952 163.137 10.5381C163.017 10.8755 162.843 11.1776 162.614 11.4443C162.391 11.711 162.119 11.9396 161.798 12.1301C161.482 12.3151 161.126 12.4593 160.728 12.5627V12.5954C160.924 12.6825 161.093 12.7832 161.234 12.8975C161.381 13.0063 161.52 13.137 161.651 13.2893C161.781 13.4417 161.909 13.6159 162.035 13.8118C162.165 14.0023 162.309 14.2255 162.467 14.4813L164.663 18ZM157.642 7.5337V11.779H159.504C159.847 11.779 160.162 11.7273 160.451 11.6239C160.745 11.5205 160.998 11.3735 161.21 11.183C161.422 10.9871 161.588 10.7503 161.708 10.4728C161.828 10.1897 161.888 9.87406 161.888 9.52573C161.888 8.89982 161.683 8.41269 161.275 8.06436C160.873 7.71059 160.287 7.5337 159.52 7.5337H157.642ZM170.656 18H169.317V7.88475C169.213 7.98816 169.061 8.1079 168.86 8.24397C168.664 8.3746 168.441 8.50522 168.19 8.63585C167.945 8.76647 167.684 8.88893 167.406 9.00323C167.134 9.11752 166.868 9.20733 166.606 9.27264V7.91741C166.9 7.83577 167.211 7.72692 167.537 7.59085C167.869 7.44934 168.193 7.29422 168.509 7.1255C168.83 6.95133 169.132 6.77172 169.415 6.58667C169.698 6.39618 169.943 6.21113 170.15 6.03152H170.656V18ZM180.061 9.36244C180.061 9.00323 180.004 8.69027 179.889 8.42358C179.78 8.15689 179.628 7.93646 179.432 7.76229C179.242 7.58268 179.016 7.44934 178.754 7.36225C178.493 7.27517 178.21 7.23163 177.905 7.23163C177.644 7.23163 177.388 7.26701 177.138 7.33776C176.888 7.40852 176.643 7.50649 176.403 7.63167C176.169 7.75685 175.941 7.90652 175.717 8.08069C175.5 8.25486 175.296 8.44807 175.105 8.66034V7.22347C175.481 6.85881 175.9 6.58123 176.362 6.39073C176.83 6.1948 177.399 6.09683 178.069 6.09683C178.548 6.09683 178.991 6.16758 179.399 6.30909C179.808 6.44516 180.161 6.64654 180.461 6.91323C180.76 7.17992 180.994 7.50921 181.163 7.90108C181.337 8.29296 181.424 8.74198 181.424 9.24815C181.424 9.71078 181.37 10.1299 181.261 10.5054C181.157 10.881 180.997 11.2347 180.779 11.5667C180.567 11.8987 180.297 12.2171 179.971 12.5219C179.644 12.8267 179.261 13.137 178.82 13.4526C178.27 13.8445 177.816 14.1792 177.456 14.4568C177.103 14.7344 176.82 14.9956 176.607 15.2406C176.401 15.48 176.254 15.7222 176.166 15.9672C176.085 16.2066 176.044 16.4842 176.044 16.7999H181.873V18H174.648V17.4204C174.648 16.9196 174.702 16.4788 174.811 16.0978C174.92 15.7168 175.1 15.3549 175.35 15.012C175.6 14.6691 175.927 14.3262 176.33 13.9833C176.738 13.6404 177.236 13.254 177.824 12.824C178.248 12.5192 178.602 12.228 178.885 11.9504C179.174 11.6729 179.405 11.3953 179.579 11.1177C179.753 10.8401 179.876 10.5598 179.946 10.2768C180.023 9.98835 180.061 9.68356 180.061 9.36244ZM189.074 9.36244C189.074 9.00323 189.017 8.69027 188.902 8.42358C188.794 8.15689 188.641 7.93646 188.445 7.76229C188.255 7.58268 188.029 7.44934 187.768 7.36225C187.506 7.27517 187.223 7.23163 186.919 7.23163C186.657 7.23163 186.401 7.26701 186.151 7.33776C185.901 7.40852 185.656 7.50649 185.416 7.63167C185.182 7.75685 184.954 7.90652 184.731 8.08069C184.513 8.25486 184.309 8.44807 184.118 8.66034V7.22347C184.494 6.85881 184.913 6.58123 185.376 6.39073C185.844 6.1948 186.412 6.09683 187.082 6.09683C187.561 6.09683 188.004 6.16758 188.413 6.30909C188.821 6.44516 189.175 6.64654 189.474 6.91323C189.773 7.17992 190.007 7.50921 190.176 7.90108C190.35 8.29296 190.437 8.74198 190.437 9.24815C190.437 9.71078 190.383 10.1299 190.274 10.5054C190.171 10.881 190.01 11.2347 189.792 11.5667C189.58 11.8987 189.311 12.2171 188.984 12.5219C188.657 12.8267 188.274 13.137 187.833 13.4526C187.283 13.8445 186.829 14.1792 186.47 14.4568C186.116 14.7344 185.833 14.9956 185.62 15.2406C185.414 15.48 185.267 15.7222 185.18 15.9672C185.098 16.2066 185.057 16.4842 185.057 16.7999H190.886V18H183.661V17.4204C183.661 16.9196 183.715 16.4788 183.824 16.0978C183.933 15.7168 184.113 15.3549 184.363 15.012C184.614 14.6691 184.94 14.3262 185.343 13.9833C185.751 13.6404 186.249 13.254 186.837 12.824C187.261 12.5192 187.615 12.228 187.898 11.9504C188.187 11.6729 188.418 11.3953 188.592 11.1177C188.766 10.8401 188.889 10.5598 188.96 10.2768C189.036 9.98835 189.074 9.68356 189.074 9.36244ZM200.112 12.0974C200.112 13.0771 200.022 13.9452 199.842 14.7017C199.668 15.4583 199.412 16.0978 199.075 16.6203C198.743 17.1373 198.332 17.5319 197.842 17.8041C197.358 18.0708 196.805 18.2041 196.185 18.2041C195.597 18.2041 195.072 18.0762 194.609 17.8204C194.152 17.5591 193.765 17.1809 193.45 16.6856C193.134 16.1903 192.895 15.5834 192.731 14.865C192.568 14.1411 192.486 13.3138 192.486 12.3831C192.486 11.3599 192.571 10.4564 192.739 9.67268C192.914 8.88893 193.167 8.23309 193.499 7.70514C193.831 7.17176 194.242 6.77172 194.732 6.50503C195.227 6.2329 195.793 6.09683 196.43 6.09683C198.884 6.09683 200.112 8.09702 200.112 12.0974ZM198.74 12.228C198.74 8.89709 197.948 7.23163 196.364 7.23163C194.693 7.23163 193.858 8.92703 193.858 12.3178C193.858 15.48 194.677 17.0611 196.315 17.0611C197.932 17.0611 198.74 15.4501 198.74 12.228ZM208.537 18H202.332V6.29277H208.276V7.5337H203.704V11.4279H207.933V12.6607H203.704V16.7591H208.537V18ZM219.493 6.29277L215.158 18H213.648L209.402 6.29277H210.929L214.17 15.5753C214.274 15.8746 214.352 16.2202 214.407 16.6121H214.44C214.483 16.2856 214.573 15.9345 214.709 15.559L218.015 6.29277H219.493Z" fill="black"/>
<rect x="180.575" y="30.095" width="53.5039" height="53.5039" rx="26.7519" fill="#C5C3C4"/>
<rect x="180.575" y="30.095" width="53.5039" height="53.5039" rx="26.7519" stroke="#DDDDDD" stroke-width="6.68798"/>
<rect x="205.655" y="46.8149" width="3.34399" height="20.0639" fill="#020102"/>
<rect x="197.295" y="58.5193" width="3.34399" height="20.0639" transform="rotate(-90 197.295 58.5193)" fill="#020102"/>
<circle cx="214.015" cy="120.383" r="10.032" stroke="black" stroke-width="3.34399"/>
<rect x="171.948" y="148.541" width="56.6877" height="33.2798" stroke="black" stroke-width="2.81113"/>
<path d="M187.973 156.308C188.247 155.835 188.93 155.835 189.203 156.308L196.579 169.085C196.852 169.558 196.511 170.149 195.965 170.15H181.211C180.664 170.149 180.323 169.558 180.597 169.085L187.973 156.308Z" fill="#CEAB31" stroke="black" stroke-width="1.41968"/>
<circle cx="213.321" cy="165.181" r="10.032" fill="#397BAB"/>
<circle cx="175.717" cy="128.901" r="8.5181" fill="#040404"/>
</svg>
