<svg xmlns="http://www.w3.org/2000/svg" width="15.21" height="14.053" viewBox="0 0 15.21 14.053">
  <g id="before-after" transform="translate(0 -19.469)">
    <path id="Path_13256" data-name="Path 13256" d="M241.446,228.931a.446.446,0,0,0,.446-.446v-1.045a.446.446,0,1,0-.891,0v1.045A.446.446,0,0,0,241.446,228.931Z" transform="translate(-233.84 -201.361)" fill="#2680eb"/>
    <path id="Path_13257" data-name="Path 13257" d="M241,323.665a.446.446,0,1,0,.891,0V322.62a.446.446,0,1,0-.891,0Z" transform="translate(-233.84 -293.712)" fill="#2680eb"/>
    <path id="Path_13258" data-name="Path 13258" d="M.446,238.634a.446.446,0,0,0,.446-.446v-.748a.446.446,0,1,0-.891,0v.748A.446.446,0,0,0,.446,238.634Z" transform="translate(0 -211.064)" fill="#2680eb"/>
    <path id="Path_13259" data-name="Path 13259" d="M.446,323.813a.446.446,0,0,0,.446-.446v-.748a.446.446,0,1,0-.891,0v.748A.446.446,0,0,0,.446,323.813Z" transform="translate(0 -293.712)" fill="#2680eb"/>
    <path id="Path_13260" data-name="Path 13260" d="M205.347,122.554H199.4v-.293a.446.446,0,1,0-.891,0v.293h-.855a.446.446,0,1,0,0,.891h.855v.158a.446.446,0,1,0,.891,0v-.158h5.946a.322.322,0,0,1,.322.322v7.109a.322.322,0,0,1-.322.322H199.4v-.158a.446.446,0,1,0-.891,0v.158h-.855a.446.446,0,1,0,0,.891h.855v.293a.446.446,0,1,0,.891,0v-.293h5.946a1.215,1.215,0,0,0,1.213-1.213v-7.109A1.215,1.215,0,0,0,205.347,122.554Z" transform="translate(-191.35 -99.306)" fill="#2680eb"/>
    <path id="Path_13261" data-name="Path 13261" d="M1.813,146.674h-.6A1.215,1.215,0,0,0,0,147.887v.3a.446.446,0,1,0,.891,0v-.3a.322.322,0,0,1,.322-.322h.6a.446.446,0,0,0,0-.891Z" transform="translate(0 -123.426)" fill="#2680eb"/>
    <path id="Path_13262" data-name="Path 13262" d="M107.558,146.674h-.9a.446.446,0,0,0,0,.891h.9a.446.446,0,0,0,0-.891Z" transform="translate(-103.054 -123.426)" fill="#2680eb"/>
    <path id="Path_13263" data-name="Path 13263" d="M1.813,402.967h-.6a.322.322,0,0,1-.322-.322v-.3a.446.446,0,1,0-.891,0v.3a1.215,1.215,0,0,0,1.213,1.213h.6a.446.446,0,0,0,0-.891Z" transform="translate(0 -371.074)" fill="#2680eb"/>
    <path id="Path_13264" data-name="Path 13264" d="M107.558,437.674h-.9a.446.446,0,0,0,0,.891h.9a.446.446,0,0,0,0-.891Z" transform="translate(-103.054 -405.781)" fill="#2680eb"/>
    <path id="Path_13265" data-name="Path 13265" d="M63.856,21.458l-.634.1a.446.446,0,0,0,.07.886.454.454,0,0,0,.071-.006c1.758-.28,1.939-.308,1.965-.314a.446.446,0,0,0,.3-.633L64.8,19.726a.446.446,0,0,0-.807.378l.259.554a10.93,10.93,0,0,0-4.587-1.008h0a10.931,10.931,0,0,0-5.8,1.666l0,0h0a.446.446,0,0,0,.477.753A10.122,10.122,0,0,1,63.856,21.458Z" transform="translate(-52.057)" fill="#2680eb"/>
  </g>
</svg>
