<svg width="72" height="29" viewBox="0 0 72 29" fill="none" xmlns="http://www.w3.org/2000/svg">
<rect width="70.7032" height="26.2612" transform="translate(0.657227 2.58447)" fill="black"/>
<path d="M55.2002 4.604H71.3594V26.8247H63.2803V28.8452H57.2197V26.8247H39.0391V28.8452H32.9795V26.8247H24.8975V20.7651H20.8584V10.6646H24.8975V4.604H39.04V0.563965H55.2002V4.604Z" fill="#D9D9D9"/>
<rect x="32.9809" y="10.665" width="8.08036" height="8.08036" fill="#D7C231"/>
<rect x="32.9809" y="10.665" width="8.08036" height="8.08036" stroke="black" stroke-width="4.04018"/>
<rect x="32.9809" y="10.665" width="8.08036" height="8.08036" stroke="black" stroke-width="4.04018"/>
<rect x="32.9809" y="10.665" width="8.08036" height="8.08036" stroke="black" stroke-width="4.04018"/>
<rect x="32.9809" y="10.665" width="8.08036" height="8.08036" stroke="black" stroke-width="4.04018"/>
<rect x="53.1791" y="10.665" width="8.08036" height="8.08036" fill="#D7C231"/>
<rect x="53.1791" y="10.665" width="8.08036" height="8.08036" stroke="black" stroke-width="4.04018"/>
<rect x="53.1791" y="10.665" width="8.08036" height="8.08036" stroke="black" stroke-width="4.04018"/>
<rect x="53.1791" y="10.665" width="8.08036" height="8.08036" stroke="black" stroke-width="4.04018"/>
<rect x="53.1791" y="10.665" width="8.08036" height="8.08036" stroke="black" stroke-width="4.04018"/>
<rect x="8.7373" y="12.6846" width="6.06027" height="16.1607" fill="#D7C231"/>
<rect x="8.7373" y="20.7651" width="6.06027" height="8.08037" fill="#D9D9D9"/>
</svg>
