<svg width="48" height="48" viewBox="0 0 48 48" fill="none" xmlns="http://www.w3.org/2000/svg">
<path d="M42.6667 0H5.33333C2.38781 0 0 2.38781 0 5.33333V42.6667C0 45.6122 2.38781 48 5.33333 48H42.6667C45.6122 48 48 45.6122 48 42.6667V5.33333C48 2.38781 45.6122 0 42.6667 0Z" fill="#25B89D"/>
<g clip-path="url(#clip0_4865_30240)">
<path d="M20.3333 18.6667H10.3333C9.04663 18.6667 8 17.6201 8 16.3333V10.3333C8 9.04663 9.04663 8 10.3333 8H20.3333C21.6201 8 22.6667 9.04663 22.6667 10.3333V16.3333C22.6667 17.6201 21.6201 18.6667 20.3333 18.6667ZM10.3333 10C10.1494 10 10 10.1494 10 10.3333V16.3333C10 16.5173 10.1494 16.6667 10.3333 16.6667H20.3333C20.5173 16.6667 20.6667 16.5173 20.6667 16.3333V10.3333C20.6667 10.1494 20.5173 10 20.3333 10H10.3333Z" fill="white"/>
<path d="M20.3333 40H10.3333C9.04663 40 8 38.9534 8 37.6667V23.6667C8 22.3799 9.04663 21.3333 10.3333 21.3333H20.3333C21.6201 21.3333 22.6667 22.3799 22.6667 23.6667V37.6667C22.6667 38.9534 21.6201 40 20.3333 40ZM10.3333 23.3333C10.1494 23.3333 10 23.4827 10 23.6667V37.6667C10 37.8506 10.1494 38 10.3333 38H20.3333C20.5173 38 20.6667 37.8506 20.6667 37.6667V23.6667C20.6667 23.4827 20.5173 23.3333 20.3333 23.3333H10.3333Z" fill="white"/>
<path d="M37.6665 40H27.6665C26.3796 40 25.333 38.9534 25.333 37.6667V31.6667C25.333 30.3799 26.3796 29.3333 27.6665 29.3333H37.6665C38.9531 29.3333 39.9998 30.3799 39.9998 31.6667V37.6667C39.9998 38.9534 38.9531 40 37.6665 40ZM27.6665 31.3333C27.4824 31.3333 27.333 31.4827 27.333 31.6667V37.6667C27.333 37.8506 27.4824 38 27.6665 38H37.6665C37.8503 38 37.9998 37.8506 37.9998 37.6667V31.6667C37.9998 31.4827 37.8503 31.3333 37.6665 31.3333H27.6665Z" fill="white"/>
<path d="M37.6665 26.6667H27.6665C26.3796 26.6667 25.333 25.6201 25.333 24.3333V10.3333C25.333 9.04663 26.3796 8 27.6665 8H37.6665C38.9531 8 39.9998 9.04663 39.9998 10.3333V24.3333C39.9998 25.6201 38.9531 26.6667 37.6665 26.6667ZM27.6665 10C27.4824 10 27.333 10.1494 27.333 10.3333V24.3333C27.333 24.5173 27.4824 24.6667 27.6665 24.6667H37.6665C37.8503 24.6667 37.9998 24.5173 37.9998 24.3333V10.3333C37.9998 10.1494 37.8503 10 37.6665 10H27.6665Z" fill="white"/>
</g>
<defs>
<clipPath id="clip0_4865_30240">
<rect width="32" height="32" fill="white" transform="translate(8 8)"/>
</clipPath>
</defs>
</svg>
