<svg id="Create_WAN_Link_Template" data-name="Create WAN Link Template" xmlns="http://www.w3.org/2000/svg" width="36" height="36" viewBox="0 0 36 36">
  <rect id="Rectangle_3954" data-name="Rectangle 3954" width="36" height="36" rx="4" fill="#25b89d"/>
  <path id="link_1_" data-name="link (1)" d="M20.5,5.629a3.524,3.524,0,0,0-3.447,2.815H12.641a3.489,3.489,0,0,0-.755-1.534L14.136,4.1a2.084,2.084,0,0,0,.687.125,2.111,2.111,0,1,0-2.111-2.111,2.091,2.091,0,0,0,.323,1.109L10.788,6.029a3.378,3.378,0,0,0-3.187,0L5.353,3.22a2.091,2.091,0,0,0,.323-1.109A2.111,2.111,0,1,0,3.565,4.222,2.084,2.084,0,0,0,4.252,4.1L6.5,6.91a3.444,3.444,0,0,0,0,4.476l-1.344,1.68a3.473,3.473,0,0,0-1.594-.4,3.519,3.519,0,1,0,0,7.037,3.523,3.523,0,0,0,3.518-3.518,3.485,3.485,0,0,0-.826-2.238L7.6,12.267a3.311,3.311,0,0,0,2.685.209l2.945,5.154A2.091,2.091,0,0,0,12.713,19a2.138,2.138,0,1,0,1.737-2.073l-2.942-5.148a3.5,3.5,0,0,0,1.134-1.926h4.412A3.518,3.518,0,1,0,20.5,5.63Zm0,0" transform="translate(5.991 7.445)" fill="#fff"/>
</svg>
