<svg id="Create_WAN_Routing" data-name="Create WAN Routing" xmlns="http://www.w3.org/2000/svg" width="36" height="36" viewBox="0 0 36 36">
  <rect id="Rectangle_3954" data-name="Rectangle 3954" width="36" height="36" rx="4" fill="#168eea"/>
  <g id="route" transform="translate(0.388 -3.877)">
    <path id="Path_10615" data-name="Path 10615" d="M29.766,37.75H5.458A1.463,1.463,0,0,0,4,39.208v4.618a1.463,1.463,0,0,0,1.458,1.458H29.766a1.463,1.463,0,0,0,1.458-1.458V39.208a1.463,1.463,0,0,0-1.458-1.458ZM9.022,41.518a2.027,2.027,0,1,1,2.027,2.027,2.027,2.027,0,0,1-2.027-2.027Zm6.563,0a2.027,2.027,0,1,1,2.027,2.027,2.027,2.027,0,0,1-2.027-2.027Zm8.59,2.027A2.027,2.027,0,1,1,26.2,41.518a2.027,2.027,0,0,1-2.027,2.027Z" transform="translate(0 -13.855)" fill="#fff"/>
    <path id="Path_10616" data-name="Path 10616" d="M31.94,44.385a1.055,1.055,0,1,1-1.055-1.055,1.055,1.055,0,0,1,1.055,1.055Z" transform="translate(-13.273 -16.722)" fill="#fff"/>
    <path id="Path_10617" data-name="Path 10617" d="M45.44,44.385a1.055,1.055,0,1,1-1.055-1.055,1.055,1.055,0,0,1,1.055,1.055Z" transform="translate(-20.21 -16.722)" fill="#fff"/>
    <path id="Path_10618" data-name="Path 10618" d="M18.44,44.385a1.055,1.055,0,1,1-1.055-1.055,1.055,1.055,0,0,1,1.055,1.055Z" transform="translate(-6.336 -16.722)" fill="#fff"/>
    <path id="Path_10619" data-name="Path 10619" d="M31.91,28.08a1.58,1.58,0,1,1-1.58-1.58,1.58,1.58,0,0,1,1.58,1.58Z" transform="translate(-12.718 -8.074)" fill="#fff"/>
    <path id="Path_10620" data-name="Path 10620" d="M31.31,22a.485.485,0,0,1-.343-.141,3.915,3.915,0,0,0-5.505,0,.486.486,0,0,1-.686-.69,4.87,4.87,0,0,1,6.876,0A.49.49,0,0,1,31.31,22Z" transform="translate(-10.602 -4.606)" fill="#fff"/>
    <path id="Path_10621" data-name="Path 10621" d="M31.221,18.156a.485.485,0,0,1-.344-.142,6.118,6.118,0,0,0-8.6,0,.486.486,0,1,1-.687-.688,7.094,7.094,0,0,1,9.974,0,.489.489,0,0,1-.344.83Z" transform="translate(-8.966 -2.308)" fill="#fff"/>
    <path id="Path_10622" data-name="Path 10622" d="M31.133,14.3a.485.485,0,0,1-.343-.142,8.32,8.32,0,0,0-11.7,0,.486.486,0,1,1-.687-.689,9.3,9.3,0,0,1,13.069,0,.49.49,0,0,1-.343.83Z" transform="translate(-7.33)" fill="#fff"/>
  </g>
</svg>
