<svg xmlns="http://www.w3.org/2000/svg" width="48" height="48" viewBox="0 0 48 48">
  <g id="Group_11728" data-name="Group 11728" transform="translate(-799 -269)">
    <circle id="Ellipse_1" data-name="Ellipse 1" cx="24" cy="24" r="24" transform="translate(799 269)" fill="#e93030"/>
    <path id="Icon_awesome-times" data-name="Icon awesome-times" d="M15.928,14.05,22.5,7.483a2.064,2.064,0,0,0,0-2.919L21.036,3.1a2.064,2.064,0,0,0-2.919,0L11.55,9.671,4.983,3.1a2.064,2.064,0,0,0-2.919,0L.6,4.564a2.064,2.064,0,0,0,0,2.919L7.171,14.05.6,20.617a2.064,2.064,0,0,0,0,2.919L2.064,25a2.064,2.064,0,0,0,2.919,0l6.567-6.567L18.117,25a2.064,2.064,0,0,0,2.919,0L22.5,23.536a2.064,2.064,0,0,0,0-2.919Z" transform="translate(811.45 278.95)" fill="#fff"/>
  </g>
</svg>
