<svg width="294" height="209" viewBox="0 0 294 209" fill="none" xmlns="http://www.w3.org/2000/svg">
<rect x="165.269" y="38.3959" width="52.404" height="25.3388" stroke="black" stroke-width="3.33877"/>
<path d="M193.264 49.4414C193.264 49.0827 193.207 48.7702 193.093 48.504C192.984 48.2377 192.832 48.0176 192.636 47.8437C192.446 47.6644 192.221 47.5313 191.96 47.4443C191.699 47.3574 191.416 47.3139 191.112 47.3139C190.851 47.3139 190.596 47.3492 190.346 47.4199C190.096 47.4905 189.851 47.5883 189.612 47.7133C189.379 47.8383 189.15 47.9877 188.928 48.1616C188.71 48.3355 188.506 48.5284 188.316 48.7404V47.3057C188.691 46.9416 189.11 46.6645 189.571 46.4743C190.039 46.2787 190.607 46.1809 191.275 46.1809C191.753 46.1809 192.196 46.2515 192.604 46.3928C193.011 46.5286 193.365 46.7297 193.663 46.996C193.962 47.2623 194.196 47.591 194.364 47.9823C194.538 48.3736 194.625 48.8219 194.625 49.3273C194.625 49.7892 194.571 50.2076 194.462 50.5826C194.359 50.9575 194.199 51.3107 193.981 51.6422C193.769 51.9737 193.5 52.2916 193.174 52.5959C192.848 52.9002 192.465 53.21 192.025 53.5252C191.476 53.9164 191.022 54.2506 190.664 54.5278C190.311 54.8049 190.028 55.0658 189.816 55.3103C189.609 55.5494 189.463 55.7912 189.376 56.0358C189.294 56.2749 189.254 56.552 189.254 56.8672H195.074V58.0654H187.86V57.4867C187.86 56.9867 187.914 56.5466 188.023 56.1662C188.131 55.7858 188.311 55.4244 188.561 55.0821C188.811 54.7397 189.137 54.3974 189.539 54.055C189.946 53.7126 190.444 53.3268 191.031 52.8975C191.454 52.5932 191.808 52.3025 192.09 52.0253C192.378 51.7482 192.609 51.471 192.783 51.1939C192.957 50.9168 193.079 50.6369 193.15 50.3543C193.226 50.0663 193.264 49.762 193.264 49.4414Z" fill="black"/>
<circle cx="146.721" cy="19.8446" r="7.10142" fill="#101011" stroke="white" stroke-width="2.80674"/>
<circle cx="146.718" cy="19.8445" r="18.4411" stroke="black" stroke-width="2.80673"/>
<rect y="6.67773" width="56.6986" height="25.5144" rx="5.66986" fill="black"/>
<rect x="180.293" width="28.3493" height="28.3493" rx="2.83493" fill="#C59327"/>
<path d="M193.855 5.31641C194.128 4.844 194.81 4.84415 195.083 5.31641L202.449 18.0732C202.722 18.5457 202.381 19.1367 201.835 19.1367H187.104C186.559 19.1367 186.217 18.5457 186.49 18.0732L193.855 5.31641Z" fill="black" stroke="black" stroke-width="1.41747"/>
<rect x="93.9643" y="81.5473" width="85.0476" height="82.214" stroke="black" stroke-width="2.83493"/>
<rect x="123.731" y="91.4697" width="25.5144" height="45.3589" fill="#FFFEFF"/>
<path d="M157.751 108.48H169.09V153.839H103.887V108.48H115.228V99.9746H157.751V108.48Z" fill="#191718"/>
<rect x="106.722" y="119.819" width="5.66986" height="17.0096" fill="#FFFEFF"/>
<rect x="160.585" y="119.819" width="5.66986" height="17.0096" fill="#FFFEFF"/>
<rect x="118.062" y="133.994" width="2.83493" height="17.0096" fill="#888888"/>
<rect x="123.731" y="133.994" width="2.83493" height="17.0096" fill="#888888"/>
<rect x="129.401" y="133.994" width="2.83493" height="17.0096" fill="#888888"/>
<rect x="135.069" y="133.994" width="2.83493" height="17.0096" fill="#888888"/>
<rect x="140.742" y="133.994" width="2.83493" height="17.0096" fill="#888888"/>
<rect x="146.412" y="133.994" width="2.83493" height="17.0096" fill="#888888"/>
<rect x="152.081" y="133.994" width="2.83493" height="17.0096" fill="#888888"/>
<rect width="230.375" height="22" transform="translate(60.0977 186.971)" fill="#DD7488"/>
<path d="M148.052 204.482C147.188 204.938 146.112 205.166 144.824 205.166C143.161 205.166 141.83 204.631 140.83 203.561C139.83 202.49 139.33 201.085 139.33 199.346C139.33 197.477 139.892 195.966 141.017 194.814C142.142 193.662 143.569 193.086 145.297 193.086C146.405 193.086 147.324 193.246 148.052 193.567V195.026C147.215 194.559 146.291 194.325 145.28 194.325C143.938 194.325 142.848 194.773 142.012 195.67C141.18 196.567 140.764 197.765 140.764 199.265C140.764 200.689 141.153 201.824 141.93 202.672C142.713 203.514 143.737 203.935 145.003 203.935C146.177 203.935 147.193 203.675 148.052 203.153V204.482ZM154.687 205.166C153.029 205.166 151.701 204.62 150.701 203.528C149.706 202.436 149.209 201.015 149.209 199.265C149.209 197.385 149.717 195.885 150.733 194.765C151.75 193.646 153.133 193.086 154.882 193.086C156.496 193.086 157.795 193.63 158.779 194.716C159.768 195.803 160.262 197.224 160.262 198.98C160.262 200.887 159.757 202.395 158.746 203.503C157.735 204.612 156.382 205.166 154.687 205.166ZM154.785 194.325C153.557 194.325 152.559 194.768 151.793 195.654C151.027 196.54 150.644 197.702 150.644 199.143C150.644 200.583 151.016 201.743 151.761 202.623C152.51 203.498 153.486 203.935 154.687 203.935C155.969 203.935 156.98 203.517 157.719 202.68C158.458 201.843 158.828 200.672 158.828 199.167C158.828 197.624 158.469 196.431 157.752 195.589C157.034 194.746 156.045 194.325 154.785 194.325ZM171.984 204.971H170.305L164.289 195.654C164.137 195.42 164.012 195.176 163.914 194.92H163.865C163.909 195.17 163.93 195.705 163.93 196.526V204.971H162.561V193.282H164.338L170.191 202.452C170.435 202.832 170.593 203.093 170.663 203.234H170.696C170.642 202.898 170.614 202.324 170.614 201.515V193.282H171.984V204.971ZM178.04 200.781C178.04 202.167 177.747 203.245 177.16 204.017C176.573 204.783 175.788 205.166 174.804 205.166C174.348 205.166 173.973 205.101 173.679 204.971V203.618C173.973 203.83 174.353 203.935 174.821 203.935C176.054 203.935 176.671 202.889 176.671 200.797V193.282H178.04V200.781ZM189.656 204.971H188.14L186.901 201.694H181.945L180.779 204.971H179.255L183.738 193.282H185.156L189.656 204.971ZM186.452 200.463L184.618 195.483C184.559 195.32 184.499 195.059 184.439 194.7H184.406C184.352 195.032 184.29 195.292 184.219 195.483L182.401 200.463H186.452ZM197.448 204.971H191.384V193.282H192.753V203.732H197.448V204.971ZM200.611 204.971H199.242V193.282H200.611V204.971ZM211.762 204.971H210.091L207.401 200.496C207.32 200.36 207.23 200.167 207.132 199.917H207.1C207.045 200.042 206.953 200.235 206.822 200.496L204.051 204.971H202.372L206.284 199.094L202.682 193.282H204.361L206.749 197.39C206.907 197.662 207.045 197.933 207.165 198.205H207.197C207.371 197.846 207.523 197.564 207.654 197.357L210.14 193.282H211.713L208.037 199.077L211.762 204.971Z" fill="black"/>
<path d="M64.519 144.617H58.324V132.928H64.2581V134.167H59.6934V138.055H63.9158V139.286H59.6934V143.378H64.519V144.617ZM76.1916 144.617H74.5125L68.4968 135.3C68.3447 135.067 68.2197 134.822 68.1218 134.567H68.0729C68.1164 134.817 68.1382 135.352 68.1382 136.172V144.617H66.7687V132.928H68.5457L74.3983 142.098C74.6429 142.479 74.8005 142.74 74.8711 142.881H74.9037C74.8494 142.544 74.8222 141.971 74.8222 141.161V132.928H76.1916V144.617Z" fill="black"/>
<circle cx="68.6015" cy="161.833" r="8.50479" fill="#747578"/>
<rect x="218.689" y="38.3959" width="52.404" height="26.7101" stroke="black" stroke-width="3.33877"/>
<path d="M246.293 59.0654H244.956V48.966C244.853 49.0692 244.7 49.1888 244.499 49.3246C244.304 49.4551 244.081 49.5855 243.831 49.7159C243.586 49.8463 243.326 49.9686 243.048 50.0827C242.777 50.1968 242.51 50.2865 242.25 50.3517V48.9986C242.543 48.9171 242.853 48.8084 243.179 48.6725C243.51 48.5313 243.834 48.3764 244.149 48.2079C244.469 48.034 244.771 47.8547 245.054 47.6699C245.336 47.4797 245.581 47.295 245.787 47.1156H246.293V59.0654Z" fill="black"/>
<path d="M204.747 147.956H198.553V136.267H204.487V137.506H199.922V141.394H204.144V142.625H199.922V146.717H204.747V147.956ZM216.42 147.956H214.741L208.725 138.639C208.573 138.405 208.448 138.161 208.35 137.906H208.301C208.345 138.155 208.367 138.691 208.367 139.511V147.956H206.997V136.267H208.774L214.627 145.437C214.871 145.818 215.029 146.079 215.1 146.22H215.132C215.078 145.883 215.051 145.31 215.051 144.5V136.267H216.42V147.956Z" fill="black"/>
<circle cx="208.83" cy="165.171" r="8.50479" fill="#747578"/>
<rect x="223.697" y="123.534" width="56.6986" height="25.5144" rx="5.66986" fill="black"/>
<rect x="237.052" y="133.551" width="10.0163" height="3.33877" fill="#D9D9D9"/>
<rect x="257.085" y="133.551" width="10.0163" height="3.33877" fill="#D9D9D9"/>
<rect x="287.133" y="73.4521" width="6.67753" height="76.7916" fill="#DD7488"/>
</svg>
