<svg width="20" height="11" viewBox="0 0 20 11" fill="none" xmlns="http://www.w3.org/2000/svg">
<path d="M4.91054 4.44058H15.4892V6.40058H4.91054V4.44058ZM19.8972 4.44058V10.3193C19.9034 10.4426 19.8604 10.5634 19.7777 10.6551C19.6949 10.7468 19.5792 10.802 19.4559 10.8086H0.94387C0.820766 10.802 0.705257 10.747 0.622568 10.6556C0.539878 10.5642 0.496727 10.4437 0.502537 10.3206V4.44058C0.496363 4.31722 0.539351 4.19644 0.622079 4.10471C0.704806 4.01299 0.820524 3.9578 0.94387 3.95125H1.64254L5.03587 0.17525C5.07503 0.130205 5.12336 0.0940534 5.17763 0.0692177C5.2319 0.0443819 5.29085 0.0314367 5.35054 0.03125H15.0479C15.1071 0.0318147 15.1655 0.0449427 15.2193 0.0697657C15.2731 0.0945888 15.321 0.130542 15.3599 0.17525L18.7572 3.95125H19.4559C19.5792 3.9578 19.6949 4.01299 19.7777 4.10471C19.8604 4.19644 19.9034 4.31722 19.8972 4.44058ZM16.3692 3.95125C16.3754 3.82788 16.3324 3.7071 16.2497 3.61538C16.1669 3.52365 16.0512 3.46847 15.9279 3.46192H4.4612C4.33786 3.46847 4.22214 3.52365 4.13941 3.61538C4.05668 3.7071 4.0137 3.82788 4.01987 3.95125V6.88458C4.0137 7.00795 4.05668 7.12873 4.13941 7.22046C4.22214 7.31218 4.33786 7.36737 4.4612 7.37392H15.9279C16.0512 7.36737 16.1669 7.31218 16.2497 7.22046C16.3324 7.12873 16.3754 7.00795 16.3692 6.88458V3.95125Z" fill="#A5A5A9"/>
</svg>
