<svg width="1688" height="262" viewBox="0 0 1688 262" fill="none" xmlns="http://www.w3.org/2000/svg">
<g clip-path="url(#clip0_470_52481)">
<circle cx="931.53" cy="44.0489" r="20.959" fill="#959595" stroke="black" stroke-width="7.02416"/>
<path d="M942.987 46.9682H933.976V55.9569H931.01V46.9682H922.021V43.9794H931.01V34.9908H933.976V43.9794H942.987V46.9682Z" fill="black"/>
<circle cx="1274.12" cy="44.0469" r="20.959" fill="#959595" stroke="black" stroke-width="7.02416"/>
<path d="M1285.58 46.9663H1276.57V55.9549H1273.61V46.9663H1264.62V43.9775H1273.61V34.9889H1276.57V43.9775H1285.58V46.9663Z" fill="black"/>
<circle cx="588.935" cy="63.6249" r="20.959" fill="#959595" stroke="black" stroke-width="7.02416"/>
<path d="M600.394 66.5433H591.383V75.5319H588.416V66.5433H579.428V63.5545H588.416V54.5659H591.383V63.5545H600.394V66.5433Z" fill="black"/>
<circle cx="588.935" cy="164.773" r="20.959" fill="#959595" stroke="black" stroke-width="7.02416"/>
<path d="M600.394 167.691H591.383V176.68H588.416V167.691H579.428V164.702H588.416V155.714H591.383V164.702H600.394V167.691Z" fill="black"/>
<line x1="543.03" y1="0.000686707" x2="543.03" y2="130.513" stroke="black" stroke-width="2.80966"/>
<line x1="614.811" y1="140.302" x2="614.811" y2="270.814" stroke="black" stroke-width="2.80966"/>
<path d="M897.271 -2.10674L897.271 261.025" stroke="black" stroke-width="2.80966"/>
<line x1="1237.49" y1="-7.02374" x2="1237.49" y2="261.299" stroke="black" stroke-width="2.80966"/>
<rect x="9.78809" y="9.78995" width="81.5701" height="140.301" fill="#F5F5F5"/>
<circle cx="52.2039" cy="55.468" r="21.4348" fill="#D9D9D9" stroke="black" stroke-width="2.80966"/>
<circle cx="52.2043" cy="55.4678" r="6.52561" fill="black"/>
<rect x="9.78809" y="219.515" width="482.895" height="35.8909" rx="9.78841" fill="#F5F5F5"/>
<circle cx="639.509" cy="35.8911" r="9.78841" fill="#131313"/>
<circle cx="639.509" cy="55.4677" r="9.78841" fill="#131313"/>
<circle cx="685.188" cy="35.8911" r="9.78841" fill="#131313"/>
<circle cx="685.188" cy="55.4677" r="9.78841" fill="#131313"/>
<circle cx="662.348" cy="35.8911" r="9.78841" fill="#131313"/>
<circle cx="662.348" cy="55.4677" r="9.78841" fill="#131313"/>
<circle cx="708.028" cy="35.8911" r="9.78841" fill="#131313"/>
<circle cx="708.028" cy="55.4677" r="9.78841" fill="#131313"/>
<circle cx="730.867" cy="35.8911" r="9.78841" fill="#131313"/>
<circle cx="730.867" cy="55.4677" r="9.78841" fill="#131313"/>
<circle cx="789.598" cy="35.8911" r="9.78841" fill="#131313"/>
<circle cx="789.598" cy="55.4677" r="9.78841" fill="#131313"/>
<circle cx="835.277" cy="35.8911" r="9.78841" fill="#131313"/>
<circle cx="835.277" cy="55.4677" r="9.78841" fill="#131313"/>
<circle cx="812.438" cy="35.8911" r="9.78841" fill="#131313"/>
<circle cx="812.438" cy="55.4677" r="9.78841" fill="#131313"/>
<circle cx="858.117" cy="35.8911" r="9.78841" fill="#131313"/>
<circle cx="858.117" cy="55.4677" r="9.78841" fill="#131313"/>
<circle cx="880.957" cy="35.8911" r="9.78841" fill="#131313"/>
<circle cx="880.957" cy="55.4677" r="9.78841" fill="#131313"/>
<circle cx="639.509" cy="75.0439" r="9.78841" fill="#131313"/>
<circle cx="639.509" cy="94.6207" r="9.78841" fill="#131313"/>
<circle cx="685.188" cy="75.0441" r="9.78841" fill="#131313"/>
<circle cx="685.188" cy="94.6207" r="9.78841" fill="#131313"/>
<circle cx="662.348" cy="75.0441" r="9.78841" fill="#131313"/>
<circle cx="662.348" cy="94.6207" r="9.78841" fill="#131313"/>
<circle cx="708.028" cy="75.0441" r="9.78841" fill="#131313"/>
<circle cx="708.028" cy="94.6207" r="9.78841" fill="#131313"/>
<circle cx="730.867" cy="75.0441" r="9.78841" fill="#131313"/>
<circle cx="730.867" cy="94.6207" r="9.78841" fill="#131313"/>
<circle cx="789.598" cy="75.0439" r="9.78841" fill="#131313"/>
<circle cx="789.598" cy="94.6207" r="9.78841" fill="#131313"/>
<circle cx="835.277" cy="75.0441" r="9.78841" fill="#131313"/>
<circle cx="835.277" cy="94.6207" r="9.78841" fill="#131313"/>
<circle cx="812.438" cy="75.0441" r="9.78841" fill="#131313"/>
<circle cx="812.438" cy="94.6207" r="9.78841" fill="#131313"/>
<circle cx="858.117" cy="75.0441" r="9.78841" fill="#131313"/>
<circle cx="858.117" cy="94.6207" r="9.78841" fill="#131313"/>
<circle cx="880.957" cy="75.0441" r="9.78841" fill="#131313"/>
<circle cx="880.957" cy="94.6207" r="9.78841" fill="#131313"/>
<circle cx="639.509" cy="114.197" r="9.78841" fill="#131313"/>
<circle cx="639.509" cy="133.775" r="9.78841" fill="#131313"/>
<circle cx="685.188" cy="114.197" r="9.78841" fill="#131313"/>
<circle cx="685.188" cy="133.775" r="9.78841" fill="#131313"/>
<circle cx="662.348" cy="114.197" r="9.78841" fill="#131313"/>
<circle cx="662.348" cy="133.775" r="9.78841" fill="#131313"/>
<circle cx="708.028" cy="114.197" r="9.78841" fill="#131313"/>
<circle cx="708.028" cy="133.775" r="9.78841" fill="#131313"/>
<circle cx="730.867" cy="114.197" r="9.78841" fill="#131313"/>
<circle cx="730.867" cy="133.775" r="9.78841" fill="#131313"/>
<circle cx="789.598" cy="114.197" r="9.78841" fill="#131313"/>
<circle cx="789.598" cy="133.775" r="9.78841" fill="#131313"/>
<circle cx="835.277" cy="114.197" r="9.78841" fill="#131313"/>
<circle cx="835.277" cy="133.775" r="9.78841" fill="#131313"/>
<circle cx="812.438" cy="114.197" r="9.78841" fill="#131313"/>
<circle cx="812.438" cy="133.775" r="9.78841" fill="#131313"/>
<circle cx="858.117" cy="114.197" r="9.78841" fill="#131313"/>
<circle cx="858.117" cy="133.775" r="9.78841" fill="#131313"/>
<circle cx="880.957" cy="114.197" r="9.78841" fill="#131313"/>
<circle cx="880.957" cy="133.775" r="9.78841" fill="#131313"/>
<circle cx="639.509" cy="150.089" r="9.78841" fill="#131313"/>
<circle cx="639.509" cy="169.665" r="9.78841" fill="#131313"/>
<circle cx="685.188" cy="150.089" r="9.78841" fill="#131313"/>
<circle cx="685.188" cy="169.665" r="9.78841" fill="#131313"/>
<circle cx="662.348" cy="150.089" r="9.78841" fill="#131313"/>
<circle cx="662.348" cy="169.665" r="9.78841" fill="#131313"/>
<circle cx="708.028" cy="150.089" r="9.78841" fill="#131313"/>
<circle cx="708.028" cy="169.665" r="9.78841" fill="#131313"/>
<circle cx="730.867" cy="150.089" r="9.78841" fill="#131313"/>
<circle cx="730.867" cy="169.665" r="9.78841" fill="#131313"/>
<circle cx="750.445" cy="150.089" r="9.78841" fill="#131313"/>
<circle cx="750.445" cy="114.197" r="9.78841" fill="#131313"/>
<circle cx="770.021" cy="150.089" r="9.78841" fill="#131313"/>
<circle cx="770.021" cy="114.197" r="9.78841" fill="#131313"/>
<circle cx="750.445" cy="169.665" r="9.78841" fill="#131313"/>
<circle cx="750.445" cy="133.775" r="9.78841" fill="#131313"/>
<circle cx="770.021" cy="169.665" r="9.78841" fill="#131313"/>
<circle cx="770.021" cy="133.775" r="9.78841" fill="#131313"/>
<circle cx="789.598" cy="150.09" r="9.78841" fill="#131313"/>
<circle cx="789.598" cy="169.668" r="9.78841" fill="#131313"/>
<circle cx="835.277" cy="150.09" r="9.78841" fill="#131313"/>
<circle cx="835.277" cy="169.668" r="9.78841" fill="#131313"/>
<circle cx="812.438" cy="150.09" r="9.78841" fill="#131313"/>
<circle cx="812.438" cy="169.668" r="9.78841" fill="#131313"/>
<circle cx="858.117" cy="150.09" r="9.78841" fill="#131313"/>
<circle cx="858.117" cy="169.668" r="9.78841" fill="#131313"/>
<circle cx="880.957" cy="150.09" r="9.78841" fill="#131313"/>
<circle cx="880.957" cy="169.668" r="9.78841" fill="#131313"/>
<circle cx="760.233" cy="68.5199" r="14.9092" fill="#D9D9D9" stroke="black" stroke-width="2.80966"/>
</g>
<defs>
<clipPath id="clip0_470_52481">
<rect width="1687.75" height="261.288" rx="52.2049" fill="white"/>
</clipPath>
</defs>
</svg>
