<svg xmlns="http://www.w3.org/2000/svg" xmlns:xlink="http://www.w3.org/1999/xlink" width="171" height="156" viewBox="0 0 171 156">
  <defs>
    <clipPath id="clip-path">
      <rect id="Rectangle_5702" data-name="Rectangle 5702" width="171" height="156" fill="#fff"/>
    </clipPath>
    <clipPath id="clip-path-2">
      <rect id="Rectangle_5701" data-name="Rectangle 5701" width="145.452" height="132" transform="translate(-0.777 24)" fill="#fff"/>
    </clipPath>
  </defs>
  <g id="Error" clip-path="url(#clip-path)">
    <path id="Path_11552" data-name="Path 11552" d="M84.5,151A75.5,75.5,0,1,0,9,75.5,75.5,75.5,0,0,0,84.5,151Z" fill="#f3f6fb"/>
    <g id="Group_13135" data-name="Group 13135" clip-path="url(#clip-path-2)">
      <path id="Path_11553" data-name="Path 11553" d="M121.761,34.476C116.716,28.3,108.788,25,100.868,24.067c-3.363-.4-5.465.185-8.7,1.059a14.133,14.133,0,0,0-8.1,5.356,23.99,23.99,0,0,0-4.658,10.871,66.427,66.427,0,0,0-.589,12.25,22.314,22.314,0,0,0,3.817,11.5l10.392,1.774c5.734.193,11.552.387,17.143-.925s11.023-4.313,14.016-9.248C128.344,49.971,126.806,40.647,121.761,34.476Z" fill="#263238"/>
      <path id="Path_11554" data-name="Path 11554" d="M86.088,71.15a2.25,2.25,0,0,1-.622.547,5.188,5.188,0,0,1-2.135.723,5.4,5.4,0,0,1-2.783-10.308,5.087,5.087,0,0,1,2.211-.454,1.632,1.632,0,0,1,.841.16,7.809,7.809,0,0,0-2.833.689,5.381,5.381,0,0,0-2.211,2.127,5.12,5.12,0,0,0,1.791,6.625,5.431,5.431,0,0,0,2.976.723A7.8,7.8,0,0,0,86.088,71.15Z" fill="#407bff"/>
      <path id="Path_11555" data-name="Path 11555" d="M131.64,63.407a7.751,7.751,0,0,0-3.514-5.885,5.582,5.582,0,0,0-6.558.563l-1.64,1.951a6.729,6.729,0,0,0-3.851,6.726,7.335,7.335,0,0,0,5.095,6.011,8.14,8.14,0,0,0,7.744-1.875,9.108,9.108,0,0,0,2.724-7.491Z" fill="#263238"/>
      <path id="Path_11556" data-name="Path 11556" d="M129.58,70.41a3.463,3.463,0,0,0,.555-2.068,9.384,9.384,0,0,0-2.371-4.666,14.024,14.024,0,0,0-4.162-3.363c-1.219-.656-2.06-.891-2.035-.975a5.7,5.7,0,0,1,2.186.647,12.546,12.546,0,0,1,4.4,3.363,12.06,12.06,0,0,1,1.681,2.522,5.631,5.631,0,0,1,.664,2.43,2.916,2.916,0,0,1-.462,1.681C129.807,70.318,129.6,70.436,129.58,70.41Z" fill="#455a64"/>
      <path id="Path_11557" data-name="Path 11557" d="M124.553,73.479a22.728,22.728,0,0,0-.462-6.861,25.152,25.152,0,0,0-2.96-6.2,5.378,5.378,0,0,1,1.379,1.539,14.5,14.5,0,0,1,2.077,4.54A14.347,14.347,0,0,1,125,71.461,5.5,5.5,0,0,1,124.553,73.479Z" fill="#455a64"/>
      <path id="Path_11558" data-name="Path 11558" d="M93.033,83.77c.067-3.649.151-6.634.151-6.617s-8.475-.933-10.812-11.771c-1.16-5.4-1.379-14.343-1.32-21.667.05-6.6,5.667-15.579,13.805-15.6l3.624-.42L112.328,33.2a3.851,3.851,0,0,1,3.658,3.716L116.036,84l-13.83,34.471-8.795-15.714Z" fill="#ffbe9d"/>
      <path id="Path_11559" data-name="Path 11559" d="M98.655,63.134A2.726,2.726,0,0,0,94.425,61.3a3.657,3.657,0,0,0-1.387,3.424A3.327,3.327,0,0,0,95.415,66.1a3.426,3.426,0,0,0,.446,0,2.911,2.911,0,0,0,2.008-.8,2.629,2.629,0,0,0,.786-2.173Z" fill="#eb996e"/>
      <path id="Path_11560" data-name="Path 11560" d="M84.246,52.241a1.4,1.4,0,0,0,1.429,1.345,1.345,1.345,0,0,0,1.379-1.345A1.4,1.4,0,0,0,85.625,50.9a1.345,1.345,0,0,0-1.379,1.345Z" fill="#263238"/>
      <path id="Path_11561" data-name="Path 11561" d="M83.749,47.76c.177.177,1.2-.673,2.716-.748s2.657.614,2.808.42-.118-.4-.614-.732a3.826,3.826,0,0,0-2.27-.563,3.742,3.742,0,0,0-2.152.841C83.792,47.348,83.657,47.684,83.749,47.76Z" fill="#263238"/>
      <path id="Path_11562" data-name="Path 11562" d="M93.242,59.211a10.344,10.344,0,0,0-2.48-.311c-.387,0-.757-.076-.841-.328a1.959,1.959,0,0,1,.193-1.16q.462-1.438.984-3c1.354-4.271,2.312-7.777,2.136-7.828s-1.412,3.363-2.766,7.634l-.925,3.018a2.169,2.169,0,0,0-.118,1.522.95.95,0,0,0,.664.53,2.367,2.367,0,0,0,.656.059A9.812,9.812,0,0,0,93.242,59.211Z" fill="#263238"/>
      <path id="Path_11563" data-name="Path 11563" d="M93.184,77.153a27.864,27.864,0,0,0,14.453-4.717s-3.489,7.811-14.512,7.382Z" fill="#eb996e"/>
      <path id="Path_11564" data-name="Path 11564" d="M91.639,65.832c.28.131,1.084-1.846,3.264-2.511s4.176.324,4.307.068c.054-.116-.316-.559-1.175-.936a5.179,5.179,0,0,0-3.547-.16,4.5,4.5,0,0,0-2.611,2.145C91.479,65.216,91.509,65.783,91.639,65.832Z" fill="#263238"/>
      <path id="Path_11565" data-name="Path 11565" d="M84.112,42.329c.286.328,1.312-.084,2.522-.168s2.329.1,2.522-.269c.092-.185-.092-.521-.572-.841a3.733,3.733,0,0,0-4.12.353C84.112,41.807,83.986,42.169,84.112,42.329Z" fill="#263238"/>
      <path id="Path_11566" data-name="Path 11566" d="M100.859,51.518a1.4,1.4,0,0,1-1.337,1.438,1.345,1.345,0,0,1-1.471-1.236,1.412,1.412,0,0,1,1.337-1.446,1.337,1.337,0,0,1,1.471,1.244Z" fill="#263238"/>
      <path id="Path_11567" data-name="Path 11567" d="M104.458,47.222c-.168.185-1.253-.589-2.766-.555s-2.606.841-2.775.622.093-.412.572-.773a3.824,3.824,0,0,1,2.211-.731,3.751,3.751,0,0,1,2.212.673C104.382,46.81,104.542,47.138,104.458,47.222Z" fill="#263238"/>
      <path id="Path_11568" data-name="Path 11568" d="M103.374,44.178c-.261.353-1.312,0-2.565,0s-2.312.269-2.522-.084c-.118-.177.05-.521.5-.841a3.607,3.607,0,0,1,2.076-.6,3.558,3.558,0,0,1,2.035.681C103.34,43.691,103.491,44.044,103.374,44.178Z" fill="#263238"/>
      <path id="Path_11569" data-name="Path 11569" d="M116,52.368l-1.892,1.967c-8.189-7.844-24.2-27.468-23.306-26.3a23.778,23.778,0,0,1,11.7-1.27c6.087,1.034,17.656,4.078,17.462,11.266S116,52.368,116,52.368Z" fill="#263238"/>
      <path id="Path_11570" data-name="Path 11570" d="M121.483,58.572a13.539,13.539,0,0,1-.075-1.732,26.485,26.485,0,0,0-.622-4.658,31.957,31.957,0,0,0-7.063-13.637,50.721,50.721,0,0,0-11.972-9.828c-1.682-1.043-3.111-1.824-4.087-2.363a11.675,11.675,0,0,1-1.5-.841,1.339,1.339,0,0,1,.42.151c.269.126.673.294,1.177.546,1.009.479,2.447,1.228,4.2,2.228a47.761,47.761,0,0,1,12.174,9.8,31.066,31.066,0,0,1,7.029,13.9,23.359,23.359,0,0,1,.471,4.725c0,.563-.051,1-.068,1.295A1.614,1.614,0,0,1,121.483,58.572Z" fill="#455a64"/>
      <path id="Path_11571" data-name="Path 11571" d="M100.86,25.043a1.5,1.5,0,0,1,.438.143c.277.1.689.277,1.2.513,1.042.462,2.522,1.177,4.305,2.169a64.706,64.706,0,0,1,6.045,3.826,37.3,37.3,0,0,1,6.6,5.785,16.757,16.757,0,0,1,2.522,3.842,15.816,15.816,0,0,1,1.228,4.086,24.834,24.834,0,0,1,0,7.172,46.684,46.684,0,0,1-.908,4.733c-.127.555-.244.975-.32,1.27a1.55,1.55,0,0,1-.151.429,12.041,12.041,0,0,1,.277-1.74c.2-1.118.513-2.732.74-4.742a25.542,25.542,0,0,0-.084-7.046,15.5,15.5,0,0,0-1.219-3.951,16.365,16.365,0,0,0-2.43-3.725,37.854,37.854,0,0,0-6.482-5.726,70.689,70.689,0,0,0-6-3.876c-1.749-1.026-3.2-1.782-4.2-2.3A14.808,14.808,0,0,1,100.86,25.043Z" fill="#455a64"/>
      <path id="Path_11572" data-name="Path 11572" d="M116.153,52.586a7.431,7.431,0,0,1-.975-.95l-2.522-2.7c-2.111-2.287-4.994-5.482-8.164-9.021s-6.011-6.777-8.055-9.131l-2.4-2.808A7.053,7.053,0,0,1,93.2,26.9a6.591,6.591,0,0,1,.967.942l2.522,2.7c2.11,2.3,5.044,5.482,8.163,9.03s6.02,6.777,8.055,9.131l2.4,2.808A6.852,6.852,0,0,1,116.153,52.586Z" fill="#455a64"/>
      <path id="Path_11573" data-name="Path 11573" d="M114.388,55.529c0-.841.841-2.791,1.589-2.968,2.136-.454,6.02-.488,6.356,4.969C122.8,65,115.2,63.92,115.178,63.7S114.539,58.345,114.388,55.529Z" fill="#eb996e"/>
      <path id="Path_11574" data-name="Path 11574" d="M116.792,60.632a3.562,3.562,0,0,0,.362.168,1.3,1.3,0,0,0,.967,0,3.206,3.206,0,0,0,1.311-2.976,4.209,4.209,0,0,0-.479-1.841,1.478,1.478,0,0,0-1.034-.933.672.672,0,0,0-.748.4c-.085.219,0,.361-.068.378s-.168-.109-.126-.429a.839.839,0,0,1,.261-.479.964.964,0,0,1,.714-.235,1.835,1.835,0,0,1,1.43,1.076,4.463,4.463,0,0,1,.571,2.051c.051,1.5-.639,2.959-1.681,3.363a1.412,1.412,0,0,1-1.2-.126C116.817,60.809,116.767,60.641,116.792,60.632Z" fill="#844949"/>
      <path id="Path_11575" data-name="Path 11575" d="M115.825,71.781a2.246,2.246,0,0,0,.622.547,5.188,5.188,0,0,0,2.144.723,5.395,5.395,0,0,0,2.774-10.308,5.083,5.083,0,0,0-2.211-.454,1.486,1.486,0,0,0-.841.16,7.812,7.812,0,0,1,2.834.689,5.358,5.358,0,0,1,2.2,2.127,4.957,4.957,0,0,1,.387,3.657,5.046,5.046,0,0,1-2.177,2.968,5.365,5.365,0,0,1-2.977.723A7.884,7.884,0,0,1,115.825,71.781Z" fill="#407bff"/>
      <path id="Path_11576" data-name="Path 11576" d="M81.043,86.343S67.4,91.144,65.909,99.677s-8.475,39.2-8.475,39.2l-41.2,5.339,4.792,11.14s46.343,2.345,48.5,0S81.043,86.343,81.043,86.343Z" fill="#90caf9"/>
      <path id="Path_11577" data-name="Path 11577" d="M122.812,165.526a70.346,70.346,0,0,0-2.295-8.685l6.9-52.22,4.792-17.4-15.437-4.2c-5.666,8.719-22.305,9.425-24.71,0L81.043,86.343s-16.227,29.368-15.47,39.625c.841,11.249-2.749,29.427-2.749,29.427s-.4,5.994,3.767,8.8Z" fill="#90caf9"/>
      <path id="Path_11578" data-name="Path 11578" d="M132.212,87.2s8.685,4.515,10.736,13.041c1.48,6.137,3.246,44.325,0,50.958s-5.793,10.855-12.788,12.04-50.059-.58-50.059-.58l-2.312-16.63,45.981-6.844s1.152-34.211,1.682-36.582" fill="#90caf9"/>
      <path id="Path_11579" data-name="Path 11579" d="M116.776,83.072s.748-3.54,0-3.868-24.963.664-25.131,1.488a24.435,24.435,0,0,0,0,3.565s2.648,6.541,8.736,7S116.456,85.435,116.776,83.072Z" fill="#90caf9"/>
      <path id="Path_11580" data-name="Path 11580" d="M72.634,148.147l-11.972-.84L54.92,151.2l-4.944,6.659a1.681,1.681,0,0,0,2.068.563L50.2,160.65a1.651,1.651,0,0,0,.413.523,1.634,1.634,0,0,0,1.882.149l-1.135,1.757a2.966,2.966,0,0,0,3.439-1.2,44.533,44.533,0,0,1,3.842-4.75l4.38-1.455-4.271,4.246-2.371,3.767s.429,1.185,1.295.639a28.367,28.367,0,0,0,3.254-3.506l5.045-3.212s3.565,1.614,4.675,1.631,4.7-2.278,4.7-2.278l3.414,2.261-.917-11.913Z" fill="#a8605d"/>
      <path id="Path_11581" data-name="Path 11581" d="M50.171,160.607a10.633,10.633,0,0,0,1.463-1.681c.841-1.085,2.018-2.6,3.279-4.3l1.2-1.623-.059.05c1.379-.84,2.573-1.589,3.405-2.135a6.893,6.893,0,0,0,1.295-.933,6.9,6.9,0,0,0-1.429.7c-.841.48-2.093,1.178-3.5,2L54.61,154.31c-1.261,1.682-2.379,3.237-3.17,4.372A10.716,10.716,0,0,0,50.171,160.607Z" fill="#844949"/>
      <path id="Path_11582" data-name="Path 11582" d="M51.616,162.617a9.6,9.6,0,0,0,1.278-1.581c.74-1.009,1.749-2.421,2.833-4l1.068-1.58-.084.075a33.924,33.924,0,0,0,4.448-2.345,34.891,34.891,0,0,0-4.633,1.959h-.05v.05l-1.085,1.564c-1.084,1.572-2.043,3.018-2.724,4.077A8.835,8.835,0,0,0,51.616,162.617Z" fill="#844949"/>
      <path id="Path_11583" data-name="Path 11583" d="M123.082,163.449a.622.622,0,0,0-.2,0h-.622l-2.4-.067-9.03-.185-31.663-.53.193.185c-.42-5.212-.883-10.879-1.362-16.815l-.185.235,11.073-1.681,34.908-5.23h.169v-.176a225.04,225.04,0,0,1,.445-26.535c.252-3.2.53-5.708.723-7.415.1-.841.177-1.488.227-1.951a1.253,1.253,0,0,1,.059-.5c.059-.126,0-.168,0-.168v.159a4.983,4.983,0,0,1-.084.5c-.067.454-.16,1.11-.286,1.942-.227,1.681-.538,4.2-.841,7.415a213.129,213.129,0,0,0-.622,26.552l.16-.194-34.917,5.171-11.073,1.682h-.193v.2c.488,5.886.959,11.578,1.4,16.816v.176h.185l31.672.37,9.03.076h3.237Z" fill="#263238"/>
      <path id="Path_11584" data-name="Path 11584" d="M91.646,80.693a5.375,5.375,0,0,0-.109,1.2v1.421a5.045,5.045,0,0,0,.37,1.883,3.952,3.952,0,0,0,2.026,1.186,23.72,23.72,0,0,0,2.564.538,34.7,34.7,0,0,0,5.953.462A36.994,36.994,0,0,0,113.161,85.7a9.25,9.25,0,0,0,2.968-1.429,4.463,4.463,0,0,0,.656-.614.924.924,0,0,0,.185-.261,7.046,7.046,0,0,1-.942.74,10.083,10.083,0,0,1-2.959,1.27,40.422,40.422,0,0,1-10.619,1.513,36.995,36.995,0,0,1-5.886-.42,24.381,24.381,0,0,1-2.522-.5,5.038,5.038,0,0,1-1.068-.4,3.064,3.064,0,0,1-.454-.269,1.126,1.126,0,0,1-.336-.319,5.2,5.2,0,0,1-.4-1.749c-.05-.538-.076-1.009-.092-1.4A8.051,8.051,0,0,0,91.646,80.693Z" fill="#263238"/>
      <path id="Path_11585" data-name="Path 11585" d="M112.823,85.653a4.92,4.92,0,0,0,1.245-3.077,4.857,4.857,0,0,0-.606-3.271,18.64,18.64,0,0,1,.169,3.229A19.288,19.288,0,0,1,112.823,85.653Z" fill="#263238"/>
      <path id="Path_11586" data-name="Path 11586" d="M107.838,79.331c-.134,0,.152,1.682.093,3.691s-.412,3.657-.286,3.691A11.188,11.188,0,0,0,107.838,79.331Z" fill="#263238"/>
      <path id="Path_11587" data-name="Path 11587" d="M101.55,87.057a15.9,15.9,0,0,0,.168-3.666,16.134,16.134,0,0,0-.269-3.657,14.806,14.806,0,0,0-.168,3.666A15.523,15.523,0,0,0,101.55,87.057Z" fill="#263238"/>
      <path id="Path_11588" data-name="Path 11588" d="M94.672,80.331a6.727,6.727,0,0,0-.16,3.262,6.617,6.617,0,0,0,1.068,3.086c.126-.05-.387-1.4-.631-3.145S94.807,80.331,94.672,80.331Z" fill="#263238"/>
      <path id="Path_11589" data-name="Path 11589" d="M73.476,132.879a6.147,6.147,0,0,0-.092-1.177c-.092-.757-.261-1.841-.454-3.178a38.512,38.512,0,0,1-.463-10.51A61.684,61.684,0,0,1,74.653,107.7c.353-1.244.647-2.278.883-3.094a7.09,7.09,0,0,0,.277-1.143,5.436,5.436,0,0,0-.437,1.093c-.252.714-.614,1.757-1.017,3.052a53.067,53.067,0,0,0-2.329,10.366,35.378,35.378,0,0,0,.589,10.6c.244,1.27.437,2.329.6,3.153A5.882,5.882,0,0,0,73.476,132.879Z" fill="#263238"/>
      <path id="Path_11590" data-name="Path 11590" d="M72.636,169.629a1.684,1.684,0,0,1-.227-.4c-.151-.319-.328-.714-.555-1.194-.488-1.109-1.152-2.6-1.951-4.414-1.631-3.741-3.834-8.928-6.213-14.679s-4.507-11-5.936-14.8c-.723-1.908-1.3-3.455-1.681-4.531-.168-.5-.3-.909-.42-1.245a1.675,1.675,0,0,1-.118-.445,1.357,1.357,0,0,1,.21.412l.5,1.21,1.816,4.473c1.581,3.834,3.708,9.022,6.053,14.747s4.507,10.93,6.087,14.73c.74,1.842,1.354,3.363,1.816,4.482l.471,1.227A1.628,1.628,0,0,1,72.636,169.629Z" fill="#455a64"/>
      <path id="Path_11591" data-name="Path 11591" d="M42.443,147.517a2.381,2.381,0,1,1-.179-.913A2.388,2.388,0,0,1,42.443,147.517Z" fill="#fff"/>
    </g>
    <path id="Path_11592" data-name="Path 11592" d="M132.354,149.99H74.537a1.741,1.741,0,0,0-1.741,1.741v2.134a1.741,1.741,0,0,0,1.741,1.741h57.817a1.741,1.741,0,0,0,1.741-1.741v-2.134A1.74,1.74,0,0,0,132.354,149.99Z" fill="#ccc"/>
    <path id="Path_11593" data-name="Path 11593" d="M99.546,155.608H27.64a5.247,5.247,0,0,1-4.98-3.594l-.816-2.461L7.375,106.032a5.251,5.251,0,0,1,4.984-6.908H86.483a5.25,5.25,0,0,1,5.05,3.815L104.6,148.921a5.1,5.1,0,0,1,.138.632,5.25,5.25,0,0,1-5.189,6.055Z" fill="#e0e0e0"/>
    <path id="Path_11594" data-name="Path 11594" d="M51.281,129.049c-1.773.321-3.61-1.631-4.108-4.364s.538-5.207,2.31-5.532,3.614,1.635,4.11,4.364S53.054,128.724,51.281,129.049Z" fill="#ccc"/>
    <path id="Path_11595" data-name="Path 11595" d="M99.744,156H27.8a5.246,5.246,0,0,1-4.983-3.561L22,150h82.936A5.219,5.219,0,0,1,99.744,156Z" fill="#e0e0e0"/>
    <path id="Path_11596" data-name="Path 11596" d="M37.67,85.341A14.67,14.67,0,1,0,23,70.67,14.67,14.67,0,0,0,37.67,85.341Z" fill="rgba(233,48,48,0.76)"/>
    <path id="Path_11597" data-name="Path 11597" d="M40.915,70.984a.446.446,0,0,1,0-.631l3.914-3.914a.446.446,0,0,0,0-.631l-2.3-2.3a.446.446,0,0,0-.631,0l-3.914,3.914a.446.446,0,0,1-.631,0l-3.914-3.914a.446.446,0,0,0-.631,0l-2.3,2.3a.446.446,0,0,0,0,.631l3.915,3.914a.446.446,0,0,1,0,.631L30.515,74.9a.447.447,0,0,0,0,.631l2.3,2.3a.447.447,0,0,0,.631,0l3.914-3.914a.446.446,0,0,1,.631,0L41.9,77.826a.446.446,0,0,0,.631,0l2.3-2.3a.446.446,0,0,0,0-.631Z" fill="#fff"/>
    <path id="Path_11598" data-name="Path 11598" d="M131.5,32.761v8.9a3.079,3.079,0,0,0,3.079,3.079h19.756a11.977,11.977,0,0,0,0-23.953H143.479A11.975,11.975,0,0,0,131.5,32.761Z" fill="rgba(233,48,48,0.76)"/>
    <path id="Path_11599" data-name="Path 11599" d="M143.328,37.233a1.236,1.236,0,0,1,.425-.965,1.681,1.681,0,0,1,2.122,0,1.307,1.307,0,0,1,0,1.929,1.681,1.681,0,0,1-2.122,0A1.236,1.236,0,0,1,143.328,37.233Zm2.589-2.463h-2.168l-.341-7.9h2.852l-.341,7.9Z" fill="#fff"/>
    <path id="Path_11600" data-name="Path 11600" d="M149.732,34.772a5.159,5.159,0,0,1,.263-1.831,2.851,2.851,0,0,1,.85-1.163,5.781,5.781,0,0,0,.9-.9,1.471,1.471,0,0,0,.3-.9q0-1.2-1.033-1.2a.962.962,0,0,0-.771.349,1.48,1.48,0,0,0-.308.945h-2.686a3.206,3.206,0,0,1,1-2.475,3.993,3.993,0,0,1,2.764-.886,4.13,4.13,0,0,1,2.743.818,2.875,2.875,0,0,1,.973,2.329,2.7,2.7,0,0,1-.263,1.2,4.035,4.035,0,0,1-.842,1.105l-.913.85a2.164,2.164,0,0,0-.539.766,3.027,3.027,0,0,0-.167,1h-2.272Zm-.325,2.415a1.236,1.236,0,0,1,.425-.965,1.681,1.681,0,0,1,2.122,0,1.305,1.305,0,0,1,0,1.929,1.681,1.681,0,0,1-2.122,0A1.236,1.236,0,0,1,149.407,37.187Z" fill="#fff"/>
    <path id="Path_11601" data-name="Path 11601" d="M146.825,77.523a3.269,3.269,0,0,1-2.832-4.9l10.553-18.282a3.271,3.271,0,0,1,5.664,0l10.554,18.282a3.269,3.269,0,0,1-2.832,4.9H146.825Z" fill="#e0e0e0"/>
    <path id="Path_11602" data-name="Path 11602" d="M156.094,70.933a1.067,1.067,0,0,1,.367-.834,1.455,1.455,0,0,1,1.833,0,1.132,1.132,0,0,1,0,1.669,1.455,1.455,0,0,1-1.833,0A1.064,1.064,0,0,1,156.094,70.933Zm2.236-2.126h-1.873l-.295-6.827h2.463Z" fill="#fff"/>
    <path id="Path_11603" data-name="Path 11603" d="M130.723,65.922a1.653,1.653,0,0,1-1.431-2.479l5.333-9.238a1.651,1.651,0,0,1,2.861,0l5.333,9.238a1.653,1.653,0,0,1-1.43,2.479H130.723Z" fill="#e0e0e0"/>
    <path id="Path_11604" data-name="Path 11604" d="M135.407,62.591a.541.541,0,0,1,.185-.421.734.734,0,0,1,.926,0,.535.535,0,0,1,.185.421.541.541,0,0,1-.185.421.734.734,0,0,1-.926,0A.535.535,0,0,1,135.407,62.591Zm1.131-1.075h-.946l-.149-3.45h1.246l-.149,3.45Z" fill="#fff"/>
    <path id="Path_11605" data-name="Path 11605" d="M150.759,93.937a1.653,1.653,0,0,1-1.43-2.479l5.333-9.238a1.65,1.65,0,0,1,2.86,0l5.333,9.238a1.653,1.653,0,0,1-1.43,2.479H150.759Z" fill="#e0e0e0"/>
    <path id="Path_11606" data-name="Path 11606" d="M155.441,90.606a.544.544,0,0,1,.185-.421.735.735,0,0,1,.927,0,.537.537,0,0,1,.184.421.544.544,0,0,1-.184.421.735.735,0,0,1-.927,0A.538.538,0,0,1,155.441,90.606Zm1.132-1.075h-.947l-.148-3.45h1.245l-.148,3.45Z" fill="#fff"/>
    <path id="Path_11607" data-name="Path 11607" d="M66.5,78.364a1.653,1.653,0,0,1-1.43-2.479L70.4,66.647a1.651,1.651,0,0,1,2.86,0L78.6,75.885a1.653,1.653,0,0,1-1.43,2.479H66.5Z" fill="#e0e0e0"/>
    <path id="Path_11608" data-name="Path 11608" d="M71.188,75.032a.543.543,0,0,1,.185-.421.735.735,0,0,1,.927,0,.536.536,0,0,1,.185.421.543.543,0,0,1-.185.421.735.735,0,0,1-.927,0A.537.537,0,0,1,71.188,75.032Zm1.131-1.075h-.947l-.148-3.45h1.245l-.148,3.45Z" fill="#fff"/>
    <path id="Path_11609" data-name="Path 11609" d="M71.655,33.282,55.543,42.206,52.286,31.77Z" fill="#e0e0e0"/>
    <path id="Path_11610" data-name="Path 11610" d="M71.414,31.068,55.551,23.86l2.617-6.346Z" fill="#e0e0e0"/>
    <path id="Path_11611" data-name="Path 11611" d="M73.46,30.151,72.353,19.786,67.147,21.22Z" fill="#e0e0e0"/>
    <path id="Path_11612" data-name="Path 11612" d="M20.827,153.108a12.751,12.751,0,0,1-3.22-1.034,2.211,2.211,0,0,1-.925-2.06l.177-.589s-1.976-1.681-1.682-3.1c0,0-1.925-1.606-1.27-3.111,0,0-1.766-1.11-1.177-2.194a4.069,4.069,0,0,1,3.077-1.766c.933-.042,3.893-.673,4.153-.219,0,0,.723,1.2.118,1.682l-.9.715s2.64-.639,3.035-.118.841,1.681-.2,2.2c0,0,1.051.168,1.059.84s-.067,1.463-.757,1.682a11.445,11.445,0,0,0-1.345.538s1.093-.151,1.11.42.277,1.035-.412,1.682-1.925,2.026-1.925,2.026Z" fill="#ffbe9d"/>
    <path id="Path_11613" data-name="Path 11613" d="M20.876,146.651a3.908,3.908,0,0,0-.782.109,4.343,4.343,0,0,0-1.682.706,4.2,4.2,0,0,0-1.228,1.379c-.235.421-.328.715-.361.706a1.728,1.728,0,0,1,.21-.782,3.853,3.853,0,0,1,1.244-1.488A3.764,3.764,0,0,1,20.1,146.6,1.586,1.586,0,0,1,20.876,146.651Z" fill="#eb996e"/>
    <path id="Path_11614" data-name="Path 11614" d="M15.075,146.188a3.425,3.425,0,0,1,.841-.723,10.123,10.123,0,0,1,2.3-1.236,10.461,10.461,0,0,1,2.573-.63,3.848,3.848,0,0,1,1.093,0,18.82,18.82,0,0,0-3.582.841A17.992,17.992,0,0,0,15.075,146.188Z" fill="#eb996e"/>
    <path id="Path_11615" data-name="Path 11615" d="M13.856,143.153a11.253,11.253,0,0,1,5.322-1.765c0,.067-1.236.277-2.7.765S13.889,143.212,13.856,143.153Z" fill="#eb996e"/>
  </g>
</svg>
