<svg xmlns="http://www.w3.org/2000/svg" width="230.161" height="222.385" viewBox="0 0 230.161 222.385">
  <g id="Failed_Graphic" data-name="Failed Graphic" transform="translate(-568 -200.615)">
    <path id="Path_11234" data-name="Path 11234" d="M208.825,70.921s-.1-.2-.3-.6a5.373,5.373,0,0,0-.465-.675,2.6,2.6,0,0,0-.365-.385,5.17,5.17,0,0,0-.445-.415,10,10,0,0,0-2.815-1.5,20.39,20.39,0,0,0-4.25-.93c-6.535-.825-16.13.085-27.59,2.65-5.735,1.285-11.955,3-18.5,5.155s-13.5,4.755-20.6,7.895A164.626,164.626,0,0,0,111.93,93.451a74.38,74.38,0,0,0-10.3,7.745,28.24,28.24,0,0,0-4.35,4.905,11.615,11.615,0,0,0-1.45,2.945,4.62,4.62,0,0,0,2.065,5.665,11.77,11.77,0,0,0,3,1.32,28.65,28.65,0,0,0,6.5.94,74.4,74.4,0,0,0,12.85-.745,163.657,163.657,0,0,0,23.79-5.255c7.46-2.19,14.425-4.67,20.835-7.26s12.265-5.295,17.475-8c10.41-5.44,18.325-10.935,22.785-15.78a20.56,20.56,0,0,0,2.65-3.455,9.915,9.915,0,0,0,1.18-2.965,5.6,5.6,0,0,0,.075-.6,2.426,2.426,0,0,0,.025-.53,4.874,4.874,0,0,0-.075-.815c-.11-.43-.16-.655-.16-.655s.07.22.185.645a4.36,4.36,0,0,1,.09.825,2.135,2.135,0,0,1,0,.53,4.566,4.566,0,0,1-.07.61,9.81,9.81,0,0,1-1.2,2.99,20.34,20.34,0,0,1-2.64,3.5c-4.45,4.88-12.365,10.4-22.775,15.87-5.21,2.73-11.06,5.455-17.5,8.05s-13.36,5.08-20.825,7.27a164,164,0,0,1-23.825,5.28,74.867,74.867,0,0,1-12.9.75,29,29,0,0,1-6.55-.95,12.41,12.41,0,0,1-3.08-1.35,4.88,4.88,0,0,1-2.17-5.96,12.16,12.16,0,0,1,1.5-3,28.651,28.651,0,0,1,4.4-4.95,74.716,74.716,0,0,1,10.33-7.745A164.188,164.188,0,0,1,133.38,81.921c7.12-3.135,14.05-5.73,20.63-7.88s12.8-3.855,18.545-5.13c11.5-2.545,21.09-3.43,27.64-2.57a20.125,20.125,0,0,1,4.265.96,9.85,9.85,0,0,1,2.825,1.5c.17.135.3.29.445.42a2.864,2.864,0,0,1,.36.4,4.826,4.826,0,0,1,.46.69C208.734,70.711,208.825,70.921,208.825,70.921Z" transform="translate(511.699 153.379)" fill="#90caf9"/>
    <path id="Path_11233" data-name="Path 11233" d="M217.843,110.992a5.8,5.8,0,0,0,.075-.665,4.365,4.365,0,0,0-.4-1.9c-.67-1.6-2.42-3.545-5.04-5.5-5.245-3.955-13.85-8.18-24.875-12.175a249.611,249.611,0,0,0-39.8-10.53,188.443,188.443,0,0,0-24.15-2.855,85.742,85.742,0,0,0-12.845.265,32.2,32.2,0,0,0-6.425,1.27,12.05,12.05,0,0,0-3,1.39,3.842,3.842,0,0,0-1.345,5.62,12,12,0,0,0,2,2.575,32.344,32.344,0,0,0,5.16,4.04,86.282,86.282,0,0,0,11.35,6.025,188.732,188.732,0,0,0,22.85,8.335,249.305,249.305,0,0,0,40.28,8.54c11.64,1.4,21.225,1.5,27.69.345,3.22-.57,5.66-1.5,7-2.645a4.42,4.42,0,0,0,1.215-1.5,5.685,5.685,0,0,0,.23-.625.551.551,0,0,1-.04.165,2.816,2.816,0,0,1-.17.47,4.215,4.215,0,0,1-1.2,1.545c-1.32,1.15-3.77,2.12-7,2.705-6.5,1.195-16.08,1.12-27.73-.26a247.747,247.747,0,0,1-40.33-8.5,187.278,187.278,0,0,1-22.885-8.335,86.538,86.538,0,0,1-11.385-6.04,32.4,32.4,0,0,1-5.205-4.07,12.23,12.23,0,0,1-2.07-2.635,4.106,4.106,0,0,1,1.43-5.97,12.285,12.285,0,0,1,3.04-1.42,32.215,32.215,0,0,1,6.475-1.285,86.32,86.32,0,0,1,12.885-.26,188.644,188.644,0,0,1,24.215,2.88,247.681,247.681,0,0,1,39.825,10.6c11.025,4,19.625,8.275,24.875,12.26,2.615,2,4.365,3.95,5,5.57a4.31,4.31,0,0,1,.38,1.92,2.879,2.879,0,0,1-.06.5A.9.9,0,0,1,217.843,110.992Z" transform="translate(509.781 147.898)" fill="#90caf9"/>
    <g id="remove" transform="translate(686 234.02)">
      <path id="Path_10624" data-name="Path 10624" d="M24.241,0A24.241,24.241,0,1,0,48.482,24.241,24.268,24.268,0,0,0,24.241,0Zm0,0" fill="rgba(233,48,48,0.76)"/>
      <path id="Path_10625" data-name="Path 10625" d="M173.917,171.061a2.02,2.02,0,1,1-2.857,2.857l-6.07-6.071-6.07,6.071a2.02,2.02,0,0,1-2.857-2.857l6.071-6.07-6.071-6.07a2.02,2.02,0,0,1,2.857-2.857l6.07,6.071,6.07-6.071a2.02,2.02,0,0,1,2.857,2.857l-6.071,6.07Zm0,0" transform="translate(-140.75 -140.749)" fill="#fafafa"/>
    </g>
    <path id="Path_11187" data-name="Path 11187" d="M54.694,257.823a3.35,3.35,0,0,0,.36.895,1.92,1.92,0,0,0,.875.715,2.025,2.025,0,0,0,1.5,0,2.33,2.33,0,0,0,1.345-1.315,2.6,2.6,0,0,0-.15-2.19,2.88,2.88,0,0,0-2-1.5,3.5,3.5,0,0,0-2.745.725,3.61,3.61,0,0,0-1.38,2.78,4.535,4.535,0,0,0,4.65,4.55,5.72,5.72,0,0,0,5.5-5.13,7.085,7.085,0,0,0-1-4.24,6.565,6.565,0,0,0-3.535-2.755,8.285,8.285,0,0,0-4.695-.035,7.845,7.845,0,0,0-2.16,1,7.624,7.624,0,0,0-1.64,1.62,8.5,8.5,0,0,0-1.09,2.05,9.43,9.43,0,0,0-.465,2.25,8.96,8.96,0,0,0,.625,4.375,8.19,8.19,0,0,0,2.67,3.295,10.12,10.12,0,0,0,7.635,1.61,10,10,0,0,0,1.775-.5c.275-.12.54-.265.81-.395l.4-.2.36-.25a9.635,9.635,0,0,0,2.43-2.3,10.44,10.44,0,0,0,1.915-5.41,3.283,3.283,0,0,1,.04-.63,2.49,2.49,0,0,0-.04-.61,6.425,6.425,0,0,0-.125-1.145l-.21-1.04c-.1-.32-.21-.625-.305-.915a9.556,9.556,0,0,0-.645-1.5,6.841,6.841,0,0,0-.59-1.01,4.729,4.729,0,0,1-.5-.86,4.545,4.545,0,0,1,.63.77,6.38,6.38,0,0,1,.665,1,9.221,9.221,0,0,1,.725,1.5c.11.29.225.6.35.925a8.856,8.856,0,0,1,.25,1.07,7.815,7.815,0,0,1,.16,1.18c0,.21.04.42.055.635l-.02.685a10.765,10.765,0,0,1-1.9,5.7,10.194,10.194,0,0,1-2.545,2.5l-.38.27c-.14.08-.28.145-.42.22-.285.14-.565.3-.86.43a10,10,0,0,1-1.9.55,11.07,11.07,0,0,1-4.12,0,10.2,10.2,0,0,1-4.05-1.68,8.935,8.935,0,0,1-2.935-3.58,9.8,9.8,0,0,1-.725-4.76,10.185,10.185,0,0,1,.5-2.445,9.135,9.135,0,0,1,1.2-2.255,8.31,8.31,0,0,1,1.875-1.8,8.691,8.691,0,0,1,2.385-1.1,9.115,9.115,0,0,1,5.15.05,7.355,7.355,0,0,1,3.94,3.095,7.8,7.8,0,0,1,1.075,4.72,6.42,6.42,0,0,1-6.25,5.74,5.185,5.185,0,0,1-5.27-5.255,4.2,4.2,0,0,1,1.645-3.2,4,4,0,0,1,3.185-.77,3.345,3.345,0,0,1,2.3,1.795,3,3,0,0,1,.1,2.535,2.665,2.665,0,0,1-1.58,1.43,2.28,2.28,0,0,1-1.7-.07,2.11,2.11,0,0,1-.915-.845,1.955,1.955,0,0,1-.235-.72.655.655,0,0,1,.01-.26Z" transform="translate(535.711 61.772)" fill="#e0e0e0"/>
    <path id="Path_11188" data-name="Path 11188" d="M309.98,226l.795,1.455a3.7,3.7,0,0,0,1.47,1.5l1.46.795-1.46.795a3.71,3.71,0,0,0-1.47,1.47l-.795,1.455-.8-1.47a3.71,3.71,0,0,0-1.47-1.47l-1.455-.795,1.455-.795a3.7,3.7,0,0,0,1.47-1.5Z" transform="translate(406.199 73.39)" fill="#ebebeb"/>
    <path id="Path_11189" data-name="Path 11189" d="M46.13,159.24l.81,1.5a3.77,3.77,0,0,0,1.5,1.5l1.5.81-1.5.81a3.755,3.755,0,0,0-1.5,1.5l-.81,1.5-.81-1.5a3.765,3.765,0,0,0-1.5-1.5l-1.5-.81,1.5-.81a3.785,3.785,0,0,0,1.5-1.5Z" transform="translate(538.17 106.77)" fill="#ebebeb"/>
    <path id="Path_11190" data-name="Path 11190" d="M368.055,80.53l.5.895a2.275,2.275,0,0,0,.91.91l.9.5-.9.5a2.275,2.275,0,0,0-.91.91l-.5.9-.5-.9a2.3,2.3,0,0,0-.9-.91l-.9-.5.9-.5a2.3,2.3,0,0,0,.905-.91Z" transform="translate(376.455 146.125)" fill="#ebebeb"/>
    <path id="Path_11191" data-name="Path 11191" d="M115.315,34.15l.4.745a1.845,1.845,0,0,0,.745.745l.74.4-.74.405a1.885,1.885,0,0,0-.745.75l-.4.74-.4-.74a1.93,1.93,0,0,0-.75-.75l-.74-.405.74-.405a1.885,1.885,0,0,0,.75-.745Z" transform="translate(502.619 169.315)" fill="#ebebeb"/>
    <circle id="Ellipse_105" data-name="Ellipse 105" cx="24.065" cy="24.065" r="24.065" transform="translate(740.082 275.946) rotate(-76.43)" fill="#fff"/>
    <path id="Path_11192" data-name="Path 11192" d="M419.44,119.435a3.737,3.737,0,0,0-.03-.39c-.03-.255-.04-.645-.075-1.145q0-.375-.045-.84c-.035-.31-.1-.645-.155-1s-.115-.755-.185-1.175-.205-.845-.31-1.31a22.92,22.92,0,0,0-2.665-6.39,23.805,23.805,0,0,0-6.1-6.8l-1.035-.755c-.365-.24-.75-.455-1.13-.69a13.338,13.338,0,0,0-1.165-.675l-1.245-.6-.635-.3-.665-.24-1.345-.5c-.46-.15-.94-.245-1.415-.375a11.5,11.5,0,0,0-1.45-.33,22.219,22.219,0,0,0-3-.35c-.5,0-1.04-.07-1.565-.06l-1.585.08a3.941,3.941,0,0,0-.8.055l-.8.12c-.535.09-1.075.15-1.61.26a25.57,25.57,0,0,0-3.195.94l-.8.29-.4.15-.38.185-1.55.745c-.5.275-1,.6-1.5.89-.245.16-.5.29-.74.47l-.705.5a27.419,27.419,0,0,0-2.715,2.31l-1.215,1.34-.31.335-.275.365-.565.74-.55.735-.5.79-.5.79-.24.4c-.075.135-.135.275-.205.415-.27.56-.54,1.125-.815,1.69s-.43,1.18-.65,1.775a23.71,23.71,0,0,0,0,15.1c.22.59.435,1.185.65,1.77s.545,1.13.815,1.69l.2.42.245.395.5.795.5.79.55.735.545.735.275.36.3.34,1.22,1.34a26.857,26.857,0,0,0,2.715,2.31l.705.525c.235.18.5.31.74.47.5.3,1,.615,1.5.89l1.55.745.38.185.4.15.795.29a25.569,25.569,0,0,0,3.2.94c.535.11,1.075.17,1.61.26l.8.125c.265.035.535.03.8.05l1.585.08c.5,0,1.045-.04,1.56-.06a22.29,22.29,0,0,0,3.03-.35,11.723,11.723,0,0,0,1.45-.33c.475-.13.95-.225,1.41-.375l1.35-.5.665-.24.63-.3,1.245-.6c.415-.185.78-.455,1.17-.675s.76-.45,1.125-.69l1.035-.775a23.805,23.805,0,0,0,6.1-6.8,22.919,22.919,0,0,0,2.665-6.39,12.574,12.574,0,0,0,.31-1.31c.07-.42.13-.81.185-1.175s.12-.695.155-1,.03-.59.045-.84c.035-.5.055-.88.075-1.145s.03-.385.03-.385v.39c0,.26-.025.645-.045,1.145a7.239,7.239,0,0,1-.035.84c-.035.31-.09.645-.14,1s-.115.76-.175,1.18a12.364,12.364,0,0,1-.3,1.32,22.71,22.71,0,0,1-2.65,6.45,24,24,0,0,1-6.1,6.87l-1.045.78c-.365.24-.75.465-1.13.7a9.812,9.812,0,0,1-1.18.685l-1.25.605-.64.3-.67.245-1.355.5c-.465.155-.945.255-1.425.385a11.039,11.039,0,0,1-1.46.335,22.665,22.665,0,0,1-3.055.365c-.525,0-1.05.07-1.58.06l-1.6-.075a3.966,3.966,0,0,1-.8-.055l-.81-.12c-.535-.09-1.085-.15-1.625-.26a25.2,25.2,0,0,1-3.225-.945l-.8-.29c-.135-.05-.27-.1-.4-.15l-.39-.19-1.565-.75c-.5-.275-1-.6-1.5-.9-.25-.155-.5-.29-.75-.47l-.715-.53a27.969,27.969,0,0,1-2.745-2.33l-1.23-1.355-.31-.34-.28-.37-.555-.74-.555-.745-.5-.8-.5-.8-.245-.4-.2-.42-.8-1.7c-.215-.6-.435-1.195-.655-1.795a23.94,23.94,0,0,1,0-15.27l.66-1.79.82-1.705c.07-.145.135-.285.21-.425l.24-.4.5-.805.5-.795.525-.745.555-.745.275-.365.31-.34,1.23-1.355a28,28,0,0,1,2.75-2.33l.71-.53c.235-.18.5-.315.75-.47.5-.3,1-.625,1.5-.9l1.565-.75.39-.19c.13-.055.265-.1.4-.15l.8-.29a24.389,24.389,0,0,1,3.225-.94c.54-.115,1.09-.175,1.625-.265l.81-.12c.265-.035.54-.035.8-.05l1.6-.08c.53,0,1.055.045,1.575.065a21.708,21.708,0,0,1,3.055.36,11.967,11.967,0,0,1,1.465.335c.475.13.96.23,1.42.385l1.36.5.67.245.64.305,1.25.6c.42.19.785.46,1.175.685s.77.46,1.135.7l1.04.78a23.92,23.92,0,0,1,6.11,6.9,22.71,22.71,0,0,1,2.635,6.44,12.364,12.364,0,0,1,.3,1.32c.06.42.12.815.175,1.18s.11.7.14,1,.025.59.035.84c0,.5.035.88.045,1.15S419.44,119.435,419.44,119.435Z" transform="translate(373.734 138.76)" fill="#e0e0e0"/>
    <path id="Path_11193" data-name="Path 11193" d="M374.95,186.46a3.34,3.34,0,1,1-3.335-3.34A3.34,3.34,0,0,1,374.95,186.46Z" transform="translate(375.195 94.83)" fill="#fff"/>
    <path id="Path_11194" data-name="Path 11194" d="M374.8,186.336a5.726,5.726,0,0,0-.15-.8,3.34,3.34,0,0,0-1.225-1.78,3.225,3.225,0,1,0,.005,5.165,3.355,3.355,0,0,0,1.22-1.78c.135-.5.125-.805.15-.805a.67.67,0,0,1,0,.215,2.817,2.817,0,0,1-.075.615,3.3,3.3,0,0,1-1.205,1.9,3.458,3.458,0,0,1-4.87-.7,3.443,3.443,0,0,1,4.87-4.775,3.3,3.3,0,0,1,1.2,1.9,2.752,2.752,0,0,1,.075.615A.619.619,0,0,1,374.8,186.336Z" transform="translate(375.34 94.954)" fill="#e0e0e0"/>
    <path id="Path_11195" data-name="Path 11195" d="M412.054,134.779a3.44,3.44,0,0,0-.385-.925,2.04,2.04,0,0,0-.915-.725,2.1,2.1,0,0,0-1.555.03,2.415,2.415,0,0,0-1.375,1.36,2.705,2.705,0,0,0,.2,2.27,3,3,0,0,0,2.11,1.5,3.62,3.62,0,0,0,2.835-.79,3.755,3.755,0,0,0,1.38-2.91,4.71,4.71,0,0,0-4.9-4.635,5.92,5.92,0,0,0-5.63,5.41,7.3,7.3,0,0,0,1.1,4.375,6.835,6.835,0,0,0,3.71,2.795,8.6,8.6,0,0,0,4.86-.05,7.43,7.43,0,0,0,3.94-2.765,8.814,8.814,0,0,0,1.09-2.14,9.629,9.629,0,0,0,.445-2.34,9.315,9.315,0,0,0-.745-4.54,8.535,8.535,0,0,0-2.825-3.36,9.84,9.84,0,0,0-3.915-1.58,11.78,11.78,0,0,0-4,0,9.5,9.5,0,0,0-5.9,3.885,10.615,10.615,0,0,0-1.905,5.625,11.355,11.355,0,0,0,.74,4.5,14.212,14.212,0,0,0,1.325,2.6,5.8,5.8,0,0,1,.55.865,4.34,4.34,0,0,1-.68-.775,12.1,12.1,0,0,1-1.475-2.57,11.381,11.381,0,0,1-.9-4.61,10.965,10.965,0,0,1,1.885-5.9,10.46,10.46,0,0,1,2.575-2.615,9.949,9.949,0,0,1,1.7-.965,10.445,10.445,0,0,1,1.95-.625,12.4,12.4,0,0,1,4.26-.07,10.565,10.565,0,0,1,4.21,1.665,9.235,9.235,0,0,1,3.1,3.64,10.11,10.11,0,0,1,.83,4.9,10.6,10.6,0,0,1-.475,2.535,9.5,9.5,0,0,1-1.2,2.345,8.539,8.539,0,0,1-1.9,1.89,8.8,8.8,0,0,1-2.44,1.175,9.34,9.34,0,0,1-5.315.04,7.575,7.575,0,0,1-4.125-3.12,8.06,8.06,0,0,1-1.2-4.855,6.635,6.635,0,0,1,6.35-6.035,5.375,5.375,0,0,1,4,1.6,5.31,5.31,0,0,1,1.53,3.725,4.35,4.35,0,0,1-1.64,3.335,4.115,4.115,0,0,1-3.27.85,3.46,3.46,0,0,1-2.445-1.825,3.075,3.075,0,0,1-.145-2.615,2.725,2.725,0,0,1,1.61-1.5,2.325,2.325,0,0,1,1.75.04,2.18,2.18,0,0,1,.96.855,1.955,1.955,0,0,1,.255.74A.57.57,0,0,1,412.054,134.779Z" transform="translate(359.717 123.916)" fill="#e0e0e0"/>
    <path id="Path_11196" data-name="Path 11196" d="M299.178,36.515a3.5,3.5,0,0,0,0-.735,1.47,1.47,0,0,0-.41-.745,1.525,1.525,0,0,0-1.045-.415,1.755,1.755,0,0,0-1.29.5,1.92,1.92,0,0,0-.5,1.555,2.155,2.155,0,0,0,.965,1.6,2.615,2.615,0,0,0,2.1.27,2.68,2.68,0,0,0,1.73-1.5,3.4,3.4,0,0,0-1.965-4.475,4.29,4.29,0,0,0-5.285,2,5.305,5.305,0,0,0-.5,3.225,4.94,4.94,0,0,0,1.66,2.925,6.3,6.3,0,0,0,3.255,1.365,5.41,5.41,0,0,0,3.415-.71,6.545,6.545,0,0,0,1.345-1.11,7.24,7.24,0,0,0,.97-1.435,6.855,6.855,0,0,0,.815-3.25,6.205,6.205,0,0,0-.915-3.06,7.645,7.645,0,0,0-4.865-3.32,6.9,6.9,0,0,0-1.38-.17c-.23,0-.455.03-.68.04l-.335.025-.325.07a7.335,7.335,0,0,0-2.36.9,7.875,7.875,0,0,0-2.91,3.23l-.21.43c-.055.145-.1.3-.15.44a4.688,4.688,0,0,0-.25.84c-.055.275-.11.535-.16.79a5.38,5.38,0,0,0-.05.73,7.593,7.593,0,0,0,0,1.23,5.583,5.583,0,0,0,.11.905,2.5,2.5,0,0,1,.08.755,2.885,2.885,0,0,1-.235-.725,4.74,4.74,0,0,1-.185-.91,6.862,6.862,0,0,1-.09-1.265v-.76a5.913,5.913,0,0,1,.13-.83,5.694,5.694,0,0,1,.23-.89c.045-.15.09-.31.14-.465l.21-.46a8.265,8.265,0,0,1,3-3.5,7.8,7.8,0,0,1,2.53-1l.355-.08.365-.035c.24,0,.5-.05.74-.055a7.88,7.88,0,0,1,1.5.16,8.265,8.265,0,0,1,5.345,3.58,6.905,6.905,0,0,1,1.045,3.415,7.565,7.565,0,0,1-.88,3.62,8,8,0,0,1-1.075,1.595,7,7,0,0,1-1.5,1.265,6.4,6.4,0,0,1-1.875.735,6.585,6.585,0,0,1-2.03.085,7,7,0,0,1-3.67-1.55,5.7,5.7,0,0,1-1.915-3.385,6.04,6.04,0,0,1,.665-3.745,5,5,0,0,1,6.19-2.27,4.065,4.065,0,0,1,2.29,2.27,4,4,0,0,1-.06,3.035,3.285,3.285,0,0,1-2.14,1.82,3.12,3.12,0,0,1-2.5-.4,2.6,2.6,0,0,1-1.125-2,2.315,2.315,0,0,1,.685-1.855,2.055,2.055,0,0,1,1.565-.555,1.77,1.77,0,0,1,1.2.56,1.61,1.61,0,0,1,.395.88,1.365,1.365,0,0,1-.05.58C299.223,36.46,299.188,36.515,299.178,36.515Z" transform="translate(414.566 172.165)" fill="#e0e0e0"/>
    <path id="Path_11197" data-name="Path 11197" d="M61.564,67.013a3.2,3.2,0,0,0-.4-.575,1.405,1.405,0,0,0-.725-.37,1.445,1.445,0,0,0-1.05.225,1.655,1.655,0,0,0-.75,1.1,1.855,1.855,0,0,0,.42,1.5,2.075,2.075,0,0,0,1.615.76,2.5,2.5,0,0,0,1.815-.9,2.58,2.58,0,0,0,.565-2.14,3.245,3.245,0,0,0-3.9-2.5,4.1,4.1,0,0,0-3.145,4.385,5.115,5.115,0,0,0,1.295,2.84,4.7,4.7,0,0,0,2.875,1.435,6.04,6.04,0,0,0,3.315-.66,5.89,5.89,0,0,0,1.38-1,5.56,5.56,0,0,0,.96-1.38,6.12,6.12,0,0,0,.5-1.6,7.09,7.09,0,0,0,0-1.66,6.55,6.55,0,0,0-1.08-3,5.935,5.935,0,0,0-2.35-1.95,7.345,7.345,0,0,0-5.64-.065,6.635,6.635,0,0,0-1.19.6c-.18.12-.345.265-.5.39l-.255.2-.22.225a7.055,7.055,0,0,0-1.4,2,7.5,7.5,0,0,0-.6,4.12l.06.455c.03.145.075.29.11.43a5.17,5.17,0,0,0,.25.8l.245.695.345.61a6.849,6.849,0,0,0,.67,1,5.66,5.66,0,0,0,.585.625c.32.345.5.535.465.56a2.65,2.65,0,0,1-.575-.45,4.585,4.585,0,0,1-.635-.61,6.91,6.91,0,0,1-.745-.965l-.39-.615c-.11-.235-.225-.5-.34-.73a4.966,4.966,0,0,1-.295-.835c-.04-.145-.09-.295-.135-.445l-.08-.5a7.945,7.945,0,0,1,.53-4.41,7.615,7.615,0,0,1,1.5-2.175l.24-.25.27-.22c.185-.145.37-.305.565-.44a7.24,7.24,0,0,1,1.3-.68,7.93,7.93,0,0,1,6.18,0,6.65,6.65,0,0,1,2.665,2.175,7.275,7.275,0,0,1,1.23,3.36,7.675,7.675,0,0,1,0,1.855,7,7,0,0,1-.54,1.82,6.2,6.2,0,0,1-1.11,1.59,6.455,6.455,0,0,1-1.58,1.155,6.745,6.745,0,0,1-3.76.72,5.5,5.5,0,0,1-3.355-1.67,5.86,5.86,0,0,1-1.5-3.3,4.85,4.85,0,0,1,.96-3.34A4.79,4.79,0,0,1,59,63.428a3.9,3.9,0,0,1,3.065.625,3.835,3.835,0,0,1,1.575,2.46,3.135,3.135,0,0,1-.74,2.6,3,3,0,0,1-2.23,1.035,2.5,2.5,0,0,1-1.955-1,2.235,2.235,0,0,1-.455-1.835,2,2,0,0,1,.96-1.275,1.68,1.68,0,0,1,1.255-.195,1.545,1.545,0,0,1,.79.5,1.3,1.3,0,0,1,.265.5C61.574,66.948,61.579,67.013,61.564,67.013Z" transform="translate(533.066 156.282)" fill="#e0e0e0"/>
    <rect id="Rectangle_5634" data-name="Rectangle 5634" width="14.73" height="17.515" transform="translate(640.605 404.17)" fill="#f5f5f5"/>
    <rect id="Rectangle_5635" data-name="Rectangle 5635" width="66.575" height="19.755" transform="translate(574.539 403.025)" fill="#e0e0e0"/>
    <path id="Path_11198" data-name="Path 11198" d="M176.45,434.935H160V433.27h16.45a.835.835,0,0,1,.835.83h0A.835.835,0,0,1,176.45,434.935Z" transform="translate(479.33 -30.245)" fill="#e0e0e0"/>
    <rect id="Rectangle_5636" data-name="Rectangle 5636" width="7.865" height="19.755" transform="translate(628.01 403.025)" fill="#ebebeb"/>
    <rect id="Rectangle_5637" data-name="Rectangle 5637" width="7.865" height="19.755" transform="translate(580.869 403.245)" fill="#ebebeb"/>
    <rect id="Rectangle_5638" data-name="Rectangle 5638" width="29.95" height="3.555" transform="translate(593.836 411.145)" fill="#ebebeb"/>
    <rect id="Rectangle_5639" data-name="Rectangle 5639" width="14.955" height="10.67" transform="translate(631.484 392.285)" fill="#fafafa"/>
    <rect id="Rectangle_5640" data-name="Rectangle 5640" width="63.655" height="11.445" transform="translate(568 391.895)" fill="#f5f5f5"/>
    <path id="Path_11205" data-name="Path 11205" d="M143.72,411.785h16.075a.385.385,0,0,0,.39-.385h0a.39.39,0,0,0-.39-.39H143.72Z" transform="translate(487.471 -19.115)" fill="#f5f5f5"/>
    <path id="Path_11206" data-name="Path 11206" d="M143.72,432.36h16.255a.21.21,0,0,1,.21.21v.355a.21.21,0,0,1-.21.21H143.72v-.775Z" transform="translate(487.471 -29.79)" fill="#f5f5f5"/>
    <path id="Path_11207" data-name="Path 11207" d="M159.43,415.755c0,.05-3.31.09-7.395.09s-7.395-.04-7.395-.09,3.31-.085,7.395-.085S159.43,415.71,159.43,415.755Z" transform="translate(487.01 -21.445)" fill="#e0e0e0"/>
    <path id="Path_11208" data-name="Path 11208" d="M159.43,419.795c0,.05-3.31.09-7.395.09s-7.395-.04-7.395-.09,3.31-.085,7.395-.085S159.43,419.745,159.43,419.795Z" transform="translate(487.01 -23.465)" fill="#e0e0e0"/>
    <path id="Path_11209" data-name="Path 11209" d="M159.43,423.83c0,.045-3.31.085-7.395.085s-7.395-.04-7.395-.085,3.31-.09,7.395-.09S159.43,423.78,159.43,423.83Z" transform="translate(487.01 -25.48)" fill="#e0e0e0"/>
    <path id="Path_11210" data-name="Path 11210" d="M159.43,427.91c0,.045-3.31.085-7.395.085s-7.395-.04-7.395-.085,3.31-.09,7.395-.09S159.43,427.84,159.43,427.91Z" transform="translate(487.01 -27.52)" fill="#e0e0e0"/>
    <rect id="Rectangle_5641" data-name="Rectangle 5641" width="14.35" height="27.19" transform="translate(643.955 363.575)" fill="#ebebeb"/>
    <rect id="Rectangle_5642" data-name="Rectangle 5642" width="67.36" height="29.48" transform="translate(576.596 362.62)" fill="#e0e0e0"/>
    <path id="Path_11211" data-name="Path 11211" d="M182.875,409.51H165.56V407.6h17.315a.96.96,0,0,1,.96.955h0a.955.955,0,0,1-.96.955Z" transform="translate(476.551 -17.41)" fill="#e0e0e0"/>
    <path id="Path_11212" data-name="Path 11212" d="M165.56,352.46h17.72a.55.55,0,0,1,.55.55v.81a.55.55,0,0,1-.55.55H165.56Z" transform="translate(476.551 10.16)" fill="#e0e0e0"/>
    <path id="Path_11213" data-name="Path 11213" d="M183.65,361.58c0,.05-3.215.085-7.175.085s-7.175-.035-7.175-.085,3.21-.08,7.175-.08S183.65,361.535,183.65,361.58Z" transform="translate(474.68 5.64)" fill="#e0e0e0"/>
    <path id="Path_11214" data-name="Path 11214" d="M183.65,368.555c0,.045-3.215.08-7.175.08s-7.175-.035-7.175-.08,3.21-.085,7.175-.085S183.65,368.51,183.65,368.555Z" transform="translate(474.68 2.155)" fill="#e0e0e0"/>
    <path id="Path_11215" data-name="Path 11215" d="M183.65,375.53c0,.045-3.215.085-7.175.085s-7.175-.04-7.175-.085,3.21-.08,7.175-.08S183.65,375.485,183.65,375.53Z" transform="translate(474.68 -1.335)" fill="#e0e0e0"/>
    <path id="Path_11216" data-name="Path 11216" d="M183.65,382.5c0,.045-3.215.08-7.175.08s-7.175-.035-7.175-.08,3.21-.085,7.175-.085S183.65,382.46,183.65,382.5Z" transform="translate(474.68 -4.82)" fill="#e0e0e0"/>
    <path id="Path_11217" data-name="Path 11217" d="M183.65,389.48c0,.045-3.215.085-7.175.085s-7.175-.04-7.175-.085,3.21-.08,7.175-.08S183.65,389.435,183.65,389.48Z" transform="translate(474.68 -8.31)" fill="#e0e0e0"/>
    <path id="Path_11218" data-name="Path 11218" d="M183.65,396.455c0,.045-3.215.08-7.175.08s-7.175-.035-7.175-.08,3.21-.085,7.175-.085S183.65,396.41,183.65,396.455Z" transform="translate(474.68 -11.795)" fill="#e0e0e0"/>
    <path id="Path_11219" data-name="Path 11219" d="M183.65,403.43c0,.045-3.215.085-7.175.085s-7.175-.04-7.175-.085,3.21-.08,7.175-.08S183.65,403.385,183.65,403.43Z" transform="translate(474.68 -15.285)" fill="#e0e0e0"/>
    <path id="Path_11220" data-name="Path 11220" d="M421.589,323.4a20.822,20.822,0,0,1,12.845-1.56c2.33.385,4.755,1.08,6.34,2.83s1.89,4.83.07,6.335a5.993,5.993,0,0,1-4,1c-3.39-.04-7.16-.635-9.87,1.405-1.55,1.165-2.58,3.1-4.43,3.675a4.326,4.326,0,0,1-4.81-2.14,7.406,7.406,0,0,1-.545-5.5A8.42,8.42,0,0,1,421.589,323.4Z" transform="translate(350.877 25.648)" fill="#ebebeb"/>
    <path id="Path_11221" data-name="Path 11221" d="M406.115,255.3c2.39,3.41,7.035,2.28,9.185.2s3.06-5.1,3.89-8c1.89-6.575,3.8-13.47,2.395-20.17a11.3,11.3,0,0,0-2.58-5.5,5.829,5.829,0,0,0-5.545-1.85c-2.34.62-3.795,2.915-4.845,5.1a48,48,0,0,0-4.755,20.63c0,3.325.38,6.81,2.255,9.555" transform="translate(357.4 76.476)" fill="#ebebeb"/>
    <path id="Path_11222" data-name="Path 11222" d="M367.743,271.214c2.6-3.08,3.09-7.565,1.935-11.425a21.969,21.969,0,0,0-6.765-9.81,36.455,36.455,0,0,0-12.115-7.15,12.965,12.965,0,0,0-5.45-.925,5.72,5.72,0,0,0-4.575,2.765c-1.275,2.43-.05,5.38,1.27,7.79A92.5,92.5,0,0,0,350,264.574c2.385,3.075,5.115,6.11,8.75,7.5s7.41,1.225,9.34-1.3" transform="translate(389.213 65.456)" fill="#ebebeb"/>
    <path id="Path_11223" data-name="Path 11223" d="M407.992,362.318a7.532,7.532,0,0,0,.215-1.55c.11-1.13.25-2.545.415-4.23a60.277,60.277,0,0,1,.95-6.2,47.752,47.752,0,0,1,2.255-7.325,26.8,26.8,0,0,1,3.74-6.625,13.92,13.92,0,0,1,4.73-3.93,13.081,13.081,0,0,1,4-1.24,7.671,7.671,0,0,0,1.545-.225,7.36,7.36,0,0,0-1.575,0,12.214,12.214,0,0,0-4.15,1.08,13.965,13.965,0,0,0-5,3.965,26.32,26.32,0,0,0-3.88,6.76,45.544,45.544,0,0,0-2.24,7.445,53.226,53.226,0,0,0-.825,6.285c-.13,1.8-.185,3.25-.21,4.255A7.208,7.208,0,0,0,407.992,362.318Z" transform="translate(355.363 20.917)" fill="#e0e0e0"/>
    <path id="Path_11224" data-name="Path 11224" d="M408.305,317.255a3,3,0,0,0,.045-.72V314.48c0-1.785,0-4.37.09-7.56.155-6.38.705-13.245,1.765-22.925,1-9.1,2.355-19.7,3.78-26.58.3-1.57.61-3,.9-4.21s.5-2.3.74-3.17.355-1.47.5-2a2.937,2.937,0,0,0,.125-.705,3.087,3.087,0,0,0-.25.67c-.155.5-.355,1.17-.6,2s-.54,1.915-.845,3.145-.665,2.635-1,4.2a233.8,233.8,0,0,0-3.97,24.665,240.829,240.829,0,0,0-1.6,24.905c-.035,3.2.03,5.785.115,7.57.05.835.09,1.5.125,2.055A3.255,3.255,0,0,0,408.305,317.255Z" transform="translate(355.34 62.725)" fill="#e0e0e0"/>
    <path id="Path_11225" data-name="Path 11225" d="M385.947,305.41a13.869,13.869,0,0,0,0-2.15c-.08-1.38-.27-3.375-.66-5.82a76,76,0,0,0-1.89-8.5,69.673,69.673,0,0,0-3.55-10.035,53.125,53.125,0,0,0-10.415-16.22,25.819,25.819,0,0,0-2.45-2.275c-.375-.32-.71-.635-1.045-.89s-.66-.45-.95-.655a13.285,13.285,0,0,0-1.81-1.155,64.441,64.441,0,0,1,5.93,5.29,56.165,56.165,0,0,1,10.155,16.16,79.57,79.57,0,0,1,3.565,9.94,85.758,85.758,0,0,1,2,8.4c.445,2.42.7,4.395.855,5.76a13.853,13.853,0,0,0,.265,2.15Z" transform="translate(377.742 57.535)" fill="#e0e0e0"/>
    <path id="Path_11226" data-name="Path 11226" d="M375.79,413.21l1.705,23.385H407.54l1.705-23.385Z" transform="translate(371.436 -20.215)" fill="#e0e0e0"/>
    <rect id="Rectangle_5643" data-name="Rectangle 5643" width="39.945" height="9.22" transform="translate(744.32 383.78)" fill="#e0e0e0"/>
    <path id="Path_11227" data-name="Path 11227" d="M369.98,458.19v2.555h39.285V458.19Z" transform="translate(374.34 -42.705)" fill="#ebebeb"/>
    <path id="Path_11228" data-name="Path 11228" d="M375.58,467.8l-1.84-4.5h35.975l-2.145,4.5Z" transform="translate(372.461 -45.26)" fill="#e0e0e0"/>
    <path id="Path_11229" data-name="Path 11229" d="M409.18,425.245a1.47,1.47,0,0,1-.145.215l-.445.595c-.43.545-1,1.3-1.75,2.24l-.08.1-.075-.1-4.3-5.95h.25l-4.235,6-.135.19-.145-.18c-1.565-1.855-3.26-3.875-5-5.97h.265l-.28.345c-1.555,1.955-3.06,3.845-4.5,5.63l-.145.185-.14-.2-4.235-6h.245l-5.215,5.945-.1.1-.07-.12-1.63-2.745c-.175-.295-.31-.535-.42-.73a1.209,1.209,0,0,1-.13-.26,1,1,0,0,1,.175.23l.465.705,1.715,2.7h-.165l5.135-6,.13-.15.115.165,4.275,5.965h-.29l4.5-5.635.275-.35.145-.175.145.175c1.755,2.1,3.45,4.12,5,6h-.28c1.545-2.155,3-4.16,4.275-5.965l.125-.175.125.175,4.205,6h-.15l1.82-2.18.5-.565C409.11,425.3,409.17,425.24,409.18,425.245Z" transform="translate(370.945 -24.605)" fill="#f5f5f5"/>
    <path id="Path_11230" data-name="Path 11230" d="M409.915,412.715c0,.105-7.53.19-16.815.19s-16.81-.085-16.81-.19,7.5-.185,16.81-.185S409.915,412.615,409.915,412.715Z" transform="translate(371.186 -19.875)" fill="#f5f5f5"/>
    <path id="Path_11232" data-name="Path 11232" d="M250,472.15c0,.07-46.46.13-103.755.13s-103.765-.06-103.765-.13S88.93,472,146.24,472,250,472.075,250,472.15Z" transform="translate(538.09 -49.61)" fill="#263238"/>
    <path id="Path_11236" data-name="Path 11236" d="M206.434,49a3.34,3.34,0,0,0,.06.385,1.26,1.26,0,0,0,.69.8,1.5,1.5,0,0,0,1.575-.33,1.68,1.68,0,0,0,.185-2.07,1.865,1.865,0,0,0-1-.81,2.17,2.17,0,0,0-1.39,0,2.38,2.38,0,0,0-1.62,2.43,3,3,0,0,0,1.93,2.655,3.645,3.645,0,0,0,3.5-.715,3.78,3.78,0,0,0,1.075-1.55,4.155,4.155,0,0,0,.21-1.83,4.24,4.24,0,0,0-1.63-3,4.835,4.835,0,0,0-3-.96,4.9,4.9,0,0,0-2.665.715,4.76,4.76,0,0,0-1.6,1.64,5.685,5.685,0,0,0-.65,1.63,14.8,14.8,0,0,0-.22,1.5,5.255,5.255,0,0,1,.12-1.5,5.5,5.5,0,0,1,.625-1.675,4.865,4.865,0,0,1,1.63-1.725,5.125,5.125,0,0,1,2.765-.78,5.065,5.065,0,0,1,3.14,1,4.625,4.625,0,0,1,1.5,5.115,4.05,4.05,0,0,1-1.15,1.66,3.885,3.885,0,0,1-3.77.755A3.215,3.215,0,0,1,204.7,49.4a2.6,2.6,0,0,1,1.8-2.625,2.41,2.41,0,0,1,1.525,0,2.11,2.11,0,0,1,1.08.9,2,2,0,0,1,.265,1.25,1.615,1.615,0,0,1-.5,1,1.575,1.575,0,0,1-1.72.315,1.275,1.275,0,0,1-.72-.845A.92.92,0,0,1,206.434,49Z" transform="translate(458.395 164.486)" fill="#263238"/>
    <path id="Path_11237" data-name="Path 11237" d="M77.985,121.07l.5.93a2.38,2.38,0,0,0,.94.935l.925.5-.925.5a2.38,2.38,0,0,0-.94.935l-.5.93-.5-.93a2.38,2.38,0,0,0-.94-.935l-.925-.5.925-.5a2.38,2.38,0,0,0,.94-.935Z" transform="translate(521.52 125.855)" fill="#90caf9"/>
    <path id="Path_11239" data-name="Path 11239" d="M114.425,189.87l.59,1.08a2.79,2.79,0,0,0,1.1,1.1l1.085.59-1.085.6a2.81,2.81,0,0,0-1.1,1.1l-.59,1.105-.605-1.105a2.81,2.81,0,0,0-1.1-1.1l-1.085-.6,1.085-.59a2.79,2.79,0,0,0,1.095-1.115Z" transform="translate(503.51 91.455)" fill="#90caf9"/>
    <path id="Path_11241" data-name="Path 11241" d="M241.51,35l.37.68a1.7,1.7,0,0,0,.685.685l.68.375-.68.37a1.75,1.75,0,0,0-.68.7l-.375.685-.375-.68a1.715,1.715,0,0,0-.685-.69l-.68-.37.68-.375a1.675,1.675,0,0,0,.685-.685Z" transform="translate(439.445 168.89)" fill="#90caf9"/>
    <path id="Path_11242" data-name="Path 11242" d="M165.395,51.8l.62,1.14a2.89,2.89,0,0,0,1.15,1.15l1.14.625-1.14.62a2.9,2.9,0,0,0-1.15,1.155l-.62,1.135-.625-1.135a2.905,2.905,0,0,0-1.15-1.155l-1.14-.62,1.14-.625a2.89,2.89,0,0,0,1.15-1.15Z" transform="translate(478.09 160.49)" fill="#90caf9"/>
    <path id="Path_11243" data-name="Path 11243" d="M83.162,185.71a3.819,3.819,0,0,0-.115-.37,1.245,1.245,0,0,0-.79-.7,1.46,1.46,0,0,0-1.5.535,1.685,1.685,0,0,0,.09,2.08,1.92,1.92,0,0,0,1.09.67,2.205,2.205,0,0,0,1.38-.2A2.375,2.375,0,0,0,84.6,185.12a3,3,0,0,0-2.27-2.37,3.64,3.64,0,0,0-3.385,1.175,3.825,3.825,0,0,0-.86,1.68,4.175,4.175,0,0,0,.04,1.845,4.24,4.24,0,0,0,2,2.76,4.83,4.83,0,0,0,3.1.55,5,5,0,0,0,2.55-1.065,4.76,4.76,0,0,0,1.365-1.84,5.5,5.5,0,0,0,.43-1.7,13.854,13.854,0,0,0,0-1.5,5.31,5.31,0,0,1,.08,1.5,5.42,5.42,0,0,1-.395,1.75,4.83,4.83,0,0,1-1.38,1.925,5.155,5.155,0,0,1-2.64,1.14,5.1,5.1,0,0,1-3.245-.555,4.5,4.5,0,0,1-2.12-2.925,4.44,4.44,0,0,1-.045-1.955,4.055,4.055,0,0,1,.92-1.8,3.88,3.88,0,0,1,3.625-1.255,3.215,3.215,0,0,1,2.45,2.575,2.6,2.6,0,0,1-1.43,2.845,2.4,2.4,0,0,1-1.5.2,2.1,2.1,0,0,1-1.19-.75,2.04,2.04,0,0,1-.43-1.205,1.645,1.645,0,0,1,.37-1.08,1.57,1.57,0,0,1,1.66-.54,1.275,1.275,0,0,1,.81.775A.935.935,0,0,1,83.162,185.71Z" transform="translate(520.463 95.18)" fill="#263238"/>
    <path id="Path_11244" data-name="Path 11244" d="M272.856,159.2c.565-6.75,1.09-13.55.5-20.3s-2.4-13.5-6.155-19.155c-.57-.855-5-6.45-6-6.115-.7.235,2.5,5.675,2.3,6.375-2.05,6.7-1.315,14,.83,20.685a90.957,90.957,0,0,0,8.53,18.5" transform="translate(428.779 129.584)" fill="#263238"/>
    <path id="Path_11245" data-name="Path 11245" d="M185.887,103.828l-1.5.44a30.39,30.39,0,0,0-21.24,35.32c3,14.43,6.465,30.33,8.77,37.865,4.77,15.6,20.25,13.53,20.25,13.53l.175,5.815,14.765,16.73,25.5-17.645-14.315-67.26C214.942,111.958,202.452,100.018,185.887,103.828Z" transform="translate(478.072 134.832)" fill="#b29180"/>
    <path id="Path_11246" data-name="Path 11246" d="M221.8,266.795a40.335,40.335,0,0,0,19.5-12.055s-.535,13.39-19.38,16.3Z" transform="translate(448.43 59.02)" fill="#8b6c5d"/>
    <path id="Path_11247" data-name="Path 11247" d="M174.381,184.048c.36.21,1.69-1.54,4.1-2.235s4.5,0,4.7-.38c.09-.17-.345-.61-1.28-.945a6.35,6.35,0,0,0-3.865-.06,6.18,6.18,0,0,0-3.155,2.145C174.3,183.358,174.206,183.958,174.381,184.048Z" transform="translate(472.178 96.312)" fill="#263238"/>
    <path id="Path_11248" data-name="Path 11248" d="M221.908,171.378c.365.21,1.7-1.54,4.1-2.235s4.5,0,4.7-.38c.09-.17-.34-.615-1.275-.95a6.4,6.4,0,0,0-3.865-.055,6.115,6.115,0,0,0-3.16,2.145C221.808,170.683,221.713,171.288,221.908,171.378Z" transform="translate(448.422 102.647)" fill="#263238"/>
    <path id="Path_11249" data-name="Path 11249" d="M208.719,196.92c-.03-.14-1.6.035-4.115.435-.63.115-1.25.165-1.5-.225a3.447,3.447,0,0,1-.12-1.94q.21-2.5.445-5.21c.58-7.4.8-13.41.5-13.43s-1,5.96-1.58,13.36c-.13,1.82-.25,3.555-.365,5.215a3.668,3.668,0,0,0,.385,2.5,1.59,1.59,0,0,0,1.27.6,4.41,4.41,0,0,0,1.09-.16C207.234,197.49,208.749,197.055,208.719,196.92Z" transform="translate(458.361 98.115)" fill="#263238"/>
    <path id="Path_11250" data-name="Path 11250" d="M230.674,154.6c-.195-.7-2.715-.555-5.62-1.125s-5.225-1.535-5.655-.955c-.2.28.17.945,1.08,1.675a9.95,9.95,0,0,0,8.59,1.585C230.174,155.426,230.759,154.931,230.674,154.6Z" transform="translate(449.656 110.219)" fill="#263238"/>
    <path id="Path_11251" data-name="Path 11251" d="M169.949,169.663c.655.41,2.465-.7,4.825-1.385s4.47-.84,4.77-1.54c.125-.335-.34-.8-1.36-1.075a7.855,7.855,0,0,0-4.18.19,7.74,7.74,0,0,0-3.55,2.165C169.774,168.813,169.654,169.453,169.949,169.663Z" transform="translate(474.432 103.657)" fill="#263238"/>
    <path id="Path_11252" data-name="Path 11252" d="M278.29,176.158c.235-.19,9.83-6.325,12.615,4.5s-9.575,12-9.67,11.695S278.29,176.158,278.29,176.158Z" transform="translate(420.184 99.262)" fill="#b29180"/>
    <path id="Path_11253" data-name="Path 11253" d="M289.294,190.129c.035-.045.22.085.575.15a1.965,1.965,0,0,0,1.415-.335c1.035-.715,1.525-2.775,1.075-4.735a6.365,6.365,0,0,0-1.22-2.555,2.243,2.243,0,0,0-1.79-1.08,1,1,0,0,0-1,.8c-.07.34.055.54,0,.57s-.28-.12-.31-.59a1.245,1.245,0,0,1,.25-.785,1.5,1.5,0,0,1,.97-.545,2.731,2.731,0,0,1,2.4,1.17,6.61,6.61,0,0,1,1.43,2.84c.5,2.195-.1,4.5-1.54,5.375a2.085,2.085,0,0,1-1.795.16C289.379,190.389,289.259,190.159,289.294,190.129Z" transform="translate(415.311 95.891)" fill="#8b6c5d"/>
    <path id="Path_11254" data-name="Path 11254" d="M168.3,117.508c-2-.53,1.855-7.5,5.675-10.535,5.775-4.57,15.26-8.86,21.685-8.65,7.735.25,14.63,2.355,19.9,8.03s8.53,13,10.185,20.555a13.366,13.366,0,0,1,.115,7c-.915,2.77-3.44,5-2.5,8.265a4.67,4.67,0,0,1-.3,3.585c-1.46,2.6-4.375,1.225-6-.5-3.435-3.65-4.96-8.645-6.375-13.45-1-3.42-2-6.91-1.875-10.47.08-1.935.5-3.85.5-5.79a6.623,6.623,0,0,0-2.11-5.215,6.94,6.94,0,0,0-1.1-.67,11.64,11.64,0,0,0-11.735.65c-5.56,3.675-15.17,9.5-18.4,8.09-4.655-2-6.07-3.71-6.07-3.71Z" transform="translate(475.451 137.232)" fill="#263238"/>
    <path id="Path_11255" data-name="Path 11255" d="M225.64,227.986c.37.11.965-2.38,3.5-3.645s5.145-.365,5.245-.705c.07-.15-.5-.625-1.59-.92a6.385,6.385,0,0,0-4.345.445,5.585,5.585,0,0,0-2.79,3.1C225.335,227.261,225.465,227.961,225.64,227.986Z" transform="translate(446.6 75.129)" fill="#263238"/>
    <path id="Path_11256" data-name="Path 11256" d="M185.794,191.669c-.035,0-.04-.175-.22-.42a.92.92,0,0,0-1.115-.275,1.06,1.06,0,0,0-.59.61,1.2,1.2,0,0,0,.1,1,1.31,1.31,0,0,0,.93.65,1.605,1.605,0,0,0,1.235-.36,1.64,1.64,0,0,0,.59-1.275,2.08,2.08,0,0,0-2.165-2.03,2.65,2.65,0,0,0-2.5,2.415,3.325,3.325,0,0,0,.5,1.96,3.05,3.05,0,0,0,1.66,1.245,3.86,3.86,0,0,0,2.2-.025,3.754,3.754,0,0,0,1-.475,3.63,3.63,0,0,0,.775-.765,4.06,4.06,0,0,0,.5-.96,4.892,4.892,0,0,0,.205-1.065,4.27,4.27,0,0,0-.335-2.07,3.88,3.88,0,0,0-1.265-1.54,4.82,4.82,0,0,0-3.635-.72,4.355,4.355,0,0,0-2.73,1.755,5,5,0,0,0-.9,2.6,5.155,5.155,0,0,0,.31,2.1,5.084,5.084,0,0,0,.31.725,4.2,4.2,0,0,0,.28.5c.165.27.24.425.22.44s-.14-.1-.35-.35a3.225,3.225,0,0,1-.35-.5,4.222,4.222,0,0,1-.39-.725,5.22,5.22,0,0,1-.465-2.23,5.41,5.41,0,0,1,.885-2.9,5.115,5.115,0,0,1,1.26-1.285,2,2,0,0,1,.4-.26c.14-.075.28-.16.43-.23a5.1,5.1,0,0,1,.96-.3,5.45,5.45,0,0,1,4.18.765,4.615,4.615,0,0,1,1.54,1.81,5.335,5.335,0,0,1,.18,3.69,4.785,4.785,0,0,1-.635,1.215,4.415,4.415,0,0,1-.955.95,4.525,4.525,0,0,1-1.225.585,4.6,4.6,0,0,1-2.65,0,3.8,3.8,0,0,1-2.075-1.575,4,4,0,0,1-.59-2.44,3.34,3.34,0,0,1,3.215-3.03,2.715,2.715,0,0,1,2.795,2.72,2.21,2.21,0,0,1-.85,1.7,2.1,2.1,0,0,1-1.67.42,1.77,1.77,0,0,1-1.225-.94,1.57,1.57,0,0,1-.06-1.335,1.375,1.375,0,0,1,.83-.75,1.185,1.185,0,0,1,.885.035,1.045,1.045,0,0,1,.47.445A.63.63,0,0,1,185.794,191.669Z" transform="translate(469.535 93.001)" fill="#263238"/>
    <path id="Path_11257" data-name="Path 11257" d="M229.449,180.729c-.035,0-.045-.175-.22-.42a.915.915,0,0,0-1.115-.275,1.06,1.06,0,0,0-.59.61,1.175,1.175,0,0,0,.1,1,1.31,1.31,0,0,0,.93.65,1.59,1.59,0,0,0,1.235-.365,1.62,1.62,0,0,0,.59-1.27,2.08,2.08,0,0,0-2.165-2.03,2.64,2.64,0,0,0-2.5,2.415,3.325,3.325,0,0,0,.5,1.96,3.05,3.05,0,0,0,1.66,1.245,3.86,3.86,0,0,0,2.2,0,3.755,3.755,0,0,0,1-.5,3.631,3.631,0,0,0,.775-.765,3.9,3.9,0,0,0,.5-.965,4.275,4.275,0,0,0,.205-1.06,4.215,4.215,0,0,0-.33-2.07,3.88,3.88,0,0,0-1.275-1.53,4.82,4.82,0,0,0-3.635-.72,4.355,4.355,0,0,0-2.73,1.755,5,5,0,0,0-.9,2.605,5.155,5.155,0,0,0,.31,2.1,5.344,5.344,0,0,0,.31.725,3.761,3.761,0,0,0,.28.5c.165.275.24.43.22.445s-.14-.1-.35-.355a2.66,2.66,0,0,1-.35-.5,4.094,4.094,0,0,1-.39-.73,5.1,5.1,0,0,1-.465-2.225,5.37,5.37,0,0,1,.885-2.9,5.114,5.114,0,0,1,1.26-1.285,2,2,0,0,1,.4-.26c.14-.075.28-.16.43-.23a5.1,5.1,0,0,1,.96-.3,5.45,5.45,0,0,1,4.18.765,4.58,4.58,0,0,1,1.54,1.81,5.32,5.32,0,0,1,.18,3.685,4.725,4.725,0,0,1-.61,1.185,4.28,4.28,0,0,1-.955.945,4.4,4.4,0,0,1-1.225.59,4.64,4.64,0,0,1-2.65,0,3.8,3.8,0,0,1-2.075-1.575,4.04,4.04,0,0,1-.6-2.44,3.385,3.385,0,0,1,1.085-2.165,3.325,3.325,0,0,1,2.135-.865,2.71,2.71,0,0,1,2.8,2.72,2.21,2.21,0,0,1-.85,1.7,2.1,2.1,0,0,1-1.67.42,1.77,1.77,0,0,1-1.225-.94,1.57,1.57,0,0,1-.06-1.335,1.385,1.385,0,0,1,.83-.755,1.2,1.2,0,0,1,.885.04,1.065,1.065,0,0,1,.47.44C229.519,180.539,229.464,180.734,229.449,180.729Z" transform="translate(447.711 98.466)" fill="#263238"/>
    <path id="Path_11258" data-name="Path 11258" d="M223.35,131.165a8.45,8.45,0,0,0,.945-.12,2.42,2.42,0,0,0,1.56-3.55,6.308,6.308,0,0,0-.555-.775,1.7,1.7,0,0,1,.715.685,2.5,2.5,0,0,1-1.68,3.82A1.5,1.5,0,0,1,223.35,131.165Z" transform="translate(447.654 123.03)" fill="#263238"/>
    <path id="Path_11259" data-name="Path 11259" d="M236.28,127.375a1.855,1.855,0,0,1-.83.75,3.4,3.4,0,0,1-2.675.19,4.055,4.055,0,0,1-2.065-1.72,2.5,2.5,0,0,1-.42-1.035c.045,0,.19.385.575.93a4.205,4.205,0,0,0,2,1.58,3.46,3.46,0,0,0,2.5-.11A7.552,7.552,0,0,0,236.28,127.375Z" transform="translate(444.184 123.61)" fill="#263238"/>
    <path id="Path_11260" data-name="Path 11260" d="M230.115,140.638c-.04,0-.175-.345-.54-.83a4.05,4.05,0,0,0-1.85-1.37,4.1,4.1,0,0,0-2.3-.1c-.585.145-.915.345-.94.305a2.04,2.04,0,0,1,.89-.5,3.79,3.79,0,0,1,4.355,1.54A1.965,1.965,0,0,1,230.115,140.638Z" transform="translate(447.09 117.412)" fill="#263238"/>
    <path id="Path_11261" data-name="Path 11261" d="M237.6,137.544a1.425,1.425,0,0,1-.5-.765,2.62,2.62,0,0,1,1.91-3.5,1.5,1.5,0,0,1,.915,0c0,.045-.35,0-.87.165a2.6,2.6,0,0,0-1.78,3.28C237.412,137.244,237.632,137.514,237.6,137.544Z" transform="translate(440.867 119.786)" fill="#263238"/>
    <path id="Path_11262" data-name="Path 11262" d="M110.71,187.01s12.7-25.75,13.57-26.785,5.5-11.8,5.5-11.8l6.47-7.73s3.035.455,1.1,4.38l-2.745,5.23,10.085-10.12s3,.345,1.825,3.5c-.865,2.36-3.945,6-3.945,6l9.05-7.86s3.765.585,1.96,4.535c-1.175,2.565-11.725,14.225-11.725,14.225s5.265-3.25,6.925-4.33,3.38-3.425,4.61-3.205,3.37,2.125.17,5.755-12.19,9.415-13.5,10.13l-1.31.72s-1.56,4.035-3.755,6c0,0-3.61,11.44-5.43,14.59a15.665,15.665,0,0,1-5.225,5.24l-5.555,15-15.87-10.94Z" transform="translate(507.869 116.3)" fill="#b29180"/>
    <path id="Path_11263" data-name="Path 11263" d="M110.7,186.889s-.165.285-.5.835l-1.5,2.43-5.75,9.315v-.08l15.88,10.93-.135.045c1.66-4.5,3.53-9.57,5.54-15a.08.08,0,0,1,.04-.05h0a16.065,16.065,0,0,0,4-3.5,12.205,12.205,0,0,0,1.5-2.32c.41-.845.785-1.72,1.135-2.615,1.415-3.585,2.685-7.395,3.95-11.335a.13.13,0,0,1,.035-.055,12,12,0,0,0,2.11-2.69,23.966,23.966,0,0,0,1.61-3.25.11.11,0,0,1,.055-.06c.665-.375,1.345-.72,2-1.125s1.3-.825,1.95-1.25q1.95-1.285,3.885-2.67c1.29-.925,2.575-1.885,3.83-2.9a23.76,23.76,0,0,0,3.5-3.365,6,6,0,0,0,1.14-2.125,2.345,2.345,0,0,0-.445-2.23,2.315,2.315,0,0,0-1-.65,1.315,1.315,0,0,0-1.1.18,12.78,12.78,0,0,0-1.94,1.58,12.29,12.29,0,0,1-2,1.59l-2.18,1.365-4.4,2.75a.13.13,0,0,1-.165-.2l2.435-2.73c2.33-2.645,4.625-5.285,6.785-8,.535-.67,1.06-1.35,1.565-2.04a7.666,7.666,0,0,0,1.205-2.205,2.835,2.835,0,0,0-.15-2.355,3.045,3.045,0,0,0-2-1.24l.1-.03-9.055,7.855a.125.125,0,0,1-.175-.175,32.389,32.389,0,0,0,3.435-4.91,6.919,6.919,0,0,0,.57-1.335,2.97,2.97,0,0,0,.14-1.395,1.8,1.8,0,0,0-.68-1.155,2.785,2.785,0,0,0-1.265-.53l.1-.035-10.09,10.115a.11.11,0,0,1-.16,0,.1.1,0,0,1,0-.13q1.37-2.61,2.68-5.1a8.276,8.276,0,0,0,.5-1.28,6,6,0,0,0,.15-.66,3.283,3.283,0,0,0,0-.665,1.825,1.825,0,0,0-.5-1.155,2.175,2.175,0,0,0-1.115-.6l.1-.035-6.475,7.725h0c-1.315,3.04-2.59,5.93-3.86,8.64-.32.675-.635,1.34-.97,2-.165.325-.335.64-.5.95a9.407,9.407,0,0,0-.56.9c-.685,1.23-1.305,2.445-1.915,3.615-2.415,4.7-4.45,8.77-6.12,12.1l-3.845,7.68-1,2c-.225.45-.35.675-.35.675s.105-.235.325-.69l1-2,3.755-7.78c1.655-3.34,3.68-7.42,6.08-12.12.605-1.175,1.22-2.39,1.9-3.625.165-.305.38-.635.565-.91a6.7,6.7,0,0,0,.5-.94c.33-.645.645-1.31.965-2,1.26-2.71,2.53-5.6,3.84-8.645h0l6.46-7.74h0a.1.1,0,0,1,.1-.035,2.41,2.41,0,0,1,1.24.65,2.06,2.06,0,0,1,.58,1.29,3.42,3.42,0,0,1,0,.715,6.275,6.275,0,0,1-.155.69,8.366,8.366,0,0,1-.53,1.32q-1.31,2.5-2.68,5.105l-.18-.135,10.105-10.12h0a.125.125,0,0,1,.1-.03,3,3,0,0,1,1.385.58,2.05,2.05,0,0,1,.775,1.3,3.215,3.215,0,0,1-.15,1.5,7.035,7.035,0,0,1-.59,1.38,32.06,32.06,0,0,1-3.46,4.955l-.2-.185,9.05-7.86h0a.125.125,0,0,1,.1-.03,3.915,3.915,0,0,1,1.22.46,2.63,2.63,0,0,1,.96.9,3.075,3.075,0,0,1,.175,2.565,6.2,6.2,0,0,1-.505,1.215c-.22.38-.47.73-.715,1.085-.5.7-1.035,1.38-1.575,2.055-2.165,2.695-4.46,5.335-6.79,8l-2.42,2.715-.165-.2,4.4-2.75a23.787,23.787,0,0,0,4.17-2.925,12.764,12.764,0,0,1,2-1.615,2.171,2.171,0,0,1,.62-.245,1.32,1.32,0,0,1,.685.045,2.54,2.54,0,0,1,1.1.725,2.6,2.6,0,0,1,.5,2.465,6.25,6.25,0,0,1-1.19,2.215,23.762,23.762,0,0,1-3.55,3.4c-1.26,1.025-2.55,2-3.84,2.915s-2.6,1.815-3.9,2.67q-1,.645-1.96,1.25c-.655.415-1.34.76-2,1.13l.055-.06a23.636,23.636,0,0,1-1.63,3.285,12.135,12.135,0,0,1-2.16,2.745l.035-.055c-1.27,3.945-2.545,7.755-3.965,11.345-.355.9-.73,1.78-1.145,2.63a12.115,12.115,0,0,1-1.535,2.36,16.18,16.18,0,0,1-4.065,3.555l.045-.055-5.57,15a.09.09,0,0,1-.115.055h0l-15.845-11a.065.065,0,0,1,0-.085c2.5-4,4.465-7.135,5.8-9.26l1.5-2.415C110.524,187.164,110.7,186.889,110.7,186.889Z" transform="translate(507.875 116.421)" fill="#8b6c5d"/>
    <path id="Path_11264" data-name="Path 11264" d="M168.155,155.93a6.686,6.686,0,0,1-.555.7c-.37.445-.92,1.075-1.61,1.84-1.38,1.53-3.33,3.61-5.625,5.76a62.312,62.312,0,0,1-5.08,4.315h0a10.369,10.369,0,0,0-3.07,1.445c-.675.465-1,.785-1.03.765s.07-.1.225-.25a8.4,8.4,0,0,1,.735-.615,9.845,9.845,0,0,1,3.085-1.55h-.035c1.46-1.14,3.21-2.635,5.025-4.34,2.29-2.145,4.26-4.2,5.67-5.7l1.67-1.78a5.12,5.12,0,0,1,.6-.6Z" transform="translate(483.74 108.425)" fill="#8b6c5d"/>
    <path id="Path_11265" data-name="Path 11265" d="M160.17,159.2a8,8,0,0,1-.95,1.2c-.615.71-1.5,1.675-2.5,2.715l-2.555,2.64a9.8,9.8,0,0,1-1.1,1.065,8.112,8.112,0,0,1,.96-1.19c.62-.705,1.5-1.66,2.5-2.7l2.54-2.66a9.652,9.652,0,0,1,1.1-1.07Z" transform="translate(482.795 106.79)" fill="#8b6c5d"/>
    <path id="Path_11266" data-name="Path 11266" d="M159.54,186.02a45,45,0,0,0,10.86-5.28" transform="translate(479.559 96.02)" fill="#b29180"/>
    <path id="Path_11267" data-name="Path 11267" d="M170.425,180.74a1.815,1.815,0,0,1-.37.3c-.25.185-.615.435-1.08.73a37.3,37.3,0,0,1-3.745,2.09,38.164,38.164,0,0,1-3.935,1.66c-.5.18-.94.315-1.235.395a1.5,1.5,0,0,1-.47.1,17.05,17.05,0,0,1,1.645-.675c1-.4,2.4-1,3.9-1.715s2.82-1.465,3.765-2A14.176,14.176,0,0,1,170.425,180.74Z" transform="translate(479.535 96.02)" fill="#8b6c5d"/>
    <path id="Path_11268" data-name="Path 11268" d="M78.178,237.74c-.555.74-17,25.5-17,25.5s-15.54,24.205-17.805,31c-3.315,9.94-4.055,27.18,6.665,31.8s14.415,4.77,27.355-.22a89.545,89.545,0,0,0,22.37-12.79l-2.54-45.045-10.44,5.385,9-24.11Z" transform="translate(538.73 67.52)" fill="#90caf9"/>
    <path id="Path_11269" data-name="Path 11269" d="M372.943,314.46s8.355,6.685,11.38,29.46c1.91,14.375,7.325,49.455,7.325,49.455H360.053s-6.33-45.12-5.68-45.8S372.943,314.46,372.943,314.46Z" transform="translate(382.166 29.16)" fill="#90caf9"/>
    <path id="Path_11270" data-name="Path 11270" d="M144.3,286.4l34.185-7.14s2.665,14.16,20.545,11.075c18.39-3.17,18.615-15.81,18.615-15.81s30.675,10.53,36.615,13.185a26.5,26.5,0,0,1,9.2,6.77s-10.9,42.295-11.24,42.825-.675,36.31-1.525,36.135-101.77-.54-101.77-.54l-3.07-42.385-10.5-36.425Z" transform="translate(491.654 49.125)" fill="#90caf9"/>
    <path id="Path_11271" data-name="Path 11271" d="M127.635,285.05a2.5,2.5,0,0,1-.14.415l-.455,1.18c-.39,1.03-.965,2.5-1.635,4.355-1.355,3.68-3.1,8.815-4.97,14.5-.925,2.855-1.915,5.53-2.47,8.065-.305,1.26-.58,2.46-.9,3.575a29.244,29.244,0,0,1-1.04,3.05c-.36.91-.655,1.745-.905,2.5a16.762,16.762,0,0,1-.765,1.855c-.235.5-.43.875-.565,1.13a2.8,2.8,0,0,1-.215.385,2.319,2.319,0,0,1,.17-.4c.125-.285.3-.67.5-1.155a17,17,0,0,0,.715-1.855c.235-.745.5-1.59.875-2.5a44.5,44.5,0,0,0,1.89-6.62c.545-2.545,1.535-5.24,2.455-8.085,1.875-5.69,3.645-10.82,5.045-14.5.695-1.84,1.295-3.31,1.715-4.325l.5-1.165A2.419,2.419,0,0,1,127.635,285.05Z" transform="translate(502.539 43.865)" fill="#263238"/>
    <path id="Path_11272" data-name="Path 11272" d="M145.734,373.7a1.383,1.383,0,0,1-.04-.295c0-.21-.045-.5-.08-.855-.06-.765-.145-1.855-.255-3.215-.2-2.775-.5-6.67-.815-11.23h0c-.63-2.835-1.36-5.94-2.23-9.17a95.24,95.24,0,0,0-5.89-16.68,37,37,0,0,0-2.67-4.65c-.365-.5-.68-.895-.875-1.17l-.22-.3c-.05-.07-.075-.1-.07-.11l.09.095.245.29c.205.26.535.63.91,1.145a33.3,33.3,0,0,1,2.755,4.625,92.392,92.392,0,0,1,6,16.7c.87,3.23,1.6,6.345,2.215,9.185h0c.3,4.57.545,8.465.725,11.24.075,1.365.14,2.45.185,3.22,0,.36.03.645.04.86a2.191,2.191,0,0,1-.02.325Z" transform="translate(493.035 23.38)" fill="#263238"/>
    <path id="Path_11273" data-name="Path 11273" d="M365.775,408.34a.694.694,0,0,1,0-.165v-9.2c.05-5.8.115-13.785.185-22.61h0v-.14c1.185-8.78,2.26-16.73,3.04-22.5.4-2.865.725-5.19.95-6.815.115-.79.2-1.41.27-1.85.035-.2.06-.36.08-.5a.559.559,0,0,1,.035-.165.819.819,0,0,1,0,.165c0,.125-.03.285-.05.5-.055.44-.13,1.065-.225,1.86-.205,1.625-.5,3.955-.87,6.825l-2.96,22.5v.14h0c-.1,8.83-.2,16.81-.26,22.61-.05,2.88-.085,5.215-.11,6.845,0,.8-.035,1.42-.045,1.86v.5a.7.7,0,0,1-.04.145Z" transform="translate(376.445 14.195)" fill="#263238"/>
    <path id="Path_11274" data-name="Path 11274" d="M220.11,301.16a7.41,7.41,0,0,1,3.64-4.42,22.569,22.569,0,0,0-2.065,2,22.059,22.059,0,0,0-1.575,2.42Z" transform="translate(449.275 38.02)" fill="#263238"/>
    <path id="Path_11275" data-name="Path 11275" d="M230.406,307.38a5.705,5.705,0,0,1,2.18-4.7,9.44,9.44,0,0,0-2.18,4.7Z" transform="translate(444.129 35.05)" fill="#263238"/>
    <path id="Path_11276" data-name="Path 11276" d="M243.81,312.08a31.417,31.417,0,0,1,0-5.71,31.416,31.416,0,0,1,0,5.71Z" transform="translate(437.49 33.205)" fill="#263238"/>
    <path id="Path_11277" data-name="Path 11277" d="M258.681,312.1a6.845,6.845,0,0,1-1.235-2.43A6.764,6.764,0,0,1,257,307c.08,0,.215,1.2.68,2.6S258.751,312.06,258.681,312.1Z" transform="translate(430.834 32.89)" fill="#263238"/>
    <path id="Path_11278" data-name="Path 11278" d="M274.285,309.39a37.551,37.551,0,0,1-2.555-5.69,38.16,38.16,0,0,1,2.555,5.69Z" transform="translate(423.465 34.54)" fill="#263238"/>
    <path id="Path_11279" data-name="Path 11279" d="M288.853,303.19c-.065.04-.82-1.15-1.93-2.47s-2.135-2.285-2.085-2.34a13.8,13.8,0,0,1,4,4.81Z" transform="translate(416.912 37.2)" fill="#263238"/>
    <path id="Path_11280" data-name="Path 11280" d="M299.39,294.175c-.06.055-1.115-1.08-2.67-2.165s-2.97-1.705-2.94-1.78a3.3,3.3,0,0,1,.96.345,13.055,13.055,0,0,1,2.13,1.225,13.275,13.275,0,0,1,1.875,1.59A3.311,3.311,0,0,1,299.39,294.175Z" transform="translate(412.439 41.275)" fill="#263238"/>
    <path id="Path_11281" data-name="Path 11281" d="M304.965,283.442a13.085,13.085,0,0,0-3.145-1.78,13.624,13.624,0,0,0-3.57-.6,3.24,3.24,0,0,1,1.08-.105,7.946,7.946,0,0,1,2.575.465,8.134,8.134,0,0,1,2.295,1.26,3,3,0,0,1,.765.765Z" transform="translate(410.205 45.918)" fill="#263238"/>
    <path id="Path_11282" data-name="Path 11282" d="M212.16,292.8a8.225,8.225,0,0,1,2.56-1.69,8.331,8.331,0,0,1,2.945-.88c0,.08-1.315.4-2.835,1.115S212.2,292.865,212.16,292.8Z" transform="translate(453.25 41.275)" fill="#263238"/>
    <path id="Path_11283" data-name="Path 11283" d="M202.11,429.49s.045-.03.14-.08l.42-.21,1.64-.79,6.035-2.875c5.1-2.44,12.1-5.855,19.79-9.75s14.58-7.535,19.555-10.205l5.89-3.17,1.605-.855.42-.22.145-.065a1.6,1.6,0,0,1-.135.09l-.4.24-1.58.9c-1.375.78-3.375,1.885-5.85,3.24-4.955,2.71-11.84,6.38-19.53,10.28s-14.695,7.285-19.825,9.68c-2.555,1.2-4.63,2.155-6.07,2.8l-1.66.74-.435.19A.805.805,0,0,1,202.11,429.49Z" transform="translate(458.275 -14.245)" fill="#263238"/>
  </g>
</svg>
