<svg width="14" height="18" viewBox="0 0 14 18" fill="none" xmlns="http://www.w3.org/2000/svg">
<path d="M1.32031 0.689209H7.98698C9.40147 0.689209 10.758 1.25111 11.7582 2.25131C12.7584 3.2515 13.3203 4.60805 13.3203 6.02254V16.6892H1.32031V0.689209Z" fill="#D1E7FF"/>
<path d="M1.48652 0.16262C1.32412 0.163139 1.16342 0.195797 1.0137 0.258711C0.863971 0.321626 0.728181 0.413554 0.614151 0.529195C0.500122 0.644835 0.410109 0.781902 0.349301 0.932494C0.288493 1.08309 0.258093 1.24422 0.259853 1.40662V16.5933C0.257915 16.7557 0.288193 16.9169 0.348937 17.0676C0.409681 17.2183 0.499687 17.3554 0.613752 17.4711C0.727817 17.5868 0.863678 17.6787 1.01348 17.7416C1.16329 17.8044 1.32406 17.8369 1.48652 17.8373H12.2865C12.4488 17.8362 12.6094 17.8032 12.7589 17.7401C12.9085 17.6771 13.0441 17.5851 13.1582 17.4696C13.2722 17.3541 13.3624 17.2173 13.4235 17.0669C13.4846 16.9165 13.5156 16.7556 13.5145 16.5933V4.02929C13.5142 3.95659 13.4995 3.88467 13.4714 3.81764C13.4433 3.7506 13.4022 3.68977 13.3505 3.63862L10.0625 0.34662C10.0105 0.288123 9.94665 0.241434 9.87512 0.209696C9.8036 0.177958 9.7261 0.161906 9.64785 0.16262H1.48652ZM9.09985 1.26662V4.02662C9.09968 4.09951 9.1139 4.17172 9.14172 4.23909C9.16953 4.30646 9.21038 4.36768 9.26192 4.41922C9.31346 4.47076 9.37468 4.51161 9.44205 4.53942C9.50943 4.56724 9.58163 4.58146 9.65452 4.58129H12.4145V16.592C12.4146 16.6255 12.4021 16.6579 12.3793 16.6827C12.3566 16.7074 12.3253 16.7226 12.2919 16.7253H1.49185C1.45861 16.7223 1.4277 16.7069 1.40524 16.6822C1.38277 16.6575 1.37038 16.6253 1.37052 16.592V1.40662C1.37038 1.37324 1.38277 1.34103 1.40524 1.31634C1.4277 1.29165 1.45861 1.27629 1.49185 1.27329H9.10519L9.09985 1.26662ZM10.2025 2.04795L11.6305 3.47729H10.1985L10.2025 2.04795ZM3.57319 6.23729C3.43131 6.24426 3.29754 6.30553 3.19959 6.40841C3.10164 6.51129 3.04701 6.6479 3.04701 6.78995C3.04701 6.93201 3.10164 7.06862 3.19959 7.1715C3.29754 7.27438 3.43131 7.33565 3.57319 7.34262H10.1985C10.2734 7.3463 10.3482 7.33473 10.4185 7.30861C10.4887 7.2825 10.5529 7.24239 10.6072 7.1907C10.6615 7.13902 10.7047 7.07685 10.7343 7.00796C10.7638 6.93907 10.779 6.8649 10.779 6.78995C10.779 6.715 10.7638 6.64083 10.7343 6.57194C10.7047 6.50306 10.6615 6.44088 10.6072 6.3892C10.5529 6.33752 10.4887 6.29741 10.4185 6.27129C10.3482 6.24518 10.2734 6.23361 10.1985 6.23729H3.57319ZM3.57319 8.99729C3.42679 8.99729 3.28638 9.05544 3.18286 9.15896C3.07934 9.26248 3.02119 9.40289 3.02119 9.54929C3.02119 9.69569 3.07934 9.83609 3.18286 9.93961C3.28638 10.0431 3.42679 10.1013 3.57319 10.1013H10.1985C10.3449 10.1013 10.4853 10.0431 10.5888 9.93961C10.6924 9.83609 10.7505 9.69569 10.7505 9.54929C10.7505 9.40289 10.6924 9.26248 10.5888 9.15896C10.4853 9.05544 10.3449 8.99729 10.1985 8.99729H3.57319ZM3.57319 12.864H10.1985C10.3449 12.864 10.4853 12.8058 10.5888 12.7023C10.6924 12.5988 10.7505 12.4584 10.7505 12.312C10.7505 12.1656 10.6924 12.0252 10.5888 11.9216C10.4853 11.8181 10.3449 11.76 10.1985 11.76H3.57319C3.42626 11.76 3.28534 11.8183 3.18145 11.9222C3.07755 12.0261 3.01919 12.167 3.01919 12.314C3.01919 12.4609 3.07755 12.6018 3.18145 12.7057C3.28534 12.8096 3.42626 12.868 3.57319 12.868V12.864Z" fill="#3F83CD"/>
</svg>
