<svg xmlns="http://www.w3.org/2000/svg" width="16" height="16" viewBox="0 0 16 16">
  <g id="Group_10305" data-name="Group 10305" transform="translate(-5764 -254)">
    <g id="Group_10304" data-name="Group 10304">
      <path id="firewall_1_" data-name="firewall (1)" d="M26,17.837V20.1H18.339V16.627h6.484A1.2,1.2,0,0,1,26,17.837Zm-1.177,14.79H22.5V29.15H26v2.267A1.2,1.2,0,0,1,24.823,32.627ZM10,31.417V29.15h3.481v3.477h-2.3A1.2,1.2,0,0,1,10,31.417Zm1.177-14.79h6.484V20.1H10V17.837a1.2,1.2,0,0,1,1.177-1.21ZM22.5,24.279V20.8H26v3.477H22.5Zm-4.177,4.174.016-3.477H26v3.477Zm3.5.7v3.477H14.159V29.15Zm-4.161-4.174-.016,3.477H10V24.975Zm-4.178-.7H10V20.8h3.481ZM21.82,20.8v3.477H14.159V20.8Z" transform="translate(5754 237.373)" fill="#cbcbcb" fill-rule="evenodd"/>
      <path id="Path_9458" data-name="Path 9458" d="M147.795,107.783a3.8,3.8,0,0,1-3.464,2.276,3.718,3.718,0,0,1-3.2-1.794c-1.219-2-.169-4.551,1.155-5.136l1.062.962c-.051-1.362-.373-3.132,1.432-3.917C144.942,102.716,149.353,104.123,147.795,107.783Z" transform="translate(5627.64 156.884)" fill="#fff"/>
    </g>
  </g>
</svg>
