<svg xmlns="http://www.w3.org/2000/svg" xmlns:xlink="http://www.w3.org/1999/xlink" width="36.311" height="41.932" viewBox="0 0 36.311 41.932">
  <defs>
    <clipPath id="clip-path">
      <path id="Path_6983" data-name="Path 6983" d="M-368.027,382.657l.025-8.984,3.6,2.078-.026,8.984Z" transform="translate(368.027 -373.674)" fill="none"/>
    </clipPath>
  </defs>
  <g id="Group_9875" data-name="Group 9875" transform="translate(368.835 -362.811)">
    <g id="Group_9298" data-name="Group 9298" transform="translate(-368.835 362.811)">
      <g id="Group_9297" data-name="Group 9297">
        <g id="Group_9294" data-name="Group 9294">
          <g id="Group_9292" data-name="Group 9292" transform="translate(0.019)">
            <path id="Path_6914" data-name="Path 6914" d="M-368.825,371.8l15.562-8.985v20.964l-15.562,8.985Z" transform="translate(368.825 -362.811)" fill="#ff8b49"/>
            <path id="Path_6915" data-name="Path 6915" d="M-361.12,362.813v20.964l20.749,11.98V374.793Z" transform="translate(376.664 -362.81)" fill="#ffa768"/>
          </g>
          <g id="Group_9293" data-name="Group 9293" transform="translate(0 8.988)">
            <path id="Path_6916" data-name="Path 6916" d="M-368.835,367.267v20.964l20.749,11.98V379.246Z" transform="translate(368.835 -367.267)" fill="#f2ffe2"/>
            <path id="Path_6917" data-name="Path 6917" d="M-358.549,377.736l15.562-8.985v20.964l-15.562,8.985Z" transform="translate(379.298 -365.756)" fill="#cce5c2"/>
          </g>
        </g>
        <g id="Group_9296" data-name="Group 9296" transform="translate(0 0.003)">
          <path id="Path_6918" data-name="Path 6918" d="M-368.835,371.8l20.749,11.98,15.562-8.985-20.749-11.98Z" transform="translate(368.835 -362.813)" fill="#a6c2b0"/>
          <g id="Group_9295" data-name="Group 9295" transform="translate(0.642 0.371)">
            <path id="Path_6919" data-name="Path 6919" d="M-368.517,371.611-353.6,363l20.107,11.609-14.92,8.614Z" transform="translate(368.517 -362.997)" fill="#f2ffe2"/>
            <path id="Path_6920" data-name="Path 6920" d="M-368.039,371.606l13.957-8.058,19.145,11.053-13.957,8.058Z" transform="translate(369.002 -362.436)" fill="#bad7c4"/>
            <path id="Path_6921" data-name="Path 6921" d="M-361.12,363v1.112l19.145,11.053.963-.556Z" transform="translate(376.041 -362.997)" fill="#fffff3"/>
          </g>
        </g>
      </g>
    </g>
    <g id="Group_9319" data-name="Group 9319" transform="translate(-346.701 378.039)">
      <g id="Group_9308" data-name="Group 9308">
        <g id="Group_9301" data-name="Group 9301" transform="translate(10.972)">
          <path id="Path_6922" data-name="Path 6922" d="M-350.576,374.384l-1.848,1.069V372.92l1.848-1.069Z" transform="translate(352.424 -368.842)" fill="#fff"/>
          <g id="Group_9300" data-name="Group 9300">
            <g id="Group_9299" data-name="Group 9299">
              <path id="Path_6923" data-name="Path 6923" d="M-350.576,373.025l-1.848,1.069v-2.665l1.848-1.069Z" transform="translate(352.424 -370.36)" fill="#fff"/>
              <path id="Path_6924" data-name="Path 6924" d="M-350.576,373.029l-1.848,1.06v-.273l1.57-.913.019-2.39.259-.15Z" transform="translate(352.424 -370.355)" fill="#88cfe4"/>
            </g>
            <path id="Path_6925" data-name="Path 6925" d="M-350.576,374.384l-1.848,1.069v-.211l1.57-.913.018-2.328.259-.15Z" transform="translate(352.424 -368.842)" fill="#88cfe4"/>
          </g>
        </g>
        <g id="Group_9303" data-name="Group 9303" transform="translate(7.264 2.2)">
          <g id="Group_9302" data-name="Group 9302">
            <path id="Path_6926" data-name="Path 6926" d="M-352.414,375.475l-1.848,1.069v-2.533l1.848-1.069Z" transform="translate(354.262 -369.933)" fill="#fff"/>
            <path id="Path_6927" data-name="Path 6927" d="M-352.414,374.116l-1.848,1.069v-2.665l1.848-1.069Z" transform="translate(354.262 -371.45)" fill="#fff"/>
          </g>
          <path id="Path_6928" data-name="Path 6928" d="M-352.414,374.12l-1.848,1.06v-.273l1.57-.913.019-2.39.259-.15Z" transform="translate(354.262 -371.446)" fill="#88cfe4"/>
          <path id="Path_6929" data-name="Path 6929" d="M-352.414,375.475l-1.848,1.069v-.211l1.57-.913.018-2.328.259-.15Z" transform="translate(354.262 -369.933)" fill="#88cfe4"/>
        </g>
        <g id="Group_9305" data-name="Group 9305" transform="translate(3.606 4.271)">
          <g id="Group_9304" data-name="Group 9304">
            <path id="Path_6930" data-name="Path 6930" d="M-354.228,376.5l-1.848,1.069v-2.533l1.848-1.069Z" transform="translate(356.075 -370.96)" fill="#fff"/>
            <path id="Path_6931" data-name="Path 6931" d="M-354.228,375.143l-1.848,1.069v-2.665l1.848-1.069Z" transform="translate(356.075 -372.477)" fill="#fff"/>
          </g>
          <path id="Path_6932" data-name="Path 6932" d="M-354.228,375.147l-1.848,1.06v-.273l1.57-.913.019-2.39.259-.15Z" transform="translate(356.075 -372.473)" fill="#88cfe4"/>
          <path id="Path_6933" data-name="Path 6933" d="M-354.228,376.5l-1.848,1.069v-.211l1.57-.913.019-2.328.259-.15Z" transform="translate(356.075 -370.96)" fill="#88cfe4"/>
        </g>
        <g id="Group_9307" data-name="Group 9307" transform="translate(0 6.394)">
          <g id="Group_9306" data-name="Group 9306">
            <path id="Path_6934" data-name="Path 6934" d="M-356.015,377.554l-1.848,1.069V376.09l1.848-1.069Z" transform="translate(357.863 -372.012)" fill="#fff"/>
            <path id="Path_6935" data-name="Path 6935" d="M-356.015,376.195l-1.848,1.069V374.6l1.848-1.069Z" transform="translate(357.863 -373.529)" fill="#fff"/>
          </g>
          <path id="Path_6936" data-name="Path 6936" d="M-356.015,376.2l-1.848,1.06v-.273l1.57-.913.019-2.39.259-.15Z" transform="translate(357.863 -373.525)" fill="#88cfe4"/>
          <path id="Path_6937" data-name="Path 6937" d="M-356.015,377.554l-1.848,1.069v-.211l1.57-.913.019-2.328.259-.15Z" transform="translate(357.863 -372.012)" fill="#88cfe4"/>
        </g>
      </g>
      <g id="Group_9318" data-name="Group 9318" transform="translate(0 8.363)">
        <g id="Group_9311" data-name="Group 9311" transform="translate(10.972)">
          <path id="Path_6938" data-name="Path 6938" d="M-350.576,378.53l-1.848,1.069v-2.533l1.848-1.069Z" transform="translate(352.424 -372.988)" fill="#fff"/>
          <g id="Group_9310" data-name="Group 9310">
            <g id="Group_9309" data-name="Group 9309">
              <path id="Path_6939" data-name="Path 6939" d="M-350.576,377.171l-1.848,1.069v-2.665l1.848-1.069Z" transform="translate(352.424 -374.506)" fill="#fff"/>
              <path id="Path_6940" data-name="Path 6940" d="M-350.576,377.175l-1.848,1.06v-.273l1.57-.913.019-2.39.259-.15Z" transform="translate(352.424 -374.501)" fill="#88cfe4"/>
            </g>
            <path id="Path_6941" data-name="Path 6941" d="M-350.576,378.53l-1.848,1.069v-.211l1.57-.913.018-2.328.259-.15Z" transform="translate(352.424 -372.988)" fill="#88cfe4"/>
          </g>
        </g>
        <g id="Group_9313" data-name="Group 9313" transform="translate(7.264 2.2)">
          <g id="Group_9312" data-name="Group 9312">
            <path id="Path_6942" data-name="Path 6942" d="M-352.414,379.62l-1.848,1.069v-2.533l1.848-1.069Z" transform="translate(354.262 -374.079)" fill="#fff"/>
            <path id="Path_6943" data-name="Path 6943" d="M-352.414,378.261l-1.848,1.069v-2.665l1.848-1.069Z" transform="translate(354.262 -375.596)" fill="#fff"/>
          </g>
          <path id="Path_6944" data-name="Path 6944" d="M-352.414,378.266l-1.848,1.06v-.273l1.57-.913.019-2.39.259-.15Z" transform="translate(354.262 -375.592)" fill="#88cfe4"/>
          <path id="Path_6945" data-name="Path 6945" d="M-352.414,379.62l-1.848,1.069v-.211l1.57-.913.018-2.328.259-.15Z" transform="translate(354.262 -374.079)" fill="#88cfe4"/>
        </g>
        <g id="Group_9315" data-name="Group 9315" transform="translate(3.606 4.271)">
          <g id="Group_9314" data-name="Group 9314">
            <path id="Path_6946" data-name="Path 6946" d="M-354.228,380.647l-1.848,1.069v-2.533l1.848-1.069Z" transform="translate(356.075 -375.106)" fill="#fff"/>
            <path id="Path_6947" data-name="Path 6947" d="M-354.228,379.288l-1.848,1.069v-2.665l1.848-1.069Z" transform="translate(356.075 -376.623)" fill="#fff"/>
          </g>
          <path id="Path_6948" data-name="Path 6948" d="M-354.228,379.293l-1.848,1.06v-.273l1.57-.913.019-2.39.259-.15Z" transform="translate(356.075 -376.619)" fill="#88cfe4"/>
          <path id="Path_6949" data-name="Path 6949" d="M-354.228,380.647l-1.848,1.069v-.211l1.57-.913.019-2.328.259-.15Z" transform="translate(356.075 -375.106)" fill="#88cfe4"/>
        </g>
        <g id="Group_9317" data-name="Group 9317" transform="translate(0 6.394)">
          <g id="Group_9316" data-name="Group 9316">
            <path id="Path_6950" data-name="Path 6950" d="M-356.015,381.7l-1.848,1.069v-2.533l1.848-1.069Z" transform="translate(357.863 -376.158)" fill="#fff"/>
            <path id="Path_6951" data-name="Path 6951" d="M-356.015,380.341l-1.848,1.069v-2.665l1.848-1.069Z" transform="translate(357.863 -377.675)" fill="#fff"/>
          </g>
          <path id="Path_6952" data-name="Path 6952" d="M-356.015,380.345l-1.848,1.06v-.273l1.57-.913.019-2.39.259-.15Z" transform="translate(357.863 -377.671)" fill="#88cfe4"/>
          <path id="Path_6953" data-name="Path 6953" d="M-356.015,381.7l-1.848,1.069v-.211l1.57-.913.019-2.328.259-.15Z" transform="translate(357.863 -376.158)" fill="#88cfe4"/>
        </g>
      </g>
    </g>
    <g id="Group_9342" data-name="Group 9342" transform="translate(-367.204 377.195)">
      <g id="Group_9337" data-name="Group 9337" transform="translate(2.242)">
        <g id="Group_9329" data-name="Group 9329">
          <g id="Group_9322" data-name="Group 9322">
            <path id="Path_6954" data-name="Path 6954" d="M-366.915,373.966l1.848,1.069V372.5l-1.848-1.069Z" transform="translate(366.915 -368.424)" fill="#cdeaf8"/>
            <g id="Group_9321" data-name="Group 9321">
              <g id="Group_9320" data-name="Group 9320">
                <path id="Path_6955" data-name="Path 6955" d="M-366.915,372.607l1.848,1.069V371.01l-1.848-1.069Z" transform="translate(366.915 -369.941)" fill="#cdeaf8"/>
                <path id="Path_6956" data-name="Path 6956" d="M-366.915,372.611l1.848,1.06V373.4l-1.57-.913-.019-2.39-.259-.15Z" transform="translate(366.915 -369.937)" fill="#88cfe4"/>
              </g>
              <path id="Path_6957" data-name="Path 6957" d="M-366.915,373.966l1.848,1.069v-.211l-1.57-.913-.019-2.328-.259-.15Z" transform="translate(366.915 -368.424)" fill="#88cfe4"/>
            </g>
          </g>
          <g id="Group_9324" data-name="Group 9324" transform="translate(3.709 2.2)">
            <g id="Group_9323" data-name="Group 9323">
              <path id="Path_6958" data-name="Path 6958" d="M-365.077,375.056l1.848,1.069v-2.533l-1.848-1.069Z" transform="translate(365.077 -369.514)" fill="#cdeaf8"/>
              <path id="Path_6959" data-name="Path 6959" d="M-365.077,373.7l1.848,1.069V372.1l-1.848-1.069Z" transform="translate(365.077 -371.032)" fill="#cdeaf8"/>
            </g>
            <path id="Path_6960" data-name="Path 6960" d="M-365.077,373.7l1.848,1.06v-.273l-1.57-.913-.019-2.39-.259-.15Z" transform="translate(365.077 -371.027)" fill="#88cfe4"/>
            <path id="Path_6961" data-name="Path 6961" d="M-365.077,375.056l1.848,1.069v-.211L-364.8,375l-.018-2.328-.259-.15Z" transform="translate(365.077 -369.514)" fill="#88cfe4"/>
          </g>
          <g id="Group_9326" data-name="Group 9326" transform="translate(7.366 4.271)">
            <g id="Group_9325" data-name="Group 9325">
              <path id="Path_6962" data-name="Path 6962" d="M-363.264,376.083l1.848,1.069v-2.533l-1.848-1.069Z" transform="translate(363.264 -370.541)" fill="#cdeaf8"/>
              <path id="Path_6963" data-name="Path 6963" d="M-363.264,374.724l1.848,1.069v-2.665l-1.848-1.069Z" transform="translate(363.264 -372.059)" fill="#cdeaf8"/>
            </g>
            <path id="Path_6964" data-name="Path 6964" d="M-363.264,374.728l1.848,1.06v-.273l-1.57-.913-.019-2.39-.259-.15Z" transform="translate(363.264 -372.054)" fill="#88cfe4"/>
            <path id="Path_6965" data-name="Path 6965" d="M-363.264,376.083l1.848,1.069v-.211l-1.57-.913L-363,373.7l-.259-.15Z" transform="translate(363.264 -370.541)" fill="#88cfe4"/>
          </g>
          <g id="Group_9328" data-name="Group 9328" transform="translate(10.972 6.394)">
            <g id="Group_9327" data-name="Group 9327">
              <path id="Path_6966" data-name="Path 6966" d="M-361.476,377.135l1.848,1.069v-2.533l-1.848-1.069Z" transform="translate(361.476 -371.594)" fill="#cdeaf8"/>
              <path id="Path_6967" data-name="Path 6967" d="M-361.476,375.776l1.848,1.069V374.18l-1.848-1.069Z" transform="translate(361.476 -373.111)" fill="#cdeaf8"/>
            </g>
            <path id="Path_6968" data-name="Path 6968" d="M-361.476,375.781l1.848,1.06v-.273l-1.57-.913-.019-2.39-.259-.15Z" transform="translate(361.476 -373.107)" fill="#88cfe4"/>
            <path id="Path_6969" data-name="Path 6969" d="M-361.476,377.135l1.848,1.069v-.211l-1.57-.913-.019-2.328-.259-.15Z" transform="translate(361.476 -371.594)" fill="#88cfe4"/>
          </g>
        </g>
        <g id="Group_9336" data-name="Group 9336" transform="translate(3.709 10.486)">
          <g id="Group_9331" data-name="Group 9331">
            <g id="Group_9330" data-name="Group 9330">
              <path id="Path_6970" data-name="Path 6970" d="M-365.077,379.164l1.848,1.069V377.7l-1.848-1.069Z" transform="translate(365.077 -373.622)" fill="#cdeaf8"/>
              <path id="Path_6971" data-name="Path 6971" d="M-365.077,377.805l1.848,1.069v-2.665l-1.848-1.069Z" transform="translate(365.077 -375.14)" fill="#cdeaf8"/>
            </g>
            <path id="Path_6972" data-name="Path 6972" d="M-365.077,377.809l1.848,1.06V378.6l-1.57-.913-.019-2.39-.259-.15Z" transform="translate(365.077 -375.135)" fill="#88cfe4"/>
            <path id="Path_6973" data-name="Path 6973" d="M-365.077,379.164l1.848,1.069v-.211l-1.57-.913-.018-2.328-.259-.15Z" transform="translate(365.077 -373.622)" fill="#88cfe4"/>
          </g>
          <g id="Group_9333" data-name="Group 9333" transform="translate(3.657 2.072)">
            <g id="Group_9332" data-name="Group 9332">
              <path id="Path_6974" data-name="Path 6974" d="M-363.264,380.191l1.848,1.069v-2.533l-1.848-1.069Z" transform="translate(363.264 -374.649)" fill="#cdeaf8"/>
              <path id="Path_6975" data-name="Path 6975" d="M-363.264,378.832l1.848,1.069v-2.665l-1.848-1.069Z" transform="translate(363.264 -376.167)" fill="#cdeaf8"/>
            </g>
            <path id="Path_6976" data-name="Path 6976" d="M-363.264,378.836l1.848,1.06v-.273l-1.57-.913-.019-2.39-.259-.15Z" transform="translate(363.264 -376.162)" fill="#88cfe4"/>
            <path id="Path_6977" data-name="Path 6977" d="M-363.264,380.191l1.848,1.069v-.211l-1.57-.913-.019-2.328-.259-.15Z" transform="translate(363.264 -374.649)" fill="#88cfe4"/>
          </g>
          <g id="Group_9335" data-name="Group 9335" transform="translate(7.264 4.195)">
            <g id="Group_9334" data-name="Group 9334">
              <path id="Path_6978" data-name="Path 6978" d="M-361.476,381.243l1.848,1.069v-2.533l-1.848-1.069Z" transform="translate(361.476 -375.701)" fill="#cdeaf8"/>
              <path id="Path_6979" data-name="Path 6979" d="M-361.476,379.884l1.848,1.069v-2.665l-1.848-1.069Z" transform="translate(361.476 -377.219)" fill="#cdeaf8"/>
            </g>
            <path id="Path_6980" data-name="Path 6980" d="M-361.476,379.889l1.848,1.06v-.273l-1.57-.913-.019-2.39-.259-.15Z" transform="translate(361.476 -377.215)" fill="#88cfe4"/>
            <path id="Path_6981" data-name="Path 6981" d="M-361.476,381.243l1.848,1.069V382.1l-1.57-.913-.019-2.328-.259-.15Z" transform="translate(361.476 -375.701)" fill="#88cfe4"/>
          </g>
        </g>
      </g>
      <g id="Group_9341" data-name="Group 9341" transform="translate(0 7.529)">
        <g id="Group_9340" data-name="Group 9340" style="mix-blend-mode: normal;isolation: isolate">
          <g id="Group_9339" data-name="Group 9339" clip-path="url(#clip-path)">
            <g id="Group_9338" data-name="Group 9338">
              <path id="Path_6982" data-name="Path 6982" d="M-364.4,375.751l-3.6-2.078-.025,8.984,3.6,2.078.026-8.984" transform="translate(368.027 -373.674)" fill="#969986"/>
            </g>
          </g>
        </g>
      </g>
    </g>
  </g>
</svg>
