<svg xmlns="http://www.w3.org/2000/svg" width="56" height="38.387" viewBox="0 0 56 38.387">
  <g id="Group_9881" data-name="Group 9881" transform="translate(-998.045 -534.127)">
    <rect id="Rectangle_2878" data-name="Rectangle 2878" width="56" height="13.843" transform="translate(998.045 558.672)" fill="#00a7ce"/>
    <path id="Path_5322" data-name="Path 5322" d="M1043.545,534.127h-35l-10.5,24.553h56Z" transform="translate(0)" fill="#a1edff"/>
    <g id="Group_8655" data-name="Group 8655" transform="translate(1006.383 536.479)">
      <g id="Group_8654" data-name="Group 8654">
        <g id="Group_8651" data-name="Group 8651" transform="translate(3.198)">
          <g id="Group_8650" data-name="Group 8650" transform="translate(3.198 2.058)">
            <path id="Path_5323" data-name="Path 5323" d="M1031.984,550.549h-13.5l-7-11.354h-9.23v-3.808h11.1l7,11.354h11.636Z" transform="translate(-1002.253 -535.387)" fill="#00a7ce"/>
          </g>
          <path id="Path_5324" data-name="Path 5324" d="M1004.538,534.8v7.355l-3.2-3.677Z" transform="translate(-1001.34 -534.799)" fill="#00a7ce"/>
          <path id="Path_5325" data-name="Path 5325" d="M1010.749,538.182v7.355l3.2-3.677Z" transform="translate(-977.821 -526.338)" fill="#00a7ce"/>
        </g>
        <g id="Group_8653" data-name="Group 8653" transform="translate(0 0.039)">
          <g id="Group_8652" data-name="Group 8652" transform="translate(3.198 2.058)">
            <path id="Path_5326" data-name="Path 5326" d="M1001.34,550.56h13.5l7-11.354h9.23V535.4h-11.1l-7,11.354H1001.34Z" transform="translate(-1001.34 -535.398)" fill="#00a7ce"/>
          </g>
          <path id="Path_5327" data-name="Path 5327" d="M1009.836,534.81v7.356l3.2-3.678Z" transform="translate(-976.908 -534.81)" fill="#00a7ce"/>
          <path id="Path_5328" data-name="Path 5328" d="M1003.624,538.194v7.355l-3.2-3.678Z" transform="translate(-1000.426 -526.349)" fill="#00a7ce"/>
        </g>
      </g>
    </g>
  </g>
</svg>
