<svg width="91" height="77" viewBox="0 0 91 77" fill="none" xmlns="http://www.w3.org/2000/svg">
<g clip-path="url(#clip0_21_4351)">
<path d="M12.1737 43.7172C12.2021 43.6959 12.2092 43.6534 12.195 43.6179C10.2405 39.417 7.8022 35.4587 4.92965 31.8233C4.92965 31.8233 2.64727 33.9922 2.8103 36.1683C2.84849 36.67 2.98521 37.1592 3.21265 37.608C3.44009 38.0568 3.75378 38.4564 4.13578 38.7838C6.12754 40.726 10.9475 43.1785 12.0674 43.7384C12.1028 43.7526 12.1454 43.7455 12.1737 43.7172ZM11.4295 45.3758C11.4153 45.3333 11.3728 45.3049 11.3231 45.3049L3.29938 45.5813C4.17122 47.1336 5.63846 48.3386 7.16241 47.97C8.21854 47.7078 10.6002 46.0421 11.3869 45.475C11.4507 45.4254 11.4295 45.3829 11.4295 45.3758ZM11.55 44.6599C11.5925 44.5961 11.5216 44.5394 11.5216 44.5394C7.99881 42.1578 1.16585 38.5003 1.16585 38.5003C0.939372 39.1945 0.876015 39.9315 0.980706 40.6542C1.0854 41.3768 1.35532 42.0656 1.76949 42.667C2.18366 43.2683 2.73092 43.7661 3.36875 44.1216C4.00657 44.4771 4.71777 44.6807 5.44708 44.7166C5.56758 44.7379 10.2174 44.7166 11.4649 44.7095C11.5003 44.7024 11.5287 44.6882 11.55 44.6599ZM12.0816 28.3572C11.7343 28.3855 10.7915 28.6053 10.7915 28.6053C8.66509 29.1511 8.16184 31.0861 8.16184 31.0861C7.77199 32.2982 8.16893 33.6378 8.16893 33.6378C8.87774 36.785 12.3651 41.9664 13.1164 43.0509C13.1661 43.1076 13.2086 43.0863 13.2086 43.0863C13.2511 43.0721 13.2866 43.0367 13.2866 42.9871C14.449 31.4193 12.0816 28.3572 12.0816 28.3572ZM14.7396 43.0721C14.7822 43.0863 14.8318 43.0721 14.853 43.0296C15.6256 41.9168 19.0917 36.7637 19.8005 33.6308C19.8005 33.6308 20.1833 32.1139 19.8147 31.079C19.8147 31.079 19.2902 29.1156 17.1638 28.5982C17.1638 28.5982 16.5542 28.4422 15.9021 28.3501C15.9021 28.3501 13.5205 31.4122 14.6829 42.98C14.6758 43.0225 14.7042 43.058 14.7396 43.0721ZM16.6392 45.312C16.6204 45.3158 16.6024 45.3234 16.5866 45.3344C16.5708 45.3454 16.5573 45.3594 16.5471 45.3758C16.54 45.4183 16.5471 45.4538 16.5754 45.4821C17.341 46.035 19.673 47.6653 20.7929 47.9771C20.7929 47.9771 22.8697 48.6859 24.6701 45.5884L16.6392 45.312ZM26.8107 38.4861C26.8107 38.4861 19.9919 42.1507 16.462 44.5323C16.4266 44.5607 16.4053 44.6032 16.4195 44.6457C16.4195 44.6457 16.455 44.7095 16.5046 44.7095C17.7663 44.7095 22.5437 44.7166 22.6712 44.6953C23.1461 44.6599 23.614 44.5536 24.0534 44.3764C24.0534 44.3764 25.7546 43.8377 26.6335 41.9026C26.6335 41.9026 27.4203 40.329 26.8107 38.4861ZM15.817 43.7172C15.8454 43.7384 15.8879 43.7455 15.9233 43.7243C17.0716 43.1501 21.8561 40.7189 23.8337 38.7838C23.8337 38.7838 25.0883 37.7773 25.1521 36.1541C25.2938 33.9072 23.0327 31.8233 23.0327 31.8233C23.0327 31.8233 18.8507 36.8913 15.7816 43.5896C15.7767 43.6121 15.7773 43.6355 15.7835 43.6578C15.7897 43.68 15.8012 43.7004 15.817 43.7172Z" fill="black"/>
<path d="M49.6722 33.1658H51.6852V38.7654C51.6852 41.6077 50.1187 43.238 47.3898 43.238C44.6892 43.238 43.1369 41.6361 43.1369 38.8434V33.1729H45.15V38.7796C45.15 40.4382 45.9651 41.3242 47.4182 41.3242C48.8712 41.3242 49.6722 40.4595 49.6722 38.8505V33.1658ZM38.3312 37.1635H33.7806V33.1658H31.7676V43.0892H33.7806V39.056H38.3241V43.0892H40.3371V33.1658H38.3241V37.1635H38.3312ZM88.742 33.1658V43.075H90.7266V33.1658H88.742ZM80.8387 38.815H84.5033V37.0075H80.8387V34.9733H86.1548V33.1729H78.854V43.0821H86.3462V41.2746H80.8387V38.815ZM72.9425 39.9846L70.6885 33.1587H69.0441L66.79 39.9846L64.5998 33.1658H62.4592L65.9182 43.0821H67.5839L69.8379 36.5681L72.0919 43.0821H73.7718L77.2238 33.1658H75.1328L72.9425 39.9846ZM58.8797 33.2225L63.2105 43.0821H61.0983L60.2052 41.0194H55.6617L55.5979 41.1612L54.7615 43.0821H52.7059L57.0793 33.1658H58.8371L58.8797 33.2225ZM59.3617 38.9922L57.9299 35.6679L56.5051 38.9922L56.4059 39.219H59.4538L59.3617 38.9922Z" fill="black"/>
</g>
<defs>
<clipPath id="clip0_21_4351">
<rect width="89.7947" height="76.3969" fill="white" transform="translate(0.931641)"/>
</clipPath>
</defs>
</svg>
