<svg width="143" height="25" viewBox="0 0 143 25" fill="none" xmlns="http://www.w3.org/2000/svg">
<path d="M43.2182 0.511216H48.0676V14.0007C48.0676 20.8479 44.294 24.7753 37.72 24.7753C31.2143 24.7753 27.4748 20.9162 27.4748 14.1886V0.528292H32.3242V14.0349C32.3242 18.0305 34.2878 20.1649 37.7883 20.1649C41.2887 20.1649 43.2182 18.0817 43.2182 14.2056V0.511216ZM15.8977 10.1417H4.93533V0.511216H0.0859375V24.4167H4.93533V14.7008H15.8806V24.4167H20.73V0.511216H15.8806V10.1417H15.8977ZM137.338 0.511216V24.3825H142.119V0.511216H137.338ZM118.299 14.1203H127.126V9.76605H118.299V4.86543H131.105V0.528292H113.517V24.3996H131.566V20.0454H118.299V14.1203ZM99.2766 16.9377L93.8466 0.494141H89.8851L84.4552 16.9377L79.1789 0.511216H74.0221L82.3549 24.3996H86.3676L91.7976 8.70738L97.2275 24.3996H101.274L109.59 0.511216H104.553L99.2766 16.9377ZM65.3991 0.647819L75.8321 24.3996H70.7437L68.5922 19.4307H57.6469L57.4932 19.7722L55.4783 24.3996H50.5265L61.062 0.511216H65.2967L65.3991 0.647819ZM66.5602 14.5471L63.111 6.53881L59.6789 14.5471L59.4398 15.0936H66.7822L66.5602 14.5471Z" fill="black"/>
</svg>
