<svg xmlns="http://www.w3.org/2000/svg" width="13.366" height="13.366" viewBox="0 0 13.366 13.366">
  <g id="Icon_ionic-ios-expand" data-name="Icon ionic-ios-expand" transform="translate(-4.25 -4.25)">
    <path id="Path_303" data-name="Path 303" d="M6.122,5.438h2.6a.465.465,0,0,0,.466-.466V4.966A.465.465,0,0,0,8.725,4.5H4.966a.465.465,0,0,0-.466.466V8.725a.465.465,0,0,0,.466.466h.007a.465.465,0,0,0,.466-.466v-2.6l3.924,3.9a.461.461,0,0,0,.328.134.451.451,0,0,0,.328-.137.465.465,0,0,0,0-.657Z" transform="translate(0 0)" fill="#168eea" stroke="#168eea" stroke-width="0.5"/>
    <path id="Path_304" data-name="Path 304" d="M24.823,4.5H21.064a.465.465,0,0,0-.466.466v.007a.465.465,0,0,0,.466.466h2.6l-3.9,3.924a.466.466,0,0,0,.657.66l3.924-3.9v2.6a.465.465,0,0,0,.466.466h.007a.465.465,0,0,0,.466-.466V4.966A.465.465,0,0,0,24.823,4.5Z" transform="translate(-7.923)" fill="#168eea" stroke="#168eea" stroke-width="0.5"/>
    <path id="Path_305" data-name="Path 305" d="M9.69,19.631a.461.461,0,0,0-.328.134l-3.924,3.9v-2.6a.465.465,0,0,0-.466-.466H4.966a.465.465,0,0,0-.466.466v3.759a.465.465,0,0,0,.466.466H8.725a.465.465,0,0,0,.466-.466v-.007a.465.465,0,0,0-.466-.466h-2.6l3.9-3.924a.466.466,0,0,0-.328-.794Z" transform="translate(0 -7.921)" fill="#168eea" stroke="#168eea" stroke-width="0.5"/>
    <path id="Path_306" data-name="Path 306" d="M24.823,20.6h-.007a.465.465,0,0,0-.466.466v2.6l-3.924-3.9a.461.461,0,0,0-.328-.134.451.451,0,0,0-.328.137.465.465,0,0,0,0,.657l3.9,3.92h-2.6a.465.465,0,0,0-.466.466v.007a.465.465,0,0,0,.466.466h3.759a.465.465,0,0,0,.466-.466V21.066A.465.465,0,0,0,24.823,20.6Z" transform="translate(-7.923 -7.924)" fill="#168eea" stroke="#168eea" stroke-width="0.5"/>
  </g>
</svg>
