<svg xmlns="http://www.w3.org/2000/svg" width="11.262" height="10.324" viewBox="0 0 11.262 10.324">
  <g id="Group_16841" data-name="Group 16841" transform="translate(-6929.369 4478)">
    <path id="Path_13304" data-name="Path 13304" d="M2.933,153.334a1.757,1.757,0,0,1-1.662-1.2l-.016-.054a1.713,1.713,0,0,1-.081-.509v-3.2l-1.138,3.8a1.066,1.066,0,0,0,.747,1.293l7.257,1.943a1.076,1.076,0,0,0,.27.035,1.046,1.046,0,0,0,1.014-.767l.423-1.344Zm0,0" transform="translate(6929.369 -4623.122)" fill="#644099"/>
    <path id="Path_13305" data-name="Path 13305" d="M150.259,66.369a.939.939,0,1,0-.939-.939A.939.939,0,0,0,150.259,66.369Zm0,0" transform="translate(6783.333 -4541.084)" fill="#644099"/>
    <path id="Path_13306" data-name="Path 13306" d="M93.533.492H86.493A1.175,1.175,0,0,0,85.32,1.665V6.828A1.175,1.175,0,0,0,86.493,8h7.039a1.175,1.175,0,0,0,1.173-1.173V1.665A1.175,1.175,0,0,0,93.533.492Zm-7.039.939h7.039a.235.235,0,0,1,.235.235V5l-1.482-1.73a.841.841,0,0,0-.629-.289.82.82,0,0,0-.627.3L89.285,5.367,88.718,4.8a.824.824,0,0,0-1.164,0L86.259,6.1V1.665A.235.235,0,0,1,86.493,1.431Zm0,0" transform="translate(6845.925 -4478.492)" fill="#644099"/>
  </g>
</svg>
