<svg width="110" height="111" viewBox="0 0 110 111" fill="none" xmlns="http://www.w3.org/2000/svg">
<g clip-path="url(#clip0_296_90940)">
<path d="M104.5 26.1667V101.333H5.5V26.1667C5.50594 24.1441 7.14409 22.5059 9.16667 22.5H100.833C102.856 22.5059 104.494 24.1441 104.5 26.1667Z" fill="#CAD9FC"/>
<path d="M99 26.1667V101.333H5.5V26.1667C5.50594 24.1441 7.14409 22.5059 9.16667 22.5H95.3333C97.3559 22.5059 98.9941 24.1441 99 26.1667Z" fill="#E8EDFC"/>
<path d="M97.1666 31.6666L97.1666 92.1667H12.8333V31.6666C12.8362 30.6553 13.6553 29.8362 14.6666 29.8333H95.3333C95.4563 29.8355 95.5789 29.8478 95.6999 29.87C96.0102 29.9426 96.299 30.087 96.5433 30.2916C96.9422 30.6367 97.17 31.1392 97.1666 31.6666Z" fill="#CAD9FC"/>
<path d="M91.6666 31.6666L91.6666 92.1667H12.8333V31.6666C12.8362 30.6553 13.6553 29.8362 14.6666 29.8333H89.8333C89.9563 29.8355 90.0789 29.8478 90.1999 29.87C90.5102 29.9426 90.799 30.087 91.0433 30.2916C91.4422 30.6367 91.6699 31.1392 91.6666 31.6666Z" fill="url(#paint0_linear_296_90940)"/>
<path d="M108.167 94V101.333C108.167 103.278 107.395 105.144 106.019 106.519C104.644 107.895 102.778 108.667 100.833 108.667H9.16659C7.2215 108.667 5.35593 107.895 3.98055 106.519C2.60516 105.144 1.83272 103.278 1.83325 101.333V94C1.83617 92.9886 2.65528 92.1695 3.66659 92.1666H106.333C107.345 92.1695 108.164 92.9886 108.167 94Z" fill="#CAD9FC"/>
<path d="M102.667 94V101.333C102.667 103.278 101.895 105.144 100.519 106.519C99.1439 107.895 97.2783 108.667 95.3333 108.667H9.16659C7.2215 108.667 5.35593 107.895 3.98055 106.519C2.60516 105.144 1.83272 103.278 1.83325 101.333V94C1.83617 92.9886 2.65528 92.1695 3.66659 92.1666H100.833C101.845 92.1695 102.664 92.9886 102.667 94Z" fill="#E8EDFC"/>
<path d="M67.4003 99.5H42.5994C41.2105 99.5 39.9408 98.7153 39.3197 97.473L36.6665 92.1666H73.3332L70.68 97.473C70.0589 98.7153 68.7892 99.5 67.4003 99.5Z" fill="#CAD9FC"/>
<path d="M78.5086 49.0226L78.5504 49.0503L56.1492 82.3996C55.8875 82.7758 55.4582 83 54.9999 83C54.5416 83 54.1124 82.7758 53.8506 82.3996L31.4495 49.0503L31.4913 49.0226C27.6127 43.8609 25.5644 37.554 25.6699 31.0983C25.9831 15.0373 39.1562 2.21556 55.2199 2.33654C71.2835 2.45753 84.262 15.4762 84.3333 31.5401C84.3409 37.8454 82.2964 43.9819 78.5086 49.0226Z" fill="#CAD9FC"/>
<path d="M74.7518 45.8392L74.7906 45.8651L53.9823 76.9401C53.7399 77.2905 53.3409 77.4996 52.9148 77.4996C52.4887 77.4996 52.0897 77.2905 51.8472 76.9401L31.0389 45.8651L31.0777 45.8392C27.4733 41.0255 25.5709 35.1504 25.6694 29.1376C25.9082 14.1803 38.1608 2.21242 53.1196 2.32525C68.0783 2.43809 80.149 14.5894 80.1621 29.5486C80.1703 35.4214 78.2716 41.1381 74.7518 45.8392Z" fill="#E8EDFC"/>
<path d="M9.16659 108.667H14.6666C12.7215 108.667 10.8559 107.895 9.48054 106.519C8.10516 105.144 7.33272 103.278 7.33325 101.333V94C7.33617 92.9887 8.15528 92.1696 9.16659 92.1667H10.9999V26.1667C11.0059 24.1441 12.644 22.5059 14.6666 22.5H9.16659C7.14401 22.5059 5.50586 24.1441 5.49992 26.1667V92.1667H3.66659C2.65528 92.1696 1.83617 92.9887 1.83325 94V101.333C1.83272 103.278 2.60516 105.144 3.98055 106.519C5.35593 107.895 7.2215 108.667 9.16659 108.667Z" fill="white"/>
<path d="M3.66675 92.1667V68.3334V26.1667H7.33341V68.3334V92.1667H3.66675Z" fill="white"/>
<path d="M5.50008 83C4.48877 83.0029 3.66967 83.822 3.66675 84.8333V92.1667H7.33341V84.8333C7.33049 83.822 6.51139 83.0029 5.50008 83Z" fill="#89BAFD"/>
<path d="M7.33341 26.1667H3.66675V70.1667C3.66675 71.1792 4.48756 72 5.50008 72C6.5126 72 7.33341 71.1792 7.33341 70.1667V26.1667Z" fill="#89BAFD"/>
<path d="M3.66675 77.5C3.67401 77.9853 3.86384 78.4501 4.19841 78.8017L4.47341 79.0217C4.57563 79.091 4.6866 79.1465 4.80341 79.1867C4.90729 79.2397 5.01853 79.2767 5.13341 79.2967C5.25465 79.3173 5.37716 79.3296 5.50008 79.3334C5.98549 79.3266 6.45042 79.1367 6.80175 78.8017C7.49374 78.0719 7.49374 76.9282 6.80175 76.1984C6.62637 76.0328 6.42104 75.9021 6.19675 75.8134C5.97634 75.7194 5.73966 75.6696 5.50008 75.6667C5.01481 75.6741 4.55012 75.8639 4.19841 76.1984C3.86399 76.5501 3.67419 77.0148 3.66675 77.5Z" fill="#89BAFD"/>
<path d="M5.50008 28C4.48756 28 3.66675 27.1792 3.66675 26.1667C3.67008 23.1305 6.13056 20.67 9.16675 20.6667H27.1151C28.1276 20.6667 28.9484 21.4875 28.9484 22.5C28.9484 23.5125 28.1276 24.3334 27.1151 24.3334H9.16675C8.1546 24.3343 7.33432 25.1545 7.33341 26.1667C7.33341 27.1792 6.5126 28 5.50008 28Z" fill="#89BAFD"/>
<path d="M104.5 94H5.50008C4.48756 94 3.66675 93.1792 3.66675 92.1667C3.66675 91.1542 4.48756 90.3334 5.50008 90.3334H102.667V26.1667C102.666 25.1545 101.846 24.3343 100.833 24.3334H82.9034C81.8909 24.3334 81.0701 23.5125 81.0701 22.5C81.0701 21.4875 81.8909 20.6667 82.9034 20.6667H100.833C103.87 20.67 106.33 23.1305 106.333 26.1667V92.1667C106.333 93.1792 105.513 94 104.5 94Z" fill="#89BAFD"/>
<path d="M97.1667 94H12.8333C11.8208 94 11 93.1792 11 92.1667V31.6667C11.0023 29.6426 12.6426 28.0023 14.6667 28H25.7217C26.7342 28 27.555 28.8208 27.555 29.8333C27.555 30.8459 26.7342 31.6667 25.7217 31.6667H14.6667V90.3333H95.3333V31.6667H84.2783C83.2658 31.6667 82.445 30.8459 82.445 29.8333C82.445 28.8208 83.2658 28 84.2783 28H95.3333C97.3574 28.0023 98.9977 29.6426 99 31.6667V92.1667C99 93.1792 98.1792 94 97.1667 94Z" fill="#89BAFD"/>
<path d="M100.833 110.5H9.16667C4.10653 110.494 0.00596042 106.393 0 101.333V94C0.00232369 91.9759 1.64259 90.3356 3.66667 90.3333H106.333C108.357 90.3356 109.998 91.9759 110 94V101.333C109.994 106.393 105.893 110.494 100.833 110.5ZM3.66667 94V101.333C3.67 104.369 6.13048 106.83 9.16667 106.833H100.833C103.87 106.83 106.33 104.369 106.333 101.333V94H3.66667Z" fill="#89BAFD"/>
<path d="M67.4 101.333H42.5998C40.5145 101.34 38.6065 100.161 37.6798 98.2933L35.0266 92.9867C34.7424 92.4183 34.7727 91.7433 35.1068 91.2028C35.4409 90.6622 36.0311 90.3332 36.6666 90.3333H73.3332C73.9687 90.3332 74.5589 90.6622 74.893 91.2028C75.227 91.7433 75.2574 92.4183 74.9731 92.9867L72.3199 98.2933C71.3933 100.161 69.4853 101.34 67.4 101.333ZM39.6333 94L40.9599 96.6534C41.2691 97.2757 41.9048 97.6685 42.5998 97.6666H67.4C68.095 97.6685 68.7307 97.2757 69.0399 96.6534L70.3665 94H39.6333Z" fill="#89BAFD"/>
<path d="M23.8333 101.333H1.83333C0.820811 101.333 0 100.513 0 99.5C0 98.4875 0.820811 97.6667 1.83333 97.6667H23.8333C24.8459 97.6667 25.6667 98.4875 25.6667 99.5C25.6667 100.513 24.8459 101.333 23.8333 101.333Z" fill="#89BAFD"/>
<path d="M32.9999 101.333H31.1666C30.1541 101.333 29.3333 100.513 29.3333 99.5C29.3333 98.4875 30.1541 97.6667 31.1666 97.6667H32.9999C34.0124 97.6667 34.8333 98.4875 34.8333 99.5C34.8333 100.513 34.0124 101.333 32.9999 101.333Z" fill="#89BAFD"/>
<path d="M108.167 101.333H86.1666C85.1541 101.333 84.3333 100.513 84.3333 99.5C84.3333 98.4875 85.1541 97.6667 86.1666 97.6667H108.167C109.179 97.6667 110 98.4875 110 99.5C110 100.513 109.179 101.333 108.167 101.333Z" fill="#89BAFD"/>
<path d="M78.8334 101.333H77.0001C75.9876 101.333 75.1667 100.513 75.1667 99.5C75.1667 98.4875 75.9876 97.6667 77.0001 97.6667H78.8334C79.8459 97.6667 80.6667 98.4875 80.6667 99.5C80.6667 100.513 79.8459 101.333 78.8334 101.333Z" fill="#89BAFD"/>
<path d="M55 84.8333C53.94 84.8336 52.9472 84.3142 52.3432 83.4431L29.9277 50.0733C29.8624 49.9778 29.8071 49.8757 29.7627 49.7688C25.7974 44.3513 23.716 37.784 23.837 31.0714C24.195 14.1074 38.0323 0.532783 55 0.500003H55.0125C72.1772 0.492638 86.1113 14.3759 86.1667 31.5405C86.1839 38.0932 84.1062 44.4798 80.237 49.7681C80.1919 49.8747 80.1366 49.9766 80.072 50.0726L57.6712 83.4217C57.0678 84.3036 56.0686 84.8317 55 84.8333ZM33.2077 48.3797L55 80.8229L76.8084 48.3564C76.8644 48.2011 76.9435 48.055 77.0429 47.9232C80.5986 43.2029 82.5149 37.4502 82.5 31.5405C82.4468 16.4001 70.153 4.15718 55.0125 4.16667H55C40.0324 4.19056 27.8227 16.1618 27.5037 31.126C27.3943 37.177 29.3141 43.0905 32.9571 47.9232C33.062 48.0627 33.1464 48.2164 33.2077 48.3797Z" fill="#89BAFD"/>
<path d="M45.8333 48.1666C44.8208 48.1666 44 47.3458 44 46.3333V20.6666C44 19.6541 44.8208 18.8333 45.8333 18.8333C46.8459 18.8333 47.6667 19.6541 47.6667 20.6666V46.3333C47.6667 47.3458 46.8459 48.1666 45.8333 48.1666Z" fill="#89BAFD"/>
<path d="M51.3333 48.1667H40.3333C39.3208 48.1667 38.5 47.3459 38.5 46.3333C38.5 45.3208 39.3208 44.5 40.3333 44.5H51.3333C52.3459 44.5 53.1667 45.3208 53.1667 46.3333C53.1667 47.3459 52.3459 48.1667 51.3333 48.1667Z" fill="#89BAFD"/>
<path d="M51.3333 22.5H40.3333C39.3208 22.5 38.5 21.6792 38.5 20.6666C38.5 19.6541 39.3208 18.8333 40.3333 18.8333H51.3333C52.3459 18.8333 53.1667 19.6541 53.1667 20.6666C53.1667 21.6792 52.3459 22.5 51.3333 22.5Z" fill="#89BAFD"/>
<path d="M58.6666 48.1666C57.6541 48.1666 56.8333 47.3458 56.8333 46.3333V20.6666C56.8333 19.6541 57.6541 18.8333 58.6666 18.8333C59.6791 18.8333 60.4999 19.6541 60.4999 20.6666V46.3333C60.4999 47.3458 59.6791 48.1666 58.6666 48.1666Z" fill="#89BAFD"/>
<path d="M66.9166 35.3333H58.6666C57.6541 35.3333 56.8333 34.5125 56.8333 33.5V20.6666C56.8333 19.6541 57.6541 18.8333 58.6666 18.8333H66.9166C71.4729 18.8333 75.1666 22.527 75.1666 27.0833C75.1666 31.6397 71.4729 35.3333 66.9166 35.3333ZM60.4999 31.6666H66.9166C69.4479 31.6666 71.4999 29.6146 71.4999 27.0833C71.4999 24.552 69.4479 22.5 66.9166 22.5H60.4999V31.6666Z" fill="#89BAFD"/>
</g>
<defs>
<linearGradient id="paint0_linear_296_90940" x1="276.531" y1="-169.247" x2="3346.74" y2="4741.5" gradientUnits="userSpaceOnUse">
<stop stop-color="#D3DFF2"/>
<stop offset="0.1717" stop-color="#D3DFF2"/>
<stop offset="0.2" stop-color="#D3DFF2"/>
<stop offset="0.2002" stop-color="#DAE2F2"/>
<stop offset="0.2007" stop-color="#EBEAF2"/>
<stop offset="0.2014" stop-color="#F6EFF2"/>
<stop offset="0.2023" stop-color="#FDF2F2"/>
<stop offset="0.205" stop-color="#FFF3F2"/>
<stop offset="0.2522" stop-color="#FFF3F2"/>
<stop offset="0.26" stop-color="#D3DFF2"/>
<stop offset="0.3974" stop-color="#D3DFF2"/>
<stop offset="0.42" stop-color="#D3DFF2"/>
<stop offset="0.4202" stop-color="#DAE2F2"/>
<stop offset="0.4207" stop-color="#EBEAF2"/>
<stop offset="0.4214" stop-color="#F6EFF2"/>
<stop offset="0.4223" stop-color="#FDF2F2"/>
<stop offset="0.425" stop-color="#FFF3F2"/>
<stop offset="0.4894" stop-color="#FFF3F2"/>
<stop offset="0.5" stop-color="#F8F0F2"/>
<stop offset="0.5001" stop-color="#E7E8F2"/>
<stop offset="0.5003" stop-color="#DCE3F2"/>
<stop offset="0.5005" stop-color="#D5E0F2"/>
<stop offset="0.501" stop-color="#D3DFF2"/>
<stop offset="0.7062" stop-color="#D3DFF2"/>
<stop offset="0.74" stop-color="#D3DFF2"/>
<stop offset="0.741" stop-color="#FFF3F2"/>
<stop offset="0.8346" stop-color="#FFF3F2"/>
<stop offset="0.85" stop-color="#FFF3F2"/>
<stop offset="0.851" stop-color="#D3DFF2"/>
</linearGradient>
<clipPath id="clip0_296_90940">
<rect width="110" height="110" fill="white" transform="translate(0 0.5)"/>
</clipPath>
</defs>
</svg>
