<svg width="110" height="111" viewBox="0 0 110 111" fill="none" xmlns="http://www.w3.org/2000/svg">
<g clip-path="url(#clip0_296_90917)">
<path d="M51.3343 108.657C23.9986 108.657 1.83873 84.8556 1.83873 55.495C1.83873 26.1345 23.9986 2.33307 51.3343 2.33307C78.6699 2.33307 100.83 26.1345 100.83 55.495C100.83 84.8556 78.6699 108.657 51.3343 108.657Z" fill="#A4C2F7"/>
<path d="M58.6668 108.657C31.3312 108.657 9.17124 84.8556 9.17124 55.495C9.17124 26.1345 31.3312 2.33307 58.6668 2.33307C86.0024 2.33307 108.162 26.1345 108.162 55.495C108.162 84.8556 86.0024 108.657 58.6668 108.657Z" fill="white"/>
<path d="M55.0004 108.657C28.6771 108.657 7.33793 84.8556 7.33793 55.495C7.33793 26.1345 28.6771 2.33307 55.0004 2.33307C81.3236 2.33307 102.663 26.1345 102.663 55.495C102.663 84.8556 81.3236 108.657 55.0004 108.657Z" fill="#E3E7F2"/>
<path d="M33.0025 38.9965C29.9652 38.9965 27.5029 36.5343 27.5029 33.497C27.5029 30.4597 29.9652 27.9975 33.0025 27.9975C36.0397 27.9975 38.502 30.4597 38.502 33.497C38.502 36.5343 36.0397 38.9965 33.0025 38.9965Z" fill="#A4C2F7"/>
<path d="M82.4982 51.8286H89.8308V59.1612H82.4982V51.8286Z" fill="#A4C2F7"/>
<path d="M20.1703 51.8286H27.5029V59.1612H20.1703V51.8286Z" fill="#A4C2F7"/>
<path d="M55.0005 60.9946C51.9632 60.9946 49.501 58.5323 49.501 55.4951C49.501 52.4578 51.9632 49.9955 55.0005 49.9955C58.0378 49.9955 60.5 52.4578 60.5 55.4951C60.5 58.5323 58.0378 60.9946 55.0005 60.9946Z" fill="#A4C2F7"/>
<path d="M76.9985 82.9925C73.9612 82.9925 71.499 80.5303 71.499 77.493C71.499 74.4557 73.9612 71.9935 76.9985 71.9935C80.0358 71.9935 82.498 74.4557 82.498 77.493C82.498 80.5303 80.0358 82.9925 76.9985 82.9925Z" fill="#A4C2F7"/>
<path d="M55.0003 0.5C82.4158 0.576692 105.617 20.7693 109.477 47.9118C109.616 48.9148 108.915 49.8402 107.912 49.9786C106.908 50.1169 105.983 49.4162 105.845 48.4129C102.124 21.7004 78.3635 2.42418 51.4576 4.28929C24.5517 6.15439 3.67832 28.5245 3.67832 55.4951C3.67832 82.4656 24.5515 104.836 51.4574 106.701C78.3633 108.566 102.124 89.2895 105.845 62.577C105.983 61.5739 106.909 60.873 107.912 61.0113C108.915 61.1497 109.616 62.0751 109.477 63.0782C105.427 92.1871 79.2069 112.968 49.9425 110.263C20.678 107.559 -1.28928 82.3247 0.0636902 52.9666C1.41644 23.6087 25.6113 0.501719 55.0003 0.5Z" fill="#89BAFD"/>
<path d="M82.4979 49.9956H89.8307C90.8432 49.9956 91.6638 50.8164 91.6638 51.8287V59.1613C91.6638 60.1737 90.843 60.9944 89.8307 60.9944H82.4981C81.4857 60.9944 80.665 60.1737 80.665 59.1613V57.3282H71.4527C75.6364 60.4449 78.2916 65.1987 78.7509 70.3955C82.348 71.2694 84.7338 74.6821 84.3192 78.3606C83.9046 82.039 80.8193 84.8352 77.1181 84.8867C73.4168 84.9383 70.2546 82.2291 69.7378 78.5638C69.2209 74.8985 71.5107 71.4207 75.0819 70.4467C74.3432 63.5768 68.9167 58.1503 62.0468 57.4115C61.1916 60.6208 58.2765 62.8472 54.9553 62.8275C51.6341 62.8079 48.7453 60.5471 47.9281 57.328H29.3362V59.1611C29.3362 60.1735 28.5153 60.9942 27.5031 60.9942H20.1705C19.158 60.9942 18.3374 60.1735 18.3374 59.1611V51.8285C18.3374 50.816 19.158 49.9954 20.1705 49.9954H27.5031C28.5155 49.9954 29.3362 50.8162 29.3362 51.8285V53.6616H38.5485C34.3648 50.5449 31.7095 45.791 31.2502 40.5942C27.6532 39.7203 25.2674 36.3076 25.682 32.6292C26.0966 28.9507 29.1819 26.1546 32.8831 26.103C36.5843 26.0515 39.7466 28.7606 40.2634 32.4259C40.7803 36.0913 38.4905 39.5691 34.9192 40.5431C35.658 47.413 41.0845 52.8394 47.9543 53.5782C48.8096 50.3689 51.7247 48.1425 55.0459 48.1623C58.3671 48.182 61.2558 50.4426 62.073 53.6618H80.665V51.8287C80.6648 50.8164 81.4857 49.9956 82.4979 49.9956ZM73.3322 77.4931C73.3322 79.518 74.9737 81.1595 76.9986 81.1595C79.0235 81.1595 80.665 79.518 80.665 77.4931C80.665 75.4682 79.0235 73.8267 76.9986 73.8267C74.9745 73.8288 73.3341 75.469 73.3322 77.4931ZM25.6698 53.662H22.0033V57.3284H25.6698V53.662ZM36.6688 33.4971C36.6688 31.4721 35.0273 29.8307 33.0024 29.8307C30.9774 29.8307 29.3359 31.4721 29.3359 33.4971C29.3359 35.522 30.9774 37.1635 33.0024 37.1635C35.0264 37.1613 36.6668 35.5211 36.6688 33.4971ZM55.0004 51.8287C52.9754 51.8287 51.334 53.4701 51.334 55.4951C51.334 57.52 52.9754 59.1615 55.0004 59.1615C57.0253 59.1615 58.6668 57.52 58.6668 55.4951C58.6648 53.471 57.0245 51.8308 55.0004 51.8287ZM84.3312 57.3282H87.9976V53.6618H84.3312V57.3282Z" fill="#89BAFD"/>
<path d="M108.162 57.3282C107.15 57.3282 106.329 56.5075 106.329 55.4951C106.329 54.4827 107.15 53.662 108.162 53.662C109.175 53.662 109.995 54.4827 109.995 55.4951C109.995 56.5075 109.175 57.3282 108.162 57.3282Z" fill="#89BAFD"/>
</g>
<defs>
<clipPath id="clip0_296_90917">
<rect width="110" height="110" fill="white" transform="matrix(-1 0 0 1 110 0.5)"/>
</clipPath>
</defs>
</svg>
