<svg width="110" height="110" viewBox="0 0 110 110" fill="none" xmlns="http://www.w3.org/2000/svg">
<path d="M55.0002 108.167C84.3633 108.167 108.167 84.3631 108.167 55C108.167 25.6368 84.3633 1.83331 55.0002 1.83331C25.637 1.83331 1.8335 25.6368 1.8335 55C1.8335 84.3631 25.637 108.167 55.0002 108.167Z" fill="#E8EDFC"/>
<path fill-rule="evenodd" clip-rule="evenodd" d="M55 1.83331C54.0772 1.83331 53.1606 1.85654 52.25 1.90298C80.5186 3.35155 102.696 26.6943 102.696 55C102.696 83.3056 80.5186 106.648 52.25 108.097C53.1618 108.143 54.0784 108.167 55 108.167C84.3631 108.167 108.167 84.3631 108.167 55C108.167 25.6368 84.3631 1.83331 55 1.83331Z" fill="#CAD9FC"/>
<path fill-rule="evenodd" clip-rule="evenodd" d="M74.7268 55H35.2734C35.2744 54.4337 35.4061 53.8753 35.6584 53.3683L51.7184 21.23C52.3387 19.9855 53.6096 19.1989 55.0001 19.1989C56.3906 19.1989 57.6615 19.9855 58.2818 21.23L74.3418 53.3683C74.5941 53.8753 74.7258 54.4337 74.7268 55Z" fill="#C6D8FB"/>
<path fill-rule="evenodd" clip-rule="evenodd" d="M74.3417 53.3684L58.2817 21.23C57.7379 20.136 56.6833 19.3862 55.4714 19.2319C54.2595 19.0776 53.0506 19.5391 52.25 20.4619C52.4589 20.6945 52.6375 20.9526 52.7817 21.23L68.8417 53.3684C69.094 53.8753 69.2257 54.4337 69.2267 55H74.7267C74.7257 54.4337 74.594 53.8753 74.3417 53.3684Z" fill="#A4C3FD"/>
<path fill-rule="evenodd" clip-rule="evenodd" d="M74.7268 55C74.7258 55.5663 74.5941 56.1247 74.3418 56.6317L58.2818 88.77C57.6615 90.0145 56.3906 90.8011 55.0001 90.8011C53.6096 90.8011 52.3387 90.0145 51.7184 88.77L35.6584 56.6317C35.4061 56.1247 35.2744 55.5663 35.2734 55H74.7268Z" fill="#A4C2F7"/>
<path fill-rule="evenodd" clip-rule="evenodd" d="M69.2267 55C69.2257 55.5663 69.094 56.1247 68.8417 56.6317L52.7817 88.77C52.6375 89.0474 52.4589 89.3055 52.25 89.5382C53.0506 90.4609 54.2595 90.9225 55.4714 90.7681C56.6833 90.6138 57.7379 89.864 58.2817 88.77L74.3417 56.6317C74.594 56.1247 74.7257 55.5663 74.7267 55H69.2267Z" fill="#7FACFA"/>
<path fill-rule="evenodd" clip-rule="evenodd" d="M55.0002 108.167C55.9229 108.167 56.8396 108.143 57.7502 108.097C29.4816 106.648 7.30435 83.3056 7.30435 55C7.30435 26.6943 29.4816 3.35155 57.7502 1.90298C56.8396 1.85654 55.9229 1.83331 55.0002 1.83331C25.637 1.83331 1.8335 25.6368 1.8335 55C1.8335 84.3631 25.637 108.167 55.0002 108.167Z" fill="white"/>
<path fill-rule="evenodd" clip-rule="evenodd" d="M2.11567 40.0253L5.64483 41.0227L4.76667 44.4492C4.54667 45.6078 4.4 46.7812 4.21667 47.9453L3.94717 49.6943L3.8555 51.4635L3.66667 55H0L0.183333 51.2123L0.293333 49.3167L0.5775 47.4412C0.777333 46.1927 0.944167 44.9368 1.17333 43.6957L2.11567 40.0253Z" fill="white"/>
<path fill-rule="evenodd" clip-rule="evenodd" d="M2.42748 49.5184C1.41496 49.5234 0.590047 48.7067 0.584984 47.6942C0.579922 46.6817 1.39663 45.8567 2.40915 45.8517H2.42748C3.44001 45.8517 4.26082 46.6725 4.26082 47.685C4.26082 48.6975 3.44001 49.5184 2.42748 49.5184Z" fill="#428DFF"/>
<path d="M14.278 91.9288C24.6897 103.436 39.4836 110.001 55.0018 110.001C70.5201 110.001 85.314 103.436 95.7257 91.9288C95.849 91.8209 95.958 91.6977 96.0502 91.5622C114.677 70.712 114.647 39.1902 95.9805 18.3755C95.9092 18.2743 95.8275 18.1809 95.7367 18.0968C85.3303 6.57199 70.5279 -0.00381006 55 1.6562e-06C54.3877 1.6562e-06 53.779 0.0330017 53.1667 0.0880016C41.8356 0.463047 30.899 4.33916 21.8607 11.1833C19.193 13.2247 16.708 15.4944 14.4338 17.9667C14.2047 18.1252 14.0163 18.3357 13.8838 18.5808C12.3404 20.2804 10.9098 22.079 9.60118 23.9653C6.28155 28.8948 3.75453 34.3138 2.11201 40.0253C1.83661 40.9999 2.40338 42.0132 3.37793 42.2886C4.35248 42.564 5.36577 41.9972 5.64118 41.0227C7.1746 35.6923 9.53267 30.6346 12.6298 26.0333C13.7036 24.485 14.8667 23.0006 16.1132 21.5875C19.8261 22.8799 23.6171 23.9362 27.4633 24.75C23.9823 33.8254 22.1417 43.4472 22.0275 53.1667H1.83334C0.820823 53.1667 1.15636e-05 53.9875 1.15636e-05 55C-0.00874711 68.4857 4.95838 81.5005 13.9498 91.5512C14.0407 91.6921 14.1512 91.8193 14.278 91.9288ZM33.7883 56.8333C33.8498 57.0464 33.9251 57.2552 34.0138 57.4585L46.6638 82.7585C41.4242 83.0447 36.2064 83.6441 31.0383 84.5533C27.6074 75.709 25.7971 66.3192 25.6942 56.8333H33.7883ZM77.4345 21.9798C72.1781 22.8658 66.8722 23.4272 61.5468 23.661L59.9207 20.405C59.2847 19.1322 58.1769 18.158 56.8333 17.6898V3.77667C65.0833 4.67317 72.4167 11.5592 77.4345 21.9798ZM93.918 21.582C101.518 30.3944 105.881 41.537 106.288 53.1667H87.9725C87.8583 43.4472 86.0177 33.8254 82.5367 24.75C86.3938 23.9363 90.1952 22.8781 93.918 21.582ZM93.918 88.418C90.1952 87.1245 86.3937 86.0694 82.5367 85.2592C86.0188 76.1809 87.8594 66.5559 87.9725 56.8333H106.288C105.881 68.463 101.518 79.6056 93.918 88.418ZM50.0793 89.595C50.7153 90.8678 51.8231 91.842 53.1667 92.3102V106.223C44.9167 105.327 37.5833 98.4408 32.5655 88.0202C37.8219 87.1342 43.1278 86.5728 48.4532 86.339L50.0793 89.595ZM56.8333 106.223V92.3102C58.1769 91.842 59.2847 90.8678 59.9207 89.595L61.5468 86.339C66.8722 86.5727 72.1782 87.1341 77.4345 88.0202C72.4167 98.45 65.0833 105.327 56.8333 106.223ZM75.9862 52.5397L63.3362 27.2397C68.5758 26.9534 73.7936 26.3541 78.9617 25.4448C82.3928 34.2897 84.2031 43.6802 84.3058 53.1667H76.2117C76.1499 52.9531 76.0746 52.7437 75.9862 52.5397ZM76.2117 56.8333H84.3058C84.2032 66.3218 82.3923 75.7142 78.9598 84.5607C73.7918 83.6512 68.574 83.0518 63.3344 82.7658L75.9843 57.4658C76.074 57.2602 76.1499 57.0489 76.2117 56.8333ZM53.1667 3.77667V17.6898C51.8231 18.158 50.7153 19.1322 50.0793 20.405L48.4532 23.661C43.1278 23.4273 37.8219 22.8659 32.5655 21.9798C37.5833 11.5592 44.9167 4.67317 53.1667 3.77667ZM53.3592 22.0458C53.6958 21.4572 54.3219 21.094 55 21.094C55.6781 21.094 56.3042 21.4572 56.6408 22.0458L72.2003 53.1667H37.7997L53.3592 22.0458ZM72.2003 56.8333L56.65 87.9542C56.3134 88.5428 55.6873 88.906 55.0092 88.906C54.3311 88.906 53.705 88.5428 53.3683 87.9542L37.7997 56.8333H72.2003ZM27.4633 85.2592C23.6065 86.0699 19.805 87.125 16.082 88.418C8.48237 79.6056 4.11859 68.463 3.71251 56.8333H22.0275C22.1407 66.5559 23.9812 76.1809 27.4633 85.2592ZM18.799 91.3587C22.128 90.2799 25.5153 89.3899 28.9447 88.693C31.5437 94.601 35.3915 99.876 40.2233 104.155C32.1387 101.716 24.7801 97.3203 18.799 91.3587ZM81.0554 88.693C84.4848 89.3894 87.8721 90.2794 91.201 91.3587C85.2199 97.3203 77.8614 101.716 69.7767 104.155C74.6086 99.876 78.4563 94.601 81.0554 88.693ZM91.201 18.6413C87.872 19.7201 84.4847 20.6101 81.0554 21.307C78.4563 15.399 74.6086 10.124 69.7767 5.84467C77.8614 8.28446 85.2199 12.6797 91.201 18.6413ZM18.8613 18.6633C20.5017 17.0336 22.2431 15.5089 24.0753 14.0983C28.8633 10.4228 34.2904 7.66545 40.0822 5.96567C35.3191 10.2275 31.5218 15.4581 28.9447 21.307C25.5367 20.6152 22.1703 19.7326 18.8613 18.6633ZM31.0402 25.4467C36.2082 26.3561 41.426 26.9555 46.6657 27.2415L34.0157 52.5415C33.9263 52.7447 33.8504 52.9535 33.7883 53.1667H25.6942C25.7969 43.6782 27.6078 34.2858 31.0402 25.4393V25.4467Z" fill="#89BAFD"/>
</svg>
