<svg xmlns="http://www.w3.org/2000/svg" width="70.435" height="54" viewBox="0 0 70.435 54">
  <g id="network-switch_1_" data-name="network-switch (1)" transform="translate(0 -7)">
    <path id="Path_11998" data-name="Path 11998" d="M39.314,8H54.358a1.157,1.157,0,0,1,1.157,1.157V20.729a1.157,1.157,0,0,1-1.157,1.157H39.314A2.314,2.314,0,0,1,37,19.572V10.314A2.314,2.314,0,0,1,39.314,8Z" transform="translate(6.819 0.157)" fill="#e8edfc"/>
    <path id="Path_11999" data-name="Path 11999" d="M52.472,8H49a1.157,1.157,0,0,1,1.157,1.157V20.729A1.157,1.157,0,0,1,49,21.886h3.472a1.157,1.157,0,0,0,1.157-1.157V9.157A1.157,1.157,0,0,0,52.472,8Z" transform="translate(8.706 0.157)" fill="#cad9fc"/>
    <rect id="Rectangle_5728" data-name="Rectangle 5728" width="69.003" height="20" rx="2" transform="translate(0.715 35.385)" fill="#e8edfc"/>
    <path id="Path_12000" data-name="Path 12000" d="M57.472,31H54a2.314,2.314,0,0,1,2.314,2.314V48.358A2.314,2.314,0,0,1,54,50.672h3.472a2.314,2.314,0,0,0,2.314-2.314V33.314A2.314,2.314,0,0,0,57.472,31Z" transform="translate(9.492 4.542)" fill="#cad9fc"/>
    <path id="Path_12001" data-name="Path 12001" d="M9.943,48v3.472a1.157,1.157,0,0,1-1.157,1.157H4.157A1.157,1.157,0,0,1,3,51.472V48Z" transform="translate(0.472 7.214)" fill="#e8edfc"/>
    <path id="Path_12002" data-name="Path 12002" d="M6.157,48v3.472A1.157,1.157,0,0,1,5,52.629H8.472a1.157,1.157,0,0,0,1.157-1.157V48Z" transform="translate(0.786 7.214)" fill="#cad9fc"/>
    <path id="Path_12003" data-name="Path 12003" d="M57.943,48v3.472a1.157,1.157,0,0,1-1.157,1.157H52.157A1.157,1.157,0,0,1,51,51.472V48Z" transform="translate(9.02 7.214)" fill="#e8edfc"/>
    <path id="Path_12004" data-name="Path 12004" d="M54.157,48v3.472A1.157,1.157,0,0,1,53,52.629h3.472a1.157,1.157,0,0,0,1.157-1.157V48Z" transform="translate(9.334 7.214)" fill="#cad9fc"/>
    <path id="Path_12005" data-name="Path 12005" d="M23.83,33.987v-.579a8.679,8.679,0,0,0-8.679-8.679H11.679a4.05,4.05,0,0,1,0-8.1H42.345V12H11.679a8.679,8.679,0,0,0,0,17.358h3.472a4.05,4.05,0,0,1,4.05,4.05v.579Z" transform="translate(0.472 0.786)" fill="#a4c2f7"/>
    <path id="Path_12006" data-name="Path 12006" d="M47.629,12v4.629H44.157A1.157,1.157,0,0,1,43,15.472V13.157A1.157,1.157,0,0,1,44.157,12Z" transform="translate(7.53 0.786)" fill="#c6d8fb"/>
    <path id="Path_12007" data-name="Path 12007" d="M47,12h6.943v4.629H47Z" transform="translate(8.391 0.786)" fill="#a4c3fd"/>
    <rect id="Rectangle_5729" data-name="Rectangle 5729" width="6" height="6" rx="1" transform="translate(5.715 40.147)" fill="#c6d8fb"/>
    <rect id="Rectangle_5730" data-name="Rectangle 5730" width="6" height="6" rx="1" transform="translate(15.964 40.147)" fill="#c6d8fb"/>
    <rect id="Rectangle_5731" data-name="Rectangle 5731" width="6" height="6" rx="1" transform="translate(27.138 40.147)" fill="#c6d8fb"/>
    <rect id="Rectangle_5732" data-name="Rectangle 5732" width="6" height="6" rx="1" transform="translate(37.296 40.147)" fill="#c6d8fb"/>
    <rect id="Rectangle_5733" data-name="Rectangle 5733" width="6" height="6" rx="1" transform="translate(48.47 40.147)" fill="#c6d8fb"/>
    <rect id="Rectangle_5734" data-name="Rectangle 5734" width="6" height="6" rx="1" transform="translate(58.719 40.147)" fill="#c6d8fb"/>
    <path id="Path_12008" data-name="Path 12008" d="M6.472,20.679A8.679,8.679,0,0,1,15.151,12H11.679a8.679,8.679,0,0,0,0,17.358h3.472a8.679,8.679,0,0,1-8.679-8.679Z" transform="translate(0.472 0.786)" fill="#fff"/>
    <path id="Path_12009" data-name="Path 12009" d="M7.943,55.3a1.157,1.157,0,0,1-1.157-1.157V50.672a2.314,2.314,0,0,1-2.314-2.314V33.314A2.314,2.314,0,0,1,6.786,31H3.314A2.314,2.314,0,0,0,1,33.314V48.358a2.314,2.314,0,0,0,2.314,2.314v3.472A1.157,1.157,0,0,0,4.472,55.3Z" transform="translate(0.157 4.542)" fill="#fff"/>
    <path id="Path_12010" data-name="Path 12010" d="M5.083,17.207,3.058,16.092A9.913,9.913,0,0,1,11.67,11v2.314a7.591,7.591,0,0,0-6.587,3.893Z" transform="translate(0.481 0.629)" fill="#fff"/>
    <g id="Group_13253" data-name="Group 13253" transform="translate(0 7)">
      <path id="Path_12011" data-name="Path 12011" d="M66.913,34H25.8a9.978,9.978,0,0,0-9.949-9.391H12.326a2.935,2.935,0,0,1,0-5.87H42.261v1.174a3.522,3.522,0,0,0,3.522,3.522H61.043a2.348,2.348,0,0,0,2.348-2.348V9.348A2.348,2.348,0,0,0,61.043,7H45.783a3.522,3.522,0,0,0-3.522,3.522V11.7H12.326a1.174,1.174,0,0,0,0,2.348H42.261v2.348H12.326a5.283,5.283,0,1,0,0,10.565h3.522A7.63,7.63,0,0,1,23.449,34H21.071a5.271,5.271,0,0,0-5.223-4.7H12.326a7.64,7.64,0,0,1-7.63-7.63,7.88,7.88,0,0,1,.949-3.681,1.244,1.244,0,0,0-.386-1.55,1.125,1.125,0,0,0-1.668.414,10.221,10.221,0,0,0-1.242,4.817,9.99,9.99,0,0,0,9.978,9.978h3.522A2.935,2.935,0,0,1,18.723,34H3.522A3.522,3.522,0,0,0,0,37.522V52.783a3.522,3.522,0,0,0,2.348,3.306v2.564A2.348,2.348,0,0,0,4.7,61h4.7a2.348,2.348,0,0,0,2.348-2.348V56.3H58.7v2.348A2.348,2.348,0,0,0,61.043,61h4.7a2.348,2.348,0,0,0,2.348-2.348V56.088a3.522,3.522,0,0,0,2.348-3.306V37.522A3.522,3.522,0,0,0,66.913,34Zm-22.3-23.478a1.174,1.174,0,0,1,1.174-1.174H61.043V11.7H51.652A2.348,2.348,0,0,0,49.3,14.043v2.348a2.348,2.348,0,0,0,2.348,2.348h9.391v2.348H45.783a1.174,1.174,0,0,1-1.174-1.174Zm7.043,5.87V14.043H54v2.348Zm4.7-2.348h4.7v2.348h-4.7ZM9.391,58.652H4.7V56.3h4.7Zm51.652,0V56.3h4.7v2.348Zm7.043-5.87a1.174,1.174,0,0,1-1.174,1.174H3.522a1.174,1.174,0,0,1-1.174-1.174V37.522a1.174,1.174,0,0,1,1.174-1.174H66.913a1.174,1.174,0,0,1,1.174,1.174Z" transform="translate(0 -7)" fill="#428dff"/>
      <path id="Path_12012" data-name="Path 12012" d="M6.843,14.346a1.157,1.157,0,0,1-.012-2.314h.012a1.157,1.157,0,0,1,0,2.314Z" transform="translate(0.893 -6.209)" fill="#428dff"/>
      <path id="Path_12013" data-name="Path 12013" d="M9.786,34H6.314A2.314,2.314,0,0,0,4,36.314v3.472A2.314,2.314,0,0,0,6.314,42.1H9.786A2.314,2.314,0,0,0,12.1,39.786V36.314A2.314,2.314,0,0,0,9.786,34ZM6.314,39.786V36.314H9.786v3.472Z" transform="translate(0.629 -2.223)" fill="#428dff"/>
      <path id="Path_12014" data-name="Path 12014" d="M10.943,43H5.157a1.157,1.157,0,0,0,0,2.314h5.786a1.157,1.157,0,0,0,0-2.314Z" transform="translate(0.629 -0.712)" fill="#428dff"/>
      <path id="Path_12015" data-name="Path 12015" d="M18.786,34H15.314A2.314,2.314,0,0,0,13,36.314v3.472A2.314,2.314,0,0,0,15.314,42.1h3.472A2.314,2.314,0,0,0,21.1,39.786V36.314A2.314,2.314,0,0,0,18.786,34Zm-3.472,5.786V36.314h3.472v3.472Z" transform="translate(2.29 -2.223)" fill="#428dff"/>
      <path id="Path_12016" data-name="Path 12016" d="M19.943,43H14.157a1.157,1.157,0,0,0,0,2.314h5.786a1.157,1.157,0,0,0,0-2.314Z" transform="translate(2.29 -0.712)" fill="#428dff"/>
      <path id="Path_12017" data-name="Path 12017" d="M27.786,34H24.314A2.314,2.314,0,0,0,22,36.314v3.472A2.314,2.314,0,0,0,24.314,42.1h3.472A2.314,2.314,0,0,0,30.1,39.786V36.314A2.314,2.314,0,0,0,27.786,34Zm-3.472,5.786V36.314h3.472v3.472Z" transform="translate(3.875 -2.223)" fill="#428dff"/>
      <path id="Path_12018" data-name="Path 12018" d="M28.943,43H23.157a1.157,1.157,0,0,0,0,2.314h5.786a1.157,1.157,0,1,0,0-2.314Z" transform="translate(3.875 -0.712)" fill="#428dff"/>
      <path id="Path_12019" data-name="Path 12019" d="M36.786,34H33.314A2.314,2.314,0,0,0,31,36.314v3.472A2.314,2.314,0,0,0,33.314,42.1h3.472A2.314,2.314,0,0,0,39.1,39.786V36.314A2.314,2.314,0,0,0,36.786,34Zm-3.472,5.786V36.314h3.472v3.472Z" transform="translate(5.46 -2.223)" fill="#428dff"/>
      <path id="Path_12020" data-name="Path 12020" d="M37.943,43H32.157a1.157,1.157,0,1,0,0,2.314h5.786a1.157,1.157,0,1,0,0-2.314Z" transform="translate(5.46 -0.712)" fill="#428dff"/>
      <path id="Path_12021" data-name="Path 12021" d="M45.786,34H42.314A2.314,2.314,0,0,0,40,36.314v3.472A2.314,2.314,0,0,0,42.314,42.1h3.472A2.314,2.314,0,0,0,48.1,39.786V36.314A2.314,2.314,0,0,0,45.786,34Zm-3.472,5.786V36.314h3.472v3.472Z" transform="translate(7.045 -2.223)" fill="#428dff"/>
      <path id="Path_12022" data-name="Path 12022" d="M46.943,43H41.157a1.157,1.157,0,1,0,0,2.314h5.786a1.157,1.157,0,1,0,0-2.314Z" transform="translate(7.045 -0.712)" fill="#428dff"/>
      <path id="Path_12023" data-name="Path 12023" d="M54.786,34H51.314A2.314,2.314,0,0,0,49,36.314v3.472A2.314,2.314,0,0,0,51.314,42.1h3.472A2.314,2.314,0,0,0,57.1,39.786V36.314A2.314,2.314,0,0,0,54.786,34Zm-3.472,5.786V36.314h3.472v3.472Z" transform="translate(8.706 -2.223)" fill="#428dff"/>
      <path id="Path_12024" data-name="Path 12024" d="M55.943,43H50.157a1.157,1.157,0,1,0,0,2.314h5.786a1.157,1.157,0,0,0,0-2.314Z" transform="translate(8.706 -0.712)" fill="#428dff"/>
    </g>
  </g>
</svg>
