<svg height="512" viewBox="0 0 60 60" width="512" xmlns="http://www.w3.org/2000/svg"><g id="Icons"><path d="m7 8v16h-4a2.006 2.006 0 0 1 -2-2v-12a2.006 2.006 0 0 1 2-2z" fill="#e8edfc"/><path d="m59 10v12a2.006 2.006 0 0 1 -2 2h-4v-16h4a2.006 2.006 0 0 1 2 2z" fill="#e8edfc"/><path d="m57 8h-3a2.006 2.006 0 0 1 2 2v12a2.006 2.006 0 0 1 -2 2h3a2.006 2.006 0 0 0 2-2v-12a2.006 2.006 0 0 0 -2-2z" fill="#cad9fc"/><path d="m7 8v16h46v-16zm11 10a1 1 0 0 1 -1 1h-4a1 1 0 0 1 -1-1v-4a1 1 0 0 1 1-1h4a1 1 0 0 1 1 1zm10 0a1 1 0 0 1 -1 1h-4a1 1 0 0 1 -1-1v-4a1 1 0 0 1 1-1h4a1 1 0 0 1 1 1zm10 0a1 1 0 0 1 -1 1h-4a1 1 0 0 1 -1-1v-4a1 1 0 0 1 1-1h4a1 1 0 0 1 1 1zm10 0a1 1 0 0 1 -1 1h-4a1 1 0 0 1 -1-1v-4a1 1 0 0 1 1-1h4a1 1 0 0 1 1 1z" fill="#c6d8fb"/><g fill="#e8edfc"><rect height="6" rx="1" width="6" x="12" y="13"/><rect height="6" rx="1" width="6" x="22" y="13"/><rect height="6" rx="1" width="6" x="32" y="13"/><rect height="6" rx="1" width="6" x="42" y="13"/><path d="m59 38v12a2.006 2.006 0 0 1 -2 2h-4v-16h4a2.006 2.006 0 0 1 2 2z"/></g><path d="m57 36h-3a2.006 2.006 0 0 1 2 2v12a2.006 2.006 0 0 1 -2 2h3a2.006 2.006 0 0 0 2-2v-12a2.006 2.006 0 0 0 -2-2z" fill="#cad9fc"/><path d="m7 36v16h-4a2.006 2.006 0 0 1 -2-2v-12a2.006 2.006 0 0 1 2-2z" fill="#e8edfc"/><path d="m7 36v16h46v-16zm11 10a1 1 0 0 1 -1 1h-4a1 1 0 0 1 -1-1v-4a1 1 0 0 1 1-1h4a1 1 0 0 1 1 1zm10 0a1 1 0 0 1 -1 1h-4a1 1 0 0 1 -1-1v-4a1 1 0 0 1 1-1h4a1 1 0 0 1 1 1zm10 0a1 1 0 0 1 -1 1h-4a1 1 0 0 1 -1-1v-4a1 1 0 0 1 1-1h4a1 1 0 0 1 1 1zm10 0a1 1 0 0 1 -1 1h-4a1 1 0 0 1 -1-1v-4a1 1 0 0 1 1-1h4a1 1 0 0 1 1 1z" fill="#c6d8fb"/><rect fill="#e8edfc" height="6" rx="1" width="6" x="12" y="41"/><rect fill="#e8edfc" height="6" rx="1" width="6" x="22" y="41"/><rect fill="#e8edfc" height="6" rx="1" width="6" x="32" y="41"/><rect fill="#e8edfc" height="6" rx="1" width="6" x="42" y="41"/><path d="m3 24h3a2.006 2.006 0 0 1 -2-2v-12a2.006 2.006 0 0 1 2-2h-3a2.006 2.006 0 0 0 -2 2v12a2.006 2.006 0 0 0 2 2z" fill="#fff"/><path d="m3 52h3a2.006 2.006 0 0 1 -2-2v-12a2.006 2.006 0 0 1 2-2h-3a2.006 2.006 0 0 0 -2 2v12a2.006 2.006 0 0 0 2 2z" fill="#fff"/></g><g id="Outline"><path d="m0 14h2v8h-2z" fill="#fff"/><g fill="#428dff"><circle cx="1" cy="18" r="1"/><path d="m57 7h-54a3 3 0 0 0 -3 3v4a1 1 0 0 0 2 0v-4a1 1 0 0 1 1-1h3v14h-3a1 1 0 0 1 -1-1 1 1 0 0 0 -2 0 3 3 0 0 0 3 3h11v2a4 4 0 0 0 4 4h4a2 2 0 0 1 2 2v2h-21a3 3 0 0 0 -3 3v12a3 3 0 0 0 3 3h54a3 3 0 0 0 3-3v-12a3 3 0 0 0 -3-3h-11v-2a4 4 0 0 0 -4-4h-4a2 2 0 0 1 -2-2v-2h21a3 3 0 0 0 3-3v-12a3 3 0 0 0 -3-3zm-55 43v-12a1 1 0 0 1 1-1h3v14h-3a1 1 0 0 1 -1-1zm56-12v12a1 1 0 0 1 -1 1h-3v-14h3a1 1 0 0 1 1 1zm-6-1v14h-44v-14h16v3h-1a2 2 0 0 0 -2 2v4a2 2 0 0 0 2 2h4a2 2 0 0 0 2-2v-4a2 2 0 0 0 -2-2h-1v-3h18v3h-1a2 2 0 0 0 -2 2v4a2 2 0 0 0 2 2h4a2 2 0 0 0 2-2v-4a2 2 0 0 0 -2-2h-1v-3zm-27 6a1 1 0 0 0 1-1h1v4h-4v-4h1a1 1 0 0 0 1 1zm20 0a1 1 0 0 0 1-1h1v4h-4v-4h1a1 1 0 0 0 1 1zm-7-12h4a2 2 0 0 1 2 2v2h-18v-2a4 4 0 0 0 -4-4h-4a2 2 0 0 1 -2-2v-2h18v2a4 4 0 0 0 4 4zm-2-8v-3h1a2 2 0 0 0 2-2v-4a2 2 0 0 0 -2-2h-4a2 2 0 0 0 -2 2v4a2 2 0 0 0 2 2h1v3h-18v-3h1a2 2 0 0 0 2-2v-4a2 2 0 0 0 -2-2h-4a2 2 0 0 0 -2 2v4a2 2 0 0 0 2 2h1v3h-6v-14h44v14zm-1-6a1 1 0 0 0 -1 1h-1v-4h4v4h-1a1 1 0 0 0 -1-1zm-20 0a1 1 0 0 0 -1 1h-1v-4h4v4h-1a1 1 0 0 0 -1-1zm43 5a1 1 0 0 1 -1 1h-3v-14h3a1 1 0 0 1 1 1z"/><path d="m27 12h-4a2 2 0 0 0 -2 2v4a2 2 0 0 0 2 2h4a2 2 0 0 0 2-2v-4a2 2 0 0 0 -2-2zm-4 6v-4h4v4z"/><path d="m47 12h-4a2 2 0 0 0 -2 2v4a2 2 0 0 0 2 2h4a2 2 0 0 0 2-2v-4a2 2 0 0 0 -2-2zm-4 6v-4h4v4z"/><path d="m17 40h-4a2 2 0 0 0 -2 2v4a2 2 0 0 0 2 2h4a2 2 0 0 0 2-2v-4a2 2 0 0 0 -2-2zm-4 6v-4h4v4z"/><path d="m37 40h-4a2 2 0 0 0 -2 2v4a2 2 0 0 0 2 2h4a2 2 0 0 0 2-2v-4a2 2 0 0 0 -2-2zm-4 6v-4h4v4z"/><circle cx="4" cy="12" r="1"/><circle cx="4" cy="20" r="1"/><circle cx="56" cy="12" r="1"/><circle cx="56" cy="20" r="1"/><circle cx="4" cy="40" r="1"/><circle cx="4" cy="48" r="1"/><circle cx="56" cy="40" r="1"/><circle cx="56" cy="48" r="1"/></g></g></svg>