<svg id="Group_11092" data-name="Group 11092" xmlns="http://www.w3.org/2000/svg" width="32" height="32" viewBox="0 0 32 32">
  <path id="Path_8536" data-name="Path 8536" d="M16,0A16,16,0,1,1,0,16,16,16,0,0,1,16,0Z" fill="#977abf"/>
  <path id="Icon_awesome-folder-open" data-name="Icon awesome-folder-open" d="M17.9,9.128l-2.263,3.88A2,2,0,0,1,13.906,14H1.407a.75.75,0,0,1-.648-1.128l2.263-3.88A2,2,0,0,1,4.75,8h12.5A.75.75,0,0,1,17.9,9.128ZM4.75,7H15V5.5A1.5,1.5,0,0,0,13.5,4h-5l-2-2h-5A1.5,1.5,0,0,0,0,3.5v8.689l2.159-3.7A3.01,3.01,0,0,1,4.75,7Z" transform="translate(7 8)" fill="#fff"/>
</svg>
