<svg id="Group_11092" data-name="Group 11092" xmlns="http://www.w3.org/2000/svg" width="32" height="32" viewBox="0 0 32 32">
  <path id="Path_8536" data-name="Path 8536" d="M16,0A16,16,0,1,1,0,16,16,16,0,0,1,16,0Z" fill="#ffcd02"/>
  <path id="activity_1_" data-name="activity (1)" d="M12.069,18.557a.7.7,0,0,1-.671-.5L8.051,6.453,5.868,15.725a.7.7,0,0,1-.636.538.686.686,0,0,1-.7-.452L2.61,10.679H1.7a.7.7,0,0,1,0-1.4h1.4a.7.7,0,0,1,.654.453l1.287,3.433L7.3,3.535A.7.7,0,0,1,7.963,3h.017a.7.7,0,0,1,.671.5l3.356,11.621,2.275-9.494a.7.7,0,0,1,.649-.538.682.682,0,0,1,.692.477l1.736,5.207h1.092a.7.7,0,1,1,0,1.4h-1.6a.7.7,0,0,1-.662-.477L15.071,8.329l-2.322,9.693a.7.7,0,0,1-.663.535Z" transform="translate(5.5 5)" fill="#fff" stroke="#fff" stroke-width="1"/>
</svg>
