<svg id="Component_28_1" data-name="Component 28 – 1" xmlns="http://www.w3.org/2000/svg" width="12" height="12" viewBox="0 0 12 12">
  <g id="Rectangle_2262" data-name="Rectangle 2262" fill="#fff0b2" stroke="#b8a03f" stroke-width="0.5">
    <rect width="12" height="12" rx="2" stroke="none"/>
    <rect x="0.25" y="0.25" width="11.5" height="11.5" rx="1.75" fill="none"/>
  </g>
  <path id="Icon_awesome-key" data-name="Icon awesome-key" d="M6,2.063A2.064,2.064,0,0,1,3.553,4.089l-.281.317a.281.281,0,0,1-.21.094H2.625v.469a.281.281,0,0,1-.281.281H1.875v.469A.281.281,0,0,1,1.594,6H.281A.281.281,0,0,1,0,5.719V4.8a.281.281,0,0,1,.082-.2l1.9-1.9A2.063,2.063,0,1,1,6,2.063ZM3.938,1.5A.563.563,0,1,0,4.5.938.563.563,0,0,0,3.938,1.5Z" transform="translate(3 3)" fill="#b8a03f"/>
</svg>
