<svg width="48" height="48" viewBox="0 0 48 48" fill="none" xmlns="http://www.w3.org/2000/svg">
<path d="M42.6667 0H5.33333C2.38781 0 0 2.38781 0 5.33333V42.6667C0 45.6122 2.38781 48 5.33333 48H42.6667C45.6122 48 48 45.6122 48 42.6667V5.33333C48 2.38781 45.6122 0 42.6667 0Z" fill="#25B89D"/>
<path d="M21.414 32.09L10.414 27.09C10.043 26.921 9.60404 26.995 9.31004 27.277C9.01404 27.559 8.92004 27.993 9.07204 28.372L10.924 33.001L9.07204 37.63C8.92104 38.009 9.01404 38.442 9.31004 38.725C9.49904 38.906 9.74804 39.001 10 39.001C10.14 39.001 10.281 38.972 10.414 38.911L21.414 33.911C21.77 33.749 22 33.393 22 33.001C22 32.609 21.771 32.252 21.414 32.09ZM11.853 36.06L12.928 33.372C13.023 33.134 13.023 32.868 12.928 32.63L11.853 29.942L18.582 33.002L11.853 36.062V36.06Z" fill="white"/>
<path d="M33 21C36.309 21 39 18.309 39 15C39 11.691 36.309 9 33 9C29.691 9 27 11.691 27 15C27 18.309 29.691 21 33 21ZM33 11C35.206 11 37 12.794 37 15C37 17.206 35.206 19 33 19C30.794 19 29 17.206 29 15C29 12.794 30.794 11 33 11Z" fill="white"/>
<path d="M33.5 23H14.5C12.57 23 11 21.43 11 19.5C11 17.57 12.57 16 14.5 16H22.586L22.293 16.293C21.902 16.684 21.902 17.316 22.293 17.707C22.488 17.902 22.744 18 23 18C23.256 18 23.512 17.902 23.707 17.707L25.707 15.707C26.098 15.316 26.098 14.684 25.707 14.293L23.707 12.293C23.316 11.902 22.684 11.902 22.293 12.293C21.902 12.684 21.902 13.316 22.293 13.707L22.586 14H14.5C11.468 14 9 16.467 9 19.5C9 22.533 11.468 25 14.5 25H33.5C35.43 25 37 26.57 37 28.5C37 30.43 35.43 32 33.5 32H24C23.447 32 23 32.447 23 33C23 33.553 23.447 34 24 34H33.5C36.532 34 39 31.532 39 28.5C39 25.468 36.532 23 33.5 23Z" fill="white"/>
<path d="M33 18C34.654 18 36 16.654 36 15C36 13.346 34.654 12 33 12C31.346 12 30 13.346 30 15C30 16.654 31.346 18 33 18ZM33 14C33.552 14 34 14.449 34 15C34 15.551 33.552 16 33 16C32.448 16 32 15.551 32 15C32 14.449 32.448 14 33 14Z" fill="white"/>
</svg>
