<svg xmlns="http://www.w3.org/2000/svg" xmlns:xlink="http://www.w3.org/1999/xlink" width="116" height="103" viewBox="0 0 116 103">
  <defs>
    <filter id="Rectangle_5254" x="0" y="0" width="116" height="103" filterUnits="userSpaceOnUse">
      <feOffset dx="2" dy="2" input="SourceAlpha"/>
      <feGaussianBlur stdDeviation="2" result="blur"/>
      <feFlood flood-color="#fff" flood-opacity="0.161"/>
      <feComposite operator="in" in2="blur"/>
      <feComposite in="SourceGraphic"/>
    </filter>
  </defs>
  <g id="Group_10323" data-name="Group 10323" transform="translate(-928 -140)">
    <g transform="matrix(1, 0, 0, 1, 928, 140)" filter="url(#Rectangle_5254)">
      <rect id="Rectangle_5254-2" data-name="Rectangle 5254" width="104" height="91" rx="8" transform="translate(4 4)" fill="#fff"/>
    </g>
    <g id="curiosity_search-rafiki" data-name="curiosity search-rafiki" transform="translate(940.909 119.5)">
      <g id="freepik--background-complete--inject-178" transform="translate(0 31.764)">
        <path id="Path_9518" data-name="Path 9518" d="M95.591,96.737,94.111,74l.05,0L95.842,96.72l-.251.018ZM91,96.722,90.78,96.7,92.6,73.99l.082.006L91,96.722Zm9.47-.681L95.5,73.8l.108-.024L100.655,96l-.186.042ZM86.189,96l-.215-.049,5.178-22.191.079.018L86.189,96ZM105.1,94.643,96.918,73.377l.06-.023,8.347,21.2-.222.086Zm-23.574-.072-.2-.081,8.44-21.167.077.03L81.529,94.572Zm27.991-2.023L98.214,72.764l.076-.044L109.7,92.442l-.185.106Zm-32.39-.1-.2-.118L88.478,72.692l.059.034L77.13,92.453Zm36.4-2.6L99.451,71.932l.044-.035,14.227,17.8-.192.152Zm-40.407-.13-.212-.17L87.293,71.874l.024.019L73.123,89.72Zm44-3.163-16.607-15.6.053-.056,16.708,15.5-.153.164Zm-47.573-.145-.143-.155L86.184,70.833l.062.067ZM120.169,82.8,101.46,69.793l.028-.04,18.825,12.841-.143.208Zm-53.646-.18-.134-.2L85.292,69.7l.035.051-18.8,12.872Zm56.132-4.051-20.475-10,.047-.1,20.514,9.922-.086.176Zm-58.573-.16-.1-.217,20.593-9.756.026.054-20.515,9.92Zm60.375-4.337-21.722-6.884.016-.053,21.78,6.7q-.036.118-.074.236Zm-62.163-.205-.067-.221,21.821-6.566.021.067ZM125.578,69.3l-22.518-3.5.013-.083,22.538,3.364-.033.215Zm-64.368-.176q-.017-.116-.034-.231L83.733,65.66l.01.067-22.533,3.4ZM125.968,64.5l-22.786-.2V64.2h22.787v.044q0,.126,0,.252Zm-42.334-.23H60.847v-.21l22.787.118v.092Zm19.445-1.457-.007-.048,22.528-3.43q.019.125.037.25l-22.558,3.227ZM83.742,62.78,61.2,59.454q.017-.118.036-.236l22.517,3.5-.009.062Zm19.033-1.343-.032-.1,21.771-6.73.057.184-21.8,6.649Zm-18.715-.059L62.277,54.686l.067-.215L84.082,61.3l-.023.074Zm18.192-1.3-.039-.082,20.508-9.933.091.189-20.56,9.826Zm-17.666-.044L64.058,50.137l.092-.19,20.475,10-.04.082Zm16.95-1.216-.058-.086,18.8-12.872.111.163-18.856,12.8Zm-16.214-.06L66.486,45.93l.133-.194L85.359,58.7l-.038.055Zm15.272-1.134-.029-.031L117.238,42.06l.176.19L100.593,57.622Zm-14.356-.014L69.513,42.129l.16-.171,16.61,15.6-.046.049Zm13.3-.977-.05-.04,14.194-17.827.185.149L99.532,56.631Zm-12.218-.025L73.067,38.822l.192-.153,14.1,17.9-.044.035Zm11.024-.8-.066-.038,11.381-19.741.2.114L98.338,55.805Zm-9.819-.024L77.08,36.074l.2-.117L88.577,55.748l-.058.033Zm8.5-.621-.06-.024,8.3-21.221.222.088L97.02,55.161Zm-7.188-.014L81.456,33.954l.225-.088,8.207,21.258-.056.022Zm5.81-.418-.06-.014,5-22.231.234.054L95.642,54.729Zm-4.436-.007L86.124,32.508l.238-.053,4.9,22.254-.056.013Zm2.989-.216-.064,0,1.647-22.728.236.018L94.2,54.506Zm-1.545,0L90.934,31.78l.236-.017L92.715,54.5l-.064,0Z" transform="translate(-50.309 -31.764)" fill="#e6e6e6"/>
        <g id="Group_10310" data-name="Group 10310" transform="translate(12.816 48.478)">
          <path id="Path_9519" data-name="Path 9519" d="M88.828,368.794a1.183,1.183,0,0,1-.8-.294,1.03,1.03,0,0,1-.341-.824,1.059,1.059,0,0,1,.33-.79,1.117,1.117,0,0,1,.809-.321,1.083,1.083,0,0,1,.794.321,1.071,1.071,0,0,1,.322.79,1.038,1.038,0,0,1-.337.82A1.142,1.142,0,0,1,88.828,368.794Z" transform="translate(-85.318 -357.061)" fill="#ebebeb"/>
          <path id="Path_9520" data-name="Path 9520" d="M74,314.722a2.615,2.615,0,0,1,.445-1.4,3.422,3.422,0,0,1,1.3-1.172,4.105,4.105,0,0,1,1.992-.465,4.274,4.274,0,0,1,1.868.388,3.025,3.025,0,0,1,1.252,1.056,2.581,2.581,0,0,1,.442,1.452,2.235,2.235,0,0,1-.252,1.082,3.312,3.312,0,0,1-.6.8q-.347.338-1.244,1.136a5.065,5.065,0,0,0-.4.4,1.607,1.607,0,0,0-.223.312,1.527,1.527,0,0,0-.113.283q-.04.142-.12.5a.811.811,0,0,1-.868.755.89.89,0,0,1-.639-.247.967.967,0,0,1-.259-.733,2.567,2.567,0,0,1,.693-1.84,11.529,11.529,0,0,1,.847-.8q.467-.406.675-.613a2.081,2.081,0,0,0,.35-.461,1.11,1.11,0,0,0,.142-.552,1.28,1.28,0,0,0-.434-.98,1.59,1.59,0,0,0-1.12-.4,1.555,1.555,0,0,0-1.182.4,3.207,3.207,0,0,0-.642,1.187q-.248.821-.941.82a.928.928,0,0,1-.69-.287A.875.875,0,0,1,74,314.722Z" transform="translate(-74 -311.687)" fill="#ebebeb"/>
        </g>
        <g id="Group_10311" data-name="Group 10311" transform="translate(67.527 35.212)">
          <path id="Path_9521" data-name="Path 9521" d="M401.282,292a1.183,1.183,0,0,1-.773-.354,1.03,1.03,0,0,1-.277-.847,1.059,1.059,0,0,1,.389-.763,1.117,1.117,0,0,1,.831-.258,1.083,1.083,0,0,1,.768.38,1.071,1.071,0,0,1,.261.812,1.038,1.038,0,0,1-.4.792,1.142,1.142,0,0,1-.8.238Z" transform="translate(-398.442 -280.299)" fill="#f0f0f0"/>
          <path id="Path_9522" data-name="Path 9522" d="M389.921,237.842a2.615,2.615,0,0,1,.55-1.36,3.421,3.421,0,0,1,1.384-1.07,4.105,4.105,0,0,1,2.022-.312,4.275,4.275,0,0,1,1.833.529,3.025,3.025,0,0,1,1.168,1.148,2.581,2.581,0,0,1,.33,1.481,2.235,2.235,0,0,1-.333,1.059,3.314,3.314,0,0,1-.658.754q-.371.31-1.327,1.038a5.075,5.075,0,0,0-.427.364,1.609,1.609,0,0,0-.246.294,1.527,1.527,0,0,0-.134.274q-.051.138-.158.487a.811.811,0,0,1-.923.687.89.89,0,0,1-.618-.295.967.967,0,0,1-.2-.751,2.567,2.567,0,0,1,.831-1.782,11.518,11.518,0,0,1,.905-.736q.5-.37.72-.56a2.081,2.081,0,0,0,.384-.433,1.11,1.11,0,0,0,.184-.539,1.28,1.28,0,0,0-.358-1.01,1.591,1.591,0,0,0-1.087-.483,1.555,1.555,0,0,0-1.21.312,3.208,3.208,0,0,0-.731,1.135.965.965,0,0,1-1,.746.928.928,0,0,1-.666-.338A.875.875,0,0,1,389.921,237.842Z" transform="translate(-389.919 -235.085)" fill="#f0f0f0"/>
        </g>
        <g id="Group_10312" data-name="Group 10312" transform="translate(12.843 7.877)">
          <path id="Path_9523" data-name="Path 9523" d="M85.215,127.792a1.049,1.049,0,0,1-.693-.3.913.913,0,0,1-.264-.745.939.939,0,0,1,.328-.685.991.991,0,0,1,.732-.247.96.96,0,0,1,.689.321.95.95,0,0,1,.249.715.921.921,0,0,1-.336.711A1.012,1.012,0,0,1,85.215,127.792Z" transform="translate(-82.507 -117.405)" fill="#e6e6e6"/>
          <path id="Path_9524" data-name="Path 9524" d="M74.157,79.769a2.319,2.319,0,0,1,.459-1.217,3.034,3.034,0,0,1,1.2-.978,3.641,3.641,0,0,1,1.786-.32,3.79,3.79,0,0,1,1.637.43,2.683,2.683,0,0,1,1.06.993,2.289,2.289,0,0,1,.324,1.306,1.982,1.982,0,0,1-.273.946,2.936,2.936,0,0,1-.567.683q-.323.283-1.154.949a4.492,4.492,0,0,0-.37.332,1.424,1.424,0,0,0-.212.266,1.354,1.354,0,0,0-.113.246q-.042.124-.13.435a.719.719,0,0,1-.8.629.79.79,0,0,1-.554-.248.857.857,0,0,1-.2-.661,2.276,2.276,0,0,1,.7-1.6,10.221,10.221,0,0,1,.787-.671q.432-.339.626-.512a1.846,1.846,0,0,0,.331-.392.985.985,0,0,0,.151-.482,1.135,1.135,0,0,0-.339-.888,1.411,1.411,0,0,0-.974-.405,1.379,1.379,0,0,0-1.066.3,2.845,2.845,0,0,0-.624,1.022.856.856,0,0,1-.872.683.823.823,0,0,1-.6-.286A.776.776,0,0,1,74.157,79.769Z" transform="translate(-74.156 -77.247)" fill="#e6e6e6"/>
        </g>
        <g id="Group_10313" data-name="Group 10313" transform="translate(21.363 37.703)">
          <path id="Path_9525" data-name="Path 9525" d="M129.792,281.608a.668.668,0,0,1-.437-.2.581.581,0,0,1-.157-.478.6.6,0,0,1,.219-.431.631.631,0,0,1,.469-.146.611.611,0,0,1,.434.214.6.6,0,0,1,.148.459.586.586,0,0,1-.225.447.645.645,0,0,1-.451.135Z" transform="translate(-128.184 -275.003)" fill="#ebebeb"/>
          <path id="Path_9526" data-name="Path 9526" d="M123.354,251.031a1.477,1.477,0,0,1,.31-.768,1.932,1.932,0,0,1,.781-.605,2.318,2.318,0,0,1,1.141-.177,2.413,2.413,0,0,1,1.035.3,1.708,1.708,0,0,1,.66.648,1.458,1.458,0,0,1,.187.836,1.262,1.262,0,0,1-.188.6,1.869,1.869,0,0,1-.371.426q-.21.175-.749.587a2.868,2.868,0,0,0-.241.206.907.907,0,0,0-.139.166.861.861,0,0,0-.076.155q-.029.078-.089.275a.458.458,0,0,1-.521.388.5.5,0,0,1-.349-.166.546.546,0,0,1-.115-.424,1.449,1.449,0,0,1,.468-1.007,6.512,6.512,0,0,1,.511-.416q.28-.209.406-.317a1.175,1.175,0,0,0,.217-.245.627.627,0,0,0,.1-.3.723.723,0,0,0-.2-.57.9.9,0,0,0-.614-.272.878.878,0,0,0-.683.177,1.811,1.811,0,0,0-.412.641.545.545,0,0,1-.565.422.524.524,0,0,1-.376-.191A.494.494,0,0,1,123.354,251.031Z" transform="translate(-123.353 -249.472)" fill="#ebebeb"/>
        </g>
        <g id="Group_10314" data-name="Group 10314" transform="translate(56.186 40.233)">
          <path id="Path_9527" data-name="Path 9527" d="M330.874,296.215a.668.668,0,0,1-.437-.2.582.582,0,0,1-.157-.478.6.6,0,0,1,.219-.431.631.631,0,0,1,.469-.146.611.611,0,0,1,.434.214.6.6,0,0,1,.148.459.586.586,0,0,1-.225.447A.645.645,0,0,1,330.874,296.215Z" transform="translate(-329.266 -289.61)" fill="#ebebeb"/>
          <path id="Path_9528" data-name="Path 9528" d="M324.436,265.638a1.476,1.476,0,0,1,.31-.768,1.931,1.931,0,0,1,.781-.605,2.318,2.318,0,0,1,1.141-.177,2.415,2.415,0,0,1,1.035.3,1.709,1.709,0,0,1,.66.648,1.457,1.457,0,0,1,.187.836,1.262,1.262,0,0,1-.188.6,1.871,1.871,0,0,1-.371.426q-.21.175-.749.587a2.858,2.858,0,0,0-.241.206.907.907,0,0,0-.139.166.861.861,0,0,0-.076.155q-.029.078-.089.275a.458.458,0,0,1-.521.388.5.5,0,0,1-.349-.166.546.546,0,0,1-.115-.424,1.449,1.449,0,0,1,.468-1.007,6.5,6.5,0,0,1,.511-.416q.28-.209.406-.317a1.173,1.173,0,0,0,.217-.245.627.627,0,0,0,.1-.3.723.723,0,0,0-.2-.57.9.9,0,0,0-.614-.272.878.878,0,0,0-.683.177,1.811,1.811,0,0,0-.412.641.545.545,0,0,1-.565.422.524.524,0,0,1-.376-.191.494.494,0,0,1-.132-.361Z" transform="translate(-324.435 -264.079)" fill="#ebebeb"/>
        </g>
        <g id="Group_10315" data-name="Group 10315" transform="translate(68.367 12.782)">
          <path id="Path_9529" data-name="Path 9529" d="M403.142,137.816a.668.668,0,0,1-.451-.166.582.582,0,0,1-.193-.465.6.6,0,0,1,.186-.446.631.631,0,0,1,.457-.181.611.611,0,0,1,.449.181.6.6,0,0,1,.182.446.586.586,0,0,1-.19.463A.645.645,0,0,1,403.142,137.816Z" transform="translate(-401.16 -131.191)" fill="#ebebeb"/>
          <path id="Path_9530" data-name="Path 9530" d="M394.769,107.285a1.477,1.477,0,0,1,.251-.789,1.933,1.933,0,0,1,.733-.662,2.319,2.319,0,0,1,1.125-.262,2.414,2.414,0,0,1,1.055.219,1.708,1.708,0,0,1,.707.6,1.458,1.458,0,0,1,.249.82,1.262,1.262,0,0,1-.142.611,1.871,1.871,0,0,1-.338.453q-.2.191-.7.642a2.867,2.867,0,0,0-.225.223.907.907,0,0,0-.126.176.867.867,0,0,0-.064.16q-.023.08-.068.281a.458.458,0,0,1-.49.426.5.5,0,0,1-.361-.139.546.546,0,0,1-.146-.414,1.449,1.449,0,0,1,.391-1.039,6.515,6.515,0,0,1,.478-.453q.264-.23.381-.346a1.175,1.175,0,0,0,.2-.26.627.627,0,0,0,.08-.312.723.723,0,0,0-.245-.553.9.9,0,0,0-.632-.225.878.878,0,0,0-.668.228,1.812,1.812,0,0,0-.363.67q-.14.463-.532.463a.524.524,0,0,1-.389-.162.494.494,0,0,1-.159-.35Z" transform="translate(-394.769 -105.571)" fill="#ebebeb"/>
        </g>
        <g id="Group_10318" data-name="Group 10318" transform="translate(0 4.059)">
          <g id="Group_10317" data-name="Group 10317">
            <g id="Group_10316" data-name="Group 10316" transform="translate(8.466)">
              <path id="Path_9531" data-name="Path 9531" d="M289.629,102.825h-31.3a1.016,1.016,0,0,1-1.015-1.015V56.215a1.016,1.016,0,0,1,1.015-1.015h31.3a1.016,1.016,0,0,1,1.015,1.015v45.594a1.016,1.016,0,0,1-1.015,1.015Zm-31.3-47.582a.973.973,0,0,0-.972.972v45.594a.973.973,0,0,0,.972.972h31.3a.973.973,0,0,0,.972-.972V56.215a.973.973,0,0,0-.972-.972Z" transform="translate(-221.216 -55.2)" fill="#e0e0e0"/>
              <path id="Path_9532" data-name="Path 9532" d="M81.2,102.825H49.9a1.016,1.016,0,0,1-1.015-1.015V56.215A1.016,1.016,0,0,1,49.9,55.2H81.2a1.016,1.016,0,0,1,1.015,1.015v45.594a1.016,1.016,0,0,1-1.015,1.015ZM49.9,55.243a.973.973,0,0,0-.972.972v45.594a.973.973,0,0,0,.972.972H81.2a.973.973,0,0,0,.972-.972V56.215a.973.973,0,0,0-.972-.972Z" transform="translate(-48.884 -55.2)" fill="#e0e0e0"/>
            </g>
            <rect id="Rectangle_5247" data-name="Rectangle 5247" width="86.591" height="0.043" transform="translate(0 58.201)" fill="#e0e0e0"/>
          </g>
          <rect id="Rectangle_5248" data-name="Rectangle 5248" width="2.781" height="0.043" transform="translate(8.949 60.671)" fill="#e0e0e0"/>
          <rect id="Rectangle_5249" data-name="Rectangle 5249" width="9.27" height="0.043" transform="translate(29.502 60.202)" fill="#e0e0e0"/>
          <rect id="Rectangle_5250" data-name="Rectangle 5250" width="6.278" height="0.043" transform="translate(11.903 62.28)" fill="#e0e0e0"/>
          <rect id="Rectangle_5251" data-name="Rectangle 5251" width="7.48" height="0.043" transform="translate(65.524 60.179)" fill="#e0e0e0"/>
          <rect id="Rectangle_5252" data-name="Rectangle 5252" width="1.096" height="0.043" transform="translate(74.547 60.179)" fill="#e0e0e0"/>
          <rect id="Rectangle_5253" data-name="Rectangle 5253" width="9.333" height="0.043" transform="translate(54.762 61.258)" fill="#e0e0e0"/>
        </g>
      </g>
      <g id="freepik--Shadow_2--inject-178" transform="translate(6.277 106.242)">
        <path id="Path_9533" data-name="Path 9533" d="M109.889,462.9c0,.6-16.486,1.081-36.822,1.081S36.246,463.5,36.246,462.9s16.486-1.081,36.822-1.081S109.889,462.3,109.889,462.9Z" transform="translate(-36.246 -461.82)" fill="#f5f5f5"/>
      </g>
      <g id="freepik--Question_Mark--inject-178" transform="translate(22.599 37.815)">
        <path id="Path_9534" data-name="Path 9534" d="M130.49,84.684a16.023,16.023,0,0,1,2.515-8.279,19.694,19.694,0,0,1,7.339-6.946A22.327,22.327,0,0,1,151.6,66.706a23.2,23.2,0,0,1,10.555,2.3,17.334,17.334,0,0,1,7.071,6.258,15.826,15.826,0,0,1,2.495,8.6,13.77,13.77,0,0,1-1.423,6.408,19.577,19.577,0,0,1-3.381,4.753q-1.958,2-7.03,6.731a29.373,29.373,0,0,0-2.247,2.344,9.534,9.534,0,0,0-1.258,1.849,9.312,9.312,0,0,0-.639,1.677q-.227.839-.68,2.946-.783,4.474-4.907,4.473a4.9,4.9,0,0,1-3.608-1.462,5.89,5.89,0,0,1-1.464-4.344,16.613,16.613,0,0,1,1.072-6.258A15.984,15.984,0,0,1,149,98.339a66.563,66.563,0,0,1,4.783-4.753q2.639-2.409,3.814-3.634a12.288,12.288,0,0,0,1.979-2.731,6.829,6.829,0,0,0,.8-3.269,7.752,7.752,0,0,0-2.453-5.806,8.742,8.742,0,0,0-6.329-2.366q-4.535,0-6.679,2.387a19.29,19.29,0,0,0-3.628,7.032q-1.4,4.861-5.319,4.86a5.123,5.123,0,0,1-3.9-1.7,5.3,5.3,0,0,1-1.587-3.677Z" transform="translate(-130.49 -66.706)" fill="#90caf9"/>
        <g id="Group_10320" data-name="Group 10320" transform="translate(13.394 56.304)">
          <path id="Path_9535" data-name="Path 9535" d="M214.263,405.021a6.5,6.5,0,0,1-4.509-1.744,6.247,6.247,0,0,1-1.926-4.88,6.425,6.425,0,0,1,1.863-4.681,6.159,6.159,0,0,1,4.572-1.9,5.973,5.973,0,0,1,4.488,1.9,6.5,6.5,0,0,1,1.82,4.681,6.282,6.282,0,0,1-6.308,6.624Z" transform="translate(-207.828 -391.817)" fill="#90caf9"/>
          <g id="Group_10319" data-name="Group 10319" transform="translate(1.486 1.447)" opacity="0.2">
            <path id="Path_9536" data-name="Path 9536" d="M221.7,400.4a1,1,0,0,0-.666-.216,5.686,5.686,0,0,0-1.92.241,4.223,4.223,0,0,0-2.588,4.968c.112.45.41.957.873.936a1.172,1.172,0,0,0,.749-.488l1.459-1.635a16.191,16.191,0,0,0,2.012-2.586C221.843,401.234,222.015,400.705,221.7,400.4Z" transform="translate(-216.406 -400.172)" fill="#fff"/>
          </g>
        </g>
      </g>
      <g id="freepik--Speech_Bubble--inject-178" transform="translate(45.992 35.68)">
        <g id="Group_10322" data-name="Group 10322" transform="translate(0 0)">
          <g id="Group_10321" data-name="Group 10321" transform="translate(0 0)">
            <path id="Path_9537" data-name="Path 9537" d="M271.824,55.382a3.923,3.923,0,0,0-5.633,5.275l-.317,1.136,1.238-.134c.017.013.033.028.05.041a3.925,3.925,0,0,0,4.661-6.317Z" transform="translate(-265.57 -54.574)" fill="#407bff"/>
            <path id="Path_9538" data-name="Path 9538" d="M271.824,55.385a4.415,4.415,0,0,0-1.31-.633,3.819,3.819,0,0,0-4.179,1.461,3.923,3.923,0,0,0-.144,4.447l-.317,1.136,1.238-.134c.017.013.033.028.05.041a3.925,3.925,0,0,0,4.661-6.317Z" transform="translate(-265.57 -54.577)" fill="#fff" opacity="0.7"/>
            <path id="Path_9539" data-name="Path 9539" d="M305.58,60.684h0a.043.043,0,0,1-.042-.045,3.86,3.86,0,0,0-1.649-3.233.043.043,0,1,1,.049-.072,3.949,3.949,0,0,1,1.687,3.307.043.043,0,0,1-.043.042Z" transform="translate(-297.236 -56.817)" fill="#407bff"/>
            <path id="Path_9540" data-name="Path 9540" d="M312.785,80.241a.043.043,0,0,1-.04-.059,1.387,1.387,0,0,0,.09-.555.043.043,0,0,1,.087,0,1.474,1.474,0,0,1-.1.59A.043.043,0,0,1,312.785,80.241Z" transform="translate(-304.572 -75.217)" fill="#407bff"/>
          </g>
          <path id="Path_9541" data-name="Path 9541" d="M281.892,69.334a2.2,2.2,0,0,1,.289-.372,1.885,1.885,0,0,0,.2-.25.416.416,0,0,0,.065-.231.362.362,0,0,0-.124-.29.492.492,0,0,0-.331-.107.648.648,0,0,0-.352.1.805.805,0,0,0-.259.27l-.51-.352a1.264,1.264,0,0,1,.479-.491,1.409,1.409,0,0,1,.715-.173,1.181,1.181,0,0,1,.778.243.827.827,0,0,1,.293.674,1.024,1.024,0,0,1-.057.357.978.978,0,0,1-.139.26q-.082.107-.213.245a1.981,1.981,0,0,0-.228.275.488.488,0,0,0-.072.27h-.637A.831.831,0,0,1,281.892,69.334Zm-.067,1.5a.392.392,0,0,1-.116-.286.381.381,0,0,1,.114-.282.431.431,0,0,1,.582,0,.381.381,0,0,1,.114.282.407.407,0,0,1-.694.286Z" transform="translate(-278.223 -65.174)" fill="#73a2c7"/>
        </g>
      </g>
    </g>
  </g>
</svg>
