<svg xmlns="http://www.w3.org/2000/svg" width="48" height="48" viewBox="0 0 48 48">
  <g id="research" transform="translate(-0.021)">
    <path id="Path_7741" data-name="Path 7741" d="M21.76,1A20.755,20.755,0,1,0,34.776,37.916a19.917,19.917,0,0,0,3.146-3.153A20.74,20.74,0,0,0,21.76,1Zm0,38.313a17.56,17.56,0,1,1,17.568-17.56A17.564,17.564,0,0,1,21.76,39.313Z" transform="translate(-0.183 -0.188)" fill="#e8edfc"/>
    <path id="Path_7742" data-name="Path 7742" d="M26.688,1c-.406,0-.812.014-1.218.037a21.088,21.088,0,0,1,18.077,12.3,20.459,20.459,0,0,1-2.864,21.429,20.084,20.084,0,0,1-3.2,3.153,21.192,21.192,0,0,1-12.144,4.543c.446.027.893.046,1.347.046a21.216,21.216,0,0,0,13.232-4.59,20.084,20.084,0,0,0,3.2-3.153,20.46,20.46,0,0,0,2.61-21.975A21.127,21.127,0,0,0,26.688,1Z" transform="translate(-5.454 -0.188)" fill="#cad9fc"/>
    <path id="Path_7743" data-name="Path 7743" d="M22.859,5A17.859,17.859,0,1,0,40.719,22.859,17.859,17.859,0,0,0,22.859,5ZM23.1,36.652c-.081.008-.162.008-.244.008s-.162,0-.244-.008A13.782,13.782,0,0,1,9.067,23.1c-.008-.081-.008-.162-.008-.244s0-.162.008-.244A13.782,13.782,0,0,1,22.616,9.067c.081-.008.162-.008.244-.008s.162,0,.244.008A13.782,13.782,0,0,1,36.652,22.616c.008.081.008.162.008.244s0,.162-.008.244A13.782,13.782,0,0,1,23.1,36.652Z" transform="translate(-0.937 -0.941)" fill="#c6d8fb"/>
    <path id="Path_7744" data-name="Path 7744" d="M26.718,5c-.406,0-.812.019-1.218.046a17.854,17.854,0,0,1,0,35.626c.406.028.812.046,1.218.046A17.859,17.859,0,1,0,26.718,5Z" transform="translate(-5.277 -0.941)" fill="#a4c3fd"/>
    <path id="Path_7745" data-name="Path 7745" d="M55.985,56a2.26,2.26,0,0,1-1.6.649,2.288,2.288,0,0,1-1.6-.649L46.52,49.737l3.207-3.207L55.985,52.8a2.268,2.268,0,0,1,0,3.207Z" transform="translate(-9.441 -9.465)" fill="#c6d8fb"/>
    <path id="Path_7746" data-name="Path 7746" d="M56.447,52.8,50.188,46.53,48.97,47.748,54.011,52.8a2.268,2.268,0,0,1,0,3.207,2.177,2.177,0,0,1-.379.3,2.3,2.3,0,0,0,1.218.351,2.253,2.253,0,0,0,1.6-3.856Z" transform="translate(-9.902 -9.465)" fill="#a4c3fd"/>
    <path id="Path_7747" data-name="Path 7747" d="M49.121,45.922l-3.207,3.207L43.3,46.507A20.252,20.252,0,0,0,46.5,43.3Z" transform="translate(-8.71 -8.729)" fill="#a4c2f7"/>
    <path id="Path_7748" data-name="Path 7748" d="M46.823,43.3c-.359.451-.742.881-1.137,1.3l1.323,1.323-1.987,1.987,1.218,1.218,3.207-3.207Z" transform="translate(-9.038 -8.729)" fill="#7facfa"/>
    <path id="Path_7749" data-name="Path 7749" d="M40.849,27.3A13.782,13.782,0,0,1,27.3,40.849c2.492-.195,4.627-3.377,5.634-7.915,4.538-1.007,7.72-3.142,7.915-5.634Z" transform="translate(-5.568 -5.584)" fill="#e8edfc"/>
    <path id="Path_7750" data-name="Path 7750" d="M37.8,31.128a13.8,13.8,0,0,1-8.551,8.917,3.691,3.691,0,0,1-1.948.8A13.782,13.782,0,0,0,40.849,27.3c-.113,1.447-1.24,2.773-3.049,3.828Z" transform="translate(-5.568 -5.584)" fill="#cad9fc"/>
    <path id="Path_7751" data-name="Path 7751" d="M40.849,23.559c-.195-2.492-3.377-4.627-7.915-5.634-1.007-4.538-3.142-7.72-5.634-7.915A13.782,13.782,0,0,1,40.849,23.559Z" transform="translate(-5.568 -2.047)" fill="#e8edfc"/>
    <path id="Path_7752" data-name="Path 7752" d="M27.3,10.01a3.691,3.691,0,0,1,1.948.8A13.8,13.8,0,0,1,37.8,19.73c1.809,1.055,2.936,2.381,3.049,3.828A13.782,13.782,0,0,0,27.3,10.01Z" transform="translate(-5.568 -2.047)" fill="#cad9fc"/>
    <g id="Group_11641" data-name="Group 11641" transform="translate(7.865 7.846)">
      <path id="Path_7753" data-name="Path 7753" d="M23.559,10.01c-2.492.195-4.627,3.377-5.634,7.915-4.538,1.007-7.72,3.142-7.915,5.634A13.782,13.782,0,0,1,23.559,10.01Z" transform="translate(-10.01 -10.002)" fill="#e8edfc"/>
      <path id="Path_7754" data-name="Path 7754" d="M23.559,40.849A13.782,13.782,0,0,1,10.01,27.3c.195,2.492,3.377,4.627,7.915,5.634C18.932,37.472,21.067,40.654,23.559,40.849Z" transform="translate(-10.01 -13.256)" fill="#e8edfc"/>
      <path id="Path_7755" data-name="Path 7755" d="M32.877,17.923A27.15,27.15,0,0,0,27,17.306V10c.081,0,.162,0,.244.008C29.736,10.2,31.871,13.385,32.877,17.923Z" transform="translate(-13.208 -10)" fill="#e8edfc"/>
      <path id="Path_7756" data-name="Path 7756" d="M32.877,34.24c-1.007,4.538-3.142,7.72-5.634,7.915-.081.008-.162.008-.244.008V34.857a27.15,27.15,0,0,0,5.877-.617Z" transform="translate(-13.208 -14.562)" fill="#e8edfc"/>
      <path id="Path_7757" data-name="Path 7757" d="M25.637,34.857v7.306c-.081,0-.162,0-.244-.008-2.492-.195-4.627-3.377-5.634-7.915a27.15,27.15,0,0,0,5.877.617Z" transform="translate(-11.845 -14.562)" fill="#e8edfc"/>
      <path id="Path_7758" data-name="Path 7758" d="M25.637,10v7.306a27.151,27.151,0,0,0-5.877.617c1.007-4.538,3.142-7.72,5.634-7.915C25.475,10,25.556,10,25.637,10Z" transform="translate(-11.845 -10)" fill="#e8edfc"/>
      <path id="Path_7759" data-name="Path 7759" d="M42.163,27c0,.081,0,.162-.008.244-.195,2.492-3.377,4.627-7.915,5.634A27.15,27.15,0,0,0,34.857,27Z" transform="translate(-14.57 -13.2)" fill="#e8edfc"/>
    </g>
    <path id="Path_7760" data-name="Path 7760" d="M39.728,27c0,.081,0,.162-.008.244-.155,1.986-2.211,3.743-5.336,4.885-.047.25-.089.506-.144.748,4.538-1.007,7.72-3.142,7.915-5.634.008-.081.008-.162.008-.244Z" transform="translate(-6.91 -5.444)" fill="#cad9fc"/>
    <path id="Path_7761" data-name="Path 7761" d="M42.163,25.637H34.857a27.15,27.15,0,0,0-.617-5.877c4.538,1.007,7.72,3.142,7.915,5.634C42.163,25.475,42.163,25.556,42.163,25.637Z" transform="translate(-6.91 -3.984)" fill="#e8edfc"/>
    <path id="Path_7762" data-name="Path 7762" d="M42.155,25.394c-.195-2.492-3.377-4.627-7.915-5.634.054.244.1.5.144.748,3.125,1.142,5.181,2.9,5.336,4.885.008.081.008.162.008.244h2.435c0-.081,0-.162-.008-.244Z" transform="translate(-6.91 -3.984)" fill="#cad9fc"/>
    <path id="Path_7763" data-name="Path 7763" d="M33.494,25.494H27V19a27.15,27.15,0,0,1,5.877.617A27.15,27.15,0,0,1,33.494,25.494Z" transform="translate(-5.435 -3.834)" fill="#e8edfc"/>
    <path id="Path_7764" data-name="Path 7764" d="M33.494,27a27.15,27.15,0,0,1-.617,5.877A27.15,27.15,0,0,1,27,33.494V27Z" transform="translate(-5.435 -5.449)" fill="#e8edfc"/>
    <path id="Path_7765" data-name="Path 7765" d="M25.494,27v6.494a27.15,27.15,0,0,1-5.877-.617A27.15,27.15,0,0,1,19,27Z" transform="translate(-3.824 -5.449)" fill="#e8edfc"/>
    <path id="Path_7766" data-name="Path 7766" d="M25.494,19v6.494H19a27.15,27.15,0,0,1,.617-5.877A27.15,27.15,0,0,1,25.494,19Z" transform="translate(-3.824 -3.834)" fill="#e8edfc"/>
    <path id="Path_7767" data-name="Path 7767" d="M17.923,19.76a27.15,27.15,0,0,0-.617,5.877H10c0-.081,0-.162.008-.244C10.2,22.9,13.385,20.767,17.923,19.76Z" transform="translate(-2.015 -3.984)" fill="#e8edfc"/>
    <path id="Path_7768" data-name="Path 7768" d="M17.923,32.877c-4.538-1.007-7.72-3.142-7.915-5.634C10,27.162,10,27.081,10,27h7.306a27.15,27.15,0,0,0,.617,5.877Z" transform="translate(-2.015 -5.444)" fill="#e8edfc"/>
    <path id="Path_7769" data-name="Path 7769" d="M20.774,42.459c.446.027.893.046,1.347.046.367,0,.727-.028,1.089-.046A20.9,20.9,0,0,1,3.474,21.687,20.908,20.908,0,0,1,23.338,1.034C22.932,1.014,22.526,1,22.121,1A20.944,20.944,0,0,0,1.086,21.09,20.889,20.889,0,0,0,20.774,42.459Z" transform="translate(-0.198 -0.188)" fill="#fff"/>
    <path id="Path_7770" data-name="Path 7770" d="M18.821,52.372l.487-1.547a22.5,22.5,0,0,0,6.153.954V53.4a24.1,24.1,0,0,1-6.64-1.03Z" transform="translate(-3.788 -10.273)" fill="#fff"/>
    <path id="Path_7771" data-name="Path 7771" d="M22.834,51.665a.816.816,0,1,0,.008,0Z" transform="translate(-4.402 -10.431)" fill="#428dff"/>
    <path id="Path_7772" data-name="Path 7772" d="M21.612,0A21.826,21.826,0,0,0,7.562,5.209,21.412,21.412,0,0,0,.279,18.294a22.05,22.05,0,0,0,.152,7.6A21.756,21.756,0,0,0,15.067,42.185a.806.806,0,0,0,1.014-.551.794.794,0,0,0-.53-.974A20.155,20.155,0,0,1,2,25.582a20.443,20.443,0,0,1-.14-7.045A20,20,0,0,1,41.62,21.6a20.026,20.026,0,0,1-20.008,20,.8.8,0,1,0,0,1.6,21.5,21.5,0,0,0,12.974-4.339l8.268,8.27a3.032,3.032,0,0,0,4.28-4.3l-8.258-8.261A21.587,21.587,0,0,0,21.612,0ZM46,43.966a1.44,1.44,0,0,1,0,2.029,1.521,1.521,0,0,1-2.022,0l-5.611-5.613,2.026-2.025Zm-6.739-6.741L37.237,39.25l-1.405-1.41a21.693,21.693,0,0,0,2.026-2.022Z" fill="#428dff"/>
    <path id="Path_7773" data-name="Path 7773" d="M41.342,22.671A18.671,18.671,0,1,0,22.671,41.342,18.671,18.671,0,0,0,41.342,22.671Zm-35.719,0A17.048,17.048,0,1,1,22.671,39.719,17.048,17.048,0,0,1,5.624,22.671Z" transform="translate(-0.749 -0.753)" fill="#428dff"/>
    <path id="Path_7774" data-name="Path 7774" d="M38.224,23.612A14.612,14.612,0,1,0,23.612,38.224,14.612,14.612,0,0,0,38.224,23.612ZM27.531,35.994a15.252,15.252,0,0,0,2.629-5.833,15.252,15.252,0,0,0,5.833-2.629A13.044,13.044,0,0,1,27.531,35.994ZM30.525,28.4a28.709,28.709,0,0,0,.374-3.978h5.54C35.875,25.972,33.748,27.479,30.525,28.4Zm.374-5.6a28.709,28.709,0,0,0-.374-3.974c3.224.919,5.35,2.426,5.914,3.974Zm5.095-3.108a15.252,15.252,0,0,0-5.833-2.629,15.252,15.252,0,0,0-2.629-5.833A13.044,13.044,0,0,1,35.994,19.693Zm-11.57-8.907c1.548.563,3.055,2.689,3.978,5.913a28.71,28.71,0,0,0-3.978-.374Zm0,7.162a26.6,26.6,0,0,1,4.388.464,26.605,26.605,0,0,1,.464,4.389H24.424Zm0,6.476h4.851a26.606,26.606,0,0,1-.464,4.388,26.606,26.606,0,0,1-4.388.464Zm0,6.475a28.709,28.709,0,0,0,3.978-.374c-.919,3.224-2.426,5.35-3.978,5.913ZM19.693,11.231a15.252,15.252,0,0,0-2.629,5.833,15.252,15.252,0,0,0-5.833,2.629A13.044,13.044,0,0,1,19.693,11.231Zm-2.993,7.6a28.709,28.709,0,0,0-.374,3.974h-5.54C11.349,21.252,13.476,19.746,16.7,18.827Zm-.374,5.6A28.71,28.71,0,0,0,16.7,28.4c-3.224-.919-5.35-2.426-5.913-3.978Zm-5.095,3.108a15.252,15.252,0,0,0,5.833,2.629,15.252,15.252,0,0,0,2.629,5.833,13.044,13.044,0,0,1-8.462-8.462ZM22.8,36.438c-1.548-.563-3.055-2.689-3.974-5.913A28.709,28.709,0,0,0,22.8,30.9Zm0-7.162a26.606,26.606,0,0,1-4.388-.464,26.606,26.606,0,0,1-.464-4.389H22.8Zm0-6.476H17.949a26.6,26.6,0,0,1,.468-4.384,26.605,26.605,0,0,1,4.384-.468Zm0-6.475a28.71,28.71,0,0,0-3.974.374c.919-3.224,2.426-5.35,3.974-5.914Z" transform="translate(-1.69 -1.694)" fill="#428dff"/>
  </g>
</svg>
