<svg width="22" height="17" viewBox="0 0 22 17" fill="none" xmlns="http://www.w3.org/2000/svg">
<path d="M12.4895 0.280027C12.428 0.339444 12.3791 0.410633 12.3457 0.489348C12.3123 0.568063 12.2952 0.652694 12.2952 0.738193V4.10224C12.2952 4.22816 12.2452 4.34892 12.1561 4.43796C12.0671 4.527 11.9463 4.57703 11.8204 4.57703H1.30127C1.13236 4.57703 0.970371 4.64412 0.850937 4.76356C0.731503 4.88299 0.664404 5.04498 0.664404 5.21389V11.7591C0.664404 11.928 0.731503 12.09 0.850937 12.2095C0.970371 12.3289 1.13236 12.396 1.30127 12.396L11.8214 12.396C11.8843 12.3961 11.9465 12.4087 12.0045 12.4331C12.0625 12.4575 12.115 12.4931 12.1591 12.538C12.2032 12.5828 12.2379 12.636 12.2612 12.6944C12.2846 12.7527 12.2961 12.8152 12.2952 12.878L12.2952 16.2514C12.2928 16.3791 12.3289 16.5045 12.3987 16.6114C12.4685 16.7183 12.5689 16.8017 12.6867 16.8509C12.8045 16.9 12.9344 16.9127 13.0595 16.8871C13.1845 16.8615 13.2991 16.799 13.3881 16.7075L21.1437 8.94883C21.2039 8.89008 21.2518 8.81988 21.2845 8.74235C21.3172 8.66483 21.334 8.58154 21.334 8.49741C21.334 8.41328 21.3172 8.33 21.2845 8.25248C21.2518 8.17495 21.2039 8.10475 21.1437 8.046L13.3892 0.291455C13.2713 0.170781 13.1104 0.101803 12.9417 0.0996608C12.773 0.0975182 12.6104 0.162386 12.4895 0.280027Z" fill="#A5A5A9"/>
</svg>
