<svg width="20" height="20" viewBox="0 0 20 20" fill="none" xmlns="http://www.w3.org/2000/svg">
<path d="M18.835 3.00171V7.00171H13.835" stroke="#2680EA" stroke-width="1.5" stroke-linecap="round" stroke-linejoin="round"/>
<path d="M17.2385 12.0001C16.7031 13.5333 15.6895 14.849 14.3507 15.7488C13.0118 16.6487 11.4201 17.0839 9.81552 16.9889C8.21089 16.8939 6.68023 16.2739 5.45422 15.2223C4.2282 14.1707 3.37324 12.7444 3.01817 11.1585C2.6631 9.5725 2.82716 7.91274 3.48562 6.42931C4.14409 4.94588 5.26129 3.71914 6.66887 2.93396C8.07644 2.14877 9.69814 1.84768 11.2896 2.07605C12.881 2.30441 14.356 3.04987 15.4922 4.20009L18.2922 7.00008" stroke="#2680EA" stroke-width="1.5" stroke-linecap="round" stroke-linejoin="round"/>
<path d="M12.8385 9.59235L10.4193 7L8 9.59235" stroke="#2680EA" stroke-width="1.5" stroke-linecap="round" stroke-linejoin="round"/>
<path d="M10.4193 12.1847V7" stroke="#2680EA" stroke-width="1.5" stroke-linecap="round" stroke-linejoin="round"/>
</svg>
