<svg height="512" viewBox="0 0 60 60" width="512" xmlns="http://www.w3.org/2000/svg"><g id="Page-1" fill="none" fill-rule="evenodd"><g id="015---Wifi" fill-rule="nonzero"><rect id="Rectangle-path" fill="#e8edfc" height="18" rx="3" width="58" x="1" y="37"/><path id="Shape" d="m56 37h-3c1.6568542 0 3 1.3431458 3 3v12c0 1.6568542-1.3431458 3-3 3h3c1.6568542 0 3-1.3431458 3-3v-12c0-1.6568542-1.3431458-3-3-3z" fill="#cad9fc"/><path id="Shape" d="m16 55v2c-.0032948 1.1032019-.8967981 1.9967052-2 2h-6c-1.10320187-.0032948-1.9967052-.8967981-2-2v-2z" fill="#a4c2f7"/><path id="Shape" d="m54 55v2c-.0032948 1.1032019-.8967981 1.9967052-2 2h-6c-1.1032019-.0032948-1.9967052-.8967981-2-2v-2z" fill="#a4c2f7"/><circle id="Oval" cx="10" cy="43" fill="#a4c2f7" r="2"/><circle id="Oval" cx="18" cy="43" fill="#a4c2f7" r="2"/><circle id="Oval" cx="26" cy="43" fill="#a4c2f7" r="2"/><circle id="Oval" cx="34" cy="43" fill="#a4c2f7" r="2"/><circle id="Oval" cx="42" cy="43" fill="#a4c2f7" r="2"/><circle id="Oval" cx="50" cy="43" fill="#a4c2f7" r="2"/><path id="Shape" d="m49 29v8h-6v-8c0-.5522847.4477153-1 1-1h4c.5522847 0 1 .4477153 1 1z" fill="#e8edfc"/><path id="Shape" d="m48 28h-3c.5522847 0 1 .4477153 1 1v8h3v-8c0-.5522847-.4477153-1-1-1z" fill="#cad9fc"/><path id="Shape" d="m48 15v13h-4v-13c0-1.1045695.8954305-2 2-2s2 .8954305 2 2z" fill="#a4c2f7"/><path id="Shape" d="m17 29v8h-6v-8c0-.5522847.4477153-1 1-1h4c.5522847 0 1 .4477153 1 1z" fill="#e8edfc"/><path id="Shape" d="m16 28h-3c.5522847 0 1 .4477153 1 1v8h3v-8c0-.5522847-.4477153-1-1-1z" fill="#cad9fc"/><path id="Shape" d="m16 15v13h-4v-13c0-1.1045695.8954305-2 2-2s2 .8954305 2 2z" fill="#a4c2f7"/><path id="Shape" d="m14 29c0-.5522847.4477153-1 1-1v-13c.0022992-.4819518.1800416-.9465705.5-1.307-.544016-.6320547-1.4242933-.8581044-2.2055332-.5663671-.78124.2917373-1.2978904 1.0394398-1.2944668 1.8733671v13c-.5522847 0-1 .4477153-1 1v8h3z" fill="#fff"/><path id="Shape" d="m6 55v2c.0032948 1.1032019.89679813 1.9967052 2 2h3c-1.10320187-.0032948-1.9967052-.8967981-2-2v-2h-2c-1.65685425 0-3-1.3431458-3-3v-12c0-1.6568542 1.34314575-3 3-3h-3c-1.65685425 0-3 1.3431458-3 3v12c0 1.6568542 1.34314575 3 3 3z" fill="#fff"/><path id="Rectangle-path" d="m0 44h2v8h-2z" fill="#fff"/><g fill="#428dff"><path id="Shape" d="m1.02 49c-.55228475.0027614-1.00223858-.4427153-1.005-.995s.44271525-1.0022386.995-1.005h.01c.55228475 0 1 .4477153 1 1s-.44771525 1-1 1z"/><path id="Shape" d="m56 36h-6v-7c-.002145-.7113268-.3832487-1.3675874-1-1.722v-12.278c0-1.6568542-1.3431458-3-3-3s-3 1.3431458-3 3v12.278c-.6167513.3544126-.997855 1.0106732-1 1.722v7h-24v-7c-.002145-.7113268-.3832487-1.3675874-1-1.722v-12.278c0-1.6568542-1.3431458-2.9999999-3-2.9999999s-3 1.3431457-3 2.9999999v12.278c-.6167513.3544126-.997855 1.0106732-1 1.722v7h-6c-2.209139 0-4 1.790861-4 4v4c0 .5522847.44771525 1 1 1s1-.4477153 1-1v-4c0-1.1045695.8954305-2 2-2h52c1.1045695 0 2 .8954305 2 2v12c0 1.1045695-.8954305 2-2 2h-52c-1.1045695 0-2-.8954305-2-2 0-.5522847-.44771525-1-1-1s-1 .4477153-1 1c0 2.209139 1.790861 4 4 4h1v1c0 1.6568542 1.34314575 3 3 3h6c1.6568542 0 3-1.3431458 3-3v-1h26v1c0 1.6568542 1.3431458 3 3 3h6c1.6568542 0 3-1.3431458 3-3v-1h1c2.209139 0 4-1.790861 4-4v-12c0-2.209139-1.790861-4-4-4zm-11-21c0-.5522847.4477153-1 1-1s1 .4477153 1 1v12h-2zm-32 0c0-.5522847.4477153-1 1-1s1 .4477153 1 1v12h-2zm-1 21v-7h4v7zm32 0v-7h4v7zm-29 21c0 .5522847-.4477153 1-1 1h-6c-.55228475 0-1-.4477153-1-1v-1h8zm38 0c0 .5522847-.4477153 1-1 1h-6c-.5522847 0-1-.4477153-1-1v-1h8z"/><path id="Shape" d="m19 51c0 .5522847.4477153 1 1 1h2c.5522847 0 1-.4477153 1-1s-.4477153-1-1-1h-2c-.5522847 0-1 .4477153-1 1z"/><path id="Shape" d="m26 50c-.5522847 0-1 .4477153-1 1s.4477153 1 1 1h2c.5522847 0 1-.4477153 1-1s-.4477153-1-1-1z"/><path id="Shape" d="m32 52h2c.5522847 0 1-.4477153 1-1s-.4477153-1-1-1h-2c-.5522847 0-1 .4477153-1 1s.4477153 1 1 1z"/><path id="Shape" d="m37 51c0 .5522847.4477153 1 1 1h2c.5522847 0 1-.4477153 1-1s-.4477153-1-1-1h-2c-.5522847 0-1 .4477153-1 1z"/><path id="Shape" d="m13 43c0-1.6568542-1.3431458-3-3-3-1.65685425 0-3 1.3431458-3 3s1.34314575 3 3 3c1.6568542 0 3-1.3431458 3-3zm-4 0c0-.5522847.44771525-1 1-1 .5522847 0 1 .4477153 1 1s-.4477153 1-1 1c-.55228475 0-1-.4477153-1-1z"/><path id="Shape" d="m18 40c-1.6568542 0-3 1.3431458-3 3s1.3431458 3 3 3 3-1.3431458 3-3-1.3431458-3-3-3zm0 4c-.5522847 0-1-.4477153-1-1s.4477153-1 1-1 1 .4477153 1 1-.4477153 1-1 1z"/><path id="Shape" d="m26 40c-1.6568542 0-3 1.3431458-3 3s1.3431458 3 3 3 3-1.3431458 3-3-1.3431458-3-3-3zm0 4c-.5522847 0-1-.4477153-1-1s.4477153-1 1-1 1 .4477153 1 1-.4477153 1-1 1z"/><path id="Shape" d="m34 40c-1.6568542 0-3 1.3431458-3 3s1.3431458 3 3 3 3-1.3431458 3-3-1.3431458-3-3-3zm0 4c-.5522847 0-1-.4477153-1-1s.4477153-1 1-1 1 .4477153 1 1-.4477153 1-1 1z"/><path id="Shape" d="m45 43c0-1.6568542-1.3431458-3-3-3s-3 1.3431458-3 3 1.3431458 3 3 3 3-1.3431458 3-3zm-4 0c0-.5522847.4477153-1 1-1s1 .4477153 1 1-.4477153 1-1 1-1-.4477153-1-1z"/><path id="Shape" d="m53 43c0-1.6568542-1.3431458-3-3-3s-3 1.3431458-3 3 1.3431458 3 3 3 3-1.3431458 3-3zm-4 0c0-.5522847.4477153-1 1-1s1 .4477153 1 1-.4477153 1-1 1-1-.4477153-1-1z"/><path id="Shape" d="m44 0c-6.624447.00716485-11.9928352 5.37555305-12 12 0 .5522847.4477153 1 1 1s1-.4477153 1-1c.0060624-5.52033443 4.4796656-9.99393763 10-10 .5522847 0 1-.44771525 1-1s-.4477153-1-1-1z"/><path id="Shape" d="m44 4c-4.4162219.00495988-7.9950401 3.58377808-8 8 0 .5522847.4477153 1 1 1s1-.4477153 1-1c.0033074-3.31233757 2.6876624-5.99669262 6-6 .5522847 0 1-.44771525 1-1s-.4477153-1-1-1z"/><path id="Shape" d="m44 8c-2.209139 0-4 1.790861-4 4 0 .5522847.4477153 1 1 1s1-.4477153 1-1c0-1.1045695.8954305-2 2-2 .5522847 0 1-.44771525 1-1s-.4477153-1-1-1z"/><path id="Shape" d="m48 0c-.5522847 0-1 .44771525-1 1s.4477153 1 1 1c5.5203344.00606237 9.9939376 4.47966557 10 10 0 .5522847.4477153 1 1 1s1-.4477153 1-1c-.0071648-6.62444695-5.375553-11.99283515-12-12z"/><path id="Shape" d="m48 6c3.3123376.00330738 5.9966926 2.68766243 6 6 0 .5522847.4477153 1 1 1s1-.4477153 1-1c-.0049599-4.41622192-3.5837781-7.99504012-8-8-.5522847.00000001-1 .44771526-1 1s.4477153.99999999 1 1z"/><path id="Shape" d="m48 10c1.1045695 0 2 .8954305 2 2 0 .5522847.4477153 1 1 1s1-.4477153 1-1c0-2.209139-1.790861-4-4-4-.5522847 0-1 .44771525-1 1s.4477153 1 1 1z"/><path id="Shape" d="m12 0c-6.62444695.00716485-11.99283515 5.37555305-12 12 0 .5522847.44771525 1 1 1s1-.4477153 1-1c.00606237-5.52033443 4.47966557-9.99393763 10-10 .5522847 0 1-.44771525 1-1s-.4477153-1-1-1z"/><path id="Shape" d="m12 4c-4.41622192.00495988-7.99504012 3.58377808-8 8 .00000001.5522847.44771526 1 1 1s.99999999-.4477153 1-1c.00330738-3.31233757 2.68766243-5.99669262 6-6 .5522847 0 1-.44771525 1-1s-.4477153-1-1-1z"/><path id="Shape" d="m12 8c-2.209139 0-4 1.790861-4 4 0 .5522847.44771525 1 1 1s1-.4477153 1-1c0-1.1045695.8954305-2 2-2 .5522847 0 1-.44771525 1-1s-.4477153-1-1-1z"/><path id="Shape" d="m16 2c5.5203344.00606237 9.9939376 4.47966557 10 10 0 .5522847.4477153 1 1 1s1-.4477153 1-1c-.0071648-6.62444695-5.375553-11.99283515-12-12-.5522847 0-1 .44771525-1 1s.4477153 1 1 1z"/><path id="Shape" d="m16 6c3.3123376.00330738 5.9966926 2.68766243 6 6 0 .5522847.4477153 1 1 1s1-.4477153 1-1c-.0049599-4.41622192-3.5837781-7.99504012-8-8-.5522847.00000001-1 .44771526-1 1s.4477153.99999999 1 1z"/><path id="Shape" d="m16 10c1.1045695 0 2 .8954305 2 2 0 .5522847.4477153 1 1 1s1-.4477153 1-1c0-2.209139-1.790861-4-4-4-.5522847 0-1 .44771525-1 1s.4477153 1 1 1z"/></g></g></g></svg>