<svg id="Component_126_34" data-name="Component 126 – 34" xmlns="http://www.w3.org/2000/svg" width="28" height="22.349" viewBox="0 0 28 22.349">
  <path id="Path_7484" data-name="Path 7484" d="M4.1,284.368c5.465-3.056,14.338-3.056,19.8,0s5.465,8.018,0,11.074-14.338,3.056-19.8,0-5.465-8.018,0-11.074Z" transform="translate(-0.003 -275.385)" fill="#8b8b8b"/>
  <path id="Path_7485" data-name="Path 7485" d="M.005,368.72h28v6.691h-28Z" transform="translate(-0.005 -360.891)" fill="#8b8b8b"/>
  <path id="Path_7486" data-name="Path 7486" d="M4.1,2.3C9.567-.759,18.44-.759,23.9,2.3s5.465,8.018,0,11.074-14.338,3.056-19.8,0S-1.363,5.352,4.1,2.3Z" transform="translate(-0.003 -0.005)" fill="#cbcbcb"/>
  <path id="Path_7487" data-name="Path 7487" d="M319.6,175.137l1.162.785-3.337-.162-.24-2.254,1.162.785,3-2.028,1.252.846Zm8.315-7.308-1.162-.785,3.337.162.24,2.254-1.162-.785-3,2.028-1.252-.845Zm-8.129-.391,1.162-.785-3.337.162-.24,2.254,1.162-.785,3,2.028,1.252-.845Zm8.518,7.445-1.162.785,3.337-.162.24-2.254-1.162.785-3-2.028-1.252.845,3,2.028Z" transform="translate(-309.665 -163.187)" fill="#fff" stroke="#fff" stroke-width="1"/>
</svg>
