<svg id="Group_9860" data-name="Group 9860" xmlns="http://www.w3.org/2000/svg" width="56" height="44.698" viewBox="0 0 56 44.698">
  <path id="Path_7484" data-name="Path 7484" d="M8.2,286.634c10.929-6.077,28.676-6.077,39.606,0s10.929,15.944,0,22.02-28.676,6.077-39.606,0-10.93-15.944,0-22.02Z" transform="translate(-0.003 -268.514)" fill="#8b6136"/>
  <path id="Path_7485" data-name="Path 7485" d="M.005,368.72h56v13.563h-56Z" transform="translate(-0.005 -353.153)" fill="#8b6136"/>
  <path id="Path_7486" data-name="Path 7486" d="M8.2,4.562c10.929-6.077,28.676-6.077,39.606,0s10.929,15.944,0,22.02-28.676,6.077-39.606,0-10.93-15.944,0-22.02Z" transform="translate(-0.003 -0.005)" fill="#caa26d"/>
  <path id="Path_7487" data-name="Path 7487" d="M322.083,183.849l2.356,1.591-6.763-.328-.486-4.568,2.356,1.591,6.084-4.11,2.537,1.714Zm16.853-14.812-2.356-1.591,6.763.328.486,4.568-2.356-1.591-6.084,4.11-2.537-1.714Zm-16.476-.792,2.356-1.591-6.763.328-.486,4.568,2.356-1.591,6.084,4.11,2.537-1.714Zm17.265,15.089-2.356,1.591,6.763-.328.485-4.568-2.356,1.591-6.084-4.11-2.537,1.714,6.084,4.11Z" transform="translate(-302.33 -159.787)" fill="#fff" stroke="#fff" stroke-width="1"/>
</svg>
