<svg width="160" height="111" viewBox="0 0 160 111" fill="none" xmlns="http://www.w3.org/2000/svg">
<g clip-path="url(#clip0_296_90863)">
<path d="M25.65 2.62598H84.85C88.9369 2.62598 92.25 6.55747 92.25 11.4072V94.829C92.25 99.6787 88.9369 103.61 84.85 103.61H25.65C21.5631 103.61 18.25 99.6787 18.25 94.829V11.4072C18.25 6.55747 21.5631 2.62598 25.65 2.62598Z" fill="#E8EDFC"/>
<path d="M25.918 2.44885H31.418C27.3679 2.44885 24.0846 5.93892 24.0846 10.2441V84.2993C24.0846 88.6045 27.3679 92.0945 31.418 92.0945H25.918C21.8679 92.0945 18.5846 88.6045 18.5846 84.2993V10.2441C18.5846 5.93892 21.8679 2.44885 25.918 2.44885Z" fill="#CAD9FC"/>
<path d="M27.7506 10.2441H82.7507C83.7632 10.2441 84.584 11.1167 84.584 12.193V62.8623C84.584 63.9386 83.7632 64.8111 82.7507 64.8111H27.7506C26.7381 64.8111 25.9173 63.9386 25.9173 62.8623V12.193C25.9173 11.1167 26.7381 10.2441 27.7506 10.2441Z" fill="#C6D8FB"/>
<path d="M27.75 10.2441H33.25C32.2375 10.2441 31.4167 11.1167 31.4167 12.193V62.8623C31.4167 63.9386 32.2375 64.8111 33.25 64.8111H27.75C26.7375 64.8111 25.9167 63.9386 25.9167 62.8623V12.193C25.9167 11.1167 26.7375 10.2441 27.75 10.2441Z" fill="#A4C3FD"/>
<path d="M79.084 84.2992C76.0464 84.2992 73.584 81.6816 73.584 78.4527C73.584 75.2238 76.0464 72.6063 79.084 72.6063C82.1216 72.6063 84.584 75.2238 84.584 78.4527C84.584 81.6816 82.1216 84.2992 79.084 84.2992Z" fill="#C6D8FB"/>
<path d="M91.918 84.2993C91.918 88.6045 88.6347 92.0945 84.5846 92.0945H79.0846C83.1347 92.0945 86.418 88.6045 86.418 84.2993V10.2441C86.418 5.93892 83.1347 2.44885 79.0846 2.44885H84.5846C88.6347 2.44885 91.918 5.93892 91.918 10.2441V84.2993Z" fill="white"/>
<path d="M93.75 10.2441H90.0833V25.8347H93.75V10.2441Z" fill="white"/>
<path d="M91.9167 19.9882C90.9041 19.9882 90.0833 19.1157 90.0833 18.0394C90.0833 16.9631 90.9041 16.0906 91.9167 16.0906C92.9292 16.0906 93.75 16.9631 93.75 18.0394C93.75 19.1157 92.9292 19.9882 91.9167 19.9882Z" fill="#89BAFD"/>
<path d="M90.7494 113.636C91.4679 112.758 92.6327 112.758 93.3512 113.636L100.711 122.634C101.43 123.513 101.43 124.937 100.711 125.815L93.3512 134.813C92.6292 135.666 91.4816 135.654 90.7718 134.786C90.0621 133.918 90.0521 132.515 90.7494 131.632L94.9686 126.474H73.6502C70.6015 126.474 68.1301 123.453 68.1301 119.726V108.478H57.09V110.727C57.09 111.97 56.2662 112.977 55.25 112.977C54.2338 112.977 53.41 111.97 53.41 110.727V108.478H42.3699V119.726C42.3699 123.453 39.8985 126.474 36.8498 126.474H15.5314L19.7506 131.632C20.2289 132.197 20.4207 133.034 20.2523 133.82C20.084 134.607 19.5815 135.221 18.9382 135.427C18.2949 135.633 17.6108 135.398 17.1488 134.813L9.78873 125.815C9.07042 124.937 9.07042 123.513 9.78873 122.634L17.1488 113.636C17.8708 112.784 19.0184 112.796 19.7282 113.663C20.4379 114.531 20.4479 115.934 19.7506 116.817L15.5314 121.975H36.8498C37.8661 121.975 38.6899 120.968 38.6899 119.726V108.478H25.8097C20.7312 108.47 16.6158 103.439 16.6097 97.2301V11.7477C16.6158 5.53885 20.7312 0.507437 25.8097 0.5H84.6903C89.7688 0.507437 93.8842 5.53885 93.8903 11.7477C93.8903 12.9901 93.0665 13.9972 92.0503 13.9972C91.0341 13.9972 90.2103 12.9901 90.2103 11.7477C90.2103 8.02053 87.7389 4.99908 84.6903 4.99908H25.8097C22.7611 4.99908 20.2897 8.02053 20.2897 11.7477V97.2301C20.2897 100.957 22.7611 103.979 25.8097 103.979H84.6903C87.7389 103.979 90.2103 100.957 90.2103 97.2301V29.744C90.2103 28.5016 91.0341 27.4945 92.0503 27.4945C93.0665 27.4945 93.8903 28.5016 93.8903 29.744V97.2301C93.8842 103.439 89.7688 108.47 84.6903 108.478H71.8101V119.726C71.8101 120.968 72.6339 121.975 73.6502 121.975H94.9686L90.7494 116.817C90.0311 115.938 90.0311 114.514 90.7494 113.636Z" fill="#89BAFD"/>
<path d="M53.4173 101.839C53.4173 100.762 54.2381 99.8898 55.2507 99.8898C56.2632 99.8898 57.084 100.762 57.084 101.839V105.736C57.084 106.813 56.2632 107.685 55.2507 107.685C54.2381 107.685 53.4173 106.813 53.4173 105.736V101.839Z" fill="#89BAFD"/>
<path d="M55.2507 109.634C56.2632 109.634 57.084 110.506 57.084 111.583V115.48C57.084 116.557 56.2632 117.429 55.2507 117.429C54.2381 117.429 53.4173 116.557 53.4173 115.48V111.583C53.4173 110.506 54.2381 109.634 55.2507 109.634Z" fill="#89BAFD"/>
<path d="M24.0846 12.1929C24.0846 10.0403 25.7263 8.29523 27.7513 8.29523H82.7513C84.7763 8.29523 86.418 10.0403 86.418 12.1929V62.8622C86.418 65.0148 84.7763 66.7598 82.7513 66.7598H27.7513C25.7263 66.7598 24.0846 65.0148 24.0846 62.8622V12.1929ZM27.7513 35.5787H82.7513V25.8346H27.7513V35.5787ZM82.7513 39.4763H27.7513V49.2204H82.7513V39.4763ZM27.7513 12.1929V21.937H82.7513V12.1929H27.7513ZM82.7513 62.8622V53.1181H27.7513V62.8622H82.7513Z" fill="#89BAFD"/>
<path d="M79.0846 86.2481C75.0345 86.2481 71.7513 82.758 71.7513 78.4528C71.7513 74.1476 75.0345 70.6575 79.0846 70.6575C83.1347 70.6575 86.418 74.1476 86.418 78.4528C86.418 82.758 83.1347 86.2481 79.0846 86.2481ZM79.0846 74.5552C77.0596 74.5552 75.418 76.3002 75.418 78.4528C75.418 80.6054 77.0596 82.3504 79.0846 82.3504C81.1097 82.3504 82.7513 80.6054 82.7513 78.4528C82.7513 76.3002 81.1097 74.5552 79.0846 74.5552Z" fill="#89BAFD"/>
<path d="M49.75 74.5551V82.3504C49.75 83.4267 48.9292 84.2992 47.9167 84.2992C46.9041 84.2992 46.0833 83.4267 46.0833 82.3504V74.5551C46.0833 73.4788 46.9041 72.6063 47.9167 72.6063C48.9292 72.6063 49.75 73.4788 49.75 74.5551Z" fill="#89BAFD"/>
<path d="M42.418 74.5551V82.3504C42.418 83.4267 41.5972 84.2992 40.5846 84.2992C39.5721 84.2992 38.7513 83.4267 38.7513 82.3504V74.5551C38.7513 73.4788 39.5721 72.6063 40.5846 72.6063C41.5972 72.6063 42.418 73.4788 42.418 74.5551Z" fill="#89BAFD"/>
<path d="M35.084 74.5551V82.3504C35.084 83.4267 34.2632 84.2992 33.2507 84.2992C32.2381 84.2992 31.4173 83.4267 31.4173 82.3504V74.5551C31.4173 73.4788 32.2381 72.6063 33.2507 72.6063C34.2632 72.6063 35.084 73.4788 35.084 74.5551Z" fill="#89BAFD"/>
<path d="M27.75 74.5551V82.3504C27.75 83.4267 26.9292 84.2992 25.9167 84.2992C24.9041 84.2992 24.0833 83.4267 24.0833 82.3504V74.5551C24.0833 73.4788 24.9041 72.6063 25.9167 72.6063C26.9292 72.6063 27.75 73.4788 27.75 74.5551Z" fill="#89BAFD"/>
<path d="M77.2507 18.0394C76.2381 18.0394 75.4173 17.1668 75.4173 16.0905C75.4173 15.0142 76.2381 14.1417 77.2507 14.1417C78.2632 14.1417 79.084 15.0142 79.084 16.0905C79.084 17.1668 78.2632 18.0394 77.2507 18.0394Z" fill="#89BAFD"/>
<path d="M69.9167 18.0394C68.9041 18.0394 68.0833 17.1668 68.0833 16.0905C68.0833 15.0142 68.9041 14.1417 69.9167 14.1417C70.9292 14.1417 71.75 15.0142 71.75 16.0905C71.75 17.1668 70.9292 18.0394 69.9167 18.0394Z" fill="#89BAFD"/>
<path d="M77.2507 31.6811C76.2381 31.6811 75.4173 30.8086 75.4173 29.7323C75.4173 28.656 76.2381 27.7835 77.2507 27.7835C78.2632 27.7835 79.084 28.656 79.084 29.7323C79.084 30.8086 78.2632 31.6811 77.2507 31.6811Z" fill="#89BAFD"/>
<path d="M69.9167 31.6811C68.9041 31.6811 68.0833 30.8086 68.0833 29.7323C68.0833 28.656 68.9041 27.7835 69.9167 27.7835C70.9292 27.7835 71.75 28.656 71.75 29.7323C71.75 30.8086 70.9292 31.6811 69.9167 31.6811Z" fill="#89BAFD"/>
<path d="M77.2507 45.3228C76.2381 45.3228 75.4173 44.4503 75.4173 43.374C75.4173 42.2977 76.2381 41.4252 77.2507 41.4252C78.2632 41.4252 79.084 42.2977 79.084 43.374C79.084 44.4503 78.2632 45.3228 77.2507 45.3228Z" fill="#89BAFD"/>
<path d="M69.9167 45.3228C68.9041 45.3228 68.0833 44.4503 68.0833 43.374C68.0833 42.2977 68.9041 41.4252 69.9167 41.4252C70.9292 41.4252 71.75 42.2977 71.75 43.374C71.75 44.4503 70.9292 45.3228 69.9167 45.3228Z" fill="#89BAFD"/>
<path d="M77.2507 58.9645C76.2381 58.9645 75.4173 58.092 75.4173 57.0157C75.4173 55.9394 76.2381 55.0669 77.2507 55.0669C78.2632 55.0669 79.084 55.9394 79.084 57.0157C79.084 58.092 78.2632 58.9645 77.2507 58.9645Z" fill="#89BAFD"/>
<path d="M69.9167 58.9645C68.9041 58.9645 68.0833 58.092 68.0833 57.0157C68.0833 55.9394 68.9041 55.0669 69.9167 55.0669C70.9292 55.0669 71.75 55.9394 71.75 57.0157C71.75 58.092 70.9292 58.9645 69.9167 58.9645Z" fill="#89BAFD"/>
<rect width="95" height="14" transform="matrix(-1 0 0 1 101.25 107.5)" fill="white"/>
</g>
<g clip-path="url(#clip1_296_90863)">
<path d="M101.084 108.657C73.7486 108.657 51.5887 84.8556 51.5887 55.495C51.5887 26.1345 73.7486 2.33307 101.084 2.33307C128.42 2.33307 150.58 26.1345 150.58 55.495C150.58 84.8556 128.42 108.657 101.084 108.657Z" fill="#A4C2F7"/>
<path d="M108.417 108.657C81.0812 108.657 58.9212 84.8556 58.9212 55.495C58.9212 26.1345 81.0812 2.33307 108.417 2.33307C135.752 2.33307 157.912 26.1345 157.912 55.495C157.912 84.8556 135.752 108.657 108.417 108.657Z" fill="white"/>
<path d="M104.75 108.657C78.4271 108.657 57.0879 84.8556 57.0879 55.495C57.0879 26.1345 78.4271 2.33307 104.75 2.33307C131.074 2.33307 152.413 26.1345 152.413 55.495C152.413 84.8556 131.074 108.657 104.75 108.657Z" fill="#E3E7F2"/>
<path d="M82.7525 38.9965C79.7152 38.9965 77.2529 36.5343 77.2529 33.497C77.2529 30.4597 79.7152 27.9975 82.7525 27.9975C85.7897 27.9975 88.252 30.4597 88.252 33.497C88.252 36.5343 85.7897 38.9965 82.7525 38.9965Z" fill="#A4C2F7"/>
<path d="M132.248 51.8286H139.581V59.1612H132.248V51.8286Z" fill="#A4C2F7"/>
<path d="M69.9203 51.8286H77.2529V59.1612H69.9203V51.8286Z" fill="#A4C2F7"/>
<path d="M104.75 60.9946C101.713 60.9946 99.251 58.5323 99.251 55.4951C99.251 52.4578 101.713 49.9955 104.75 49.9955C107.788 49.9955 110.25 52.4578 110.25 55.4951C110.25 58.5323 107.788 60.9946 104.75 60.9946Z" fill="#A4C2F7"/>
<path d="M126.749 82.9925C123.711 82.9925 121.249 80.5303 121.249 77.493C121.249 74.4557 123.711 71.9935 126.749 71.9935C129.786 71.9935 132.248 74.4557 132.248 77.493C132.248 80.5303 129.786 82.9925 126.749 82.9925Z" fill="#A4C2F7"/>
<path d="M104.75 0.5C132.166 0.576692 155.367 20.7693 159.227 47.9118C159.366 48.9148 158.665 49.8402 157.662 49.9786C156.658 50.1169 155.733 49.4162 155.595 48.4129C151.874 21.7004 128.114 2.42418 101.208 4.28929C74.3017 6.15439 53.4283 28.5245 53.4283 55.4951C53.4283 82.4656 74.3015 104.836 101.207 106.701C128.113 108.566 151.874 89.2895 155.595 62.577C155.733 61.5739 156.659 60.873 157.662 61.0113C158.665 61.1497 159.366 62.0751 159.227 63.0782C155.177 92.1871 128.957 112.968 99.6925 110.263C70.428 107.559 48.4607 82.3247 49.8137 52.9666C51.1664 23.6087 75.3613 0.501719 104.75 0.5Z" fill="#89BAFD"/>
<path d="M132.248 49.9956H139.581C140.593 49.9956 141.414 50.8164 141.414 51.8287V59.1613C141.414 60.1737 140.593 60.9944 139.581 60.9944H132.248C131.236 60.9944 130.415 60.1737 130.415 59.1613V57.3282H121.203C125.386 60.4449 128.042 65.1987 128.501 70.3955C132.098 71.2694 134.484 74.6821 134.069 78.3606C133.655 82.039 130.569 84.8352 126.868 84.8867C123.167 84.9383 120.005 82.2291 119.488 78.5638C118.971 74.8985 121.261 71.4207 124.832 70.4467C124.093 63.5768 118.667 58.1503 111.797 57.4115C110.942 60.6208 108.026 62.8472 104.705 62.8275C101.384 62.8079 98.4953 60.5471 97.6781 57.328H79.0862V59.1611C79.0862 60.1735 78.2653 60.9942 77.2531 60.9942H69.9205C68.908 60.9942 68.0874 60.1735 68.0874 59.1611V51.8285C68.0874 50.816 68.908 49.9954 69.9205 49.9954H77.2531C78.2655 49.9954 79.0862 50.8162 79.0862 51.8285V53.6616H88.2985C84.1148 50.5449 81.4595 45.791 81.0002 40.5942C77.4032 39.7203 75.0174 36.3076 75.432 32.6292C75.8466 28.9507 78.9319 26.1546 82.6331 26.103C86.3343 26.0515 89.4966 28.7606 90.0134 32.4259C90.5303 36.0913 88.2405 39.5691 84.6692 40.5431C85.408 47.413 90.8345 52.8394 97.7043 53.5782C98.5596 50.3689 101.475 48.1425 104.796 48.1623C108.117 48.182 111.006 50.4426 111.823 53.6618H130.415V51.8287C130.415 50.8164 131.236 49.9956 132.248 49.9956ZM123.082 77.4931C123.082 79.518 124.724 81.1595 126.749 81.1595C128.774 81.1595 130.415 79.518 130.415 77.4931C130.415 75.4682 128.774 73.8267 126.749 73.8267C124.725 73.8288 123.084 75.469 123.082 77.4931ZM75.4198 53.662H71.7533V57.3284H75.4198V53.662ZM86.4188 33.4971C86.4188 31.4721 84.7773 29.8307 82.7524 29.8307C80.7274 29.8307 79.0859 31.4721 79.0859 33.4971C79.0859 35.522 80.7274 37.1635 82.7524 37.1635C84.7764 37.1613 86.4168 35.5211 86.4188 33.4971ZM104.75 51.8287C102.725 51.8287 101.084 53.4701 101.084 55.4951C101.084 57.52 102.725 59.1615 104.75 59.1615C106.775 59.1615 108.417 57.52 108.417 55.4951C108.415 53.471 106.774 51.8308 104.75 51.8287ZM134.081 57.3282H137.748V53.6618H134.081V57.3282Z" fill="#89BAFD"/>
<path d="M157.912 57.3282C156.9 57.3282 156.079 56.5075 156.079 55.4951C156.079 54.4827 156.9 53.662 157.912 53.662C158.925 53.662 159.745 54.4827 159.745 55.4951C159.745 56.5075 158.925 57.3282 157.912 57.3282Z" fill="#89BAFD"/>
</g>
<defs>
<clipPath id="clip0_296_90863">
<rect width="110" height="110" fill="white" transform="matrix(-1 0 0 1 110.25 0.5)"/>
</clipPath>
<clipPath id="clip1_296_90863">
<rect width="110" height="110" fill="white" transform="matrix(-1 0 0 1 159.75 0.5)"/>
</clipPath>
</defs>
</svg>
