<svg width="62" height="63" viewBox="0 0 62 63" fill="none" xmlns="http://www.w3.org/2000/svg">
<g clip-path="url(#clip0_552_32960)">
<path d="M42.4726 52.2874H8.06564C5.9987 52.2874 4.32324 50.6119 4.32324 48.545V4.2424C4.32312 2.17557 5.9987 0.5 8.06564 0.5H42.4727C44.5397 0.5 46.2151 2.17557 46.2151 4.2424V48.5449C46.2151 50.6119 44.5396 52.2874 42.4726 52.2874Z" fill="#F7F6F7"/>
<path d="M42.4729 0.5H38.7305C40.7974 0.5 42.4729 2.17557 42.4729 4.2424V48.5449C42.4729 50.6119 40.7973 52.2873 38.7305 52.2873H42.4729C44.5398 52.2873 46.2153 50.6117 46.2153 48.5449V4.2424C46.2154 2.17557 44.5398 0.5 42.4729 0.5Z" fill="#EDEBED"/>
<path d="M45.6579 62.4998H3.7424C1.67557 62.4998 0 60.8242 0 58.7574V26.697C0 24.63 1.67557 22.9546 3.7424 22.9546H21.9984C23.4867 22.9546 24.784 23.9675 25.145 25.4113L25.7878 27.9826C26.1487 29.4266 27.446 30.4394 28.9344 30.4394H45.6578C47.7247 30.4394 49.4002 32.115 49.4002 34.1818V58.7573C49.4004 60.8242 47.7249 62.4998 45.6579 62.4998Z" fill="#FFE07D"/>
<path d="M45.6574 30.4395H41.915C43.982 30.4395 45.6574 32.115 45.6574 34.1819V58.7573C45.6574 60.8243 43.9819 62.4997 41.915 62.4997H45.6574C47.7244 62.4997 49.3998 60.8242 49.3998 58.7573V34.182C49.4 32.115 47.7244 30.4395 45.6574 30.4395Z" fill="#FFD064"/>
<path d="M21.4025 25.4113L22.0452 27.9826C22.4062 29.4266 23.7035 30.4394 25.1919 30.4394H28.9343C27.4459 30.4394 26.1486 29.4264 25.7876 27.9826L25.1449 25.4113C24.7839 23.9674 23.4866 22.9546 21.9983 22.9546H18.2559C19.7442 22.9546 21.0415 23.9674 21.4025 25.4113Z" fill="#FFD064"/>
<path d="M38.0305 7.04936H10.9346C10.4179 7.04936 9.99902 6.6305 9.99902 6.11379C9.99902 5.59709 10.4179 5.17822 10.9346 5.17822H38.0305C38.5474 5.17822 38.9661 5.59709 38.9661 6.11379C38.9661 6.6305 38.5474 7.04936 38.0305 7.04936Z" fill="#A198A4"/>
<path d="M32.4169 12.6631H10.9346C10.4179 12.6631 9.99902 12.2443 9.99902 11.7276C9.99902 11.2109 10.4179 10.792 10.9346 10.792H32.4169C32.9337 10.792 33.3524 11.2109 33.3524 11.7276C33.3526 12.2441 32.9337 12.6631 32.4169 12.6631Z" fill="#A198A4"/>
<path d="M30.5456 18.2769H10.9346C10.4179 18.2769 9.99902 17.858 9.99902 17.3413C9.99902 16.8246 10.4179 16.4058 10.9346 16.4058H30.5456C31.0623 16.4058 31.4812 16.8246 31.4812 17.3413C31.4812 17.858 31.0624 18.2769 30.5456 18.2769Z" fill="#A198A4"/>
<path d="M40.5527 39.9009L36.3527 37.4759L41.4496 28.6481L45.6496 31.0731L40.5527 39.9009Z" fill="#A198A4"/>
<path d="M29.177 54.7512C31.1889 55.9127 33.7614 55.2234 34.9229 53.2116L42.37 40.3129C42.8618 39.4609 42.5699 38.3715 41.718 37.8797L37.5179 35.4548C36.6658 34.9629 35.5765 35.2548 35.0846 36.1067L27.6376 49.0054C26.4759 51.0171 27.1652 53.5896 29.177 54.7512Z" fill="#655E68"/>
<path d="M41.7175 37.8798L37.5174 35.4548C36.6654 34.9629 35.576 35.2548 35.0841 36.1067L35.0392 36.1846L37.9751 37.8797C38.8271 38.3715 39.119 39.461 38.6271 40.3129L31.1801 53.2116C30.7499 53.9565 30.1262 54.5196 29.4092 54.875C31.3826 55.8574 33.8052 55.1468 34.9225 53.2116L42.3695 40.3129C42.8615 39.461 42.5695 38.3715 41.7175 37.8798Z" fill="#544F57"/>
<path d="M38.6982 33.4095C39.9545 34.4215 41.3674 35.2465 42.8946 35.841L45.6481 31.0719L41.4479 28.647L38.6982 33.4095Z" fill="#8B808E"/>
<path d="M60.8956 26.338C63.8265 19.5607 60.7084 11.6906 53.9311 8.75972C47.1538 5.82879 39.2837 8.9469 36.3528 15.7242C33.4219 22.5015 36.54 30.3716 43.3173 33.3025C50.0946 36.2334 57.9647 33.1153 60.8956 26.338Z" fill="#A4CCFF"/>
<path d="M48.633 7.68506C47.998 7.68506 47.3735 7.73059 46.7617 7.81669C53.2498 8.72961 58.258 14.3168 58.258 21.0527C58.258 27.7886 53.2498 33.3757 46.7617 34.2886C47.3734 34.3747 47.9978 34.4203 48.633 34.4203C56.0038 34.4203 62.0005 28.4236 62.0005 21.0527C62.0005 13.6817 56.0038 7.68506 48.633 7.68506Z" fill="#8BB3EA"/>
<path d="M50.6514 29.0642C55.0836 27.9641 57.7849 23.4794 56.6848 19.0473C55.5848 14.6151 51.1 11.914 46.6678 13.014C42.2356 14.1141 39.5343 18.5988 40.6344 23.031C41.7344 27.4631 46.2192 30.1643 50.6514 29.0642Z" fill="#E6ECF8"/>
<path d="M48.633 12.7881C47.9892 12.7881 47.3634 12.8645 46.7617 13.0044C50.4202 13.8548 53.1553 17.1393 53.1553 21.053C53.1553 24.9665 50.4202 28.251 46.7617 29.1015C47.3634 29.2413 47.9892 29.3177 48.633 29.3177C53.1902 29.3177 56.8977 25.6102 56.8977 21.053C56.8977 16.4956 53.1902 12.7881 48.633 12.7881Z" fill="#D7E1F3"/>
</g>
<defs>
<clipPath id="clip0_552_32960">
<rect width="62" height="62" fill="white" transform="translate(0 0.5)"/>
</clipPath>
</defs>
</svg>
