<svg id="Create_Routing_Protocol" data-name="Create Routing Protocol" xmlns="http://www.w3.org/2000/svg" width="36" height="36" viewBox="0 0 36 36">
  <rect id="Rectangle_3954" data-name="Rectangle 3954" width="36" height="36" rx="4" fill="#25b89d"/>
  <g id="way" transform="translate(7.005 7.005)">
    <path id="Path_10592" data-name="Path 10592" d="M17.437,226.03a6.043,6.043,0,0,0-3.61,1.011L7.637,225.5a2.705,2.705,0,0,0-1.394-1.492l-.79,1.186a1.97,1.97,0,0,1-1.587.832,1.941,1.941,0,0,1-1.547-.774l-.83-1.244A2.412,2.412,0,0,0,0,226.03c0,1.423,1.731,2.577,3.865,2.577a4,4,0,0,0,3.668-1.8L13,228.162a1.636,1.636,0,0,0-.074.445,1.913,1.913,0,0,0,.716,1.426l-2.731,1.561a7.305,7.305,0,0,0-2.495-.409c-2.571,0-4.553,1.108-4.553,2.577s1.982,2.62,4.553,2.62,4.51-1.151,4.51-2.62a1.913,1.913,0,0,0-.716-1.426l2.731-1.561a7.306,7.306,0,0,0,2.495.409c2.571,0,4.553-1.108,4.553-2.577S20.008,226.03,17.437,226.03Z" transform="translate(0 -214.391)" fill="#fff"/>
    <path id="Path_10593" data-name="Path 10593" d="M3.35,10.093a.644.644,0,0,0,1.031,0L6.96,6.183a3.831,3.831,0,0,0,.771-2.317A3.865,3.865,0,1,0,.771,6.183Zm.515-8.16A1.933,1.933,0,1,1,1.933,3.865,1.935,1.935,0,0,1,3.865,1.933Z" fill="#fff"/>
  </g>
</svg>
