<svg xmlns="http://www.w3.org/2000/svg" width="16" height="16" viewBox="0 0 16 16">
  <g id="Group_10306" data-name="Group 10306" transform="translate(-5765 -233)">
    <path id="Path_9436" data-name="Path 9436" d="M14.594,0H1.406A1.412,1.412,0,0,0,0,1.415V3.3A1.412,1.412,0,0,0,1.406,4.717H14.594A1.412,1.412,0,0,0,16,3.3V1.415A1.412,1.412,0,0,0,14.594,0ZM2.344,2.83a.472.472,0,1,1,.469-.472A.47.47,0,0,1,2.344,2.83Zm1.875,0a.472.472,0,1,1,.469-.472A.47.47,0,0,1,4.219,2.83Zm1.875,0a.472.472,0,1,1,.469-.472A.47.47,0,0,1,6.094,2.83Zm7.563,0H9.906a.472.472,0,0,1,0-.943h3.75a.472.472,0,0,1,0,.943Z" transform="translate(5765 233)" fill="#cbcbcb"/>
    <path id="Path_9437" data-name="Path 9437" d="M14.594,181H1.406A1.412,1.412,0,0,0,0,182.415V184.3a1.412,1.412,0,0,0,1.406,1.415H14.594A1.412,1.412,0,0,0,16,184.3v-1.887A1.412,1.412,0,0,0,14.594,181Zm-12.25,2.83a.472.472,0,1,1,.469-.472A.47.47,0,0,1,2.344,183.83Zm1.875,0a.472.472,0,1,1,.469-.472A.47.47,0,0,1,4.219,183.83Zm1.875,0a.472.472,0,1,1,.469-.472A.47.47,0,0,1,6.094,183.83Zm7.563,0H9.906a.472.472,0,0,1,0-.943h3.75a.472.472,0,0,1,0,.943Z" transform="translate(5765 57.641)" fill="#cbcbcb"/>
    <path id="Path_9438" data-name="Path 9438" d="M14.594,362H1.406A1.412,1.412,0,0,0,0,363.415V365.3a1.412,1.412,0,0,0,1.406,1.415H14.594A1.412,1.412,0,0,0,16,365.3v-1.887A1.412,1.412,0,0,0,14.594,362Zm-12.25,2.83a.472.472,0,1,1,.469-.472A.47.47,0,0,1,2.344,364.83Zm1.875,0a.472.472,0,1,1,.469-.472A.47.47,0,0,1,4.219,364.83Zm1.875,0a.472.472,0,1,1,.469-.472A.47.47,0,0,1,6.094,364.83Zm7.563,0H9.906a.472.472,0,0,1,0-.943h3.75a.472.472,0,0,1,0,.943Z" transform="translate(5765 -117.717)" fill="#cbcbcb"/>
  </g>
</svg>
