<svg id="split" xmlns="http://www.w3.org/2000/svg" width="66.296" height="66.29" viewBox="0 0 66.296 66.29">
  <g id="Group_12032" data-name="Group 12032" transform="translate(23.092 0.004)">
    <g id="Group_12029" data-name="Group 12029" transform="translate(0.777 0.777)">
      <path id="Path_9339" data-name="Path 9339" d="M28.15,67.485H63.585a3.108,3.108,0,0,0,3.108-3.108V5.865a3.108,3.108,0,0,0-3.108-3.108H28.15a3.108,3.108,0,0,0-3.108,3.108V64.378a3.108,3.108,0,0,0,3.108,3.108Z" transform="translate(-25.043 -2.757)" fill="#ddebfd"/>
    </g>
    <g id="Group_12030" data-name="Group 12030" transform="translate(0.773 0.773)">
      <path id="Path_9340" data-name="Path 9340" d="M28.146,67.481H63.584a3.108,3.108,0,0,0,3.108-3.108V5.861a3.108,3.108,0,0,0-3.108-3.108h-.632V53.9a9.841,9.841,0,0,1-9.841,9.841H25.039v.632a3.108,3.108,0,0,0,3.108,3.108Z" transform="translate(-25.039 -2.753)" fill="#89bafd"/>
    </g>
    <g id="Group_12031" data-name="Group 12031">
      <path id="Path_9341" data-name="Path 9341" d="M63.612,68.289H28.177A3.889,3.889,0,0,1,24.292,64.4V5.891a3.889,3.889,0,0,1,3.885-3.885H63.612A3.889,3.889,0,0,1,67.5,5.891V64.4a3.889,3.889,0,0,1-3.885,3.885ZM28.177,3.561a2.334,2.334,0,0,0-2.331,2.331V64.4a2.334,2.334,0,0,0,2.331,2.331H63.612A2.334,2.334,0,0,0,65.942,64.4V5.891a2.334,2.334,0,0,0-2.331-2.331Z" transform="translate(-24.292 -2.007)" fill="#89bafd"/>
    </g>
  </g>
  <g id="Group_12036" data-name="Group 12036" transform="translate(0 0)">
    <g id="Group_12033" data-name="Group 12033" transform="translate(0.777 0.777)">
      <path id="Path_9342" data-name="Path 9342" d="M5.858,67.489H18.205a3.108,3.108,0,0,0,3.108-3.108V5.861a3.108,3.108,0,0,0-3.108-3.108H5.858A3.108,3.108,0,0,0,2.75,5.861V64.382A3.108,3.108,0,0,0,5.858,67.489Z" transform="translate(-2.75 -2.753)" fill="#ddebfd"/>
    </g>
    <g id="Group_12034" data-name="Group 12034" transform="translate(0.777 0.777)">
      <path id="Path_9343" data-name="Path 9343" d="M5.858,67.489h12.35a3.108,3.108,0,0,0,3.108-3.108V5.861a3.108,3.108,0,0,0-3.108-3.108H16.254V53.671a9.323,9.323,0,0,1-9.323,9.323H2.75v1.388a3.108,3.108,0,0,0,3.108,3.108Z" transform="translate(-2.75 -2.753)" fill="#bed9fd"/>
    </g>
    <g id="Group_12035" data-name="Group 12035">
      <path id="Path_9344" data-name="Path 9344" d="M18.232,68.293H5.885A3.889,3.889,0,0,1,2,64.408V5.888A3.889,3.889,0,0,1,5.885,2H18.232a3.889,3.889,0,0,1,3.885,3.885V64.408A3.889,3.889,0,0,1,18.232,68.293ZM5.885,3.557A2.334,2.334,0,0,0,3.554,5.888V64.408a2.334,2.334,0,0,0,2.331,2.331H18.232a2.334,2.334,0,0,0,2.331-2.331V5.888a2.334,2.334,0,0,0-2.331-2.331Z" transform="translate(-2 -2.003)" fill="#89bafd"/>
    </g>
  </g>
</svg>
