<svg width="12" height="12" viewBox="0 0 12 12" fill="none" xmlns="http://www.w3.org/2000/svg">
<g clip-path="url(#clip0_760_186726)">
<path fill-rule="evenodd" clip-rule="evenodd" d="M5.625 1.125V10.875C5.625 11.082 5.793 11.25 6 11.25C6.207 11.25 6.375 11.082 6.375 10.875V1.125C6.375 0.918 6.207 0.75 6 0.75C5.793 0.75 5.625 0.918 5.625 1.125ZM4.875 1.875H1.875C1.5765 1.875 1.29037 1.9935 1.07962 2.20463C0.868499 2.41538 0.75 2.7015 0.75 3V9C0.75 9.2985 0.868499 9.58463 1.07962 9.79537C1.29037 10.0065 1.5765 10.125 1.875 10.125H4.875V1.875ZM7.125 1.875V10.125H10.125C10.4235 10.125 10.7096 10.0065 10.9204 9.79537C11.1315 9.58463 11.25 9.2985 11.25 9V3C11.25 2.7015 11.1315 2.41538 10.9204 2.20463C10.7096 1.9935 10.4235 1.875 10.125 1.875H7.125Z" fill="white"/>
</g>
<defs>
<clipPath id="clip0_760_186726">
<rect width="12" height="12" fill="white"/>
</clipPath>
</defs>
</svg>
