<svg xmlns="http://www.w3.org/2000/svg" width="16" height="16" viewBox="0 0 16 16">
  <g id="Group_16452" data-name="Group 16452" transform="translate(-3116 -815)">
    <path id="Icon_awesome-check-circle" data-name="Icon awesome-check-circle" d="M16.563,8.563a8,8,0,1,1-8-8A8,8,0,0,1,16.563,8.563ZM7.637,12.8l5.935-5.935a.516.516,0,0,0,0-.73l-.73-.73a.516.516,0,0,0-.73,0L7.272,10.244l-2.26-2.26a.516.516,0,0,0-.73,0l-.73.73a.516.516,0,0,0,0,.73L6.907,12.8a.516.516,0,0,0,.73,0Z" transform="translate(3115.438 814.438)" fill="#25b87d"/>
  </g>
</svg>
