<svg width="326" height="315" viewBox="0 0 326 315" fill="none" xmlns="http://www.w3.org/2000/svg">
<path d="M266.293 91.1468L258.647 105.342L263.932 108.189L271.578 93.9933L266.293 91.1468Z" fill="#E0E0E0"/>
<path d="M267.72 91.9076L260.074 106.103L265.359 108.95L273.005 94.754L267.72 91.9076Z" fill="#EBEBEB"/>
<path d="M267.453 96.1831C267.325 96.4191 267.269 96.688 267.293 96.9557C267.318 97.2234 267.421 97.4778 267.59 97.6867C267.759 97.8956 267.987 98.0495 268.244 98.1289C268.5 98.2083 268.775 98.2096 269.033 98.1327C269.29 98.0557 269.519 97.904 269.69 97.6968C269.861 97.4895 269.967 97.2361 269.994 96.9686C270.021 96.7012 269.968 96.4317 269.841 96.1945C269.715 95.9573 269.521 95.763 269.284 95.6363C268.968 95.4676 268.599 95.4304 268.256 95.5328C267.913 95.6352 267.625 95.869 267.453 96.1831Z" fill="white"/>
<path d="M265.147 93.2651C265.315 93.7111 265.409 94.1818 265.424 94.6583C265.525 95.1384 265.54 95.6326 265.468 96.118C265.3 95.672 265.206 95.2013 265.191 94.7248C265.09 94.2447 265.075 93.7505 265.147 93.2651Z" fill="#EBEBEB"/>
<path d="M264.301 94.8325C264.469 95.2784 264.563 95.7492 264.578 96.2257C264.675 96.695 264.69 97.1776 264.622 97.6521C264.453 97.2064 264.359 96.7356 264.345 96.259C264.248 95.7896 264.233 95.307 264.301 94.8325Z" fill="#EBEBEB"/>
<path d="M263.467 96.4097C263.637 96.8553 263.731 97.3262 263.745 97.8028C263.846 98.2829 263.861 98.7771 263.789 99.2625C263.621 98.8166 263.527 98.3459 263.512 97.8694C263.411 97.3893 263.396 96.895 263.467 96.4097Z" fill="#EBEBEB"/>
<path d="M262.606 97.9771C262.774 98.423 262.868 98.8937 262.883 99.3702C262.98 99.8395 262.995 100.322 262.927 100.797C262.759 100.351 262.665 99.88 262.65 99.4035C262.553 98.9342 262.538 98.4515 262.606 97.9771Z" fill="#EBEBEB"/>
<path d="M261.759 99.5542C261.93 99.9996 262.027 100.47 262.044 100.947C262.136 101.414 262.148 101.892 262.08 102.363C261.911 101.917 261.817 101.446 261.803 100.97C261.712 100.503 261.697 100.025 261.759 99.5542Z" fill="#EBEBEB"/>
<path d="M260.919 101.152C261.089 101.598 261.186 102.068 261.204 102.545C261.296 103.015 261.309 103.497 261.241 103.971C261.072 103.525 260.978 103.055 260.963 102.578C260.87 102.108 260.855 101.627 260.919 101.152Z" fill="#EBEBEB"/>
<path d="M260.07 102.691C260.239 103.137 260.335 103.607 260.355 104.084C260.435 104.556 260.435 105.038 260.355 105.51C260.186 105.065 260.093 104.594 260.078 104.117C260 103.645 260 103.163 260.078 102.691H260.07Z" fill="#EBEBEB"/>
<path d="M265.907 91.8862C266.178 92.7991 266.285 93.7525 266.224 94.7026C266.055 94.257 265.961 93.7861 265.947 93.3095C265.856 92.8404 265.843 92.3596 265.907 91.8862Z" fill="#EBEBEB"/>
<path d="M266.846 91.4268C266.911 91.4268 267.004 91.785 267.058 92.2446C267.115 92.5239 267.115 92.8116 267.058 93.0909C266.921 92.8398 266.846 92.5593 266.84 92.2731C266.795 91.8135 266.787 91.4347 266.846 91.4268Z" fill="#EBEBEB"/>
<path d="M256.575 102.771L263.047 90.0682C263.047 90.0682 260.544 88.0252 260.129 82.8822C259.837 79.4826 261.872 77.148 262.157 75.8705C262.325 75.0971 260.661 74.4109 259.918 74.0764C259.432 73.8664 258.9 73.7837 258.374 73.8361C257.847 73.8885 257.342 74.0743 256.907 74.376C255.017 75.8357 253.711 81.1324 253.711 81.1324C253.711 81.1324 253.712 82.3513 252.398 81.6428L247.684 79.1069C247.077 78.7716 246.371 78.6631 245.692 78.8011C245.342 78.8717 245.014 79.0269 244.738 79.2532C244.462 79.4795 244.245 79.7699 244.107 80.0991C243.715 81.2412 243.54 82.4461 243.589 83.6524C243.384 84.0249 242.516 84.3815 242.305 85.7033C242.094 87.0251 242.386 87.0236 242.108 87.5418C241.625 88.4413 241.288 89.4117 241.108 90.4168C241.039 90.9374 241.063 91.4662 241.181 91.978C240.582 92.8282 240.201 93.8128 240.072 94.8451C240.072 96.4791 242.742 98.9896 244.351 99.091C245.08 99.1418 248.261 99.9818 249.757 100.359C251.253 100.736 255.628 101.472 256.575 102.771Z" fill="#E0E0E0"/>
<path d="M258.178 103.821L265.014 91.1334C265.014 91.1334 262.512 89.0825 262.096 83.9474C261.857 81.5749 261.97 79.18 262.432 76.8407C262.521 76.4638 262.473 76.0675 262.295 75.7235C262.117 75.3795 261.821 75.1107 261.462 74.9657C261.032 74.7646 260.554 74.6907 260.083 74.7528C259.612 74.8149 259.169 75.0103 258.806 75.316C256.917 76.7757 255.676 82.1882 255.676 82.1882C255.676 82.1882 255.676 83.4133 254.37 82.7064L249.606 80.1705C248.997 79.8337 248.288 79.7252 247.607 79.8647C247.256 79.9316 246.926 80.0855 246.65 80.3122C246.373 80.5389 246.157 80.8313 246.022 81.1627C245.63 82.3047 245.454 83.5097 245.504 84.7161C245.299 85.0949 244.425 85.4451 244.22 86.7669C244.016 88.0888 244.301 88.0872 244.016 88.6054C243.533 89.5017 243.198 90.4698 243.023 91.4726C242.953 91.9927 242.975 92.5212 243.088 93.0337C242.525 93.9029 242.148 94.8789 241.979 95.9008C241.92 97.1481 243.621 98.7314 244.285 99.0896C244.949 99.4478 250.165 101.045 251.669 101.424C253.173 101.803 257.237 102.523 258.178 103.821Z" fill="#EBEBEB"/>
<path d="M254.602 78.3589C254.861 78.9253 255.061 79.517 255.199 80.1245C255.412 80.7096 255.571 81.3127 255.675 81.9265C255.339 81.3936 255.093 80.8096 254.945 80.1974C254.737 79.6059 254.621 78.9857 254.602 78.3589Z" fill="#EBEBEB"/>
<path d="M255.261 76.5269C255.51 77.0339 255.722 77.5583 255.895 78.0959C256.137 78.612 256.304 79.1602 256.391 79.7236C256.082 79.2448 255.837 78.7274 255.662 78.1847C255.418 77.665 255.281 77.1009 255.261 76.5269Z" fill="#EBEBEB"/>
<path d="M256.216 75.061C256.43 75.4661 256.615 75.8855 256.771 76.3163C257.016 76.7168 257.166 77.1686 257.208 77.6365C256.947 77.2545 256.727 76.8459 256.552 76.4177C256.316 76.0054 256.2 75.5357 256.216 75.061Z" fill="#EBEBEB"/>
<path d="M257.419 74.0688C257.639 74.331 257.801 74.6367 257.894 74.9659C258.053 75.2733 258.14 75.6124 258.15 75.9581C257.929 75.6937 257.766 75.3851 257.674 75.0531C257.516 74.7486 257.428 74.412 257.419 74.0688Z" fill="#EBEBEB"/>
<path d="M258.785 73.8276C258.844 73.8276 259.018 74.002 259.172 74.3031C259.326 74.6042 259.413 74.8499 259.354 74.88C259.296 74.9101 259.114 74.7057 258.96 74.4125C258.806 74.1193 258.727 73.8641 258.785 73.8276Z" fill="#EBEBEB"/>
<path d="M253.766 80.7949C253.994 81.0745 254.163 81.3982 254.262 81.7459C254.429 82.0692 254.524 82.4251 254.539 82.7887C254.31 82.5091 254.141 82.1854 254.043 81.8378C253.876 81.5145 253.781 81.1586 253.766 80.7949Z" fill="#EBEBEB"/>
<path d="M243.711 81.0869C244.12 81.6155 244.463 82.1913 244.734 82.8018C245.073 83.3726 245.343 83.9825 245.536 84.6181C245.121 84.0937 244.773 83.5205 244.499 82.9111C244.165 82.3366 243.9 81.7242 243.711 81.0869Z" fill="#EBEBEB"/>
<path d="M244.944 78.979C245.224 79.2661 245.445 79.606 245.594 79.9791C245.81 80.3171 245.958 80.6939 246.031 81.0885C245.756 80.797 245.536 80.4582 245.381 80.0884C245.165 79.7504 245.016 79.3736 244.944 78.979Z" fill="#EBEBEB"/>
<path d="M242.777 84.5605C243.134 84.9035 243.417 85.3155 243.609 85.7714C243.875 86.1924 244.049 86.6651 244.119 87.1582C243.828 86.7618 243.583 86.3331 243.39 85.8808C243.134 85.4668 242.928 85.0235 242.777 84.5605Z" fill="#EBEBEB"/>
<path d="M242.143 87.3691C242.455 87.7479 242.702 88.1765 242.872 88.6371C243.111 89.0647 243.281 89.5273 243.376 90.008C243.061 89.6306 242.815 89.2016 242.647 88.7401C242.408 88.3125 242.237 87.8498 242.143 87.3691Z" fill="#EBEBEB"/>
<path d="M241.137 90.5645C241.452 91.0216 241.718 91.5109 241.929 92.0241C242.224 92.5109 242.468 93.0266 242.658 93.5631C242.264 93.138 241.952 92.6429 241.739 92.1034C241.453 91.6281 241.249 91.1078 241.137 90.5645Z" fill="#EBEBEB"/>
<path d="M240.434 93.3223C240.782 93.8779 241.085 94.4609 241.339 95.0657C241.659 95.6417 241.934 96.2415 242.163 96.8598C241.728 96.3553 241.378 95.7837 241.126 95.1671C240.794 94.5952 240.56 93.9716 240.434 93.3223Z" fill="#EBEBEB"/>
<path d="M71.996 12.1542L64.3965 15.3145L72.8932 35.7467L80.4927 32.5864L71.996 12.1542Z" fill="#E0E0E0"/>
<path d="M69.9389 13.018L62.3394 16.1782L70.8361 36.6104L78.4356 33.4502L69.9389 13.018Z" fill="#EBEBEB"/>
<path d="M74.0994 29.4535C73.9588 29.1151 73.721 28.826 73.4161 28.6227C73.1112 28.4194 72.7529 28.3111 72.3864 28.3115C72.02 28.3119 71.6619 28.421 71.3574 28.6249C71.053 28.8288 70.8158 29.1184 70.6759 29.4571C70.536 29.7958 70.4998 30.1684 70.5716 30.5277C70.6435 30.887 70.8203 31.217 71.0797 31.4758C71.3391 31.7346 71.6695 31.9107 72.0289 31.9818C72.3884 32.0529 72.7609 32.0158 73.0993 31.8752C73.5531 31.6867 73.9133 31.3256 74.1009 30.8715C74.2884 30.4173 74.2879 29.9072 74.0994 29.4535Z" fill="white"/>
<path d="M79.1995 29.5218C78.5798 29.3142 77.9983 29.0063 77.4783 28.6105C76.9127 28.3131 76.3998 27.925 75.96 27.4614C76.5809 27.6631 77.163 27.9692 77.6812 28.3664C78.2492 28.6625 78.7627 29.0533 79.1995 29.5218Z" fill="#EBEBEB"/>
<path d="M78.2593 27.2646C77.639 27.0613 77.0572 26.7554 76.5381 26.3596C75.9609 26.0506 75.4383 25.6491 74.9912 25.1709C75.6056 25.3732 76.1808 25.6793 76.6918 26.0759C77.2763 26.3829 77.806 26.7846 78.2593 27.2646Z" fill="#EBEBEB"/>
<path d="M77.3253 25.0014C76.7015 24.8007 76.1166 24.4946 75.5962 24.0964C75.0175 23.7897 74.4946 23.3879 74.0493 22.9077C74.6724 23.1102 75.2569 23.4161 75.7784 23.8127C76.3535 24.1248 76.8756 24.526 77.3253 25.0014Z" fill="#EBEBEB"/>
<path d="M76.3839 22.7401C75.1788 22.2374 74.0703 21.529 73.1079 20.6465C74.3092 21.1565 75.4165 21.8642 76.3839 22.7401Z" fill="#EBEBEB"/>
<path d="M75.4414 20.4862C74.8219 20.2783 74.2405 19.9704 73.7202 19.5749C73.1394 19.2716 72.616 18.8693 72.1733 18.3862C72.7914 18.5976 73.3723 18.9051 73.8945 19.2976C74.4753 19.6009 74.9987 20.0032 75.4414 20.4862Z" fill="#EBEBEB"/>
<path d="M74.5 18.2245C73.3025 17.712 72.1981 17.0045 71.2319 16.1309C71.8522 16.3342 72.4341 16.6401 72.9532 17.0358C73.5339 17.3392 74.0573 17.7415 74.5 18.2245Z" fill="#EBEBEB"/>
<path d="M73.5586 15.9628C72.9383 15.7595 72.3565 15.4536 71.8374 15.0578C71.2602 14.7489 70.7376 14.3473 70.2905 13.8691C70.9122 14.0693 71.4945 14.3754 72.0117 14.7741C72.5904 15.0808 73.1133 15.4826 73.5586 15.9628Z" fill="#EBEBEB"/>
<path d="M80.0068 31.5248C78.8055 31.0196 77.7 30.3113 76.7388 29.4312C77.3611 29.6509 77.9427 29.9722 78.46 30.3821C79.0355 30.6758 79.5582 31.0631 80.0068 31.528V31.5248Z" fill="#EBEBEB"/>
<path d="M79.6814 32.934C79.637 33.0069 79.1631 32.7961 78.6242 32.4586C78.0854 32.121 77.697 31.7723 77.7493 31.7295C78.1343 31.8024 78.4966 31.9653 78.8065 32.205C79.3374 32.5394 79.7337 32.8532 79.6814 32.934Z" fill="#EBEBEB"/>
<path d="M76.498 12.14L84.4226 30.0494C84.4226 30.0494 88.8001 29.1587 94.6373 33.1353C98.5108 35.7615 99.2336 39.9504 100.343 41.3578C101.029 42.212 103.261 41.0661 104.188 40.5336C104.833 40.1979 105.381 39.7035 105.782 39.0971C106.183 38.4906 106.422 37.7921 106.478 37.0674C106.543 33.7692 102.056 27.8163 102.056 27.8163C102.056 27.8163 100.75 26.7734 102.647 25.9778L109.426 23.1614C110.313 22.8077 111.042 22.1444 111.477 21.2944C111.709 20.8626 111.83 20.3802 111.83 19.8902C111.83 19.4002 111.709 18.9177 111.477 18.4859C110.2 15.9913 108.361 15.4065 108.136 14.8407C108.123 13.7086 107.75 12.6101 107.071 11.7041C105.882 10.3696 105.611 10.6454 105.283 9.90208C104.75 8.60745 104.011 7.40753 103.094 6.34872C102.602 5.82567 102.019 5.39611 101.373 5.08079C100.999 3.7078 100.281 2.45307 99.2859 1.4355C97.5424 0.0344386 92.5595 0.706437 91.0633 2.30403C90.3343 3.03308 86.7302 5.69732 85.0217 6.96683C83.3131 8.23634 78.7011 12.2858 76.498 12.14Z" fill="#E0E0E0"/>
<path d="M73.9897 12.9718L81.5846 31.2125C81.5846 31.2125 85.9257 30.3218 91.7994 34.292C94.5413 36.0844 96.9989 38.278 99.0899 40.7996C99.4171 41.2174 99.8816 41.506 100.401 41.6142C100.921 41.7224 101.462 41.6433 101.929 41.3908C102.515 41.1074 103.009 40.6622 103.352 40.1077C103.694 39.5532 103.871 38.9123 103.862 38.2606C103.921 34.9624 99.2437 28.9794 99.2437 28.9794C99.2437 28.9794 97.9298 27.9286 99.8348 27.1409L106.598 24.3467C107.483 23.9906 108.211 23.328 108.649 22.4797C108.88 22.0479 109.001 21.5655 109.001 21.0754C109.001 20.5854 108.88 20.103 108.649 19.6712C107.371 17.1766 105.533 16.5854 105.308 16.0259C105.293 14.894 104.921 13.7958 104.242 12.8894C103.054 11.5549 102.783 11.8307 102.455 11.0794C101.919 9.78826 101.18 8.59127 100.266 7.53398C99.7595 7.02206 99.1638 6.60688 98.5083 6.30884C98.0826 4.95953 97.3737 3.71671 96.4289 2.66356C95.1609 1.55412 91.9911 1.9345 91.0402 2.35767C90.0892 2.78084 83.8685 6.93172 82.1647 8.19489C80.4609 9.45806 76.1928 13.0954 73.9897 12.9718Z" fill="#EBEBEB"/>
<path d="M104.189 31.2048C103.362 30.9863 102.558 30.688 101.788 30.3141C100.977 30.0407 100.197 29.6838 99.46 29.249C100.309 29.3688 101.135 29.6145 101.912 29.9781C102.73 30.2661 103.499 30.68 104.189 31.2048Z" fill="#EBEBEB"/>
<path d="M105.574 33.4952C104.828 33.3036 104.097 33.06 103.385 32.7661C102.615 32.5846 101.877 32.2869 101.196 31.8833C101.973 31.9739 102.736 32.1624 103.466 32.4444C104.234 32.6452 104.951 33.003 105.574 33.4952Z" fill="#EBEBEB"/>
<path d="M106.307 35.7724C105.691 35.6494 105.084 35.4864 104.49 35.2843C103.853 35.1956 103.245 34.9637 102.71 34.606C103.342 34.6537 103.967 34.7739 104.571 34.9641C105.216 35.067 105.82 35.3474 106.315 35.774L106.307 35.7724Z" fill="#EBEBEB"/>
<path d="M106.32 37.9218C105.848 37.938 105.379 37.8458 104.949 37.6524C104.22 37.4194 103.651 37.1563 103.681 37.0691C104.153 37.0489 104.623 37.1413 105.052 37.3386C105.779 37.5668 106.348 37.8283 106.32 37.9218Z" fill="#EBEBEB"/>
<path d="M105.393 39.5716C105.393 39.6667 105.007 39.6667 104.561 39.5716C104.116 39.4765 103.769 39.3449 103.788 39.2546C103.807 39.1643 104.182 39.1595 104.62 39.2546C105.057 39.3497 105.408 39.4844 105.393 39.5716Z" fill="#EBEBEB"/>
<path d="M102.331 28.1901C101.341 28.0995 100.383 27.7881 99.5288 27.2788C100.519 27.3694 101.477 27.6808 102.331 28.1901Z" fill="#EBEBEB"/>
<path d="M110.71 17.2467C109.799 17.2263 108.894 17.0938 108.015 16.8521C107.111 16.7172 106.226 16.4724 105.381 16.123C107.199 16.277 108.99 16.6544 110.715 17.2467H110.71Z" fill="#EBEBEB"/>
<path d="M111.899 20.3972C111.351 20.4444 110.798 20.3852 110.272 20.2228C109.724 20.1627 109.195 19.9912 108.717 19.7189C109.266 19.6717 109.818 19.7309 110.345 19.8932C110.891 19.9551 111.42 20.1265 111.899 20.3972Z" fill="#EBEBEB"/>
<path d="M107.829 13.2495C106.471 13.3107 105.118 13.0295 103.897 12.4316C104.569 12.4642 105.236 12.577 105.881 12.7676C106.547 12.8469 107.201 13.0066 107.829 13.2431V13.2495Z" fill="#EBEBEB"/>
<path d="M105.379 10.14C104.708 10.1427 104.042 10.0318 103.409 9.81192C102.746 9.70351 102.107 9.48153 101.52 9.15576C102.19 9.16228 102.855 9.27571 103.49 9.49177C104.15 9.60449 104.788 9.82396 105.379 10.1416V10.14Z" fill="#EBEBEB"/>
<path d="M102.863 6.30274C102.091 6.22757 101.328 6.07356 100.587 5.84312C99.8203 5.72131 99.0674 5.52327 98.3398 5.25195C99.9075 5.25748 101.454 5.61666 102.863 6.30274Z" fill="#EBEBEB"/>
<path d="M100.536 3.17236C99.6288 3.07118 98.7311 2.89787 97.8513 2.65409C96.9618 2.49617 96.0858 2.26937 95.2314 1.97576C96.1432 1.94542 97.0536 2.06645 97.9258 2.33394C98.8352 2.47157 99.7166 2.75466 100.536 3.17236Z" fill="#EBEBEB"/>
<path d="M36.1736 229.759C31.592 227.61 26.4431 226.983 21.4799 227.971C18.7693 228.214 16.2171 229.354 14.2274 231.211C12.4174 233.209 12.0386 236.734 14.1544 238.455C15.4949 239.369 17.1147 239.779 18.7285 239.615C22.6099 239.571 26.9225 238.886 30.0225 241.227C31.7881 242.555 32.9404 244.773 35.0863 245.43C36.1453 245.683 37.258 245.58 38.2525 245.137C39.2469 244.694 40.0675 243.935 40.5876 242.978C41.6009 241.033 41.8262 238.772 41.2168 236.664C40.9652 235.202 40.3794 233.818 39.5049 232.62C38.6303 231.421 37.4908 230.441 36.1752 229.756L36.1736 229.759Z" fill="#EBEBEB"/>
<path d="M46.4122 209.988C43.683 213.891 38.3862 212.599 35.9058 210.22C33.4255 207.841 32.4032 204.383 31.4554 201.093C29.2667 193.571 27.0779 185.677 28.7199 178.015C29.097 175.697 30.1067 173.529 31.6377 171.748C32.4168 170.872 33.4124 170.215 34.5249 169.844C35.6374 169.472 36.8279 169.4 37.9773 169.633C40.6542 170.362 42.3548 172.961 43.5245 175.47C47.0627 182.832 48.9195 190.889 48.9607 199.058C49.2081 202.882 48.3086 206.692 46.3773 210.002" fill="#EBEBEB"/>
<path d="M53.9111 215.596C52.5199 213.763 51.593 211.62 51.2093 209.351C50.8257 207.082 50.9968 204.754 51.7081 202.565C53.1999 198.18 55.8769 194.293 59.4424 191.336C63.4907 187.739 68.1988 184.961 73.3056 183.158C75.2819 182.361 77.4071 181.999 79.5359 182.099C80.5994 182.164 81.6313 182.486 82.5425 183.038C83.4538 183.59 84.2169 184.356 84.7661 185.269C86.2258 188.049 84.8247 191.426 83.3064 194.178C80.6396 199.031 77.5952 203.666 74.2011 208.041C71.4719 211.558 68.3639 215.024 64.1908 216.614C60.0177 218.203 55.7131 218.021 53.5101 215.154" fill="#EBEBEB"/>
<path d="M46.5926 268.867C46.4514 268.286 46.3707 267.691 46.3517 267.093C46.2201 265.802 46.0664 264.176 45.8762 262.248C45.6332 259.865 45.2704 257.496 44.789 255.15C44.1547 252.292 43.2908 249.491 42.2056 246.773C41.142 244.058 39.7015 241.506 37.9263 239.193C36.4817 237.303 34.6351 235.758 32.5202 234.669C31.0862 233.947 29.5475 233.454 27.9604 233.21C27.3642 233.191 26.7719 233.106 26.1948 232.955C26.7939 232.893 27.3978 232.893 27.9969 232.955C29.639 233.076 31.2455 233.494 32.7389 234.188C34.9682 235.235 36.9219 236.789 38.4446 238.725C40.3033 241.066 41.7993 243.673 42.8823 246.46C43.9815 249.218 44.8385 252.067 45.4435 254.974C45.9067 257.347 46.2242 259.747 46.3945 262.16C46.553 264.21 46.6053 265.881 46.6354 267.025C46.6892 267.638 46.6743 268.255 46.591 268.864L46.5926 268.867Z" fill="#E0E0E0"/>
<path d="M46.264 265.137C46.2111 264.866 46.194 264.589 46.2133 264.313C46.2133 263.7 46.2133 262.92 46.2133 261.965C46.2133 259.922 46.2133 256.967 46.1119 253.319C45.9296 246.028 45.302 238.166 44.0832 227.097C42.9373 216.677 41.3984 204.567 39.7643 196.687C39.422 194.893 39.0353 193.279 38.7357 191.872C38.4362 190.465 38.1525 189.238 37.8894 188.227C37.6263 187.215 37.4884 186.542 37.3426 185.943C37.265 185.676 37.2161 185.402 37.1968 185.125C37.3198 185.372 37.4154 185.631 37.4821 185.898C37.6643 186.49 37.891 187.241 38.1683 188.152C38.4457 189.064 38.7817 190.341 39.1383 191.756C39.4949 193.172 39.8673 194.768 40.2763 196.557C42.2918 205.873 43.8065 215.29 44.8138 224.768C46.0326 235.863 46.5794 245.971 46.6301 253.289C46.6745 256.934 46.6301 259.906 46.4986 261.949C46.44 262.9 46.3972 263.692 46.3528 264.298C46.3566 264.579 46.3274 264.861 46.2656 265.136L46.264 265.137Z" fill="#E0E0E0"/>
<path d="M46.2164 245.651C46.1512 244.835 46.1512 244.015 46.2164 243.199C46.3115 241.614 46.5334 239.332 46.9454 236.543C47.4909 233.269 48.2217 230.029 49.1342 226.838C50.1934 222.915 51.5498 219.079 53.1916 215.362C56.0067 208.507 60.0435 202.22 65.1053 196.807C65.9858 195.881 66.9238 195.011 67.9138 194.203C68.3449 193.839 68.7237 193.474 69.1104 193.189L70.1976 192.46C70.8514 191.968 71.54 191.524 72.258 191.132C69.8803 193.014 67.6167 195.036 65.4794 197.188C60.5839 202.638 56.6574 208.886 53.8699 215.661C52.2581 219.359 50.8931 223.159 49.784 227.036C48.7189 230.604 48.0184 233.88 47.478 236.646C46.9375 239.411 46.6855 241.673 46.5001 243.212C46.4698 244.031 46.3749 244.847 46.2164 245.651Z" fill="#E0E0E0"/>
<path d="M65.0519 280.029L63.0961 306.776H28.7321L26.7764 280.029H65.0519Z" fill="#E0E0E0"/>
<path d="M68.3669 269.486H22.6787V280.029H68.3669V269.486Z" fill="#E0E0E0"/>
<path d="M68.3636 305.755V308.681H23.4346V305.755H68.3636Z" fill="#EBEBEB"/>
<path d="M64.1169 313.824L66.2184 308.681H25.0679L27.5197 313.824H64.1169Z" fill="#E0E0E0"/>
<path d="M27.4204 288.77C27.4682 288.856 27.5211 288.938 27.5789 289.017L28.0972 289.696L30.0957 292.257L30.1829 292.374L30.2701 292.257L35.1833 285.442H34.9059L39.7431 292.3L39.9016 292.511L40.0696 292.314L45.8196 285.478H45.4836C45.585 285.602 45.6944 285.733 45.8006 285.873L50.9072 292.308L51.0815 292.526L51.24 292.3L56.0851 285.448H55.8077L61.7765 292.247L61.8779 292.371L61.9587 292.233L63.8258 289.097L64.3012 288.258C64.3575 288.165 64.4063 288.068 64.447 287.967C64.368 288.043 64.3016 288.132 64.2505 288.23C64.1047 288.442 63.9335 288.705 63.718 289.032L61.7559 292.111H61.9461L56.1088 285.231L55.963 285.055L55.8251 285.245L50.9373 292.06H51.2654L46.1493 285.629L45.8323 285.228L45.6738 285.023L45.5058 285.228L39.7779 292.072H40.0949L35.1991 285.256L35.0613 285.052L34.9234 285.256L30.1132 292.127H30.2875L28.2002 289.632L27.6455 288.99C27.5772 288.91 27.5019 288.837 27.4204 288.77Z" fill="#F5F5F5"/>
<path d="M26.3047 279.853C26.3047 279.97 34.9139 280.064 45.5296 280.064C56.1453 280.064 64.7625 279.969 64.7625 279.853C64.7625 279.737 56.1533 279.634 45.5296 279.634C34.906 279.634 26.3047 279.729 26.3047 279.853Z" fill="#F5F5F5"/>
<path d="M24.5659 308.965C24.5659 309.082 33.9169 309.177 45.4614 309.177C57.0058 309.177 66.3647 309.082 66.3647 308.965C66.3647 308.848 57.0138 308.752 45.4614 308.752C33.909 308.752 24.5659 308.849 24.5659 308.965Z" fill="#F5F5F5"/>
<path d="M228.052 178.031C240.911 178.031 251.335 167.607 251.335 154.749C251.335 141.89 240.911 131.466 228.052 131.466C215.194 131.466 204.77 141.89 204.77 154.749C204.77 167.607 215.194 178.031 228.052 178.031Z" fill="#EBEBEB"/>
<path d="M249.525 150.764C249.919 150.764 250.357 151.347 250.677 152.552C251.067 154.258 251.131 156.023 250.867 157.754C250.506 160.362 249.652 162.877 248.35 165.166C246.753 168.043 244.527 170.521 241.837 172.417C239.148 174.312 236.064 175.574 232.818 176.11C230.224 176.565 227.566 176.52 224.989 175.978C223.268 175.651 221.627 174.997 220.152 174.053C219.131 173.324 218.692 172.733 218.853 172.36C219.189 171.558 221.67 172.01 225.369 171.813C230.052 171.757 234.607 170.284 238.436 167.589C242.265 164.893 245.188 161.1 246.819 156.711C248.241 153.3 248.656 150.815 249.525 150.764Z" fill="#E0E0E0"/>
<path d="M229.119 160.395C231.538 160.248 233.821 159.223 235.54 157.514C236.584 156.471 237.185 155.064 237.218 153.588C237.179 152.899 236.909 152.244 236.453 151.727C235.996 151.209 235.38 150.86 234.701 150.735C233.715 150.715 232.751 151.029 231.966 151.626C231.187 152.22 230.311 152.675 229.376 152.968C227.976 153.132 226.56 152.862 225.318 152.195C224.079 151.526 222.674 151.224 221.269 151.326C220.804 151.364 220.357 151.524 219.973 151.789C219.588 152.054 219.281 152.415 219.08 152.837C218.891 153.441 218.859 154.084 218.987 154.704C219.114 155.324 219.397 155.902 219.809 156.382C220.889 157.791 222.311 158.9 223.941 159.602C225.571 160.305 227.354 160.578 229.119 160.395Z" fill="white"/>
<path d="M218.537 147.117C218.338 146.74 218.029 146.432 217.651 146.234C217.273 146.036 216.844 145.957 216.421 146.008C216.161 146.022 215.909 146.105 215.692 146.249C215.365 146.502 215.113 146.84 214.962 147.225C214.812 147.61 214.769 148.029 214.837 148.437C214.904 148.709 215.026 148.963 215.195 149.185C215.364 149.408 215.577 149.593 215.82 149.73C216.064 149.866 216.333 149.952 216.61 149.981C216.888 150.009 217.169 149.981 217.435 149.897C217.692 149.79 217.926 149.632 218.121 149.434C218.317 149.235 218.471 148.999 218.574 148.74C218.678 148.482 218.728 148.205 218.723 147.926C218.718 147.647 218.657 147.372 218.544 147.117H218.537Z" fill="white"/>
<path d="M240.687 147.22C240.488 146.843 240.18 146.535 239.802 146.337C239.424 146.139 238.995 146.06 238.572 146.111C238.31 146.119 238.057 146.203 237.842 146.352C237.516 146.605 237.264 146.943 237.113 147.328C236.963 147.714 236.92 148.132 236.988 148.54C237.055 148.812 237.177 149.066 237.346 149.288C237.515 149.511 237.728 149.696 237.971 149.833C238.214 149.969 238.483 150.055 238.761 150.084C239.039 150.112 239.32 150.084 239.586 150C239.843 149.892 240.075 149.734 240.27 149.535C240.465 149.336 240.619 149.101 240.722 148.842C240.825 148.584 240.876 148.307 240.872 148.029C240.867 147.75 240.807 147.475 240.695 147.22H240.687Z" fill="white"/>
<path d="M231.836 44.8132C241.442 44.8132 249.23 37.0254 249.23 27.4188C249.23 17.8121 241.442 10.0244 231.836 10.0244C222.229 10.0244 214.441 17.8121 214.441 27.4188C214.441 37.0254 222.229 44.8132 231.836 44.8132Z" fill="#EBEBEB"/>
<path d="M247.876 24.4482C248.175 24.4482 248.495 24.8857 248.736 25.7907C249.027 27.0566 249.074 28.3664 248.874 29.6499C248.607 31.5983 247.971 33.4778 246.999 35.1876C245.807 37.3384 244.143 39.1914 242.133 40.6077C240.123 42.024 237.818 42.9669 235.391 43.3657C233.457 43.7039 231.476 43.6716 229.554 43.2706C228.269 43.0174 227.043 42.522 225.942 41.8109C225.177 41.2863 224.855 40.8267 224.972 40.543C225.227 39.9455 227.08 40.2799 229.839 40.1341C233.327 40.0898 236.719 38.9954 239.575 36.9937C242.43 34.992 244.616 32.1758 245.847 28.9129C246.92 26.3454 247.226 24.4847 247.876 24.4482Z" fill="#E0E0E0"/>
<path d="M231.035 24.4405C229.235 24.5533 227.537 25.3152 226.257 26.5849C225.48 27.3611 225.031 28.4053 225.001 29.5027C225.03 30.0185 225.232 30.5096 225.573 30.8973C225.915 31.285 226.376 31.5468 226.884 31.6408C227.62 31.6513 228.338 31.4178 228.927 30.9767C229.508 30.531 230.163 30.1904 230.861 29.9703C231.905 29.8429 232.964 30.0446 233.888 30.5472C234.813 31.0519 235.865 31.2776 236.915 31.197C237.267 31.1733 237.606 31.0559 237.898 30.8569C238.189 30.6579 238.422 30.3846 238.571 30.0654C238.714 29.6154 238.74 29.1369 238.648 28.674C238.557 28.2111 238.35 27.7788 238.047 27.417C237.233 26.3597 236.16 25.5302 234.932 25.0088C233.703 24.4874 232.361 24.2916 231.035 24.4405Z" fill="white"/>
<path d="M224.725 21.7416C224.578 21.4567 224.347 21.2232 224.064 21.0721C223.781 20.921 223.459 20.8593 223.14 20.8952C222.95 20.9092 222.767 20.972 222.608 21.0775C222.365 21.2677 222.178 21.5198 222.066 21.8074C221.955 22.095 221.923 22.4073 221.974 22.7115C222.023 22.9147 222.113 23.1056 222.24 23.2724C222.366 23.4391 222.525 23.5782 222.707 23.6809C222.889 23.7836 223.09 23.8478 223.298 23.8694C223.506 23.8911 223.716 23.8697 223.915 23.8067C224.104 23.725 224.275 23.6069 224.418 23.459C224.561 23.3111 224.673 23.1364 224.749 22.9449C224.824 22.7534 224.861 22.549 224.857 22.3433C224.853 22.1376 224.808 21.9347 224.725 21.7463V21.7416Z" fill="white"/>
<path d="M241.275 21.8001C241.129 21.5167 240.9 21.2849 240.618 21.136C240.337 20.9872 240.016 20.9286 239.7 20.968C239.506 20.975 239.318 21.0384 239.159 21.1503C238.914 21.3374 238.725 21.5879 238.612 21.8748C238.499 22.1616 238.466 22.474 238.517 22.778C238.566 22.9817 238.656 23.1732 238.781 23.3409C238.907 23.5085 239.065 23.6486 239.247 23.7525C239.429 23.8565 239.63 23.9221 239.838 23.9453C240.046 23.9685 240.257 23.9488 240.457 23.8874C240.648 23.8058 240.822 23.6869 240.966 23.5378C241.111 23.3887 241.225 23.2123 241.301 23.0188C241.377 22.8253 241.414 22.6186 241.41 22.4108C241.405 22.2029 241.359 21.9981 241.275 21.808V21.8001Z" fill="white"/>
<path d="M18.8332 156.785C27.3921 156.785 34.3304 149.847 34.3304 141.288C34.3304 132.729 27.3921 125.791 18.8332 125.791C10.2743 125.791 3.33594 132.729 3.33594 141.288C3.33594 149.847 10.2743 156.785 18.8332 156.785Z" fill="#EBEBEB"/>
<path d="M33.1247 138.638C33.3878 138.638 33.6795 139.032 33.8538 139.826C34.1149 140.963 34.1569 142.14 33.9774 143.293C33.7397 145.028 33.1728 146.702 32.3069 148.225C31.245 150.143 29.7625 151.795 27.9705 153.058C26.1786 154.32 24.1239 155.161 21.9606 155.515C20.2343 155.817 18.4663 155.788 16.751 155.428C15.6075 155.206 14.5161 154.771 13.5337 154.144C12.8553 153.669 12.5637 153.262 12.6652 153.021C12.8918 152.488 14.548 152.788 17.0427 152.656C20.1592 152.616 23.1907 151.635 25.739 149.84C28.2873 148.046 30.2332 145.522 31.3211 142.602C32.2641 140.322 32.5494 138.669 33.1247 138.638Z" fill="#E0E0E0"/>
<path d="M19.54 145.044C21.1524 144.946 22.6738 144.264 23.8193 143.125C24.5036 142.439 24.9004 141.518 24.9287 140.549C24.9028 140.09 24.7232 139.653 24.4188 139.308C24.1144 138.963 23.7028 138.73 23.2503 138.647C22.5957 138.635 21.9559 138.843 21.434 139.239C20.9157 139.634 20.3335 139.937 19.7128 140.136C18.7791 140.244 17.8348 140.062 17.0089 139.613C16.1859 139.163 15.2497 138.962 14.3146 139.036C14.0043 139.061 13.7061 139.167 13.4499 139.343C13.1937 139.52 12.9885 139.761 12.8549 140.042C12.7268 140.442 12.7024 140.869 12.7842 141.281C12.866 141.693 13.0512 142.078 13.3224 142.399C14.0455 143.335 14.997 144.069 16.0854 144.531C17.1739 144.994 18.3629 145.169 19.5384 145.039L19.54 145.044Z" fill="white"/>
<path d="M12.4832 136.223C12.3496 135.973 12.1437 135.77 11.8925 135.64C11.6413 135.51 11.3566 135.459 11.0758 135.494C10.906 135.503 10.7418 135.558 10.6003 135.652C10.3825 135.821 10.2151 136.046 10.1162 136.304C10.0173 136.561 9.99068 136.84 10.0393 137.112C10.0817 137.292 10.1612 137.463 10.2727 137.611C10.3842 137.759 10.5253 137.883 10.6871 137.974C10.8488 138.065 11.0278 138.122 11.2125 138.141C11.3973 138.159 11.5839 138.139 11.7605 138.082C11.9323 138.01 12.0879 137.904 12.218 137.77C12.3482 137.637 12.4503 137.479 12.5183 137.305C12.5862 137.132 12.6187 136.947 12.6138 136.76C12.6089 136.574 12.5666 136.391 12.4895 136.221L12.4832 136.223Z" fill="white"/>
<path d="M27.2452 136.275C27.1132 136.024 26.9075 135.82 26.6559 135.69C26.4042 135.559 26.1187 135.509 25.8378 135.546C25.6679 135.555 25.5037 135.61 25.3623 135.704C25.1438 135.873 24.9758 136.098 24.8769 136.356C24.7779 136.613 24.7517 136.893 24.8012 137.164C24.8447 137.345 24.9247 137.514 25.0363 137.662C25.1479 137.811 25.2887 137.934 25.45 138.026C25.6113 138.118 25.7897 138.175 25.9742 138.195C26.1586 138.215 26.3452 138.197 26.5224 138.142C26.6943 138.069 26.8499 137.962 26.98 137.829C27.1101 137.695 27.2121 137.536 27.28 137.362C27.3479 137.188 27.3804 137.002 27.3755 136.816C27.3706 136.629 27.3284 136.445 27.2515 136.275H27.2452Z" fill="white"/>
<path d="M270.449 263.928L244.468 264.058L244.606 291.615L270.587 291.485L270.449 263.928Z" fill="#EBEBEB"/>
<path d="M296.306 263.789L270.325 263.918L270.462 291.475L296.444 291.345L296.306 263.789Z" fill="#F5F5F5"/>
<path d="M244.498 271.689C261.765 271.826 279.032 271.745 296.301 271.448C296.374 271.448 296.445 271.419 296.497 271.367C296.549 271.315 296.578 271.245 296.578 271.171C296.578 271.097 296.549 271.027 296.497 270.975C296.445 270.923 296.374 270.894 296.301 270.894C279.038 270.798 261.732 270.894 244.498 271.211C244.441 271.22 244.39 271.249 244.353 271.292C244.316 271.336 244.296 271.391 244.296 271.448C244.296 271.505 244.316 271.561 244.353 271.604C244.39 271.648 244.441 271.677 244.498 271.686V271.689Z" fill="#E0E0E0"/>
<path d="M275.464 291.044L228.266 291.28L228.378 313.737L275.576 313.501L275.464 291.044Z" fill="#EBEBEB"/>
<path d="M322.442 290.783L275.243 291.019L275.355 313.476L322.554 313.24L322.442 290.783Z" fill="#F5F5F5"/>
<path d="M228.286 297.531C259.66 297.89 291.106 297.531 322.457 297.072C322.53 297.072 322.601 297.043 322.653 296.991C322.705 296.939 322.734 296.868 322.734 296.794C322.734 296.721 322.705 296.65 322.653 296.598C322.601 296.546 322.53 296.517 322.457 296.517C291.084 296.349 259.637 296.371 228.286 297.057C228.23 297.067 228.179 297.096 228.142 297.139C228.105 297.183 228.084 297.238 228.084 297.295C228.084 297.352 228.105 297.408 228.142 297.451C228.179 297.495 228.23 297.524 228.286 297.533V297.531Z" fill="#E0E0E0"/>
<path d="M225.286 168.647L188.229 156.76L143.877 156.602C143.877 156.602 109.651 167.276 105.492 169.479L103.581 261.73L102.121 314.327L223.002 313.685V249.991L225.286 168.647Z" fill="#90CAF9"/>
<path d="M105.494 169.465C96.1973 177.795 89.0021 188.206 84.4956 199.848C79.5633 212.879 68.3564 241.792 68.3564 241.792L103.472 254.24L111.41 198.191L105.494 169.465Z" fill="#90CAF9"/>
<path d="M220.989 167.262C220.989 167.262 230.13 168.043 239.098 182.409C245.417 192.552 260.811 236.917 260.811 236.917L220.282 251.078L210.498 243.542L220.989 167.262Z" fill="#90CAF9"/>
<path d="M103.58 192.279C103.69 192.279 103.77 207.827 103.77 226.989C103.77 246.15 103.69 261.711 103.58 261.711C103.471 261.711 103.39 246.171 103.39 226.989C103.39 207.807 103.477 192.279 103.58 192.279Z" fill="#263238"/>
<path d="M101.846 195.606C101.211 195.49 100.599 195.276 100.029 194.972C97.208 193.636 94.8391 191.503 93.2143 188.837C92.8495 188.308 92.5713 187.724 92.3901 187.108C94.5408 190.899 97.8711 193.884 101.874 195.608L101.846 195.606Z" fill="white"/>
<path d="M221.311 198.686C221.228 198.746 221.137 198.795 221.042 198.831L220.232 199.24L217.095 200.751L214.819 201.846C213.981 202.218 213.046 202.575 212.047 202.978C210.049 203.77 207.808 204.772 205.218 205.561L201.183 206.903C199.775 207.355 198.265 207.696 196.745 208.129L194.403 208.748C194.002 208.85 193.61 208.975 193.198 209.065L191.957 209.32L186.851 210.371C171.525 213.158 155.822 213.154 140.498 210.357L135.392 209.314L134.151 209.059C133.75 208.964 133.349 208.846 132.946 208.742L130.604 208.108C129.071 207.677 127.569 207.334 126.166 206.883L122.139 205.54C119.541 204.748 117.302 203.738 115.303 202.957C114.311 202.548 113.369 202.191 112.531 201.819L110.261 200.732L107.111 199.218L106.301 198.817C106.205 198.775 106.115 198.722 106.031 198.659L106.317 198.776L107.141 199.148L110.311 200.608L112.594 201.665C113.441 202.03 114.374 202.394 115.374 202.775C117.381 203.54 119.62 204.518 122.21 205.299L126.245 206.613C127.646 207.065 129.163 207.406 130.683 207.818L133.025 208.438C133.426 208.533 133.818 208.65 134.23 208.743L135.463 208.992L140.57 210.021C155.85 212.735 171.491 212.726 186.768 209.992L191.875 208.964L193.108 208.715C193.517 208.628 193.918 208.51 194.312 208.409L196.655 207.796C198.187 207.372 199.69 207.067 201.092 206.591L205.128 205.277C207.717 204.504 209.957 203.52 211.963 202.753C212.963 202.358 213.905 202.023 214.743 201.643L217.027 200.584L220.197 199.125L221.029 198.76L221.311 198.686Z" fill="white"/>
<path d="M239.034 185.91C238.892 186.09 238.738 186.26 238.574 186.42C238.257 186.737 237.782 187.149 237.181 187.688C235.611 189.035 233.956 190.28 232.227 191.416C230.496 192.554 228.697 193.582 226.838 194.495C226.109 194.837 225.532 195.101 225.123 195.269C224.916 195.375 224.695 195.451 224.467 195.495C225.19 195.036 225.94 194.621 226.714 194.254C228.101 193.525 229.998 192.424 232.011 191.102C234.024 189.78 235.769 188.461 237.008 187.457C237.651 186.905 238.326 186.391 239.029 185.918L239.034 185.91Z" fill="white"/>
<path d="M102.997 203.844C102.766 203.842 102.537 203.803 102.319 203.727C101.712 203.579 101.115 203.393 100.531 203.173C96.6317 201.737 93.2228 199.219 90.7047 195.914C90.3227 195.42 89.9718 194.904 89.6539 194.367C89.521 194.178 89.4144 193.971 89.3369 193.753C89.3956 193.753 89.9201 194.546 90.9123 195.752C93.5093 198.906 96.845 201.369 100.623 202.924C102.07 203.523 103.011 203.786 102.997 203.844Z" fill="white"/>
<path d="M219.226 211.358L218.957 211.496L218.147 211.883L215.025 213.343L212.763 214.379C211.925 214.737 210.997 215.066 210.005 215.444C208.013 216.173 205.788 217.129 203.212 217.852L199.199 219.085C197.806 219.5 196.282 219.814 194.822 220.194L192.487 220.755C192.093 220.843 191.695 220.952 191.299 221.033L190.066 221.244L184.959 222.149C169.765 224.475 154.27 223.943 139.271 220.579L134.251 219.338L133.047 219.039C132.646 218.937 132.254 218.798 131.872 218.681L129.582 217.952C128.086 217.476 126.62 217.069 125.256 216.559L121.338 215.062C118.813 214.172 116.654 213.07 114.721 212.21C113.757 211.764 112.846 211.371 112.036 210.962L109.847 209.78L106.826 208.138L106.045 207.7L105.782 207.542C105.879 207.572 105.972 207.614 106.059 207.666L106.861 208.067L109.91 209.651L112.099 210.804C112.917 211.198 113.828 211.585 114.794 212.023C116.735 212.861 118.902 213.942 121.418 214.817L125.336 216.276C126.701 216.78 128.167 217.173 129.663 217.647L131.947 218.376C132.334 218.494 132.72 218.625 133.121 218.735L134.326 219.026L139.331 220.245C154.302 223.563 169.757 224.082 184.916 221.778L190.023 220.895L191.242 220.684C191.651 220.611 192.044 220.502 192.438 220.415L194.766 219.868C196.285 219.489 197.778 219.196 199.144 218.789L203.157 217.578C205.732 216.849 207.958 215.95 209.956 215.235C210.94 214.863 211.882 214.506 212.722 214.199L214.991 213.199L218.144 211.82L218.962 211.477C219.045 211.429 219.134 211.389 219.226 211.358Z" fill="white"/>
<path d="M243.163 190.777C242.982 191.029 242.769 191.257 242.529 191.455C242.106 191.878 241.479 192.47 240.691 193.184C239.106 194.644 236.86 196.525 234.278 198.503C231.696 200.481 229.259 202.149 227.463 203.296C226.566 203.873 225.835 204.325 225.319 204.624C225.062 204.796 224.788 204.941 224.501 205.055C224.723 204.844 224.968 204.658 225.23 204.501L227.309 203.041C229.053 201.836 231.46 200.123 234.036 198.167C236.611 196.211 238.881 194.33 240.501 192.951L242.426 191.317C242.656 191.116 242.903 190.936 243.163 190.777Z" fill="white"/>
<path d="M157.243 271.609C157.068 271.648 156.89 271.668 156.711 271.667L155.172 271.763C154.508 271.813 153.712 271.843 152.742 271.858C151.772 271.872 150.721 271.908 149.525 271.902C147.139 271.902 144.294 271.815 141.142 271.647C137.99 271.479 134.539 271.143 130.927 270.705C127.315 270.268 123.887 269.691 120.784 269.12C117.681 268.55 114.904 267.924 112.59 267.318C111.43 267.041 110.401 266.749 109.482 266.494C108.563 266.239 107.781 266.019 107.147 265.816L105.688 265.34C105.516 265.289 105.348 265.229 105.184 265.158C105.362 265.174 105.538 265.21 105.708 265.268L107.168 265.669C107.802 265.851 108.628 266.063 109.51 266.288C110.393 266.513 111.473 266.799 112.633 267.062C114.945 267.623 117.739 268.185 120.819 268.777C123.898 269.368 127.341 269.872 130.953 270.331C134.565 270.791 138.009 271.06 141.167 271.301C144.326 271.542 147.15 271.618 149.529 271.637H156.709C156.886 271.612 157.065 271.603 157.243 271.609Z" fill="white"/>
<path d="M148.005 279.819C147.854 279.852 147.699 279.867 147.545 279.863L146.239 279.907H144.174C143.372 279.907 142.445 279.907 141.43 279.849C139.395 279.79 136.98 279.602 134.298 279.353C131.617 279.104 128.688 278.703 125.622 278.229C119.486 277.265 113.984 276.113 110.016 275.238C108.032 274.801 106.434 274.428 105.325 274.165L104.057 273.848C103.906 273.821 103.759 273.775 103.619 273.71C103.774 273.721 103.927 273.743 104.079 273.775L105.363 274.023L110.076 274.974C114.053 275.784 119.56 276.885 125.683 277.855C128.74 278.323 131.666 278.709 134.336 279.001C137.007 279.293 139.443 279.476 141.435 279.578C142.449 279.643 143.369 279.665 144.171 279.695C144.973 279.725 145.673 279.746 146.242 279.746H147.548C147.704 279.753 147.858 279.777 148.008 279.819H148.005Z" fill="white"/>
<path d="M222.981 263.621L222.823 263.671L222.348 263.789L220.509 264.22C218.911 264.592 216.591 265.08 213.716 265.635C207.974 266.744 199.978 268.05 191.098 268.963C182.218 269.876 174.112 270.247 168.255 270.328C165.337 270.372 162.958 270.372 161.324 270.328L159.441 270.284H161.324C162.958 270.284 165.329 270.233 168.255 270.16C174.092 270.001 182.175 269.599 191.055 268.7C199.935 267.802 207.923 266.512 213.673 265.475C216.548 264.95 218.875 264.505 220.488 264.177L222.335 263.819L222.823 263.738C222.864 263.685 222.919 263.645 222.981 263.621Z" fill="white"/>
<path d="M222.976 273.718C222.918 273.747 222.857 273.766 222.794 273.777L222.253 273.886L220.166 274.287C218.356 274.623 215.728 275.089 212.476 275.607C209.224 276.126 205.344 276.701 201.028 277.272C196.712 277.842 191.945 278.33 186.932 278.731C181.919 279.132 177.126 279.286 172.763 279.323C168.4 279.359 164.482 279.205 161.193 278.907C160.369 278.834 159.588 278.784 158.851 278.711L156.763 278.462L154.953 278.243C154.399 278.162 153.895 278.069 153.443 277.994L151.349 277.63L150.809 277.52C150.746 277.515 150.685 277.5 150.626 277.476C150.689 277.465 150.754 277.465 150.817 277.476L151.363 277.541L153.465 277.841C153.917 277.899 154.416 277.986 154.975 278.053L156.792 278.243L158.871 278.462C159.6 278.527 160.39 278.571 161.214 278.63C164.49 278.893 168.408 278.966 172.757 278.966C177.106 278.966 181.884 278.711 186.897 278.346C191.91 277.982 196.659 277.449 200.979 276.931C205.299 276.413 209.179 275.852 212.433 275.356C215.687 274.859 218.313 274.444 220.137 274.151L222.231 273.823L222.778 273.742L222.976 273.718Z" fill="white"/>
<path d="M200.42 235.18C200.367 235.236 200.311 235.289 200.252 235.338L199.72 235.798L197.659 237.505L190.079 243.787C183.687 249.098 174.903 256.49 165.322 264.792C155.742 273.094 147.177 280.749 141.012 286.323L133.721 292.934L131.737 294.728L131.212 295.188C131.154 295.24 131.093 295.288 131.03 295.333C131.077 295.27 131.13 295.212 131.188 295.159L131.684 294.671L133.626 292.824C135.311 291.227 137.77 288.935 140.834 286.127C146.955 280.502 155.491 272.813 165.072 264.5C174.653 256.188 183.481 248.835 189.915 243.58C193.133 240.946 195.753 238.838 197.577 237.399L199.679 235.734L200.225 235.311C200.284 235.259 200.351 235.214 200.422 235.18H200.42Z" fill="#263238"/>
<g opacity="0.3">
<path d="M164.35 265.613L139.229 287.764C160.862 277.966 179.358 263.052 191.352 242.572L164.35 265.613Z" fill="black"/>
</g>
<g opacity="0.3">
<path d="M222.981 249.991C228.409 238.98 228.528 217.399 223.046 205.485C223.374 218.866 223.345 236.631 222.981 249.991Z" fill="black"/>
</g>
<path d="M222.982 194.812C223.084 194.812 223.172 221.421 223.172 254.246C223.172 287.071 223.085 313.68 222.982 313.68C222.879 313.68 222.786 287.071 222.786 254.246C222.786 221.421 222.881 194.812 222.982 194.812Z" fill="#263238"/>
<path d="M214.059 102.735C215.853 98.7954 217.704 94.7095 217.94 90.3827C218.176 86.0559 216.525 81.2917 212.834 79.2265C209.404 77.3246 205.121 78.0886 201.467 76.6907C196.965 74.9695 194.176 70.3288 192.274 65.7833C190.372 61.2378 193.201 59.6624 189.873 56.0869C185.459 51.3511 182.533 50.6221 176.74 53.3212C172.691 50.3099 158.5 44.704 154.393 44.4853C148.279 44.1572 141.297 44.4853 136.926 48.782C133.533 52.1103 131.33 56.3896 127.207 58.7479C121.538 61.9954 114.461 58.9666 107.932 59.0649C106.597 59.0649 105.014 59.3819 104.459 60.5896C104.3 61.1428 104.258 61.7231 104.336 62.2934C104.414 62.8637 104.61 63.4115 104.911 63.902C106.516 67.448 108.119 70.9961 109.719 74.5463C108.324 75.145 106.811 75.4193 105.295 75.3485C103.778 75.2776 102.298 74.8635 100.964 74.1374C101.128 81.0895 103.725 87.764 108.304 92.9978C107.994 92.837 107.654 92.7417 107.306 92.7178C106.957 92.694 106.608 92.742 106.279 92.859C105.949 92.976 105.648 93.1594 105.393 93.3978C105.138 93.6363 104.934 93.9247 104.795 94.2451C104.316 95.5928 104.303 97.0624 104.759 98.4182C105.806 102.664 107.752 106.636 110.465 110.065C113.178 113.495 116.595 116.302 120.486 118.298C124.377 120.294 128.651 121.432 133.019 121.635C137.387 121.838 141.748 121.102 145.808 119.475L181.749 122.999C182.213 124.397 183.007 125.663 184.064 126.69C185.12 127.717 186.408 128.475 187.819 128.901C191.919 125.983 192.605 124.347 192.605 124.347C195.043 126.249 193.116 125.274 195.043 126.249C199.457 128.438 206.118 126.091 207.234 121.143C207.529 119.125 208.403 117.237 209.751 115.706C211.363 114.497 213.159 113.556 215.07 112.919C217.972 111.519 220.34 109.215 221.818 106.352C220.344 106.317 218.894 105.977 217.557 105.355C216.221 104.732 215.028 103.84 214.052 102.734L214.059 102.735Z" fill="#263238"/>
<path d="M159.265 50.3208L157.455 50.408C148.679 50.8494 140.391 54.578 134.238 60.8522C128.086 67.1264 124.521 75.4864 124.252 84.2695C123.741 101.228 123.397 119.97 123.966 129.024C125.141 147.767 144.038 149.737 144.038 149.737C144.038 149.934 143.979 152.749 143.879 156.589C143.797 159.529 144.306 162.455 145.374 165.194C146.442 167.934 148.049 170.432 150.099 172.541C152.149 174.649 154.601 176.325 157.31 177.47C160.018 178.615 162.929 179.205 165.87 179.206C171.647 179.206 177.192 176.935 181.308 172.881C185.424 168.828 187.78 163.318 187.868 157.541L188.941 86.7721C189.632 67.1747 178.834 50.4745 159.265 50.3208Z" fill="#FFBE9D"/>
<path d="M144.038 149.737C152.704 149.275 161.058 146.344 168.112 141.288C168.112 141.288 162.844 155.281 144.036 154.538L144.038 149.737Z" fill="#EB996E"/>
<path d="M156.054 92.657C156.419 93.0437 158.615 91.3511 161.76 91.3368C164.904 91.3225 167.202 92.9122 167.538 92.5191C167.706 92.3448 167.334 91.6443 166.327 90.8993C164.974 89.9492 163.355 89.4501 161.701 89.4729C160.063 89.48 158.471 90.0177 157.164 91.0055C156.214 91.7679 155.88 92.4763 156.054 92.657Z" fill="#263238"/>
<path d="M158.857 98.4955C158.885 99.1549 159.168 99.7777 159.648 100.231C160.127 100.685 160.765 100.934 161.425 100.925C161.748 100.936 162.071 100.881 162.373 100.764C162.676 100.648 162.951 100.472 163.184 100.246C163.417 100.021 163.602 99.7511 163.728 99.4527C163.854 99.1544 163.919 98.8337 163.919 98.5097C163.901 97.839 163.617 97.2031 163.13 96.7412C162.644 96.2793 161.994 96.029 161.323 96.0452C160.999 96.0403 160.677 96.1003 160.377 96.2216C160.077 96.3429 159.803 96.5231 159.574 96.7516C159.344 96.98 159.162 97.2521 159.039 97.5519C158.916 97.8517 158.854 98.1714 158.857 98.4955Z" fill="#263238"/>
<path d="M147.714 114.283C146.172 113.886 144.587 113.682 142.995 113.677C142.266 113.633 141.535 113.519 141.397 113.028C141.331 112.277 141.465 111.522 141.784 110.839C142.382 109.019 143.011 107.118 143.673 105.133C146.293 97.0058 148.153 90.3365 147.824 90.2351C147.494 90.1336 145.103 96.6413 142.483 104.769C141.855 106.776 141.254 108.69 140.681 110.511C140.265 111.427 140.183 112.459 140.448 113.429C140.568 113.683 140.745 113.906 140.965 114.082C141.184 114.258 141.441 114.381 141.716 114.443C142.132 114.533 142.558 114.57 142.983 114.552C144.566 114.64 146.153 114.55 147.714 114.283Z" fill="#263238"/>
<path d="M156.777 80.3436C157.068 81.0727 159.585 80.5766 162.614 80.7953C165.642 81.014 168.071 81.7367 168.451 81.0806C168.609 80.7636 168.159 80.1106 167.153 79.4687C165.823 78.6886 164.329 78.2314 162.791 78.134C161.252 78.0365 159.712 78.3015 158.295 78.9077C157.177 79.418 156.653 79.9933 156.777 80.3436Z" fill="#263238"/>
<path d="M127.762 86.0365C128.079 86.6134 130.542 86.0365 133.504 86.0365C136.466 86.0365 138.918 86.4454 139.246 85.8621C139.392 85.5768 138.91 85.0602 137.889 84.5847C136.506 84.001 135.013 83.7221 133.512 83.7669C132 83.7779 130.509 84.1085 129.134 84.7368C128.106 85.2234 127.63 85.7639 127.762 86.0365Z" fill="#263238"/>
<path d="M188.107 100.692C188.413 100.534 200.794 96.2339 201.035 109.075C201.276 121.916 188.318 119.5 188.318 119.136C188.318 118.771 188.107 100.692 188.107 100.692Z" fill="#FFBE9D"/>
<path d="M192.132 114.197C192.182 114.153 192.358 114.356 192.737 114.514C193.273 114.73 193.872 114.73 194.408 114.514C195.758 113.99 196.859 111.82 196.882 109.501C196.891 108.401 196.657 107.311 196.195 106.312C196.068 105.913 195.845 105.551 195.547 105.258C195.248 104.964 194.882 104.748 194.48 104.628C194.223 104.562 193.95 104.589 193.711 104.705C193.472 104.821 193.282 105.018 193.174 105.261C193.006 105.626 193.094 105.881 193.016 105.903C192.938 105.926 192.739 105.693 192.834 105.174C192.9 104.855 193.072 104.567 193.322 104.356C193.673 104.086 194.115 103.963 194.555 104.014C195.086 104.106 195.583 104.334 196 104.675C196.416 105.017 196.738 105.46 196.932 105.962C197.501 107.062 197.792 108.284 197.779 109.522C197.742 112.111 196.458 114.555 194.609 115.124C194.266 115.231 193.904 115.26 193.549 115.208C193.194 115.156 192.855 115.025 192.558 114.825C192.16 114.503 192.087 114.218 192.132 114.197Z" fill="#EB996E"/>
<path d="M205.624 80.3071C203.056 75.7252 202.552 70.3111 201.21 65.2331C199.867 60.155 197.168 54.8583 192.258 52.9976L192.141 53.042C187.763 51.1528 182.262 51.0069 178.541 54.0056C177.812 47.322 172.062 41.908 165.591 40.0584C159.119 38.2088 148.664 38.9711 142.353 41.3263C137.487 43.1569 132.729 47.032 126.928 52.7519C124.479 55.1584 122.231 57.7622 120.208 60.537L114.152 77.8791C113.534 78.3145 112.985 78.8408 112.525 79.4402C112.058 80.0845 111.84 80.8761 111.911 81.6687C111.983 82.4612 112.339 83.201 112.914 83.751C113.489 84.3011 114.244 84.6243 115.039 84.6607C115.834 84.6972 116.615 84.4444 117.238 83.9493L117.289 83.9049C117.85 84.9113 118.259 85.9257 118.704 86.94L118.799 87.1302C119.077 87.7641 119.368 88.3981 119.711 89.0131L123.651 108.42C124.045 103.16 124.074 84.8321 124.468 79.5749C128.433 79.549 132.351 78.7213 135.987 77.1415C139.624 75.5618 142.903 73.2626 145.627 70.3825C148.545 67.2602 150.932 63.3201 154.82 61.507C159.833 59.1645 165.705 61.0838 170.871 63.0174L170.653 62.8129C173.355 64.133 175.777 65.9628 177.785 68.2016C176.388 78.5862 177.244 89.1499 180.295 99.1739C180.747 100.684 182.017 103.784 183.476 104.39C186.329 105.564 187.167 102.646 188.941 101.128C190.495 100.107 192.369 99.6915 194.209 99.96C195.744 95.6278 197.021 91.2081 198.032 86.7244C199.76 87.2997 201.599 87.4625 203.402 87.1999L201.841 83.1949C202.513 83.7177 203.289 84.0911 204.117 84.29C204.53 84.3798 204.961 84.3413 205.352 84.1796C205.743 84.0179 206.076 83.7407 206.305 83.385C206.801 82.4167 206.167 81.2708 205.624 80.3071Z" fill="#263238"/>
<path d="M172.601 56.0107C173.262 56.5447 173.877 57.1326 174.44 57.7684C175.879 59.5881 176.821 61.7501 177.175 64.0431C177.459 65.6146 177.584 67.2107 177.548 68.8073C177.511 70.5285 177.335 72.3749 177.161 74.3164C176.938 76.3514 176.842 78.3984 176.876 80.4453C176.914 81.5348 177.031 82.6202 177.226 83.6928C177.365 84.8397 177.797 85.9315 178.481 86.8626C178.799 87.2336 179.207 87.5162 179.666 87.6828C180.125 87.8495 180.619 87.8945 181.101 87.8135C182.018 87.6712 182.862 87.2299 183.502 86.5583C184.55 85.1841 185.21 83.5542 185.413 81.8384L185.019 81.8828C185.556 83.3009 186.293 84.635 187.208 85.8451C188.099 86.9671 189.387 87.7046 190.805 87.9054C191.465 87.9889 192.135 87.8852 192.739 87.6059C193.303 87.3324 193.771 86.8948 194.081 86.3507C194.374 85.8483 194.523 85.2755 194.512 84.6944C194.502 84.1572 194.303 83.6407 193.951 83.2347L193.747 83.4091C194.833 84.7075 196.177 85.7659 197.693 86.5171C198.097 86.7108 198.511 86.8812 198.934 87.0274C199.078 87.0842 199.227 87.1236 199.38 87.1447C199.244 87.0695 199.103 87.0059 198.957 86.9545C198.548 86.7857 198.149 86.5957 197.76 86.3855C196.296 85.6004 195.003 84.5315 193.956 83.2411L193.752 83.4091C194.051 83.8092 194.219 84.2928 194.23 84.7926C194.242 85.2924 194.097 85.7833 193.817 86.1969C193.533 86.6791 193.111 87.0654 192.606 87.3064C192.054 87.5486 191.445 87.6321 190.848 87.5473C189.529 87.347 188.337 86.6467 187.52 85.5915C186.635 84.4035 185.927 83.0934 185.418 81.7021L185.163 81.0967L185.025 81.7465C184.809 83.3773 184.181 84.9262 183.201 86.2476C182.623 86.8686 181.851 87.2749 181.012 87.3999C180.609 87.4674 180.195 87.429 179.812 87.2884C179.428 87.1478 179.087 86.9099 178.823 86.5979C178.193 85.7248 177.797 84.7051 177.671 83.6357C177.476 82.5855 177.359 81.5223 177.321 80.4548C177.282 78.4255 177.368 76.3956 177.576 74.3767C177.735 72.4352 177.904 70.5824 177.918 68.839C177.947 67.2185 177.803 65.5996 177.487 64.0098C177.1 61.6778 176.092 59.493 174.57 57.6844C174.017 57.0154 173.35 56.4489 172.601 56.0107Z" fill="#455A64"/>
<path d="M114.315 72.9089C114.358 72.9591 114.407 73.0034 114.461 73.0405L114.921 73.3907C115.172 73.5871 115.436 73.7651 115.713 73.9233C116.073 74.1547 116.449 74.3617 116.837 74.543C119.329 75.747 122.084 76.304 124.849 76.1627C128.941 75.9885 132.894 74.6302 136.23 72.2528C140.253 69.3151 143.638 65.5921 146.181 61.309C147.597 59.0759 148.757 56.7777 150.026 54.6619C151.187 52.597 152.64 50.7101 154.339 49.0592C155.868 47.5671 157.747 46.4831 159.804 45.9068C160.735 45.6694 161.698 45.5806 162.656 45.6437C163.541 45.7169 164.411 45.9055 165.246 46.2048C167.798 47.1396 169.903 49.0021 171.142 51.4207C171.546 52.3286 171.849 53.2777 172.047 54.2514C172.055 54.1861 172.055 54.1201 172.047 54.0549C172.047 53.8964 172.003 53.7125 171.974 53.478C171.839 52.7438 171.616 52.0285 171.31 51.3478C170.797 50.2824 170.111 49.3089 169.281 48.4665C168.175 47.343 166.838 46.472 165.364 45.9132C164.504 45.5932 163.606 45.3896 162.693 45.3077C161.699 45.2329 160.699 45.3169 159.731 45.5566C157.59 46.1161 155.627 47.2107 154.025 48.7375C152.302 50.4099 150.827 52.3213 149.648 54.413C148.364 56.5511 147.196 58.8413 145.803 61.0522C143.294 65.2956 139.956 68.9905 135.989 71.9168C132.718 74.2701 128.842 75.6374 124.818 75.8569C122.11 76.012 119.405 75.5113 116.932 74.3972C116.03 73.9534 115.155 73.4565 114.312 72.9089H114.315Z" fill="#455A64"/>
<path d="M112.796 64.6719C112.992 64.8624 113.216 65.0227 113.46 65.1473C114.086 65.5502 114.742 65.9037 115.422 66.2045C116.428 66.6646 117.473 67.0359 118.544 67.3139C119.859 67.6496 121.203 67.8619 122.557 67.9479C123.913 68.0095 125.271 67.9459 126.615 67.7577C127.706 67.6053 128.782 67.3614 129.832 67.0286C130.543 66.8035 131.236 66.5232 131.904 66.1902C132.166 66.0924 132.412 65.9544 132.633 65.7813C132.596 65.7084 131.553 66.2187 129.766 66.7322C128.72 67.0282 127.654 67.2475 126.577 67.3884C125.257 67.5427 123.927 67.5915 122.6 67.5342C121.273 67.449 119.955 67.2539 118.66 66.951C117.605 66.6986 116.571 66.3669 115.566 65.9588C113.825 65.1965 112.84 64.5847 112.796 64.6719Z" fill="#455A64"/>
<path d="M127.461 93.1844C127.825 93.5711 130.022 91.8864 133.166 91.8705C136.311 91.8547 138.609 93.4459 138.945 93.0529C139.113 92.8785 138.741 92.178 137.734 91.4331C136.384 90.4713 134.765 89.9604 133.108 89.9734C131.469 89.9805 129.877 90.5182 128.57 91.506C127.607 92.3095 127.278 93.018 127.461 93.1844Z" fill="#263238"/>
<path d="M131.889 98.9632C131.916 99.6227 132.2 100.245 132.679 100.699C133.159 101.153 133.796 101.402 134.456 101.393C134.78 101.404 135.103 101.349 135.405 101.232C135.707 101.116 135.983 100.939 136.216 100.714C136.448 100.489 136.633 100.219 136.76 99.9205C136.886 99.6222 136.951 99.3015 136.951 98.9775C136.925 98.3166 136.643 97.6919 136.163 97.2365C135.683 96.7811 135.045 96.5312 134.383 96.5399C134.059 96.5313 133.737 96.5874 133.435 96.7052C133.134 96.8229 132.858 96.9998 132.626 97.2254C132.394 97.451 132.209 97.7209 132.082 98.0191C131.955 98.3172 131.89 98.6393 131.889 98.9632Z" fill="#263238"/>
<path d="M145.612 120.45C148.097 119.801 150.626 119.332 153.179 119.049L155.046 118.589C155.457 119.441 155.675 120.373 155.685 121.319C155.696 122.265 155.497 123.202 155.104 124.062C154.674 124.671 154.119 125.181 153.476 125.558C152.833 125.936 152.118 126.172 151.376 126.251C150.852 126.348 150.312 126.333 149.793 126.208C149.274 126.082 148.788 125.848 148.365 125.522C148.365 125.522 146.053 124.427 145.607 120.415" fill="#EB996E"/>
<path d="M150.274 126.129C151.26 126.058 152.213 125.75 153.054 125.231C153.926 124.633 154.59 123.779 154.956 122.788C155.414 121.578 155.495 120.258 155.189 119.001L155.138 118.797L155.466 119.008C152.686 119.439 150.176 119.789 148.353 120.014C147.38 120.199 146.39 120.282 145.399 120.263C146.347 119.947 147.325 119.728 148.317 119.607C150.119 119.271 152.621 118.878 155.401 118.418L155.664 118.374L155.729 118.629L155.788 118.855C156.125 120.231 156.02 121.679 155.488 122.992C155.061 124.073 154.293 124.985 153.3 125.59C152.639 125.995 151.885 126.221 151.111 126.246C150.558 126.258 150.266 126.17 150.274 126.129Z" fill="#263238"/>
<path d="M151.035 126.345C150.753 126.372 150.469 126.324 150.211 126.207V126.07C150.211 126.019 150.32 126.011 150.511 125.997C151.402 125.951 152.265 125.663 153.005 125.165C153.86 124.575 154.512 123.737 154.872 122.763C155.316 121.6 155.405 120.332 155.128 119.118C152.566 119.513 150.181 119.847 148.365 120.082C145.338 120.461 145.322 120.367 145.301 120.25C145.28 120.133 145.301 120.045 148.271 119.521C150.154 119.17 152.649 118.747 155.364 118.332L155.706 118.273L155.852 118.835C156.2 120.229 156.095 121.699 155.552 123.03C155.113 124.134 154.32 125.063 153.299 125.67C152.64 126.082 151.886 126.315 151.11 126.349L151.035 126.345ZM150.786 126.155H151.103C151.86 126.127 152.597 125.903 153.241 125.505C154.21 124.905 154.962 124.01 155.386 122.952C155.911 121.658 156.013 120.23 155.677 118.874L155.576 118.473H155.394C152.699 118.896 150.184 119.319 148.309 119.662C146.975 119.911 146.258 120.063 145.887 120.158C146.274 120.158 146.997 120.063 148.346 119.895C150.156 119.668 152.533 119.334 155.088 118.944L154.993 118.565L155.722 119.033H155.313C155.586 120.266 155.492 121.551 155.044 122.732C154.67 123.738 153.995 124.604 153.11 125.212C152.428 125.718 151.629 126.043 150.788 126.155H150.786Z" fill="#263238"/>
<path d="M67.0149 128.688C67.0149 128.688 44.7612 136.714 33.8617 133.556C22.9623 130.397 15.3072 125.961 9.85038 113.083C7.72574 107.732 6.78159 101.986 7.08248 96.2362C7.38337 90.4867 8.92221 84.87 11.5938 79.77C16.2265 71.015 24.5013 66.0463 33.204 61.2821C44.0242 55.3656 58.7401 50.4904 71.0199 50.0166C83.2998 49.5427 91.2449 53.1689 100.35 61.4786C109.456 69.7883 114.297 83.0603 111.09 94.9598C107.69 107.574 96.3373 116.534 84.4441 121.956C84.4441 121.956 81.0873 133.63 90.5286 140.123C85.8969 141.076 81.0801 140.471 76.8276 138.403C72.5751 136.335 69.1253 132.92 67.0149 128.688Z" fill="#FAFAFA"/>
<path d="M67.0136 128.691L67.2688 129.086L67.9978 130.291L68.5526 131.188C68.7713 131.505 69.0486 131.83 69.3339 132.188L70.2532 133.356C70.6225 133.783 71.0173 134.187 71.4355 134.567C73.5364 136.653 76.0834 138.235 78.8846 139.193C80.6319 139.817 82.4549 140.205 84.305 140.345C86.3898 140.531 88.4904 140.418 90.5432 140.009V140.199C87.8353 138.377 85.792 135.724 84.7202 132.641C84.1469 130.967 83.8321 129.215 83.7867 127.446C83.7193 125.58 83.9081 123.713 84.3478 121.899V121.84H84.4064C87.9087 120.244 91.2696 118.355 94.4531 116.193C97.9113 113.869 101.054 111.108 103.804 107.978C104.177 107.584 104.497 107.154 104.841 106.723C105.185 106.292 105.527 105.885 105.841 105.431C106.454 104.526 107.109 103.637 107.643 102.659C108.22 101.698 108.745 100.706 109.218 99.6892C109.467 99.1788 109.649 98.6463 109.868 98.1201L110.185 97.3277C110.286 97.0582 110.359 96.7809 110.448 96.5099C111.19 94.3049 111.651 92.0151 111.819 89.6947C112.012 87.3144 111.914 84.9193 111.527 82.5627C110.751 77.656 108.956 72.9662 106.259 68.7946C104.868 66.65 103.262 64.6528 101.466 62.8337C99.6115 61.0001 97.6349 59.2941 95.5499 57.7271C91.3341 54.4024 86.412 52.0888 81.1621 50.9643C75.7243 49.9925 70.161 49.9507 64.7092 50.8407C59.2082 51.6659 53.7961 53.0019 48.5431 54.8315C43.4271 56.5721 38.4616 58.7268 33.6957 61.2742C29.0488 63.6423 24.6304 66.434 20.4965 69.614C16.545 72.6801 13.3519 76.6145 11.1646 81.1125C10.1278 83.2819 9.28302 85.5379 8.63985 87.8547C8.03545 90.106 7.61146 92.4018 7.37192 94.7205C7.14794 96.9856 7.1209 99.2659 7.29109 101.536C7.34973 102.645 7.51773 103.724 7.66354 104.84C7.80705 105.923 8.03168 106.994 8.33554 108.043C10.6115 116.353 15.0777 123.672 21.1987 127.837C24.1129 129.795 27.2858 131.337 30.6257 132.419C31.4071 132.689 32.1868 132.944 32.9603 133.148C33.7157 133.39 34.486 133.583 35.2663 133.725C36.0187 133.887 36.7821 133.993 37.5502 134.042C38.2772 134.118 39.008 134.152 39.7389 134.144C42.4664 134.144 45.1893 133.921 47.8806 133.478C50.3626 133.113 52.61 132.625 54.6228 132.173C58.65 131.232 61.7295 130.321 63.8153 129.679L66.9851 128.672C66.9851 128.672 66.722 128.782 66.1926 128.964C65.6633 129.146 64.8787 129.424 63.8438 129.757C61.7723 130.421 58.6928 131.362 54.6719 132.324C52.6512 132.784 50.4038 133.288 47.9155 133.659C45.2191 134.128 42.4884 134.371 39.7516 134.388C39.0013 134.399 38.2509 134.367 37.5042 134.293C36.7284 134.247 35.9573 134.141 35.1982 133.976C34.4115 133.829 33.634 133.636 32.8699 133.399C32.0886 133.172 31.3088 132.923 30.5211 132.67C27.1603 131.589 23.9678 130.041 21.037 128.073C19.4775 126.985 18.0307 125.743 16.7181 124.366C15.3678 122.91 14.1481 121.337 13.0728 119.667C11.9736 117.913 10.9986 116.084 10.155 114.194C9.69539 113.243 9.3372 112.246 8.94415 111.276C8.55224 110.267 8.24219 109.228 8.01698 108.168C7.77607 107.103 7.54151 106.024 7.33071 104.937C7.12811 103.838 7.00364 102.725 6.95826 101.609C6.78224 99.3222 6.80663 97.0248 7.03116 94.7427C7.25809 92.3945 7.67792 90.069 8.28641 87.7897C8.92626 85.4468 9.77495 83.1659 10.8223 80.9746C13.0297 76.4276 16.2523 72.4485 20.2414 69.3445C24.3953 66.1553 28.8301 63.3496 33.4912 60.9619C38.2818 58.3899 43.2745 56.2134 48.4195 54.4543C53.6962 52.6156 59.1334 51.2747 64.66 50.4492C70.1527 49.5521 75.7579 49.5939 81.2366 50.5729C86.5389 51.6933 91.512 54.0199 95.7702 57.3721C97.8737 58.9494 99.8655 60.6705 101.731 62.5231C103.54 64.3645 105.16 66.3821 106.568 68.5457C109.288 72.7635 111.097 77.5026 111.879 82.4596C112.261 84.8451 112.357 87.2676 112.164 89.6757C111.99 92.0209 111.522 94.3349 110.771 96.5637C110.684 96.8411 110.603 97.1185 110.502 97.3879L110.185 98.1899C109.958 98.7145 109.77 99.2628 109.521 99.7748C109.045 100.801 108.516 101.802 107.936 102.773C107.389 103.758 106.731 104.656 106.105 105.568C105.788 106.019 105.427 106.436 105.099 106.866C104.774 107.306 104.426 107.729 104.056 108.134C101.283 111.279 98.1143 114.053 94.6291 116.385C91.4306 118.552 88.0524 120.441 84.5316 122.032L84.6045 121.951C84.1574 123.737 83.9558 125.575 84.0054 127.416C84.046 129.154 84.3511 130.876 84.9104 132.522C85.9511 135.555 87.9413 138.172 90.586 139.985L90.7904 140.123L90.5495 140.174C88.4716 140.58 86.3465 140.686 84.2384 140.491C82.3742 140.342 80.5387 139.942 78.7816 139.302C75.9837 138.319 73.4462 136.712 71.361 134.603C70.9458 134.166 70.5147 133.793 70.1787 133.378C69.8427 132.963 69.5447 132.568 69.2674 132.204C69.0074 131.878 68.764 131.539 68.5383 131.189L68.0058 130.292L67.2767 129.073L67.0136 128.691Z" fill="#263238"/>
<path d="M86.1724 170.143L89.3612 238.725L94.9639 244.759L102.107 253.422C102.107 253.422 94.9639 282.226 84.5146 284.795C74.0653 287.365 62.7506 283.489 59.4302 274.311C56.1099 265.133 57.8105 249.081 58.8327 238.793C59.855 228.506 64.6699 172.305 64.6699 172.305L76.8547 167.3L86.1724 170.143Z" fill="#FFBE9D"/>
<path d="M86.079 170.894C86.5309 167.597 86.5309 164.254 86.079 160.957C85.2548 157.025 79.8693 148.744 79.8693 148.744C79.8693 148.744 80.6934 140.878 79.8693 139.638C79.0451 138.399 77.1749 133.838 73.6596 138.398C73.6596 138.398 71.1713 133.009 69.5151 132.56C68.7113 132.285 67.8385 132.285 67.0347 132.56L71.4122 126.767C71.5543 125.981 71.5543 125.176 71.4122 124.39C71.2994 123.831 70.9964 123.329 70.5549 122.968C70.1134 122.608 69.5606 122.411 68.9905 122.412C68.6343 122.412 68.2824 122.488 67.9587 122.637C67.635 122.785 67.3474 123.002 67.1155 123.273L56.4966 135.676C56.4966 135.676 49.8717 147.679 50.0841 149.131C50.2965 150.582 54.0163 155.34 54.0163 155.34C54.0163 155.34 63.5004 168.378 64.3625 170.872C64.8624 172.618 65.0036 174.448 64.7778 176.25L86.079 170.894Z" fill="#FFBE9D"/>
<path d="M59.5327 146.453C59.5838 145.656 59.7058 144.865 59.8972 144.089C60.2553 142.189 60.828 140.336 61.6042 138.565C62.4013 136.783 63.6002 135.21 65.1068 133.969C65.5577 133.6 66.0471 133.282 66.5665 133.018C66.7515 132.904 66.9572 132.827 67.172 132.792C66.5073 133.215 65.8665 133.676 65.2527 134.17C63.8379 135.44 62.7042 136.991 61.9243 138.724C61.161 140.472 60.5604 142.286 60.1302 144.144C59.9813 144.926 59.7817 145.697 59.5327 146.453Z" fill="#EB996E"/>
<path d="M68.9038 146.854C68.9061 146.384 68.9875 145.918 69.1447 145.475C69.7634 143.302 70.8405 141.287 72.3034 139.565C72.8724 138.916 73.2813 138.565 73.3178 138.602C72.394 139.866 71.5344 141.177 70.7423 142.528C69.5092 144.811 69.0148 146.883 68.9038 146.854Z" fill="#EB996E"/>
<path d="M79.5562 148.393C79.5364 148.405 79.5145 148.412 79.4919 148.415C79.4692 148.418 79.4462 148.416 79.4242 148.41C79.4023 148.404 79.3818 148.393 79.364 148.379C79.3463 148.364 79.3316 148.346 79.3209 148.326C79.3103 148.306 79.3038 148.284 79.3019 148.261C79.3 148.238 79.3027 148.215 79.3098 148.194C79.317 148.172 79.3285 148.152 79.3436 148.135C79.3587 148.118 79.377 148.104 79.3977 148.094C79.4385 148.069 79.4875 148.061 79.5341 148.072C79.5806 148.083 79.621 148.112 79.6465 148.152C79.6644 148.197 79.665 148.246 79.6482 148.291C79.6315 148.335 79.5987 148.372 79.5562 148.393Z" fill="#EB996E"/>
<path d="M79.4406 151.734C79.3659 150.805 79.415 149.87 79.5864 148.954C79.6736 148.225 79.7687 147.612 79.8558 147.138L80.111 147.239C79.7322 147.691 79.477 147.968 79.4327 147.918C79.3883 147.867 79.5642 147.559 79.8843 147.071L80.1696 146.626V147.173C80.1448 147.784 80.0866 148.393 79.9953 148.997C79.9364 149.93 79.7498 150.85 79.4406 151.733V151.734Z" fill="#EB996E"/>
<path d="M87.1221 192.666C87.1281 192.724 87.1281 192.783 87.1221 192.841L87.1728 193.345C87.2235 193.82 87.2822 194.483 87.363 195.315C87.4946 197.022 87.6546 199.502 87.8226 202.559C88.165 208.68 88.5517 217.151 88.8813 226.491C89.211 235.831 89.4947 244.301 89.6738 250.423C89.7467 253.467 89.8053 255.933 89.8481 257.682V260.171C89.8513 260.229 89.8513 260.287 89.8481 260.345C89.836 260.287 89.836 260.228 89.8481 260.171C89.852 260 89.8398 259.829 89.8117 259.66C89.8117 259.185 89.7531 258.514 89.7166 257.682C89.6437 255.939 89.5423 253.473 89.4171 250.43C89.1841 244.279 88.8703 235.838 88.52 226.498C88.1697 217.158 87.7909 208.717 87.5786 202.566C87.4328 199.53 87.3155 197.064 87.2362 195.313L87.1189 193.343V192.833C87.1107 192.774 87.1107 192.715 87.1189 192.657L87.1221 192.666Z" fill="#EB996E"/>
<path d="M288.608 189.04C288.608 189.04 272.265 251.786 269.529 259.082C264.123 273.447 260.432 280.277 254.314 283.889C247.624 287.807 235.658 285.581 232.834 279.183C230.25 273.346 223.393 248.956 223.393 248.956L244.383 241.383L269.409 188.932L288.608 189.04Z" fill="#FFBE9D"/>
<path d="M325.966 159.557C326.995 160.286 304.945 179.6 304.945 179.6L288.61 189.041L283.221 209.09L266.148 198.548C266.148 198.548 272.33 178.557 275.203 177.177C280.208 174.776 281.172 166.729 282.969 167.033C284.766 167.338 285.545 167.296 284.947 170.281C284.35 173.265 284.109 174.593 284.109 174.593L302.969 169.121C302.969 169.121 313.429 158.977 316.707 159.562C318.609 159.912 318.823 160.159 318.823 160.159C319.726 159.19 320.958 158.591 322.278 158.48C323.599 158.368 324.913 158.753 325.966 159.557Z" fill="#FFBE9D"/>
<path d="M302.977 169.114C302.693 169.258 302.394 169.373 302.087 169.457L299.629 170.259L291.479 172.806L283.329 175.33L280.855 176.104C280.559 176.221 280.251 176.304 279.936 176.351C280.215 176.195 280.508 176.066 280.811 175.964C281.38 175.738 282.204 175.432 283.241 175.074C285.301 174.345 288.181 173.432 291.368 172.44C294.555 171.447 297.446 170.601 299.554 170.002C300.605 169.702 301.456 169.47 302.049 169.316C302.351 169.219 302.661 169.151 302.976 169.111L302.977 169.114Z" fill="#EB996E"/>
<path d="M306.185 174.405C306.318 174.184 306.477 173.98 306.661 173.799C306.989 173.427 307.47 172.894 308.068 172.244C309.272 170.946 310.949 169.165 312.823 167.217L317.631 162.263C318.113 161.779 318.443 161.165 318.582 160.497C318.593 160.254 318.581 160.009 318.546 159.768C318.586 159.821 318.618 159.88 318.641 159.942C318.709 160.129 318.739 160.327 318.728 160.526C318.644 161.246 318.332 161.921 317.837 162.451C316.655 163.794 314.97 165.537 313.102 167.501C311.233 169.465 309.52 171.192 308.272 172.447C307.638 173.067 307.134 173.571 306.776 173.907C306.6 174.097 306.402 174.264 306.185 174.405Z" fill="#EB996E"/>
<path d="M248.579 232.561C248.674 232.606 245.93 239.059 242.458 246.971C238.985 254.883 236.082 261.278 235.987 261.235C235.892 261.193 238.627 254.737 242.108 246.813C245.588 238.888 248.484 232.517 248.579 232.561Z" fill="#EB996E"/>
<path d="M321.186 313.672C321.186 313.774 249.276 313.862 160.6 313.862C71.9242 313.862 -0.000488281 313.775 -0.000488281 313.672C-0.000488281 313.569 71.8941 313.468 160.594 313.468C249.293 313.468 321.186 313.563 321.186 313.672Z" fill="#263238"/>
<path d="M264.674 122.48L264.412 151.634L275.26 151.732L275.523 122.578L264.674 122.48Z" fill="#90CAF9"/>
<g opacity="0.3">
<path d="M264.675 122.48L264.413 151.634L275.261 151.732L275.524 122.578L264.675 122.48Z" fill="black"/>
</g>
<path d="M261.735 122.442L261.473 151.596L272.321 151.694L272.584 122.539L261.735 122.442Z" fill="#90CAF9"/>
<path d="M269.249 129.609C269.242 130.174 269.039 130.719 268.676 131.151C268.312 131.584 267.81 131.877 267.254 131.981C266.699 132.084 266.125 131.993 265.629 131.721C265.134 131.449 264.748 131.014 264.538 130.489C264.327 129.965 264.304 129.384 264.474 128.845C264.643 128.306 264.994 127.842 265.467 127.533C265.94 127.224 266.505 127.088 267.067 127.148C267.629 127.209 268.152 127.462 268.548 127.865C268.774 128.096 268.952 128.368 269.072 128.667C269.193 128.966 269.253 129.286 269.249 129.609Z" fill="white"/>
<path d="M275.442 126.951C275.098 127.738 274.649 128.474 274.107 129.14C273.661 129.873 273.113 130.539 272.479 131.118C272.823 130.331 273.272 129.595 273.814 128.929C274.26 128.196 274.808 127.53 275.442 126.951Z" fill="#90CAF9"/>
<path d="M275.412 130.176C274.625 131.702 273.628 133.109 272.45 134.357C272.791 133.57 273.241 132.833 273.784 132.169C274.229 131.43 274.777 130.759 275.412 130.176Z" fill="#90CAF9"/>
<path d="M275.385 133.401C274.598 134.927 273.601 136.335 272.422 137.582C272.764 136.795 273.213 136.058 273.757 135.394C274.202 134.655 274.75 133.984 275.385 133.401Z" fill="#90CAF9"/>
<path d="M275.357 136.627C274.57 138.153 273.573 139.56 272.395 140.808C272.736 140.02 273.185 139.284 273.729 138.619C274.174 137.881 274.722 137.21 275.357 136.627Z" fill="#90CAF9"/>
<path d="M275.325 139.822C274.539 141.348 273.541 142.755 272.363 144.003C272.704 143.216 273.154 142.479 273.697 141.815C274.142 141.076 274.69 140.405 275.325 139.822Z" fill="#90CAF9"/>
<path d="M275.295 143.076C274.509 144.601 273.512 146.009 272.333 147.257C272.675 146.469 273.124 145.732 273.668 145.068C274.112 144.33 274.66 143.659 275.295 143.076Z" fill="#90CAF9"/>
<path d="M275.265 146.301C274.479 147.827 273.482 149.234 272.303 150.482C272.645 149.695 273.094 148.958 273.638 148.293C274.082 147.555 274.631 146.884 275.265 146.301Z" fill="#90CAF9"/>
<path d="M275.435 124.106C275.094 124.893 274.648 125.629 274.107 126.295C273.659 127.028 273.111 127.696 272.479 128.279C272.814 127.489 273.261 126.751 273.808 126.09C274.256 125.357 274.803 124.689 275.435 124.106Z" fill="#90CAF9"/>
<path d="M274.338 122.551C274.425 122.61 274.097 123.215 273.609 123.894C273.121 124.572 272.667 125.082 272.58 125.025C272.493 124.968 272.829 124.369 273.309 123.691C273.789 123.013 274.259 122.509 274.338 122.551Z" fill="#90CAF9"/>
<path d="M280.733 149.482L281.557 123.727C281.557 123.727 287.299 122.662 292.501 114.914C295.931 109.807 294.734 104.306 295.419 102.05C295.828 100.664 299.064 100.977 300.525 101.153C301.483 101.23 302.403 101.557 303.194 102.101C303.986 102.645 304.62 103.387 305.034 104.253C306.741 108.244 304.216 117.725 304.216 117.725C304.216 117.725 303.137 119.651 305.844 119.681L315.512 119.768C316.769 119.762 317.986 120.208 318.942 121.023C319.438 121.438 319.824 121.968 320.066 122.567C320.308 123.167 320.398 123.817 320.329 124.459C320.001 128.105 318.053 129.764 318.045 130.538C318.037 131.311 319.088 132.682 318.294 134.915C317.5 137.148 317.016 136.936 317.01 138.001C316.994 139.843 316.684 141.671 316.091 143.415C315.753 144.299 315.258 145.114 314.631 145.822C314.84 147.693 314.59 149.586 313.902 151.338C312.442 153.913 306.052 155.578 303.432 154.349C302.199 153.772 296.458 152.351 293.75 151.655C291.041 150.959 283.359 148.241 280.733 149.482Z" fill="#90CAF9"/>
<g opacity="0.3">
<path d="M280.732 149.482L281.557 123.727C281.557 123.727 287.299 122.662 292.5 114.914C295.93 109.807 294.733 104.306 295.418 102.05C295.827 100.664 299.063 100.977 300.525 101.153C301.482 101.23 302.402 101.557 303.194 102.101C303.985 102.645 304.62 103.387 305.034 104.253C306.741 108.244 304.216 117.725 304.216 117.725C304.216 117.725 303.137 119.651 305.844 119.681L315.512 119.768C316.768 119.762 317.985 120.208 318.941 121.023C319.438 121.438 319.824 121.968 320.066 122.567C320.308 123.167 320.398 123.817 320.328 124.459C320 128.105 318.052 129.764 318.044 130.538C318.036 131.311 319.087 132.682 318.293 134.915C317.499 137.148 317.016 136.936 317.009 138.001C316.994 139.843 316.683 141.671 316.09 143.415C315.752 144.299 315.258 145.114 314.63 145.822C314.84 147.693 314.589 149.586 313.901 151.338C312.442 153.913 306.051 155.578 303.431 154.349C302.198 153.772 296.458 152.351 293.749 151.655C291.041 150.959 283.359 148.241 280.732 149.482Z" fill="black"/>
</g>
<path d="M277.267 149.737L277.5 123.691C277.5 123.691 283.25 122.626 288.444 114.877C290.895 111.335 292.806 107.447 294.113 103.342C294.298 102.667 294.721 102.08 295.303 101.691C295.885 101.301 296.588 101.133 297.283 101.219C298.138 101.277 298.959 101.578 299.65 102.086C300.341 102.594 300.872 103.288 301.183 104.087C302.89 108.078 300.141 117.702 300.141 117.702C300.141 117.702 299.053 119.627 301.768 119.657L311.436 119.745C312.693 119.739 313.91 120.185 314.866 121C315.361 121.415 315.746 121.945 315.987 122.545C316.227 123.144 316.316 123.794 316.245 124.436C315.928 128.081 313.975 129.741 313.969 130.514C313.962 131.287 315.012 132.658 314.216 134.892C313.42 137.125 312.939 136.912 312.932 137.977C312.91 139.82 312.597 141.647 312.005 143.391C311.67 144.277 311.176 145.093 310.545 145.799C310.693 147.668 310.445 149.548 309.816 151.314C308.824 153.335 304.753 154.372 303.396 154.357C302.039 154.343 292.371 152.322 289.664 151.622C286.957 150.921 279.893 148.504 277.267 149.737Z" fill="#90CAF9"/>
<path d="M305.125 112.535C303.793 114.362 302.168 115.957 300.316 117.255C301.035 116.39 301.818 115.581 302.658 114.833C303.421 114.005 304.245 113.237 305.125 112.535Z" fill="#90CAF9"/>
<path d="M305.673 109.062C305.113 109.934 304.401 110.697 303.571 111.316C302.821 112.014 301.996 112.627 301.113 113.146C301.752 112.356 302.487 111.648 303.302 111.038C304.053 110.335 304.845 109.675 305.673 109.062Z" fill="#90CAF9"/>
<path d="M305.438 105.918C305.017 106.659 304.418 107.284 303.694 107.734C303.043 108.257 302.348 108.721 301.615 109.121C302.122 108.445 302.756 107.875 303.482 107.442C304.588 106.647 305.354 105.837 305.438 105.918Z" fill="#90CAF9"/>
<path d="M304.4 103.284C304.459 103.365 303.882 103.948 303.108 104.604C302.676 105.047 302.16 105.399 301.59 105.64C301.525 105.568 302.1 104.976 302.874 104.327C303.31 103.884 303.828 103.53 304.398 103.284H304.4Z" fill="#90CAF9"/>
<path d="M302.446 101.721C302.497 101.808 302.14 102.136 301.644 102.45C301.148 102.764 300.693 102.968 300.637 102.887C300.582 102.807 300.943 102.472 301.447 102.158C301.951 101.845 302.395 101.634 302.446 101.721Z" fill="#90CAF9"/>
<path d="M304.328 117.125C304.393 117.197 303.782 117.854 302.964 118.511C302.501 118.976 301.957 119.352 301.358 119.621C301.293 119.548 301.905 118.892 302.729 118.234C303.186 117.765 303.729 117.388 304.328 117.125Z" fill="#90CAF9"/>
<path d="M319.984 126.346C318.139 127.88 316.141 129.222 314.023 130.351C314.91 129.529 315.875 128.796 316.905 128.162C317.87 127.458 318.901 126.849 319.984 126.346Z" fill="#90CAF9"/>
<path d="M319.877 121.932C319.397 122.47 318.829 122.924 318.198 123.274C317.636 123.726 317.002 124.081 316.323 124.325C316.806 123.787 317.373 123.331 318.002 122.975C318.563 122.523 319.197 122.17 319.877 121.932Z" fill="#90CAF9"/>
<path d="M318.45 132.657C317.767 133.23 317.035 133.74 316.261 134.181C315.562 134.721 314.814 135.194 314.028 135.597C315.254 134.313 316.749 133.317 318.405 132.679L318.45 132.657Z" fill="#90CAF9"/>
<path d="M316.991 137.633C316.404 138.29 315.729 138.862 314.984 139.334C314.312 139.904 313.566 140.38 312.766 140.749C313.353 140.092 314.028 139.52 314.772 139.049C315.446 138.48 316.192 138.004 316.991 137.633Z" fill="#90CAF9"/>
<path d="M315.809 143.586C315.147 144.376 314.363 145.056 313.489 145.601C312.68 146.24 311.777 146.75 310.812 147.111C311.588 146.45 312.412 145.848 313.278 145.309C314.079 144.674 314.925 144.098 315.809 143.586Z" fill="#90CAF9"/>
<path d="M314.542 148.577C312.843 150.265 310.869 151.652 308.705 152.677C309.637 151.925 310.611 151.226 311.622 150.584C312.551 149.852 313.526 149.182 314.542 148.577Z" fill="#90CAF9"/>
<path d="M306.853 57.6943L303.12 76.4272L310.089 77.8161L313.822 59.0831L306.853 57.6943Z" fill="#263238"/>
<path d="M308.735 58.0683L305.002 76.8013L311.972 78.1902L315.705 59.4572L308.735 58.0683Z" fill="#455A64"/>
<path d="M307.976 72.6978C308.038 72.3858 308.19 72.099 308.415 71.8738C308.639 71.6486 308.926 71.4951 309.238 71.4329C309.549 71.3707 309.873 71.4024 310.167 71.5242C310.46 71.646 310.711 71.8522 310.888 72.1168C311.064 72.3814 311.158 72.6924 311.157 73.0104C311.157 73.3284 311.062 73.6391 310.884 73.903C310.707 74.1669 310.455 74.3722 310.161 74.4929C309.867 74.6135 309.543 74.644 309.232 74.5806C308.816 74.4961 308.451 74.2507 308.216 73.898C307.981 73.5452 307.895 73.1138 307.976 72.6978Z" fill="white"/>
<path d="M303.676 73.603C303.995 73.1376 304.376 72.7179 304.808 72.3557C305.185 71.9398 305.617 71.5768 306.092 71.2764C305.782 71.7466 305.404 72.1672 304.968 72.5237C304.593 72.9452 304.158 73.3089 303.676 73.603Z" fill="#455A64"/>
<path d="M304.091 71.5298C304.408 71.0654 304.786 70.6459 305.215 70.2824C305.596 69.8673 306.03 69.5043 306.506 69.2031C305.815 70.0887 305.002 70.872 304.091 71.5298Z" fill="#455A64"/>
<path d="M304.51 69.4599C304.822 68.9914 305.2 68.5711 305.634 68.2126C306.011 67.7936 306.446 67.4303 306.926 67.1333C306.607 67.5988 306.226 68.0185 305.794 68.3806C305.417 68.7965 304.985 69.1595 304.51 69.4599Z" fill="#455A64"/>
<path d="M304.916 67.3887C305.232 66.9243 305.61 66.5048 306.039 66.1413C306.42 65.7261 306.855 65.3632 307.331 65.062C307.014 65.5263 306.636 65.9459 306.207 66.3093C305.828 66.7263 305.393 67.0895 304.916 67.3887Z" fill="#455A64"/>
<path d="M305.333 65.3154C305.649 64.8511 306.027 64.4315 306.456 64.0681C306.833 63.6485 307.268 63.285 307.748 62.9888C307.431 63.4531 307.053 63.8726 306.624 64.2361C306.243 64.6513 305.809 65.0142 305.333 65.3154Z" fill="#455A64"/>
<path d="M305.743 63.212C306.439 62.3301 307.251 61.5469 308.158 60.8838C307.847 61.3524 307.468 61.7727 307.034 62.1311C306.657 62.5501 306.222 62.9151 305.743 63.212Z" fill="#455A64"/>
<path d="M306.159 61.171C306.85 60.2849 307.664 59.5011 308.575 58.8428C308.258 59.3071 307.88 59.7267 307.451 60.0901C307.07 60.5058 306.636 60.8693 306.159 61.171Z" fill="#455A64"/>
<path d="M303.337 75.435C303.654 74.9707 304.032 74.5512 304.461 74.1877C304.842 73.7725 305.276 73.4096 305.753 73.1084C305.061 73.994 304.248 74.7773 303.337 75.435Z" fill="#455A64"/>
<path d="M303.846 76.5653C303.801 76.5209 304.087 76.1706 304.48 75.7918C304.873 75.413 305.209 75.142 305.272 75.1864C305.336 75.2308 305.039 75.581 304.638 75.9678C304.237 76.3545 303.897 76.616 303.846 76.5653Z" fill="#455A64"/>
<path d="M303.029 58.4559L299.381 74.9246C299.381 74.9246 295.55 74.9246 291.268 79.2657C288.437 82.1835 288.538 85.832 287.832 87.1903C287.394 88.0287 285.337 87.4312 284.438 87.1395C283.835 86.9696 283.286 86.6469 282.843 86.2027C282.401 85.7585 282.081 85.2078 281.913 84.6037C281.3 81.8238 284.102 76.023 284.102 76.023C284.102 76.023 285.036 74.9136 283.292 74.5633L277.076 73.3223C276.266 73.1722 275.538 72.7342 275.025 72.0892C274.755 71.7634 274.571 71.3756 274.488 70.9606C274.405 70.5456 274.426 70.1165 274.55 69.7119C275.206 67.3836 276.666 66.5754 276.739 66.0666C276.547 65.1052 276.678 64.1075 277.111 63.228C277.893 61.8935 278.184 62.0821 278.316 61.3974C278.555 60.2151 278.979 59.0776 279.571 58.0263C279.902 57.4989 280.324 57.0346 280.818 56.6554C280.91 55.4271 281.301 54.2398 281.956 53.1971C283.204 51.7374 287.53 51.4315 289.063 52.541C289.792 53.0656 293.309 54.679 294.965 55.4588C296.621 56.2386 301.183 58.9298 303.029 58.4559Z" fill="#263238"/>
<path d="M305.29 58.7113L301.962 75.4479C301.962 75.4479 298.131 75.4479 293.849 79.789C291.837 81.783 290.133 84.0648 288.793 86.5597C288.587 86.9682 288.244 87.2909 287.823 87.4709C287.403 87.651 286.932 87.6769 286.495 87.5439C285.945 87.4066 285.446 87.1141 285.058 86.7013C284.67 86.2885 284.409 85.7728 284.306 85.2157C283.692 82.4358 286.64 76.578 286.64 76.578C286.64 76.578 287.568 75.4685 285.831 75.1183L279.615 73.8773C278.802 73.7262 278.071 73.2887 277.554 72.6442C277.285 72.3179 277.101 71.9297 277.02 71.5147C276.938 71.0996 276.961 70.6708 277.087 70.2669C277.743 67.9402 279.195 67.1303 279.275 66.6216C279.084 65.6602 279.215 64.6625 279.648 63.783C280.44 62.4485 280.713 62.6371 280.852 61.9524C281.09 60.7695 281.514 59.6317 282.108 58.5813C282.438 58.0552 282.858 57.5912 283.349 57.2104C283.485 55.9903 283.875 54.8123 284.494 53.7521C285.377 52.5698 288.14 52.4018 288.996 52.5777C289.851 52.7536 295.847 55.2403 297.503 56.0217C299.16 56.8031 303.444 59.1852 305.29 58.7113Z" fill="#455A64"/>
<path d="M282.811 79.2643C283.33 78.7341 283.916 78.2732 284.554 77.8933C285.147 77.4495 285.797 77.0885 286.487 76.8203C285.92 77.2885 285.318 77.7124 284.685 78.0882C284.097 78.5304 283.472 78.9232 282.818 79.2627L282.811 79.2643Z" fill="#455A64"/>
<path d="M282.027 81.453C282.491 80.9575 283.043 80.5519 283.655 80.2563C284.225 79.8987 284.832 79.6027 285.465 79.3735C284.951 79.8119 284.382 80.1802 283.772 80.4687C283.207 80.8259 282.625 81.1544 282.027 81.453Z" fill="#455A64"/>
<path d="M281.798 83.4755C282.166 83.0587 282.625 82.7332 283.14 82.5246C283.623 82.2669 284.129 82.0546 284.651 81.8906C284.24 82.26 283.762 82.5473 283.243 82.737C282.44 83.1094 281.842 83.5326 281.798 83.4755Z" fill="#455A64"/>
<path d="M282.144 85.2965C282.757 84.7705 283.469 84.3714 284.238 84.1221C283.627 84.652 282.915 85.0516 282.144 85.2965Z" fill="#455A64"/>
<path d="M283.209 86.5609C283.209 86.4959 283.456 86.3279 283.822 86.1821C284.188 86.0363 284.494 85.9634 284.551 86.0236C284.608 86.0839 284.31 86.2566 283.946 86.4024C283.718 86.518 283.464 86.5726 283.209 86.5609Z" fill="#455A64"/>
<path d="M283.896 76.3972C284.199 76.0923 284.555 75.8452 284.947 75.6682C285.3 75.4242 285.697 75.2485 286.115 75.1499C285.81 75.4522 285.454 75.6989 285.064 75.879C284.71 76.123 284.314 76.2987 283.896 76.3972Z" fill="#455A64"/>
<path d="M274.93 68.5471C275.599 68.1324 276.308 67.7852 277.046 67.5106C277.745 67.1651 278.479 66.8936 279.235 66.7007C277.856 67.4569 276.407 68.0753 274.908 68.5471H274.93Z" fill="#455A64"/>
<path d="M274.465 71.4078C274.838 71.1165 275.257 70.8918 275.706 70.7437C276.124 70.5243 276.575 70.3739 277.041 70.2983C276.668 70.5885 276.248 70.8131 275.8 70.9624C275.383 71.1843 274.932 71.3348 274.465 71.4078Z" fill="#455A64"/>
<path d="M276.69 64.6722C277.195 64.382 277.726 64.138 278.275 63.9432C278.791 63.6799 279.331 63.465 279.887 63.3013C279.437 63.6769 278.923 63.9684 278.37 64.1619C277.847 64.4351 277.277 64.6082 276.69 64.6722Z" fill="#455A64"/>
<path d="M278.245 61.6306C279.204 61 280.248 60.5086 281.345 60.1709C280.885 60.5217 280.38 60.809 279.843 61.0252C279.34 61.2979 278.802 61.5015 278.245 61.6306Z" fill="#455A64"/>
<path d="M279.725 57.9599C280.249 57.5318 280.837 57.1894 281.469 56.9456C282.066 56.6354 282.707 56.4189 283.37 56.3037C282.176 56.8996 280.961 57.4517 279.725 57.9599Z" fill="#455A64"/>
<path d="M281.161 54.9106C281.788 54.434 282.479 54.0463 283.212 53.7584C283.901 53.3951 284.638 53.132 285.401 52.9771C284.714 53.3479 284.008 53.6817 283.285 53.9771C282.595 54.3281 281.886 54.6397 281.161 54.9106Z" fill="#455A64"/>
<path d="M261.984 122.442L261.721 151.596L272.57 151.694L272.832 122.539L261.984 122.442Z" fill="#90CAF9"/>
<path d="M269.491 129.607C269.484 130.172 269.281 130.717 268.917 131.149C268.554 131.582 268.051 131.875 267.496 131.979C266.941 132.082 266.366 131.991 265.871 131.719C265.376 131.447 264.99 131.012 264.779 130.487C264.569 129.963 264.546 129.382 264.716 128.843C264.885 128.304 265.236 127.84 265.709 127.531C266.182 127.222 266.747 127.086 267.309 127.146C267.871 127.207 268.394 127.46 268.79 127.863C269.016 128.094 269.194 128.366 269.314 128.665C269.434 128.964 269.494 129.284 269.491 129.607Z" fill="white"/>
<g opacity="0.3">
<path d="M280.978 149.482L281.802 123.727C281.802 123.727 287.544 122.662 292.745 114.914C296.175 109.807 294.979 104.306 295.663 102.05C296.072 100.664 299.309 100.977 300.77 101.153C301.727 101.23 302.648 101.557 303.439 102.101C304.23 102.645 304.865 103.387 305.279 104.253C306.986 108.244 304.461 117.725 304.461 117.725C304.461 117.725 303.382 119.651 306.089 119.681L315.757 119.768C317.013 119.762 318.231 120.208 319.187 121.023C319.683 121.438 320.069 121.968 320.311 122.567C320.553 123.167 320.643 123.817 320.573 124.459C320.245 128.105 318.297 129.764 318.289 130.538C318.282 131.311 319.332 132.682 318.538 134.915C317.744 137.148 317.261 136.936 317.255 138.001C317.239 139.843 316.928 141.671 316.335 143.415C315.997 144.299 315.503 145.114 314.876 145.822C315.085 147.693 314.835 149.586 314.147 151.338C312.687 153.913 306.296 155.578 303.677 154.349C302.444 153.772 296.703 152.351 293.994 151.655C291.286 150.959 283.604 148.241 280.978 149.482Z" fill="black"/>
</g>
<path d="M277.509 149.735L277.742 123.689C277.742 123.689 283.492 122.624 288.686 114.875C291.137 111.333 293.047 107.445 294.355 103.34C294.54 102.665 294.962 102.079 295.544 101.689C296.126 101.299 296.829 101.131 297.525 101.217C298.38 101.275 299.201 101.576 299.892 102.084C300.582 102.592 301.114 103.286 301.425 104.085C303.132 108.076 300.382 117.7 300.382 117.7C300.382 117.7 299.295 119.625 302.01 119.655L311.678 119.743C312.934 119.737 314.151 120.183 315.108 120.998C315.603 121.413 315.988 121.943 316.228 122.543C316.469 123.142 316.558 123.792 316.486 124.434C316.169 128.079 314.217 129.739 314.21 130.512C314.204 131.286 315.253 132.656 314.458 134.89C313.662 137.123 313.18 136.91 313.174 137.975C313.152 139.818 312.839 141.645 312.247 143.389C311.912 144.275 311.417 145.091 310.787 145.797C310.935 147.666 310.686 149.546 310.058 151.312C309.066 153.333 304.994 154.37 303.638 154.355C302.281 154.341 292.613 152.32 289.906 151.62C287.199 150.919 280.135 148.502 277.509 149.735Z" fill="#90CAF9"/>
<g filter="url(#filter0_d_2114_10379)">
<path d="M32.4752 99.0753L32.8996 91.3969L35.3257 90.3038L34.5441 100.702L36.9278 105.993L34.6884 107.002L32.3383 101.786L24.0164 95.3992L26.4425 94.3061L32.4752 99.0753ZM49.4968 100.33L48.4108 99.0909L48.3361 99.1245C48.1215 99.977 47.8142 100.632 47.414 101.089C47.011 101.54 46.4145 101.943 45.6245 102.299C44.6105 102.756 43.694 102.84 42.8751 102.55C42.0624 102.258 41.4304 101.611 40.9791 100.609C40.4999 99.5457 40.5333 98.5653 41.0795 97.6682C41.6257 96.771 42.6963 95.9332 44.2913 95.1547L46.0483 94.2957L45.8002 93.7452C45.5031 93.0858 45.1262 92.6645 44.6694 92.4811C44.2161 92.2887 43.6659 92.3383 43.019 92.6298C42.4902 92.868 42.0182 93.1742 41.6031 93.5483C41.1879 93.9225 40.8041 94.3162 40.4515 94.7295L39.036 93.4814C39.4642 92.9368 39.9774 92.4399 40.5758 91.9907C41.1713 91.5353 41.7646 91.1744 42.3555 90.9082C43.6681 90.3168 44.7861 90.1573 45.7096 90.4297C46.6393 90.6993 47.3802 91.4469 47.9323 92.6723L51.0644 99.624L49.4968 100.33ZM45.5582 100.309C46.3545 99.95 46.8926 99.4419 47.1726 98.7844C47.456 98.1179 47.417 97.3834 47.0554 96.5809L46.6518 95.6851L45.352 96.3381C44.3362 96.8407 43.662 97.354 43.3293 97.878C43.0001 98.3931 42.9785 98.9678 43.2643 99.6023C43.4717 100.063 43.7697 100.359 44.1584 100.49C44.5442 100.616 45.0108 100.555 45.5582 100.309ZM47.9076 88.6312L50.2964 87.5549L55.0318 92.4596C55.7246 93.1502 56.2893 93.8387 56.7258 94.5251L56.8004 94.4915C56.7022 94.1241 56.6185 93.6642 56.5492 93.1117C56.4771 92.553 56.2217 89.8768 55.783 85.0829L58.1531 84.0151L59.0073 97.6954C59.1717 100.203 58.3177 101.879 56.4453 102.722C55.9601 102.941 55.4635 103.101 54.9555 103.203L54.1736 101.467C54.5369 101.393 54.9301 101.261 55.3531 101.071C56.4106 100.594 56.8779 99.6464 56.755 98.2275L56.7003 97.0847L47.9076 88.6312Z" fill="#74A5DF"/>
</g>
<g filter="url(#filter1_d_2114_10379)">
<path d="M34.0616 99.0753L34.486 91.3969L36.9121 90.3038L36.1305 100.702L38.5143 105.993L36.2748 107.002L33.9247 101.786L25.6028 95.3992L28.0289 94.3061L34.0616 99.0753ZM51.0832 100.33L49.9972 99.0909L49.9225 99.1245C49.708 99.977 49.4006 100.632 49.0004 101.089C48.5974 101.54 48.0009 101.943 47.2109 102.299C46.1969 102.756 45.2805 102.84 44.4615 102.55C43.6488 102.258 43.0168 101.611 42.5656 100.609C42.0863 99.5457 42.1198 98.5653 42.666 97.6682C43.2121 96.771 44.2827 95.9332 45.8777 95.1547L47.6347 94.2957L47.3866 93.7452C47.0896 93.0858 46.7126 92.6645 46.2558 92.4811C45.8025 92.2887 45.2523 92.3383 44.6054 92.6298C44.0766 92.868 43.6047 93.1742 43.1895 93.5483C42.7744 93.9225 42.3905 94.3162 42.0379 94.7295L40.6225 93.4814C41.0506 92.9368 41.5638 92.4399 42.1622 91.9907C42.7577 91.5353 43.351 91.1744 43.942 90.9082C45.2545 90.3168 46.3725 90.1573 47.296 90.4297C48.2257 90.6993 48.9666 91.4469 49.5187 92.6723L52.6508 99.624L51.0832 100.33ZM47.1447 100.309C47.9409 99.95 48.479 99.4419 48.759 98.7844C49.0425 98.1179 49.0034 97.3834 48.6418 96.5809L48.2382 95.6851L46.9385 96.3381C45.9226 96.8407 45.2484 97.354 44.9158 97.878C44.5865 98.3931 44.5649 98.9678 44.8508 99.6023C45.0582 100.063 45.3562 100.359 45.7448 100.49C46.1306 100.616 46.5972 100.555 47.1447 100.309ZM49.494 88.6312L51.8828 87.5549L56.6182 92.4596C57.3111 93.1502 57.8757 93.8387 58.3122 94.5251L58.3868 94.4915C58.2887 94.1241 58.2049 93.6642 58.1356 93.1117C58.0635 92.553 57.8081 89.8768 57.3694 85.0829L59.7395 84.0151L60.5937 97.6954C60.7582 100.203 59.9042 101.879 58.0317 102.722C57.5465 102.941 57.0499 103.101 56.542 103.203L55.76 101.467C56.1233 101.393 56.5165 101.261 56.9395 101.071C57.997 100.594 58.4643 99.6464 58.3414 98.2275L58.2868 97.0847L49.494 88.6312Z" fill="#455A64"/>
</g>
<defs>
<filter id="filter0_d_2114_10379" x="18.0166" y="80.6934" width="52.8545" height="46.9385" filterUnits="userSpaceOnUse" color-interpolation-filters="sRGB">
<feFlood flood-opacity="0" result="BackgroundImageFix"/>
<feColorMatrix in="SourceAlpha" type="matrix" values="0 0 0 0 0 0 0 0 0 0 0 0 0 0 0 0 0 0 127 0" result="hardAlpha"/>
<feOffset dy="8"/>
<feGaussianBlur stdDeviation="3"/>
<feColorMatrix type="matrix" values="0 0 0 0 0.454902 0 0 0 0 0.647059 0 0 0 0 0.87451 0 0 0 0.161 0"/>
<feBlend mode="normal" in2="BackgroundImageFix" result="effect1_dropShadow_2114_10379"/>
<feBlend mode="normal" in="SourceGraphic" in2="effect1_dropShadow_2114_10379" result="shape"/>
</filter>
<filter id="filter1_d_2114_10379" x="19.603" y="80.6934" width="52.8545" height="46.9385" filterUnits="userSpaceOnUse" color-interpolation-filters="sRGB">
<feFlood flood-opacity="0" result="BackgroundImageFix"/>
<feColorMatrix in="SourceAlpha" type="matrix" values="0 0 0 0 0 0 0 0 0 0 0 0 0 0 0 0 0 0 127 0" result="hardAlpha"/>
<feOffset dy="8"/>
<feGaussianBlur stdDeviation="3"/>
<feColorMatrix type="matrix" values="0 0 0 0 0.454902 0 0 0 0 0.647059 0 0 0 0 0.87451 0 0 0 0.161 0"/>
<feBlend mode="normal" in2="BackgroundImageFix" result="effect1_dropShadow_2114_10379"/>
<feBlend mode="normal" in="SourceGraphic" in2="effect1_dropShadow_2114_10379" result="shape"/>
</filter>
</defs>
</svg>
