<svg xmlns="http://www.w3.org/2000/svg" xmlns:xlink="http://www.w3.org/1999/xlink" width="236.599" height="227.643" viewBox="0 0 236.599 227.643">
  <defs>
    <filter id="Yay" x="5.501" y="45.806" width="64.917" height="60.862" filterUnits="userSpaceOnUse">
      <feOffset dy="8" input="SourceAlpha"/>
      <feGaussianBlur stdDeviation="3" result="blur"/>
      <feFlood flood-color="#74a5df" flood-opacity="0.161"/>
      <feComposite operator="in" in2="blur"/>
      <feComposite in="SourceGraphic"/>
    </filter>
    <filter id="Yay-2" x="6.651" y="45.806" width="64.917" height="60.862" filterUnits="userSpaceOnUse">
      <feOffset dy="8" input="SourceAlpha"/>
      <feGaussianBlur stdDeviation="3" result="blur-2"/>
      <feFlood flood-color="#74a5df" flood-opacity="0.161"/>
      <feComposite operator="in" in2="blur-2"/>
      <feComposite in="SourceGraphic"/>
    </filter>
  </defs>
  <g id="Successss_graphics" data-name="Successss graphics" transform="translate(-580.001 -225.095)">
    <g id="Opinion-pana" transform="translate(580.001 225.095)">
      <g id="freepik--background-complete--inject-18" transform="translate(2.42 0)">
        <rect id="Rectangle_5619" data-name="Rectangle 5619" width="11.708" height="4.358" transform="matrix(0.474, -0.88, 0.88, 0.474, 185.297, 75.97)" fill="#e0e0e0"/>
        <rect id="Rectangle_5620" data-name="Rectangle 5620" width="11.708" height="4.358" transform="matrix(0.474, -0.88, 0.88, 0.474, 186.332, 76.522)" fill="#ebebeb"/>
        <path id="Path_11007" data-name="Path 11007" d="M396.353,161.734a.985.985,0,1,0,1.329-.4.985.985,0,0,0-1.329.4Z" transform="translate(-204.667 -92.412)" fill="#fff"/>
        <path id="Path_11008" data-name="Path 11008" d="M393.271,158.19a3.142,3.142,0,0,1,.2,1.011,3.008,3.008,0,0,1,.032,1.059,3.14,3.14,0,0,1-.2-1.011A3.008,3.008,0,0,1,393.271,158.19Z" transform="translate(-203.258 -90.986)" fill="#ebebeb"/>
        <path id="Path_11009" data-name="Path 11009" d="M392.113,160.34a3.141,3.141,0,0,1,.2,1.011,3.007,3.007,0,0,1,.032,1.033,3.1,3.1,0,0,1-.2-1.011,3.026,3.026,0,0,1-.032-1.033Z" transform="translate(-202.714 -91.998)" fill="#ebebeb"/>
        <path id="Path_11010" data-name="Path 11010" d="M390.971,162.5a3.1,3.1,0,0,1,.2,1.011,3.019,3.019,0,0,1,.032,1.059,3.139,3.139,0,0,1-.2-1.011A3.007,3.007,0,0,1,390.971,162.5Z" transform="translate(-202.176 -93.014)" fill="#ebebeb"/>
        <path id="Path_11011" data-name="Path 11011" d="M389.793,164.65a3.139,3.139,0,0,1,.2,1.011,3.009,3.009,0,0,1,.032,1.033,3.139,3.139,0,0,1-.2-1.011,3.007,3.007,0,0,1-.032-1.033Z" transform="translate(-201.623 -94.025)" fill="#ebebeb"/>
        <path id="Path_11012" data-name="Path 11012" d="M388.636,166.81a3.134,3.134,0,0,1,.207,1.011,3.056,3.056,0,0,1,.026,1.027,3.1,3.1,0,0,1-.2-1.011,3.177,3.177,0,0,1-.032-1.027Z" transform="translate(-201.079 -95.042)" fill="#ebebeb"/>
        <path id="Path_11013" data-name="Path 11013" d="M387.475,169a3.177,3.177,0,0,1,.207,1.011,3.092,3.092,0,0,1,.026,1.033,3.14,3.14,0,0,1-.2-1.011,3.176,3.176,0,0,1-.032-1.033Z" transform="translate(-200.533 -96.072)" fill="#ebebeb"/>
        <path id="Path_11014" data-name="Path 11014" d="M386.3,171.11a3.226,3.226,0,0,1,.207,1.011,3.083,3.083,0,0,1,0,1.033,3.139,3.139,0,0,1-.2-1.011,3.178,3.178,0,0,1-.005-1.033Z" transform="translate(-199.977 -97.065)" fill="#ebebeb"/>
        <path id="Path_11015" data-name="Path 11015" d="M394.315,156.3a5.883,5.883,0,0,1,.233,2.044,3.1,3.1,0,0,1-.2-1.011A3.175,3.175,0,0,1,394.315,156.3Z" transform="translate(-203.751 -90.097)" fill="#ebebeb"/>
        <path id="Path_11016" data-name="Path 11016" d="M395.609,155.67c.048,0,.117.259.154.593a1.551,1.551,0,0,1,0,.614,1.3,1.3,0,0,1-.159-.593C395.567,155.951,395.562,155.675,395.609,155.67Z" transform="translate(-204.357 -89.8)" fill="#ebebeb"/>
        <path id="Path_11017" data-name="Path 11017" d="M370.9,152.551l4.7-9.219s-1.816-1.483-2.118-5.216c-.212-2.468,1.266-4.162,1.472-5.089.122-.561-1.086-1.059-1.626-1.3a2.261,2.261,0,0,0-2.187.217c-1.372,1.059-2.319,4.9-2.319,4.9s0,.884-.953.371l-3.421-1.843a2.118,2.118,0,0,0-1.446-.222,1.589,1.589,0,0,0-1.154.943,7.063,7.063,0,0,0-.376,2.579c-.148.27-.778.53-.932,1.488s.058.958-.143,1.334a7.01,7.01,0,0,0-.725,2.086,3.176,3.176,0,0,0,.053,1.133,4.6,4.6,0,0,0-.81,2.081c0,1.186,1.938,3.008,3.1,3.082.529.037,2.838.646,3.924.921S370.21,151.608,370.9,152.551Z" transform="translate(-187.107 -78.447)" fill="#e0e0e0"/>
        <path id="Path_11018" data-name="Path 11018" d="M373.3,153.9l4.962-9.208s-1.816-1.488-2.118-5.216a17.523,17.523,0,0,1,.244-5.158,1.176,1.176,0,0,0-.7-1.361,1.806,1.806,0,0,0-1.927.254c-1.371,1.059-2.272,4.988-2.272,4.988s0,.89-.948.376l-3.458-1.843a2.118,2.118,0,0,0-1.451-.222,1.557,1.557,0,0,0-1.149.943,7.052,7.052,0,0,0-.376,2.579c-.148.275-.784.53-.932,1.488s.058.958-.148,1.334a6.885,6.885,0,0,0-.72,2.081,3.239,3.239,0,0,0,.048,1.133,5.464,5.464,0,0,0-.81,2.081c-.042.905,1.191,2.055,1.673,2.314s4.268,1.419,5.359,1.694S372.617,152.959,373.3,153.9Z" transform="translate(-188.343 -79.035)" fill="#ebebeb"/>
        <path id="Path_11019" data-name="Path 11019" d="M378.85,137.76a6.583,6.583,0,0,1,.434,1.281,7.49,7.49,0,0,1,.344,1.308,4.2,4.2,0,0,1-.53-1.255A4.432,4.432,0,0,1,378.85,137.76Z" transform="translate(-196.488 -81.374)" fill="#ebebeb"/>
        <path id="Path_11020" data-name="Path 11020" d="M379.75,135.25a8.519,8.519,0,0,1,.455,1.138,4.336,4.336,0,0,1,.36,1.181,4.724,4.724,0,0,1-.529-1.117A3.076,3.076,0,0,1,379.75,135.25Z" transform="translate(-196.912 -80.193)" fill="#ebebeb"/>
        <path id="Path_11021" data-name="Path 11021" d="M381.059,133.24a7.182,7.182,0,0,1,.4.911,2.213,2.213,0,0,1,.318.958,4.765,4.765,0,0,1-.477-.884,1.859,1.859,0,0,1-.244-.985Z" transform="translate(-197.527 -79.248)" fill="#ebebeb"/>
        <path id="Path_11022" data-name="Path 11022" d="M382.71,131.88a1.764,1.764,0,0,1,.349.651,1.674,1.674,0,0,1,.185.72,1.758,1.758,0,0,1-.35-.657A1.642,1.642,0,0,1,382.71,131.88Z" transform="translate(-198.304 -78.608)" fill="#ebebeb"/>
        <path id="Path_11023" data-name="Path 11023" d="M384.568,131.55c.042,0,.169.127.281.344s.175.4.132.418-.175-.127-.286-.339S384.525,131.576,384.568,131.55Z" transform="translate(-199.172 -78.452)" fill="#ebebeb"/>
        <path id="Path_11024" data-name="Path 11024" d="M377.7,141.1a1.912,1.912,0,0,1,.36.694,1.816,1.816,0,0,1,.2.757,1.912,1.912,0,0,1-.36-.694A1.816,1.816,0,0,1,377.7,141.1Z" transform="translate(-195.947 -82.946)" fill="#ebebeb"/>
        <path id="Path_11025" data-name="Path 11025" d="M363.92,141.5a6.051,6.051,0,0,1,.741,1.244,5.964,5.964,0,0,1,.582,1.318,5.916,5.916,0,0,1-.752-1.239A6.056,6.056,0,0,1,363.92,141.5Z" transform="translate(-189.464 -83.134)" fill="#ebebeb"/>
        <path id="Path_11026" data-name="Path 11026" d="M365.61,138.61a2.2,2.2,0,0,1,.471.725,2.25,2.25,0,0,1,.318.8,2.412,2.412,0,0,1-.471-.725,2.25,2.25,0,0,1-.318-.8Z" transform="translate(-190.259 -81.774)" fill="#ebebeb"/>
        <path id="Path_11027" data-name="Path 11027" d="M362.64,146.26a2.647,2.647,0,0,1,.6.879,2.558,2.558,0,0,1,.371,1.006,4.654,4.654,0,0,1-.53-.927A4.429,4.429,0,0,1,362.64,146.26Z" transform="translate(-188.862 -85.373)" fill="#ebebeb"/>
        <path id="Path_11028" data-name="Path 11028" d="M361.77,150.11a3.175,3.175,0,0,1,.53.921,3.378,3.378,0,0,1,.365,1,3.089,3.089,0,0,1-.53-.921A3.378,3.378,0,0,1,361.77,150.11Z" transform="translate(-188.453 -87.185)" fill="#ebebeb"/>
        <path id="Path_11029" data-name="Path 11029" d="M360.39,154.49a5.685,5.685,0,0,1,.572,1.059,6.05,6.05,0,0,1,.53,1.117,3.383,3.383,0,0,1-.667-1.059A3.569,3.569,0,0,1,360.39,154.49Z" transform="translate(-187.803 -89.245)" fill="#ebebeb"/>
        <path id="Path_11030" data-name="Path 11030" d="M359.43,158.27a8.764,8.764,0,0,1,.657,1.271,9.322,9.322,0,0,1,.6,1.3,4.469,4.469,0,0,1-.752-1.229A4.3,4.3,0,0,1,359.43,158.27Z" transform="translate(-187.352 -91.024)" fill="#ebebeb"/>
        <rect id="Rectangle_5621" data-name="Rectangle 5621" width="5.973" height="16.06" transform="translate(44.316 10.631) rotate(-22.58)" fill="#e0e0e0"/>
        <rect id="Rectangle_5622" data-name="Rectangle 5622" width="5.973" height="16.06" transform="translate(42.823 11.257) rotate(-22.58)" fill="#ebebeb"/>
        <path id="Path_11031" data-name="Path 11031" d="M129.151,69.993a1.345,1.345,0,1,0-.725,1.758A1.345,1.345,0,0,0,129.151,69.993Z" transform="translate(-77.793 -49.101)" fill="#fff"/>
        <path id="Path_11032" data-name="Path 11032" d="M136.351,69.5a4.337,4.337,0,0,1-1.25-.662A4.235,4.235,0,0,1,134,68a4.173,4.173,0,0,1,1.25.657A4.093,4.093,0,0,1,136.351,69.5Z" transform="translate(-81.292 -48.553)" fill="#ebebeb"/>
        <path id="Path_11033" data-name="Path 11033" d="M135.042,66.38a4.237,4.237,0,0,1-1.25-.657,4.342,4.342,0,0,1-1.123-.863,4.109,4.109,0,0,1,1.234.657A4.342,4.342,0,0,1,135.042,66.38Z" transform="translate(-80.666 -47.076)" fill="#ebebeb"/>
        <path id="Path_11034" data-name="Path 11034" d="M133.758,63.28a4.162,4.162,0,0,1-1.255-.657,4.236,4.236,0,0,1-1.123-.863,4.236,4.236,0,0,1,1.255.657A4.5,4.5,0,0,1,133.758,63.28Z" transform="translate(-80.059 -45.618)" fill="#ebebeb"/>
        <path id="Path_11035" data-name="Path 11035" d="M132.468,60.18a8.177,8.177,0,0,1-2.378-1.52,8.48,8.48,0,0,1,2.378,1.52Z" transform="translate(-79.452 -44.159)" fill="#ebebeb"/>
        <path id="Path_11036" data-name="Path 11036" d="M131.182,57.085a4.352,4.352,0,0,1-1.25-.662,4.093,4.093,0,0,1-1.123-.863,4.506,4.506,0,0,1,1.25.662,4.093,4.093,0,0,1,1.123.863Z" transform="translate(-78.85 -42.701)" fill="#ebebeb"/>
        <path id="Path_11037" data-name="Path 11037" d="M129.892,53.99a8.555,8.555,0,0,1-2.372-1.52,4.236,4.236,0,0,1,1.25.657,4.093,4.093,0,0,1,1.123.863Z" transform="translate(-78.243 -41.247)" fill="#ebebeb"/>
        <path id="Path_11038" data-name="Path 11038" d="M128.6,50.89a4.236,4.236,0,0,1-1.25-.657,4.342,4.342,0,0,1-1.123-.863,4.109,4.109,0,0,1,1.25.657,4.236,4.236,0,0,1,1.123.863Z" transform="translate(-77.636 -39.788)" fill="#ebebeb"/>
        <path id="Path_11039" data-name="Path 11039" d="M137.442,72.22a8.246,8.246,0,0,1-2.372-1.52,4.337,4.337,0,0,1,1.25.688,4.237,4.237,0,0,1,1.123.831Z" transform="translate(-81.795 -49.824)" fill="#ebebeb"/>
        <path id="Path_11040" data-name="Path 11040" d="M137.85,74.715c-.032.053-.376-.1-.768-.349s-.673-.5-.635-.53a1.8,1.8,0,0,1,.768.344C137.6,74.429,137.887,74.656,137.85,74.715Z" transform="translate(-82.441 -51.297)" fill="#ebebeb"/>
        <path id="Path_11041" data-name="Path 11041" d="M134.74,39.6l5.751,13s3.177-.646,7.413,2.24c2.812,1.906,3.331,4.951,4.141,5.968.5.62,2.118-.212,2.791-.6A3.1,3.1,0,0,0,156.5,57.7c.048-2.393-3.209-6.714-3.209-6.714s-.948-.757.429-1.334l4.919-2.044a2.865,2.865,0,0,0,1.488-1.356,2.155,2.155,0,0,0,0-2.039c-.927-1.811-2.261-2.235-2.425-2.648a3.871,3.871,0,0,0-.773-2.277c-.863-.969-1.059-.768-1.3-1.308a9.436,9.436,0,0,0-1.589-2.579,4.321,4.321,0,0,0-1.25-.921,6.065,6.065,0,0,0-1.514-2.648c-1.271-1.017-4.882-.53-5.968.63-.53.53-3.145,2.462-4.384,3.384S136.339,39.708,134.74,39.6Z" transform="translate(-81.64 -31.275)" fill="#e0e0e0"/>
        <path id="Path_11042" data-name="Path 11042" d="M131.3,41.016l5.512,13.238s3.151-.646,7.413,2.235a23.77,23.77,0,0,1,5.3,4.723,1.631,1.631,0,0,0,2.06.429,2.483,2.483,0,0,0,1.4-2.272c.042-2.393-3.352-6.736-3.352-6.736s-.953-.763.429-1.334l4.909-2.028a2.886,2.886,0,0,0,1.488-1.356,2.155,2.155,0,0,0,0-2.039c-.927-1.811-2.261-2.24-2.425-2.648a3.881,3.881,0,0,0-.773-2.277c-.863-.969-1.059-.768-1.3-1.313a9.494,9.494,0,0,0-1.589-2.573,4.3,4.3,0,0,0-1.276-.89,7.21,7.21,0,0,0-1.509-2.648c-.921-.81-3.22-.53-3.908-.222s-5.205,3.32-6.444,4.236S132.9,41.106,131.3,41.016Z" transform="translate(-80.021 -32.086)" fill="#ebebeb"/>
        <path id="Path_11043" data-name="Path 11043" d="M169.651,71.869a9.589,9.589,0,0,1-1.742-.646,8.96,8.96,0,0,1-1.689-.773,6.259,6.259,0,0,1,1.779.53A6.057,6.057,0,0,1,169.651,71.869Z" transform="translate(-96.45 -49.706)" fill="#ebebeb"/>
        <path id="Path_11044" data-name="Path 11044" d="M171.767,75.23a11.95,11.95,0,0,1-1.589-.53,5.661,5.661,0,0,1-1.589-.641,6.735,6.735,0,0,1,1.647.408A4.168,4.168,0,0,1,171.767,75.23Z" transform="translate(-97.565 -51.405)" fill="#ebebeb"/>
        <path id="Path_11045" data-name="Path 11045" d="M173.271,78.637a10.462,10.462,0,0,1-1.319-.355,3.087,3.087,0,0,1-1.292-.492,6,6,0,0,1,1.35.259,2.552,2.552,0,0,1,1.26.588Z" transform="translate(-98.539 -53.16)" fill="#ebebeb"/>
        <path id="Path_11046" data-name="Path 11046" d="M173.906,81.778a2.24,2.24,0,0,1-1-.2c-.53-.169-.943-.36-.921-.424a2.16,2.16,0,0,1,1,.2C173.514,81.524,173.927,81.714,173.906,81.778Z" transform="translate(-99.164 -54.743)" fill="#ebebeb"/>
        <path id="Path_11047" data-name="Path 11047" d="M173.3,84.354c0,.069-.281.069-.6,0s-.577-.164-.561-.228.286-.069.6,0S173.315,84.29,173.3,84.354Z" transform="translate(-99.235 -56.117)" fill="#ebebeb"/>
        <path id="Path_11048" data-name="Path 11048" d="M168.333,68.412a4.835,4.835,0,0,1-2.033-.662,4.834,4.834,0,0,1,2.033.662Z" transform="translate(-96.488 -48.436)" fill="#ebebeb"/>
        <path id="Path_11049" data-name="Path 11049" d="M178.191,53.275a8.049,8.049,0,0,1-1.959-.286,8.155,8.155,0,0,1-1.912-.53,16.106,16.106,0,0,1,3.871.815Z" transform="translate(-100.261 -41.242)" fill="#ebebeb"/>
        <path id="Path_11050" data-name="Path 11050" d="M181.2,57.862a3.1,3.1,0,0,1-1.181-.127,2.928,2.928,0,0,1-1.128-.365,3.108,3.108,0,0,1,1.181.127A2.976,2.976,0,0,1,181.2,57.862Z" transform="translate(-102.411 -43.547)" fill="#ebebeb"/>
        <path id="Path_11051" data-name="Path 11051" d="M175.144,47.993a5.888,5.888,0,0,1-2.854-.593,6.132,6.132,0,0,1,1.44.244,6.032,6.032,0,0,1,1.414.349Z" transform="translate(-99.306 -38.862)" fill="#ebebeb"/>
        <path id="Path_11052" data-name="Path 11052" d="M171.831,43.625a4.3,4.3,0,0,1-1.43-.238,4.236,4.236,0,0,1-1.371-.477,4.575,4.575,0,0,1,1.43.244,4.485,4.485,0,0,1,1.371.471Z" transform="translate(-97.772 -36.749)" fill="#ebebeb"/>
        <path id="Path_11053" data-name="Path 11053" d="M167.953,38.323a8.256,8.256,0,0,1-1.652-.334,8.471,8.471,0,0,1-1.631-.429,7.562,7.562,0,0,1,3.283.763Z" transform="translate(-95.721 -34.232)" fill="#ebebeb"/>
        <path id="Path_11054" data-name="Path 11054" d="M164.26,33.935a12.475,12.475,0,0,1-1.949-.376,12.66,12.66,0,0,1-1.9-.492,5.989,5.989,0,0,1,1.959.259A6.222,6.222,0,0,1,164.26,33.935Z" transform="translate(-93.717 -32.117)" fill="#ebebeb"/>
        <path id="Path_11055" data-name="Path 11055" d="M64.342,343.851a17.206,17.206,0,0,0-10.665-1.3,8.876,8.876,0,0,0-5.263,2.351c-1.313,1.451-1.589,4.009-.053,5.258a5,5,0,0,0,3.32.842c2.817-.032,5.947-.53,8.2,1.17,1.281.964,2.118,2.573,3.675,3.05a3.594,3.594,0,0,0,3.993-1.779,6.2,6.2,0,0,0,.455-4.58,6.99,6.99,0,0,0-3.659-5.015Z" transform="translate(-40.508 -177.585)" fill="#ebebeb"/>
        <path id="Path_11056" data-name="Path 11056" d="M81.721,292.046c-1.98,2.833-5.825,1.9-7.625.169s-2.542-4.236-3.23-6.624c-1.589-5.459-3.177-11.189-1.986-16.749A9.256,9.256,0,0,1,71,264.294a4.864,4.864,0,0,1,4.607-1.536c1.943.53,3.177,2.415,4.024,4.236a39.989,39.989,0,0,1,3.945,17.119c0,2.764-.318,5.655-1.875,7.943" transform="translate(-50.458 -140.124)" fill="#ebebeb"/>
        <path id="Path_11057" data-name="Path 11057" d="M101.935,304.25a10.356,10.356,0,0,1-1.6-9.457,18.2,18.2,0,0,1,5.613-8.149,30.362,30.362,0,0,1,10.061-5.936,10.738,10.738,0,0,1,4.522-.768,4.766,4.766,0,0,1,3.8,2.3c1.059,2.017.042,4.469-1.059,6.465a76.6,76.6,0,0,1-6.608,10.061c-1.98,2.552-4.236,5.068-7.265,6.222s-6.153,1.022-7.752-1.059" transform="translate(-65.229 -148.261)" fill="#ebebeb"/>
        <path id="Path_11058" data-name="Path 11058" d="M80.6,375.683a6.3,6.3,0,0,1-.175-1.287c-.1-.937-.207-2.118-.344-3.516a51.765,51.765,0,0,0-.789-5.152,39.452,39.452,0,0,0-1.875-6.079,22.548,22.548,0,0,0-3.1-5.5,11.649,11.649,0,0,0-3.924-3.283,11.119,11.119,0,0,0-3.31-1.059,5.757,5.757,0,0,1-1.281-.185,6.381,6.381,0,0,1,1.308,0,9.911,9.911,0,0,1,3.442.895,11.48,11.48,0,0,1,4.141,3.294,21.632,21.632,0,0,1,3.219,5.613,37.132,37.132,0,0,1,1.859,6.18,43.069,43.069,0,0,1,.688,5.216c.111,1.488.154,2.7.175,3.532a5.989,5.989,0,0,1-.032,1.334Z" transform="translate(-49.205 -181.034)" fill="#e0e0e0"/>
        <path id="Path_11059" data-name="Path 11059" d="M87.452,342.163a2.288,2.288,0,0,1-.037-.6c0-.445,0-1.011,0-1.705,0-1.483,0-3.627-.074-6.275-.132-5.3-.588-11-1.472-19.031-.831-7.562-1.949-16.352-3.135-22.07-.249-1.3-.53-2.473-.747-3.495s-.424-1.912-.614-2.648-.291-1.223-.4-1.657a2.828,2.828,0,0,1-.106-.593,2.744,2.744,0,0,1,.207.561c.132.429.3.974.5,1.636s.445,1.589.7,2.616.53,2.187.826,3.484A193.565,193.565,0,0,1,86.4,312.864c.884,8.054,1.281,15.388,1.318,20.7.032,2.648,0,4.8-.1,6.285-.042.694-.074,1.26-.106,1.705a2.617,2.617,0,0,1-.064.609Z" transform="translate(-56.295 -150.219)" fill="#e0e0e0"/>
        <path id="Path_11060" data-name="Path 11060" d="M93.2,331.891a11.169,11.169,0,0,1,0-1.779c.069-1.149.228-2.807.53-4.835a63.678,63.678,0,0,1,1.589-7.043,58.1,58.1,0,0,1,2.944-8.329,44.418,44.418,0,0,1,8.647-13.466,22.06,22.06,0,0,1,2.039-1.89c.312-.265.588-.53.868-.736l.789-.53a12.291,12.291,0,0,1,1.5-.964,55.448,55.448,0,0,0-4.919,4.4,46.6,46.6,0,0,0-8.43,13.413,66.24,66.24,0,0,0-2.965,8.255c-.773,2.589-1.281,4.967-1.673,6.974s-.577,3.648-.71,4.766A11.316,11.316,0,0,1,93.2,331.891Z" transform="translate(-62.079 -154.091)" fill="#e0e0e0"/>
        <path id="Path_11061" data-name="Path 11061" d="M94.369,414.17,92.95,433.582H68.009L66.59,414.17Z" transform="translate(-49.576 -211.419)" fill="#e0e0e0"/>
        <rect id="Rectangle_5623" data-name="Rectangle 5623" width="33.159" height="7.652" transform="translate(14.038 195.099)" fill="#e0e0e0"/>
        <path id="Path_11062" data-name="Path 11062" d="M94.618,449.43v2.123H62.01V449.43Z" transform="translate(-47.422 -228.008)" fill="#ebebeb"/>
        <path id="Path_11063" data-name="Path 11063" d="M92.59,457.173l1.525-3.733H64.25l1.779,3.733Z" transform="translate(-48.476 -229.895)" fill="#e0e0e0"/>
        <path id="Path_11064" data-name="Path 11064" d="M67.47,423.737a1.76,1.76,0,0,0,.111.18l.376.492,1.451,1.859.064.085.064-.085,3.569-4.94h-.2l3.511,4.978.111.154.122-.143,4.173-4.962h-.244c.074.09.154.185.228.286l3.707,4.67.127.159.111-.164,3.516-4.972h-.2l4.331,4.935.074.09.058-.1,1.356-2.277.349-.609a1.475,1.475,0,0,0,.106-.212.752.752,0,0,0-.143.191c-.106.154-.228.344-.387.582l-1.424,2.235h.138l-4.236-4.993-.106-.127-.1.138-3.548,4.951h.238l-3.707-4.676-.228-.291-.117-.148-.122.148-4.157,4.967h.233l-3.553-4.951-.1-.148-.1.148-3.495,4.988h.127l-1.514-1.811-.4-.466A1.263,1.263,0,0,0,67.47,423.737Z" transform="translate(-49.991 -214.642)" fill="#f5f5f5"/>
        <path id="Path_11065" data-name="Path 11065" d="M65.94,413.789c0,.085,6.248.154,13.953.154s13.958-.069,13.958-.154-6.248-.159-13.958-.159S65.94,413.7,65.94,413.789Z" transform="translate(-49.271 -211.165)" fill="#f5f5f5"/>
        <path id="Path_11066" data-name="Path 11066" d="M63.56,453.694c0,.085,6.788.154,15.165.154s15.171-.069,15.171-.154-6.788-.154-15.171-.154S63.56,453.609,63.56,453.694Z" transform="translate(-48.151 -229.942)" fill="#f5f5f5"/>
        <circle id="Ellipse_102" data-name="Ellipse 102" cx="16.897" cy="16.897" r="16.897" transform="translate(146.195 94.93)" fill="#ebebeb"/>
        <path id="Path_11067" data-name="Path 11067" d="M352.09,237c.286,0,.6.424.837,1.3a10.109,10.109,0,0,1,.138,3.775,15.064,15.064,0,0,1-1.827,5.38,15.843,15.843,0,0,1-11.273,7.943,15.021,15.021,0,0,1-5.682-.1,9.977,9.977,0,0,1-3.511-1.4c-.741-.53-1.059-.958-.943-1.229.244-.582,2.044-.254,4.729-.4a16.823,16.823,0,0,0,15.568-10.961C351.158,238.843,351.46,237.037,352.09,237Z" transform="translate(-173.414 -128.065)" fill="#e0e0e0"/>
        <path id="Path_11068" data-name="Path 11068" d="M337.337,243.966a7.233,7.233,0,0,0,4.66-2.092,4.157,4.157,0,0,0,1.218-2.849,2.235,2.235,0,0,0-1.827-2.076,3.177,3.177,0,0,0-1.986.646,6.122,6.122,0,0,1-1.88.974,5,5,0,0,1-2.944-.561,5.366,5.366,0,0,0-2.939-.63,1.933,1.933,0,0,0-1.589,1.1,2.711,2.711,0,0,0,.529,2.573A7.535,7.535,0,0,0,337.337,243.966Z" transform="translate(-173.472 -128.04)" fill="#fff"/>
        <path id="Path_11069" data-name="Path 11069" d="M327.014,231.275a1.53,1.53,0,0,0-1.536-.8,1.059,1.059,0,0,0-.53.175h0a1.663,1.663,0,0,0-.62,1.589,1.483,1.483,0,0,0,1.885,1.059,1.52,1.52,0,0,0,.8-2.017Z" transform="translate(-170.827 -124.987)" fill="#fff"/>
        <path id="Path_11070" data-name="Path 11070" d="M357.374,231.415a1.53,1.53,0,0,0-1.536-.8.985.985,0,0,0-.529.175h0a1.663,1.663,0,0,0-.62,1.589,1.483,1.483,0,0,0,1.885,1.059,1.525,1.525,0,0,0,.8-2.017Z" transform="translate(-185.11 -125.053)" fill="#fff"/>
        <circle id="Ellipse_103" data-name="Ellipse 103" cx="12.624" cy="12.624" r="12.624" transform="translate(153.212 6.791)" fill="#ebebeb"/>
        <path id="Path_11071" data-name="Path 11071" d="M354.847,63.87c.217,0,.45.318.625.974a7.414,7.414,0,0,1,.1,2.8,11.215,11.215,0,0,1-1.361,4.019,11.824,11.824,0,0,1-8.425,5.936,11.253,11.253,0,0,1-4.236-.069,7.5,7.5,0,0,1-2.621-1.059c-.556-.381-.789-.715-.7-.916.185-.434,1.53-.191,3.532-.3a12.587,12.587,0,0,0,11.618-8.144C354.153,65.247,354.375,63.9,354.847,63.87Z" transform="translate(-177.367 -46.61)" fill="#e0e0e0"/>
        <path id="Path_11072" data-name="Path 11072" d="M342.659,63.829a5.407,5.407,0,0,0-3.468,1.557,3.114,3.114,0,0,0-.911,2.118,1.673,1.673,0,0,0,1.366,1.551,2.409,2.409,0,0,0,1.483-.482,4.555,4.555,0,0,1,1.4-.731,3.67,3.67,0,0,1,2.2.418,3.956,3.956,0,0,0,2.2.471,1.435,1.435,0,0,0,1.2-.821,2.039,2.039,0,0,0-.381-1.922A5.629,5.629,0,0,0,342.659,63.829Z" transform="translate(-177.401 -46.574)" fill="#fff"/>
        <path id="Path_11073" data-name="Path 11073" d="M336.111,59.608a1.154,1.154,0,0,0-1.149-.614.8.8,0,0,0-.387.132h0a1.244,1.244,0,0,0-.461,1.186,1.107,1.107,0,0,0,1.409.794,1.133,1.133,0,0,0,.588-1.5Z" transform="translate(-175.433 -44.313)" fill="#fff"/>
        <path id="Path_11074" data-name="Path 11074" d="M358.786,59.7a1.128,1.128,0,0,0-1.144-.6.725.725,0,0,0-.392.132h0a1.229,1.229,0,0,0-.466,1.181,1.112,1.112,0,0,0,1.408.8,1.138,1.138,0,0,0,.593-1.509Z" transform="translate(-186.099 -44.358)" fill="#fff"/>
        <circle id="Ellipse_104" data-name="Ellipse 104" cx="11.247" cy="11.247" r="11.247" transform="translate(0 90.81)" fill="#ebebeb"/>
        <path id="Path_11075" data-name="Path 11075" d="M62.085,220.38c.191,0,.4.286.53.863a6.661,6.661,0,0,1,.09,2.515,9.982,9.982,0,0,1-1.213,3.58,10.532,10.532,0,0,1-7.509,5.3,10.019,10.019,0,0,1-3.781-.064,6.735,6.735,0,0,1-2.335-.932c-.492-.344-.7-.641-.63-.815.164-.387,1.366-.169,3.177-.265a11.211,11.211,0,0,0,10.363-7.3C61.465,221.6,61.667,220.4,62.085,220.38Z" transform="translate(-40.465 -120.245)" fill="#e0e0e0"/>
        <path id="Path_11076" data-name="Path 11076" d="M52.284,225.034a4.819,4.819,0,0,0,3.1-1.393,2.764,2.764,0,0,0,.81-1.869,1.488,1.488,0,0,0-1.218-1.382,2.118,2.118,0,0,0-1.319.429,4.146,4.146,0,0,1-1.25.651,3.309,3.309,0,0,1-1.965-.376,3.506,3.506,0,0,0-1.954-.418,1.287,1.287,0,0,0-1.059.731,1.8,1.8,0,0,0,.339,1.71,5.009,5.009,0,0,0,4.512,1.917Z" transform="translate(-40.524 -120.25)" fill="#fff"/>
        <path id="Path_11077" data-name="Path 11077" d="M45.4,216.593a1.017,1.017,0,0,0-1.022-.53.688.688,0,0,0-.349.116h0a1.1,1.1,0,0,0-.408,1.059.974.974,0,0,0,1.25.7,1.011,1.011,0,0,0,.53-1.35Z" transform="translate(-38.764 -118.21)" fill="#fff"/>
        <path id="Path_11078" data-name="Path 11078" d="M65.634,216.662a1.006,1.006,0,0,0-1.022-.53.689.689,0,0,0-.349.117h0a1.091,1.091,0,0,0-.408,1.059.985.985,0,0,0,1.25.71,1.017,1.017,0,0,0,.53-1.356Z" transform="translate(-48.281 -118.243)" fill="#fff"/>
        <rect id="Rectangle_5624" data-name="Rectangle 5624" width="18.856" height="20" transform="matrix(1, -0.005, 0.005, 1, 175.006, 191.16)" fill="#ebebeb"/>
        <rect id="Rectangle_5625" data-name="Rectangle 5625" width="18.856" height="20" transform="matrix(1, -0.005, 0.005, 1, 193.771, 191.059)" fill="#f5f5f5"/>
        <path id="Path_11079" data-name="Path 11079" d="M364.872,402.2q18.8.148,37.6-.175a.2.2,0,0,0,0-.4c-12.528-.069-25.089,0-37.6.233a.175.175,0,0,0,0,.344Z" transform="translate(-189.844 -205.506)" fill="#e0e0e0"/>
        <rect id="Rectangle_5626" data-name="Rectangle 5626" width="34.255" height="16.299" transform="matrix(1, -0.005, 0.005, 1, 163.246, 210.916)" fill="#ebebeb"/>
        <rect id="Rectangle_5627" data-name="Rectangle 5627" width="34.255" height="16.299" transform="matrix(1, -0.005, 0.005, 1, 197.34, 210.727)" fill="#f5f5f5"/>
        <path id="Path_11080" data-name="Path 11080" d="M342.652,437.45c22.769.259,45.592,0,68.345-.334a.2.2,0,0,0,0-.4c-22.769-.122-45.592-.106-68.345.392a.175.175,0,0,0,0,.344Z" transform="translate(-179.39 -221.996)" fill="#e0e0e0"/>
      </g>
      <g id="freepik--Character--inject-18" transform="translate(4.957 27.835)">
        <path id="Path_11081" data-name="Path 11081" d="M259.248,253.737l-26.894-8.626L200.164,245s-24.84,7.747-27.858,9.346L170.919,321.3l-1.059,38.173,87.731-.466V312.779Z" transform="translate(-100.7 -159.664)" fill="#90caf9"/>
        <path id="Path_11082" data-name="Path 11082" d="M150.533,262.63a57.463,57.463,0,0,0-15.24,22.049c-3.58,9.457-11.713,30.442-11.713,30.442l25.486,9.034,5.761-40.678Z" transform="translate(-78.926 -167.958)" fill="#90caf9"/>
        <path id="Path_11083" data-name="Path 11083" d="M326.019,259.61s6.635.567,13.143,10.993c4.586,7.36,15.764,39.56,15.764,39.56l-29.415,10.278-7.1-5.47Z" transform="translate(-170.59 -166.537)" fill="#90caf9"/>
        <path id="Path_11084" data-name="Path 11084" d="M171.738,293.9c.079,0,.138,11.284.138,25.195s-.058,25.2-.138,25.2-.138-11.279-.138-25.2S171.664,293.9,171.738,293.9Z" transform="translate(-101.519 -182.67)" fill="#263238"/>
        <path id="Path_11085" data-name="Path 11085" d="M163.378,292.979a4.544,4.544,0,0,1-1.319-.461,11.612,11.612,0,0,1-4.951-4.453,4.389,4.389,0,0,1-.6-1.255,14.514,14.514,0,0,0,6.884,6.169Z" transform="translate(-94.419 -179.334)" fill="#fff"/>
        <path id="Path_11086" data-name="Path 11086" d="M258.884,302.666a.875.875,0,0,1-.2.106l-.588.3-2.277,1.1-1.652.794c-.609.27-1.287.53-2.012.821-1.451.572-3.076,1.3-4.956,1.875l-2.928.974c-1.022.328-2.118.577-3.225.89l-1.7.45c-.291.074-.577.164-.874.228l-.9.185-3.707.763a93.841,93.841,0,0,1-33.64-.011l-3.707-.757-.9-.185c-.291-.069-.582-.154-.874-.228l-1.7-.455c-1.112-.312-2.2-.561-3.225-.89l-2.923-.974c-1.885-.577-3.511-1.308-4.962-1.874-.72-.3-1.4-.556-2.012-.826l-1.647-.789-2.277-1.1-.588-.291a1,1,0,0,1-.2-.111l.207.085.6.27,2.3,1.059,1.657.768c.614.265,1.292.53,2.017.8,1.456.556,3.082,1.271,4.962,1.832l2.928.953c1.017.328,2.118.572,3.219.874l1.7.45c.291.069.577.154.874.222l.895.18,3.707.747a95.521,95.521,0,0,0,33.529-.021l3.707-.747.895-.18c.3-.064.588-.148.874-.222l1.7-.445c1.112-.307,2.2-.53,3.22-.874l2.928-.953c1.88-.561,3.505-1.276,4.962-1.832.725-.286,1.409-.53,2.017-.8l1.657-.768,2.3-1.059.6-.265Z" transform="translate(-103.222 -186.787)" fill="#fff"/>
        <path id="Path_11087" data-name="Path 11087" d="M348.119,285.17a3.76,3.76,0,0,1-.334.371c-.228.228-.577.529-1.011.916a35.1,35.1,0,0,1-3.6,2.706,35.905,35.905,0,0,1-3.908,2.235c-.53.249-.948.44-1.244.561a1.8,1.8,0,0,1-.477.164,15.075,15.075,0,0,1,1.631-.9c1.006-.529,2.383-1.329,3.844-2.288s2.727-1.917,3.627-2.648a15.792,15.792,0,0,1,1.467-1.117Z" transform="translate(-179.595 -178.563)" fill="#fff"/>
        <path id="Path_11088" data-name="Path 11088" d="M162.253,303.243a1.545,1.545,0,0,1-.492-.085,11.188,11.188,0,0,1-1.3-.4,15.848,15.848,0,0,1-7.133-5.269,10.936,10.936,0,0,1-.763-1.123,1.858,1.858,0,0,1-.228-.445c.042,0,.424.572,1.144,1.451a18,18,0,0,0,7.048,5.205C161.58,303.01,162.263,303.2,162.253,303.243Z" transform="translate(-92.457 -183.62)" fill="#fff"/>
        <path id="Path_11089" data-name="Path 11089" d="M257.205,317.585l-.2.1-.588.281-2.266,1.059-1.642.752c-.609.259-1.281.5-2,.773-1.446.53-3.061,1.223-4.93,1.747l-2.912.895c-1.011.3-2.118.53-3.177.8l-1.694.408c-.286.064-.572.143-.863.2l-.895.154-3.707.657a89.583,89.583,0,0,1-33.159-1.138l-3.643-.9-.874-.217c-.291-.074-.572-.175-.853-.259l-1.663-.53c-1.085-.35-2.15-.641-3.14-1.011l-2.844-1.086c-1.832-.646-3.4-1.446-4.8-2.07-.7-.323-1.361-.609-1.949-.905l-1.589-.858-2.192-1.191-.567-.318-.191-.116a.962.962,0,0,1,.2.09l.582.291,2.213,1.149,1.589.837c.593.286,1.255.567,1.954.884,1.408.609,2.981,1.393,4.808,2.028l2.844,1.059c.99.365,2.055.651,3.14,1l1.657.529c.281.085.561.18.853.259l.874.212,3.633.884a90.232,90.232,0,0,0,33.084,1.112l3.707-.641.884-.154c.3-.053.582-.132.868-.2l1.689-.4c1.1-.275,2.182-.487,3.177-.784l2.912-.879c1.869-.53,3.484-1.181,4.935-1.7.715-.27,1.4-.53,2.007-.752l1.647-.725,2.288-1,.593-.249A1,1,0,0,1,257.205,317.585Z" transform="translate(-103.057 -192.508)" fill="#fff"/>
        <path id="Path_11090" data-name="Path 11090" d="M351.135,291.84a2.646,2.646,0,0,1-.461.492c-.307.307-.763.736-1.334,1.255-1.149,1.059-2.78,2.425-4.655,3.86s-3.643,2.648-4.946,3.479c-.651.418-1.181.747-1.557.964a3.211,3.211,0,0,1-.593.312,3.056,3.056,0,0,1,.53-.4l1.509-1.059c1.271-.874,3.013-2.118,4.882-3.537s3.516-2.785,4.692-3.786l1.4-1.186A3.871,3.871,0,0,1,351.135,291.84Z" transform="translate(-179.613 -181.701)" fill="#fff"/>
        <path id="Path_11091" data-name="Path 11091" d="M211.831,398.466a1.718,1.718,0,0,1-.387.042l-1.117.069c-.482.037-1.059.058-1.763.069s-1.467.037-2.335.032c-1.732,0-3.8-.064-6.084-.185s-4.792-.365-7.413-.683-5.11-.736-7.36-1.154-4.268-.868-5.947-1.308c-.842-.2-1.589-.413-2.256-.6s-1.234-.344-1.694-.492l-1.059-.344a3.389,3.389,0,0,1-.365-.132,1.623,1.623,0,0,1,.381.079l1.059.291c.461.132,1.059.286,1.7.45s1.424.371,2.266.561c1.679.408,3.707.815,5.941,1.244s4.734.794,7.355,1.128,5.12.53,7.413.7,4.342.233,6.068.244h5.21A2.248,2.248,0,0,1,211.831,398.466Z" transform="translate(-102.671 -229.662)" fill="#fff"/>
        <path id="Path_11092" data-name="Path 11092" d="M204.126,409.937a1.4,1.4,0,0,1-.334.032l-.948.032h-1.5c-.582,0-1.255,0-1.991-.042-1.477-.042-3.23-.18-5.173-.36s-4.072-.471-6.3-.815c-4.453-.7-8.446-1.536-11.326-2.171-1.44-.318-2.6-.588-3.4-.778l-.921-.233a1.318,1.318,0,0,1-.318-.1,2.434,2.434,0,0,1,.334.048l.932.18,3.421.694c2.886.588,6.884,1.387,11.326,2.092,2.219.339,4.342.62,6.28.831s3.707.349,5.152.418c.736.048,1.4.064,1.986.085s1.091.037,1.5.037h.948a1.5,1.5,0,0,1,.334.053Z" transform="translate(-101.664 -235.176)" fill="#fff"/>
        <path id="Path_11093" data-name="Path 11093" d="M294.113,391.68l-.116.037-.344.085-1.334.312c-1.16.27-2.844.625-4.93,1.027-4.167.81-9.971,1.753-16.415,2.42s-12.327.932-16.579.99c-2.118.032-3.844.032-5.03,0L248,396.52h1.366c1.186,0,2.907-.037,5.03-.09,4.236-.111,10.1-.408,16.547-1.059s12.243-1.589,16.415-2.341c2.086-.381,3.775-.7,4.94-.943l1.34-.259.355-.058A.27.27,0,0,1,294.113,391.68Z" transform="translate(-137.237 -228.674)" fill="#fff"/>
        <path id="Path_11094" data-name="Path 11094" d="M288.862,405.52a.477.477,0,0,1-.132.042l-.392.079-1.514.291c-1.313.244-3.219.582-5.581.958s-5.173.794-8.308,1.207-6.593.768-10.23,1.059-7.117.4-10.283.429-6.01-.085-8.393-.3c-.6-.053-1.165-.09-1.7-.143l-1.514-.18L239.5,408.8c-.4-.058-.768-.127-1.1-.18l-1.52-.265-.392-.079a.439.439,0,0,1-.132-.032.392.392,0,0,1,.138,0l.4.048,1.525.217c.328.042.694.106,1.1.154l1.319.138,1.509.159c.53.048,1.1.079,1.7.122,2.378.191,5.221.244,8.377.244s6.624-.185,10.262-.45,7.085-.651,10.22-1.027,5.952-.784,8.313-1.144,4.268-.662,5.592-.874l1.52-.238.4-.058Z" transform="translate(-131.987 -235.185)" fill="#fff"/>
        <path id="Path_11095" data-name="Path 11095" d="M259.843,352.7a1.43,1.43,0,0,1-.122.116l-.387.334-1.493,1.239-5.5,4.559c-4.639,3.855-11.014,9.219-17.967,15.245s-13.169,11.581-17.644,15.626l-5.3,4.8-1.44,1.3-.381.334a1.445,1.445,0,0,1-.132.106.845.845,0,0,1,.117-.127l.36-.355,1.409-1.34c1.223-1.16,3.008-2.822,5.232-4.861,4.443-4.083,10.638-9.664,17.591-15.7s13.36-11.369,18.03-15.181c2.335-1.911,4.236-3.442,5.56-4.49L259.3,353.1l.4-.307A.623.623,0,0,1,259.843,352.7Z" transform="translate(-119.34 -210.334)" fill="#263238"/>
        <g id="Group_12931" data-name="Group 12931" transform="translate(96.092 147.73)" opacity="0.3">
          <path id="Path_11096" data-name="Path 11096" d="M238.951,379.552,220.72,395.629c15.7-7.111,29.124-17.935,37.829-32.8Z" transform="translate(-220.72 -362.83)"/>
        </g>
        <g id="Group_12932" data-name="Group 12932" transform="translate(156.875 120.814)" opacity="0.3">
          <path id="Path_11097" data-name="Path 11097" d="M335.51,344.3c3.94-7.99,4.03-23.654.048-32.3.238,9.711.217,22.605-.048,32.3" transform="translate(-335.51 -312)"/>
        </g>
        <path id="Path_11098" data-name="Path 11098" d="M335.383,297.37c.074,0,.138,19.312.138,43.129s-.064,43.135-.138,43.135-.143-19.312-.143-43.135S335.3,297.37,335.383,297.37Z" transform="translate(-178.508 -184.303)" fill="#263238"/>
        <path id="Path_11099" data-name="Path 11099" d="M250.351,133.551c1.3-2.859,2.648-5.825,2.817-8.965s-1.027-6.6-3.707-8.1c-2.489-1.377-5.6-.826-8.25-1.837-3.267-1.25-5.3-4.617-6.667-7.916s.672-4.443-1.742-7.037c-3.2-3.437-5.327-3.966-9.531-2.007-2.939-2.182-13.238-6.254-16.225-6.413-4.437-.238-9.5,0-12.677,3.119-2.462,2.415-4.061,5.523-7.053,7.233-4.114,2.356-9.251.159-13.99.228-.969,0-2.118.233-2.521,1.107a3.008,3.008,0,0,0,.328,2.4q1.747,3.86,3.49,7.726a7.281,7.281,0,0,1-6.354-.3,21.557,21.557,0,0,0,5.327,13.683,1.848,1.848,0,0,0-2.547.905,4.632,4.632,0,0,0-.026,3.029,22.187,22.187,0,0,0,29.8,15.282l26.084,2.558a6.667,6.667,0,0,0,4.406,4.284c2.976-2.118,3.474-3.3,3.474-3.3,1.769,1.382.371.673,1.769,1.382,3.2,1.589,8.038-.111,8.848-3.707a7.642,7.642,0,0,1,1.827-3.945c1.038-1.006,2.542-1.4,3.86-2.023a10.781,10.781,0,0,0,4.9-4.766,7.763,7.763,0,0,1-5.634-2.626Z" transform="translate(-99.952 -87.309)" fill="#263238"/>
        <path id="Path_11100" data-name="Path 11100" d="M225.228,99.33l-1.313.064a25.385,25.385,0,0,0-24.1,24.575c-.371,12.306-.62,25.909-.206,32.481.853,13.6,14.567,15.033,14.567,15.033,0,.143-.042,2.182-.117,4.972a15.97,15.97,0,0,0,15.96,16.415h0a15.965,15.965,0,0,0,15.965-15.723l.778-51.362C247.267,111.562,239.43,99.441,225.228,99.33Z" transform="translate(-114.596 -91.129)" fill="#b29180"/>
        <path id="Path_11101" data-name="Path 11101" d="M227.31,230.142a33.018,33.018,0,0,0,17.474-6.132s-3.823,10.156-17.474,9.616Z" transform="translate(-127.729 -149.788)" fill="#684c3e" opacity="0.53"/>
        <path id="Path_11102" data-name="Path 11102" d="M243.751,155.3c.265.281,1.859-.948,4.136-.958s3.95,1.144,4.194.858c.122-.127-.148-.635-.879-1.176a5.708,5.708,0,0,0-3.357-1.033,5.5,5.5,0,0,0-3.294,1.112C243.868,154.657,243.624,155.171,243.751,155.3Z" transform="translate(-135.449 -116.374)" fill="#263238"/>
        <path id="Path_11103" data-name="Path 11103" d="M247.62,163.779a1.843,1.843,0,0,0,1.864,1.763,1.753,1.753,0,0,0,1.811-1.753A1.843,1.843,0,0,0,249.41,162a1.763,1.763,0,0,0-1.79,1.779Z" transform="translate(-137.284 -120.613)" fill="#263238"/>
        <path id="Path_11104" data-name="Path 11104" d="M227.546,171.483a13.891,13.891,0,0,0-3.426-.44c-.53-.032-1.059-.111-1.16-.471a3.115,3.115,0,0,1,.281-1.589q.651-1.98,1.371-4.146c1.9-5.9,3.251-10.739,3.013-10.818s-1.975,4.649-3.876,10.548q-.683,2.187-1.308,4.167a3.131,3.131,0,0,0-.169,2.118,1.345,1.345,0,0,0,.916.736,3.648,3.648,0,0,0,.916.079A15.356,15.356,0,0,0,227.546,171.483Z" transform="translate(-125.296 -116.859)" fill="#263238"/>
        <path id="Path_11105" data-name="Path 11105" d="M244.759,139.042c.212.53,2.039.169,4.236.328s3.961.683,4.236.207c.117-.233-.212-.7-.943-1.17A7.148,7.148,0,0,0,245.86,138C245.05,138.369,244.669,138.788,244.759,139.042Z" transform="translate(-135.932 -109.051)" fill="#263238"/>
        <path id="Path_11106" data-name="Path 11106" d="M204.985,146.814c.233.418,2.017,0,4.167,0s3.929.3,4.167-.127c.106-.206-.244-.582-.985-.927a7.593,7.593,0,0,0-3.177-.593,7.778,7.778,0,0,0-3.177.7C205.239,146.226,204.884,146.618,204.985,146.814Z" transform="translate(-117.218 -112.693)" fill="#263238"/>
        <path id="Path_11107" data-name="Path 11107" d="M287.71,167.845c.222-.111,9.208-3.235,9.383,6.084s-9.23,7.567-9.23,7.3S287.71,167.845,287.71,167.845Z" transform="translate(-156.146 -123.086)" fill="#b29180"/>
        <path id="Path_11108" data-name="Path 11108" d="M293.223,180.31c.037-.032.164.111.439.233a1.626,1.626,0,0,0,1.213,0c.98-.381,1.779-1.959,1.8-3.638a5.4,5.4,0,0,0-.5-2.314,1.869,1.869,0,0,0-1.244-1.223.815.815,0,0,0-.948.461c-.122.265-.058.45-.111.466s-.2-.154-.132-.53a1.059,1.059,0,0,1,.355-.593,1.234,1.234,0,0,1,.895-.249,2.266,2.266,0,0,1,1.721,1.414,5.5,5.5,0,0,1,.614,2.584c-.026,1.88-.958,3.654-2.3,4.067a1.737,1.737,0,0,1-1.488-.217C293.244,180.532,293.191,180.326,293.223,180.31Z" transform="translate(-158.736 -125.749)" fill="#8a6c5c"/>
        <path id="Path_11109" data-name="Path 11109" d="M251.248,113.807c-1.864-3.325-2.229-7.254-3.2-10.94s-2.934-7.53-6.5-8.88l-.085.032c-3.177-1.371-7.17-1.477-9.87.7-.53-4.85-4.7-8.779-9.4-10.124s-12.285-.789-16.865.921c-3.532,1.329-6.984,4.141-11.194,8.292a45.479,45.479,0,0,0-4.877,5.65l-4.4,12.587a5.448,5.448,0,0,0-1.181,1.133,2.39,2.39,0,0,0,3.421,3.272l.037-.032c.408.731.7,1.467,1.027,2.2h0l.069.138c.2.455.413.916.662,1.366h0l2.859,14.085c.286-3.818.307-17.119.593-20.937a21.329,21.329,0,0,0,15.356-6.672c2.118-2.266,3.85-5.126,6.672-6.444,3.638-1.7,7.9-.307,11.649,1.1l-.159-.148a16.945,16.945,0,0,1,5.173,3.913,52.951,52.951,0,0,0,1.822,22.478c.328,1.1,1.25,3.347,2.309,3.786,2.07.853,2.679-1.266,3.966-2.367.943-.81,2.319-.89,3.823-.847a84.22,84.22,0,0,0,2.775-9.606,8.472,8.472,0,0,0,3.9.349L248.5,115.9a4.342,4.342,0,0,0,1.652.794,1.509,1.509,0,0,0,1.589-.657C252.106,115.337,251.64,114.506,251.248,113.807Z" transform="translate(-106.97 -83.842)" fill="#263238"/>
        <path id="Path_11110" data-name="Path 11110" d="M266.46,107.13a11.121,11.121,0,0,1,1.334,1.276,9.733,9.733,0,0,1,1.986,4.554,17.257,17.257,0,0,1,.27,3.458c-.026,1.25-.154,2.589-.281,4a35.487,35.487,0,0,0-.207,4.448,16.353,16.353,0,0,0,.254,2.356,4.876,4.876,0,0,0,.911,2.3,2.055,2.055,0,0,0,1.9.688,3.055,3.055,0,0,0,1.742-.911,7.017,7.017,0,0,0,1.387-3.426l-.286.032a11.58,11.58,0,0,0,1.589,2.881,4.061,4.061,0,0,0,2.611,1.5,2.573,2.573,0,0,0,1.4-.217,2.256,2.256,0,0,0,.974-.911,2.309,2.309,0,0,0,.312-1.2,1.668,1.668,0,0,0-.408-1.059l-.148.127a8.859,8.859,0,0,0,2.865,2.256,8.478,8.478,0,0,0,.9.371,1.394,1.394,0,0,0,.323.085,1.994,1.994,0,0,0-.307-.138,9.273,9.273,0,0,1-.868-.413,9.076,9.076,0,0,1-2.764-2.282l-.148.122a1.742,1.742,0,0,1,.048,2.023,2.039,2.039,0,0,1-.879.81,2.351,2.351,0,0,1-1.276.175,3.77,3.77,0,0,1-2.42-1.419,11.118,11.118,0,0,1-1.525-2.822l-.185-.439-.1.471a7.04,7.04,0,0,1-1.324,3.267,2.716,2.716,0,0,1-1.589.837,1.71,1.71,0,0,1-1.589-.582,4.586,4.586,0,0,1-.837-2.15,15.711,15.711,0,0,1-.254-2.309,36.226,36.226,0,0,1,.185-4.411c.116-1.409.238-2.754.249-4.019a16.512,16.512,0,0,0-.312-3.505,9.564,9.564,0,0,0-2.118-4.591A5.371,5.371,0,0,0,266.46,107.13Z" transform="translate(-146.148 -94.799)" fill="#455a64"/>
        <path id="Path_11111" data-name="Path 11111" d="M186.57,112.475a.53.53,0,0,0,.106.1l.334.254a4.8,4.8,0,0,0,.572.387,6.96,6.96,0,0,0,.815.45,11.967,11.967,0,0,0,5.814,1.176A15.356,15.356,0,0,0,202.472,112a26.74,26.74,0,0,0,7.223-7.943c1.027-1.62,1.869-3.288,2.791-4.824a17.909,17.909,0,0,1,3.129-4.067,9.251,9.251,0,0,1,3.966-2.288,6.619,6.619,0,0,1,2.07-.191,7.371,7.371,0,0,1,1.88.408,7.837,7.837,0,0,1,4.279,3.786,9.912,9.912,0,0,1,.657,2.055.582.582,0,0,0,0-.143c0-.111-.032-.249-.053-.418a6.725,6.725,0,0,0-.482-1.546,7.811,7.811,0,0,0-1.472-2.092,7.943,7.943,0,0,0-2.844-1.853,7.461,7.461,0,0,0-1.938-.44,6.815,6.815,0,0,0-2.15.18,9.473,9.473,0,0,0-4.136,2.309,18.2,18.2,0,0,0-3.177,4.12c-.932,1.551-1.779,3.214-2.791,4.819a26.659,26.659,0,0,1-7.122,7.885,15.308,15.308,0,0,1-8.107,2.859,12.232,12.232,0,0,1-5.724-1.059,18.415,18.415,0,0,1-1.9-1.08Z" transform="translate(-108.562 -87.879)" fill="#455a64"/>
        <path id="Path_11112" data-name="Path 11112" d="M184.49,118.995a2,2,0,0,0,.482.349,10.38,10.38,0,0,0,1.424.768,13.77,13.77,0,0,0,2.266.8,15.828,15.828,0,0,0,2.912.455,15.991,15.991,0,0,0,2.944-.138,14.268,14.268,0,0,0,2.335-.53,10.393,10.393,0,0,0,1.5-.609,1.97,1.97,0,0,0,.53-.3c-.026-.053-.784.318-2.081.688a16.211,16.211,0,0,1-2.314.477,18.125,18.125,0,0,1-2.886.106,17.473,17.473,0,0,1-2.859-.424,15.637,15.637,0,0,1-2.245-.72C185.237,119.376,184.522,118.931,184.49,118.995Z" transform="translate(-107.583 -100.378)" fill="#455a64"/>
        <path id="Path_11113" data-name="Path 11113" d="M204.559,156.01c.265.281,1.859-.943,4.136-.953s3.95,1.144,4.194.858c.122-.127-.148-.635-.879-1.176a5.708,5.708,0,0,0-3.357-1.059,5.5,5.5,0,0,0-3.294,1.112C204.665,155.374,204.427,155.888,204.559,156.01Z" transform="translate(-117.009 -116.699)" fill="#263238"/>
        <path id="Path_11114" data-name="Path 11114" d="M210.66,164.437a1.843,1.843,0,0,0,1.864,1.763,1.753,1.753,0,0,0,1.811-1.753,1.837,1.837,0,0,0-1.864-1.769,1.763,1.763,0,0,0-1.811,1.758Z" transform="translate(-119.895 -120.933)" fill="#263238"/>
        <path id="Path_11115" data-name="Path 11115" d="M229.47,194.25a38.552,38.552,0,0,1,5.491-1.017l1.356-.334h0a4.673,4.673,0,0,1,.042,3.971,3.807,3.807,0,0,1-2.706,1.589,2.753,2.753,0,0,1-2.182-.529s-1.679-.794-2-3.707" transform="translate(-128.745 -135.152)" fill="#684c3e" opacity="0.53"/>
        <path id="Path_11116" data-name="Path 11116" d="M232.713,198.239a4.448,4.448,0,0,0,2.017-.651,3.707,3.707,0,0,0,1.377-1.774,4.654,4.654,0,0,0,.169-2.748l-.037-.148.238.154c-2.017.312-3.839.567-5.163.731a10.4,10.4,0,0,1-2.145.18,10.9,10.9,0,0,1,2.118-.477c1.308-.244,3.124-.53,5.142-.863l.191-.032.048.185.042.164a4.893,4.893,0,0,1-.217,3,3.876,3.876,0,0,1-1.589,1.885,3.235,3.235,0,0,1-1.589.477C232.919,198.329,232.707,198.265,232.713,198.239Z" transform="translate(-128.604 -135.015)" fill="#263238"/>
        <path id="Path_11117" data-name="Path 11117" d="M233.2,198.322a1.186,1.186,0,0,1-.6-.1v-.1c0-.037.079-.042.217-.053a3.574,3.574,0,0,0,1.811-.6,3.664,3.664,0,0,0,1.356-1.742,4.57,4.57,0,0,0,.185-2.648c-1.859.286-3.59.53-4.909.7-2.2.275-2.208.207-2.224.122s0-.148,2.155-.53c1.366-.254,3.177-.561,5.147-.863l.249-.042.106.408a4.914,4.914,0,0,1-.217,3.045,3.913,3.913,0,0,1-1.636,1.917,3.262,3.262,0,0,1-1.589.492Zm-.18-.138h.233a3.177,3.177,0,0,0,1.551-.471,3.876,3.876,0,0,0,1.557-1.853,4.8,4.8,0,0,0,.212-2.96l-.074-.291h-.132c-1.954.307-3.781.614-5.142.863-.969.18-1.488.291-1.758.36.281,0,.8-.069,1.784-.191,1.313-.164,3.039-.408,4.893-.694l-.069-.275.53.339h-.3a4.7,4.7,0,0,1-.2,2.685,3.781,3.781,0,0,1-1.4,1.8A3.633,3.633,0,0,1,233.02,198.184Z" transform="translate(-128.541 -134.945)" fill="#263238"/>
        <path id="Path_11118" data-name="Path 11118" d="M83.051,155.982s-16.15,5.825-24.061,3.532S45.524,154,41.563,144.655a29.022,29.022,0,0,1,1.271-24.178c3.362-6.354,9.367-9.96,15.684-13.418,7.853-4.294,18.533-7.832,27.445-8.176s14.678,2.288,21.287,8.319,10.124,15.663,7.795,24.3c-2.468,9.155-10.707,15.658-19.338,19.592,0,0-2.436,8.472,4.416,13.185A15.565,15.565,0,0,1,83.051,155.982Z" transform="translate(-39.372 -90.905)" fill="#fafafa"/>
        <path id="Path_11119" data-name="Path 11119" d="M82.931,155.876l.185.286.53.874.4.651c.159.233.36.466.567.725l.667.847a10.143,10.143,0,0,0,.858.879,14.2,14.2,0,0,0,5.4,3.357,15.1,15.1,0,0,0,3.934.837,15.949,15.949,0,0,0,4.527-.244v.138a10.945,10.945,0,0,1-4.226-5.486,12.64,12.64,0,0,1-.678-3.77,14.826,14.826,0,0,1,.408-4.024V150.9h.042a49.479,49.479,0,0,0,7.291-4.1,35.059,35.059,0,0,0,6.788-5.962c.27-.286.5-.6.752-.911s.5-.609.725-.937c.445-.657.921-1.3,1.308-2.012a23.192,23.192,0,0,0,1.144-2.155c.18-.371.312-.757.471-1.138l.233-.572c.074-.2.127-.4.191-.593a20.053,20.053,0,0,0,1-4.946,21.3,21.3,0,0,0-.212-5.179,25.841,25.841,0,0,0-3.823-9.992,27.319,27.319,0,0,0-3.479-4.326,42,42,0,0,0-4.294-3.707A25.481,25.481,0,0,0,93.2,99.466a35.425,35.425,0,0,0-11.941-.09,64.976,64.976,0,0,0-11.734,2.9,72.184,72.184,0,0,0-10.776,4.676A61.543,61.543,0,0,0,49.168,113a23.659,23.659,0,0,0-6.773,8.345,29.891,29.891,0,0,0-1.832,4.893,31.836,31.836,0,0,0-.916,4.983,28.562,28.562,0,0,0-.058,4.94c.042.81.164,1.589.27,2.4a15.837,15.837,0,0,0,.487,2.325c1.652,6.031,4.893,11.342,9.335,14.366a27.424,27.424,0,0,0,6.841,3.325c.567.2,1.133.381,1.694.53a13.324,13.324,0,0,0,1.673.418,11.242,11.242,0,0,0,1.657.233,13.9,13.9,0,0,0,1.589.074,36.37,36.37,0,0,0,5.909-.483c1.8-.264,3.432-.619,4.894-.947,2.923-.683,5.158-1.345,6.667-1.811l2.3-.731s-.191.079-.577.212-.953.334-1.705.572c-1.5.482-3.738,1.165-6.656,1.864-1.467.334-3.1.7-4.9.969a35.814,35.814,0,0,1-5.925.53,14.145,14.145,0,0,1-1.631-.069,10.758,10.758,0,0,1-1.673-.228,14.826,14.826,0,0,1-1.689-.418c-.567-.164-1.133-.349-1.705-.53a27.387,27.387,0,0,1-6.884-3.331,20.723,20.723,0,0,1-3.135-2.69,24.627,24.627,0,0,1-2.648-3.41,32.147,32.147,0,0,1-2.118-3.971c-.334-.688-.593-1.414-.879-2.118a14.653,14.653,0,0,1-.672-2.256c-.175-.773-.344-1.557-.5-2.346a17.174,17.174,0,0,1-.27-2.42,28.525,28.525,0,0,1,.053-4.983,31.2,31.2,0,0,1,.911-5.046,29.483,29.483,0,0,1,1.843-4.94,23.945,23.945,0,0,1,6.836-8.441,62.822,62.822,0,0,1,9.616-6.084A72.465,72.465,0,0,1,69.428,102,65,65,0,0,1,81.215,99.1a35.69,35.69,0,0,1,12.031.09,25.613,25.613,0,0,1,10.548,4.935,41.3,41.3,0,0,1,4.326,3.738,28.122,28.122,0,0,1,3.511,4.374,26.164,26.164,0,0,1,3.855,10.1,22.05,22.05,0,0,1,.207,5.237,20.434,20.434,0,0,1-1.011,5c-.064.2-.122.4-.2.6l-.233.582c-.164.381-.3.778-.482,1.149a23.65,23.65,0,0,1-1.154,2.176c-.4.715-.874,1.366-1.329,2.028-.228.328-.492.63-.731.943a11.4,11.4,0,0,1-.757.916,35.26,35.26,0,0,1-6.841,5.989,49.115,49.115,0,0,1-7.329,4.1l.053-.058a14.7,14.7,0,0,0-.434,3.966,12.417,12.417,0,0,0,.657,3.707,10.829,10.829,0,0,0,4.12,5.417l.148.1-.175.037a16.133,16.133,0,0,1-4.58.233,15.075,15.075,0,0,1-3.961-.863,14.191,14.191,0,0,1-5.385-3.41c-.3-.318-.614-.588-.858-.89s-.455-.588-.662-.853a8.953,8.953,0,0,1-.53-.736l-.387-.651-.53-.884Z" transform="translate(-39.251 -90.799)" fill="#263238"/>
        <path id="Path_11123" data-name="Path 11123" d="M129.5,261.725l2.314,49.775,4.067,4.379,5.184,6.285s-5.184,20.905-12.767,22.769-15.8-.948-18.2-7.609-1.176-18.311-.434-25.777,4.236-48.255,4.236-48.255l8.843-3.632Z" transform="translate(-71.913 -166.561)" fill="#b29180"/>
        <path id="Path_11124" data-name="Path 11124" d="M124.653,233.331a26.557,26.557,0,0,0,0-7.212c-.6-2.854-4.506-8.864-4.506-8.864s.6-5.708,0-6.608-1.954-4.21-4.506-.9c0,0-1.806-3.908-3.008-4.236a2.775,2.775,0,0,0-1.8,0l3.177-4.2a4.851,4.851,0,0,0,0-1.721,1.79,1.79,0,0,0-1.758-1.435h0a1.79,1.79,0,0,0-1.361.625l-7.71,9s-4.808,8.711-4.654,9.764,2.854,4.506,2.854,4.506,6.884,9.463,7.509,11.268a9.769,9.769,0,0,1,.3,3.9Z" transform="translate(-67.137 -137.622)" fill="#b29180"/>
        <path id="Path_11125" data-name="Path 11125" d="M111.49,222.283a9.78,9.78,0,0,1,.265-1.716,18.533,18.533,0,0,1,1.239-4.008,9.177,9.177,0,0,1,2.542-3.336,5.866,5.866,0,0,1,1.059-.688,1.2,1.2,0,0,1,.44-.164,15.533,15.533,0,0,0-1.393,1,9.886,9.886,0,0,0-2.415,3.3,22.514,22.514,0,0,0-1.3,3.934A13.33,13.33,0,0,1,111.49,222.283Z" transform="translate(-73.238 -144.312)" fill="#8a6c5c"/>
        <path id="Path_11126" data-name="Path 11126" d="M124.33,226.317a3.035,3.035,0,0,1,.175-1,11.48,11.48,0,0,1,2.293-4.289c.413-.471.71-.725.736-.7a33.9,33.9,0,0,0-1.869,2.849C124.769,224.835,124.415,226.338,124.33,226.317Z" transform="translate(-79.279 -148.055)" fill="#8a6c5c"/>
        <path id="Path_11127" data-name="Path 11127" d="M138.76,233.54a.124.124,0,1,1-.117-.217.132.132,0,0,1,.18.042A.138.138,0,0,1,138.76,233.54Z" transform="translate(-85.978 -154.161)" fill="#eb996e"/>
        <path id="Path_11128" data-name="Path 11128" d="M138.748,235.037a7.64,7.64,0,0,1,.106-2.017c.064-.53.132-.974.2-1.319l.185.074c-.275.328-.461.53-.492.492s.1-.259.328-.614l.206-.323v.4a12.169,12.169,0,0,1-.127,1.324,7.414,7.414,0,0,1-.4,1.986Z" transform="translate(-86.051 -153.232)" fill="#8a6c5c"/>
        <path id="Path_11129" data-name="Path 11129" d="M149.293,294.43a.621.621,0,0,1,0,.127l.037.365c.037.349.079.826.138,1.43.1,1.239.212,3.039.334,5.258.249,4.443.53,10.59.768,17.368s.445,12.926.572,17.374c.053,2.208.1,4,.127,5.269v1.806a1.161,1.161,0,0,1,0,.127.306.306,0,0,1,0-.127,1.984,1.984,0,0,0-.026-.371c0-.349-.042-.831-.069-1.435-.053-1.266-.127-3.055-.217-5.263-.169-4.464-.4-10.59-.651-17.368s-.53-12.9-.683-17.368c-.106-2.2-.191-3.993-.249-5.263l-.085-1.43v-.371a.461.461,0,0,1,.005-.127Z" transform="translate(-91.02 -182.919)" fill="#8a6c5c"/>
        <path id="Path_11130" data-name="Path 11130" d="M383.409,289.389s-11.861,45.539-13.847,50.834c-3.924,10.426-6.6,15.383-11.04,18-4.856,2.844-13.54,1.228-15.589-3.415-1.875-4.236-6.852-21.938-6.852-21.938l15.234-5.5,18.163-38.067Z" transform="translate(-178.903 -180.51)" fill="#b29180"/>
        <path id="Path_11131" data-name="Path 11131" d="M438.09,248.318c.747.53-15.255,14.546-15.255,14.546l-11.856,6.852-3.908,14.551-12.391-7.652s4.485-14.509,6.571-15.51c3.633-1.742,4.331-7.583,5.634-7.366s1.869.191,1.435,2.356-.609,3.129-.609,3.129l13.693-3.971s7.588-7.366,9.971-6.937c1.377.254,1.536.434,1.536.434h0A3.871,3.871,0,0,1,438.09,248.318Z" transform="translate(-206.473 -160.837)" fill="#b29180"/>
        <path id="Path_11132" data-name="Path 11132" d="M430.292,262.15a3.454,3.454,0,0,1-.646.249l-1.785.582-5.915,1.848-5.915,1.832-1.8.561a3.04,3.04,0,0,1-.667.18,3.709,3.709,0,0,1,.635-.281c.413-.164,1.011-.387,1.763-.646,1.5-.53,3.585-1.191,5.9-1.912s4.411-1.334,5.941-1.769c.763-.217,1.377-.387,1.811-.5a3.7,3.7,0,0,1,.672-.148Z" transform="translate(-215.36 -167.732)" fill="#8a6c5c"/>
        <path id="Path_11133" data-name="Path 11133" d="M449.55,259.962a2.244,2.244,0,0,1,.349-.44c.238-.27.588-.657,1.022-1.128.874-.943,2.092-2.235,3.447-3.648l3.49-3.6a2.552,2.552,0,0,0,.688-1.281,2.807,2.807,0,0,0-.026-.53.513.513,0,0,1,.069.127,1.059,1.059,0,0,1,.064.424,2.473,2.473,0,0,1-.646,1.4c-.858.974-2.081,2.24-3.437,3.664s-2.6,2.679-3.505,3.59c-.455.45-.826.815-1.085,1.059A2.275,2.275,0,0,1,449.55,259.962Z" transform="translate(-232.288 -161.705)" fill="#8a6c5c"/>
        <path id="Path_11134" data-name="Path 11134" d="M362.468,349.11c.069.032-1.922,4.713-4.443,10.458s-4.628,10.384-4.7,10.352,1.917-4.713,4.443-10.463S362.4,349.078,362.468,349.11Z" transform="translate(-187.017 -208.645)" fill="#eb996e"/>
      </g>
      <g id="freepik--Table--inject-18" transform="translate(0 227.019)">
        <path id="Path_11135" data-name="Path 11135" d="M263,460.148c0,.074-52.19.138-116.548.138s-116.558-.064-116.558-.138S82.069,460,146.443,460,263,460.069,263,460.148Z" transform="translate(-29.89 -460)" fill="#263238"/>
      </g>
      <g id="freepik--Icons--inject-18" transform="translate(189.767 37.161)">
        <rect id="Rectangle_5628" data-name="Rectangle 5628" width="21.16" height="7.874" transform="matrix(0.009, -1, 1, 0.009, 2.132, 72.404)" fill="#90caf9"/>
        <g id="Group_12933" data-name="Group 12933" transform="translate(2.132 51.246)" opacity="0.3">
          <rect id="Rectangle_5629" data-name="Rectangle 5629" width="21.16" height="7.874" transform="matrix(0.009, -1, 1, 0.009, 0, 21.159)"/>
        </g>
        <rect id="Rectangle_5630" data-name="Rectangle 5630" width="21.16" height="7.874" transform="matrix(0.009, -1, 1, 0.009, 0, 72.378)" fill="#90caf9"/>
        <path id="Path_11136" data-name="Path 11136" d="M395.759,206.405a1.774,1.774,0,1,1-.508-1.264A1.779,1.779,0,0,1,395.759,206.405Z" transform="translate(-390.116 -149.987)" fill="#fff"/>
        <path id="Path_11137" data-name="Path 11137" d="M405.5,204.36a6.883,6.883,0,0,1-.969,1.589,6.609,6.609,0,0,1-1.181,1.435,6.884,6.884,0,0,1,.969-1.589,6.556,6.556,0,0,1,1.181-1.435Z" transform="translate(-395.362 -149.869)" fill="#90caf9"/>
        <path id="Path_11138" data-name="Path 11138" d="M405.46,208.78a13.279,13.279,0,0,1-2.15,3.034,6.752,6.752,0,0,1,.969-1.589,6.558,6.558,0,0,1,1.181-1.446Z" transform="translate(-395.343 -151.949)" fill="#90caf9"/>
        <path id="Path_11139" data-name="Path 11139" d="M405.42,213.2a13.282,13.282,0,0,1-2.15,3.034,6.752,6.752,0,0,1,.969-1.589,6.556,6.556,0,0,1,1.181-1.446Z" transform="translate(-395.324 -154.028)" fill="#90caf9"/>
        <path id="Path_11140" data-name="Path 11140" d="M405.38,217.62a13.277,13.277,0,0,1-2.15,3.034,6.752,6.752,0,0,1,.969-1.589A6.557,6.557,0,0,1,405.38,217.62Z" transform="translate(-395.305 -156.108)" fill="#90caf9"/>
        <path id="Path_11141" data-name="Path 11141" d="M405.34,222a13.282,13.282,0,0,1-2.15,3.034,6.75,6.75,0,0,1,.969-1.589A6.554,6.554,0,0,1,405.34,222Z" transform="translate(-395.287 -158.168)" fill="#90caf9"/>
        <path id="Path_11142" data-name="Path 11142" d="M405.3,226.46a13.279,13.279,0,0,1-2.15,3.034,6.753,6.753,0,0,1,.969-1.589,6.559,6.559,0,0,1,1.181-1.446Z" transform="translate(-395.268 -160.267)" fill="#90caf9"/>
        <path id="Path_11143" data-name="Path 11143" d="M405.26,230.88a13.282,13.282,0,0,1-2.15,3.034,6.752,6.752,0,0,1,.969-1.589,6.556,6.556,0,0,1,1.181-1.446Z" transform="translate(-395.249 -162.346)" fill="#90caf9"/>
        <path id="Path_11144" data-name="Path 11144" d="M405.495,200.46a6.832,6.832,0,0,1-.964,1.589,6.73,6.73,0,0,1-1.181,1.44,6.412,6.412,0,0,1,.964-1.589,6.731,6.731,0,0,1,1.181-1.44Z" transform="translate(-395.362 -148.034)" fill="#90caf9"/>
        <path id="Path_11145" data-name="Path 11145" d="M404.757,198.328c.064.042-.175.482-.529.974s-.683.863-.747.821.18-.477.53-.969S404.7,198.291,404.757,198.328Z" transform="translate(-395.419 -147.03)" fill="#90caf9"/>
        <path id="Path_11146" data-name="Path 11146" d="M414.66,203.973l.6-18.692s4.167-.773,7.943-6.4c2.489-3.707,1.62-7.7,2.118-9.335.3-1.006,2.648-.778,3.707-.651a3.979,3.979,0,0,1,3.272,2.25c1.239,2.9-.593,9.78-.593,9.78s-.784,1.4,1.181,1.419l7.021.064a3.808,3.808,0,0,1,2.489.911,2.849,2.849,0,0,1,1.006,2.494c-.238,2.648-1.652,3.85-1.657,4.411s.757,1.557.18,3.177-.927,1.467-.932,2.24a12.533,12.533,0,0,1-.667,3.929,5.718,5.718,0,0,1-1.059,1.747,8.391,8.391,0,0,1-.53,4c-1.059,1.869-5.7,3.077-7.6,2.182-.895-.418-5.062-1.451-7.027-1.959S416.566,203.073,414.66,203.973Z" transform="translate(-400.683 -133.13)" fill="#90caf9"/>
        <g id="Group_12934" data-name="Group 12934" transform="translate(13.977 35.652)" opacity="0.3">
          <path id="Path_11147" data-name="Path 11147" d="M414.66,203.973l.6-18.692s4.167-.773,7.943-6.4c2.489-3.707,1.62-7.7,2.118-9.335.3-1.006,2.648-.778,3.707-.651a3.979,3.979,0,0,1,3.272,2.25c1.239,2.9-.593,9.78-.593,9.78s-.784,1.4,1.181,1.419l7.021.064a3.808,3.808,0,0,1,2.489.911,2.849,2.849,0,0,1,1.006,2.494c-.238,2.648-1.652,3.85-1.657,4.411s.757,1.557.18,3.177-.927,1.467-.932,2.24a12.533,12.533,0,0,1-.667,3.929,5.718,5.718,0,0,1-1.059,1.747,8.391,8.391,0,0,1-.53,4c-1.059,1.869-5.7,3.077-7.6,2.182-.895-.418-5.062-1.451-7.027-1.959S416.566,203.073,414.66,203.973Z" transform="translate(-414.66 -168.782)"/>
        </g>
        <path id="Path_11148" data-name="Path 11148" d="M409.91,204.289l.169-18.9s4.173-.773,7.943-6.4a31.529,31.529,0,0,0,4.114-8.372,2.118,2.118,0,0,1,2.3-1.541,3.278,3.278,0,0,1,2.833,2.081c1.239,2.9-.757,9.881-.757,9.881s-.789,1.4,1.181,1.419l7.021.064a3.812,3.812,0,0,1,2.489.911,2.843,2.843,0,0,1,1,2.494c-.233,2.648-1.647,3.85-1.652,4.411s.757,1.557.18,3.177-.927,1.467-.932,2.24a12.708,12.708,0,0,1-.672,3.929,5.6,5.6,0,0,1-1.059,1.747,9.674,9.674,0,0,1-.529,4c-.72,1.467-3.675,2.219-4.66,2.208s-8-1.477-9.966-1.986S411.816,203.394,409.91,204.289Z" transform="translate(-398.448 -133.261)" fill="#90caf9"/>
        <path id="Path_11149" data-name="Path 11149" d="M444.99,184.6a14.884,14.884,0,0,1-3.49,3.426,16.374,16.374,0,0,1,1.7-1.758A16.055,16.055,0,0,1,444.99,184.6Z" transform="translate(-413.311 -140.572)" fill="#90caf9"/>
        <path id="Path_11150" data-name="Path 11150" d="M445.91,179.84a6.244,6.244,0,0,1-1.525,1.636,10.21,10.21,0,0,1-1.784,1.329,8.911,8.911,0,0,1,1.589-1.53A19.456,19.456,0,0,1,445.91,179.84Z" transform="translate(-413.828 -138.333)" fill="#90caf9"/>
        <path id="Path_11151" data-name="Path 11151" d="M446.059,175.526a3.706,3.706,0,0,1-1.26,1.319,10.243,10.243,0,0,1-1.509,1.006,4.7,4.7,0,0,1,1.356-1.218C445.445,176.056,446,175.468,446.059,175.526Z" transform="translate(-414.153 -136.302)" fill="#90caf9"/>
        <path id="Path_11152" data-name="Path 11152" d="M445.285,171.92c.042.058-.376.482-.937.958a3.389,3.389,0,0,1-1.1.752c-.048-.053.371-.482.932-.953a3.511,3.511,0,0,1,1.107-.757Z" transform="translate(-414.131 -134.607)" fill="#90caf9"/>
        <path id="Path_11153" data-name="Path 11153" d="M443.249,169.767c.037.064-.222.3-.582.53s-.688.376-.731.318.222-.3.588-.53S443.212,169.7,443.249,169.767Z" transform="translate(-413.514 -133.587)" fill="#90caf9"/>
        <path id="Path_11154" data-name="Path 11154" d="M445.082,190.89c.048.053-.4.53-.99,1.006a3.9,3.9,0,0,1-1.165.8c-.048-.053.4-.53,1-1.006A3.707,3.707,0,0,1,445.082,190.89Z" transform="translate(-413.98 -143.532)" fill="#90caf9"/>
        <path id="Path_11155" data-name="Path 11155" d="M464.616,203.53a25.616,25.616,0,0,1-4.326,2.907,13.5,13.5,0,0,1,2.092-1.589,13.319,13.319,0,0,1,2.235-1.319Z" transform="translate(-422.151 -149.479)" fill="#90caf9"/>
        <path id="Path_11156" data-name="Path 11156" d="M466.019,197.48a4.649,4.649,0,0,1-1.218.974,4.7,4.7,0,0,1-1.361.763,4.841,4.841,0,0,1,1.218-.98A4.607,4.607,0,0,1,466.019,197.48Z" transform="translate(-423.633 -146.632)" fill="#90caf9"/>
        <path id="Path_11157" data-name="Path 11157" d="M463.509,212.18a10.785,10.785,0,0,1-1.589,1.107,10.462,10.462,0,0,1-1.62,1.027,8.736,8.736,0,0,1,3.177-2.118Z" transform="translate(-422.156 -153.548)" fill="#90caf9"/>
        <path id="Path_11158" data-name="Path 11158" d="M461.631,219a6.921,6.921,0,0,1-1.456,1.234,7.075,7.075,0,0,1-1.615,1.027,6.921,6.921,0,0,1,1.456-1.234A7.2,7.2,0,0,1,461.631,219Z" transform="translate(-421.337 -156.757)" fill="#90caf9"/>
        <path id="Path_11159" data-name="Path 11159" d="M459.517,227.16a7.112,7.112,0,0,1-1.684,1.461,7.207,7.207,0,0,1-1.943,1.1,14.824,14.824,0,0,1,1.79-1.308A15.218,15.218,0,0,1,459.517,227.16Z" transform="translate(-420.081 -160.596)" fill="#90caf9"/>
        <path id="Path_11160" data-name="Path 11160" d="M457.236,234A15.313,15.313,0,0,1,453,236.976a23.09,23.09,0,0,1,2.118-1.52A19.862,19.862,0,0,1,457.236,234Z" transform="translate(-418.721 -163.814)" fill="#90caf9"/>
        <path id="Path_11161" data-name="Path 11161" d="M451.98,129.164a1.165,1.165,0,1,1,.911,1.366A1.165,1.165,0,0,1,451.98,129.164Z" transform="translate(-418.231 -114.049)" fill="#fff"/>
        <path id="Path_11162" data-name="Path 11162" d="M446.11,129.739a4.48,4.48,0,0,1,.821-.905,4.531,4.531,0,0,1,.932-.784,4.036,4.036,0,0,1-.815.905A4.152,4.152,0,0,1,446.11,129.739Z" transform="translate(-415.48 -113.967)" fill="#455a64"/>
        <path id="Path_11163" data-name="Path 11163" d="M446.68,126.9a4.545,4.545,0,0,1,.815-.905,4.635,4.635,0,0,1,.937-.784A8.645,8.645,0,0,1,446.68,126.9Z" transform="translate(-415.748 -112.631)" fill="#455a64"/>
        <path id="Path_11164" data-name="Path 11164" d="M447.25,124.059a4.168,4.168,0,0,1,.815-.905,4.332,4.332,0,0,1,.937-.784,4.48,4.48,0,0,1-.821.905A4.535,4.535,0,0,1,447.25,124.059Z" transform="translate(-416.016 -111.294)" fill="#455a64"/>
        <path id="Path_11165" data-name="Path 11165" d="M447.81,121.219a4.543,4.543,0,0,1,.815-.905,4.633,4.633,0,0,1,.937-.784,4.545,4.545,0,0,1-.816.905A4.48,4.48,0,0,1,447.81,121.219Z" transform="translate(-416.279 -109.958)" fill="#455a64"/>
        <path id="Path_11166" data-name="Path 11166" d="M448.38,118.379a4.543,4.543,0,0,1,.815-.905,4.284,4.284,0,0,1,.937-.784,4.544,4.544,0,0,1-.815.905A4.632,4.632,0,0,1,448.38,118.379Z" transform="translate(-416.548 -108.622)" fill="#455a64"/>
        <path id="Path_11167" data-name="Path 11167" d="M448.94,115.5a9,9,0,0,1,1.753-1.689,4.167,4.167,0,0,1-.815.905,4.33,4.33,0,0,1-.937.784Z" transform="translate(-416.811 -107.267)" fill="#455a64"/>
        <path id="Path_11168" data-name="Path 11168" d="M449.51,112.7a8.649,8.649,0,0,1,1.753-1.689,4.544,4.544,0,0,1-.815.905A4.634,4.634,0,0,1,449.51,112.7Z" transform="translate(-417.079 -105.95)" fill="#455a64"/>
        <path id="Path_11169" data-name="Path 11169" d="M445.64,132.249a4.543,4.543,0,0,1,.815-.905,4.634,4.634,0,0,1,.937-.784A8.643,8.643,0,0,1,445.64,132.249Z" transform="translate(-415.259 -115.148)" fill="#455a64"/>
        <path id="Path_11170" data-name="Path 11170" d="M446.337,134.408c-.032-.032.175-.286.461-.561s.53-.471.577-.439-.169.286-.455.567S446.374,134.445,446.337,134.408Z" transform="translate(-415.585 -116.486)" fill="#455a64"/>
        <path id="Path_11173" data-name="Path 11173" d="M417.51,137.424a6.251,6.251,0,0,1,1.26-1,5.914,5.914,0,0,1,1.4-.778,10.422,10.422,0,0,1-1.308.921A9.711,9.711,0,0,1,417.51,137.424Z" transform="translate(-402.024 -117.542)" fill="#455a64"/>
        <path id="Path_11174" data-name="Path 11174" d="M416.44,140.659a4.013,4.013,0,0,1,1.181-.868,6.884,6.884,0,0,1,1.313-.641,5.532,5.532,0,0,1-1.228.794A14.447,14.447,0,0,1,416.44,140.659Z" transform="translate(-401.521 -119.189)" fill="#455a64"/>
        <path id="Path_11175" data-name="Path 11175" d="M416.12,143.744a2.6,2.6,0,0,1,.974-.694,6.4,6.4,0,0,1,1.1-.461,3.14,3.14,0,0,1-1.022.614C416.586,143.48,416.152,143.787,416.12,143.744Z" transform="translate(-401.37 -120.808)" fill="#455a64"/>
        <path id="Path_11176" data-name="Path 11176" d="M416.6,146.513a4.437,4.437,0,0,1,1.52-.853A4.311,4.311,0,0,1,416.6,146.513Z" transform="translate(-401.596 -122.252)" fill="#455a64"/>
        <path id="Path_11177" data-name="Path 11177" d="M418.06,148.639c0-.048.18-.169.445-.275s.487-.159.53-.117-.175.169-.44.275A1.074,1.074,0,0,1,418.06,148.639Z" transform="translate(-402.283 -123.462)" fill="#455a64"/>
        <path id="Path_11178" data-name="Path 11178" d="M419,134.265a2.563,2.563,0,0,1,.762-.53,2.505,2.505,0,0,1,.847-.376,2.68,2.68,0,0,1-.763.53,2.5,2.5,0,0,1-.847.376Z" transform="translate(-402.725 -116.465)" fill="#455a64"/>
        <path id="Path_11179" data-name="Path 11179" d="M406.7,123.12a8.63,8.63,0,0,1,1.536-.752,8.122,8.122,0,0,1,1.589-.588,17.356,17.356,0,0,1-3.14,1.34Z" transform="translate(-396.929 -111.017)" fill="#455a64"/>
        <path id="Path_11180" data-name="Path 11180" d="M406.07,127.515a2.975,2.975,0,0,1,.9-.482,3.176,3.176,0,0,1,.969-.323,3.023,3.023,0,0,1-.9.482A3.071,3.071,0,0,1,406.07,127.515Z" transform="translate(-396.642 -113.336)" fill="#455a64"/>
        <path id="Path_11181" data-name="Path 11181" d="M409.12,118.116a7.029,7.029,0,0,1,1.149-.53,6.813,6.813,0,0,1,1.17-.466,3.542,3.542,0,0,1-1.1.625A3.441,3.441,0,0,1,409.12,118.116Z" transform="translate(-398.077 -108.824)" fill="#455a64"/>
        <path id="Path_11182" data-name="Path 11182" d="M411.25,113.889a8.816,8.816,0,0,1,2.25-1.059,4.687,4.687,0,0,1-1.091.62A4.617,4.617,0,0,1,411.25,113.889Z" transform="translate(-399.079 -106.806)" fill="#455a64"/>
        <path id="Path_11183" data-name="Path 11183" d="M413.28,108.732a4.642,4.642,0,0,1,1.266-.736,4.765,4.765,0,0,1,1.382-.466Q414.626,108.178,413.28,108.732Z" transform="translate(-400.034 -104.313)" fill="#455a64"/>
        <path id="Path_11184" data-name="Path 11184" d="M415.25,104.373a6.206,6.206,0,0,1,1.488-.837,5.935,5.935,0,0,1,1.589-.567,15.894,15.894,0,0,1-1.536.725A14.9,14.9,0,0,1,415.25,104.373Z" transform="translate(-400.961 -102.167)" fill="#455a64"/>
      </g>
    </g>
    <rect id="Rectangle_5633" data-name="Rectangle 5633" width="21.16" height="7.874" transform="matrix(0.009, -1, 1, 0.009, 769.947, 334.634)" fill="#90caf9"/>
    <path id="Path_11185" data-name="Path 11185" d="M395.759,206.405a1.774,1.774,0,1,1-.508-1.264A1.779,1.779,0,0,1,395.759,206.405Z" transform="translate(379.828 112.27)" fill="#fff"/>
    <g id="Group_12935" data-name="Group 12935" transform="translate(783.921 297.908)" opacity="0.3">
      <path id="Path_11147-2" data-name="Path 11147" d="M414.66,203.973l.6-18.692s4.167-.773,7.943-6.4c2.489-3.707,1.62-7.7,2.118-9.335.3-1.006,2.648-.778,3.707-.651a3.979,3.979,0,0,1,3.272,2.25c1.239,2.9-.593,9.78-.593,9.78s-.784,1.4,1.181,1.419l7.021.064a3.808,3.808,0,0,1,2.489.911,2.849,2.849,0,0,1,1.006,2.494c-.238,2.648-1.652,3.85-1.657,4.411s.757,1.557.18,3.177-.927,1.467-.932,2.24a12.533,12.533,0,0,1-.667,3.929,5.718,5.718,0,0,1-1.059,1.747,8.391,8.391,0,0,1-.53,4c-1.059,1.869-5.7,3.077-7.6,2.182-.895-.418-5.062-1.451-7.027-1.959S416.566,203.073,414.66,203.973Z" transform="translate(-414.66 -168.782)"/>
    </g>
    <path id="Path_11186" data-name="Path 11186" d="M409.91,204.289l.169-18.9s4.173-.773,7.943-6.4a31.529,31.529,0,0,0,4.114-8.372,2.118,2.118,0,0,1,2.3-1.541,3.278,3.278,0,0,1,2.833,2.081c1.239,2.9-.757,9.881-.757,9.881s-.789,1.4,1.181,1.419l7.021.064a3.812,3.812,0,0,1,2.489.911,2.843,2.843,0,0,1,1,2.494c-.233,2.648-1.647,3.85-1.652,4.411s.757,1.557.18,3.177-.927,1.467-.932,2.24a12.708,12.708,0,0,1-.672,3.929,5.6,5.6,0,0,1-1.059,1.747,9.674,9.674,0,0,1-.529,4c-.72,1.467-3.675,2.219-4.66,2.208s-8-1.477-9.966-1.986S411.816,203.394,409.91,204.289Z" transform="translate(371.497 128.995)" fill="#90caf9"/>
    <g transform="matrix(1, 0, 0, 1, 580, 225.1)" filter="url(#Yay)">
      <text id="Yay-3" data-name="Yay" transform="matrix(0.91, -0.41, 0.41, 0.91, 41.62, 76.46)" fill="#74a5df" font-size="22" font-family="OpenSans-Semibold, Open Sans" font-weight="600" opacity="0.33"><tspan x="-18" y="0">Yay</tspan></text>
    </g>
    <g transform="matrix(1, 0, 0, 1, 580, 225.1)" filter="url(#Yay-2)">
      <text id="Yay-4" data-name="Yay" transform="matrix(0.91, -0.41, 0.41, 0.91, 42.77, 76.46)" fill="#455a64" font-size="22" font-family="OpenSans-Semibold, Open Sans" font-weight="600"><tspan x="-18" y="0">Yay</tspan></text>
    </g>
  </g>
</svg>
