<svg width="24" height="23" viewBox="0 0 24 23" fill="none" xmlns="http://www.w3.org/2000/svg">
<path d="M18.5001 6.25003H3.50002C1.98101 6.25003 0.75 5.01902 0.75 3.50002C0.75 1.98101 1.98101 0.75 3.50002 0.75H18.5001C20.0191 0.75 21.2501 1.98101 21.2501 3.50002C21.2501 5.01902 20.0191 6.25003 18.5001 6.25003Z" fill="#F5F5F5"/>
<path d="M18.5001 11.7503H3.50002C1.98101 11.7503 0.75 10.5193 0.75 9.00026C0.75 7.48125 1.98101 6.25024 3.50002 6.25024H18.5001C20.0191 6.25024 21.2501 7.48125 21.2501 9.00026C21.2501 10.5193 20.0191 11.7503 18.5001 11.7503Z" fill="#F5F5F5"/>
<path d="M18.5001 17.2503H3.50002C1.98101 17.2503 0.75 16.0193 0.75 14.5003C0.75 12.9813 1.98101 11.7502 3.50002 11.7502H18.5001C20.0191 11.7502 21.2501 12.9813 21.2501 14.5003C21.2501 16.0193 20.0191 17.2503 18.5001 17.2503Z" fill="#F5F5F5"/>
<path d="M23.2501 21.3003C23.2501 21.8203 22.8201 22.2503 22.2901 22.2503H11.71C11.18 22.2503 10.75 21.8203 10.75 21.3003C10.75 21.1103 10.8 20.9403 10.89 20.8003L16.18 12.2102C16.35 11.9302 16.65 11.7502 17 11.7502C17.35 11.7502 17.65 11.9302 17.82 12.2102L23.1101 20.8003C23.2001 20.9403 23.2501 21.1103 23.2501 21.3003Z" fill="#F5F5F5"/>
<path d="M18.5001 7.00004H3.50002C1.57001 7.00004 0 5.43003 0 3.50002C0 1.57001 1.57001 0 3.50002 0H18.5001C20.4301 0 22.0001 1.57001 22.0001 3.50002C22.0001 5.43003 20.4301 7.00004 18.5001 7.00004ZM3.50002 1.50001C2.39701 1.50001 1.50001 2.39701 1.50001 3.50002C1.50001 4.60303 2.39701 5.50003 3.50002 5.50003H18.5001C19.6031 5.50003 20.5001 4.60303 20.5001 3.50002C20.5001 2.39701 19.6031 1.50001 18.5001 1.50001H3.50002Z" fill="#2680EA"/>
<path d="M5.00001 4.50026C5.55229 4.50026 6.00001 4.05254 6.00001 3.50025C6.00001 2.94796 5.55229 2.50024 5.00001 2.50024C4.44772 2.50024 4 2.94796 4 3.50025C4 4.05254 4.44772 4.50026 5.00001 4.50026Z" fill="#2680EA"/>
<path d="M9.00001 4.50026C9.55229 4.50026 10 4.05254 10 3.50025C10 2.94796 9.55229 2.50024 9.00001 2.50024C8.44772 2.50024 8 2.94796 8 3.50025C8 4.05254 8.44772 4.50026 9.00001 4.50026Z" fill="#2680EA"/>
<path d="M12.2501 12.5003H3.50002C1.57001 12.5003 0 10.9303 0 9.00027C0 8.07126 0.377002 7.16925 1.03401 6.52425C1.66901 5.87725 2.57101 5.50024 3.50002 5.50024H18.5001C20.4301 5.50024 22.0001 7.07025 22.0001 9.00027C22.0001 9.78527 21.7481 10.5223 21.2711 11.1333C21.0141 11.4573 20.5441 11.5173 20.2171 11.2613C19.8911 11.0053 19.8341 10.5333 20.0891 10.2073C20.3591 9.86427 20.5001 9.44727 20.5001 9.00027C20.5001 7.89726 19.6031 7.00025 18.5001 7.00025H3.50002C2.96402 7.00025 2.46501 7.20825 2.09501 7.58526C1.70801 7.96526 1.50001 8.46426 1.50001 9.00027C1.50001 10.1033 2.39701 11.0003 3.50002 11.0003H12.2501C12.6641 11.0003 13.0001 11.3363 13.0001 11.7503C13.0001 12.1643 12.6641 12.5003 12.2501 12.5003Z" fill="#2680EA"/>
<path d="M5.00001 10.0003C5.55229 10.0003 6.00001 9.55254 6.00001 9.00025C6.00001 8.44796 5.55229 8.00024 5.00001 8.00024C4.44772 8.00024 4 8.44796 4 9.00025C4 9.55254 4.44772 10.0003 5.00001 10.0003Z" fill="#2680EA"/>
<path d="M9.00001 10.0003C9.55229 10.0003 10 9.55254 10 9.00025C10 8.44796 9.55229 8.00024 9.00001 8.00024C8.44772 8.00024 8 8.44796 8 9.00025C8 9.55254 8.44772 10.0003 9.00001 10.0003Z" fill="#2680EA"/>
<path d="M9.25005 18.0003H3.50002C1.57001 18.0003 0 16.4303 0 14.5003C0 13.5713 0.377002 12.6693 1.03401 12.0243C1.66901 11.3772 2.57101 11.0002 3.50002 11.0002H11.6501C12.0641 11.0002 12.4001 11.3362 12.4001 11.7502C12.4001 12.1643 12.0641 12.5003 11.6501 12.5003H3.50002C2.96402 12.5003 2.46501 12.7083 2.09501 13.0853C1.70801 13.4653 1.50001 13.9643 1.50001 14.5003C1.50001 15.6033 2.39701 16.5003 3.50002 16.5003H9.25005C9.66406 16.5003 10.0001 16.8363 10.0001 17.2503C10.0001 17.6643 9.66406 18.0003 9.25005 18.0003Z" fill="#2680EA"/>
<path d="M5.00001 15.5C5.55229 15.5 6.00001 15.0523 6.00001 14.5C6.00001 13.9477 5.55229 13.5 5.00001 13.5C4.44772 13.5 4 13.9477 4 14.5C4 15.0523 4.44772 15.5 5.00001 15.5Z" fill="#2680EA"/>
<path d="M9.00001 15.5C9.55229 15.5 10 15.0523 10 14.5C10 13.9477 9.55229 13.5 9.00001 13.5C8.44772 13.5 8 13.9477 8 14.5C8 15.0523 8.44772 15.5 9.00001 15.5Z" fill="#2680EA"/>
<path d="M22.2881 23.0003H11.712C10.768 23.0003 10 22.2353 10 21.2963C10 20.9613 10.094 20.6453 10.272 20.3803L15.543 11.8152C15.838 11.3162 16.398 11.0002 17 11.0002C17.602 11.0002 18.162 11.3162 18.463 11.8272L23.7441 20.4053C23.9061 20.6453 24.0001 20.9613 24.0001 21.2963C24.0001 22.2353 23.2321 23.0003 22.2881 23.0003ZM17 12.5003C16.912 12.5003 16.853 12.5483 16.828 12.5893L11.5 21.2963C11.5 21.4063 11.597 21.5003 11.712 21.5003H22.2881C22.4031 21.5003 22.5001 21.4063 22.5001 21.2963C22.5001 21.2633 22.4941 21.2333 22.4831 21.2183L17.178 12.6023C17.147 12.5483 17.088 12.5003 17 12.5003Z" fill="#2680EA"/>
<path d="M17 18.5C16.586 18.5 16.25 18.164 16.25 17.75V15.75C16.25 15.336 16.586 15 17 15C17.414 15 17.75 15.336 17.75 15.75V17.75C17.75 18.164 17.414 18.5 17 18.5Z" fill="#2680EA"/>
<path d="M17 21.0003C17.4142 21.0003 17.75 20.6645 17.75 20.2502C17.75 19.836 17.4142 19.5002 17 19.5002C16.5858 19.5002 16.25 19.836 16.25 20.2502C16.25 20.6645 16.5858 21.0003 17 21.0003Z" fill="#2680EA"/>
</svg>
