<svg width="26" height="18" viewBox="0 0 26 18" fill="none" xmlns="http://www.w3.org/2000/svg">
<path fill-rule="evenodd" clip-rule="evenodd" d="M19.6015 6.35516C19.9252 6.67665 19.9252 7.1977 19.6015 7.51854L15.1308 11.9589C15.2635 12.2493 15.3375 12.572 15.3375 12.9108C15.3375 14.1913 14.2891 15.2322 13 15.2322C11.7115 15.2322 10.6628 14.1913 10.6628 12.9108C10.6628 11.6311 11.7115 10.5893 13 10.5893C13.3417 10.5893 13.6661 10.6634 13.9591 10.7949L18.4295 6.35516C18.7531 6.03367 19.2778 6.03367 19.6015 6.35516ZM13 5.28527C13.9113 5.28527 14.8026 5.4421 15.6486 5.75073C16.0782 5.90761 16.5547 5.68888 16.7126 5.26224C16.87 4.8356 16.6501 4.36296 16.2205 4.20608C15.1904 3.83025 14.1068 3.63934 13.0001 3.63934C7.85244 3.63934 3.66449 7.79853 3.66449 12.9108C3.66449 13.3655 4.03574 13.7339 4.49301 13.7339C4.95089 13.7339 5.32181 13.3655 5.32181 12.9108C5.32175 8.70647 8.76633 5.28527 13 5.28527ZM24.0262 15.5632C24.2365 14.6998 24.3427 13.8074 24.3427 12.9108C24.3427 6.6999 19.2543 1.64594 13 1.64594C6.74593 1.64594 1.65759 6.69995 1.65759 12.9108C1.65759 13.8074 1.76407 14.6998 1.97439 15.5632C2.08931 16.0365 2.49603 16.3541 2.98582 16.3541H23.0148C23.5046 16.3541 23.9113 16.0365 24.0262 15.5632ZM22.1926 3.78184C19.7372 1.34302 16.4725 0 13 0C9.52774 0 6.26339 1.34296 3.80798 3.78184C1.35258 6.22039 0 9.46238 0 12.9108C0 13.9376 0.122159 14.96 0.363077 15.9501C0.656686 17.1569 1.73517 18 2.98577 18H23.0148C24.2648 18 25.3433 17.1569 25.6369 15.9501C25.8778 14.9594 26 13.937 26 12.9108C26 9.46238 24.6478 6.22044 22.1926 3.78184Z" fill="#2680EA"/>
</svg>
