<svg width="26" height="20" viewBox="0 0 26 20" fill="none" xmlns="http://www.w3.org/2000/svg">
<path d="M20.633 18C21.958 17.7362 23.1357 16.999 23.9376 15.9316C24.7395 14.8641 25.1083 13.5426 24.9724 12.2235C24.8365 10.9044 24.2057 9.68191 23.2023 8.79328C22.1989 7.90465 20.8947 7.41331 19.5426 7.41464H18.1688C17.8075 6.04317 17.1046 4.78113 16.1231 3.74183C15.1416 2.70254 13.9123 1.91852 12.5455 1.46018C11.1787 1.00184 9.71727 0.883513 8.29233 1.11583C6.86739 1.34815 5.52359 1.92383 4.38157 2.7912C3.23955 3.65857 2.33507 4.79048 1.74933 6.08528C1.16359 7.38009 0.914933 8.79727 1.02567 10.2096C1.13642 11.6219 1.60309 12.9852 2.38381 14.1769C3.16452 15.3687 4.23483 16.3517 5.49865 17.0377" stroke="#2680EA" stroke-width="2" stroke-linecap="round" stroke-linejoin="round"/>
<path d="M9.88889 15.845C9.39757 15.845 9 16.2425 9 16.7339V18.6983C9 19.1896 9.39757 19.5872 9.88889 19.5872C10.3802 19.5872 10.7778 19.1896 10.7778 18.6983V16.7339C10.7778 16.2425 10.3802 15.845 9.88889 15.845Z" fill="#2680EA"/>
<path d="M13.4443 12.4143C12.953 12.4143 12.5554 12.8119 12.5554 13.3032V18.6982C12.5554 19.1895 12.953 19.587 13.4443 19.587C13.9356 19.587 14.3332 19.1895 14.3332 18.6982V13.3032C14.3332 12.8119 13.9356 12.4143 13.4443 12.4143Z" fill="#2680EA"/>
<path d="M17 14.5872C16.5087 14.5872 16.1111 14.9847 16.1111 15.476V18.6983C16.1111 19.1896 16.5087 19.5872 17 19.5872C17.4913 19.5872 17.8889 19.1896 17.8889 18.6983V15.476C17.8889 14.9847 17.4913 14.5872 17 14.5872Z" fill="#2680EA"/>
</svg>
