<svg width="14" height="14" viewBox="0 0 14 14" fill="none" xmlns="http://www.w3.org/2000/svg">
<path d="M5.32531 1.27441H2.77531C2.43874 1.2756 2.11635 1.41014 1.87878 1.64856C1.64121 1.88698 1.50781 2.20984 1.50781 2.54641V5.09641M5.32531 1.27441H11.6868C12.0242 1.27441 12.3477 1.40843 12.5863 1.64697C12.8248 1.88552 12.9588 2.20906 12.9588 2.54641V5.09641M5.32531 1.27441V12.7254M5.32531 12.7254H11.6868C12.0242 12.7254 12.3477 12.5914 12.5863 12.3529C12.8248 12.1143 12.9588 11.7908 12.9588 11.4534V5.09191H1.50781V11.4534C1.50781 11.79 1.64121 12.1128 1.87878 12.3513C2.11635 12.5897 2.43874 12.7242 2.77531 12.7254H5.32531Z" stroke="black" stroke-width="1.03893" stroke-linecap="round" stroke-linejoin="round"/>
</svg>
