<svg xmlns="http://www.w3.org/2000/svg" width="12.25" height="9.953" viewBox="0 0 12.25 9.953">
  <g id="Group_16839" data-name="Group 16839" transform="translate(-6974 4480)">
    <path id="Icon_awesome-list" data-name="Icon awesome-list" d="M1.914,9.156H.383A.383.383,0,0,0,0,9.539V11.07a.383.383,0,0,0,.383.383H1.914A.383.383,0,0,0,2.3,11.07V9.539A.383.383,0,0,0,1.914,9.156Zm0-7.656H.383A.383.383,0,0,0,0,1.883V3.414A.383.383,0,0,0,.383,3.8H1.914A.383.383,0,0,0,2.3,3.414V1.883A.383.383,0,0,0,1.914,1.5Zm0,3.828H.383A.383.383,0,0,0,0,5.711V7.242a.383.383,0,0,0,.383.383H1.914A.383.383,0,0,0,2.3,7.242V5.711A.383.383,0,0,0,1.914,5.328Zm9.953,4.211H4.211a.383.383,0,0,0-.383.383v.766a.383.383,0,0,0,.383.383h7.656a.383.383,0,0,0,.383-.383V9.922A.383.383,0,0,0,11.867,9.539Zm0-7.656H4.211a.383.383,0,0,0-.383.383v.766a.383.383,0,0,0,.383.383h7.656a.383.383,0,0,0,.383-.383V2.266A.383.383,0,0,0,11.867,1.883Zm0,3.828H4.211a.383.383,0,0,0-.383.383v.766a.383.383,0,0,0,.383.383h7.656a.383.383,0,0,0,.383-.383V6.094A.383.383,0,0,0,11.867,5.711Z" transform="translate(6974 -4481.5)" fill="#644099"/>
  </g>
</svg>
