<svg id="图层_x0020_1" xmlns="http://www.w3.org/2000/svg" width="41.297" height="41.297" viewBox="0 0 41.297 41.297">
  <path id="Path_13285" data-name="Path 13285" d="M0,0H41.3V41.3H0Z" fill="none" fill-rule="evenodd"/>
  <path id="Path_13286" data-name="Path 13286" d="M19.384,1.318A18.068,18.068,0,1,1,1.316,19.385,18.07,18.07,0,0,1,19.384,1.318ZM15.632,25.254l-4.423-4.427a1.936,1.936,0,0,1,2.737-2.738l3.118,3.121,7.758-7.758A1.936,1.936,0,0,1,27.56,16.19l-9.129,9.129a1.94,1.94,0,0,1-2.737,0c-.021-.021-.042-.043-.062-.065Z" transform="translate(1.272 1.274)" fill="#00ba00" fill-rule="evenodd"/>
  <path id="Path_11596" data-name="Path 11596" d="M41.068,92.135A18.068,18.068,0,1,0,23,74.068,18.068,18.068,0,0,0,41.068,92.135Z" transform="translate(-20.412 -53.409)" fill="#e93030"/>
  <path id="Path_11597" data-name="Path 11597" d="M43.354,72.745a.55.55,0,0,1,0-.777l4.821-4.821a.55.55,0,0,0,0-.777l-2.828-2.828a.55.55,0,0,0-.777,0l-4.821,4.821a.55.55,0,0,1-.777,0l-4.821-4.821a.55.55,0,0,0-.777,0l-2.828,2.828a.55.55,0,0,0,0,.777l4.821,4.821a.55.55,0,0,1,0,.777l-4.821,4.821a.55.55,0,0,0,0,.777l2.828,2.828a.55.55,0,0,0,.777,0l4.821-4.821a.55.55,0,0,1,.777,0l4.821,4.821a.55.55,0,0,0,.777,0l2.828-2.828a.55.55,0,0,0,0-.777Z" transform="translate(-18.702 -51.699)" fill="#fff"/>
</svg>
