<svg xmlns="http://www.w3.org/2000/svg" width="10.958" height="10.116" viewBox="0 0 10.958 10.116">
  <g id="Group_16842" data-name="Group 16842" transform="translate(-6949 4478.116)">
    <g id="hierarchical-structure" transform="translate(6949 -4497.78)">
      <g id="Group_16715" data-name="Group 16715" transform="translate(0 19.664)">
        <path id="Path_13303" data-name="Path 13303" d="M10.1,27.074H9.783v-.4a1.731,1.731,0,0,0-1.729-1.729H5.872V23.452h.957a.857.857,0,0,0,.856-.856V20.52a.857.857,0,0,0-.856-.856H4.272a.857.857,0,0,0-.856.856V22.6a.857.857,0,0,0,.856.856h.957v1.489H2.918a1.731,1.731,0,0,0-1.729,1.729v.4H.856A.857.857,0,0,0,0,27.929v.995a.857.857,0,0,0,.856.856H2.165a.857.857,0,0,0,.856-.856v-.995a.857.857,0,0,0-.856-.856H1.832v-.4a1.088,1.088,0,0,1,1.087-1.087H5.229v1.489H4.9a.857.857,0,0,0-.856.856v.995a.857.857,0,0,0,.856.856H6.2a.857.857,0,0,0,.856-.856v-.995a.857.857,0,0,0-.856-.856H5.872V25.584H8.054A1.088,1.088,0,0,1,9.14,26.671v.4H8.793a.857.857,0,0,0-.856.856v.995a.857.857,0,0,0,.856.856H10.1a.857.857,0,0,0,.856-.856v-.995A.857.857,0,0,0,10.1,27.074Z" transform="translate(0 -19.664)" fill="#644099"/>
      </g>
    </g>
  </g>
</svg>
