<svg id="Group_11092" data-name="Group 11092" xmlns="http://www.w3.org/2000/svg" width="32" height="32" viewBox="0 0 32 32">
  <path id="Path_8536" data-name="Path 8536" d="M16,0A16,16,0,1,1,0,16,16,16,0,0,1,16,0Z" fill="#ffcd02"/>
  <g id="click" transform="translate(7.346 7.418)">
    <path id="Path_13407" data-name="Path 13407" d="M9.692,10.875l1.733,8.013a.975.975,0,0,0,1.8.217l1.011-1.877,2.816,2.816a1,1,0,0,0,1.372,0l1.733-1.733a1,1,0,0,0,0-1.372l-2.888-2.671,1.8-1.011a.97.97,0,0,0,.505-1.011.925.925,0,0,0-.722-.794l-8.013-1.66A.981.981,0,0,0,9.692,10.875Z" transform="translate(-3.123 -3.15)" fill="#fff"/>
    <path id="Path_13408" data-name="Path 13408" d="M10.722,4.21a.723.723,0,0,0,.722-.722V1.322a.722.722,0,1,0-1.444,0V3.488A.723.723,0,0,0,10.722,4.21Z" transform="translate(-3.214 -0.6)" fill="#fff"/>
    <path id="Path_13409" data-name="Path 13409" d="M6.188,5.012,4.6,3.5a.677.677,0,0,0-1.083,0,.7.7,0,0,0,0,1.011L5.033,6.022a.785.785,0,0,0,1.083,0A.646.646,0,0,0,6.188,5.012Z" transform="translate(-1.351 -1.33)" fill="#fff"/>
    <path id="Path_13410" data-name="Path 13410" d="M.6,10.622a.723.723,0,0,0,.722.722H3.488a.723.723,0,0,0,.722-.722A.776.776,0,0,0,3.488,9.9H1.322a.723.723,0,0,0-.722.722Z" transform="translate(-0.6 -3.186)" fill="#fff"/>
    <path id="Path_13411" data-name="Path 13411" d="M5.133,14.617,3.617,16.133A.766.766,0,0,0,4.7,17.216L6.216,15.7a.766.766,0,0,0-1.083-1.083Z" transform="translate(-1.379 -4.437)" fill="#fff"/>
    <path id="Path_13412" data-name="Path 13412" d="M15.8,6.088,17.316,4.5a.766.766,0,1,0-1.083-1.083L14.717,4.933a.785.785,0,0,0,0,1.083A.727.727,0,0,0,15.8,6.088Z" transform="translate(-4.465 -1.323)" fill="#fff"/>
  </g>
</svg>
