<svg id="upload-file" xmlns="http://www.w3.org/2000/svg" width="48" height="48" viewBox="0 0 48 48">
  <g id="Icons" transform="translate(0.797 0.798)">
    <path id="Path_5318" data-name="Path 5318" d="M49.832,11.929V43.4a4,4,0,0,1-4,4H17a4,4,0,0,1-4-4V41.212a13.767,13.767,0,0,0,4,.592,13.6,13.6,0,1,0,0-27.2,13.767,13.767,0,0,0-4,.592V5a4,4,0,0,1,4-4H38.895a3.251,3.251,0,0,1,1.329.288V8.2a2.4,2.4,0,0,0,2.4,2.4h6.918A3.245,3.245,0,0,1,49.832,11.929Z" transform="translate(-3.427 -1)" fill="#e8edfc" opacity="0.5"/>
    <path id="Path_5319" data-name="Path 5319" d="M57.095,13H54.7a3.237,3.237,0,0,1,.287,1.324V45.706A3.989,3.989,0,0,1,51,49.695h2.393a3.989,3.989,0,0,0,3.989-3.989V14.324A3.237,3.237,0,0,0,57.095,13Z" transform="translate(-10.977 -3.29)" fill="#cad9fc"/>
    <path id="Path_5320" data-name="Path 5320" d="M56.285,10.645H49.393A2.393,2.393,0,0,1,47,8.252V1.36a3.262,3.262,0,0,1,.933.646l7.706,7.706a3.262,3.262,0,0,1,.646.933Z" transform="translate(-10.167 -1.073)" fill="#c6d8fb"/>
    <path id="Path_5321" data-name="Path 5321" d="M55.639,9.712,47.933,2.006A3.262,3.262,0,0,0,47,1.36V3.466l6.246,6.246a3.262,3.262,0,0,1,.646.933h2.393A3.262,3.262,0,0,0,55.639,9.712Z" transform="translate(-10.167 -1.073)" fill="#a4c3fd"/>
    <rect id="Rectangle_2878" data-name="Rectangle 2878" width="5" height="5" rx="1" transform="translate(13.178 4.134)" fill="#a4c2f7"/>
    <path id="Path_5322" data-name="Path 5322" d="M28.122,31.561A13.561,13.561,0,1,1,10.572,18.59,13.706,13.706,0,0,1,14.561,18,13.561,13.561,0,0,1,28.122,31.561Z" transform="translate(-0.999 -4.302)" fill="#c6d8fb" opacity="0.5"/>
    <path id="Path_5323" data-name="Path 5323" d="M17.691,18c-.411,0-.817.024-1.218.059a13.552,13.552,0,0,1,0,27c.4.035.807.059,1.218.059a13.561,13.561,0,0,0,0-27.122Z" transform="translate(-4.076 -4.302)" fill="#a4c3fd"/>
    <path id="Path_5324" data-name="Path 5324" d="M12.116,30H13.3v7.158a1.6,1.6,0,0,0,1.6,1.6h3.191a1.6,1.6,0,0,0,1.6-1.6V30h1.18a1.6,1.6,0,0,0,1.181-2.669l-4.371-4.807a1.6,1.6,0,0,0-2.361,0L10.936,27.33A1.6,1.6,0,0,0,12.116,30Z" transform="translate(-2.895 -5.17)" fill="#a4c2f7"/>
  </g>
  <g id="Icons_copy_2" data-name="Icons copy 2" transform="translate(0.797 0.798)">
    <path id="Path_5325" data-name="Path 5325" d="M10.572,41.212V43.4a3.994,3.994,0,0,0,3.989,4h2.393a3.994,3.994,0,0,1-3.989-4V41.212a13.626,13.626,0,0,1,0-26.019V5a3.994,3.994,0,0,1,3.989-4H14.561a3.994,3.994,0,0,0-3.989,4V15.193a13.626,13.626,0,0,0,0,26.019Z" transform="translate(-1 -1)" fill="#fff"/>
  </g>
  <g id="Icons_copy" data-name="Icons copy" transform="translate(0)" opacity="0.5">
    <path id="Path_5326" data-name="Path 5326" d="M1.571,26.841l1.422.725A13.007,13.007,0,0,0,1.6,33.35H0a14.606,14.606,0,0,1,1.571-6.509Z" transform="translate(0 -5.359)" fill="#fff"/>
    <g id="Group_8655" data-name="Group 8655" transform="translate(0)">
      <path id="Path_5327" data-name="Path 5327" d="M39.1,1.17A4.028,4.028,0,0,0,36.272,0H14.4A4.8,4.8,0,0,0,9.6,4.8v9.632a13.354,13.354,0,0,0-2.72,1.3,15.72,15.72,0,0,0-1.618,1.137,15.794,15.794,0,0,0-1.43,1.367,13.974,13.974,0,0,0-2.258,3.234.784.784,0,0,0,.366,1.086A.821.821,0,0,0,3,22.2a12.337,12.337,0,0,1,2.007-2.877,14.263,14.263,0,0,1,1.27-1.218A14.3,14.3,0,0,1,7.718,17.1,12.79,12.79,0,1,1,1.6,28,.8.8,0,0,0,0,28,14.413,14.413,0,0,0,9.6,41.56V43.2A4.8,4.8,0,0,0,14.4,48H43.2A4.8,4.8,0,0,0,48,43.2V11.728A4.028,4.028,0,0,0,46.83,8.9ZM45.269,9.6H40A1.6,1.6,0,0,1,38.4,8V2.731ZM46.4,43.2a3.2,3.2,0,0,1-3.2,3.2H14.4a3.2,3.2,0,0,1-3.2-3.2V42.029A14.4,14.4,0,1,0,14.4,13.6a15.414,15.414,0,0,0-3.2.38V4.8a3.2,3.2,0,0,1,3.2-3.2H36.272a2.39,2.39,0,0,1,.528.065V8A3.2,3.2,0,0,0,40,11.2h6.335a2.39,2.39,0,0,1,.065.528Z" transform="translate(0)" fill="#428dff"/>
      <path id="Path_5328" data-name="Path 5328" d="M21.786,5H18.6A1.6,1.6,0,0,0,17,6.6V9.786a1.6,1.6,0,0,0,1.6,1.6h3.191a1.6,1.6,0,0,0,1.6-1.6V6.6A1.6,1.6,0,0,0,21.786,5ZM18.6,9.786V6.6h3.191V9.786Z" transform="translate(-3.394 -1.011)" fill="#428dff"/>
      <path id="Path_5329" data-name="Path 5329" d="M27.8,7.6h3.191a.8.8,0,0,0,0-1.6H27.8a.8.8,0,0,0,0,1.6Z" transform="translate(-5.393 -1.214)" fill="#428dff"/>
      <path id="Path_5330" data-name="Path 5330" d="M41.382,6H35.8a.8.8,0,1,0,0,1.6h5.584a.8.8,0,0,0,0-1.6Z" transform="translate(-6.986 -1.214)" fill="#428dff"/>
      <path id="Path_5331" data-name="Path 5331" d="M36.573,10H27.8a.8.8,0,0,0,0,1.6h8.775a.8.8,0,1,0,0-1.6Z" transform="translate(-5.383 -1.999)" fill="#428dff"/>
      <path id="Path_5332" data-name="Path 5332" d="M1.3,31.624a.8.8,0,1,1-.008-1.6H1.3a.8.8,0,1,1,0,1.6Z" transform="translate(-0.1 -6.003)" fill="#428dff"/>
      <path id="Path_5333" data-name="Path 5333" d="M20.273,30.593h.382a2.393,2.393,0,0,0,1.771-4l-4.371-4.809a2.393,2.393,0,0,0-3.542,0l-4.371,4.809a2.393,2.393,0,0,0,1.771,4H12.3v6.361a2.393,2.393,0,0,0,2.393,2.393H17.88a2.393,2.393,0,0,0,2.393-2.393Zm-.8-1.6a.8.8,0,0,0-.8.8v7.159a.8.8,0,0,1-.8.8H14.689a.8.8,0,0,1-.8-.8V29.8a.8.8,0,0,0-.8-.8h-1.18a.8.8,0,0,1-.59-1.334L15.7,22.856a.8.8,0,0,1,1.179,0l4.371,4.808A.8.8,0,0,1,20.655,29Z" transform="translate(-1.896 -4.17)" fill="#428dff"/>
      <path id="Path_5334" data-name="Path 5334" d="M13.8,46a.8.8,0,1,0,0,1.6h6.382a.8.8,0,1,0,0-1.6Z" transform="translate(-2.594 -9.196)" fill="#428dff"/>
    </g>
  </g>
</svg>
