<svg xmlns="http://www.w3.org/2000/svg" width="12" height="11" viewBox="0 0 12 11">
  <g id="Icon_feather-battery-charging" data-name="Icon feather-battery-charging" transform="translate(0.5 0.5)">
    <path id="Path_7744" data-name="Path 7744" d="M2.944,13H1.722C1.047,13,.5,12.254.5,11.333V4.667C.5,3.746,1.047,3,1.722,3H3.672M9.056,3h1.222c.675,0,1.222.746,1.222,1.667v6.667c0,.92-.547,1.667-1.222,1.667H8.328" transform="translate(-0.5 -3)" fill="none" stroke="#262626" stroke-linecap="round" stroke-linejoin="round" stroke-width="1"/>
    <path id="Path_7745" data-name="Path 7745" d="M.543,0,.887-.715a.653.653,0,0,0,.328.082q.594,0,1.488-1.07l.234-.285-.531-1.25q-.2-.473-.391-.473-.234,0-.711.637l.1-.512q.57-.75.977-.75.379,0,.711.758l.445,1.02.254-.324Q4.934-4.336,5.664-4.336a.761.761,0,0,1,.4.129l-.4.711a.594.594,0,0,0-.309-.1q-.648,0-1.523,1.07L3.645-2.3,4.23-.934q.2.488.406.488.277,0,.773-.582l-.094.469A1.607,1.607,0,0,1,4.258.1q-.441,0-.715-.645l-.5-1.2-.316.4Q1.594.1.957.1A1.218,1.218,0,0,1,.543,0Z" transform="translate(2.207 7.228)" fill="#262626" stroke="#262626" stroke-width="0.2"/>
  </g>
</svg>
