<svg width="20" height="20" viewBox="0 0 20 20" fill="none" xmlns="http://www.w3.org/2000/svg">
<path d="M9.94715 4.72266C8.91384 4.72266 7.90374 5.02907 7.04458 5.60314C6.18542 6.17721 5.51578 6.99316 5.12035 7.94781C4.72492 8.90246 4.62146 9.95294 4.82305 10.9664C5.02463 11.9798 5.52222 12.9107 6.25288 13.6414C6.98353 14.3721 7.91445 14.8696 8.9279 15.0712C9.94135 15.2728 10.9918 15.1694 11.9465 14.7739C12.9011 14.3785 13.7171 13.7089 14.2911 12.8497C14.8652 11.9905 15.1716 10.9804 15.1716 9.94714C15.1701 8.56198 14.6192 7.23397 13.6398 6.25451C12.6603 5.27505 11.3323 4.72414 9.94715 4.72266ZM9.59294 10.5248C9.59294 10.974 9.41449 11.4048 9.09686 11.7225C8.77923 12.0401 8.34844 12.2185 7.89924 12.2185C7.45004 12.2185 7.01924 12.0401 6.70161 11.7225C6.38398 11.4048 6.20553 10.974 6.20553 10.5248V9.36804C6.20553 8.91885 6.38398 8.48804 6.70161 8.17041C7.01924 7.85278 7.45004 7.67434 7.89924 7.67434C8.34844 7.67434 8.77923 7.85278 9.09686 8.17041C9.41449 8.48804 9.59294 8.91885 9.59294 9.36804V10.5248ZM12.2832 12.2115H10.612V11.1306H12.2832C12.3275 11.1335 12.372 11.1273 12.4138 11.1124C12.4557 11.0974 12.494 11.074 12.5265 11.0437C12.5589 11.0133 12.5847 10.9766 12.6024 10.9358C12.6201 10.895 12.6292 10.8511 12.6292 10.8066C12.6292 10.7622 12.6201 10.7182 12.6024 10.6775C12.5847 10.6367 12.5589 10.6 12.5265 10.5696C12.494 10.5393 12.4557 10.5159 12.4138 10.5009C12.372 10.4859 12.3275 10.4797 12.2832 10.4827H11.7069C11.3341 10.4827 10.9766 10.3346 10.713 10.071C10.4494 9.80738 10.3013 9.44987 10.3013 9.07709C10.3013 8.70431 10.4494 8.3468 10.713 8.08321C10.9766 7.81961 11.3341 7.67153 11.7069 7.67153H13.3781V8.7524H11.7083C11.6222 8.7524 11.5396 8.78662 11.4787 8.84751C11.4178 8.9084 11.3836 8.99098 11.3836 9.07709C11.3836 9.1632 11.4178 9.24579 11.4787 9.30668C11.5396 9.36757 11.6222 9.40178 11.7083 9.40178H12.2846C12.6574 9.40178 13.0149 9.54987 13.2785 9.81346C13.5421 10.0771 13.6902 10.4346 13.6902 10.8073C13.6902 11.1801 13.5421 11.5376 13.2785 11.8012C13.0149 12.0648 12.6574 12.2129 12.2846 12.2129L12.2832 12.2115Z" fill="#A5A5A9"/>
<path d="M7.91517 8.78223C7.75637 8.78223 7.60407 8.84531 7.49178 8.9576C7.37949 9.06989 7.31641 9.22219 7.31641 9.38099V10.5125C7.31641 10.6714 7.37955 10.8239 7.49197 10.9364C7.6044 11.0488 7.75689 11.112 7.91588 11.112C8.07487 11.112 8.22734 11.0488 8.33976 10.9364C8.45218 10.8239 8.51535 10.6714 8.51535 10.5125V9.38099C8.51535 9.30224 8.49982 9.22427 8.46964 9.15153C8.43946 9.07879 8.39523 9.01271 8.33948 8.95709C8.28373 8.90147 8.21755 8.8574 8.14474 8.8274C8.07193 8.79739 7.99392 8.78204 7.91517 8.78223Z" fill="#A5A5A9"/>
<path d="M17.756 8.23382C17.5543 7.31089 17.1898 6.4313 16.6794 5.63633L17.6169 4.69882L15.1951 2.27563L14.2576 3.21314C13.4625 2.70324 12.5829 2.33913 11.6601 2.13789V0.811035H8.23333V2.13789C7.3104 2.33956 6.43081 2.70415 5.63585 3.21455L4.69834 2.27704L2.27514 4.69882L3.21266 5.63633C2.70275 6.4314 2.33864 7.31098 2.1374 8.23382H0.810547V11.6606H2.1374C2.33907 12.5835 2.70366 13.4631 3.21406 14.2581L2.27655 15.1956L4.69974 17.6188L5.63725 16.6813C6.43222 17.1917 7.3118 17.5562 8.23473 17.7579V19.0834H11.6601V17.7565C12.583 17.5548 13.4626 17.1902 14.2576 16.6798L15.1951 17.6174L17.6183 15.1942L16.6808 14.2567C17.1912 13.4617 17.5558 12.5821 17.7574 11.6592H19.0829V8.23382H17.756ZM9.94671 16.1921C8.71158 16.1921 7.50419 15.8259 6.47722 15.1397C5.45025 14.4535 4.64982 13.4781 4.17716 12.337C3.70449 11.1959 3.58082 9.94027 3.82179 8.72888C4.06275 7.51748 4.65752 6.40474 5.53089 5.53137C6.40425 4.65801 7.51699 4.06324 8.72839 3.82227C9.93978 3.58131 11.1954 3.70498 12.3365 4.17765C13.4776 4.65031 14.453 5.45074 15.1392 6.47771C15.8254 7.50468 16.1916 8.71207 16.1916 9.9472C16.1898 11.6029 15.5312 13.1902 14.3605 14.361C13.1897 15.5317 11.6024 16.1903 9.94671 16.1921Z" fill="#A5A5A9"/>
</svg>
