<svg xmlns="http://www.w3.org/2000/svg" width="460.715" height="359.863" viewBox="0 0 460.715 359.863">
  <g id="Virtual_INTERFACE" data-name="Virtual INTERFACE" transform="translate(-738 -227.508)">
    <g id="Group_11418" data-name="Group 11418" transform="translate(738 227.508)">
      <g id="Group_11419" data-name="Group 11419" transform="translate(0 46.583)">
        <path id="Path_7758" data-name="Path 7758" d="M294.007,153.361H146.81V57.5h147.2ZM147.881,152.29H292.936V58.571H147.881Z" transform="translate(-146.81 -57.5)" fill="#ded9d9"/>
        <path id="Path_7759" data-name="Path 7759" d="M294.007,71.167H146.81V57.5h147.2ZM147.881,70.1H292.936V58.571H147.881Z" transform="translate(-146.81 -57.5)" fill="#ded9d9"/>
        <path id="Path_7760" data-name="Path 7760" d="M158.776,64.213A3.213,3.213,0,1,1,155.563,61,3.213,3.213,0,0,1,158.776,64.213Z" transform="translate(-146.416 -57.251)" fill="#c7c7c7"/>
        <path id="Path_7761" data-name="Path 7761" d="M170.846,64.213A3.213,3.213,0,1,1,167.633,61h.054a3.159,3.159,0,0,1,3.16,3.16Z" transform="translate(-145.558 -57.251)" fill="#ebebeb"/>
        <path id="Path_7762" data-name="Path 7762" d="M182.926,64.213A3.213,3.213,0,1,1,179.713,61,3.213,3.213,0,0,1,182.926,64.213Z" transform="translate(-144.7 -57.251)" fill="#90caf9"/>
      </g>
      <path id="Path_2377" data-name="Path 2377" d="M690.31,307.463c2.326-5.436.913-11.1-2.911-15.615a16.374,16.374,0,0,0-16.02-5.192,17.909,17.909,0,0,0-35.521,2.307,13.415,13.415,0,0,0-10.241,18.192Z" transform="translate(-434.894 -271.88)" fill="#90caf9"/>
      <g id="freepik--aiZGp2--inject-132" transform="translate(310.618 47.143)">
        <path id="Path_7742" data-name="Path 7742" d="M572.563,82.65a72.955,72.955,0,0,0-4.938,22.567H547.65v-.546l.161-1.532a56.056,56.056,0,0,1,1.285-7.894,60.789,60.789,0,0,1,4.445-12.307.45.45,0,0,1,.482-.289h18.54Z" transform="translate(-547.65 -53.099)" fill="#ebebeb"/>
        <path id="Path_7743" data-name="Path 7743" d="M571.963,131.162H553.605a.429.429,0,0,1-.45-.289,56.082,56.082,0,0,1-4.552-13.924,53.474,53.474,0,0,1-.9-7.026.382.382,0,0,0-.054-.236v-.557H567.3c.353,0,.343,0,.364.364.129,1.6.236,3.213.386,4.809a62.205,62.205,0,0,0,1.232,7.562,68.93,68.93,0,0,0,2.6,8.986A1.094,1.094,0,0,0,571.963,131.162Z" transform="translate(-547.65 -51.217)" fill="#ebebeb"/>
        <path id="Path_7744" data-name="Path 7744" d="M645.09,135.141c0,.107-.107.193-.15.268a55.8,55.8,0,0,1-5.205,6.748,50.974,50.974,0,0,1-7.626,7.026,54.589,54.589,0,0,1-8.686,5.355,54.007,54.007,0,0,1-9.179,3.577,57.842,57.842,0,0,1-7.647,1.628l-.75.129h-.439l-.407-.246.493-.343a58.739,58.739,0,0,0,14.5-14.052,66.149,66.149,0,0,0,5.923-9.811.418.418,0,0,1,.45-.289h18.776Z" transform="translate(-543.574 -49.37)" fill="#ebebeb"/>
        <path id="Path_7745" data-name="Path 7745" d="M627,105.193H601.21V82.7h20.125a.364.364,0,0,1,.4.268,61.907,61.907,0,0,1,4.1,13.206,64.469,64.469,0,0,1,1,7.144C626.894,103.9,626.948,104.529,627,105.193Z" transform="translate(-543.844 -53.096)" fill="#ebebeb"/>
        <path id="Path_7746" data-name="Path 7746" d="M626.851,109.32a11.152,11.152,0,0,1-.075,1.585c-.107,1.253-.2,2.517-.375,3.759-.246,1.724-.5,3.46-.857,5.173a60.76,60.76,0,0,1-3.342,10.989.428.428,0,0,1-.471.332H601.07V109.32Z" transform="translate(-543.854 -51.204)" fill="#ebebeb"/>
        <path id="Path_7747" data-name="Path 7747" d="M597.451,82.794v22.567H572.27a14.634,14.634,0,0,1,.118-1.692c.129-1.264.225-2.528.428-3.781.311-1.907.632-3.824,1.071-5.72a58.808,58.808,0,0,1,3.609-11.15.408.408,0,0,1,.428-.278h19.526Z" transform="translate(-545.9 -53.093)" fill="#ebebeb"/>
        <path id="Path_7748" data-name="Path 7748" d="M597.485,109.621V131.15H577.338a.407.407,0,0,1-.45-.3,57.83,57.83,0,0,1-3.427-11.364c-.375-2-.664-4.027-.91-6.052-.171-1.317-.214-2.656-.3-4a.747.747,0,0,1,0-.139h24.881C597.42,109.289,597.485,109.364,597.485,109.621Z" transform="translate(-545.902 -51.205)" fill="#ebebeb"/>
        <path id="Path_7749" data-name="Path 7749" d="M652.549,105.357H631.417A73.47,73.47,0,0,0,626.49,82.65h19.7a.429.429,0,0,1,.461.278,55.335,55.335,0,0,1,4.873,14.127,61.543,61.543,0,0,1,1.071,7.915Z" transform="translate(-542.047 -53.099)" fill="#ebebeb"/>
        <path id="Path_7750" data-name="Path 7750" d="M652.524,109.16a11.142,11.142,0,0,1-.064,1.478,56.694,56.694,0,0,1-.7,5.687,55.45,55.45,0,0,1-3.888,12.692c-.279.653-.6,1.3-.889,1.949a.29.29,0,0,1-.311.2H627c.236-.675.471-1.328.7-1.992a67.764,67.764,0,0,0,2.613-10.293,65.729,65.729,0,0,0,.91-7.658c0-.611.075-1.221.1-1.821,0-.161,0-.246.225-.225a1.159,1.159,0,0,0,.193,0Z" transform="translate(-542.011 -51.215)" fill="#ebebeb"/>
        <path id="Path_7751" data-name="Path 7751" d="M644.51,78.859v.1H625.755a.428.428,0,0,1-.45-.268A63.354,63.354,0,0,0,616.137,65.1a52.521,52.521,0,0,0-7.037-6.491c-1.264-.964-2.571-1.874-3.856-2.806l-.214-.161.257-.182a1.664,1.664,0,0,0-.129-.4,54.52,54.52,0,0,1,18.69,5.612A53.809,53.809,0,0,1,644.51,78.859Z" transform="translate(-543.572 -55.06)" fill="#ebebeb"/>
        <path id="Path_7752" data-name="Path 7752" d="M595.025,159.637a1.854,1.854,0,0,1-.536.086,49.766,49.766,0,0,1-6.019-1.167,54.475,54.475,0,0,1-10.711-3.974,55.219,55.219,0,0,1-10.936-7.176,52.174,52.174,0,0,1-6.566-6.576,55.006,55.006,0,0,1-4.1-5.677.758.758,0,0,1-.086-.182h17.512a.417.417,0,0,1,.428.278,66.749,66.749,0,0,0,6.33,10.3,65.747,65.747,0,0,0,7.412,8.215,56.431,56.431,0,0,0,7.133,5.73Z" transform="translate(-547.052 -49.381)" fill="#ebebeb"/>
        <path id="Path_7753" data-name="Path 7753" d="M594.763,55.595c-.793.578-1.714,1.232-2.613,1.917a64.992,64.992,0,0,0-8.344,7.765,58.451,58.451,0,0,0-8.751,12.478c-.15.289-.278.589-.45.857a.383.383,0,0,1-.268.171H556.59c9.372-13.228,21.957-21.186,37.98-23.564,0,.075-.075.15-.118.214Z" transform="translate(-547.015 -55.049)" fill="#ebebeb"/>
        <path id="Path_7754" data-name="Path 7754" d="M619.314,135.15a60.49,60.49,0,0,1-8.569,11.525,53.578,53.578,0,0,1-9.725,8.247V135.15Z" transform="translate(-543.857 -49.368)" fill="#ebebeb"/>
        <path id="Path_7755" data-name="Path 7755" d="M596.941,135.16v19.386a55.959,55.959,0,0,1-17.5-19.386Z" transform="translate(-545.391 -49.367)" fill="#ebebeb"/>
        <path id="Path_7756" data-name="Path 7756" d="M618.733,78.433H601.21V60a53.78,53.78,0,0,1,9.832,8.237A62.314,62.314,0,0,1,618.733,78.433Z" transform="translate(-543.844 -54.709)" fill="#ebebeb"/>
        <path id="Path_7757" data-name="Path 7757" d="M596.9,60.49V78.548H580.08A53.235,53.235,0,0,1,596.9,60.49Z" transform="translate(-545.345 -54.674)" fill="#ebebeb"/>
      </g>
      <g id="Group_11417" data-name="Group 11417" transform="translate(39.214 47.143)">
        <g id="Group_11415" data-name="Group 11415" transform="translate(0)">
          <path id="Path_7715" data-name="Path 7715" d="M1042.427,518.1a27.745,27.745,0,0,1-13.569-3.24L935.95,461.22c-3.695-2.133-5.728-4.99-5.728-8.045s2.033-5.914,5.728-8.045l161.383-93.175c7.482-4.317,19.657-4.32,27.136,0l92.907,53.642c3.695,2.132,5.73,4.989,5.73,8.045s-2.035,5.912-5.73,8.045L1056,514.861A27.739,27.739,0,0,1,1042.427,518.1ZM1110.9,349.437a27.011,27.011,0,0,0-13.205,3.152L936.316,445.763c-3.457,2-5.361,4.629-5.361,7.412s1.9,5.415,5.361,7.41l92.908,53.641c7.28,4.2,19.125,4.2,26.407,0l161.381-93.174c3.457-2,5.361-4.628,5.361-7.41s-1.9-5.415-5.361-7.412L1124.1,352.589A27,27,0,0,0,1110.9,349.437Z" transform="translate(-930.222 -274.874)" fill="#03a7d3"/>
          <g id="Group_11414" data-name="Group 11414" transform="translate(0.822)">
            <path id="Path_7716" data-name="Path 7716" d="M1222.89,395h0l-.014-44.544-56.29,7.51-42.149-24.337c-7.393-4.268-19.378-4.268-26.771,0l-75.528,43.606-91.392,12.193v45.353l.035,0c.1,2.716,1.915,5.412,5.5,7.485l92.908,53.641c7.393,4.268,19.38,4.268,26.773,0l161.382-93.175c3.576-2.065,5.385-4.753,5.5-7.461l.046,0Z" transform="translate(-930.739 -285.549)" fill="#73a2c7"/>
            <path id="Path_7717" data-name="Path 7717" d="M1217.346,358.932l-92.907-53.641c-7.393-4.268-19.378-4.268-26.771,0L936.286,398.465c-7.393,4.268-7.393,11.189,0,15.457l92.908,53.641c7.393,4.268,19.379,4.268,26.773,0l161.382-93.174C1224.741,370.119,1224.741,363.2,1217.346,358.932Z" transform="translate(-930.741 -302.09)" fill="#90caf9"/>
            <path id="Path_7718" data-name="Path 7718" d="M1217.342,348.387,1055.96,441.561c-7.393,4.268-19.38,4.268-26.773,0L936.28,387.92c-3.1-1.79-4.883-4.048-5.383-6.378-.692,3.228,1.09,6.6,5.383,9.078l92.908,53.641c7.393,4.267,19.38,4.268,26.773,0l161.382-93.175c4.292-2.477,6.075-5.849,5.381-9.078C1222.223,344.341,1220.441,346.6,1217.342,348.387Z" transform="translate(-930.735 -278.788)" fill="#fff"/>
            <g id="Group_11409" data-name="Group 11409" transform="translate(175.269 105.064)">
              <path id="Path_7719" data-name="Path 7719" d="M1045.808,400.218l-4.4,2.539v-5.079l4.4-2.539Z" transform="translate(-1041.41 -352.839)" fill="#fff"/>
              <path id="Path_7720" data-name="Path 7720" d="M1051.619,396.863l-4.4,2.539v-5.079l4.4-2.539Z" transform="translate(-1038.018 -354.797)" fill="#fff"/>
              <path id="Path_7721" data-name="Path 7721" d="M1057.429,393.509l-4.4,2.539v-5.079l4.4-2.539Z" transform="translate(-1034.627 -356.755)" fill="#fff"/>
              <path id="Path_7722" data-name="Path 7722" d="M1052.678,402.749l-4.4,2.539V400.21l4.4-2.539Z" transform="translate(-1037.4 -351.361)" fill="#fff"/>
              <path id="Path_7723" data-name="Path 7723" d="M1057.794,399.8l-4.4,2.539v-5.078l4.4-2.539Z" transform="translate(-1034.414 -353.085)" fill="#fff"/>
              <path id="Path_7724" data-name="Path 7724" d="M1076.065,382.749l-4.4,2.539V380.21l4.4-2.539Z" transform="translate(-1023.748 -363.035)" fill="#fff"/>
              <path id="Path_7725" data-name="Path 7725" d="M1092.07,373.508l-4.4,2.539v-5.079l4.4-2.539Z" transform="translate(-1014.406 -368.43)" fill="#fff"/>
              <path id="Path_7726" data-name="Path 7726" d="M1063.239,390.154l-4.4,2.54v-5.079l4.4-2.539Z" transform="translate(-1031.235 -358.713)" fill="#fff"/>
            </g>
            <g id="Group_11413" data-name="Group 11413" transform="translate(138.81 23.479)">
              <g id="Group_11410" data-name="Group 11410" transform="translate(0 21.282)">
                <path id="Path_7727" data-name="Path 7727" d="M1024.437,330.353l65.64,37.811-6.049,3.5-65.64-37.811Z" transform="translate(-1018.389 -330.353)" fill="#11203c"/>
                <path id="Path_7728" data-name="Path 7728" d="M1020.667,335.165l4.122-2.385,63.363,36.5,1.926-1.114-65.64-37.812-6.049,3.5Z" transform="translate(-1018.388 -330.353)" fill="#fff"/>
              </g>
              <g id="Group_11411" data-name="Group 11411" transform="translate(18.389 10.641)">
                <path id="Path_7729" data-name="Path 7729" d="M1036.048,323.634l65.64,37.811-6.049,3.5L1030,327.134Z" transform="translate(-1030 -323.634)" fill="#11203c"/>
                <path id="Path_7730" data-name="Path 7730" d="M1032.278,328.446l4.122-2.385,63.363,36.5,1.925-1.114-65.64-37.812-6.049,3.5Z" transform="translate(-1030 -323.634)" fill="#fff"/>
              </g>
              <g id="Group_11412" data-name="Group 11412" transform="translate(36.778)">
                <path id="Path_7731" data-name="Path 7731" d="M1047.66,316.915l65.64,37.811-6.049,3.5-65.64-37.811Z" transform="translate(-1041.611 -316.915)" fill="#11203c"/>
                <path id="Path_7732" data-name="Path 7732" d="M1043.889,321.727l4.122-2.385,63.363,36.5,1.926-1.114-65.64-37.812-6.049,3.5Z" transform="translate(-1041.611 -316.915)" fill="#fff"/>
              </g>
            </g>
          </g>
          <path id="Path_7733" data-name="Path 7733" d="M1026.172,423.308a9.6,9.6,0,0,1-4.724-1.105l-62.506-36.088a3.737,3.737,0,0,1-2.124-3.2c0-1.468,1.033-2.9,2.835-3.945l61.083-35.266c3.209-1.851,7.92-2.032,10.73-.41l62.506,36.09a3.736,3.736,0,0,1,2.125,3.193c0,1.467-1.033,2.9-2.836,3.945l-61.083,35.266A12.275,12.275,0,0,1,1026.172,423.308Zm-3.907-2.523c2.276,1.31,6.438,1.123,9.1-.412l61.083-35.265c1.264-.73,2.018-1.676,2.018-2.529a2.23,2.23,0,0,0-1.3-1.777l-62.508-36.088c-2.274-1.311-6.436-1.124-9.1.41l-61.084,35.265c-1.261.729-2.016,1.676-2.016,2.529a2.231,2.231,0,0,0,1.307,1.778Z" transform="translate(-914.698 -278.682)" fill="#11203c"/>
          <path id="Path_7734" data-name="Path 7734" d="M1002.189,431.606l-51.58-29.78a5.341,5.341,0,0,1-2.23-4.259v-3.829c0-1.642,1-2.4,2.23-1.687l51.58,29.78a5.338,5.338,0,0,1,2.23,4.26v3.829C1004.419,431.564,1003.421,432.318,1002.189,431.606Z" transform="translate(-919.623 -249.733)" fill="#11203c"/>
        </g>
        <g id="Group_11416" data-name="Group 11416" transform="translate(167.495 165.732)">
          <path id="Path_7735" data-name="Path 7735" d="M1125.7,535.626a.389.389,0,0,1-.2-.054l-39.085-22.565c-5.231-3.02-7.95-7.225-7.459-11.536l3.377-29.665c.453-3.983-2.124-7.9-7.071-10.76l-39.083-22.565a.4.4,0,0,1,.4-.687l39.083,22.565c5.232,3.02,7.952,7.227,7.461,11.536l-3.377,29.666c-.454,3.982,2.124,7.9,7.07,10.76l39.085,22.565a.4.4,0,0,1-.2.74Z" transform="translate(-1035.982 -388.638)" fill="#03a7d3"/>
          <path id="Path_7736" data-name="Path 7736" d="M1191.971,497.363a.388.388,0,0,1-.2-.054l-128.743-74.331a.4.4,0,0,1,.4-.687l128.743,74.332a.4.4,0,0,1-.2.74Z" transform="translate(-1020.308 -397.688)" fill="#03a7d3"/>
          <path id="Path_7737" data-name="Path 7737" d="M1236.153,471.856a.392.392,0,0,1-.2-.054l-41.136-23.751a34.235,34.235,0,0,0-14.131-4.042l-44.153-3.47a35.016,35.016,0,0,1-14.466-4.145l-41.137-23.751a.4.4,0,0,1,.4-.687l41.137,23.751a34.244,34.244,0,0,0,14.131,4.043l44.153,3.468a35.053,35.053,0,0,1,14.466,4.146l41.136,23.751a.4.4,0,0,1-.2.74Z" transform="translate(-1009.859 -403.72)" fill="#03a7d3"/>
          <path id="Path_7738" data-name="Path 7738" d="M1147.79,522.872a.388.388,0,0,1-.2-.054l-41.136-23.75c-3.937-2.271-6.522-5.293-7.277-8.508l-6.009-25.492c-.706-3-3.158-5.842-6.9-8l-41.137-23.751a.4.4,0,0,1,.4-.687l41.137,23.751c3.935,2.274,6.522,5.294,7.277,8.508l6.009,25.493c.708,3,3.158,5.842,6.9,8l41.135,23.749a.4.4,0,0,1-.2.74Z" transform="translate(-1030.758 -391.655)" fill="#03a7d3"/>
          <path id="Path_7739" data-name="Path 7739" d="M1169.881,510.117a.389.389,0,0,1-.2-.054l-43.845-25.313a17.912,17.912,0,0,1-5.242-4.392l-17.657-22.706a17.072,17.072,0,0,0-5.013-4.192l-43.845-25.314a.4.4,0,1,1,.4-.687l43.845,25.316a17.83,17.83,0,0,1,5.241,4.392l17.658,22.706a17.1,17.1,0,0,0,5.013,4.191l43.845,25.314a.4.4,0,0,1-.2.74Z" transform="translate(-1025.533 -394.671)" fill="#03a7d3"/>
          <path id="Path_7740" data-name="Path 7740" d="M1214.063,484.61a.389.389,0,0,1-.2-.054l-43.845-25.314a29.442,29.442,0,0,0-7.334-2.92l-39.326-10.2a30.328,30.328,0,0,1-7.532-3l-43.845-25.314a.4.4,0,0,1,.4-.687l43.845,25.316a29.525,29.525,0,0,0,7.334,2.917l39.326,10.2a30.36,30.36,0,0,1,7.532,3l43.845,25.316a.4.4,0,0,1-.2.74Z" transform="translate(-1015.084 -400.704)" fill="#03a7d3"/>
          <path id="Path_7741" data-name="Path 7741" d="M1258.246,459.1a.387.387,0,0,1-.2-.054l-39.086-22.566c-5.027-2.9-11.981-4.4-19.094-4.141l-51.381,1.95c-7.256.263-14.369-1.273-19.519-4.248l-39.086-22.565a.4.4,0,0,1,.4-.687l39.086,22.565c5.022,2.9,12,4.43,19.092,4.143l51.383-1.95c7.256-.265,14.368,1.275,19.519,4.248l39.086,22.566a.4.4,0,0,1-.2.74Z" transform="translate(-1004.635 -406.737)" fill="#03a7d3"/>
        </g>
      </g>
      <path id="Path_2379" data-name="Path 2379" d="M650.216,305.424v-9.106h-4.561l6.864-9.7,6.864,9.633h-4.479v9.17Z" transform="translate(-432.263 -270.033)" fill="#fff"/>
    </g>
  </g>
</svg>
