<svg id="Virtual_Interface" data-name="Virtual Interface" xmlns="http://www.w3.org/2000/svg" width="36" height="36" viewBox="0 0 36 36">
  <rect id="Rectangle_3954" data-name="Rectangle 3954" width="36" height="36" rx="4" fill="#25b89d"/>
  <g id="interface" transform="translate(5 7)">
    <path id="Path_9258" data-name="Path 9258" d="M21.021,21.879H15.161V18.2a2.134,2.134,0,0,0-2.131-2.131H2.131A2.134,2.134,0,0,0,0,18.2v5.1a2.134,2.134,0,0,0,2.132,2.131h.006l5.128-.015v1.568H4.311A2.132,2.132,0,0,0,2.18,29.117V30.57A2.132,2.132,0,0,0,4.311,32.7H7.944a2.13,2.13,0,0,0,2.131-2.131v-.054l1.971-.006A2.84,2.84,0,0,0,11.625,32v.852a2.119,2.119,0,0,0,.624,1.507l2.282,2.282v1.172a.678.678,0,0,0,.678.678h5.812a.678.678,0,0,0,.678-.678V36.781l.275-.138a2.12,2.12,0,0,0,1.178-1.906V32.323a2.129,2.129,0,0,0-1.334-1.976,2.134,2.134,0,0,0,1.334-1.977V24.011A2.13,2.13,0,0,0,21.021,21.879Zm-18.888,2.2h0a.775.775,0,0,1-.775-.775V18.2a.776.776,0,0,1,.775-.775h10.9a.776.776,0,0,1,.775.775v3.681H9.4a2.131,2.131,0,0,0-2.131,2.131v.05ZM8.718,30.57a.774.774,0,0,1-.775.775H4.311a.775.775,0,0,1-.775-.775V29.117a.775.775,0,0,1,.775-.775H7.265v.048a2.144,2.144,0,0,0,1.453,2.022v.158ZM21.8,34.737a.771.771,0,0,1-.428.693l-.65.325a.678.678,0,0,0-.375.607v.775H15.887v-.775a.678.678,0,0,0-.2-.48l-2.48-2.48a.771.771,0,0,1-.227-.548V32a1.5,1.5,0,0,1,1.5-1.5h.049V32a.678.678,0,0,0,1.357,0V26.917a.775.775,0,0,1,1.55,0v2.906a.678.678,0,0,0,.464.643l3.365,1.122a.774.774,0,0,1,.53.735v2.414Zm0-6.367a.774.774,0,0,1-.775.775H18.793V26.917a2.131,2.131,0,0,0-4.263,0v2.228h-.049l-.093,0-4.99.014h0a.775.775,0,0,1-.775-.775V24.011a.776.776,0,0,1,.775-.775H21.021a.774.774,0,0,1,.775.775V28.37Z" transform="translate(0 -15.34)" fill="#fff"/>
  </g>
</svg>
