<svg xmlns="http://www.w3.org/2000/svg" width="14" height="10.5" viewBox="0 0 14 10.5">
  <g id="Group_11048" data-name="Group 11048" transform="translate(-145.5 -322)">
    <g id="Icon_feather-tablet" data-name="Icon feather-tablet" transform="translate(160 320.5) rotate(90)">
      <path id="Path_7733" data-name="Path 7733" d="M3.188,1h7.125A1.248,1.248,0,0,1,11.5,2.3V12.7A1.248,1.248,0,0,1,10.313,14H3.188A1.248,1.248,0,0,1,2,12.7V2.3A1.248,1.248,0,0,1,3.188,1Z" fill="#e7e0f8" stroke="#9b60c6" stroke-linecap="round" stroke-linejoin="round" stroke-width="1"/>
    </g>
    <path id="Path_7734" data-name="Path 7734" d="M.861-1.881a4.967,4.967,0,0,0,.15,1.215A4.952,4.952,0,0,0,1.44.456a.312.312,0,0,1,.035.107.19.19,0,0,1-.008.081A.156.156,0,0,1,1.43.7a.288.288,0,0,1-.056.044l-.33.2A5.192,5.192,0,0,1,.666.261a4.949,4.949,0,0,1-.255-.7,4.953,4.953,0,0,1-.146-.711,5.732,5.732,0,0,1-.046-.735,5.768,5.768,0,0,1,.046-.737A4.945,4.945,0,0,1,.411-3.33a4.886,4.886,0,0,1,.255-.694,5.241,5.241,0,0,1,.378-.686l.33.2a.288.288,0,0,1,.056.043.156.156,0,0,1,.037.06.19.19,0,0,1,.008.081.339.339,0,0,1-.035.11A4.887,4.887,0,0,0,1.011-3.1,4.985,4.985,0,0,0,.861-1.881ZM4.761,0H4.047a.2.2,0,0,1-.13-.042.4.4,0,0,1-.082-.1L3.183-1.209a.831.831,0,0,1-.035.1.663.663,0,0,1-.043.084l-.576.891a.478.478,0,0,1-.081.095A.172.172,0,0,1,2.328,0H1.665L2.721-1.587,1.707-3.078h.714a.248.248,0,0,1,.12.022.2.2,0,0,1,.069.074l.645,1.026a.955.955,0,0,1,.093-.2l.519-.81a.2.2,0,0,1,.171-.111h.681L3.708-1.62Zm.8-1.881A5.033,5.033,0,0,0,5.413-3.1a4.838,4.838,0,0,0-.427-1.12.309.309,0,0,1-.038-.11.19.19,0,0,1,.008-.081.156.156,0,0,1,.037-.06.255.255,0,0,1,.059-.043l.33-.2a5.241,5.241,0,0,1,.378.686,4.886,4.886,0,0,1,.255.694,4.81,4.81,0,0,1,.144.712,5.957,5.957,0,0,1,.045.737,5.921,5.921,0,0,1-.045.735,4.816,4.816,0,0,1-.144.711,4.949,4.949,0,0,1-.255.7,5.192,5.192,0,0,1-.378.687l-.33-.2A.254.254,0,0,1,4.993.7a.156.156,0,0,1-.037-.06A.19.19,0,0,1,4.948.563.285.285,0,0,1,4.986.456,4.9,4.9,0,0,0,5.413-.666,5.015,5.015,0,0,0,5.562-1.881Z" transform="translate(149.289 329)" fill="#9b60c6" stroke="#9b60c6" stroke-width="0.3"/>
  </g>
</svg>
