<svg width="231" height="82" viewBox="0 0 231 82" fill="none" xmlns="http://www.w3.org/2000/svg">
<rect x="1.40885" y="1.40885" width="210.843" height="78.7448" rx="9.86198" fill="white" stroke="black" stroke-width="2.81771"/>
<path d="M202.39 1.40918C207.836 1.40918 212.252 5.82404 212.252 11.2705V23.0596H73.2949V1.40918H202.39Z" fill="#FABE00" stroke="black" stroke-width="2.81771"/>
<rect x="1.40885" y="1.40885" width="83.0459" height="78.7448" rx="9.86198" fill="white" stroke="black" stroke-width="2.81771"/>
<g clip-path="url(#clip0_1013_1795)">
<path d="M49.5721 17.616L70.0513 49.0769C70.8024 50.2307 71.2342 51.5682 71.2342 52.9961C71.2342 57.3324 67.2708 60.848 62.3815 60.848H41.9024L34.8203 37.2657L41.9024 13.6836C45.1816 13.6836 48.0423 15.2662 49.5721 17.616Z" fill="#3B4145"/>
<path d="M34.2324 17.616L13.7531 49.0769C13.0022 50.2307 12.5703 51.5682 12.5703 52.9961C12.5703 57.3324 16.5338 60.848 21.423 60.848H41.9021V13.6836C38.6229 13.6836 35.7622 15.2662 34.2324 17.616Z" fill="#525A61"/>
<path d="M66.9849 50.6484L46.5058 19.1878C45.5828 17.7693 43.8878 16.8742 42.0547 16.8281L59.57 57.7087H62.3816C65.3101 57.7087 67.6932 55.5952 67.6932 52.9977C67.6932 52.1727 67.4477 51.3603 66.9849 50.6484Z" fill="#FFB751"/>
<path d="M63.5403 50.6477C63.9404 51.3596 64.1516 52.1719 64.1516 52.9969C64.1516 55.5943 62.0967 57.708 59.5695 57.708H21.4229C18.4944 57.708 16.1113 55.5943 16.1113 52.9969C16.1113 52.1719 16.3569 51.3596 16.8195 50.6477L37.2986 19.1871C38.2477 17.7298 40.0111 16.8242 41.902 16.8242C41.9527 16.8242 42.0035 16.8252 42.0543 16.8274C43.6276 16.8818 45.0807 17.7748 45.8727 19.1871L63.5403 50.6477Z" fill="#FABE00"/>
<path d="M41.9023 47.2383V52.4728C43.5329 52.4728 44.854 51.3013 44.854 49.8555C44.854 48.4098 43.5329 47.2383 41.9023 47.2383Z" fill="#3B4145"/>
<path d="M41.9029 47.2383C42.2287 47.2383 42.4932 48.4098 42.4932 49.8556C42.4932 51.3014 42.2287 52.4729 41.9029 52.4729C40.2724 52.4729 38.9512 51.3014 38.9512 49.8556C38.9512 48.4098 40.2724 47.2383 41.9029 47.2383Z" fill="#525A61"/>
<path d="M41.9023 24.7305V44.0983C43.5329 44.0983 44.854 42.9258 44.854 41.481V27.3478C44.854 25.902 43.5329 24.7305 41.9023 24.7305Z" fill="#3B4145"/>
<path d="M41.9029 24.7305C42.2287 24.7305 42.4932 25.902 42.4932 27.3478V41.481C42.4932 42.9257 42.2287 44.0983 41.9029 44.0983C40.2724 44.0983 38.9512 42.9258 38.9512 41.481V27.3478C38.9512 25.902 40.2724 24.7305 41.9029 24.7305Z" fill="#525A61"/>
</g>
<path d="M93.07 30.4273H91.3613V35.7188H90.6678V30.4273H88.9632V29.7999H93.07V30.4273ZM97.4204 35.7188H96.7435V33.2835C96.7435 32.403 96.4161 31.9627 95.7612 31.9627C95.431 31.9627 95.1531 32.0907 94.9274 32.3466C94.7018 32.5997 94.589 32.9258 94.589 33.3248V35.7188H93.912V29.4615H94.589V32.1939H94.6055C94.9302 31.66 95.3924 31.3931 95.9923 31.3931C96.9444 31.3931 97.4204 31.9669 97.4204 33.1143V35.7188ZM99.0467 30.419C98.9256 30.419 98.8224 30.3778 98.7371 30.2952C98.6518 30.2127 98.6091 30.1081 98.6091 29.9815C98.6091 29.8549 98.6518 29.7504 98.7371 29.6678C98.8224 29.5825 98.9256 29.5399 99.0467 29.5399C99.1705 29.5399 99.275 29.5825 99.3604 29.6678C99.4484 29.7504 99.4924 29.8549 99.4924 29.9815C99.4924 30.1026 99.4484 30.2058 99.3604 30.2911C99.275 30.3764 99.1705 30.419 99.0467 30.419ZM99.3769 35.7188H98.7V31.4922H99.3769V35.7188ZM100.491 35.566V34.8396C100.86 35.112 101.266 35.2482 101.709 35.2482C102.303 35.2482 102.6 35.0501 102.6 34.6539C102.6 34.541 102.574 34.4461 102.522 34.3691C102.472 34.2893 102.404 34.2191 102.316 34.1586C102.23 34.098 102.129 34.0444 102.01 33.9976C101.895 33.9481 101.769 33.8971 101.635 33.8449C101.447 33.7706 101.282 33.6963 101.139 33.622C100.999 33.5449 100.881 33.4596 100.784 33.3661C100.691 33.2698 100.619 33.1611 100.57 33.04C100.523 32.9189 100.5 32.7772 100.5 32.6149C100.5 32.4167 100.545 32.242 100.636 32.0907C100.727 31.9366 100.848 31.8086 100.999 31.7068C101.15 31.6023 101.322 31.5238 101.515 31.4715C101.71 31.4193 101.911 31.3931 102.118 31.3931C102.483 31.3931 102.811 31.4564 103.1 31.583V32.2682C102.789 32.0645 102.431 31.9627 102.027 31.9627C101.9 31.9627 101.786 31.9779 101.684 32.0081C101.582 32.0356 101.494 32.0755 101.42 32.1278C101.348 32.1801 101.292 32.2434 101.251 32.3177C101.212 32.3892 101.193 32.469 101.193 32.5571C101.193 32.6671 101.212 32.7593 101.251 32.8336C101.292 32.9079 101.351 32.974 101.428 33.0317C101.505 33.0895 101.599 33.1418 101.709 33.1886C101.819 33.2354 101.944 33.2863 102.085 33.3413C102.272 33.4129 102.439 33.4871 102.588 33.5642C102.737 33.6385 102.863 33.7238 102.968 33.8201C103.072 33.9137 103.152 34.0223 103.207 34.1462C103.265 34.27 103.294 34.4172 103.294 34.5878C103.294 34.7969 103.247 34.9786 103.154 35.1326C103.063 35.2867 102.94 35.4147 102.786 35.5165C102.632 35.6183 102.455 35.694 102.254 35.7435C102.053 35.793 101.842 35.8178 101.622 35.8178C101.187 35.8178 100.81 35.7339 100.491 35.566ZM110.265 35.7188H109.588V35.0006H109.572C109.258 35.5454 108.774 35.8178 108.119 35.8178C107.588 35.8178 107.163 35.6293 106.844 35.2523C106.527 34.8726 106.369 34.3567 106.369 33.7045C106.369 33.0056 106.545 32.4456 106.897 32.0246C107.249 31.6036 107.719 31.3931 108.305 31.3931C108.885 31.3931 109.308 31.6215 109.572 32.0783H109.588V29.4615H110.265V35.7188ZM109.588 33.8077V33.1845C109.588 32.8433 109.475 32.5543 109.25 32.3177C109.024 32.081 108.738 31.9627 108.391 31.9627C107.979 31.9627 107.654 32.1141 107.417 32.4167C107.181 32.7194 107.062 33.1377 107.062 33.6715C107.062 34.1586 107.175 34.5438 107.401 34.8272C107.629 35.1079 107.935 35.2482 108.317 35.2482C108.694 35.2482 108.999 35.112 109.233 34.8396C109.47 34.5672 109.588 34.2232 109.588 33.8077ZM115.032 33.7747H112.048C112.059 34.2452 112.186 34.6085 112.428 34.8644C112.67 35.1203 113.003 35.2482 113.427 35.2482C113.903 35.2482 114.34 35.0914 114.739 34.7777V35.4133C114.368 35.683 113.877 35.8178 113.266 35.8178C112.669 35.8178 112.2 35.6266 111.858 35.2441C111.517 34.8589 111.347 34.3182 111.347 33.622C111.347 32.9643 111.532 32.4291 111.904 32.0164C112.278 31.6009 112.742 31.3931 113.295 31.3931C113.848 31.3931 114.276 31.572 114.578 31.9297C114.881 32.2874 115.032 32.7841 115.032 33.4197V33.7747ZM114.339 33.201C114.336 32.8102 114.241 32.5062 114.054 32.2888C113.87 32.0714 113.613 31.9627 113.282 31.9627C112.963 31.9627 112.692 32.0769 112.469 32.3053C112.246 32.5337 112.109 32.8322 112.057 33.201H114.339ZM119.383 31.4922L117.699 35.7188H117.034L115.433 31.4922H116.176L117.249 34.563C117.329 34.7887 117.378 34.9854 117.398 35.1533H117.414C117.442 34.9414 117.486 34.7502 117.546 34.5796L118.669 31.4922H119.383ZM120.46 30.419C120.339 30.419 120.236 30.3778 120.151 30.2952C120.065 30.2127 120.023 30.1081 120.023 29.9815C120.023 29.8549 120.065 29.7504 120.151 29.6678C120.236 29.5825 120.339 29.5399 120.46 29.5399C120.584 29.5399 120.689 29.5825 120.774 29.6678C120.862 29.7504 120.906 29.8549 120.906 29.9815C120.906 30.1026 120.862 30.2058 120.774 30.2911C120.689 30.3764 120.584 30.419 120.46 30.419ZM120.79 35.7188H120.113V31.4922H120.79V35.7188ZM125.042 35.5248C124.717 35.7201 124.332 35.8178 123.886 35.8178C123.283 35.8178 122.796 35.6224 122.425 35.2317C122.056 34.8382 121.872 34.3292 121.872 33.7045C121.872 33.0084 122.071 32.4498 122.47 32.0288C122.869 31.605 123.402 31.3931 124.068 31.3931C124.439 31.3931 124.767 31.4619 125.05 31.5995V32.2929C124.736 32.0728 124.401 31.9627 124.043 31.9627C123.611 31.9627 123.256 32.1182 122.978 32.4291C122.703 32.7373 122.565 33.1432 122.565 33.6467C122.565 34.142 122.694 34.5328 122.953 34.819C123.215 35.1051 123.564 35.2482 124.002 35.2482C124.37 35.2482 124.717 35.1258 125.042 34.8809V35.5248ZM129.462 33.7747H126.478C126.489 34.2452 126.616 34.6085 126.858 34.8644C127.1 35.1203 127.433 35.2482 127.857 35.2482C128.333 35.2482 128.77 35.0914 129.169 34.7777V35.4133C128.798 35.683 128.307 35.8178 127.696 35.8178C127.099 35.8178 126.629 35.6266 126.288 35.2441C125.947 34.8589 125.776 34.3182 125.776 33.622C125.776 32.9643 125.962 32.4291 126.334 32.0164C126.708 31.6009 127.171 31.3931 127.725 31.3931C128.278 31.3931 128.706 31.572 129.008 31.9297C129.311 32.2874 129.462 32.7841 129.462 33.4197V33.7747ZM128.769 33.201C128.766 32.8102 128.671 32.5062 128.484 32.2888C128.3 32.0714 128.042 31.9627 127.712 31.9627C127.393 31.9627 127.122 32.0769 126.899 32.3053C126.676 32.5337 126.539 32.8322 126.486 33.201H128.769ZM136.318 35.7188H135.641V33.2835C135.641 32.403 135.314 31.9627 134.659 31.9627C134.329 31.9627 134.051 32.0907 133.825 32.3466C133.599 32.5997 133.487 32.9258 133.487 33.3248V35.7188H132.81V29.4615H133.487V32.1939H133.503C133.828 31.66 134.29 31.3931 134.89 31.3931C135.842 31.3931 136.318 31.9669 136.318 33.1143V35.7188ZM140.623 35.7188H139.946V35.0583H139.93C139.635 35.5647 139.202 35.8178 138.629 35.8178C138.208 35.8178 137.878 35.7064 137.639 35.4835C137.402 35.2606 137.284 34.9648 137.284 34.5961C137.284 33.8063 137.749 33.3468 138.679 33.2175L139.946 33.04C139.946 32.3218 139.656 31.9627 139.075 31.9627C138.566 31.9627 138.107 32.1361 137.697 32.4828V31.7894C138.112 31.5252 138.591 31.3931 139.133 31.3931C140.126 31.3931 140.623 31.9187 140.623 32.9698V35.7188ZM139.946 33.5807L138.927 33.721C138.613 33.7651 138.376 33.8435 138.217 33.9563C138.057 34.0664 137.977 34.2631 137.977 34.5465C137.977 34.7529 138.05 34.9221 138.196 35.0542C138.345 35.1836 138.541 35.2482 138.786 35.2482C139.122 35.2482 139.399 35.1313 139.616 34.8974C139.836 34.6607 139.946 34.3622 139.946 34.0017V33.5807ZM141.642 35.566V34.8396C142.011 35.112 142.417 35.2482 142.86 35.2482C143.454 35.2482 143.752 35.0501 143.752 34.6539C143.752 34.541 143.725 34.4461 143.673 34.3691C143.624 34.2893 143.555 34.2191 143.467 34.1586C143.382 34.098 143.28 34.0444 143.161 33.9976C143.046 33.9481 142.921 33.8971 142.786 33.8449C142.599 33.7706 142.434 33.6963 142.291 33.622C142.15 33.5449 142.032 33.4596 141.936 33.3661C141.842 33.2698 141.77 33.1611 141.721 33.04C141.674 32.9189 141.651 32.7772 141.651 32.6149C141.651 32.4167 141.696 32.242 141.787 32.0907C141.878 31.9366 141.999 31.8086 142.15 31.7068C142.302 31.6023 142.473 31.5238 142.666 31.4715C142.861 31.4193 143.062 31.3931 143.269 31.3931C143.635 31.3931 143.962 31.4564 144.251 31.583V32.2682C143.94 32.0645 143.582 31.9627 143.178 31.9627C143.051 31.9627 142.937 31.9779 142.835 32.0081C142.734 32.0356 142.645 32.0755 142.571 32.1278C142.5 32.1801 142.443 32.2434 142.402 32.3177C142.363 32.3892 142.344 32.469 142.344 32.5571C142.344 32.6671 142.363 32.7593 142.402 32.8336C142.443 32.9079 142.502 32.974 142.579 33.0317C142.656 33.0895 142.75 33.1418 142.86 33.1886C142.97 33.2354 143.095 33.2863 143.236 33.3413C143.423 33.4129 143.591 33.4871 143.739 33.5642C143.888 33.6385 144.014 33.7238 144.119 33.8201C144.224 33.9137 144.303 34.0223 144.358 34.1462C144.416 34.27 144.445 34.4172 144.445 34.5878C144.445 34.7969 144.398 34.9786 144.305 35.1326C144.214 35.2867 144.091 35.4147 143.937 35.5165C143.783 35.6183 143.606 35.694 143.405 35.7435C143.204 35.793 142.994 35.8178 142.773 35.8178C142.339 35.8178 141.962 35.7339 141.642 35.566ZM153.81 35.7188H153.133V33.2918C153.133 32.824 153.061 32.4855 152.915 32.2764C152.772 32.0673 152.529 31.9627 152.188 31.9627C151.899 31.9627 151.653 32.0948 151.449 32.359C151.249 32.6231 151.148 32.9396 151.148 33.3083V35.7188H150.471V33.2092C150.471 32.3782 150.151 31.9627 149.51 31.9627C149.212 31.9627 148.967 32.0879 148.775 32.3383C148.582 32.586 148.486 32.9093 148.486 33.3083V35.7188H147.809V31.4922H148.486V32.1608H148.502C148.802 31.649 149.24 31.3931 149.815 31.3931C150.104 31.3931 150.356 31.4743 150.57 31.6367C150.785 31.7962 150.932 32.0067 151.012 32.2682C151.326 31.6848 151.793 31.3931 152.415 31.3931C153.345 31.3931 153.81 31.9669 153.81 33.1143V35.7188ZM156.856 35.8178C156.232 35.8178 155.732 35.6211 155.358 35.2276C154.987 34.8313 154.801 34.3071 154.801 33.655C154.801 32.9451 154.995 32.3906 155.383 31.9916C155.771 31.5926 156.295 31.3931 156.956 31.3931C157.586 31.3931 158.077 31.5871 158.429 31.9751C158.784 32.3631 158.961 32.901 158.961 33.589C158.961 34.2631 158.77 34.8038 158.388 35.2111C158.008 35.6156 157.498 35.8178 156.856 35.8178ZM156.906 31.9627C156.471 31.9627 156.127 32.1113 155.874 32.4085C155.621 32.7029 155.494 33.1102 155.494 33.6302C155.494 34.131 155.622 34.5259 155.878 34.8148C156.134 35.1038 156.477 35.2482 156.906 35.2482C157.344 35.2482 157.679 35.1065 157.913 34.8231C158.15 34.5397 158.268 34.1365 158.268 33.6137C158.268 33.0854 158.15 32.6782 157.913 32.392C157.679 32.1058 157.344 31.9627 156.906 31.9627ZM162.247 32.1774C162.129 32.0865 161.958 32.0411 161.735 32.0411C161.446 32.0411 161.204 32.1774 161.009 32.4498C160.816 32.7222 160.72 33.0937 160.72 33.5642V35.7188H160.043V31.4922H160.72V32.3631H160.736C160.833 32.0659 160.98 31.8348 161.178 31.6697C161.376 31.5018 161.598 31.4179 161.842 31.4179C162.019 31.4179 162.153 31.4372 162.247 31.4757V32.1774ZM166.379 33.7747H163.394C163.405 34.2452 163.532 34.6085 163.774 34.8644C164.016 35.1203 164.349 35.2482 164.773 35.2482C165.249 35.2482 165.687 35.0914 166.086 34.7777V35.4133C165.714 35.683 165.223 35.8178 164.612 35.8178C164.015 35.8178 163.546 35.6266 163.205 35.2441C162.863 34.8589 162.693 34.3182 162.693 33.622C162.693 32.9643 162.878 32.4291 163.25 32.0164C163.624 31.6009 164.088 31.3931 164.641 31.3931C165.194 31.3931 165.622 31.572 165.925 31.9297C166.227 32.2874 166.379 32.7841 166.379 33.4197V33.7747ZM165.685 33.201C165.682 32.8102 165.588 32.5062 165.4 32.2888C165.216 32.0714 164.959 31.9627 164.629 31.9627C164.309 31.9627 164.038 32.0769 163.815 32.3053C163.593 32.5337 163.455 32.8322 163.403 33.201H165.685ZM171.687 35.6775C171.527 35.7655 171.316 35.8096 171.055 35.8096C170.315 35.8096 169.945 35.3968 169.945 34.5713V32.07H169.218V31.4922H169.945V30.4603L170.622 30.2416V31.4922H171.687V32.07H170.622V34.4516C170.622 34.735 170.67 34.9373 170.766 35.0583C170.862 35.1794 171.022 35.24 171.245 35.24C171.416 35.24 171.563 35.1932 171.687 35.0996V35.6775ZM176.099 35.7188H175.422V33.2835C175.422 32.403 175.095 31.9627 174.44 31.9627C174.109 31.9627 173.832 32.0907 173.606 32.3466C173.38 32.5997 173.267 32.9258 173.267 33.3248V35.7188H172.59V29.4615H173.267V32.1939H173.284C173.609 31.66 174.071 31.3931 174.671 31.3931C175.623 31.3931 176.099 31.9669 176.099 33.1143V35.7188ZM180.404 35.7188H179.727V35.0583H179.71C179.416 35.5647 178.983 35.8178 178.41 35.8178C177.989 35.8178 177.659 35.7064 177.42 35.4835C177.183 35.2606 177.065 34.9648 177.065 34.5961C177.065 33.8063 177.53 33.3468 178.46 33.2175L179.727 33.04C179.727 32.3218 179.437 31.9627 178.856 31.9627C178.347 31.9627 177.887 32.1361 177.477 32.4828V31.7894C177.893 31.5252 178.372 31.3931 178.914 31.3931C179.907 31.3931 180.404 31.9187 180.404 32.9698V35.7188ZM179.727 33.5807L178.707 33.721C178.394 33.7651 178.157 33.8435 177.998 33.9563C177.838 34.0664 177.758 34.2631 177.758 34.5465C177.758 34.7529 177.831 34.9221 177.977 35.0542C178.125 35.1836 178.322 35.2482 178.567 35.2482C178.903 35.2482 179.179 35.1313 179.397 34.8974C179.617 34.6607 179.727 34.3622 179.727 34.0017V33.5807ZM185.188 35.7188H184.511V33.3083C184.511 32.4112 184.183 31.9627 183.528 31.9627C183.19 31.9627 182.909 32.0907 182.686 32.3466C182.466 32.5997 182.356 32.9203 182.356 33.3083V35.7188H181.679V31.4922H182.356V32.1939H182.373C182.692 31.66 183.154 31.3931 183.76 31.3931C184.222 31.3931 184.575 31.5431 184.82 31.843C185.065 32.1402 185.188 32.5708 185.188 33.1349V35.7188ZM190.553 35.8178C189.929 35.8178 189.429 35.6211 189.055 35.2276C188.684 34.8313 188.498 34.3071 188.498 33.655C188.498 32.9451 188.692 32.3906 189.08 31.9916C189.468 31.5926 189.992 31.3931 190.652 31.3931C191.283 31.3931 191.774 31.5871 192.126 31.9751C192.481 32.3631 192.658 32.901 192.658 33.589C192.658 34.2631 192.467 34.8038 192.085 35.2111C191.705 35.6156 191.195 35.8178 190.553 35.8178ZM190.603 31.9627C190.168 31.9627 189.824 32.1113 189.571 32.4085C189.318 32.7029 189.191 33.1102 189.191 33.6302C189.191 34.131 189.319 34.5259 189.575 34.8148C189.831 35.1038 190.174 35.2482 190.603 35.2482C191.04 35.2482 191.376 35.1065 191.61 34.8231C191.847 34.5397 191.965 34.1365 191.965 33.6137C191.965 33.0854 191.847 32.6782 191.61 32.392C191.376 32.1058 191.04 31.9627 190.603 31.9627ZM197.248 35.7188H196.571V33.3083C196.571 32.4112 196.244 31.9627 195.589 31.9627C195.25 31.9627 194.97 32.0907 194.747 32.3466C194.527 32.5997 194.417 32.9203 194.417 33.3083V35.7188H193.74V31.4922H194.417V32.1939H194.433C194.752 31.66 195.215 31.3931 195.82 31.3931C196.282 31.3931 196.636 31.5431 196.881 31.843C197.126 32.1402 197.248 32.5708 197.248 33.1349V35.7188ZM201.925 33.7747H198.94C198.951 34.2452 199.078 34.6085 199.32 34.8644C199.562 35.1203 199.895 35.2482 200.319 35.2482C200.795 35.2482 201.233 35.0914 201.632 34.7777V35.4133C201.26 35.683 200.769 35.8178 200.158 35.8178C199.561 35.8178 199.092 35.6266 198.751 35.2441C198.409 34.8589 198.239 34.3182 198.239 33.622C198.239 32.9643 198.425 32.4291 198.796 32.0164C199.17 31.6009 199.634 31.3931 200.187 31.3931C200.74 31.3931 201.168 31.572 201.471 31.9297C201.773 32.2874 201.925 32.7841 201.925 33.4197V33.7747ZM201.231 33.201C201.228 32.8102 201.134 32.5062 200.946 32.2888C200.762 32.0714 200.505 31.9627 200.175 31.9627C199.855 31.9627 199.584 32.0769 199.361 32.3053C199.139 32.5337 199.001 32.8322 198.949 33.201H201.231ZM90.1725 46.1079H90.156V48.6628H89.4791V42.4922H90.156V43.2351H90.1725C90.5055 42.6738 90.9925 42.3931 91.6337 42.3931C92.1785 42.3931 92.6036 42.583 92.9091 42.9627C93.2145 43.3397 93.3672 43.846 93.3672 44.4816C93.3672 45.1888 93.1952 45.7557 92.8513 46.1822C92.5073 46.6059 92.0368 46.8178 91.4397 46.8178C90.8921 46.8178 90.4697 46.5812 90.1725 46.1079ZM90.156 44.4032V44.9935C90.156 45.3429 90.2688 45.6401 90.4945 45.885C90.7229 46.1271 91.0118 46.2482 91.3613 46.2482C91.7713 46.2482 92.0918 46.0914 92.323 45.7777C92.5569 45.464 92.6738 45.0278 92.6738 44.4693C92.6738 43.9987 92.5651 43.63 92.3477 43.3631C92.1303 43.0962 91.8359 42.9627 91.4644 42.9627C91.071 42.9627 90.7545 43.1003 90.5151 43.3755C90.2757 43.6479 90.156 43.9905 90.156 44.4032ZM96.2152 46.8178C95.5906 46.8178 95.0911 46.6211 94.7169 46.2276C94.3454 45.8313 94.1597 45.3071 94.1597 44.655C94.1597 43.9451 94.3537 43.3906 94.7417 42.9916C95.1297 42.5926 95.6539 42.3931 96.3143 42.3931C96.9444 42.3931 97.4356 42.5871 97.7878 42.9751C98.1427 43.3631 98.3202 43.901 98.3202 44.589C98.3202 45.2631 98.129 45.8038 97.7465 46.2111C97.3668 46.6156 96.8563 46.8178 96.2152 46.8178ZM96.2647 42.9627C95.83 42.9627 95.486 43.1113 95.2328 43.4085C94.9797 43.7029 94.8531 44.1102 94.8531 44.6302C94.8531 45.131 94.9811 45.5259 95.237 45.8148C95.4929 46.1038 95.8355 46.2482 96.2647 46.2482C96.7022 46.2482 97.0379 46.1065 97.2718 45.8231C97.5085 45.5397 97.6268 45.1365 97.6268 44.6137C97.6268 44.0854 97.5085 43.6782 97.2718 43.392C97.0379 43.1058 96.7022 42.9627 96.2647 42.9627ZM104.726 42.4922L103.459 46.7188H102.757L101.886 43.6933C101.853 43.5777 101.831 43.447 101.82 43.3012H101.804C101.796 43.4002 101.767 43.5282 101.717 43.685L100.772 46.7188H100.095L98.8155 42.4922H99.5255L100.4 45.6704C100.428 45.7667 100.447 45.8932 100.458 46.0501H100.491C100.5 45.929 100.524 45.7997 100.566 45.6621L101.54 42.4922H102.159L103.034 45.6786C103.061 45.7804 103.082 45.907 103.096 46.0583H103.129C103.134 45.951 103.158 45.8245 103.199 45.6786L104.057 42.4922H104.726ZM108.907 44.7747H105.923C105.934 45.2452 106.061 45.6085 106.303 45.8644C106.545 46.1203 106.878 46.2482 107.302 46.2482C107.778 46.2482 108.215 46.0914 108.614 45.7777V46.4133C108.243 46.683 107.752 46.8178 107.141 46.8178C106.544 46.8178 106.074 46.6266 105.733 46.2441C105.392 45.8589 105.221 45.3182 105.221 44.622C105.221 43.9643 105.407 43.4291 105.779 43.0164C106.153 42.6009 106.617 42.3931 107.17 42.3931C107.723 42.3931 108.151 42.572 108.453 42.9297C108.756 43.2874 108.907 43.7841 108.907 44.4197V44.7747ZM108.214 44.201C108.211 43.8102 108.116 43.5062 107.929 43.2888C107.745 43.0714 107.487 42.9627 107.157 42.9627C106.838 42.9627 106.567 43.0769 106.344 43.3053C106.121 43.5337 105.984 43.8322 105.931 44.201H108.214ZM112.139 43.1774C112.021 43.0865 111.85 43.0411 111.627 43.0411C111.338 43.0411 111.096 43.1774 110.901 43.4498C110.708 43.7222 110.612 44.0937 110.612 44.5642V46.7188H109.935V42.4922H110.612V43.3631H110.628C110.725 43.0659 110.872 42.8348 111.07 42.6697C111.268 42.5018 111.49 42.4179 111.735 42.4179C111.911 42.4179 112.046 42.4372 112.139 42.4757V43.1774ZM115.54 41.419C115.419 41.419 115.316 41.3778 115.231 41.2952C115.145 41.2127 115.103 41.1081 115.103 40.9815C115.103 40.8549 115.145 40.7504 115.231 40.6678C115.316 40.5825 115.419 40.5399 115.54 40.5399C115.664 40.5399 115.769 40.5825 115.854 40.6678C115.942 40.7504 115.986 40.8549 115.986 40.9815C115.986 41.1026 115.942 41.2058 115.854 41.2911C115.769 41.3764 115.664 41.419 115.54 41.419ZM115.87 46.7188H115.193V42.4922H115.87V46.7188ZM120.749 46.7188H120.072V44.3083C120.072 43.4112 119.745 42.9627 119.09 42.9627C118.751 42.9627 118.471 43.0907 118.248 43.3466C118.028 43.5997 117.918 43.9203 117.918 44.3083V46.7188H117.241V42.4922H117.918V43.1939H117.934C118.253 42.66 118.716 42.3931 119.321 42.3931C119.783 42.3931 120.137 42.5431 120.382 42.843C120.627 43.1402 120.749 43.5708 120.749 44.1349V46.7188ZM122.722 46.1079H122.706V48.6628H122.029V42.4922H122.706V43.2351H122.722C123.055 42.6738 123.542 42.3931 124.183 42.3931C124.728 42.3931 125.153 42.583 125.459 42.9627C125.764 43.3397 125.917 43.846 125.917 44.4816C125.917 45.1888 125.745 45.7557 125.401 46.1822C125.057 46.6059 124.586 46.8178 123.989 46.8178C123.442 46.8178 123.019 46.5812 122.722 46.1079ZM122.706 44.4032V44.9935C122.706 45.3429 122.818 45.6401 123.044 45.885C123.272 46.1271 123.561 46.2482 123.911 46.2482C124.321 46.2482 124.641 46.0914 124.872 45.7777C125.106 45.464 125.223 45.0278 125.223 44.4693C125.223 43.9987 125.115 43.63 124.897 43.3631C124.68 43.0962 124.385 42.9627 124.014 42.9627C123.62 42.9627 123.304 43.1003 123.065 43.3755C122.825 43.6479 122.706 43.9905 122.706 44.4032ZM130.416 46.7188H129.739V46.0501H129.722C129.442 46.5619 129.007 46.8178 128.418 46.8178C127.411 46.8178 126.907 46.2179 126.907 45.0182V42.4922H127.58V44.9109C127.58 45.8024 127.921 46.2482 128.604 46.2482C128.934 46.2482 129.205 46.1271 129.417 45.885C129.631 45.6401 129.739 45.3209 129.739 44.9274V42.4922H130.416V46.7188ZM133.747 46.6775C133.587 46.7655 133.376 46.8096 133.115 46.8096C132.375 46.8096 132.005 46.3968 132.005 45.5713V43.07H131.278V42.4922H132.005V41.4603L132.682 41.2416V42.4922H133.747V43.07H132.682V45.4516C132.682 45.735 132.73 45.9373 132.826 46.0583C132.922 46.1794 133.082 46.24 133.305 46.24C133.476 46.24 133.623 46.1932 133.747 46.0996V46.6775ZM140.578 46.7188H139.901V46.0006H139.884C139.57 46.5454 139.086 46.8178 138.431 46.8178C137.9 46.8178 137.475 46.6293 137.156 46.2523C136.839 45.8726 136.681 45.3567 136.681 44.7045C136.681 44.0056 136.857 43.4456 137.21 43.0246C137.562 42.6036 138.031 42.3931 138.617 42.3931C139.198 42.3931 139.62 42.6215 139.884 43.0783H139.901V40.4615H140.578V46.7188ZM139.901 44.8077V44.1845C139.901 43.8433 139.788 43.5543 139.562 43.3177C139.337 43.081 139.05 42.9627 138.704 42.9627C138.291 42.9627 137.966 43.1141 137.73 43.4167C137.493 43.7194 137.375 44.1377 137.375 44.6715C137.375 45.1586 137.487 45.5438 137.713 45.8272C137.941 46.1079 138.247 46.2482 138.629 46.2482C139.006 46.2482 139.312 46.112 139.546 45.8396C139.782 45.5672 139.901 45.2232 139.901 44.8077ZM142.295 41.419C142.174 41.419 142.07 41.3778 141.985 41.2952C141.9 41.2127 141.857 41.1081 141.857 40.9815C141.857 40.8549 141.9 40.7504 141.985 40.6678C142.07 40.5825 142.174 40.5399 142.295 40.5399C142.418 40.5399 142.523 40.5825 142.608 40.6678C142.696 40.7504 142.74 40.8549 142.74 40.9815C142.74 41.1026 142.696 41.2058 142.608 41.2911C142.523 41.3764 142.418 41.419 142.295 41.419ZM142.625 46.7188H141.948V42.4922H142.625V46.7188ZM143.739 46.566V45.8396C144.108 46.112 144.514 46.2482 144.957 46.2482C145.551 46.2482 145.848 46.0501 145.848 45.6539C145.848 45.541 145.822 45.4461 145.77 45.3691C145.72 45.2893 145.652 45.2191 145.564 45.1586C145.478 45.098 145.377 45.0444 145.258 44.9976C145.143 44.9481 145.017 44.8971 144.883 44.8449C144.695 44.7706 144.53 44.6963 144.387 44.622C144.247 44.5449 144.129 44.4596 144.032 44.3661C143.939 44.2698 143.867 44.1611 143.818 44.04C143.771 43.9189 143.748 43.7772 143.748 43.6149C143.748 43.4167 143.793 43.242 143.884 43.0907C143.975 42.9366 144.096 42.8086 144.247 42.7068C144.398 42.6023 144.57 42.5238 144.763 42.4715C144.958 42.4193 145.159 42.3931 145.365 42.3931C145.731 42.3931 146.059 42.4564 146.348 42.583V43.2682C146.037 43.0645 145.679 42.9627 145.275 42.9627C145.148 42.9627 145.034 42.9779 144.932 43.0081C144.83 43.0356 144.742 43.0755 144.668 43.1278C144.596 43.1801 144.54 43.2434 144.499 43.3177C144.46 43.3892 144.441 43.469 144.441 43.5571C144.441 43.6671 144.46 43.7593 144.499 43.8336C144.54 43.9079 144.599 43.974 144.676 44.0317C144.753 44.0895 144.847 44.1418 144.957 44.1886C145.067 44.2354 145.192 44.2863 145.332 44.3413C145.52 44.4129 145.687 44.4871 145.836 44.5642C145.985 44.6385 146.111 44.7238 146.216 44.8201C146.32 44.9137 146.4 45.0223 146.455 45.1462C146.513 45.27 146.542 45.4172 146.542 45.5878C146.542 45.7969 146.495 45.9786 146.401 46.1326C146.311 46.2867 146.188 46.4147 146.034 46.5165C145.88 46.6183 145.703 46.694 145.502 46.7435C145.301 46.793 145.09 46.8178 144.87 46.8178C144.435 46.8178 144.058 46.7339 143.739 46.566ZM150.467 46.5248C150.142 46.7201 149.757 46.8178 149.311 46.8178C148.709 46.8178 148.222 46.6224 147.85 46.2317C147.482 45.8382 147.297 45.3292 147.297 44.7045C147.297 44.0084 147.497 43.4498 147.896 43.0288C148.295 42.605 148.827 42.3931 149.493 42.3931C149.864 42.3931 150.192 42.4619 150.475 42.5995V43.2929C150.162 43.0728 149.826 42.9627 149.468 42.9627C149.036 42.9627 148.681 43.1182 148.403 43.4291C148.128 43.7373 147.991 44.1432 147.991 44.6467C147.991 45.142 148.12 45.5328 148.379 45.819C148.64 46.1051 148.989 46.2482 149.427 46.2482C149.796 46.2482 150.142 46.1258 150.467 45.8809V46.5248ZM153.257 46.8178C152.633 46.8178 152.133 46.6211 151.759 46.2276C151.388 45.8313 151.202 45.3071 151.202 44.655C151.202 43.9451 151.396 43.3906 151.784 42.9916C152.172 42.5926 152.696 42.3931 153.356 42.3931C153.986 42.3931 154.478 42.5871 154.83 42.9751C155.185 43.3631 155.362 43.901 155.362 44.589C155.362 45.2631 155.171 45.8038 154.789 46.2111C154.409 46.6156 153.898 46.8178 153.257 46.8178ZM153.307 42.9627C152.872 42.9627 152.528 43.1113 152.275 43.4085C152.022 43.7029 151.895 44.1102 151.895 44.6302C151.895 45.131 152.023 45.5259 152.279 45.8148C152.535 46.1038 152.878 46.2482 153.307 46.2482C153.744 46.2482 154.08 46.1065 154.314 45.8231C154.551 45.5397 154.669 45.1365 154.669 44.6137C154.669 44.0854 154.551 43.6782 154.314 43.392C154.08 43.1058 153.744 42.9627 153.307 42.9627ZM159.952 46.7188H159.275V44.3083C159.275 43.4112 158.948 42.9627 158.293 42.9627C157.954 42.9627 157.674 43.0907 157.451 43.3466C157.231 43.5997 157.121 43.9203 157.121 44.3083V46.7188H156.444V42.4922H157.121V43.1939H157.137C157.456 42.66 157.919 42.3931 158.524 42.3931C158.986 42.3931 159.34 42.5431 159.585 42.843C159.83 43.1402 159.952 43.5708 159.952 44.1349V46.7188ZM164.74 46.7188H164.063V44.3083C164.063 43.4112 163.736 42.9627 163.081 42.9627C162.742 42.9627 162.462 43.0907 162.239 43.3466C162.019 43.5997 161.909 43.9203 161.909 44.3083V46.7188H161.232V42.4922H161.909V43.1939H161.925C162.244 42.66 162.707 42.3931 163.312 42.3931C163.774 42.3931 164.128 42.5431 164.373 42.843C164.618 43.1402 164.74 43.5708 164.74 44.1349V46.7188ZM169.416 44.7747H166.432C166.443 45.2452 166.57 45.6085 166.812 45.8644C167.054 46.1203 167.387 46.2482 167.811 46.2482C168.287 46.2482 168.724 46.0914 169.123 45.7777V46.4133C168.752 46.683 168.261 46.8178 167.65 46.8178C167.053 46.8178 166.584 46.6266 166.242 46.2441C165.901 45.8589 165.731 45.3182 165.731 44.622C165.731 43.9643 165.916 43.4291 166.288 43.0164C166.662 42.6009 167.126 42.3931 167.679 42.3931C168.232 42.3931 168.66 42.572 168.962 42.9297C169.265 43.2874 169.416 43.7841 169.416 44.4197V44.7747ZM168.723 44.201C168.72 43.8102 168.625 43.5062 168.438 43.2888C168.254 43.0714 167.997 42.9627 167.666 42.9627C167.347 42.9627 167.076 43.0769 166.853 43.3053C166.63 43.5337 166.493 43.8322 166.441 44.201H168.723ZM173.325 46.5248C173 46.7201 172.615 46.8178 172.169 46.8178C171.567 46.8178 171.08 46.6224 170.708 46.2317C170.34 45.8382 170.155 45.3292 170.155 44.7045C170.155 44.0084 170.355 43.4498 170.754 43.0288C171.153 42.605 171.685 42.3931 172.351 42.3931C172.723 42.3931 173.05 42.4619 173.333 42.5995V43.2929C173.02 43.0728 172.684 42.9627 172.326 42.9627C171.894 42.9627 171.539 43.1182 171.261 43.4291C170.986 43.7373 170.849 44.1432 170.849 44.6467C170.849 45.142 170.978 45.5328 171.237 45.819C171.498 46.1051 171.848 46.2482 172.285 46.2482C172.654 46.2482 173 46.1258 173.325 45.8809V46.5248ZM176.309 46.6775C176.15 46.7655 175.939 46.8096 175.678 46.8096C174.938 46.8096 174.568 46.3968 174.568 45.5713V43.07H173.841V42.4922H174.568V41.4603L175.244 41.2416V42.4922H176.309V43.07H175.244V45.4516C175.244 45.735 175.293 45.9373 175.389 46.0583C175.485 46.1794 175.645 46.24 175.868 46.24C176.038 46.24 176.186 46.1932 176.309 46.0996V46.6775ZM182.558 46.7188H181.882V46.0583H181.865C181.571 46.5647 181.137 46.8178 180.565 46.8178C180.144 46.8178 179.814 46.7064 179.574 46.4835C179.338 46.2606 179.219 45.9648 179.219 45.5961C179.219 44.8063 179.684 44.3468 180.614 44.2175L181.882 44.04C181.882 43.3218 181.591 42.9627 181.011 42.9627C180.502 42.9627 180.042 43.1361 179.632 43.4828V42.7894C180.048 42.5252 180.526 42.3931 181.068 42.3931C182.062 42.3931 182.558 42.9187 182.558 43.9698V46.7188ZM181.882 44.5807L180.862 44.721C180.548 44.7651 180.312 44.8435 180.152 44.9563C179.992 45.0664 179.913 45.2631 179.913 45.5465C179.913 45.7529 179.986 45.9221 180.131 46.0542C180.28 46.1836 180.477 46.2482 180.722 46.2482C181.057 46.2482 181.334 46.1313 181.551 45.8974C181.771 45.6607 181.882 45.3622 181.882 45.0017V44.5807ZM184.511 46.7188H183.834V40.4615H184.511V46.7188ZM186.558 46.7188H185.881V40.4615H186.558V46.7188ZM90.1725 57.1079H90.156V59.6628H89.4791V53.4922H90.156V54.2351H90.1725C90.5055 53.6738 90.9925 53.3931 91.6337 53.3931C92.1785 53.3931 92.6036 53.583 92.9091 53.9627C93.2145 54.3397 93.3672 54.846 93.3672 55.4816C93.3672 56.1888 93.1952 56.7557 92.8513 57.1822C92.5073 57.6059 92.0368 57.8178 91.4397 57.8178C90.8921 57.8178 90.4697 57.5812 90.1725 57.1079ZM90.156 55.4032V55.9935C90.156 56.3429 90.2688 56.6401 90.4945 56.885C90.7229 57.1271 91.0118 57.2482 91.3613 57.2482C91.7713 57.2482 92.0918 57.0914 92.323 56.7777C92.5569 56.464 92.6738 56.0278 92.6738 55.4693C92.6738 54.9987 92.5651 54.63 92.3477 54.3631C92.1303 54.0962 91.8359 53.9627 91.4644 53.9627C91.071 53.9627 90.7545 54.1003 90.5151 54.3755C90.2757 54.6479 90.156 54.9905 90.156 55.4032ZM96.2152 57.8178C95.5906 57.8178 95.0911 57.6211 94.7169 57.2276C94.3454 56.8313 94.1597 56.3071 94.1597 55.655C94.1597 54.9451 94.3537 54.3906 94.7417 53.9916C95.1297 53.5926 95.6539 53.3931 96.3143 53.3931C96.9444 53.3931 97.4356 53.5871 97.7878 53.9751C98.1427 54.3631 98.3202 54.901 98.3202 55.589C98.3202 56.2631 98.129 56.8038 97.7465 57.2111C97.3668 57.6156 96.8563 57.8178 96.2152 57.8178ZM96.2647 53.9627C95.83 53.9627 95.486 54.1113 95.2328 54.4085C94.9797 54.7029 94.8531 55.1102 94.8531 55.6302C94.8531 56.131 94.9811 56.5259 95.237 56.8148C95.4929 57.1038 95.8355 57.2482 96.2647 57.2482C96.7022 57.2482 97.0379 57.1065 97.2718 56.8231C97.5085 56.5397 97.6268 56.1365 97.6268 55.6137C97.6268 55.0854 97.5085 54.6782 97.2718 54.392C97.0379 54.1058 96.7022 53.9627 96.2647 53.9627ZM104.726 53.4922L103.459 57.7188H102.757L101.886 54.6933C101.853 54.5777 101.831 54.447 101.82 54.3012H101.804C101.796 54.4002 101.767 54.5282 101.717 54.685L100.772 57.7188H100.095L98.8155 53.4922H99.5255L100.4 56.6704C100.428 56.7667 100.447 56.8932 100.458 57.0501H100.491C100.5 56.929 100.524 56.7997 100.566 56.6621L101.54 53.4922H102.159L103.034 56.6786C103.061 56.7804 103.082 56.907 103.096 57.0583H103.129C103.134 56.951 103.158 56.8245 103.199 56.6786L104.057 53.4922H104.726ZM108.907 55.7747H105.923C105.934 56.2452 106.061 56.6085 106.303 56.8644C106.545 57.1203 106.878 57.2482 107.302 57.2482C107.778 57.2482 108.215 57.0914 108.614 56.7777V57.4133C108.243 57.683 107.752 57.8178 107.141 57.8178C106.544 57.8178 106.074 57.6266 105.733 57.2441C105.392 56.8589 105.221 56.3182 105.221 55.622C105.221 54.9643 105.407 54.4291 105.779 54.0164C106.153 53.6009 106.617 53.3931 107.17 53.3931C107.723 53.3931 108.151 53.572 108.453 53.9297C108.756 54.2874 108.907 54.7841 108.907 55.4197V55.7747ZM108.214 55.201C108.211 54.8102 108.116 54.5062 107.929 54.2888C107.745 54.0714 107.487 53.9627 107.157 53.9627C106.838 53.9627 106.567 54.0769 106.344 54.3053C106.121 54.5337 105.984 54.8322 105.931 55.201H108.214ZM112.139 54.1774C112.021 54.0865 111.85 54.0411 111.627 54.0411C111.338 54.0411 111.096 54.1774 110.901 54.4498C110.708 54.7222 110.612 55.0937 110.612 55.5642V57.7188H109.935V53.4922H110.612V54.3631H110.628C110.725 54.0659 110.872 53.8348 111.07 53.6697C111.268 53.5018 111.49 53.4179 111.735 53.4179C111.911 53.4179 112.046 53.4372 112.139 53.4757V54.1774ZM115.54 52.419C115.419 52.419 115.316 52.3778 115.231 52.2952C115.145 52.2127 115.103 52.1081 115.103 51.9815C115.103 51.8549 115.145 51.7504 115.231 51.6678C115.316 51.5825 115.419 51.5399 115.54 51.5399C115.664 51.5399 115.769 51.5825 115.854 51.6678C115.942 51.7504 115.986 51.8549 115.986 51.9815C115.986 52.1026 115.942 52.2058 115.854 52.2911C115.769 52.3764 115.664 52.419 115.54 52.419ZM115.87 57.7188H115.193V53.4922H115.87V57.7188ZM120.749 57.7188H120.072V55.3083C120.072 54.4112 119.745 53.9627 119.09 53.9627C118.751 53.9627 118.471 54.0907 118.248 54.3466C118.028 54.5997 117.918 54.9203 117.918 55.3083V57.7188H117.241V53.4922H117.918V54.1939H117.934C118.253 53.66 118.716 53.3931 119.321 53.3931C119.783 53.3931 120.137 53.5431 120.382 53.843C120.627 54.1402 120.749 54.5708 120.749 55.1349V57.7188ZM122.722 57.1079H122.706V59.6628H122.029V53.4922H122.706V54.2351H122.722C123.055 53.6738 123.542 53.3931 124.183 53.3931C124.728 53.3931 125.153 53.583 125.459 53.9627C125.764 54.3397 125.917 54.846 125.917 55.4816C125.917 56.1888 125.745 56.7557 125.401 57.1822C125.057 57.6059 124.586 57.8178 123.989 57.8178C123.442 57.8178 123.019 57.5812 122.722 57.1079ZM122.706 55.4032V55.9935C122.706 56.3429 122.818 56.6401 123.044 56.885C123.272 57.1271 123.561 57.2482 123.911 57.2482C124.321 57.2482 124.641 57.0914 124.872 56.7777C125.106 56.464 125.223 56.0278 125.223 55.4693C125.223 54.9987 125.115 54.63 124.897 54.3631C124.68 54.0962 124.385 53.9627 124.014 53.9627C123.62 53.9627 123.304 54.1003 123.065 54.3755C122.825 54.6479 122.706 54.9905 122.706 55.4032ZM130.416 57.7188H129.739V57.0501H129.722C129.442 57.5619 129.007 57.8178 128.418 57.8178C127.411 57.8178 126.907 57.2179 126.907 56.0182V53.4922H127.58V55.9109C127.58 56.8024 127.921 57.2482 128.604 57.2482C128.934 57.2482 129.205 57.1271 129.417 56.885C129.631 56.6401 129.739 56.3209 129.739 55.9274V53.4922H130.416V57.7188ZM133.747 57.6775C133.587 57.7655 133.376 57.8096 133.115 57.8096C132.375 57.8096 132.005 57.3968 132.005 56.5713V54.07H131.278V53.4922H132.005V52.4603L132.682 52.2416V53.4922H133.747V54.07H132.682V56.4516C132.682 56.735 132.73 56.9373 132.826 57.0583C132.922 57.1794 133.082 57.24 133.305 57.24C133.476 57.24 133.623 57.1932 133.747 57.0996V57.6775ZM134.395 57.566V56.8396C134.763 57.112 135.169 57.2482 135.612 57.2482C136.207 57.2482 136.504 57.0501 136.504 56.6539C136.504 56.541 136.478 56.4461 136.425 56.3691C136.376 56.2893 136.307 56.2191 136.219 56.1586C136.134 56.098 136.032 56.0444 135.914 55.9976C135.798 55.9481 135.673 55.8971 135.538 55.8449C135.351 55.7706 135.186 55.6963 135.043 55.622C134.902 55.5449 134.784 55.4596 134.688 55.3661C134.594 55.2698 134.523 55.1611 134.473 55.04C134.426 54.9189 134.403 54.7772 134.403 54.6149C134.403 54.4167 134.448 54.242 134.539 54.0907C134.63 53.9366 134.751 53.8086 134.902 53.7068C135.054 53.6023 135.226 53.5238 135.418 53.4715C135.614 53.4193 135.814 53.3931 136.021 53.3931C136.387 53.3931 136.714 53.4564 137.003 53.583V54.2682C136.692 54.0645 136.335 53.9627 135.93 53.9627C135.803 53.9627 135.689 53.9779 135.587 54.0081C135.486 54.0356 135.398 54.0755 135.323 54.1278C135.252 54.1801 135.195 54.2434 135.154 54.3177C135.116 54.3892 135.096 54.469 135.096 54.5571C135.096 54.6671 135.116 54.7593 135.154 54.8336C135.195 54.9079 135.254 54.974 135.332 55.0317C135.409 55.0895 135.502 55.1418 135.612 55.1886C135.722 55.2354 135.847 55.2863 135.988 55.3413C136.175 55.4129 136.343 55.4871 136.491 55.5642C136.64 55.6385 136.767 55.7238 136.871 55.8201C136.976 55.9137 137.055 56.0223 137.11 56.1462C137.168 56.27 137.197 56.4172 137.197 56.5878C137.197 56.7969 137.15 56.9786 137.057 57.1326C136.966 57.2867 136.844 57.4147 136.689 57.5165C136.535 57.6183 136.358 57.694 136.157 57.7435C135.956 57.793 135.746 57.8178 135.526 57.8178C135.091 57.8178 134.714 57.7339 134.395 57.566ZM142.522 57.6775C142.362 57.7655 142.152 57.8096 141.89 57.8096C141.15 57.8096 140.78 57.3968 140.78 56.5713V54.07H140.053V53.4922H140.78V52.4603L141.457 52.2416V53.4922H142.522V54.07H141.457V56.4516C141.457 56.735 141.505 56.9373 141.601 57.0583C141.698 57.1794 141.857 57.24 142.08 57.24C142.251 57.24 142.398 57.1932 142.522 57.0996V57.6775ZM145.192 57.8178C144.568 57.8178 144.068 57.6211 143.694 57.2276C143.322 56.8313 143.137 56.3071 143.137 55.655C143.137 54.9451 143.331 54.3906 143.719 53.9916C144.107 53.5926 144.631 53.3931 145.291 53.3931C145.921 53.3931 146.413 53.5871 146.765 53.9751C147.12 54.3631 147.297 54.901 147.297 55.589C147.297 56.2631 147.106 56.8038 146.723 57.2111C146.344 57.6156 145.833 57.8178 145.192 57.8178ZM145.242 53.9627C144.807 53.9627 144.463 54.1113 144.21 54.4085C143.957 54.7029 143.83 55.1102 143.83 55.6302C143.83 56.131 143.958 56.5259 144.214 56.8148C144.47 57.1038 144.812 57.2482 145.242 57.2482C145.679 57.2482 146.015 57.1065 146.249 56.8231C146.485 56.5397 146.604 56.1365 146.604 55.6137C146.604 55.0854 146.485 54.6782 146.249 54.392C146.015 54.1058 145.679 53.9627 145.242 53.9627ZM151.392 57.1079H151.375V59.6628H150.698V53.4922H151.375V54.2351H151.392C151.725 53.6738 152.212 53.3931 152.853 53.3931C153.398 53.3931 153.823 53.583 154.128 53.9627C154.434 54.3397 154.586 54.846 154.586 55.4816C154.586 56.1888 154.414 56.7557 154.07 57.1822C153.726 57.6059 153.256 57.8178 152.659 57.8178C152.111 57.8178 151.689 57.5812 151.392 57.1079ZM151.375 55.4032V55.9935C151.375 56.3429 151.488 56.6401 151.714 56.885C151.942 57.1271 152.231 57.2482 152.58 57.2482C152.99 57.2482 153.311 57.0914 153.542 56.7777C153.776 56.464 153.893 56.0278 153.893 55.4693C153.893 54.9987 153.784 54.63 153.567 54.3631C153.349 54.0962 153.055 53.9627 152.684 53.9627C152.29 53.9627 151.974 54.1003 151.734 54.3755C151.495 54.6479 151.375 54.9905 151.375 55.4032ZM157.434 57.8178C156.81 57.8178 156.31 57.6211 155.936 57.2276C155.565 56.8313 155.379 56.3071 155.379 55.655C155.379 54.9451 155.573 54.3906 155.961 53.9916C156.349 53.5926 156.873 53.3931 157.533 53.3931C158.164 53.3931 158.655 53.5871 159.007 53.9751C159.362 54.3631 159.539 54.901 159.539 55.589C159.539 56.2631 159.348 56.8038 158.966 57.2111C158.586 57.6156 158.075 57.8178 157.434 57.8178ZM157.484 53.9627C157.049 53.9627 156.705 54.1113 156.452 54.4085C156.199 54.7029 156.072 55.1102 156.072 55.6302C156.072 56.131 156.2 56.5259 156.456 56.8148C156.712 57.1038 157.055 57.2482 157.484 57.2482C157.921 57.2482 158.257 57.1065 158.491 56.8231C158.728 56.5397 158.846 56.1365 158.846 55.6137C158.846 55.0854 158.728 54.6782 158.491 54.392C158.257 54.1058 157.921 53.9627 157.484 53.9627ZM165.945 53.4922L164.678 57.7188H163.976L163.105 54.6933C163.072 54.5777 163.05 54.447 163.039 54.3012H163.023C163.015 54.4002 162.986 54.5282 162.936 54.685L161.991 57.7188H161.314L160.035 53.4922H160.745L161.62 56.6704C161.647 56.7667 161.666 56.8932 161.677 57.0501H161.71C161.719 56.929 161.743 56.7997 161.785 56.6621L162.759 53.4922H163.378L164.253 56.6786C164.28 56.7804 164.301 56.907 164.315 57.0583H164.348C164.353 56.951 164.377 56.8245 164.418 56.6786L165.277 53.4922H165.945ZM170.126 55.7747H167.142C167.153 56.2452 167.28 56.6085 167.522 56.8644C167.764 57.1203 168.097 57.2482 168.521 57.2482C168.997 57.2482 169.434 57.0914 169.833 56.7777V57.4133C169.462 57.683 168.971 57.8178 168.36 57.8178C167.763 57.8178 167.294 57.6266 166.952 57.2441C166.611 56.8589 166.441 56.3182 166.441 55.622C166.441 54.9643 166.626 54.4291 166.998 54.0164C167.372 53.6009 167.836 53.3931 168.389 53.3931C168.942 53.3931 169.37 53.572 169.672 53.9297C169.975 54.2874 170.126 54.7841 170.126 55.4197V55.7747ZM169.433 55.201C169.43 54.8102 169.335 54.5062 169.148 54.2888C168.964 54.0714 168.707 53.9627 168.376 53.9627C168.057 53.9627 167.786 54.0769 167.563 54.3053C167.34 54.5337 167.203 54.8322 167.15 55.201H169.433ZM173.358 54.1774C173.24 54.0865 173.069 54.0411 172.846 54.0411C172.557 54.0411 172.315 54.1774 172.12 54.4498C171.927 54.7222 171.831 55.0937 171.831 55.5642V57.7188H171.154V53.4922H171.831V54.3631H171.848C171.944 54.0659 172.091 53.8348 172.289 53.6697C172.487 53.5018 172.709 53.4179 172.954 53.4179C173.13 53.4179 173.265 53.4372 173.358 53.4757V54.1774ZM178.179 57.8178C177.555 57.8178 177.055 57.6211 176.681 57.2276C176.309 56.8313 176.124 56.3071 176.124 55.655C176.124 54.9451 176.318 54.3906 176.706 53.9916C177.094 53.5926 177.618 53.3931 178.278 53.3931C178.908 53.3931 179.4 53.5871 179.752 53.9751C180.107 54.3631 180.284 54.901 180.284 55.589C180.284 56.2631 180.093 56.8038 179.71 57.2111C179.331 57.6156 178.82 57.8178 178.179 57.8178ZM178.229 53.9627C177.794 53.9627 177.45 54.1113 177.197 54.4085C176.944 54.7029 176.817 55.1102 176.817 55.6302C176.817 56.131 176.945 56.5259 177.201 56.8148C177.457 57.1038 177.799 57.2482 178.229 57.2482C178.666 57.2482 179.002 57.1065 179.236 56.8231C179.472 56.5397 179.591 56.1365 179.591 55.6137C179.591 55.0854 179.472 54.6782 179.236 54.392C179.002 54.1058 178.666 53.9627 178.229 53.9627ZM183.454 52.0558C183.322 51.9815 183.172 51.9444 183.004 51.9444C182.531 51.9444 182.294 52.2429 182.294 52.84V53.4922H183.285V54.07H182.294V57.7188H181.621V54.07H180.899V53.4922H181.621V52.807C181.621 52.364 181.749 52.0145 182.005 51.7586C182.261 51.5 182.58 51.3707 182.963 51.3707C183.169 51.3707 183.333 51.3954 183.454 51.4449V52.0558ZM186.104 52.0558C185.972 51.9815 185.822 51.9444 185.654 51.9444C185.181 51.9444 184.944 52.2429 184.944 52.84V53.4922H185.935V54.07H184.944V57.7188H184.271V54.07H183.549V53.4922H184.271V52.807C184.271 52.364 184.399 52.0145 184.655 51.7586C184.911 51.5 185.23 51.3707 185.613 51.3707C185.819 51.3707 185.983 51.3954 186.104 51.4449V52.0558ZM190.946 57.6775C190.786 57.7655 190.575 57.8096 190.314 57.8096C189.574 57.8096 189.204 57.3968 189.204 56.5713V54.07H188.477V53.4922H189.204V52.4603L189.881 52.2416V53.4922H190.946V54.07H189.881V56.4516C189.881 56.735 189.929 56.9373 190.025 57.0583C190.121 57.1794 190.281 57.24 190.504 57.24C190.674 57.24 190.822 57.1932 190.946 57.0996V57.6775ZM195.358 57.7188H194.681V55.2835C194.681 54.403 194.353 53.9627 193.699 53.9627C193.368 53.9627 193.09 54.0907 192.865 54.3466C192.639 54.5997 192.526 54.9258 192.526 55.3248V57.7188H191.849V51.4615H192.526V54.1939H192.543C192.868 53.66 193.33 53.3931 193.93 53.3931C194.882 53.3931 195.358 53.9669 195.358 55.1143V57.7188ZM196.984 52.419C196.863 52.419 196.76 52.3778 196.674 52.2952C196.589 52.2127 196.547 52.1081 196.547 51.9815C196.547 51.8549 196.589 51.7504 196.674 51.6678C196.76 51.5825 196.863 51.5399 196.984 51.5399C197.108 51.5399 197.212 51.5825 197.298 51.6678C197.386 51.7504 197.43 51.8549 197.43 51.9815C197.43 52.1026 197.386 52.2058 197.298 52.2911C197.212 52.3764 197.108 52.419 196.984 52.419ZM197.314 57.7188H196.637V53.4922H197.314V57.7188ZM198.429 57.566V56.8396C198.797 57.112 199.203 57.2482 199.646 57.2482C200.241 57.2482 200.538 57.0501 200.538 56.6539C200.538 56.541 200.512 56.4461 200.459 56.3691C200.41 56.2893 200.341 56.2191 200.253 56.1586C200.168 56.098 200.066 56.0444 199.948 55.9976C199.832 55.9481 199.707 55.8971 199.572 55.8449C199.385 55.7706 199.22 55.6963 199.077 55.622C198.936 55.5449 198.818 55.4596 198.722 55.3661C198.628 55.2698 198.557 55.1611 198.507 55.04C198.46 54.9189 198.437 54.7772 198.437 54.6149C198.437 54.4167 198.482 54.242 198.573 54.0907C198.664 53.9366 198.785 53.8086 198.936 53.7068C199.088 53.6023 199.26 53.5238 199.452 53.4715C199.648 53.4193 199.849 53.3931 200.055 53.3931C200.421 53.3931 200.748 53.4564 201.037 53.583V54.2682C200.726 54.0645 200.369 53.9627 199.964 53.9627C199.838 53.9627 199.723 53.9779 199.622 54.0081C199.52 54.0356 199.432 54.0755 199.357 54.1278C199.286 54.1801 199.229 54.2434 199.188 54.3177C199.15 54.3892 199.13 54.469 199.13 54.5571C199.13 54.6671 199.15 54.7593 199.188 54.8336C199.229 54.9079 199.289 54.974 199.366 55.0317C199.443 55.0895 199.536 55.1418 199.646 55.1886C199.756 55.2354 199.882 55.2863 200.022 55.3413C200.209 55.4129 200.377 55.4871 200.525 55.5642C200.674 55.6385 200.801 55.7238 200.905 55.8201C201.01 55.9137 201.09 56.0223 201.145 56.1462C201.202 56.27 201.231 56.4172 201.231 56.5878C201.231 56.7969 201.184 56.9786 201.091 57.1326C201 57.2867 200.878 57.4147 200.724 57.5165C200.569 57.6183 200.392 57.694 200.191 57.7435C199.99 57.793 199.78 57.8178 199.56 57.8178C199.125 57.8178 198.748 57.7339 198.429 57.566ZM93.0865 68.7188H92.4096V68.0006H92.3931C92.0794 68.5454 91.5951 68.8178 90.9402 68.8178C90.4092 68.8178 89.984 68.6293 89.6648 68.2523C89.3484 67.8726 89.1902 67.3567 89.1902 66.7045C89.1902 66.0056 89.3663 65.4456 89.7185 65.0246C90.0707 64.6036 90.5399 64.3931 91.126 64.3931C91.7066 64.3931 92.129 64.6215 92.3931 65.0783H92.4096V62.4615H93.0865V68.7188ZM92.4096 66.8077V66.1845C92.4096 65.8433 92.2968 65.5543 92.0712 65.3177C91.8455 65.081 91.5594 64.9627 91.2127 64.9627C90.7999 64.9627 90.4752 65.1141 90.2386 65.4167C90.0019 65.7194 89.8836 66.1377 89.8836 66.6715C89.8836 67.1586 89.9964 67.5438 90.2221 67.8272C90.4504 68.1079 90.7559 68.2482 91.1384 68.2482C91.5153 68.2482 91.8208 68.112 92.0547 67.8396C92.2913 67.5672 92.4096 67.2232 92.4096 66.8077ZM97.8538 66.7747H94.8696C94.8806 67.2452 95.0072 67.6085 95.2494 67.8644C95.4915 68.1203 95.8245 68.2482 96.2482 68.2482C96.7243 68.2482 97.1618 68.0914 97.5608 67.7777V68.4133C97.1893 68.683 96.6981 68.8178 96.0872 68.8178C95.4901 68.8178 95.021 68.6266 94.6798 68.2441C94.3386 67.8589 94.168 67.3182 94.168 66.622C94.168 65.9643 94.3537 65.4291 94.7252 65.0164C95.0994 64.6009 95.563 64.3931 96.1161 64.3931C96.6692 64.3931 97.0971 64.572 97.3998 64.9297C97.7025 65.2874 97.8538 65.7841 97.8538 66.4197V66.7747ZM97.1604 66.201C97.1576 65.8102 97.0627 65.5062 96.8756 65.2888C96.6912 65.0714 96.434 64.9627 96.1038 64.9627C95.7846 64.9627 95.5135 65.0769 95.2906 65.3053C95.0677 65.5337 94.9302 65.8322 94.8779 66.201H97.1604ZM102.204 64.4922L100.52 68.7188H99.8557L98.2542 64.4922H98.9971L100.07 67.563C100.15 67.7887 100.2 67.9854 100.219 68.1533H100.235C100.263 67.9414 100.307 67.7502 100.367 67.5796L101.49 64.4922H102.204ZM103.281 63.419C103.16 63.419 103.057 63.3778 102.972 63.2952C102.887 63.2127 102.844 63.1081 102.844 62.9815C102.844 62.8549 102.887 62.7504 102.972 62.6678C103.057 62.5825 103.16 62.5399 103.281 62.5399C103.405 62.5399 103.51 62.5825 103.595 62.6678C103.683 62.7504 103.727 62.8549 103.727 62.9815C103.727 63.1026 103.683 63.2058 103.595 63.2911C103.51 63.3764 103.405 63.419 103.281 63.419ZM103.612 68.7188H102.935V64.4922H103.612V68.7188ZM107.863 68.5248C107.538 68.7201 107.153 68.8178 106.707 68.8178C106.105 68.8178 105.618 68.6224 105.246 68.2317C104.877 67.8382 104.693 67.3292 104.693 66.7045C104.693 66.0084 104.893 65.4498 105.292 65.0288C105.691 64.605 106.223 64.3931 106.889 64.3931C107.26 64.3931 107.588 64.4619 107.871 64.5995V65.2929C107.558 65.0728 107.222 64.9627 106.864 64.9627C106.432 64.9627 106.077 65.1182 105.799 65.4291C105.524 65.7373 105.387 66.1432 105.387 66.6467C105.387 67.142 105.516 67.5328 105.774 67.819C106.036 68.1051 106.385 68.2482 106.823 68.2482C107.192 68.2482 107.538 68.1258 107.863 67.8809V68.5248ZM112.284 66.7747H109.299C109.31 67.2452 109.437 67.6085 109.679 67.8644C109.921 68.1203 110.254 68.2482 110.678 68.2482C111.154 68.2482 111.592 68.0914 111.991 67.7777V68.4133C111.619 68.683 111.128 68.8178 110.517 68.8178C109.92 68.8178 109.451 68.6266 109.11 68.2441C108.768 67.8589 108.598 67.3182 108.598 66.622C108.598 65.9643 108.783 65.4291 109.155 65.0164C109.529 64.6009 109.993 64.3931 110.546 64.3931C111.099 64.3931 111.527 64.572 111.83 64.9297C112.132 65.2874 112.284 65.7841 112.284 66.4197V66.7747ZM111.59 66.201C111.587 65.8102 111.492 65.5062 111.305 65.2888C111.121 65.0714 110.864 64.9627 110.534 64.9627C110.214 64.9627 109.943 65.0769 109.72 65.3053C109.497 65.5337 109.36 65.8322 109.308 66.201H111.59Z" fill="black"/>
<path d="M126.88 17.5047C126.005 17.967 124.916 18.1981 123.611 18.1981C121.927 18.1981 120.579 17.656 119.566 16.5719C118.554 15.4877 118.047 14.0651 118.047 12.304C118.047 10.4109 118.617 8.88097 119.756 7.71426C120.895 6.54756 122.34 5.9642 124.09 5.9642C125.213 5.9642 126.143 6.12655 126.88 6.45125V7.92889C126.033 7.45561 125.097 7.21896 124.074 7.21896C122.714 7.21896 121.611 7.67299 120.763 8.58104C119.921 9.48909 119.5 10.7026 119.5 12.2215C119.5 13.6634 119.894 14.8136 120.681 15.6721C121.473 16.5251 122.511 16.9516 123.793 16.9516C124.982 16.9516 126.011 16.6875 126.88 16.1591V17.5047ZM135.16 18H133.806V16.6792H133.773C133.184 17.6918 132.318 18.1981 131.173 18.1981C130.331 18.1981 129.671 17.9752 129.192 17.5295C128.718 17.0837 128.482 16.4921 128.482 15.7546C128.482 14.1752 129.412 13.2561 131.272 12.9975L133.806 12.6425C133.806 11.2061 133.226 10.4879 132.064 10.4879C131.046 10.4879 130.127 10.8347 129.307 11.5281V10.1412C130.138 9.61292 131.096 9.34875 132.18 9.34875C134.167 9.34875 135.16 10.3999 135.16 12.5022V18ZM133.806 13.7239L131.767 14.0046C131.14 14.0926 130.667 14.2495 130.347 14.4751C130.028 14.6952 129.869 15.0887 129.869 15.6556C129.869 16.0683 130.014 16.4068 130.306 16.6709C130.603 16.9296 130.997 17.0589 131.487 17.0589C132.158 17.0589 132.711 16.825 133.146 16.3573C133.586 15.884 133.806 15.2869 133.806 14.5659V13.7239ZM144.546 18H143.192V16.6627H143.159C142.598 17.6863 141.728 18.1981 140.551 18.1981C138.536 18.1981 137.529 16.9984 137.529 14.5989V9.54688H138.875V14.3843C138.875 16.1674 139.557 17.0589 140.922 17.0589C141.582 17.0589 142.125 16.8168 142.548 16.3325C142.978 15.8427 143.192 15.2043 143.192 14.4173V9.54688H144.546V18ZM151.208 17.9174C150.889 18.0936 150.468 18.1816 149.945 18.1816C148.464 18.1816 147.724 17.3561 147.724 15.7051V10.7026H146.271V9.54688H147.724V7.48312L149.078 7.04561V9.54688H151.208V10.7026H149.078V15.4657C149.078 16.0326 149.174 16.4371 149.367 16.6792C149.56 16.9213 149.879 17.0424 150.325 17.0424C150.666 17.0424 150.96 16.9489 151.208 16.7617V17.9174ZM153.709 7.40057C153.467 7.40057 153.261 7.31802 153.09 7.15292C152.919 6.98782 152.834 6.7787 152.834 6.52554C152.834 6.27239 152.919 6.06326 153.09 5.89816C153.261 5.72756 153.467 5.64226 153.709 5.64226C153.957 5.64226 154.166 5.72756 154.336 5.89816C154.513 6.06326 154.601 6.27239 154.601 6.52554C154.601 6.76769 154.513 6.97407 154.336 7.14467C154.166 7.31527 153.957 7.40057 153.709 7.40057ZM154.369 18H153.016V9.54688H154.369V18ZM160.643 18.1981C159.394 18.1981 158.395 17.8046 157.647 17.0177C156.904 16.2252 156.532 15.1768 156.532 13.8725C156.532 12.4526 156.92 11.3437 157.696 10.5457C158.472 9.74775 159.521 9.34875 160.841 9.34875C162.102 9.34875 163.084 9.73674 163.788 10.5127C164.498 11.2887 164.853 12.3646 164.853 13.7404C164.853 15.0887 164.471 16.1701 163.706 16.9846C162.946 17.7936 161.926 18.1981 160.643 18.1981ZM160.742 10.4879C159.873 10.4879 159.185 10.7851 158.679 11.3795C158.172 11.9683 157.919 12.7828 157.919 13.823C157.919 14.8246 158.175 15.6143 158.687 16.1922C159.199 16.77 159.884 17.0589 160.742 17.0589C161.617 17.0589 162.289 16.7755 162.757 16.2087C163.23 15.6418 163.466 14.8356 163.466 13.7899C163.466 12.7333 163.23 11.9188 162.757 11.3465C162.289 10.7741 161.617 10.4879 160.742 10.4879ZM174.033 18H172.679V13.1791C172.679 11.385 172.024 10.4879 170.714 10.4879C170.037 10.4879 169.476 10.7439 169.03 11.2557C168.59 11.762 168.37 12.4031 168.37 13.1791V18H167.016V9.54688H168.37V10.9502H168.403C169.041 9.88258 169.966 9.34875 171.177 9.34875C172.101 9.34875 172.808 9.64869 173.298 10.2486C173.788 10.8429 174.033 11.7042 174.033 12.8324V18Z" fill="white"/>
<defs>
<clipPath id="clip0_1013_1795">
<rect width="58.6636" height="52.0313" fill="white" transform="translate(12.5703 11.25)"/>
</clipPath>
</defs>
</svg>
