<svg width="218" height="83" viewBox="0 0 218 83" fill="none" xmlns="http://www.w3.org/2000/svg">
<rect x="1.97135" y="2.18034" width="213.639" height="78.7448" rx="9.86198" fill="white" stroke="black" stroke-width="2.81771"/>
<path d="M205.748 2.18066C211.195 2.18066 215.61 6.59552 215.61 12.042V23.8311H74.7979V2.18066H205.748Z" fill="#FABE00" stroke="black" stroke-width="2.81771"/>
<rect x="1.97135" y="2.18034" width="84.1696" height="78.7448" rx="9.86198" fill="white" stroke="black" stroke-width="2.81771"/>
<g clip-path="url(#clip0_539_26)">
<path d="M50.7833 18.3875L71.5304 49.8484C72.2913 51.0021 72.7288 52.3397 72.7288 53.7676C72.7288 58.1039 68.7135 61.6195 63.7603 61.6195H43.0132L35.8384 38.0372L43.0132 14.4551C46.3353 14.4551 49.2334 16.0377 50.7833 18.3875Z" fill="#3B4145"/>
<path d="M35.2429 18.3875L14.4956 49.8484C13.7349 51.0021 13.2974 52.3397 13.2974 53.7676C13.2974 58.1039 17.3127 61.6195 22.2659 61.6195H43.013V14.4551C39.6909 14.4551 36.7928 16.0377 35.2429 18.3875Z" fill="#525A61"/>
<path d="M68.4239 51.4199L47.6768 19.9593C46.7417 18.5407 45.0246 17.6456 43.1675 17.5996L60.912 58.4802H63.7604C66.7272 58.4802 69.1415 56.3667 69.1415 53.7692C69.1415 52.9442 68.8928 52.1318 68.4239 51.4199Z" fill="#FFB751"/>
<path d="M64.9344 51.4192C65.3397 52.131 65.5538 52.9434 65.5538 53.7684C65.5538 56.3658 63.4719 58.4795 60.9116 58.4795H22.2659C19.299 58.4795 16.8848 56.3658 16.8848 53.7684C16.8848 52.9434 17.1335 52.131 17.6022 51.4192L38.3493 19.9586C39.3108 18.5013 41.0973 17.5957 43.0129 17.5957C43.0644 17.5957 43.1158 17.5967 43.1672 17.5989C44.7612 17.6533 46.2333 18.5463 47.0356 19.9586L64.9344 51.4192Z" fill="#FABE00"/>
<path d="M43.0127 48.0098V53.2443C44.6645 53.2443 46.003 52.0728 46.003 50.627C46.003 49.1813 44.6645 48.0098 43.0127 48.0098Z" fill="#3B4145"/>
<path d="M43.0138 48.0098C43.3438 48.0098 43.6118 49.1813 43.6118 50.6271C43.6118 52.0729 43.3438 53.2444 43.0138 53.2444C41.3619 53.2444 40.0234 52.0729 40.0234 50.6271C40.0234 49.1813 41.3619 48.0098 43.0138 48.0098Z" fill="#525A61"/>
<path d="M43.0127 25.502V44.8698C44.6645 44.8698 46.003 43.6972 46.003 42.2525V28.1193C46.003 26.6735 44.6645 25.502 43.0127 25.502Z" fill="#3B4145"/>
<path d="M43.0138 25.502C43.3438 25.502 43.6118 26.6735 43.6118 28.1193V42.2525C43.6118 43.6971 43.3438 44.8698 43.0138 44.8698C41.3619 44.8698 40.0234 43.6972 40.0234 42.2525V28.1193C40.0234 26.6735 41.3619 25.502 43.0138 25.502Z" fill="#525A61"/>
</g>
<path d="M94.5654 31.4824H92.9482V36.4902H92.292V31.4824H90.6787V30.8887H94.5654V31.4824ZM98.6826 36.4902H98.042V34.1855C98.042 33.3522 97.7321 32.9355 97.1123 32.9355C96.7998 32.9355 96.5368 33.0566 96.3232 33.2988C96.1097 33.5384 96.0029 33.847 96.0029 34.2246V36.4902H95.3623V30.5684H96.0029V33.1543H96.0186C96.3258 32.6491 96.7633 32.3965 97.3311 32.3965C98.2321 32.3965 98.6826 32.9395 98.6826 34.0254V36.4902ZM100.222 31.4746C100.107 31.4746 100.009 31.4355 99.9287 31.3574C99.848 31.2793 99.8076 31.1803 99.8076 31.0605C99.8076 30.9408 99.848 30.8418 99.9287 30.7637C100.009 30.6829 100.107 30.6426 100.222 30.6426C100.339 30.6426 100.438 30.6829 100.519 30.7637C100.602 30.8418 100.644 30.9408 100.644 31.0605C100.644 31.1751 100.602 31.2728 100.519 31.3535C100.438 31.4342 100.339 31.4746 100.222 31.4746ZM100.534 36.4902H99.8936V32.4902H100.534V36.4902ZM101.589 36.3457V35.6582C101.938 35.916 102.322 36.0449 102.741 36.0449C103.304 36.0449 103.585 35.8574 103.585 35.4824C103.585 35.3757 103.56 35.2858 103.511 35.2129C103.464 35.1374 103.399 35.071 103.315 35.0137C103.235 34.9564 103.138 34.9056 103.026 34.8613C102.917 34.8145 102.799 34.7663 102.671 34.7168C102.494 34.6465 102.338 34.5762 102.202 34.5059C102.069 34.4329 101.957 34.3522 101.866 34.2637C101.778 34.1725 101.71 34.0697 101.663 33.9551C101.619 33.8405 101.597 33.7064 101.597 33.5527C101.597 33.3652 101.64 33.1999 101.726 33.0566C101.812 32.9108 101.926 32.7897 102.069 32.6934C102.213 32.5944 102.375 32.5202 102.558 32.4707C102.743 32.4212 102.933 32.3965 103.128 32.3965C103.474 32.3965 103.784 32.4564 104.058 32.5762V33.2246C103.763 33.0319 103.425 32.9355 103.042 32.9355C102.922 32.9355 102.814 32.9499 102.718 32.9785C102.621 33.0046 102.538 33.0423 102.468 33.0918C102.4 33.1413 102.347 33.2012 102.308 33.2715C102.271 33.3392 102.253 33.4147 102.253 33.498C102.253 33.6022 102.271 33.6895 102.308 33.7598C102.347 33.8301 102.403 33.8926 102.476 33.9473C102.549 34.002 102.637 34.0514 102.741 34.0957C102.845 34.14 102.964 34.1882 103.097 34.2402C103.274 34.3079 103.433 34.3783 103.573 34.4512C103.714 34.5215 103.834 34.6022 103.933 34.6934C104.032 34.7819 104.107 34.8848 104.159 35.002C104.214 35.1191 104.241 35.2585 104.241 35.4199C104.241 35.6178 104.197 35.7897 104.108 35.9355C104.022 36.0814 103.907 36.2025 103.761 36.2988C103.615 36.3952 103.447 36.4668 103.257 36.5137C103.067 36.5605 102.868 36.584 102.659 36.584C102.248 36.584 101.891 36.5046 101.589 36.3457ZM110.839 36.4902H110.198V35.8105H110.183C109.886 36.3262 109.427 36.584 108.808 36.584C108.305 36.584 107.903 36.4056 107.601 36.0488C107.301 35.6895 107.151 35.2012 107.151 34.584C107.151 33.9225 107.318 33.3926 107.651 32.9941C107.985 32.5957 108.429 32.3965 108.983 32.3965C109.533 32.3965 109.933 32.6126 110.183 33.0449H110.198V30.5684H110.839V36.4902ZM110.198 34.6816V34.0918C110.198 33.7689 110.091 33.4954 109.878 33.2715C109.664 33.0475 109.394 32.9355 109.065 32.9355C108.675 32.9355 108.368 33.0788 108.144 33.3652C107.92 33.6517 107.808 34.0475 107.808 34.5527C107.808 35.0137 107.914 35.3783 108.128 35.6465C108.344 35.9121 108.633 36.0449 108.995 36.0449C109.352 36.0449 109.641 35.916 109.862 35.6582C110.086 35.4004 110.198 35.0749 110.198 34.6816ZM115.351 34.6504H112.526C112.537 35.0957 112.657 35.4395 112.886 35.6816C113.115 35.9238 113.43 36.0449 113.831 36.0449C114.282 36.0449 114.696 35.8965 115.073 35.5996V36.2012C114.722 36.4564 114.257 36.584 113.679 36.584C113.114 36.584 112.67 36.403 112.347 36.041C112.024 35.6764 111.862 35.1647 111.862 34.5059C111.862 33.8835 112.038 33.377 112.39 32.9863C112.744 32.5931 113.183 32.3965 113.706 32.3965C114.229 32.3965 114.634 32.5658 114.921 32.9043C115.207 33.2428 115.351 33.7129 115.351 34.3145V34.6504ZM114.694 34.1074C114.692 33.7376 114.602 33.4499 114.425 33.2441C114.25 33.0384 114.007 32.9355 113.694 32.9355C113.392 32.9355 113.136 33.0436 112.925 33.2598C112.714 33.4759 112.584 33.7585 112.534 34.1074H114.694ZM119.468 32.4902L117.874 36.4902H117.245L115.729 32.4902H116.433L117.448 35.3965C117.524 35.61 117.571 35.7962 117.589 35.9551H117.604C117.631 35.7546 117.672 35.5736 117.729 35.4121L118.792 32.4902H119.468ZM120.487 31.4746C120.373 31.4746 120.275 31.4355 120.194 31.3574C120.114 31.2793 120.073 31.1803 120.073 31.0605C120.073 30.9408 120.114 30.8418 120.194 30.7637C120.275 30.6829 120.373 30.6426 120.487 30.6426C120.604 30.6426 120.703 30.6829 120.784 30.7637C120.868 30.8418 120.909 30.9408 120.909 31.0605C120.909 31.1751 120.868 31.2728 120.784 31.3535C120.703 31.4342 120.604 31.4746 120.487 31.4746ZM120.8 36.4902H120.159V32.4902H120.8V36.4902ZM124.823 36.3066C124.516 36.4915 124.151 36.584 123.729 36.584C123.159 36.584 122.698 36.3991 122.347 36.0293C121.998 35.6569 121.823 35.1751 121.823 34.584C121.823 33.9251 122.012 33.3965 122.39 32.998C122.767 32.597 123.271 32.3965 123.901 32.3965C124.253 32.3965 124.563 32.4616 124.831 32.5918V33.248C124.534 33.0397 124.216 32.9355 123.878 32.9355C123.469 32.9355 123.133 33.0827 122.87 33.377C122.61 33.6686 122.479 34.0527 122.479 34.5293C122.479 34.998 122.602 35.3678 122.847 35.6387C123.094 35.9095 123.425 36.0449 123.839 36.0449C124.188 36.0449 124.516 35.929 124.823 35.6973V36.3066ZM129.007 34.6504H126.183C126.193 35.0957 126.313 35.4395 126.542 35.6816C126.771 35.9238 127.086 36.0449 127.487 36.0449C127.938 36.0449 128.352 35.8965 128.729 35.5996V36.2012C128.378 36.4564 127.913 36.584 127.335 36.584C126.77 36.584 126.326 36.403 126.003 36.041C125.68 35.6764 125.519 35.1647 125.519 34.5059C125.519 33.8835 125.694 33.377 126.046 32.9863C126.4 32.5931 126.839 32.3965 127.362 32.3965C127.886 32.3965 128.291 32.5658 128.577 32.9043C128.864 33.2428 129.007 33.7129 129.007 34.3145V34.6504ZM128.351 34.1074C128.348 33.7376 128.258 33.4499 128.081 33.2441C127.907 33.0384 127.663 32.9355 127.351 32.9355C127.049 32.9355 126.792 33.0436 126.581 33.2598C126.37 33.4759 126.24 33.7585 126.19 34.1074H128.351ZM135.495 36.4902H134.854V34.1855C134.854 33.3522 134.545 32.9355 133.925 32.9355C133.612 32.9355 133.349 33.0566 133.136 33.2988C132.922 33.5384 132.815 33.847 132.815 34.2246V36.4902H132.175V30.5684H132.815V33.1543H132.831C133.138 32.6491 133.576 32.3965 134.144 32.3965C135.045 32.3965 135.495 32.9395 135.495 34.0254V36.4902ZM139.569 36.4902H138.929V35.8652H138.913C138.634 36.3444 138.224 36.584 137.683 36.584C137.284 36.584 136.972 36.4785 136.745 36.2676C136.521 36.0566 136.409 35.7767 136.409 35.4277C136.409 34.6803 136.849 34.2454 137.729 34.123L138.929 33.9551C138.929 33.2754 138.654 32.9355 138.104 32.9355C137.623 32.9355 137.188 33.0996 136.8 33.4277V32.7715C137.193 32.5215 137.646 32.3965 138.159 32.3965C139.099 32.3965 139.569 32.8939 139.569 33.8887V36.4902ZM138.929 34.4668L137.964 34.5996C137.667 34.6413 137.443 34.7155 137.292 34.8223C137.141 34.9264 137.065 35.1126 137.065 35.3809C137.065 35.5762 137.134 35.7363 137.272 35.8613C137.413 35.9837 137.599 36.0449 137.831 36.0449C138.149 36.0449 138.41 35.9342 138.616 35.7129C138.825 35.4889 138.929 35.2064 138.929 34.8652V34.4668ZM140.534 36.3457V35.6582C140.883 35.916 141.267 36.0449 141.687 36.0449C142.249 36.0449 142.53 35.8574 142.53 35.4824C142.53 35.3757 142.506 35.2858 142.456 35.2129C142.409 35.1374 142.344 35.071 142.261 35.0137C142.18 34.9564 142.084 34.9056 141.972 34.8613C141.862 34.8145 141.744 34.7663 141.616 34.7168C141.439 34.6465 141.283 34.5762 141.147 34.5059C141.015 34.4329 140.903 34.3522 140.812 34.2637C140.723 34.1725 140.655 34.0697 140.608 33.9551C140.564 33.8405 140.542 33.7064 140.542 33.5527C140.542 33.3652 140.585 33.1999 140.671 33.0566C140.757 32.9108 140.871 32.7897 141.015 32.6934C141.158 32.5944 141.321 32.5202 141.503 32.4707C141.688 32.4212 141.878 32.3965 142.073 32.3965C142.42 32.3965 142.729 32.4564 143.003 32.5762V33.2246C142.709 33.0319 142.37 32.9355 141.987 32.9355C141.868 32.9355 141.759 32.9499 141.663 32.9785C141.567 33.0046 141.483 33.0423 141.413 33.0918C141.345 33.1413 141.292 33.2012 141.253 33.2715C141.216 33.3392 141.198 33.4147 141.198 33.498C141.198 33.6022 141.216 33.6895 141.253 33.7598C141.292 33.8301 141.348 33.8926 141.421 33.9473C141.494 34.002 141.582 34.0514 141.687 34.0957C141.791 34.14 141.909 34.1882 142.042 34.2402C142.219 34.3079 142.378 34.3783 142.519 34.4512C142.659 34.5215 142.779 34.6022 142.878 34.6934C142.977 34.7819 143.052 34.8848 143.104 35.002C143.159 35.1191 143.187 35.2585 143.187 35.4199C143.187 35.6178 143.142 35.7897 143.054 35.9355C142.968 36.0814 142.852 36.2025 142.706 36.2988C142.56 36.3952 142.392 36.4668 142.202 36.5137C142.012 36.5605 141.813 36.584 141.604 36.584C141.193 36.584 140.836 36.5046 140.534 36.3457ZM152.05 36.4902H151.409V34.1934C151.409 33.7507 151.34 33.4303 151.202 33.2324C151.067 33.0345 150.838 32.9355 150.515 32.9355C150.241 32.9355 150.008 33.0605 149.815 33.3105C149.625 33.5605 149.53 33.86 149.53 34.209V36.4902H148.89V34.1152C148.89 33.3288 148.586 32.9355 147.979 32.9355C147.698 32.9355 147.466 33.054 147.284 33.291C147.102 33.5254 147.011 33.8314 147.011 34.209V36.4902H146.37V32.4902H147.011V33.123H147.026C147.31 32.6387 147.724 32.3965 148.269 32.3965C148.542 32.3965 148.78 32.4733 148.983 32.627C149.187 32.778 149.326 32.9772 149.401 33.2246C149.698 32.6725 150.141 32.3965 150.729 32.3965C151.61 32.3965 152.05 32.9395 152.05 34.0254V36.4902ZM154.933 36.584C154.341 36.584 153.869 36.3978 153.515 36.0254C153.163 35.6504 152.987 35.1543 152.987 34.5371C152.987 33.8652 153.171 33.3405 153.538 32.9629C153.905 32.5853 154.401 32.3965 155.026 32.3965C155.623 32.3965 156.088 32.5801 156.421 32.9473C156.757 33.3145 156.925 33.8236 156.925 34.4746C156.925 35.1126 156.744 35.6243 156.382 36.0098C156.022 36.3926 155.539 36.584 154.933 36.584ZM154.979 32.9355C154.568 32.9355 154.243 33.0762 154.003 33.3574C153.763 33.6361 153.644 34.0215 153.644 34.5137C153.644 34.9876 153.765 35.3613 154.007 35.6348C154.249 35.9082 154.573 36.0449 154.979 36.0449C155.394 36.0449 155.711 35.9108 155.933 35.6426C156.157 35.3743 156.269 34.9928 156.269 34.498C156.269 33.998 156.157 33.6126 155.933 33.3418C155.711 33.071 155.394 32.9355 154.979 32.9355ZM160.034 33.1387C159.922 33.0527 159.761 33.0098 159.55 33.0098C159.276 33.0098 159.047 33.1387 158.862 33.3965C158.68 33.6543 158.589 34.0059 158.589 34.4512V36.4902H157.948V32.4902H158.589V33.3145H158.604C158.696 33.0332 158.835 32.8145 159.022 32.6582C159.21 32.4993 159.42 32.4199 159.651 32.4199C159.818 32.4199 159.946 32.4382 160.034 32.4746V33.1387ZM163.944 34.6504H161.12C161.131 35.0957 161.25 35.4395 161.479 35.6816C161.709 35.9238 162.024 36.0449 162.425 36.0449C162.875 36.0449 163.289 35.8965 163.667 35.5996V36.2012C163.315 36.4564 162.851 36.584 162.272 36.584C161.707 36.584 161.263 36.403 160.94 36.041C160.618 35.6764 160.456 35.1647 160.456 34.5059C160.456 33.8835 160.632 33.377 160.983 32.9863C161.338 32.5931 161.776 32.3965 162.3 32.3965C162.823 32.3965 163.228 32.5658 163.515 32.9043C163.801 33.2428 163.944 33.7129 163.944 34.3145V34.6504ZM163.288 34.1074C163.285 33.7376 163.196 33.4499 163.019 33.2441C162.844 33.0384 162.601 32.9355 162.288 32.9355C161.986 32.9355 161.729 33.0436 161.519 33.2598C161.308 33.4759 161.177 33.7585 161.128 34.1074H163.288ZM168.968 36.4512C168.817 36.5345 168.618 36.5762 168.37 36.5762C167.67 36.5762 167.319 36.1855 167.319 35.4043V33.0371H166.632V32.4902H167.319V31.5137L167.96 31.3066V32.4902H168.968V33.0371H167.96V35.291C167.96 35.5592 168.006 35.7507 168.097 35.8652C168.188 35.9798 168.339 36.0371 168.55 36.0371C168.711 36.0371 168.851 35.9928 168.968 35.9043V36.4512ZM173.144 36.4902H172.503V34.1855C172.503 33.3522 172.193 32.9355 171.573 32.9355C171.261 32.9355 170.998 33.0566 170.784 33.2988C170.571 33.5384 170.464 33.847 170.464 34.2246V36.4902H169.823V30.5684H170.464V33.1543H170.479C170.787 32.6491 171.224 32.3965 171.792 32.3965C172.693 32.3965 173.144 32.9395 173.144 34.0254V36.4902ZM177.218 36.4902H176.577V35.8652H176.562C176.283 36.3444 175.873 36.584 175.331 36.584C174.933 36.584 174.62 36.4785 174.394 36.2676C174.17 36.0566 174.058 35.7767 174.058 35.4277C174.058 34.6803 174.498 34.2454 175.378 34.123L176.577 33.9551C176.577 33.2754 176.302 32.9355 175.753 32.9355C175.271 32.9355 174.836 33.0996 174.448 33.4277V32.7715C174.841 32.5215 175.295 32.3965 175.808 32.3965C176.748 32.3965 177.218 32.8939 177.218 33.8887V36.4902ZM176.577 34.4668L175.612 34.5996C175.315 34.6413 175.091 34.7155 174.94 34.8223C174.789 34.9264 174.714 35.1126 174.714 35.3809C174.714 35.5762 174.783 35.7363 174.921 35.8613C175.062 35.9837 175.248 36.0449 175.479 36.0449C175.797 36.0449 176.059 35.9342 176.265 35.7129C176.473 35.4889 176.577 35.2064 176.577 34.8652V34.4668ZM181.745 36.4902H181.104V34.209C181.104 33.36 180.795 32.9355 180.175 32.9355C179.854 32.9355 179.589 33.0566 179.378 33.2988C179.17 33.5384 179.065 33.8418 179.065 34.209V36.4902H178.425V32.4902H179.065V33.1543H179.081C179.383 32.6491 179.821 32.3965 180.394 32.3965C180.831 32.3965 181.166 32.5384 181.397 32.8223C181.629 33.1035 181.745 33.5111 181.745 34.0449V36.4902ZM186.823 36.584C186.232 36.584 185.759 36.3978 185.405 36.0254C185.054 35.6504 184.878 35.1543 184.878 34.5371C184.878 33.8652 185.062 33.3405 185.429 32.9629C185.796 32.5853 186.292 32.3965 186.917 32.3965C187.513 32.3965 187.978 32.5801 188.312 32.9473C188.647 33.3145 188.815 33.8236 188.815 34.4746C188.815 35.1126 188.634 35.6243 188.272 36.0098C187.913 36.3926 187.43 36.584 186.823 36.584ZM186.87 32.9355C186.459 32.9355 186.133 33.0762 185.894 33.3574C185.654 33.6361 185.534 34.0215 185.534 34.5137C185.534 34.9876 185.655 35.3613 185.897 35.6348C186.14 35.9082 186.464 36.0449 186.87 36.0449C187.284 36.0449 187.602 35.9108 187.823 35.6426C188.047 35.3743 188.159 34.9928 188.159 34.498C188.159 33.998 188.047 33.6126 187.823 33.3418C187.602 33.071 187.284 32.9355 186.87 32.9355ZM193.159 36.4902H192.519V34.209C192.519 33.36 192.209 32.9355 191.589 32.9355C191.269 32.9355 191.003 33.0566 190.792 33.2988C190.584 33.5384 190.479 33.8418 190.479 34.209V36.4902H189.839V32.4902H190.479V33.1543H190.495C190.797 32.6491 191.235 32.3965 191.808 32.3965C192.245 32.3965 192.58 32.5384 192.812 32.8223C193.043 33.1035 193.159 33.5111 193.159 34.0449V36.4902ZM197.585 34.6504H194.761C194.771 35.0957 194.891 35.4395 195.12 35.6816C195.349 35.9238 195.664 36.0449 196.065 36.0449C196.516 36.0449 196.93 35.8965 197.308 35.5996V36.2012C196.956 36.4564 196.491 36.584 195.913 36.584C195.348 36.584 194.904 36.403 194.581 36.041C194.258 35.6764 194.097 35.1647 194.097 34.5059C194.097 33.8835 194.272 33.377 194.624 32.9863C194.978 32.5931 195.417 32.3965 195.94 32.3965C196.464 32.3965 196.869 32.5658 197.155 32.9043C197.442 33.2428 197.585 33.7129 197.585 34.3145V34.6504ZM196.929 34.1074C196.926 33.7376 196.836 33.4499 196.659 33.2441C196.485 33.0384 196.241 32.9355 195.929 32.9355C195.627 32.9355 195.37 33.0436 195.159 33.2598C194.948 33.4759 194.818 33.7585 194.769 34.1074H196.929ZM91.8232 46.9121H91.8076V49.3301H91.167V43.4902H91.8076V44.1934H91.8232C92.1383 43.6621 92.5993 43.3965 93.2061 43.3965C93.7217 43.3965 94.124 43.5762 94.4131 43.9355C94.7021 44.2923 94.8467 44.7715 94.8467 45.373C94.8467 46.0423 94.6839 46.5788 94.3584 46.9824C94.0329 47.3835 93.5876 47.584 93.0225 47.584C92.5042 47.584 92.1045 47.36 91.8232 46.9121ZM91.8076 45.2988V45.8574C91.8076 46.1882 91.9144 46.4694 92.1279 46.7012C92.3441 46.9303 92.6175 47.0449 92.9482 47.0449C93.3363 47.0449 93.6396 46.8965 93.8584 46.5996C94.0798 46.3027 94.1904 45.89 94.1904 45.3613C94.1904 44.916 94.0876 44.5671 93.8818 44.3145C93.6761 44.0618 93.3975 43.9355 93.0459 43.9355C92.6735 43.9355 92.374 44.0658 92.1475 44.3262C91.9209 44.584 91.8076 44.9082 91.8076 45.2988ZM97.542 47.584C96.9508 47.584 96.4782 47.3978 96.124 47.0254C95.7725 46.6504 95.5967 46.1543 95.5967 45.5371C95.5967 44.8652 95.7803 44.3405 96.1475 43.9629C96.5146 43.5853 97.0107 43.3965 97.6357 43.3965C98.2321 43.3965 98.6969 43.5801 99.0303 43.9473C99.3662 44.3145 99.5342 44.8236 99.5342 45.4746C99.5342 46.1126 99.3532 46.6243 98.9912 47.0098C98.6318 47.3926 98.1488 47.584 97.542 47.584ZM97.5889 43.9355C97.1774 43.9355 96.8519 44.0762 96.6123 44.3574C96.3727 44.6361 96.2529 45.0215 96.2529 45.5137C96.2529 45.9876 96.374 46.3613 96.6162 46.6348C96.8584 46.9082 97.1826 47.0449 97.5889 47.0449C98.0029 47.0449 98.3206 46.9108 98.542 46.6426C98.766 46.3743 98.8779 45.9928 98.8779 45.498C98.8779 44.998 98.766 44.6126 98.542 44.3418C98.3206 44.071 98.0029 43.9355 97.5889 43.9355ZM105.597 43.4902L104.397 47.4902H103.733L102.909 44.627C102.878 44.5176 102.857 44.3939 102.847 44.2559H102.831C102.823 44.3496 102.796 44.4707 102.749 44.6191L101.854 47.4902H101.214L100.003 43.4902H100.675L101.503 46.498C101.529 46.5892 101.547 46.709 101.558 46.8574H101.589C101.597 46.7428 101.62 46.6204 101.659 46.4902L102.581 43.4902H103.167L103.995 46.5059C104.021 46.6022 104.041 46.722 104.054 46.8652H104.085C104.09 46.7637 104.112 46.6439 104.151 46.5059L104.964 43.4902H105.597ZM109.554 45.6504H106.729C106.74 46.0957 106.86 46.4395 107.089 46.6816C107.318 46.9238 107.633 47.0449 108.034 47.0449C108.485 47.0449 108.899 46.8965 109.276 46.5996V47.2012C108.925 47.4564 108.46 47.584 107.882 47.584C107.317 47.584 106.873 47.403 106.55 47.041C106.227 46.6764 106.065 46.1647 106.065 45.5059C106.065 44.8835 106.241 44.377 106.593 43.9863C106.947 43.5931 107.386 43.3965 107.909 43.3965C108.433 43.3965 108.838 43.5658 109.124 43.9043C109.41 44.2428 109.554 44.7129 109.554 45.3145V45.6504ZM108.897 45.1074C108.895 44.7376 108.805 44.4499 108.628 44.2441C108.453 44.0384 108.21 43.9355 107.897 43.9355C107.595 43.9355 107.339 44.0436 107.128 44.2598C106.917 44.4759 106.787 44.7585 106.737 45.1074H108.897ZM112.612 44.1387C112.5 44.0527 112.339 44.0098 112.128 44.0098C111.854 44.0098 111.625 44.1387 111.44 44.3965C111.258 44.6543 111.167 45.0059 111.167 45.4512V47.4902H110.526V43.4902H111.167V44.3145H111.183C111.274 44.0332 111.413 43.8145 111.601 43.6582C111.788 43.4993 111.998 43.4199 112.229 43.4199C112.396 43.4199 112.524 43.4382 112.612 43.4746V44.1387ZM115.831 42.4746C115.716 42.4746 115.619 42.4355 115.538 42.3574C115.457 42.2793 115.417 42.1803 115.417 42.0605C115.417 41.9408 115.457 41.8418 115.538 41.7637C115.619 41.6829 115.716 41.6426 115.831 41.6426C115.948 41.6426 116.047 41.6829 116.128 41.7637C116.211 41.8418 116.253 41.9408 116.253 42.0605C116.253 42.1751 116.211 42.2728 116.128 42.3535C116.047 42.4342 115.948 42.4746 115.831 42.4746ZM116.144 47.4902H115.503V43.4902H116.144V47.4902ZM120.761 47.4902H120.12V45.209C120.12 44.36 119.81 43.9355 119.19 43.9355C118.87 43.9355 118.604 44.0566 118.394 44.2988C118.185 44.5384 118.081 44.8418 118.081 45.209V47.4902H117.44V43.4902H118.081V44.1543H118.097C118.399 43.6491 118.836 43.3965 119.409 43.3965C119.847 43.3965 120.181 43.5384 120.413 43.8223C120.645 44.1035 120.761 44.5111 120.761 45.0449V47.4902ZM122.628 46.9121H122.612V49.3301H121.972V43.4902H122.612V44.1934H122.628C122.943 43.6621 123.404 43.3965 124.011 43.3965C124.526 43.3965 124.929 43.5762 125.218 43.9355C125.507 44.2923 125.651 44.7715 125.651 45.373C125.651 46.0423 125.489 46.5788 125.163 46.9824C124.838 47.3835 124.392 47.584 123.827 47.584C123.309 47.584 122.909 47.36 122.628 46.9121ZM122.612 45.2988V45.8574C122.612 46.1882 122.719 46.4694 122.933 46.7012C123.149 46.9303 123.422 47.0449 123.753 47.0449C124.141 47.0449 124.444 46.8965 124.663 46.5996C124.884 46.3027 124.995 45.89 124.995 45.3613C124.995 44.916 124.892 44.5671 124.687 44.3145C124.481 44.0618 124.202 43.9355 123.851 43.9355C123.478 43.9355 123.179 44.0658 122.952 44.3262C122.726 44.584 122.612 44.9082 122.612 45.2988ZM129.909 47.4902H129.269V46.8574H129.253C128.987 47.3418 128.576 47.584 128.019 47.584C127.065 47.584 126.589 47.0163 126.589 45.8809V43.4902H127.226V45.7793C127.226 46.623 127.549 47.0449 128.194 47.0449C128.507 47.0449 128.763 46.9303 128.964 46.7012C129.167 46.4694 129.269 46.1673 129.269 45.7949V43.4902H129.909V47.4902ZM133.062 47.4512C132.91 47.5345 132.711 47.5762 132.464 47.5762C131.763 47.5762 131.413 47.1855 131.413 46.4043V44.0371H130.726V43.4902H131.413V42.5137L132.054 42.3066V43.4902H133.062V44.0371H132.054V46.291C132.054 46.5592 132.099 46.7507 132.19 46.8652C132.282 46.9798 132.433 47.0371 132.644 47.0371C132.805 47.0371 132.944 46.9928 133.062 46.9043V47.4512ZM139.526 47.4902H138.886V46.8105H138.87C138.573 47.3262 138.115 47.584 137.495 47.584C136.993 47.584 136.59 47.4056 136.288 47.0488C135.989 46.6895 135.839 46.2012 135.839 45.584C135.839 44.9225 136.006 44.3926 136.339 43.9941C136.672 43.5957 137.116 43.3965 137.671 43.3965C138.22 43.3965 138.62 43.6126 138.87 44.0449H138.886V41.5684H139.526V47.4902ZM138.886 45.6816V45.0918C138.886 44.7689 138.779 44.4954 138.565 44.2715C138.352 44.0475 138.081 43.9355 137.753 43.9355C137.362 43.9355 137.055 44.0788 136.831 44.3652C136.607 44.6517 136.495 45.0475 136.495 45.5527C136.495 46.0137 136.602 46.3783 136.815 46.6465C137.032 46.9121 137.321 47.0449 137.683 47.0449C138.039 47.0449 138.328 46.916 138.55 46.6582C138.774 46.4004 138.886 46.0749 138.886 45.6816ZM141.151 42.4746C141.037 42.4746 140.939 42.4355 140.858 42.3574C140.778 42.2793 140.737 42.1803 140.737 42.0605C140.737 41.9408 140.778 41.8418 140.858 41.7637C140.939 41.6829 141.037 41.6426 141.151 41.6426C141.269 41.6426 141.368 41.6829 141.448 41.7637C141.532 41.8418 141.573 41.9408 141.573 42.0605C141.573 42.1751 141.532 42.2728 141.448 42.3535C141.368 42.4342 141.269 42.4746 141.151 42.4746ZM141.464 47.4902H140.823V43.4902H141.464V47.4902ZM142.519 47.3457V46.6582C142.868 46.916 143.252 47.0449 143.671 47.0449C144.233 47.0449 144.515 46.8574 144.515 46.4824C144.515 46.3757 144.49 46.2858 144.44 46.2129C144.394 46.1374 144.328 46.071 144.245 46.0137C144.164 45.9564 144.068 45.9056 143.956 45.8613C143.847 45.8145 143.728 45.7663 143.601 45.7168C143.424 45.6465 143.267 45.5762 143.132 45.5059C142.999 45.4329 142.887 45.3522 142.796 45.2637C142.707 45.1725 142.64 45.0697 142.593 44.9551C142.549 44.8405 142.526 44.7064 142.526 44.5527C142.526 44.3652 142.569 44.1999 142.655 44.0566C142.741 43.9108 142.856 43.7897 142.999 43.6934C143.142 43.5944 143.305 43.5202 143.487 43.4707C143.672 43.4212 143.862 43.3965 144.058 43.3965C144.404 43.3965 144.714 43.4564 144.987 43.5762V44.2246C144.693 44.0319 144.354 43.9355 143.972 43.9355C143.852 43.9355 143.744 43.9499 143.647 43.9785C143.551 44.0046 143.468 44.0423 143.397 44.0918C143.33 44.1413 143.276 44.2012 143.237 44.2715C143.201 44.3392 143.183 44.4147 143.183 44.498C143.183 44.6022 143.201 44.6895 143.237 44.7598C143.276 44.8301 143.332 44.8926 143.405 44.9473C143.478 45.002 143.567 45.0514 143.671 45.0957C143.775 45.14 143.894 45.1882 144.026 45.2402C144.203 45.3079 144.362 45.3783 144.503 45.4512C144.644 45.5215 144.763 45.6022 144.862 45.6934C144.961 45.7819 145.037 45.8848 145.089 46.002C145.144 46.1191 145.171 46.2585 145.171 46.4199C145.171 46.6178 145.127 46.7897 145.038 46.9355C144.952 47.0814 144.836 47.2025 144.69 47.2988C144.545 47.3952 144.377 47.4668 144.187 47.5137C143.996 47.5605 143.797 47.584 143.589 47.584C143.177 47.584 142.821 47.5046 142.519 47.3457ZM148.886 47.3066C148.578 47.4915 148.214 47.584 147.792 47.584C147.222 47.584 146.761 47.3991 146.409 47.0293C146.06 46.6569 145.886 46.1751 145.886 45.584C145.886 44.9251 146.075 44.3965 146.452 43.998C146.83 43.597 147.334 43.3965 147.964 43.3965C148.315 43.3965 148.625 43.4616 148.894 43.5918V44.248C148.597 44.0397 148.279 43.9355 147.94 43.9355C147.532 43.9355 147.196 44.0827 146.933 44.377C146.672 44.6686 146.542 45.0527 146.542 45.5293C146.542 45.998 146.664 46.3678 146.909 46.6387C147.157 46.9095 147.487 47.0449 147.901 47.0449C148.25 47.0449 148.578 46.929 148.886 46.6973V47.3066ZM151.526 47.584C150.935 47.584 150.463 47.3978 150.108 47.0254C149.757 46.6504 149.581 46.1543 149.581 45.5371C149.581 44.8652 149.765 44.3405 150.132 43.9629C150.499 43.5853 150.995 43.3965 151.62 43.3965C152.216 43.3965 152.681 43.5801 153.015 43.9473C153.351 44.3145 153.519 44.8236 153.519 45.4746C153.519 46.1126 153.338 46.6243 152.976 47.0098C152.616 47.3926 152.133 47.584 151.526 47.584ZM151.573 43.9355C151.162 43.9355 150.836 44.0762 150.597 44.3574C150.357 44.6361 150.237 45.0215 150.237 45.5137C150.237 45.9876 150.358 46.3613 150.601 46.6348C150.843 46.9082 151.167 47.0449 151.573 47.0449C151.987 47.0449 152.305 46.9108 152.526 46.6426C152.75 46.3743 152.862 45.9928 152.862 45.498C152.862 44.998 152.75 44.6126 152.526 44.3418C152.305 44.071 151.987 43.9355 151.573 43.9355ZM157.862 47.4902H157.222V45.209C157.222 44.36 156.912 43.9355 156.292 43.9355C155.972 43.9355 155.706 44.0566 155.495 44.2988C155.287 44.5384 155.183 44.8418 155.183 45.209V47.4902H154.542V43.4902H155.183V44.1543H155.198C155.5 43.6491 155.938 43.3965 156.511 43.3965C156.948 43.3965 157.283 43.5384 157.515 43.8223C157.746 44.1035 157.862 44.5111 157.862 45.0449V47.4902ZM162.394 47.4902H161.753V45.209C161.753 44.36 161.443 43.9355 160.823 43.9355C160.503 43.9355 160.237 44.0566 160.026 44.2988C159.818 44.5384 159.714 44.8418 159.714 45.209V47.4902H159.073V43.4902H159.714V44.1543H159.729C160.032 43.6491 160.469 43.3965 161.042 43.3965C161.479 43.3965 161.814 43.5384 162.046 43.8223C162.278 44.1035 162.394 44.5111 162.394 45.0449V47.4902ZM166.819 45.6504H163.995C164.006 46.0957 164.125 46.4395 164.354 46.6816C164.584 46.9238 164.899 47.0449 165.3 47.0449C165.75 47.0449 166.164 46.8965 166.542 46.5996V47.2012C166.19 47.4564 165.726 47.584 165.147 47.584C164.582 47.584 164.138 47.403 163.815 47.041C163.493 46.6764 163.331 46.1647 163.331 45.5059C163.331 44.8835 163.507 44.377 163.858 43.9863C164.213 43.5931 164.651 43.3965 165.175 43.3965C165.698 43.3965 166.103 43.5658 166.39 43.9043C166.676 44.2428 166.819 44.7129 166.819 45.3145V45.6504ZM166.163 45.1074C166.16 44.7376 166.071 44.4499 165.894 44.2441C165.719 44.0384 165.476 43.9355 165.163 43.9355C164.861 43.9355 164.604 44.0436 164.394 44.2598C164.183 44.4759 164.052 44.7585 164.003 45.1074H166.163ZM170.519 47.3066C170.211 47.4915 169.847 47.584 169.425 47.584C168.854 47.584 168.394 47.3991 168.042 47.0293C167.693 46.6569 167.519 46.1751 167.519 45.584C167.519 44.9251 167.707 44.3965 168.085 43.998C168.463 43.597 168.966 43.3965 169.597 43.3965C169.948 43.3965 170.258 43.4616 170.526 43.5918V44.248C170.229 44.0397 169.912 43.9355 169.573 43.9355C169.164 43.9355 168.828 44.0827 168.565 44.377C168.305 44.6686 168.175 45.0527 168.175 45.5293C168.175 45.998 168.297 46.3678 168.542 46.6387C168.789 46.9095 169.12 47.0449 169.534 47.0449C169.883 47.0449 170.211 46.929 170.519 46.6973V47.3066ZM173.343 47.4512C173.192 47.5345 172.993 47.5762 172.745 47.5762C172.045 47.5762 171.694 47.1855 171.694 46.4043V44.0371H171.007V43.4902H171.694V42.5137L172.335 42.3066V43.4902H173.343V44.0371H172.335V46.291C172.335 46.5592 172.381 46.7507 172.472 46.8652C172.563 46.9798 172.714 47.0371 172.925 47.0371C173.086 47.0371 173.226 46.9928 173.343 46.9043V47.4512ZM179.257 47.4902H178.616V46.8652H178.601C178.322 47.3444 177.912 47.584 177.37 47.584C176.972 47.584 176.659 47.4785 176.433 47.2676C176.209 47.0566 176.097 46.7767 176.097 46.4277C176.097 45.6803 176.537 45.2454 177.417 45.123L178.616 44.9551C178.616 44.2754 178.341 43.9355 177.792 43.9355C177.31 43.9355 176.875 44.0996 176.487 44.4277V43.7715C176.881 43.5215 177.334 43.3965 177.847 43.3965C178.787 43.3965 179.257 43.8939 179.257 44.8887V47.4902ZM178.616 45.4668L177.651 45.5996C177.354 45.6413 177.131 45.7155 176.979 45.8223C176.828 45.9264 176.753 46.1126 176.753 46.3809C176.753 46.5762 176.822 46.7363 176.96 46.8613C177.101 46.9837 177.287 47.0449 177.519 47.0449C177.836 47.0449 178.098 46.9342 178.304 46.7129C178.512 46.4889 178.616 46.2064 178.616 45.8652V45.4668ZM181.104 47.4902H180.464V41.5684H181.104V47.4902ZM183.042 47.4902H182.401V41.5684H183.042V47.4902ZM91.8232 57.9121H91.8076V60.3301H91.167V54.4902H91.8076V55.1934H91.8232C92.1383 54.6621 92.5993 54.3965 93.2061 54.3965C93.7217 54.3965 94.124 54.5762 94.4131 54.9355C94.7021 55.2923 94.8467 55.7715 94.8467 56.373C94.8467 57.0423 94.6839 57.5788 94.3584 57.9824C94.0329 58.3835 93.5876 58.584 93.0225 58.584C92.5042 58.584 92.1045 58.36 91.8232 57.9121ZM91.8076 56.2988V56.8574C91.8076 57.1882 91.9144 57.4694 92.1279 57.7012C92.3441 57.9303 92.6175 58.0449 92.9482 58.0449C93.3363 58.0449 93.6396 57.8965 93.8584 57.5996C94.0798 57.3027 94.1904 56.89 94.1904 56.3613C94.1904 55.916 94.0876 55.5671 93.8818 55.3145C93.6761 55.0618 93.3975 54.9355 93.0459 54.9355C92.6735 54.9355 92.374 55.0658 92.1475 55.3262C91.9209 55.584 91.8076 55.9082 91.8076 56.2988ZM97.542 58.584C96.9508 58.584 96.4782 58.3978 96.124 58.0254C95.7725 57.6504 95.5967 57.1543 95.5967 56.5371C95.5967 55.8652 95.7803 55.3405 96.1475 54.9629C96.5146 54.5853 97.0107 54.3965 97.6357 54.3965C98.2321 54.3965 98.6969 54.5801 99.0303 54.9473C99.3662 55.3145 99.5342 55.8236 99.5342 56.4746C99.5342 57.1126 99.3532 57.6243 98.9912 58.0098C98.6318 58.3926 98.1488 58.584 97.542 58.584ZM97.5889 54.9355C97.1774 54.9355 96.8519 55.0762 96.6123 55.3574C96.3727 55.6361 96.2529 56.0215 96.2529 56.5137C96.2529 56.9876 96.374 57.3613 96.6162 57.6348C96.8584 57.9082 97.1826 58.0449 97.5889 58.0449C98.0029 58.0449 98.3206 57.9108 98.542 57.6426C98.766 57.3743 98.8779 56.9928 98.8779 56.498C98.8779 55.998 98.766 55.6126 98.542 55.3418C98.3206 55.071 98.0029 54.9355 97.5889 54.9355ZM105.597 54.4902L104.397 58.4902H103.733L102.909 55.627C102.878 55.5176 102.857 55.3939 102.847 55.2559H102.831C102.823 55.3496 102.796 55.4707 102.749 55.6191L101.854 58.4902H101.214L100.003 54.4902H100.675L101.503 57.498C101.529 57.5892 101.547 57.709 101.558 57.8574H101.589C101.597 57.7428 101.62 57.6204 101.659 57.4902L102.581 54.4902H103.167L103.995 57.5059C104.021 57.6022 104.041 57.722 104.054 57.8652H104.085C104.09 57.7637 104.112 57.6439 104.151 57.5059L104.964 54.4902H105.597ZM109.554 56.6504H106.729C106.74 57.0957 106.86 57.4395 107.089 57.6816C107.318 57.9238 107.633 58.0449 108.034 58.0449C108.485 58.0449 108.899 57.8965 109.276 57.5996V58.2012C108.925 58.4564 108.46 58.584 107.882 58.584C107.317 58.584 106.873 58.403 106.55 58.041C106.227 57.6764 106.065 57.1647 106.065 56.5059C106.065 55.8835 106.241 55.377 106.593 54.9863C106.947 54.5931 107.386 54.3965 107.909 54.3965C108.433 54.3965 108.838 54.5658 109.124 54.9043C109.41 55.2428 109.554 55.7129 109.554 56.3145V56.6504ZM108.897 56.1074C108.895 55.7376 108.805 55.4499 108.628 55.2441C108.453 55.0384 108.21 54.9355 107.897 54.9355C107.595 54.9355 107.339 55.0436 107.128 55.2598C106.917 55.4759 106.787 55.7585 106.737 56.1074H108.897ZM112.612 55.1387C112.5 55.0527 112.339 55.0098 112.128 55.0098C111.854 55.0098 111.625 55.1387 111.44 55.3965C111.258 55.6543 111.167 56.0059 111.167 56.4512V58.4902H110.526V54.4902H111.167V55.3145H111.183C111.274 55.0332 111.413 54.8145 111.601 54.6582C111.788 54.4993 111.998 54.4199 112.229 54.4199C112.396 54.4199 112.524 54.4382 112.612 54.4746V55.1387ZM115.831 53.4746C115.716 53.4746 115.619 53.4355 115.538 53.3574C115.457 53.2793 115.417 53.1803 115.417 53.0605C115.417 52.9408 115.457 52.8418 115.538 52.7637C115.619 52.6829 115.716 52.6426 115.831 52.6426C115.948 52.6426 116.047 52.6829 116.128 52.7637C116.211 52.8418 116.253 52.9408 116.253 53.0605C116.253 53.1751 116.211 53.2728 116.128 53.3535C116.047 53.4342 115.948 53.4746 115.831 53.4746ZM116.144 58.4902H115.503V54.4902H116.144V58.4902ZM120.761 58.4902H120.12V56.209C120.12 55.36 119.81 54.9355 119.19 54.9355C118.87 54.9355 118.604 55.0566 118.394 55.2988C118.185 55.5384 118.081 55.8418 118.081 56.209V58.4902H117.44V54.4902H118.081V55.1543H118.097C118.399 54.6491 118.836 54.3965 119.409 54.3965C119.847 54.3965 120.181 54.5384 120.413 54.8223C120.645 55.1035 120.761 55.5111 120.761 56.0449V58.4902ZM122.628 57.9121H122.612V60.3301H121.972V54.4902H122.612V55.1934H122.628C122.943 54.6621 123.404 54.3965 124.011 54.3965C124.526 54.3965 124.929 54.5762 125.218 54.9355C125.507 55.2923 125.651 55.7715 125.651 56.373C125.651 57.0423 125.489 57.5788 125.163 57.9824C124.838 58.3835 124.392 58.584 123.827 58.584C123.309 58.584 122.909 58.36 122.628 57.9121ZM122.612 56.2988V56.8574C122.612 57.1882 122.719 57.4694 122.933 57.7012C123.149 57.9303 123.422 58.0449 123.753 58.0449C124.141 58.0449 124.444 57.8965 124.663 57.5996C124.884 57.3027 124.995 56.89 124.995 56.3613C124.995 55.916 124.892 55.5671 124.687 55.3145C124.481 55.0618 124.202 54.9355 123.851 54.9355C123.478 54.9355 123.179 55.0658 122.952 55.3262C122.726 55.584 122.612 55.9082 122.612 56.2988ZM129.909 58.4902H129.269V57.8574H129.253C128.987 58.3418 128.576 58.584 128.019 58.584C127.065 58.584 126.589 58.0163 126.589 56.8809V54.4902H127.226V56.7793C127.226 57.623 127.549 58.0449 128.194 58.0449C128.507 58.0449 128.763 57.9303 128.964 57.7012C129.167 57.4694 129.269 57.1673 129.269 56.7949V54.4902H129.909V58.4902ZM133.062 58.4512C132.91 58.5345 132.711 58.5762 132.464 58.5762C131.763 58.5762 131.413 58.1855 131.413 57.4043V55.0371H130.726V54.4902H131.413V53.5137L132.054 53.3066V54.4902H133.062V55.0371H132.054V57.291C132.054 57.5592 132.099 57.7507 132.19 57.8652C132.282 57.9798 132.433 58.0371 132.644 58.0371C132.805 58.0371 132.944 57.9928 133.062 57.9043V58.4512ZM133.675 58.3457V57.6582C134.024 57.916 134.408 58.0449 134.827 58.0449C135.39 58.0449 135.671 57.8574 135.671 57.4824C135.671 57.3757 135.646 57.2858 135.597 57.2129C135.55 57.1374 135.485 57.071 135.401 57.0137C135.321 56.9564 135.224 56.9056 135.112 56.8613C135.003 56.8145 134.884 56.7663 134.757 56.7168C134.58 56.6465 134.424 56.5762 134.288 56.5059C134.155 56.4329 134.043 56.3522 133.952 56.2637C133.864 56.1725 133.796 56.0697 133.749 55.9551C133.705 55.8405 133.683 55.7064 133.683 55.5527C133.683 55.3652 133.726 55.1999 133.812 55.0566C133.897 54.9108 134.012 54.7897 134.155 54.6934C134.299 54.5944 134.461 54.5202 134.644 54.4707C134.828 54.4212 135.019 54.3965 135.214 54.3965C135.56 54.3965 135.87 54.4564 136.144 54.5762V55.2246C135.849 55.0319 135.511 54.9355 135.128 54.9355C135.008 54.9355 134.9 54.9499 134.804 54.9785C134.707 55.0046 134.624 55.0423 134.554 55.0918C134.486 55.1413 134.433 55.2012 134.394 55.2715C134.357 55.3392 134.339 55.4147 134.339 55.498C134.339 55.6022 134.357 55.6895 134.394 55.7598C134.433 55.8301 134.489 55.8926 134.562 55.9473C134.634 56.002 134.723 56.0514 134.827 56.0957C134.931 56.14 135.05 56.1882 135.183 56.2402C135.36 56.3079 135.519 56.3783 135.659 56.4512C135.8 56.5215 135.92 56.6022 136.019 56.6934C136.118 56.7819 136.193 56.8848 136.245 57.002C136.3 57.1191 136.327 57.2585 136.327 57.4199C136.327 57.6178 136.283 57.7897 136.194 57.9355C136.108 58.0814 135.993 58.2025 135.847 58.2988C135.701 58.3952 135.533 58.4668 135.343 58.5137C135.153 58.5605 134.953 58.584 134.745 58.584C134.334 58.584 133.977 58.5046 133.675 58.3457ZM141.366 58.4512C141.215 58.5345 141.016 58.5762 140.769 58.5762C140.068 58.5762 139.718 58.1855 139.718 57.4043V55.0371H139.03V54.4902H139.718V53.5137L140.358 53.3066V54.4902H141.366V55.0371H140.358V57.291C140.358 57.5592 140.404 57.7507 140.495 57.8652C140.586 57.9798 140.737 58.0371 140.948 58.0371C141.11 58.0371 141.249 57.9928 141.366 57.9043V58.4512ZM143.894 58.584C143.302 58.584 142.83 58.3978 142.476 58.0254C142.124 57.6504 141.948 57.1543 141.948 56.5371C141.948 55.8652 142.132 55.3405 142.499 54.9629C142.866 54.5853 143.362 54.3965 143.987 54.3965C144.584 54.3965 145.049 54.5801 145.382 54.9473C145.718 55.3145 145.886 55.8236 145.886 56.4746C145.886 57.1126 145.705 57.6243 145.343 58.0098C144.983 58.3926 144.5 58.584 143.894 58.584ZM143.94 54.9355C143.529 54.9355 143.203 55.0762 142.964 55.3574C142.724 55.6361 142.604 56.0215 142.604 56.5137C142.604 56.9876 142.726 57.3613 142.968 57.6348C143.21 57.9082 143.534 58.0449 143.94 58.0449C144.354 58.0449 144.672 57.9108 144.894 57.6426C145.118 57.3743 145.229 56.9928 145.229 56.498C145.229 55.998 145.118 55.6126 144.894 55.3418C144.672 55.071 144.354 54.9355 143.94 54.9355ZM149.761 57.9121H149.745V60.3301H149.104V54.4902H149.745V55.1934H149.761C150.076 54.6621 150.537 54.3965 151.144 54.3965C151.659 54.3965 152.062 54.5762 152.351 54.9355C152.64 55.2923 152.784 55.7715 152.784 56.373C152.784 57.0423 152.621 57.5788 152.296 57.9824C151.97 58.3835 151.525 58.584 150.96 58.584C150.442 58.584 150.042 58.36 149.761 57.9121ZM149.745 56.2988V56.8574C149.745 57.1882 149.852 57.4694 150.065 57.7012C150.282 57.9303 150.555 58.0449 150.886 58.0449C151.274 58.0449 151.577 57.8965 151.796 57.5996C152.017 57.3027 152.128 56.89 152.128 56.3613C152.128 55.916 152.025 55.5671 151.819 55.3145C151.614 55.0618 151.335 54.9355 150.983 54.9355C150.611 54.9355 150.312 55.0658 150.085 55.3262C149.858 55.584 149.745 55.9082 149.745 56.2988ZM155.479 58.584C154.888 58.584 154.416 58.3978 154.062 58.0254C153.71 57.6504 153.534 57.1543 153.534 56.5371C153.534 55.8652 153.718 55.3405 154.085 54.9629C154.452 54.5853 154.948 54.3965 155.573 54.3965C156.17 54.3965 156.634 54.5801 156.968 54.9473C157.304 55.3145 157.472 55.8236 157.472 56.4746C157.472 57.1126 157.291 57.6243 156.929 58.0098C156.569 58.3926 156.086 58.584 155.479 58.584ZM155.526 54.9355C155.115 54.9355 154.789 55.0762 154.55 55.3574C154.31 55.6361 154.19 56.0215 154.19 56.5137C154.19 56.9876 154.312 57.3613 154.554 57.6348C154.796 57.9082 155.12 58.0449 155.526 58.0449C155.94 58.0449 156.258 57.9108 156.479 57.6426C156.703 57.3743 156.815 56.9928 156.815 56.498C156.815 55.998 156.703 55.6126 156.479 55.3418C156.258 55.071 155.94 54.9355 155.526 54.9355ZM163.534 54.4902L162.335 58.4902H161.671L160.847 55.627C160.815 55.5176 160.795 55.3939 160.784 55.2559H160.769C160.761 55.3496 160.733 55.4707 160.687 55.6191L159.792 58.4902H159.151L157.94 54.4902H158.612L159.44 57.498C159.466 57.5892 159.485 57.709 159.495 57.8574H159.526C159.534 57.7428 159.558 57.6204 159.597 57.4902L160.519 54.4902H161.104L161.933 57.5059C161.959 57.6022 161.978 57.722 161.991 57.8652H162.022C162.028 57.7637 162.05 57.6439 162.089 57.5059L162.901 54.4902H163.534ZM167.491 56.6504H164.667C164.677 57.0957 164.797 57.4395 165.026 57.6816C165.256 57.9238 165.571 58.0449 165.972 58.0449C166.422 58.0449 166.836 57.8965 167.214 57.5996V58.2012C166.862 58.4564 166.397 58.584 165.819 58.584C165.254 58.584 164.81 58.403 164.487 58.041C164.164 57.6764 164.003 57.1647 164.003 56.5059C164.003 55.8835 164.179 55.377 164.53 54.9863C164.884 54.5931 165.323 54.3965 165.847 54.3965C166.37 54.3965 166.775 54.5658 167.062 54.9043C167.348 55.2428 167.491 55.7129 167.491 56.3145V56.6504ZM166.835 56.1074C166.832 55.7376 166.743 55.4499 166.565 55.2441C166.391 55.0384 166.147 54.9355 165.835 54.9355C165.533 54.9355 165.276 55.0436 165.065 55.2598C164.854 55.4759 164.724 55.7585 164.675 56.1074H166.835ZM170.55 55.1387C170.438 55.0527 170.276 55.0098 170.065 55.0098C169.792 55.0098 169.563 55.1387 169.378 55.3965C169.196 55.6543 169.104 56.0059 169.104 56.4512V58.4902H168.464V54.4902H169.104V55.3145H169.12C169.211 55.0332 169.351 54.8145 169.538 54.6582C169.726 54.4993 169.935 54.4199 170.167 54.4199C170.334 54.4199 170.461 54.4382 170.55 54.4746V55.1387ZM175.112 58.584C174.521 58.584 174.049 58.3978 173.694 58.0254C173.343 57.6504 173.167 57.1543 173.167 56.5371C173.167 55.8652 173.351 55.3405 173.718 54.9629C174.085 54.5853 174.581 54.3965 175.206 54.3965C175.802 54.3965 176.267 54.5801 176.601 54.9473C176.937 55.3145 177.104 55.8236 177.104 56.4746C177.104 57.1126 176.924 57.6243 176.562 58.0098C176.202 58.3926 175.719 58.584 175.112 58.584ZM175.159 54.9355C174.748 54.9355 174.422 55.0762 174.183 55.3574C173.943 55.6361 173.823 56.0215 173.823 56.5137C173.823 56.9876 173.944 57.3613 174.187 57.6348C174.429 57.9082 174.753 58.0449 175.159 58.0449C175.573 58.0449 175.891 57.9108 176.112 57.6426C176.336 57.3743 176.448 56.9928 176.448 56.498C176.448 55.998 176.336 55.6126 176.112 55.3418C175.891 55.071 175.573 54.9355 175.159 54.9355ZM180.104 53.1309C179.979 53.0605 179.838 53.0254 179.679 53.0254C179.231 53.0254 179.007 53.3079 179.007 53.873V54.4902H179.944V55.0371H179.007V58.4902H178.37V55.0371H177.687V54.4902H178.37V53.8418C178.37 53.4225 178.491 53.0918 178.733 52.8496C178.976 52.6048 179.278 52.4824 179.64 52.4824C179.835 52.4824 179.99 52.5059 180.104 52.5527V53.1309ZM182.612 53.1309C182.487 53.0605 182.345 53.0254 182.187 53.0254C181.739 53.0254 181.515 53.3079 181.515 53.873V54.4902H182.452V55.0371H181.515V58.4902H180.878V55.0371H180.194V54.4902H180.878V53.8418C180.878 53.4225 180.999 53.0918 181.241 52.8496C181.483 52.6048 181.785 52.4824 182.147 52.4824C182.343 52.4824 182.498 52.5059 182.612 52.5527V53.1309ZM187.194 58.4512C187.043 58.5345 186.844 58.5762 186.597 58.5762C185.896 58.5762 185.546 58.1855 185.546 57.4043V55.0371H184.858V54.4902H185.546V53.5137L186.187 53.3066V54.4902H187.194V55.0371H186.187V57.291C186.187 57.5592 186.232 57.7507 186.323 57.8652C186.414 57.9798 186.565 58.0371 186.776 58.0371C186.938 58.0371 187.077 57.9928 187.194 57.9043V58.4512ZM191.37 58.4902H190.729V56.1855C190.729 55.3522 190.42 54.9355 189.8 54.9355C189.487 54.9355 189.224 55.0566 189.011 55.2988C188.797 55.5384 188.69 55.847 188.69 56.2246V58.4902H188.05V52.5684H188.69V55.1543H188.706C189.013 54.6491 189.451 54.3965 190.019 54.3965C190.92 54.3965 191.37 54.9395 191.37 56.0254V58.4902ZM192.909 53.4746C192.795 53.4746 192.697 53.4355 192.616 53.3574C192.535 53.2793 192.495 53.1803 192.495 53.0605C192.495 52.9408 192.535 52.8418 192.616 52.7637C192.697 52.6829 192.795 52.6426 192.909 52.6426C193.026 52.6426 193.125 52.6829 193.206 52.7637C193.289 52.8418 193.331 52.9408 193.331 53.0605C193.331 53.1751 193.289 53.2728 193.206 53.3535C193.125 53.4342 193.026 53.4746 192.909 53.4746ZM193.222 58.4902H192.581V54.4902H193.222V58.4902ZM194.276 58.3457V57.6582C194.625 57.916 195.009 58.0449 195.429 58.0449C195.991 58.0449 196.272 57.8574 196.272 57.4824C196.272 57.3757 196.248 57.2858 196.198 57.2129C196.151 57.1374 196.086 57.071 196.003 57.0137C195.922 56.9564 195.826 56.9056 195.714 56.8613C195.604 56.8145 195.486 56.7663 195.358 56.7168C195.181 56.6465 195.025 56.5762 194.89 56.5059C194.757 56.4329 194.645 56.3522 194.554 56.2637C194.465 56.1725 194.397 56.0697 194.351 55.9551C194.306 55.8405 194.284 55.7064 194.284 55.5527C194.284 55.3652 194.327 55.1999 194.413 55.0566C194.499 54.9108 194.614 54.7897 194.757 54.6934C194.9 54.5944 195.063 54.5202 195.245 54.4707C195.43 54.4212 195.62 54.3965 195.815 54.3965C196.162 54.3965 196.472 54.4564 196.745 54.5762V55.2246C196.451 55.0319 196.112 54.9355 195.729 54.9355C195.61 54.9355 195.502 54.9499 195.405 54.9785C195.309 55.0046 195.226 55.0423 195.155 55.0918C195.088 55.1413 195.034 55.2012 194.995 55.2715C194.959 55.3392 194.94 55.4147 194.94 55.498C194.94 55.6022 194.959 55.6895 194.995 55.7598C195.034 55.8301 195.09 55.8926 195.163 55.9473C195.236 56.002 195.325 56.0514 195.429 56.0957C195.533 56.14 195.651 56.1882 195.784 56.2402C195.961 56.3079 196.12 56.3783 196.261 56.4512C196.401 56.5215 196.521 56.6022 196.62 56.6934C196.719 56.7819 196.795 56.8848 196.847 57.002C196.901 57.1191 196.929 57.2585 196.929 57.4199C196.929 57.6178 196.884 57.7897 196.796 57.9355C196.71 58.0814 196.594 58.2025 196.448 58.2988C196.302 58.3952 196.134 58.4668 195.944 58.5137C195.754 58.5605 195.555 58.584 195.347 58.584C194.935 58.584 194.578 58.5046 194.276 58.3457ZM94.5811 69.4902H93.9404V68.8105H93.9248C93.6279 69.3262 93.1696 69.584 92.5498 69.584C92.0472 69.584 91.6449 69.4056 91.3428 69.0488C91.0433 68.6895 90.8936 68.2012 90.8936 67.584C90.8936 66.9225 91.0602 66.3926 91.3936 65.9941C91.7269 65.5957 92.1709 65.3965 92.7256 65.3965C93.2751 65.3965 93.6748 65.6126 93.9248 66.0449H93.9404V63.5684H94.5811V69.4902ZM93.9404 67.6816V67.0918C93.9404 66.7689 93.8337 66.4954 93.6201 66.2715C93.4066 66.0475 93.1357 65.9355 92.8076 65.9355C92.417 65.9355 92.1097 66.0788 91.8857 66.3652C91.6618 66.6517 91.5498 67.0475 91.5498 67.5527C91.5498 68.0137 91.6566 68.3783 91.8701 68.6465C92.0863 68.9121 92.3753 69.0449 92.7373 69.0449C93.0941 69.0449 93.3831 68.916 93.6045 68.6582C93.8285 68.4004 93.9404 68.0749 93.9404 67.6816ZM99.0928 67.6504H96.2686C96.279 68.0957 96.3988 68.4395 96.6279 68.6816C96.8571 68.9238 97.1722 69.0449 97.5732 69.0449C98.0238 69.0449 98.4378 68.8965 98.8154 68.5996V69.2012C98.4639 69.4564 97.999 69.584 97.4209 69.584C96.8558 69.584 96.4118 69.403 96.0889 69.041C95.766 68.6764 95.6045 68.1647 95.6045 67.5059C95.6045 66.8835 95.7803 66.377 96.1318 65.9863C96.486 65.5931 96.9248 65.3965 97.4482 65.3965C97.9717 65.3965 98.3766 65.5658 98.6631 65.9043C98.9495 66.2428 99.0928 66.7129 99.0928 67.3145V67.6504ZM98.4365 67.1074C98.4339 66.7376 98.3441 66.4499 98.167 66.2441C97.9925 66.0384 97.749 65.9355 97.4365 65.9355C97.1344 65.9355 96.8779 66.0436 96.667 66.2598C96.4561 66.4759 96.3258 66.7585 96.2764 67.1074H98.4365ZM103.21 65.4902L101.616 69.4902H100.987L99.4717 65.4902H100.175L101.19 68.3965C101.266 68.61 101.313 68.7962 101.331 68.9551H101.347C101.373 68.7546 101.414 68.5736 101.472 68.4121L102.534 65.4902H103.21ZM104.229 64.4746C104.115 64.4746 104.017 64.4355 103.937 64.3574C103.856 64.2793 103.815 64.1803 103.815 64.0605C103.815 63.9408 103.856 63.8418 103.937 63.7637C104.017 63.6829 104.115 63.6426 104.229 63.6426C104.347 63.6426 104.446 63.6829 104.526 63.7637C104.61 63.8418 104.651 63.9408 104.651 64.0605C104.651 64.1751 104.61 64.2728 104.526 64.3535C104.446 64.4342 104.347 64.4746 104.229 64.4746ZM104.542 69.4902H103.901V65.4902H104.542V69.4902ZM108.565 69.3066C108.258 69.4915 107.894 69.584 107.472 69.584C106.901 69.584 106.44 69.3991 106.089 69.0293C105.74 68.6569 105.565 68.1751 105.565 67.584C105.565 66.9251 105.754 66.3965 106.132 65.998C106.509 65.597 107.013 65.3965 107.644 65.3965C107.995 65.3965 108.305 65.4616 108.573 65.5918V66.248C108.276 66.0397 107.959 65.9355 107.62 65.9355C107.211 65.9355 106.875 66.0827 106.612 66.377C106.352 66.6686 106.222 67.0527 106.222 67.5293C106.222 67.998 106.344 68.3678 106.589 68.6387C106.836 68.9095 107.167 69.0449 107.581 69.0449C107.93 69.0449 108.258 68.929 108.565 68.6973V69.3066ZM112.749 67.6504H109.925C109.935 68.0957 110.055 68.4395 110.284 68.6816C110.513 68.9238 110.828 69.0449 111.229 69.0449C111.68 69.0449 112.094 68.8965 112.472 68.5996V69.2012C112.12 69.4564 111.655 69.584 111.077 69.584C110.512 69.584 110.068 69.403 109.745 69.041C109.422 68.6764 109.261 68.1647 109.261 67.5059C109.261 66.8835 109.437 66.377 109.788 65.9863C110.142 65.5931 110.581 65.3965 111.104 65.3965C111.628 65.3965 112.033 65.5658 112.319 65.9043C112.606 66.2428 112.749 66.7129 112.749 67.3145V67.6504ZM112.093 67.1074C112.09 66.7376 112 66.4499 111.823 66.2441C111.649 66.0384 111.405 65.9355 111.093 65.9355C110.791 65.9355 110.534 66.0436 110.323 66.2598C110.112 66.4759 109.982 66.7585 109.933 67.1074H112.093Z" fill="black"/>
<path d="M110.119 6.56836L106.955 17.7715H105.416L103.111 9.58398C103.012 9.23503 102.952 8.85482 102.932 8.44336H102.9C102.869 8.82878 102.801 9.20378 102.697 9.56836L100.377 17.7715H98.8535L95.5723 6.56836H97.0176L99.4004 15.1621C99.4993 15.5215 99.5618 15.8965 99.5879 16.2871H99.627C99.653 16.0111 99.7337 15.6361 99.8691 15.1621L102.346 6.56836H103.604L105.979 15.2246C106.062 15.5215 106.124 15.8704 106.166 16.2715H106.197C106.218 16.0007 106.288 15.6413 106.408 15.1934L108.697 6.56836H110.119ZM116.721 17.7715H115.439V16.5215H115.408C114.851 17.4798 114.031 17.959 112.947 17.959C112.15 17.959 111.525 17.748 111.072 17.3262C110.624 16.9043 110.4 16.3444 110.4 15.6465C110.4 14.1517 111.281 13.2819 113.041 13.0371L115.439 12.7012C115.439 11.3418 114.89 10.6621 113.791 10.6621C112.827 10.6621 111.958 10.9902 111.182 11.6465V10.334C111.968 9.83398 112.874 9.58398 113.9 9.58398C115.781 9.58398 116.721 10.5788 116.721 12.5684V17.7715ZM115.439 13.7246L113.51 13.9902C112.916 14.0736 112.468 14.222 112.166 14.4355C111.864 14.6439 111.713 15.0163 111.713 15.5527C111.713 15.9434 111.851 16.2637 112.127 16.5137C112.408 16.7585 112.781 16.8809 113.244 16.8809C113.88 16.8809 114.403 16.6595 114.814 16.2168C115.231 15.7689 115.439 15.2038 115.439 14.5215V13.7246ZM123.307 11.0684C123.083 10.8965 122.76 10.8105 122.338 10.8105C121.791 10.8105 121.333 11.0684 120.963 11.584C120.598 12.0996 120.416 12.8027 120.416 13.6934V17.7715H119.135V9.77148H120.416V11.4199H120.447C120.63 10.8574 120.908 10.4199 121.283 10.1074C121.658 9.78971 122.077 9.63086 122.541 9.63086C122.874 9.63086 123.13 9.66732 123.307 9.74023V11.0684ZM131.338 17.7715H130.057V13.209C130.057 11.5111 129.437 10.6621 128.197 10.6621C127.557 10.6621 127.025 10.9043 126.604 11.3887C126.187 11.8678 125.979 12.4746 125.979 13.209V17.7715H124.697V9.77148H125.979V11.0996H126.01C126.614 10.0892 127.489 9.58398 128.635 9.58398C129.51 9.58398 130.179 9.86784 130.643 10.4355C131.106 10.998 131.338 11.8132 131.338 12.8809V17.7715ZM134.416 7.74023C134.187 7.74023 133.992 7.66211 133.83 7.50586C133.669 7.34961 133.588 7.15169 133.588 6.91211C133.588 6.67253 133.669 6.47461 133.83 6.31836C133.992 6.1569 134.187 6.07617 134.416 6.07617C134.65 6.07617 134.848 6.1569 135.01 6.31836C135.176 6.47461 135.26 6.67253 135.26 6.91211C135.26 7.14128 135.176 7.33659 135.01 7.49805C134.848 7.65951 134.65 7.74023 134.416 7.74023ZM135.041 17.7715H133.76V9.77148H135.041V17.7715ZM144.275 17.7715H142.994V13.209C142.994 11.5111 142.374 10.6621 141.135 10.6621C140.494 10.6621 139.963 10.9043 139.541 11.3887C139.124 11.8678 138.916 12.4746 138.916 13.209V17.7715H137.635V9.77148H138.916V11.0996H138.947C139.551 10.0892 140.426 9.58398 141.572 9.58398C142.447 9.58398 143.117 9.86784 143.58 10.4355C144.044 10.998 144.275 11.8132 144.275 12.8809V17.7715ZM153.525 17.1309C153.525 20.0684 152.119 21.5371 149.307 21.5371C148.317 21.5371 147.452 21.3496 146.713 20.9746V19.6934C147.614 20.1934 148.473 20.4434 149.291 20.4434C151.26 20.4434 152.244 19.3965 152.244 17.3027V16.4277H152.213C151.604 17.4486 150.687 17.959 149.463 17.959C148.468 17.959 147.666 17.6048 147.057 16.8965C146.452 16.1829 146.15 15.2272 146.15 14.0293C146.15 12.6699 146.476 11.5892 147.127 10.7871C147.783 9.98503 148.679 9.58398 149.814 9.58398C150.893 9.58398 151.692 10.0163 152.213 10.8809H152.244V9.77148H153.525V17.1309ZM152.244 14.1543V12.9746C152.244 12.3392 152.028 11.7949 151.596 11.3418C151.169 10.8887 150.635 10.6621 149.994 10.6621C149.202 10.6621 148.583 10.9512 148.135 11.5293C147.687 12.1022 147.463 12.9069 147.463 13.9434C147.463 14.834 147.676 15.5475 148.104 16.084C148.536 16.6152 149.106 16.8809 149.814 16.8809C150.533 16.8809 151.117 16.6257 151.564 16.1152C152.018 15.6048 152.244 14.9512 152.244 14.1543Z" fill="white"/>
<defs>
<clipPath id="clip0_539_26">
<rect width="59.4313" height="52.0313" fill="white" transform="translate(13.2974 12.0215)"/>
</clipPath>
</defs>
</svg>
