<svg width="10" height="92" viewBox="0 0 10 92" fill="none" xmlns="http://www.w3.org/2000/svg">
<path d="M4.92408 0L9.18846 2.46204V7.38612L4.92408 9.84816L0.659701 7.38612V2.46204L4.92408 0Z" fill="black"/>
<path d="M4.92408 16.4136L9.18846 18.8756V23.7997L4.92408 26.2618L0.659701 23.7997V18.8756L4.92408 16.4136Z" fill="black"/>
<path d="M4.92408 32.8272L9.18846 35.2892V40.2133L4.92408 42.6754L0.659701 40.2133V35.2892L4.92408 32.8272Z" fill="black"/>
<path d="M4.92408 49.2408L9.18846 51.7028V56.6269L4.92408 59.0889L0.659701 56.6269V51.7028L4.92408 49.2408Z" fill="black"/>
<path d="M4.92408 65.6544L9.18846 68.1164V73.0405L4.92408 75.5025L0.659701 73.0405V68.1164L4.92408 65.6544Z" fill="black"/>
<path d="M4.92408 82.068L9.18846 84.53V89.4541L4.92408 91.9161L0.659701 89.4541V84.53L4.92408 82.068Z" fill="black"/>
</svg>
