<svg width="486" height="312" viewBox="0 0 486 312" fill="none" xmlns="http://www.w3.org/2000/svg">
<path d="M36.4498 310.94C36.4498 310.94 -22.9769 253.604 14.8303 186.148C52.6375 118.692 103.414 152.616 100.957 74.1036C98.4998 -4.40837 217.735 -11.1547 255.688 11.6112C293.64 34.377 293.414 61.7945 371.763 52.7224C450.114 43.6502 465.081 119.273 444.697 157.814C415.777 212.497 524.965 203.477 456.164 310.938H36.4498V310.94Z" fill="#EBF3FA"/>
<path opacity="0.3" d="M297.415 176.026C297.415 176.026 310.042 122.827 352.64 116.979C352.64 116.979 360.928 115.966 363.687 125.039C366.447 134.111 349.968 134.176 339.783 137.825C329.598 141.473 305.85 156.942 297.415 176.026Z" fill="#AEC3FF"/>
<path opacity="0.3" d="M296.447 166.071C296.447 166.071 292.019 122.004 323.104 106.366C323.104 106.366 329.185 103.42 333.704 109.648C338.223 115.876 325.615 120.242 318.779 125.705C311.943 131.168 297.85 149.241 296.447 166.071Z" fill="#AEC3FF"/>
<path d="M485.05 310.162H-3.47396C-3.78606 310.162 -4.03906 310.414 -4.03906 310.724V310.938C-4.03906 311.248 -3.78606 311.5 -3.47396 311.5H485.05C485.363 311.5 485.616 311.248 485.616 310.938V310.724C485.616 310.414 485.363 310.162 485.05 310.162Z" fill="#263238" fill-opacity="0.8"/>
<path d="M66.6157 270.93C60.0386 256.033 83.894 243.236 83.894 243.236C83.894 243.236 115.328 253.349 119.841 250.576C124.355 247.803 94.6631 236.713 94.6631 236.713C101.989 229.587 130.079 223.059 130.079 223.059C130.079 223.059 149.027 249.05 152.716 245.257C156.403 241.464 134.757 223.095 134.757 223.095C144.303 219.232 158.703 222.403 158.703 222.403C179.438 229.741 168.888 255.831 168.888 255.831C168.888 255.831 175.651 264.698 189.083 270.323C189.083 270.323 191.784 271.185 195.545 273.314L193.449 274.991C192.825 274.57 192.198 274.182 191.57 273.83C191.566 273.826 191.562 273.825 191.559 273.825C191.549 273.819 191.54 273.815 191.53 273.81C191.126 273.603 190.548 273.31 189.839 272.957C189.839 272.957 189.839 272.957 189.837 272.957C189.837 272.957 189.835 272.957 189.833 272.957C188.183 272.224 187.004 271.649 186.193 271.204C186.191 271.204 186.187 271.202 186.185 271.2C181.098 268.825 174.203 265.942 171.493 266.347C171.493 266.347 171.463 265.838 171.168 265.032C171.272 265.451 171.379 265.889 171.493 266.347C174.097 276.862 157.189 292.499 145.543 298.463C133.897 304.428 135.984 298.137 137.679 289.28C139.376 280.424 151.623 272.594 153.51 268.143C155.396 263.693 149.081 265.808 142.831 271.653C136.581 277.497 138.617 286.787 128.677 296.425C118.74 306.063 94.2303 292.502 94.2303 292.502C103.52 288.845 113.544 274.099 111.992 271.142C110.441 268.185 90.9134 284.238 87.2184 285.936C83.5235 287.635 73.1872 285.829 66.612 270.933L66.6157 270.93Z" fill="#CDE0FB"/>
<path d="M366.955 288.839C376.548 277.587 359.151 260.326 359.151 260.326C359.151 260.326 329.2 261.027 325.999 257.455C322.799 253.884 351.489 251.885 351.489 251.885C346.977 243.809 324.267 230.906 324.267 230.906C324.267 230.906 301.034 248.618 298.815 244.372C296.598 240.128 320.193 229.733 320.193 229.733C312.903 223.921 299.562 222.97 299.562 222.97C279.63 224.013 282.006 249.4 282.006 249.4C282.006 249.4 273.82 255.364 260.683 256.798C260.683 256.798 258.111 256.852 254.287 257.735L255.672 259.732C256.325 259.526 256.971 259.349 257.608 259.206C257.612 259.204 257.615 259.202 257.619 259.204C257.629 259.202 257.638 259.201 257.647 259.199C258.054 259.124 258.63 259.016 259.339 258.894C259.339 258.894 259.339 258.894 259.341 258.894C259.341 258.894 259.343 258.894 259.345 258.894C260.97 258.682 262.144 258.487 262.966 258.308C262.968 258.308 262.972 258.308 262.973 258.306C268.014 257.551 274.756 256.818 277.005 257.871C277.005 257.871 277.165 257.435 277.63 256.811C277.432 257.149 277.222 257.5 277.005 257.871C272.004 266.338 282.624 284.277 291.193 292.457C299.76 300.637 299.586 294.633 300.418 286.5C301.249 278.367 292.644 268.412 292.164 264.057C291.684 259.704 296.621 263.166 300.529 269.855C304.44 276.541 300.251 284.091 306.379 295.023C312.506 305.955 337.335 300.477 337.335 300.477C330.213 294.909 325.343 279.515 327.462 277.343C329.58 275.171 342.37 294.148 345.139 296.573C347.907 299 357.359 300.09 366.953 288.839H366.955Z" fill="#CDE0FB"/>
<path opacity="0.5" d="M128.274 70.8681C138.162 54.3752 166.89 68.3826 166.89 68.3826C166.89 68.3826 178.667 105.338 184.442 107.749C190.218 110.157 180.581 74.1972 180.581 74.1972C192.49 76.3088 218.061 98.6595 218.061 98.6595C218.061 98.6595 205.929 134.576 212.123 135.499C218.316 136.421 221.233 103.151 221.233 103.151C231.512 109.62 238.32 125.547 238.32 125.547C245.443 150.383 212.992 158.193 212.992 158.193C212.992 158.193 209.057 170.731 212.83 187.416C212.83 187.416 213.849 190.587 214.368 195.639L211.308 194.788C211.288 193.903 211.235 193.039 211.142 192.197C211.142 192.192 211.142 192.188 211.14 192.182C211.14 192.171 211.136 192.158 211.136 192.146C211.059 191.619 210.945 190.865 210.8 189.947C210.8 189.947 210.8 189.945 210.8 189.943C210.8 189.941 210.8 189.941 210.8 189.939C210.379 187.859 210.125 186.341 209.999 185.259C209.999 185.255 209.999 185.252 209.999 185.25C208.806 178.761 206.867 170.2 204.614 167.891C204.614 167.891 205.087 167.511 205.661 166.679C205.327 167.066 204.979 167.468 204.614 167.891C196.236 177.589 169.53 172.161 155.779 165.127C142.029 158.093 149.54 155.773 159.264 151.321C168.988 146.868 184.953 153.198 190.549 151.948C196.145 150.699 189.77 146.119 179.836 144.156C169.903 142.192 162.316 150.507 146.189 147.624C130.06 144.74 126.363 112.036 126.363 112.036C136.269 118.401 157.393 117.863 159.188 114.354C160.984 110.845 132.077 103.202 127.903 100.837C123.728 98.4716 118.387 87.363 128.276 70.87L128.274 70.8681Z" fill="#CDE0FB"/>
<path d="M238.686 101.057C238.686 99.9919 238.876 99.0056 239.26 98.1019C239.642 97.1983 240.184 96.4149 240.884 95.7517C241.583 95.0904 242.422 94.5738 243.405 94.2018C244.386 93.8317 245.493 93.6438 246.726 93.6438C247.958 93.6438 249.073 93.8298 250.071 94.2018C251.069 94.5738 251.919 95.0904 252.617 95.7517C253.316 96.4149 253.856 97.1983 254.24 98.1019C254.622 99.0056 254.815 99.9919 254.815 101.057C254.815 102.122 254.624 103.101 254.24 103.988C253.856 104.876 253.316 105.652 252.617 106.314C251.917 106.977 251.069 107.493 250.071 107.864C249.073 108.234 247.956 108.422 246.726 108.422C245.495 108.422 244.386 108.236 243.405 107.864C242.422 107.492 241.583 106.975 240.884 106.314C240.184 105.652 239.644 104.876 239.26 103.988C238.876 103.099 238.686 102.122 238.686 101.057ZM252.717 87.2694H240.732L239.035 46.5659H254.414L252.717 87.2694Z" fill="#90CAF9"/>
<path d="M202.502 61.2667C202.502 60.4495 202.649 59.6924 202.942 58.9992C203.235 58.3059 203.651 57.7048 204.188 57.1956C204.725 56.6884 205.369 56.292 206.123 56.0064C206.877 55.7227 207.726 55.5781 208.671 55.5781C209.616 55.5781 210.472 55.7209 211.239 56.0064C212.007 56.292 212.657 56.6884 213.194 57.1956C213.73 57.7048 214.144 58.3059 214.439 58.9992C214.732 59.6943 214.879 60.4495 214.879 61.2667C214.879 62.084 214.732 62.8354 214.439 63.5155C214.144 64.1975 213.73 64.793 213.194 65.3003C212.657 65.8094 212.005 66.2058 211.239 66.4895C210.472 66.7731 209.616 66.9178 208.671 66.9178C207.726 66.9178 206.875 66.775 206.123 66.4895C205.369 66.2039 204.725 65.8075 204.188 65.3003C203.651 64.793 203.235 64.1975 202.942 63.5155C202.647 62.8336 202.502 62.084 202.502 61.2667ZM213.271 50.686H204.073L202.77 19.4473H214.573L213.271 50.686Z" fill="#AEC3FF"/>
<path d="M381.175 114.05C381.175 113.233 381.322 112.476 381.615 111.783C381.908 111.09 382.324 110.488 382.861 109.979C383.397 109.472 384.042 109.076 384.796 108.79C385.55 108.506 386.399 108.362 387.344 108.362C388.289 108.362 389.145 108.505 389.91 108.79C390.678 109.076 391.328 109.472 391.865 109.979C392.401 110.488 392.815 111.09 393.11 111.783C393.403 112.478 393.55 113.233 393.55 114.05C393.55 114.868 393.403 115.619 393.11 116.299C392.815 116.981 392.401 117.577 391.865 118.084C391.328 118.593 390.676 118.989 389.91 119.273C389.145 119.559 388.287 119.701 387.344 119.701C386.401 119.701 385.548 119.559 384.796 119.273C384.042 118.988 383.397 118.591 382.861 118.084C382.324 117.577 381.908 116.981 381.615 116.299C381.32 115.617 381.175 114.868 381.175 114.05ZM391.944 103.47H382.745L381.443 72.231H393.246L391.944 103.47Z" fill="#AEC3FF"/>
<path d="M360.945 193.548C359.022 197.093 356.628 200.672 354.173 203.586C351.602 206.639 348.972 208.957 346.751 209.743L346.734 209.748C346.618 209.788 346.503 209.825 346.39 209.855C346.384 209.859 346.378 209.859 346.373 209.859C345.921 209.987 345.492 210.045 345.082 210.026C337.794 209.701 330.113 194.163 330.113 194.163C330.113 194.163 330.314 192.32 331.731 191.02C332.967 189.885 333.92 189.588 333.92 189.588C333.92 189.588 341.769 197.599 343.685 198.176C344.891 198.536 346.477 192.941 348.749 185.917C351.022 178.891 359.004 177.159 359.004 177.159C359.004 177.159 367.081 182.241 360.946 193.55L360.945 193.548Z" fill="#2B478B"/>
<path d="M354.172 203.586C351.602 206.639 348.971 208.957 346.75 209.743L346.733 209.748L346.389 209.855L346.37 209.861C346.449 209.807 348.827 208.582 349.199 206.307C349.581 203.983 347.107 202.081 353.323 198.487C356.945 196.393 354.172 203.584 354.172 203.584V203.586Z" fill="#2B478B"/>
<path d="M348.484 310.162H365.564C366.787 309.337 365.233 301.272 365.233 301.272C365.233 301.272 360.573 299.513 359.768 303.088C358.961 306.662 353.829 307.798 351.115 308.234C349.257 308.535 348.67 309.549 348.484 310.162Z" fill="#24406D"/>
<path d="M374.529 226.564C374.529 226.564 373.991 236.469 373.318 247.945C372.832 256.174 372.28 265.212 371.808 271.981C371.746 272.879 371.681 273.738 371.623 274.55C371.606 274.801 371.587 275.051 371.568 275.301C370.345 290.479 366.255 303.776 366.255 303.776C361.453 304.783 359.285 302.942 359.285 302.942C359.285 302.942 355.976 264.395 354.751 248.849C353.849 237.404 353.08 220.742 353.08 220.742L374.531 226.564H374.529Z" fill="#AEC3FF"/>
<path d="M373.316 247.946C372.83 256.174 372.278 265.213 371.806 271.982C368.667 264.621 362.252 235.93 362.252 235.93L373.316 247.946Z" fill="#AEC3FF"/>
<path d="M373.813 310.162H390.893C392.116 309.337 390.562 301.272 390.562 301.272C390.562 301.272 385.902 299.513 385.097 303.088C384.29 306.662 379.158 307.798 376.444 308.234C374.586 308.535 373.999 309.549 373.813 310.162Z" fill="#24406D"/>
<path d="M357.718 224.596C357.718 224.596 369.916 254.775 373.815 266.214C376.593 274.362 384.425 302.95 384.425 302.95C384.425 302.95 387.831 303.979 390.694 301.988C390.694 301.988 393.609 272.782 387.721 264.548C384.599 260.178 386.944 219.13 374.283 218.779C361.621 218.428 357.72 224.596 357.72 224.596H357.718Z" fill="#AEC3FF"/>
<path d="M382.692 214.889C382.641 219.18 382.594 222.33 382.605 223.127C382.64 225.723 380.969 226.309 379.247 226.706C379.247 226.706 377.656 227.046 375.648 227.384C373.683 227.711 371.313 228.034 369.638 228.022C361.075 227.955 353.908 225.449 353.908 225.449C352.296 225.449 351.563 222.971 351.298 219.512C351.118 217.171 351.846 193.821 351.937 187.99C351.999 183.808 354.309 179.943 354.955 179.38C360.935 174.123 378.582 174.786 381.757 178.412C382.543 179.308 382.772 187.954 382.798 197.422C382.815 203.519 382.753 209.955 382.694 214.889H382.692Z" fill="#2B478B"/>
<path d="M372.097 176.33C369.844 178.757 362.279 178.397 362.502 176.28C362.532 176.018 362.581 174.468 362.606 174.228C362.625 174.035 362.644 173.847 362.659 173.668C362.71 173.146 362.751 172.686 362.785 172.285C362.886 171.124 362.92 170.495 362.92 170.495H362.927C363.144 170.435 368.009 169.062 370.428 168.492C371.241 168.301 371.78 168.201 371.77 168.271C371.028 173.674 372.834 175.536 372.095 176.332L372.097 176.33Z" fill="#FFB27D"/>
<path d="M370.687 170.085C370.687 170.085 368.656 172.137 362.787 172.285C362.887 171.124 362.921 170.495 362.921 170.495H362.929C363.146 170.435 368.011 169.061 370.43 168.492C370.855 168.667 370.292 169.796 370.687 170.087V170.085Z" fill="#ED975D"/>
<path d="M361.433 170.208C361.433 170.208 362.919 170.737 364.813 170.991C367.583 171.363 371.225 171.143 372.369 167.812C374.296 162.204 376.757 158.843 371.087 156.553C368.052 155.328 366.109 155.263 364.79 155.731C363.645 156.134 362.968 156.94 362.456 157.739C361.354 159.456 359.139 169.227 361.433 170.208Z" fill="#FFB27D"/>
<path d="M362.883 153.399C360.857 154.722 361.518 157.821 363.905 158.238C365.336 158.488 366.536 158.539 367.23 158.845C368.64 159.469 369.853 160.128 369.519 162.304C369.405 163.044 369.042 163.944 370.959 163.497C371.272 163.424 371.499 163.446 371.654 163.538C372.448 164.006 371.433 166.277 371.127 166.77C371.127 166.77 370.687 168.396 371.664 169.189C371.783 169.283 373.703 170.119 378.333 163.076C379.061 161.971 379.757 159.48 378.632 157.081C377.509 154.684 374.378 151.65 368.479 151.65C366.944 151.65 364.635 152.255 362.881 153.399H362.883Z" fill="#233862"/>
<path d="M382.693 214.888C381.831 218.869 382.05 218.91 380.729 217.866C375.342 213.611 376.917 211.381 378.113 207.693C379.31 204.005 375.108 198.237 378.113 195.778C381.05 193.375 382.725 197.249 382.798 197.422C382.815 203.518 382.753 209.955 382.694 214.888H382.693Z" fill="#2B478B"/>
<path d="M382.56 214.375C382.56 214.375 380.53 217.676 379.2 217.56C377.869 217.443 376.072 216.949 375.036 217.934C373.998 218.918 372.328 221.454 372.794 222.131C373.261 222.807 375.14 222.208 376.489 221.468C377.839 220.727 379.963 221.832 381.097 220.992C382.229 220.152 384.941 216.814 384.941 216.814L382.562 214.377L382.56 214.375Z" fill="#FFB27D"/>
<path d="M381.758 178.412C381.758 178.412 398.607 194.172 396.418 204.655C395.42 209.432 392.328 213.462 384.082 219.987C384.082 219.987 380.181 217.308 379.325 215.132C379.325 215.132 386.81 204.655 386.52 202.87C386.167 200.687 381.058 195.211 379.225 194.36C377.392 193.509 377.56 180.24 381.758 178.412Z" fill="#2B478B"/>
<path d="M379.199 217.56C379.199 217.56 377.422 216.788 376.852 216.457C376.281 216.126 376.407 216.662 376.581 216.931C376.755 217.199 377.231 217.797 377.929 217.86C378.626 217.924 379.197 217.562 379.197 217.562L379.199 217.56Z" fill="#FFB27D"/>
<path d="M82.9258 183.313C82.3173 182.145 96.2162 177.94 96.4354 189.466C96.4354 189.466 122.474 188.829 110.041 174.405C105.738 169.411 106.18 165.282 106.309 161.438C106.439 157.594 103.629 146.422 93.9898 147.547C93.9898 147.547 91.4667 146.527 88.3161 148.15C81.1531 151.843 65.1071 187.565 82.924 183.315L82.9258 183.313Z" fill="#163560"/>
<path d="M125.493 193.892C125.493 193.892 127.188 191.328 128.553 191.277C129.919 191.226 132.448 190.522 132.246 191.025C132.044 191.529 130.475 191.578 130.324 191.88C130.173 192.182 132.65 192.633 133.359 192.684C134.068 192.735 135.737 192.684 135.686 193.035C135.635 193.387 132.677 194.846 130.588 194.645C128.502 194.444 125.92 195.248 125.92 195.248L125.491 193.89L125.493 193.892Z" fill="#FFB27D"/>
<path d="M100.983 194.723C100.983 194.723 101.904 196.536 103.576 198.619C105.591 201.127 108.696 204.022 112.595 204.595C114.457 204.868 116.279 204.469 117.954 203.731C117.957 203.731 117.959 203.731 117.959 203.731C122.694 201.642 126.254 196.836 126.254 196.836C127.09 194.572 125.723 193.039 125.723 193.039C125.723 193.039 116.162 195.177 115.251 194.725C114.34 194.272 108.742 181.925 107.733 179.87C105.589 175.498 102.187 174.245 102.187 174.245L100.983 194.725V194.723Z" fill="#AEC3FF"/>
<path d="M103.576 198.619C105.591 201.127 108.696 204.022 112.595 204.595C114.457 204.868 116.278 204.469 117.953 203.731C117.768 203.756 113.039 204.336 111.153 200.984C109.231 197.565 107.15 192.134 104.294 193.943C103.062 194.725 103.117 196.667 103.576 198.619Z" fill="#94B0ED"/>
<path d="M65.311 297.318C65.311 297.318 62.3929 299.965 62.9637 301.845C63.5325 303.726 66.1653 304.979 66.5225 307.278C66.8778 309.578 68.301 310.831 69.5824 310.831H75.6889C75.6889 310.831 76.632 309.213 74.3546 308.727C72.0772 308.238 71.2191 305.539 71.3608 303.031C71.5026 300.523 71.1473 297.18 71.1473 297.18L66.3089 296.066L65.3129 297.319L65.311 297.318Z" fill="#1D3356"/>
<path d="M90.0053 298.443C90.0053 298.443 88.9564 309.655 90.2359 310.282L106.628 310.248C106.628 310.248 106.628 308.368 103.995 307.949C101.362 307.532 96.7374 305.999 95.9531 302.585C95.1706 299.172 90.0034 298.441 90.0034 298.441L90.0053 298.443Z" fill="#1D3356"/>
<path d="M77.3955 187.159C77.3955 187.159 77.1517 190.582 77.3955 194.691C77.558 197.415 80.3287 201.062 80.7218 201.963C81.7084 204.225 82.8216 204.594 82.8216 204.594L91.4286 206.69L94.4544 207.427L103.999 204.594C103.999 204.594 108.346 192.532 106.599 185.745C104.855 178.955 102.188 174.242 102.188 174.242C102.188 174.242 95.7188 171.703 84.2618 173.599L77.3974 187.159H77.3955Z" fill="#AEC3FF"/>
<path d="M79.915 195.803C80.0776 198.527 80.3289 201.061 80.7221 201.965C81.7086 204.227 82.8218 204.595 82.8218 204.595L91.4288 206.692L95.1672 205.6C95.1672 205.6 82.6876 203.72 84.0711 193.049L79.915 195.803Z" fill="#F2CCAA"/>
<path d="M103.391 206.425C103.391 206.425 108.118 221.048 108.42 226.027C108.725 231.005 99.3861 296.752 99.01 299.046C98.6566 301.208 95.9539 302.587 95.9539 302.587C95.9539 302.587 94.7122 303.316 92.9375 302.818C90.4768 302.127 89.7 301.3 89.7 301.3C89.7 301.3 86.0221 254.41 88.2976 237.66C90.5732 220.909 90.6015 206.425 90.6015 206.425H103.389H103.391Z" fill="#233862"/>
<path d="M83.3666 205.989C83.3666 205.989 76.1582 215.604 75.4854 222.104C74.8125 228.604 74.4308 251.434 73 257.771C71.5674 264.108 66.3076 276.3 66.3076 296.064C66.3076 296.064 66.8538 297.197 68.5435 297.8C69.084 297.993 69.806 298.179 70.509 298.341C71.902 298.659 73.3308 297.982 73.9658 296.71C77.5228 289.592 88.8513 266.635 89.4334 261.868C89.8455 258.496 93.4213 236.175 101.225 223.077C103.098 219.932 100.076 207.428 100.076 207.428L83.3704 205.989H83.3666Z" fill="#2B478B"/>
<path d="M104.144 204.168C104.144 204.168 102.247 205.66 98.4781 205.735C93.9761 205.825 82.8196 204.595 82.8196 204.595C82.8196 204.595 82.3244 205.972 82.3433 207.424C82.3433 207.424 95.9682 210.84 103.863 207.924C103.863 207.924 104.881 206.019 104.142 204.168H104.144Z" fill="#233862"/>
<path d="M97.5059 207.28C97.5059 206.006 98.4282 204.969 99.5603 204.969C100.692 204.969 101.615 206.006 101.615 207.28C101.615 208.554 100.692 209.591 99.5603 209.591C98.4282 209.591 97.5059 208.554 97.5059 207.28ZM98.1862 207.28C98.1862 208.182 98.8024 208.914 99.5603 208.914C100.318 208.914 100.934 208.182 100.934 207.28C100.934 206.378 100.318 205.646 99.5603 205.646C98.8024 205.646 98.1862 206.378 98.1862 207.28Z" fill="white"/>
<path d="M69.6021 208.067L80.6661 217.643C81.4655 218.334 82.677 218.252 83.3744 217.457L97.4926 201.342C98.1881 200.547 98.1049 199.341 97.3055 198.649L86.2415 189.074C85.442 188.382 84.2306 188.465 83.5332 189.26L69.415 205.375C68.7195 206.17 68.8026 207.374 69.6021 208.067Z" fill="#F78248"/>
<path d="M85.9686 206.857C86.1255 206.898 91.8464 207.567 91.8464 208.741C91.8464 210.1 90.17 211.92 88.59 211.834C87.9493 211.798 84.999 209.102 84.999 209.102L85.9686 206.857Z" fill="#FFB27D"/>
<path d="M88.9077 172.977C89.5579 171.408 89.9377 169.019 89.9283 166.062L90.3611 166.146L97.6262 167.576C97.6262 167.576 97.4618 169.849 97.4561 171.991C97.4561 172.008 97.4561 172.026 97.4561 172.043C97.4467 173.903 98.7205 175.769 95.7192 176.507C94.7912 176.734 87.5412 176.272 88.9096 172.977H88.9077Z" fill="#FFB27D"/>
<path d="M97.6245 167.576C97.6245 167.576 97.4581 169.849 97.4544 171.991C93.389 171.876 91.2401 168.19 90.3594 166.146L97.6245 167.576Z" fill="#E8945B"/>
<path d="M98.9832 169.603C98.9832 169.603 89.3632 169.761 89.3576 163.805C89.35 157.848 88.1045 153.858 94.2469 153.504C100.389 153.151 101.584 155.422 102.073 157.41C102.563 159.398 101.487 169.407 98.9851 169.603H98.9832Z" fill="#FFB27D"/>
<path d="M98.6254 153.36C98.6254 153.36 95.9907 160.348 91.95 161.382C87.9073 162.415 86.1553 161.339 86.1553 161.339C86.1553 161.339 89.2548 158.891 89.8993 154.617C89.8993 154.617 96.6409 150.035 98.6273 153.362L98.6254 153.36Z" fill="#163560"/>
<path d="M97.9736 153.927C97.9736 153.927 99.926 154.652 100.731 156.069C101.517 157.453 102.186 159.287 102.031 161.538C102.031 161.538 104.016 156.788 101.786 154.102C99.4214 151.254 97.9736 153.929 97.9736 153.929V153.927Z" fill="#163560"/>
<path d="M85.9687 206.857C85.9687 206.857 87.3389 206.419 88.2556 206.547C89.1722 206.675 89.8488 206.528 89.8488 206.784C89.8488 207.039 88.6657 207.157 88.4143 207.279C88.1629 207.402 85.9668 206.857 85.9668 206.857H85.9687Z" fill="#FFB27D"/>
<path d="M84.2601 173.599C84.2601 173.599 77.4316 174.074 74.814 180.399C72.1964 186.725 67.2295 197.343 67.2295 199.13C67.2295 200.916 70.004 206.423 84.9027 209.59C84.9027 209.59 86.443 207.978 86.3504 206.705C86.3504 206.705 77.0498 198.764 77.0744 197.835C77.1217 196.081 78.5996 193.762 86.7643 185.643C88.9851 183.435 84.2582 173.597 84.2582 173.597L84.2601 173.599Z" fill="#AEC3FF"/>
<path d="M275.094 119.703H201.303C199.519 119.703 197.807 120.408 196.544 121.663L144.366 173.529C143.103 174.784 142.395 176.484 142.395 178.258V251.607C142.395 253.381 143.103 255.083 144.366 256.336L196.544 308.203C197.807 309.458 199.517 310.162 201.303 310.162H275.094C276.878 310.162 278.59 309.458 279.851 308.203L332.03 256.336C333.292 255.081 334.001 253.381 334.001 251.607V178.258C334.001 176.484 333.292 174.782 332.03 173.529L279.851 121.663C278.589 120.408 276.878 119.703 275.094 119.703Z" fill="#90CAF9"/>
<path d="M269.901 300.628H206.492C203.909 300.628 201.482 299.629 199.654 297.814L154.818 253.244C152.993 251.429 151.985 249.015 151.985 246.447V183.417C151.985 180.849 152.991 178.437 154.818 176.62L199.654 132.052C201.482 130.237 203.909 129.236 206.492 129.236H269.901C272.485 129.236 274.914 130.235 276.739 132.052L321.575 176.62C323.401 178.435 324.408 180.849 324.408 183.417V246.447C324.408 249.015 323.403 251.427 321.575 253.244L276.739 297.812C274.914 299.627 272.485 300.628 269.901 300.628ZM206.492 135.772C205.667 135.772 204.888 136.091 204.304 136.674L159.468 181.242C158.884 181.822 158.561 182.594 158.561 183.417V246.447C158.561 247.268 158.882 248.04 159.468 248.622L204.304 293.192C204.888 293.773 205.665 294.092 206.492 294.092H269.901C270.729 294.092 271.506 293.773 272.09 293.192L316.926 248.624C317.51 248.044 317.831 247.272 317.831 246.449V183.419C317.831 182.598 317.51 181.826 316.926 181.243L272.09 136.675C271.506 136.095 270.727 135.774 269.901 135.774H206.492V135.772Z" fill="#455A64"/>
<path d="M289.338 217.331L288.047 216.218C284.802 213.425 279.848 213.78 277.038 217.006L269.741 225.383C268.697 226.579 266.72 225.847 266.72 224.263C266.72 223.6 266.685 222.942 266.615 222.296V169.559C266.615 166.095 263.765 163.262 260.279 163.262H259.811C256.326 163.262 253.475 166.095 253.475 169.559V203.883C253.475 204.715 252.797 205.391 251.958 205.391C251.034 205.391 250.283 204.646 250.283 203.727V162.913C250.283 159.565 247.528 156.826 244.16 156.826H243.268C239.9 156.826 237.144 159.565 237.144 162.913V203.998C237.144 204.768 236.515 205.393 235.74 205.393C234.753 205.393 233.952 204.599 233.952 203.616V170.863C233.952 167.399 231.102 164.566 227.617 164.566H227.148C223.663 164.566 220.813 167.399 220.813 170.863V203.881C220.813 204.715 220.132 205.391 219.293 205.391C218.371 205.391 217.621 204.648 217.621 203.729V177.897C217.621 174.433 214.771 171.6 211.285 171.6H210.817C207.332 171.6 204.481 174.433 204.481 177.897V223.252C204.481 223.378 204.487 223.502 204.495 223.628C204.487 223.838 204.481 224.051 204.481 224.263V249.229C204.481 259.375 212.833 267.677 223.041 267.677H248.157C254.685 267.677 260.455 264.281 263.765 259.178C264.764 257.638 265.845 256.15 267.055 254.763L290.128 228.274C292.938 225.048 292.581 220.124 289.336 217.331H289.338Z" fill="#FFBE9D"/>
</svg>
