<svg width="488" height="313" viewBox="0 0 488 313" fill="none" xmlns="http://www.w3.org/2000/svg">
<g clip-path="url(#clip0_4865_34263)">
<path d="M488 0H0V313H488V0Z" fill="white"/>
<path d="M36.4498 312.44C36.4498 312.44 -22.9769 255.104 14.8303 187.648C52.6375 120.193 103.414 154.116 100.957 75.6039C98.4998 -2.90812 217.735 -9.65446 255.688 13.1114C293.64 35.8773 293.414 63.2948 371.763 54.2226C450.114 45.1504 465.081 120.773 444.697 159.314C415.777 213.997 524.965 204.977 456.164 312.438H36.4498V312.44Z" fill="#EBF3FA"/>
<path opacity="0.3" d="M297.415 177.526C297.415 177.526 310.042 124.327 352.64 118.479C352.64 118.479 360.928 117.466 363.687 126.539C366.447 135.611 349.968 135.676 339.783 139.325C329.598 142.973 305.85 158.442 297.415 177.526Z" fill="#AEC3FF"/>
<path opacity="0.3" d="M296.447 167.571C296.447 167.571 292.019 123.504 323.104 107.866C323.104 107.866 329.185 104.92 333.704 111.148C338.223 117.376 325.615 121.742 318.779 127.205C311.943 132.668 297.85 150.741 296.447 167.571Z" fill="#AEC3FF"/>
<path d="M485.05 311.663H-3.47396C-3.78606 311.663 -4.03906 311.914 -4.03906 312.224V312.438C-4.03906 312.749 -3.78606 313 -3.47396 313H485.05C485.363 313 485.616 312.749 485.616 312.438V312.224C485.616 311.914 485.363 311.663 485.05 311.663Z" fill="#263238" fill-opacity="0.8"/>
<path d="M66.6157 272.43C60.0386 257.534 83.894 244.736 83.894 244.736C83.894 244.736 115.328 254.849 119.841 252.076C124.355 249.303 94.6631 238.214 94.6631 238.214C101.989 231.088 130.079 224.559 130.079 224.559C130.079 224.559 149.027 250.551 152.716 246.758C156.403 242.965 134.757 224.595 134.757 224.595C144.303 220.732 158.703 223.904 158.703 223.904C179.438 231.242 168.888 257.331 168.888 257.331C168.888 257.331 175.651 266.198 189.083 271.823C189.083 271.823 191.784 272.685 195.545 274.814L193.449 276.492C192.825 276.071 192.198 275.682 191.57 275.331C191.566 275.327 191.562 275.325 191.559 275.325C191.549 275.319 191.54 275.316 191.53 275.31C191.126 275.103 190.548 274.81 189.839 274.457C189.839 274.457 189.839 274.457 189.837 274.457C189.837 274.457 189.835 274.457 189.833 274.457C188.183 273.724 187.004 273.15 186.193 272.704C186.191 272.704 186.187 272.702 186.185 272.701C181.098 270.326 174.203 267.442 171.493 267.848C171.493 267.848 171.463 267.339 171.168 266.533C171.272 266.952 171.379 267.389 171.493 267.848C174.097 278.363 157.189 293.999 145.543 299.964C133.897 305.929 135.984 299.637 137.679 290.781C139.376 281.925 151.623 274.095 153.51 269.644C155.396 265.193 149.081 267.309 142.831 273.153C136.581 278.998 138.617 288.288 128.677 297.926C118.74 307.563 94.2303 294.003 94.2303 294.003C103.52 290.345 113.544 275.599 111.992 272.642C110.441 269.685 90.9134 285.739 87.2184 287.437C83.5235 289.135 73.1872 287.33 66.612 272.434L66.6157 272.43Z" fill="#CDE0FB"/>
<path d="M366.955 290.339C376.548 279.088 359.151 261.826 359.151 261.826C359.151 261.826 329.2 262.527 325.999 258.956C322.799 255.384 351.489 253.386 351.489 253.386C346.977 245.309 324.267 232.406 324.267 232.406C324.267 232.406 301.034 250.118 298.815 245.873C296.598 241.629 320.193 231.234 320.193 231.234C312.903 225.421 299.562 224.471 299.562 224.471C279.63 225.513 282.006 250.9 282.006 250.9C282.006 250.9 273.82 256.865 260.683 258.298C260.683 258.298 258.111 258.353 254.287 259.236L255.672 261.233C256.325 261.026 256.971 260.85 257.608 260.707C257.612 260.705 257.615 260.703 257.619 260.705C257.629 260.703 257.638 260.701 257.647 260.699C258.054 260.624 258.63 260.517 259.339 260.395C259.339 260.395 259.339 260.395 259.341 260.395C259.341 260.395 259.343 260.395 259.345 260.395C260.97 260.183 262.144 259.987 262.966 259.809C262.968 259.809 262.972 259.809 262.973 259.807C268.014 259.052 274.756 258.319 277.005 259.371C277.005 259.371 277.165 258.935 277.63 258.311C277.432 258.65 277.222 259.001 277.005 259.371C272.004 267.838 282.624 285.778 291.193 293.958C299.76 302.137 299.586 296.133 300.418 288C301.249 279.867 292.644 269.912 292.164 265.557C291.684 261.205 296.621 264.667 300.529 271.355C304.44 278.041 300.251 285.592 306.379 296.524C312.506 307.456 337.335 301.978 337.335 301.978C330.213 296.409 325.343 281.015 327.462 278.844C329.58 276.672 342.37 295.648 345.139 298.074C347.907 300.501 357.359 301.591 366.953 290.339H366.955Z" fill="#CDE0FB"/>
<path opacity="0.5" d="M128.274 72.3686C138.162 55.8757 166.89 69.8831 166.89 69.8831C166.89 69.8831 178.667 106.839 184.442 109.249C190.218 111.658 180.581 75.6976 180.581 75.6976C192.49 77.8093 218.061 100.16 218.061 100.16C218.061 100.16 205.929 136.077 212.123 136.999C218.316 137.921 221.233 104.652 221.233 104.652C231.512 111.12 238.32 127.048 238.32 127.048C245.443 151.884 212.992 159.694 212.992 159.694C212.992 159.694 209.057 172.232 212.83 188.916C212.83 188.916 213.849 192.088 214.368 197.139L211.308 196.288C211.288 195.404 211.235 194.539 211.142 193.698C211.142 193.692 211.142 193.688 211.14 193.683C211.14 193.671 211.136 193.658 211.136 193.647C211.059 193.119 210.945 192.366 210.8 191.447C210.8 191.447 210.8 191.445 210.8 191.443C210.8 191.441 210.8 191.441 210.8 191.439C210.379 189.36 210.125 187.842 209.999 186.76C209.999 186.756 209.999 186.752 209.999 186.75C208.806 180.261 206.867 171.7 204.614 169.391C204.614 169.391 205.087 169.012 205.661 168.18C205.327 168.567 204.979 168.969 204.614 169.391C196.236 179.089 169.53 173.662 155.779 166.628C142.029 159.594 149.54 157.274 159.264 152.821C168.988 148.369 184.953 154.698 190.549 153.449C196.145 152.199 189.77 147.619 179.836 145.656C169.903 143.693 162.316 152.008 146.189 149.124C130.06 146.24 126.363 113.536 126.363 113.536C136.269 119.901 157.393 119.364 159.188 115.854C160.984 112.345 132.077 104.703 127.903 102.337C123.728 99.9721 118.387 88.8635 128.276 72.3705L128.274 72.3686Z" fill="#CDE0FB"/>
<path d="M238.686 102.557C238.686 101.492 238.876 100.506 239.26 99.6019C239.642 98.6983 240.184 97.9149 240.884 97.2517C241.583 96.5904 242.422 96.0738 243.405 95.7018C244.386 95.3317 245.493 95.1438 246.726 95.1438C247.958 95.1438 249.073 95.3298 250.071 95.7018C251.069 96.0738 251.919 96.5904 252.617 97.2517C253.316 97.9149 253.856 98.6983 254.24 99.6019C254.622 100.506 254.815 101.492 254.815 102.557C254.815 103.622 254.624 104.601 254.24 105.488C253.856 106.376 253.316 107.152 252.617 107.814C251.917 108.477 251.069 108.993 250.071 109.364C249.073 109.734 247.956 109.922 246.726 109.922C245.495 109.922 244.386 109.736 243.405 109.364C242.422 108.992 241.583 108.475 240.884 107.814C240.184 107.152 239.644 106.376 239.26 105.488C238.876 104.599 238.686 103.622 238.686 102.557ZM252.717 88.7694H240.732L239.035 48.0659H254.414L252.717 88.7694Z" fill="#90CAF9"/>
<path d="M202.502 62.7667C202.502 61.9495 202.649 61.1924 202.942 60.4992C203.235 59.8059 203.651 59.2048 204.188 58.6956C204.725 58.1884 205.369 57.792 206.123 57.5064C206.877 57.2227 207.726 57.0781 208.671 57.0781C209.616 57.0781 210.472 57.2209 211.239 57.5064C212.007 57.792 212.657 58.1884 213.194 58.6956C213.73 59.2048 214.144 59.8059 214.439 60.4992C214.732 61.1943 214.879 61.9495 214.879 62.7667C214.879 63.584 214.732 64.3354 214.439 65.0155C214.144 65.6975 213.73 66.293 213.194 66.8003C212.657 67.3094 212.005 67.7058 211.239 67.9895C210.472 68.2731 209.616 68.4178 208.671 68.4178C207.726 68.4178 206.875 68.275 206.123 67.9895C205.369 67.7039 204.725 67.3075 204.188 66.8003C203.651 66.293 203.235 65.6975 202.942 65.0155C202.647 64.3336 202.502 63.584 202.502 62.7667ZM213.271 52.186H204.073L202.77 20.9473H214.573L213.271 52.186Z" fill="#AEC3FF"/>
<path d="M381.175 115.55C381.175 114.733 381.322 113.976 381.615 113.283C381.908 112.59 382.324 111.988 382.861 111.479C383.397 110.972 384.042 110.576 384.796 110.29C385.55 110.006 386.399 109.862 387.344 109.862C388.289 109.862 389.145 110.005 389.91 110.29C390.678 110.576 391.328 110.972 391.865 111.479C392.401 111.988 392.815 112.59 393.11 113.283C393.403 113.978 393.55 114.733 393.55 115.55C393.55 116.368 393.403 117.119 393.11 117.799C392.815 118.481 392.401 119.077 391.865 119.584C391.328 120.093 390.676 120.489 389.91 120.773C389.145 121.059 388.287 121.201 387.344 121.201C386.401 121.201 385.548 121.059 384.796 120.773C384.042 120.488 383.397 120.091 382.861 119.584C382.324 119.077 381.908 118.481 381.615 117.799C381.32 117.117 381.175 116.368 381.175 115.55ZM391.944 104.97H382.745L381.443 73.731H393.246L391.944 104.97Z" fill="#AEC3FF"/>
<path d="M360.945 195.048C359.022 198.593 356.628 202.172 354.173 205.086C351.602 208.139 348.972 210.457 346.751 211.243L346.734 211.248C346.618 211.288 346.503 211.325 346.39 211.355C346.384 211.359 346.378 211.359 346.373 211.359C345.921 211.487 345.492 211.545 345.082 211.526C337.794 211.201 330.113 195.663 330.113 195.663C330.113 195.663 330.314 193.82 331.731 192.52C332.967 191.385 333.92 191.088 333.92 191.088C333.92 191.088 341.769 199.099 343.685 199.676C344.891 200.036 346.477 194.441 348.749 187.417C351.022 180.391 359.004 178.659 359.004 178.659C359.004 178.659 367.081 183.741 360.946 195.05L360.945 195.048Z" fill="#2B478B"/>
<path d="M354.172 205.086C351.602 208.139 348.971 210.457 346.75 211.243L346.733 211.248L346.389 211.355L346.37 211.361C346.449 211.307 348.827 210.082 349.199 207.807C349.581 205.483 347.107 203.581 353.323 199.987C356.945 197.893 354.172 205.084 354.172 205.084V205.086Z" fill="#2B478B"/>
<path d="M348.484 311.662H365.564C366.787 310.837 365.233 302.772 365.233 302.772C365.233 302.772 360.573 301.013 359.768 304.588C358.961 308.162 353.829 309.298 351.115 309.734C349.257 310.035 348.67 311.049 348.484 311.662Z" fill="#24406D"/>
<path d="M374.529 228.064C374.529 228.064 373.991 237.969 373.318 249.445C372.832 257.674 372.28 266.712 371.808 273.481C371.746 274.379 371.681 275.238 371.623 276.05C371.606 276.301 371.587 276.551 371.568 276.801C370.345 291.979 366.255 305.276 366.255 305.276C361.453 306.283 359.285 304.442 359.285 304.442C359.285 304.442 355.976 265.895 354.751 250.349C353.849 238.904 353.08 222.242 353.08 222.242L374.531 228.064H374.529Z" fill="#AEC3FF"/>
<path d="M373.316 249.446C372.83 257.674 372.278 266.713 371.806 273.482C368.667 266.121 362.252 237.43 362.252 237.43L373.316 249.446Z" fill="#AEC3FF"/>
<path d="M373.813 311.662H390.893C392.116 310.837 390.562 302.772 390.562 302.772C390.562 302.772 385.902 301.013 385.097 304.588C384.29 308.162 379.158 309.298 376.444 309.734C374.586 310.035 373.999 311.049 373.813 311.662Z" fill="#24406D"/>
<path d="M357.718 226.096C357.718 226.096 369.916 256.275 373.815 267.714C376.593 275.862 384.425 304.45 384.425 304.45C384.425 304.45 387.831 305.479 390.694 303.488C390.694 303.488 393.609 274.282 387.721 266.048C384.599 261.678 386.944 220.63 374.283 220.279C361.621 219.928 357.72 226.096 357.72 226.096H357.718Z" fill="#AEC3FF"/>
<path d="M382.692 216.389C382.641 220.68 382.594 223.83 382.605 224.627C382.64 227.223 380.969 227.809 379.247 228.206C379.247 228.206 377.656 228.546 375.648 228.884C373.683 229.211 371.313 229.534 369.638 229.522C361.075 229.455 353.908 226.949 353.908 226.949C352.296 226.949 351.563 224.471 351.298 221.012C351.118 218.671 351.846 195.321 351.937 189.49C351.999 185.308 354.309 181.443 354.955 180.88C360.935 175.623 378.582 176.286 381.757 179.912C382.543 180.808 382.772 189.454 382.798 198.922C382.815 205.019 382.753 211.455 382.694 216.389H382.692Z" fill="#2B478B"/>
<path d="M372.097 177.83C369.844 180.257 362.279 179.897 362.502 177.78C362.532 177.518 362.581 175.968 362.606 175.728C362.625 175.535 362.644 175.347 362.659 175.168C362.71 174.646 362.751 174.186 362.785 173.785C362.886 172.624 362.92 171.995 362.92 171.995H362.927C363.144 171.935 368.009 170.562 370.428 169.992C371.241 169.801 371.78 169.701 371.77 169.771C371.028 175.174 372.834 177.036 372.095 177.832L372.097 177.83Z" fill="#FFB27D"/>
<path d="M370.687 171.585C370.687 171.585 368.656 173.637 362.787 173.785C362.887 172.624 362.921 171.995 362.921 171.995H362.929C363.146 171.935 368.011 170.561 370.43 169.992C370.855 170.167 370.292 171.296 370.687 171.587V171.585Z" fill="#ED975D"/>
<path d="M361.433 171.708C361.433 171.708 362.919 172.237 364.813 172.491C367.583 172.863 371.225 172.643 372.369 169.312C374.296 163.704 376.757 160.343 371.087 158.053C368.052 156.828 366.109 156.763 364.79 157.231C363.645 157.634 362.968 158.44 362.456 159.239C361.354 160.956 359.139 170.727 361.433 171.708Z" fill="#FFB27D"/>
<path d="M362.883 154.899C360.857 156.222 361.518 159.321 363.905 159.738C365.336 159.988 366.536 160.039 367.23 160.345C368.64 160.969 369.853 161.628 369.519 163.804C369.405 164.544 369.042 165.444 370.959 164.997C371.272 164.924 371.499 164.946 371.654 165.038C372.448 165.506 371.433 167.777 371.127 168.27C371.127 168.27 370.687 169.896 371.664 170.689C371.783 170.783 373.703 171.619 378.333 164.576C379.061 163.471 379.757 160.98 378.632 158.581C377.509 156.184 374.378 153.15 368.479 153.15C366.944 153.15 364.635 153.755 362.881 154.899H362.883Z" fill="#233862"/>
<path d="M382.693 216.388C381.831 220.369 382.05 220.41 380.729 219.366C375.342 215.111 376.917 212.881 378.113 209.193C379.31 205.505 375.108 199.737 378.113 197.278C381.05 194.875 382.725 198.749 382.798 198.922C382.815 205.018 382.753 211.455 382.694 216.388H382.693Z" fill="#2B478B"/>
<path d="M382.56 215.875C382.56 215.875 380.53 219.176 379.2 219.06C377.869 218.943 376.072 218.449 375.036 219.434C373.998 220.418 372.328 222.954 372.794 223.631C373.261 224.307 375.14 223.708 376.489 222.968C377.839 222.227 379.963 223.332 381.097 222.492C382.229 221.652 384.941 218.314 384.941 218.314L382.562 215.877L382.56 215.875Z" fill="#FFB27D"/>
<path d="M381.758 179.912C381.758 179.912 398.607 195.672 396.418 206.155C395.42 210.932 392.328 214.962 384.082 221.487C384.082 221.487 380.181 218.808 379.325 216.632C379.325 216.632 386.81 206.155 386.52 204.37C386.167 202.187 381.058 196.711 379.225 195.86C377.392 195.009 377.56 181.74 381.758 179.912Z" fill="#2B478B"/>
<path d="M379.199 219.06C379.199 219.06 377.422 218.288 376.852 217.957C376.281 217.626 376.407 218.162 376.581 218.431C376.755 218.699 377.231 219.297 377.929 219.36C378.626 219.424 379.197 219.062 379.197 219.062L379.199 219.06Z" fill="#FFB27D"/>
<path d="M82.9258 184.813C82.3173 183.645 96.2162 179.44 96.4354 190.966C96.4354 190.966 122.474 190.329 110.041 175.905C105.738 170.911 106.18 166.782 106.309 162.938C106.439 159.094 103.629 147.922 93.9898 149.047C93.9898 149.047 91.4667 148.027 88.3161 149.65C81.1531 153.343 65.1071 189.065 82.924 184.815L82.9258 184.813Z" fill="#163560"/>
<path d="M125.493 195.392C125.493 195.392 127.188 192.828 128.553 192.777C129.919 192.726 132.448 192.022 132.246 192.525C132.044 193.029 130.475 193.078 130.324 193.38C130.173 193.682 132.65 194.133 133.359 194.184C134.068 194.235 135.737 194.184 135.686 194.535C135.635 194.887 132.677 196.346 130.588 196.145C128.502 195.944 125.92 196.748 125.92 196.748L125.491 195.39L125.493 195.392Z" fill="#FFB27D"/>
<path d="M100.983 196.223C100.983 196.223 101.904 198.036 103.576 200.119C105.591 202.627 108.696 205.522 112.595 206.095C114.457 206.368 116.279 205.969 117.954 205.231C117.957 205.231 117.959 205.231 117.959 205.231C122.694 203.142 126.254 198.336 126.254 198.336C127.09 196.072 125.723 194.539 125.723 194.539C125.723 194.539 116.162 196.677 115.251 196.225C114.34 195.772 108.742 183.425 107.733 181.37C105.589 176.998 102.187 175.745 102.187 175.745L100.983 196.225V196.223Z" fill="#AEC3FF"/>
<path d="M103.576 200.119C105.591 202.627 108.696 205.522 112.595 206.095C114.457 206.368 116.278 205.969 117.953 205.231C117.768 205.256 113.039 205.836 111.153 202.484C109.231 199.065 107.15 193.634 104.294 195.443C103.062 196.225 103.117 198.167 103.576 200.119Z" fill="#94B0ED"/>
<path d="M65.311 298.818C65.311 298.818 62.3929 301.465 62.9637 303.345C63.5325 305.226 66.1653 306.479 66.5225 308.778C66.8778 311.078 68.301 312.331 69.5824 312.331H75.6889C75.6889 312.331 76.632 310.713 74.3546 310.227C72.0772 309.738 71.2191 307.039 71.3608 304.531C71.5026 302.023 71.1473 298.68 71.1473 298.68L66.3089 297.566L65.3129 298.819L65.311 298.818Z" fill="#1D3356"/>
<path d="M90.0053 299.943C90.0053 299.943 88.9564 311.155 90.2359 311.782L106.628 311.748C106.628 311.748 106.628 309.868 103.995 309.449C101.362 309.032 96.7374 307.499 95.9531 304.085C95.1706 300.672 90.0034 299.941 90.0034 299.941L90.0053 299.943Z" fill="#1D3356"/>
<path d="M77.3955 188.659C77.3955 188.659 77.1517 192.082 77.3955 196.191C77.558 198.915 80.3287 202.562 80.7218 203.463C81.7084 205.725 82.8216 206.094 82.8216 206.094L91.4286 208.19L94.4544 208.927L103.999 206.094C103.999 206.094 108.346 194.032 106.599 187.245C104.855 180.455 102.188 175.742 102.188 175.742C102.188 175.742 95.7188 173.203 84.2618 175.099L77.3974 188.659H77.3955Z" fill="#AEC3FF"/>
<path d="M79.915 197.303C80.0776 200.027 80.3289 202.561 80.7221 203.465C81.7086 205.727 82.8218 206.095 82.8218 206.095L91.4288 208.192L95.1672 207.1C95.1672 207.1 82.6876 205.22 84.0711 194.549L79.915 197.303Z" fill="#F2CCAA"/>
<path d="M103.391 207.925C103.391 207.925 108.118 222.548 108.42 227.527C108.725 232.505 99.3861 298.252 99.01 300.546C98.6566 302.708 95.9539 304.087 95.9539 304.087C95.9539 304.087 94.7122 304.816 92.9375 304.318C90.4768 303.627 89.7 302.8 89.7 302.8C89.7 302.8 86.0221 255.91 88.2976 239.16C90.5732 222.409 90.6015 207.925 90.6015 207.925H103.389H103.391Z" fill="#233862"/>
<path d="M83.3666 207.489C83.3666 207.489 76.1582 217.104 75.4854 223.604C74.8125 230.104 74.4308 252.934 73 259.271C71.5674 265.608 66.3076 277.8 66.3076 297.564C66.3076 297.564 66.8538 298.697 68.5435 299.3C69.084 299.493 69.806 299.679 70.509 299.841C71.902 300.159 73.3308 299.482 73.9658 298.21C77.5228 291.092 88.8513 268.135 89.4334 263.368C89.8455 259.996 93.4213 237.675 101.225 224.577C103.098 221.432 100.076 208.928 100.076 208.928L83.3704 207.489H83.3666Z" fill="#2B478B"/>
<path d="M104.144 205.668C104.144 205.668 102.247 207.16 98.4781 207.235C93.9761 207.325 82.8196 206.095 82.8196 206.095C82.8196 206.095 82.3244 207.472 82.3433 208.924C82.3433 208.924 95.9682 212.34 103.863 209.424C103.863 209.424 104.881 207.519 104.142 205.668H104.144Z" fill="#233862"/>
<path d="M97.5059 208.78C97.5059 207.506 98.4282 206.469 99.5603 206.469C100.692 206.469 101.615 207.506 101.615 208.78C101.615 210.054 100.692 211.091 99.5603 211.091C98.4282 211.091 97.5059 210.054 97.5059 208.78ZM98.1862 208.78C98.1862 209.682 98.8024 210.414 99.5603 210.414C100.318 210.414 100.934 209.682 100.934 208.78C100.934 207.878 100.318 207.146 99.5603 207.146C98.8024 207.146 98.1862 207.878 98.1862 208.78Z" fill="white"/>
<path d="M69.6021 209.567L80.6661 219.143C81.4655 219.834 82.677 219.752 83.3744 218.957L97.4926 202.842C98.1881 202.047 98.1049 200.841 97.3055 200.149L86.2415 190.574C85.442 189.882 84.2306 189.965 83.5332 190.76L69.415 206.875C68.7195 207.67 68.8026 208.874 69.6021 209.567Z" fill="#F78248"/>
<path d="M85.9686 208.357C86.1255 208.398 91.8464 209.067 91.8464 210.241C91.8464 211.6 90.17 213.42 88.59 213.334C87.9493 213.298 84.999 210.602 84.999 210.602L85.9686 208.357Z" fill="#FFB27D"/>
<path d="M88.9077 174.477C89.5579 172.908 89.9377 170.519 89.9283 167.562L90.3611 167.646L97.6262 169.076C97.6262 169.076 97.4618 171.349 97.4561 173.491C97.4561 173.508 97.4561 173.526 97.4561 173.543C97.4467 175.403 98.7205 177.269 95.7192 178.007C94.7912 178.234 87.5412 177.772 88.9096 174.477H88.9077Z" fill="#FFB27D"/>
<path d="M97.6245 169.076C97.6245 169.076 97.4581 171.349 97.4544 173.491C93.389 173.376 91.2401 169.69 90.3594 167.646L97.6245 169.076Z" fill="#E8945B"/>
<path d="M98.9832 171.103C98.9832 171.103 89.3632 171.261 89.3576 165.305C89.35 159.348 88.1045 155.358 94.2469 155.004C100.389 154.651 101.584 156.922 102.073 158.91C102.563 160.898 101.487 170.907 98.9851 171.103H98.9832Z" fill="#FFB27D"/>
<path d="M98.6254 154.86C98.6254 154.86 95.9907 161.848 91.95 162.882C87.9073 163.915 86.1553 162.839 86.1553 162.839C86.1553 162.839 89.2548 160.391 89.8993 156.117C89.8993 156.117 96.6409 151.535 98.6273 154.862L98.6254 154.86Z" fill="#163560"/>
<path d="M97.9736 155.427C97.9736 155.427 99.926 156.152 100.731 157.569C101.517 158.953 102.186 160.787 102.031 163.038C102.031 163.038 104.016 158.288 101.786 155.602C99.4214 152.754 97.9736 155.429 97.9736 155.429V155.427Z" fill="#163560"/>
<path d="M85.9687 208.357C85.9687 208.357 87.3389 207.919 88.2556 208.047C89.1722 208.175 89.8488 208.028 89.8488 208.284C89.8488 208.539 88.6657 208.657 88.4143 208.779C88.1629 208.902 85.9668 208.357 85.9668 208.357H85.9687Z" fill="#FFB27D"/>
<path d="M84.2601 175.099C84.2601 175.099 77.4316 175.574 74.814 181.899C72.1964 188.225 67.2295 198.843 67.2295 200.63C67.2295 202.416 70.004 207.923 84.9027 211.09C84.9027 211.09 86.443 209.478 86.3504 208.205C86.3504 208.205 77.0498 200.264 77.0744 199.335C77.1217 197.581 78.5996 195.262 86.7643 187.143C88.9851 184.935 84.2582 175.097 84.2582 175.097L84.2601 175.099Z" fill="#AEC3FF"/>
<path d="M275.094 121.203H201.303C199.519 121.203 197.807 121.908 196.544 123.163L144.366 175.029C143.103 176.284 142.395 177.984 142.395 179.758V253.107C142.395 254.881 143.103 256.583 144.366 257.836L196.544 309.703C197.807 310.958 199.517 311.662 201.303 311.662H275.094C276.878 311.662 278.59 310.958 279.851 309.703L332.03 257.836C333.292 256.581 334.001 254.881 334.001 253.107V179.758C334.001 177.984 333.292 176.282 332.03 175.029L279.851 123.163C278.589 121.908 276.878 121.203 275.094 121.203Z" fill="#90CAF9"/>
<path d="M269.901 302.128H206.492C203.909 302.128 201.482 301.129 199.654 299.314L154.818 254.744C152.993 252.929 151.985 250.515 151.985 247.947V184.917C151.985 182.349 152.991 179.937 154.818 178.12L199.654 133.552C201.482 131.737 203.909 130.736 206.492 130.736H269.901C272.485 130.736 274.914 131.735 276.739 133.552L321.575 178.12C323.401 179.935 324.408 182.349 324.408 184.917V247.947C324.408 250.515 323.403 252.927 321.575 254.744L276.739 299.312C274.914 301.127 272.485 302.128 269.901 302.128ZM206.492 137.272C205.667 137.272 204.888 137.591 204.304 138.174L159.468 182.742C158.884 183.322 158.561 184.094 158.561 184.917V247.947C158.561 248.768 158.882 249.54 159.468 250.122L204.304 294.692C204.888 295.273 205.665 295.592 206.492 295.592H269.901C270.729 295.592 271.506 295.273 272.09 294.692L316.926 250.124C317.51 249.544 317.831 248.772 317.831 247.949V184.919C317.831 184.098 317.51 183.326 316.926 182.743L272.09 138.175C271.506 137.595 270.727 137.274 269.901 137.274H206.492V137.272Z" fill="#455A64"/>
<path d="M289.338 218.831L288.047 217.718C284.802 214.925 279.848 215.28 277.038 218.506L269.741 226.883C268.697 228.079 266.72 227.347 266.72 225.763C266.72 225.1 266.685 224.442 266.615 223.796V171.059C266.615 167.595 263.765 164.762 260.279 164.762H259.811C256.326 164.762 253.475 167.595 253.475 171.059V205.383C253.475 206.215 252.797 206.891 251.958 206.891C251.034 206.891 250.283 206.146 250.283 205.227V164.413C250.283 161.065 247.528 158.326 244.16 158.326H243.268C239.9 158.326 237.144 161.065 237.144 164.413V205.498C237.144 206.268 236.515 206.893 235.74 206.893C234.753 206.893 233.952 206.099 233.952 205.116V172.363C233.952 168.899 231.102 166.066 227.617 166.066H227.148C223.663 166.066 220.813 168.899 220.813 172.363V205.381C220.813 206.215 220.132 206.891 219.293 206.891C218.371 206.891 217.621 206.148 217.621 205.229V179.397C217.621 175.933 214.771 173.1 211.285 173.1H210.817C207.332 173.1 204.481 175.933 204.481 179.397V224.752C204.481 224.878 204.487 225.002 204.495 225.128C204.487 225.338 204.481 225.551 204.481 225.763V250.729C204.481 260.875 212.833 269.177 223.041 269.177H248.157C254.685 269.177 260.455 265.781 263.765 260.678C264.764 259.138 265.845 257.65 267.055 256.263L290.128 229.774C292.938 226.548 292.581 221.624 289.336 218.831H289.338Z" fill="#FFBE9D"/>
</g>
<defs>
<clipPath id="clip0_4865_34263">
<rect width="488" height="313" fill="white"/>
</clipPath>
</defs>
</svg>
