<svg width="1898" height="269" viewBox="0 0 1898 269" fill="none" xmlns="http://www.w3.org/2000/svg">
<path d="M1886.27 0H11.2445C5.03434 0 0 2.3801 0 5.31609V263.147C0 266.083 5.03434 268.463 11.2445 268.463H1886.27C1892.48 268.463 1897.51 266.083 1897.51 263.147V5.31609C1897.51 2.3801 1892.48 0 1886.27 0Z" fill="#29292B"/>
<path d="M23.8944 5.62283H1875.02C1877.96 5.60223 1880.79 6.13409 1882.9 7.10145C1885.01 8.06882 1886.22 9.39249 1886.27 10.7814V258.378C1886.22 259.767 1885.01 261.091 1882.9 262.058C1880.79 263.026 1877.96 263.558 1875.02 263.537H23.8944C20.9565 263.558 18.1216 263.026 16.013 262.058C13.9044 261.091 12.6947 259.767 12.6499 258.378V10.7814C12.6947 9.39249 13.9044 8.06882 16.013 7.10145C18.1216 6.13409 20.9565 5.60223 23.8944 5.62283Z" fill="#F2F2F2"/>
<circle cx="142.006" cy="52.2427" r="20.899" fill="#959595" stroke="black" stroke-width="6.43046"/>
<path d="M153.296 55.8342H144.417V64.6917H141.494V55.8342H132.636V52.889H141.494V44.0314H144.417V52.889H153.296V55.8342Z" fill="black"/>
<line x1="344.363" y1="1.40518" x2="344.363" y2="268.269" stroke="black" stroke-width="2.81113"/>
<line x1="865.827" y1="5.62187" x2="865.827" y2="268.462" stroke="black" stroke-width="2.81113"/>
<line x1="594.553" y1="2.81075" x2="594.553" y2="265.651" stroke="black" stroke-width="2.81113"/>
<line x1="1391.51" y1="5.6163" x2="1392.53" y2="262.834" stroke="black" stroke-width="2.81113"/>
<line x1="1041.52" y1="5.62187" x2="1041.52" y2="268.462" stroke="black" stroke-width="2.81113"/>
<line x1="1074.22" y1="5.02478" x2="1074.22" y2="267.865" stroke="black" stroke-width="2.81113"/>
<line x1="1567.61" y1="2.81075" x2="1567.61" y2="265.651" stroke="black" stroke-width="6.43046"/>
<circle cx="143.613" cy="105.293" r="14.6706" fill="#D9D9D9" stroke="black" stroke-width="2.81113"/>
<ellipse cx="672.286" cy="27.3271" rx="12.2258" ry="12.0608" fill="#131313"/>
<ellipse cx="696.738" cy="27.3271" rx="12.2258" ry="12.0608" fill="#131313"/>
<ellipse cx="721.19" cy="27.3271" rx="12.2258" ry="12.0608" fill="#131313"/>
<ellipse cx="745.642" cy="27.3271" rx="12.2258" ry="12.0608" fill="#131313"/>
<ellipse cx="770.092" cy="27.3271" rx="12.2258" ry="12.0608" fill="#131313"/>
<ellipse cx="794.544" cy="27.3271" rx="12.2258" ry="12.0608" fill="#131313"/>
<ellipse cx="818.996" cy="27.3271" rx="12.2258" ry="12.0608" fill="#131313"/>
<ellipse cx="704.889" cy="51.4496" rx="12.2258" ry="12.0608" fill="#131313"/>
<ellipse cx="729.341" cy="51.4496" rx="12.2258" ry="12.0608" fill="#131313"/>
<ellipse cx="753.792" cy="51.4482" rx="12.2258" ry="12.0608" fill="#131313"/>
<ellipse cx="778.243" cy="51.4496" rx="12.2258" ry="12.0608" fill="#131313"/>
<ellipse cx="802.695" cy="51.4496" rx="12.2258" ry="12.0608" fill="#131313"/>
<ellipse cx="827.146" cy="51.4496" rx="12.2258" ry="12.0608" fill="#131313"/>
<ellipse cx="655.986" cy="75.5706" rx="12.2258" ry="12.0608" fill="#131313"/>
<ellipse cx="680.438" cy="75.5706" rx="12.2258" ry="12.0608" fill="#131313"/>
<ellipse cx="704.889" cy="75.5706" rx="12.2258" ry="12.0608" fill="#131313"/>
<ellipse cx="729.341" cy="75.5706" rx="12.2258" ry="12.0608" fill="#131313"/>
<ellipse cx="753.792" cy="75.5706" rx="12.2258" ry="12.0608" fill="#131313"/>
<ellipse cx="778.243" cy="75.5706" rx="12.2258" ry="12.0608" fill="#131313"/>
<ellipse cx="802.695" cy="75.5706" rx="12.2258" ry="12.0608" fill="#131313"/>
<ellipse cx="827.146" cy="75.5706" rx="12.2258" ry="12.0608" fill="#131313"/>
<ellipse cx="851.598" cy="75.5706" rx="12.2258" ry="12.0608" fill="#131313"/>
<ellipse cx="655.986" cy="99.6917" rx="12.2258" ry="12.0608" fill="#131313"/>
<ellipse cx="680.438" cy="99.6917" rx="12.2258" ry="12.0608" fill="#131313"/>
<ellipse cx="605.971" cy="76.6673" rx="12.2258" ry="12.0608" fill="#131313"/>
<ellipse cx="630.423" cy="76.6673" rx="12.2258" ry="12.0608" fill="#131313"/>
<ellipse cx="605.971" cy="100.788" rx="12.2258" ry="12.0608" fill="#131313"/>
<ellipse cx="630.423" cy="100.788" rx="12.2258" ry="12.0608" fill="#131313"/>
<ellipse cx="704.889" cy="99.6917" rx="12.2258" ry="12.0608" fill="#131313"/>
<ellipse cx="729.341" cy="99.6917" rx="12.2258" ry="12.0608" fill="#131313"/>
<ellipse cx="753.792" cy="99.6917" rx="12.2258" ry="12.0608" fill="#131313"/>
<ellipse cx="778.243" cy="99.6917" rx="12.2258" ry="12.0608" fill="#131313"/>
<ellipse cx="802.695" cy="99.6917" rx="12.2258" ry="12.0608" fill="#131313"/>
<ellipse cx="827.146" cy="99.6917" rx="12.2258" ry="12.0608" fill="#131313"/>
<ellipse cx="851.598" cy="99.6917" rx="12.2258" ry="12.0608" fill="#131313"/>
<ellipse cx="1548.03" cy="143.076" rx="12.2258" ry="12.0608" fill="#131313"/>
<ellipse cx="1525.52" cy="194.519" rx="12.2258" ry="12.0608" fill="#131313"/>
<ellipse cx="1474.08" cy="168.798" rx="12.2258" ry="12.0608" fill="#131313"/>
<ellipse cx="1525.52" cy="220.242" rx="12.2258" ry="12.0608" fill="#131313"/>
<ellipse cx="1516.02" cy="46.6195" rx="12.2258" ry="12.0608" fill="#131313"/>
<ellipse cx="1540.48" cy="46.6195" rx="12.2258" ry="12.0608" fill="#131313"/>
<ellipse cx="1564.93" cy="46.6195" rx="12.2258" ry="12.0608" fill="#131313"/>
<ellipse cx="1499.8" cy="220.242" rx="12.2258" ry="12.0608" fill="#131313"/>
<ellipse cx="1474.08" cy="194.519" rx="12.2258" ry="12.0608" fill="#131313"/>
<ellipse cx="1474.08" cy="220.242" rx="12.2258" ry="12.0608" fill="#131313"/>
<ellipse cx="1524.17" cy="70.7419" rx="12.2258" ry="12.0608" fill="#131313"/>
<ellipse cx="1548.63" cy="70.7419" rx="12.2258" ry="12.0608" fill="#131313"/>
<ellipse cx="1573.08" cy="70.7419" rx="12.2258" ry="12.0608" fill="#131313"/>
<ellipse cx="1525.52" cy="168.798" rx="12.2258" ry="12.0608" fill="#131313"/>
<ellipse cx="1548.03" cy="194.519" rx="12.2258" ry="12.0608" fill="#131313"/>
<ellipse cx="1451.57" cy="94.8479" rx="12.2258" ry="12.0608" fill="#131313"/>
<ellipse cx="1476.03" cy="94.8479" rx="12.2258" ry="12.0608" fill="#131313"/>
<ellipse cx="1596.09" cy="143.241" rx="12.2258" ry="12.0608" transform="rotate(90 1596.09 143.241)" fill="#131313"/>
<ellipse cx="1596.09" cy="167.693" rx="12.2258" ry="12.0608" transform="rotate(90 1596.09 167.693)" fill="#131313"/>
<ellipse cx="1599.31" cy="194.684" rx="12.2258" ry="12.0608" transform="rotate(90 1599.31 194.684)" fill="#131313"/>
<ellipse cx="1599.31" cy="219.136" rx="12.2258" ry="12.0608" transform="rotate(90 1599.31 219.136)" fill="#131313"/>
<ellipse cx="1499.73" cy="94.8616" rx="12.2258" ry="12.0608" fill="#131313"/>
<ellipse cx="1524.17" cy="94.8616" rx="12.2258" ry="12.0608" fill="#131313"/>
<ellipse cx="1548.63" cy="94.8616" rx="12.2258" ry="12.0608" fill="#131313"/>
<ellipse cx="1573.08" cy="94.8616" rx="12.2258" ry="12.0608" fill="#131313"/>
<ellipse cx="1597.53" cy="94.8616" rx="12.2258" ry="12.0608" fill="#131313"/>
<ellipse cx="1499.8" cy="168.798" rx="12.2258" ry="12.0608" fill="#131313"/>
<ellipse cx="1499.8" cy="194.519" rx="12.2258" ry="12.0608" fill="#131313"/>
<ellipse cx="1525.52" cy="143.076" rx="12.2258" ry="12.0608" fill="#131313"/>
<ellipse cx="1548.03" cy="168.798" rx="12.2258" ry="12.0608" fill="#131313"/>
<ellipse cx="1499.8" cy="143.076" rx="12.2258" ry="12.0608" fill="#131313"/>
<ellipse cx="1474.08" cy="143.076" rx="12.2258" ry="12.0608" fill="#131313"/>
<ellipse cx="1499.8" cy="69.1264" rx="12.2258" ry="12.0608" fill="#131313"/>
<ellipse cx="1451.57" cy="181.659" rx="12.2258" ry="12.0608" fill="#131313"/>
<ellipse cx="1548.03" cy="220.242" rx="12.2258" ry="12.0608" fill="#131313"/>
<ellipse cx="1475.27" cy="118.984" rx="12.2258" ry="12.0608" fill="#131313"/>
<ellipse cx="1499.73" cy="118.984" rx="12.2258" ry="12.0608" fill="#131313"/>
<ellipse cx="1524.17" cy="118.984" rx="12.2258" ry="12.0608" fill="#131313"/>
<ellipse cx="1548.63" cy="118.984" rx="12.2258" ry="12.0608" fill="#131313"/>
<ellipse cx="1573.08" cy="118.984" rx="12.2258" ry="12.0608" fill="#131313"/>
<ellipse cx="1597.53" cy="118.984" rx="12.2258" ry="12.0608" fill="#131313"/>
<ellipse cx="753.792" cy="168.037" rx="12.2258" ry="12.0608" fill="#131313"/>
<ellipse cx="802.695" cy="168.037" rx="12.2258" ry="12.0608" fill="#131313"/>
<ellipse cx="778.243" cy="168.037" rx="12.2258" ry="12.0608" fill="#131313"/>
<ellipse cx="827.146" cy="168.037" rx="12.2258" ry="12.0608" fill="#131313"/>
<ellipse cx="851.598" cy="168.037" rx="12.2258" ry="12.0608" fill="#131313"/>
<ellipse cx="680.438" cy="168.037" rx="12.2258" ry="12.0608" fill="#131313"/>
<ellipse cx="655.986" cy="168.037" rx="12.2258" ry="12.0608" fill="#131313"/>
<ellipse cx="704.889" cy="168.037" rx="12.2258" ry="12.0608" fill="#131313"/>
<ellipse cx="729.341" cy="168.037" rx="12.2258" ry="12.0608" fill="#131313"/>
<ellipse cx="753.792" cy="192.158" rx="12.2258" ry="12.0608" fill="#131313"/>
<ellipse cx="802.695" cy="192.158" rx="12.2258" ry="12.0608" fill="#131313"/>
<ellipse cx="778.243" cy="192.158" rx="12.2258" ry="12.0608" fill="#131313"/>
<ellipse cx="827.146" cy="192.158" rx="12.2258" ry="12.0608" fill="#131313"/>
<ellipse cx="851.598" cy="192.158" rx="12.2258" ry="12.0608" fill="#131313"/>
<ellipse cx="831.037" cy="214.818" rx="12.2258" ry="12.0608" fill="#131313"/>
<ellipse cx="805.315" cy="214.819" rx="12.2258" ry="12.0608" fill="#131313"/>
<ellipse cx="705.642" cy="214.818" rx="12.2258" ry="12.0608" fill="#131313"/>
<ellipse cx="731.365" cy="214.819" rx="12.2258" ry="12.0608" fill="#131313"/>
<ellipse cx="753.871" cy="214.818" rx="12.2258" ry="12.0608" fill="#131313"/>
<ellipse cx="779.594" cy="214.818" rx="12.2258" ry="12.0608" fill="#131313"/>
<ellipse cx="680.438" cy="216.281" rx="12.2258" ry="12.0608" fill="#131313"/>
<ellipse cx="679.921" cy="241.134" rx="12.2258" ry="12.0608" fill="#131313"/>
<ellipse cx="805.315" cy="241.134" rx="12.2258" ry="12.0608" fill="#131313"/>
<ellipse cx="831.037" cy="241.134" rx="12.2258" ry="12.0608" fill="#131313"/>
<ellipse cx="680.438" cy="192.158" rx="12.2258" ry="12.0608" fill="#131313"/>
<ellipse cx="655.986" cy="191.793" rx="12.2258" ry="12.0608" fill="#131313"/>
<ellipse cx="631.692" cy="168.769" rx="12.2258" ry="12.0608" fill="#131313"/>
<ellipse cx="631.692" cy="192.524" rx="12.2258" ry="12.0608" fill="#131313"/>
<ellipse cx="655.986" cy="214.819" rx="12.2258" ry="12.0608" fill="#131313"/>
<ellipse cx="654.199" cy="241.134" rx="12.2258" ry="12.0608" fill="#131313"/>
<ellipse cx="631.692" cy="215.548" rx="12.2258" ry="12.0608" fill="#131313"/>
<ellipse cx="631.692" cy="241.134" rx="12.2258" ry="12.0608" fill="#131313"/>
<ellipse cx="605.971" cy="168.768" rx="12.2258" ry="12.0608" fill="#131313"/>
<ellipse cx="605.971" cy="192.889" rx="12.2258" ry="12.0608" fill="#131313"/>
<ellipse cx="704.889" cy="192.158" rx="12.2258" ry="12.0608" fill="#131313"/>
<ellipse cx="729.341" cy="192.158" rx="12.2258" ry="12.0608" fill="#131313"/>
<rect x="593.744" y="111.724" width="270.079" height="45.0132" fill="#A3A4A8"/>
<rect x="600.175" y="118.155" width="254.003" height="32.1523" rx="16.0761" fill="#B71A1B"/>
<rect x="684.574" y="228.277" width="114.141" height="20.899" rx="5.62665" fill="url(#paint0_linear_470_48444)" stroke="black" stroke-width="1.60761"/>
<rect x="172.55" y="108.509" width="73.9502" height="45.0132" fill="white"/>
<rect x="172.55" y="50.6356" width="73.9502" height="45.0132" fill="white"/>
<rect x="1066.38" y="21.698" width="22.5066" height="73.9502" fill="url(#paint1_linear_470_48444)"/>
<rect x="1066.38" y="172.814" width="22.5066" height="73.9502" fill="url(#paint2_linear_470_48444)"/>
<line x1="1367.61" y1="5.62628" x2="1366.81" y2="262.844" stroke="black" stroke-width="2.81113"/>
<rect x="1358.97" y="24.9127" width="22.5066" height="73.9502" fill="url(#paint3_linear_470_48444)"/>
<rect x="1358.97" y="176.029" width="22.5066" height="73.9502" fill="url(#paint4_linear_470_48444)"/>
<rect x="1075.26" y="95.5776" width="25.3001" height="77.306" rx="6.43046" fill="url(#paint5_linear_470_48444)"/>
<mask id="path-137-inside-1_470_48444" fill="white">
<rect x="1100.56" y="104.011" width="22.489" height="61.8448" rx="1.60761"/>
</mask>
<rect x="1100.56" y="104.011" width="22.489" height="61.8448" rx="1.60761" fill="#BDBFC4" stroke="#796E6A" stroke-width="5.62225" mask="url(#path-137-inside-1_470_48444)"/>
<rect x="1089.31" y="99.7943" width="7.02782" height="68.8726" rx="3.21523" fill="#FCFCFC"/>
<rect x="1392.91" y="98.3891" width="25.3001" height="77.306" rx="6.43046" fill="url(#paint6_linear_470_48444)"/>
<mask id="path-140-inside-2_470_48444" fill="white">
<rect x="1418.21" y="106.823" width="22.489" height="61.8448" rx="1.60761"/>
</mask>
<rect x="1418.21" y="106.823" width="22.489" height="61.8448" rx="1.60761" fill="#BDBFC4" stroke="#796E6A" stroke-width="5.62225" mask="url(#path-140-inside-2_470_48444)"/>
<rect x="1406.97" y="102.606" width="7.02782" height="68.8726" rx="3.21523" fill="#FCFCFC"/>
<rect x="1222.84" y="5.62187" width="25.3001" height="257.218" fill="url(#paint7_linear_470_48444)"/>
<rect x="1569.98" y="5.81404" width="30.9224" height="260.029" fill="#281C18"/>
<rect x="1569.98" y="5.81404" width="25.3001" height="257.218" fill="url(#paint8_linear_470_48444)"/>
<rect x="1570.01" y="81.5223" width="25.3001" height="104.012" rx="12.6501" fill="#D9D9D9"/>
<rect x="-1.40556" y="1.40556" width="122.029" height="189.335" rx="5.33611" transform="matrix(-1 0 0 1 1742.64 15.4605)" fill="#626060" stroke="black" stroke-width="2.81113"/>
<path d="M1721.45 159.57L1692.64 186.59H1644.62V39.4789H1692.64L1721.45 72.5039V159.57Z" fill="#111110" stroke="black" stroke-width="2.81113"/>
<rect width="24.0077" height="18.0137" rx="3.37084" transform="matrix(-1 0 0 1 1678.23 69.5023)" fill="#D9D9D9"/>
<rect width="24.0077" height="18.0137" rx="3.37084" transform="matrix(-1 0 0 1 1678.23 141.557)" fill="#D9D9D9"/>
<rect width="24.0077" height="18.0137" rx="3.37084" transform="matrix(-1 0 0 1 1707.04 105.53)" fill="#D9D9D9"/>
<circle cx="1752.14" cy="116.064" r="6.43045" fill="#808080"/>
<g clip-path="url(#clip0_470_48444)">
<path d="M289.822 32.091H292.163V38.6008C292.163 41.9052 290.341 43.8004 287.169 43.8004C284.029 43.8004 282.225 41.9381 282.225 38.6915V32.0992H284.565V38.6173C284.565 40.5455 285.513 41.5756 287.202 41.5756C288.891 41.5756 289.822 40.5703 289.822 38.6997V32.091ZM276.638 36.7385H271.348V32.091H269.007V43.6274H271.348V38.9387H276.63V43.6274H278.97V32.091H276.63V36.7385H276.638ZM335.243 32.091V43.6109H337.55V32.091H335.243ZM326.055 38.6585H330.315V36.5572H326.055V34.1923H332.235V32.0992H323.748V43.6192H332.458V41.5179H326.055V38.6585ZM316.875 40.0182L314.255 32.0828H312.343L309.723 40.0182L307.176 32.091H304.688L308.709 43.6192H310.645L313.266 36.0463L315.886 43.6192H317.839L321.852 32.091H319.421L316.875 40.0182ZM300.526 32.1569L305.561 43.6192H303.106L302.067 41.2212H296.785L296.711 41.386L295.739 43.6192H293.349L298.433 32.091H300.477L300.526 32.1569ZM301.087 38.8645L299.422 34.9998L297.766 38.8645L297.651 39.1282H301.194L301.087 38.8645Z" fill="black"/>
</g>
<path d="M73.0898 0.000411987H11.245C5.03483 0.000411987 0.000488281 2.38051 0.000488281 5.3165V263.147C0.000488281 266.083 5.03483 268.463 11.245 268.463H73.0898C79.3 268.463 84.3343 266.083 84.3343 263.147V5.3165C84.3343 2.38051 79.3 0.000411987 73.0898 0.000411987Z" fill="#28282A"/>
<path d="M56.2229 10.6327H29.5172C23.307 10.6327 18.2727 13.0128 18.2727 15.9488V17.2779C18.2727 20.2138 23.307 22.5939 29.5172 22.5939H56.2229C62.4331 22.5939 67.4674 20.2138 67.4674 17.2779V15.9488C67.4674 13.0128 62.4331 10.6327 56.2229 10.6327Z" fill="white"/>
<path d="M42.87 42.5287C47.1395 42.5287 50.6006 40.8924 50.6006 38.8739C50.6006 36.8554 47.1395 35.2191 42.87 35.2191C38.6005 35.2191 35.1394 36.8554 35.1394 38.8739C35.1394 40.8924 38.6005 42.5287 42.87 42.5287Z" fill="white"/>
<path d="M42.87 199.705C47.1395 199.705 50.6006 198.068 50.6006 196.05C50.6006 194.031 47.1395 192.395 42.87 192.395C38.6005 192.395 35.1394 194.031 35.1394 196.05C35.1394 198.068 38.6005 199.705 42.87 199.705Z" fill="white"/>
<path d="M49.195 65.1183C49.195 63.4668 46.3632 62.128 42.87 62.128C39.3767 62.128 36.5449 63.4668 36.5449 65.1183V82.3956C36.5449 84.0471 39.3767 85.3859 42.87 85.3859C46.3632 85.3859 49.195 84.0471 49.195 82.3956V65.1183Z" fill="white"/>
<path d="M39.3561 248.527H44.9783C47.9606 248.527 50.8207 249.087 52.9294 250.084C55.0382 251.081 56.2228 252.433 56.2228 253.843V268.462H28.1116V253.843C28.1116 252.433 29.2963 251.081 31.405 250.084C33.5138 249.087 36.3739 248.527 39.3561 248.527Z" fill="white"/>
<path d="M1886.27 0.000411987H1824.42C1818.21 0.000411987 1813.18 2.38051 1813.18 5.3165V263.147C1813.18 266.083 1818.21 268.463 1824.42 268.463H1886.27C1892.48 268.463 1897.51 266.083 1897.51 263.147V5.3165C1897.51 2.38051 1892.48 0.000411987 1886.27 0.000411987Z" fill="#28282A"/>
<path d="M1852.53 248.527H1858.15C1861.14 248.527 1864 249.087 1866.11 250.084C1868.21 251.081 1869.4 252.433 1869.4 253.843V268.462H1841.29V253.843C1841.29 252.433 1842.47 251.081 1844.58 250.084C1846.69 249.087 1849.55 248.527 1852.53 248.527Z" fill="white"/>
<path d="M1869.4 10.6327H1842.69C1836.48 10.6327 1831.45 13.0128 1831.45 15.9488V17.2779C1831.45 20.2138 1836.48 22.5939 1842.69 22.5939H1869.4C1875.61 22.5939 1880.64 20.2138 1880.64 17.2779V15.9488C1880.64 13.0128 1875.61 10.6327 1869.4 10.6327Z" fill="white"/>
<path d="M1855.34 93.7398C1863.88 93.7398 1870.8 87.0081 1870.8 78.7042C1870.8 70.4002 1863.88 63.6685 1855.34 63.6685C1846.8 63.6685 1839.88 70.4002 1839.88 78.7042C1839.88 87.0081 1846.8 93.7398 1855.34 93.7398Z" fill="#ACADAF"/>
<path d="M1855.34 93.0571C1863.49 93.0571 1870.1 86.6314 1870.1 78.7049C1870.1 70.7784 1863.49 64.3527 1855.34 64.3527C1847.19 64.3527 1840.59 70.7784 1840.59 78.7049C1840.59 86.6314 1847.19 93.0571 1855.34 93.0571Z" stroke="#707070" stroke-width="1.40104"/>
<path d="M1855.34 86.8898C1860 86.8898 1863.78 83.2179 1863.78 78.6885C1863.78 74.1591 1860 70.4872 1855.34 70.4872C1850.69 70.4872 1846.91 74.1591 1846.91 78.6885C1846.91 83.2179 1850.69 86.8898 1855.34 86.8898Z" fill="white"/>
<path d="M1855.34 86.205C1859.61 86.205 1863.07 82.8391 1863.07 78.6872C1863.07 74.5352 1859.61 71.1693 1855.34 71.1693C1851.07 71.1693 1847.61 74.5352 1847.61 78.6872C1847.61 82.8391 1851.07 86.205 1855.34 86.205Z" stroke="#707070" stroke-width="1.40104"/>
<defs>
<linearGradient id="paint0_linear_470_48444" x1="683.771" y1="238.726" x2="799.519" y2="238.726" gradientUnits="userSpaceOnUse">
<stop stop-color="white"/>
<stop offset="1" stop-color="#999999"/>
</linearGradient>
<linearGradient id="paint1_linear_470_48444" x1="1069.6" y1="58.6731" x2="1087.28" y2="58.6731" gradientUnits="userSpaceOnUse">
<stop offset="0.0336538" stop-color="#D9D9D9"/>
<stop offset="0.54212" stop-color="#A5A5A5"/>
<stop offset="1" stop-color="#737373"/>
</linearGradient>
<linearGradient id="paint2_linear_470_48444" x1="1069.6" y1="209.789" x2="1087.28" y2="209.789" gradientUnits="userSpaceOnUse">
<stop offset="0.0336538" stop-color="#D9D9D9"/>
<stop offset="0.54212" stop-color="#A5A5A5"/>
<stop offset="1" stop-color="#737373"/>
</linearGradient>
<linearGradient id="paint3_linear_470_48444" x1="1362.18" y1="61.8878" x2="1379.87" y2="61.8878" gradientUnits="userSpaceOnUse">
<stop offset="0.0336538" stop-color="#D9D9D9"/>
<stop offset="0.54212" stop-color="#A5A5A5"/>
<stop offset="1" stop-color="#737373"/>
</linearGradient>
<linearGradient id="paint4_linear_470_48444" x1="1362.18" y1="213.004" x2="1379.87" y2="213.004" gradientUnits="userSpaceOnUse">
<stop offset="0.0336538" stop-color="#D9D9D9"/>
<stop offset="0.54212" stop-color="#A5A5A5"/>
<stop offset="1" stop-color="#737373"/>
</linearGradient>
<linearGradient id="paint5_linear_470_48444" x1="1078.87" y1="134.231" x2="1098.75" y2="134.231" gradientUnits="userSpaceOnUse">
<stop offset="0.0336538" stop-color="#6D6361"/>
<stop offset="0.54212" stop-color="#8F827C"/>
<stop offset="1" stop-color="#948A87"/>
</linearGradient>
<linearGradient id="paint6_linear_470_48444" x1="1396.53" y1="137.042" x2="1416.41" y2="137.042" gradientUnits="userSpaceOnUse">
<stop offset="0.0336538" stop-color="#6D6361"/>
<stop offset="0.54212" stop-color="#8F827C"/>
<stop offset="1" stop-color="#948A87"/>
</linearGradient>
<linearGradient id="paint7_linear_470_48444" x1="1235.49" y1="334.524" x2="1235.49" y2="-44.2756" gradientUnits="userSpaceOnUse">
<stop/>
<stop offset="0.534435" stop-color="#E4E4E4"/>
<stop offset="1"/>
</linearGradient>
<linearGradient id="paint8_linear_470_48444" x1="1582.63" y1="334.716" x2="1582.63" y2="-44.0835" gradientUnits="userSpaceOnUse">
<stop/>
<stop offset="0.534435" stop-color="#E4E4E4"/>
<stop offset="1"/>
</linearGradient>
<clipPath id="clip0_470_48444">
<rect width="68.5427" height="45.3484" fill="white" transform="translate(269.007 15.2673)"/>
</clipPath>
</defs>
</svg>
