<svg width="183" height="230" viewBox="0 0 183 230" fill="none" xmlns="http://www.w3.org/2000/svg">
<path d="M0.333252 68C0.333252 65.7909 2.12411 64 4.33325 64H46.3333C48.5424 64 50.3333 65.7909 50.3333 68V210H0.333252V68Z" fill="#2699FB" fill-opacity="0.2"/>
<path d="M20.6472 224.03C20.6472 224.51 20.5872 224.94 20.4672 225.32C20.3512 225.7 20.1772 226.022 19.9452 226.286C19.7172 226.546 19.4352 226.746 19.0992 226.886C18.7632 227.026 18.3772 227.096 17.9412 227.096C17.5452 227.096 17.1412 227.04 16.7292 226.928C16.7372 226.812 16.7472 226.698 16.7592 226.586C16.7712 226.47 16.7812 226.356 16.7892 226.244C16.7972 226.176 16.8212 226.122 16.8612 226.082C16.9052 226.038 16.9712 226.016 17.0592 226.016C17.1312 226.016 17.2252 226.034 17.3412 226.07C17.4612 226.106 17.6212 226.124 17.8212 226.124C18.0852 226.124 18.3212 226.084 18.5292 226.004C18.7372 225.924 18.9112 225.8 19.0512 225.632C19.1912 225.464 19.2972 225.25 19.3692 224.99C19.4452 224.726 19.4832 224.414 19.4832 224.054V218.402H20.6472V224.03ZM25.565 224.264C25.073 224.28 24.653 224.32 24.305 224.384C23.961 224.444 23.679 224.524 23.459 224.624C23.243 224.724 23.085 224.842 22.985 224.978C22.889 225.114 22.841 225.266 22.841 225.434C22.841 225.594 22.867 225.732 22.919 225.848C22.971 225.964 23.041 226.06 23.129 226.136C23.221 226.208 23.327 226.262 23.447 226.298C23.571 226.33 23.703 226.346 23.843 226.346C24.031 226.346 24.203 226.328 24.359 226.292C24.515 226.252 24.661 226.196 24.797 226.124C24.937 226.052 25.069 225.966 25.193 225.866C25.321 225.766 25.445 225.652 25.565 225.524V224.264ZM22.115 221.78C22.451 221.456 22.813 221.214 23.201 221.054C23.589 220.894 24.019 220.814 24.491 220.814C24.831 220.814 25.133 220.87 25.397 220.982C25.661 221.094 25.883 221.25 26.063 221.45C26.243 221.65 26.379 221.892 26.471 222.176C26.563 222.46 26.609 222.772 26.609 223.112V227H26.135C26.031 227 25.951 226.984 25.895 226.952C25.839 226.916 25.795 226.848 25.763 226.748L25.643 226.172C25.483 226.32 25.327 226.452 25.175 226.568C25.023 226.68 24.863 226.776 24.695 226.856C24.527 226.932 24.347 226.99 24.155 227.03C23.967 227.074 23.757 227.096 23.525 227.096C23.289 227.096 23.067 227.064 22.859 227C22.651 226.932 22.469 226.832 22.313 226.7C22.161 226.568 22.039 226.402 21.947 226.202C21.859 225.998 21.815 225.758 21.815 225.482C21.815 225.242 21.881 225.012 22.013 224.792C22.145 224.568 22.359 224.37 22.655 224.198C22.951 224.026 23.337 223.886 23.813 223.778C24.289 223.666 24.873 223.602 25.565 223.586V223.112C25.565 222.64 25.463 222.284 25.259 222.044C25.055 221.8 24.757 221.678 24.365 221.678C24.101 221.678 23.879 221.712 23.699 221.78C23.523 221.844 23.369 221.918 23.237 222.002C23.109 222.082 22.997 222.156 22.901 222.224C22.809 222.288 22.717 222.32 22.625 222.32C22.553 222.32 22.491 222.302 22.439 222.266C22.387 222.226 22.343 222.178 22.307 222.122L22.115 221.78ZM29.2439 221.804C29.3759 221.656 29.5159 221.522 29.6639 221.402C29.8119 221.282 29.9679 221.18 30.1319 221.096C30.2999 221.008 30.4759 220.942 30.6599 220.898C30.8479 220.85 31.0499 220.826 31.2659 220.826C31.5979 220.826 31.8899 220.882 32.1419 220.994C32.3979 221.102 32.6099 221.258 32.7779 221.462C32.9499 221.662 33.0799 221.904 33.1679 222.188C33.2559 222.472 33.2999 222.786 33.2999 223.13V227H32.2259V223.13C32.2259 222.67 32.1199 222.314 31.9079 222.062C31.6999 221.806 31.3819 221.678 30.9539 221.678C30.6379 221.678 30.3419 221.754 30.0659 221.906C29.7939 222.058 29.5419 222.264 29.3099 222.524V227H28.2359V220.922H28.8779C29.0299 220.922 29.1239 220.996 29.1599 221.144L29.2439 221.804Z" fill="#95989A"/>
<path d="M66.3333 30C66.3333 27.7909 68.1241 26 70.3333 26H112.333C114.542 26 116.333 27.7909 116.333 30V210H66.3333V30Z" fill="#2699FB" fill-opacity="0.2"/>
<path d="M83.939 219.35V222.356H87.473V223.304H83.939V227H82.775V218.402H88.073V219.35H83.939ZM92.8488 223.298C92.8488 223.05 92.8128 222.824 92.7408 222.62C92.6728 222.412 92.5708 222.234 92.4348 222.086C92.3028 221.934 92.1408 221.818 91.9488 221.738C91.7568 221.654 91.5388 221.612 91.2948 221.612C90.7828 221.612 90.3768 221.762 90.0768 222.062C89.7808 222.358 89.5968 222.77 89.5248 223.298H92.8488ZM93.7128 226.148C93.5808 226.308 93.4228 226.448 93.2388 226.568C93.0548 226.684 92.8568 226.78 92.6448 226.856C92.4368 226.932 92.2208 226.988 91.9968 227.024C91.7728 227.064 91.5508 227.084 91.3308 227.084C90.9108 227.084 90.5228 227.014 90.1668 226.874C89.8148 226.73 89.5088 226.522 89.2488 226.25C88.9928 225.974 88.7928 225.634 88.6488 225.23C88.5048 224.826 88.4328 224.362 88.4328 223.838C88.4328 223.414 88.4968 223.018 88.6248 222.65C88.7568 222.282 88.9448 221.964 89.1888 221.696C89.4328 221.424 89.7308 221.212 90.0828 221.06C90.4348 220.904 90.8308 220.826 91.2708 220.826C91.6348 220.826 91.9708 220.888 92.2788 221.012C92.5908 221.132 92.8588 221.308 93.0828 221.54C93.3108 221.768 93.4888 222.052 93.6168 222.392C93.7448 222.728 93.8088 223.112 93.8088 223.544C93.8088 223.712 93.7908 223.824 93.7548 223.88C93.7188 223.936 93.6508 223.964 93.5508 223.964H89.4888C89.5008 224.348 89.5528 224.682 89.6448 224.966C89.7408 225.25 89.8728 225.488 90.0408 225.68C90.2088 225.868 90.4088 226.01 90.6408 226.106C90.8728 226.198 91.1328 226.244 91.4208 226.244C91.6888 226.244 91.9188 226.214 92.1108 226.154C92.3068 226.09 92.4748 226.022 92.6148 225.95C92.7548 225.878 92.8708 225.812 92.9628 225.752C93.0588 225.688 93.1408 225.656 93.2088 225.656C93.2968 225.656 93.3648 225.69 93.4128 225.758L93.7128 226.148ZM96.1947 225.536C96.3907 225.8 96.6047 225.986 96.8367 226.094C97.0727 226.202 97.3307 226.256 97.6107 226.256C98.1827 226.256 98.6207 226.054 98.9247 225.65C99.2287 225.246 99.3807 224.644 99.3807 223.844C99.3807 223.1 99.2447 222.554 98.9727 222.206C98.7047 221.854 98.3207 221.678 97.8207 221.678C97.4727 221.678 97.1687 221.758 96.9087 221.918C96.6527 222.078 96.4147 222.304 96.1947 222.596V225.536ZM96.1947 221.798C96.4507 221.502 96.7387 221.266 97.0587 221.09C97.3827 220.914 97.7547 220.826 98.1747 220.826C98.5307 220.826 98.8507 220.894 99.1347 221.03C99.4227 221.166 99.6667 221.364 99.8667 221.624C100.067 221.88 100.219 222.192 100.323 222.56C100.431 222.928 100.485 223.342 100.485 223.802C100.485 224.294 100.425 224.742 100.305 225.146C100.185 225.55 100.011 225.896 99.7827 226.184C99.5587 226.468 99.2847 226.69 98.9607 226.85C98.6367 227.006 98.2727 227.084 97.8687 227.084C97.4687 227.084 97.1307 227.01 96.8547 226.862C96.5827 226.71 96.3447 226.496 96.1407 226.22L96.0867 226.772C96.0547 226.924 95.9627 227 95.8107 227H95.1207V218.162H96.1947V221.798Z" fill="#95989A"/>
<path d="M132.333 6.99999C132.333 4.79086 134.124 3 136.333 3H178.333C180.542 3 182.333 4.79086 182.333 7V210H132.333V6.99999Z" fill="#2699FB"/>
<path d="M156.725 218.402V227H155.705V220.682C155.705 220.598 155.707 220.508 155.711 220.412C155.719 220.316 155.727 220.218 155.735 220.118L152.783 225.494C152.691 225.674 152.551 225.764 152.363 225.764H152.195C152.007 225.764 151.867 225.674 151.775 225.494L148.763 220.094C148.787 220.306 148.799 220.502 148.799 220.682V227H147.779V218.402H148.637C148.741 218.402 148.821 218.412 148.877 218.432C148.933 218.452 148.987 218.508 149.039 218.6L152.009 223.892C152.057 223.988 152.103 224.088 152.147 224.192C152.195 224.296 152.239 224.402 152.279 224.51C152.319 224.402 152.361 224.296 152.405 224.192C152.449 224.084 152.497 223.982 152.549 223.886L155.465 218.6C155.513 218.508 155.565 218.452 155.621 218.432C155.681 218.412 155.763 218.402 155.867 218.402H156.725ZM161.79 224.264C161.298 224.28 160.878 224.32 160.53 224.384C160.186 224.444 159.904 224.524 159.684 224.624C159.468 224.724 159.31 224.842 159.21 224.978C159.114 225.114 159.066 225.266 159.066 225.434C159.066 225.594 159.092 225.732 159.144 225.848C159.196 225.964 159.266 226.06 159.354 226.136C159.446 226.208 159.552 226.262 159.672 226.298C159.796 226.33 159.928 226.346 160.068 226.346C160.256 226.346 160.428 226.328 160.584 226.292C160.74 226.252 160.886 226.196 161.022 226.124C161.162 226.052 161.294 225.966 161.418 225.866C161.546 225.766 161.67 225.652 161.79 225.524V224.264ZM158.34 221.78C158.676 221.456 159.038 221.214 159.426 221.054C159.814 220.894 160.244 220.814 160.716 220.814C161.056 220.814 161.358 220.87 161.622 220.982C161.886 221.094 162.108 221.25 162.288 221.45C162.468 221.65 162.604 221.892 162.696 222.176C162.788 222.46 162.834 222.772 162.834 223.112V227H162.36C162.256 227 162.176 226.984 162.12 226.952C162.064 226.916 162.02 226.848 161.988 226.748L161.868 226.172C161.708 226.32 161.552 226.452 161.4 226.568C161.248 226.68 161.088 226.776 160.92 226.856C160.752 226.932 160.572 226.99 160.38 227.03C160.192 227.074 159.982 227.096 159.75 227.096C159.514 227.096 159.292 227.064 159.084 227C158.876 226.932 158.694 226.832 158.538 226.7C158.386 226.568 158.264 226.402 158.172 226.202C158.084 225.998 158.04 225.758 158.04 225.482C158.04 225.242 158.106 225.012 158.238 224.792C158.37 224.568 158.584 224.37 158.88 224.198C159.176 224.026 159.562 223.886 160.038 223.778C160.514 223.666 161.098 223.602 161.79 223.586V223.112C161.79 222.64 161.688 222.284 161.484 222.044C161.28 221.8 160.982 221.678 160.59 221.678C160.326 221.678 160.104 221.712 159.924 221.78C159.748 221.844 159.594 221.918 159.462 222.002C159.334 222.082 159.222 222.156 159.126 222.224C159.034 222.288 158.942 222.32 158.85 222.32C158.778 222.32 158.716 222.302 158.664 222.266C158.612 222.226 158.568 222.178 158.532 222.122L158.34 221.78ZM165.475 222.14C165.667 221.724 165.903 221.4 166.183 221.168C166.463 220.932 166.805 220.814 167.209 220.814C167.337 220.814 167.459 220.828 167.575 220.856C167.695 220.884 167.801 220.928 167.893 220.988L167.815 221.786C167.791 221.886 167.731 221.936 167.635 221.936C167.579 221.936 167.497 221.924 167.389 221.9C167.281 221.876 167.159 221.864 167.023 221.864C166.831 221.864 166.659 221.892 166.507 221.948C166.359 222.004 166.225 222.088 166.105 222.2C165.989 222.308 165.883 222.444 165.787 222.608C165.695 222.768 165.611 222.952 165.535 223.16V227H164.461V220.922H165.073C165.189 220.922 165.269 220.944 165.313 220.988C165.357 221.032 165.387 221.108 165.403 221.216L165.475 222.14Z" fill="#95989A"/>
</svg>
