<svg width="1824" height="466" viewBox="0 0 1824 466" fill="none" xmlns="http://www.w3.org/2000/svg">
<path d="M6.888 52.579C7.05133 52.579 7.17967 52.628 7.273 52.726C7.36633 52.8193 7.413 52.9407 7.413 53.09V54H0.595V53.489C0.595 53.3863 0.616 53.279 0.658 53.167C0.7 53.055 0.767667 52.9523 0.861 52.859L3.997 49.716C4.263 49.45 4.49867 49.1957 4.704 48.953C4.914 48.7103 5.09133 48.4677 5.236 48.225C5.38533 47.9823 5.49733 47.7373 5.572 47.49C5.65133 47.238 5.691 46.9743 5.691 46.699C5.691 46.433 5.649 46.1997 5.565 45.999C5.48567 45.7937 5.37367 45.6257 5.229 45.495C5.089 45.3597 4.91867 45.2593 4.718 45.194C4.522 45.124 4.305 45.089 4.067 45.089C3.83833 45.089 3.626 45.1217 3.43 45.187C3.23867 45.2523 3.066 45.3433 2.912 45.46C2.76267 45.5767 2.63667 45.7167 2.534 45.88C2.436 46.0387 2.36367 46.2137 2.317 46.405C2.247 46.5963 2.156 46.7247 2.044 46.79C1.93667 46.8553 1.778 46.8693 1.568 46.832L0.777 46.692C0.847 46.216 0.977667 45.7983 1.169 45.439C1.365 45.0797 1.61 44.781 1.904 44.543C2.198 44.3003 2.534 44.1183 2.912 43.997C3.29467 43.871 3.70767 43.808 4.151 43.808C4.599 43.808 5.00967 43.8757 5.383 44.011C5.761 44.1417 6.08533 44.3307 6.356 44.578C6.63133 44.8207 6.846 45.117 7 45.467C7.154 45.817 7.231 46.2113 7.231 46.65C7.231 47.0233 7.175 47.3687 7.063 47.686C6.95567 48.0033 6.80867 48.3067 6.622 48.596C6.43533 48.8853 6.216 49.1677 5.964 49.443C5.71667 49.7137 5.45533 49.989 5.18 50.269L2.744 52.761C2.94467 52.705 3.14533 52.6607 3.346 52.628C3.55133 52.5953 3.745 52.579 3.927 52.579H6.888ZM14.1681 50.276V46.594C14.1681 46.3 14.1891 45.978 14.2311 45.628L10.8431 50.276H14.1681ZM16.8701 50.276V51.144C16.8701 51.228 16.8421 51.3003 16.7861 51.361C16.7348 51.4217 16.6554 51.452 16.5481 51.452H15.4771V54H14.1681V51.452H9.80709C9.69976 51.452 9.60643 51.4217 9.52709 51.361C9.45243 51.2957 9.40343 51.2163 9.38009 51.123L9.22609 50.353L14.0631 43.913H15.4771V50.276H16.8701Z" fill="#95989A"/>
<path d="M50.0002 50.625H1824" stroke="#E9E9E9"/>
<path d="M6.909 110.879C7.04433 110.879 7.15167 110.919 7.231 110.998C7.31033 111.078 7.35 111.18 7.35 111.306V112.062H0.658V111.635C0.658 111.547 0.676667 111.456 0.714 111.362C0.751333 111.269 0.809667 111.183 0.889 111.103L4.102 107.876C4.368 107.606 4.61067 107.347 4.83 107.099C5.04933 106.847 5.236 106.595 5.39 106.343C5.544 106.091 5.663 105.837 5.747 105.58C5.831 105.319 5.873 105.041 5.873 104.747C5.873 104.453 5.82633 104.197 5.733 103.977C5.63967 103.753 5.51133 103.569 5.348 103.424C5.18933 103.28 5.00033 103.172 4.781 103.102C4.56167 103.028 4.326 102.99 4.074 102.99C3.81733 102.99 3.58167 103.028 3.367 103.102C3.15233 103.177 2.961 103.282 2.793 103.417C2.62967 103.548 2.492 103.704 2.38 103.886C2.268 104.068 2.18867 104.269 2.142 104.488C2.086 104.652 2.009 104.761 1.911 104.817C1.81767 104.869 1.68467 104.883 1.512 104.859L0.861 104.747C0.926333 104.29 1.05233 103.886 1.239 103.536C1.43033 103.182 1.66833 102.885 1.953 102.647C2.24233 102.409 2.57133 102.23 2.94 102.108C3.30867 101.982 3.70767 101.919 4.137 101.919C4.56167 101.919 4.95833 101.982 5.327 102.108C5.69567 102.234 6.01533 102.419 6.286 102.661C6.55667 102.899 6.769 103.191 6.923 103.536C7.077 103.882 7.154 104.274 7.154 104.712C7.154 105.086 7.098 105.433 6.986 105.755C6.874 106.073 6.72233 106.376 6.531 106.665C6.33967 106.955 6.118 107.237 5.866 107.512C5.61867 107.788 5.355 108.065 5.075 108.345L2.429 111.047C2.61567 110.996 2.80467 110.956 2.996 110.928C3.18733 110.896 3.37167 110.879 3.549 110.879H6.909ZM14.2311 108.443V104.306C14.2311 104.185 14.2358 104.052 14.2451 103.907C14.2544 103.763 14.2684 103.616 14.2871 103.466L10.6331 108.443H14.2311ZM16.8421 108.443V109.157C16.8421 109.232 16.8188 109.295 16.7721 109.346C16.7301 109.398 16.6624 109.423 16.5691 109.423H15.3231V112.062H14.2311V109.423H9.77909C9.68576 109.423 9.60409 109.398 9.53409 109.346C9.46876 109.29 9.42676 109.223 9.40809 109.143L9.28209 108.506L14.1611 102.031H15.3231V108.443H16.8421Z" fill="#95989A"/>
<path d="M50.0002 108.688H1824" stroke="#E9E9E9"/>
<path d="M6.909 168.942C7.04433 168.942 7.15167 168.982 7.231 169.061C7.31033 169.14 7.35 169.243 7.35 169.369V170.125H0.658V169.698C0.658 169.609 0.676667 169.518 0.714 169.425C0.751333 169.332 0.809667 169.245 0.889 169.166L4.102 165.939C4.368 165.668 4.61067 165.409 4.83 165.162C5.04933 164.91 5.236 164.658 5.39 164.406C5.544 164.154 5.663 163.9 5.747 163.643C5.831 163.382 5.873 163.104 5.873 162.81C5.873 162.516 5.82633 162.259 5.733 162.04C5.63967 161.816 5.51133 161.632 5.348 161.487C5.18933 161.342 5.00033 161.235 4.781 161.165C4.56167 161.09 4.326 161.053 4.074 161.053C3.81733 161.053 3.58167 161.09 3.367 161.165C3.15233 161.24 2.961 161.345 2.793 161.48C2.62967 161.611 2.492 161.767 2.38 161.949C2.268 162.131 2.18867 162.332 2.142 162.551C2.086 162.714 2.009 162.824 1.911 162.88C1.81767 162.931 1.68467 162.945 1.512 162.922L0.861 162.81C0.926333 162.353 1.05233 161.949 1.239 161.599C1.43033 161.244 1.66833 160.948 1.953 160.71C2.24233 160.472 2.57133 160.292 2.94 160.171C3.30867 160.045 3.70767 159.982 4.137 159.982C4.56167 159.982 4.95833 160.045 5.327 160.171C5.69567 160.297 6.01533 160.481 6.286 160.724C6.55667 160.962 6.769 161.254 6.923 161.599C7.077 161.944 7.154 162.336 7.154 162.775C7.154 163.148 7.098 163.496 6.986 163.818C6.874 164.135 6.72233 164.439 6.531 164.728C6.33967 165.017 6.118 165.3 5.866 165.575C5.61867 165.85 5.355 166.128 5.075 166.408L2.429 169.11C2.61567 169.059 2.80467 169.019 2.996 168.991C3.18733 168.958 3.37167 168.942 3.549 168.942H6.909ZM16.8211 165.113C16.8211 165.99 16.7254 166.751 16.5341 167.395C16.3474 168.034 16.0908 168.564 15.7641 168.984C15.4374 169.404 15.0501 169.717 14.6021 169.922C14.1588 170.127 13.6828 170.23 13.1741 170.23C12.6608 170.23 12.1824 170.127 11.7391 169.922C11.3004 169.717 10.9178 169.404 10.5911 168.984C10.2644 168.564 10.0078 168.034 9.82109 167.395C9.63443 166.751 9.54109 165.99 9.54109 165.113C9.54109 164.236 9.63443 163.475 9.82109 162.831C10.0078 162.187 10.2644 161.655 10.5911 161.235C10.9178 160.81 11.3004 160.495 11.7391 160.29C12.1824 160.085 12.6608 159.982 13.1741 159.982C13.6828 159.982 14.1588 160.085 14.6021 160.29C15.0501 160.495 15.4374 160.81 15.7641 161.235C16.0908 161.655 16.3474 162.187 16.5341 162.831C16.7254 163.475 16.8211 164.236 16.8211 165.113ZM15.5261 165.113C15.5261 164.348 15.4608 163.706 15.3301 163.188C15.2041 162.665 15.0314 162.245 14.8121 161.928C14.5974 161.611 14.3478 161.384 14.0631 161.249C13.7784 161.109 13.4821 161.039 13.1741 161.039C12.8661 161.039 12.5698 161.109 12.2851 161.249C12.0004 161.384 11.7508 161.611 11.5361 161.928C11.3214 162.245 11.1488 162.665 11.0181 163.188C10.8921 163.706 10.8291 164.348 10.8291 165.113C10.8291 165.878 10.8921 166.52 11.0181 167.038C11.1488 167.556 11.3214 167.974 11.5361 168.291C11.7508 168.608 12.0004 168.837 12.2851 168.977C12.5698 169.112 12.8661 169.18 13.1741 169.18C13.4821 169.18 13.7784 169.112 14.0631 168.977C14.3478 168.837 14.5974 168.608 14.8121 168.291C15.0314 167.974 15.2041 167.556 15.3301 167.038C15.4608 166.52 15.5261 165.878 15.5261 165.113Z" fill="#95989A"/>
<path d="M50.0002 166.75H1824" stroke="#E9E9E9"/>
<path d="M7.126 227.235V228.188H1.75V227.235H3.899V220.396C3.899 220.191 3.906 219.983 3.92 219.773L2.135 221.306C2.07433 221.358 2.01367 221.39 1.953 221.404C1.89233 221.414 1.83633 221.414 1.785 221.404C1.73367 221.395 1.68467 221.376 1.638 221.348C1.596 221.32 1.56333 221.29 1.54 221.257L1.148 220.718L4.137 218.135H5.152V227.235H7.126ZM13.1671 227.264C13.5031 227.264 13.8064 227.21 14.0771 227.102C14.3524 226.995 14.5858 226.846 14.7771 226.654C14.9731 226.463 15.1224 226.237 15.2251 225.975C15.3324 225.714 15.3861 225.429 15.3861 225.121C15.3861 224.795 15.3348 224.501 15.2321 224.239C15.1294 223.973 14.9824 223.749 14.7911 223.567C14.6044 223.381 14.3804 223.238 14.1191 223.14C13.8578 223.042 13.5708 222.993 13.2581 222.993C12.9221 222.993 12.6188 223.052 12.3481 223.168C12.0774 223.28 11.8464 223.434 11.6551 223.63C11.4684 223.822 11.3238 224.046 11.2211 224.302C11.1231 224.554 11.0741 224.818 11.0741 225.093C11.0741 225.415 11.1208 225.709 11.2141 225.975C11.3074 226.241 11.4428 226.47 11.6201 226.661C11.8021 226.853 12.0214 227.002 12.2781 227.109C12.5394 227.212 12.8358 227.264 13.1671 227.264ZM12.4391 221.915C12.3504 222.027 12.2641 222.137 12.1801 222.244C12.1008 222.347 12.0238 222.45 11.9491 222.552C12.1871 222.389 12.4484 222.263 12.7331 222.174C13.0178 222.086 13.3281 222.041 13.6641 222.041C14.0701 222.041 14.4528 222.109 14.8121 222.244C15.1714 222.375 15.4841 222.569 15.7501 222.825C16.0208 223.077 16.2354 223.39 16.3941 223.763C16.5528 224.132 16.6321 224.554 16.6321 225.03C16.6321 225.492 16.5481 225.922 16.3801 226.318C16.2121 226.715 15.9764 227.06 15.6731 227.354C15.3744 227.648 15.0128 227.879 14.5881 228.047C14.1681 228.216 13.7038 228.3 13.1951 228.3C12.6911 228.3 12.2338 228.22 11.8231 228.061C11.4124 227.898 11.0624 227.669 10.7731 227.375C10.4884 227.077 10.2668 226.717 10.1081 226.297C9.95409 225.873 9.87709 225.399 9.87709 224.876C9.87709 224.438 9.97276 223.971 10.1641 223.476C10.3601 222.977 10.6704 222.445 11.0951 221.88L13.6431 218.457C13.7084 218.373 13.7971 218.303 13.9091 218.247C14.0258 218.187 14.1588 218.156 14.3081 218.156H15.4141L12.4391 221.915Z" fill="#95989A"/>
<path d="M50.0002 224.812H1824" stroke="#E9E9E9"/>
<path d="M7.126 285.298V286.25H1.75V285.298H3.899V278.459C3.899 278.254 3.906 278.046 3.92 277.836L2.135 279.369C2.07433 279.42 2.01367 279.453 1.953 279.467C1.89233 279.476 1.83633 279.476 1.785 279.467C1.73367 279.458 1.68467 279.439 1.638 279.411C1.596 279.383 1.56333 279.353 1.54 279.32L1.148 278.781L4.137 276.198H5.152V285.298H7.126ZM16.0301 285.067C16.1654 285.067 16.2728 285.107 16.3521 285.186C16.4314 285.265 16.4711 285.368 16.4711 285.494V286.25H9.77909V285.823C9.77909 285.734 9.79776 285.643 9.83509 285.55C9.87243 285.457 9.93076 285.37 10.0101 285.291L13.2231 282.064C13.4891 281.793 13.7318 281.534 13.9511 281.287C14.1704 281.035 14.3571 280.783 14.5111 280.531C14.6651 280.279 14.7841 280.025 14.8681 279.768C14.9521 279.507 14.9941 279.229 14.9941 278.935C14.9941 278.641 14.9474 278.384 14.8541 278.165C14.7608 277.941 14.6324 277.757 14.4691 277.612C14.3104 277.467 14.1214 277.36 13.9021 277.29C13.6828 277.215 13.4471 277.178 13.1951 277.178C12.9384 277.178 12.7028 277.215 12.4881 277.29C12.2734 277.365 12.0821 277.47 11.9141 277.605C11.7508 277.736 11.6131 277.892 11.5011 278.074C11.3891 278.256 11.3098 278.457 11.2631 278.676C11.2071 278.839 11.1301 278.949 11.0321 279.005C10.9388 279.056 10.8058 279.07 10.6331 279.047L9.98209 278.935C10.0474 278.478 10.1734 278.074 10.3601 277.724C10.5514 277.369 10.7894 277.073 11.0741 276.835C11.3634 276.597 11.6924 276.417 12.0611 276.296C12.4298 276.17 12.8288 276.107 13.2581 276.107C13.6828 276.107 14.0794 276.17 14.4481 276.296C14.8168 276.422 15.1364 276.606 15.4071 276.849C15.6778 277.087 15.8901 277.379 16.0441 277.724C16.1981 278.069 16.2751 278.461 16.2751 278.9C16.2751 279.273 16.2191 279.621 16.1071 279.943C15.9951 280.26 15.8434 280.564 15.6521 280.853C15.4608 281.142 15.2391 281.425 14.9871 281.7C14.7398 281.975 14.4761 282.253 14.1961 282.533L11.5501 285.235C11.7368 285.184 11.9258 285.144 12.1171 285.116C12.3084 285.083 12.4928 285.067 12.6701 285.067H16.0301Z" fill="#95989A"/>
<path d="M50.0002 282.344H1824" stroke="#E9E9E9"/>
<path d="M4.06 343.43C4.38667 343.43 4.67833 343.386 4.935 343.297C5.19633 343.204 5.41567 343.076 5.593 342.912C5.775 342.744 5.91267 342.546 6.006 342.317C6.104 342.084 6.153 341.827 6.153 341.547C6.153 341.202 6.09467 340.908 5.978 340.665C5.866 340.418 5.712 340.217 5.516 340.063C5.32467 339.909 5.103 339.797 4.851 339.727C4.599 339.653 4.33533 339.615 4.06 339.615C3.78467 339.615 3.521 339.653 3.269 339.727C3.017 339.797 2.793 339.909 2.597 340.063C2.40567 340.217 2.25167 340.418 2.135 340.665C2.023 340.908 1.967 341.202 1.967 341.547C1.967 341.827 2.01367 342.084 2.107 342.317C2.205 342.546 2.34267 342.744 2.52 342.912C2.702 343.076 2.92133 343.204 3.178 343.297C3.43933 343.386 3.73333 343.43 4.06 343.43ZM4.06 335.135C3.76133 335.135 3.49767 335.18 3.269 335.268C3.045 335.357 2.856 335.478 2.702 335.632C2.55267 335.786 2.43833 335.966 2.359 336.171C2.28433 336.377 2.247 336.596 2.247 336.829C2.247 337.058 2.27967 337.28 2.345 337.494C2.41033 337.709 2.51533 337.9 2.66 338.068C2.80467 338.232 2.99133 338.365 3.22 338.467C3.45333 338.565 3.73333 338.614 4.06 338.614C4.38667 338.614 4.66433 338.565 4.893 338.467C5.12633 338.365 5.31533 338.232 5.46 338.068C5.60467 337.9 5.70967 337.709 5.775 337.494C5.84033 337.28 5.873 337.058 5.873 336.829C5.873 336.596 5.83333 336.377 5.754 336.171C5.67933 335.966 5.565 335.786 5.411 335.632C5.26167 335.478 5.07267 335.357 4.844 335.268C4.62 335.18 4.35867 335.135 4.06 335.135ZM5.495 339.083C6.12033 339.261 6.601 339.557 6.937 339.972C7.273 340.388 7.441 340.92 7.441 341.568C7.441 342.007 7.357 342.404 7.189 342.758C7.02567 343.108 6.79467 343.407 6.496 343.654C6.202 343.902 5.84733 344.093 5.432 344.228C5.01667 344.359 4.55933 344.425 4.06 344.425C3.56067 344.425 3.10333 344.359 2.688 344.228C2.27267 344.093 1.91567 343.902 1.617 343.654C1.31833 343.407 1.08733 343.108 0.924 342.758C0.760667 342.404 0.679 342.007 0.679 341.568C0.679 340.92 0.847 340.388 1.183 339.972C1.519 339.557 1.99967 339.261 2.625 339.083C2.09767 338.887 1.69867 338.596 1.428 338.208C1.162 337.816 1.029 337.35 1.029 336.808C1.029 336.44 1.10133 336.094 1.246 335.772C1.39067 335.45 1.596 335.17 1.862 334.932C2.128 334.694 2.44533 334.508 2.814 334.372C3.18733 334.237 3.60267 334.169 4.06 334.169C4.51267 334.169 4.92567 334.237 5.299 334.372C5.67233 334.508 5.992 334.694 6.258 334.932C6.524 335.17 6.72933 335.45 6.874 335.772C7.01867 336.094 7.091 336.44 7.091 336.808C7.091 337.35 6.95567 337.816 6.685 338.208C6.419 338.596 6.02233 338.887 5.495 339.083Z" fill="#95989A"/>
<path d="M50.0002 340.406H1824" stroke="#E9E9E9"/>
<path d="M5.11 398.756V394.619C5.11 394.498 5.11467 394.365 5.124 394.22C5.13333 394.075 5.14733 393.928 5.166 393.779L1.512 398.756H5.11ZM7.721 398.756V399.47C7.721 399.545 7.69767 399.608 7.651 399.659C7.609 399.71 7.54133 399.736 7.448 399.736H6.202V402.375H5.11V399.736H0.658C0.564667 399.736 0.483 399.71 0.413 399.659C0.347667 399.603 0.305667 399.535 0.287 399.456L0.161 398.819L5.04 392.344H6.202V398.756H7.721Z" fill="#95989A"/>
<path d="M50.0002 398.469H1824" stroke="#E9E9E9"/>
<path d="M7.7 455.425C7.7 456.303 7.60433 457.063 7.413 457.707C7.22633 458.347 6.96967 458.876 6.643 459.296C6.31633 459.716 5.929 460.029 5.481 460.234C5.03767 460.44 4.56167 460.543 4.053 460.543C3.53967 460.543 3.06133 460.44 2.618 460.234C2.17933 460.029 1.79667 459.716 1.47 459.296C1.14333 458.876 0.886667 458.347 0.7 457.707C0.513333 457.063 0.42 456.303 0.42 455.425C0.42 454.548 0.513333 453.787 0.7 453.143C0.886667 452.499 1.14333 451.967 1.47 451.547C1.79667 451.123 2.17933 450.808 2.618 450.602C3.06133 450.397 3.53967 450.294 4.053 450.294C4.56167 450.294 5.03767 450.397 5.481 450.602C5.929 450.808 6.31633 451.123 6.643 451.547C6.96967 451.967 7.22633 452.499 7.413 453.143C7.60433 453.787 7.7 454.548 7.7 455.425ZM6.405 455.425C6.405 454.66 6.33967 454.018 6.209 453.5C6.083 452.978 5.91033 452.558 5.691 452.24C5.47633 451.923 5.22667 451.697 4.942 451.561C4.65733 451.421 4.361 451.351 4.053 451.351C3.745 451.351 3.44867 451.421 3.164 451.561C2.87933 451.697 2.62967 451.923 2.415 452.24C2.20033 452.558 2.02767 452.978 1.897 453.5C1.771 454.018 1.708 454.66 1.708 455.425C1.708 456.191 1.771 456.832 1.897 457.35C2.02767 457.868 2.20033 458.286 2.415 458.603C2.62967 458.921 2.87933 459.149 3.164 459.289C3.44867 459.425 3.745 459.492 4.053 459.492C4.361 459.492 4.65733 459.425 4.942 459.289C5.22667 459.149 5.47633 458.921 5.691 458.603C5.91033 458.286 6.083 457.868 6.209 457.35C6.33967 456.832 6.405 456.191 6.405 455.425Z" fill="#95989A"/>
<path d="M50.0002 453.344H1824" stroke="#E9E9E9"/>
<path d="M80.0002 306.187C80.0002 301.769 83.582 298.188 88.0002 298.188H167.544C171.962 298.188 175.544 301.769 175.544 306.188V453.312H80.0002V306.187Z" fill="#D4EBFE"/>
<path d="M221.405 306.187C221.405 301.769 224.987 298.188 229.405 298.188H308.949C313.368 298.188 316.949 301.769 316.949 306.188V453.312H221.405V306.187Z" fill="#D4EBFE"/>
<path d="M362.81 306.187C362.81 301.769 366.392 298.188 370.81 298.188H450.354C454.773 298.188 458.354 301.769 458.354 306.188V453.312H362.81V306.187Z" fill="#D4EBFE"/>
<path d="M504.215 93.6875C504.215 89.2692 507.797 85.6875 512.215 85.6875H591.759C596.178 85.6875 599.759 89.2692 599.759 93.6875V453.312H504.215V93.6875Z" fill="#2699FB"/>
<path d="M645.621 306.187C645.621 301.769 649.202 298.188 653.621 298.188H733.165C737.583 298.188 741.165 301.769 741.165 306.188V453.312H645.621V306.187Z" fill="#D4EBFE"/>
<path d="M787.026 123.438C787.026 119.019 790.607 115.438 795.026 115.438H874.57C878.988 115.438 882.57 119.019 882.57 123.438V453.312H787.026V123.438Z" fill="#D4EBFE"/>
<path d="M928.431 163.812C928.431 159.394 932.012 155.812 936.431 155.812H1015.97C1020.39 155.812 1023.97 159.394 1023.97 163.812V453.312H928.431V163.812Z" fill="#D4EBFE"/>
<path d="M1069.84 262.625C1069.84 258.207 1073.42 254.625 1077.84 254.625H1157.38C1161.8 254.625 1165.38 258.207 1165.38 262.625V453.312H1069.84V262.625Z" fill="#D4EBFE"/>
<path d="M1211.24 163.812C1211.24 159.394 1214.82 155.812 1219.24 155.812H1298.78C1303.2 155.812 1306.78 159.394 1306.78 163.812V453.312H1211.24V163.812Z" fill="#D4EBFE"/>
<path d="M1352.65 187.187C1352.65 182.769 1356.23 179.188 1360.65 179.188H1440.19C1444.61 179.188 1448.19 182.769 1448.19 187.188V453.312H1352.65V187.187Z" fill="#D4EBFE"/>
<path d="M1494.05 306.187C1494.05 301.769 1497.63 298.188 1502.05 298.188H1581.59C1586.01 298.188 1589.59 301.769 1589.59 306.188V453.312H1494.05V306.187Z" fill="#D4EBFE"/>
<path d="M1635.46 306.187C1635.46 301.769 1639.04 298.188 1643.46 298.188H1723C1727.42 298.188 1731 301.769 1731 306.188V453.312H1635.46V306.187Z" fill="#D4EBFE"/>
<g filter="url(#filter0_d_507_26806)">
<rect x="476" y="12" width="132" height="56" rx="8" fill="white" shape-rendering="crispEdges"/>
<rect x="476.5" y="12.5" width="131" height="55" rx="7.5" stroke="#F0F0F0" shape-rendering="crispEdges"/>
<path d="M503.962 40.4521C503.962 41.8994 503.698 43.1094 503.171 44.082C502.644 45.0488 501.879 45.7783 500.877 46.2705C499.881 46.7568 498.671 47 497.247 47H493.758V34.1504H497.634C498.941 34.1504 500.066 34.3906 501.009 34.8711C501.952 35.3457 502.679 36.0518 503.189 36.9893C503.704 37.9209 503.962 39.0752 503.962 40.4521ZM502.389 40.5049C502.389 39.3506 502.196 38.3984 501.809 37.6484C501.428 36.8984 500.865 36.3418 500.121 35.9785C499.383 35.6094 498.478 35.4248 497.406 35.4248H495.252V45.7168H497.072C498.841 45.7168 500.168 45.2803 501.053 44.4072C501.944 43.5342 502.389 42.2334 502.389 40.5049ZM510.308 37.1914C511.128 37.1914 511.831 37.373 512.417 37.7363C513.003 38.0996 513.451 38.6094 513.762 39.2656C514.073 39.916 514.228 40.6777 514.228 41.5508V42.4561H507.574C507.592 43.5869 507.873 44.4482 508.418 45.04C508.963 45.6318 509.731 45.9277 510.721 45.9277C511.33 45.9277 511.869 45.8721 512.338 45.7607C512.807 45.6494 513.293 45.4854 513.797 45.2686V46.5518C513.311 46.7686 512.827 46.9268 512.347 47.0264C511.872 47.126 511.31 47.1758 510.659 47.1758C509.734 47.1758 508.925 46.9883 508.234 46.6133C507.548 46.2324 507.015 45.6758 506.634 44.9434C506.253 44.2109 506.063 43.3145 506.063 42.2539C506.063 41.2168 506.236 40.3203 506.581 39.5645C506.933 38.8027 507.425 38.2168 508.058 37.8066C508.697 37.3965 509.447 37.1914 510.308 37.1914ZM510.29 38.3867C509.511 38.3867 508.89 38.6416 508.427 39.1514C507.964 39.6611 507.689 40.373 507.601 41.2871H512.698C512.693 40.7129 512.602 40.209 512.426 39.7754C512.256 39.3359 511.995 38.9961 511.644 38.7559C511.292 38.5098 510.841 38.3867 510.29 38.3867ZM518.824 47L515.168 37.3672H516.733L518.851 43.1943C518.997 43.5928 519.147 44.0322 519.299 44.5127C519.451 44.9932 519.557 45.3799 519.615 45.6729H519.677C519.747 45.3799 519.865 44.9932 520.029 44.5127C520.193 44.0264 520.342 43.5869 520.477 43.1943L522.595 37.3672H524.159L520.494 47H518.824ZM527.165 37.3672V47H525.706V37.3672H527.165ZM526.453 33.7637C526.694 33.7637 526.899 33.8428 527.069 34.001C527.244 34.1533 527.332 34.3936 527.332 34.7217C527.332 35.0439 527.244 35.2842 527.069 35.4424C526.899 35.6006 526.694 35.6797 526.453 35.6797C526.201 35.6797 525.99 35.6006 525.821 35.4424C525.656 35.2842 525.574 35.0439 525.574 34.7217C525.574 34.3936 525.656 34.1533 525.821 34.001C525.99 33.8428 526.201 33.7637 526.453 33.7637ZM534.117 47.1758C533.25 47.1758 532.486 46.9971 531.823 46.6396C531.161 46.2822 530.646 45.7373 530.277 45.0049C529.907 44.2725 529.723 43.3496 529.723 42.2363C529.723 41.0703 529.916 40.1182 530.303 39.3799C530.696 38.6357 531.235 38.085 531.92 37.7275C532.606 37.3701 533.385 37.1914 534.258 37.1914C534.739 37.1914 535.201 37.2412 535.647 37.3408C536.098 37.4346 536.467 37.5547 536.754 37.7012L536.315 38.9229C536.022 38.8057 535.682 38.7002 535.295 38.6064C534.914 38.5127 534.557 38.4658 534.223 38.4658C533.555 38.4658 532.998 38.6094 532.553 38.8965C532.114 39.1836 531.782 39.6055 531.56 40.1621C531.343 40.7188 531.235 41.4043 531.235 42.2188C531.235 42.998 531.34 43.6631 531.551 44.2139C531.768 44.7646 532.087 45.1865 532.509 45.4795C532.937 45.7666 533.47 45.9102 534.109 45.9102C534.618 45.9102 535.078 45.8574 535.489 45.752C535.899 45.6406 536.271 45.5117 536.605 45.3652V46.666C536.282 46.8301 535.922 46.9561 535.524 47.0439C535.131 47.1318 534.662 47.1758 534.117 47.1758ZM542.599 37.1914C543.419 37.1914 544.122 37.373 544.708 37.7363C545.294 38.0996 545.742 38.6094 546.053 39.2656C546.364 39.916 546.519 40.6777 546.519 41.5508V42.4561H539.865C539.883 43.5869 540.164 44.4482 540.709 45.04C541.254 45.6318 542.022 45.9277 543.012 45.9277C543.621 45.9277 544.16 45.8721 544.629 45.7607C545.098 45.6494 545.584 45.4854 546.088 45.2686V46.5518C545.602 46.7686 545.118 46.9268 544.638 47.0264C544.163 47.126 543.601 47.1758 542.95 47.1758C542.025 47.1758 541.216 46.9883 540.525 46.6133C539.839 46.2324 539.306 45.6758 538.925 44.9434C538.544 44.2109 538.354 43.3145 538.354 42.2539C538.354 41.2168 538.527 40.3203 538.872 39.5645C539.224 38.8027 539.716 38.2168 540.349 37.8066C540.988 37.3965 541.738 37.1914 542.599 37.1914ZM542.581 38.3867C541.802 38.3867 541.181 38.6416 540.718 39.1514C540.255 39.6611 539.98 40.373 539.892 41.2871H544.99C544.984 40.7129 544.893 40.209 544.717 39.7754C544.547 39.3359 544.286 38.9961 543.935 38.7559C543.583 38.5098 543.132 38.3867 542.581 38.3867ZM553.146 39.459V38.2725H561.39V39.459H553.146ZM553.146 43.0537V41.8672H561.39V43.0537H553.146ZM576.621 47H567.92V45.4443L571.251 42.0693C571.896 41.4131 572.426 40.8477 572.842 40.373C573.258 39.8926 573.566 39.4385 573.765 39.0107C573.97 38.583 574.073 38.1172 574.073 37.6133C574.073 36.9922 573.894 36.5234 573.536 36.207C573.179 35.8848 572.707 35.7236 572.121 35.7236C571.565 35.7236 571.049 35.835 570.574 36.0576C570.106 36.2744 569.619 36.585 569.115 36.9893L567.982 35.627C568.339 35.3223 568.72 35.0439 569.124 34.792C569.534 34.54 569.991 34.3408 570.495 34.1943C570.999 34.042 571.573 33.9658 572.218 33.9658C573.032 33.9658 573.736 34.1123 574.327 34.4053C574.919 34.6924 575.373 35.0938 575.69 35.6094C576.012 36.125 576.173 36.7256 576.173 37.4111C576.173 38.1025 576.035 38.7412 575.76 39.3271C575.485 39.9131 575.092 40.4932 574.582 41.0674C574.073 41.6357 573.466 42.2539 572.763 42.9219L570.539 45.0928V45.1895H576.621V47ZM587.388 44.1787H585.648V47H583.609V44.1787H577.764V42.6143L583.635 34.1152H585.648V42.4648H587.388V44.1787ZM583.609 42.4648V39.2744C583.609 39.0107 583.612 38.7441 583.617 38.4746C583.629 38.1992 583.641 37.9355 583.653 37.6836C583.664 37.4316 583.676 37.2002 583.688 36.9893C583.699 36.7725 583.708 36.5938 583.714 36.4531H583.644C583.532 36.6875 583.409 36.9277 583.275 37.1738C583.14 37.4141 582.996 37.6484 582.844 37.877L579.68 42.4648H583.609Z" fill="#040D17"/>
</g>
<defs>
<filter id="filter0_d_507_26806" x="464" y="0" width="156" height="80" filterUnits="userSpaceOnUse" color-interpolation-filters="sRGB">
<feFlood flood-opacity="0" result="BackgroundImageFix"/>
<feColorMatrix in="SourceAlpha" type="matrix" values="0 0 0 0 0 0 0 0 0 0 0 0 0 0 0 0 0 0 127 0" result="hardAlpha"/>
<feOffset/>
<feGaussianBlur stdDeviation="6"/>
<feComposite in2="hardAlpha" operator="out"/>
<feColorMatrix type="matrix" values="0 0 0 0 0 0 0 0 0 0 0 0 0 0 0 0 0 0 0.16 0"/>
<feBlend mode="normal" in2="BackgroundImageFix" result="effect1_dropShadow_507_26806"/>
<feBlend mode="normal" in="SourceGraphic" in2="effect1_dropShadow_507_26806" result="shape"/>
</filter>
</defs>
</svg>
