<svg width="21" height="17" viewBox="0 0 21 17" fill="none" xmlns="http://www.w3.org/2000/svg">
<path d="M11.8254 0.180417C11.7639 0.239835 11.715 0.311023 11.6817 0.389738C11.6483 0.468454 11.6311 0.553084 11.6311 0.638584V4.00263C11.6311 4.12855 11.5811 4.24931 11.4921 4.33835C11.403 4.42739 11.2823 4.47742 11.1563 4.47742H0.637204C0.468298 4.47742 0.30631 4.54451 0.186875 4.66395C0.0674402 4.78338 0.000341495 4.94537 0.000341495 5.11428V11.6595C0.000341495 11.8284 0.0674402 11.9904 0.186875 12.1098C0.30631 12.2293 0.468298 12.2964 0.637204 12.2964L11.1574 12.2964C11.2202 12.2965 11.2825 12.3091 11.3404 12.3335C11.3984 12.3579 11.4509 12.3935 11.495 12.4384C11.5391 12.4832 11.5738 12.5364 11.5972 12.5947C11.6205 12.6531 11.6321 12.7156 11.6311 12.7784L11.6311 16.1518C11.6288 16.2795 11.6648 16.4049 11.7347 16.5118C11.8045 16.6187 11.9048 16.7021 12.0226 16.7513C12.1404 16.8004 12.2703 16.8131 12.3954 16.7875C12.5205 16.7619 12.635 16.6994 12.7241 16.6079L20.4797 8.84922C20.5399 8.79047 20.5877 8.72027 20.6204 8.64274C20.6531 8.56522 20.6699 8.48194 20.6699 8.3978C20.6699 8.31367 20.6531 8.23039 20.6204 8.15287C20.5877 8.07534 20.5399 8.00514 20.4797 7.94639L12.7251 0.191846C12.6072 0.0711715 12.4463 0.002194 12.2776 5.14377e-05C12.1089 -0.00209113 11.9463 0.0627763 11.8254 0.180417Z" fill="#2680EA"/>
</svg>
