<svg width="82" height="26" viewBox="0 0 82 26" fill="none" xmlns="http://www.w3.org/2000/svg">
<path d="M11.7302 0.271291V2.71347H6.34048C3.6554 2.71347 2.47762 4.05666 2.47762 7.2608C2.47762 10.4442 3.63343 11.7886 6.34048 11.7886H11.7302V14.2308H6.34048C2.27014 14.2308 0.0378609 11.9363 0.0378609 7.27057C0.0378609 2.57793 2.28967 0.283502 6.34048 0.283502H11.7302V0.271291Z" fill="#262626"/>
<path d="M16.0299 14.2224H13.3448L18.2414 1.81856C18.4545 1.22938 18.8618 0.730399 19.3962 0.403877C19.9307 0.0773555 20.5604 -0.0572191 21.1816 0.0223372C21.7962 -0.0554651 22.4188 0.0805719 22.9451 0.407625C23.4713 0.734678 23.8691 1.23285 24.0717 1.81856L28.7816 14.2224H26.0636L21.8285 2.99813C21.7856 2.85342 21.6949 2.72759 21.5711 2.64128C21.4474 2.55497 21.298 2.5133 21.1474 2.52312C20.9949 2.51545 20.8441 2.55765 20.7177 2.64334C20.5913 2.72904 20.4962 2.85358 20.4469 2.99813L16.0299 14.2224Z" fill="#262626"/>
<path d="M38.9215 0.271325V2.7135H34.8512V14.2284H32.3931V2.70739H28.324V0.265219L38.9215 0.271325Z" fill="#262626"/>
<path d="M51.8366 0.271291V2.71347H44.6882C43.4286 2.71347 42.8696 3.39483 42.8696 4.36804C42.8696 5.21425 43.3017 6.02261 44.9372 6.02261H48.2008C52.0026 6.02261 52.8911 8.12899 52.8911 10.1365C52.8911 12.4919 51.6316 14.2271 48.4497 14.2271H40.6813V11.7849H48.5339C49.8545 11.7849 50.4562 11.0608 50.4562 10.0498C50.4562 9.14249 49.9815 8.31459 48.2667 8.31459H45.0275C41.3099 8.31459 40.4409 6.22654 40.4409 4.28501C40.4409 1.97104 41.6809 0.273733 44.7785 0.273733H51.839L51.8366 0.271291Z" fill="#262626"/>
<path d="M2.95119 19.302C4.28396 19.302 4.84661 19.9297 4.84661 20.854C4.87126 21.1241 4.80471 21.3947 4.65758 21.6225C4.51044 21.8502 4.29123 22.0221 4.03498 22.1105C4.29602 22.2052 4.51909 22.3824 4.6704 22.6153C4.82171 22.8482 4.893 23.1241 4.87347 23.4012C4.87347 24.3048 4.31082 24.9606 2.97804 24.9606H0.47115C0.153822 24.9606 3.8147e-05 24.8116 3.8147e-05 24.5014V19.7661C3.8147e-05 19.4559 0.14894 19.3069 0.47115 19.3069H2.95607L2.95119 19.302ZM0.967887 21.6929H2.97804C3.56388 21.6929 3.85069 21.4744 3.85069 21.0152C3.85069 20.5561 3.59073 20.2765 2.98903 20.2765H1.0814C1.01305 20.2765 0.970327 20.3107 0.970327 20.3766L0.967887 21.6929ZM0.967887 23.8909C0.967887 23.9556 1.01061 23.9825 1.07896 23.9825H3.00489C3.59805 23.9825 3.87754 23.7065 3.87754 23.2498C3.87754 22.7711 3.58218 22.5172 3.00489 22.5172H0.967887V23.8909Z" fill="#262626"/>
<path d="M6.63825 19.302L8.2249 21.7235L9.82496 19.302H10.9966L8.71797 22.5196V24.9618H7.72205V22.5196L5.44339 19.302H6.63825Z" fill="#262626"/>
<path d="M18.5564 19.3008V20.2887H16.3705C15.2831 20.2887 14.8047 20.8321 14.8047 22.1313C14.8047 23.4306 15.2758 23.9629 16.3705 23.9629H18.5564V24.9508H16.3705C14.7204 24.9508 13.8173 24.0203 13.8173 22.1277C13.8173 20.235 14.729 19.2935 16.3705 19.2935H18.5564V19.3008Z" fill="#262626"/>
<path d="M20.7276 19.302V24.9593H19.7402V19.302H20.7276Z" fill="#262626"/>
<path d="M26.7703 19.3021V20.2899H24.4429C23.3554 20.2899 22.877 20.8333 22.877 22.1325C22.877 23.4318 23.3481 23.9642 24.4429 23.9642H25.3814C25.4884 23.9753 25.5966 23.9622 25.6979 23.926C25.7992 23.8897 25.891 23.8311 25.9667 23.7546C26.0424 23.6781 26.0999 23.5855 26.1351 23.4838C26.1702 23.3821 26.1821 23.2737 26.1699 23.1668C26.1827 23.0712 26.1737 22.9739 26.1436 22.8822C26.1135 22.7906 26.063 22.7069 25.9959 22.6376C25.9289 22.5683 25.8469 22.5151 25.7564 22.4819C25.6658 22.4488 25.5689 22.4366 25.473 22.4464H24.2159V21.5855H25.5706C25.7806 21.5691 25.9916 21.6001 26.1879 21.6763C26.3843 21.7524 26.5611 21.8718 26.7052 22.0254C26.8493 22.1791 26.9571 22.3632 27.0205 22.5642C27.084 22.7651 27.1015 22.9777 27.0718 23.1863C27.0986 23.4246 27.0716 23.6658 26.9927 23.8922C26.9138 24.1185 26.785 24.3243 26.6159 24.4941C26.4468 24.664 26.2417 24.7937 26.0158 24.8736C25.7899 24.9535 25.5489 24.9815 25.3106 24.9557H24.438C22.7879 24.9557 21.8847 24.0252 21.8847 22.1325C21.8847 20.2398 22.7964 19.2984 24.438 19.2984L26.7703 19.3021Z" fill="#262626"/>
<path d="M29.1819 24.9594H28.1945V20.4414C28.1802 20.2701 28.2045 20.0978 28.2656 19.9372C28.3267 19.7766 28.423 19.6318 28.5476 19.5134C28.6721 19.395 28.8216 19.3061 28.985 19.2533C29.1485 19.2004 29.3217 19.185 29.4919 19.2081C29.8085 19.1906 30.1209 19.2867 30.3729 19.4793C30.6248 19.6718 30.7998 19.9481 30.8662 20.2582L32.5163 23.8702C32.5458 23.9409 32.596 24.0009 32.6602 24.0426C32.7245 24.0842 32.7998 24.1054 32.8763 24.1034C32.9201 24.108 32.9642 24.1032 33.0059 24.0891C33.0475 24.0751 33.0856 24.0522 33.1176 24.022C33.1496 23.9919 33.1747 23.9552 33.1912 23.9144C33.2077 23.8737 33.2152 23.8299 33.2132 23.7859V19.3021H34.2091V23.8201C34.2233 23.9916 34.1989 24.1641 34.1378 24.325C34.0768 24.4859 33.9806 24.6311 33.8562 24.75C33.7319 24.8689 33.5825 24.9586 33.4191 25.0123C33.2557 25.0661 33.0824 25.0826 32.9118 25.0608C32.5945 25.0776 32.2816 24.9813 32.0286 24.789C31.7757 24.5967 31.599 24.3209 31.5302 24.0106L29.8801 20.3986C29.857 20.3243 29.8097 20.2599 29.7458 20.2157C29.6819 20.1714 29.605 20.1498 29.5273 20.1544C29.4823 20.1485 29.4365 20.1527 29.3933 20.1667C29.3501 20.1807 29.3106 20.2042 29.2776 20.2354C29.2446 20.2666 29.219 20.3048 29.2027 20.3472C29.1863 20.3896 29.1797 20.4351 29.1832 20.4805L29.1819 24.9594Z" fill="#262626"/>
<path d="M40.0821 19.3008V20.2887H37.2493C36.6562 20.2887 36.395 20.5647 36.395 21.0006C36.395 21.4597 36.6903 21.671 37.2567 21.671H40.0369V22.5672H37.2298C36.6598 22.5672 36.3681 22.7931 36.3681 23.2535C36.3681 23.7138 36.644 23.9654 37.2225 23.9654H40.087V24.9532H37.2225C35.8799 24.9532 35.3393 24.2902 35.3393 23.4098C35.3199 23.1354 35.3881 22.8619 35.5339 22.6286C35.6798 22.3954 35.8958 22.2144 36.1509 22.1118C35.8988 22.0128 35.6852 21.8353 35.5416 21.6055C35.3981 21.3757 35.3323 21.1058 35.3539 20.8357C35.3539 19.9321 35.9165 19.2923 37.2493 19.2923H40.0821V19.3008Z" fill="#262626"/>
<path d="M44.421 19.3021C44.6559 19.2733 44.8943 19.2962 45.1195 19.3694C45.3446 19.4425 45.551 19.564 45.7243 19.7253C45.8976 19.8867 46.0334 20.084 46.1224 20.3035C46.2114 20.5229 46.2514 20.7592 46.2395 20.9957C46.2625 21.3733 46.1563 21.7474 45.9385 22.0565C45.7206 22.3657 45.4041 22.5914 45.041 22.6967L46.3579 24.9606H45.2594L43.9694 22.7736H42.495C42.4757 22.7702 42.4558 22.7714 42.437 22.7773C42.4183 22.7832 42.4012 22.7936 42.3873 22.8075C42.3734 22.8214 42.3631 22.8384 42.3572 22.8572C42.3513 22.876 42.35 22.8959 42.3535 22.9153V24.9606H41.3661V22.7223C41.3661 22.0861 41.6346 21.826 42.2546 21.826H44.4515C44.5572 21.8345 44.6634 21.8199 44.7629 21.7833C44.8624 21.7466 44.9528 21.6888 45.0278 21.6138C45.1027 21.5388 45.1605 21.4484 45.1972 21.3488C45.2338 21.2493 45.2484 21.143 45.2399 21.0372C45.2459 20.9339 45.2292 20.8305 45.1911 20.7343C45.153 20.6381 45.0944 20.5514 45.0193 20.4802C44.9442 20.4091 44.8545 20.3552 44.7564 20.3223C44.6583 20.2894 44.5543 20.2784 44.4515 20.2899H41.3539V19.3021H44.421Z" fill="#262626"/>
<path d="M47.913 24.9594H46.8255L48.8125 19.9297C48.898 19.6902 49.0627 19.487 49.2793 19.3538C49.4959 19.2206 49.7514 19.1653 50.0037 19.1971C50.2533 19.1666 50.5058 19.2227 50.7191 19.356C50.9323 19.4894 51.0934 19.6919 51.1754 19.9297L53.0854 24.9594H51.987L50.2673 20.4084C50.2502 20.3497 50.2135 20.2987 50.1633 20.2638C50.1131 20.2289 50.0525 20.2123 49.9915 20.2167C49.9298 20.2132 49.8687 20.2301 49.8176 20.2647C49.7664 20.2993 49.728 20.3498 49.7083 20.4084L47.913 24.9594Z" fill="#262626"/>
<mask id="mask0_8_840" style="mask-type:luminance" maskUnits="userSpaceOnUse" x="54" y="0" width="28" height="22">
<path d="M72.5192 0.271424V9.59443C72.5192 10.9816 73.2198 11.7851 74.8321 11.7851H77.3097C77.6126 11.8327 77.9225 11.8098 78.2152 11.7182C78.5079 11.6266 78.7756 11.4687 78.9974 11.2568C79.2193 11.0449 79.3893 10.7847 79.4943 10.4964C79.5993 10.2081 79.6365 9.89944 79.603 9.59443V0.271424H82V9.78248C82 12.7131 80.4488 14.226 77.4744 14.226H74.5453C71.5709 14.226 70.0428 12.7167 70.0428 9.78248V0.271424H72.5192ZM68.9627 14.2687H66.7951V8.63709H64.337V14.2675H58.2419C57.5792 14.2675 57.3119 14.0233 57.3119 13.5862C57.332 13.3385 57.3943 13.096 57.4962 12.8694C57.4962 12.8694 63.5486 0.033312 63.5596 0.0259855H60.722L55.27 11.4334C54.8621 12.2389 54.6284 13.1214 54.5841 14.0233C54.5841 15.5936 55.4531 16.4398 57.8074 16.4398H64.3358V21.4463H66.7939V16.4398H68.9615L68.9627 14.2687Z" fill="white"/>
</mask>
<g mask="url(#mask0_8_840)">
<path d="M54.8917 0.0221298H54.5854V21.4437H54.8917V0.0221298Z" fill="#AA9CCB"/>
</g>
<mask id="mask1_8_840" style="mask-type:luminance" maskUnits="userSpaceOnUse" x="54" y="0" width="28" height="22">
<path d="M72.5192 0.271424V9.59443C72.5192 10.9816 73.2198 11.7851 74.8321 11.7851H77.3097C77.6126 11.8327 77.9225 11.8098 78.2152 11.7182C78.5079 11.6266 78.7756 11.4687 78.9974 11.2568C79.2193 11.0449 79.3893 10.7847 79.4943 10.4964C79.5993 10.2081 79.6365 9.89944 79.603 9.59443V0.271424H82V9.78248C82 12.7131 80.4488 14.226 77.4744 14.226H74.5453C71.5709 14.226 70.0428 12.7167 70.0428 9.78248V0.271424H72.5192ZM68.9627 14.2687H66.7951V8.63709H64.337V14.2675H58.2419C57.5792 14.2675 57.3119 14.0233 57.3119 13.5862C57.332 13.3385 57.3943 13.096 57.4962 12.8694C57.4962 12.8694 63.5486 0.033312 63.5596 0.0259855H60.722L55.27 11.4334C54.8621 12.2389 54.6284 13.1214 54.5841 14.0233C54.5841 15.5936 55.4531 16.4398 57.8074 16.4398H64.3358V21.4463H66.7939V16.4398H68.9615L68.9627 14.2687Z" fill="white"/>
</mask>
<g mask="url(#mask1_8_840)">
<path d="M55.1979 0.0223514H54.8916V21.4439H55.1979V0.0223514Z" fill="#AA9DCC"/>
</g>
<mask id="mask2_8_840" style="mask-type:luminance" maskUnits="userSpaceOnUse" x="54" y="0" width="28" height="22">
<path d="M72.5192 0.271424V9.59443C72.5192 10.9816 73.2198 11.7851 74.8321 11.7851H77.3097C77.6126 11.8327 77.9225 11.8098 78.2152 11.7182C78.5079 11.6266 78.7756 11.4687 78.9974 11.2568C79.2193 11.0449 79.3893 10.7847 79.4943 10.4964C79.5993 10.2081 79.6365 9.89944 79.603 9.59443V0.271424H82V9.78248C82 12.7131 80.4488 14.226 77.4744 14.226H74.5453C71.5709 14.226 70.0428 12.7167 70.0428 9.78248V0.271424H72.5192ZM68.9627 14.2687H66.7951V8.63709H64.337V14.2675H58.2419C57.5792 14.2675 57.3119 14.0233 57.3119 13.5862C57.332 13.3385 57.3943 13.096 57.4962 12.8694C57.4962 12.8694 63.5486 0.033312 63.5596 0.0259855H60.722L55.27 11.4334C54.8621 12.2389 54.6284 13.1214 54.5841 14.0233C54.5841 15.5936 55.4531 16.4398 57.8074 16.4398H64.3358V21.4463H66.7939V16.4398H68.9615L68.9627 14.2687Z" fill="white"/>
</mask>
<g mask="url(#mask2_8_840)">
<path d="M55.5081 0.0223514H55.2018V21.4439H55.5081V0.0223514Z" fill="#AA9DCC"/>
</g>
<mask id="mask3_8_840" style="mask-type:luminance" maskUnits="userSpaceOnUse" x="54" y="0" width="28" height="22">
<path d="M72.5192 0.271424V9.59443C72.5192 10.9816 73.2198 11.7851 74.8321 11.7851H77.3097C77.6126 11.8327 77.9225 11.8098 78.2152 11.7182C78.5079 11.6266 78.7756 11.4687 78.9974 11.2568C79.2193 11.0449 79.3893 10.7847 79.4943 10.4964C79.5993 10.2081 79.6365 9.89944 79.603 9.59443V0.271424H82V9.78248C82 12.7131 80.4488 14.226 77.4744 14.226H74.5453C71.5709 14.226 70.0428 12.7167 70.0428 9.78248V0.271424H72.5192ZM68.9627 14.2687H66.7951V8.63709H64.337V14.2675H58.2419C57.5792 14.2675 57.3119 14.0233 57.3119 13.5862C57.332 13.3385 57.3943 13.096 57.4962 12.8694C57.4962 12.8694 63.5486 0.033312 63.5596 0.0259855H60.722L55.27 11.4334C54.8621 12.2389 54.6284 13.1214 54.5841 14.0233C54.5841 15.5936 55.4531 16.4398 57.8074 16.4398H64.3358V21.4463H66.7939V16.4398H68.9615L68.9627 14.2687Z" fill="white"/>
</mask>
<g mask="url(#mask3_8_840)">
<path d="M55.8144 0.0223514H55.5081V21.4439H55.8144V0.0223514Z" fill="#A99ECD"/>
</g>
<mask id="mask4_8_840" style="mask-type:luminance" maskUnits="userSpaceOnUse" x="54" y="0" width="28" height="22">
<path d="M72.5192 0.271424V9.59443C72.5192 10.9816 73.2198 11.7851 74.8321 11.7851H77.3097C77.6126 11.8327 77.9225 11.8098 78.2152 11.7182C78.5079 11.6266 78.7756 11.4687 78.9974 11.2568C79.2193 11.0449 79.3893 10.7847 79.4943 10.4964C79.5993 10.2081 79.6365 9.89944 79.603 9.59443V0.271424H82V9.78248C82 12.7131 80.4488 14.226 77.4744 14.226H74.5453C71.5709 14.226 70.0428 12.7167 70.0428 9.78248V0.271424H72.5192ZM68.9627 14.2687H66.7951V8.63709H64.337V14.2675H58.2419C57.5792 14.2675 57.3119 14.0233 57.3119 13.5862C57.332 13.3385 57.3943 13.096 57.4962 12.8694C57.4962 12.8694 63.5486 0.033312 63.5596 0.0259855H60.722L55.27 11.4334C54.8621 12.2389 54.6284 13.1214 54.5841 14.0233C54.5841 15.5936 55.4531 16.4398 57.8074 16.4398H64.3358V21.4463H66.7939V16.4398H68.9615L68.9627 14.2687Z" fill="white"/>
</mask>
<g mask="url(#mask4_8_840)">
<path d="M56.1243 0.0223514H55.818V21.4439H56.1243V0.0223514Z" fill="#A99ECD"/>
</g>
<mask id="mask5_8_840" style="mask-type:luminance" maskUnits="userSpaceOnUse" x="54" y="0" width="28" height="22">
<path d="M72.5192 0.271424V9.59443C72.5192 10.9816 73.2198 11.7851 74.8321 11.7851H77.3097C77.6126 11.8327 77.9225 11.8098 78.2152 11.7182C78.5079 11.6266 78.7756 11.4687 78.9974 11.2568C79.2193 11.0449 79.3893 10.7847 79.4943 10.4964C79.5993 10.2081 79.6365 9.89944 79.603 9.59443V0.271424H82V9.78248C82 12.7131 80.4488 14.226 77.4744 14.226H74.5453C71.5709 14.226 70.0428 12.7167 70.0428 9.78248V0.271424H72.5192ZM68.9627 14.2687H66.7951V8.63709H64.337V14.2675H58.2419C57.5792 14.2675 57.3119 14.0233 57.3119 13.5862C57.332 13.3385 57.3943 13.096 57.4962 12.8694C57.4962 12.8694 63.5486 0.033312 63.5596 0.0259855H60.722L55.27 11.4334C54.8621 12.2389 54.6284 13.1214 54.5841 14.0233C54.5841 15.5936 55.4531 16.4398 57.8074 16.4398H64.3358V21.4463H66.7939V16.4398H68.9615L68.9627 14.2687Z" fill="white"/>
</mask>
<g mask="url(#mask5_8_840)">
<path d="M56.4307 0.0223514H56.1243V21.4439H56.4307V0.0223514Z" fill="#A99FCE"/>
</g>
<mask id="mask6_8_840" style="mask-type:luminance" maskUnits="userSpaceOnUse" x="54" y="0" width="28" height="22">
<path d="M72.5192 0.271424V9.59443C72.5192 10.9816 73.2198 11.7851 74.8321 11.7851H77.3097C77.6126 11.8327 77.9225 11.8098 78.2152 11.7182C78.5079 11.6266 78.7756 11.4687 78.9974 11.2568C79.2193 11.0449 79.3893 10.7847 79.4943 10.4964C79.5993 10.2081 79.6365 9.89944 79.603 9.59443V0.271424H82V9.78248C82 12.7131 80.4488 14.226 77.4744 14.226H74.5453C71.5709 14.226 70.0428 12.7167 70.0428 9.78248V0.271424H72.5192ZM68.9627 14.2687H66.7951V8.63709H64.337V14.2675H58.2419C57.5792 14.2675 57.3119 14.0233 57.3119 13.5862C57.332 13.3385 57.3943 13.096 57.4962 12.8694C57.4962 12.8694 63.5486 0.033312 63.5596 0.0259855H60.722L55.27 11.4334C54.8621 12.2389 54.6284 13.1214 54.5841 14.0233C54.5841 15.5936 55.4531 16.4398 57.8074 16.4398H64.3358V21.4463H66.7939V16.4398H68.9615L68.9627 14.2687Z" fill="white"/>
</mask>
<g mask="url(#mask6_8_840)">
<path d="M56.7408 0.0223514H56.4345V21.4439H56.7408V0.0223514Z" fill="#A8A0CE"/>
</g>
<mask id="mask7_8_840" style="mask-type:luminance" maskUnits="userSpaceOnUse" x="54" y="0" width="28" height="22">
<path d="M72.5192 0.271424V9.59443C72.5192 10.9816 73.2198 11.7851 74.8321 11.7851H77.3097C77.6126 11.8327 77.9225 11.8098 78.2152 11.7182C78.5079 11.6266 78.7756 11.4687 78.9974 11.2568C79.2193 11.0449 79.3893 10.7847 79.4943 10.4964C79.5993 10.2081 79.6365 9.89944 79.603 9.59443V0.271424H82V9.78248C82 12.7131 80.4488 14.226 77.4744 14.226H74.5453C71.5709 14.226 70.0428 12.7167 70.0428 9.78248V0.271424H72.5192ZM68.9627 14.2687H66.7951V8.63709H64.337V14.2675H58.2419C57.5792 14.2675 57.3119 14.0233 57.3119 13.5862C57.332 13.3385 57.3943 13.096 57.4962 12.8694C57.4962 12.8694 63.5486 0.033312 63.5596 0.0259855H60.722L55.27 11.4334C54.8621 12.2389 54.6284 13.1214 54.5841 14.0233C54.5841 15.5936 55.4531 16.4398 57.8074 16.4398H64.3358V21.4463H66.7939V16.4398H68.9615L68.9627 14.2687Z" fill="white"/>
</mask>
<g mask="url(#mask7_8_840)">
<path d="M57.0472 0.0223514H56.7408V21.4439H57.0472V0.0223514Z" fill="#A8A0CF"/>
</g>
<mask id="mask8_8_840" style="mask-type:luminance" maskUnits="userSpaceOnUse" x="54" y="0" width="28" height="22">
<path d="M72.5192 0.271424V9.59443C72.5192 10.9816 73.2198 11.7851 74.8321 11.7851H77.3097C77.6126 11.8327 77.9225 11.8098 78.2152 11.7182C78.5079 11.6266 78.7756 11.4687 78.9974 11.2568C79.2193 11.0449 79.3893 10.7847 79.4943 10.4964C79.5993 10.2081 79.6365 9.89944 79.603 9.59443V0.271424H82V9.78248C82 12.7131 80.4488 14.226 77.4744 14.226H74.5453C71.5709 14.226 70.0428 12.7167 70.0428 9.78248V0.271424H72.5192ZM68.9627 14.2687H66.7951V8.63709H64.337V14.2675H58.2419C57.5792 14.2675 57.3119 14.0233 57.3119 13.5862C57.332 13.3385 57.3943 13.096 57.4962 12.8694C57.4962 12.8694 63.5486 0.033312 63.5596 0.0259855H60.722L55.27 11.4334C54.8621 12.2389 54.6284 13.1214 54.5841 14.0233C54.5841 15.5936 55.4531 16.4398 57.8074 16.4398H64.3358V21.4463H66.7939V16.4398H68.9615L68.9627 14.2687Z" fill="white"/>
</mask>
<g mask="url(#mask8_8_840)">
<path d="M57.357 0.0223514H57.0507V21.4439H57.357V0.0223514Z" fill="#A8A1CF"/>
</g>
<mask id="mask9_8_840" style="mask-type:luminance" maskUnits="userSpaceOnUse" x="54" y="0" width="28" height="22">
<path d="M72.5192 0.271424V9.59443C72.5192 10.9816 73.2198 11.7851 74.8321 11.7851H77.3097C77.6126 11.8327 77.9225 11.8098 78.2152 11.7182C78.5079 11.6266 78.7756 11.4687 78.9974 11.2568C79.2193 11.0449 79.3893 10.7847 79.4943 10.4964C79.5993 10.2081 79.6365 9.89944 79.603 9.59443V0.271424H82V9.78248C82 12.7131 80.4488 14.226 77.4744 14.226H74.5453C71.5709 14.226 70.0428 12.7167 70.0428 9.78248V0.271424H72.5192ZM68.9627 14.2687H66.7951V8.63709H64.337V14.2675H58.2419C57.5792 14.2675 57.3119 14.0233 57.3119 13.5862C57.332 13.3385 57.3943 13.096 57.4962 12.8694C57.4962 12.8694 63.5486 0.033312 63.5596 0.0259855H60.722L55.27 11.4334C54.8621 12.2389 54.6284 13.1214 54.5841 14.0233C54.5841 15.5936 55.4531 16.4398 57.8074 16.4398H64.3358V21.4463H66.7939V16.4398H68.9615L68.9627 14.2687Z" fill="white"/>
</mask>
<g mask="url(#mask9_8_840)">
<path d="M57.6634 0.0223514H57.357V21.4439H57.6634V0.0223514Z" fill="#A7A1CF"/>
</g>
<mask id="mask10_8_840" style="mask-type:luminance" maskUnits="userSpaceOnUse" x="54" y="0" width="28" height="22">
<path d="M72.5192 0.271424V9.59443C72.5192 10.9816 73.2198 11.7851 74.8321 11.7851H77.3097C77.6126 11.8327 77.9225 11.8098 78.2152 11.7182C78.5079 11.6266 78.7756 11.4687 78.9974 11.2568C79.2193 11.0449 79.3893 10.7847 79.4943 10.4964C79.5993 10.2081 79.6365 9.89944 79.603 9.59443V0.271424H82V9.78248C82 12.7131 80.4488 14.226 77.4744 14.226H74.5453C71.5709 14.226 70.0428 12.7167 70.0428 9.78248V0.271424H72.5192ZM68.9627 14.2687H66.7951V8.63709H64.337V14.2675H58.2419C57.5792 14.2675 57.3119 14.0233 57.3119 13.5862C57.332 13.3385 57.3943 13.096 57.4962 12.8694C57.4962 12.8694 63.5486 0.033312 63.5596 0.0259855H60.722L55.27 11.4334C54.8621 12.2389 54.6284 13.1214 54.5841 14.0233C54.5841 15.5936 55.4531 16.4398 57.8074 16.4398H64.3358V21.4463H66.7939V16.4398H68.9615L68.9627 14.2687Z" fill="white"/>
</mask>
<g mask="url(#mask10_8_840)">
<path d="M57.9735 0.0223514H57.6672V21.4439H57.9735V0.0223514Z" fill="#A7A2D0"/>
</g>
<mask id="mask11_8_840" style="mask-type:luminance" maskUnits="userSpaceOnUse" x="54" y="0" width="28" height="22">
<path d="M72.5192 0.271424V9.59443C72.5192 10.9816 73.2198 11.7851 74.8321 11.7851H77.3097C77.6126 11.8327 77.9225 11.8098 78.2152 11.7182C78.5079 11.6266 78.7756 11.4687 78.9974 11.2568C79.2193 11.0449 79.3893 10.7847 79.4943 10.4964C79.5993 10.2081 79.6365 9.89944 79.603 9.59443V0.271424H82V9.78248C82 12.7131 80.4488 14.226 77.4744 14.226H74.5453C71.5709 14.226 70.0428 12.7167 70.0428 9.78248V0.271424H72.5192ZM68.9627 14.2687H66.7951V8.63709H64.337V14.2675H58.2419C57.5792 14.2675 57.3119 14.0233 57.3119 13.5862C57.332 13.3385 57.3943 13.096 57.4962 12.8694C57.4962 12.8694 63.5486 0.033312 63.5596 0.0259855H60.722L55.27 11.4334C54.8621 12.2389 54.6284 13.1214 54.5841 14.0233C54.5841 15.5936 55.4531 16.4398 57.8074 16.4398H64.3358V21.4463H66.7939V16.4398H68.9615L68.9627 14.2687Z" fill="white"/>
</mask>
<g mask="url(#mask11_8_840)">
<path d="M58.2799 0.0223514H57.9735V21.4439H58.2799V0.0223514Z" fill="#A7A3D0"/>
</g>
<mask id="mask12_8_840" style="mask-type:luminance" maskUnits="userSpaceOnUse" x="54" y="0" width="28" height="22">
<path d="M72.5192 0.271424V9.59443C72.5192 10.9816 73.2198 11.7851 74.8321 11.7851H77.3097C77.6126 11.8327 77.9225 11.8098 78.2152 11.7182C78.5079 11.6266 78.7756 11.4687 78.9974 11.2568C79.2193 11.0449 79.3893 10.7847 79.4943 10.4964C79.5993 10.2081 79.6365 9.89944 79.603 9.59443V0.271424H82V9.78248C82 12.7131 80.4488 14.226 77.4744 14.226H74.5453C71.5709 14.226 70.0428 12.7167 70.0428 9.78248V0.271424H72.5192ZM68.9627 14.2687H66.7951V8.63709H64.337V14.2675H58.2419C57.5792 14.2675 57.3119 14.0233 57.3119 13.5862C57.332 13.3385 57.3943 13.096 57.4962 12.8694C57.4962 12.8694 63.5486 0.033312 63.5596 0.0259855H60.722L55.27 11.4334C54.8621 12.2389 54.6284 13.1214 54.5841 14.0233C54.5841 15.5936 55.4531 16.4398 57.8074 16.4398H64.3358V21.4463H66.7939V16.4398H68.9615L68.9627 14.2687Z" fill="white"/>
</mask>
<g mask="url(#mask12_8_840)">
<path d="M58.5862 0.0223514H58.2798V21.4439H58.5862V0.0223514Z" fill="#A6A3D1"/>
</g>
<mask id="mask13_8_840" style="mask-type:luminance" maskUnits="userSpaceOnUse" x="54" y="0" width="28" height="22">
<path d="M72.5192 0.271424V9.59443C72.5192 10.9816 73.2198 11.7851 74.8321 11.7851H77.3097C77.6126 11.8327 77.9225 11.8098 78.2152 11.7182C78.5079 11.6266 78.7756 11.4687 78.9974 11.2568C79.2193 11.0449 79.3893 10.7847 79.4943 10.4964C79.5993 10.2081 79.6365 9.89944 79.603 9.59443V0.271424H82V9.78248C82 12.7131 80.4488 14.226 77.4744 14.226H74.5453C71.5709 14.226 70.0428 12.7167 70.0428 9.78248V0.271424H72.5192ZM68.9627 14.2687H66.7951V8.63709H64.337V14.2675H58.2419C57.5792 14.2675 57.3119 14.0233 57.3119 13.5862C57.332 13.3385 57.3943 13.096 57.4962 12.8694C57.4962 12.8694 63.5486 0.033312 63.5596 0.0259855H60.722L55.27 11.4334C54.8621 12.2389 54.6284 13.1214 54.5841 14.0233C54.5841 15.5936 55.4531 16.4398 57.8074 16.4398H64.3358V21.4463H66.7939V16.4398H68.9615L68.9627 14.2687Z" fill="white"/>
</mask>
<g mask="url(#mask13_8_840)">
<path d="M58.8961 0.0223514H58.5897V21.4439H58.8961V0.0223514Z" fill="#A6A4D1"/>
</g>
<mask id="mask14_8_840" style="mask-type:luminance" maskUnits="userSpaceOnUse" x="54" y="0" width="28" height="22">
<path d="M72.5192 0.271424V9.59443C72.5192 10.9816 73.2198 11.7851 74.8321 11.7851H77.3097C77.6126 11.8327 77.9225 11.8098 78.2152 11.7182C78.5079 11.6266 78.7756 11.4687 78.9974 11.2568C79.2193 11.0449 79.3893 10.7847 79.4943 10.4964C79.5993 10.2081 79.6365 9.89944 79.603 9.59443V0.271424H82V9.78248C82 12.7131 80.4488 14.226 77.4744 14.226H74.5453C71.5709 14.226 70.0428 12.7167 70.0428 9.78248V0.271424H72.5192ZM68.9627 14.2687H66.7951V8.63709H64.337V14.2675H58.2419C57.5792 14.2675 57.3119 14.0233 57.3119 13.5862C57.332 13.3385 57.3943 13.096 57.4962 12.8694C57.4962 12.8694 63.5486 0.033312 63.5596 0.0259855H60.722L55.27 11.4334C54.8621 12.2389 54.6284 13.1214 54.5841 14.0233C54.5841 15.5936 55.4531 16.4398 57.8074 16.4398H64.3358V21.4463H66.7939V16.4398H68.9615L68.9627 14.2687Z" fill="white"/>
</mask>
<g mask="url(#mask14_8_840)">
<path d="M59.2024 0.0223514H58.896V21.4439H59.2024V0.0223514Z" fill="#A6A4D2"/>
</g>
<mask id="mask15_8_840" style="mask-type:luminance" maskUnits="userSpaceOnUse" x="54" y="0" width="28" height="22">
<path d="M72.5192 0.271424V9.59443C72.5192 10.9816 73.2198 11.7851 74.8321 11.7851H77.3097C77.6126 11.8327 77.9225 11.8098 78.2152 11.7182C78.5079 11.6266 78.7756 11.4687 78.9974 11.2568C79.2193 11.0449 79.3893 10.7847 79.4943 10.4964C79.5993 10.2081 79.6365 9.89944 79.603 9.59443V0.271424H82V9.78248C82 12.7131 80.4488 14.226 77.4744 14.226H74.5453C71.5709 14.226 70.0428 12.7167 70.0428 9.78248V0.271424H72.5192ZM68.9627 14.2687H66.7951V8.63709H64.337V14.2675H58.2419C57.5792 14.2675 57.3119 14.0233 57.3119 13.5862C57.332 13.3385 57.3943 13.096 57.4962 12.8694C57.4962 12.8694 63.5486 0.033312 63.5596 0.0259855H60.722L55.27 11.4334C54.8621 12.2389 54.6284 13.1214 54.5841 14.0233C54.5841 15.5936 55.4531 16.4398 57.8074 16.4398H64.3358V21.4463H66.7939V16.4398H68.9615L68.9627 14.2687Z" fill="white"/>
</mask>
<g mask="url(#mask15_8_840)">
<path d="M59.5126 0.0223514H59.2062V21.4439H59.5126V0.0223514Z" fill="#A5A5D2"/>
</g>
<mask id="mask16_8_840" style="mask-type:luminance" maskUnits="userSpaceOnUse" x="54" y="0" width="28" height="22">
<path d="M72.5192 0.271424V9.59443C72.5192 10.9816 73.2198 11.7851 74.8321 11.7851H77.3097C77.6126 11.8327 77.9225 11.8098 78.2152 11.7182C78.5079 11.6266 78.7756 11.4687 78.9974 11.2568C79.2193 11.0449 79.3893 10.7847 79.4943 10.4964C79.5993 10.2081 79.6365 9.89944 79.603 9.59443V0.271424H82V9.78248C82 12.7131 80.4488 14.226 77.4744 14.226H74.5453C71.5709 14.226 70.0428 12.7167 70.0428 9.78248V0.271424H72.5192ZM68.9627 14.2687H66.7951V8.63709H64.337V14.2675H58.2419C57.5792 14.2675 57.3119 14.0233 57.3119 13.5862C57.332 13.3385 57.3943 13.096 57.4962 12.8694C57.4962 12.8694 63.5486 0.033312 63.5596 0.0259855H60.722L55.27 11.4334C54.8621 12.2389 54.6284 13.1214 54.5841 14.0233C54.5841 15.5936 55.4531 16.4398 57.8074 16.4398H64.3358V21.4463H66.7939V16.4398H68.9615L68.9627 14.2687Z" fill="white"/>
</mask>
<g mask="url(#mask16_8_840)">
<path d="M59.8189 0.0223514H59.5125V21.4439H59.8189V0.0223514Z" fill="#A5A6D3"/>
</g>
<mask id="mask17_8_840" style="mask-type:luminance" maskUnits="userSpaceOnUse" x="54" y="0" width="28" height="22">
<path d="M72.5192 0.271424V9.59443C72.5192 10.9816 73.2198 11.7851 74.8321 11.7851H77.3097C77.6126 11.8327 77.9225 11.8098 78.2152 11.7182C78.5079 11.6266 78.7756 11.4687 78.9974 11.2568C79.2193 11.0449 79.3893 10.7847 79.4943 10.4964C79.5993 10.2081 79.6365 9.89944 79.603 9.59443V0.271424H82V9.78248C82 12.7131 80.4488 14.226 77.4744 14.226H74.5453C71.5709 14.226 70.0428 12.7167 70.0428 9.78248V0.271424H72.5192ZM68.9627 14.2687H66.7951V8.63709H64.337V14.2675H58.2419C57.5792 14.2675 57.3119 14.0233 57.3119 13.5862C57.332 13.3385 57.3943 13.096 57.4962 12.8694C57.4962 12.8694 63.5486 0.033312 63.5596 0.0259855H60.722L55.27 11.4334C54.8621 12.2389 54.6284 13.1214 54.5841 14.0233C54.5841 15.5936 55.4531 16.4398 57.8074 16.4398H64.3358V21.4463H66.7939V16.4398H68.9615L68.9627 14.2687Z" fill="white"/>
</mask>
<g mask="url(#mask17_8_840)">
<path d="M60.13 0.0223514H59.8236V21.4439H60.13V0.0223514Z" fill="#A5A6D3"/>
</g>
<mask id="mask18_8_840" style="mask-type:luminance" maskUnits="userSpaceOnUse" x="54" y="0" width="28" height="22">
<path d="M72.5192 0.271424V9.59443C72.5192 10.9816 73.2198 11.7851 74.8321 11.7851H77.3097C77.6126 11.8327 77.9225 11.8098 78.2152 11.7182C78.5079 11.6266 78.7756 11.4687 78.9974 11.2568C79.2193 11.0449 79.3893 10.7847 79.4943 10.4964C79.5993 10.2081 79.6365 9.89944 79.603 9.59443V0.271424H82V9.78248C82 12.7131 80.4488 14.226 77.4744 14.226H74.5453C71.5709 14.226 70.0428 12.7167 70.0428 9.78248V0.271424H72.5192ZM68.9627 14.2687H66.7951V8.63709H64.337V14.2675H58.2419C57.5792 14.2675 57.3119 14.0233 57.3119 13.5862C57.332 13.3385 57.3943 13.096 57.4962 12.8694C57.4962 12.8694 63.5486 0.033312 63.5596 0.0259855H60.722L55.27 11.4334C54.8621 12.2389 54.6284 13.1214 54.5841 14.0233C54.5841 15.5936 55.4531 16.4398 57.8074 16.4398H64.3358V21.4463H66.7939V16.4398H68.9615L68.9627 14.2687Z" fill="white"/>
</mask>
<g mask="url(#mask18_8_840)">
<path d="M60.4351 0.0223514H60.1288V21.4439H60.4351V0.0223514Z" fill="#A4A7D4"/>
</g>
<mask id="mask19_8_840" style="mask-type:luminance" maskUnits="userSpaceOnUse" x="54" y="0" width="28" height="22">
<path d="M72.5192 0.271424V9.59443C72.5192 10.9816 73.2198 11.7851 74.8321 11.7851H77.3097C77.6126 11.8327 77.9225 11.8098 78.2152 11.7182C78.5079 11.6266 78.7756 11.4687 78.9974 11.2568C79.2193 11.0449 79.3893 10.7847 79.4943 10.4964C79.5993 10.2081 79.6365 9.89944 79.603 9.59443V0.271424H82V9.78248C82 12.7131 80.4488 14.226 77.4744 14.226H74.5453C71.5709 14.226 70.0428 12.7167 70.0428 9.78248V0.271424H72.5192ZM68.9627 14.2687H66.7951V8.63709H64.337V14.2675H58.2419C57.5792 14.2675 57.3119 14.0233 57.3119 13.5862C57.332 13.3385 57.3943 13.096 57.4962 12.8694C57.4962 12.8694 63.5486 0.033312 63.5596 0.0259855H60.722L55.27 11.4334C54.8621 12.2389 54.6284 13.1214 54.5841 14.0233C54.5841 15.5936 55.4531 16.4398 57.8074 16.4398H64.3358V21.4463H66.7939V16.4398H68.9615L68.9627 14.2687Z" fill="white"/>
</mask>
<g mask="url(#mask19_8_840)">
<path d="M60.7465 0.0223514H60.4401V21.4439H60.7465V0.0223514Z" fill="#A4A7D4"/>
</g>
<mask id="mask20_8_840" style="mask-type:luminance" maskUnits="userSpaceOnUse" x="54" y="0" width="28" height="22">
<path d="M72.5192 0.271424V9.59443C72.5192 10.9816 73.2198 11.7851 74.8321 11.7851H77.3097C77.6126 11.8327 77.9225 11.8098 78.2152 11.7182C78.5079 11.6266 78.7756 11.4687 78.9974 11.2568C79.2193 11.0449 79.3893 10.7847 79.4943 10.4964C79.5993 10.2081 79.6365 9.89944 79.603 9.59443V0.271424H82V9.78248C82 12.7131 80.4488 14.226 77.4744 14.226H74.5453C71.5709 14.226 70.0428 12.7167 70.0428 9.78248V0.271424H72.5192ZM68.9627 14.2687H66.7951V8.63709H64.337V14.2675H58.2419C57.5792 14.2675 57.3119 14.0233 57.3119 13.5862C57.332 13.3385 57.3943 13.096 57.4962 12.8694C57.4962 12.8694 63.5486 0.033312 63.5596 0.0259855H60.722L55.27 11.4334C54.8621 12.2389 54.6284 13.1214 54.5841 14.0233C54.5841 15.5936 55.4531 16.4398 57.8074 16.4398H64.3358V21.4463H66.7939V16.4398H68.9615L68.9627 14.2687Z" fill="white"/>
</mask>
<g mask="url(#mask20_8_840)">
<path d="M61.0528 0.0223514H60.7464V21.4439H61.0528V0.0223514Z" fill="#A4A8D4"/>
</g>
<mask id="mask21_8_840" style="mask-type:luminance" maskUnits="userSpaceOnUse" x="54" y="0" width="28" height="22">
<path d="M72.5192 0.271424V9.59443C72.5192 10.9816 73.2198 11.7851 74.8321 11.7851H77.3097C77.6126 11.8327 77.9225 11.8098 78.2152 11.7182C78.5079 11.6266 78.7756 11.4687 78.9974 11.2568C79.2193 11.0449 79.3893 10.7847 79.4943 10.4964C79.5993 10.2081 79.6365 9.89944 79.603 9.59443V0.271424H82V9.78248C82 12.7131 80.4488 14.226 77.4744 14.226H74.5453C71.5709 14.226 70.0428 12.7167 70.0428 9.78248V0.271424H72.5192ZM68.9627 14.2687H66.7951V8.63709H64.337V14.2675H58.2419C57.5792 14.2675 57.3119 14.0233 57.3119 13.5862C57.332 13.3385 57.3943 13.096 57.4962 12.8694C57.4962 12.8694 63.5486 0.033312 63.5596 0.0259855H60.722L55.27 11.4334C54.8621 12.2389 54.6284 13.1214 54.5841 14.0233C54.5841 15.5936 55.4531 16.4398 57.8074 16.4398H64.3358V21.4463H66.7939V16.4398H68.9615L68.9627 14.2687Z" fill="white"/>
</mask>
<g mask="url(#mask21_8_840)">
<path d="M61.3627 0.0223514H61.0563V21.4439H61.3627V0.0223514Z" fill="#A3A9D5"/>
</g>
<mask id="mask22_8_840" style="mask-type:luminance" maskUnits="userSpaceOnUse" x="54" y="0" width="28" height="22">
<path d="M72.5192 0.271424V9.59443C72.5192 10.9816 73.2198 11.7851 74.8321 11.7851H77.3097C77.6126 11.8327 77.9225 11.8098 78.2152 11.7182C78.5079 11.6266 78.7756 11.4687 78.9974 11.2568C79.2193 11.0449 79.3893 10.7847 79.4943 10.4964C79.5993 10.2081 79.6365 9.89944 79.603 9.59443V0.271424H82V9.78248C82 12.7131 80.4488 14.226 77.4744 14.226H74.5453C71.5709 14.226 70.0428 12.7167 70.0428 9.78248V0.271424H72.5192ZM68.9627 14.2687H66.7951V8.63709H64.337V14.2675H58.2419C57.5792 14.2675 57.3119 14.0233 57.3119 13.5862C57.332 13.3385 57.3943 13.096 57.4962 12.8694C57.4962 12.8694 63.5486 0.033312 63.5596 0.0259855H60.722L55.27 11.4334C54.8621 12.2389 54.6284 13.1214 54.5841 14.0233C54.5841 15.5936 55.4531 16.4398 57.8074 16.4398H64.3358V21.4463H66.7939V16.4398H68.9615L68.9627 14.2687Z" fill="white"/>
</mask>
<g mask="url(#mask22_8_840)">
<path d="M61.669 0.0223514H61.3627V21.4439H61.669V0.0223514Z" fill="#A3A9D5"/>
</g>
<mask id="mask23_8_840" style="mask-type:luminance" maskUnits="userSpaceOnUse" x="54" y="0" width="28" height="22">
<path d="M72.5192 0.271424V9.59443C72.5192 10.9816 73.2198 11.7851 74.8321 11.7851H77.3097C77.6126 11.8327 77.9225 11.8098 78.2152 11.7182C78.5079 11.6266 78.7756 11.4687 78.9974 11.2568C79.2193 11.0449 79.3893 10.7847 79.4943 10.4964C79.5993 10.2081 79.6365 9.89944 79.603 9.59443V0.271424H82V9.78248C82 12.7131 80.4488 14.226 77.4744 14.226H74.5453C71.5709 14.226 70.0428 12.7167 70.0428 9.78248V0.271424H72.5192ZM68.9627 14.2687H66.7951V8.63709H64.337V14.2675H58.2419C57.5792 14.2675 57.3119 14.0233 57.3119 13.5862C57.332 13.3385 57.3943 13.096 57.4962 12.8694C57.4962 12.8694 63.5486 0.033312 63.5596 0.0259855H60.722L55.27 11.4334C54.8621 12.2389 54.6284 13.1214 54.5841 14.0233C54.5841 15.5936 55.4531 16.4398 57.8074 16.4398H64.3358V21.4463H66.7939V16.4398H68.9615L68.9627 14.2687Z" fill="white"/>
</mask>
<g mask="url(#mask23_8_840)">
<path d="M61.9792 0.0223514H61.6728V21.4439H61.9792V0.0223514Z" fill="#A3AAD6"/>
</g>
<mask id="mask24_8_840" style="mask-type:luminance" maskUnits="userSpaceOnUse" x="54" y="0" width="28" height="22">
<path d="M72.5192 0.271424V9.59443C72.5192 10.9816 73.2198 11.7851 74.8321 11.7851H77.3097C77.6126 11.8327 77.9225 11.8098 78.2152 11.7182C78.5079 11.6266 78.7756 11.4687 78.9974 11.2568C79.2193 11.0449 79.3893 10.7847 79.4943 10.4964C79.5993 10.2081 79.6365 9.89944 79.603 9.59443V0.271424H82V9.78248C82 12.7131 80.4488 14.226 77.4744 14.226H74.5453C71.5709 14.226 70.0428 12.7167 70.0428 9.78248V0.271424H72.5192ZM68.9627 14.2687H66.7951V8.63709H64.337V14.2675H58.2419C57.5792 14.2675 57.3119 14.0233 57.3119 13.5862C57.332 13.3385 57.3943 13.096 57.4962 12.8694C57.4962 12.8694 63.5486 0.033312 63.5596 0.0259855H60.722L55.27 11.4334C54.8621 12.2389 54.6284 13.1214 54.5841 14.0233C54.5841 15.5936 55.4531 16.4398 57.8074 16.4398H64.3358V21.4463H66.7939V16.4398H68.9615L68.9627 14.2687Z" fill="white"/>
</mask>
<g mask="url(#mask24_8_840)">
<path d="M62.2855 0.0223514H61.9791V21.4439H62.2855V0.0223514Z" fill="#A2AAD6"/>
</g>
<mask id="mask25_8_840" style="mask-type:luminance" maskUnits="userSpaceOnUse" x="54" y="0" width="28" height="22">
<path d="M72.5192 0.271424V9.59443C72.5192 10.9816 73.2198 11.7851 74.8321 11.7851H77.3097C77.6126 11.8327 77.9225 11.8098 78.2152 11.7182C78.5079 11.6266 78.7756 11.4687 78.9974 11.2568C79.2193 11.0449 79.3893 10.7847 79.4943 10.4964C79.5993 10.2081 79.6365 9.89944 79.603 9.59443V0.271424H82V9.78248C82 12.7131 80.4488 14.226 77.4744 14.226H74.5453C71.5709 14.226 70.0428 12.7167 70.0428 9.78248V0.271424H72.5192ZM68.9627 14.2687H66.7951V8.63709H64.337V14.2675H58.2419C57.5792 14.2675 57.3119 14.0233 57.3119 13.5862C57.332 13.3385 57.3943 13.096 57.4962 12.8694C57.4962 12.8694 63.5486 0.033312 63.5596 0.0259855H60.722L55.27 11.4334C54.8621 12.2389 54.6284 13.1214 54.5841 14.0233C54.5841 15.5936 55.4531 16.4398 57.8074 16.4398H64.3358V21.4463H66.7939V16.4398H68.9615L68.9627 14.2687Z" fill="white"/>
</mask>
<g mask="url(#mask25_8_840)">
<path d="M62.5918 0.0223514H62.2855V21.4439H62.5918V0.0223514Z" fill="#A2ABD7"/>
</g>
<mask id="mask26_8_840" style="mask-type:luminance" maskUnits="userSpaceOnUse" x="54" y="0" width="28" height="22">
<path d="M72.5192 0.271424V9.59443C72.5192 10.9816 73.2198 11.7851 74.8321 11.7851H77.3097C77.6126 11.8327 77.9225 11.8098 78.2152 11.7182C78.5079 11.6266 78.7756 11.4687 78.9974 11.2568C79.2193 11.0449 79.3893 10.7847 79.4943 10.4964C79.5993 10.2081 79.6365 9.89944 79.603 9.59443V0.271424H82V9.78248C82 12.7131 80.4488 14.226 77.4744 14.226H74.5453C71.5709 14.226 70.0428 12.7167 70.0428 9.78248V0.271424H72.5192ZM68.9627 14.2687H66.7951V8.63709H64.337V14.2675H58.2419C57.5792 14.2675 57.3119 14.0233 57.3119 13.5862C57.332 13.3385 57.3943 13.096 57.4962 12.8694C57.4962 12.8694 63.5486 0.033312 63.5596 0.0259855H60.722L55.27 11.4334C54.8621 12.2389 54.6284 13.1214 54.5841 14.0233C54.5841 15.5936 55.4531 16.4398 57.8074 16.4398H64.3358V21.4463H66.7939V16.4398H68.9615L68.9627 14.2687Z" fill="white"/>
</mask>
<g mask="url(#mask26_8_840)">
<path d="M62.9017 0.0223514H62.5954V21.4439H62.9017V0.0223514Z" fill="#A1ACD7"/>
</g>
<mask id="mask27_8_840" style="mask-type:luminance" maskUnits="userSpaceOnUse" x="54" y="0" width="28" height="22">
<path d="M72.5192 0.271424V9.59443C72.5192 10.9816 73.2198 11.7851 74.8321 11.7851H77.3097C77.6126 11.8327 77.9225 11.8098 78.2152 11.7182C78.5079 11.6266 78.7756 11.4687 78.9974 11.2568C79.2193 11.0449 79.3893 10.7847 79.4943 10.4964C79.5993 10.2081 79.6365 9.89944 79.603 9.59443V0.271424H82V9.78248C82 12.7131 80.4488 14.226 77.4744 14.226H74.5453C71.5709 14.226 70.0428 12.7167 70.0428 9.78248V0.271424H72.5192ZM68.9627 14.2687H66.7951V8.63709H64.337V14.2675H58.2419C57.5792 14.2675 57.3119 14.0233 57.3119 13.5862C57.332 13.3385 57.3943 13.096 57.4962 12.8694C57.4962 12.8694 63.5486 0.033312 63.5596 0.0259855H60.722L55.27 11.4334C54.8621 12.2389 54.6284 13.1214 54.5841 14.0233C54.5841 15.5936 55.4531 16.4398 57.8074 16.4398H64.3358V21.4463H66.7939V16.4398H68.9615L68.9627 14.2687Z" fill="white"/>
</mask>
<g mask="url(#mask27_8_840)">
<path d="M63.208 0.0223514H62.9017V21.4439H63.208V0.0223514Z" fill="#A1ACD8"/>
</g>
<mask id="mask28_8_840" style="mask-type:luminance" maskUnits="userSpaceOnUse" x="54" y="0" width="28" height="22">
<path d="M72.5192 0.271424V9.59443C72.5192 10.9816 73.2198 11.7851 74.8321 11.7851H77.3097C77.6126 11.8327 77.9225 11.8098 78.2152 11.7182C78.5079 11.6266 78.7756 11.4687 78.9974 11.2568C79.2193 11.0449 79.3893 10.7847 79.4943 10.4964C79.5993 10.2081 79.6365 9.89944 79.603 9.59443V0.271424H82V9.78248C82 12.7131 80.4488 14.226 77.4744 14.226H74.5453C71.5709 14.226 70.0428 12.7167 70.0428 9.78248V0.271424H72.5192ZM68.9627 14.2687H66.7951V8.63709H64.337V14.2675H58.2419C57.5792 14.2675 57.3119 14.0233 57.3119 13.5862C57.332 13.3385 57.3943 13.096 57.4962 12.8694C57.4962 12.8694 63.5486 0.033312 63.5596 0.0259855H60.722L55.27 11.4334C54.8621 12.2389 54.6284 13.1214 54.5841 14.0233C54.5841 15.5936 55.4531 16.4398 57.8074 16.4398H64.3358V21.4463H66.7939V16.4398H68.9615L68.9627 14.2687Z" fill="white"/>
</mask>
<g mask="url(#mask28_8_840)">
<path d="M63.5182 0.0223514H63.2119V21.4439H63.5182V0.0223514Z" fill="#A1ADD8"/>
</g>
<mask id="mask29_8_840" style="mask-type:luminance" maskUnits="userSpaceOnUse" x="54" y="0" width="28" height="22">
<path d="M72.5192 0.271424V9.59443C72.5192 10.9816 73.2198 11.7851 74.8321 11.7851H77.3097C77.6126 11.8327 77.9225 11.8098 78.2152 11.7182C78.5079 11.6266 78.7756 11.4687 78.9974 11.2568C79.2193 11.0449 79.3893 10.7847 79.4943 10.4964C79.5993 10.2081 79.6365 9.89944 79.603 9.59443V0.271424H82V9.78248C82 12.7131 80.4488 14.226 77.4744 14.226H74.5453C71.5709 14.226 70.0428 12.7167 70.0428 9.78248V0.271424H72.5192ZM68.9627 14.2687H66.7951V8.63709H64.337V14.2675H58.2419C57.5792 14.2675 57.3119 14.0233 57.3119 13.5862C57.332 13.3385 57.3943 13.096 57.4962 12.8694C57.4962 12.8694 63.5486 0.033312 63.5596 0.0259855H60.722L55.27 11.4334C54.8621 12.2389 54.6284 13.1214 54.5841 14.0233C54.5841 15.5936 55.4531 16.4398 57.8074 16.4398H64.3358V21.4463H66.7939V16.4398H68.9615L68.9627 14.2687Z" fill="white"/>
</mask>
<g mask="url(#mask29_8_840)">
<path d="M63.8245 0.0223514H63.5182V21.4439H63.8245V0.0223514Z" fill="#A0ADD8"/>
</g>
<mask id="mask30_8_840" style="mask-type:luminance" maskUnits="userSpaceOnUse" x="54" y="0" width="28" height="22">
<path d="M72.5192 0.271424V9.59443C72.5192 10.9816 73.2198 11.7851 74.8321 11.7851H77.3097C77.6126 11.8327 77.9225 11.8098 78.2152 11.7182C78.5079 11.6266 78.7756 11.4687 78.9974 11.2568C79.2193 11.0449 79.3893 10.7847 79.4943 10.4964C79.5993 10.2081 79.6365 9.89944 79.603 9.59443V0.271424H82V9.78248C82 12.7131 80.4488 14.226 77.4744 14.226H74.5453C71.5709 14.226 70.0428 12.7167 70.0428 9.78248V0.271424H72.5192ZM68.9627 14.2687H66.7951V8.63709H64.337V14.2675H58.2419C57.5792 14.2675 57.3119 14.0233 57.3119 13.5862C57.332 13.3385 57.3943 13.096 57.4962 12.8694C57.4962 12.8694 63.5486 0.033312 63.5596 0.0259855H60.722L55.27 11.4334C54.8621 12.2389 54.6284 13.1214 54.5841 14.0233C54.5841 15.5936 55.4531 16.4398 57.8074 16.4398H64.3358V21.4463H66.7939V16.4398H68.9615L68.9627 14.2687Z" fill="white"/>
</mask>
<g mask="url(#mask30_8_840)">
<path d="M64.1344 0.0223514H63.8281V21.4439H64.1344V0.0223514Z" fill="#A0AED9"/>
</g>
<mask id="mask31_8_840" style="mask-type:luminance" maskUnits="userSpaceOnUse" x="54" y="0" width="28" height="22">
<path d="M72.5192 0.271424V9.59443C72.5192 10.9816 73.2198 11.7851 74.8321 11.7851H77.3097C77.6126 11.8327 77.9225 11.8098 78.2152 11.7182C78.5079 11.6266 78.7756 11.4687 78.9974 11.2568C79.2193 11.0449 79.3893 10.7847 79.4943 10.4964C79.5993 10.2081 79.6365 9.89944 79.603 9.59443V0.271424H82V9.78248C82 12.7131 80.4488 14.226 77.4744 14.226H74.5453C71.5709 14.226 70.0428 12.7167 70.0428 9.78248V0.271424H72.5192ZM68.9627 14.2687H66.7951V8.63709H64.337V14.2675H58.2419C57.5792 14.2675 57.3119 14.0233 57.3119 13.5862C57.332 13.3385 57.3943 13.096 57.4962 12.8694C57.4962 12.8694 63.5486 0.033312 63.5596 0.0259855H60.722L55.27 11.4334C54.8621 12.2389 54.6284 13.1214 54.5841 14.0233C54.5841 15.5936 55.4531 16.4398 57.8074 16.4398H64.3358V21.4463H66.7939V16.4398H68.9615L68.9627 14.2687Z" fill="white"/>
</mask>
<g mask="url(#mask31_8_840)">
<path d="M64.4407 0.0223514H64.1344V21.4439H64.4407V0.0223514Z" fill="#A0AFD9"/>
</g>
<mask id="mask32_8_840" style="mask-type:luminance" maskUnits="userSpaceOnUse" x="54" y="0" width="28" height="22">
<path d="M72.5192 0.271424V9.59443C72.5192 10.9816 73.2198 11.7851 74.8321 11.7851H77.3097C77.6126 11.8327 77.9225 11.8098 78.2152 11.7182C78.5079 11.6266 78.7756 11.4687 78.9974 11.2568C79.2193 11.0449 79.3893 10.7847 79.4943 10.4964C79.5993 10.2081 79.6365 9.89944 79.603 9.59443V0.271424H82V9.78248C82 12.7131 80.4488 14.226 77.4744 14.226H74.5453C71.5709 14.226 70.0428 12.7167 70.0428 9.78248V0.271424H72.5192ZM68.9627 14.2687H66.7951V8.63709H64.337V14.2675H58.2419C57.5792 14.2675 57.3119 14.0233 57.3119 13.5862C57.332 13.3385 57.3943 13.096 57.4962 12.8694C57.4962 12.8694 63.5486 0.033312 63.5596 0.0259855H60.722L55.27 11.4334C54.8621 12.2389 54.6284 13.1214 54.5841 14.0233C54.5841 15.5936 55.4531 16.4398 57.8074 16.4398H64.3358V21.4463H66.7939V16.4398H68.9615L68.9627 14.2687Z" fill="white"/>
</mask>
<g mask="url(#mask32_8_840)">
<path d="M64.7509 0.0223514H64.4446V21.4439H64.7509V0.0223514Z" fill="#9FAFDA"/>
</g>
<mask id="mask33_8_840" style="mask-type:luminance" maskUnits="userSpaceOnUse" x="54" y="0" width="28" height="22">
<path d="M72.5192 0.271424V9.59443C72.5192 10.9816 73.2198 11.7851 74.8321 11.7851H77.3097C77.6126 11.8327 77.9225 11.8098 78.2152 11.7182C78.5079 11.6266 78.7756 11.4687 78.9974 11.2568C79.2193 11.0449 79.3893 10.7847 79.4943 10.4964C79.5993 10.2081 79.6365 9.89944 79.603 9.59443V0.271424H82V9.78248C82 12.7131 80.4488 14.226 77.4744 14.226H74.5453C71.5709 14.226 70.0428 12.7167 70.0428 9.78248V0.271424H72.5192ZM68.9627 14.2687H66.7951V8.63709H64.337V14.2675H58.2419C57.5792 14.2675 57.3119 14.0233 57.3119 13.5862C57.332 13.3385 57.3943 13.096 57.4962 12.8694C57.4962 12.8694 63.5486 0.033312 63.5596 0.0259855H60.722L55.27 11.4334C54.8621 12.2389 54.6284 13.1214 54.5841 14.0233C54.5841 15.5936 55.4531 16.4398 57.8074 16.4398H64.3358V21.4463H66.7939V16.4398H68.9615L68.9627 14.2687Z" fill="white"/>
</mask>
<g mask="url(#mask33_8_840)">
<path d="M65.0572 0.0223514H64.7509V21.4439H65.0572V0.0223514Z" fill="#9FB0DA"/>
</g>
<mask id="mask34_8_840" style="mask-type:luminance" maskUnits="userSpaceOnUse" x="54" y="0" width="28" height="22">
<path d="M72.5192 0.271424V9.59443C72.5192 10.9816 73.2198 11.7851 74.8321 11.7851H77.3097C77.6126 11.8327 77.9225 11.8098 78.2152 11.7182C78.5079 11.6266 78.7756 11.4687 78.9974 11.2568C79.2193 11.0449 79.3893 10.7847 79.4943 10.4964C79.5993 10.2081 79.6365 9.89944 79.603 9.59443V0.271424H82V9.78248C82 12.7131 80.4488 14.226 77.4744 14.226H74.5453C71.5709 14.226 70.0428 12.7167 70.0428 9.78248V0.271424H72.5192ZM68.9627 14.2687H66.7951V8.63709H64.337V14.2675H58.2419C57.5792 14.2675 57.3119 14.0233 57.3119 13.5862C57.332 13.3385 57.3943 13.096 57.4962 12.8694C57.4962 12.8694 63.5486 0.033312 63.5596 0.0259855H60.722L55.27 11.4334C54.8621 12.2389 54.6284 13.1214 54.5841 14.0233C54.5841 15.5936 55.4531 16.4398 57.8074 16.4398H64.3358V21.4463H66.7939V16.4398H68.9615L68.9627 14.2687Z" fill="white"/>
</mask>
<g mask="url(#mask34_8_840)">
<path d="M65.3671 0.0223514H65.0608V21.4439H65.3671V0.0223514Z" fill="#9EB0DB"/>
</g>
<mask id="mask35_8_840" style="mask-type:luminance" maskUnits="userSpaceOnUse" x="54" y="0" width="28" height="22">
<path d="M72.5192 0.271424V9.59443C72.5192 10.9816 73.2198 11.7851 74.8321 11.7851H77.3097C77.6126 11.8327 77.9225 11.8098 78.2152 11.7182C78.5079 11.6266 78.7756 11.4687 78.9974 11.2568C79.2193 11.0449 79.3893 10.7847 79.4943 10.4964C79.5993 10.2081 79.6365 9.89944 79.603 9.59443V0.271424H82V9.78248C82 12.7131 80.4488 14.226 77.4744 14.226H74.5453C71.5709 14.226 70.0428 12.7167 70.0428 9.78248V0.271424H72.5192ZM68.9627 14.2687H66.7951V8.63709H64.337V14.2675H58.2419C57.5792 14.2675 57.3119 14.0233 57.3119 13.5862C57.332 13.3385 57.3943 13.096 57.4962 12.8694C57.4962 12.8694 63.5486 0.033312 63.5596 0.0259855H60.722L55.27 11.4334C54.8621 12.2389 54.6284 13.1214 54.5841 14.0233C54.5841 15.5936 55.4531 16.4398 57.8074 16.4398H64.3358V21.4463H66.7939V16.4398H68.9615L68.9627 14.2687Z" fill="white"/>
</mask>
<g mask="url(#mask35_8_840)">
<path d="M65.6734 0.0223514H65.3671V21.4439H65.6734V0.0223514Z" fill="#9EB1DB"/>
</g>
<mask id="mask36_8_840" style="mask-type:luminance" maskUnits="userSpaceOnUse" x="54" y="0" width="28" height="22">
<path d="M72.5192 0.271424V9.59443C72.5192 10.9816 73.2198 11.7851 74.8321 11.7851H77.3097C77.6126 11.8327 77.9225 11.8098 78.2152 11.7182C78.5079 11.6266 78.7756 11.4687 78.9974 11.2568C79.2193 11.0449 79.3893 10.7847 79.4943 10.4964C79.5993 10.2081 79.6365 9.89944 79.603 9.59443V0.271424H82V9.78248C82 12.7131 80.4488 14.226 77.4744 14.226H74.5453C71.5709 14.226 70.0428 12.7167 70.0428 9.78248V0.271424H72.5192ZM68.9627 14.2687H66.7951V8.63709H64.337V14.2675H58.2419C57.5792 14.2675 57.3119 14.0233 57.3119 13.5862C57.332 13.3385 57.3943 13.096 57.4962 12.8694C57.4962 12.8694 63.5486 0.033312 63.5596 0.0259855H60.722L55.27 11.4334C54.8621 12.2389 54.6284 13.1214 54.5841 14.0233C54.5841 15.5936 55.4531 16.4398 57.8074 16.4398H64.3358V21.4463H66.7939V16.4398H68.9615L68.9627 14.2687Z" fill="white"/>
</mask>
<g mask="url(#mask36_8_840)">
<path d="M65.9798 0.0223514H65.6734V21.4439H65.9798V0.0223514Z" fill="#9EB1DC"/>
</g>
<mask id="mask37_8_840" style="mask-type:luminance" maskUnits="userSpaceOnUse" x="54" y="0" width="28" height="22">
<path d="M72.5192 0.271424V9.59443C72.5192 10.9816 73.2198 11.7851 74.8321 11.7851H77.3097C77.6126 11.8327 77.9225 11.8098 78.2152 11.7182C78.5079 11.6266 78.7756 11.4687 78.9974 11.2568C79.2193 11.0449 79.3893 10.7847 79.4943 10.4964C79.5993 10.2081 79.6365 9.89944 79.603 9.59443V0.271424H82V9.78248C82 12.7131 80.4488 14.226 77.4744 14.226H74.5453C71.5709 14.226 70.0428 12.7167 70.0428 9.78248V0.271424H72.5192ZM68.9627 14.2687H66.7951V8.63709H64.337V14.2675H58.2419C57.5792 14.2675 57.3119 14.0233 57.3119 13.5862C57.332 13.3385 57.3943 13.096 57.4962 12.8694C57.4962 12.8694 63.5486 0.033312 63.5596 0.0259855H60.722L55.27 11.4334C54.8621 12.2389 54.6284 13.1214 54.5841 14.0233C54.5841 15.5936 55.4531 16.4398 57.8074 16.4398H64.3358V21.4463H66.7939V16.4398H68.9615L68.9627 14.2687Z" fill="white"/>
</mask>
<g mask="url(#mask37_8_840)">
<path d="M66.2899 0.0223514H65.9836V21.4439H66.2899V0.0223514Z" fill="#9DB2DC"/>
</g>
<mask id="mask38_8_840" style="mask-type:luminance" maskUnits="userSpaceOnUse" x="54" y="0" width="28" height="22">
<path d="M72.5192 0.271424V9.59443C72.5192 10.9816 73.2198 11.7851 74.8321 11.7851H77.3097C77.6126 11.8327 77.9225 11.8098 78.2152 11.7182C78.5079 11.6266 78.7756 11.4687 78.9974 11.2568C79.2193 11.0449 79.3893 10.7847 79.4943 10.4964C79.5993 10.2081 79.6365 9.89944 79.603 9.59443V0.271424H82V9.78248C82 12.7131 80.4488 14.226 77.4744 14.226H74.5453C71.5709 14.226 70.0428 12.7167 70.0428 9.78248V0.271424H72.5192ZM68.9627 14.2687H66.7951V8.63709H64.337V14.2675H58.2419C57.5792 14.2675 57.3119 14.0233 57.3119 13.5862C57.332 13.3385 57.3943 13.096 57.4962 12.8694C57.4962 12.8694 63.5486 0.033312 63.5596 0.0259855H60.722L55.27 11.4334C54.8621 12.2389 54.6284 13.1214 54.5841 14.0233C54.5841 15.5936 55.4531 16.4398 57.8074 16.4398H64.3358V21.4463H66.7939V16.4398H68.9615L68.9627 14.2687Z" fill="white"/>
</mask>
<g mask="url(#mask38_8_840)">
<path d="M66.5963 0.0223514H66.2899V21.4439H66.5963V0.0223514Z" fill="#9DB3DC"/>
</g>
<mask id="mask39_8_840" style="mask-type:luminance" maskUnits="userSpaceOnUse" x="54" y="0" width="28" height="22">
<path d="M72.5192 0.271424V9.59443C72.5192 10.9816 73.2198 11.7851 74.8321 11.7851H77.3097C77.6126 11.8327 77.9225 11.8098 78.2152 11.7182C78.5079 11.6266 78.7756 11.4687 78.9974 11.2568C79.2193 11.0449 79.3893 10.7847 79.4943 10.4964C79.5993 10.2081 79.6365 9.89944 79.603 9.59443V0.271424H82V9.78248C82 12.7131 80.4488 14.226 77.4744 14.226H74.5453C71.5709 14.226 70.0428 12.7167 70.0428 9.78248V0.271424H72.5192ZM68.9627 14.2687H66.7951V8.63709H64.337V14.2675H58.2419C57.5792 14.2675 57.3119 14.0233 57.3119 13.5862C57.332 13.3385 57.3943 13.096 57.4962 12.8694C57.4962 12.8694 63.5486 0.033312 63.5596 0.0259855H60.722L55.27 11.4334C54.8621 12.2389 54.6284 13.1214 54.5841 14.0233C54.5841 15.5936 55.4531 16.4398 57.8074 16.4398H64.3358V21.4463H66.7939V16.4398H68.9615L68.9627 14.2687Z" fill="white"/>
</mask>
<g mask="url(#mask39_8_840)">
<path d="M66.9061 0.0223514H66.5998V21.4439H66.9061V0.0223514Z" fill="#9DB3DD"/>
</g>
<mask id="mask40_8_840" style="mask-type:luminance" maskUnits="userSpaceOnUse" x="54" y="0" width="28" height="22">
<path d="M72.5192 0.271424V9.59443C72.5192 10.9816 73.2198 11.7851 74.8321 11.7851H77.3097C77.6126 11.8327 77.9225 11.8098 78.2152 11.7182C78.5079 11.6266 78.7756 11.4687 78.9974 11.2568C79.2193 11.0449 79.3893 10.7847 79.4943 10.4964C79.5993 10.2081 79.6365 9.89944 79.603 9.59443V0.271424H82V9.78248C82 12.7131 80.4488 14.226 77.4744 14.226H74.5453C71.5709 14.226 70.0428 12.7167 70.0428 9.78248V0.271424H72.5192ZM68.9627 14.2687H66.7951V8.63709H64.337V14.2675H58.2419C57.5792 14.2675 57.3119 14.0233 57.3119 13.5862C57.332 13.3385 57.3943 13.096 57.4962 12.8694C57.4962 12.8694 63.5486 0.033312 63.5596 0.0259855H60.722L55.27 11.4334C54.8621 12.2389 54.6284 13.1214 54.5841 14.0233C54.5841 15.5936 55.4531 16.4398 57.8074 16.4398H64.3358V21.4463H66.7939V16.4398H68.9615L68.9627 14.2687Z" fill="white"/>
</mask>
<g mask="url(#mask40_8_840)">
<path d="M67.2125 0.0223514H66.9061V21.4439H67.2125V0.0223514Z" fill="#9CB4DD"/>
</g>
<mask id="mask41_8_840" style="mask-type:luminance" maskUnits="userSpaceOnUse" x="54" y="0" width="28" height="22">
<path d="M72.5192 0.271424V9.59443C72.5192 10.9816 73.2198 11.7851 74.8321 11.7851H77.3097C77.6126 11.8327 77.9225 11.8098 78.2152 11.7182C78.5079 11.6266 78.7756 11.4687 78.9974 11.2568C79.2193 11.0449 79.3893 10.7847 79.4943 10.4964C79.5993 10.2081 79.6365 9.89944 79.603 9.59443V0.271424H82V9.78248C82 12.7131 80.4488 14.226 77.4744 14.226H74.5453C71.5709 14.226 70.0428 12.7167 70.0428 9.78248V0.271424H72.5192ZM68.9627 14.2687H66.7951V8.63709H64.337V14.2675H58.2419C57.5792 14.2675 57.3119 14.0233 57.3119 13.5862C57.332 13.3385 57.3943 13.096 57.4962 12.8694C57.4962 12.8694 63.5486 0.033312 63.5596 0.0259855H60.722L55.27 11.4334C54.8621 12.2389 54.6284 13.1214 54.5841 14.0233C54.5841 15.5936 55.4531 16.4398 57.8074 16.4398H64.3358V21.4463H66.7939V16.4398H68.9615L68.9627 14.2687Z" fill="white"/>
</mask>
<g mask="url(#mask41_8_840)">
<path d="M67.5226 0.0223514H67.2163V21.4439H67.5226V0.0223514Z" fill="#9CB4DE"/>
</g>
<mask id="mask42_8_840" style="mask-type:luminance" maskUnits="userSpaceOnUse" x="54" y="0" width="28" height="22">
<path d="M72.5192 0.271424V9.59443C72.5192 10.9816 73.2198 11.7851 74.8321 11.7851H77.3097C77.6126 11.8327 77.9225 11.8098 78.2152 11.7182C78.5079 11.6266 78.7756 11.4687 78.9974 11.2568C79.2193 11.0449 79.3893 10.7847 79.4943 10.4964C79.5993 10.2081 79.6365 9.89944 79.603 9.59443V0.271424H82V9.78248C82 12.7131 80.4488 14.226 77.4744 14.226H74.5453C71.5709 14.226 70.0428 12.7167 70.0428 9.78248V0.271424H72.5192ZM68.9627 14.2687H66.7951V8.63709H64.337V14.2675H58.2419C57.5792 14.2675 57.3119 14.0233 57.3119 13.5862C57.332 13.3385 57.3943 13.096 57.4962 12.8694C57.4962 12.8694 63.5486 0.033312 63.5596 0.0259855H60.722L55.27 11.4334C54.8621 12.2389 54.6284 13.1214 54.5841 14.0233C54.5841 15.5936 55.4531 16.4398 57.8074 16.4398H64.3358V21.4463H66.7939V16.4398H68.9615L68.9627 14.2687Z" fill="white"/>
</mask>
<g mask="url(#mask42_8_840)">
<path d="M67.829 0.0223514H67.5226V21.4439H67.829V0.0223514Z" fill="#9BB5DE"/>
</g>
<mask id="mask43_8_840" style="mask-type:luminance" maskUnits="userSpaceOnUse" x="54" y="0" width="28" height="22">
<path d="M72.5192 0.271424V9.59443C72.5192 10.9816 73.2198 11.7851 74.8321 11.7851H77.3097C77.6126 11.8327 77.9225 11.8098 78.2152 11.7182C78.5079 11.6266 78.7756 11.4687 78.9974 11.2568C79.2193 11.0449 79.3893 10.7847 79.4943 10.4964C79.5993 10.2081 79.6365 9.89944 79.603 9.59443V0.271424H82V9.78248C82 12.7131 80.4488 14.226 77.4744 14.226H74.5453C71.5709 14.226 70.0428 12.7167 70.0428 9.78248V0.271424H72.5192ZM68.9627 14.2687H66.7951V8.63709H64.337V14.2675H58.2419C57.5792 14.2675 57.3119 14.0233 57.3119 13.5862C57.332 13.3385 57.3943 13.096 57.4962 12.8694C57.4962 12.8694 63.5486 0.033312 63.5596 0.0259855H60.722L55.27 11.4334C54.8621 12.2389 54.6284 13.1214 54.5841 14.0233C54.5841 15.5936 55.4531 16.4398 57.8074 16.4398H64.3358V21.4463H66.7939V16.4398H68.9615L68.9627 14.2687Z" fill="white"/>
</mask>
<g mask="url(#mask43_8_840)">
<path d="M68.1389 0.0223514H67.8325V21.4439H68.1389V0.0223514Z" fill="#9BB5DF"/>
</g>
<mask id="mask44_8_840" style="mask-type:luminance" maskUnits="userSpaceOnUse" x="54" y="0" width="28" height="22">
<path d="M72.5192 0.271424V9.59443C72.5192 10.9816 73.2198 11.7851 74.8321 11.7851H77.3097C77.6126 11.8327 77.9225 11.8098 78.2152 11.7182C78.5079 11.6266 78.7756 11.4687 78.9974 11.2568C79.2193 11.0449 79.3893 10.7847 79.4943 10.4964C79.5993 10.2081 79.6365 9.89944 79.603 9.59443V0.271424H82V9.78248C82 12.7131 80.4488 14.226 77.4744 14.226H74.5453C71.5709 14.226 70.0428 12.7167 70.0428 9.78248V0.271424H72.5192ZM68.9627 14.2687H66.7951V8.63709H64.337V14.2675H58.2419C57.5792 14.2675 57.3119 14.0233 57.3119 13.5862C57.332 13.3385 57.3943 13.096 57.4962 12.8694C57.4962 12.8694 63.5486 0.033312 63.5596 0.0259855H60.722L55.27 11.4334C54.8621 12.2389 54.6284 13.1214 54.5841 14.0233C54.5841 15.5936 55.4531 16.4398 57.8074 16.4398H64.3358V21.4463H66.7939V16.4398H68.9615L68.9627 14.2687Z" fill="white"/>
</mask>
<g mask="url(#mask44_8_840)">
<path d="M68.4452 0.0223514H68.1388V21.4439H68.4452V0.0223514Z" fill="#9BB6DF"/>
</g>
<mask id="mask45_8_840" style="mask-type:luminance" maskUnits="userSpaceOnUse" x="54" y="0" width="28" height="22">
<path d="M72.5192 0.271424V9.59443C72.5192 10.9816 73.2198 11.7851 74.8321 11.7851H77.3097C77.6126 11.8327 77.9225 11.8098 78.2152 11.7182C78.5079 11.6266 78.7756 11.4687 78.9974 11.2568C79.2193 11.0449 79.3893 10.7847 79.4943 10.4964C79.5993 10.2081 79.6365 9.89944 79.603 9.59443V0.271424H82V9.78248C82 12.7131 80.4488 14.226 77.4744 14.226H74.5453C71.5709 14.226 70.0428 12.7167 70.0428 9.78248V0.271424H72.5192ZM68.9627 14.2687H66.7951V8.63709H64.337V14.2675H58.2419C57.5792 14.2675 57.3119 14.0233 57.3119 13.5862C57.332 13.3385 57.3943 13.096 57.4962 12.8694C57.4962 12.8694 63.5486 0.033312 63.5596 0.0259855H60.722L55.27 11.4334C54.8621 12.2389 54.6284 13.1214 54.5841 14.0233C54.5841 15.5936 55.4531 16.4398 57.8074 16.4398H64.3358V21.4463H66.7939V16.4398H68.9615L68.9627 14.2687Z" fill="white"/>
</mask>
<g mask="url(#mask45_8_840)">
<path d="M68.7553 0.0223514H68.449V21.4439H68.7553V0.0223514Z" fill="#9AB7DF"/>
</g>
<mask id="mask46_8_840" style="mask-type:luminance" maskUnits="userSpaceOnUse" x="54" y="0" width="28" height="22">
<path d="M72.5192 0.271424V9.59443C72.5192 10.9816 73.2198 11.7851 74.8321 11.7851H77.3097C77.6126 11.8327 77.9225 11.8098 78.2152 11.7182C78.5079 11.6266 78.7756 11.4687 78.9974 11.2568C79.2193 11.0449 79.3893 10.7847 79.4943 10.4964C79.5993 10.2081 79.6365 9.89944 79.603 9.59443V0.271424H82V9.78248C82 12.7131 80.4488 14.226 77.4744 14.226H74.5453C71.5709 14.226 70.0428 12.7167 70.0428 9.78248V0.271424H72.5192ZM68.9627 14.2687H66.7951V8.63709H64.337V14.2675H58.2419C57.5792 14.2675 57.3119 14.0233 57.3119 13.5862C57.332 13.3385 57.3943 13.096 57.4962 12.8694C57.4962 12.8694 63.5486 0.033312 63.5596 0.0259855H60.722L55.27 11.4334C54.8621 12.2389 54.6284 13.1214 54.5841 14.0233C54.5841 15.5936 55.4531 16.4398 57.8074 16.4398H64.3358V21.4463H66.7939V16.4398H68.9615L68.9627 14.2687Z" fill="white"/>
</mask>
<g mask="url(#mask46_8_840)">
<path d="M68.9616 0.0223514H68.7553V21.4439H68.9616V0.0223514Z" fill="#9AB7E0"/>
</g>
<mask id="mask47_8_840" style="mask-type:luminance" maskUnits="userSpaceOnUse" x="54" y="0" width="28" height="22">
<path d="M72.5192 0.271424V9.59443C72.5192 10.9816 73.2198 11.7851 74.8321 11.7851H77.3097C77.6126 11.8327 77.9225 11.8098 78.2152 11.7182C78.5079 11.6266 78.7756 11.4687 78.9974 11.2568C79.2193 11.0449 79.3893 10.7847 79.4943 10.4964C79.5993 10.2081 79.6365 9.89944 79.603 9.59443V0.271424H82V9.78248C82 12.7131 80.4488 14.226 77.4744 14.226H74.5453C71.5709 14.226 70.0428 12.7167 70.0428 9.78248V0.271424H72.5192ZM68.9627 14.2687H66.7951V8.63709H64.337V14.2675H58.2419C57.5792 14.2675 57.3119 14.0233 57.3119 13.5862C57.332 13.3385 57.3943 13.096 57.4962 12.8694C57.4962 12.8694 63.5486 0.033312 63.5596 0.0259855H60.722L55.27 11.4334C54.8621 12.2389 54.6284 13.1214 54.5841 14.0233C54.5841 15.5936 55.4531 16.4398 57.8074 16.4398H64.3358V21.4463H66.7939V16.4398H68.9615L68.9627 14.2687Z" fill="white"/>
</mask>
<g mask="url(#mask47_8_840)">
<path d="M70.2944 0.271307H70.0381V14.2222H70.2944V0.271307Z" fill="#98B9E2"/>
</g>
<mask id="mask48_8_840" style="mask-type:luminance" maskUnits="userSpaceOnUse" x="54" y="0" width="28" height="22">
<path d="M72.5192 0.271424V9.59443C72.5192 10.9816 73.2198 11.7851 74.8321 11.7851H77.3097C77.6126 11.8327 77.9225 11.8098 78.2152 11.7182C78.5079 11.6266 78.7756 11.4687 78.9974 11.2568C79.2193 11.0449 79.3893 10.7847 79.4943 10.4964C79.5993 10.2081 79.6365 9.89944 79.603 9.59443V0.271424H82V9.78248C82 12.7131 80.4488 14.226 77.4744 14.226H74.5453C71.5709 14.226 70.0428 12.7167 70.0428 9.78248V0.271424H72.5192ZM68.9627 14.2687H66.7951V8.63709H64.337V14.2675H58.2419C57.5792 14.2675 57.3119 14.0233 57.3119 13.5862C57.332 13.3385 57.3943 13.096 57.4962 12.8694C57.4962 12.8694 63.5486 0.033312 63.5596 0.0259855H60.722L55.27 11.4334C54.8621 12.2389 54.6284 13.1214 54.5841 14.0233C54.5841 15.5936 55.4531 16.4398 57.8074 16.4398H64.3358V21.4463H66.7939V16.4398H68.9615L68.9627 14.2687Z" fill="white"/>
</mask>
<g mask="url(#mask48_8_840)">
<path d="M70.6007 0.271307H70.2944V14.2222H70.6007V0.271307Z" fill="#98BAE2"/>
</g>
<mask id="mask49_8_840" style="mask-type:luminance" maskUnits="userSpaceOnUse" x="54" y="0" width="28" height="22">
<path d="M72.5192 0.271424V9.59443C72.5192 10.9816 73.2198 11.7851 74.8321 11.7851H77.3097C77.6126 11.8327 77.9225 11.8098 78.2152 11.7182C78.5079 11.6266 78.7756 11.4687 78.9974 11.2568C79.2193 11.0449 79.3893 10.7847 79.4943 10.4964C79.5993 10.2081 79.6365 9.89944 79.603 9.59443V0.271424H82V9.78248C82 12.7131 80.4488 14.226 77.4744 14.226H74.5453C71.5709 14.226 70.0428 12.7167 70.0428 9.78248V0.271424H72.5192ZM68.9627 14.2687H66.7951V8.63709H64.337V14.2675H58.2419C57.5792 14.2675 57.3119 14.0233 57.3119 13.5862C57.332 13.3385 57.3943 13.096 57.4962 12.8694C57.4962 12.8694 63.5486 0.033312 63.5596 0.0259855H60.722L55.27 11.4334C54.8621 12.2389 54.6284 13.1214 54.5841 14.0233C54.5841 15.5936 55.4531 16.4398 57.8074 16.4398H64.3358V21.4463H66.7939V16.4398H68.9615L68.9627 14.2687Z" fill="white"/>
</mask>
<g mask="url(#mask49_8_840)">
<path d="M70.9118 0.271307H70.6054V14.2222H70.9118V0.271307Z" fill="#97BAE3"/>
</g>
<mask id="mask50_8_840" style="mask-type:luminance" maskUnits="userSpaceOnUse" x="54" y="0" width="28" height="22">
<path d="M72.5192 0.271424V9.59443C72.5192 10.9816 73.2198 11.7851 74.8321 11.7851H77.3097C77.6126 11.8327 77.9225 11.8098 78.2152 11.7182C78.5079 11.6266 78.7756 11.4687 78.9974 11.2568C79.2193 11.0449 79.3893 10.7847 79.4943 10.4964C79.5993 10.2081 79.6365 9.89944 79.603 9.59443V0.271424H82V9.78248C82 12.7131 80.4488 14.226 77.4744 14.226H74.5453C71.5709 14.226 70.0428 12.7167 70.0428 9.78248V0.271424H72.5192ZM68.9627 14.2687H66.7951V8.63709H64.337V14.2675H58.2419C57.5792 14.2675 57.3119 14.0233 57.3119 13.5862C57.332 13.3385 57.3943 13.096 57.4962 12.8694C57.4962 12.8694 63.5486 0.033312 63.5596 0.0259855H60.722L55.27 11.4334C54.8621 12.2389 54.6284 13.1214 54.5841 14.0233C54.5841 15.5936 55.4531 16.4398 57.8074 16.4398H64.3358V21.4463H66.7939V16.4398H68.9615L68.9627 14.2687Z" fill="white"/>
</mask>
<g mask="url(#mask50_8_840)">
<path d="M71.2169 0.271307H70.9106V14.2222H71.2169V0.271307Z" fill="#97BBE3"/>
</g>
<mask id="mask51_8_840" style="mask-type:luminance" maskUnits="userSpaceOnUse" x="54" y="0" width="28" height="22">
<path d="M72.5192 0.271424V9.59443C72.5192 10.9816 73.2198 11.7851 74.8321 11.7851H77.3097C77.6126 11.8327 77.9225 11.8098 78.2152 11.7182C78.5079 11.6266 78.7756 11.4687 78.9974 11.2568C79.2193 11.0449 79.3893 10.7847 79.4943 10.4964C79.5993 10.2081 79.6365 9.89944 79.603 9.59443V0.271424H82V9.78248C82 12.7131 80.4488 14.226 77.4744 14.226H74.5453C71.5709 14.226 70.0428 12.7167 70.0428 9.78248V0.271424H72.5192ZM68.9627 14.2687H66.7951V8.63709H64.337V14.2675H58.2419C57.5792 14.2675 57.3119 14.0233 57.3119 13.5862C57.332 13.3385 57.3943 13.096 57.4962 12.8694C57.4962 12.8694 63.5486 0.033312 63.5596 0.0259855H60.722L55.27 11.4334C54.8621 12.2389 54.6284 13.1214 54.5841 14.0233C54.5841 15.5936 55.4531 16.4398 57.8074 16.4398H64.3358V21.4463H66.7939V16.4398H68.9615L68.9627 14.2687Z" fill="white"/>
</mask>
<g mask="url(#mask51_8_840)">
<path d="M71.5283 0.271307H71.2219V14.2222H71.5283V0.271307Z" fill="#97BCE3"/>
</g>
<mask id="mask52_8_840" style="mask-type:luminance" maskUnits="userSpaceOnUse" x="54" y="0" width="28" height="22">
<path d="M72.5192 0.271424V9.59443C72.5192 10.9816 73.2198 11.7851 74.8321 11.7851H77.3097C77.6126 11.8327 77.9225 11.8098 78.2152 11.7182C78.5079 11.6266 78.7756 11.4687 78.9974 11.2568C79.2193 11.0449 79.3893 10.7847 79.4943 10.4964C79.5993 10.2081 79.6365 9.89944 79.603 9.59443V0.271424H82V9.78248C82 12.7131 80.4488 14.226 77.4744 14.226H74.5453C71.5709 14.226 70.0428 12.7167 70.0428 9.78248V0.271424H72.5192ZM68.9627 14.2687H66.7951V8.63709H64.337V14.2675H58.2419C57.5792 14.2675 57.3119 14.0233 57.3119 13.5862C57.332 13.3385 57.3943 13.096 57.4962 12.8694C57.4962 12.8694 63.5486 0.033312 63.5596 0.0259855H60.722L55.27 11.4334C54.8621 12.2389 54.6284 13.1214 54.5841 14.0233C54.5841 15.5936 55.4531 16.4398 57.8074 16.4398H64.3358V21.4463H66.7939V16.4398H68.9615L68.9627 14.2687Z" fill="white"/>
</mask>
<g mask="url(#mask52_8_840)">
<path d="M71.8346 0.271307H71.5283V14.2222H71.8346V0.271307Z" fill="#96BCE4"/>
</g>
<mask id="mask53_8_840" style="mask-type:luminance" maskUnits="userSpaceOnUse" x="54" y="0" width="28" height="22">
<path d="M72.5192 0.271424V9.59443C72.5192 10.9816 73.2198 11.7851 74.8321 11.7851H77.3097C77.6126 11.8327 77.9225 11.8098 78.2152 11.7182C78.5079 11.6266 78.7756 11.4687 78.9974 11.2568C79.2193 11.0449 79.3893 10.7847 79.4943 10.4964C79.5993 10.2081 79.6365 9.89944 79.603 9.59443V0.271424H82V9.78248C82 12.7131 80.4488 14.226 77.4744 14.226H74.5453C71.5709 14.226 70.0428 12.7167 70.0428 9.78248V0.271424H72.5192ZM68.9627 14.2687H66.7951V8.63709H64.337V14.2675H58.2419C57.5792 14.2675 57.3119 14.0233 57.3119 13.5862C57.332 13.3385 57.3943 13.096 57.4962 12.8694C57.4962 12.8694 63.5486 0.033312 63.5596 0.0259855H60.722L55.27 11.4334C54.8621 12.2389 54.6284 13.1214 54.5841 14.0233C54.5841 15.5936 55.4531 16.4398 57.8074 16.4398H64.3358V21.4463H66.7939V16.4398H68.9615L68.9627 14.2687Z" fill="white"/>
</mask>
<g mask="url(#mask53_8_840)">
<path d="M72.1445 0.271307H71.8381V14.2222H72.1445V0.271307Z" fill="#96BDE4"/>
</g>
<mask id="mask54_8_840" style="mask-type:luminance" maskUnits="userSpaceOnUse" x="54" y="0" width="28" height="22">
<path d="M72.5192 0.271424V9.59443C72.5192 10.9816 73.2198 11.7851 74.8321 11.7851H77.3097C77.6126 11.8327 77.9225 11.8098 78.2152 11.7182C78.5079 11.6266 78.7756 11.4687 78.9974 11.2568C79.2193 11.0449 79.3893 10.7847 79.4943 10.4964C79.5993 10.2081 79.6365 9.89944 79.603 9.59443V0.271424H82V9.78248C82 12.7131 80.4488 14.226 77.4744 14.226H74.5453C71.5709 14.226 70.0428 12.7167 70.0428 9.78248V0.271424H72.5192ZM68.9627 14.2687H66.7951V8.63709H64.337V14.2675H58.2419C57.5792 14.2675 57.3119 14.0233 57.3119 13.5862C57.332 13.3385 57.3943 13.096 57.4962 12.8694C57.4962 12.8694 63.5486 0.033312 63.5596 0.0259855H60.722L55.27 11.4334C54.8621 12.2389 54.6284 13.1214 54.5841 14.0233C54.5841 15.5936 55.4531 16.4398 57.8074 16.4398H64.3358V21.4463H66.7939V16.4398H68.9615L68.9627 14.2687Z" fill="white"/>
</mask>
<g mask="url(#mask54_8_840)">
<path d="M72.4508 0.271307H72.1445V14.2222H72.4508V0.271307Z" fill="#95BDE5"/>
</g>
<mask id="mask55_8_840" style="mask-type:luminance" maskUnits="userSpaceOnUse" x="54" y="0" width="28" height="22">
<path d="M72.5192 0.271424V9.59443C72.5192 10.9816 73.2198 11.7851 74.8321 11.7851H77.3097C77.6126 11.8327 77.9225 11.8098 78.2152 11.7182C78.5079 11.6266 78.7756 11.4687 78.9974 11.2568C79.2193 11.0449 79.3893 10.7847 79.4943 10.4964C79.5993 10.2081 79.6365 9.89944 79.603 9.59443V0.271424H82V9.78248C82 12.7131 80.4488 14.226 77.4744 14.226H74.5453C71.5709 14.226 70.0428 12.7167 70.0428 9.78248V0.271424H72.5192ZM68.9627 14.2687H66.7951V8.63709H64.337V14.2675H58.2419C57.5792 14.2675 57.3119 14.0233 57.3119 13.5862C57.332 13.3385 57.3943 13.096 57.4962 12.8694C57.4962 12.8694 63.5486 0.033312 63.5596 0.0259855H60.722L55.27 11.4334C54.8621 12.2389 54.6284 13.1214 54.5841 14.0233C54.5841 15.5936 55.4531 16.4398 57.8074 16.4398H64.3358V21.4463H66.7939V16.4398H68.9615L68.9627 14.2687Z" fill="white"/>
</mask>
<g mask="url(#mask55_8_840)">
<path d="M72.761 0.271307H72.4546V14.2222H72.761V0.271307Z" fill="#95BEE5"/>
</g>
<mask id="mask56_8_840" style="mask-type:luminance" maskUnits="userSpaceOnUse" x="54" y="0" width="28" height="22">
<path d="M72.5192 0.271424V9.59443C72.5192 10.9816 73.2198 11.7851 74.8321 11.7851H77.3097C77.6126 11.8327 77.9225 11.8098 78.2152 11.7182C78.5079 11.6266 78.7756 11.4687 78.9974 11.2568C79.2193 11.0449 79.3893 10.7847 79.4943 10.4964C79.5993 10.2081 79.6365 9.89944 79.603 9.59443V0.271424H82V9.78248C82 12.7131 80.4488 14.226 77.4744 14.226H74.5453C71.5709 14.226 70.0428 12.7167 70.0428 9.78248V0.271424H72.5192ZM68.9627 14.2687H66.7951V8.63709H64.337V14.2675H58.2419C57.5792 14.2675 57.3119 14.0233 57.3119 13.5862C57.332 13.3385 57.3943 13.096 57.4962 12.8694C57.4962 12.8694 63.5486 0.033312 63.5596 0.0259855H60.722L55.27 11.4334C54.8621 12.2389 54.6284 13.1214 54.5841 14.0233C54.5841 15.5936 55.4531 16.4398 57.8074 16.4398H64.3358V21.4463H66.7939V16.4398H68.9615L68.9627 14.2687Z" fill="white"/>
</mask>
<g mask="url(#mask56_8_840)">
<path d="M73.0673 0.271307H72.761V14.2222H73.0673V0.271307Z" fill="#94BEE6"/>
</g>
<mask id="mask57_8_840" style="mask-type:luminance" maskUnits="userSpaceOnUse" x="54" y="0" width="28" height="22">
<path d="M72.5192 0.271424V9.59443C72.5192 10.9816 73.2198 11.7851 74.8321 11.7851H77.3097C77.6126 11.8327 77.9225 11.8098 78.2152 11.7182C78.5079 11.6266 78.7756 11.4687 78.9974 11.2568C79.2193 11.0449 79.3893 10.7847 79.4943 10.4964C79.5993 10.2081 79.6365 9.89944 79.603 9.59443V0.271424H82V9.78248C82 12.7131 80.4488 14.226 77.4744 14.226H74.5453C71.5709 14.226 70.0428 12.7167 70.0428 9.78248V0.271424H72.5192ZM68.9627 14.2687H66.7951V8.63709H64.337V14.2675H58.2419C57.5792 14.2675 57.3119 14.0233 57.3119 13.5862C57.332 13.3385 57.3943 13.096 57.4962 12.8694C57.4962 12.8694 63.5486 0.033312 63.5596 0.0259855H60.722L55.27 11.4334C54.8621 12.2389 54.6284 13.1214 54.5841 14.0233C54.5841 15.5936 55.4531 16.4398 57.8074 16.4398H64.3358V21.4463H66.7939V16.4398H68.9615L68.9627 14.2687Z" fill="white"/>
</mask>
<g mask="url(#mask57_8_840)">
<path d="M73.3736 0.271307H73.0673V14.2222H73.3736V0.271307Z" fill="#94BFE6"/>
</g>
<mask id="mask58_8_840" style="mask-type:luminance" maskUnits="userSpaceOnUse" x="54" y="0" width="28" height="22">
<path d="M72.5192 0.271424V9.59443C72.5192 10.9816 73.2198 11.7851 74.8321 11.7851H77.3097C77.6126 11.8327 77.9225 11.8098 78.2152 11.7182C78.5079 11.6266 78.7756 11.4687 78.9974 11.2568C79.2193 11.0449 79.3893 10.7847 79.4943 10.4964C79.5993 10.2081 79.6365 9.89944 79.603 9.59443V0.271424H82V9.78248C82 12.7131 80.4488 14.226 77.4744 14.226H74.5453C71.5709 14.226 70.0428 12.7167 70.0428 9.78248V0.271424H72.5192ZM68.9627 14.2687H66.7951V8.63709H64.337V14.2675H58.2419C57.5792 14.2675 57.3119 14.0233 57.3119 13.5862C57.332 13.3385 57.3943 13.096 57.4962 12.8694C57.4962 12.8694 63.5486 0.033312 63.5596 0.0259855H60.722L55.27 11.4334C54.8621 12.2389 54.6284 13.1214 54.5841 14.0233C54.5841 15.5936 55.4531 16.4398 57.8074 16.4398H64.3358V21.4463H66.7939V16.4398H68.9615L68.9627 14.2687Z" fill="white"/>
</mask>
<g mask="url(#mask58_8_840)">
<path d="M73.6835 0.271307H73.3772V14.2222H73.6835V0.271307Z" fill="#94BFE6"/>
</g>
<mask id="mask59_8_840" style="mask-type:luminance" maskUnits="userSpaceOnUse" x="54" y="0" width="28" height="22">
<path d="M72.5192 0.271424V9.59443C72.5192 10.9816 73.2198 11.7851 74.8321 11.7851H77.3097C77.6126 11.8327 77.9225 11.8098 78.2152 11.7182C78.5079 11.6266 78.7756 11.4687 78.9974 11.2568C79.2193 11.0449 79.3893 10.7847 79.4943 10.4964C79.5993 10.2081 79.6365 9.89944 79.603 9.59443V0.271424H82V9.78248C82 12.7131 80.4488 14.226 77.4744 14.226H74.5453C71.5709 14.226 70.0428 12.7167 70.0428 9.78248V0.271424H72.5192ZM68.9627 14.2687H66.7951V8.63709H64.337V14.2675H58.2419C57.5792 14.2675 57.3119 14.0233 57.3119 13.5862C57.332 13.3385 57.3943 13.096 57.4962 12.8694C57.4962 12.8694 63.5486 0.033312 63.5596 0.0259855H60.722L55.27 11.4334C54.8621 12.2389 54.6284 13.1214 54.5841 14.0233C54.5841 15.5936 55.4531 16.4398 57.8074 16.4398H64.3358V21.4463H66.7939V16.4398H68.9615L68.9627 14.2687Z" fill="white"/>
</mask>
<g mask="url(#mask59_8_840)">
<path d="M73.9898 0.271307H73.6835V14.2222H73.9898V0.271307Z" fill="#93C0E7"/>
</g>
<mask id="mask60_8_840" style="mask-type:luminance" maskUnits="userSpaceOnUse" x="54" y="0" width="28" height="22">
<path d="M72.5192 0.271424V9.59443C72.5192 10.9816 73.2198 11.7851 74.8321 11.7851H77.3097C77.6126 11.8327 77.9225 11.8098 78.2152 11.7182C78.5079 11.6266 78.7756 11.4687 78.9974 11.2568C79.2193 11.0449 79.3893 10.7847 79.4943 10.4964C79.5993 10.2081 79.6365 9.89944 79.603 9.59443V0.271424H82V9.78248C82 12.7131 80.4488 14.226 77.4744 14.226H74.5453C71.5709 14.226 70.0428 12.7167 70.0428 9.78248V0.271424H72.5192ZM68.9627 14.2687H66.7951V8.63709H64.337V14.2675H58.2419C57.5792 14.2675 57.3119 14.0233 57.3119 13.5862C57.332 13.3385 57.3943 13.096 57.4962 12.8694C57.4962 12.8694 63.5486 0.033312 63.5596 0.0259855H60.722L55.27 11.4334C54.8621 12.2389 54.6284 13.1214 54.5841 14.0233C54.5841 15.5936 55.4531 16.4398 57.8074 16.4398H64.3358V21.4463H66.7939V16.4398H68.9615L68.9627 14.2687Z" fill="white"/>
</mask>
<g mask="url(#mask60_8_840)">
<path d="M74.3 0.271307H73.9937V14.2222H74.3V0.271307Z" fill="#93C0E7"/>
</g>
<mask id="mask61_8_840" style="mask-type:luminance" maskUnits="userSpaceOnUse" x="54" y="0" width="28" height="22">
<path d="M72.5192 0.271424V9.59443C72.5192 10.9816 73.2198 11.7851 74.8321 11.7851H77.3097C77.6126 11.8327 77.9225 11.8098 78.2152 11.7182C78.5079 11.6266 78.7756 11.4687 78.9974 11.2568C79.2193 11.0449 79.3893 10.7847 79.4943 10.4964C79.5993 10.2081 79.6365 9.89944 79.603 9.59443V0.271424H82V9.78248C82 12.7131 80.4488 14.226 77.4744 14.226H74.5453C71.5709 14.226 70.0428 12.7167 70.0428 9.78248V0.271424H72.5192ZM68.9627 14.2687H66.7951V8.63709H64.337V14.2675H58.2419C57.5792 14.2675 57.3119 14.0233 57.3119 13.5862C57.332 13.3385 57.3943 13.096 57.4962 12.8694C57.4962 12.8694 63.5486 0.033312 63.5596 0.0259855H60.722L55.27 11.4334C54.8621 12.2389 54.6284 13.1214 54.5841 14.0233C54.5841 15.5936 55.4531 16.4398 57.8074 16.4398H64.3358V21.4463H66.7939V16.4398H68.9615L68.9627 14.2687Z" fill="white"/>
</mask>
<g mask="url(#mask61_8_840)">
<path d="M74.6063 0.271307H74.3V14.2222H74.6063V0.271307Z" fill="#92C1E8"/>
</g>
<mask id="mask62_8_840" style="mask-type:luminance" maskUnits="userSpaceOnUse" x="54" y="0" width="28" height="22">
<path d="M72.5192 0.271424V9.59443C72.5192 10.9816 73.2198 11.7851 74.8321 11.7851H77.3097C77.6126 11.8327 77.9225 11.8098 78.2152 11.7182C78.5079 11.6266 78.7756 11.4687 78.9974 11.2568C79.2193 11.0449 79.3893 10.7847 79.4943 10.4964C79.5993 10.2081 79.6365 9.89944 79.603 9.59443V0.271424H82V9.78248C82 12.7131 80.4488 14.226 77.4744 14.226H74.5453C71.5709 14.226 70.0428 12.7167 70.0428 9.78248V0.271424H72.5192ZM68.9627 14.2687H66.7951V8.63709H64.337V14.2675H58.2419C57.5792 14.2675 57.3119 14.0233 57.3119 13.5862C57.332 13.3385 57.3943 13.096 57.4962 12.8694C57.4962 12.8694 63.5486 0.033312 63.5596 0.0259855H60.722L55.27 11.4334C54.8621 12.2389 54.6284 13.1214 54.5841 14.0233C54.5841 15.5936 55.4531 16.4398 57.8074 16.4398H64.3358V21.4463H66.7939V16.4398H68.9615L68.9627 14.2687Z" fill="white"/>
</mask>
<g mask="url(#mask62_8_840)">
<path d="M74.9162 0.271307H74.6099V14.2222H74.9162V0.271307Z" fill="#92C2E8"/>
</g>
<mask id="mask63_8_840" style="mask-type:luminance" maskUnits="userSpaceOnUse" x="54" y="0" width="28" height="22">
<path d="M72.5192 0.271424V9.59443C72.5192 10.9816 73.2198 11.7851 74.8321 11.7851H77.3097C77.6126 11.8327 77.9225 11.8098 78.2152 11.7182C78.5079 11.6266 78.7756 11.4687 78.9974 11.2568C79.2193 11.0449 79.3893 10.7847 79.4943 10.4964C79.5993 10.2081 79.6365 9.89944 79.603 9.59443V0.271424H82V9.78248C82 12.7131 80.4488 14.226 77.4744 14.226H74.5453C71.5709 14.226 70.0428 12.7167 70.0428 9.78248V0.271424H72.5192ZM68.9627 14.2687H66.7951V8.63709H64.337V14.2675H58.2419C57.5792 14.2675 57.3119 14.0233 57.3119 13.5862C57.332 13.3385 57.3943 13.096 57.4962 12.8694C57.4962 12.8694 63.5486 0.033312 63.5596 0.0259855H60.722L55.27 11.4334C54.8621 12.2389 54.6284 13.1214 54.5841 14.0233C54.5841 15.5936 55.4531 16.4398 57.8074 16.4398H64.3358V21.4463H66.7939V16.4398H68.9615L68.9627 14.2687Z" fill="white"/>
</mask>
<g mask="url(#mask63_8_840)">
<path d="M75.2225 0.271307H74.9162V14.2222H75.2225V0.271307Z" fill="#91C2E9"/>
</g>
<mask id="mask64_8_840" style="mask-type:luminance" maskUnits="userSpaceOnUse" x="54" y="0" width="28" height="22">
<path d="M72.5192 0.271424V9.59443C72.5192 10.9816 73.2198 11.7851 74.8321 11.7851H77.3097C77.6126 11.8327 77.9225 11.8098 78.2152 11.7182C78.5079 11.6266 78.7756 11.4687 78.9974 11.2568C79.2193 11.0449 79.3893 10.7847 79.4943 10.4964C79.5993 10.2081 79.6365 9.89944 79.603 9.59443V0.271424H82V9.78248C82 12.7131 80.4488 14.226 77.4744 14.226H74.5453C71.5709 14.226 70.0428 12.7167 70.0428 9.78248V0.271424H72.5192ZM68.9627 14.2687H66.7951V8.63709H64.337V14.2675H58.2419C57.5792 14.2675 57.3119 14.0233 57.3119 13.5862C57.332 13.3385 57.3943 13.096 57.4962 12.8694C57.4962 12.8694 63.5486 0.033312 63.5596 0.0259855H60.722L55.27 11.4334C54.8621 12.2389 54.6284 13.1214 54.5841 14.0233C54.5841 15.5936 55.4531 16.4398 57.8074 16.4398H64.3358V21.4463H66.7939V16.4398H68.9615L68.9627 14.2687Z" fill="white"/>
</mask>
<g mask="url(#mask64_8_840)">
<path d="M75.5327 0.271307H75.2264V14.2222H75.5327V0.271307Z" fill="#91C3E9"/>
</g>
<mask id="mask65_8_840" style="mask-type:luminance" maskUnits="userSpaceOnUse" x="54" y="0" width="28" height="22">
<path d="M72.5192 0.271424V9.59443C72.5192 10.9816 73.2198 11.7851 74.8321 11.7851H77.3097C77.6126 11.8327 77.9225 11.8098 78.2152 11.7182C78.5079 11.6266 78.7756 11.4687 78.9974 11.2568C79.2193 11.0449 79.3893 10.7847 79.4943 10.4964C79.5993 10.2081 79.6365 9.89944 79.603 9.59443V0.271424H82V9.78248C82 12.7131 80.4488 14.226 77.4744 14.226H74.5453C71.5709 14.226 70.0428 12.7167 70.0428 9.78248V0.271424H72.5192ZM68.9627 14.2687H66.7951V8.63709H64.337V14.2675H58.2419C57.5792 14.2675 57.3119 14.0233 57.3119 13.5862C57.332 13.3385 57.3943 13.096 57.4962 12.8694C57.4962 12.8694 63.5486 0.033312 63.5596 0.0259855H60.722L55.27 11.4334C54.8621 12.2389 54.6284 13.1214 54.5841 14.0233C54.5841 15.5936 55.4531 16.4398 57.8074 16.4398H64.3358V21.4463H66.7939V16.4398H68.9615L68.9627 14.2687Z" fill="white"/>
</mask>
<g mask="url(#mask65_8_840)">
<path d="M75.839 0.271307H75.5327V14.2222H75.839V0.271307Z" fill="#90C3E9"/>
</g>
<mask id="mask66_8_840" style="mask-type:luminance" maskUnits="userSpaceOnUse" x="54" y="0" width="28" height="22">
<path d="M72.5192 0.271424V9.59443C72.5192 10.9816 73.2198 11.7851 74.8321 11.7851H77.3097C77.6126 11.8327 77.9225 11.8098 78.2152 11.7182C78.5079 11.6266 78.7756 11.4687 78.9974 11.2568C79.2193 11.0449 79.3893 10.7847 79.4943 10.4964C79.5993 10.2081 79.6365 9.89944 79.603 9.59443V0.271424H82V9.78248C82 12.7131 80.4488 14.226 77.4744 14.226H74.5453C71.5709 14.226 70.0428 12.7167 70.0428 9.78248V0.271424H72.5192ZM68.9627 14.2687H66.7951V8.63709H64.337V14.2675H58.2419C57.5792 14.2675 57.3119 14.0233 57.3119 13.5862C57.332 13.3385 57.3943 13.096 57.4962 12.8694C57.4962 12.8694 63.5486 0.033312 63.5596 0.0259855H60.722L55.27 11.4334C54.8621 12.2389 54.6284 13.1214 54.5841 14.0233C54.5841 15.5936 55.4531 16.4398 57.8074 16.4398H64.3358V21.4463H66.7939V16.4398H68.9615L68.9627 14.2687Z" fill="white"/>
</mask>
<g mask="url(#mask66_8_840)">
<path d="M76.1489 0.271307H75.8426V14.2222H76.1489V0.271307Z" fill="#90C4EA"/>
</g>
<mask id="mask67_8_840" style="mask-type:luminance" maskUnits="userSpaceOnUse" x="54" y="0" width="28" height="22">
<path d="M72.5192 0.271424V9.59443C72.5192 10.9816 73.2198 11.7851 74.8321 11.7851H77.3097C77.6126 11.8327 77.9225 11.8098 78.2152 11.7182C78.5079 11.6266 78.7756 11.4687 78.9974 11.2568C79.2193 11.0449 79.3893 10.7847 79.4943 10.4964C79.5993 10.2081 79.6365 9.89944 79.603 9.59443V0.271424H82V9.78248C82 12.7131 80.4488 14.226 77.4744 14.226H74.5453C71.5709 14.226 70.0428 12.7167 70.0428 9.78248V0.271424H72.5192ZM68.9627 14.2687H66.7951V8.63709H64.337V14.2675H58.2419C57.5792 14.2675 57.3119 14.0233 57.3119 13.5862C57.332 13.3385 57.3943 13.096 57.4962 12.8694C57.4962 12.8694 63.5486 0.033312 63.5596 0.0259855H60.722L55.27 11.4334C54.8621 12.2389 54.6284 13.1214 54.5841 14.0233C54.5841 15.5936 55.4531 16.4398 57.8074 16.4398H64.3358V21.4463H66.7939V16.4398H68.9615L68.9627 14.2687Z" fill="white"/>
</mask>
<g mask="url(#mask67_8_840)">
<path d="M76.4552 0.271307H76.1489V14.2222H76.4552V0.271307Z" fill="#8FC4EA"/>
</g>
<mask id="mask68_8_840" style="mask-type:luminance" maskUnits="userSpaceOnUse" x="54" y="0" width="28" height="22">
<path d="M72.5192 0.271424V9.59443C72.5192 10.9816 73.2198 11.7851 74.8321 11.7851H77.3097C77.6126 11.8327 77.9225 11.8098 78.2152 11.7182C78.5079 11.6266 78.7756 11.4687 78.9974 11.2568C79.2193 11.0449 79.3893 10.7847 79.4943 10.4964C79.5993 10.2081 79.6365 9.89944 79.603 9.59443V0.271424H82V9.78248C82 12.7131 80.4488 14.226 77.4744 14.226H74.5453C71.5709 14.226 70.0428 12.7167 70.0428 9.78248V0.271424H72.5192ZM68.9627 14.2687H66.7951V8.63709H64.337V14.2675H58.2419C57.5792 14.2675 57.3119 14.0233 57.3119 13.5862C57.332 13.3385 57.3943 13.096 57.4962 12.8694C57.4962 12.8694 63.5486 0.033312 63.5596 0.0259855H60.722L55.27 11.4334C54.8621 12.2389 54.6284 13.1214 54.5841 14.0233C54.5841 15.5936 55.4531 16.4398 57.8074 16.4398H64.3358V21.4463H66.7939V16.4398H68.9615L68.9627 14.2687Z" fill="white"/>
</mask>
<g mask="url(#mask68_8_840)">
<path d="M76.7654 0.271307H76.4591V14.2222H76.7654V0.271307Z" fill="#8FC5EB"/>
</g>
<mask id="mask69_8_840" style="mask-type:luminance" maskUnits="userSpaceOnUse" x="54" y="0" width="28" height="22">
<path d="M72.5192 0.271424V9.59443C72.5192 10.9816 73.2198 11.7851 74.8321 11.7851H77.3097C77.6126 11.8327 77.9225 11.8098 78.2152 11.7182C78.5079 11.6266 78.7756 11.4687 78.9974 11.2568C79.2193 11.0449 79.3893 10.7847 79.4943 10.4964C79.5993 10.2081 79.6365 9.89944 79.603 9.59443V0.271424H82V9.78248C82 12.7131 80.4488 14.226 77.4744 14.226H74.5453C71.5709 14.226 70.0428 12.7167 70.0428 9.78248V0.271424H72.5192ZM68.9627 14.2687H66.7951V8.63709H64.337V14.2675H58.2419C57.5792 14.2675 57.3119 14.0233 57.3119 13.5862C57.332 13.3385 57.3943 13.096 57.4962 12.8694C57.4962 12.8694 63.5486 0.033312 63.5596 0.0259855H60.722L55.27 11.4334C54.8621 12.2389 54.6284 13.1214 54.5841 14.0233C54.5841 15.5936 55.4531 16.4398 57.8074 16.4398H64.3358V21.4463H66.7939V16.4398H68.9615L68.9627 14.2687Z" fill="white"/>
</mask>
<g mask="url(#mask69_8_840)">
<path d="M77.0717 0.271307H76.7654V14.2222H77.0717V0.271307Z" fill="#8FC5EB"/>
</g>
<mask id="mask70_8_840" style="mask-type:luminance" maskUnits="userSpaceOnUse" x="54" y="0" width="28" height="22">
<path d="M72.5192 0.271424V9.59443C72.5192 10.9816 73.2198 11.7851 74.8321 11.7851H77.3097C77.6126 11.8327 77.9225 11.8098 78.2152 11.7182C78.5079 11.6266 78.7756 11.4687 78.9974 11.2568C79.2193 11.0449 79.3893 10.7847 79.4943 10.4964C79.5993 10.2081 79.6365 9.89944 79.603 9.59443V0.271424H82V9.78248C82 12.7131 80.4488 14.226 77.4744 14.226H74.5453C71.5709 14.226 70.0428 12.7167 70.0428 9.78248V0.271424H72.5192ZM68.9627 14.2687H66.7951V8.63709H64.337V14.2675H58.2419C57.5792 14.2675 57.3119 14.0233 57.3119 13.5862C57.332 13.3385 57.3943 13.096 57.4962 12.8694C57.4962 12.8694 63.5486 0.033312 63.5596 0.0259855H60.722L55.27 11.4334C54.8621 12.2389 54.6284 13.1214 54.5841 14.0233C54.5841 15.5936 55.4531 16.4398 57.8074 16.4398H64.3358V21.4463H66.7939V16.4398H68.9615L68.9627 14.2687Z" fill="white"/>
</mask>
<g mask="url(#mask70_8_840)">
<path d="M77.3781 0.271307H77.0717V14.2222H77.3781V0.271307Z" fill="#8EC6EC"/>
</g>
<mask id="mask71_8_840" style="mask-type:luminance" maskUnits="userSpaceOnUse" x="54" y="0" width="28" height="22">
<path d="M72.5192 0.271424V9.59443C72.5192 10.9816 73.2198 11.7851 74.8321 11.7851H77.3097C77.6126 11.8327 77.9225 11.8098 78.2152 11.7182C78.5079 11.6266 78.7756 11.4687 78.9974 11.2568C79.2193 11.0449 79.3893 10.7847 79.4943 10.4964C79.5993 10.2081 79.6365 9.89944 79.603 9.59443V0.271424H82V9.78248C82 12.7131 80.4488 14.226 77.4744 14.226H74.5453C71.5709 14.226 70.0428 12.7167 70.0428 9.78248V0.271424H72.5192ZM68.9627 14.2687H66.7951V8.63709H64.337V14.2675H58.2419C57.5792 14.2675 57.3119 14.0233 57.3119 13.5862C57.332 13.3385 57.3943 13.096 57.4962 12.8694C57.4962 12.8694 63.5486 0.033312 63.5596 0.0259855H60.722L55.27 11.4334C54.8621 12.2389 54.6284 13.1214 54.5841 14.0233C54.5841 15.5936 55.4531 16.4398 57.8074 16.4398H64.3358V21.4463H66.7939V16.4398H68.9615L68.9627 14.2687Z" fill="white"/>
</mask>
<g mask="url(#mask71_8_840)">
<path d="M77.688 0.271307H77.3816V14.2222H77.688V0.271307Z" fill="#8EC7EC"/>
</g>
<mask id="mask72_8_840" style="mask-type:luminance" maskUnits="userSpaceOnUse" x="54" y="0" width="28" height="22">
<path d="M72.5192 0.271424V9.59443C72.5192 10.9816 73.2198 11.7851 74.8321 11.7851H77.3097C77.6126 11.8327 77.9225 11.8098 78.2152 11.7182C78.5079 11.6266 78.7756 11.4687 78.9974 11.2568C79.2193 11.0449 79.3893 10.7847 79.4943 10.4964C79.5993 10.2081 79.6365 9.89944 79.603 9.59443V0.271424H82V9.78248C82 12.7131 80.4488 14.226 77.4744 14.226H74.5453C71.5709 14.226 70.0428 12.7167 70.0428 9.78248V0.271424H72.5192ZM68.9627 14.2687H66.7951V8.63709H64.337V14.2675H58.2419C57.5792 14.2675 57.3119 14.0233 57.3119 13.5862C57.332 13.3385 57.3943 13.096 57.4962 12.8694C57.4962 12.8694 63.5486 0.033312 63.5596 0.0259855H60.722L55.27 11.4334C54.8621 12.2389 54.6284 13.1214 54.5841 14.0233C54.5841 15.5936 55.4531 16.4398 57.8074 16.4398H64.3358V21.4463H66.7939V16.4398H68.9615L68.9627 14.2687Z" fill="white"/>
</mask>
<g mask="url(#mask72_8_840)">
<path d="M77.9943 0.271307H77.6879V14.2222H77.9943V0.271307Z" fill="#8DC7ED"/>
</g>
<mask id="mask73_8_840" style="mask-type:luminance" maskUnits="userSpaceOnUse" x="54" y="0" width="28" height="22">
<path d="M72.5192 0.271424V9.59443C72.5192 10.9816 73.2198 11.7851 74.8321 11.7851H77.3097C77.6126 11.8327 77.9225 11.8098 78.2152 11.7182C78.5079 11.6266 78.7756 11.4687 78.9974 11.2568C79.2193 11.0449 79.3893 10.7847 79.4943 10.4964C79.5993 10.2081 79.6365 9.89944 79.603 9.59443V0.271424H82V9.78248C82 12.7131 80.4488 14.226 77.4744 14.226H74.5453C71.5709 14.226 70.0428 12.7167 70.0428 9.78248V0.271424H72.5192ZM68.9627 14.2687H66.7951V8.63709H64.337V14.2675H58.2419C57.5792 14.2675 57.3119 14.0233 57.3119 13.5862C57.332 13.3385 57.3943 13.096 57.4962 12.8694C57.4962 12.8694 63.5486 0.033312 63.5596 0.0259855H60.722L55.27 11.4334C54.8621 12.2389 54.6284 13.1214 54.5841 14.0233C54.5841 15.5936 55.4531 16.4398 57.8074 16.4398H64.3358V21.4463H66.7939V16.4398H68.9615L68.9627 14.2687Z" fill="white"/>
</mask>
<g mask="url(#mask73_8_840)">
<path d="M78.3045 0.271307H77.9981V14.2222H78.3045V0.271307Z" fill="#8DC8ED"/>
</g>
<mask id="mask74_8_840" style="mask-type:luminance" maskUnits="userSpaceOnUse" x="54" y="0" width="28" height="22">
<path d="M72.5192 0.271424V9.59443C72.5192 10.9816 73.2198 11.7851 74.8321 11.7851H77.3097C77.6126 11.8327 77.9225 11.8098 78.2152 11.7182C78.5079 11.6266 78.7756 11.4687 78.9974 11.2568C79.2193 11.0449 79.3893 10.7847 79.4943 10.4964C79.5993 10.2081 79.6365 9.89944 79.603 9.59443V0.271424H82V9.78248C82 12.7131 80.4488 14.226 77.4744 14.226H74.5453C71.5709 14.226 70.0428 12.7167 70.0428 9.78248V0.271424H72.5192ZM68.9627 14.2687H66.7951V8.63709H64.337V14.2675H58.2419C57.5792 14.2675 57.3119 14.0233 57.3119 13.5862C57.332 13.3385 57.3943 13.096 57.4962 12.8694C57.4962 12.8694 63.5486 0.033312 63.5596 0.0259855H60.722L55.27 11.4334C54.8621 12.2389 54.6284 13.1214 54.5841 14.0233C54.5841 15.5936 55.4531 16.4398 57.8074 16.4398H64.3358V21.4463H66.7939V16.4398H68.9615L68.9627 14.2687Z" fill="white"/>
</mask>
<g mask="url(#mask74_8_840)">
<path d="M78.6108 0.271307H78.3044V14.2222H78.6108V0.271307Z" fill="#8CC8ED"/>
</g>
<mask id="mask75_8_840" style="mask-type:luminance" maskUnits="userSpaceOnUse" x="54" y="0" width="28" height="22">
<path d="M72.5192 0.271424V9.59443C72.5192 10.9816 73.2198 11.7851 74.8321 11.7851H77.3097C77.6126 11.8327 77.9225 11.8098 78.2152 11.7182C78.5079 11.6266 78.7756 11.4687 78.9974 11.2568C79.2193 11.0449 79.3893 10.7847 79.4943 10.4964C79.5993 10.2081 79.6365 9.89944 79.603 9.59443V0.271424H82V9.78248C82 12.7131 80.4488 14.226 77.4744 14.226H74.5453C71.5709 14.226 70.0428 12.7167 70.0428 9.78248V0.271424H72.5192ZM68.9627 14.2687H66.7951V8.63709H64.337V14.2675H58.2419C57.5792 14.2675 57.3119 14.0233 57.3119 13.5862C57.332 13.3385 57.3943 13.096 57.4962 12.8694C57.4962 12.8694 63.5486 0.033312 63.5596 0.0259855H60.722L55.27 11.4334C54.8621 12.2389 54.6284 13.1214 54.5841 14.0233C54.5841 15.5936 55.4531 16.4398 57.8074 16.4398H64.3358V21.4463H66.7939V16.4398H68.9615L68.9627 14.2687Z" fill="white"/>
</mask>
<g mask="url(#mask75_8_840)">
<path d="M78.9207 0.271307H78.6143V14.2222H78.9207V0.271307Z" fill="#8CC9EE"/>
</g>
<mask id="mask76_8_840" style="mask-type:luminance" maskUnits="userSpaceOnUse" x="54" y="0" width="28" height="22">
<path d="M72.5192 0.271424V9.59443C72.5192 10.9816 73.2198 11.7851 74.8321 11.7851H77.3097C77.6126 11.8327 77.9225 11.8098 78.2152 11.7182C78.5079 11.6266 78.7756 11.4687 78.9974 11.2568C79.2193 11.0449 79.3893 10.7847 79.4943 10.4964C79.5993 10.2081 79.6365 9.89944 79.603 9.59443V0.271424H82V9.78248C82 12.7131 80.4488 14.226 77.4744 14.226H74.5453C71.5709 14.226 70.0428 12.7167 70.0428 9.78248V0.271424H72.5192ZM68.9627 14.2687H66.7951V8.63709H64.337V14.2675H58.2419C57.5792 14.2675 57.3119 14.0233 57.3119 13.5862C57.332 13.3385 57.3943 13.096 57.4962 12.8694C57.4962 12.8694 63.5486 0.033312 63.5596 0.0259855H60.722L55.27 11.4334C54.8621 12.2389 54.6284 13.1214 54.5841 14.0233C54.5841 15.5936 55.4531 16.4398 57.8074 16.4398H64.3358V21.4463H66.7939V16.4398H68.9615L68.9627 14.2687Z" fill="white"/>
</mask>
<g mask="url(#mask76_8_840)">
<path d="M79.227 0.271307H78.9206V14.2222H79.227V0.271307Z" fill="#8BC9EE"/>
</g>
<mask id="mask77_8_840" style="mask-type:luminance" maskUnits="userSpaceOnUse" x="54" y="0" width="28" height="22">
<path d="M72.5192 0.271424V9.59443C72.5192 10.9816 73.2198 11.7851 74.8321 11.7851H77.3097C77.6126 11.8327 77.9225 11.8098 78.2152 11.7182C78.5079 11.6266 78.7756 11.4687 78.9974 11.2568C79.2193 11.0449 79.3893 10.7847 79.4943 10.4964C79.5993 10.2081 79.6365 9.89944 79.603 9.59443V0.271424H82V9.78248C82 12.7131 80.4488 14.226 77.4744 14.226H74.5453C71.5709 14.226 70.0428 12.7167 70.0428 9.78248V0.271424H72.5192ZM68.9627 14.2687H66.7951V8.63709H64.337V14.2675H58.2419C57.5792 14.2675 57.3119 14.0233 57.3119 13.5862C57.332 13.3385 57.3943 13.096 57.4962 12.8694C57.4962 12.8694 63.5486 0.033312 63.5596 0.0259855H60.722L55.27 11.4334C54.8621 12.2389 54.6284 13.1214 54.5841 14.0233C54.5841 15.5936 55.4531 16.4398 57.8074 16.4398H64.3358V21.4463H66.7939V16.4398H68.9615L68.9627 14.2687Z" fill="white"/>
</mask>
<g mask="url(#mask77_8_840)">
<path d="M79.5372 0.271307H79.2308V14.2222H79.5372V0.271307Z" fill="#8BCAEF"/>
</g>
<mask id="mask78_8_840" style="mask-type:luminance" maskUnits="userSpaceOnUse" x="54" y="0" width="28" height="22">
<path d="M72.5192 0.271424V9.59443C72.5192 10.9816 73.2198 11.7851 74.8321 11.7851H77.3097C77.6126 11.8327 77.9225 11.8098 78.2152 11.7182C78.5079 11.6266 78.7756 11.4687 78.9974 11.2568C79.2193 11.0449 79.3893 10.7847 79.4943 10.4964C79.5993 10.2081 79.6365 9.89944 79.603 9.59443V0.271424H82V9.78248C82 12.7131 80.4488 14.226 77.4744 14.226H74.5453C71.5709 14.226 70.0428 12.7167 70.0428 9.78248V0.271424H72.5192ZM68.9627 14.2687H66.7951V8.63709H64.337V14.2675H58.2419C57.5792 14.2675 57.3119 14.0233 57.3119 13.5862C57.332 13.3385 57.3943 13.096 57.4962 12.8694C57.4962 12.8694 63.5486 0.033312 63.5596 0.0259855H60.722L55.27 11.4334C54.8621 12.2389 54.6284 13.1214 54.5841 14.0233C54.5841 15.5936 55.4531 16.4398 57.8074 16.4398H64.3358V21.4463H66.7939V16.4398H68.9615L68.9627 14.2687Z" fill="white"/>
</mask>
<g mask="url(#mask78_8_840)">
<path d="M79.8435 0.271307H79.5371V14.2222H79.8435V0.271307Z" fill="#8ACAEF"/>
</g>
<mask id="mask79_8_840" style="mask-type:luminance" maskUnits="userSpaceOnUse" x="54" y="0" width="28" height="22">
<path d="M72.5192 0.271424V9.59443C72.5192 10.9816 73.2198 11.7851 74.8321 11.7851H77.3097C77.6126 11.8327 77.9225 11.8098 78.2152 11.7182C78.5079 11.6266 78.7756 11.4687 78.9974 11.2568C79.2193 11.0449 79.3893 10.7847 79.4943 10.4964C79.5993 10.2081 79.6365 9.89944 79.603 9.59443V0.271424H82V9.78248C82 12.7131 80.4488 14.226 77.4744 14.226H74.5453C71.5709 14.226 70.0428 12.7167 70.0428 9.78248V0.271424H72.5192ZM68.9627 14.2687H66.7951V8.63709H64.337V14.2675H58.2419C57.5792 14.2675 57.3119 14.0233 57.3119 13.5862C57.332 13.3385 57.3943 13.096 57.4962 12.8694C57.4962 12.8694 63.5486 0.033312 63.5596 0.0259855H60.722L55.27 11.4334C54.8621 12.2389 54.6284 13.1214 54.5841 14.0233C54.5841 15.5936 55.4531 16.4398 57.8074 16.4398H64.3358V21.4463H66.7939V16.4398H68.9615L68.9627 14.2687Z" fill="white"/>
</mask>
<g mask="url(#mask79_8_840)">
<path d="M80.1534 0.271307H79.847V14.2222H80.1534V0.271307Z" fill="#8ACBF0"/>
</g>
<mask id="mask80_8_840" style="mask-type:luminance" maskUnits="userSpaceOnUse" x="54" y="0" width="28" height="22">
<path d="M72.5192 0.271424V9.59443C72.5192 10.9816 73.2198 11.7851 74.8321 11.7851H77.3097C77.6126 11.8327 77.9225 11.8098 78.2152 11.7182C78.5079 11.6266 78.7756 11.4687 78.9974 11.2568C79.2193 11.0449 79.3893 10.7847 79.4943 10.4964C79.5993 10.2081 79.6365 9.89944 79.603 9.59443V0.271424H82V9.78248C82 12.7131 80.4488 14.226 77.4744 14.226H74.5453C71.5709 14.226 70.0428 12.7167 70.0428 9.78248V0.271424H72.5192ZM68.9627 14.2687H66.7951V8.63709H64.337V14.2675H58.2419C57.5792 14.2675 57.3119 14.0233 57.3119 13.5862C57.332 13.3385 57.3943 13.096 57.4962 12.8694C57.4962 12.8694 63.5486 0.033312 63.5596 0.0259855H60.722L55.27 11.4334C54.8621 12.2389 54.6284 13.1214 54.5841 14.0233C54.5841 15.5936 55.4531 16.4398 57.8074 16.4398H64.3358V21.4463H66.7939V16.4398H68.9615L68.9627 14.2687Z" fill="white"/>
</mask>
<g mask="url(#mask80_8_840)">
<path d="M80.4597 0.271307H80.1533V14.2222H80.4597V0.271307Z" fill="#89CBF0"/>
</g>
<mask id="mask81_8_840" style="mask-type:luminance" maskUnits="userSpaceOnUse" x="54" y="0" width="28" height="22">
<path d="M72.5192 0.271424V9.59443C72.5192 10.9816 73.2198 11.7851 74.8321 11.7851H77.3097C77.6126 11.8327 77.9225 11.8098 78.2152 11.7182C78.5079 11.6266 78.7756 11.4687 78.9974 11.2568C79.2193 11.0449 79.3893 10.7847 79.4943 10.4964C79.5993 10.2081 79.6365 9.89944 79.603 9.59443V0.271424H82V9.78248C82 12.7131 80.4488 14.226 77.4744 14.226H74.5453C71.5709 14.226 70.0428 12.7167 70.0428 9.78248V0.271424H72.5192ZM68.9627 14.2687H66.7951V8.63709H64.337V14.2675H58.2419C57.5792 14.2675 57.3119 14.0233 57.3119 13.5862C57.332 13.3385 57.3943 13.096 57.4962 12.8694C57.4962 12.8694 63.5486 0.033312 63.5596 0.0259855H60.722L55.27 11.4334C54.8621 12.2389 54.6284 13.1214 54.5841 14.0233C54.5841 15.5936 55.4531 16.4398 57.8074 16.4398H64.3358V21.4463H66.7939V16.4398H68.9615L68.9627 14.2687Z" fill="white"/>
</mask>
<g mask="url(#mask81_8_840)">
<path d="M80.7699 0.271307H80.4635V14.2222H80.7699V0.271307Z" fill="#89CCF0"/>
</g>
<mask id="mask82_8_840" style="mask-type:luminance" maskUnits="userSpaceOnUse" x="54" y="0" width="28" height="22">
<path d="M72.5192 0.271424V9.59443C72.5192 10.9816 73.2198 11.7851 74.8321 11.7851H77.3097C77.6126 11.8327 77.9225 11.8098 78.2152 11.7182C78.5079 11.6266 78.7756 11.4687 78.9974 11.2568C79.2193 11.0449 79.3893 10.7847 79.4943 10.4964C79.5993 10.2081 79.6365 9.89944 79.603 9.59443V0.271424H82V9.78248C82 12.7131 80.4488 14.226 77.4744 14.226H74.5453C71.5709 14.226 70.0428 12.7167 70.0428 9.78248V0.271424H72.5192ZM68.9627 14.2687H66.7951V8.63709H64.337V14.2675H58.2419C57.5792 14.2675 57.3119 14.0233 57.3119 13.5862C57.332 13.3385 57.3943 13.096 57.4962 12.8694C57.4962 12.8694 63.5486 0.033312 63.5596 0.0259855H60.722L55.27 11.4334C54.8621 12.2389 54.6284 13.1214 54.5841 14.0233C54.5841 15.5936 55.4531 16.4398 57.8074 16.4398H64.3358V21.4463H66.7939V16.4398H68.9615L68.9627 14.2687Z" fill="white"/>
</mask>
<g mask="url(#mask82_8_840)">
<path d="M81.0762 0.271307H80.7698V14.2222H81.0762V0.271307Z" fill="#88CCF1"/>
</g>
<mask id="mask83_8_840" style="mask-type:luminance" maskUnits="userSpaceOnUse" x="54" y="0" width="28" height="22">
<path d="M72.5192 0.271424V9.59443C72.5192 10.9816 73.2198 11.7851 74.8321 11.7851H77.3097C77.6126 11.8327 77.9225 11.8098 78.2152 11.7182C78.5079 11.6266 78.7756 11.4687 78.9974 11.2568C79.2193 11.0449 79.3893 10.7847 79.4943 10.4964C79.5993 10.2081 79.6365 9.89944 79.603 9.59443V0.271424H82V9.78248C82 12.7131 80.4488 14.226 77.4744 14.226H74.5453C71.5709 14.226 70.0428 12.7167 70.0428 9.78248V0.271424H72.5192ZM68.9627 14.2687H66.7951V8.63709H64.337V14.2675H58.2419C57.5792 14.2675 57.3119 14.0233 57.3119 13.5862C57.332 13.3385 57.3943 13.096 57.4962 12.8694C57.4962 12.8694 63.5486 0.033312 63.5596 0.0259855H60.722L55.27 11.4334C54.8621 12.2389 54.6284 13.1214 54.5841 14.0233C54.5841 15.5936 55.4531 16.4398 57.8074 16.4398H64.3358V21.4463H66.7939V16.4398H68.9615L68.9627 14.2687Z" fill="white"/>
</mask>
<g mask="url(#mask83_8_840)">
<path d="M81.3825 0.271307H81.0761V14.2222H81.3825V0.271307Z" fill="#88CDF1"/>
</g>
<mask id="mask84_8_840" style="mask-type:luminance" maskUnits="userSpaceOnUse" x="54" y="0" width="28" height="22">
<path d="M72.5192 0.271424V9.59443C72.5192 10.9816 73.2198 11.7851 74.8321 11.7851H77.3097C77.6126 11.8327 77.9225 11.8098 78.2152 11.7182C78.5079 11.6266 78.7756 11.4687 78.9974 11.2568C79.2193 11.0449 79.3893 10.7847 79.4943 10.4964C79.5993 10.2081 79.6365 9.89944 79.603 9.59443V0.271424H82V9.78248C82 12.7131 80.4488 14.226 77.4744 14.226H74.5453C71.5709 14.226 70.0428 12.7167 70.0428 9.78248V0.271424H72.5192ZM68.9627 14.2687H66.7951V8.63709H64.337V14.2675H58.2419C57.5792 14.2675 57.3119 14.0233 57.3119 13.5862C57.332 13.3385 57.3943 13.096 57.4962 12.8694C57.4962 12.8694 63.5486 0.033312 63.5596 0.0259855H60.722L55.27 11.4334C54.8621 12.2389 54.6284 13.1214 54.5841 14.0233C54.5841 15.5936 55.4531 16.4398 57.8074 16.4398H64.3358V21.4463H66.7939V16.4398H68.9615L68.9627 14.2687Z" fill="white"/>
</mask>
<g mask="url(#mask84_8_840)">
<path d="M81.6936 0.271307H81.3872V14.2222H81.6936V0.271307Z" fill="#87CEF2"/>
</g>
<mask id="mask85_8_840" style="mask-type:luminance" maskUnits="userSpaceOnUse" x="54" y="0" width="28" height="22">
<path d="M72.5192 0.271424V9.59443C72.5192 10.9816 73.2198 11.7851 74.8321 11.7851H77.3097C77.6126 11.8327 77.9225 11.8098 78.2152 11.7182C78.5079 11.6266 78.7756 11.4687 78.9974 11.2568C79.2193 11.0449 79.3893 10.7847 79.4943 10.4964C79.5993 10.2081 79.6365 9.89944 79.603 9.59443V0.271424H82V9.78248C82 12.7131 80.4488 14.226 77.4744 14.226H74.5453C71.5709 14.226 70.0428 12.7167 70.0428 9.78248V0.271424H72.5192ZM68.9627 14.2687H66.7951V8.63709H64.337V14.2675H58.2419C57.5792 14.2675 57.3119 14.0233 57.3119 13.5862C57.332 13.3385 57.3943 13.096 57.4962 12.8694C57.4962 12.8694 63.5486 0.033312 63.5596 0.0259855H60.722L55.27 11.4334C54.8621 12.2389 54.6284 13.1214 54.5841 14.0233C54.5841 15.5936 55.4531 16.4398 57.8074 16.4398H64.3358V21.4463H66.7939V16.4398H68.9615L68.9627 14.2687Z" fill="white"/>
</mask>
<g mask="url(#mask85_8_840)">
<path d="M81.9987 0.271307H81.6924V14.2222H81.9987V0.271307Z" fill="#87CEF2"/>
</g>
</svg>
