<svg width="12" height="12" viewBox="0 0 12 12" fill="none" xmlns="http://www.w3.org/2000/svg">
<path d="M3 6.85724H0.428571C0.191878 6.85724 0 7.04912 0 7.28581V11.5715C0 11.8082 0.191878 12.0001 0.428571 12.0001H3C3.23669 12.0001 3.42857 11.8082 3.42857 11.5715V7.28581C3.42857 7.04912 3.23669 6.85724 3 6.85724Z" fill="white"/>
<path d="M11.571 3.42831H8.99962C8.76292 3.42831 8.57104 3.62019 8.57104 3.85689V11.5712C8.57104 11.8079 8.76292 11.9997 8.99962 11.9997H11.571C11.8077 11.9997 11.9996 11.8079 11.9996 11.5712V3.85689C11.9996 3.62019 11.8077 3.42831 11.571 3.42831Z" fill="white"/>
<path d="M7.28674 0H4.71531C4.47862 0 4.28674 0.191878 4.28674 0.428571V11.5714C4.28674 11.8081 4.47862 12 4.71531 12H7.28674C7.52344 12 7.71531 11.8081 7.71531 11.5714V0.428571C7.71531 0.191878 7.52344 0 7.28674 0Z" fill="white"/>
</svg>
