<svg width="21" height="20" viewBox="0 0 21 20" fill="none" xmlns="http://www.w3.org/2000/svg">
<circle cx="1.4883" cy="1.4883" r="1.4883" fill="#131313"/>
<circle cx="3.41017" cy="4.89211" r="1.4883" fill="#131313"/>
<circle cx="8.29592" cy="1.4883" r="1.4883" fill="#131313"/>
<circle cx="10.2178" cy="4.89211" r="1.4883" fill="#131313"/>
<circle cx="4.89162" cy="1.4883" r="1.4883" fill="#131313"/>
<circle cx="6.81447" cy="4.89211" r="1.4883" fill="#131313" fill-opacity="0.5"/>
<circle cx="11.6992" cy="1.4883" r="1.4883" fill="#131313"/>
<circle cx="13.6221" cy="4.89211" r="1.4883" fill="#131313"/>
<circle cx="15.1035" cy="1.4883" r="1.4883" fill="#131313"/>
<circle cx="18.5762" cy="1.4883" r="1.4883" fill="#131313" fill-opacity="0.5"/>
<circle cx="17.0254" cy="4.89211" r="1.4883" fill="#131313"/>
<circle cx="1.4883" cy="8.29592" r="1.4883" fill="#131313"/>
<circle cx="3.41017" cy="11.6997" r="1.4883" fill="#131313"/>
<circle cx="8.29592" cy="8.29592" r="1.4883" fill="#131313" fill-opacity="0.5"/>
<circle cx="10.2178" cy="11.6997" r="1.4883" fill="#131313"/>
<circle cx="4.89162" cy="8.29592" r="1.4883" fill="#131313"/>
<circle cx="6.81447" cy="11.6997" r="1.4883" fill="#131313"/>
<circle cx="11.6992" cy="8.29592" r="1.4883" fill="#131313"/>
<circle cx="13.6221" cy="11.6997" r="1.4883" fill="#131313" fill-opacity="0.5"/>
<circle cx="15.1035" cy="8.29592" r="1.4883" fill="#131313"/>
<circle cx="18.5762" cy="8.29592" r="1.4883" fill="#131313"/>
<circle cx="17.0254" cy="11.6997" r="1.4883" fill="#131313"/>
<circle cx="1.4883" cy="15.1035" r="1.4883" fill="#131313" fill-opacity="0.5"/>
<circle cx="3.41017" cy="18.5073" r="1.4883" fill="#131313"/>
<circle cx="8.29592" cy="15.1035" r="1.4883" fill="#131313" fill-opacity="0.5"/>
<circle cx="10.2178" cy="18.5073" r="1.4883" fill="#131313"/>
<circle cx="4.89162" cy="15.1035" r="1.4883" fill="#131313"/>
<circle cx="6.81447" cy="18.5073" r="1.4883" fill="#131313"/>
<circle cx="11.6992" cy="15.1035" r="1.4883" fill="#131313"/>
<circle cx="13.6221" cy="18.5073" r="1.4883" fill="#131313"/>
<circle cx="15.1035" cy="15.1035" r="1.4883" fill="#131313"/>
<circle cx="18.5762" cy="15.1035" r="1.4883" fill="#131313"/>
<circle cx="17.0254" cy="18.5073" r="1.4883" fill="#131313" fill-opacity="0.5"/>
</svg>
