<svg width="16" height="16" viewBox="0 0 16 16" fill="none" xmlns="http://www.w3.org/2000/svg">
<g clip-path="url(#clip0_2727_84922)">
<path d="M7.99967 1.33325C8.39412 1.33325 8.78057 1.36751 9.1562 1.43321M7.99967 1.33325C4.31778 1.33325 1.33301 4.31802 1.33301 7.99992C1.33301 11.6818 4.31778 14.6666 7.99967 14.6666M7.99967 1.33325V14.6666M11.825 2.53925C12.4612 2.98571 13.0157 3.54051 13.4619 4.17686M14.5664 6.84367C14.6321 7.21922 14.6663 7.60557 14.6663 7.99992C14.6663 8.39427 14.6321 8.78062 14.5664 9.15616M13.4591 11.827C13.0132 12.4619 12.4594 13.0155 11.8243 13.4611M9.15488 14.5669C8.77966 14.6324 8.39366 14.6666 7.99967 14.6666" stroke="#040D17" stroke-linecap="round" stroke-linejoin="round"/>
</g>
<defs>
<clipPath id="clip0_2727_84922">
<rect width="16" height="16" fill="white"/>
</clipPath>
</defs>
</svg>
