<svg width="16" height="16" viewBox="0 0 16 16" fill="none" xmlns="http://www.w3.org/2000/svg">
<g clip-path="url(#clip0_1086_1006)">
<path d="M6.00016 1.33333V3.33333M10.0002 1.33333V3.33333M6.00016 12.6667V14.6667M10.0002 12.6667V14.6667M12.6668 5.99999H14.6668M12.6668 9.33333H14.6668M1.3335 5.99999H3.3335M1.3335 9.33333H3.3335M6.5335 12.6667H9.46683C10.5869 12.6667 11.147 12.6667 11.5748 12.4487C11.9511 12.2569 12.2571 11.951 12.4488 11.5746C12.6668 11.1468 12.6668 10.5868 12.6668 9.46666V6.53333C12.6668 5.41322 12.6668 4.85317 12.4488 4.42535C12.2571 4.04902 11.9511 3.74306 11.5748 3.55132C11.147 3.33333 10.5869 3.33333 9.46683 3.33333H6.5335C5.41339 3.33333 4.85334 3.33333 4.42551 3.55132C4.04919 3.74306 3.74323 4.04902 3.55148 4.42535C3.3335 4.85317 3.3335 5.41322 3.3335 6.53333V9.46666C3.3335 10.5868 3.3335 11.1468 3.55148 11.5746C3.74323 11.951 4.04919 12.2569 4.42551 12.4487C4.85334 12.6667 5.41339 12.6667 6.5335 12.6667Z" stroke="#040D17" stroke-linecap="round" stroke-linejoin="round"/>
</g>
<defs>
<clipPath id="clip0_1086_1006">
<rect width="16" height="16" fill="white"/>
</clipPath>
</defs>
</svg>
