<svg width="12" height="12" viewBox="0 0 12 12" fill="none" xmlns="http://www.w3.org/2000/svg">
<path d="M1.83301 3.16699V4.50033" stroke="#434A51" stroke-linecap="round" stroke-linejoin="round"/>
<path d="M1.83333 7.16667C2.56971 7.16667 3.16667 6.56971 3.16667 5.83333C3.16667 5.09695 2.56971 4.5 1.83333 4.5C1.09695 4.5 0.5 5.09695 0.5 5.83333C0.5 6.56971 1.09695 7.16667 1.83333 7.16667Z" stroke="#434A51" stroke-linecap="round" stroke-linejoin="round"/>
<path d="M1.83333 3.16667C2.56971 3.16667 3.16667 2.56971 3.16667 1.83333C3.16667 1.09695 2.56971 0.5 1.83333 0.5C1.09695 0.5 0.5 1.09695 0.5 1.83333C0.5 2.56971 1.09695 3.16667 1.83333 3.16667Z" stroke="#434A51" stroke-linecap="round" stroke-linejoin="round"/>
<path d="M7.16699 1.83301H8.50033" stroke="#434A51" stroke-linecap="round" stroke-linejoin="round"/>
<path d="M11.1667 1.83366C11.1667 1.09728 10.5697 0.500325 9.83333 0.500325C9.09695 0.500325 8.5 1.09728 8.5 1.83366C8.5 2.57004 9.09695 3.16699 9.83333 3.16699C10.5697 3.16699 11.1667 2.57004 11.1667 1.83366Z" stroke="#434A51" stroke-linecap="round" stroke-linejoin="round"/>
<path d="M7.16667 1.83366C7.16667 1.09728 6.56971 0.500325 5.83333 0.500325C5.09695 0.500325 4.5 1.09728 4.5 1.83366C4.5 2.57004 5.09695 3.16699 5.83333 3.16699C6.56971 3.16699 7.16667 2.57004 7.16667 1.83366Z" stroke="#434A51" stroke-linecap="round" stroke-linejoin="round"/>
<path d="M3.16699 9.83301H4.50033" stroke="#434A51" stroke-linecap="round" stroke-linejoin="round"/>
<path d="M7.16667 9.83366C7.16667 9.09728 6.56971 8.50033 5.83333 8.50033C5.09695 8.50033 4.5 9.09728 4.5 9.83366C4.5 10.57 5.09695 11.167 5.83333 11.167C6.56971 11.167 7.16667 10.57 7.16667 9.83366Z" stroke="#434A51" stroke-linecap="round" stroke-linejoin="round"/>
<path d="M3.16667 9.83366C3.16667 9.09728 2.56971 8.50033 1.83333 8.50033C1.09695 8.50033 0.5 9.09728 0.5 9.83366C0.5 10.57 1.09695 11.167 1.83333 11.167C2.56971 11.167 3.16667 10.57 3.16667 9.83366Z" stroke="#434A51" stroke-linecap="round" stroke-linejoin="round"/>
<path d="M9.83301 7.16699V8.50033" stroke="#434A51" stroke-linecap="round" stroke-linejoin="round"/>
<path d="M9.83333 11.1667C10.5697 11.1667 11.1667 10.5697 11.1667 9.83333C11.1667 9.09695 10.5697 8.5 9.83333 8.5C9.09695 8.5 8.5 9.09695 8.5 9.83333C8.5 10.5697 9.09695 11.1667 9.83333 11.1667Z" stroke="#434A51" stroke-linecap="round" stroke-linejoin="round"/>
<path d="M9.83333 7.16667C10.5697 7.16667 11.1667 6.56971 11.1667 5.83333C11.1667 5.09695 10.5697 4.5 9.83333 4.5C9.09695 4.5 8.5 5.09695 8.5 5.83333C8.5 6.56971 9.09695 7.16667 9.83333 7.16667Z" stroke="#434A51" stroke-linecap="round" stroke-linejoin="round"/>
</svg>
