<svg width="12" height="12" viewBox="0 0 12 12" fill="none" xmlns="http://www.w3.org/2000/svg">
<g clip-path="url(#clip0_745_210861)">
<path d="M1.19961 6.60005H3.95121L3.17541 7.37585C3.1181 7.4312 3.07239 7.4974 3.04095 7.57061C3.0095 7.64381 2.99295 7.72254 2.99226 7.80221C2.99157 7.88188 3.00675 7.96088 3.03692 8.03462C3.06708 8.10836 3.11164 8.17535 3.16797 8.23169C3.22431 8.28802 3.2913 8.33257 3.36504 8.36274C3.43877 8.39291 3.51778 8.40809 3.59745 8.4074C3.67712 8.40671 3.75585 8.39016 3.82905 8.35871C3.90225 8.32726 3.96846 8.28156 4.02381 8.22425L5.82381 6.42425C5.93629 6.31173 5.99948 6.15915 5.99948 6.00005C5.99948 5.84095 5.93629 5.68837 5.82381 5.57585L4.02381 3.77585C3.91065 3.66655 3.75909 3.60608 3.60177 3.60744C3.44445 3.60881 3.29396 3.67191 3.18272 3.78316C3.07147 3.8944 3.00837 4.04489 3.007 4.20221C3.00564 4.35953 3.06611 4.51109 3.17541 4.62425L3.95121 5.40005H1.19961C1.04048 5.40005 0.887867 5.46326 0.775345 5.57579C0.662823 5.68831 0.599609 5.84092 0.599609 6.00005C0.599609 6.15918 0.662823 6.31179 0.775345 6.42431C0.887867 6.53683 1.04048 6.60005 1.19961 6.60005Z" fill="white"/>
<path d="M10.7996 5.39941H7.19961C7.04048 5.39941 6.88787 5.46263 6.77535 5.57515C6.66282 5.68767 6.59961 5.84028 6.59961 5.99941C6.59961 6.15854 6.66282 6.31116 6.77535 6.42368C6.88787 6.5362 7.04048 6.59941 7.19961 6.59941H10.7996C10.9587 6.59941 11.1114 6.5362 11.2239 6.42368C11.3364 6.31116 11.3996 6.15854 11.3996 5.99941C11.3996 5.84028 11.3364 5.68767 11.2239 5.57515C11.1114 5.46263 10.9587 5.39941 10.7996 5.39941Z" fill="white"/>
<path d="M10.7996 7.7998H7.19961C7.04048 7.7998 6.88787 7.86302 6.77535 7.97554C6.66282 8.08806 6.59961 8.24067 6.59961 8.3998C6.59961 8.55893 6.66282 8.71155 6.77535 8.82407C6.88787 8.93659 7.04048 8.9998 7.19961 8.9998H10.7996C10.9587 8.9998 11.1114 8.93659 11.2239 8.82407C11.3364 8.71155 11.3996 8.55893 11.3996 8.3998C11.3996 8.24067 11.3364 8.08806 11.2239 7.97554C11.1114 7.86302 10.9587 7.7998 10.7996 7.7998Z" fill="white"/>
<path d="M10.7996 10.1992H1.19961C1.04048 10.1992 0.887867 10.2624 0.775345 10.375C0.662823 10.4875 0.599609 10.6401 0.599609 10.7992C0.599609 10.9583 0.662823 11.111 0.775345 11.2235C0.887867 11.336 1.04048 11.3992 1.19961 11.3992H10.7996C10.9587 11.3992 11.1114 11.336 11.2239 11.2235C11.3364 11.111 11.3996 10.9583 11.3996 10.7992C11.3996 10.6401 11.3364 10.4875 11.2239 10.375C11.1114 10.2624 10.9587 10.1992 10.7996 10.1992Z" fill="white"/>
<path d="M1.19961 1.79961H10.7996C10.9587 1.79961 11.1114 1.7364 11.2239 1.62387C11.3364 1.51135 11.3996 1.35874 11.3996 1.19961C11.3996 1.04048 11.3364 0.887867 11.2239 0.775345C11.1114 0.662823 10.9587 0.599609 10.7996 0.599609H1.19961C1.04048 0.599609 0.887867 0.662823 0.775345 0.775345C0.662823 0.887867 0.599609 1.04048 0.599609 1.19961C0.599609 1.35874 0.662823 1.51135 0.775345 1.62387C0.887867 1.7364 1.04048 1.79961 1.19961 1.79961Z" fill="white"/>
<path d="M10.7996 3H7.19961C7.04048 3 6.88787 3.06321 6.77535 3.17574C6.66282 3.28826 6.59961 3.44087 6.59961 3.6C6.59961 3.75913 6.66282 3.91174 6.77535 4.02426C6.88787 4.13679 7.04048 4.2 7.19961 4.2H10.7996C10.9587 4.2 11.1114 4.13679 11.2239 4.02426C11.3364 3.91174 11.3996 3.75913 11.3996 3.6C11.3996 3.44087 11.3364 3.28826 11.2239 3.17574C11.1114 3.06321 10.9587 3 10.7996 3Z" fill="white"/>
</g>
<defs>
<clipPath id="clip0_745_210861">
<rect width="12" height="12" fill="white"/>
</clipPath>
</defs>
</svg>
