<svg width="17" height="20" viewBox="0 0 17 20" fill="none" xmlns="http://www.w3.org/2000/svg">
<path d="M16.3636 4.23077V15.7692C16.3636 16.3813 16.1173 16.9682 15.679 17.401C15.2406 17.8338 14.646 18.0769 14.026 18.0769H11.2987C11.092 18.0769 10.8938 17.9959 10.7477 17.8516C10.6016 17.7074 10.5195 17.5117 10.5195 17.3077C10.5195 17.1037 10.6016 16.908 10.7477 16.7638C10.8938 16.6195 11.092 16.5385 11.2987 16.5385H14.026C14.2326 16.5385 14.4308 16.4574 14.577 16.3132C14.7231 16.1689 14.8052 15.9732 14.8052 15.7692V4.23077C14.8052 4.02676 14.7231 3.8311 14.577 3.68684C14.4308 3.54258 14.2326 3.46154 14.026 3.46154H11.2987C11.092 3.46154 10.8938 3.38049 10.7477 3.23624C10.6016 3.09198 10.5195 2.89632 10.5195 2.69231C10.5195 2.4883 10.6016 2.29264 10.7477 2.14838C10.8938 2.00412 11.092 1.92308 11.2987 1.92308H14.026C14.646 1.92308 15.2406 2.16621 15.679 2.59898C16.1173 3.03176 16.3636 3.61873 16.3636 4.23077ZM8.96104 0.769231V19.2308C8.96104 19.4348 8.87894 19.6304 8.73281 19.7747C8.58668 19.919 8.38848 20 8.18182 20C7.97516 20 7.77696 19.919 7.63083 19.7747C7.48469 19.6304 7.4026 19.4348 7.4026 19.2308V18.0769H2.33766C1.71768 18.0769 1.12308 17.8338 0.684686 17.401C0.246289 16.9682 0 16.3813 0 15.7692V4.23077C0 3.61873 0.246289 3.03176 0.684686 2.59898C1.12308 2.16621 1.71768 1.92308 2.33766 1.92308H7.4026V0.769231C7.4026 0.565218 7.48469 0.369561 7.63083 0.225302C7.77696 0.0810437 7.97516 0 8.18182 0C8.38848 0 8.58668 0.0810437 8.73281 0.225302C8.87894 0.369561 8.96104 0.565218 8.96104 0.769231ZM7.4026 16.5385V3.46154H2.33766C2.131 3.46154 1.9328 3.54258 1.78667 3.68684C1.64054 3.8311 1.55844 4.02676 1.55844 4.23077V15.7692C1.55844 15.9732 1.64054 16.1689 1.78667 16.3132C1.9328 16.4574 2.131 16.5385 2.33766 16.5385H7.4026Z" fill="#A5A5A9"/>
</svg>
