<svg width="16" height="16" viewBox="0 0 16 16" fill="none" xmlns="http://www.w3.org/2000/svg">
<path d="M12.0002 6.33333V4.53333C12.0002 3.41322 12.0002 2.85317 11.7822 2.42535C11.5904 2.04902 11.2845 1.74306 10.9081 1.55132C10.4803 1.33333 9.92027 1.33333 8.80016 1.33333H4.5335C3.41339 1.33333 2.85334 1.33333 2.42552 1.55132C2.04919 1.74306 1.74323 2.04902 1.55148 2.42535C1.3335 2.85317 1.3335 3.41322 1.3335 4.53333V11.4667C1.3335 12.5868 1.3335 13.1468 1.55148 13.5746C1.74323 13.951 2.04919 14.2569 2.42552 14.4487C2.85334 14.6667 3.41339 14.6667 4.5335 14.6667H8.00016M8.00016 7.33333H4.00016M5.3335 9.99999H4.00016M9.3335 4.66666H4.00016M10.2364 13.5928L10.4267 14.0207C10.4833 14.1481 10.5756 14.2564 10.6925 14.3323C10.8093 14.4083 10.9457 14.4487 11.0851 14.4487C11.2245 14.4487 11.3609 14.4083 11.4777 14.3323C11.5946 14.2564 11.6869 14.1481 11.7435 14.0207L11.9337 13.5928C12.0015 13.4409 12.1154 13.3143 12.2593 13.231C12.4041 13.1475 12.5716 13.1119 12.7379 13.1294L13.2035 13.179C13.3421 13.1936 13.4819 13.1678 13.6061 13.1045C13.7303 13.0413 13.8334 12.9433 13.9031 12.8226C13.9728 12.702 14.006 12.5637 13.9987 12.4246C13.9914 12.2854 13.9438 12.1514 13.8618 12.0387L13.5862 11.66C13.488 11.5241 13.4356 11.3606 13.4364 11.193C13.4364 11.0258 13.4893 10.863 13.5876 10.7278L13.8633 10.349C13.9453 10.2364 13.9928 10.1023 14.0002 9.96319C14.0075 9.82405 13.9743 9.68577 13.9045 9.56513C13.8349 9.44442 13.7317 9.34651 13.6075 9.28326C13.4834 9.22001 13.3435 9.19415 13.2049 9.20881L12.7394 9.25837C12.5731 9.27583 12.4056 9.24025 12.2608 9.15672C12.1166 9.07295 12.0026 8.94569 11.9352 8.79317L11.7435 8.36522C11.6869 8.23784 11.5946 8.1296 11.4777 8.05364C11.3609 7.97768 11.2245 7.93726 11.0851 7.93728C10.9457 7.93726 10.8093 7.97768 10.6925 8.05364C10.5756 8.1296 10.4833 8.23784 10.4267 8.36522L10.2364 8.79317C10.169 8.94569 10.0551 9.07295 9.91088 9.15672C9.76607 9.24025 9.59855 9.27583 9.43229 9.25837L8.96528 9.20881C8.82669 9.19415 8.68683 9.22001 8.56265 9.28326C8.43847 9.34651 8.33531 9.44442 8.26566 9.56513C8.19593 9.68577 8.16271 9.82405 8.17003 9.96319C8.17735 10.1023 8.2249 10.2364 8.3069 10.349L8.58255 10.7278C8.68086 10.863 8.73379 11.0258 8.73376 11.193C8.73379 11.3601 8.68086 11.523 8.58255 11.6582L8.3069 12.0369C8.2249 12.1496 8.17735 12.2836 8.17003 12.4228C8.16271 12.5619 8.19593 12.7002 8.26566 12.8208C8.33537 12.9415 8.43855 13.0393 8.56271 13.1026C8.68688 13.1658 8.8267 13.1917 8.96528 13.1771L9.43084 13.1276C9.5971 13.1101 9.76462 13.1457 9.90943 13.2292C10.0542 13.3128 10.1687 13.4401 10.2364 13.5928ZM12.0002 11.193C12.0002 11.6532 11.6271 12.0263 11.1668 12.0263C10.7066 12.0263 10.3335 11.6532 10.3335 11.193C10.3335 10.7327 10.7066 10.3596 11.1668 10.3596C11.6271 10.3596 12.0002 10.7327 12.0002 11.193Z" stroke="#040D17" stroke-linecap="round" stroke-linejoin="round"/>
</svg>
