<svg width="19" height="18" viewBox="0 0 19 18" fill="none" xmlns="http://www.w3.org/2000/svg">
<path d="M9.09424 0C4.13144 0 0.0942383 4.0372 0.0942383 9C0.0942383 13.9628 4.13144 18 9.09424 18C14.057 18 18.0942 13.9628 18.0942 9C18.0942 4.0372 14.057 0 9.09424 0Z" fill="#E85454"/>
<path d="M12.4086 11.2528C12.7018 11.5461 12.7018 12.02 12.4086 12.3133C12.2623 12.4596 12.0703 12.5331 11.8782 12.5331C11.6862 12.5331 11.4942 12.4596 11.348 12.3133L9.09426 10.0595L6.84055 12.3133C6.69429 12.4596 6.50231 12.5331 6.31032 12.5331C6.1182 12.5331 5.92621 12.4596 5.77996 12.3133C5.48676 12.02 5.48676 11.5461 5.77996 11.2528L8.0338 8.99904L5.77996 6.74533C5.48676 6.452 5.48676 5.97808 5.77996 5.68474C6.07329 5.39154 6.54721 5.39154 6.84055 5.68474L9.09426 7.93859L11.348 5.68474C11.6413 5.39154 12.1152 5.39154 12.4086 5.68474C12.7018 5.97808 12.7018 6.452 12.4086 6.74533L10.1547 8.99904L12.4086 11.2528Z" fill="#FAFAFA"/>
</svg>
