<svg width="309" height="181" viewBox="0 0 309 181" fill="none" xmlns="http://www.w3.org/2000/svg">
<path d="M0.708008 10.9746H308.708" stroke="#DADBDC" stroke-width="0.708046"/>
<path d="M0.708008 33.6323H308.708" stroke="#DADBDC" stroke-width="0.708046"/>
<path d="M0.708008 56.2896H308.708" stroke="#DADBDC" stroke-width="0.708046"/>
<path d="M0.708008 78.9473H308.708" stroke="#DADBDC" stroke-width="0.708046"/>
<path d="M0.708008 101.604H308.708" stroke="#DADBDC" stroke-width="0.708046"/>
<path d="M0.708008 124.262H308.708" stroke="#DADBDC" stroke-width="0.708046"/>
<path d="M0.708008 146.919H308.708" stroke="#DADBDC" stroke-width="0.708046"/>
<path d="M0.708008 169.577H308.708" stroke="#DADBDC" stroke-width="0.708046"/>
<path d="M25.4893 180.552L25.4893 2.96533e-05" stroke="#DADBDC" stroke-width="0.708046"/>
<path d="M48.1465 180.552L48.1465 2.96533e-05" stroke="#DADBDC" stroke-width="0.708046"/>
<path d="M70.8047 180.552L70.8047 2.96533e-05" stroke="#DADBDC" stroke-width="0.708046"/>
<path d="M93.4619 180.552L93.4619 2.96533e-05" stroke="#DADBDC" stroke-width="0.708046"/>
<path d="M116.119 180.552L116.119 2.96533e-05" stroke="#DADBDC" stroke-width="0.708046"/>
<path d="M138.776 180.552L138.776 2.96533e-05" stroke="#DADBDC" stroke-width="0.708046"/>
<path d="M161.435 180.552L161.435 2.96533e-05" stroke="#DADBDC" stroke-width="0.708046"/>
<path d="M184.092 180.552L184.092 2.96533e-05" stroke="#DADBDC" stroke-width="0.708046"/>
<path d="M206.749 180.552L206.749 2.96533e-05" stroke="#DADBDC" stroke-width="0.708046"/>
<path d="M229.406 180.552L229.406 2.96533e-05" stroke="#DADBDC" stroke-width="0.708046"/>
<path d="M252.064 180.552L252.064 2.96533e-05" stroke="#DADBDC" stroke-width="0.708046"/>
<path d="M274.722 180.552L274.722 2.96533e-05" stroke="#DADBDC" stroke-width="0.708046"/>
<path d="M297.379 180.552L297.379 2.96533e-05" stroke="#DADBDC" stroke-width="0.708046"/>
<g clip-path="url(#clip0_1253_237632)">
<rect x="0.354492" width="308" height="180.552" fill="url(#paint0_linear_1253_237632)"/>
<circle cx="151.522" cy="87.5181" r="63.7241" fill="#F7FAFE"/>
<g clip-path="url(#clip1_1253_237632)">
<path fill-rule="evenodd" clip-rule="evenodd" d="M186.099 63.8424V72.1029H117.654V63.8424C117.654 61.2354 119.768 59.1221 122.375 59.1221H181.378C183.985 59.1221 186.099 61.2354 186.099 63.8424Z" fill="#C8DFF9"/>
<path fill-rule="evenodd" clip-rule="evenodd" d="M181.378 59.1221H177.838C180.445 59.1221 182.558 61.2354 182.558 63.8424V72.1029H186.098V63.8424C186.098 61.2354 183.985 59.1221 181.378 59.1221Z" fill="#C8DFF9"/>
<path fill-rule="evenodd" clip-rule="evenodd" d="M186.099 72.103V116.946C186.099 119.553 183.985 121.666 181.378 121.666H122.375C119.768 121.666 117.654 119.553 117.654 116.946V72.103H186.099Z" fill="#F7FAFE"/>
<path fill-rule="evenodd" clip-rule="evenodd" d="M182.558 72.103V116.946C182.558 119.553 180.445 121.666 177.838 121.666H181.378C183.985 121.666 186.098 119.553 186.098 116.946V72.103H182.558Z" fill="#C8DFF9"/>
<path d="M130.634 56.7614C130.634 54.8062 129.049 53.2212 127.094 53.2212C125.139 53.2212 123.554 54.8062 123.554 56.7614V63.8419C123.554 65.7971 125.139 67.3821 127.094 67.3821C129.049 67.3821 130.634 65.7971 130.634 63.8419V56.7614Z" fill="#EAF3FD"/>
<path d="M147.156 56.7614C147.156 54.8062 145.571 53.2212 143.615 53.2212C141.66 53.2212 140.075 54.8062 140.075 56.7614V63.8419C140.075 65.7971 141.66 67.3821 143.615 67.3821C145.571 67.3821 147.156 65.7971 147.156 63.8419V56.7614Z" fill="#EAF3FD"/>
<path d="M163.677 56.7614C163.677 54.8062 162.092 53.2212 160.137 53.2212C158.182 53.2212 156.597 54.8062 156.597 56.7614V63.8419C156.597 65.7971 158.182 67.3821 160.137 67.3821C162.092 67.3821 163.677 65.7971 163.677 63.8419V56.7614Z" fill="#EAF3FD"/>
<path d="M180.198 56.7614C180.198 54.8062 178.613 53.2212 176.657 53.2212C174.702 53.2212 173.117 54.8062 173.117 56.7614V63.8419C173.117 65.7971 174.702 67.3821 176.657 67.3821C178.613 67.3821 180.198 65.7971 180.198 63.8419V56.7614Z" fill="#EAF3FD"/>
<path d="M132.995 76.8232H125.914C125.263 76.8232 124.734 77.3516 124.734 78.0033V85.0838C124.734 85.7355 125.263 86.2639 125.914 86.2639H132.995C133.647 86.2639 134.175 85.7355 134.175 85.0838V78.0033C134.175 77.3516 133.647 76.8232 132.995 76.8232Z" fill="#F7FAFE"/>
<path d="M132.995 90.9839H125.914C125.263 90.9839 124.734 91.5122 124.734 92.164V99.2444C124.734 99.8962 125.263 100.425 125.914 100.425H132.995C133.647 100.425 134.175 99.8962 134.175 99.2444V92.164C134.175 91.5122 133.647 90.9839 132.995 90.9839Z" fill="#F7FAFE"/>
<path d="M132.995 105.145H125.914C125.263 105.145 124.734 105.673 124.734 106.325V113.406C124.734 114.057 125.263 114.586 125.914 114.586H132.995C133.647 114.586 134.175 114.057 134.175 113.406V106.325C134.175 105.673 133.647 105.145 132.995 105.145Z" fill="#F7FAFE"/>
<path fill-rule="evenodd" clip-rule="evenodd" d="M125.915 121.666H122.375C119.768 121.666 117.654 119.553 117.654 116.946V63.8424C117.654 61.2354 119.768 59.1221 122.375 59.1221H123.555V59.7593C122.092 60.5981 121.191 62.1564 121.195 63.8424V116.946C121.195 119.553 123.308 121.666 125.915 121.666Z" fill="white"/>
<path fill-rule="evenodd" clip-rule="evenodd" d="M116.474 107.505H118.834V116.946H116.474V107.505Z" fill="white"/>
<path d="M117.654 113.406C118.305 113.406 118.834 112.877 118.834 112.225C118.834 111.574 118.305 111.045 117.654 111.045C117.002 111.045 116.474 111.574 116.474 112.225C116.474 112.877 117.002 113.406 117.654 113.406Z" fill="#2680EA"/>
<path d="M181.378 57.9419V56.7618C181.378 54.1549 179.264 52.0415 176.658 52.0415C174.051 52.0415 171.937 54.1549 171.937 56.7618V57.9419H164.857V56.7618C164.857 54.1549 162.743 52.0415 160.136 52.0415C157.53 52.0415 155.416 54.1549 155.416 56.7618V57.9419H148.336V56.7618C148.336 54.1549 146.222 52.0415 143.615 52.0415C141.008 52.0415 138.895 54.1549 138.895 56.7618V57.9419H131.815V56.7618C131.815 54.1549 129.701 52.0415 127.094 52.0415C124.487 52.0415 122.374 54.1549 122.374 56.7618V57.9419C119.117 57.9458 116.478 60.5852 116.474 63.8423V107.505C116.474 108.157 117.002 108.685 117.654 108.685C118.305 108.685 118.834 108.157 118.834 107.505V73.2829H184.918V116.946C184.918 118.901 183.333 120.486 181.378 120.486H122.374C120.419 120.486 118.834 118.901 118.834 116.946C118.834 116.294 118.305 115.766 117.654 115.766C117.002 115.766 116.474 116.294 116.474 116.946C116.478 120.203 119.117 122.842 122.374 122.846H181.378C184.635 122.842 187.274 120.203 187.278 116.946V63.8423C187.274 60.5852 184.635 57.9458 181.378 57.9419ZM174.297 56.7618C174.297 55.4583 175.354 54.4017 176.658 54.4017C177.961 54.4017 179.018 55.4583 179.018 56.7618V63.8423C179.018 65.1457 177.961 66.2024 176.658 66.2024C175.354 66.2024 174.297 65.1457 174.297 63.8423V56.7618ZM157.776 56.7618C157.776 55.4583 158.833 54.4017 160.136 54.4017C161.44 54.4017 162.497 55.4583 162.497 56.7618V63.8423C162.497 65.1457 161.44 66.2024 160.136 66.2024C158.833 66.2024 157.776 65.1457 157.776 63.8423V56.7618ZM141.255 56.7618C141.255 55.4583 142.312 54.4017 143.615 54.4017C144.919 54.4017 145.976 55.4583 145.976 56.7618V63.8423C145.976 65.1457 144.919 66.2024 143.615 66.2024C142.312 66.2024 141.255 65.1457 141.255 63.8423V56.7618ZM124.734 56.7618C124.734 55.4583 125.791 54.4017 127.094 54.4017C128.398 54.4017 129.454 55.4583 129.454 56.7618V63.8423C129.454 65.1457 128.398 66.2024 127.094 66.2024C125.791 66.2024 124.734 65.1457 124.734 63.8423V56.7618ZM118.834 70.9227V63.8423C118.834 61.8871 120.419 60.302 122.374 60.302V63.8423C122.374 66.4492 124.487 68.5626 127.094 68.5626C129.701 68.5626 131.815 66.4492 131.815 63.8423V60.302H138.895V63.8423C138.895 66.4492 141.008 68.5626 143.615 68.5626C146.222 68.5626 148.336 66.4492 148.336 63.8423V60.302H155.416V63.8423C155.416 66.4492 157.53 68.5626 160.136 68.5626C162.743 68.5626 164.857 66.4492 164.857 63.8423V60.302H171.937V63.8423C171.937 66.4492 174.051 68.5626 176.658 68.5626C179.264 68.5626 181.378 66.4492 181.378 63.8423V60.302C183.333 60.302 184.918 61.8871 184.918 63.8423V70.9227H118.834Z" fill="#2680EA"/>
<path d="M125.914 87.4438H132.994C134.298 87.4438 135.354 86.3872 135.354 85.0837V78.0032C135.354 76.6997 134.298 75.6431 132.994 75.6431H125.914C124.61 75.6431 123.554 76.6997 123.554 78.0032V85.0837C123.554 86.3872 124.61 87.4438 125.914 87.4438ZM125.914 78.0032H132.994V85.0837H125.914V78.0032Z" fill="#2680EA"/>
<path fill-rule="evenodd" clip-rule="evenodd" d="M141.255 80.3631H161.317C161.968 80.3631 162.497 79.8347 162.497 79.183C162.497 78.5313 161.968 78.0029 161.317 78.0029H141.255C140.604 78.0029 140.075 78.5313 140.075 79.183C140.075 79.8347 140.604 80.3631 141.255 80.3631Z" fill="#2680EA"/>
<path fill-rule="evenodd" clip-rule="evenodd" d="M179.017 78.0029H166.037C165.385 78.0029 164.856 78.5313 164.856 79.183C164.856 79.8347 165.385 80.3631 166.037 80.3631H179.017C179.669 80.3631 180.197 79.8347 180.197 79.183C180.197 78.5313 179.669 78.0029 179.017 78.0029Z" fill="#2680EA"/>
<path fill-rule="evenodd" clip-rule="evenodd" d="M141.255 85.0838H169.577C170.229 85.0838 170.757 84.5554 170.757 83.9037C170.757 83.252 170.229 82.7236 169.577 82.7236H141.255C140.604 82.7236 140.075 83.252 140.075 83.9037C140.075 84.5554 140.604 85.0838 141.255 85.0838Z" fill="#2680EA"/>
<path d="M123.554 99.2448C123.554 100.548 124.61 101.605 125.914 101.605H132.994C134.298 101.605 135.354 100.548 135.354 99.2448V92.1644C135.354 90.8609 134.298 89.8042 132.994 89.8042H125.914C124.61 89.8042 123.554 90.8609 123.554 92.1644V99.2448ZM125.914 92.1644H132.994V99.2448H125.914V92.1644Z" fill="#2680EA"/>
<path fill-rule="evenodd" clip-rule="evenodd" d="M141.255 94.5242H161.317C161.968 94.5242 162.497 93.9959 162.497 93.3441C162.497 92.6924 161.968 92.1641 161.317 92.1641H141.255C140.604 92.1641 140.075 92.6924 140.075 93.3441C140.075 93.9959 140.604 94.5242 141.255 94.5242Z" fill="#2680EA"/>
<path fill-rule="evenodd" clip-rule="evenodd" d="M179.017 92.1641H166.037C165.385 92.1641 164.856 92.6924 164.856 93.3441C164.856 93.9959 165.385 94.5242 166.037 94.5242H179.017C179.669 94.5242 180.197 93.9959 180.197 93.3441C180.197 92.6924 179.669 92.1641 179.017 92.1641Z" fill="#2680EA"/>
<path fill-rule="evenodd" clip-rule="evenodd" d="M141.255 99.2444H169.577C170.229 99.2444 170.757 98.7161 170.757 98.0644C170.757 97.4126 170.229 96.8843 169.577 96.8843H141.255C140.604 96.8843 140.075 97.4126 140.075 98.0644C140.075 98.7161 140.604 99.2444 141.255 99.2444Z" fill="#2680EA"/>
<path d="M123.554 113.405C123.554 114.709 124.61 115.766 125.914 115.766H132.994C134.298 115.766 135.354 114.709 135.354 113.405V106.325C135.354 105.022 134.298 103.965 132.994 103.965H125.914C124.61 103.965 123.554 105.022 123.554 106.325V113.405ZM125.914 106.325H132.994V113.405H125.914V106.325Z" fill="#2680EA"/>
<path fill-rule="evenodd" clip-rule="evenodd" d="M141.255 108.685H161.317C161.968 108.685 162.497 108.157 162.497 107.505C162.497 106.853 161.968 106.325 161.317 106.325H141.255C140.604 106.325 140.075 106.853 140.075 107.505C140.075 108.157 140.604 108.685 141.255 108.685Z" fill="#2680EA"/>
<path fill-rule="evenodd" clip-rule="evenodd" d="M179.017 106.325H166.037C165.385 106.325 164.856 106.853 164.856 107.505C164.856 108.157 165.385 108.685 166.037 108.685H179.017C179.669 108.685 180.197 108.157 180.197 107.505C180.197 106.853 179.669 106.325 179.017 106.325Z" fill="#2680EA"/>
<path fill-rule="evenodd" clip-rule="evenodd" d="M141.255 113.406H169.577C170.229 113.406 170.757 112.877 170.757 112.225C170.757 111.574 170.229 111.045 169.577 111.045H141.255C140.604 111.045 140.075 111.574 140.075 112.225C140.075 112.877 140.604 113.406 141.255 113.406Z" fill="#2680EA"/>
</g>
<circle cx="209.778" cy="122.688" r="21.375" fill="#FFEFC1" stroke="white" stroke-width="2.25"/>
<path d="M207.545 128.8C207.494 127.688 207.579 126.575 207.798 125.484C208.001 124.628 208.402 123.832 208.969 123.159C209.303 122.74 209.695 122.37 210.133 122.059C210.555 121.762 210.956 121.435 211.331 121.08C211.689 120.743 211.998 120.356 212.247 119.932C212.512 119.426 212.632 118.856 212.594 118.285C212.633 117.84 212.563 117.392 212.391 116.98C212.219 116.568 211.95 116.203 211.606 115.918C210.945 115.471 210.157 115.247 209.36 115.28C208.883 115.233 208.402 115.307 207.961 115.495C207.52 115.683 207.133 115.979 206.837 116.356C206.336 117.201 206.055 118.159 206.017 119.141L201.524 119.232C201.487 118.172 201.657 117.114 202.025 116.119C202.354 115.217 202.879 114.398 203.562 113.721C204.26 113.042 205.091 112.515 206.003 112.174C207.022 111.797 208.098 111.599 209.183 111.589C211.27 111.438 213.353 111.931 215.151 113.002C216.624 113.992 217.382 115.64 217.424 117.946C217.449 118.605 217.385 119.264 217.234 119.905C217.1 120.447 216.88 120.963 216.581 121.434C216.273 121.908 215.907 122.343 215.492 122.727C215.058 123.137 214.565 123.547 214.021 123.973C213.588 124.316 213.183 124.691 212.807 125.096C212.238 125.717 211.89 126.509 211.82 127.349C211.779 127.807 211.763 128.268 211.772 128.728L207.52 128.81L207.545 128.8ZM207.532 135.535L207.442 130.977L212.147 130.88L212.237 135.438L207.532 135.535Z" fill="#BF9105"/>
</g>
<defs>
<linearGradient id="paint0_linear_1253_237632" x1="154" y1="-3.39344e-08" x2="154" y2="180.552" gradientUnits="userSpaceOnUse">
<stop stop-color="white"/>
<stop offset="0.495" stop-color="white" stop-opacity="0"/>
<stop offset="1" stop-color="white"/>
</linearGradient>
<clipPath id="clip0_1253_237632">
<rect width="167.099" height="167.099" fill="white" transform="translate(70.8047 6.37256)"/>
</clipPath>
<clipPath id="clip1_1253_237632">
<rect width="70.8046" height="70.8046" fill="white" transform="translate(116.474 52.0415)"/>
</clipPath>
</defs>
</svg>
