<svg xmlns="http://www.w3.org/2000/svg" width="28" height="28" viewBox="0 0 28 28">
  <g id="Group_13326" data-name="Group 13326" transform="translate(-9936 -1408)">
    <circle id="Ellipse_116" data-name="Ellipse 116" cx="14" cy="14" r="14" transform="translate(9936 1408)" fill="#f5f5ff"/>
    <g id="Group_13324" data-name="Group 13324" transform="translate(9942.027 1414.006)">
      <g id="Icons" transform="translate(0.004 0.261)">
        <rect id="Rectangle_5757" data-name="Rectangle 5757" width="15.938" height="4" rx="2" transform="translate(0 10.698)" fill="#f1e0ff"/>
        <path id="Path_12088" data-name="Path 12088" d="M54.8,41H54a.535.535,0,0,1,.535.535v2.677a.535.535,0,0,1-.535.535h.8a.535.535,0,0,0,.535-.535V41.535A.535.535,0,0,0,54.8,41Z" transform="translate(-39.637 -30.353)" fill="#dab0fd"/>
        <g id="Group_13324-2" data-name="Group 13324" transform="translate(0.772 2.143)">
          <circle id="Ellipse_119" data-name="Ellipse 119" cx="1" cy="1" r="1" transform="translate(0.228 9.555)" fill="#dab0fd"/>
          <ellipse id="Ellipse_120" data-name="Ellipse 120" cx="0.5" cy="1" rx="0.5" ry="1" transform="translate(13.166 9.555)" fill="#dab0fd"/>
          <ellipse id="Ellipse_121" data-name="Ellipse 121" cx="0.5" cy="1" rx="0.5" ry="1" transform="translate(10.181 9.555)" fill="#e8edfc"/>
          <ellipse id="Ellipse_122" data-name="Ellipse 122" cx="0.5" cy="1" rx="0.5" ry="1" transform="translate(8.19 9.555)" fill="#e8edfc"/>
          <path id="Path_12089" data-name="Path 12089" d="M3.669,9a.669.669,0,0,1,.669.669v7.9H3v-7.9A.669.669,0,0,1,3.669,9Z" transform="translate(-3 -9)" fill="#f1e0ff"/>
          <path id="Path_12090" data-name="Path 12090" d="M52.669,9a.669.669,0,0,1,.669.669v7.9H52v-7.9A.669.669,0,0,1,52.669,9Z" transform="translate(-38.945 -9)" fill="#f1e0ff"/>
        </g>
        <path id="Path_12091" data-name="Path 12091" d="M3,55H5.409v.535a.535.535,0,0,1-.535.535H3.535A.535.535,0,0,1,3,55.535Z" transform="translate(-2.228 -40.605)" fill="#f1e0ff"/>
        <path id="Path_12092" data-name="Path 12092" d="M7.535,55v.535A.535.535,0,0,1,7,56.071h.8a.535.535,0,0,0,.535-.535V55Z" transform="translate(-5.157 -40.605)" fill="#dab0fd"/>
        <path id="Path_12093" data-name="Path 12093" d="M48,55h2.409v.535a.535.535,0,0,1-.535.535H48.535A.535.535,0,0,1,48,55.535Z" transform="translate(-35.243 -40.605)" fill="#f1e0ff"/>
        <path id="Path_12094" data-name="Path 12094" d="M52.535,55v.535a.535.535,0,0,1-.535.535h.8a.535.535,0,0,0,.535-.535V55Z" transform="translate(-38.173 -40.605)" fill="#dab0fd"/>
        <path id="Path_12095" data-name="Path 12095" d="M21.546,5.276a4.827,4.827,0,0,1-2.41,4.732,4.762,4.762,0,0,1-5.27-.382,4.836,4.836,0,0,1-1.711-5.031.536.536,0,0,1,.309-.36.531.531,0,0,1,.472.028.542.542,0,0,1,.248.611,3.807,3.807,0,0,0,0,1.887,3.735,3.735,0,1,0,6.024-3.8,3.71,3.71,0,0,0-4.356-.343l.247.249a.318.318,0,0,1,.069.345.314.314,0,0,1-.29.2H13.643a.312.312,0,0,1-.311-.313V1.848a.314.314,0,0,1,.193-.292.311.311,0,0,1,.342.07l.215.217a4.727,4.727,0,0,1,3.125-.828,4.816,4.816,0,0,1,4.338,4.261Z" transform="translate(-8.818 -0.995)" fill="#f1e0ff"/>
        <path id="Path_12096" data-name="Path 12096" d="M33.7,5.283a4.833,4.833,0,0,0-4.366-4.261,4.947,4.947,0,0,0-.814,0h.011a4.819,4.819,0,0,1-.017,9.6A4.82,4.82,0,0,0,33.7,5.283Z" transform="translate(-20.956 -1.002)" fill="#dab0fd"/>
      </g>
      <g id="Icons_copy_2" data-name="Icons copy 2" transform="translate(0.241 2.343)">
        <path id="Path_12097" data-name="Path 12097" d="M2.338,21.852v-.535a.535.535,0,0,1-.535-.535V18.1a.535.535,0,0,1,.535-.535v-7.9a.666.666,0,0,1,.268-.532.667.667,0,0,0-1.071.532v7.9A.535.535,0,0,0,1,18.1v2.677a.535.535,0,0,0,.535.535v.535a.535.535,0,0,0,.535.535h.8A.535.535,0,0,1,2.338,21.852Z" transform="translate(-1 -9.004)" fill="#fff"/>
      </g>
      <g id="Icons_copy" data-name="Icons copy" transform="translate(-0.027 -0.007)">
        <path id="Path_12098" data-name="Path 12098" d="M2,11.5h.535v2.142H2Z" transform="translate(-1.465 -8.433)" fill="#fff"/>
        <g id="Group_13325" data-name="Group 13325" transform="translate(0 0)">
          <path id="Path_12099" data-name="Path 12099" d="M15.467,16.577V8.933a.933.933,0,0,0-1.867,0v7.6H2.4v-7.6a.933.933,0,0,0-1.867,0,.267.267,0,0,0,.533,0,.4.4,0,0,1,.8,0v7.6h-.8V11.065a.267.267,0,0,0-.533,0v5.512a.8.8,0,0,0-.533.75v2.665a.8.8,0,0,0,.533.75v.316a.8.8,0,0,0,.8.8H2.667a.8.8,0,0,0,.8-.8v-.267h9.067v.267a.8.8,0,0,0,.8.8h1.333a.8.8,0,0,0,.8-.8v-.316a.8.8,0,0,0,.533-.75V17.328A.8.8,0,0,0,15.467,16.577ZM14.133,8.933a.4.4,0,0,1,.8,0v7.6h-.8ZM2.933,21.059a.267.267,0,0,1-.267.267H1.333a.267.267,0,0,1-.267-.267v-.267H2.933Zm12,0a.267.267,0,0,1-.267.267H13.333a.267.267,0,0,1-.267-.267v-.267h1.867Zm.533-1.066a.267.267,0,0,1-.267.267H.8a.267.267,0,0,1-.267-.267V17.328A.267.267,0,0,1,.8,17.061H15.2a.267.267,0,0,1,.267.267Z" transform="translate(0 -5.857)" fill="#8f59bc"/>
          <path id="Path_12100" data-name="Path 12100" d="M5.071,44a1.071,1.071,0,1,0,1.071,1.071A1.071,1.071,0,0,0,5.071,44Zm0,1.606a.535.535,0,1,1,.535-.535A.535.535,0,0,1,5.071,45.606Z" transform="translate(-2.929 -32.281)" fill="#8f59bc"/>
          <path id="Path_12101" data-name="Path 12101" d="M49.8,45a.8.8,0,1,0,.8.8A.8.8,0,0,0,49.8,45Zm0,1.071a.268.268,0,1,1,.268-.268A.268.268,0,0,1,49.8,46.071Z" transform="translate(-35.945 -33.014)" fill="#8f59bc"/>
          <path id="Path_12102" data-name="Path 12102" d="M40.8,45a.8.8,0,1,0,.8.8A.8.8,0,0,0,40.8,45Zm0,1.071a.268.268,0,1,1,.268-.268A.268.268,0,0,1,40.8,46.071Z" transform="translate(-29.338 -33.014)" fill="#8f59bc"/>
          <path id="Path_12103" data-name="Path 12103" d="M31.8,45a.8.8,0,1,0,.8.8A.8.8,0,0,0,31.8,45Zm0,1.071a.268.268,0,1,1,.268-.268A.268.268,0,0,1,31.8,46.071Z" transform="translate(-22.737 -33.014)" fill="#8f59bc"/>
          <circle id="Ellipse_123" data-name="Ellipse 123" cx="0.268" cy="0.268" r="0.268" transform="translate(0.535 3.868)" fill="#8f59bc"/>
          <path id="Path_12104" data-name="Path 12104" d="M12.33,3.3a.8.8,0,0,0-1.171.5A5.116,5.116,0,0,0,11.91,8a5.053,5.053,0,0,0,3.669,2.149q.235.022.468.021A5.088,5.088,0,0,0,16.495.014a4.967,4.967,0,0,0-3.113.751L13.32.7a.576.576,0,0,0-.632-.129.582.582,0,0,0-.358.54V2.359a.58.58,0,0,0,.577.581h1.235a.58.58,0,0,0,.535-.359.586.586,0,0,0-.122-.635,3.447,3.447,0,0,1,4.222.991A3.5,3.5,0,0,1,18.724,7.3a3.447,3.447,0,0,1-4.245.888A3.489,3.489,0,0,1,12.7,4.206a.813.813,0,0,0-.374-.91Zm3.08,5.75a3.985,3.985,0,0,0,4.239-2.22,4.033,4.033,0,0,0-.915-4.719,3.972,3.972,0,0,0-4.757-.453.269.269,0,0,0-.049.418l.247.249a.045.045,0,0,1,.011.054.044.044,0,0,1-.045.029H12.907a.045.045,0,0,1-.045-.046V1.114a.044.044,0,0,1,.029-.045.043.043,0,0,1,.052.012l.216.217a.265.265,0,0,0,.34.031A4.443,4.443,0,0,1,16.451.547a4.552,4.552,0,1,1-4.776,3.381.267.267,0,0,1,.392-.167.273.273,0,0,1,.122.311,4.1,4.1,0,0,0,0,2.02,4.015,4.015,0,0,0,3.222,2.954Z" transform="translate(-8.052 0.007)" fill="#8f59bc"/>
          <path id="Path_12105" data-name="Path 12105" d="M22.472,11.581a.268.268,0,0,0-.268-.463,2.409,2.409,0,1,0,2.409,0,.268.268,0,0,0-.268.463,1.874,1.874,0,1,1-1.874,0Z" transform="translate(-15.409 -8.132)" fill="#8f59bc"/>
          <path id="Path_12106" data-name="Path 12106" d="M29.535,10.142V8.268a.268.268,0,1,0-.535,0v1.874a.268.268,0,1,0,.535,0Z" transform="translate(-21.268 -5.857)" fill="#8f59bc"/>
        </g>
      </g>
    </g>
  </g>
</svg>
