<svg width="652" height="635" viewBox="0 0 652 635" fill="none" xmlns="http://www.w3.org/2000/svg">
<path d="M652 290.148V572.899H0V262.887H24.7565V317.945H64.9966V248.855H96.7547V277.923H113.266L127.567 257.734H143.825V190.752H189.308V290.148H235.787V314.097H253.806V277.945H322.496V317.945H348.769V262.887H388.844V345.05H391.181V234.365H426.484V262.887H456.445V317.945H496.669V248.855H528.43V277.923H544.955L559.256 257.734H575.514V190.752H620.983V290.148H652Z" fill="url(#paint0_linear_118_10764)"/>
<path d="M286.446 188.125H228.088C224.419 188.125 221.444 191.134 221.444 194.845V196.362C221.444 200.074 224.419 203.083 228.088 203.083H286.446C290.115 203.083 293.09 200.074 293.09 196.362V194.845C293.09 191.134 290.115 188.125 286.446 188.125Z" fill="url(#paint1_linear_118_10764)"/>
<path d="M357.664 193.68H416.026C419.692 193.68 422.669 196.691 422.669 200.4V201.92C422.669 205.629 419.692 208.64 416.026 208.64H357.667C354.001 208.64 351.024 205.629 351.024 201.92V200.4C351.024 196.691 354.001 193.682 357.664 193.682V193.68Z" fill="url(#paint2_linear_118_10764)"/>
<path d="M112.881 131.658C108.572 142.802 106.038 154.572 105.373 166.526H75.0029V165.682L75.2476 163.315C75.6123 159.207 76.2652 155.131 77.2014 151.118C78.7743 144.551 81.0402 138.176 83.9596 132.103C84.0138 131.955 84.1158 131.831 84.249 131.749C84.3822 131.668 84.5386 131.636 84.6925 131.657L112.881 131.658Z" fill="#EBEBEB"/>
<path d="M111.967 209.52H84.0555C83.9086 209.536 83.7609 209.5 83.6367 209.419C83.5124 209.338 83.4189 209.216 83.3714 209.074C80.1488 202.241 77.822 195.008 76.4505 187.56C75.7588 183.977 75.3016 180.35 75.0821 176.705C75.0944 176.577 75.0655 176.449 75 176.34V175.479H104.878C105.414 175.479 105.399 175.48 105.431 176.042C105.627 178.514 105.79 181.006 106.018 183.472C106.405 187.402 107.031 191.304 107.891 195.156C108.898 199.87 110.219 204.508 111.844 209.04C111.862 209.205 111.903 209.367 111.967 209.52Z" fill="#EBEBEB"/>
<path d="M229.345 218.522C229.345 218.688 229.183 218.821 229.117 218.936C226.745 222.612 224.099 226.097 221.203 229.362C217.712 233.372 213.827 237.01 209.609 240.218C205.471 243.389 201.049 246.159 196.403 248.492C191.926 250.762 187.255 252.612 182.447 254.019C178.631 255.123 174.747 255.963 170.82 256.534L169.68 256.733H169.012L168.394 256.353L169.143 255.823C177.67 249.934 185.129 242.588 191.189 234.112C194.617 229.333 197.63 224.261 200.194 218.953C200.239 218.809 200.332 218.686 200.457 218.604C200.582 218.523 200.731 218.488 200.879 218.507H229.426L229.345 218.522Z" fill="#EBEBEB"/>
<path d="M201.433 166.493H162.221V131.74H192.819C192.953 131.722 193.088 131.754 193.2 131.831C193.312 131.907 193.393 132.022 193.428 132.154C196.249 138.698 198.34 145.542 199.661 152.559C200.37 156.206 200.878 159.891 201.182 163.596C201.271 164.496 201.353 165.468 201.433 166.493Z" fill="#EBEBEB"/>
<path d="M201.193 175.793C201.212 176.611 201.174 177.429 201.079 178.242C200.917 180.178 200.775 182.131 200.509 184.05C200.135 186.714 199.749 189.396 199.206 192.042C198.044 197.852 196.342 203.537 194.125 209.021C194.09 209.182 193.997 209.324 193.864 209.418C193.732 209.513 193.57 209.555 193.409 209.534H161.996V175.793H201.193Z" fill="#EBEBEB"/>
<path d="M153.379 131.89V166.757H115.094C115.104 165.883 115.164 165.01 115.273 164.143C115.469 162.19 115.615 160.237 115.924 158.301C116.397 155.355 116.885 152.393 117.552 149.463C118.812 143.55 120.65 137.778 123.039 132.236C123.084 132.1 123.172 131.983 123.291 131.905C123.409 131.827 123.55 131.792 123.69 131.806H153.378L153.379 131.89Z" fill="#EBEBEB"/>
<path d="M153.428 176.257V209.52H122.796C122.646 209.542 122.493 209.506 122.367 209.421C122.241 209.335 122.15 209.206 122.112 209.057C119.787 203.401 118.041 197.518 116.901 191.499C116.331 188.409 115.892 185.277 115.518 182.148C115.258 180.113 115.192 178.044 115.062 175.968C115.055 175.896 115.055 175.824 115.062 175.753H152.891C153.329 175.744 153.428 175.86 153.428 176.257Z" fill="#EBEBEB"/>
<path d="M243.013 166.742H210.884C210.234 154.718 207.706 142.875 203.393 131.658H233.345C233.493 131.638 233.643 131.669 233.77 131.748C233.898 131.826 233.995 131.946 234.046 132.088C237.476 138.99 239.968 146.332 241.455 153.915C242.258 157.951 242.802 162.036 243.083 166.144L243.013 166.742Z" fill="#EBEBEB"/>
<path d="M243.025 175.529C243.042 176.291 243.01 177.054 242.927 177.812C242.719 180.758 242.363 183.69 241.863 186.599C240.672 193.353 238.688 199.937 235.952 206.209C235.528 207.218 235.039 208.218 234.6 209.221C234.569 209.32 234.505 209.405 234.418 209.462C234.332 209.518 234.229 209.542 234.127 209.53H204.218C204.577 208.487 204.934 207.478 205.282 206.452C207.014 201.264 208.342 195.947 209.255 190.548C209.944 186.635 210.406 182.684 210.638 178.716C210.638 177.772 210.752 176.83 210.79 175.903C210.79 175.654 210.79 175.523 211.133 175.555C211.23 175.563 211.328 175.563 211.426 175.555L243.025 175.529Z" fill="#EBEBEB"/>
<path d="M228.469 122.771V122.926H199.953C199.81 122.943 199.665 122.912 199.542 122.837C199.418 122.762 199.322 122.648 199.269 122.511C195.537 114.928 190.852 107.869 185.33 101.512C182.072 97.8454 178.49 94.4885 174.631 91.4834C172.709 89.994 170.722 88.588 168.768 87.148L168.443 86.8992L168.834 86.618C168.794 86.4044 168.728 86.1968 168.637 86C178.546 87.1301 188.172 90.0674 197.054 94.6709C209.746 101.111 220.572 110.795 228.469 122.771Z" fill="#EBEBEB"/>
<path d="M147.941 256.353C147.677 256.438 147.402 256.483 147.126 256.486C144.042 256.077 140.986 255.474 137.974 254.683C132.349 253.222 126.891 251.164 121.689 248.543C115.734 245.529 110.153 241.808 105.062 237.455C101.444 234.377 98.103 230.977 95.0793 227.295C92.8202 224.509 90.7381 221.579 88.8456 218.524C88.7899 218.436 88.7459 218.342 88.7148 218.242H115.34C115.48 218.231 115.62 218.266 115.738 218.344C115.856 218.422 115.945 218.537 115.991 218.672C118.719 224.262 121.94 229.588 125.615 234.586C129.014 239.131 132.784 243.377 136.884 247.279C140.258 250.523 143.885 253.484 147.729 256.132L147.941 256.353Z" fill="#EBEBEB"/>
<path d="M147.601 86.8432C146.395 87.7362 144.995 88.7467 143.628 89.805C139.061 93.4189 134.816 97.4335 130.941 101.802C125.697 107.611 121.224 114.093 117.636 121.082C117.408 121.528 117.214 121.992 116.952 122.406C116.907 122.477 116.847 122.537 116.777 122.583C116.706 122.629 116.627 122.658 116.545 122.67H89.562C103.811 102.232 122.946 89.9364 147.307 86.2622C147.307 86.3781 147.193 86.494 147.128 86.5928L147.601 86.8432Z" fill="#EBEBEB"/>
<path d="M189.726 218.539C186.095 224.979 181.721 230.957 176.698 236.346C172.286 241.176 167.322 245.454 161.912 249.088V218.539H189.726Z" fill="#EBEBEB"/>
<path d="M153.38 218.556V248.509C142.31 240.797 133.193 230.533 126.773 218.556H153.38Z" fill="#EBEBEB"/>
<path d="M188.863 122.655H162.221V94.1748C167.686 97.7959 172.704 102.068 177.17 106.902C181.588 111.732 185.507 117.011 188.863 122.655Z" fill="#EBEBEB"/>
<path d="M153.385 94.9858V122.887H127.812C134.068 111.679 142.828 102.122 153.385 94.9858Z" fill="#EBEBEB"/>
<path d="M545.132 353.847L507.83 371.003L470.548 388.15L421.727 410.609L318.285 458.188L203.624 369.862L164.629 339.824L133.34 315.73L101.554 291.244C130.255 197.771 216.439 129.885 318.288 129.885C441.764 129.885 542.21 229.65 545.137 353.85L545.132 353.847Z" fill="#90CAF9"/>
<path d="M508.169 359.439C508.169 363.326 508.053 367.185 507.827 371.003L470.545 388.15L421.724 410.609L318.282 458.188L203.621 369.862L164.626 339.824L133.337 315.73C152.892 230.701 228.275 167.336 318.285 167.336C423.157 167.336 508.175 253.35 508.175 359.441L508.169 359.439Z" fill="#73A2C7"/>
<path d="M473.144 359.438C473.144 369.243 472.248 378.847 470.548 388.15L421.726 410.609L318.284 458.188L203.623 369.862L164.629 339.824C174.164 262.549 239.32 202.768 318.284 202.768C403.814 202.768 473.147 272.914 473.147 359.441L473.144 359.438Z" fill="#90CAF9"/>
<path d="M433.409 359.439C433.409 377.796 429.205 395.166 421.724 410.609L318.282 458.188L203.621 369.862C203.309 366.427 203.155 362.952 203.155 359.439C203.155 295.109 254.702 242.974 318.282 242.974C381.862 242.974 433.409 295.109 433.409 359.439Z" fill="white"/>
<path d="M355.885 397.474C376.652 376.466 376.652 342.405 355.885 321.397C335.118 300.389 301.449 300.389 280.682 321.397C259.915 342.405 259.915 376.466 280.682 397.474C301.449 418.482 335.118 418.482 355.885 397.474Z" fill="#365170"/>
<path d="M269.99 66.8802H224.893C223.589 66.8802 222.53 65.8094 222.53 64.4904C222.53 63.1714 223.589 62.1006 224.893 62.1006H269.99C271.294 62.1006 272.352 63.1686 272.352 64.4904C272.352 65.8094 271.294 66.8802 269.99 66.8802Z" fill="url(#paint3_linear_118_10764)"/>
<path d="M263.388 77.5355H224.893C223.589 77.5355 222.53 76.4647 222.53 75.1457C222.53 73.8267 223.589 72.7559 224.893 72.7559H263.388C264.692 72.7559 265.75 73.8267 265.75 75.1457C265.75 76.4647 264.692 77.5355 263.388 77.5355Z" fill="url(#paint4_linear_118_10764)"/>
<path d="M289.644 88.1878H224.893C223.589 88.1878 222.53 87.117 222.53 85.798C222.53 84.479 223.589 83.4082 224.893 83.4082H289.644C290.948 83.4082 292.006 84.479 292.006 85.798C292.006 87.117 290.95 88.1878 289.644 88.1878Z" fill="url(#paint5_linear_118_10764)"/>
<path d="M514.517 383.167H543.726C544.961 383.167 545.961 384.179 545.961 385.429V389.991C545.961 391.237 544.961 392.252 543.726 392.252H514.517C513.282 392.252 512.282 391.24 512.282 389.991V385.429C512.282 384.179 513.282 383.167 514.517 383.167Z" fill="url(#paint6_linear_118_10764)"/>
<path d="M514.517 400.177H543.726C544.961 400.177 545.961 401.189 545.961 402.439V407.001C545.961 408.247 544.961 409.262 543.726 409.262H514.517C513.282 409.262 512.282 408.25 512.282 407.001V402.439C512.282 401.189 513.282 400.177 514.517 400.177Z" fill="url(#paint7_linear_118_10764)"/>
<path d="M514.518 417.188H543.723C544.958 417.188 545.959 418.2 545.959 419.449V424.011C545.959 425.26 544.958 426.273 543.723 426.273H514.515C513.28 426.273 512.279 425.26 512.279 424.011V419.449C512.279 418.2 513.28 417.188 514.515 417.188H514.518Z" fill="url(#paint8_linear_118_10764)"/>
<path opacity="0.18" d="M465.459 156.02H510.091C513.589 156.02 516.428 158.892 516.428 162.431V207.581C516.428 211.12 513.589 213.992 510.091 213.992H465.459C461.961 213.992 459.122 211.12 459.122 207.581V162.431C459.122 158.892 461.961 156.02 465.459 156.02Z" fill="url(#paint9_linear_118_10764)"/>
<path d="M507.014 178.044C503.954 169.391 495.778 164.076 487.161 164.335C485.075 164.399 482.963 164.79 480.89 165.54C474.614 167.81 470.112 172.868 468.265 178.844C466.983 182.985 466.975 187.567 468.533 191.967C468.687 192.405 468.855 192.835 469.037 193.256C469.856 195.163 470.928 196.886 472.204 198.401C477.552 204.761 486.425 207.447 494.656 204.471C505.283 200.626 510.815 188.794 507.017 178.044H507.014ZM492.934 199.6C486.762 201.833 480.11 199.817 476.099 195.049C475.143 193.914 474.338 192.62 473.726 191.189C473.591 190.874 473.464 190.551 473.348 190.224C472.182 186.926 472.188 183.49 473.15 180.386C474.536 175.905 477.91 172.115 482.616 170.412C484.168 169.848 485.753 169.558 487.316 169.508C493.774 169.31 499.905 173.295 502.201 179.784C505.051 187.843 500.903 196.713 492.934 199.597V199.6Z" fill="url(#paint10_linear_118_10764)"/>
<path d="M473.15 180.387L468.269 178.844C470.118 172.869 474.617 167.813 480.894 165.54C482.966 164.79 485.078 164.4 487.165 164.335L487.316 169.508C485.753 169.556 484.168 169.848 482.616 170.412C477.911 172.113 474.537 175.905 473.15 180.387Z" fill="#15456E"/>
<path d="M473.726 191.19L469.038 193.253C468.858 192.832 468.687 192.403 468.533 191.965C466.978 187.564 466.987 182.983 468.266 178.842L473.147 180.384C472.188 183.488 472.18 186.923 473.346 190.222C473.462 190.551 473.589 190.872 473.724 191.187L473.726 191.19Z" fill="#1B5C91"/>
<path d="M472.205 198.4C470.929 196.886 469.856 195.16 469.038 193.255L473.726 191.192C474.338 192.622 475.146 193.914 476.1 195.051L472.202 198.403L472.205 198.4Z" fill="#2273B5"/>
<path d="M135.95 250.023H174.093V277.99V283.88L168.268 277.99H135.95V250.023Z" fill="#365170"/>
<path d="M270.698 193.437C260.254 188.437 248.175 191.095 240.66 199.171C238.841 201.126 237.289 203.398 236.09 205.958C232.465 213.71 232.912 222.355 236.561 229.41C239.089 234.301 243.155 238.428 248.467 240.969C248.993 241.223 249.528 241.457 250.066 241.672C252.497 242.642 254.994 243.214 257.489 243.417C267.953 244.273 278.32 238.615 283.075 228.451C289.214 215.325 283.671 199.65 270.698 193.44V193.437ZM277.196 225.634C273.631 233.258 265.858 237.497 258.013 236.856C256.144 236.702 254.269 236.273 252.447 235.545C252.045 235.383 251.645 235.21 251.248 235.021C247.265 233.113 244.219 230.021 242.323 226.354C239.585 221.064 239.249 214.583 241.967 208.772C242.863 206.853 244.029 205.149 245.393 203.683C251.028 197.629 260.083 195.635 267.914 199.383C277.642 204.04 281.796 215.791 277.196 225.632V225.634Z" fill="url(#paint11_linear_118_10764)"/>
<path d="M242.325 226.354L236.564 229.407C232.915 222.352 232.468 213.708 236.093 205.955C237.289 203.395 238.841 201.123 240.663 199.168L245.399 203.68C244.035 205.147 242.871 206.851 241.973 208.769C239.255 214.58 239.591 221.061 242.328 226.351L242.325 226.354Z" fill="#365170"/>
<path d="M252.447 235.545L250.066 241.668C249.531 241.454 248.996 241.219 248.467 240.966C243.155 238.422 239.089 234.295 236.562 229.407L242.323 226.354C244.219 230.018 247.265 233.113 251.248 235.02C251.645 235.21 252.045 235.386 252.447 235.545Z" fill="#365170"/>
<path d="M399.876 325.965H372.616V330.85H399.876V325.965Z" fill="url(#paint12_linear_118_10764)"/>
<path d="M399.876 317.484H372.616V322.37H399.876V317.484Z" fill="url(#paint13_linear_118_10764)"/>
<path d="M399.876 309.004H372.616V313.89H399.876V309.004Z" fill="url(#paint14_linear_118_10764)"/>
<path d="M231.384 263.921H218.056V267.555H231.384V263.921Z" fill="#D8E7FF"/>
<path d="M231.384 271.188H218.056V274.822H231.384V271.188Z" fill="#D8E7FF"/>
<path d="M231.384 256.657H218.056V260.291H231.384V256.657Z" fill="#D8E7FF"/>
<path d="M151.212 343.086L150.544 343.973L259.247 427.715L259.915 426.827L151.212 343.086Z" fill="url(#paint15_linear_118_10764)"/>
<path d="M417.731 422.856L336.703 460.143L337.16 461.158L418.188 423.872L417.731 422.856Z" fill="url(#paint16_linear_118_10764)"/>
<path d="M546.752 323.96L556.207 297.552L499.944 305.508L487.773 332.297L546.752 323.96Z" fill="#365170"/>
<path d="M507.706 362.297L491.531 339.651L547.822 331.689L566.71 354.143L507.706 362.297Z" fill="#365170"/>
<path d="M354.194 359.068L547.822 331.69L546.752 323.957L353.036 351.346C350.961 351.678 349.522 353.636 349.817 355.75C350.109 357.861 352.022 359.333 354.106 359.076V359.082L354.155 359.076C354.161 359.076 354.169 359.076 354.175 359.076C354.183 359.076 354.189 359.074 354.194 359.071V359.068Z" fill="url(#paint17_linear_118_10764)"/>
<defs>
<linearGradient id="paint0_linear_118_10764" x1="326" y1="215.356" x2="326" y2="547.504" gradientUnits="userSpaceOnUse">
<stop stop-color="#EAF1FF"/>
<stop offset="1" stop-color="white"/>
</linearGradient>
<linearGradient id="paint1_linear_118_10764" x1="221.444" y1="195.604" x2="293.09" y2="195.604" gradientUnits="userSpaceOnUse">
<stop stop-color="#D5E4FF"/>
<stop offset="1" stop-color="#EDFFFE"/>
</linearGradient>
<linearGradient id="paint2_linear_118_10764" x1="351.021" y1="201.159" x2="422.667" y2="201.159" gradientUnits="userSpaceOnUse">
<stop stop-color="#D5E4FF"/>
<stop offset="1" stop-color="#EDFFFE"/>
</linearGradient>
<linearGradient id="paint3_linear_118_10764" x1="222.53" y1="64.4932" x2="272.349" y2="64.4932" gradientUnits="userSpaceOnUse">
<stop stop-color="#D5E4FF"/>
<stop offset="1" stop-color="#EDFFFE"/>
</linearGradient>
<linearGradient id="paint4_linear_118_10764" x1="222.53" y1="75.1457" x2="265.75" y2="75.1457" gradientUnits="userSpaceOnUse">
<stop stop-color="#D5E4FF"/>
<stop offset="1" stop-color="#EDFFFE"/>
</linearGradient>
<linearGradient id="paint5_linear_118_10764" x1="222.53" y1="85.8008" x2="292.003" y2="85.8008" gradientUnits="userSpaceOnUse">
<stop stop-color="#D5E4FF"/>
<stop offset="1" stop-color="#EDFFFE"/>
</linearGradient>
<linearGradient id="paint6_linear_118_10764" x1="512.282" y1="387.71" x2="545.958" y2="387.71" gradientUnits="userSpaceOnUse">
<stop stop-color="#D5E4FF"/>
<stop offset="1" stop-color="#EDFFFE"/>
</linearGradient>
<linearGradient id="paint7_linear_118_10764" x1="512.282" y1="404.72" x2="545.958" y2="404.72" gradientUnits="userSpaceOnUse">
<stop stop-color="#D5E4FF"/>
<stop offset="1" stop-color="#EDFFFE"/>
</linearGradient>
<linearGradient id="paint8_linear_118_10764" x1="512.282" y1="421.73" x2="545.959" y2="421.73" gradientUnits="userSpaceOnUse">
<stop stop-color="#D5E4FF"/>
<stop offset="1" stop-color="#EDFFFE"/>
</linearGradient>
<linearGradient id="paint9_linear_118_10764" x1="487.774" y1="223.063" x2="487.774" y2="141.89" gradientUnits="userSpaceOnUse">
<stop stop-color="#80C0FF"/>
<stop offset="1" stop-color="#EDFFFE"/>
</linearGradient>
<linearGradient id="paint10_linear_118_10764" x1="467.334" y1="185.007" x2="508.213" y2="185.007" gradientUnits="userSpaceOnUse">
<stop stop-color="#ABC9FF"/>
<stop offset="1" stop-color="#EDFFFE"/>
</linearGradient>
<linearGradient id="paint11_linear_118_10764" x1="233.587" y1="217.202" x2="285.578" y2="217.202" gradientUnits="userSpaceOnUse">
<stop stop-color="#D5E4FF"/>
<stop offset="1" stop-color="#EDFFFE"/>
</linearGradient>
<linearGradient id="paint12_linear_118_10764" x1="372.616" y1="328.408" x2="399.873" y2="328.408" gradientUnits="userSpaceOnUse">
<stop stop-color="#D5E4FF"/>
<stop offset="1" stop-color="#EDFFFE"/>
</linearGradient>
<linearGradient id="paint13_linear_118_10764" x1="372.616" y1="319.927" x2="399.873" y2="319.927" gradientUnits="userSpaceOnUse">
<stop stop-color="#D5E4FF"/>
<stop offset="1" stop-color="#EDFFFE"/>
</linearGradient>
<linearGradient id="paint14_linear_118_10764" x1="372.616" y1="311.447" x2="399.873" y2="311.447" gradientUnits="userSpaceOnUse">
<stop stop-color="#D5E4FF"/>
<stop offset="1" stop-color="#EDFFFE"/>
</linearGradient>
<linearGradient id="paint15_linear_118_10764" x1="205.241" y1="513.25" x2="205.241" y2="364.356" gradientUnits="userSpaceOnUse">
<stop stop-color="#303669"/>
<stop offset="1" stop-color="#4DAEFF"/>
</linearGradient>
<linearGradient id="paint16_linear_118_10764" x1="377.462" y1="513.249" x2="377.462" y2="364.355" gradientUnits="userSpaceOnUse">
<stop stop-color="#303669"/>
<stop offset="1" stop-color="#4DAEFF"/>
</linearGradient>
<linearGradient id="paint17_linear_118_10764" x1="369.829" y1="168.957" x2="508.741" y2="464.977" gradientUnits="userSpaceOnUse">
<stop stop-color="#ABC9FF"/>
<stop offset="1" stop-color="#EDFFFE"/>
</linearGradient>
</defs>
</svg>
