<svg width="16" height="16" viewBox="0 0 16 16" fill="none" xmlns="http://www.w3.org/2000/svg">
<g clip-path="url(#clip0_1086_988)">
<path d="M10.8283 3.17154C12.3904 4.73364 12.3904 7.2663 10.8283 8.8284M5.1714 8.8284C3.6093 7.2663 3.6093 4.73364 5.1714 3.17154M3.2387 10.6667C0.682229 8.05958 0.697873 3.87372 3.28563 1.28596M12.714 1.28596C15.3018 3.87372 15.3174 8.05958 12.7609 10.6667M7.99982 10.6667V5.99999M3.33316 14.6667H12.6665C13.2877 14.6667 13.5984 14.6667 13.8434 14.5652C14.1701 14.4298 14.4297 14.1703 14.565 13.8436C14.6665 13.5985 14.6665 13.2879 14.6665 12.6667C14.6665 12.0454 14.6665 11.7348 14.565 11.4897C14.4297 11.163 14.1701 10.9035 13.8434 10.7682C13.5984 10.6667 13.2877 10.6667 12.6665 10.6667H3.33316C2.7119 10.6667 2.40127 10.6667 2.15624 10.7682C1.82954 10.9035 1.56997 11.163 1.43465 11.4897C1.33316 11.7348 1.33316 12.0454 1.33316 12.6667C1.33316 13.2879 1.33316 13.5985 1.43465 13.8436C1.56997 14.1703 1.82954 14.4298 2.15624 14.5652C2.40127 14.6667 2.7119 14.6667 3.33316 14.6667Z" stroke="#040D17" stroke-linecap="round" stroke-linejoin="round"/>
</g>
<defs>
<clipPath id="clip0_1086_988">
<rect width="16" height="16" fill="white"/>
</clipPath>
</defs>
</svg>
