<svg width="44" height="44" viewBox="0 0 44 44" fill="none" xmlns="http://www.w3.org/2000/svg">
<g filter="url(#filter0_d_351_18840)">
<rect x="2" y="1" width="40" height="40" rx="4" fill="white"/>
<rect x="2.5" y="1.5" width="39" height="39" rx="3.5" stroke="#DADBDC"/>
<path d="M29 16V26M15 16V26M27 14L17 14M27 28H17M14.6 16H15.4C15.9601 16 16.2401 16 16.454 15.891C16.6422 15.7951 16.7951 15.6422 16.891 15.454C17 15.2401 17 14.9601 17 14.4V13.6C17 13.0399 17 12.7599 16.891 12.546C16.7951 12.3578 16.6422 12.2049 16.454 12.109C16.2401 12 15.9601 12 15.4 12H14.6C14.0399 12 13.7599 12 13.546 12.109C13.3578 12.2049 13.2049 12.3578 13.109 12.546C13 12.7599 13 13.0399 13 13.6V14.4C13 14.9601 13 15.2401 13.109 15.454C13.2049 15.6422 13.3578 15.7951 13.546 15.891C13.7599 16 14.0399 16 14.6 16ZM14.6 30H15.4C15.9601 30 16.2401 30 16.454 29.891C16.6422 29.7951 16.7951 29.6422 16.891 29.454C17 29.2401 17 28.9601 17 28.4V27.6C17 27.0399 17 26.7599 16.891 26.546C16.7951 26.3578 16.6422 26.2049 16.454 26.109C16.2401 26 15.9601 26 15.4 26H14.6C14.0399 26 13.7599 26 13.546 26.109C13.3578 26.2049 13.2049 26.3578 13.109 26.546C13 26.7599 13 27.0399 13 27.6V28.4C13 28.9601 13 29.2401 13.109 29.454C13.2049 29.6422 13.3578 29.7951 13.546 29.891C13.7599 30 14.0399 30 14.6 30ZM28.6 16H29.4C29.9601 16 30.2401 16 30.454 15.891C30.6422 15.7951 30.7951 15.6422 30.891 15.454C31 15.2401 31 14.9601 31 14.4V13.6C31 13.0399 31 12.7599 30.891 12.546C30.7951 12.3578 30.6422 12.2049 30.454 12.109C30.2401 12 29.9601 12 29.4 12H28.6C28.0399 12 27.7599 12 27.546 12.109C27.3578 12.2049 27.2049 12.3578 27.109 12.546C27 12.7599 27 13.0399 27 13.6V14.4C27 14.9601 27 15.2401 27.109 15.454C27.2049 15.6422 27.3578 15.7951 27.546 15.891C27.7599 16 28.0399 16 28.6 16ZM28.6 30H29.4C29.9601 30 30.2401 30 30.454 29.891C30.6422 29.7951 30.7951 29.6422 30.891 29.454C31 29.2401 31 28.9601 31 28.4V27.6C31 27.0399 31 26.7599 30.891 26.546C30.7951 26.3578 30.6422 26.2049 30.454 26.109C30.2401 26 29.9601 26 29.4 26H28.6C28.0399 26 27.7599 26 27.546 26.109C27.3578 26.2049 27.2049 26.3578 27.109 26.546C27 26.7599 27 27.0399 27 27.6V28.4C27 28.9601 27 29.2401 27.109 29.454C27.2049 29.6422 27.3578 29.7951 27.546 29.891C27.7599 30 28.0399 30 28.6 30Z" stroke="#434A51" stroke-width="1.5" stroke-linecap="round" stroke-linejoin="round"/>
</g>
<defs>
<filter id="filter0_d_351_18840" x="0" y="0" width="44" height="44" filterUnits="userSpaceOnUse" color-interpolation-filters="sRGB">
<feFlood flood-opacity="0" result="BackgroundImageFix"/>
<feColorMatrix in="SourceAlpha" type="matrix" values="0 0 0 0 0 0 0 0 0 0 0 0 0 0 0 0 0 0 127 0" result="hardAlpha"/>
<feOffset dy="1"/>
<feGaussianBlur stdDeviation="1"/>
<feColorMatrix type="matrix" values="0 0 0 0 0.0392157 0 0 0 0 0.0496732 0 0 0 0 0.0705882 0 0 0 0.05 0"/>
<feBlend mode="normal" in2="BackgroundImageFix" result="effect1_dropShadow_351_18840"/>
<feBlend mode="normal" in="SourceGraphic" in2="effect1_dropShadow_351_18840" result="shape"/>
</filter>
</defs>
</svg>
