<svg xmlns="http://www.w3.org/2000/svg" width="17.29" height="11.094" viewBox="0 0 17.29 11.094">
  <g id="Group_9915" data-name="Group 9915" transform="translate(-5032.756 -1482.356)">
    <g id="Icon_feather-server" data-name="Icon feather-server" transform="translate(5033.256 1486.435)">
      <path id="Path_7656" data-name="Path 7656" d="M2.629,7H15.661A1.629,1.629,0,0,1,17.29,8.629v3.258a1.629,1.629,0,0,1-1.629,1.629H2.629A1.629,1.629,0,0,1,1,11.887V8.629A1.629,1.629,0,0,1,2.629,7Z" transform="translate(-1 -7)" fill="#e7e0f8" stroke="#9b60c6" stroke-linecap="round" stroke-linejoin="round" stroke-width="1"/>
      <path id="Path_7658" data-name="Path 7658" d="M3,9H3" transform="translate(0.258 -5.742)" fill="#e7e0f8" stroke="#9b60c6" stroke-linecap="round" stroke-linejoin="round" stroke-width="1.2"/>
      <path id="Path_7659" data-name="Path 7659" d="M3,9H3" transform="translate(2.468 -5.742)" fill="#e7e0f8" stroke="#9b60c6" stroke-linecap="round" stroke-linejoin="round" stroke-width="1.2"/>
      <path id="Path_7660" data-name="Path 7660" d="M3,9H3" transform="translate(4.677 -5.742)" fill="#e7e0f8" stroke="#9b60c6" stroke-linecap="round" stroke-linejoin="round" stroke-width="1.2"/>
    </g>
    <path id="Path_7663" data-name="Path 7663" d="M9.024,1,6.262,3.762,3.5,1" transform="translate(5035.139 1482.063)" fill="none" stroke="#9b60c6" stroke-linecap="round" stroke-linejoin="round" stroke-width="1"/>
  </g>
</svg>
