<svg width="1743" height="258" viewBox="0 0 1743 258" fill="none" xmlns="http://www.w3.org/2000/svg">
<rect x="159.438" y="24.9379" width="313.273" height="199.493" rx="12.049" fill="#A3A4A8"/>
<rect x="159.438" y="24.9379" width="313.273" height="199.493" rx="12.049" stroke="black" stroke-width="2.80208"/>
<path d="M210.716 86.0603C210.716 87.1645 211.611 88.0598 212.716 88.0598H230.013C231.117 88.0598 232.012 88.9549 232.012 90.0591V126.047C232.012 127.151 231.117 128.046 230.013 128.046H170.124C169.02 128.046 168.125 127.151 168.125 126.047V90.0591C168.125 88.9549 169.02 88.0598 170.124 88.0598H187.421C188.525 88.0598 189.42 87.1645 189.42 86.0603C189.42 84.9561 190.316 84.0608 191.42 84.0608H208.717C209.821 84.0608 210.716 84.9561 210.716 86.0603Z" fill="#0B0B0B"/>
<rect x="191.663" y="77.3361" width="16.8125" height="16.8125" rx="3.3625" fill="#0B0B0B"/>
<rect x="232.013" y="77.3361" width="13.45" height="6.725" rx="1.68125" fill="#0B0B0B"/>
<path d="M288.054 86.0603C288.054 87.1645 288.949 88.0598 290.054 88.0598H307.35C308.454 88.0598 309.349 88.9549 309.349 90.0591V126.047C309.349 127.151 308.454 128.046 307.35 128.046H247.462C246.358 128.046 245.462 127.151 245.462 126.047V90.0591C245.462 88.9549 246.358 88.0598 247.462 88.0598H264.759C265.863 88.0598 266.758 87.1645 266.758 86.0603C266.758 84.9561 267.653 84.0608 268.758 84.0608H286.055C287.159 84.0608 288.054 84.9561 288.054 86.0603Z" fill="#0B0B0B"/>
<rect x="269" y="77.3361" width="16.8125" height="16.8125" rx="3.3625" fill="#0B0B0B"/>
<path d="M365.392 86.0603C365.392 87.1645 366.287 88.0598 367.391 88.0598H384.687C385.791 88.0598 386.687 88.9549 386.687 90.0591V126.047C386.687 127.151 385.791 128.046 384.687 128.046H324.799C323.695 128.046 322.8 127.151 322.8 126.047V90.0591C322.8 88.9549 323.695 88.0598 324.799 88.0598H342.096C343.201 88.0598 344.096 87.1645 344.096 86.0603C344.096 84.9561 344.991 84.0608 346.095 84.0608H363.392C364.496 84.0608 365.392 84.9561 365.392 86.0603Z" fill="#0B0B0B"/>
<rect x="346.337" y="77.3361" width="16.8125" height="16.8125" rx="3.3625" fill="#0B0B0B"/>
<path d="M441.381 86.0607C441.381 87.1649 442.276 88.0602 443.381 88.0602H460.451C461.556 88.0602 462.451 88.9553 462.451 90.0595V126.047C462.451 127.151 461.556 128.047 460.451 128.047H401.242C400.138 128.047 399.243 127.151 399.243 126.047V90.0595C399.243 88.9553 400.138 88.0602 401.242 88.0602H418.313C419.417 88.0602 420.312 87.1649 420.312 86.0607C420.312 84.9565 421.207 84.0612 422.311 84.0612H439.382C440.486 84.0612 441.381 84.9565 441.381 86.0607Z" fill="#0B0B0B"/>
<rect x="422.529" y="77.3364" width="16.6336" height="16.8125" rx="3.3625" fill="#0B0B0B"/>
<rect x="161.119" y="40.6289" width="311.031" height="36.4271" fill="#8B8B8B"/>
<rect x="309.349" y="77.3364" width="13.45" height="6.725" rx="1.68125" fill="#0B0B0B"/>
<rect x="386.687" y="77.3364" width="13.45" height="6.725" rx="1.68125" fill="#0B0B0B"/>
<path d="M421.433 196.933C421.433 195.829 420.537 194.933 419.433 194.933L402.136 194.933C401.032 194.933 400.137 194.038 400.137 192.934L400.137 156.946C400.137 155.842 401.032 154.947 402.136 154.947L462.025 154.947C463.129 154.947 464.024 155.842 464.024 156.946L464.024 192.934C464.024 194.038 463.129 194.933 462.025 194.933L444.728 194.933C443.624 194.933 442.729 195.829 442.729 196.933C442.729 198.037 441.833 198.932 440.729 198.932L423.432 198.932C422.328 198.932 421.433 198.037 421.433 196.933Z" fill="#0B0B0B"/>
<rect x="440.486" y="205.657" width="16.8125" height="16.8125" rx="3.3625" transform="rotate(-180 440.486 205.657)" fill="#0B0B0B"/>
<rect x="400.136" y="205.657" width="13.45" height="6.725" rx="1.68125" transform="rotate(-180 400.136 205.657)" fill="#0B0B0B"/>
<path d="M344.095 196.933C344.095 195.829 343.2 194.933 342.095 194.933L324.798 194.933C323.694 194.933 322.799 194.038 322.799 192.934L322.799 156.946C322.799 155.842 323.694 154.947 324.798 154.947L384.687 154.947C385.791 154.947 386.687 155.842 386.687 156.946L386.687 192.934C386.687 194.038 385.791 194.933 384.687 194.933L367.39 194.933C366.286 194.933 365.391 195.829 365.391 196.933C365.391 198.037 364.495 198.932 363.391 198.932L346.094 198.932C344.99 198.932 344.095 198.037 344.095 196.933Z" fill="#0B0B0B"/>
<rect x="363.149" y="205.657" width="16.8125" height="16.8125" rx="3.3625" transform="rotate(-180 363.149 205.657)" fill="#0B0B0B"/>
<path d="M266.758 196.933C266.758 195.829 265.863 194.933 264.758 194.933L247.461 194.933C246.357 194.933 245.462 194.038 245.462 192.934L245.462 156.946C245.462 155.842 246.357 154.947 247.461 154.947L307.349 154.947C308.454 154.947 309.349 155.842 309.349 156.946L309.349 192.934C309.349 194.038 308.454 194.933 307.349 194.933L290.053 194.933C288.949 194.933 288.054 195.829 288.054 196.933C288.054 198.037 287.159 198.932 286.054 198.932L268.757 198.932C267.653 198.932 266.758 198.037 266.758 196.933Z" fill="#0B0B0B"/>
<rect x="285.812" y="205.657" width="16.8125" height="16.8125" rx="3.3625" transform="rotate(-180 285.812 205.657)" fill="#0B0B0B"/>
<path d="M189.419 196.933C189.419 195.829 188.524 194.933 187.42 194.933L170.123 194.933C169.019 194.933 168.124 194.038 168.124 192.934L168.124 156.946C168.124 155.842 169.019 154.947 170.123 154.947L230.011 154.947C231.116 154.947 232.011 155.842 232.011 156.946L232.011 192.934C232.011 194.038 231.116 194.933 230.011 194.933L212.714 194.933C211.61 194.933 210.715 195.829 210.715 196.933C210.715 198.037 209.82 198.932 208.716 198.932L191.418 198.932C190.314 198.932 189.419 198.037 189.419 196.933Z" fill="#0B0B0B"/>
<rect x="208.474" y="205.657" width="16.8125" height="16.8125" rx="3.3625" transform="rotate(-180 208.474 205.657)" fill="#0B0B0B"/>
<rect x="322.798" y="205.657" width="13.45" height="6.725" rx="1.68125" transform="rotate(-180 322.798 205.657)" fill="#0B0B0B"/>
<rect x="245.462" y="205.657" width="13.45" height="6.725" rx="1.68125" transform="rotate(-180 245.462 205.657)" fill="#0B0B0B"/>
<path d="M161.118 37.8272C161.118 31.637 166.136 26.6189 172.326 26.6189H460.941C467.131 26.6189 472.149 31.637 472.149 37.8272V49.0356H161.118V37.8272Z" fill="#84BAD8"/>
<path d="M176.305 60.0211C175.658 61.1419 174.04 61.1419 173.393 60.0211L169.316 52.9598C168.669 51.839 169.478 50.438 170.772 50.438L178.926 50.438C180.22 50.438 181.029 51.839 180.382 52.9598L176.305 60.0211Z" fill="#0B0B0B"/>
<path d="M215.086 51.2768C215.733 50.1559 217.351 50.1559 217.998 51.2768L222.075 58.338C222.722 59.4588 221.913 60.8599 220.618 60.8599H212.465C211.171 60.8599 210.362 59.4588 211.009 58.338L215.086 51.2768Z" fill="#0B0B0B"/>
<path d="M258.351 60.0211C257.704 61.1419 256.086 61.1419 255.439 60.0211L251.362 52.9598C250.715 51.839 251.524 50.438 252.818 50.438L260.972 50.438C262.266 50.438 263.075 51.839 262.428 52.9598L258.351 60.0211Z" fill="#0B0B0B"/>
<path d="M297.135 51.2777C297.782 50.1569 299.399 50.1569 300.047 51.2777L304.123 58.339C304.77 59.4598 303.962 60.8609 302.667 60.8609H294.514C293.219 60.8609 292.411 59.4598 293.058 58.339L297.135 51.2777Z" fill="#0B0B0B"/>
<path d="M339.05 60.0209C338.403 61.1417 336.785 61.1417 336.138 60.0208L332.061 52.9596C331.414 51.8388 332.223 50.4377 333.517 50.4377L341.671 50.4377C342.965 50.4377 343.774 51.8388 343.127 52.9596L339.05 60.0209Z" fill="#0B0B0B"/>
<path d="M377.834 51.2775C378.481 50.1567 380.099 50.1567 380.746 51.2775L384.823 58.3387C385.47 59.4596 384.661 60.8606 383.367 60.8606H375.213C373.919 60.8606 373.11 59.4596 373.757 58.3387L377.834 51.2775Z" fill="#0B0B0B"/>
<path d="M419.75 60.0209C419.103 61.1417 417.485 61.1417 416.838 60.0208L412.761 52.9596C412.114 51.8388 412.923 50.4377 414.217 50.4377L422.371 50.4377C423.665 50.4377 424.474 51.8388 423.827 52.9596L419.75 60.0209Z" fill="#0B0B0B"/>
<path d="M458.534 51.2765C459.181 50.1557 460.799 50.1557 461.446 51.2765L465.523 58.3378C466.17 59.4586 465.361 60.8596 464.067 60.8596H455.913C454.619 60.8596 453.81 59.4586 454.457 58.3378L458.534 51.2765Z" fill="#0B0B0B"/>
<path d="M175.256 45.5369H173.641V33.3314C173.516 33.4562 173.332 33.6006 173.089 33.7648C172.853 33.9224 172.583 34.0801 172.281 34.2377C171.986 34.3953 171.67 34.5431 171.335 34.681C171.007 34.8189 170.685 34.9273 170.37 35.0061V33.3708C170.725 33.2723 171.099 33.1409 171.493 32.9767C171.894 32.806 172.284 32.6188 172.665 32.4152C173.053 32.2051 173.417 31.9884 173.759 31.7651C174.1 31.5352 174.396 31.3119 174.645 31.0952H175.256V45.5369Z" fill="black"/>
<path d="M219.443 35.1142C219.443 34.6807 219.374 34.3031 219.236 33.9813C219.105 33.6595 218.921 33.3935 218.684 33.1834C218.455 32.9666 218.182 32.8057 217.867 32.7007C217.552 32.5956 217.21 32.5431 216.842 32.5431C216.527 32.5431 216.218 32.5857 215.916 32.6711C215.614 32.7565 215.319 32.8747 215.03 33.0258C214.747 33.1768 214.471 33.3574 214.202 33.5676C213.939 33.7777 213.693 34.0109 213.463 34.267V32.5332C213.916 32.0932 214.422 31.7583 214.98 31.5284C215.545 31.292 216.231 31.1738 217.039 31.1738C217.617 31.1738 218.152 31.2591 218.645 31.4299C219.138 31.5941 219.564 31.8371 219.926 32.1589C220.287 32.4807 220.569 32.878 220.773 33.3508C220.983 33.8237 221.088 34.3655 221.088 34.9763C221.088 35.5345 221.022 36.0402 220.891 36.4933C220.766 36.9465 220.573 37.3734 220.31 37.774C220.054 38.1746 219.729 38.5588 219.335 38.9265C218.941 39.2943 218.478 39.6687 217.946 40.0496C217.282 40.5224 216.734 40.9263 216.3 41.2613C215.874 41.5962 215.532 41.9114 215.276 42.207C215.026 42.4959 214.849 42.7882 214.744 43.0837C214.645 43.3727 214.596 43.7076 214.596 44.0885H221.63V45.5366H212.912V44.8372C212.912 44.233 212.977 43.701 213.109 43.2413C213.24 42.7816 213.457 42.3449 213.759 41.9311C214.061 41.5174 214.455 41.1036 214.941 40.6899C215.434 40.2761 216.034 39.8099 216.744 39.291C217.256 38.9233 217.683 38.5719 218.024 38.237C218.372 37.902 218.652 37.5671 218.862 37.2322C219.072 36.8972 219.22 36.559 219.305 36.2175C219.397 35.8694 219.443 35.5017 219.443 35.1142Z" fill="black"/>
<path d="M261.575 41.5373C261.575 42.1744 261.453 42.7556 261.21 43.281C260.974 43.7998 260.635 44.2464 260.195 44.6207C259.762 44.9885 259.24 45.2742 258.629 45.4778C258.018 45.6813 257.345 45.7831 256.61 45.7831C255.263 45.7831 254.193 45.527 253.398 45.0148V43.281C254.35 44.0297 255.441 44.404 256.669 44.404C257.161 44.404 257.605 44.3416 257.999 44.2168C258.399 44.092 258.741 43.9114 259.023 43.675C259.312 43.4386 259.532 43.1529 259.683 42.818C259.841 42.483 259.92 42.1054 259.92 41.6851C259.92 39.8397 258.606 38.9169 255.979 38.9169H254.807V37.5476H255.92C258.245 37.5476 259.407 36.6807 259.407 34.947C259.407 33.3445 258.521 32.5433 256.748 32.5433C255.749 32.5433 254.813 32.8782 253.94 33.5481V31.9818C254.84 31.4433 255.91 31.174 257.151 31.174C257.743 31.174 258.278 31.2561 258.757 31.4203C259.237 31.5845 259.647 31.8143 259.989 32.1099C260.33 32.4054 260.593 32.76 260.777 33.1738C260.967 33.5875 261.062 34.0439 261.062 34.5431C261.062 36.4016 260.123 37.5969 258.245 38.1289V38.1683C258.724 38.2208 259.168 38.339 259.575 38.5229C259.982 38.7002 260.333 38.9334 260.629 39.2223C260.924 39.5113 261.154 39.8528 261.318 40.2468C261.489 40.6343 261.575 41.0645 261.575 41.5373Z" fill="black"/>
<path d="M300.911 31.4102V40.7391H302.723V42.2168H300.911V45.5366H299.315V42.2168H292.675V40.818C293.292 40.1218 293.916 39.3797 294.547 38.5916C295.177 37.797 295.778 36.9925 296.349 36.1781C296.927 35.3637 297.459 34.5527 297.945 33.7449C298.438 32.9305 298.852 32.1523 299.187 31.4102H300.911ZM294.497 40.7391H299.315V33.8237C298.822 34.684 298.356 35.4524 297.916 36.1288C297.476 36.8053 297.055 37.4193 296.655 37.971C296.261 38.5227 295.883 39.0218 295.522 39.4684C295.161 39.9149 294.819 40.3385 294.497 40.7391Z" fill="black"/>
<path d="M342.431 41.2219C342.431 41.9114 342.313 42.5353 342.077 43.0936C341.84 43.6518 341.502 44.1312 341.062 44.5318C340.629 44.9324 340.103 45.2411 339.486 45.4578C338.869 45.6745 338.182 45.7829 337.427 45.7829C336.114 45.7829 335.138 45.5859 334.501 45.1918V43.4777C335.46 44.0951 336.442 44.4037 337.447 44.4037C337.959 44.4037 338.419 44.3282 338.826 44.1772C339.24 44.0261 339.591 43.816 339.88 43.5467C340.169 43.2774 340.389 42.9524 340.54 42.5714C340.698 42.1905 340.776 41.7735 340.776 41.3204C340.776 40.4009 340.468 39.6818 339.85 39.163C339.233 38.6376 338.337 38.3749 337.161 38.3749C336.971 38.3749 336.77 38.3782 336.56 38.3847C336.35 38.3913 336.14 38.4012 335.93 38.4143C335.72 38.4209 335.513 38.4307 335.309 38.4438C335.112 38.457 334.931 38.4734 334.767 38.4931L335.25 31.4102H341.781V32.8681H336.649L336.363 37.0154C336.573 37.0023 336.797 36.9925 337.033 36.9859C337.269 36.9728 337.48 36.9662 337.664 36.9662C338.412 36.9662 339.082 37.0647 339.673 37.2617C340.264 37.4587 340.763 37.7411 341.17 38.1089C341.584 38.4701 341.896 38.9167 342.106 39.4487C342.323 39.974 342.431 40.5651 342.431 41.2219Z" fill="black"/>
<path d="M383.304 41.0546C383.304 41.7442 383.192 42.378 382.969 42.9559C382.746 43.5338 382.437 44.0329 382.043 44.4532C381.649 44.8736 381.18 45.2019 380.634 45.4384C380.089 45.6682 379.498 45.7831 378.861 45.7831C378.152 45.7831 377.515 45.6354 376.95 45.3398C376.392 45.0443 375.916 44.6207 375.522 44.0691C375.134 43.5108 374.839 42.8311 374.635 42.0299C374.432 41.2287 374.33 40.3256 374.33 39.3208C374.33 38.0927 374.464 36.9796 374.734 35.9813C375.01 34.9765 375.397 34.1195 375.896 33.4102C376.402 32.6943 377.009 32.1427 377.719 31.7552C378.428 31.3677 379.219 31.174 380.093 31.174C381.065 31.174 381.846 31.3086 382.437 31.5779V33.1048C381.708 32.7305 380.94 32.5433 380.132 32.5433C379.502 32.5433 378.934 32.6845 378.428 32.9669C377.922 33.2493 377.489 33.6499 377.128 34.1687C376.766 34.681 376.487 35.3016 376.29 36.0306C376.1 36.7596 376.004 37.5706 376.004 38.4638H376.044C376.694 37.2882 377.768 36.7005 379.265 36.7005C379.883 36.7005 380.437 36.8055 380.93 37.0157C381.429 37.2258 381.853 37.5247 382.201 37.9121C382.555 38.293 382.828 38.7495 383.018 39.2814C383.209 39.8134 383.304 40.4045 383.304 41.0546ZM381.649 41.2615C381.649 40.7689 381.587 40.3256 381.462 39.9316C381.337 39.5376 381.157 39.2026 380.92 38.9268C380.69 38.651 380.405 38.4408 380.063 38.2963C379.722 38.1453 379.334 38.0698 378.901 38.0698C378.5 38.0698 378.129 38.1453 377.788 38.2963C377.446 38.4474 377.15 38.6542 376.901 38.9169C376.651 39.1731 376.454 39.4752 376.31 39.8232C376.172 40.1647 376.103 40.5292 376.103 40.9167C376.103 41.4027 376.172 41.8591 376.31 42.286C376.448 42.7063 376.642 43.0741 376.891 43.3893C377.141 43.7046 377.436 43.9541 377.778 44.138C378.126 44.3153 378.51 44.404 378.93 44.404C379.337 44.404 379.708 44.3285 380.043 44.1774C380.378 44.0198 380.664 43.8031 380.9 43.5272C381.137 43.2514 381.321 42.923 381.452 42.5421C381.583 42.1547 381.649 41.7278 381.649 41.2615Z" fill="black"/>
<path d="M423.535 32.346C423.318 32.7204 423.055 33.1867 422.746 33.7449C422.444 34.3031 422.123 34.9303 421.781 35.6264C421.44 36.3226 421.091 37.0713 420.737 37.8725C420.382 38.6737 420.051 39.5012 419.742 40.355C419.433 41.2087 419.161 42.0756 418.924 42.9556C418.694 43.8291 418.527 44.6894 418.422 45.5366H416.688C416.806 44.696 416.987 43.839 417.23 42.9655C417.479 42.0855 417.759 41.2251 418.067 40.3845C418.382 39.5373 418.714 38.723 419.062 37.9414C419.41 37.1599 419.748 36.4408 420.077 35.7841C420.405 35.1273 420.704 34.5494 420.973 34.0503C421.249 33.5446 421.469 33.1505 421.633 32.8681H414.55V31.4102H423.535V32.346Z" fill="black"/>
<path d="M454.823 41.5964C454.823 41.2221 454.882 40.8478 455 40.4734C455.119 40.0925 455.286 39.7379 455.503 39.4095C455.726 39.0811 455.999 38.7823 456.32 38.513C456.649 38.2438 457.02 38.0303 457.434 37.8727C456.823 37.5312 456.337 37.0945 455.976 36.5625C455.614 36.024 455.434 35.4297 455.434 34.7795C455.434 34.2607 455.532 33.7812 455.729 33.3412C455.933 32.9012 456.212 32.5203 456.567 32.1985C456.921 31.8767 457.342 31.6271 457.828 31.4498C458.314 31.2659 458.839 31.174 459.404 31.174C459.975 31.174 460.504 31.2659 460.99 31.4498C461.476 31.6337 461.896 31.8866 462.251 32.2084C462.605 32.5302 462.881 32.9111 463.078 33.3511C463.275 33.7911 463.374 34.2672 463.374 34.7795C463.374 35.4297 463.193 36.024 462.832 36.5625C462.471 37.0945 461.991 37.5312 461.394 37.8727C461.801 38.0303 462.165 38.2438 462.487 38.513C462.809 38.7823 463.078 39.0811 463.295 39.4095C463.518 39.7379 463.689 40.0925 463.807 40.4734C463.926 40.8478 463.985 41.2221 463.985 41.5964C463.985 42.2138 463.873 42.7786 463.65 43.2908C463.426 43.8031 463.111 44.2431 462.704 44.6109C462.303 44.9721 461.821 45.2545 461.256 45.4581C460.698 45.6616 460.08 45.7634 459.404 45.7634C458.734 45.7634 458.12 45.6616 457.562 45.4581C457.003 45.2545 456.521 44.9721 456.114 44.6109C455.706 44.2431 455.388 43.8031 455.158 43.2908C454.935 42.7786 454.823 42.2138 454.823 41.5964ZM456.577 41.4585C456.577 41.8985 456.642 42.2959 456.774 42.6505C456.912 43.0051 457.102 43.3072 457.345 43.5568C457.595 43.8064 457.893 44.0001 458.241 44.138C458.596 44.2694 458.987 44.335 459.414 44.335C459.827 44.335 460.208 44.2661 460.556 44.1282C460.905 43.9902 461.203 43.7965 461.453 43.5469C461.709 43.2974 461.906 42.9953 462.044 42.6406C462.188 42.286 462.261 41.892 462.261 41.4585C462.261 41.0645 462.192 40.6967 462.054 40.3552C461.922 40.0071 461.732 39.7017 461.482 39.439C461.233 39.1764 460.934 38.9695 460.586 38.8184C460.238 38.6674 459.847 38.5919 459.414 38.5919C459.007 38.5919 458.629 38.6641 458.281 38.8086C457.939 38.9465 457.641 39.1435 457.384 39.3996C457.135 39.6492 456.938 39.9513 456.793 40.3059C456.649 40.654 456.577 41.0382 456.577 41.4585ZM457.079 34.9076C457.079 35.2425 457.138 35.5544 457.256 35.8434C457.381 36.1258 457.549 36.3754 457.759 36.5921C457.975 36.8022 458.225 36.9697 458.507 37.0945C458.79 37.2127 459.092 37.2718 459.414 37.2718C459.736 37.2718 460.038 37.2094 460.32 37.0846C460.609 36.9599 460.859 36.7924 461.069 36.5822C461.279 36.3655 461.446 36.116 461.571 35.8336C461.696 35.5446 461.758 35.2359 461.758 34.9076C461.758 34.5661 461.696 34.2508 461.571 33.9619C461.453 33.6729 461.289 33.4233 461.079 33.2132C460.868 33.003 460.619 32.8388 460.33 32.7206C460.047 32.5958 459.742 32.5334 459.414 32.5334C459.066 32.5334 458.747 32.5958 458.458 32.7206C458.176 32.8454 457.929 33.0161 457.719 33.2329C457.516 33.443 457.358 33.6926 457.246 33.9816C457.135 34.2705 457.079 34.5792 457.079 34.9076Z" fill="black"/>
<rect x="515.864" y="132.538" width="81.2604" height="94.7104" rx="5.32396" fill="#D9D9D9" stroke="black" stroke-width="2.80208"/>
<path d="M517.265 138.703C517.265 135.608 519.774 133.099 522.869 133.099H590.119C593.214 133.099 595.723 135.608 595.723 138.703V152.713H517.265V138.703Z" fill="#FCFC56"/>
<path d="M516.984 183.536H595.443V221.925C595.443 224.71 593.185 226.968 590.399 226.968H522.028C519.243 226.968 516.984 224.71 516.984 221.925V183.536Z" fill="#8B8B8B"/>
<path d="M545.846 230.284C545.846 229.18 544.951 228.284 543.846 228.284L526.549 228.284C525.445 228.284 524.55 227.389 524.55 226.284L524.55 190.297C524.55 189.193 525.445 188.297 526.549 188.297L586.438 188.297C587.542 188.297 588.438 189.193 588.438 190.297L588.438 226.284C588.438 227.389 587.542 228.284 586.438 228.284L569.141 228.284C568.037 228.284 567.142 229.18 567.142 230.284C567.142 231.388 566.246 232.284 565.142 232.284L547.845 232.284C546.741 232.284 545.846 231.388 545.846 230.284Z" fill="#0B0B0B"/>
<rect x="568.263" y="226.377" width="23.5375" height="6.725" rx="3.3625" transform="rotate(-180 568.263 226.377)" fill="white"/>
<path d="M554.251 167.619C553.604 168.74 551.986 168.74 551.339 167.619L547.262 160.558C546.615 159.437 547.424 158.036 548.718 158.036L556.872 158.036C558.166 158.036 558.975 159.437 558.328 160.558L554.251 167.619Z" fill="#0B0B0B"/>
<rect x="640.276" y="132.538" width="81.2604" height="94.7104" rx="5.32396" fill="#D9D9D9" stroke="black" stroke-width="2.80208"/>
<path d="M641.677 138.703C641.677 135.608 644.186 133.099 647.281 133.099H714.531C717.627 133.099 720.136 135.608 720.136 138.703V152.713H641.677V138.703Z" fill="#FCFC56"/>
<path d="M641.677 183.536H720.136V221.925C720.136 224.71 717.877 226.968 715.092 226.968H646.721C643.935 226.968 641.677 224.71 641.677 221.925V183.536Z" fill="#8B8B8B"/>
<path d="M670.258 230.284C670.258 229.18 669.363 228.284 668.258 228.284L650.962 228.284C649.858 228.284 648.963 227.389 648.963 226.284L648.963 190.297C648.963 189.193 649.858 188.297 650.962 188.297L710.85 188.297C711.954 188.297 712.85 189.193 712.85 190.297L712.85 226.284C712.85 227.389 711.954 228.284 710.85 228.284L693.553 228.284C692.449 228.284 691.554 229.18 691.554 230.284C691.554 231.388 690.659 232.284 689.554 232.284L672.257 232.284C671.153 232.284 670.258 231.388 670.258 230.284Z" fill="#0B0B0B"/>
<rect x="692.674" y="226.377" width="23.5375" height="6.725" rx="3.3625" transform="rotate(-180 692.674 226.377)" fill="white"/>
<path d="M682.027 167.619C681.38 168.74 679.762 168.74 679.115 167.619L675.038 160.558C674.391 159.437 675.2 158.036 676.494 158.036L684.647 158.036C685.942 158.036 686.751 159.437 686.103 160.558L682.027 167.619Z" fill="#0B0B0B"/>
<path d="M557.978 145.226C557.978 146.52 557.85 147.673 557.594 148.684C557.338 149.689 556.964 150.542 556.471 151.245C555.979 151.941 555.378 152.473 554.668 152.841C553.959 153.202 553.151 153.383 552.245 153.383C551.312 153.383 550.492 153.219 549.782 152.89V151.344C550.564 151.784 551.398 152.004 552.284 152.004C552.921 152.004 553.49 151.872 553.989 151.61C554.494 151.347 554.921 150.966 555.269 150.467C555.617 149.961 555.883 149.341 556.067 148.605C556.251 147.87 556.343 147.026 556.343 146.073H556.304C555.699 147.288 554.649 147.896 553.151 147.896C552.547 147.896 551.992 147.791 551.487 147.581C550.981 147.364 550.544 147.062 550.176 146.674C549.809 146.28 549.523 145.814 549.319 145.275C549.116 144.737 549.014 144.143 549.014 143.492C549.014 142.796 549.126 142.159 549.349 141.581C549.579 141.003 549.894 140.508 550.295 140.094C550.702 139.673 551.181 139.348 551.733 139.119C552.291 138.889 552.898 138.774 553.555 138.774C554.265 138.774 554.892 138.918 555.437 139.207C555.988 139.49 556.451 139.907 556.826 140.458C557.2 141.003 557.486 141.677 557.683 142.478C557.88 143.279 557.978 144.195 557.978 145.226ZM556.235 143.778C556.235 143.233 556.162 142.737 556.018 142.291C555.88 141.844 555.686 141.463 555.437 141.148C555.187 140.826 554.888 140.58 554.54 140.409C554.199 140.232 553.824 140.143 553.417 140.143C553.03 140.143 552.669 140.222 552.334 140.379C551.999 140.531 551.707 140.747 551.457 141.03C551.214 141.305 551.02 141.637 550.876 142.025C550.738 142.405 550.669 142.823 550.669 143.276C550.669 143.775 550.735 144.221 550.866 144.615C551.004 145.009 551.198 145.344 551.447 145.62C551.697 145.889 551.995 146.096 552.344 146.241C552.698 146.385 553.089 146.458 553.516 146.458C553.89 146.458 554.242 146.389 554.57 146.251C554.905 146.106 555.194 145.916 555.437 145.679C555.686 145.436 555.88 145.154 556.018 144.832C556.162 144.504 556.235 144.152 556.235 143.778Z" fill="black"/>
<path d="M676.269 153.137H674.653V140.931C674.529 141.056 674.345 141.2 674.102 141.365C673.865 141.522 673.596 141.68 673.294 141.837C672.998 141.995 672.683 142.143 672.348 142.281C672.02 142.419 671.698 142.527 671.383 142.606V140.971C671.737 140.872 672.112 140.741 672.506 140.576C672.906 140.406 673.297 140.219 673.678 140.015C674.066 139.805 674.43 139.588 674.772 139.365C675.113 139.135 675.409 138.912 675.658 138.695H676.269V153.137ZM690.06 146.014C690.06 147.196 689.952 148.244 689.735 149.157C689.525 150.07 689.216 150.841 688.809 151.472C688.409 152.096 687.913 152.572 687.322 152.9C686.737 153.222 686.071 153.383 685.322 153.383C684.613 153.383 683.979 153.229 683.421 152.92C682.869 152.605 682.403 152.148 682.022 151.551C681.641 150.953 681.352 150.221 681.155 149.354C680.958 148.48 680.859 147.482 680.859 146.359C680.859 145.124 680.961 144.034 681.165 143.089C681.375 142.143 681.68 141.351 682.081 140.714C682.482 140.071 682.977 139.588 683.569 139.266C684.166 138.938 684.849 138.774 685.618 138.774C688.579 138.774 690.06 141.187 690.06 146.014ZM688.405 146.172C688.405 142.153 687.45 140.143 685.539 140.143C683.523 140.143 682.514 142.189 682.514 146.28C682.514 150.096 683.503 152.004 685.48 152.004C687.43 152.004 688.405 150.06 688.405 146.172Z" fill="black"/>
<path d="M796.352 161.568C795.705 162.688 794.087 162.688 793.44 161.568L789.363 154.506C788.716 153.386 789.525 151.984 790.819 151.984L798.973 151.984C800.267 151.984 801.076 153.386 800.429 154.506L796.352 161.568Z" fill="#0B0B0B"/>
<path d="M815.519 150.865C814.268 151.2 813.124 150.056 813.459 148.806L815.57 140.93C815.905 139.68 817.467 139.262 818.383 140.177L824.148 145.942C825.063 146.857 824.644 148.42 823.394 148.755L815.519 150.865Z" fill="#0B0B0B"/>
<mask id="path-59-inside-1_1089_6" fill="white">
<path d="M825.493 168.125C826.415 168.125 827.163 168.867 827.174 169.786V216.882C827.174 216.888 827.175 216.894 827.175 216.9V226.969C827.175 227.897 826.422 228.649 825.493 228.649H764.969C764.04 228.649 763.287 227.897 763.287 226.969V169.806C763.287 168.877 764.04 168.125 764.969 168.125H825.493ZM909.556 137.862C910.484 137.862 911.236 138.616 911.236 139.544V216.882C911.236 217.81 910.484 218.562 909.556 218.562H828.855C827.933 218.562 827.185 217.82 827.175 216.9V169.806C827.175 169.799 827.174 169.793 827.174 169.786V139.544C827.174 138.615 827.927 137.862 828.855 137.862H909.556Z"/>
</mask>
<path d="M825.493 168.125C826.415 168.125 827.163 168.867 827.174 169.786V216.882C827.174 216.888 827.175 216.894 827.175 216.9V226.969C827.175 227.897 826.422 228.649 825.493 228.649H764.969C764.04 228.649 763.287 227.897 763.287 226.969V169.806C763.287 168.877 764.04 168.125 764.969 168.125H825.493ZM909.556 137.862C910.484 137.862 911.236 138.616 911.236 139.544V216.882C911.236 217.81 910.484 218.562 909.556 218.562H828.855C827.933 218.562 827.185 217.82 827.175 216.9V169.806C827.175 169.799 827.174 169.793 827.174 169.786V139.544C827.174 138.615 827.927 137.862 828.855 137.862H909.556Z" fill="#F6C3C1"/>
<path d="M827.174 216.882H824.372V216.882L827.174 216.882ZM827.175 226.969L829.977 226.969V226.969H827.175ZM763.287 226.969H760.485V226.969L763.287 226.969ZM763.287 169.806L760.485 169.805V169.806H763.287ZM909.556 137.862L909.556 135.06H909.556V137.862ZM911.236 139.544H914.038V139.544L911.236 139.544ZM911.236 216.882L914.038 216.882V216.882H911.236ZM909.556 218.562V221.365H909.556L909.556 218.562ZM827.175 169.806H829.977V169.805L827.175 169.806ZM827.174 139.544L824.372 139.544V139.544H827.174ZM825.493 168.125V170.927C824.878 170.927 824.379 170.432 824.372 169.818L827.174 169.786L829.976 169.754C829.947 167.302 827.952 165.323 825.493 165.323V168.125ZM827.174 169.786H824.372V216.882H827.174H829.976V169.786H827.174ZM827.174 216.882L824.372 216.882C824.372 216.951 824.374 217.007 824.376 217.043C824.377 217.061 824.378 217.076 824.379 217.085C824.38 217.095 824.38 217.103 824.38 217.104C824.381 217.107 824.38 217.102 824.38 217.098C824.379 217.092 824.379 217.081 824.378 217.067C824.376 217.04 824.374 216.992 824.373 216.931L827.175 216.9L829.977 216.869C829.976 216.837 829.976 216.809 829.975 216.785C829.974 216.761 829.972 216.74 829.971 216.724C829.971 216.709 829.97 216.696 829.969 216.689C829.969 216.685 829.969 216.682 829.968 216.681C829.968 216.68 829.968 216.677 829.968 216.678C829.968 216.678 829.968 216.68 829.969 216.682C829.969 216.684 829.969 216.688 829.969 216.692C829.97 216.7 829.971 216.714 829.972 216.73C829.973 216.747 829.974 216.769 829.974 216.793C829.975 216.818 829.976 216.848 829.976 216.881L827.174 216.882ZM827.175 216.9H824.373V226.969H827.175H829.977V216.9H827.175ZM827.175 226.969L824.373 226.968C824.373 226.348 824.876 225.847 825.493 225.847V228.649V231.451C827.968 231.451 829.976 229.446 829.977 226.969L827.175 226.969ZM825.493 228.649V225.847H764.969V228.649V231.451H825.493V228.649ZM764.969 228.649V225.847C765.586 225.847 766.089 226.348 766.089 226.968L763.287 226.969L760.485 226.969C760.485 229.446 762.494 231.451 764.969 231.451V228.649ZM763.287 226.969H766.089V169.806H763.287H760.485V226.969H763.287ZM763.287 169.806L766.089 169.806C766.089 170.427 765.586 170.927 764.969 170.927V168.125V165.323C762.494 165.323 760.485 167.328 760.485 169.805L763.287 169.806ZM764.969 168.125V170.927H825.493V168.125V165.323H764.969V168.125ZM909.556 137.862L909.555 140.664C908.935 140.664 908.434 140.161 908.434 139.544L911.236 139.544L914.038 139.544C914.038 137.07 912.033 135.061 909.556 135.06L909.556 137.862ZM911.236 139.544H908.434V216.882H911.236H914.038V139.544H911.236ZM911.236 216.882L908.434 216.881C908.434 216.263 908.936 215.761 909.555 215.76L909.556 218.562L909.556 221.365C912.032 221.364 914.038 219.358 914.038 216.882L911.236 216.882ZM909.556 218.562V215.76H828.855V218.562V221.365H909.556V218.562ZM828.855 218.562V215.76C829.471 215.76 829.97 216.256 829.977 216.869L827.175 216.9L824.373 216.931C824.4 219.384 826.395 221.365 828.855 221.365V218.562ZM827.175 216.9H829.977V169.806H827.175H824.373V216.9H827.175ZM827.175 169.806L829.977 169.805C829.977 169.74 829.975 169.687 829.973 169.653C829.972 169.636 829.971 169.622 829.97 169.612C829.97 169.603 829.969 169.596 829.969 169.594C829.969 169.591 829.969 169.595 829.97 169.599C829.97 169.605 829.971 169.615 829.971 169.628C829.973 169.653 829.975 169.698 829.976 169.754L827.174 169.786L824.372 169.818C824.372 169.849 824.373 169.876 824.374 169.898C824.375 169.921 824.376 169.94 824.377 169.954C824.378 169.969 824.378 169.981 824.379 169.987C824.379 169.991 824.379 169.994 824.379 169.995C824.379 169.996 824.379 169.997 824.379 169.997C824.379 169.997 824.38 169.997 824.38 169.997C824.38 169.997 824.38 169.997 824.38 169.997C824.38 169.997 824.38 169.997 824.38 169.997C824.38 169.997 824.379 169.996 824.379 169.994C824.379 169.992 824.379 169.988 824.379 169.984C824.378 169.976 824.377 169.964 824.376 169.948C824.376 169.932 824.375 169.912 824.374 169.889C824.373 169.865 824.373 169.837 824.373 169.806L827.175 169.806ZM827.174 169.786H829.976V139.544H827.174H824.372V169.786H827.174ZM827.174 139.544L829.976 139.544C829.976 140.163 829.475 140.664 828.855 140.664V137.862V135.06C826.379 135.06 824.372 137.068 824.372 139.544L827.174 139.544ZM828.855 137.862V140.664H909.556V137.862V135.06H828.855V137.862Z" fill="black" mask="url(#path-59-inside-1_1089_6)"/>
<path d="M847.76 149.648C847.127 149.977 846.34 150.141 845.398 150.141C844.18 150.141 843.203 149.756 842.469 148.986C841.734 148.217 841.367 147.207 841.367 145.957C841.367 144.613 841.779 143.527 842.604 142.699C843.432 141.871 844.477 141.457 845.738 141.457C846.551 141.457 847.225 141.572 847.76 141.803V143.186C847.193 142.85 846.568 142.682 845.885 142.682C844.975 142.682 844.236 142.973 843.67 143.555C843.107 144.137 842.826 144.914 842.826 145.887C842.826 146.812 843.09 147.551 843.617 148.102C844.145 148.648 844.838 148.922 845.697 148.922C846.49 148.922 847.178 148.734 847.76 148.359V149.648ZM852.664 150.141C851.453 150.141 850.482 149.748 849.752 148.963C849.025 148.178 848.662 147.156 848.662 145.898C848.662 144.547 849.033 143.469 849.775 142.664C850.518 141.859 851.525 141.457 852.799 141.457C853.979 141.457 854.928 141.848 855.646 142.629C856.369 143.41 856.73 144.432 856.73 145.693C856.73 147.064 856.361 148.148 855.623 148.945C854.885 149.742 853.898 150.141 852.664 150.141ZM852.729 142.682C851.959 142.682 851.332 142.969 850.848 143.543C850.367 144.117 850.127 144.873 850.127 145.811C850.127 146.744 850.361 147.496 850.83 148.066C851.299 148.637 851.912 148.922 852.67 148.922C853.475 148.922 854.109 148.65 854.574 148.107C855.039 147.564 855.271 146.805 855.271 145.828C855.271 144.824 855.045 144.049 854.592 143.502C854.143 142.955 853.521 142.682 852.729 142.682ZM865.396 150H863.873L859.859 143.824C859.758 143.668 859.674 143.506 859.607 143.338H859.572C859.604 143.518 859.619 143.902 859.619 144.492V150H858.271V141.598H859.895L863.773 147.627C863.938 147.877 864.043 148.049 864.09 148.143H864.113C864.074 147.92 864.055 147.543 864.055 147.012V141.598H865.396V150ZM867.096 149.666V148.23C867.225 148.348 867.377 148.453 867.553 148.547C867.732 148.641 867.922 148.721 868.121 148.787C868.32 148.85 868.52 148.898 868.719 148.934C868.918 148.969 869.102 148.986 869.27 148.986C869.855 148.986 870.291 148.889 870.576 148.693C870.865 148.498 871.01 148.215 871.01 147.844C871.01 147.645 870.961 147.473 870.863 147.328C870.77 147.18 870.637 147.045 870.465 146.924C870.293 146.803 870.09 146.688 869.855 146.578C869.625 146.465 869.377 146.348 869.111 146.227C868.826 146.074 868.561 145.92 868.314 145.764C868.068 145.607 867.854 145.436 867.67 145.248C867.49 145.057 867.348 144.842 867.242 144.604C867.141 144.365 867.09 144.086 867.09 143.766C867.09 143.371 867.178 143.029 867.354 142.74C867.533 142.447 867.768 142.207 868.057 142.02C868.35 141.828 868.682 141.688 869.053 141.598C869.424 141.504 869.803 141.457 870.189 141.457C871.068 141.457 871.709 141.557 872.111 141.756V143.133C871.635 142.789 871.021 142.617 870.271 142.617C870.064 142.617 869.857 142.637 869.65 142.676C869.447 142.715 869.264 142.779 869.1 142.869C868.939 142.959 868.809 143.074 868.707 143.215C868.605 143.355 868.555 143.525 868.555 143.725C868.555 143.912 868.594 144.074 868.672 144.211C868.75 144.348 868.863 144.473 869.012 144.586C869.164 144.699 869.348 144.811 869.562 144.92C869.781 145.025 870.033 145.141 870.318 145.266C870.611 145.418 870.887 145.578 871.145 145.746C871.406 145.914 871.635 146.1 871.83 146.303C872.029 146.506 872.186 146.732 872.299 146.982C872.416 147.229 872.475 147.51 872.475 147.826C872.475 148.252 872.389 148.611 872.217 148.904C872.045 149.197 871.812 149.436 871.52 149.619C871.23 149.803 870.896 149.936 870.518 150.018C870.139 150.1 869.738 150.141 869.316 150.141C869.176 150.141 869.002 150.129 868.795 150.105C868.592 150.086 868.383 150.055 868.168 150.012C867.953 149.973 867.75 149.924 867.559 149.865C867.367 149.807 867.213 149.74 867.096 149.666ZM877.484 150.141C876.273 150.141 875.303 149.748 874.572 148.963C873.846 148.178 873.482 147.156 873.482 145.898C873.482 144.547 873.854 143.469 874.596 142.664C875.338 141.859 876.346 141.457 877.619 141.457C878.799 141.457 879.748 141.848 880.467 142.629C881.189 143.41 881.551 144.432 881.551 145.693C881.551 147.064 881.182 148.148 880.443 148.945C879.705 149.742 878.719 150.141 877.484 150.141ZM877.549 142.682C876.779 142.682 876.152 142.969 875.668 143.543C875.188 144.117 874.947 144.873 874.947 145.811C874.947 146.744 875.182 147.496 875.65 148.066C876.119 148.637 876.732 148.922 877.49 148.922C878.295 148.922 878.93 148.65 879.395 148.107C879.859 147.564 880.092 146.805 880.092 145.828C880.092 144.824 879.865 144.049 879.412 143.502C878.963 142.955 878.342 142.682 877.549 142.682ZM887.744 150H883.092V141.598H884.486V148.822H887.744V150ZM893.68 150H888.963V141.598H893.492V142.781H890.357V145.16H893.246V146.338H890.357V148.822H893.68V150Z" fill="#262626"/>
<path d="M770.012 176.53C770.012 175.602 770.764 174.849 771.693 174.849H818.768C819.696 174.849 820.449 175.602 820.449 176.53V220.243C820.449 221.171 819.696 221.924 818.768 221.924H771.693C770.764 221.924 770.012 221.171 770.012 220.243V176.53Z" fill="#0B0B0B"/>
<path d="M833.899 152.993C833.899 152.064 834.652 151.312 835.58 151.312H902.83C903.759 151.312 904.511 152.064 904.511 152.993V210.156C904.511 211.084 903.759 211.837 902.83 211.837H835.58C834.652 211.837 833.899 211.084 833.899 210.156V152.993Z" fill="#A3A4A8"/>
<path d="M858.559 196.264C858.559 195.16 857.663 194.264 856.559 194.264L839.262 194.264C838.158 194.264 837.263 193.369 837.263 192.265L837.263 153.311C837.263 152.206 838.158 151.311 839.262 151.311L899.151 151.311C900.255 151.311 901.15 152.206 901.15 153.311L901.15 192.265C901.15 193.369 900.255 194.264 899.151 194.264L881.854 194.264C880.75 194.264 879.854 195.16 879.854 196.264L879.854 196.561C879.854 197.665 878.959 198.56 877.855 198.56L860.558 198.56C859.454 198.56 858.559 197.665 858.559 196.561L858.559 196.264Z" fill="#0B0B0B"/>
<rect x="877.613" y="205.784" width="16.8125" height="18.0596" rx="3.3625" transform="rotate(-180 877.613 205.784)" fill="#0B0B0B"/>
<path d="M833.899 208.474H904.511V210.155C904.511 211.084 903.759 211.836 902.83 211.836H835.58C834.652 211.836 833.899 211.084 833.899 210.155V208.474Z" fill="#0B0B0B"/>
<rect x="780.1" y="188.3" width="30.2625" height="13.45" rx="3.3625" fill="#D9D9D9"/>
<rect x="783.461" y="191.661" width="23.5375" height="13.45" rx="3.3625" fill="#D9D9D9"/>
<rect x="783.461" y="189.98" width="23.5375" height="11.7687" rx="2.94219" fill="#0B0B0B"/>
<rect x="786.404" y="195.025" width="17.6531" height="8.82656" rx="2.94219" fill="#0B0B0B"/>
<rect x="786.824" y="195.025" width="16.8125" height="3.3625" rx="1.68125" fill="#D9D9D9"/>
<path d="M159.113 242.989V241.688C159.261 241.82 159.439 241.938 159.644 242.043C159.855 242.148 160.074 242.238 160.301 242.312C160.533 242.382 160.765 242.437 160.997 242.476C161.229 242.516 161.444 242.535 161.641 242.535C162.32 242.535 162.825 242.411 163.158 242.161C163.495 241.907 163.664 241.544 163.664 241.071C163.664 240.817 163.607 240.596 163.493 240.408C163.384 240.219 163.23 240.049 163.033 239.895C162.836 239.738 162.602 239.589 162.331 239.449C162.063 239.304 161.775 239.153 161.464 238.996C161.135 238.829 160.829 238.661 160.544 238.49C160.26 238.319 160.012 238.131 159.802 237.925C159.592 237.719 159.426 237.487 159.303 237.229C159.185 236.966 159.126 236.66 159.126 236.31C159.126 235.881 159.22 235.508 159.408 235.193C159.596 234.874 159.844 234.611 160.15 234.405C160.457 234.199 160.805 234.046 161.194 233.945C161.588 233.845 161.989 233.794 162.396 233.794C163.324 233.794 164.001 233.906 164.426 234.129V235.37C163.869 234.985 163.156 234.793 162.285 234.793C162.044 234.793 161.803 234.819 161.562 234.871C161.321 234.919 161.107 235 160.919 235.114C160.73 235.228 160.577 235.375 160.459 235.554C160.341 235.734 160.282 235.953 160.282 236.211C160.282 236.452 160.325 236.66 160.413 236.835C160.505 237.01 160.638 237.17 160.813 237.314C160.989 237.459 161.201 237.599 161.451 237.735C161.704 237.87 161.996 238.019 162.324 238.181C162.661 238.348 162.981 238.523 163.283 238.707C163.585 238.891 163.85 239.094 164.077 239.317C164.305 239.541 164.485 239.788 164.616 240.06C164.752 240.331 164.82 240.642 164.82 240.992C164.82 241.456 164.728 241.85 164.544 242.174C164.364 242.494 164.119 242.754 163.808 242.956C163.502 243.157 163.147 243.302 162.744 243.389C162.341 243.481 161.917 243.527 161.47 243.527C161.321 243.527 161.137 243.514 160.919 243.488C160.7 243.466 160.476 243.431 160.249 243.383C160.021 243.339 159.804 243.284 159.599 243.218C159.397 243.148 159.235 243.072 159.113 242.989ZM171.827 240.493C171.827 240.953 171.748 241.369 171.591 241.741C171.433 242.113 171.207 242.433 170.914 242.7C170.625 242.967 170.275 243.172 169.863 243.317C169.452 243.461 168.994 243.534 168.491 243.534C167.615 243.534 166.965 243.402 166.54 243.14V241.997C167.179 242.408 167.834 242.614 168.504 242.614C168.845 242.614 169.152 242.564 169.423 242.463C169.699 242.363 169.933 242.222 170.126 242.043C170.319 241.863 170.465 241.647 170.566 241.393C170.671 241.139 170.724 240.861 170.724 240.559C170.724 239.946 170.518 239.466 170.106 239.12C169.695 238.77 169.097 238.595 168.313 238.595C168.186 238.595 168.053 238.597 167.913 238.602C167.773 238.606 167.633 238.613 167.493 238.621C167.352 238.626 167.214 238.632 167.079 238.641C166.947 238.65 166.827 238.661 166.718 238.674L167.039 233.952H171.394V234.924H167.972L167.781 237.689C167.922 237.68 168.07 237.673 168.228 237.669C168.386 237.66 168.526 237.656 168.648 237.656C169.147 237.656 169.594 237.722 169.988 237.853C170.382 237.984 170.715 238.173 170.986 238.418C171.262 238.659 171.47 238.956 171.61 239.311C171.755 239.661 171.827 240.055 171.827 240.493ZM179.347 234.576C179.202 234.825 179.027 235.136 178.821 235.508C178.62 235.881 178.405 236.299 178.178 236.763C177.95 237.227 177.718 237.726 177.481 238.26C177.245 238.794 177.024 239.346 176.818 239.915C176.612 240.484 176.431 241.062 176.273 241.649C176.12 242.231 176.008 242.805 175.938 243.37H174.782C174.861 242.809 174.982 242.238 175.144 241.655C175.31 241.069 175.496 240.495 175.702 239.935C175.912 239.37 176.133 238.827 176.365 238.306C176.597 237.785 176.823 237.306 177.041 236.868C177.26 236.43 177.46 236.045 177.639 235.712C177.823 235.375 177.97 235.112 178.079 234.924H173.357V233.952H179.347V234.576ZM186.663 238.621C186.663 239.409 186.59 240.108 186.446 240.716C186.306 241.325 186.1 241.839 185.829 242.26C185.562 242.676 185.231 242.993 184.837 243.212C184.447 243.426 184.003 243.534 183.504 243.534C183.031 243.534 182.608 243.431 182.236 243.225C181.869 243.015 181.558 242.711 181.304 242.312C181.05 241.914 180.857 241.426 180.726 240.848C180.594 240.265 180.529 239.6 180.529 238.851C180.529 238.028 180.597 237.301 180.732 236.671C180.872 236.04 181.076 235.513 181.343 235.088C181.61 234.659 181.941 234.337 182.335 234.123C182.733 233.904 183.189 233.794 183.701 233.794C185.675 233.794 186.663 235.403 186.663 238.621ZM185.559 238.726C185.559 236.047 184.922 234.707 183.648 234.707C182.304 234.707 181.632 236.071 181.632 238.799C181.632 241.342 182.291 242.614 183.609 242.614C184.909 242.614 185.559 241.318 185.559 238.726ZM193.913 238.621C193.913 239.409 193.841 240.108 193.696 240.716C193.556 241.325 193.35 241.839 193.079 242.26C192.812 242.676 192.481 242.993 192.087 243.212C191.698 243.426 191.253 243.534 190.754 243.534C190.281 243.534 189.859 243.431 189.487 243.225C189.119 243.015 188.808 242.711 188.554 242.312C188.3 241.914 188.108 241.426 187.976 240.848C187.845 240.265 187.779 239.6 187.779 238.851C187.779 238.028 187.847 237.301 187.983 236.671C188.123 236.04 188.326 235.513 188.594 235.088C188.861 234.659 189.191 234.337 189.585 234.123C189.984 233.904 190.439 233.794 190.951 233.794C192.926 233.794 193.913 235.403 193.913 238.621ZM192.81 238.726C192.81 236.047 192.173 234.707 190.899 234.707C189.555 234.707 188.882 236.071 188.882 238.799C188.882 241.342 189.541 242.614 190.859 242.614C192.16 242.614 192.81 241.318 192.81 238.726ZM198.996 240.046H195.41V239.199H198.996V240.046ZM204.605 243.37H203.528V235.233C203.445 235.316 203.322 235.412 203.16 235.521C203.002 235.627 202.823 235.732 202.621 235.837C202.424 235.942 202.214 236.04 201.991 236.132C201.772 236.224 201.558 236.296 201.347 236.349V235.259C201.584 235.193 201.833 235.106 202.096 234.996C202.363 234.882 202.624 234.757 202.878 234.622C203.136 234.482 203.379 234.337 203.607 234.188C203.834 234.035 204.031 233.886 204.198 233.742H204.605V243.37ZM213.799 238.621C213.799 239.409 213.727 240.108 213.582 240.716C213.442 241.325 213.237 241.839 212.965 242.26C212.698 242.676 212.367 242.993 211.973 243.212C211.584 243.426 211.139 243.534 210.64 243.534C210.167 243.534 209.745 243.431 209.373 243.225C209.005 243.015 208.694 242.711 208.44 242.312C208.186 241.914 207.994 241.426 207.862 240.848C207.731 240.265 207.665 239.6 207.665 238.851C207.665 238.028 207.733 237.301 207.869 236.671C208.009 236.04 208.212 235.513 208.48 235.088C208.747 234.659 209.077 234.337 209.471 234.123C209.87 233.904 210.325 233.794 210.837 233.794C212.812 233.794 213.799 235.403 213.799 238.621ZM212.696 238.726C212.696 236.047 212.059 234.707 210.785 234.707C209.441 234.707 208.769 236.071 208.769 238.799C208.769 241.342 209.427 242.614 210.745 242.614C212.046 242.614 212.696 241.318 212.696 238.726ZM216.689 239.81V243.37H215.585V233.952H218.173C219.18 233.952 219.959 234.197 220.511 234.687C221.067 235.178 221.345 235.87 221.345 236.763C221.345 237.656 221.036 238.387 220.419 238.956C219.806 239.525 218.976 239.81 217.93 239.81H216.689ZM216.689 234.95V238.812H217.845C218.606 238.812 219.187 238.639 219.585 238.293C219.988 237.943 220.189 237.45 220.189 236.815C220.189 235.572 219.454 234.95 217.983 234.95H216.689ZM226.422 240.046H222.836V239.199H226.422V240.046ZM233.396 243.37H228.51V233.952H229.613V242.371H233.396V243.37ZM235.944 243.37H234.841V233.952H235.944V243.37ZM241.724 240.046H238.138V239.199H241.724V240.046ZM251.102 243.37H249.88L248.882 240.729H244.889L243.95 243.37H242.722L246.334 233.952H247.477L251.102 243.37ZM248.521 239.738L247.043 235.725C246.995 235.594 246.947 235.384 246.899 235.095H246.872C246.829 235.362 246.778 235.572 246.721 235.725L245.257 239.738H248.521ZM258.641 242.975C257.945 243.343 257.078 243.527 256.041 243.527C254.701 243.527 253.628 243.096 252.823 242.233C252.017 241.371 251.614 240.239 251.614 238.838C251.614 237.332 252.067 236.115 252.974 235.187C253.88 234.258 255.029 233.794 256.421 233.794C257.315 233.794 258.055 233.923 258.641 234.182V235.357C257.967 234.981 257.223 234.793 256.408 234.793C255.327 234.793 254.449 235.154 253.775 235.876C253.105 236.599 252.77 237.564 252.77 238.772C252.77 239.919 253.083 240.834 253.709 241.518C254.34 242.196 255.165 242.535 256.185 242.535C257.131 242.535 257.949 242.325 258.641 241.905V242.975Z" fill="black"/>
<g clip-path="url(#clip0_1089_6)">
<path d="M42.6415 26.2111H45.703V34.7272C45.703 39.0499 43.3206 41.5292 39.1704 41.5292C35.0633 41.5292 32.7025 39.093 32.7025 34.8457V26.2219H35.7639V34.7487C35.7639 37.2712 37.0036 38.6187 39.2135 38.6187C41.4234 38.6187 42.6415 37.3035 42.6415 34.8565V26.2111ZM25.3937 32.2909H18.4731V26.2111H15.4116V41.3029H18.4731V35.1691H25.383V41.3029H28.4444V26.2111H25.383V32.2909H25.3937ZM102.06 26.2111V41.2813H105.078V26.2111H102.06ZM90.0404 34.8026H95.6136V32.0538H90.0404V28.96H98.1253V26.2219H87.0221V41.2921H98.4163V38.5432H90.0404V34.8026ZM78.0317 36.5813L74.6037 26.2003H72.1028L68.6748 36.5813L65.3438 26.2111H62.0883L67.3489 41.2921H69.8821L73.3101 31.3854L76.7381 41.2921H79.2929L84.5427 26.2111H81.3626L78.0317 36.5813ZM56.6445 26.2973L63.231 41.2921H60.0186L58.6603 38.1552H51.7504L51.6534 38.3707L50.3814 41.2921H47.2552L53.9064 26.2111H56.5798L56.6445 26.2973ZM57.3775 35.0721L55.2 30.0164L53.0332 35.0721L52.8823 35.4171H57.5177L57.3775 35.0721Z" fill="black"/>
</g>
<path d="M18.3613 67.037V71.4476H16.9941V59.7781H20.2004C21.4482 59.7781 22.4139 60.0819 23.0975 60.6895C23.7865 61.2971 24.131 62.1543 24.131 63.261C24.131 64.3678 23.7485 65.2738 22.9835 65.979C22.224 66.6843 21.1959 67.037 19.8993 67.037H18.3613ZM18.3613 61.015V65.8H19.7935C20.7375 65.8 21.4563 65.5857 21.95 65.1571C22.4492 64.7231 22.6987 64.1128 22.6987 63.3261C22.6987 61.7854 21.7873 61.015 19.9644 61.015H18.3613ZM40.1705 59.7781L36.8747 71.4476H35.2716L32.8709 62.9192C32.7679 62.5558 32.7055 62.1597 32.6838 61.7311H32.6512C32.6187 62.1326 32.5481 62.5232 32.4396 62.903L30.0227 71.4476H28.4358L25.018 59.7781H26.5235L29.0055 68.7296C29.1086 69.104 29.1737 69.4946 29.2008 69.9015H29.2415C29.2686 69.6139 29.3527 69.2233 29.4938 68.7296L32.0734 59.7781H33.3836L35.8575 68.7947C35.9443 69.104 36.0094 69.4674 36.0528 69.8852H36.0854C36.1071 69.6031 36.1803 69.2287 36.3051 68.7622L38.6894 59.7781H40.1705ZM50.2776 71.4476H48.6501L46.697 68.1762C46.518 67.8724 46.3444 67.6147 46.1762 67.4032C46.008 67.1862 45.8344 67.0098 45.6554 66.8742C45.4818 66.7386 45.2919 66.6409 45.0857 66.5812C44.885 66.5161 44.6571 66.4836 44.4022 66.4836H43.2791V71.4476H41.912V59.7781H45.395C45.9049 59.7781 46.3742 59.8432 46.8028 59.9734C47.2368 60.0981 47.6112 60.2907 47.9258 60.5512C48.2459 60.8116 48.4955 61.1371 48.6745 61.5277C48.8535 61.9129 48.943 62.3659 48.943 62.8867C48.943 63.2936 48.8806 63.6679 48.7559 64.0097C48.6365 64.3461 48.4629 64.6472 48.2351 64.913C48.0126 65.1788 47.7414 65.4067 47.4213 65.5966C47.1066 65.781 46.7513 65.9248 46.3552 66.0279V66.0604C46.5505 66.1472 46.7187 66.2476 46.8598 66.3615C47.0062 66.47 47.1446 66.6002 47.2748 66.7521C47.405 66.904 47.5325 67.0776 47.6573 67.273C47.7875 67.4628 47.9312 67.6853 48.0886 67.9403L50.2776 71.4476ZM43.2791 61.015V65.2466H45.1346C45.4763 65.2466 45.791 65.1951 46.0785 65.092C46.3715 64.989 46.6238 64.8425 46.8354 64.6526C47.0469 64.4573 47.2124 64.2213 47.3318 63.9446C47.4511 63.6625 47.5108 63.3478 47.5108 63.0006C47.5108 62.3767 47.3073 61.8912 46.9005 61.544C46.499 61.1913 45.9158 61.015 45.1508 61.015H43.2791Z" fill="black"/>
<circle cx="62.0777" cy="64.4476" r="8.33308" fill="#747578"/>
<path d="M15.035 124.215V122.604C15.2195 122.767 15.4392 122.913 15.6942 123.043C15.9546 123.174 16.2259 123.285 16.508 123.377C16.7955 123.464 17.0831 123.532 17.3706 123.581C17.6581 123.629 17.924 123.654 18.1681 123.654C19.009 123.654 19.6356 123.499 20.0479 123.19C20.4657 122.875 20.6745 122.425 20.6745 121.839C20.6745 121.524 20.604 121.25 20.4629 121.017C20.3273 120.784 20.1374 120.572 19.8933 120.382C19.6492 120.187 19.3589 120.003 19.0226 119.829C18.6916 119.65 18.3336 119.463 17.9484 119.267C17.5415 119.061 17.1617 118.852 16.8091 118.641C16.4564 118.429 16.1499 118.196 15.8895 117.941C15.6291 117.686 15.4229 117.399 15.271 117.078C15.1246 116.753 15.0513 116.373 15.0513 115.939C15.0513 115.407 15.168 114.946 15.4012 114.556C15.6345 114.16 15.9411 113.834 16.3208 113.579C16.7006 113.324 17.1319 113.134 17.6147 113.01C18.103 112.885 18.5994 112.822 19.1039 112.822C20.2541 112.822 21.0923 112.961 21.6185 113.237V114.775C20.9295 114.298 20.0452 114.059 18.9656 114.059C18.6672 114.059 18.3688 114.092 18.0704 114.157C17.7721 114.217 17.5062 114.317 17.2729 114.458C17.0397 114.599 16.8498 114.781 16.7033 115.003C16.5568 115.226 16.4836 115.497 16.4836 115.817C16.4836 116.115 16.5378 116.373 16.6463 116.59C16.7603 116.807 16.9257 117.005 17.1427 117.184C17.3597 117.363 17.6229 117.537 17.9321 117.705C18.2468 117.873 18.6075 118.058 19.0144 118.258C19.4322 118.465 19.8282 118.682 20.2025 118.909C20.5769 119.137 20.9051 119.39 21.1872 119.666C21.4693 119.943 21.6917 120.249 21.8545 120.586C22.0227 120.922 22.1068 121.307 22.1068 121.741C22.1068 122.316 21.9928 122.805 21.765 123.206C21.5426 123.602 21.2387 123.925 20.8536 124.175C20.4738 124.424 20.0344 124.603 19.5352 124.712C19.0361 124.826 18.5099 124.883 17.9565 124.883C17.7721 124.883 17.5442 124.866 17.2729 124.834C17.0017 124.807 16.725 124.763 16.4429 124.704C16.1608 124.649 15.8922 124.581 15.6372 124.5C15.3877 124.413 15.187 124.318 15.035 124.215ZM32.0186 113.018L28.1694 120.374V124.687H26.8023V120.407L23.0508 113.018H24.6051L27.2173 118.291C27.2498 118.356 27.3448 118.595 27.5021 119.007H27.5265C27.5808 118.823 27.6839 118.584 27.8358 118.291L30.5701 113.018H32.0186ZM33.1009 124.215V122.604C33.2854 122.767 33.5051 122.913 33.7601 123.043C34.0205 123.174 34.2917 123.285 34.5738 123.377C34.8614 123.464 35.1489 123.532 35.4364 123.581C35.724 123.629 35.9898 123.654 36.2339 123.654C37.0749 123.654 37.7015 123.499 38.1138 123.19C38.5315 122.875 38.7404 122.425 38.7404 121.839C38.7404 121.524 38.6699 121.25 38.5288 121.017C38.3932 120.784 38.2033 120.572 37.9592 120.382C37.715 120.187 37.4248 120.003 37.0884 119.829C36.7575 119.65 36.3994 119.463 36.0142 119.267C35.6073 119.061 35.2276 118.852 34.8749 118.641C34.5223 118.429 34.2158 118.196 33.9554 117.941C33.695 117.686 33.4888 117.399 33.3369 117.078C33.1904 116.753 33.1172 116.373 33.1172 115.939C33.1172 115.407 33.2338 114.946 33.4671 114.556C33.7004 114.16 34.0069 113.834 34.3867 113.579C34.7664 113.324 35.1977 113.134 35.6806 113.01C36.1688 112.885 36.6653 112.822 37.1698 112.822C38.3199 112.822 39.1581 112.961 39.6844 113.237V114.775C38.9954 114.298 38.1111 114.059 37.0315 114.059C36.7331 114.059 36.4347 114.092 36.1363 114.157C35.8379 114.217 35.5721 114.317 35.3388 114.458C35.1055 114.599 34.9156 114.781 34.7692 115.003C34.6227 115.226 34.5494 115.497 34.5494 115.817C34.5494 116.115 34.6037 116.373 34.7122 116.59C34.8261 116.807 34.9916 117.005 35.2086 117.184C35.4256 117.363 35.6887 117.537 35.998 117.705C36.3126 117.873 36.6734 118.058 37.0803 118.258C37.498 118.465 37.8941 118.682 38.2684 118.909C38.6427 119.137 38.971 119.39 39.2531 119.666C39.5352 119.943 39.7576 120.249 39.9204 120.586C40.0885 120.922 40.1726 121.307 40.1726 121.741C40.1726 122.316 40.0587 122.805 39.8308 123.206C39.6084 123.602 39.3046 123.925 38.9194 124.175C38.5397 124.424 38.1002 124.603 37.6011 124.712C37.102 124.826 36.5757 124.883 36.0224 124.883C35.8379 124.883 35.6101 124.866 35.3388 124.834C35.0675 124.807 34.7909 124.763 34.5087 124.704C34.2266 124.649 33.9581 124.581 33.7031 124.5C33.4535 124.413 33.2528 124.318 33.1009 124.215Z" fill="black"/>
<circle cx="64.9058" cy="117.687" r="8.33308" fill="#747578"/>
<path d="M15.1208 146.632V145.021C15.3052 145.183 15.525 145.33 15.7799 145.46C16.0403 145.59 16.3116 145.701 16.5937 145.794C16.8812 145.881 17.1688 145.948 17.4563 145.997C17.7439 146.046 18.0097 146.07 18.2538 146.07C19.0947 146.07 19.7213 145.916 20.1336 145.607C20.5514 145.292 20.7603 144.842 20.7603 144.256C20.7603 143.941 20.6897 143.667 20.5487 143.434C20.413 143.2 20.2232 142.989 19.979 142.799C19.7349 142.604 19.4446 142.419 19.1083 142.246C18.7773 142.067 18.4193 141.879 18.0341 141.684C17.6272 141.478 17.2474 141.269 16.8948 141.058C16.5422 140.846 16.2357 140.613 15.9752 140.358C15.7148 140.103 15.5087 139.815 15.3568 139.495C15.2103 139.17 15.1371 138.79 15.1371 138.356C15.1371 137.824 15.2537 137.363 15.487 136.972C15.7203 136.576 16.0268 136.251 16.4065 135.996C16.7863 135.741 17.2176 135.551 17.7004 135.426C18.1887 135.301 18.6851 135.239 19.1897 135.239C20.3398 135.239 21.178 135.377 21.7042 135.654V137.192C21.0152 136.715 20.1309 136.476 19.0513 136.476C18.7529 136.476 18.4546 136.508 18.1562 136.574C17.8578 136.633 17.5919 136.734 17.3587 136.875C17.1254 137.016 16.9355 137.197 16.789 137.42C16.6425 137.642 16.5693 137.914 16.5693 138.234C16.5693 138.532 16.6236 138.79 16.7321 139.007C16.846 139.224 17.0115 139.422 17.2285 139.601C17.4455 139.78 17.7086 139.953 18.0178 140.122C18.3325 140.29 18.6933 140.474 19.1001 140.675C19.5179 140.881 19.9139 141.098 20.2883 141.326C20.6626 141.554 20.9908 141.806 21.2729 142.083C21.555 142.36 21.7775 142.666 21.9402 143.002C22.1084 143.339 22.1925 143.724 22.1925 144.158C22.1925 144.733 22.0786 145.221 21.8507 145.623C21.6283 146.019 21.3245 146.342 20.9393 146.591C20.5595 146.841 20.1201 147.02 19.621 147.128C19.1218 147.242 18.5956 147.299 18.0422 147.299C17.8578 147.299 17.6299 147.283 17.3587 147.25C17.0874 147.223 16.8107 147.18 16.5286 147.12C16.2465 147.066 15.978 146.998 15.723 146.917C15.4734 146.83 15.2727 146.735 15.1208 146.632ZM31.4207 136.671H28.0517V147.104H26.6846V136.671H23.3237V135.434H31.4207V136.671ZM41.1535 147.104H39.6399L38.4029 143.832H33.4552L32.2915 147.104H30.7697L35.2455 135.434H36.6615L41.1535 147.104ZM37.9554 142.604L36.1244 137.632C36.0647 137.469 36.005 137.208 35.9453 136.85H35.9128C35.8585 137.181 35.7961 137.442 35.7256 137.632L33.9109 142.604H37.9554ZM48.5752 136.671H45.2061V147.104H43.839V136.671H40.4781V135.434H48.5752V136.671Z" fill="black"/>
<circle cx="64.9058" cy="140.104" r="8.33308" fill="#747578"/>
<path d="M15.3386 169.049V167.437C15.5231 167.6 15.7428 167.747 15.9978 167.877C16.2582 168.007 16.5294 168.118 16.8115 168.21C17.0991 168.297 17.3866 168.365 17.6741 168.414C17.9617 168.463 18.2275 168.487 18.4716 168.487C19.3125 168.487 19.9392 168.333 20.3515 168.023C20.7692 167.709 20.9781 167.258 20.9781 166.672C20.9781 166.358 20.9076 166.084 20.7665 165.85C20.6309 165.617 20.441 165.406 20.1969 165.216C19.9527 165.02 19.6625 164.836 19.3261 164.662C18.9952 164.483 18.6371 164.296 18.2519 164.101C17.845 163.895 17.4653 163.686 17.1126 163.474C16.76 163.263 16.4535 163.029 16.1931 162.774C15.9327 162.519 15.7265 162.232 15.5746 161.912C15.4281 161.586 15.3549 161.207 15.3549 160.773C15.3549 160.241 15.4715 159.78 15.7048 159.389C15.9381 158.993 16.2446 158.668 16.6244 158.413C17.0041 158.158 17.4354 157.968 17.9183 157.843C18.4065 157.718 18.9029 157.656 19.4075 157.656C20.5576 157.656 21.3958 157.794 21.9221 158.071V159.609C21.2331 159.131 20.3488 158.893 19.2691 158.893C18.9708 158.893 18.6724 158.925 18.374 158.99C18.0756 159.05 17.8098 159.15 17.5765 159.291C17.3432 159.433 17.1533 159.614 17.0068 159.837C16.8604 160.059 16.7871 160.33 16.7871 160.65C16.7871 160.949 16.8414 161.207 16.9499 161.424C17.0638 161.641 17.2293 161.839 17.4463 162.018C17.6633 162.197 17.9264 162.37 18.2356 162.538C18.5503 162.707 18.9111 162.891 19.318 163.092C19.7357 163.298 20.1318 163.515 20.5061 163.743C20.8804 163.971 21.2087 164.223 21.4908 164.5C21.7729 164.776 21.9953 165.083 22.1581 165.419C22.3262 165.756 22.4103 166.141 22.4103 166.575C22.4103 167.15 22.2964 167.638 22.0685 168.04C21.8461 168.436 21.5423 168.758 21.1571 169.008C20.7773 169.258 20.3379 169.437 19.8388 169.545C19.3397 169.659 18.8134 169.716 18.2601 169.716C18.0756 169.716 17.8477 169.7 17.5765 169.667C17.3052 169.64 17.0285 169.597 16.7464 169.537C16.4643 169.483 16.1958 169.415 15.9408 169.333C15.6912 169.247 15.4905 169.152 15.3386 169.049ZM26.1049 165.11V169.521H24.7377V157.851H27.944C29.1918 157.851 30.1575 158.155 30.8411 158.762C31.5301 159.37 31.8746 160.227 31.8746 161.334C31.8746 162.441 31.4921 163.347 30.7271 164.052C29.9676 164.757 28.9395 165.11 27.6429 165.11H26.1049ZM26.1049 159.088V163.873H27.5371C28.4811 163.873 29.1999 163.659 29.6936 163.23C30.1928 162.796 30.4423 162.186 30.4423 161.399C30.4423 159.858 29.5309 159.088 27.708 159.088H26.1049ZM40.2646 169.521H34.0799V157.851H40.0042V159.088H35.447V162.97H39.6624V164.199H35.447V168.284H40.2646V169.521ZM42.5106 169.521V157.851H45.7332C49.8455 157.851 51.9016 159.747 51.9016 163.539C51.9016 165.341 51.3293 166.789 50.1846 167.885C49.0453 168.975 47.5181 169.521 45.603 169.521H42.5106ZM43.8778 159.088V168.284H45.6193C47.1492 168.284 48.34 167.874 49.1917 167.055C50.0435 166.236 50.4694 165.075 50.4694 163.572C50.4694 160.583 48.8798 159.088 45.7006 159.088H43.8778Z" fill="black"/>
<circle cx="64.9058" cy="162.521" r="8.33308" fill="#747578"/>
<rect x="16.1121" y="226.268" width="57.8275" height="21.0156" rx="6.30469" stroke="black" stroke-width="1.40104"/>
<path d="M36.8149 243.776H35.4559V235.947C35.4559 235.329 35.4938 234.572 35.5698 233.677H35.5372C35.407 234.203 35.2904 234.58 35.1873 234.808L31.1998 243.776H30.5325L26.5531 234.873C26.4392 234.613 26.3226 234.214 26.2032 233.677H26.1707C26.2141 234.143 26.2358 234.906 26.2358 235.963V243.776H24.9174V232.106H26.724L30.3046 240.244C30.5813 240.868 30.7604 241.334 30.8417 241.644H30.8906C31.1238 241.003 31.311 240.526 31.4521 240.211L35.1059 232.106H36.8149V243.776ZM43.1949 243.971C41.9634 243.971 40.9787 243.583 40.2409 242.807C39.5085 242.026 39.1423 240.993 39.1423 239.707C39.1423 238.307 39.5247 237.214 40.2897 236.427C41.0546 235.641 42.0881 235.247 43.3902 235.247C44.6326 235.247 45.6009 235.63 46.2954 236.395C46.9952 237.16 47.3451 238.22 47.3451 239.577C47.3451 240.906 46.9681 241.972 46.214 242.775C45.4653 243.572 44.4589 243.971 43.1949 243.971ZM43.2925 236.37C42.4354 236.37 41.7572 236.663 41.2581 237.249C40.759 237.83 40.5094 238.633 40.5094 239.658C40.5094 240.645 40.7617 241.424 41.2662 241.994C41.7708 242.563 42.4462 242.848 43.2925 242.848C44.1551 242.848 44.817 242.569 45.2781 242.01C45.7447 241.451 45.978 240.656 45.978 239.625C45.978 238.584 45.7447 237.781 45.2781 237.217C44.817 236.652 44.1551 236.37 43.2925 236.37ZM56.5897 243.776H55.2551V242.36H55.2225C54.604 243.434 53.6492 243.971 52.358 243.971C51.311 243.971 50.4728 243.599 49.8434 242.856C49.2195 242.108 48.9076 241.09 48.9076 239.805C48.9076 238.427 49.2548 237.323 49.9492 236.492C50.6437 235.662 51.5686 235.247 52.7242 235.247C53.8689 235.247 54.7017 235.698 55.2225 236.598H55.2551V231.439H56.5897V243.776ZM55.2551 240.008V238.779C55.2551 238.106 55.0326 237.537 54.5878 237.07C54.1429 236.604 53.5787 236.37 52.8951 236.37C52.0813 236.37 51.4412 236.669 50.9746 237.266C50.508 237.862 50.2747 238.687 50.2747 239.739C50.2747 240.7 50.4972 241.459 50.942 242.018C51.3923 242.571 51.9945 242.848 52.7486 242.848C53.4919 242.848 54.0941 242.58 54.5552 242.042C55.0218 241.505 55.2551 240.827 55.2551 240.008ZM65.9888 239.943H60.1052C60.1269 240.871 60.3764 241.587 60.8538 242.091C61.3313 242.596 61.9877 242.848 62.8232 242.848C63.7617 242.848 64.6244 242.539 65.411 241.92V243.174C64.6786 243.705 63.7102 243.971 62.5058 243.971C61.3286 243.971 60.4036 243.594 59.7308 242.84C59.0581 242.08 58.7218 241.014 58.7218 239.642C58.7218 238.345 59.088 237.29 59.8204 236.476C60.5582 235.657 61.4723 235.247 62.5628 235.247C63.6532 235.247 64.4969 235.6 65.0936 236.305C65.6904 237.011 65.9888 237.99 65.9888 239.243V239.943ZM64.6216 238.812C64.6162 238.041 64.429 237.442 64.0601 237.013C63.6966 236.585 63.1894 236.37 62.5384 236.37C61.909 236.37 61.3747 236.596 60.9352 237.046C60.4958 237.496 60.2245 238.085 60.1214 238.812H64.6216Z" fill="black"/>
<defs>
<clipPath id="clip0_1089_6">
<rect width="89.6667" height="59.3242" fill="white" transform="translate(15.4116 4.20276)"/>
</clipPath>
</defs>
</svg>
