<svg width="48" height="48" viewBox="0 0 48 48" fill="none" xmlns="http://www.w3.org/2000/svg">
<path d="M42.6667 0H5.33333C2.38781 0 0 2.38781 0 5.33333V42.6667C0 45.6122 2.38781 48 5.33333 48H42.6667C45.6122 48 48 45.6122 48 42.6667V5.33333C48 2.38781 45.6122 0 42.6667 0Z" fill="#25B89D"/>
<path d="M21.414 32.0902L10.414 27.0902C10.043 26.9212 9.60404 26.9952 9.31004 27.2772C9.01404 27.5592 8.92004 27.9932 9.07204 28.3722L10.924 33.0012L9.07204 37.6302C8.92104 38.0092 9.01404 38.4422 9.31004 38.7252C9.49904 38.9062 9.74804 39.0012 10 39.0012C10.14 39.0012 10.281 38.9722 10.414 38.9112L21.414 33.9112C21.77 33.7492 22 33.3932 22 33.0012C22 32.6092 21.771 32.2522 21.414 32.0902ZM11.853 36.0602L12.928 33.3722C13.023 33.1342 13.023 32.8682 12.928 32.6302L11.853 29.9422L18.582 33.0022L11.853 36.0622V36.0602Z" fill="white"/>
<path d="M33 21C36.309 21 39 18.309 39 15C39 11.691 36.309 9 33 9C29.691 9 27 11.691 27 15C27 18.309 29.691 21 33 21ZM33 11C35.206 11 37 12.794 37 15C37 17.206 35.206 19 33 19C30.794 19 29 17.206 29 15C29 12.794 30.794 11 33 11Z" fill="white"/>
<path d="M33.5 22.9998H14.5C12.57 22.9998 11 21.4298 11 19.4998C11 17.5698 12.57 15.9998 14.5 15.9998H22.586L22.293 16.2928C21.902 16.6838 21.902 17.3158 22.293 17.7068C22.488 17.9018 22.744 17.9998 23 17.9998C23.256 17.9998 23.512 17.9018 23.707 17.7068L25.707 15.7068C26.098 15.3158 26.098 14.6838 25.707 14.2928L23.707 12.2928C23.316 11.9018 22.684 11.9018 22.293 12.2928C21.902 12.6838 21.902 13.3158 22.293 13.7068L22.586 13.9998H14.5C11.468 13.9998 9 16.4668 9 19.4998C9 22.5328 11.468 24.9998 14.5 24.9998H33.5C35.43 24.9998 37 26.5698 37 28.4998C37 30.4298 35.43 31.9998 33.5 31.9998H24C23.447 31.9998 23 32.4468 23 32.9998C23 33.5528 23.447 33.9998 24 33.9998H33.5C36.532 33.9998 39 31.5318 39 28.4998C39 25.4678 36.532 22.9998 33.5 22.9998Z" fill="white"/>
<path d="M33 18C34.654 18 36 16.654 36 15C36 13.346 34.654 12 33 12C31.346 12 30 13.346 30 15C30 16.654 31.346 18 33 18ZM33 14C33.552 14 34 14.449 34 15C34 15.551 33.552 16 33 16C32.448 16 32 15.551 32 15C32 14.449 32.448 14 33 14Z" fill="white"/>
</svg>
