<svg width="16" height="16" viewBox="0 0 16 16" fill="none" xmlns="http://www.w3.org/2000/svg">
<g clip-path="url(#clip0_1086_1012)">
<path d="M4.66683 1.33333V3.99999M4.66683 10.6667V13.3333M11.3335 2.66666V5.33333M11.3335 12V14.6667M1.3335 3.99999H8.00016M1.3335 10.6667H8.00016M8.00016 5.33333H14.6668M8.00016 12H14.6668M8.00016 13.3333V2.39999C8.00016 2.02663 8.00016 1.83994 7.9275 1.69733C7.86358 1.57189 7.7616 1.46991 7.63616 1.40599C7.49355 1.33333 7.30686 1.33333 6.9335 1.33333H4.5335C3.41339 1.33333 2.85334 1.33333 2.42552 1.55132C2.04919 1.74306 1.74323 2.04902 1.55148 2.42535C1.3335 2.85317 1.3335 3.41322 1.3335 4.53333V10.1333C1.3335 11.2534 1.3335 11.8135 1.55148 12.2413C1.74323 12.6176 2.04919 12.9236 2.42552 13.1153C2.85334 13.3333 3.41339 13.3333 4.5335 13.3333H8.00016ZM8.00016 2.66666H11.4668C12.5869 2.66666 13.147 2.66666 13.5748 2.88465C13.9511 3.0764 14.2571 3.38236 14.4488 3.75868C14.6668 4.1865 14.6668 4.74656 14.6668 5.86666V11.4667C14.6668 12.5868 14.6668 13.1468 14.4488 13.5746C14.2571 13.951 13.9511 14.2569 13.5748 14.4487C13.147 14.6667 12.5869 14.6667 11.4668 14.6667H9.06683C8.69346 14.6667 8.50678 14.6667 8.36417 14.594C8.23873 14.5301 8.13674 14.4281 8.07282 14.3027C8.00016 14.16 8.00016 13.9734 8.00016 13.6V2.66666Z" stroke="#040D17" stroke-linecap="round" stroke-linejoin="round"/>
</g>
<defs>
<clipPath id="clip0_1086_1012">
<rect width="16" height="16" fill="white"/>
</clipPath>
</defs>
</svg>
