<svg width="300" height="23" viewBox="0 0 300 23" fill="none" xmlns="http://www.w3.org/2000/svg">
<rect x="1.40483" y="2.40483" width="297.19" height="19.1903" fill="#D9D9D9" stroke="black" stroke-width="2.80966"/>
<rect x="23" y="1" width="21" height="20" fill="black"/>
<path d="M31.4062 8.73438C31.4062 8.39062 31.3516 8.09115 31.2422 7.83594C31.138 7.58073 30.9922 7.36979 30.8047 7.20312C30.6224 7.03125 30.4062 6.90365 30.1562 6.82031C29.9062 6.73698 29.6354 6.69531 29.3438 6.69531C29.0938 6.69531 28.849 6.72917 28.6094 6.79688C28.3698 6.86458 28.1354 6.95833 27.9062 7.07812C27.6823 7.19792 27.4635 7.34115 27.25 7.50781C27.0417 7.67448 26.8464 7.85938 26.6641 8.0625V6.6875C27.0234 6.33854 27.4245 6.07292 27.8672 5.89062C28.3151 5.70312 28.8594 5.60938 29.5 5.60938C29.9583 5.60938 30.3828 5.67708 30.7734 5.8125C31.1641 5.94271 31.5026 6.13542 31.7891 6.39062C32.0755 6.64583 32.2995 6.96094 32.4609 7.33594C32.6276 7.71094 32.7109 8.14062 32.7109 8.625C32.7109 9.06771 32.6589 9.46875 32.5547 9.82812C32.4557 10.1875 32.3021 10.526 32.0938 10.8438C31.8906 11.1615 31.6328 11.4661 31.3203 11.7578C31.0078 12.0495 30.6406 12.3464 30.2188 12.6484C29.6927 13.0234 29.2578 13.3438 28.9141 13.6094C28.5755 13.875 28.3047 14.125 28.1016 14.3594C27.9036 14.5885 27.763 14.8203 27.6797 15.0547C27.6016 15.2839 27.5625 15.5495 27.5625 15.8516H33.1406V17H26.2266V16.4453C26.2266 15.9661 26.2786 15.5443 26.3828 15.1797C26.487 14.8151 26.6589 14.4688 26.8984 14.1406C27.138 13.8125 27.4505 13.4844 27.8359 13.1562C28.2266 12.8281 28.7031 12.4583 29.2656 12.0469C29.6719 11.7552 30.0104 11.4766 30.2812 11.2109C30.5573 10.9453 30.7786 10.6797 30.9453 10.4141C31.112 10.1484 31.2292 9.88021 31.2969 9.60938C31.3698 9.33333 31.4062 9.04167 31.4062 8.73438ZM39.6562 17H38.375V7.32031C38.276 7.41927 38.1302 7.53385 37.9375 7.66406C37.75 7.78906 37.5365 7.91406 37.2969 8.03906C37.0625 8.16406 36.8125 8.28125 36.5469 8.39062C36.2865 8.5 36.0312 8.58594 35.7812 8.64844V7.35156C36.0625 7.27344 36.3594 7.16927 36.6719 7.03906C36.9896 6.90365 37.2995 6.75521 37.6016 6.59375C37.9089 6.42708 38.1979 6.25521 38.4688 6.07812C38.7396 5.89583 38.974 5.71875 39.1719 5.54688H39.6562V17Z" fill="#F2F2F2"/>
<rect x="100" y="1" width="21" height="20" fill="black"/>
<path d="M108.406 9.04207C108.406 8.69832 108.352 8.39884 108.242 8.14363C108.138 7.88842 107.992 7.67749 107.805 7.51082C107.622 7.33894 107.406 7.21134 107.156 7.12801C106.906 7.04467 106.635 7.00301 106.344 7.00301C106.094 7.00301 105.849 7.03686 105.609 7.10457C105.37 7.17228 105.135 7.26603 104.906 7.38582C104.682 7.50561 104.464 7.64884 104.25 7.81551C104.042 7.98217 103.846 8.16707 103.664 8.37019V6.99519C104.023 6.64624 104.424 6.38061 104.867 6.19832C105.315 6.01082 105.859 5.91707 106.5 5.91707C106.958 5.91707 107.383 5.98478 107.773 6.12019C108.164 6.2504 108.503 6.44311 108.789 6.69832C109.076 6.95353 109.299 7.26863 109.461 7.64363C109.628 8.01863 109.711 8.44832 109.711 8.93269C109.711 9.3754 109.659 9.77644 109.555 10.1358C109.456 10.4952 109.302 10.8337 109.094 11.1514C108.891 11.4692 108.633 11.7738 108.32 12.0655C108.008 12.3572 107.641 12.654 107.219 12.9561C106.693 13.3311 106.258 13.6514 105.914 13.9171C105.576 14.1827 105.305 14.4327 105.102 14.6671C104.904 14.8962 104.763 15.128 104.68 15.3624C104.602 15.5915 104.562 15.8572 104.562 16.1593H110.141V17.3077H103.227V16.753C103.227 16.2738 103.279 15.852 103.383 15.4874C103.487 15.1228 103.659 14.7764 103.898 14.4483C104.138 14.1202 104.451 13.7921 104.836 13.4639C105.227 13.1358 105.703 12.766 106.266 12.3546C106.672 12.0629 107.01 11.7843 107.281 11.5186C107.557 11.253 107.779 10.9874 107.945 10.7218C108.112 10.4561 108.229 10.1879 108.297 9.91707C108.37 9.64103 108.406 9.34936 108.406 9.04207ZM117.031 9.04207C117.031 8.69832 116.977 8.39884 116.867 8.14363C116.763 7.88842 116.617 7.67749 116.43 7.51082C116.247 7.33894 116.031 7.21134 115.781 7.12801C115.531 7.04467 115.26 7.00301 114.969 7.00301C114.719 7.00301 114.474 7.03686 114.234 7.10457C113.995 7.17228 113.76 7.26603 113.531 7.38582C113.307 7.50561 113.089 7.64884 112.875 7.81551C112.667 7.98217 112.471 8.16707 112.289 8.37019V6.99519C112.648 6.64624 113.049 6.38061 113.492 6.19832C113.94 6.01082 114.484 5.91707 115.125 5.91707C115.583 5.91707 116.008 5.98478 116.398 6.12019C116.789 6.2504 117.128 6.44311 117.414 6.69832C117.701 6.95353 117.924 7.26863 118.086 7.64363C118.253 8.01863 118.336 8.44832 118.336 8.93269C118.336 9.3754 118.284 9.77644 118.18 10.1358C118.081 10.4952 117.927 10.8337 117.719 11.1514C117.516 11.4692 117.258 11.7738 116.945 12.0655C116.633 12.3572 116.266 12.654 115.844 12.9561C115.318 13.3311 114.883 13.6514 114.539 13.9171C114.201 14.1827 113.93 14.4327 113.727 14.6671C113.529 14.8962 113.388 15.128 113.305 15.3624C113.227 15.5915 113.188 15.8572 113.188 16.1593H118.766V17.3077H111.852V16.753C111.852 16.2738 111.904 15.852 112.008 15.4874C112.112 15.1228 112.284 14.7764 112.523 14.4483C112.763 14.1202 113.076 13.7921 113.461 13.4639C113.852 13.1358 114.328 12.766 114.891 12.3546C115.297 12.0629 115.635 11.7843 115.906 11.5186C116.182 11.253 116.404 10.9874 116.57 10.7218C116.737 10.4561 116.854 10.1879 116.922 9.91707C116.995 9.64103 117.031 9.34936 117.031 9.04207Z" fill="#F2F2F2"/>
<rect x="179" y="1" width="21" height="20" fill="black"/>
<path d="M187.406 9.04207C187.406 8.69832 187.352 8.39884 187.242 8.14363C187.138 7.88842 186.992 7.67749 186.805 7.51082C186.622 7.33894 186.406 7.21134 186.156 7.12801C185.906 7.04467 185.635 7.00301 185.344 7.00301C185.094 7.00301 184.849 7.03686 184.609 7.10457C184.37 7.17228 184.135 7.26603 183.906 7.38582C183.682 7.50561 183.464 7.64884 183.25 7.81551C183.042 7.98217 182.846 8.16707 182.664 8.37019V6.99519C183.023 6.64624 183.424 6.38061 183.867 6.19832C184.315 6.01082 184.859 5.91707 185.5 5.91707C185.958 5.91707 186.383 5.98478 186.773 6.12019C187.164 6.2504 187.503 6.44311 187.789 6.69832C188.076 6.95353 188.299 7.26863 188.461 7.64363C188.628 8.01863 188.711 8.44832 188.711 8.93269C188.711 9.3754 188.659 9.77644 188.555 10.1358C188.456 10.4952 188.302 10.8337 188.094 11.1514C187.891 11.4692 187.633 11.7738 187.32 12.0655C187.008 12.3572 186.641 12.654 186.219 12.9561C185.693 13.3311 185.258 13.6514 184.914 13.9171C184.576 14.1827 184.305 14.4327 184.102 14.6671C183.904 14.8962 183.763 15.128 183.68 15.3624C183.602 15.5915 183.562 15.8572 183.562 16.1593H189.141V17.3077H182.227V16.753C182.227 16.2738 182.279 15.852 182.383 15.4874C182.487 15.1228 182.659 14.7764 182.898 14.4483C183.138 14.1202 183.451 13.7921 183.836 13.4639C184.227 13.1358 184.703 12.766 185.266 12.3546C185.672 12.0629 186.01 11.7843 186.281 11.5186C186.557 11.253 186.779 10.9874 186.945 10.7218C187.112 10.4561 187.229 10.1879 187.297 9.91707C187.37 9.64103 187.406 9.34936 187.406 9.04207ZM197.445 14.1358C197.445 14.641 197.349 15.102 197.156 15.5186C196.969 15.9301 196.701 16.2843 196.352 16.5811C196.008 16.8728 195.594 17.0994 195.109 17.2608C194.625 17.4223 194.091 17.503 193.508 17.503C192.44 17.503 191.591 17.2999 190.961 16.8936V15.5186C191.716 16.1124 192.581 16.4093 193.555 16.4093C193.945 16.4093 194.297 16.3598 194.609 16.2608C194.927 16.1619 195.198 16.0186 195.422 15.8311C195.651 15.6436 195.826 15.4171 195.945 15.1514C196.07 14.8858 196.133 14.5863 196.133 14.253C196.133 12.7895 195.091 12.0577 193.008 12.0577H192.078V10.9718H192.961C194.805 10.9718 195.727 10.2843 195.727 8.90926C195.727 7.63842 195.023 7.00301 193.617 7.00301C192.826 7.00301 192.083 7.26863 191.391 7.79988V6.55769C192.104 6.13061 192.953 5.91707 193.938 5.91707C194.406 5.91707 194.831 5.98217 195.211 6.11238C195.591 6.24259 195.917 6.42488 196.188 6.65926C196.458 6.89363 196.667 7.17488 196.812 7.50301C196.964 7.83113 197.039 8.19311 197.039 8.58894C197.039 10.0629 196.294 11.0108 194.805 11.4327V11.4639C195.185 11.5056 195.536 11.5994 195.859 11.7452C196.182 11.8858 196.461 12.0707 196.695 12.2999C196.93 12.529 197.112 12.7999 197.242 13.1124C197.378 13.4197 197.445 13.7608 197.445 14.1358Z" fill="#F2F2F2"/>
<rect x="254" y="1" width="21" height="21" fill="black"/>
<path d="M262.406 9.73438C262.406 9.39062 262.352 9.09115 262.242 8.83594C262.138 8.58073 261.992 8.36979 261.805 8.20312C261.622 8.03125 261.406 7.90365 261.156 7.82031C260.906 7.73698 260.635 7.69531 260.344 7.69531C260.094 7.69531 259.849 7.72917 259.609 7.79688C259.37 7.86458 259.135 7.95833 258.906 8.07812C258.682 8.19792 258.464 8.34115 258.25 8.50781C258.042 8.67448 257.846 8.85938 257.664 9.0625V7.6875C258.023 7.33854 258.424 7.07292 258.867 6.89062C259.315 6.70312 259.859 6.60938 260.5 6.60938C260.958 6.60938 261.383 6.67708 261.773 6.8125C262.164 6.94271 262.503 7.13542 262.789 7.39062C263.076 7.64583 263.299 7.96094 263.461 8.33594C263.628 8.71094 263.711 9.14062 263.711 9.625C263.711 10.0677 263.659 10.4688 263.555 10.8281C263.456 11.1875 263.302 11.526 263.094 11.8438C262.891 12.1615 262.633 12.4661 262.32 12.7578C262.008 13.0495 261.641 13.3464 261.219 13.6484C260.693 14.0234 260.258 14.3438 259.914 14.6094C259.576 14.875 259.305 15.125 259.102 15.3594C258.904 15.5885 258.763 15.8203 258.68 16.0547C258.602 16.2839 258.562 16.5495 258.562 16.8516H264.141V18H257.227V17.4453C257.227 16.9661 257.279 16.5443 257.383 16.1797C257.487 15.8151 257.659 15.4688 257.898 15.1406C258.138 14.8125 258.451 14.4844 258.836 14.1562C259.227 13.8281 259.703 13.4583 260.266 13.0469C260.672 12.7552 261.01 12.4766 261.281 12.2109C261.557 11.9453 261.779 11.6797 261.945 11.4141C262.112 11.1484 262.229 10.8802 262.297 10.6094C262.37 10.3333 262.406 10.0417 262.406 9.73438ZM271.641 6.79688V14.1953H273.078V15.3672H271.641V18H270.375V15.3672H265.109V14.2578C265.599 13.7057 266.094 13.1172 266.594 12.4922C267.094 11.862 267.57 11.224 268.023 10.5781C268.482 9.93229 268.904 9.28906 269.289 8.64844C269.68 8.0026 270.008 7.38542 270.273 6.79688H271.641ZM266.555 14.1953H270.375V8.71094C269.984 9.39323 269.615 10.0026 269.266 10.5391C268.917 11.0755 268.583 11.5625 268.266 12C267.953 12.4375 267.654 12.8333 267.367 13.1875C267.081 13.5417 266.81 13.8776 266.555 14.1953Z" fill="#F2F2F2"/>
</svg>
