<svg width="18" height="18" viewBox="0 0 18 18" fill="none" xmlns="http://www.w3.org/2000/svg">
<path d="M8.16493 2.66992H2.59221C2.16993 2.66992 1.76494 2.83767 1.46635 3.13627C1.16775 3.43487 1 3.83985 1 4.26213V15.4076C1 15.8299 1.16775 16.2348 1.46635 16.5334C1.76494 16.832 2.16993 16.9998 2.59221 16.9998H13.7377C14.1599 16.9998 14.5649 16.832 14.8635 16.5334C15.1621 16.2348 15.3299 15.8299 15.3299 15.4076V9.83485" stroke="#262626" stroke-width="1.5" stroke-linecap="round" stroke-linejoin="round"/>
<path d="M14.1353 1.39118C14.4633 1.06318 14.9081 0.878906 15.372 0.878906C15.8359 0.878906 16.2808 1.06318 16.6088 1.39118C16.9368 1.71919 17.121 2.16406 17.121 2.62793C17.121 3.0918 16.9368 3.53667 16.6088 3.86468L8.77602 11.6974L5.47803 12.5219L6.30253 9.22392L14.1353 1.39118Z" stroke="#262626" stroke-width="1.5" stroke-linecap="round" stroke-linejoin="round"/>
</svg>
