<svg width="12" height="12" viewBox="0 0 12 12" fill="none" xmlns="http://www.w3.org/2000/svg">
<path d="M10.7974 5.53898L10.7606 5.50221L11.897 4.36577C11.9629 4.29984 12 4.21043 12 4.11719C12 4.02396 11.9629 3.93452 11.897 3.86861L10.7606 2.7322L10.7974 2.6954C11.08 2.65575 11.3416 2.52597 11.5459 2.32174C12.0608 1.80682 12.0608 0.969042 11.5459 0.454166C11.2964 0.204674 10.9648 0.0673067 10.6121 0.0673067C10.2593 0.0673067 9.92771 0.204674 9.67831 0.454096C9.47408 0.658354 9.34431 0.919963 9.30463 1.20262L9.26785 1.23939L8.13139 0.102955C7.99412 -0.0343184 7.77151 -0.0343184 7.63422 0.102955L2.73216 5.00503L2.69539 4.96825C2.65573 4.6856 2.52596 4.42399 2.3217 4.21973C1.80683 3.70483 0.969056 3.70483 0.454135 4.21973C-0.0607381 4.73463 -0.0607381 5.57243 0.454135 6.0873C0.658393 6.29156 0.919978 6.42133 1.20263 6.46099L1.23943 6.49776L0.102972 7.63422C-0.0343241 7.7715 -0.0343241 7.99411 0.102972 8.1314L3.86859 11.897C3.93452 11.9629 4.02394 12 4.11717 12C4.21043 12 4.29982 11.963 4.36575 11.897L5.75076 10.512C5.88806 10.3747 5.88806 10.1521 5.75076 10.0148L5.37497 9.639C5.31143 9.57544 5.22595 9.53866 5.13611 9.53616C4.97775 9.53175 4.82887 9.46769 4.71691 9.35573C4.60029 9.23911 4.53607 9.08405 4.53607 8.91914C4.53607 8.75421 4.60029 8.59915 4.71691 8.48252C4.95764 8.24179 5.34935 8.24177 5.59012 8.48252C5.70208 8.59448 5.76614 8.74336 5.77052 8.9017C5.773 8.99156 5.8098 9.07701 5.87334 9.14058L6.24916 9.5164C6.31509 9.58233 6.4045 9.61938 6.49776 9.61938C6.59099 9.61938 6.68041 9.58235 6.74634 9.5164L9.26781 6.99492L9.30458 7.03169C9.34423 7.31435 9.47401 7.57596 9.67826 7.78022C10.1931 8.29512 11.0309 8.29512 11.5458 7.78022C11.7953 7.53077 11.9326 7.19915 11.9326 6.84642C11.9326 6.49369 11.7952 6.16207 11.5458 5.91265C11.3416 5.70843 11.08 5.57864 10.7974 5.53898ZM6.49778 8.77064L6.46099 8.73387C6.42135 8.45121 6.29156 8.18962 6.08732 7.98537C5.5724 7.47047 4.73463 7.47047 4.21973 7.98537C3.97031 8.23481 3.83297 8.56643 3.83297 8.91916C3.83297 9.2719 3.97034 9.60351 4.21973 9.85294C4.42397 10.0572 4.6856 10.187 4.96823 10.2266L5.00501 10.2634L4.11717 11.1513L0.848751 7.8828L1.98519 6.74636C2.05112 6.68044 2.08817 6.59102 2.08817 6.49779C2.08817 6.40455 2.05112 6.31511 1.98519 6.24921L1.60937 5.87341C1.54583 5.80985 1.46035 5.77308 1.37052 5.77057C1.21215 5.76616 1.06327 5.70211 0.951314 5.59015C0.710588 5.34942 0.710588 4.95771 0.951314 4.71693C1.19206 4.47621 1.58375 4.47621 1.8245 4.71693C1.93646 4.8289 2.00054 4.97779 2.00492 5.13616C2.0074 5.226 2.0442 5.31147 2.10776 5.37501L2.48356 5.75081C2.62083 5.88808 2.84344 5.88808 2.98074 5.75081L4.11717 4.61437L5.25361 5.75081C5.3909 5.88811 5.61349 5.88811 5.75078 5.75081L6.1266 5.37501C6.19017 5.31147 6.22696 5.226 6.22945 5.13614C6.23383 4.97779 6.29791 4.82892 6.40984 4.71693C6.65059 4.47621 7.04233 4.47621 7.28305 4.71693C7.5238 4.95768 7.5238 5.3494 7.28305 5.59015C7.17109 5.70211 7.02222 5.76618 6.86385 5.77057C6.77402 5.77305 6.68854 5.80985 6.625 5.87341L6.2492 6.24921C6.11191 6.38648 6.11191 6.60909 6.2492 6.74639L7.38564 7.88283L6.49778 8.77064ZM11.0487 7.28306C10.8079 7.52379 10.4162 7.52379 10.1755 7.28306C10.0635 7.1711 9.99945 7.0222 9.99507 6.86383C9.99258 6.774 9.95579 6.68852 9.89223 6.62498L9.51643 6.24918C9.44778 6.18054 9.3578 6.1462 9.26785 6.1462C9.1779 6.1462 9.0879 6.18054 9.01927 6.24918L7.88284 7.38562L6.99501 6.49776L7.03178 6.46099C7.31441 6.42133 7.57602 6.29156 7.78028 6.08733C8.29515 5.57243 8.29515 4.73463 7.78028 4.21973C7.26538 3.70483 6.42761 3.70483 5.91269 4.21973C5.70846 4.42401 5.57868 4.68562 5.53905 4.96825L5.50225 5.00503L4.61442 4.11717L7.88279 0.848737L9.01925 1.98515C9.15652 2.12242 9.37913 2.12242 9.51643 1.98515L9.89223 1.60935C9.95576 1.54582 9.99258 1.46034 9.99507 1.3705C9.99945 1.21214 10.0635 1.06326 10.1755 0.951299C10.2921 0.834674 10.4472 0.770432 10.6121 0.770432C10.777 0.770432 10.9321 0.834674 11.0487 0.951299C11.2894 1.19203 11.2894 1.58374 11.0487 1.82449C10.9367 1.93645 10.7878 2.00053 10.6295 2.00491C10.5396 2.00739 10.4542 2.04419 10.3906 2.10775L10.0148 2.48357C9.87753 2.62087 9.87753 2.84346 10.0148 2.98075L11.1512 4.11717L10.0148 5.25361C9.87751 5.39088 9.87751 5.61349 10.0148 5.75079L10.3906 6.12658C10.4541 6.19015 10.5396 6.22692 10.6294 6.22943C10.7878 6.23383 10.9367 6.29789 11.0487 6.40985C11.1653 6.52647 11.2295 6.68154 11.2295 6.84644C11.2295 7.01137 11.1653 7.16643 11.0487 7.28306Z" fill="#262626"/>
</svg>
