<svg width="20" height="17" viewBox="0 0 20 17" fill="none" xmlns="http://www.w3.org/2000/svg">
<path d="M13.9998 17.0004C13.802 17.0004 13.6087 16.9417 13.4443 16.8318C13.2799 16.7219 13.1518 16.5658 13.0761 16.3831C13.0004 16.2004 12.9806 15.9993 13.0192 15.8054C13.0578 15.6114 13.153 15.4333 13.2928 15.2934L16.5858 12.0004H3.99979C3.73457 12.0004 3.48022 11.8951 3.29268 11.7075C3.10514 11.52 2.99979 11.2656 2.99979 11.0004C2.99979 10.7352 3.10514 10.4808 3.29268 10.2933C3.48022 10.1058 3.73457 10.0004 3.99979 10.0004H18.9998C19.1975 10.0004 19.3908 10.0591 19.5552 10.169C19.7197 10.2789 19.8478 10.4351 19.9235 10.6178C19.9991 10.8005 20.0189 11.0015 19.9804 11.1954C19.9418 11.3894 19.8466 11.5676 19.7068 11.7074L14.7068 16.7074C14.5193 16.895 14.265 17.0003 13.9998 17.0004ZM16.9998 6.00041C16.9998 5.73519 16.8944 5.48084 16.7069 5.2933C16.5194 5.10576 16.265 5.00041 15.9998 5.00041H3.41379L6.70679 1.70741C6.88894 1.5188 6.98974 1.2662 6.98746 1.00401C6.98518 0.741809 6.88001 0.490997 6.69461 0.305589C6.5092 0.12018 6.25838 0.0150115 5.99619 0.0127331C5.73399 0.0104547 5.48139 0.111249 5.29279 0.293407L0.292787 5.29341C0.152977 5.43326 0.057771 5.61142 0.0192035 5.80538C-0.0193641 5.99933 0.000438951 6.20036 0.076109 6.38306C0.151779 6.56576 0.279918 6.72192 0.444328 6.83181C0.608738 6.94169 0.802037 7.00036 0.999787 7.00041H15.9998C16.265 7.00041 16.5194 6.89505 16.7069 6.70751C16.8944 6.51998 16.9998 6.26562 16.9998 6.00041Z" fill="#2680EA"/>
</svg>
