<svg width="19" height="19" viewBox="0 0 19 19" fill="none" xmlns="http://www.w3.org/2000/svg">
<path d="M15.5562 10.8889V13.0667C15.5562 13.9379 15.5562 14.3735 15.3867 14.7062C15.2375 14.9989 14.9996 15.2369 14.7069 15.3861C14.3741 15.5556 13.9385 15.5556 13.0673 15.5556H10.8895M7.77843 3.11115H5.60065C4.72946 3.11115 4.29386 3.11115 3.96111 3.2807C3.66841 3.42983 3.43044 3.6678 3.28131 3.9605C3.11176 4.29325 3.11176 4.72885 3.11176 5.60004V7.77782M11.6673 7.00004L16.334 2.33337M16.334 2.33337H11.6673M16.334 2.33337V7.00004M7.00065 11.6667L2.33398 16.3334M2.33398 16.3334H7.00065M2.33398 16.3334L2.33398 11.6667" stroke="#434A51" stroke-width="1.5" stroke-linecap="round" stroke-linejoin="round"/>
</svg>
