<svg width="80" height="32" viewBox="0 0 80 32" fill="none" xmlns="http://www.w3.org/2000/svg">
<g clip-path="url(#clip0_307_2405)">
<mask id="mask0_307_2405" style="mask-type:luminance" maskUnits="userSpaceOnUse" x="0" y="0" width="32" height="32">
<path d="M32 0H0V32H32V0Z" fill="white"/>
</mask>
<g mask="url(#mask0_307_2405)">
<mask id="mask1_307_2405" style="mask-type:luminance" maskUnits="userSpaceOnUse" x="2" y="2" width="28" height="28">
<path d="M2 2H30V30H2V2Z" fill="white"/>
</mask>
<g mask="url(#mask1_307_2405)">
<path d="M25.7782 21.7782C21.4824 26.0739 14.5176 26.0739 10.2218 21.7782C5.92606 17.4824 5.92606 10.5176 10.2218 6.22186C14.5176 1.92605 21.4824 1.92605 25.7782 6.22186C30.0739 10.5176 30.0739 17.4824 25.7782 21.7782Z" stroke="#2680EA" stroke-width="1.7" stroke-miterlimit="10" stroke-linecap="round"/>
<path d="M11 22.7991L5.16125 28.6279C4.66686 29.124 3.86522 29.124 3.37083 28.6279C2.87639 28.1318 2.87639 27.3275 3.37083 26.8314L9.21213 21" stroke="#2680EA" stroke-width="1.7" stroke-miterlimit="10" stroke-linecap="round"/>
<path d="M23.6569 19.6569C20.5327 22.781 15.4673 22.781 12.3431 19.6569C9.21895 16.5327 9.21895 11.4673 12.3431 8.34314C15.4673 5.21895 20.5327 5.21895 23.6569 8.34314C26.781 11.4673 26.781 16.5327 23.6569 19.6569Z" stroke="#2680EA" stroke-width="1.7" stroke-miterlimit="10" stroke-linecap="round"/>
<path d="M18 11L18 15" stroke="#2680EA" stroke-width="1.7" stroke-miterlimit="10" stroke-linecap="round"/>
</g>
</g>
<circle cx="18" cy="17.8" r="1" fill="#2680EA"/>
</g>
<path d="M39.91 11.37V16.18H45.67V17.91H39.91V24H37.77V9.64H46.67V11.37H39.91ZM52.7323 19.49C51.939 19.5167 51.2657 19.58 50.7123 19.68C50.159 19.7733 49.709 19.9 49.3623 20.06C49.0157 20.22 48.7657 20.41 48.6123 20.63C48.459 20.8433 48.3823 21.0833 48.3823 21.35C48.3823 21.6033 48.4223 21.8233 48.5023 22.01C48.589 22.19 48.7023 22.34 48.8423 22.46C48.989 22.5733 49.159 22.6567 49.3523 22.71C49.5457 22.7633 49.7557 22.79 49.9823 22.79C50.2823 22.79 50.5557 22.76 50.8023 22.7C51.0557 22.64 51.2923 22.5567 51.5123 22.45C51.7323 22.3367 51.9423 22.2 52.1423 22.04C52.3423 21.88 52.539 21.6967 52.7323 21.49V19.49ZM47.0123 15.26C47.579 14.72 48.1923 14.3167 48.8523 14.05C49.519 13.7833 50.249 13.65 51.0423 13.65C51.6223 13.65 52.1357 13.7467 52.5823 13.94C53.029 14.1267 53.4057 14.39 53.7123 14.73C54.019 15.07 54.249 15.4767 54.4023 15.95C54.5623 16.4233 54.6423 16.9467 54.6423 17.52V24H53.7723C53.579 24 53.4323 23.97 53.3323 23.91C53.2323 23.8433 53.1523 23.7233 53.0923 23.55L52.8823 22.66C52.6223 22.9 52.3657 23.1133 52.1123 23.3C51.859 23.48 51.5923 23.6367 51.3123 23.77C51.039 23.8967 50.7457 23.9933 50.4323 24.06C50.119 24.1267 49.7723 24.16 49.3923 24.16C48.9923 24.16 48.6157 24.1067 48.2623 24C47.9157 23.8867 47.6123 23.7167 47.3523 23.49C47.0923 23.2633 46.8857 22.98 46.7323 22.64C46.5857 22.3 46.5123 21.9033 46.5123 21.45C46.5123 21.05 46.619 20.6667 46.8323 20.3C47.0523 19.9267 47.4057 19.5933 47.8923 19.3C48.3857 19.0067 49.0257 18.7667 49.8123 18.58C50.6057 18.3933 51.579 18.2867 52.7323 18.26V17.52C52.7323 16.7533 52.569 16.18 52.2423 15.8C51.9157 15.42 51.4357 15.23 50.8023 15.23C50.3757 15.23 50.0157 15.2833 49.7223 15.39C49.4357 15.4967 49.1857 15.6167 48.9723 15.75C48.7657 15.8767 48.5823 15.9933 48.4223 16.1C48.269 16.2067 48.109 16.26 47.9423 16.26C47.809 16.26 47.6923 16.2233 47.5923 16.15C47.499 16.0767 47.4223 15.99 47.3623 15.89L47.0123 15.26ZM65.7028 13.84V24H64.5328C64.2661 24 64.0928 23.87 64.0128 23.61L63.8728 22.59C63.6528 22.8233 63.4228 23.0367 63.1828 23.23C62.9428 23.4233 62.6861 23.59 62.4128 23.73C62.1395 23.8633 61.8495 23.9667 61.5428 24.04C61.2361 24.12 60.9061 24.16 60.5528 24.16C59.9928 24.16 59.4995 24.0667 59.0728 23.88C58.6528 23.6933 58.2995 23.4333 58.0128 23.1C57.7261 22.76 57.5095 22.3533 57.3628 21.88C57.2161 21.4067 57.1428 20.8833 57.1428 20.31V13.84H59.1028V20.31C59.1028 21.0367 59.2695 21.6033 59.6028 22.01C59.9361 22.41 60.4461 22.61 61.1328 22.61C61.6328 22.61 62.0995 22.4933 62.5328 22.26C62.9661 22.02 63.3728 21.6933 63.7528 21.28V13.84H65.7028ZM70.4247 9.24V24H68.4647V9.24H70.4247ZM76.3898 24.16C75.5698 24.16 74.9365 23.93 74.4898 23.47C74.0498 23.01 73.8298 22.3533 73.8298 21.5V15.42H72.6498C72.5365 15.42 72.4398 15.3867 72.3598 15.32C72.2865 15.2467 72.2498 15.14 72.2498 15V14.21L73.8998 13.98L74.3398 10.95C74.3665 10.8367 74.4165 10.75 74.4898 10.69C74.5698 10.6233 74.6698 10.59 74.7898 10.59H75.7798V14H78.6598V15.42H75.7798V21.37C75.7798 21.77 75.8765 22.07 76.0698 22.27C76.2698 22.4633 76.5232 22.56 76.8298 22.56C77.0098 22.56 77.1632 22.5367 77.2898 22.49C77.4232 22.4433 77.5365 22.3933 77.6298 22.34C77.7232 22.28 77.8032 22.2267 77.8698 22.18C77.9365 22.1333 77.9965 22.11 78.0498 22.11C78.1165 22.11 78.1665 22.1267 78.1998 22.16C78.2398 22.1867 78.2798 22.2333 78.3198 22.3L78.8998 23.24C78.5798 23.5333 78.1998 23.76 77.7598 23.92C77.3198 24.08 76.8632 24.16 76.3898 24.16Z" fill="#2680EA"/>
<defs>
<clipPath id="clip0_307_2405">
<rect width="32" height="32" fill="white"/>
</clipPath>
</defs>
</svg>
