<svg width="35" height="35" viewBox="0 0 35 35" fill="none" xmlns="http://www.w3.org/2000/svg">
<rect width="35" height="35" rx="17.5" fill="#F0F0F0"/>
<path d="M20.8337 21.3333L17.5003 18L14.167 21.3333" stroke="#434A51" stroke-linecap="round" stroke-linejoin="round"/>
<path d="M17.5 18V25.5" stroke="#434A51" stroke-linecap="round" stroke-linejoin="round"/>
<path d="M24.4919 23.3249C25.3047 22.8818 25.9467 22.1806 26.3168 21.3321C26.6868 20.4835 26.7637 19.5359 26.5354 18.6388C26.307 17.7417 25.7865 16.9462 25.0558 16.3778C24.3251 15.8094 23.4259 15.5005 22.5002 15.4999H21.4502C21.198 14.5243 20.7278 13.6185 20.0752 12.8507C19.4225 12.0829 18.6042 11.4731 17.682 11.0671C16.7597 10.661 15.7573 10.4694 14.7503 10.5065C13.7433 10.5436 12.7578 10.8085 11.8679 11.2813C10.9779 11.7541 10.2068 12.4225 9.6124 13.2362C9.01799 14.05 8.61579 14.9879 8.43603 15.9794C8.25627 16.9709 8.30363 17.9903 8.57456 18.961C8.84548 19.9316 9.33291 20.8281 10.0002 21.5832" stroke="#434A51" stroke-linecap="round" stroke-linejoin="round"/>
<path d="M20.8337 21.3333L17.5003 18L14.167 21.3333" stroke="#434A51" stroke-linecap="round" stroke-linejoin="round"/>
</svg>
