<svg width="24" height="24" viewBox="0 0 24 24" fill="none" xmlns="http://www.w3.org/2000/svg">
<path d="M18.6667 0H5.33333C2.38781 0 0 2.38781 0 5.33333V18.6667C0 21.6122 2.38781 24 5.33333 24H18.6667C21.6122 24 24 21.6122 24 18.6667V5.33333C24 2.38781 21.6122 0 18.6667 0Z" fill="white"/>
<path d="M6.31995 3.68945H12.9866C14.4011 3.68945 15.7577 4.25136 16.7578 5.25155C17.758 6.25174 18.3199 7.6083 18.3199 9.02279V19.6895H6.31995V3.68945Z" fill="#D1E7FF"/>
<path d="M6.4867 3.16262C6.3243 3.16314 6.1636 3.1958 6.01388 3.25871C5.86415 3.32163 5.72836 3.41355 5.61433 3.52919C5.5003 3.64484 5.41029 3.7819 5.34948 3.93249C5.28868 4.08309 5.25828 4.24422 5.26004 4.40662V19.5933C5.2581 19.7557 5.28838 19.9169 5.34912 20.0676C5.40986 20.2183 5.49987 20.3554 5.61394 20.4711C5.728 20.5868 5.86386 20.6787 6.01367 20.7416C6.16347 20.8044 6.32425 20.8369 6.4867 20.8373H17.2867C17.449 20.8362 17.6095 20.8032 17.7591 20.7401C17.9087 20.6771 18.0443 20.5851 18.1584 20.4696C18.2724 20.3541 18.3625 20.2173 18.4237 20.0669C18.4848 19.9165 18.5158 19.7556 18.5147 19.5933V7.02929C18.5144 6.95659 18.4997 6.88467 18.4716 6.81764C18.4434 6.7506 18.4024 6.68977 18.3507 6.63862L15.0627 3.34662C15.0107 3.28812 14.9468 3.24143 14.8753 3.2097C14.8038 3.17796 14.7263 3.16191 14.648 3.16262H6.4867ZM14.1 4.26662V7.02662C14.0999 7.09951 14.1141 7.17172 14.1419 7.23909C14.1697 7.30646 14.2106 7.36768 14.2621 7.41922C14.3136 7.47076 14.3749 7.51161 14.4422 7.53942C14.5096 7.56724 14.5818 7.58146 14.6547 7.58129H17.4147V19.592C17.4148 19.6255 17.4022 19.6579 17.3795 19.6827C17.3568 19.7074 17.3255 19.7226 17.292 19.7253H6.49204C6.45879 19.7223 6.42789 19.7069 6.40542 19.6822C6.38296 19.6575 6.37057 19.6253 6.3707 19.592V4.40662C6.37057 4.37324 6.38296 4.34103 6.40542 4.31634C6.42789 4.29165 6.45879 4.27629 6.49204 4.27329H14.1054L14.1 4.26662ZM15.2027 5.04795L16.6307 6.47729H15.1987L15.2027 5.04795ZM8.57337 9.23729C8.43149 9.24426 8.29772 9.30553 8.19977 9.40841C8.10182 9.51129 8.04719 9.6479 8.04719 9.78995C8.04719 9.93201 8.10182 10.0686 8.19977 10.1715C8.29772 10.2744 8.43149 10.3356 8.57337 10.3426H15.1987C15.2736 10.3463 15.3484 10.3347 15.4186 10.3086C15.4889 10.2825 15.5531 10.2424 15.6074 10.1907C15.6617 10.139 15.7049 10.0769 15.7344 10.008C15.764 9.93907 15.7792 9.8649 15.7792 9.78995C15.7792 9.715 15.764 9.64083 15.7344 9.57194C15.7049 9.50306 15.6617 9.44088 15.6074 9.3892C15.5531 9.33752 15.4889 9.29741 15.4186 9.27129C15.3484 9.24518 15.2736 9.23361 15.1987 9.23729H8.57337ZM8.57337 11.9973C8.42697 11.9973 8.28657 12.0554 8.18305 12.159C8.07953 12.2625 8.02137 12.4029 8.02137 12.5493C8.02137 12.6957 8.07953 12.8361 8.18305 12.9396C8.28657 13.0431 8.42697 13.1013 8.57337 13.1013H15.1987C15.3451 13.1013 15.4855 13.0431 15.589 12.9396C15.6925 12.8361 15.7507 12.6957 15.7507 12.5493C15.7507 12.4029 15.6925 12.2625 15.589 12.159C15.4855 12.0554 15.3451 11.9973 15.1987 11.9973H8.57337ZM8.57337 15.864H15.1987C15.3451 15.864 15.4855 15.8058 15.589 15.7023C15.6925 15.5988 15.7507 15.4584 15.7507 15.312C15.7507 15.1656 15.6925 15.0252 15.589 14.9216C15.4855 14.8181 15.3451 14.76 15.1987 14.76H8.57337C8.42644 14.76 8.28553 14.8183 8.18163 14.9222C8.07774 15.0261 8.01937 15.167 8.01937 15.314C8.01937 15.4609 8.07774 15.6018 8.18163 15.7057C8.28553 15.8096 8.42644 15.868 8.57337 15.868V15.864Z" fill="#3F83CD"/>
</svg>
