<svg width="24" height="24" viewBox="0 0 24 24" fill="none" xmlns="http://www.w3.org/2000/svg">
<path d="M18.6667 0H5.33333C2.38781 0 0 2.38781 0 5.33333V18.6667C0 21.6122 2.38781 24 5.33333 24H18.6667C21.6122 24 24 21.6122 24 18.6667V5.33333C24 2.38781 21.6122 0 18.6667 0Z" fill="white"/>
<path d="M6.48652 3.16311C6.32412 3.16363 6.16342 3.19628 6.0137 3.2592C5.86397 3.32211 5.72818 3.41404 5.61415 3.52968C5.50012 3.64532 5.41011 3.78239 5.3493 3.93298C5.28849 4.08357 5.25809 4.24471 5.25985 4.40711V19.5938C5.25791 19.7562 5.28819 19.9174 5.34894 20.0681C5.40968 20.2188 5.49969 20.3559 5.61375 20.4716C5.72782 20.5873 5.86368 20.6792 6.01348 20.742C6.16329 20.8049 6.32406 20.8374 6.48652 20.8378H17.2865C17.4488 20.8367 17.6094 20.8037 17.7589 20.7406C17.9085 20.6776 18.0441 20.5856 18.1582 20.4701C18.2722 20.3546 18.3624 20.2177 18.4235 20.0674C18.4846 19.917 18.5156 19.7561 18.5145 19.5938V7.02978C18.5142 6.95708 18.4995 6.88516 18.4714 6.81812C18.4433 6.75109 18.4022 6.69026 18.3505 6.63911L15.0625 3.34711C15.0105 3.28861 14.9466 3.24192 14.8751 3.21018C14.8036 3.17845 14.7261 3.16239 14.6479 3.16311H6.48652ZM14.0999 4.26711V7.02711C14.0997 7.1 14.1139 7.1722 14.1417 7.23958C14.1695 7.30695 14.2104 7.36817 14.2619 7.41971C14.3135 7.47125 14.3747 7.5121 14.4421 7.53991C14.5094 7.56772 14.5816 7.58195 14.6545 7.58178H17.4145V19.5924C17.4146 19.626 17.4021 19.6584 17.3793 19.6831C17.3566 19.7079 17.3253 19.7231 17.2919 19.7258H6.49185C6.45861 19.7228 6.4277 19.7074 6.40524 19.6827C6.38277 19.658 6.37038 19.6258 6.37052 19.5924V4.40711C6.37038 4.37373 6.38277 4.34152 6.40524 4.31683C6.4277 4.29214 6.45861 4.27678 6.49185 4.27378H14.1052L14.0999 4.26711ZM15.2025 5.04844L16.6305 6.47778H15.1985L15.2025 5.04844ZM8.57319 9.23778C8.43131 9.24475 8.29754 9.30602 8.19959 9.4089C8.10164 9.51178 8.04701 9.64839 8.04701 9.79044C8.04701 9.93249 8.10164 10.0691 8.19959 10.172C8.29754 10.2749 8.43131 10.3361 8.57319 10.3431H15.1985C15.2734 10.3468 15.3482 10.3352 15.4185 10.3091C15.4887 10.283 15.5529 10.2429 15.6072 10.1912C15.6615 10.1395 15.7047 10.0773 15.7343 10.0085C15.7638 9.93956 15.779 9.86539 15.779 9.79044C15.779 9.71549 15.7638 9.64132 15.7343 9.57243C15.7047 9.50354 15.6615 9.44137 15.6072 9.38969C15.5529 9.33801 15.4887 9.29789 15.4185 9.27178C15.3482 9.24567 15.2734 9.2341 15.1985 9.23778H8.57319ZM8.57319 11.9978C8.42679 11.9978 8.28638 12.0559 8.18286 12.1595C8.07934 12.263 8.02119 12.4034 8.02119 12.5498C8.02119 12.6962 8.07934 12.8366 8.18286 12.9401C8.28638 13.0436 8.42679 13.1018 8.57319 13.1018H15.1985C15.3449 13.1018 15.4853 13.0436 15.5888 12.9401C15.6924 12.8366 15.7505 12.6962 15.7505 12.5498C15.7505 12.4034 15.6924 12.263 15.5888 12.1595C15.4853 12.0559 15.3449 11.9978 15.1985 11.9978H8.57319ZM8.57319 15.8644H15.1985C15.3449 15.8644 15.4853 15.8063 15.5888 15.7028C15.6924 15.5992 15.7505 15.4588 15.7505 15.3124C15.7505 15.166 15.6924 15.0256 15.5888 14.9221C15.4853 14.8186 15.3449 14.7604 15.1985 14.7604H8.57319C8.42626 14.7604 8.28534 14.8188 8.18145 14.9227C8.07755 15.0266 8.01919 15.1675 8.01919 15.3144C8.01919 15.4614 8.07755 15.6023 8.18145 15.7062C8.28534 15.8101 8.42626 15.8684 8.57319 15.8684V15.8644Z" fill="#929292"/>
</svg>
