<svg width="14" height="18" viewBox="0 0 14 18" fill="none" xmlns="http://www.w3.org/2000/svg">
<path d="M1.06006 0.526611H7.72673C9.14121 0.526611 10.4978 1.08851 11.498 2.08871C12.4982 3.0889 13.0601 4.44546 13.0601 5.85994V16.5266H1.06006V0.526611Z" fill="#D1E7FF"/>
<path d="M1.22675 2.28373e-05C1.06435 0.000541158 0.903654 0.033199 0.75393 0.0961138C0.604206 0.159029 0.468415 0.250956 0.354386 0.366597C0.240356 0.482238 0.150343 0.619305 0.089535 0.769897C0.0287271 0.920488 -0.00167283 1.08163 8.75332e-05 1.24402V16.4307C-0.00185102 16.5931 0.028427 16.7544 0.0891714 16.905C0.149916 17.0557 0.239922 17.1928 0.353986 17.3085C0.468051 17.4242 0.603913 17.5161 0.753717 17.579C0.903522 17.6418 1.0643 17.6743 1.22675 17.6747H12.0268C12.1891 17.6736 12.3496 17.6406 12.4991 17.5775C12.6487 17.5145 12.7844 17.4225 12.8984 17.307C13.0124 17.1915 13.1026 17.0547 13.1637 16.9043C13.2249 16.7539 13.2558 16.593 13.2548 16.4307V3.86669C13.2544 3.79399 13.2398 3.72207 13.2116 3.65504C13.1835 3.588 13.1424 3.52717 13.0908 3.47602L9.80276 0.184023C9.75078 0.125525 9.68688 0.0788367 9.61536 0.0470985C9.54383 0.0153603 9.46634 -0.00069151 9.38809 2.28373e-05H1.22675ZM8.84009 1.10402V3.86402C8.83991 3.93691 8.85414 4.00912 8.88195 4.07649C8.90976 4.14387 8.95061 4.20508 9.00215 4.25662C9.05369 4.30816 9.11491 4.34901 9.18229 4.37683C9.24966 4.40464 9.32187 4.41887 9.39475 4.41869H12.1548V16.4294C12.1549 16.4629 12.1423 16.4953 12.1195 16.5201C12.0968 16.5448 12.0656 16.56 12.0321 16.5627H1.23209C1.19884 16.5597 1.16794 16.5443 1.14547 16.5196C1.12301 16.4949 1.11062 16.4627 1.11075 16.4294V1.24402C1.11062 1.21064 1.12301 1.17843 1.14547 1.15374C1.16794 1.12906 1.19884 1.11369 1.23209 1.11069H8.84542L8.84009 1.10402ZM9.94275 1.88536L11.3708 3.31469H9.93875L9.94275 1.88536ZM3.31342 6.07469C3.17154 6.08166 3.03777 6.14293 2.93982 6.24581C2.84187 6.34869 2.78724 6.4853 2.78724 6.62736C2.78724 6.76941 2.84187 6.90602 2.93982 7.0089C3.03777 7.11178 3.17154 7.17305 3.31342 7.18002H9.93875C10.0136 7.1837 10.0884 7.17213 10.1587 7.14602C10.229 7.1199 10.2932 7.07979 10.3475 7.02811C10.4017 6.97643 10.445 6.91425 10.4745 6.84537C10.504 6.77648 10.5192 6.70231 10.5192 6.62736C10.5192 6.5524 10.504 6.47823 10.4745 6.40935C10.445 6.34046 10.4017 6.27829 10.3475 6.2266C10.2932 6.17492 10.229 6.13481 10.1587 6.10869C10.0884 6.08258 10.0136 6.07101 9.93875 6.07469H3.31342ZM3.31342 8.83469C3.16702 8.83469 3.02662 8.89285 2.9231 8.99637C2.81958 9.09989 2.76142 9.24029 2.76142 9.38669C2.76142 9.53309 2.81958 9.67349 2.9231 9.77701C3.02662 9.88053 3.16702 9.93869 3.31342 9.93869H9.93875C10.0852 9.93869 10.2256 9.88053 10.3291 9.77701C10.4326 9.67349 10.4908 9.53309 10.4908 9.38669C10.4908 9.24029 10.4326 9.09989 10.3291 8.99637C10.2256 8.89285 10.0852 8.83469 9.93875 8.83469H3.31342ZM3.31342 12.7014H9.93875C10.0852 12.7014 10.2256 12.6432 10.3291 12.5397C10.4326 12.4362 10.4908 12.2958 10.4908 12.1494C10.4908 12.003 10.4326 11.8626 10.3291 11.759C10.2256 11.6555 10.0852 11.5974 9.93875 11.5974H3.31342C3.16649 11.5974 3.02558 11.6557 2.92168 11.7596C2.81779 11.8635 2.75942 12.0044 2.75942 12.1514C2.75942 12.2983 2.81779 12.4392 2.92168 12.5431C3.02558 12.647 3.16649 12.7054 3.31342 12.7054V12.7014Z" fill="#3F83CD"/>
</svg>
