<svg width="24" height="24" viewBox="0 0 24 24" fill="none" xmlns="http://www.w3.org/2000/svg">
<path d="M18.6667 0H5.33333C2.38781 0 0 2.38781 0 5.33333V18.6667C0 21.6122 2.38781 24 5.33333 24H18.6667C21.6122 24 24 21.6122 24 18.6667V5.33333C24 2.38781 21.6122 0 18.6667 0Z" fill="white"/>
<path d="M21.9002 14.336L19.6975 18.316C19.5341 18.6207 19.2918 18.8758 18.9961 19.0548C18.7003 19.2337 18.3618 19.3299 18.0162 19.3333H5.85082C5.71848 19.3272 5.58995 19.2871 5.47763 19.2169C5.36531 19.1466 5.273 19.0486 5.20961 18.9322C5.14622 18.8159 5.11388 18.6852 5.11573 18.5527C5.11758 18.4203 5.15354 18.2905 5.22015 18.176L7.42282 14.1973C7.58633 13.8928 7.82861 13.6377 8.12437 13.4587C8.42012 13.2798 8.75849 13.1835 9.10415 13.18H21.2682C21.4005 13.1861 21.529 13.2262 21.6413 13.2965C21.7537 13.3667 21.846 13.4648 21.9094 13.5811C21.9728 13.6974 22.0051 13.8281 22.0032 13.9606C22.0014 14.0931 21.9654 14.2228 21.8988 14.3373L21.9002 14.336ZM7.95615 11.128H17.9322V9.58933C17.9422 9.1918 17.7941 8.80652 17.5204 8.51805C17.2467 8.22958 16.8697 8.06149 16.4722 8.05067H11.6002L9.66015 6H4.79349C4.39597 6.01082 4.01898 6.17891 3.74526 6.46738C3.47154 6.75585 3.32345 7.14113 3.33349 7.53867V16.4507L5.43482 12.6547C5.68072 12.1984 6.04417 11.8163 6.48751 11.5479C6.93085 11.2794 7.43792 11.1345 7.95615 11.128Z" fill="#FFE271" stroke="#80732C" stroke-width="1.12445"/>
</svg>
