<svg xmlns="http://www.w3.org/2000/svg" width="17.453" height="11.635" viewBox="0 0 17.453 11.635">
  <g id="Icon_awesome-folder-open" data-name="Icon awesome-folder-open" transform="translate(0 -4.5)" fill="#ffe271" stroke-linecap="round">
    <path d="M 13.48331451416016 15.63530921936035 L 1.364274382591248 15.63530921936035 C 1.249834299087524 15.63530921936035 1.191714286804199 15.56385898590088 1.1672443151474 15.52125930786133 C 1.142784357070923 15.47866916656494 1.110344290733337 15.39245891571045 1.168004393577576 15.29360961914062 L 3.36247444152832 11.53168964385986 C 3.619394302368164 11.09124946594238 4.095754146575928 10.81764984130859 4.605644226074219 10.81764984130859 L 16.72466468811035 10.81764984130859 C 16.8390941619873 10.81764984130859 16.89721488952637 10.88909912109375 16.92167472839355 10.93168926239014 C 16.94613456726074 10.97427940368652 16.97856521606445 11.06048965454102 16.9209041595459 11.15932941436768 L 14.7264347076416 14.92126941680908 C 14.46952438354492 15.36170959472656 13.99318408966064 15.63530921936035 13.48331451416016 15.63530921936035 Z M 0.5000043511390686 12.52981662750244 L 0.5000043511390686 5.954409599304199 C 0.5000043511390686 5.428149223327637 0.9281543493270874 4.999999523162842 1.454414367675781 4.999999523162842 L 6.095354557037354 4.999999523162842 L 7.888124465942383 6.792769432067871 L 8.034564018249512 6.93921947479248 L 8.241674423217773 6.93921947479248 L 13.08971405029297 6.93921947479248 C 13.6159839630127 6.93921947479248 14.04413414001465 7.367369174957275 14.04413414001465 7.893629550933838 L 14.04413414001465 8.848049163818359 L 4.605644226074219 8.848049163818359 C 3.397924423217773 8.848049163818359 2.269674301147461 9.496079444885254 1.661164283752441 10.53925895690918 L 0.5000043511390686 12.52981662750244 Z" stroke="none"/>
    <path d="M 13.48331451416016 15.13530921936035 C 13.81604480743408 15.13530921936035 14.12688446044922 14.95675945281982 14.2945442199707 14.66933917999268 L 16.24970054626465 11.31764984130859 L 4.605644226074219 11.31764984130859 C 4.272894382476807 11.31764984130859 3.962024450302124 11.49619960784912 3.794364452362061 11.78361892700195 L 1.839205861091614 15.13530921936035 L 13.48331451416016 15.13530921936035 M 1.000004291534424 10.68036270141602 L 1.229274392127991 10.28732967376709 C 1.927034378051758 9.091139793395996 3.220784425735474 8.348049163818359 4.605644226074219 8.348049163818359 L 13.54413414001465 8.348049163818359 L 13.54413414001465 7.893629550933838 C 13.54413414001465 7.643069267272949 13.34028434753418 7.43921947479248 13.08971405029297 7.43921947479248 L 7.82746410369873 7.43921947479248 L 5.88823413848877 5.499999523162842 L 1.454414367675781 5.499999523162842 C 1.203854322433472 5.499999523162842 1.000004291534424 5.703849315643311 1.000004291534424 5.954409599304199 L 1.000004291534424 10.68036270141602 M 13.48331260681152 16.13530921936035 C 13.4832706451416 16.13530921936035 13.48332595825195 16.13530921936035 13.48328399658203 16.13530921936035 L 1.364274382591248 16.13530921936035 C 0.80301433801651 16.13530921936035 0.4533243477344513 15.52647972106934 0.7361143231391907 15.04167938232422 L 2.93058443069458 11.27974891662598 C 3.278114318847656 10.68398952484131 3.915924310684204 10.31764984130859 4.605644226074219 10.31764984130859 L 16.72466468811035 10.31764984130859 C 17.28591346740723 10.31764984130859 17.63560485839844 10.92647933959961 17.35278511047363 11.41127967834473 L 15.15832424163818 15.17320919036865 C 14.81082534790039 15.76894283294678 14.17297458648682 16.13530921936035 13.48331260681152 16.13530921936035 Z M 4.336548045102973e-06 14.37927913665771 L 4.336548045102973e-06 5.954409599304199 C 4.336548045102973e-06 5.151149272918701 0.6511543393135071 4.499999523162842 1.454414367675781 4.499999523162842 L 6.302454471588135 4.499999523162842 L 8.241674423217773 6.43921947479248 L 13.08971405029297 6.43921947479248 C 13.89297389984131 6.43921947479248 14.54413414001465 7.09036922454834 14.54413414001465 7.893629550933838 L 14.54413414001465 9.348049163818359 L 4.605644226074219 9.348049163818359 C 3.575094223022461 9.348049163818359 2.612304449081421 9.901029586791992 2.093054294586182 10.79118919372559 L 4.336548045102973e-06 14.37927913665771 Z" stroke="none" fill="#80732c"/>
  </g>
</svg>
