<svg width="62" height="62" viewBox="0 0 62 62" fill="none" xmlns="http://www.w3.org/2000/svg">
<g clip-path="url(#clip0_11_2204)">
<path d="M42.4726 51.7874H8.06564C5.9987 51.7874 4.32324 50.1119 4.32324 48.045V3.7424C4.32312 1.67557 5.9987 0 8.06564 0H42.4727C44.5397 0 46.2151 1.67557 46.2151 3.7424V48.0449C46.2151 50.1119 44.5396 51.7874 42.4726 51.7874Z" fill="#F7F6F7"/>
<path d="M42.4726 0H38.7302C40.7972 0 42.4726 1.67557 42.4726 3.7424V48.0449C42.4726 50.1119 40.7971 51.7873 38.7302 51.7873H42.4726C44.5396 51.7873 46.215 50.1117 46.215 48.0449V3.7424C46.2151 1.67557 44.5396 0 42.4726 0Z" fill="#EDEBED"/>
<path d="M45.6579 62H3.7424C1.67557 62 0 60.3244 0 58.2576V26.1972C0 24.1302 1.67557 22.4548 3.7424 22.4548H21.9984C23.4867 22.4548 24.784 23.4677 25.145 24.9115L25.7878 27.4828C26.1487 28.9268 27.446 29.9396 28.9344 29.9396H45.6578C47.7247 29.9396 49.4002 31.6152 49.4002 33.682V58.2575C49.4004 60.3244 47.7249 62 45.6579 62Z" fill="#FFE07D"/>
<path d="M45.6577 29.9396H41.9153C43.9822 29.9396 45.6577 31.6152 45.6577 33.682V58.2575C45.6577 60.3244 43.9821 61.9999 41.9153 61.9999H45.6577C47.7246 61.9999 49.4001 60.3243 49.4001 58.2575V33.6821C49.4002 31.6151 47.7246 29.9396 45.6577 29.9396Z" fill="#FFD064"/>
<path d="M21.4025 24.9115L22.0452 27.4828C22.4062 28.9267 23.7035 29.9396 25.1919 29.9396H28.9343C27.4459 29.9396 26.1486 28.9266 25.7876 27.4828L25.1449 24.9115C24.7839 23.4676 23.4866 22.4548 21.9983 22.4548H18.2559C19.7442 22.4548 21.0415 23.4676 21.4025 24.9115Z" fill="#FFD064"/>
<path d="M38.0303 6.54936H10.9343C10.4176 6.54936 9.99878 6.1305 9.99878 5.61379C9.99878 5.09709 10.4176 4.67822 10.9343 4.67822H38.0303C38.5471 4.67822 38.9659 5.09709 38.9659 5.61379C38.9659 6.1305 38.5471 6.54936 38.0303 6.54936Z" fill="#A198A4"/>
<path d="M32.4166 12.163H10.9343C10.4176 12.163 9.99878 11.7441 9.99878 11.2274C9.99878 10.7107 10.4176 10.2919 10.9343 10.2919H32.4166C32.9335 10.2919 33.3522 10.7107 33.3522 11.2274C33.3523 11.744 32.9335 12.163 32.4166 12.163Z" fill="#A198A4"/>
<path d="M30.5454 17.7767H10.9343C10.4176 17.7767 9.99878 17.3578 9.99878 16.8411C9.99878 16.3244 10.4176 15.9055 10.9343 15.9055H30.5454C31.0621 15.9055 31.4809 16.3244 31.4809 16.8411C31.4809 17.3578 31.0622 17.7767 30.5454 17.7767Z" fill="#A198A4"/>
<path d="M40.5522 39.4004L36.3522 36.9754L41.4491 28.1476L45.6491 30.5726L40.5522 39.4004Z" fill="#A198A4"/>
<path d="M29.1768 54.2509C31.1886 55.4124 33.7612 54.7231 34.9227 52.7113L42.3697 39.8126C42.8616 38.9606 42.5696 37.8712 41.7177 37.3793L37.5176 34.9544C36.6656 34.4626 35.5762 34.7545 35.0844 35.6064L27.6373 48.5051C26.4757 50.5168 27.1649 53.0893 29.1768 54.2509Z" fill="#655E68"/>
<path d="M41.7175 37.3793L37.5174 34.9543C36.6654 34.4624 35.576 34.7544 35.0841 35.6063L35.0392 35.6842L37.9751 37.3792C38.8271 37.8711 39.119 38.9606 38.6271 39.8125L31.1801 52.7111C30.7499 53.4561 30.1262 54.0192 29.4092 54.3746C31.3826 55.3569 33.8052 54.6463 34.9225 52.7111L42.3695 39.8125C42.8615 38.9606 42.5695 37.8711 41.7175 37.3793Z" fill="#544F57"/>
<path d="M38.6985 32.909C39.9547 33.921 41.3676 34.746 42.8949 35.3406L45.6483 30.5714L41.4482 28.1465L38.6985 32.909Z" fill="#8B808E"/>
<path d="M60.8954 25.8376C63.8263 19.0603 60.7082 11.1902 53.9309 8.25929C47.1536 5.32836 39.2835 8.44647 36.3526 15.2238C33.4216 22.0011 36.5397 29.8712 43.3171 32.8021C50.0944 35.733 57.9644 32.6149 60.8954 25.8376Z" fill="#A4CCFF"/>
<path d="M48.6325 7.18481C47.9975 7.18481 47.373 7.23035 46.7612 7.31644C53.2493 8.22937 58.2575 13.8165 58.2575 20.5525C58.2575 27.2883 53.2493 32.8755 46.7612 33.7884C47.3729 33.8745 47.9974 33.92 48.6325 33.92C56.0033 33.92 62 27.9233 62 20.5525C62 13.1815 56.0033 7.18481 48.6325 7.18481Z" fill="#8BB3EA"/>
<path d="M50.6512 28.5641C55.0834 27.4641 57.7846 22.9793 56.6846 18.5472C55.5845 14.1151 51.0997 11.4139 46.6675 12.514C42.2353 13.614 39.5341 18.0988 40.6341 22.5309C41.7342 26.963 46.219 29.6642 50.6512 28.5641Z" fill="#E6ECF8"/>
<path d="M48.6325 12.2876C47.9888 12.2876 47.3629 12.364 46.7612 12.5039C50.4197 13.3543 53.1549 16.6389 53.1549 20.5525C53.1549 24.466 50.4197 27.7505 46.7612 28.601C47.3629 28.7408 47.9888 28.8173 48.6325 28.8173C53.1897 28.8173 56.8973 25.1097 56.8973 20.5525C56.8973 15.9951 53.1897 12.2876 48.6325 12.2876Z" fill="#D7E1F3"/>
</g>
<defs>
<clipPath id="clip0_11_2204">
<rect width="62" height="62" fill="white"/>
</clipPath>
</defs>
</svg>
