<svg width="24" height="24" viewBox="0 0 24 24" fill="none" xmlns="http://www.w3.org/2000/svg">
<path d="M18.6667 0H5.33333C2.38781 0 0 2.38781 0 5.33333V18.6667C0 21.6122 2.38781 24 5.33333 24H18.6667C21.6122 24 24 21.6122 24 18.6667V5.33333C24 2.38781 21.6122 0 18.6667 0Z" fill="white"/>
<path d="M20.6663 17.1857C20.6303 17.611 20.4281 18.0049 20.1037 18.2821C19.7793 18.5594 19.3587 18.6977 18.933 18.6671H5.06634C4.64068 18.6977 4.22008 18.5594 3.89565 18.2821C3.57122 18.0049 3.36908 17.611 3.33301 17.1857V6.81505C3.36908 6.38981 3.57122 5.9959 3.89565 5.71864C4.22008 5.44138 4.64068 5.30308 5.06634 5.33372H9.39967L11.133 7.55638H18.933C19.3587 7.52575 19.7793 7.66404 20.1037 7.94131C20.4281 8.21857 20.6303 8.61248 20.6663 9.03772V17.1857Z" fill="#FFE271" stroke="#80732C" stroke-width="1.12445" stroke-linecap="round" stroke-linejoin="round"/>
</svg>
