<svg width="190" height="10" viewBox="0 0 190 10" fill="none" xmlns="http://www.w3.org/2000/svg">
<rect width="63.9619" height="7.92916" transform="matrix(-1 0 0 1 68.1602 0)" fill="#ACADAF"/>
<rect width="33.8311" height="7.92916" transform="matrix(-1 0 0 1 163.31 0)" fill="#ACADAF"/>
<rect width="11.6294" height="5.81471" transform="matrix(-1 0 0 1 142.694 1.05713)" fill="#F4F5F8"/>
<rect width="1.05722" height="5.81471" transform="matrix(-1 0 0 1 161.725 1.05713)" fill="#E2E2E6"/>
<rect width="1.05722" height="5.81471" transform="matrix(-1 0 0 1 160.667 1.05713)" fill="#F4F5F8"/>
<rect width="1.05722" height="5.81471" transform="matrix(-1 0 0 1 159.609 1.05713)" fill="#F4F5F8"/>
<rect width="1.05722" height="5.81471" transform="matrix(-1 0 0 1 158.553 1.05713)" fill="#CACCD0"/>
<rect width="1.05722" height="5.81471" transform="matrix(-1 0 0 1 157.495 1.05713)" fill="#F4F5F8"/>
<rect width="1.05722" height="5.81471" transform="matrix(-1 0 0 1 156.438 1.05713)" fill="#CBCDD0"/>
<rect width="3.70027" height="7.92916" transform="matrix(-1 0 0 1 4.19824 0)" fill="#83858B"/>
<rect width="2.11444" height="7.92916" transform="matrix(-1 0 0 1 70.2744 0)" fill="#83858B"/>
<rect width="2.11444" height="7.92916" transform="matrix(-1 0 0 1 72.3887 0)" fill="#A3A4A6"/>
<rect width="2.11444" height="4.75749" transform="matrix(-1 0 0 1 74.5039 3.17188)" fill="#A3A4A6"/>
<rect width="2.11444" height="3.17166" transform="matrix(-1 0 0 1 76.6182 4.75732)" fill="#989A9C"/>
<rect width="52.861" height="3.17166" transform="matrix(-1 0 0 1 129.479 4.75732)" fill="#919296"/>
<rect width="27" height="3" transform="matrix(-1 0 0 1 189.498 5)" fill="#AAABAD"/>
<rect width="189" height="2" transform="matrix(-1 0 0 1 189.498 8)" fill="#BDBEC1"/>
</svg>
