<svg xmlns="http://www.w3.org/2000/svg" width="77" height="23" viewBox="0 0 77 23">
  <g id="Group_18488" data-name="Group 18488" transform="translate(-1181 -766)">
    <g id="Group_18486" data-name="Group 18486" transform="translate(0 6)">
      <g id="Group_18476" data-name="Group 18476">
        <circle id="Ellipse_36" data-name="Ellipse 36" cx="2.5" cy="2.5" r="2.5" transform="translate(1181 760)" fill="#707070"/>
        <circle id="Ellipse_38" data-name="Ellipse 38" cx="2.5" cy="2.5" r="2.5" transform="translate(1194 760)" fill="#707070"/>
        <circle id="Ellipse_37" data-name="Ellipse 37" cx="2.5" cy="2.5" r="2.5" transform="translate(1188 760)" fill="#707070"/>
        <circle id="Ellipse_39" data-name="Ellipse 39" cx="2.5" cy="2.5" r="2.5" transform="translate(1201 760)" fill="#707070"/>
      </g>
      <g id="Group_18477" data-name="Group 18477" transform="translate(26)">
        <circle id="Ellipse_36-2" data-name="Ellipse 36" cx="2.5" cy="2.5" r="2.5" transform="translate(1181 760)" fill="#707070"/>
        <circle id="Ellipse_38-2" data-name="Ellipse 38" cx="2.5" cy="2.5" r="2.5" transform="translate(1194 760)" fill="#707070"/>
        <circle id="Ellipse_37-2" data-name="Ellipse 37" cx="2.5" cy="2.5" r="2.5" transform="translate(1188 760)" fill="#707070"/>
        <circle id="Ellipse_39-2" data-name="Ellipse 39" cx="2.5" cy="2.5" r="2.5" transform="translate(1201 760)" fill="#707070"/>
      </g>
      <g id="Group_18480" data-name="Group 18480" transform="translate(0 6)">
        <circle id="Ellipse_36-3" data-name="Ellipse 36" cx="2.5" cy="2.5" r="2.5" transform="translate(1181 760)" fill="#707070"/>
        <circle id="Ellipse_38-3" data-name="Ellipse 38" cx="2.5" cy="2.5" r="2.5" transform="translate(1194 760)" fill="#707070"/>
        <circle id="Ellipse_37-3" data-name="Ellipse 37" cx="2.5" cy="2.5" r="2.5" transform="translate(1188 760)" fill="#707070"/>
        <circle id="Ellipse_39-3" data-name="Ellipse 39" cx="2.5" cy="2.5" r="2.5" transform="translate(1201 760)" fill="#707070"/>
      </g>
      <g id="Group_18482" data-name="Group 18482" transform="translate(0 12)">
        <circle id="Ellipse_36-4" data-name="Ellipse 36" cx="2.5" cy="2.5" r="2.5" transform="translate(1181 760)" fill="#707070"/>
        <circle id="Ellipse_38-4" data-name="Ellipse 38" cx="2.5" cy="2.5" r="2.5" transform="translate(1194 760)" fill="#707070"/>
        <circle id="Ellipse_37-4" data-name="Ellipse 37" cx="2.5" cy="2.5" r="2.5" transform="translate(1188 760)" fill="#707070"/>
        <circle id="Ellipse_39-4" data-name="Ellipse 39" cx="2.5" cy="2.5" r="2.5" transform="translate(1201 760)" fill="#707070"/>
      </g>
      <g id="Group_18484" data-name="Group 18484" transform="translate(0 18)">
        <circle id="Ellipse_36-5" data-name="Ellipse 36" cx="2.5" cy="2.5" r="2.5" transform="translate(1181 760)" fill="#707070"/>
        <circle id="Ellipse_38-5" data-name="Ellipse 38" cx="2.5" cy="2.5" r="2.5" transform="translate(1194 760)" fill="#707070"/>
        <circle id="Ellipse_37-5" data-name="Ellipse 37" cx="2.5" cy="2.5" r="2.5" transform="translate(1188 760)" fill="#707070"/>
        <circle id="Ellipse_39-5" data-name="Ellipse 39" cx="2.5" cy="2.5" r="2.5" transform="translate(1201 760)" fill="#707070"/>
      </g>
      <g id="Group_18478" data-name="Group 18478" transform="translate(52)">
        <circle id="Ellipse_36-6" data-name="Ellipse 36" cx="2.5" cy="2.5" r="2.5" transform="translate(1181 760)" fill="#707070"/>
        <circle id="Ellipse_38-6" data-name="Ellipse 38" cx="2.5" cy="2.5" r="2.5" transform="translate(1194 760)" fill="#707070"/>
        <circle id="Ellipse_37-6" data-name="Ellipse 37" cx="2.5" cy="2.5" r="2.5" transform="translate(1188 760)" fill="#707070"/>
        <circle id="Ellipse_39-6" data-name="Ellipse 39" cx="2.5" cy="2.5" r="2.5" transform="translate(1201 760)" fill="#707070"/>
      </g>
      <g id="Group_18479" data-name="Group 18479" transform="translate(26 6)">
        <circle id="Ellipse_36-7" data-name="Ellipse 36" cx="2.5" cy="2.5" r="2.5" transform="translate(1181 760)" fill="#707070"/>
        <circle id="Ellipse_38-7" data-name="Ellipse 38" cx="2.5" cy="2.5" r="2.5" transform="translate(1194 760)" fill="#707070"/>
        <circle id="Ellipse_37-7" data-name="Ellipse 37" cx="2.5" cy="2.5" r="2.5" transform="translate(1188 760)" fill="#707070"/>
        <circle id="Ellipse_39-7" data-name="Ellipse 39" cx="2.5" cy="2.5" r="2.5" transform="translate(1201 760)" fill="#707070"/>
      </g>
      <g id="Group_18483" data-name="Group 18483" transform="translate(26 12)">
        <circle id="Ellipse_36-8" data-name="Ellipse 36" cx="2.5" cy="2.5" r="2.5" transform="translate(1181 760)" fill="#707070"/>
        <circle id="Ellipse_38-8" data-name="Ellipse 38" cx="2.5" cy="2.5" r="2.5" transform="translate(1194 760)" fill="#707070"/>
        <circle id="Ellipse_37-8" data-name="Ellipse 37" cx="2.5" cy="2.5" r="2.5" transform="translate(1188 760)" fill="#707070"/>
        <circle id="Ellipse_39-8" data-name="Ellipse 39" cx="2.5" cy="2.5" r="2.5" transform="translate(1201 760)" fill="#707070"/>
      </g>
      <g id="Group_18485" data-name="Group 18485" transform="translate(26 18)">
        <circle id="Ellipse_36-9" data-name="Ellipse 36" cx="2.5" cy="2.5" r="2.5" transform="translate(1181 760)" fill="#707070"/>
        <circle id="Ellipse_38-9" data-name="Ellipse 38" cx="2.5" cy="2.5" r="2.5" transform="translate(1194 760)" fill="#707070"/>
        <circle id="Ellipse_37-9" data-name="Ellipse 37" cx="2.5" cy="2.5" r="2.5" transform="translate(1188 760)" fill="#707070"/>
        <circle id="Ellipse_39-9" data-name="Ellipse 39" cx="2.5" cy="2.5" r="2.5" transform="translate(1201 760)" fill="#707070"/>
      </g>
      <g id="Group_18481" data-name="Group 18481" transform="translate(52 6)">
        <circle id="Ellipse_36-10" data-name="Ellipse 36" cx="2.5" cy="2.5" r="2.5" transform="translate(1181 760)" fill="#707070"/>
        <circle id="Ellipse_38-10" data-name="Ellipse 38" cx="2.5" cy="2.5" r="2.5" transform="translate(1194 760)" fill="#707070"/>
        <circle id="Ellipse_37-10" data-name="Ellipse 37" cx="2.5" cy="2.5" r="2.5" transform="translate(1188 760)" fill="#707070"/>
        <circle id="Ellipse_39-10" data-name="Ellipse 39" cx="2.5" cy="2.5" r="2.5" transform="translate(1201 760)" fill="#707070"/>
      </g>
    </g>
  </g>
</svg>
