<svg width="189" height="10" viewBox="0 0 189 10" fill="none" xmlns="http://www.w3.org/2000/svg">
<rect x="121.338" width="63.9619" height="7.92916" fill="#ACADAF"/>
<rect x="26.1885" width="33.8311" height="7.92916" fill="#ACADAF"/>
<rect x="46.8037" y="1.05713" width="11.6294" height="5.81471" fill="#F4F5F8"/>
<rect x="27.7734" y="1.05713" width="1.05722" height="5.81471" fill="#E2E2E6"/>
<rect x="28.8311" y="1.05713" width="1.05722" height="5.81471" fill="#F4F5F8"/>
<rect x="29.8887" y="1.05713" width="1.05722" height="5.81471" fill="#F4F5F8"/>
<rect x="30.9453" y="1.05713" width="1.05722" height="5.81471" fill="#CACCD0"/>
<rect x="32.0029" y="1.05713" width="1.05722" height="5.81471" fill="#F4F5F8"/>
<rect x="33.0596" y="1.05713" width="1.05722" height="5.81471" fill="#CBCDD0"/>
<rect x="185.3" width="3.70027" height="7.92916" fill="#83858B"/>
<rect x="119.224" width="2.11444" height="7.92916" fill="#83858B"/>
<rect x="117.109" width="2.11444" height="7.92916" fill="#A3A4A6"/>
<rect x="114.994" y="3.17188" width="2.11444" height="4.75749" fill="#A3A4A6"/>
<rect x="112.88" y="4.75732" width="2.11444" height="3.17166" fill="#989A9C"/>
<rect x="60.0195" y="4.75732" width="52.861" height="3.17166" fill="#919296"/>
<rect y="5" width="27" height="3" fill="#AAABAD"/>
<rect y="8" width="189" height="2" fill="#BDBEC1"/>
</svg>
