<svg xmlns="http://www.w3.org/2000/svg" width="14.5" height="10.45" viewBox="0 0 14.5 10.45">
  <g id="Group_10154" data-name="Group 10154" transform="translate(-12974.91 -784.25)">
    <g id="Icon_feather-smartphone" data-name="Icon feather-smartphone" transform="translate(12989.91 782.25) rotate(90)">
      <path id="Path_9497" data-name="Path 9497" d="M3.85,1H10.6a1.35,1.35,0,0,1,1.35,1.35v10.8A1.35,1.35,0,0,1,10.6,14.5H3.85A1.35,1.35,0,0,1,2.5,13.15V2.35A1.35,1.35,0,0,1,3.85,1Z" transform="translate(0)" fill="none" stroke="#2680eb" stroke-linecap="round" stroke-linejoin="round" stroke-width="1"/>
    </g>
    <path id="Path_9498" data-name="Path 9498" d="M3.175,1H6.55a.675.675,0,0,1,.675.675v5.4a.675.675,0,0,1-.675.675H3.175A.675.675,0,0,1,2.5,7.075v-5.4A.675.675,0,0,1,3.175,1Z" transform="translate(12983.16 782.25) rotate(90)" fill="none" stroke="#2680eb" stroke-linecap="round" stroke-linejoin="round" stroke-width="1"/>
  </g>
</svg>
