<svg width="15" height="15" viewBox="0 0 15 15" fill="none" xmlns="http://www.w3.org/2000/svg">
<path d="M9.16667 0.805201C8.53531 0.606903 7.86347 0.5 7.16667 0.5C3.48477 0.5 0.5 3.48477 0.5 7.16667C0.5 10.8486 3.48477 13.8333 7.16667 13.8333C10.8486 13.8333 13.8333 10.8486 13.8333 7.16667C13.8333 6.02312 13.5454 4.94681 13.0381 4.0063M10.5 3H10.5033M6.1667 13.7588L6.16677 12.2899C6.16678 12.2104 6.19524 12.1334 6.24702 12.073L7.90421 10.1396C8.0404 9.98071 7.9982 9.73709 7.8165 9.63326L5.91236 8.54516C5.86062 8.51559 5.81776 8.4727 5.78822 8.42095L4.54697 6.24575C4.48237 6.13255 4.35772 6.06738 4.22789 6.07894L0.542789 6.40716M13.1667 3.16667C13.1667 4.63943 11.8333 5.83333 10.5 7.16667C9.16667 5.83333 7.83333 4.63943 7.83333 3.16667C7.83333 1.69391 9.02724 0.5 10.5 0.5C11.9728 0.5 13.1667 1.69391 13.1667 3.16667ZM10.6667 3C10.6667 3.09205 10.592 3.16667 10.5 3.16667C10.408 3.16667 10.3333 3.09205 10.3333 3C10.3333 2.90795 10.408 2.83333 10.5 2.83333C10.592 2.83333 10.6667 2.90795 10.6667 3Z" stroke="#434A51" stroke-linecap="round" stroke-linejoin="round"/>
</svg>
