<svg width="19" height="18" viewBox="0 0 19 18" fill="none" xmlns="http://www.w3.org/2000/svg">
<path d="M9.33398 0C4.38398 0 0.333984 4.05 0.333984 9C0.333984 13.95 4.38398 18 9.33398 18C14.284 18 18.334 13.95 18.334 9C18.334 4.05 14.284 0 9.33398 0ZM13.204 6.84L9.06398 12.24C8.88398 12.42 8.61398 12.6 8.34398 12.6C8.07398 12.6 7.80398 12.51 7.62398 12.24L5.46398 9.45C5.19398 9.09 5.19398 8.46 5.64398 8.19C6.09398 7.92 6.63398 7.92 6.90398 8.37L8.34398 10.26L11.764 5.76C12.034 5.4 12.664 5.31 13.024 5.58C13.474 5.85 13.474 6.39 13.204 6.84Z" fill="#34C759"/>
</svg>
