<svg width="21" height="22" viewBox="0 0 21 22" fill="none" xmlns="http://www.w3.org/2000/svg">
<path d="M11.6673 1.6665H5.00065C4.55862 1.6665 4.1347 1.8421 3.82214 2.15466C3.50958 2.46722 3.33398 2.89114 3.33398 3.33317V16.6665C3.33398 17.1085 3.50958 17.5325 3.82214 17.845C4.1347 18.1576 4.55862 18.3332 5.00065 18.3332H15.0007C15.4427 18.3332 15.8666 18.1576 16.1792 17.845C16.4917 17.5325 16.6673 17.1085 16.6673 16.6665V6.6665L11.6673 1.6665Z" stroke="#2680EA" stroke-width="1.5" stroke-linecap="round" stroke-linejoin="round"/>
<path d="M11.666 1.6665V6.6665H16.666" stroke="#2680EA" stroke-width="1.5" stroke-linecap="round" stroke-linejoin="round"/>
<path d="M13.3327 10.8335H6.66602" stroke="#2680EA" stroke-width="1.5" stroke-linecap="round" stroke-linejoin="round"/>
<path d="M13.3327 14.1665H6.66602" stroke="#2680EA" stroke-width="1.5" stroke-linecap="round" stroke-linejoin="round"/>
<path d="M8.33268 7.5H7.49935H6.66602" stroke="#2680EA" stroke-width="1.5" stroke-linecap="round" stroke-linejoin="round"/>
<g clip-path="url(#clip0_3_7690)">
<path d="M13 18C13 15.7909 14.7909 14 17 14H21V22H13V18Z" fill="white"/>
<path fill-rule="evenodd" clip-rule="evenodd" d="M17.002 14.502C18.9346 14.502 20.502 16.0693 20.502 18.002C20.502 19.9346 18.9346 21.502 17.002 21.502C15.0693 21.502 13.502 19.9346 13.502 18.002C13.502 16.0693 15.0693 14.502 17.002 14.502ZM16.2752 19.1388L15.4183 18.2812C15.2723 18.1351 15.2722 17.8969 15.4183 17.7509C15.5643 17.6049 15.8036 17.6058 15.9485 17.7509L16.5527 18.3555L18.0555 16.8527C18.2015 16.7066 18.4397 16.7066 18.5857 16.8527C18.7318 16.9987 18.7316 17.2371 18.5857 17.383L16.8174 19.1513C16.6715 19.2972 16.4331 19.2974 16.2871 19.1513C16.283 19.1472 16.279 19.1431 16.2752 19.1388Z" fill="#00BA00"/>
</g>
<defs>
<clipPath id="clip0_3_7690">
<path d="M13 18C13 15.7909 14.7909 14 17 14H21V22H13V18Z" fill="white"/>
</clipPath>
</defs>
</svg>
