<svg id="Component_131" data-name="Component 131" xmlns="http://www.w3.org/2000/svg" width="14" height="11.175" viewBox="0 0 14 11.175">
  <path id="Path_7484" data-name="Path 7484" d="M2.053,283.222a11.271,11.271,0,0,1,9.9,0c2.732,1.527,2.732,4.007,0,5.535a11.271,11.271,0,0,1-9.9,0c-2.732-1.527-2.732-4.007,0-5.535Z" transform="translate(-0.003 -278.728)" fill="#8b8b8b"/>
  <path id="Path_7485" data-name="Path 7485" d="M.005,368.72h14v3.349h-14Z" transform="translate(-0.005 -364.807)" fill="#8b8b8b"/>
  <path id="Path_7486" data-name="Path 7486" d="M2.053,1.15a11.271,11.271,0,0,1,9.9,0c2.732,1.527,2.732,4.007,0,5.535a11.271,11.271,0,0,1-9.9,0C-.68,5.157-.68,2.677,2.053,1.15Z" transform="translate(-0.003 -0.005)" fill="#cbcbcb"/>
</svg>
