<svg width="28" height="28" viewBox="0 0 28 28" fill="none" xmlns="http://www.w3.org/2000/svg">
<circle cx="14" cy="14" r="12" transform="matrix(-1 0 0 1 28 0)" stroke="#E6E7E8" stroke-width="4"/>
<mask id="mask0_851_196535" style="mask-type:alpha" maskUnits="userSpaceOnUse" x="0" y="0" width="28" height="28">
<circle cx="14" cy="14" r="12" transform="matrix(-1 0 0 1 28 0)" stroke="#2680EA" stroke-width="4"/>
</mask>
<g mask="url(#mask0_851_196535)">
<mask id="mask1_851_196535" style="mask-type:alpha" maskUnits="userSpaceOnUse" x="-6" y="-6" width="40" height="40">
<path d="M12.4343 27.9132C10.6073 27.7076 8.83874 27.1442 7.2295 26.2551C5.62026 25.3661 4.2019 24.1687 3.0554 22.7315C1.90889 21.2943 1.0567 19.6453 0.547468 17.8787C0.0382398 16.1121 -0.118049 14.2626 0.0875256 12.4356L13.9997 14.001L12.4343 27.9132Z" fill="#373742"/>
<path d="M0.0875244 12.4355C0.293099 10.6086 0.856509 8.83996 1.74559 7.23072C2.63467 5.62148 3.832 4.20312 5.26924 3.05662C6.70647 1.91011 8.35545 1.05792 10.122 0.548689C11.8886 0.0394605 13.7382 -0.116828 15.5652 0.0887463L13.9997 14.001L0.0875244 12.4355Z" fill="#373742"/>
<path d="M15.5652 0.0887451C17.3922 0.294319 19.1608 0.85773 20.77 1.74681C22.3793 2.63589 23.7976 3.83323 24.9441 5.27046C26.0906 6.70769 26.9428 8.35667 27.452 10.1232C27.9613 11.8898 28.1176 13.7394 27.912 15.5664L13.9998 14.001L15.5652 0.0887451Z" fill="#373742"/>
<path d="M15.5652 0.0887451C17.3922 0.294319 19.1608 0.85773 20.77 1.74681C22.3793 2.63589 23.7976 3.83323 24.9441 5.27046C26.0906 6.70769 26.9428 8.35667 27.452 10.1232C27.9613 11.8898 28.1176 13.7394 27.912 15.5664L13.9998 14.001L15.5652 0.0887451Z" fill="#373742"/>
</mask>
<g mask="url(#mask1_851_196535)">
<path d="M12.4346 27.9132C10.6076 27.7076 8.83898 27.1442 7.22974 26.2551C5.62051 25.3661 4.20214 24.1687 3.05564 22.7315C1.90913 21.2943 1.05694 19.6453 0.547713 17.8787C0.0384839 16.1121 -0.117804 14.2626 0.0877697 12.4356L14 14.001L12.4346 27.9132Z" fill="#2680EA"/>
<path d="M0.0877685 12.4355C0.293343 10.6086 0.856754 8.83996 1.74583 7.23072C2.63491 5.62148 3.83225 4.20312 5.26948 3.05662C6.70671 1.91011 8.35569 1.05792 10.1223 0.548689C11.8888 0.0394605 13.7384 -0.116828 15.5654 0.0887463L14 14.001L0.0877685 12.4355Z" fill="#2680EA"/>
<path d="M0.0877685 12.4355C0.293343 10.6086 0.856754 8.83996 1.74583 7.23072C2.63491 5.62148 3.83225 4.20312 5.26948 3.05662C6.70671 1.91011 8.35569 1.05792 10.1223 0.548689C11.8888 0.0394605 13.7384 -0.116828 15.5654 0.0887463L14 14.001L0.0877685 12.4355Z" fill="#2680EA"/>
<path d="M0.0877682 12.4355C0.293342 10.6086 0.856753 8.83996 1.74583 7.23072C2.63491 5.62148 3.83225 4.20312 5.26948 3.05662C6.70671 1.91011 8.35569 1.05792 10.1223 0.548689C11.8888 0.0394607 13.7384 -0.116828 15.5654 0.0887467L14 14.001L0.0877682 12.4355Z" fill="#2680EA"/>
</g>
</g>
</svg>
