<svg id="huawei_4_" data-name="huawei (4)" xmlns="http://www.w3.org/2000/svg" width="15.367" height="15.349" viewBox="0 0 15.367 15.349">
  <g id="Group_18765" data-name="Group 18765" transform="translate(0 0)">
    <path id="Path_13615" data-name="Path 13615" d="M37.936,69.162a.06.06,0,0,0-.09,0,3.813,3.813,0,0,0-1.2,2.506,2.263,2.263,0,0,0,.777,1.538,18.251,18.251,0,0,0,4.67,2.913c.009,0,.044.014.064-.011a.05.05,0,0,0,.013-.058A35.306,35.306,0,0,0,37.936,69.162Z" transform="translate(-35.542 -67.072)" fill="#e85454"/>
    <path id="Path_13616" data-name="Path 13616" d="M52.532,332.29c-.012-.04-.061-.04-.061-.04v0l-4.623.161a.061.061,0,0,0-.05.092,2.2,2.2,0,0,0,2.222,1.315,11.947,11.947,0,0,0,2.489-1.466h0C52.544,332.315,52.532,332.29,52.532,332.29Z" transform="translate(-46.355 -322.284)" fill="#e85454"/>
    <path id="Path_13617" data-name="Path 13617" d="M6.231,203.419C4.31,202.123.724,200.186.2,199.9a.06.06,0,0,0-.086.036,2.8,2.8,0,0,0,1.638,3.385,2.9,2.9,0,0,0,.9.2c.07.013,2.809,0,3.543,0a.061.061,0,0,0,.047-.031C6.271,203.452,6.231,203.419,6.231,203.419Z" transform="translate(0 -193.906)" fill="#e85454"/>
    <path id="Path_13618" data-name="Path 13618" d="M139.836.427A2.269,2.269,0,0,0,138.3,3.383v0c.418,1.852,2.471,4.895,2.913,5.533.031.031.056.018.056.018a.056.056,0,0,0,.044-.058h0c.63-6.295-.519-8.3-.692-8.567a.06.06,0,0,0-.058-.027C140.332.315,139.836.427,139.836.427Z" transform="translate(-134.035 -0.285)" fill="#e85454"/>
    <path id="Path_13619" data-name="Path 13619" d="M266.6,1.943v0A2.192,2.192,0,0,0,265.042.485S264.7.4,264.336.343c-.152-.023-1.4,2.164-.756,8.6a.061.061,0,0,0,.036.052.054.054,0,0,0,.068-.026h0c.454-.656,2.5-3.684,2.912-5.527A3.136,3.136,0,0,0,266.6,1.943Z" transform="translate(-255.491 -0.341)" fill="#e85454"/>
    <path id="Path_13620" data-name="Path 13620" d="M306.25,332.355l-.008,0a.06.06,0,0,0-.04.082.049.049,0,0,0,.013.016h0a12.326,12.326,0,0,0,2.484,1.469s1.181.4,2.229-1.318a.061.061,0,0,0-.05-.093l-4.627-.16Z" transform="translate(-297.007 -322.388)" fill="#e85454"/>
    <path id="Path_13621" data-name="Path 13621" d="M309.773,199.629a.061.061,0,0,0-.087-.037c-.523.282-4.106,2.225-6.027,3.52h0a.057.057,0,0,0,.024.1c.743,0,3.558.005,3.628-.007a2.892,2.892,0,0,0,.813-.188,2.771,2.771,0,0,0,1.521-1.455A2.858,2.858,0,0,0,309.773,199.629Z" transform="translate(-294.52 -193.603)" fill="#e85454"/>
    <path id="Path_13622" data-name="Path 13622" d="M296.73,71.633a3.739,3.739,0,0,0-1.2-2.5.06.06,0,0,0-.09,0A35.269,35.269,0,0,0,291.215,76h0a.059.059,0,0,0,.077.082,18.956,18.956,0,0,0,4.661-2.908A2.28,2.28,0,0,0,296.73,71.633Z" transform="translate(-282.469 -67.049)" fill="#e85454"/>
  </g>
  <g id="Group_18766" data-name="Group 18766">
    <path id="Path_13623" data-name="Path 13623" d="M42.039,75.758A16.46,16.46,0,0,1,38.064,73.2a2.263,2.263,0,0,1-.777-1.538,3.366,3.366,0,0,1,.905-2.178c-.119-.154-.206-.264-.254-.323a.06.06,0,0,0-.09,0,3.813,3.813,0,0,0-1.2,2.506,2.263,2.263,0,0,0,.777,1.538,18.264,18.264,0,0,0,4.67,2.913c.009,0,.044.014.064-.011a.05.05,0,0,0,.013-.058Q42.106,75.9,42.039,75.758Z" transform="translate(-35.543 -67.072)" fill="#d84848"/>
    <path id="Path_13624" data-name="Path 13624" d="M3.3,203.522a2.9,2.9,0,0,1-.9-.2,2.8,2.8,0,0,1-1.7-3.153L.2,199.9a.06.06,0,0,0-.086.036,2.8,2.8,0,0,0,1.638,3.385,2.9,2.9,0,0,0,.9.2c.03.006.56.007,1.211.006C3.538,203.528,3.315,203.526,3.3,203.522Z" transform="translate(0 -193.906)" fill="#d84848"/>
    <path id="Path_13625" data-name="Path 13625" d="M141.371,8.208a18.831,18.831,0,0,1-2.436-4.822v0A2.269,2.269,0,0,1,140.475.426l.187-.041c-.019-.032-.034-.057-.045-.074a.06.06,0,0,0-.058-.027c-.228.029-.723.141-.723.141A2.269,2.269,0,0,0,138.3,3.382v0c.418,1.852,2.471,4.895,2.913,5.533.031.031.056.018.056.018a.056.056,0,0,0,.044-.058h0C141.332,8.649,141.353,8.426,141.371,8.208Z" transform="translate(-134.035 -0.285)" fill="#d84848"/>
    <path id="Path_13626" data-name="Path 13626" d="M264.871.444c-.133-.03-.329-.07-.535-.1-.152-.023-1.4,2.164-.756,8.6a.061.061,0,0,0,.036.052.054.054,0,0,0,.068-.026h0c.1-.139.264-.385.472-.7C263.727,3.128,264.551.92,264.871.444Z" transform="translate(-255.491 -0.341)" fill="#d84848"/>
    <path id="Path_13627" data-name="Path 13627" d="M306.881,332.376l-.63-.022h0l-.008,0a.06.06,0,0,0-.04.082.048.048,0,0,0,.013.016h0a12.324,12.324,0,0,0,2.484,1.469,1.35,1.35,0,0,0,.744-.02A13.686,13.686,0,0,1,306.881,332.376Z" transform="translate(-297.007 -322.388)" fill="#d84848"/>
    <path id="Path_13628" data-name="Path 13628" d="M309.872,200.134a2.681,2.681,0,0,0-.1-.5.061.061,0,0,0-.087-.037c-.523.282-4.106,2.225-6.027,3.52h0a.057.057,0,0,0,.024.1h.93C306.187,202.19,308.525,200.876,309.872,200.134Z" transform="translate(-294.519 -193.603)" fill="#d84848"/>
    <path id="Path_13629" data-name="Path 13629" d="M295.828,69.458c-.129-.154-.238-.266-.3-.325a.06.06,0,0,0-.09,0A35.268,35.268,0,0,0,291.215,76h0a.059.059,0,0,0,.077.082q.36-.179.686-.349A35.731,35.731,0,0,1,295.828,69.458Z" transform="translate(-282.469 -67.05)" fill="#d84848"/>
  </g>
  <g id="Group_18767" data-name="Group 18767" transform="translate(0 12.85)">
    <path id="Path_13630" data-name="Path 13630" d="M1.787,429.426H.592a.03.03,0,0,1-.03-.03v-.942a.03.03,0,0,0-.03-.03H.03a.03.03,0,0,0-.03.03v2.414a.03.03,0,0,0,.03.03h.5a.03.03,0,0,0,.03-.03V429.9a.03.03,0,0,1,.03-.03H1.787a.03.03,0,0,1,.03.03v.973a.03.03,0,0,0,.03.03h.505a.03.03,0,0,0,.03-.03v-2.414a.03.03,0,0,0-.03-.03h-.5a.03.03,0,0,0-.03.03v.942A.03.03,0,0,1,1.787,429.426Z" transform="translate(0 -428.425)" fill="#c2c2c4"/>
    <path id="Path_13631" data-name="Path 13631" d="M96.488,429.913c0,.436-.134.618-.6.618s-.6-.182-.6-.618v-1.453a.03.03,0,0,0-.03-.03h-.5a.03.03,0,0,0-.03.03v1.465a.97.97,0,0,0,.152.664,1.662,1.662,0,0,0,2.017,0,.977.977,0,0,0,.157-.664v-1.465a.03.03,0,0,0-.03-.03h-.5a.03.03,0,0,0-.03.03v1.453Z" transform="translate(-91.882 -428.431)" fill="#c2c2c4"/>
    <path id="Path_13632" data-name="Path 13632" d="M177.546,428.443l-1.106,2.414a.03.03,0,0,0,.027.042H177a.03.03,0,0,0,.028-.019l.224-.552a.03.03,0,0,1,.027-.019H178.4a.03.03,0,0,1,.027.018l.231.552a.03.03,0,0,0,.027.018h.561a.03.03,0,0,0,.027-.042l-1.113-2.414a.03.03,0,0,0-.027-.017h-.559A.03.03,0,0,0,177.546,428.443Zm-.091,1.385.348-.843a.03.03,0,0,1,.055,0l.36.843a.03.03,0,0,1-.027.041h-.709A.03.03,0,0,1,177.455,429.829Z" transform="translate(-171.142 -428.426)" fill="#c2c2c4"/>
    <path id="Path_13633" data-name="Path 13633" d="M263.3,430.234l-.564-1.79a.03.03,0,0,0-.028-.021h-.62a.03.03,0,0,0-.029.022l-.49,1.784a.03.03,0,0,1-.057,0l-.582-1.787a.03.03,0,0,0-.028-.021h-.54a.03.03,0,0,0-.028.04l.871,2.414a.03.03,0,0,0,.028.02h.642a.03.03,0,0,0,.029-.022l.466-1.726a.03.03,0,0,1,.057,0l.534,1.728a.03.03,0,0,0,.028.021h.647a.03.03,0,0,0,.028-.02l.807-2.414a.03.03,0,0,0-.028-.039h-.514a.03.03,0,0,0-.028.021l-.544,1.789A.03.03,0,0,1,263.3,430.234Z" transform="translate(-252.517 -428.424)" fill="#c2c2c4"/>
    <path id="Path_13634" data-name="Path 13634" d="M402.713,429.707a1.124,1.124,0,0,0,.41.974,1.265,1.265,0,0,0,.835.217h.921a.03.03,0,0,0,.03-.03V430.5a.03.03,0,0,0-.03-.03h-.894c-.433,0-.625-.156-.637-.576a.03.03,0,0,1,.03-.03h1.5a.03.03,0,0,0,.03-.03v-.372a.03.03,0,0,0-.03-.03h-1.5a.03.03,0,0,1-.03-.032.545.545,0,0,1,.631-.542h.894a.03.03,0,0,0,.03-.03v-.372a.03.03,0,0,0-.03-.03h-.906C403.112,428.425,402.713,428.833,402.713,429.707Z" transform="translate(-390.626 -428.425)" fill="#c2c2c4"/>
    <path id="Path_13635" data-name="Path 13635" d="M492.415,428.454v2.414a.03.03,0,0,0,.03.03h.529a.03.03,0,0,0,.03-.03v-2.414a.03.03,0,0,0-.03-.03h-.529A.03.03,0,0,0,492.415,428.454Z" transform="translate(-477.636 -428.424)" fill="#c2c2c4"/>
  </g>
  <path id="Path_13636" data-name="Path 13636" d="M48.5,337.186h0a.666.666,0,0,1-.053-.086l-.007-.012a.061.061,0,0,1-.007-.019.262.262,0,0,1-.023-.093l-.559.02a.061.061,0,0,0-.05.092,2.21,2.21,0,0,0,2.207,1.318A2.621,2.621,0,0,1,48.5,337.186Z" transform="translate(-46.357 -326.872)" fill="#d84848"/>
</svg>
