<svg width="15" height="12" viewBox="0 0 15 12" fill="none" xmlns="http://www.w3.org/2000/svg">
<path d="M0.833333 5.83333H13.5M3.16667 8.5H5.83333M5.14438 0.5H9.18896C9.90687 0.5 10.2658 0.5 10.5827 0.60931C10.863 0.705974 11.1182 0.863731 11.33 1.07116C11.5695 1.30573 11.7301 1.6268 12.0511 2.26892L13.4955 5.15767C13.6215 5.40966 13.6845 5.53565 13.7289 5.6677C13.7684 5.78497 13.7969 5.90564 13.814 6.02818C13.8333 6.16615 13.8333 6.30702 13.8333 6.58875V7.96667C13.8333 9.08677 13.8333 9.64682 13.6153 10.0746C13.4236 10.451 13.1176 10.7569 12.7413 10.9487C12.3135 11.1667 11.7534 11.1667 10.6333 11.1667H3.7C2.57989 11.1667 2.01984 11.1667 1.59202 10.9487C1.21569 10.7569 0.909734 10.451 0.717987 10.0746C0.5 9.64682 0.5 9.08677 0.5 7.96667V6.58875C0.5 6.30702 0.5 6.16615 0.519316 6.02818C0.53647 5.90564 0.564958 5.78497 0.604413 5.6677C0.64884 5.53565 0.711839 5.40966 0.837833 5.15767L2.28221 2.26892C2.60327 1.62679 2.7638 1.30573 3.0033 1.07116C3.21509 0.863731 3.47034 0.705974 3.75059 0.60931C4.0675 0.5 4.42646 0.5 5.14438 0.5Z" stroke="#2680EA" stroke-linecap="round" stroke-linejoin="round"/>
</svg>
