<svg width="118" height="32" viewBox="0 0 118 32" fill="none" xmlns="http://www.w3.org/2000/svg">
<path d="M24.49 12C24.49 9.74566 23.5945 7.58365 22.0004 5.98959C20.4063 4.39553 18.2443 3.5 15.99 3.5C13.7357 3.5 11.5736 4.39553 9.97959 5.98959C8.38553 7.58365 7.48999 9.74566 7.48999 12C5.89869 11.9881 4.36783 12.6088 3.23417 13.7255C2.10052 14.8423 1.45693 16.3637 1.44499 17.955C1.43306 19.5463 2.05375 21.0772 3.17053 22.2108C4.28731 23.3445 5.80869 23.9881 7.39999 24C7.53142 24.0124 7.66399 23.9986 7.79006 23.9595C7.91613 23.9203 8.03321 23.8566 8.13454 23.772C8.23587 23.6874 8.31945 23.5836 8.38046 23.4666C8.44147 23.3495 8.47869 23.2215 8.48999 23.09C8.51518 22.8277 8.43582 22.5661 8.26916 22.362C8.10251 22.1579 7.86203 22.0278 7.59999 22C7.02335 21.9446 6.46562 21.7647 5.96537 21.4725C5.46512 21.1804 5.03428 20.7832 4.70266 20.3082C4.37103 19.8332 4.14653 19.2919 4.04468 18.7216C3.94283 18.1513 3.96606 17.5657 4.11276 17.0053C4.25947 16.4449 4.52614 15.9231 4.89435 15.4759C5.26256 15.0286 5.72351 14.6667 6.24533 14.4152C6.76715 14.1636 7.33738 14.0284 7.9166 14.0189C8.49581 14.0093 9.07018 14.1257 9.59999 14.36C9.72497 14.4194 9.86162 14.4501 9.99999 14.45C10.2271 14.4467 10.4464 14.3662 10.6217 14.2218C10.7969 14.0773 10.9178 13.8774 10.9644 13.6551C11.0109 13.4327 10.9804 13.2012 10.8778 12.9985C10.7753 12.7958 10.6067 12.6341 10.4 12.54C10.1162 12.4115 9.82172 12.3078 9.51999 12.23C9.51999 10.5061 10.2048 8.85279 11.4238 7.63381C12.6428 6.41482 14.2961 5.73 16.02 5.73C17.7439 5.73 19.3972 6.41482 20.6162 7.63381C21.8352 8.85279 22.52 10.5061 22.52 12.23C22.2183 12.3078 21.9238 12.4115 21.64 12.54C21.4333 12.6341 21.2647 12.7958 21.1621 12.9985C21.0596 13.2012 21.029 13.4327 21.0756 13.6551C21.1222 13.8774 21.243 14.0773 21.4183 14.2218C21.5936 14.3662 21.8129 14.4467 22.04 14.45C22.1784 14.4501 22.315 14.4194 22.44 14.36C22.9698 14.1257 23.5442 14.0093 24.1234 14.0189C24.7026 14.0284 25.2728 14.1636 25.7947 14.4152C26.3165 14.6667 26.7774 15.0286 27.1456 15.4759C27.5138 15.9231 27.7805 16.4449 27.9272 17.0053C28.0739 17.5657 28.0972 18.1513 27.9953 18.7216C27.8935 19.2919 27.669 19.8332 27.3373 20.3082C27.0057 20.7832 26.5749 21.1804 26.0746 21.4725C25.5744 21.7647 25.0166 21.9446 24.44 22C24.3085 22.0113 24.1805 22.0485 24.0634 22.1095C23.9464 22.1705 23.8425 22.2541 23.758 22.3555C23.6734 22.4568 23.6097 22.5739 23.5705 22.6999C23.5314 22.826 23.5176 22.9586 23.53 23.09C23.5525 23.3393 23.6677 23.5711 23.8529 23.7396C24.038 23.9081 24.2797 24.001 24.53 24H24.62C26.2113 23.9828 27.7306 23.3341 28.8436 22.1967C29.9566 21.0593 30.5722 19.5263 30.555 17.935C30.5378 16.3437 29.8891 14.8244 28.7517 13.7114C27.6143 12.5984 26.0813 11.9828 24.49 12Z" fill="#2680EA"/>
<path d="M15.223 20.8448C14.7317 20.8448 14.3341 21.2424 14.3341 21.7337V23.6981C14.3341 24.1895 14.7317 24.587 15.223 24.587C15.7143 24.587 16.1119 24.1895 16.1119 23.6981V21.7337C16.1119 21.2424 15.7143 20.8448 15.223 20.8448Z" fill="#2680EA"/>
<path d="M18.7783 17.4143C18.287 17.4143 17.8894 17.8119 17.8894 18.3032V23.6982C17.8894 24.1895 18.287 24.587 18.7783 24.587C19.2696 24.587 19.6672 24.1895 19.6672 23.6982V18.3032C19.6672 17.8119 19.2696 17.4143 18.7783 17.4143Z" fill="#2680EA"/>
<path d="M22.334 19.587C21.8426 19.587 21.4451 19.9846 21.4451 20.4759V23.6981C21.4451 24.1895 21.8426 24.587 22.334 24.587C22.8253 24.587 23.2228 24.1895 23.2228 23.6981V20.4759C23.2228 19.9846 22.8253 19.587 22.334 19.587Z" fill="#2680EA"/>
<path d="M11.6673 22.2095C11.1764 22.2095 10.7784 22.607 10.7784 23.0984V23.6982C10.7784 24.1895 11.1764 24.5871 11.6673 24.5871C12.1582 24.5871 12.5562 24.1895 12.5562 23.6982V23.0984C12.5562 22.607 12.1582 22.2095 11.6673 22.2095Z" fill="#2680EA"/>
<path d="M48.177 10.076V23H47.205C47.055 23 46.929 22.973 46.827 22.919C46.731 22.865 46.632 22.778 46.53 22.658L39.231 13.217C39.243 13.379 39.252 13.538 39.258 13.694C39.27 13.85 39.276 13.997 39.276 14.135V23H37.593V10.076H38.583C38.751 10.076 38.877 10.097 38.961 10.139C39.045 10.175 39.138 10.262 39.24 10.4L46.557 19.85C46.539 19.676 46.524 19.508 46.512 19.346C46.506 19.178 46.503 19.022 46.503 18.878V10.076H48.177ZM56.79 17.411C56.79 17.063 56.739 16.742 56.637 16.448C56.541 16.154 56.397 15.899 56.205 15.683C56.013 15.467 55.779 15.299 55.503 15.179C55.227 15.059 54.909 14.999 54.549 14.999C53.811 14.999 53.229 15.212 52.803 15.638C52.383 16.064 52.116 16.655 52.002 17.411H56.79ZM58.239 21.695C58.023 21.947 57.774 22.166 57.492 22.352C57.21 22.532 56.91 22.679 56.592 22.793C56.274 22.907 55.944 22.991 55.602 23.045C55.266 23.099 54.933 23.126 54.603 23.126C53.973 23.126 53.388 23.021 52.848 22.811C52.314 22.595 51.849 22.283 51.453 21.875C51.063 21.461 50.757 20.951 50.535 20.345C50.319 19.733 50.211 19.031 50.211 18.239C50.211 17.603 50.31 17.012 50.508 16.466C50.706 15.914 50.988 15.434 51.354 15.026C51.726 14.618 52.179 14.297 52.713 14.063C53.247 13.829 53.847 13.712 54.513 13.712C55.071 13.712 55.584 13.805 56.052 13.991C56.526 14.171 56.934 14.435 57.276 14.783C57.618 15.131 57.885 15.56 58.077 16.07C58.275 16.58 58.374 17.162 58.374 17.816C58.374 18.086 58.344 18.269 58.284 18.365C58.224 18.455 58.113 18.5 57.951 18.5H51.957C51.975 19.046 52.053 19.523 52.191 19.931C52.329 20.333 52.518 20.669 52.758 20.939C53.004 21.209 53.295 21.41 53.631 21.542C53.967 21.674 54.342 21.74 54.756 21.74C55.146 21.74 55.482 21.695 55.764 21.605C56.052 21.515 56.298 21.419 56.502 21.317C56.712 21.209 56.886 21.11 57.024 21.02C57.168 20.93 57.294 20.885 57.402 20.885C57.546 20.885 57.657 20.939 57.735 21.047L58.239 21.695ZM63.052 23.144C62.314 23.144 61.744 22.937 61.342 22.523C60.946 22.109 60.748 21.518 60.748 20.75V15.278H59.686C59.584 15.278 59.497 15.248 59.425 15.188C59.359 15.122 59.326 15.026 59.326 14.9V14.189L60.811 13.982L61.207 11.255C61.231 11.153 61.276 11.075 61.342 11.021C61.414 10.961 61.504 10.931 61.612 10.931H62.503V14H65.095V15.278H62.503V20.633C62.503 20.993 62.59 21.263 62.764 21.443C62.944 21.617 63.172 21.704 63.448 21.704C63.61 21.704 63.748 21.683 63.862 21.641C63.982 21.599 64.084 21.554 64.168 21.506C64.252 21.452 64.324 21.404 64.384 21.362C64.444 21.32 64.498 21.299 64.546 21.299C64.606 21.299 64.651 21.314 64.681 21.344C64.717 21.368 64.753 21.41 64.789 21.47L65.311 22.316C65.023 22.58 64.681 22.784 64.285 22.928C63.889 23.072 63.478 23.144 63.052 23.144ZM77.0975 23H75.1985C75.0605 23 74.9495 22.964 74.8655 22.892C74.7815 22.814 74.7155 22.733 74.6675 22.649L71.3285 17.33C71.2805 17.48 71.2235 17.609 71.1575 17.717L67.9085 22.649C67.8485 22.733 67.7795 22.814 67.7015 22.892C67.6235 22.964 67.5245 23 67.4045 23H65.6135L70.0325 16.349L65.8025 10.076H67.7015C67.8395 10.076 67.9415 10.097 68.0075 10.139C68.0735 10.181 68.1305 10.244 68.1785 10.328L71.4455 15.395C71.4935 15.239 71.5595 15.095 71.6435 14.963L74.7035 10.364C74.7575 10.268 74.8175 10.196 74.8835 10.148C74.9495 10.1 75.0335 10.076 75.1355 10.076H76.9625L72.7055 16.268L77.0975 23ZM80.0505 20.75C80.3385 21.128 80.6475 21.392 80.9775 21.542C81.3135 21.692 81.6885 21.767 82.1025 21.767C82.9065 21.767 83.5275 21.479 83.9655 20.903C84.4095 20.321 84.6315 19.475 84.6315 18.365C84.6315 17.783 84.5805 17.288 84.4785 16.88C84.3825 16.466 84.2385 16.13 84.0465 15.872C83.8605 15.608 83.6295 15.416 83.3535 15.296C83.0775 15.17 82.7655 15.107 82.4175 15.107C81.9075 15.107 81.4635 15.221 81.0855 15.449C80.7135 15.677 80.3685 16.001 80.0505 16.421V20.75ZM79.9605 15.224C80.1525 14.996 80.3565 14.789 80.5725 14.603C80.7945 14.411 81.0315 14.249 81.2835 14.117C81.5355 13.979 81.8025 13.874 82.0845 13.802C82.3725 13.724 82.6785 13.685 83.0025 13.685C83.5245 13.685 83.9955 13.787 84.4155 13.991C84.8415 14.195 85.2045 14.495 85.5045 14.891C85.8045 15.287 86.0355 15.776 86.1975 16.358C86.3655 16.94 86.4495 17.609 86.4495 18.365C86.4495 19.043 86.3565 19.673 86.1705 20.255C85.9905 20.831 85.7295 21.332 85.3875 21.758C85.0515 22.184 84.6375 22.52 84.1455 22.766C83.6595 23.006 83.1105 23.126 82.4985 23.126C81.9525 23.126 81.4845 23.036 81.0945 22.856C80.7045 22.676 80.3565 22.424 80.0505 22.1V26.069H78.2955V13.856H79.3485C79.5945 13.856 79.7475 13.973 79.8075 14.207L79.9605 15.224ZM90.2205 9.716V23H88.4565V9.716H90.2205ZM96.6241 13.712C97.2961 13.712 97.9021 13.823 98.4421 14.045C98.9881 14.261 99.4501 14.576 99.8281 14.99C100.212 15.398 100.506 15.893 100.71 16.475C100.914 17.051 101.016 17.699 101.016 18.419C101.016 19.139 100.914 19.79 100.71 20.372C100.506 20.954 100.212 21.449 99.8281 21.857C99.4501 22.265 98.9881 22.58 98.4421 22.802C97.9021 23.018 97.2961 23.126 96.6241 23.126C95.9461 23.126 95.3341 23.018 94.7881 22.802C94.2481 22.58 93.7861 22.265 93.4021 21.857C93.0181 21.449 92.7211 20.954 92.5111 20.372C92.3071 19.79 92.2051 19.139 92.2051 18.419C92.2051 17.699 92.3071 17.051 92.5111 16.475C92.7211 15.893 93.0181 15.398 93.4021 14.99C93.7861 14.576 94.2481 14.261 94.7881 14.045C95.3341 13.823 95.9461 13.712 96.6241 13.712ZM96.6241 21.758C97.4881 21.758 98.1331 21.467 98.5591 20.885C98.9851 20.303 99.1981 19.484 99.1981 18.428C99.1981 17.372 98.9851 16.553 98.5591 15.971C98.1331 15.383 97.4881 15.089 96.6241 15.089C95.7481 15.089 95.0941 15.383 94.6621 15.971C94.2361 16.553 94.0231 17.372 94.0231 18.428C94.0231 19.484 94.2361 20.303 94.6621 20.885C95.0941 21.467 95.7481 21.758 96.6241 21.758ZM104.631 15.611C104.925 15.011 105.279 14.54 105.693 14.198C106.107 13.856 106.605 13.685 107.187 13.685C107.385 13.685 107.571 13.709 107.745 13.757C107.925 13.799 108.081 13.865 108.213 13.955L108.096 15.278C108.054 15.44 107.955 15.521 107.799 15.521C107.715 15.521 107.589 15.506 107.421 15.476C107.253 15.44 107.073 15.422 106.881 15.422C106.599 15.422 106.35 15.464 106.134 15.548C105.918 15.626 105.723 15.746 105.549 15.908C105.381 16.064 105.231 16.259 105.099 16.493C104.967 16.721 104.844 16.982 104.73 17.276V23H102.975V13.856H103.983C104.175 13.856 104.304 13.892 104.37 13.964C104.442 14.03 104.493 14.15 104.523 14.324L104.631 15.611ZM115.29 17.411C115.29 17.063 115.239 16.742 115.137 16.448C115.041 16.154 114.897 15.899 114.705 15.683C114.513 15.467 114.279 15.299 114.003 15.179C113.727 15.059 113.409 14.999 113.049 14.999C112.311 14.999 111.729 15.212 111.303 15.638C110.883 16.064 110.616 16.655 110.502 17.411H115.29ZM116.739 21.695C116.523 21.947 116.274 22.166 115.992 22.352C115.71 22.532 115.41 22.679 115.092 22.793C114.774 22.907 114.444 22.991 114.102 23.045C113.766 23.099 113.433 23.126 113.103 23.126C112.473 23.126 111.888 23.021 111.348 22.811C110.814 22.595 110.349 22.283 109.953 21.875C109.563 21.461 109.257 20.951 109.035 20.345C108.819 19.733 108.711 19.031 108.711 18.239C108.711 17.603 108.81 17.012 109.008 16.466C109.206 15.914 109.488 15.434 109.854 15.026C110.226 14.618 110.679 14.297 111.213 14.063C111.747 13.829 112.347 13.712 113.013 13.712C113.571 13.712 114.084 13.805 114.552 13.991C115.026 14.171 115.434 14.435 115.776 14.783C116.118 15.131 116.385 15.56 116.577 16.07C116.775 16.58 116.874 17.162 116.874 17.816C116.874 18.086 116.844 18.269 116.784 18.365C116.724 18.455 116.613 18.5 116.451 18.5H110.457C110.475 19.046 110.553 19.523 110.691 19.931C110.829 20.333 111.018 20.669 111.258 20.939C111.504 21.209 111.795 21.41 112.131 21.542C112.467 21.674 112.842 21.74 113.256 21.74C113.646 21.74 113.982 21.695 114.264 21.605C114.552 21.515 114.798 21.419 115.002 21.317C115.212 21.209 115.386 21.11 115.524 21.02C115.668 20.93 115.794 20.885 115.902 20.885C116.046 20.885 116.157 20.939 116.235 21.047L116.739 21.695Z" fill="#2680EA"/>
</svg>
