<svg id="info_2_" data-name="info (2)" xmlns="http://www.w3.org/2000/svg" width="20" height="20" viewBox="0 0 20 20">
  <g id="Group_18778" data-name="Group 18778">
    <path id="Path_13641" data-name="Path 13641" d="M10,0A10,10,0,1,0,20,10,9.994,9.994,0,0,0,10,0Zm1.027,13.97c0,.316-.461.632-1.027.632-.592,0-1.014-.316-1.014-.632V8.954c0-.369.421-.619,1.014-.619.566,0,1.027.25,1.027.619ZM10,7.125a1.03,1.03,0,0,1-1.079-.948A1.02,1.02,0,0,1,10,5.242a1.016,1.016,0,0,1,1.066.935A1.026,1.026,0,0,1,10,7.125Z" fill="#95989a"/>
  </g>
</svg>
