<svg width="16" height="16" viewBox="0 0 16 16" fill="none" xmlns="http://www.w3.org/2000/svg">
<path d="M14 6.16667H10M14 2.66667H2M14 9.83334H10M14 13.3333H2M3.06667 10.6667H6.26667C6.64004 10.6667 6.82672 10.6667 6.96933 10.594C7.09477 10.5301 7.19676 10.4281 7.26067 10.3027C7.33333 10.1601 7.33333 9.97337 7.33333 9.60001V6.40001C7.33333 6.02664 7.33333 5.83995 7.26067 5.69734C7.19676 5.5719 7.09477 5.46992 6.96933 5.406C6.82672 5.33334 6.64004 5.33334 6.26667 5.33334H3.06667C2.6933 5.33334 2.50661 5.33334 2.36401 5.406C2.23856 5.46992 2.13658 5.5719 2.07266 5.69734C2 5.83995 2 6.02664 2 6.40001V9.60001C2 9.97337 2 10.1601 2.07266 10.3027C2.13658 10.4281 2.23856 10.5301 2.36401 10.594C2.50661 10.6667 2.6933 10.6667 3.06667 10.6667Z" stroke="#040D17" stroke-linecap="round" stroke-linejoin="round"/>
</svg>
