<svg width="652" height="635" viewBox="0 0 652 635" fill="none" xmlns="http://www.w3.org/2000/svg">
<rect width="652" height="635" fill="white"/>
<g style="mix-blend-mode:multiply">
<path d="M579.454 370.785C531.836 409.085 598.287 562.408 496.709 576.651C434.522 585.357 380.977 550.184 335.34 520.941C334.94 520.688 334.541 520.436 334.157 520.184C305.692 501.959 280.341 486.216 257.898 485.151C211.381 482.936 148.044 512.333 87.4711 501.342C86.8481 501.23 86.2251 501.104 85.6181 500.978C70.4748 498.02 55.5071 492.496 41.0347 483.244C-31.8547 436.73 9.05474 327.187 68.3023 279.509C127.55 231.831 60.3632 110.61 149.754 67.6147C208.187 39.507 287.561 69.1988 360.323 133.335C371.137 142.854 385.306 147.914 401.584 150.143C402.175 150.213 402.766 150.298 403.357 150.368C448.787 155.933 509.808 140.26 559.119 138.213C559.886 138.171 560.637 138.143 561.404 138.129C590.444 137.162 615.22 141.199 630.028 157.489C679.563 211.952 627.105 332.5 579.47 370.785H579.454Z" fill="#F0F5FF"/>
</g>
<path d="M122.215 488.072C133.463 488.072 142.582 478.954 142.582 467.706C142.582 456.458 133.463 447.34 122.215 447.34C110.967 447.34 101.849 456.458 101.849 467.706C101.849 478.954 110.967 488.072 122.215 488.072Z" stroke="#005594" stroke-width="2" stroke-miterlimit="10" stroke-linecap="round"/>
<path d="M421.754 511.797C443.186 511.797 460.559 494.423 460.559 472.992C460.559 451.561 443.186 434.188 421.754 434.188C400.323 434.188 382.95 451.561 382.95 472.992C382.95 494.423 400.323 511.797 421.754 511.797Z" stroke="#005594" stroke-width="2" stroke-miterlimit="10" stroke-linecap="round"/>
<path d="M235.035 329.523C167.957 329.523 113.402 384.091 113.402 451.17C113.402 471.011 118.175 489.764 126.647 506.314C127.159 506.432 127.657 506.537 128.168 506.655C119.5 490.04 114.608 471.169 114.608 451.17C114.608 384.747 168.639 330.716 235.048 330.716C301.458 330.716 355.488 384.747 355.488 451.17C355.488 478.631 346.243 503.98 330.69 524.268C331.017 524.504 331.345 524.74 331.66 524.976C347.358 504.492 356.682 478.893 356.682 451.17C356.682 384.091 302.114 329.523 235.035 329.523Z" fill="#005594"/>
<path d="M247.586 189.766C247.586 194.172 245.803 198.172 242.905 201.044C240.006 203.942 236.033 205.726 231.6 205.726H150.371C141.572 205.726 134.412 198.565 134.412 189.766C134.412 185.333 136.195 181.36 139.093 178.461C141.821 175.734 145.506 173.976 149.624 173.806V173.78C149.624 164.98 156.784 157.82 165.584 157.82C166.974 157.82 168.312 157.99 169.584 158.331C175.013 148.509 185.478 141.834 197.517 141.834C215.181 141.834 229.463 156.141 229.463 173.78H231.587C240.413 173.78 247.573 180.94 247.573 189.766H247.586Z" fill="#90CAF9"/>
<path d="M269.735 489.385L270.444 516.596L217.489 519.18L269.735 489.385Z" fill="#0095C2"/>
<path d="M217.489 519.18L269.735 489.385L292.738 508.334L217.489 519.18Z" fill="#90CAF9"/>
<path d="M217.489 519.18L261.631 482.709L246.891 468.362L217.489 519.18Z" fill="#90CAF9"/>
<path d="M261.631 482.71L263.283 493.07L217.489 519.18L261.631 482.71Z" fill="#0095C2"/>
<path d="M508.164 428.862C506.354 431.891 502.42 432.875 499.391 431.065C496.361 429.255 495.378 425.321 497.187 422.291C498.997 419.262 502.931 418.279 505.961 420.088C508.99 421.898 509.974 425.832 508.164 428.862Z" fill="#90CAF9"/>
<path d="M496.073 414.738C495.509 414.397 495.063 413.886 494.801 413.23C494.211 411.683 494.984 409.939 496.545 409.348C501.528 407.447 507.01 407.932 511.6 410.673C516.19 413.414 519.219 418.03 519.901 423.315C520.111 424.967 518.944 426.475 517.305 426.685C515.665 426.895 514.144 425.728 513.934 424.089C513.488 420.64 511.521 417.637 508.518 415.853C505.515 414.056 501.935 413.742 498.696 414.974C497.804 415.315 496.834 415.197 496.073 414.751V414.738Z" fill="#90CAF9"/>
<path d="M525.593 424.902C524.832 424.443 524.281 423.656 524.15 422.712C523.271 416.115 519.495 410.385 513.803 406.975C508.098 403.565 501.253 402.949 495.024 405.296C493.463 405.886 491.732 405.1 491.142 403.539C490.552 401.978 491.339 400.247 492.899 399.657C500.859 396.667 509.593 397.441 516.885 401.808C524.163 406.162 528.976 413.493 530.104 421.912C530.327 423.564 529.173 425.072 527.52 425.295C526.812 425.387 526.143 425.23 525.58 424.902H525.593Z" fill="#90CAF9"/>
<path d="M535.507 423.59C534.746 423.131 534.196 422.344 534.064 421.4C532.779 411.774 527.271 403.394 518.931 398.411C510.59 393.428 500.597 392.536 491.522 395.972C489.962 396.562 488.231 395.775 487.64 394.214C487.05 392.654 487.837 390.923 489.398 390.333C500.217 386.254 512.111 387.316 522.026 393.244C531.94 399.172 538.51 409.151 540.031 420.613C540.254 422.266 539.087 423.774 537.448 423.997C536.753 424.088 536.071 423.931 535.507 423.603V423.59Z" fill="#90CAF9"/>
<path d="M201.683 345.922L193.84 359.505L380.291 467.153L388.133 453.569L201.683 345.922Z" fill="#73A2C7"/>
<path d="M215.579 300.621L224.308 316.599L431.834 189.977L423.105 174L215.579 300.621Z" fill="#73A2C7"/>
<path d="M391.931 443.884L408.972 447.89L461 200.687L443.96 196.682L391.931 443.884Z" fill="#73A2C7"/>
<path d="M248.058 345.222C248.058 382.23 218.066 412.248 181.032 412.248C178.737 412.248 176.495 412.143 174.265 411.92L174.016 434.83C174.016 434.83 129.074 397.573 120.602 374.269C116.38 365.483 114.006 355.621 114.006 345.222C114.006 308.201 143.998 278.182 181.032 278.182C218.066 278.182 248.058 308.201 248.058 345.222Z" fill="#90CAF9"/>
<path d="M240.386 345.655C240.386 368.526 227.443 388.394 208.48 398.295C200.27 402.584 190.933 405.01 181.032 405.01C179.851 405.01 178.684 404.97 177.53 404.905C174.855 404.747 172.219 404.406 169.649 403.908V420.419C169.649 420.419 136.26 391.987 127.854 372.041C123.894 364.094 121.677 355.137 121.677 345.655C121.677 312.87 148.246 286.301 181.032 286.301C213.817 286.301 240.386 312.87 240.386 345.655Z" fill="white"/>
<path d="M382.347 492.571C414.592 492.571 440.731 466.432 440.731 434.187C440.731 401.942 414.592 375.803 382.347 375.803C350.103 375.803 323.963 401.942 323.963 434.187C323.963 466.432 350.103 492.571 382.347 492.571Z" fill="#005496"/>
<path d="M382.347 488.191C412.173 488.191 436.351 464.012 436.351 434.187C436.351 404.361 412.173 380.183 382.347 380.183C352.522 380.183 328.343 404.361 328.343 434.187C328.343 464.012 352.522 488.191 382.347 488.191Z" fill="white"/>
<path d="M405.886 489.057V519.18C405.886 526.996 397.192 533.33 386.491 533.33H378.202C371.422 533.33 365.442 530.786 361.98 526.944C361.547 526.471 361.154 525.973 360.813 525.462C360.039 524.321 359.475 523.101 359.134 521.816C358.99 521.265 358.898 520.675 358.859 520.098C358.833 519.796 358.807 519.495 358.807 519.193V489.07H405.886V489.057Z" fill="#005496"/>
<path d="M395.841 489.057L358.807 498.486V496.689L388.825 489.057H395.841Z" fill="#C8ECFF"/>
<path d="M405.886 490.551V492.361L358.807 504.347V502.538L405.886 490.551Z" fill="#C8ECFF"/>
<path d="M405.886 496.427V498.211L358.807 510.197V508.4L405.886 496.427Z" fill="#C8ECFF"/>
<path d="M405.886 502.276V504.06L358.807 516.046V514.262L405.886 502.276Z" fill="#C8ECFF"/>
<path d="M405.886 508.112V509.909L359.134 521.803C358.99 521.252 358.898 520.662 358.859 520.085L405.899 508.112H405.886Z" fill="#C8ECFF"/>
<path d="M405.887 513.974V515.757L361.981 526.944C361.548 526.472 361.154 525.973 360.813 525.462L405.887 513.987V513.974Z" fill="#C8ECFF"/>
<path d="M412.759 484.427H351.936V492.571H412.759V484.427Z" fill="#0095C2"/>
<path d="M360.366 154.457C371.614 154.457 380.732 145.339 380.732 134.091C380.732 122.843 371.614 113.725 360.366 113.725C349.118 113.725 340 122.843 340 134.091C340 145.339 349.118 154.457 360.366 154.457Z" stroke="#005594" stroke-width="2" stroke-miterlimit="10" stroke-linecap="round"/>
<path d="M545.197 93.8842C544.568 93.8842 543.951 93.9235 543.322 93.9629C566.337 111.418 581.222 139.075 581.222 170.13C581.222 222.835 538.338 265.718 485.633 265.718C432.927 265.718 390.044 222.835 390.044 170.13C390.044 145.147 399.683 122.368 415.446 105.32C414.961 105.254 414.476 105.189 413.99 105.11C398.385 122.302 388.851 145.121 388.851 170.117C388.851 223.491 432.271 266.912 485.646 266.912C539.02 266.912 582.441 223.491 582.441 170.117C582.441 139.193 567.871 111.601 545.21 93.8711L545.197 93.8842Z" fill="#005594"/>
<path d="M531.675 135.823H515.466C513.722 128.977 511.007 122.512 507.479 116.584L518.954 105.109C520.384 103.68 520.384 101.346 518.954 99.9162L498.431 79.3926C497.001 77.9632 494.667 77.9632 493.237 79.3926L481.762 90.8675C475.835 87.3529 469.383 84.6252 462.524 82.881V66.672C462.524 64.6393 460.885 63 458.852 63H429.831C427.798 63 426.159 64.6393 426.159 66.672V82.881C419.313 84.6252 412.848 87.3398 406.92 90.8675L395.445 79.3926C394.016 77.9632 391.682 77.9632 390.252 79.3926L369.729 99.9162C368.299 101.346 368.299 103.68 369.729 105.109L381.203 116.584C377.689 122.512 374.961 128.964 373.217 135.823H357.008C354.975 135.823 353.336 137.462 353.336 139.495V168.516C353.336 170.549 354.975 172.188 357.008 172.188H373.217C374.961 179.034 377.676 185.499 381.203 191.427L369.729 202.901C368.299 204.331 368.299 206.665 369.729 208.095L390.252 228.618C391.682 230.048 394.016 230.048 395.445 228.618L406.92 217.143C412.848 220.658 419.3 223.386 426.159 225.13V241.339C426.159 243.372 427.798 245.011 429.831 245.011H458.852C460.885 245.011 462.524 243.372 462.524 241.339V225.13C469.37 223.386 475.835 220.671 481.762 217.143L493.237 228.618C494.667 230.048 497.001 230.048 498.431 228.618L518.954 208.095C520.384 206.665 520.384 204.331 518.954 202.901L507.479 191.427C510.994 185.499 513.722 179.047 515.466 172.188H531.675C533.708 172.188 535.347 170.549 535.347 168.516V139.495C535.347 137.462 533.708 135.823 531.675 135.823Z" fill="#90CAF9"/>
<path d="M505.29 153.999C505.29 183.034 484.99 207.321 457.83 213.458C453.503 214.429 449.005 214.94 444.362 214.94C434.382 214.94 424.966 212.54 416.652 208.305C396.915 198.207 383.421 177.683 383.421 154.012C383.421 120.361 410.698 93.084 444.362 93.084C478.026 93.084 505.29 120.361 505.29 154.012V153.999Z" fill="white"/>
<g clip-path="url(#clip0_6362_11369)">
<path d="M421.226 187.613C419.995 187.613 418.999 186.617 418.999 185.387V180.934C418.999 179.703 419.995 178.707 421.226 178.707C422.456 178.707 423.452 179.703 423.452 180.934V185.387C423.452 186.617 422.456 187.613 421.226 187.613Z" fill="#5C6699"/>
<path d="M474.663 187.613C473.432 187.613 472.437 186.617 472.437 185.387V180.934C472.437 179.703 473.432 178.707 474.663 178.707C475.894 178.707 476.89 179.703 476.89 180.934V185.387C476.89 186.617 475.894 187.613 474.663 187.613Z" fill="#404A80"/>
<path d="M423.631 159.544L410.271 128.372C409.788 127.244 410.31 125.935 411.441 125.45C412.559 124.967 413.876 125.483 414.368 126.62L427.727 157.792C428.21 158.92 427.688 160.229 426.557 160.714C425.451 161.192 424.127 160.695 423.631 159.544Z" fill="#5C6699"/>
<path d="M469.332 160.714C468.201 160.229 467.679 158.92 468.162 157.792L481.521 126.62C482.013 125.483 483.322 124.963 484.448 125.45C485.579 125.935 486.1 127.244 485.618 128.372L472.258 159.544C471.761 160.695 470.437 161.192 469.332 160.714Z" fill="#404A80"/>
<path d="M479.265 183.16H416.624C412.941 183.16 409.944 180.164 409.944 176.48V163.121C409.944 159.438 412.941 156.441 416.624 156.441H479.265C482.948 156.441 485.944 159.438 485.944 163.121V176.48C485.944 180.164 482.948 183.16 479.265 183.16Z" fill="#EDF5FF"/>
<path d="M479.265 156.441H447.944V183.16H479.265C482.948 183.16 485.944 180.164 485.944 176.48V163.121C485.944 159.438 482.948 156.441 479.265 156.441Z" fill="#D5E8FE"/>
<path d="M449.51 148.19C449.266 147.946 448.735 147.535 447.944 147.535C447.153 147.535 446.622 147.946 446.378 148.19C445.509 149.059 444.1 149.059 443.23 148.19C442.36 147.32 442.36 145.911 443.23 145.041C443.961 144.308 445.548 143.082 447.944 143.082C450.34 143.082 451.927 144.308 452.658 145.041C453.528 145.911 453.528 147.32 452.658 148.19C451.788 149.059 450.379 149.059 449.51 148.19Z" fill="#80BFFF"/>
<path d="M468.414 129.305C462.943 123.83 455.672 120.816 447.944 120.816C440.216 120.816 432.945 123.83 427.475 129.305C426.605 130.175 425.196 130.175 424.326 129.305C423.456 128.436 423.456 127.026 424.326 126.157C430.64 119.842 439.025 116.363 447.944 116.363C456.863 116.363 465.248 119.842 471.562 126.157C472.432 127.026 472.432 128.436 471.562 129.305C470.692 130.175 469.284 130.175 468.414 129.305Z" fill="#80BFFF"/>
<path d="M462.112 135.6C458.325 131.81 453.293 129.723 447.944 129.723C442.595 129.723 437.564 131.81 433.776 135.6C432.906 136.47 431.497 136.47 430.627 135.6C429.758 134.73 429.758 133.321 430.627 132.452C435.254 127.82 441.408 125.27 447.944 125.27C454.48 125.27 460.634 127.82 465.261 132.452C466.131 133.321 466.131 134.73 465.261 135.6C464.391 136.47 462.982 136.47 462.112 135.6Z" fill="#80BFFF"/>
<path d="M455.811 141.895C451.601 137.681 444.287 137.681 440.077 141.895C439.207 142.765 437.798 142.765 436.929 141.895C436.059 141.027 436.059 139.616 436.929 138.746C442.817 132.854 453.071 132.854 458.959 138.746C459.829 139.616 459.829 141.027 458.959 141.895C458.09 142.765 456.681 142.765 455.811 141.895Z" fill="#80BFFF"/>
<path d="M456.851 174.254C455.62 174.254 454.624 173.258 454.624 172.027V167.574C454.624 166.344 455.62 165.348 456.851 165.348C458.081 165.348 459.077 166.344 459.077 167.574V172.027C459.077 173.258 458.081 174.254 456.851 174.254Z" fill="#6699FF"/>
<path d="M465.757 174.254C464.526 174.254 463.53 173.258 463.53 172.027V167.574C463.53 166.344 464.526 165.348 465.757 165.348C466.988 165.348 467.983 166.344 467.983 167.574V172.027C467.983 173.258 466.988 174.254 465.757 174.254Z" fill="#6699FF"/>
<path d="M474.663 174.254C473.432 174.254 472.437 173.258 472.437 172.027V167.574C472.437 166.344 473.432 165.348 474.663 165.348C475.894 165.348 476.89 166.344 476.89 167.574V172.027C476.89 173.258 475.894 174.254 474.663 174.254Z" fill="#6699FF"/>
<path d="M449.51 148.19C450.38 149.059 451.789 149.059 452.658 148.19C453.528 147.32 453.528 145.911 452.658 145.041C451.928 144.308 450.341 143.082 447.944 143.082V147.535C448.736 147.535 449.266 147.946 449.51 148.19Z" fill="#6699FF"/>
<path d="M455.811 141.895C456.681 142.765 458.09 142.765 458.96 141.895C459.829 141.027 459.829 139.616 458.96 138.746C456.015 135.8 451.98 134.327 447.944 134.327V138.734C450.825 138.734 453.706 139.788 455.811 141.895Z" fill="#6699FF"/>
<path d="M462.113 135.6C462.982 136.47 464.391 136.47 465.261 135.6C466.131 134.73 466.131 133.321 465.261 132.452C460.634 127.82 454.48 125.27 447.944 125.27V129.723C453.293 129.723 458.325 131.81 462.113 135.6Z" fill="#6699FF"/>
<path d="M468.414 129.305C469.284 130.175 470.693 130.175 471.562 129.305C472.432 128.436 472.432 127.026 471.562 126.157C465.248 119.842 456.864 116.363 447.944 116.363V120.816C455.672 120.816 462.943 123.83 468.414 129.305Z" fill="#6699FF"/>
</g>
<g clip-path="url(#clip1_6362_11369)">
<path d="M362.338 464.031C361.318 464.031 360.492 463.206 360.492 462.186V458.494C360.492 457.474 361.318 456.648 362.338 456.648C363.358 456.648 364.184 457.474 364.184 458.494V462.186C364.184 463.206 363.358 464.031 362.338 464.031Z" fill="#5C6699"/>
<path d="M406.635 464.031C405.615 464.031 404.789 463.206 404.789 462.186V458.494C404.789 457.474 405.615 456.648 406.635 456.648C407.655 456.648 408.48 457.474 408.48 458.494V462.186C408.48 463.206 407.655 464.031 406.635 464.031Z" fill="#404A80"/>
<path d="M364.331 440.763L353.257 414.924C352.857 413.988 353.29 412.903 354.227 412.501C355.153 412.101 356.245 412.528 356.653 413.471L367.727 439.311C368.127 440.246 367.695 441.331 366.757 441.733C365.841 442.129 364.743 441.717 364.331 440.763Z" fill="#5C6699"/>
<path d="M402.215 441.733C401.278 441.331 400.845 440.246 401.245 439.311L412.32 413.471C412.727 412.528 413.812 412.097 414.746 412.501C415.683 412.903 416.116 413.988 415.715 414.924L404.641 440.763C404.229 441.717 403.132 442.129 402.215 441.733Z" fill="#404A80"/>
<path d="M410.449 460.34H358.523C355.47 460.34 352.986 457.856 352.986 454.803V443.729C352.986 440.675 355.47 438.191 358.523 438.191H410.449C413.503 438.191 415.986 440.675 415.986 443.729V454.803C415.986 457.856 413.503 460.34 410.449 460.34Z" fill="#EDF5FF"/>
<path d="M410.449 438.191H384.486V460.34H410.449C413.503 460.34 415.986 457.856 415.986 454.803V443.729C415.986 440.675 413.503 438.191 410.449 438.191Z" fill="#D5E8FE"/>
<path d="M385.784 431.351C385.582 431.149 385.143 430.809 384.487 430.809C383.83 430.809 383.391 431.149 383.189 431.351C382.468 432.072 381.3 432.072 380.579 431.351C379.858 430.63 379.858 429.462 380.579 428.741C381.184 428.134 382.5 427.117 384.487 427.117C386.473 427.117 387.789 428.134 388.394 428.741C389.115 429.462 389.115 430.63 388.394 431.351C387.673 432.072 386.505 432.072 385.784 431.351Z" fill="#80BFFF"/>
<path d="M401.455 415.697C396.92 411.158 390.892 408.66 384.486 408.66C378.081 408.66 372.053 411.158 367.518 415.697C366.797 416.418 365.629 416.418 364.908 415.697C364.187 414.976 364.187 413.808 364.908 413.087C370.143 407.853 377.093 404.969 384.486 404.969C391.88 404.969 398.83 407.853 404.065 413.087C404.786 413.808 404.786 414.976 404.065 415.697C403.344 416.418 402.176 416.418 401.455 415.697Z" fill="#80BFFF"/>
<path d="M396.231 420.915C393.092 417.773 388.921 416.043 384.487 416.043C380.053 416.043 375.882 417.773 372.742 420.915C372.021 421.636 370.853 421.636 370.132 420.915C369.411 420.194 369.411 419.026 370.132 418.305C373.968 414.466 379.069 412.352 384.487 412.352C389.905 412.352 395.006 414.466 398.841 418.305C399.562 419.026 399.562 420.194 398.841 420.915C398.12 421.636 396.952 421.636 396.231 420.915Z" fill="#80BFFF"/>
<path d="M391.008 426.133C387.518 422.64 381.455 422.64 377.965 426.133C377.244 426.854 376.076 426.854 375.355 426.133C374.634 425.414 374.634 424.244 375.355 423.523C380.236 418.639 388.737 418.639 393.618 423.523C394.338 424.244 394.338 425.414 393.618 426.133C392.897 426.854 391.729 426.854 391.008 426.133Z" fill="#80BFFF"/>
<path d="M391.869 452.957C390.849 452.957 390.023 452.132 390.023 451.111V447.42C390.023 446.4 390.849 445.574 391.869 445.574C392.889 445.574 393.715 446.4 393.715 447.42V451.111C393.715 452.132 392.889 452.957 391.869 452.957Z" fill="#6699FF"/>
<path d="M399.252 452.957C398.232 452.957 397.406 452.132 397.406 451.111V447.42C397.406 446.4 398.232 445.574 399.252 445.574C400.272 445.574 401.098 446.4 401.098 447.42V451.111C401.098 452.132 400.272 452.957 399.252 452.957Z" fill="#6699FF"/>
<path d="M406.635 452.957C405.615 452.957 404.789 452.132 404.789 451.111V447.42C404.789 446.4 405.615 445.574 406.635 445.574C407.655 445.574 408.48 446.4 408.48 447.42V451.111C408.48 452.132 407.655 452.957 406.635 452.957Z" fill="#6699FF"/>
<path d="M385.784 431.351C386.505 432.072 387.673 432.072 388.394 431.351C389.115 430.63 389.115 429.462 388.394 428.741C387.788 428.134 386.473 427.117 384.486 427.117V430.809C385.142 430.809 385.582 431.149 385.784 431.351Z" fill="#6699FF"/>
<path d="M391.008 426.133C391.728 426.854 392.896 426.854 393.618 426.133C394.338 425.414 394.338 424.244 393.618 423.523C391.177 421.081 387.832 419.86 384.486 419.86V423.513C386.875 423.513 389.263 424.387 391.008 426.133Z" fill="#6699FF"/>
<path d="M396.231 420.915C396.952 421.636 398.12 421.636 398.841 420.915C399.562 420.194 399.562 419.026 398.841 418.305C395.005 414.466 389.904 412.352 384.486 412.352V416.043C388.92 416.043 393.091 417.773 396.231 420.915Z" fill="#6699FF"/>
<path d="M401.454 415.697C402.175 416.418 403.343 416.418 404.064 415.697C404.785 414.976 404.785 413.808 404.064 413.087C398.83 407.853 391.88 404.969 384.486 404.969V408.66C390.892 408.66 396.92 411.158 401.454 415.697Z" fill="#6699FF"/>
</g>
<g clip-path="url(#clip2_6362_11369)">
<path d="M159.338 374.031C158.318 374.031 157.492 373.206 157.492 372.186V368.494C157.492 367.474 158.318 366.648 159.338 366.648C160.358 366.648 161.184 367.474 161.184 368.494V372.186C161.184 373.206 160.358 374.031 159.338 374.031Z" fill="#5C6699"/>
<path d="M203.635 374.031C202.615 374.031 201.789 373.206 201.789 372.186V368.494C201.789 367.474 202.615 366.648 203.635 366.648C204.655 366.648 205.48 367.474 205.48 368.494V372.186C205.48 373.206 204.655 374.031 203.635 374.031Z" fill="#404A80"/>
<path d="M161.331 350.763L150.257 324.924C149.857 323.988 150.29 322.903 151.227 322.501C152.153 322.101 153.245 322.528 153.653 323.471L164.727 349.311C165.127 350.246 164.695 351.331 163.757 351.733C162.841 352.129 161.743 351.717 161.331 350.763Z" fill="#5C6699"/>
<path d="M199.215 351.733C198.278 351.331 197.845 350.246 198.245 349.311L209.32 323.471C209.727 322.528 210.812 322.097 211.746 322.501C212.683 322.903 213.116 323.988 212.715 324.924L201.641 350.763C201.229 351.717 200.132 352.129 199.215 351.733Z" fill="#404A80"/>
<path d="M207.449 370.34H155.523C152.47 370.34 149.986 367.856 149.986 364.803V353.729C149.986 350.675 152.47 348.191 155.523 348.191H207.449C210.503 348.191 212.986 350.675 212.986 353.729V364.803C212.986 367.856 210.503 370.34 207.449 370.34Z" fill="#EDF5FF"/>
<path d="M207.449 348.191H181.486V370.34H207.449C210.503 370.34 212.986 367.856 212.986 364.803V353.729C212.986 350.675 210.503 348.191 207.449 348.191Z" fill="#D5E8FE"/>
<path d="M182.784 341.351C182.582 341.149 182.143 340.809 181.487 340.809C180.83 340.809 180.391 341.149 180.189 341.351C179.468 342.072 178.3 342.072 177.579 341.351C176.858 340.63 176.858 339.462 177.579 338.741C178.184 338.134 179.5 337.117 181.487 337.117C183.473 337.117 184.789 338.134 185.394 338.741C186.115 339.462 186.115 340.63 185.394 341.351C184.673 342.072 183.505 342.072 182.784 341.351Z" fill="#80BFFF"/>
<path d="M198.455 325.697C193.92 321.158 187.892 318.66 181.486 318.66C175.081 318.66 169.053 321.158 164.518 325.697C163.797 326.418 162.629 326.418 161.908 325.697C161.187 324.976 161.187 323.808 161.908 323.087C167.143 317.853 174.093 314.969 181.486 314.969C188.88 314.969 195.83 317.853 201.065 323.087C201.786 323.808 201.786 324.976 201.065 325.697C200.344 326.418 199.176 326.418 198.455 325.697Z" fill="#80BFFF"/>
<path d="M193.231 330.915C190.092 327.773 185.921 326.043 181.487 326.043C177.053 326.043 172.882 327.773 169.742 330.915C169.021 331.636 167.853 331.636 167.132 330.915C166.411 330.194 166.411 329.026 167.132 328.305C170.968 324.466 176.069 322.352 181.487 322.352C186.905 322.352 192.006 324.466 195.841 328.305C196.562 329.026 196.562 330.194 195.841 330.915C195.12 331.636 193.952 331.636 193.231 330.915Z" fill="#80BFFF"/>
<path d="M188.008 336.133C184.518 332.64 178.455 332.64 174.965 336.133C174.244 336.854 173.076 336.854 172.355 336.133C171.634 335.414 171.634 334.244 172.355 333.523C177.236 328.639 185.737 328.639 190.618 333.523C191.338 334.244 191.338 335.414 190.618 336.133C189.897 336.854 188.729 336.854 188.008 336.133Z" fill="#80BFFF"/>
<path d="M188.869 362.957C187.849 362.957 187.023 362.132 187.023 361.111V357.42C187.023 356.4 187.849 355.574 188.869 355.574C189.889 355.574 190.715 356.4 190.715 357.42V361.111C190.715 362.132 189.889 362.957 188.869 362.957Z" fill="#6699FF"/>
<path d="M196.252 362.957C195.232 362.957 194.406 362.132 194.406 361.111V357.42C194.406 356.4 195.232 355.574 196.252 355.574C197.272 355.574 198.098 356.4 198.098 357.42V361.111C198.098 362.132 197.272 362.957 196.252 362.957Z" fill="#6699FF"/>
<path d="M203.635 362.957C202.615 362.957 201.789 362.132 201.789 361.111V357.42C201.789 356.4 202.615 355.574 203.635 355.574C204.655 355.574 205.48 356.4 205.48 357.42V361.111C205.48 362.132 204.655 362.957 203.635 362.957Z" fill="#6699FF"/>
<path d="M182.784 341.351C183.505 342.072 184.673 342.072 185.394 341.351C186.115 340.63 186.115 339.462 185.394 338.741C184.788 338.134 183.473 337.117 181.486 337.117V340.809C182.142 340.809 182.582 341.149 182.784 341.351Z" fill="#6699FF"/>
<path d="M188.008 336.133C188.728 336.854 189.896 336.854 190.618 336.133C191.338 335.414 191.338 334.244 190.618 333.523C188.177 331.081 184.832 329.86 181.486 329.86V333.513C183.875 333.513 186.263 334.387 188.008 336.133Z" fill="#6699FF"/>
<path d="M193.231 330.915C193.952 331.636 195.12 331.636 195.841 330.915C196.562 330.194 196.562 329.026 195.841 328.305C192.005 324.466 186.904 322.352 181.486 322.352V326.043C185.92 326.043 190.091 327.773 193.231 330.915Z" fill="#6699FF"/>
<path d="M198.454 325.697C199.175 326.418 200.343 326.418 201.064 325.697C201.785 324.976 201.785 323.808 201.064 323.087C195.83 317.853 188.88 314.969 181.486 314.969V318.66C187.892 318.66 193.92 321.158 198.454 325.697Z" fill="#6699FF"/>
</g>
<defs>
<clipPath id="clip0_6362_11369">
<rect width="76" height="76" fill="white" transform="translate(409.944 113.988)"/>
</clipPath>
<clipPath id="clip1_6362_11369">
<rect width="63" height="63" fill="white" transform="translate(352.986 403)"/>
</clipPath>
<clipPath id="clip2_6362_11369">
<rect width="63" height="63" fill="white" transform="translate(149.986 313)"/>
</clipPath>
</defs>
</svg>
