<svg width="48" height="48" viewBox="0 0 48 48" fill="none" xmlns="http://www.w3.org/2000/svg">
<rect width="48" height="48" fill="#FA6580"/>
<g clip-path="url(#clip0_6215_13561)">
<rect width="30" height="30" transform="translate(9 9)" fill="#FA6580"/>
<path d="M36.2637 34.9969C36.1895 34.6205 36.0051 34.2746 35.7338 34.0033C35.4625 33.732 35.1167 33.5476 34.7402 33.4734H34.732C33.9461 33.3516 33.1461 33.3516 32.3602 33.4734H32.352C31.9755 33.5476 31.6297 33.732 31.3584 34.0033C31.0871 34.2746 30.9027 34.6205 30.8285 34.9969V35.0051C30.8016 35.165 30.7817 35.3291 30.7664 35.4984C30.034 35.4146 27.9979 35.3514 26.7586 35.3191C26.7463 35.2125 26.7322 35.1082 26.7147 35.0051C26.7149 35.0024 26.7149 34.9996 26.7147 34.9969C26.6405 34.6205 26.4561 34.2746 26.1848 34.0033C25.9135 33.732 25.5676 33.5476 25.1912 33.4734H25.183C25.0658 33.4541 24.9422 33.4377 24.8186 33.4242V31.166C27.1318 31.1432 29.4639 31.026 31.7643 30.8145H31.7719C33.5824 30.6387 35.2418 29.0285 35.4703 27.2309C35.4706 27.2283 35.4706 27.2258 35.4703 27.2232C35.7557 24.8484 35.8881 23.2459 35.8342 21.0393C35.8518 19.2082 35.8254 17.2846 35.7504 15.9797C35.6461 14.2148 34.0594 12.6914 32.216 12.5789H32.2113C29.5067 12.4313 26.7498 12.3557 24.0123 12.3557H23.5899C23.5748 12.3559 23.5598 12.3528 23.5461 12.3466C23.5323 12.3404 23.5201 12.3313 23.5102 12.3199C22.7373 11.4176 22.0512 10.6002 21.4131 9.82031C21.2056 9.56388 20.9434 9.35712 20.6456 9.21518C20.3478 9.07324 20.0221 8.99972 19.6922 9C19.6524 9 19.6119 9 19.575 9.00293C18.4154 9.06211 17.2442 9.1459 16.0899 9.25195H16.0846C14.3496 9.42305 12.7588 10.9635 12.5402 12.6861V12.6926C12.2695 14.9578 12.1342 18.2338 12.1606 21.2168C12.1172 23.3326 12.2502 24.9117 12.5274 27.2227C12.5276 27.2252 12.5276 27.2277 12.5274 27.2303C12.7565 29.0279 14.4158 30.6357 16.2264 30.8139H16.2334C18.5332 31.0248 20.8623 31.142 23.1774 31.1654V33.4236C23.0531 33.4373 22.9317 33.4537 22.8129 33.4729H22.8047C22.4283 33.547 22.0824 33.7314 21.8111 34.0027C21.5399 34.274 21.3554 34.6199 21.2813 34.9963C21.281 34.999 21.281 35.0018 21.2813 35.0045C21.2637 35.1076 21.2496 35.2119 21.2373 35.3186C19.9904 35.3508 17.9608 35.4141 17.2295 35.4979C17.2143 35.3285 17.1938 35.1645 17.1674 35.0045C17.1671 35.0018 17.1671 34.999 17.1674 34.9963C17.0932 34.6199 16.9088 34.274 16.6375 34.0027C16.3662 33.7314 16.0204 33.547 15.644 33.4729H15.6358C15.2434 33.4099 14.8466 33.3795 14.4492 33.382C14.0525 33.3798 13.6562 33.4104 13.2645 33.4734H13.2563C12.8798 33.5476 12.534 33.732 12.2627 34.0033C11.9914 34.2746 11.807 34.6205 11.7328 34.9969V35.0051C11.6109 35.791 11.6109 36.591 11.7328 37.377V37.3846C11.807 37.761 11.9914 38.1068 12.2627 38.3781C12.534 38.6494 12.8798 38.8339 13.2563 38.908H13.2645C13.6573 38.9714 14.0548 39.0022 14.4527 39C14.8495 39.002 15.2458 38.9713 15.6375 38.908H15.6457C16.0221 38.8339 16.368 38.6494 16.6393 38.3781C16.9106 38.1068 17.095 37.761 17.1692 37.3846C17.1689 37.382 17.1689 37.3795 17.1692 37.377C17.1815 37.302 17.1926 37.2258 17.2026 37.149H17.2219C17.2674 37.1491 17.3129 37.1454 17.3578 37.1379C17.6801 37.084 19.2522 37.0137 21.2279 36.9621C21.242 37.1033 21.2602 37.2404 21.283 37.3758C21.2827 37.3783 21.2827 37.3809 21.283 37.3834C21.3572 37.7598 21.5416 38.1057 21.8129 38.377C22.0842 38.6482 22.43 38.8327 22.8065 38.9068H22.8147C23.6005 39.0295 24.4007 39.0295 25.1865 38.9068H25.1947C25.5712 38.8327 25.917 38.6482 26.1883 38.377C26.4596 38.1057 26.644 37.7598 26.7182 37.3834C26.7185 37.3809 26.7185 37.3783 26.7182 37.3758C26.741 37.2404 26.7592 37.1033 26.7733 36.9621C28.7484 37.0137 30.3211 37.084 30.6434 37.1379C30.6883 37.1454 30.7338 37.1491 30.7793 37.149H30.7986C30.8086 37.2258 30.8197 37.302 30.832 37.377V37.3846C30.9062 37.761 31.0906 38.1068 31.3619 38.3781C31.6332 38.6494 31.9791 38.8339 32.3555 38.908H32.3637C33.1494 39.0307 33.9493 39.0307 34.735 38.908H34.7432C35.1196 38.8339 35.4655 38.6494 35.7367 38.3781C36.008 38.1068 36.1925 37.761 36.2666 37.3846V37.3758C36.3885 36.5901 36.3885 35.7902 36.2666 35.0045L36.2637 34.9969ZM15.549 37.101C15.5337 37.1441 15.509 37.1832 15.4767 37.2155C15.4443 37.2479 15.4052 37.2726 15.3621 37.2879C15.0615 37.3365 14.7573 37.3604 14.4527 37.3594C14.1477 37.3615 13.8429 37.3386 13.5416 37.2908C13.4986 37.2753 13.4596 37.2506 13.4273 37.2182C13.395 37.1859 13.3702 37.1469 13.3547 37.1039C13.2633 36.5005 13.2633 35.8868 13.3547 35.2834C13.3702 35.2403 13.3951 35.2012 13.4275 35.1689C13.4599 35.1366 13.4991 35.1119 13.5422 35.0965C13.8421 35.0482 14.1455 35.0243 14.4492 35.025C14.7543 35.0232 15.059 35.0461 15.3604 35.0936C15.4034 35.109 15.4425 35.1337 15.4748 35.166C15.5071 35.1984 15.5319 35.2374 15.5473 35.2805C15.6387 35.8839 15.6387 36.4976 15.5473 37.101H15.549ZM16.2961 11.4727C17.4176 11.3695 18.5572 11.2881 19.6869 11.2301L19.6899 11.2336C20.3391 12.0264 21.0375 12.8561 21.818 13.7695C22.0368 14.0256 22.3085 14.2311 22.6144 14.3721C22.9203 14.5131 23.2531 14.5862 23.5899 14.5863H24.01C26.6983 14.5863 29.4135 14.6602 32.0813 14.8055C32.7885 14.85 33.467 15.4582 33.5221 16.0945C33.0641 15.8699 32.5663 15.7375 32.0572 15.7049H32.0508C29.4047 15.5602 26.6953 15.4869 23.9983 15.4869C21.3012 15.4869 18.5918 15.5602 15.9451 15.7049H15.9393C15.4383 15.7367 14.9482 15.8652 14.4961 16.0834C14.5576 14.9367 14.6426 13.8674 14.7504 12.9656C14.8436 12.2813 15.6059 11.5441 16.2961 11.4727ZM14.7422 26.9525C14.536 25.234 14.4176 23.9783 14.3906 22.6354L14.417 22.6072C14.4047 22.1637 14.3959 21.7072 14.3918 21.2432C14.4035 20.6813 14.4287 20.0795 14.4674 19.4063C14.5119 18.6814 15.2777 17.9771 16.0752 17.9279C18.6803 17.7855 21.3486 17.7135 24.0035 17.7135C26.6584 17.7135 29.3262 17.7855 31.9313 17.9279C32.7287 17.9771 33.4951 18.6814 33.5391 19.4021C33.5725 19.984 33.5977 20.5154 33.6094 21.0088C33.6041 21.5578 33.5947 22.0975 33.5813 22.6072L33.6158 22.6436C33.5871 23.9836 33.4688 25.2381 33.2643 26.9531C33.1641 27.7201 32.3391 28.5164 31.5651 28.5937C29.0613 28.8234 26.5184 28.94 24.0065 28.94C21.4945 28.94 18.9516 28.8229 16.4479 28.5937C15.6662 28.5164 14.8412 27.7195 14.7422 26.9525ZM25.0975 37.101C25.0822 37.1441 25.0575 37.1832 25.0251 37.2155C24.9928 37.2479 24.9536 37.2726 24.9106 37.2879C24.3074 37.3793 23.6938 37.3793 23.0906 37.2879C23.0475 37.2725 23.0083 37.2478 22.9759 37.2155C22.9435 37.1831 22.9186 37.144 22.9031 37.101C22.8117 36.4976 22.8117 35.8839 22.9031 35.2805C22.9188 35.2375 22.9437 35.1984 22.9761 35.1661C23.0085 35.1338 23.0476 35.109 23.0906 35.0936C23.6938 35.0021 24.3074 35.0021 24.9106 35.0936C24.9536 35.109 24.9927 35.1337 25.025 35.166C25.0573 35.1984 25.0821 35.2374 25.0975 35.2805C25.1897 35.8838 25.1897 36.4976 25.0975 37.101ZM34.6483 37.101C34.6328 37.144 34.6081 37.1831 34.5758 37.2154C34.5434 37.2477 34.5044 37.2725 34.4613 37.2879C33.8579 37.3793 33.2442 37.3793 32.6408 37.2879C32.5978 37.2725 32.5587 37.2477 32.5264 37.2154C32.4941 37.1831 32.4693 37.144 32.4539 37.101C32.3625 36.4978 32.3625 35.8843 32.4539 35.2811C32.4692 35.2379 32.4939 35.1987 32.5263 35.1663C32.5586 35.1338 32.5977 35.109 32.6408 35.0936C33.244 35.0021 33.8576 35.0021 34.4608 35.0936C34.504 35.109 34.5432 35.1338 34.5756 35.1662C34.608 35.1986 34.6329 35.2379 34.6483 35.2811C34.7397 35.8843 34.7397 36.4978 34.6483 37.101Z" fill="white"/>
</g>
<defs>
<clipPath id="clip0_6215_13561">
<rect width="30" height="30" fill="white" transform="translate(9 9)"/>
</clipPath>
</defs>
</svg>
