<svg width="100" height="100" viewBox="0 0 100 100" fill="none" xmlns="http://www.w3.org/2000/svg">
<g clip-path="url(#clip0_4331_21948)">
<path d="M94.5889 87.1015V87.0596H21.6863C15.7006 87.0596 10.8475 82.2232 10.8223 76.2375V7.48749C10.8223 4.50096 8.39785 2.07635 5.41113 2.07635C2.42441 2.07635 0 4.50077 0 7.48749V76.2375C0 88.2131 9.71055 97.9238 21.6863 97.9238H94.5891C97.5756 97.9238 100 95.4994 100 92.5127C100 89.526 97.5756 87.1015 94.5889 87.1015Z" fill="#E6E7E8"/>
<path d="M88.0453 24.9371C85.6459 23.1418 82.2483 23.6283 80.4531 26.0277L67.8691 44.0646L50.084 30.6838C47.6973 28.8885 44.3037 29.3666 42.5084 31.7535C42.5041 31.7619 42.5 31.766 42.4916 31.7744L27.0135 54.0058C25.2057 56.3842 25.6713 59.7818 28.0496 61.5898C28.9598 62.282 30.0672 62.6678 31.2082 62.6889V62.8146C32.865 62.7685 34.4129 61.9631 35.4029 60.6334L47.9869 42.5965L65.7721 55.9773C68.1588 57.7726 71.5524 57.2945 73.3477 54.9076C73.3518 54.8992 73.3561 54.8951 73.3645 54.8867L89.1363 32.5293C90.9313 30.1301 90.4447 26.7324 88.0453 24.9371Z" fill="#E6E7E8"/>
</g>
<defs>
<clipPath id="clip0_4331_21948">
<rect width="100" height="100" fill="white"/>
</clipPath>
</defs>
</svg>
