<svg width="12" height="12" viewBox="0 0 12 12" fill="none" xmlns="http://www.w3.org/2000/svg">
<path d="M7.49998 9.45748L4.49998 10.0575V2.55748L7.49998 1.95748V9.45748ZM3.74998 2.51998L1.21498 1.87498C1.15964 1.86094 1.10181 1.85972 1.04592 1.87142C0.990034 1.88312 0.937553 1.90742 0.892485 1.94248C0.846259 1.97895 0.809271 2.0258 0.784514 2.07922C0.759758 2.13264 0.747929 2.19114 0.749985 2.24998V8.99998C0.747489 9.08565 0.774409 9.16958 0.826265 9.23781C0.87812 9.30604 0.951781 9.35445 1.03498 9.37498L3.74998 10.0425V2.51998ZM10.965 2.62498L8.24998 1.95748V9.47999L10.785 10.125C10.8149 10.1286 10.8451 10.1286 10.875 10.125C10.9744 10.125 11.0698 10.0855 11.1401 10.0152C11.2105 9.94482 11.25 9.84944 11.25 9.74998V2.99998C11.2525 2.91432 11.2256 2.83039 11.1737 2.76216C11.1218 2.69393 11.0482 2.64552 10.965 2.62498Z" fill="white"/>
</svg>
