<svg xmlns="http://www.w3.org/2000/svg" width="28" height="28" viewBox="0 0 28 28">
  <g id="Group_13322" data-name="Group 13322" transform="translate(-9980.716 -1408)">
    <circle id="Ellipse_116" data-name="Ellipse 116" cx="14" cy="14" r="14" transform="translate(9980.716 1408)" fill="#f5f5ff"/>
    <g id="Group_13321" data-name="Group 13321" transform="translate(9986.716 1414)">
      <path id="Path_12079" data-name="Path 12079" d="M12.848,375.467c-2.544.3-4.314,1.146-4.314,1.925,0,1.063,3.294,1.925,7.358,1.925s7.358-.862,7.358-1.925c0-.779-1.77-1.622-4.314-1.925" transform="translate(-8.277 -363.573)" fill="#f1e0ff"/>
      <path id="Path_12080" data-name="Path 12080" d="M252.708,375.467h-.544c2.44.3,4.137,1.146,4.137,1.925,0,1.046-3.059,1.9-6.87,1.923h.2c4.11,0,7.443-.862,7.443-1.925C257.071,376.613,255.281,375.77,252.708,375.467Z" transform="translate(-241.328 -363.573)" fill="#dab0fd"/>
      <path id="Path_12081" data-name="Path 12081" d="M12.895,375.467h.544c-2.44.3-4.137,1.146-4.137,1.925,0,1.046,3.059,1.9,6.87,1.923h-.2c-4.11,0-7.443-.862-7.443-1.925C8.532,376.613,10.322,375.77,12.895,375.467Z" transform="translate(-8.275 -363.573)" fill="#fff"/>
      <path id="Path_12082" data-name="Path 12082" d="M104.348,22.481l-3.972-5.632a5.511,5.511,0,0,1,.461-6.887h0a5.031,5.031,0,0,1,7.022,0h0a5.511,5.511,0,0,1,.461,6.887Z" transform="translate(-96.393 -8.278)" fill="#dab0fd"/>
      <path id="Path_12083" data-name="Path 12083" d="M109.919,22.48l-3.768-5.632a5.48,5.48,0,0,1,.465-6.887h0c1.954-1.9,4.012-1.9,5.966,0h0a5.48,5.48,0,0,1,.465,6.887Z" transform="translate(-101.988 -8.277)" fill="#f1e0ff"/>
      <circle id="Ellipse_117" data-name="Ellipse 117" cx="1.54" cy="1.54" r="1.54" transform="translate(6.46 3.499)" fill="#dab0fd"/>
      <ellipse id="Ellipse_118" data-name="Ellipse 118" cx="1.155" cy="1.54" rx="1.155" ry="1.54" transform="translate(6.348 3.499)" fill="#f1e0ff"/>
      <path id="Path_12084" data-name="Path 12084" d="M100.749,10.113h0a4.54,4.54,0,0,1,3.491-1.418,4.02,4.02,0,0,0-2.63,1.418h0A5.787,5.787,0,0,0,101.176,17l2.9,5.594-.025.038L100.316,17A5.787,5.787,0,0,1,100.749,10.113Z" transform="translate(-96.223 -8.429)" fill="#fff"/>
      <g id="Group_13321-2" data-name="Group 13321">
        <path id="Path_12085" data-name="Path 12085" d="M198.063,105.993a1.8,1.8,0,1,1,1.8-1.8,1.8,1.8,0,0,1-1.8,1.8Zm0-3.08a1.283,1.283,0,1,0,1.283,1.283,1.283,1.283,0,0,0-1.283-1.283Z" transform="translate(-190.063 -99.163)" fill="#8f59bc"/>
        <path id="Path_12086" data-name="Path 12086" d="M96.07,14.46a.274.274,0,0,1-.224-.115l-3.96-5.623A5.774,5.774,0,0,1,92.377,1.5a5.285,5.285,0,0,1,7.385,0,5.776,5.776,0,0,1,.485,7.225l-3.954,5.615A.274.274,0,0,1,96.07,14.46Zm0-13.925a4.688,4.688,0,0,0-3.308,1.347,5.217,5.217,0,0,0-.435,6.526l3.742,5.314,3.736-5.305a5.218,5.218,0,0,0-.428-6.534A4.687,4.687,0,0,0,96.07.536Z" transform="translate(-88.115)" fill="#8f59bc"/>
        <path id="Path_12087" data-name="Path 12087" d="M8,371.3c-5.252,0-8-1.1-8-2.181,0-.965,1.961-1.861,4.769-2.18a.265.265,0,0,1,.3.225.259.259,0,0,1-.234.285c-2.8.318-4.3,1.174-4.3,1.67,0,.7,2.841,1.668,7.467,1.668s7.467-.972,7.467-1.668c0-.5-1.494-1.352-4.3-1.67a.259.259,0,0,1-.234-.285.265.265,0,0,1,.3-.225c2.808.318,4.769,1.215,4.769,2.18C16,370.2,13.252,371.3,8,371.3Z" transform="translate(0 -355.295)" fill="#8f59bc"/>
      </g>
    </g>
  </g>
</svg>
