<svg width="19" height="19" viewBox="0 0 19 19" fill="none" xmlns="http://www.w3.org/2000/svg">
<path d="M5.5 0.5H5.3C3.61984 0.5 2.77976 0.5 2.13803 0.82698C1.57354 1.1146 1.1146 1.57354 0.82698 2.13803C0.5 2.77976 0.5 3.61984 0.5 5.3V5.5M5.5 18.5H5.3C3.61984 18.5 2.77976 18.5 2.13803 18.173C1.57354 17.8854 1.1146 17.4265 0.82698 16.862C0.5 16.2202 0.5 15.3802 0.5 13.7V13.5M18.5 5.5V5.3C18.5 3.61984 18.5 2.77976 18.173 2.13803C17.8854 1.57354 17.4265 1.1146 16.862 0.826981C16.2202 0.5 15.3802 0.5 13.7 0.5H13.5M18.5 13.5V13.7C18.5 15.3802 18.5 16.2202 18.173 16.862C17.8854 17.4265 17.4265 17.8854 16.862 18.173C16.2202 18.5 15.3802 18.5 13.7 18.5H13.5" stroke="#040D17" stroke-linecap="round" stroke-linejoin="round"/>
</svg>
