<svg width="32" height="31" viewBox="0 0 32 31" fill="none" xmlns="http://www.w3.org/2000/svg">
<path d="M23.633 23C24.958 22.7362 26.1357 21.999 26.9376 20.9316C27.7395 19.8641 28.1083 18.5426 27.9724 17.2235C27.8365 15.9044 27.2057 14.6819 26.2023 13.7933C25.1989 12.9047 23.8947 12.4133 22.5426 12.4146H21.1688C20.8075 11.0432 20.1046 9.78113 19.1231 8.74183C18.1416 7.70254 16.9123 6.91852 15.5455 6.46018C14.1787 6.00184 12.7173 5.88351 11.2923 6.11583C9.86739 6.34815 8.52359 6.92383 7.38157 7.7912C6.23955 8.65857 5.33507 9.79048 4.74933 11.0853C4.16359 12.3801 3.91493 13.7973 4.02567 15.2096C4.13642 16.6219 4.60309 17.9852 5.38381 19.1769C6.16452 20.3687 7.23483 21.3517 8.49865 22.0377" stroke="#2680EA" stroke-width="2" stroke-linecap="round" stroke-linejoin="round"/>
<path d="M12.8889 20.845C12.3976 20.845 12 21.2425 12 21.7339V23.6983C12 24.1896 12.3976 24.5872 12.8889 24.5872C13.3802 24.5872 13.7778 24.1896 13.7778 23.6983V21.7339C13.7778 21.2425 13.3802 20.845 12.8889 20.845Z" fill="#2680EA"/>
<path d="M16.4443 17.4143C15.953 17.4143 15.5554 17.8119 15.5554 18.3032V23.6982C15.5554 24.1895 15.953 24.587 16.4443 24.587C16.9356 24.587 17.3332 24.1895 17.3332 23.6982V18.3032C17.3332 17.8119 16.9356 17.4143 16.4443 17.4143Z" fill="#2680EA"/>
<path d="M20 19.5872C19.5087 19.5872 19.1111 19.9847 19.1111 20.476V23.6983C19.1111 24.1896 19.5087 24.5872 20 24.5872C20.4913 24.5872 20.8889 24.1896 20.8889 23.6983V20.476C20.8889 19.9847 20.4913 19.5872 20 19.5872Z" fill="#2680EA"/>
</svg>
