<svg width="127" height="31" viewBox="0 0 127 31" fill="none" xmlns="http://www.w3.org/2000/svg">
<path d="M23.633 23C24.958 22.7362 26.1357 21.999 26.9376 20.9316C27.7395 19.8641 28.1083 18.5426 27.9724 17.2235C27.8365 15.9044 27.2057 14.6819 26.2023 13.7933C25.1989 12.9047 23.8947 12.4133 22.5426 12.4146H21.1688C20.8075 11.0432 20.1046 9.78113 19.1231 8.74183C18.1416 7.70254 16.9123 6.91852 15.5455 6.46018C14.1787 6.00184 12.7173 5.88351 11.2923 6.11583C9.86739 6.34815 8.52359 6.92383 7.38157 7.7912C6.23955 8.65857 5.33507 9.79048 4.74933 11.0853C4.16359 12.3801 3.91493 13.7973 4.02567 15.2096C4.13642 16.6219 4.60309 17.9852 5.38381 19.1769C6.16452 20.3687 7.23483 21.3517 8.49865 22.0377" stroke="#2680EA" stroke-width="2" stroke-linecap="round" stroke-linejoin="round"/>
<path d="M12.8889 20.845C12.3976 20.845 12 21.2425 12 21.7339V23.6983C12 24.1896 12.3976 24.5872 12.8889 24.5872C13.3802 24.5872 13.7778 24.1896 13.7778 23.6983V21.7339C13.7778 21.2425 13.3802 20.845 12.8889 20.845Z" fill="#2680EA"/>
<path d="M16.4443 17.4143C15.953 17.4143 15.5554 17.8119 15.5554 18.3032V23.6982C15.5554 24.1895 15.953 24.587 16.4443 24.587C16.9356 24.587 17.3332 24.1895 17.3332 23.6982V18.3032C17.3332 17.8119 16.9356 17.4143 16.4443 17.4143Z" fill="#2680EA"/>
<path d="M20 19.5872C19.5087 19.5872 19.1111 19.9847 19.1111 20.476V23.6983C19.1111 24.1896 19.5087 24.5872 20 24.5872C20.4913 24.5872 20.8889 24.1896 20.8889 23.6983V20.476C20.8889 19.9847 20.4913 19.5872 20 19.5872Z" fill="#2680EA"/>
<path d="M49.53 8.93346V23.2935H48.45C48.2833 23.2935 48.1433 23.2635 48.03 23.2035C47.9233 23.1435 47.8133 23.0468 47.7 22.9135L39.59 12.4235C39.6033 12.6035 39.6133 12.7801 39.62 12.9535C39.6333 13.1268 39.64 13.2901 39.64 13.4435V23.2935H37.77V8.93346H38.87C39.0567 8.93346 39.1967 8.95679 39.29 9.00346C39.3833 9.04346 39.4867 9.14012 39.6 9.29346L47.73 19.7935C47.71 19.6001 47.6933 19.4135 47.68 19.2335C47.6733 19.0468 47.67 18.8735 47.67 18.7135V8.93346H49.53ZM59.1 17.0835C59.1 16.6968 59.0433 16.3401 58.93 16.0135C58.8233 15.6868 58.6633 15.4035 58.45 15.1635C58.2367 14.9235 57.9767 14.7368 57.67 14.6035C57.3633 14.4701 57.01 14.4035 56.61 14.4035C55.79 14.4035 55.1433 14.6401 54.67 15.1135C54.2033 15.5868 53.9067 16.2435 53.78 17.0835H59.1ZM60.71 21.8435C60.47 22.1235 60.1933 22.3668 59.88 22.5735C59.5667 22.7735 59.2333 22.9368 58.88 23.0635C58.5267 23.1901 58.16 23.2835 57.78 23.3435C57.4067 23.4035 57.0367 23.4335 56.67 23.4335C55.97 23.4335 55.32 23.3168 54.72 23.0835C54.1267 22.8435 53.61 22.4968 53.17 22.0435C52.7367 21.5835 52.3967 21.0168 52.15 20.3435C51.91 19.6635 51.79 18.8835 51.79 18.0035C51.79 17.2968 51.9 16.6401 52.12 16.0335C52.34 15.4201 52.6533 14.8868 53.06 14.4335C53.4733 13.9801 53.9767 13.6235 54.57 13.3635C55.1633 13.1035 55.83 12.9735 56.57 12.9735C57.19 12.9735 57.76 13.0768 58.28 13.2835C58.8067 13.4835 59.26 13.7768 59.64 14.1635C60.02 14.5501 60.3167 15.0268 60.53 15.5935C60.75 16.1601 60.86 16.8068 60.86 17.5335C60.86 17.8335 60.8267 18.0368 60.76 18.1435C60.6933 18.2435 60.57 18.2935 60.39 18.2935H53.73C53.75 18.9001 53.8367 19.4301 53.99 19.8835C54.1433 20.3301 54.3533 20.7035 54.62 21.0035C54.8933 21.3035 55.2167 21.5268 55.59 21.6735C55.9633 21.8201 56.38 21.8935 56.84 21.8935C57.2733 21.8935 57.6467 21.8435 57.96 21.7435C58.28 21.6435 58.5533 21.5368 58.78 21.4235C59.0133 21.3035 59.2067 21.1935 59.36 21.0935C59.52 20.9935 59.66 20.9435 59.78 20.9435C59.94 20.9435 60.0633 21.0035 60.15 21.1235L60.71 21.8435ZM66.0578 23.4535C65.2378 23.4535 64.6045 23.2235 64.1578 22.7635C63.7178 22.3035 63.4978 21.6468 63.4978 20.7935V14.7135H62.3178C62.2045 14.7135 62.1078 14.6801 62.0278 14.6135C61.9545 14.5401 61.9178 14.4335 61.9178 14.2935V13.5035L63.5678 13.2735L64.0078 10.2435C64.0345 10.1301 64.0845 10.0435 64.1578 9.98346C64.2378 9.91679 64.3378 9.88346 64.4578 9.88346H65.4478V13.2935H68.3278V14.7135H65.4478V20.6635C65.4478 21.0635 65.5445 21.3635 65.7378 21.5635C65.9378 21.7568 66.1911 21.8535 66.4978 21.8535C66.6778 21.8535 66.8311 21.8301 66.9578 21.7835C67.0911 21.7368 67.2045 21.6868 67.2978 21.6335C67.3911 21.5735 67.4711 21.5201 67.5378 21.4735C67.6045 21.4268 67.6645 21.4035 67.7178 21.4035C67.7845 21.4035 67.8345 21.4201 67.8678 21.4535C67.9078 21.4801 67.9478 21.5268 67.9878 21.5935L68.5678 22.5335C68.2478 22.8268 67.8678 23.0535 67.4278 23.2135C66.9878 23.3735 66.5311 23.4535 66.0578 23.4535ZM81.6639 23.2935H79.5539C79.4006 23.2935 79.2772 23.2535 79.1839 23.1735C79.0906 23.0868 79.0172 22.9968 78.9639 22.9035L75.2539 16.9935C75.2006 17.1601 75.1372 17.3035 75.0639 17.4235L71.4539 22.9035C71.3872 22.9968 71.3106 23.0868 71.2239 23.1735C71.1372 23.2535 71.0272 23.2935 70.8939 23.2935H68.9039L73.8139 15.9035L69.1139 8.93346H71.2239C71.3772 8.93346 71.4906 8.95679 71.5639 9.00346C71.6372 9.05012 71.7006 9.12012 71.7539 9.21346L75.3839 14.8435C75.4372 14.6701 75.5106 14.5101 75.6039 14.3635L79.0039 9.25346C79.0639 9.14679 79.1306 9.06679 79.2039 9.01346C79.2772 8.96012 79.3706 8.93346 79.4839 8.93346H81.5139L76.7839 15.8135L81.6639 23.2935ZM84.945 20.7935C85.265 21.2135 85.6083 21.5068 85.975 21.6735C86.3483 21.8401 86.765 21.9235 87.225 21.9235C88.1183 21.9235 88.8083 21.6035 89.295 20.9635C89.7883 20.3168 90.035 19.3768 90.035 18.1435C90.035 17.4968 89.9783 16.9468 89.865 16.4935C89.7583 16.0335 89.5983 15.6601 89.385 15.3735C89.1783 15.0801 88.9217 14.8668 88.615 14.7335C88.3083 14.5935 87.9617 14.5235 87.575 14.5235C87.0083 14.5235 86.515 14.6501 86.095 14.9035C85.6817 15.1568 85.2983 15.5168 84.945 15.9835V20.7935ZM84.845 14.6535C85.0583 14.4001 85.285 14.1701 85.525 13.9635C85.7717 13.7501 86.035 13.5701 86.315 13.4235C86.595 13.2701 86.8917 13.1535 87.205 13.0735C87.525 12.9868 87.865 12.9435 88.225 12.9435C88.805 12.9435 89.3283 13.0568 89.795 13.2835C90.2683 13.5101 90.6717 13.8435 91.005 14.2835C91.3383 14.7235 91.595 15.2668 91.775 15.9135C91.9617 16.5601 92.055 17.3035 92.055 18.1435C92.055 18.8968 91.9517 19.5968 91.745 20.2435C91.545 20.8835 91.255 21.4401 90.875 21.9135C90.5017 22.3868 90.0417 22.7601 89.495 23.0335C88.955 23.3001 88.345 23.4335 87.665 23.4335C87.0583 23.4335 86.5383 23.3335 86.105 23.1335C85.6717 22.9335 85.285 22.6535 84.945 22.2935V26.7035H82.995V13.1335H84.165C84.4383 13.1335 84.6083 13.2635 84.675 13.5235L84.845 14.6535ZM96.245 8.53346V23.2935H94.285V8.53346H96.245ZM103.36 12.9735C104.107 12.9735 104.78 13.0968 105.38 13.3435C105.987 13.5835 106.5 13.9335 106.92 14.3935C107.347 14.8468 107.673 15.3968 107.9 16.0435C108.127 16.6835 108.24 17.4035 108.24 18.2035C108.24 19.0035 108.127 19.7268 107.9 20.3735C107.673 21.0201 107.347 21.5701 106.92 22.0235C106.5 22.4768 105.987 22.8268 105.38 23.0735C104.78 23.3135 104.107 23.4335 103.36 23.4335C102.607 23.4335 101.927 23.3135 101.32 23.0735C100.72 22.8268 100.207 22.4768 99.7802 22.0235C99.3535 21.5701 99.0235 21.0201 98.7902 20.3735C98.5635 19.7268 98.4502 19.0035 98.4502 18.2035C98.4502 17.4035 98.5635 16.6835 98.7902 16.0435C99.0235 15.3968 99.3535 14.8468 99.7802 14.3935C100.207 13.9335 100.72 13.5835 101.32 13.3435C101.927 13.0968 102.607 12.9735 103.36 12.9735ZM103.36 21.9135C104.32 21.9135 105.037 21.5901 105.51 20.9435C105.983 20.2968 106.22 19.3868 106.22 18.2135C106.22 17.0401 105.983 16.1301 105.51 15.4835C105.037 14.8301 104.32 14.5035 103.36 14.5035C102.387 14.5035 101.66 14.8301 101.18 15.4835C100.707 16.1301 100.47 17.0401 100.47 18.2135C100.47 19.3868 100.707 20.2968 101.18 20.9435C101.66 21.5901 102.387 21.9135 103.36 21.9135ZM112.257 15.0835C112.584 14.4168 112.977 13.8935 113.437 13.5135C113.897 13.1335 114.45 12.9435 115.097 12.9435C115.317 12.9435 115.524 12.9701 115.717 13.0235C115.917 13.0701 116.09 13.1435 116.237 13.2435L116.107 14.7135C116.06 14.8935 115.95 14.9835 115.777 14.9835C115.684 14.9835 115.544 14.9668 115.357 14.9335C115.17 14.8935 114.97 14.8735 114.757 14.8735C114.444 14.8735 114.167 14.9201 113.927 15.0135C113.687 15.1001 113.47 15.2335 113.277 15.4135C113.09 15.5868 112.924 15.8035 112.777 16.0635C112.63 16.3168 112.494 16.6068 112.367 16.9335V23.2935H110.417V13.1335H111.537C111.75 13.1335 111.894 13.1735 111.967 13.2535C112.047 13.3268 112.104 13.4601 112.137 13.6535L112.257 15.0835ZM124.1 17.0835C124.1 16.6968 124.043 16.3401 123.93 16.0135C123.823 15.6868 123.663 15.4035 123.45 15.1635C123.237 14.9235 122.977 14.7368 122.67 14.6035C122.363 14.4701 122.01 14.4035 121.61 14.4035C120.79 14.4035 120.143 14.6401 119.67 15.1135C119.203 15.5868 118.907 16.2435 118.78 17.0835H124.1ZM125.71 21.8435C125.47 22.1235 125.193 22.3668 124.88 22.5735C124.567 22.7735 124.233 22.9368 123.88 23.0635C123.527 23.1901 123.16 23.2835 122.78 23.3435C122.407 23.4035 122.037 23.4335 121.67 23.4335C120.97 23.4335 120.32 23.3168 119.72 23.0835C119.127 22.8435 118.61 22.4968 118.17 22.0435C117.737 21.5835 117.397 21.0168 117.15 20.3435C116.91 19.6635 116.79 18.8835 116.79 18.0035C116.79 17.2968 116.9 16.6401 117.12 16.0335C117.34 15.4201 117.653 14.8868 118.06 14.4335C118.473 13.9801 118.977 13.6235 119.57 13.3635C120.163 13.1035 120.83 12.9735 121.57 12.9735C122.19 12.9735 122.76 13.0768 123.28 13.2835C123.807 13.4835 124.26 13.7768 124.64 14.1635C125.02 14.5501 125.317 15.0268 125.53 15.5935C125.75 16.1601 125.86 16.8068 125.86 17.5335C125.86 17.8335 125.827 18.0368 125.76 18.1435C125.693 18.2435 125.57 18.2935 125.39 18.2935H118.73C118.75 18.9001 118.837 19.4301 118.99 19.8835C119.143 20.3301 119.353 20.7035 119.62 21.0035C119.893 21.3035 120.217 21.5268 120.59 21.6735C120.963 21.8201 121.38 21.8935 121.84 21.8935C122.273 21.8935 122.647 21.8435 122.96 21.7435C123.28 21.6435 123.553 21.5368 123.78 21.4235C124.013 21.3035 124.207 21.1935 124.36 21.0935C124.52 20.9935 124.66 20.9435 124.78 20.9435C124.94 20.9435 125.063 21.0035 125.15 21.1235L125.71 21.8435Z" fill="#2680EA"/>
</svg>
