<svg width="14" height="14" viewBox="0 0 14 14" fill="none" xmlns="http://www.w3.org/2000/svg">
<path fill-rule="evenodd" clip-rule="evenodd" d="M9.2998 0C9.85161 0 10.2957 -8.95932e-07 10.6543 0.0292969C11.0186 0.0590662 11.3387 0.121634 11.6348 0.272461C12.1052 0.512145 12.4879 0.89483 12.7275 1.36523C12.8784 1.66133 12.9409 1.98136 12.9707 2.3457C13 2.70429 13 3.14839 13 3.7002V5.50098C12.9026 5.50033 12.8022 5.5 12.7002 5.5H12V3.7002C12 3.13189 11.9998 2.73518 11.9746 2.42676C11.9499 2.12471 11.9039 1.95091 11.8369 1.81934C11.6931 1.53709 11.4629 1.3069 11.1807 1.16309C11.0491 1.09613 10.8753 1.05009 10.5732 1.02539C10.2648 1.00019 9.86811 1 9.2998 1H5V12H6.5V13H3.7002C3.14839 13 2.70429 13 2.3457 12.9707C1.98136 12.9409 1.66133 12.8784 1.36523 12.7275C0.89483 12.4879 0.512145 12.1052 0.272461 11.6348C0.121634 11.3387 0.0590662 11.0186 0.0292969 10.6543C-8.9407e-07 10.2957 0 9.85161 0 9.2998V3.7002C0 3.14839 -8.9407e-07 2.70429 0.0292969 2.3457C0.0590662 1.98136 0.121634 1.66133 0.272461 1.36523C0.512144 0.894829 0.894829 0.512144 1.36523 0.272461C1.66133 0.121634 1.98136 0.0590662 2.3457 0.0292969C2.70429 -8.9407e-07 3.14839 0 3.7002 0H9.2998ZM3.7002 1C3.13189 1 2.73518 1.00019 2.42676 1.02539C2.12471 1.05009 1.95091 1.09613 1.81934 1.16309C1.53709 1.3069 1.3069 1.53709 1.16309 1.81934C1.09613 1.95091 1.05009 2.12471 1.02539 2.42676C1.00019 2.73518 1 3.13189 1 3.7002V9.2998C1 9.86811 1.00019 10.2648 1.02539 10.5732C1.05009 10.8753 1.09613 11.0491 1.16309 11.1807C1.3069 11.4629 1.53709 11.6931 1.81934 11.8369C1.95091 11.9039 2.12471 11.9499 2.42676 11.9746C2.73518 11.9998 3.13189 12 3.7002 12H4V1H3.7002Z" fill="black"/>
<path d="M12.4333 8.83333C12.8067 8.83333 12.9934 8.83333 13.136 8.76067C13.2614 8.69676 13.3634 8.59477 13.4273 8.46933C13.5 8.32672 13.5 8.14004 13.5 7.76667V7.56667C13.5 7.1933 13.5 7.00661 13.4273 6.86401C13.3634 6.73857 13.2614 6.63658 13.136 6.57266C12.9934 6.5 12.8067 6.5 12.4333 6.5L8.56667 6.5C8.1933 6.5 8.00661 6.5 7.86401 6.57266C7.73856 6.63658 7.63658 6.73856 7.57266 6.86401C7.5 7.00661 7.5 7.1933 7.5 7.56667L7.5 7.76667C7.5 8.14004 7.5 8.32672 7.57266 8.46933C7.63658 8.59477 7.73856 8.69676 7.86401 8.76067C8.00661 8.83333 8.1933 8.83333 8.56667 8.83333H12.4333Z" stroke="#040D17" stroke-linecap="round" stroke-linejoin="round"/>
<path d="M12.4333 13C12.8067 13 12.9934 13 13.136 12.9273C13.2614 12.8634 13.3634 12.7614 13.4273 12.636C13.5 12.4934 13.5 12.3067 13.5 11.9333V11.7333C13.5 11.36 13.5 11.1733 13.4273 11.0307C13.3634 10.9052 13.2614 10.8032 13.136 10.7393C12.9934 10.6667 12.8067 10.6667 12.4333 10.6667L8.56667 10.6667C8.1933 10.6667 8.00661 10.6667 7.86401 10.7393C7.73856 10.8032 7.63658 10.9052 7.57266 11.0307C7.5 11.1733 7.5 11.36 7.5 11.7333L7.5 11.9333C7.5 12.3067 7.5 12.4934 7.57266 12.636C7.63658 12.7614 7.73856 12.8634 7.86401 12.9273C8.00661 13 8.1933 13 8.56667 13H12.4333Z" stroke="#040D17" stroke-linecap="round" stroke-linejoin="round"/>
</svg>
