<svg width="530" height="529" viewBox="0 0 530 529" fill="none" xmlns="http://www.w3.org/2000/svg">
<path d="M505.803 358.679C452.5 483.269 311.796 536.784 201.553 527.659C171.452 525.168 110.888 520.155 63.5998 475.436C-27.2147 389.555 -13.2284 210.041 73.7071 104.353C84.9027 90.7427 162.396 -0.445671 283.156 0.774835C371.569 1.66855 433.626 51.612 441.172 57.8341C450.704 65.6942 471.729 84.3723 490.677 114.004C535.199 183.627 539.112 280.823 505.803 358.679Z" fill="url(#paint0_linear_6246_14936)"/>
<g opacity="0.3">
<path d="M436.442 65.5861C436.388 64.6381 437.059 63.7832 438.017 63.6282C440.112 63.2886 442.253 63.0354 444.38 62.8747C445.415 62.7966 446.317 63.572 446.395 64.6065C446.396 64.619 446.396 64.6311 446.397 64.643C446.454 65.6622 445.685 66.5442 444.663 66.6214C442.642 66.7737 440.608 67.0148 438.618 67.3371C437.594 67.5032 436.629 66.8074 436.463 65.783C436.452 65.7173 436.446 65.6514 436.442 65.5861ZM452.79 64.7867C452.785 64.7134 452.786 64.6387 452.79 64.5636C452.854 63.5279 453.745 62.7398 454.781 62.8034C456.908 62.9345 459.051 63.158 461.149 63.4676C462.176 63.619 462.883 64.5696 462.734 65.6003C462.582 66.6269 461.627 67.3359 460.601 67.1845C458.607 66.8905 456.571 66.6784 454.55 66.554C453.589 66.4952 452.842 65.7243 452.79 64.7867ZM468.907 67.6067C468.895 67.3978 468.918 67.1834 468.981 66.9713C469.274 65.9761 470.318 65.406 471.313 65.6987C473.353 66.2984 475.394 66.9946 477.376 67.7679C478.343 68.1456 478.819 69.235 478.444 70.201C478.067 71.1674 476.977 71.6455 476.011 71.2686C474.128 70.5342 472.191 69.8732 470.253 69.3035C469.47 69.0734 468.95 68.3776 468.907 67.6067ZM483.992 73.9611C483.972 73.6159 484.048 73.2615 484.23 72.9378C484.737 72.0331 485.883 71.7112 486.788 72.2189C488.644 73.2611 490.477 74.3956 492.236 75.5913C493.093 76.1748 493.316 77.3427 492.734 78.2013C492.15 79.0592 490.982 79.2819 490.124 78.6989C488.453 77.5634 486.712 76.4854 484.948 75.4957C484.367 75.1693 484.027 74.5806 483.992 73.9611ZM497.281 83.5198C497.254 83.0358 497.413 82.5417 497.763 82.1542C498.459 81.3844 499.648 81.3248 500.417 82.021C501.991 83.4451 503.527 84.9568 504.981 86.5141C505.689 87.272 505.649 88.4611 504.89 89.1693C504.131 89.8772 502.943 89.8366 502.234 89.0781C500.853 87.5976 499.393 86.1609 497.897 84.8075C497.515 84.4622 497.308 83.9959 497.281 83.5198ZM508.124 95.7792C508.088 95.1523 508.368 94.5222 508.919 94.1346C509.768 93.5382 510.94 93.7426 511.537 94.5914C512.759 96.3312 513.923 98.1455 514.994 99.9834C515.516 100.881 515.212 102.03 514.316 102.553C513.42 103.075 512.269 102.772 511.747 101.875C510.729 100.129 509.624 98.4053 508.462 96.7522C508.253 96.4543 508.143 96.1173 508.124 95.7792ZM516.461 164.263C516.446 164.003 516.486 163.736 516.586 163.478C517.316 161.597 517.974 159.658 518.541 157.715C518.832 156.72 519.875 156.148 520.871 156.439C521.867 156.729 522.439 157.772 522.148 158.768C521.551 160.814 520.858 162.856 520.089 164.838C519.714 165.805 518.625 166.285 517.658 165.909C516.948 165.634 516.501 164.975 516.461 164.263ZM515.975 110.127C515.931 109.349 516.378 108.595 517.14 108.283C518.1 107.89 519.197 108.35 519.59 109.31C520.396 111.279 521.125 113.306 521.758 115.336C522.063 116.328 521.516 117.38 520.524 117.689C519.534 117.998 518.48 117.446 518.171 116.455C517.57 114.527 516.877 112.602 516.113 110.733C516.032 110.534 515.986 110.33 515.975 110.127ZM520.625 148.435C520.618 148.311 520.623 148.185 520.641 148.057C520.932 146.059 521.14 144.021 521.261 142.001C521.323 140.965 522.213 140.175 523.248 140.237C524.284 140.299 525.079 141.188 525.012 142.225C524.885 144.35 524.666 146.495 524.36 148.598C524.211 149.625 523.257 150.336 522.231 150.187C521.332 150.056 520.674 149.308 520.625 148.435ZM520.424 125.87C520.371 124.923 521.04 124.069 521.996 123.912C523.02 123.744 523.986 124.438 524.155 125.462C524.498 127.559 524.756 129.698 524.92 131.821C524.921 131.834 524.922 131.848 524.923 131.861C524.98 132.879 524.213 133.76 523.192 133.839C522.157 133.919 521.254 133.146 521.174 132.111C521.018 130.095 520.773 128.062 520.446 126.07C520.435 126.003 520.428 125.936 520.424 125.87Z" fill="#BDD0FB"/>
<path d="M510.594 176.078C510.573 175.709 510.661 175.329 510.87 174.99C511.377 174.165 511.875 173.316 512.352 172.466C512.859 171.561 514.005 171.238 514.91 171.745C515.815 172.252 516.139 173.398 515.63 174.302C515.129 175.197 514.604 176.09 514.07 176.958C513.527 177.842 512.369 178.118 511.486 177.575C510.941 177.24 510.628 176.672 510.594 176.078Z" fill="#BDD0FB"/>
</g>
<g opacity="0.3">
<path d="M463.918 209.276C463.867 208.371 464.478 207.537 465.393 207.337C466.339 207.131 467.297 206.901 468.239 206.654C469.243 206.391 470.27 206.991 470.533 207.994C470.797 209.003 470.195 210.025 469.192 210.288C468.2 210.548 467.191 210.791 466.195 211.008C465.181 211.23 464.18 210.588 463.958 209.574C463.936 209.474 463.923 209.375 463.918 209.276Z" fill="#BDD0FB"/>
<path d="M375.191 141.992C375.142 141.129 375.108 140.262 375.089 139.391C375.065 138.353 375.887 137.493 376.925 137.47C377.962 137.446 378.826 138.273 378.846 139.306C378.891 141.316 379.018 143.32 379.226 145.284C379.333 146.317 378.587 147.241 377.556 147.35C376.523 147.459 375.598 146.711 375.489 145.679C375.36 144.464 375.26 143.223 375.191 141.992ZM375.543 129.482C375.537 129.378 375.54 129.27 375.552 129.162C375.788 127.079 376.116 124.983 376.525 122.933C376.728 121.915 377.717 121.255 378.735 121.458C379.752 121.661 380.415 122.652 380.209 123.668C379.821 125.616 379.51 127.607 379.285 129.586C379.168 130.617 378.237 131.358 377.207 131.241C376.283 131.136 375.593 130.379 375.543 129.482ZM377.208 155.415C377.158 154.531 377.741 153.708 378.632 153.488C379.64 153.239 380.658 153.854 380.908 154.861C381.384 156.788 381.949 158.721 382.589 160.606C382.921 161.589 382.396 162.655 381.413 162.989C380.43 163.322 379.363 162.795 379.03 161.813C378.357 159.827 377.761 157.792 377.26 155.762C377.231 155.647 377.214 155.53 377.208 155.415ZM379.111 113.772C379.098 113.534 379.131 113.29 379.213 113.051C379.901 111.073 380.681 109.1 381.533 107.188C381.955 106.24 383.065 105.814 384.013 106.236C384.961 106.658 385.388 107.768 384.965 108.717C384.156 110.532 383.415 112.405 382.762 114.284C382.422 115.264 381.351 115.782 380.371 115.442C379.631 115.184 379.153 114.51 379.111 113.772ZM382.777 170.517C382.736 169.792 383.121 169.077 383.812 168.731C384.74 168.267 385.869 168.642 386.334 169.57C387.222 171.344 388.198 173.105 389.236 174.804C389.777 175.69 389.498 176.846 388.612 177.387C387.727 177.928 386.571 177.648 386.03 176.763C384.937 174.974 383.909 173.12 382.974 171.252C382.855 171.016 382.791 170.766 382.777 170.517ZM391.526 184.032C391.493 183.452 391.729 182.865 392.213 182.47C393.017 181.814 394.201 181.933 394.857 182.737C396.115 184.279 397.454 185.785 398.834 187.215C399.555 187.96 399.535 189.149 398.788 189.871C398.041 190.592 396.852 190.571 396.131 189.825C394.678 188.321 393.27 186.735 391.946 185.113C391.686 184.794 391.548 184.415 391.526 184.032ZM403.013 195.318C402.988 194.877 403.118 194.426 403.413 194.051C404.054 193.236 405.235 193.095 406.051 193.737C407.616 194.969 409.249 196.148 410.908 197.242C411.773 197.813 412.013 198.978 411.441 199.845C410.869 200.71 409.704 200.95 408.838 200.378C407.094 199.227 405.374 197.986 403.727 196.69C403.286 196.343 403.042 195.838 403.013 195.318ZM416.687 203.83C416.67 203.524 416.727 203.211 416.868 202.915C417.316 201.979 418.438 201.583 419.374 202.031C421.169 202.891 423.021 203.683 424.879 204.386C425.85 204.753 426.339 205.839 425.972 206.808C425.605 207.778 424.52 208.267 423.55 207.9C421.593 207.16 419.642 206.325 417.752 205.421C417.111 205.114 416.724 204.492 416.687 203.83ZM431.902 209.134C431.892 208.962 431.907 208.786 431.947 208.61C432.177 207.598 433.184 206.965 434.196 207.196C436.132 207.637 438.112 208.001 440.082 208.278C441.11 208.423 441.825 209.376 441.681 210.4C441.537 211.428 440.586 212.144 439.559 211.999C437.484 211.707 435.399 211.324 433.361 210.859C432.526 210.669 431.948 209.949 431.902 209.134ZM447.899 210.965C447.897 210.926 447.897 210.887 447.897 210.848C447.901 209.811 448.747 208.973 449.784 208.979C451.248 208.985 452.73 208.947 454.19 208.865C454.718 208.835 455.246 208.799 455.77 208.758C456.805 208.677 457.709 209.45 457.79 210.485C457.892 211.531 457.098 212.423 456.064 212.504C455.511 212.548 454.958 212.585 454.401 212.616C452.866 212.703 451.307 212.743 449.766 212.736C448.768 212.731 447.955 211.948 447.899 210.965Z" fill="#BDD0FB"/>
<path d="M386.077 99.1967C386.056 98.8237 386.145 98.4413 386.357 98.1003C386.894 97.2365 387.46 96.3677 388.038 95.5183C388.622 94.6604 389.79 94.4382 390.648 95.0222C391.506 95.6063 391.729 96.7738 391.144 97.6323C390.595 98.4394 390.058 99.2646 389.548 100.085C389 100.965 387.842 101.236 386.961 100.688C386.42 100.352 386.11 99.7865 386.077 99.1967Z" fill="#BDD0FB"/>
</g>
<path d="M407.976 100.501C407.7 100.754 407.614 101.155 407.763 101.498L412.009 111.305C409.191 115.425 407.01 120.023 405.616 124.966L395.374 127.993C395.015 128.099 394.762 128.422 394.745 128.796L394.173 141.602C394.156 141.977 394.379 142.32 394.727 142.458L404.658 146.387C405.605 151.436 407.367 156.21 409.807 160.564L404.701 169.953C404.522 170.282 404.572 170.689 404.825 170.965L413.475 180.426C413.728 180.702 414.128 180.788 414.472 180.639L424.279 176.392C428.398 179.21 432.997 181.392 437.94 182.785L440.967 193.028C441.073 193.387 441.396 193.639 441.77 193.656L454.576 194.229C454.951 194.246 455.294 194.023 455.432 193.675L459.361 183.743C464.409 182.796 469.184 181.034 473.538 178.595L482.927 183.7C483.256 183.879 483.662 183.829 483.939 183.577L493.399 174.926C493.676 174.674 493.761 174.273 493.613 173.93L489.365 164.123C492.184 160.003 494.365 155.405 495.759 150.462L506.001 147.435C506.36 147.328 506.613 147.006 506.63 146.632L507.202 133.825C507.219 133.451 506.997 133.108 506.648 132.97L496.717 129.04C495.77 123.992 494.008 119.218 491.568 114.863L496.674 105.475C496.853 105.146 496.803 104.739 496.55 104.463L487.9 95.0024C487.647 94.7259 487.247 94.6404 486.903 94.7891L477.096 99.0359C472.977 96.2178 468.378 94.0362 463.435 92.6425L460.408 82.4001C460.301 82.041 459.979 81.7886 459.605 81.7719L446.798 81.1991C446.424 81.1825 446.081 81.4048 445.943 81.7532L442.013 91.6843C436.965 92.6312 432.191 94.3936 427.837 96.8328L418.448 91.7276C418.118 91.5486 417.712 91.5982 417.436 91.851L407.976 100.501Z" fill="#EBEBEB"/>
<path d="M437.821 138.43C437.468 132.159 441.763 126.393 448.095 125.092C455.055 123.663 461.88 128.162 463.31 135.121C464.003 138.493 463.341 141.933 461.447 144.806C459.553 147.679 456.653 149.644 453.281 150.336C446.321 151.765 439.496 147.266 438.066 140.306C437.937 139.679 437.856 139.052 437.821 138.43ZM460.555 137.179C460.527 136.695 460.465 136.21 460.365 135.726C459.269 130.39 454.036 126.94 448.7 128.036C443.364 129.132 439.912 134.365 441.01 139.702C442.106 145.038 447.34 148.487 452.675 147.392C455.261 146.86 457.484 145.355 458.937 143.151C460.117 141.361 460.673 139.283 460.555 137.179Z" fill="white"/>
<path d="M419.255 139.74C419.194 138.663 419.187 137.576 419.236 136.484C419.251 136.14 419.272 135.797 419.298 135.453C419.429 133.761 419.693 132.082 420.089 130.441C420.094 130.419 420.099 130.396 420.105 130.374C420.12 130.311 420.136 130.247 420.152 130.184C420.182 130.061 420.215 129.938 420.247 129.815C420.331 129.492 420.614 129.273 420.93 129.255C421.007 129.251 421.086 129.258 421.165 129.279C421.566 129.384 421.805 129.796 421.7 130.197C421.157 132.262 420.833 134.4 420.738 136.551C420.258 147.235 425.424 156.887 433.588 162.62C438.129 165.809 443.598 167.784 449.54 168.05C450.582 168.097 451.619 168.09 452.646 168.032C459.56 167.642 466.075 164.909 471.254 160.173C477.203 154.733 480.678 147.301 481.038 139.248C481.78 122.616 468.861 108.492 452.236 107.749C451.211 107.703 450.188 107.709 449.17 107.767C444.76 108.016 440.453 109.228 436.563 111.33C436.463 111.384 436.356 111.413 436.249 111.419C435.967 111.435 435.688 111.29 435.545 111.026C435.349 110.66 435.483 110.204 435.849 110.007C439.933 107.801 444.455 106.528 449.085 106.267C450.153 106.206 451.227 106.2 452.303 106.247C469.757 107.028 483.32 121.867 482.54 139.315C482.162 147.77 478.514 155.571 472.268 161.282C466.831 166.254 459.992 169.123 452.733 169.533C451.655 169.594 450.567 169.6 449.473 169.552C441.018 169.173 433.217 165.525 427.506 159.28C422.533 153.842 419.664 147 419.255 139.74Z" fill="white"/>
<g opacity="0.3">
<path d="M383.405 4.36022C383.377 3.85896 383.678 3.3789 384.175 3.20235C385.103 2.87215 386.054 2.56542 387.001 2.29123C387.616 2.11298 388.259 2.46721 388.438 3.08314C388.619 3.69888 388.262 4.34206 387.646 4.5205C386.744 4.78182 385.838 5.07398 384.952 5.38904C384.349 5.604 383.685 5.28838 383.47 4.68475C383.432 4.57727 383.411 4.46827 383.405 4.36022Z" fill="#BDD0FB"/>
<path d="M392.054 2.15198C392.021 1.56481 392.437 1.0363 393.03 0.942259C394.705 0.675261 396.413 0.491711 398.105 0.396341C398.462 0.376283 398.82 0.360198 399.179 0.347331C399.82 0.325381 400.335 0.861645 400.38 1.46622C400.403 2.10675 399.902 2.64396 399.262 2.66705C398.919 2.67897 398.577 2.6943 398.236 2.71341C396.622 2.80443 394.992 2.97946 393.395 3.23359C392.762 3.33464 392.168 2.9032 392.066 2.27062C392.061 2.23069 392.056 2.19115 392.054 2.15198ZM404.095 1.72925C404.092 1.67437 404.092 1.61817 404.097 1.56235C404.153 0.923527 404.715 0.451026 405.354 0.50628C407.402 0.683773 409.458 0.990133 411.462 1.41703C412.09 1.55024 412.488 2.16976 412.356 2.79345C412.222 3.42073 411.607 3.82019 410.98 3.68698C409.067 3.27995 407.106 2.98798 405.153 2.81824C404.571 2.76753 404.127 2.29617 404.095 1.72925ZM415.879 4.23895C415.87 4.09192 415.89 3.94092 415.941 3.79332C416.151 3.18799 416.813 2.86801 417.418 3.07805C419.357 3.75188 421.276 4.5542 423.12 5.4638C423.695 5.74745 423.931 6.44135 423.646 7.01792C423.363 7.59222 422.667 7.82837 422.093 7.5451C420.335 6.67769 418.506 5.91246 416.657 5.27042C416.199 5.11128 415.904 4.69441 415.879 4.23895ZM426.685 9.56906C426.672 9.32912 426.733 9.08351 426.874 8.86722C427.226 8.33209 427.946 8.18298 428.482 8.53531C430.2 9.66613 431.863 10.9127 433.424 12.2424C433.912 12.6582 433.969 13.391 433.555 13.8779C433.14 14.3661 432.408 14.4248 431.919 14.0092C430.431 12.7418 428.845 11.5521 427.206 10.4743C426.887 10.2643 426.705 9.92367 426.685 9.56906ZM435.862 17.3767C435.843 17.0418 435.969 16.701 436.236 16.4561C436.707 16.0228 437.441 16.054 437.875 16.5256C439.264 18.0386 440.574 19.6514 441.767 21.3196C442.141 21.8411 442.02 22.5658 441.498 22.9384C440.977 23.311 440.251 23.1907 439.879 22.6697C438.741 21.0779 437.492 19.5394 436.166 18.0961C435.977 17.8904 435.877 17.6352 435.862 17.3767ZM442.865 27.1737C442.84 26.7398 443.063 26.3097 443.47 26.0881C444.033 25.7823 444.737 25.9912 445.043 26.554C446.023 28.359 446.9 30.2425 447.648 32.1514C447.88 32.7505 447.586 33.4215 446.99 33.6554C446.394 33.8893 445.72 33.5947 445.487 32.9984C444.774 31.1777 443.938 29.3829 443.004 27.6621C442.919 27.506 442.874 27.3394 442.865 27.1737ZM447.259 38.3825C447.228 37.8394 447.584 37.333 448.13 37.1939C448.751 37.0357 449.383 37.411 449.542 38.032C450.047 40.0159 450.435 42.0574 450.694 44.1005C450.764 44.7389 450.323 45.3176 449.688 45.3976C449.052 45.4782 448.472 45.0281 448.39 44.3925C448.144 42.4434 447.775 40.4961 447.293 38.6046C447.274 38.5304 447.263 38.4561 447.259 38.3825ZM448.419 56.3615C448.415 56.2947 448.417 56.2261 448.425 56.1568C448.627 54.4771 448.74 52.757 448.762 51.0435C448.766 50.7839 448.768 50.5292 448.766 50.2749C448.764 49.6336 449.281 49.1121 449.922 49.1095C450.564 49.1057 451.104 49.6268 451.088 50.2645C451.088 50.5357 451.087 50.8064 451.083 51.0785C451.06 52.8686 450.941 54.672 450.729 56.4333C450.653 57.0698 450.076 57.5234 449.439 57.4469C448.872 57.379 448.45 56.9131 448.419 56.3615Z" fill="#BDD0FB"/>
</g>
<g opacity="0.3">
<path d="M350.975 53.9321C350.94 53.2997 351.42 52.754 352.054 52.7097C352.693 52.6652 353.248 53.1476 353.292 53.787C353.425 55.7118 353.677 57.6445 354.041 59.532C354.156 60.1584 353.751 60.7701 353.121 60.8912C352.491 61.0125 351.883 60.6 351.762 59.9712C351.381 57.9917 351.116 55.9655 350.976 53.948C350.976 53.9429 350.976 53.9372 350.975 53.9321ZM350.921 47.9959C350.919 47.9539 350.919 47.9126 350.921 47.8699C351.023 45.8523 351.249 43.8204 351.592 41.8309C351.702 41.1993 352.301 40.7758 352.933 40.885C353.565 40.9934 353.986 41.5974 353.88 42.2253C353.552 44.1238 353.337 46.0626 353.238 47.9877C353.206 48.6275 352.661 49.1201 352.021 49.0875C351.423 49.0573 350.954 48.5797 350.921 47.9959ZM353.22 65.5657C353.191 65.0519 353.508 64.5632 354.021 64.397C354.629 64.1998 355.284 64.5336 355.482 65.1433C356.077 66.9796 356.789 68.7946 357.599 70.5389C357.867 71.1225 357.616 71.8103 357.034 72.0796C356.454 72.3494 355.763 72.0968 355.493 71.5155C354.644 69.6872 353.898 67.7838 353.274 65.859C353.243 65.7613 353.225 65.6631 353.22 65.5657ZM352.944 36.3148C352.937 36.1831 352.952 36.0478 352.992 35.9138C353.576 33.9788 354.287 32.0602 355.103 30.2125C355.362 29.626 356.047 29.3609 356.634 29.6196C357.218 29.8785 357.484 30.5637 357.226 31.1497C356.448 32.9118 355.771 34.7404 355.213 36.5856C355.028 37.1987 354.38 37.5461 353.767 37.3605C353.288 37.2153 352.971 36.7877 352.944 36.3148ZM358.209 76.3109C358.186 75.9008 358.382 75.4908 358.755 75.2593C359.3 74.9204 360.015 75.0879 360.354 75.6317C361.369 77.2674 362.496 78.8575 363.705 80.3586C364.107 80.8585 364.027 81.5889 363.527 81.9905C363.028 82.392 362.297 82.3129 361.896 81.8135C360.63 80.2392 359.447 78.5721 358.382 76.8575C358.276 76.6863 358.22 76.4982 358.209 76.3109ZM365.631 85.5458C365.613 85.2319 365.722 84.9123 365.958 84.6699C366.406 84.211 367.141 84.2016 367.599 84.6489C368.982 85.9966 370.457 87.272 371.985 88.4395C372.495 88.8291 372.592 89.5578 372.203 90.0662C371.814 90.5756 371.086 90.6727 370.577 90.2839C368.975 89.0598 367.428 87.7231 365.979 86.3111C365.763 86.1003 365.647 85.8253 365.631 85.5458ZM375.052 92.7375C375.04 92.5169 375.09 92.2906 375.211 92.0857C375.535 91.5327 376.246 91.3481 376.799 91.6726C378.463 92.6509 380.201 93.5348 381.966 94.2996C382.552 94.5549 382.824 95.2382 382.568 95.8257C382.313 96.4138 381.63 96.6837 381.042 96.4286C379.192 95.6259 377.368 94.6992 375.623 93.674C375.275 93.4695 375.073 93.112 375.052 92.7375Z" fill="#BDD0FB"/>
<path d="M357.757 25.423C357.744 25.1996 357.796 24.9702 357.92 24.7636C358.429 23.9109 358.966 23.0698 359.515 22.2624C359.876 21.7331 360.598 21.5954 361.128 21.9559C361.655 22.3173 361.794 23.038 361.434 23.5684C360.91 24.338 360.398 25.1409 359.911 25.9542C359.583 26.5045 358.87 26.6835 358.32 26.3548C357.977 26.1495 357.778 25.7947 357.757 25.423Z" fill="#BDD0FB"/>
</g>
<path d="M372.778 25.5429C372.593 25.7119 372.535 25.98 372.635 26.2099L375.477 32.7725C373.591 35.5287 372.131 38.6057 371.199 41.9136L364.345 43.9392C364.105 44.0102 363.936 44.2259 363.925 44.4765L363.541 53.0459C363.53 53.2965 363.679 53.5264 363.912 53.6185L370.558 56.2476C371.191 59.6257 372.371 62.8206 374.003 65.7343L370.587 72.0169C370.467 72.2372 370.5 72.5091 370.669 72.6942L376.458 79.0245C376.627 79.2096 376.895 79.2669 377.125 79.1672L383.687 76.3254C386.443 78.2112 389.52 79.6711 392.828 80.6036L394.854 87.4574C394.925 87.6977 395.141 87.8667 395.391 87.8778L403.961 88.261C404.211 88.2722 404.441 88.1232 404.533 87.8903L407.163 81.2447C410.541 80.6112 413.736 79.4319 416.649 77.7995L422.932 81.2158C423.152 81.3354 423.424 81.3022 423.609 81.1333L429.94 75.3446C430.125 75.1757 430.182 74.9075 430.082 74.6776L427.24 68.1151C429.126 65.3588 430.586 62.2818 431.519 58.974L438.372 56.9483C438.613 56.8772 438.782 56.6616 438.793 56.4111L439.176 47.8417C439.187 47.5913 439.038 47.3614 438.805 47.2691L432.16 44.6398C431.526 41.2617 430.347 38.0666 428.714 35.1531L432.13 28.8706C432.25 28.6504 432.217 28.3783 432.048 28.1934L426.26 21.863C426.09 21.6782 425.822 21.6206 425.592 21.7204L419.03 24.562C416.274 22.6762 413.197 21.2165 409.889 20.284L407.863 13.4302C407.792 13.1901 407.576 13.0209 407.326 13.0099L398.757 12.6266C398.506 12.6154 398.276 12.7643 398.184 12.9975L395.555 19.6431C392.177 20.2768 388.982 21.4558 386.068 23.0881L379.786 19.672C379.565 19.5522 379.293 19.5855 379.108 19.7545L372.778 25.5429Z" fill="#EBEBEB"/>
<path d="M392.593 50.9204C392.488 49.0514 392.982 47.2053 394.03 45.6141C395.321 43.6567 397.297 42.3191 399.593 41.8475C404.332 40.8736 408.981 43.9377 409.956 48.6786C410.923 53.4274 407.865 58.0693 403.125 59.0427C400.828 59.5148 398.485 59.0639 396.528 57.7735C394.57 56.4834 393.232 54.5077 392.761 52.2105C392.673 51.7813 392.617 51.3497 392.593 50.9204ZM407.806 50.0857C407.788 49.7738 407.748 49.4603 407.684 49.1454C406.966 45.6584 403.547 43.4045 400.06 44.1209C398.371 44.4679 396.917 45.4515 395.969 46.8914C395.019 48.3318 394.689 50.0545 395.034 51.7444C395.381 53.4337 396.365 54.8871 397.805 55.8361C399.245 56.7854 400.968 57.1169 402.658 56.7697C405.83 56.118 407.983 53.2282 407.806 50.0857Z" fill="white"/>
<path d="M379.668 51.8148C379.627 51.0818 379.623 50.3407 379.656 49.5922C379.722 48.1056 379.939 46.6242 380.303 45.1855C380.32 45.121 380.337 45.0564 380.353 44.9919C380.484 44.4931 380.92 44.1559 381.409 44.1277C381.528 44.1211 381.65 44.1328 381.771 44.1646C382.391 44.3273 382.758 44.9626 382.598 45.5815C382.245 46.9214 382.036 48.3052 381.975 49.6945V49.6951C381.971 49.7714 381.969 49.848 381.966 49.9237C381.85 53.213 382.559 56.4067 383.992 59.2752C384.77 60.8322 385.762 62.2937 386.955 63.6221C386.965 63.6329 386.974 63.6437 386.984 63.6545C387.014 63.6874 387.044 63.7203 387.074 63.7527C390.596 67.6038 395.406 69.8537 400.62 70.0866C401.295 70.1173 401.965 70.1129 402.63 70.0755C407.106 69.8228 411.324 68.053 414.677 64.987C418.529 61.4649 420.777 56.6543 421.01 51.4413C421.241 46.2311 419.432 41.2354 415.911 37.3835C412.39 33.5324 407.579 31.2825 402.365 31.0496C401.702 31.0195 401.039 31.0238 400.381 31.0609C397.525 31.2223 394.738 32.0063 392.22 33.367C392.064 33.4506 391.899 33.4959 391.734 33.5046C391.299 33.529 390.868 33.3065 390.647 32.8979C390.344 32.3333 390.552 31.6303 391.117 31.3251C393.935 29.8028 397.054 28.9251 400.248 28.744C400.986 28.7024 401.726 28.6977 402.468 28.7308C408.302 28.9917 413.684 31.5086 417.624 35.8179C421.564 40.1267 423.594 45.7089 423.329 51.5444C423.069 57.3775 420.553 62.7594 416.243 66.6993C412.492 70.13 407.773 72.1095 402.765 72.3922C402.022 72.434 401.271 72.4389 400.517 72.4052C389.223 71.9002 380.291 62.8671 379.668 51.8148Z" fill="#EBEBEB"/>
<path d="M357.046 116.288C355.531 116.252 354.311 115.028 354.283 113.513C354.001 97.9749 349.154 20.8253 281.212 4.70324C205.57 -13.2458 170.954 63.6779 170.954 63.6779C170.954 63.6779 77.3638 27.7804 59.4148 123.935C0.731583 138.019 -14.5147 214.657 23.6538 252.105C29.7183 258.055 37.8469 261.418 46.3427 261.495L413.853 264.805C424.639 264.903 434.203 257.843 437.268 247.5C448.747 208.754 463.794 118.787 357.046 116.288Z" fill="#73A2C7"/>
<path d="M348.647 117.936C347.134 117.9 345.916 116.68 345.886 115.167C345.585 100.264 340.786 28.7268 276.794 13.7306C205.27 -3.0308 172.538 68.8038 172.538 68.8038C172.538 68.8038 84.042 35.2808 67.0703 125.074C12.1133 138.1 -2.55506 208.426 32.2309 243.748C38.329 249.941 46.6342 253.461 55.3249 253.539L401.285 256.617C412.096 256.712 421.675 249.621 424.717 239.247C435.506 202.45 448.31 120.321 348.647 117.936Z" fill="#90CAF9"/>
<path d="M529.814 143.779C530.817 141.365 527.56 139.115 525.108 140.512C500.212 154.703 438.657 199.341 436.455 294.706C433.691 414.357 398.453 452.377 359.053 472.619C359.053 472.619 409.291 468.324 446.762 430.027C538.762 335.998 511.971 186.695 529.814 143.779Z" fill="#F3F6FF"/>
<path d="M507.083 177.548C502.191 190.113 497.591 202.767 493.538 215.571C489.408 228.351 485.73 241.253 482.526 254.255C479.381 267.269 476.519 280.344 474.306 293.532C472.025 306.708 470.402 319.981 468.826 333.315C467.165 346.629 465.579 360.054 462.4 373.314C459.241 386.548 454.197 399.593 446.517 411.335C444.599 414.26 442.61 417.164 440.439 419.929C438.327 422.733 436.068 425.45 433.752 428.128C429.087 433.465 423.992 438.524 418.471 443.213C407.398 452.567 394.615 460.378 380.939 466.517C379.499 467.163 377.675 466.645 376.863 465.36C376.067 464.099 376.543 462.567 377.924 461.9L377.933 461.896C381.207 460.318 384.454 458.709 387.6 456.977C389.19 456.133 390.731 455.227 392.292 454.348C393.81 453.417 395.373 452.539 396.854 451.567C402.858 447.769 408.527 443.597 413.794 439.065C424.37 430.058 433.377 419.564 440.737 408.359C444.344 402.715 447.453 396.831 450.019 390.736C452.58 384.639 454.597 378.34 456.196 371.918C459.398 359.067 461.094 345.796 462.866 332.497C464.658 319.198 466.564 305.849 469.103 292.615C470.351 285.995 471.738 279.401 473.261 272.837C474 269.551 474.813 266.28 475.619 263.009C476.462 259.746 477.325 256.488 478.219 253.239C481.824 240.246 485.888 227.375 490.421 214.652C495.024 201.952 500.019 189.378 505.573 177.016C505.732 176.662 506.196 176.502 506.609 176.657C507.011 176.807 507.217 177.202 507.083 177.548Z" fill="#F3F6FF"/>
<path d="M416.834 417.449C418.291 421.291 423.197 422.397 426.197 419.59C442.752 404.104 485.598 356.089 480.154 278.024C475.557 212.101 479.328 175.919 482.179 159.612C482.782 156.164 478.632 153.95 476.099 156.367C448.155 183.025 364.062 278.252 416.834 417.449Z" fill="#73A2C7"/>
<path d="M422.397 417.399C422.483 417.454 422.575 417.501 422.673 417.54C423.496 417.867 424.429 417.465 424.756 416.642C425.126 415.709 461.798 322.261 459.547 230.312C459.525 229.427 458.79 228.727 457.904 228.748C457.018 228.769 456.318 229.505 456.339 230.391C458.575 321.67 422.143 414.531 421.774 415.458C421.486 416.183 421.764 416.993 422.397 417.399Z" fill="white"/>
<path d="M443.484 456.812C443.484 460.986 440.065 464.401 435.888 464.401H25.1138C20.9359 464.401 17.5175 460.986 17.5175 456.812L14.0994 220.751C14.0994 216.578 19.017 208.429 28.0294 209.041L429.483 198.654C434.725 198.518 439.793 200.536 443.505 204.236C447.218 207.936 449.249 212.995 449.125 218.232L443.484 456.812Z" fill="#365170"/>
<path d="M435.984 449.532C435.984 453.484 432.75 456.718 428.798 456.718H35.02C31.0674 456.718 27.8336 453.484 27.8336 449.532L24.608 235.234C24.988 222.338 36.294 217.703 43.1476 217.977L427.904 207.654C431.587 207.555 435.148 208.974 437.756 211.576C440.364 214.178 441.799 217.738 441.706 221.421L435.984 449.532Z" fill="#90CAF9"/>
<path d="M32.0889 347.307C31.7417 347.307 31.4579 347.028 31.4528 346.68L31.1981 329.301C31.1931 328.949 31.474 328.66 31.8248 328.655C32.1888 328.636 32.4651 328.931 32.4702 329.282L32.7249 346.661C32.7298 347.012 32.4492 347.301 32.0982 347.307H32.0889Z" fill="#91B3FA"/>
<path d="M31.4639 304.719C31.1167 304.719 30.8328 304.44 30.8277 304.092L29.85 237.53C29.8704 233.068 31.2451 229.503 33.9374 226.924C38.8312 222.234 46.4897 222.473 46.8108 222.482L169.678 219.185C169.683 219.185 169.689 219.185 169.695 219.185C170.038 219.185 170.321 219.458 170.33 219.804C170.34 220.155 170.063 220.447 169.711 220.456L46.8076 223.754C46.4617 223.742 39.3255 223.522 34.8175 227.842C32.3843 230.174 31.1407 233.431 31.1221 237.523L32.0999 304.073C32.1048 304.424 31.8247 304.713 31.4732 304.719L31.4639 304.719Z" fill="#91B3FA"/>
<path opacity="0.24" d="M45.1817 437.642C45.5941 419.93 45.4406 263.087 44.4243 249.541C43.4079 235.995 64.5045 233.454 96.8943 231.93C129.284 230.405 402.568 224.37 409.605 223.8C425.421 222.517 431.527 229.177 427.113 297.48C424.625 335.976 423.953 399.556 423.047 428.766C422.777 437.463 415.668 444.364 406.966 444.388C341.203 444.569 89.1514 445.291 72.3722 445.791C53.0626 446.366 45.0183 444.665 45.1817 437.642Z" fill="#91B3FA"/>
<path d="M469.301 476.449H1.42032C0.639199 476.449 0.000183105 475.81 0.000183105 475.029V457.128C0.000183105 456.347 0.639199 455.708 1.42032 455.708H469.301C470.082 455.708 470.721 456.347 470.721 457.128V475.029C470.721 475.81 470.082 476.449 469.301 476.449Z" fill="#365170"/>
<path d="M71.8411 269.63H405.999C409.16 269.63 411.723 267.067 411.723 263.905V248.594C411.723 245.432 409.16 242.869 405.999 242.869H71.8411C68.6793 242.869 66.1162 245.432 66.1162 248.594V263.905C66.1162 267.067 68.6793 269.63 71.8411 269.63Z" fill="#F0F5FF"/>
<path d="M71.146 433.096H404.408C408.448 433.096 411.723 429.821 411.723 425.781V413.65C411.723 409.61 408.448 406.335 404.408 406.335H71.146C67.106 406.335 63.8309 409.61 63.8309 413.65V425.781C63.8309 429.821 67.106 433.096 71.146 433.096Z" fill="#F0F5FF"/>
<path d="M71.2114 400.447H206.078C210.154 400.447 213.458 397.143 213.458 393.067V375.18C213.458 371.103 210.154 367.799 206.078 367.799H71.2114C67.1351 367.799 63.8307 371.103 63.8307 375.18V393.067C63.8309 397.143 67.1353 400.447 71.2114 400.447Z" fill="#F0F5FF"/>
<path d="M74.1517 360.845H204.509C209.452 360.845 213.459 356.838 213.459 351.896V286.835C213.459 281.892 209.452 277.886 204.509 277.886H74.1517C69.2093 277.886 65.2026 281.892 65.2026 286.835V351.896C65.2026 356.838 69.2093 360.845 74.1517 360.845Z" fill="#F0F5FF"/>
<path d="M229.705 400.449H402.833C407.776 400.449 411.782 396.442 411.782 391.499V286.421C411.782 281.478 407.776 277.472 402.833 277.472H229.705C224.763 277.472 220.756 281.478 220.756 286.421V391.499C220.756 396.442 224.763 400.449 229.705 400.449Z" fill="#F0F5FF"/>
<path d="M185.27 125.917L165.254 115.13L175.009 95.4395L162.377 99.217L152.632 118.905L172.638 129.695L185.27 125.917Z" fill="white"/>
<path d="M176.639 268.368L195.176 281.535L183.074 299.876L196.074 297.681L208.167 279.341L189.639 266.173L176.639 268.368Z" fill="white"/>
<path d="M194.335 275.805C192.009 276.012 189.655 276.123 187.275 276.123C143.748 276.123 108.462 240.837 108.462 197.31C108.462 170.236 122.114 146.353 142.909 132.165C144.141 131.325 144.529 129.687 143.791 128.392C142.982 126.973 142.191 125.546 141.422 124.109C140.318 122.046 137.652 121.4 135.731 122.735C112.244 139.062 96.8676 166.237 96.8676 197.009C96.8676 246.939 137.344 287.416 187.275 287.416C190.142 287.416 192.978 287.276 195.777 287.015C194.793 283.316 194.417 279.575 194.335 275.805Z" fill="white"/>
<path d="M188.064 106.606C179.786 106.535 171.764 107.582 164.135 109.596C164.332 110.956 164.344 112.377 164.955 113.598C165.761 116.082 166.503 118.577 167.207 121.08C173.615 119.398 180.339 118.498 187.275 118.498C230.714 118.498 266.17 154.024 266.088 197.463C266.029 228.542 247.979 255.394 221.799 268.171C220.199 268.952 219.399 270.781 219.887 272.493C220.257 273.789 220.63 275.084 221.005 276.378C221.634 278.548 224.058 279.643 226.098 278.671C256.599 264.147 277.681 233.043 277.681 197.01C277.682 147.275 237.798 107.033 188.064 106.606Z" fill="white"/>
<path d="M214.547 211.415C214.547 257.343 253.187 294.575 300.852 294.575C348.517 294.575 389.291 255.716 389.291 209.788C389.291 163.86 348.517 128.255 300.852 128.255C253.187 128.255 214.547 165.487 214.547 211.415Z" fill="url(#paint1_linear_6246_14936)"/>
<path d="M382.515 191.195C382.566 191.195 382.618 191.189 382.669 191.176C382.987 191.094 383.176 190.78 383.092 190.473C382.163 187.112 380.977 183.779 379.566 180.566C379.437 180.274 379.086 180.141 378.785 180.261C378.482 180.385 378.34 180.722 378.468 181.014C379.858 184.177 381.026 187.459 381.94 190.769C382.011 191.025 382.252 191.195 382.515 191.195Z" fill="#91B3FA"/>
<path d="M369.327 165.207C369.451 165.207 369.577 165.168 369.685 165.091C369.947 164.9 370 164.539 369.802 164.287C353.812 143.855 328.055 131.658 300.903 131.658C289.307 131.658 278.091 133.924 267.567 138.39C267.266 138.518 267.129 138.858 267.262 139.147C267.394 139.437 267.746 139.569 268.048 139.442C278.419 135.039 289.473 132.807 300.903 132.807C327.683 132.807 353.084 144.833 368.85 164.978C368.968 165.128 369.146 165.207 369.327 165.207Z" fill="#91B3FA"/>
<path d="M226.289 211.414C226.289 251.17 259.736 283.398 300.995 283.398C342.254 283.398 377.549 249.761 377.549 210.006C377.549 170.25 342.254 139.43 300.995 139.43C259.736 139.43 226.289 171.658 226.289 211.414Z" fill="#F0F5FF"/>
<path opacity="0.78" d="M234.198 214.649C234.383 217.705 237.103 220.038 240.274 219.86C243.446 219.682 245.867 217.061 245.682 214.005C245.498 210.95 242.777 208.617 239.606 208.795C236.435 208.973 234.014 211.594 234.198 214.649Z" fill="#365170"/>
<path opacity="0.78" d="M312.219 264.383C309.094 264.933 307.023 267.82 307.594 270.831C308.165 273.842 311.161 275.837 314.286 275.287C317.41 274.737 319.481 271.85 318.91 268.839C318.339 265.828 315.344 263.833 312.219 264.383Z" fill="#365170"/>
<path opacity="0.78" d="M289.854 146.4C286.729 146.95 284.659 149.836 285.23 152.847C285.8 155.859 288.796 157.853 291.921 157.303C295.046 156.753 297.116 153.867 296.546 150.856C295.975 147.845 292.979 145.85 289.854 146.4Z" fill="#365170"/>
<path opacity="0.78" d="M271.329 267.551C270.744 268.972 270.89 270.302 271.655 270.523C272.419 270.743 273.513 269.769 274.098 268.349C274.682 266.928 274.536 265.597 273.771 265.377C273.007 265.157 271.913 266.13 271.329 267.551Z" fill="#365170"/>
<path opacity="0.78" d="M245.227 246.278C243.962 247.2 243.37 248.41 243.905 248.981C244.44 249.552 245.899 249.267 247.164 248.345C248.429 247.423 249.021 246.213 248.486 245.642C247.951 245.071 246.492 245.356 245.227 246.278Z" fill="#365170"/>
<path opacity="0.78" d="M241.949 182.915C240.517 182.258 239.129 182.309 238.85 183.03C238.57 183.75 239.505 184.867 240.937 185.524C242.369 186.181 243.757 186.13 244.036 185.409C244.315 184.689 243.381 183.572 241.949 182.915Z" fill="#365170"/>
<path opacity="0.78" d="M354.478 238.47C353.046 237.813 351.659 237.864 351.379 238.585C351.1 239.305 352.034 240.422 353.467 241.079C354.899 241.736 356.286 241.684 356.566 240.964C356.845 240.244 355.91 239.127 354.478 238.47Z" fill="#365170"/>
<path opacity="0.78" d="M265.725 159.246C264.855 157.968 263.641 157.318 263.015 157.794C262.388 158.27 262.585 159.692 263.455 160.97C264.324 162.248 265.538 162.898 266.165 162.422C266.792 161.946 266.595 160.524 265.725 159.246Z" fill="#365170"/>
<path opacity="0.78" d="M331.961 263.024C331.091 261.746 329.877 261.096 329.251 261.572C328.624 262.048 328.821 263.469 329.691 264.748C330.56 266.026 331.774 266.676 332.401 266.2C333.028 265.724 332.831 264.302 331.961 263.024Z" fill="#365170"/>
<path d="M298.161 138.618L300.287 210.929L377.549 210.006C378.421 172.527 343.5 139.43 298.161 138.618Z" fill="#90CAF9"/>
<path d="M302.497 207.295L353.739 205.848C354.731 205.82 355.366 204.766 354.898 203.923L352.109 198.913C351.567 197.939 352.495 196.765 353.605 197.022L396.287 206.896C397.593 207.199 397.584 209.015 396.275 209.381L353.977 221.238C352.965 221.522 352.07 220.6 352.41 219.623L354.693 213.06C354.975 212.249 354.397 211.421 353.531 211.395L302.415 209.864C301.703 209.842 301.156 209.268 301.183 208.57C301.21 207.878 301.791 207.315 302.497 207.295Z" fill="#365170"/>
<path d="M391.61 209.161C391.991 208.964 392.231 208.581 392.227 208.145C392.222 207.624 391.871 207.206 391.352 207.102L382.185 205.278C381.868 205.215 381.549 205.418 381.475 205.731C381.401 206.045 381.598 206.349 381.917 206.413L391.083 208.238C381.444 210.798 358.973 216.999 358.531 217.175C358.231 217.289 358.07 217.633 358.185 217.93C358.299 218.222 358.633 218.363 358.935 218.25C359.591 218.03 376.807 213.269 391.373 209.253C391.457 209.23 391.536 209.199 391.61 209.161Z" fill="#F0F5FF"/>
<path d="M298.502 206.997L298.594 163.467C298.579 162.504 297.501 161.905 296.628 162.374L291.43 165.165C290.419 165.708 289.223 164.826 289.502 163.744L300.252 122.125C300.581 120.852 302.451 120.83 302.811 122.096L314.446 162.98C314.724 163.958 313.762 164.843 312.761 164.529L306.034 162.421C305.202 162.16 304.342 162.735 304.303 163.577L301.146 207.034C301.114 207.726 300.515 208.267 299.796 208.252C299.085 208.238 298.513 207.683 298.502 206.997Z" fill="#365170"/>
<path d="M310.876 158.989C310.949 158.989 311.022 158.976 311.094 158.95C311.396 158.835 311.547 158.509 311.435 158.216C311.219 157.586 306.55 140.943 302.611 126.86C302.471 126.362 302.032 126.035 301.482 126.047C300.946 126.061 300.509 126.409 300.396 126.915L298.392 135.849C298.323 136.158 298.527 136.464 298.849 136.531C299.167 136.599 299.487 136.401 299.557 136.091L301.561 127.158C304.067 136.478 310.147 158.197 310.322 158.624C310.413 158.851 310.638 158.989 310.876 158.989Z" fill="#F0F5FF"/>
<path d="M301.381 215.25C304.774 215.25 307.524 212.6 307.524 209.331C307.524 206.062 304.774 203.412 301.381 203.412C297.989 203.412 295.238 206.062 295.238 209.331C295.238 212.6 297.989 215.25 301.381 215.25Z" fill="#5F758F"/>
<path opacity="0.78" d="M321.318 155.645C320.733 157.065 320.88 158.396 321.644 158.616C322.409 158.837 323.503 157.863 324.087 156.442C324.672 155.022 324.526 153.691 323.761 153.471C322.996 153.25 321.903 154.224 321.318 155.645Z" fill="#365170"/>
<path opacity="0.78" d="M348.252 175.649C346.987 176.571 346.395 177.781 346.929 178.352C347.464 178.923 348.923 178.638 350.189 177.716C351.454 176.794 352.046 175.584 351.511 175.013C350.976 174.442 349.517 174.727 348.252 175.649Z" fill="#365170"/>
<defs>
<linearGradient id="paint0_linear_6246_14936" x1="559.863" y1="597.286" x2="171.941" y2="178.576" gradientUnits="userSpaceOnUse">
<stop stop-color="#DAE3FE"/>
<stop offset="1" stop-color="#E9EFFD"/>
</linearGradient>
<linearGradient id="paint1_linear_6246_14936" x1="242.468" y1="143.656" x2="464.382" y2="396.603" gradientUnits="userSpaceOnUse">
<stop stop-color="#09005D"/>
<stop offset="1" stop-color="#1A0F91"/>
</linearGradient>
</defs>
</svg>
