<svg width="48" height="48" viewBox="0 0 48 48" fill="none" xmlns="http://www.w3.org/2000/svg">
<path d="M42.6667 0H5.33333C2.38781 0 0 2.38781 0 5.33333V42.6667C0 45.6122 2.38781 48 5.33333 48H42.6667C45.6122 48 48 45.6122 48 42.6667V5.33333C48 2.38781 45.6122 0 42.6667 0Z" fill="#25B89D"/>
<path d="M24 39C21.0333 39 18.1332 38.1203 15.6665 36.4721C13.1997 34.8238 11.2771 32.4812 10.1418 29.7403C9.0065 26.9994 8.70945 23.9834 9.28823 21.0737C9.86701 18.1639 11.2956 15.4912 13.3934 13.3934C15.4912 11.2956 18.1639 9.86701 21.0737 9.28823C23.9834 8.70945 26.9994 9.0065 29.7403 10.1418C32.4812 11.2771 34.8238 13.1997 36.4721 15.6665C38.1203 18.1332 39 21.0333 39 24C39 24.2652 38.8947 24.5196 38.7071 24.7071C38.5196 24.8947 38.2652 25 38 25C37.7348 25 37.4804 24.8947 37.2929 24.7071C37.1054 24.5196 37 24.2652 37 24C37 21.4288 36.2376 18.9154 34.8091 16.7776C33.3807 14.6398 31.3503 12.9735 28.9749 11.9896C26.5995 11.0056 23.9856 10.7482 21.4638 11.2498C18.9421 11.7514 16.6257 12.9895 14.8076 14.8076C12.9895 16.6257 11.7514 18.9421 11.2498 21.4638C10.7482 23.9856 11.0056 26.5995 11.9896 28.9749C12.9735 31.3503 14.6398 33.3807 16.7776 34.8091C18.9154 36.2376 21.4288 37 24 37C24.2652 37 24.5196 37.1054 24.7071 37.2929C24.8947 37.4804 25 37.7348 25 38C25 38.2652 24.8947 38.5196 24.7071 38.7071C24.5196 38.8947 24.2652 39 24 39Z" fill="white"/>
<path d="M35.5 18H12.5C12.2348 18 11.9804 17.8946 11.7929 17.7071C11.6054 17.5196 11.5 17.2652 11.5 17C11.5 16.7348 11.6054 16.4804 11.7929 16.2929C11.9804 16.1054 12.2348 16 12.5 16H35.5C35.7652 16 36.0196 16.1054 36.2071 16.2929C36.3946 16.4804 36.5 16.7348 36.5 17C36.5 17.2652 36.3946 17.5196 36.2071 17.7071C36.0196 17.8946 35.7652 18 35.5 18Z" fill="white"/>
<path d="M24 25H10C9.73478 25 9.48043 24.8946 9.29289 24.7071C9.10536 24.5196 9 24.2652 9 24C9 23.7348 9.10536 23.4804 9.29289 23.2929C9.48043 23.1054 9.73478 23 10 23H24C24.2652 23 24.5196 23.1054 24.7071 23.2929C24.8946 23.4804 25 23.7348 25 24C25 24.2652 24.8946 24.5196 24.7071 24.7071C24.5196 24.8946 24.2652 25 24 25Z" fill="white"/>
<path d="M21 32H12.5C12.2348 32 11.9804 31.8946 11.7929 31.7071C11.6054 31.5196 11.5 31.2652 11.5 31C11.5 30.7348 11.6054 30.4804 11.7929 30.2929C11.9804 30.1054 12.2348 30 12.5 30H21C21.2652 30 21.5196 30.1054 21.7071 30.2929C21.8946 30.4804 22 30.7348 22 31C22 31.2652 21.8946 31.5196 21.7071 31.7071C21.5196 31.8946 21.2652 32 21 32Z" fill="white"/>
<path d="M24 39C19.7945 39 16.5 32.411 16.5 24C16.5 15.589 19.7945 9 24 9C27.6145 9 30.6355 13.893 31.3455 20.9C31.3586 21.0307 31.3459 21.1626 31.308 21.2884C31.2702 21.4141 31.2079 21.5312 31.1248 21.6329C30.9569 21.8382 30.7144 21.9685 30.4505 21.995C30.3198 22.0081 30.1879 21.9954 30.0621 21.9575C29.9364 21.9197 29.8193 21.8574 29.7176 21.7743C29.5123 21.6064 29.382 21.3639 29.3555 21.1C28.772 15.3425 26.469 11 24 11C21.4 11 18.5 16.339 18.5 24C18.5 31.661 21.4 37 24 37C24.2652 37 24.5196 37.1054 24.7071 37.2929C24.8946 37.4804 25 37.7348 25 38C25 38.2652 24.8946 38.5196 24.7071 38.7071C24.5196 38.8946 24.2652 39 24 39Z" fill="white"/>
<path d="M31 39C29.4178 39 27.871 38.5308 26.5554 37.6518C25.2398 36.7727 24.2145 35.5233 23.609 34.0615C23.0035 32.5997 22.845 30.9911 23.1537 29.4393C23.4624 27.8874 24.2243 26.462 25.3431 25.3431C26.462 24.2243 27.8874 23.4624 29.4393 23.1537C30.9911 22.845 32.5997 23.0035 34.0615 23.609C35.5233 24.2145 36.7727 25.2398 37.6518 26.5554C38.5308 27.871 39 29.4178 39 31C38.9975 33.121 38.1538 35.1543 36.6541 36.6541C35.1543 38.1538 33.121 38.9975 31 39ZM31 25C29.8133 25 28.6533 25.3519 27.6666 26.0112C26.6799 26.6705 25.9109 27.6075 25.4567 28.7039C25.0026 29.8003 24.8838 31.0067 25.1153 32.1705C25.3468 33.3344 25.9182 34.4035 26.7574 35.2426C27.5965 36.0818 28.6656 36.6532 29.8295 36.8847C30.9933 37.1162 32.1997 36.9974 33.2961 36.5433C34.3925 36.0892 35.3295 35.3201 35.9888 34.3334C36.6481 33.3467 37 32.1867 37 31C36.9983 29.4092 36.3656 27.8841 35.2407 26.7593C34.1159 25.6344 32.5908 25.0017 31 25Z" fill="white"/>
<path d="M29.5 33.5C29.3022 33.5 29.109 33.4413 28.9445 33.3314C28.7801 33.2215 28.652 33.0654 28.5763 32.8827C28.5007 32.7 28.4808 32.4989 28.5194 32.305C28.558 32.111 28.6532 31.9329 28.793 31.793L30 30.586V27C30 26.7348 30.1054 26.4804 30.2929 26.2929C30.4804 26.1054 30.7348 26 31 26C31.2652 26 31.5196 26.1054 31.7071 26.2929C31.8946 26.4804 32 26.7348 32 27V31C31.9999 31.2652 31.8946 31.5195 31.707 31.707L30.207 33.207C30.1143 33.3 30.0041 33.3738 29.8828 33.4241C29.7614 33.4744 29.6313 33.5002 29.5 33.5Z" fill="white"/>
</svg>
