<svg width="15" height="13" viewBox="0 0 15 13" fill="none" xmlns="http://www.w3.org/2000/svg">
<path d="M5.16667 0.500092L4.5 3.83342M9.83333 0.500092L9.16667 3.83342M13.8333 3.83342H0.5M3.7 12.5001H10.6333C11.7534 12.5001 12.3135 12.5001 12.7413 12.2821C13.1176 12.0904 13.4236 11.7844 13.6153 11.4081C13.8333 10.9802 13.8333 10.4202 13.8333 9.30009V3.70009C13.8333 2.57999 13.8333 2.01993 13.6153 1.59211C13.4236 1.21579 13.1176 0.909825 12.7413 0.718079C12.3135 0.500092 11.7534 0.500092 10.6333 0.500092H3.7C2.57989 0.500092 2.01984 0.500092 1.59202 0.718079C1.21569 0.909825 0.909734 1.21579 0.717987 1.59211C0.5 2.01993 0.5 2.57999 0.5 3.70009V9.30009C0.5 10.4202 0.5 10.9802 0.717987 11.4081C0.909734 11.7844 1.21569 12.0904 1.59202 12.2821C2.01984 12.5001 2.57989 12.5001 3.7 12.5001Z" stroke="#434A51" stroke-linecap="round" stroke-linejoin="round"/>
</svg>
