<svg width="13" height="15" viewBox="0 0 13 15" fill="none" xmlns="http://www.w3.org/2000/svg">
<path d="M9.83333 12.5H9.7C8.5799 12.5 8.01984 12.5 7.59202 12.282C7.21569 12.0903 6.90973 11.7843 6.71799 11.408C6.5 10.9802 6.5 10.4201 6.5 9.3V5.03333C6.5 3.91323 6.5 3.35318 6.71799 2.92535C6.90973 2.54903 7.21569 2.24307 7.59202 2.05132C8.01984 1.83333 8.5799 1.83333 9.7 1.83333H9.83333M9.83333 12.5C9.83333 13.2364 10.4303 13.8333 11.1667 13.8333C11.903 13.8333 12.5 13.2364 12.5 12.5C12.5 11.7636 11.903 11.1667 11.1667 11.1667C10.4303 11.1667 9.83333 11.7636 9.83333 12.5ZM9.83333 1.83333C9.83333 2.56971 10.4303 3.16667 11.1667 3.16667C11.903 3.16667 12.5 2.56971 12.5 1.83333C12.5 1.09695 11.903 0.5 11.1667 0.5C10.4303 0.5 9.83333 1.09695 9.83333 1.83333ZM3.16667 7.16667L9.83333 7.16667M3.16667 7.16667C3.16667 7.90305 2.56971 8.5 1.83333 8.5C1.09695 8.5 0.5 7.90305 0.5 7.16667C0.5 6.43029 1.09695 5.83333 1.83333 5.83333C2.56971 5.83333 3.16667 6.43029 3.16667 7.16667ZM9.83333 7.16667C9.83333 7.90305 10.4303 8.5 11.1667 8.5C11.903 8.5 12.5 7.90305 12.5 7.16667C12.5 6.43029 11.903 5.83333 11.1667 5.83333C10.4303 5.83333 9.83333 6.43029 9.83333 7.16667Z" stroke="#434A51" stroke-linecap="round" stroke-linejoin="round"/>
</svg>
