<svg width="652" height="635" viewBox="0 0 652 635" fill="none" xmlns="http://www.w3.org/2000/svg">
<path d="M635.486 240.869C619.574 197.702 587.662 161.759 542.439 149.039C520.77 142.944 498.151 141.273 475.76 138.963C440.556 135.331 404.227 129.57 374.713 110.041C363.72 102.766 360.441 92.6394 346.93 85.2961C335.406 79.0303 323.701 73.1184 311.279 68.8191C270.315 54.6467 224.452 58.4953 183.995 74.0533C143.538 89.6112 108.077 116.218 77.2845 146.727C50.7002 173.067 26.8448 203.144 13.6847 238.177C5.47703 260.024 1.61615 283.33 0.408411 306.636C-2.58452 364.336 10.889 423.042 40.2778 472.786C65.7072 515.831 103.135 551.887 147.412 574.97H504.763C510.26 572.148 515.668 569.16 520.969 565.981C574.395 533.935 616.116 482.825 636.815 424.063C657.514 365.301 657.033 299.324 635.486 240.869Z" fill="#90CAF9" fill-opacity="0.3"/>
<path d="M336.747 151.77C337.747 151.769 338.793 151.753 339.671 151.276C341.078 150.508 341.636 148.806 342.057 147.26C343.234 142.936 344.044 137.605 340.731 134.586C338.601 132.644 335.192 132.433 332.662 133.815C330.132 135.197 328.507 137.961 328.173 140.823C327.747 138.661 325.382 137.265 323.182 137.385C320.981 137.505 319.004 138.825 317.495 140.431C318.733 136.617 317.062 132.063 313.654 129.952C310.243 127.843 305.423 128.38 302.562 131.188C299.701 133.996 299.075 138.807 301.122 142.255C299.733 140.929 297.802 140.068 295.899 140.318C293.994 140.568 292.23 142.112 292.073 144.026C290.087 142.932 287.884 142.019 285.626 142.207C281.164 142.579 278.906 148.198 282.737 150.983C285.877 153.267 293.164 151.883 296.696 151.873C310.045 151.839 323.397 151.804 336.747 151.77Z" fill="white"/>
<path d="M481.776 120.369C482.776 120.368 483.822 120.354 484.701 119.875C486.107 119.107 486.665 117.405 487.086 115.859C488.266 111.535 489.074 106.204 485.76 103.185C483.63 101.243 480.222 101.032 477.692 102.414C475.162 103.796 473.537 106.56 473.202 109.422C472.776 107.26 470.412 105.864 468.211 105.984C466.011 106.104 464.033 107.424 462.525 109.03C463.762 105.216 462.092 100.662 458.683 98.5509C455.275 96.4418 450.453 96.9787 447.592 99.7868C444.731 102.595 444.104 107.406 446.152 110.854C444.762 109.528 442.831 108.667 440.928 108.917C439.023 109.167 437.259 110.711 437.102 112.625C435.116 111.531 432.914 110.618 430.655 110.806C426.194 111.178 423.935 116.797 427.766 119.582C430.907 121.866 438.194 120.482 441.726 120.472C455.074 120.438 468.426 120.405 481.776 120.369Z" fill="#D7EFF9"/>
<path d="M373.344 573.705H270.193C266.273 573.705 263.197 570.34 263.547 566.435L274.257 446.848C274.565 443.407 277.449 440.771 280.903 440.771H361.915C365.355 440.771 368.23 443.385 368.557 446.81L379.985 566.397C380.362 570.314 377.281 573.705 373.344 573.705Z" fill="#D1D3D4"/>
<path d="M361.916 440.771H280.904C277.45 440.771 274.566 443.408 274.258 446.848L268.008 516.642C286.174 511.724 324.737 504.686 375.011 514.316L368.56 446.809C368.231 443.385 365.356 440.771 361.916 440.771Z" fill="#D1D3D4"/>
<path d="M567.927 497.469H75.6107C66.7974 497.469 59.588 490.26 59.588 481.446V190.417C59.588 181.604 66.7992 174.394 75.6107 174.394H567.927C576.74 174.394 583.95 181.605 583.95 190.417V481.446C583.951 490.26 576.74 497.469 567.927 497.469Z" fill="white"/>
<path d="M567.927 174.394H75.6107C66.7974 174.394 59.588 181.605 59.588 190.417V434.038H583.95V190.417C583.951 181.605 576.74 174.394 567.927 174.394Z" fill="#383838"/>
<path d="M563.42 191.922H80.1196V416.348H563.42V191.922Z" fill="#F5F5F5"/>
<path d="M94.1478 206.831C94.1478 208.812 92.5421 210.417 90.5615 210.417C88.5809 210.417 86.9753 208.812 86.9753 206.831C86.9753 204.85 88.5809 203.245 90.5615 203.245C92.5421 203.245 94.1478 204.849 94.1478 206.831Z" fill="#E54C64"/>
<path d="M107.403 206.831C107.403 208.811 105.797 210.417 103.816 210.417C101.836 210.417 100.23 208.811 100.23 206.831C100.23 204.85 101.836 203.245 103.816 203.245C105.797 203.243 107.403 204.848 107.403 206.831Z" fill="#FBB040"/>
<path d="M120.658 206.831C120.658 208.811 119.053 210.417 117.072 210.417C115.092 210.417 113.486 208.811 113.486 206.831C113.486 204.85 115.092 203.245 117.072 203.245C119.053 203.243 120.658 204.848 120.658 206.831Z" fill="#8DC63F"/>
<path d="M551.145 210.417H169.015C166.321 210.417 164.117 208.213 164.117 205.519C164.117 202.825 166.321 200.619 169.015 200.619H551.145C553.839 200.619 556.045 202.824 556.045 205.519C556.043 208.213 553.839 210.417 551.145 210.417Z" fill="white"/>
<path d="M170.927 204.376L170.118 201.719H170.547L171.121 203.754H171.149L171.716 201.719H172.152L172.713 203.747H172.74L173.315 201.719H173.744L172.934 204.376H172.533L171.951 202.335H171.91L171.329 204.376H170.927ZM174.886 204.376L174.076 201.719H174.505L175.08 203.754H175.107L175.675 201.719H176.111L176.671 203.747H176.699L177.273 201.719H177.702L176.893 204.376H176.491L175.91 202.335H175.868L175.287 204.376H174.886ZM178.844 204.376L178.035 201.719H178.464L179.038 203.754H179.066L179.633 201.719H180.069L180.63 203.747H180.657L181.232 201.719H181.661L180.851 204.376H180.45L179.868 202.335H179.827L179.246 204.376H178.844ZM182.137 204.404C182.051 204.404 181.978 204.373 181.917 204.312C181.856 204.251 181.825 204.178 181.825 204.093C181.825 204.007 181.856 203.934 181.917 203.873C181.978 203.812 182.051 203.781 182.137 203.781C182.222 203.781 182.295 203.812 182.356 203.873C182.418 203.934 182.448 204.007 182.448 204.093C182.448 204.149 182.434 204.201 182.405 204.248C182.377 204.296 182.34 204.334 182.292 204.363C182.246 204.39 182.194 204.404 182.137 204.404Z" fill="#1F74C2"/>
<path d="M413.101 568.762H230.439C230.025 568.762 229.685 569.1 229.685 569.514V572.951C229.685 573.365 230.023 573.704 230.439 573.704H413.099C413.513 573.704 413.853 573.366 413.853 572.951V569.514C413.853 569.1 413.515 568.762 413.101 568.762Z" fill="white"/>
<path opacity="0.4" d="M295.686 524.251H181.103C179.103 524.251 177.466 522.613 177.466 520.613V462.873C177.466 460.873 179.103 459.235 181.103 459.235H295.686C297.686 459.235 299.324 460.873 299.324 462.873V520.613C299.325 522.613 297.688 524.251 295.686 524.251Z" fill="#D7EFF9"/>
<path d="M295.686 524.251H181.103C179.103 524.251 177.466 522.613 177.466 520.613V462.873C177.466 460.873 179.103 459.235 181.103 459.235H295.686C297.686 459.235 299.324 460.873 299.324 462.873V520.613C299.325 522.613 297.688 524.251 295.686 524.251Z" stroke="#1F74C2" stroke-miterlimit="10"/>
<g opacity="0.8">
<path opacity="0.6" d="M256.567 495.845C251.083 499.487 243.685 497.995 240.045 492.51C236.402 487.026 237.895 479.629 243.379 475.986C248.863 472.343 256.261 473.836 259.904 479.319C263.543 484.805 262.05 492.204 256.567 495.845Z" fill="white"/>
<path opacity="0.6" d="M256.567 495.844C257.169 495.445 257.72 494.998 258.225 494.514L248.534 474.084C246.745 474.301 244.979 474.922 243.377 475.987C243.255 476.068 243.139 476.153 243.021 476.235L253.489 497.304C254.555 496.975 255.592 496.492 256.567 495.844Z" fill="white"/>
<path opacity="0.6" d="M251.657 497.718L241.198 477.848C240.825 478.253 240.485 478.681 240.175 479.127L249.777 497.832C250.402 497.845 251.03 497.808 251.657 497.718Z" fill="white"/>
<path d="M239.18 493.084C235.228 487.133 236.853 479.079 242.803 475.127C248.754 471.174 256.808 472.799 260.761 478.75C264.713 484.7 263.088 492.757 257.138 496.707C251.189 500.66 243.132 499.035 239.18 493.084ZM259.039 479.894C255.719 474.894 248.949 473.528 243.949 476.85C238.949 480.17 237.585 486.94 240.905 491.94C244.226 496.94 250.995 498.306 255.995 494.984C260.993 491.663 262.359 484.894 259.039 479.894Z" fill="#90CAF9"/>
<path d="M240.615 493.373L216.8 510.181C215.96 510.772 214.8 510.573 214.208 509.733C213.615 508.894 213.816 507.733 214.656 507.142C214.682 507.123 214.715 507.101 214.744 507.084L239.47 491.649C239.955 491.346 240.594 491.494 240.897 491.978C241.189 492.447 241.058 493.059 240.615 493.373Z" fill="#90CAF9"/>
</g>
<path opacity="0.7" d="M28.007 304.41H245.058C248.572 304.41 251.449 307.287 251.449 310.801V420.175C251.449 423.689 248.572 426.566 245.058 426.566H28.007C24.4928 426.566 21.6164 423.689 21.6164 420.175V310.801C21.6165 307.287 24.4928 304.41 28.007 304.41Z" fill="white" stroke="#73A2C7"/>
<path d="M245.058 427.066H28.0072C24.2167 427.066 21.1164 423.966 21.1164 420.175V310.801C21.1164 307.011 24.2167 303.91 28.0072 303.91H245.058C248.849 303.91 251.949 307.011 251.949 310.801V420.175C251.949 423.966 248.849 427.066 245.058 427.066Z" stroke="#1F74C2" stroke-miterlimit="10"/>
<g opacity="0.8">
<path d="M134.022 329.148C128.001 334.66 112.586 348.53 103.748 354.278C102.443 355.127 101.808 356.702 102.142 358.222C103.725 365.414 110.178 385.737 134.463 402.177C135.702 403.017 137.362 403.017 138.603 402.177C162.888 385.737 169.343 365.415 170.924 358.222C171.258 356.702 170.622 355.127 169.32 354.278C160.482 348.53 145.066 334.66 139.045 329.148C137.619 327.843 135.447 327.843 134.022 329.148Z" fill="#2481D3"/>
<path d="M134.248 332.404C128.765 337.421 114.732 350.048 106.685 355.282C105.496 356.055 104.919 357.488 105.223 358.872C106.664 365.419 112.538 383.923 134.647 398.889C135.776 399.653 137.288 399.653 138.417 398.889C160.526 383.923 166.401 365.421 167.841 358.872C168.145 357.488 167.568 356.053 166.38 355.282C158.334 350.048 144.299 337.421 138.816 332.404C137.522 331.217 135.545 331.217 134.248 332.404Z" fill="#90CAF9"/>
<path d="M166.381 355.282C158.336 350.048 144.3 337.421 138.818 332.404C138.17 331.81 137.352 331.513 136.533 331.513V366.453H165.475C166.73 363.27 167.455 360.631 167.842 358.872C168.147 357.49 167.57 356.055 166.381 355.282Z" fill="#90CAF9"/>
<path d="M107.591 366.454C111.009 375.123 118.477 387.943 134.649 398.89C135.214 399.272 135.875 399.464 136.535 399.464V366.454H107.591Z" fill="#90CAF9"/>
</g>
<path opacity="0.7" d="M379.589 130.844H596.64C600.154 130.844 603.031 133.72 603.031 137.234V246.608C603.03 250.123 600.153 252.999 596.639 252.999H379.589C376.075 252.999 373.198 250.123 373.198 246.608V137.234C373.198 133.72 376.075 130.844 379.589 130.844Z" fill="white" stroke="#73A2C7"/>
<path d="M596.638 253.499H379.589C375.799 253.499 372.698 250.399 372.698 246.609V137.234C372.698 133.444 375.799 130.344 379.589 130.344H596.64C600.43 130.344 603.531 133.444 603.531 137.234V246.609C603.529 250.399 600.429 253.499 596.638 253.499Z" stroke="#1F74C2" stroke-miterlimit="10"/>
<g opacity="0.8">
<path d="M463.324 218.626H514.288C517.061 218.626 519.895 216.357 520.587 213.584L527.874 184.355C528.566 181.582 526.862 179.313 524.089 179.313H473.125C470.352 179.313 467.517 181.582 466.825 184.355L459.538 213.584C458.846 216.357 460.551 218.626 463.324 218.626Z" fill="#13588C"/>
<path d="M512.903 218.626H461.938C459.165 218.626 456.331 216.357 455.639 213.584L448.352 184.355C447.66 181.583 449.364 179.313 452.137 179.313H503.102C505.874 179.313 508.709 181.583 509.401 184.355L516.688 213.584C517.38 216.357 515.675 218.626 512.903 218.626Z" fill="#90CAF9"/>
</g>
<path opacity="0.7" d="M91.9203 102.248H228.62C230.731 102.248 232.459 103.977 232.459 106.088V174.971C232.459 177.082 230.731 178.811 228.62 178.811H91.9203C89.8091 178.811 88.0804 177.082 88.0804 174.971V106.088C88.0804 103.977 89.8091 102.248 91.9203 102.248Z" fill="white" stroke="#73A2C7"/>
<path d="M228.62 179.311H91.9202C89.5329 179.311 87.5804 177.359 87.5804 174.971V106.088C87.5804 103.701 89.5329 101.748 91.9202 101.748H228.62C231.007 101.748 232.96 103.701 232.96 106.088V174.971C232.96 177.359 231.007 179.311 228.62 179.311Z" stroke="#1F74C2" stroke-miterlimit="10"/>
<g opacity="0.8">
<path d="M160.269 119.171L135.606 161.891H184.935L160.269 119.171Z" stroke="#90CAF9" stroke-width="2.8347" stroke-miterlimit="10" stroke-linecap="round" stroke-linejoin="round"/>
<path d="M158.283 154.291C158.283 153.079 159.125 152.203 160.269 152.203C161.481 152.203 162.255 153.078 162.255 154.291C162.255 155.468 161.481 156.377 160.269 156.377C159.092 156.379 158.283 155.47 158.283 154.291ZM159.125 149.479L158.653 133.323H161.884L161.412 149.479H159.125Z" fill="#1F74C2"/>
</g>
<path opacity="0.7" d="M446.105 330.815H604.578C607.069 330.815 609.109 332.855 609.109 335.347V415.202C609.107 417.694 607.067 419.733 604.578 419.733H446.105C443.614 419.733 441.574 417.693 441.574 415.202V335.347C441.574 332.855 443.614 330.816 446.105 330.815Z" fill="white" stroke="#73A2C7"/>
<path d="M604.578 420.234H446.106C443.338 420.234 441.074 417.97 441.074 415.202V335.347C441.074 332.579 443.338 330.315 446.106 330.315H604.578C607.346 330.315 609.61 332.579 609.61 335.347V415.202C609.608 417.97 607.344 420.234 604.578 420.234Z" stroke="#1F74C2" stroke-miterlimit="10"/>
<path d="M552.603 371.381L550.326 370.751L552.381 369.587C552.643 369.438 552.736 369.101 552.589 368.839L543.636 353.028C543.487 352.765 543.15 352.672 542.888 352.82L540.832 353.984L541.462 351.707C541.543 351.417 541.37 351.112 541.08 351.031L523.569 346.181C523.279 346.1 522.974 346.272 522.893 346.563L522.263 348.839L521.099 346.785C520.95 346.522 520.613 346.429 520.351 346.577L504.54 355.529C504.277 355.679 504.182 356.015 504.332 356.279L505.496 358.334L503.219 357.704C502.929 357.623 502.624 357.795 502.543 358.086L497.693 375.596C497.612 375.887 497.784 376.191 498.075 376.272L500.351 376.902L498.297 378.066C498.033 378.214 497.941 378.552 498.089 378.814L507.041 394.626C507.191 394.888 507.527 394.983 507.79 394.834L509.844 393.67L509.214 395.946C509.133 396.237 509.306 396.541 509.596 396.622L527.106 401.473C527.397 401.554 527.701 401.381 527.782 401.091L528.413 398.814L529.576 400.871C529.726 401.133 530.062 401.226 530.326 401.078L546.138 392.126C546.4 391.978 546.494 391.64 546.346 391.378L545.182 389.323L547.458 389.953C547.749 390.034 548.053 389.862 548.134 389.571L552.985 372.061C553.067 371.767 552.895 371.462 552.603 371.381ZM521.49 387.732C513.811 385.605 509.311 377.656 511.438 369.976C513.564 362.297 521.513 357.797 529.193 359.924C536.872 362.05 541.372 369.999 539.245 377.679C537.117 385.357 529.168 389.858 521.49 387.732Z" fill="#90CAF9"/>
<path d="M564.531 526.447C564.737 526.447 564.904 526.28 564.904 526.074V522.379C564.904 522.173 564.737 522.005 564.531 522.005C564.325 522.005 564.158 522.173 564.158 522.379V526.074C564.158 526.28 564.325 526.447 564.531 526.447Z" fill="#0D314C"/>
<path d="M561.879 527.773C562.085 527.773 562.252 527.606 562.252 527.4V523.136C562.252 522.93 562.085 522.763 561.879 522.763C561.673 522.763 561.506 522.93 561.506 523.136V527.4C561.506 527.606 561.673 527.773 561.879 527.773Z" fill="#0D314C"/>
<path d="M558.754 528.346C558.96 528.346 559.127 528.178 559.127 527.972V524.559C559.127 524.353 558.96 524.185 558.754 524.185C558.548 524.185 558.381 524.353 558.381 524.559V527.972C558.381 528.178 558.548 528.346 558.754 528.346Z" fill="#0D314C"/>
<path d="M555.913 529.014C556.119 529.014 556.286 528.847 556.286 528.641V524.84C556.286 524.634 556.119 524.467 555.913 524.467C555.707 524.467 555.54 524.634 555.54 524.84V528.641C555.54 528.847 555.707 529.014 555.913 529.014Z" fill="#0D314C"/>
<path d="M553.167 529.694C553.373 529.694 553.54 529.527 553.54 529.321V525.506C553.54 525.3 553.373 525.133 553.167 525.133C552.961 525.133 552.793 525.3 552.793 525.506V529.321C552.793 529.527 552.961 529.694 553.167 529.694Z" fill="#0D314C"/>
<path d="M544.739 530.831C544.945 530.831 545.112 530.664 545.112 530.458V526.734C545.112 526.528 544.945 526.361 544.739 526.361C544.533 526.361 544.365 526.528 544.365 526.734V530.458C544.365 530.666 544.533 530.831 544.739 530.831Z" fill="#0D314C"/>
<path d="M541.426 530.143C541.632 530.143 541.799 529.975 541.799 529.77V527.398C541.799 527.192 541.632 527.025 541.426 527.025C541.22 527.025 541.052 527.192 541.052 527.398V529.77C541.052 529.974 541.22 530.143 541.426 530.143Z" fill="#0D314C"/>
<path d="M539.151 530.9C539.357 530.9 539.524 530.732 539.524 530.526V527.588C539.524 527.382 539.357 527.215 539.151 527.215C538.945 527.215 538.778 527.382 538.778 527.588V530.526C538.778 530.732 538.945 530.9 539.151 530.9Z" fill="#0D314C"/>
<path d="M534.607 531.319C534.813 531.319 534.98 531.151 534.98 530.945V527.114C534.98 526.908 534.813 526.741 534.607 526.741C534.401 526.741 534.234 526.908 534.234 527.114V530.945C534.234 531.151 534.401 531.319 534.607 531.319Z" fill="#0D314C"/>
<path d="M532.05 530.532C532.256 530.532 532.423 530.364 532.423 530.158V527.114C532.423 526.908 532.256 526.741 532.05 526.741C531.844 526.741 531.677 526.908 531.677 527.114V530.158C531.677 530.363 531.844 530.532 532.05 530.532Z" fill="#0D314C"/>
<path d="M529.587 530.142C529.793 530.142 529.961 529.975 529.961 529.769V527.114C529.961 526.908 529.793 526.741 529.587 526.741C529.381 526.741 529.214 526.908 529.214 527.114V529.769C529.214 529.973 529.381 530.142 529.587 530.142Z" fill="#0D314C"/>
<path d="M523.906 530.196C524.112 530.196 524.279 530.029 524.279 529.823V525.883C524.279 525.677 524.112 525.509 523.906 525.509C523.7 525.509 523.533 525.677 523.533 525.883V529.823C523.533 530.029 523.7 530.196 523.906 530.196Z" fill="#0D314C"/>
<path d="M519.17 529.203C519.376 529.203 519.543 529.036 519.543 528.83V524.937C519.543 524.731 519.376 524.564 519.17 524.564C518.964 524.564 518.797 524.731 518.797 524.937V528.83C518.797 529.036 518.964 529.203 519.17 529.203Z" fill="#0D314C"/>
<path d="M514.246 527.966C514.452 527.966 514.619 527.799 514.619 527.593V524.18C514.619 523.974 514.452 523.806 514.246 523.806C514.04 523.806 513.873 523.974 513.873 524.18V527.593C513.873 527.799 514.04 527.966 514.246 527.966Z" fill="#0D314C"/>
<path d="M509.795 525.884C510.001 525.884 510.168 525.717 510.168 525.511V521.81C510.168 521.604 510.001 521.437 509.795 521.437C509.589 521.437 509.422 521.604 509.422 521.81V525.511C509.422 525.717 509.589 525.884 509.795 525.884Z" fill="#0D314C"/>
</svg>
