<svg width="149" height="32" viewBox="0 0 149 32" fill="none" xmlns="http://www.w3.org/2000/svg">
<rect width="149" height="32" fill="white"/>
<path fill-rule="evenodd" clip-rule="evenodd" d="M22.083 12.3355C22.4372 12.6897 22.4372 13.2639 22.083 13.6181L17.004 18.6971C16.8118 18.8893 16.5437 18.9852 16.2733 18.9583C16.0029 18.9316 15.7588 18.785 15.6081 18.5589L14.2868 16.5771L11.1994 19.6646C10.8452 20.0188 10.271 20.0188 9.91677 19.6646C9.56258 19.3104 9.56258 18.7362 9.91677 18.382L13.7865 14.5122C13.9787 14.3201 14.2468 14.2242 14.5172 14.251C14.7876 14.2778 15.0318 14.4243 15.1824 14.6505L16.5037 16.6322L20.8005 12.3355C21.1547 11.9813 21.7288 11.9813 22.083 12.3355Z" fill="#2680EA"/>
<path fill-rule="evenodd" clip-rule="evenodd" d="M18.1165 12.9768C18.1165 12.4759 18.5225 12.0698 19.0234 12.0698H21.442C21.9429 12.0698 22.349 12.4759 22.349 12.9768V15.3954C22.349 15.8963 21.9429 16.3024 21.442 16.3024C20.9411 16.3024 20.535 15.8963 20.535 15.3954V13.8838H19.0234C18.5225 13.8838 18.1165 13.4777 18.1165 12.9768Z" fill="#2680EA"/>
<path fill-rule="evenodd" clip-rule="evenodd" d="M5.23075 5.23075C6.84452 3.61698 9.25935 3 12.372 3H19.6278C22.7405 3 25.1554 3.61698 26.769 5.23075C28.3829 6.84452 28.9998 9.25935 28.9998 12.372V19.6278C28.9998 22.7405 28.3829 25.1554 26.769 26.769C25.1554 28.3829 22.7405 28.9998 19.6278 28.9998H12.372C9.25935 28.9998 6.84452 28.3829 5.23075 26.769C3.61698 25.1554 3 22.7405 3 19.6278V12.372C3 9.25935 3.61698 6.84452 5.23075 5.23075ZM6.5134 6.5134C5.40625 7.62055 4.81394 9.43825 4.81394 12.372V19.6278C4.81394 22.5616 5.40625 24.3792 6.5134 25.4865C7.62055 26.5936 9.43825 27.1859 12.372 27.1859H19.6278C22.5616 27.1859 24.3792 26.5936 25.4865 25.4865C26.5936 24.3792 27.1859 22.5616 27.1859 19.6278V12.372C27.1859 9.43825 26.5936 7.62055 25.4865 6.5134C24.3792 5.40625 22.5616 4.81394 19.6278 4.81394H12.372C9.43825 4.81394 7.62055 5.40625 6.5134 6.5134Z" fill="#2680EA"/>
<path d="M42.12 17.03C42.66 17.03 43.1333 16.96 43.54 16.82C43.9533 16.68 44.2967 16.4833 44.57 16.23C44.85 15.97 45.06 15.6633 45.2 15.31C45.34 14.95 45.41 14.5533 45.41 14.12C45.41 13.2467 45.1367 12.56 44.59 12.06C44.05 11.56 43.2267 11.31 42.12 11.31H39.9V17.03H42.12ZM42.12 9.64C43.04 9.64 43.84 9.74667 44.52 9.96C45.2 10.1733 45.7633 10.4767 46.21 10.87C46.6567 11.2567 46.9867 11.7267 47.2 12.28C47.42 12.8333 47.53 13.4467 47.53 14.12C47.53 14.7933 47.4133 15.4133 47.18 15.98C46.9467 16.54 46.6033 17.0233 46.15 17.43C45.6967 17.8367 45.13 18.1533 44.45 18.38C43.7767 18.6 43 18.71 42.12 18.71H39.9V24H37.77V9.64H42.12ZM55.7016 17.79C55.7016 17.4033 55.6449 17.0467 55.5316 16.72C55.4249 16.3933 55.2649 16.11 55.0516 15.87C54.8382 15.63 54.5782 15.4433 54.2716 15.31C53.9649 15.1767 53.6116 15.11 53.2116 15.11C52.3916 15.11 51.7449 15.3467 51.2716 15.82C50.8049 16.2933 50.5082 16.95 50.3816 17.79H55.7016ZM57.3116 22.55C57.0716 22.83 56.7949 23.0733 56.4816 23.28C56.1682 23.48 55.8349 23.6433 55.4816 23.77C55.1282 23.8967 54.7616 23.99 54.3816 24.05C54.0082 24.11 53.6382 24.14 53.2716 24.14C52.5716 24.14 51.9216 24.0233 51.3216 23.79C50.7282 23.55 50.2116 23.2033 49.7716 22.75C49.3382 22.29 48.9982 21.7233 48.7516 21.05C48.5116 20.37 48.3916 19.59 48.3916 18.71C48.3916 18.0033 48.5016 17.3467 48.7216 16.74C48.9416 16.1267 49.2549 15.5933 49.6616 15.14C50.0749 14.6867 50.5782 14.33 51.1716 14.07C51.7649 13.81 52.4316 13.68 53.1716 13.68C53.7916 13.68 54.3616 13.7833 54.8816 13.99C55.4082 14.19 55.8616 14.4833 56.2416 14.87C56.6216 15.2567 56.9182 15.7333 57.1316 16.3C57.3516 16.8667 57.4616 17.5133 57.4616 18.24C57.4616 18.54 57.4282 18.7433 57.3616 18.85C57.2949 18.95 57.1716 19 56.9916 19H50.3316C50.3516 19.6067 50.4382 20.1367 50.5916 20.59C50.7449 21.0367 50.9549 21.41 51.2216 21.71C51.4949 22.01 51.8182 22.2333 52.1916 22.38C52.5649 22.5267 52.9816 22.6 53.4416 22.6C53.8749 22.6 54.2482 22.55 54.5616 22.45C54.8816 22.35 55.1549 22.2433 55.3816 22.13C55.6149 22.01 55.8082 21.9 55.9616 21.8C56.1216 21.7 56.2616 21.65 56.3816 21.65C56.5416 21.65 56.6649 21.71 56.7516 21.83L57.3116 22.55ZM61.3975 15.79C61.7242 15.1233 62.1175 14.6 62.5775 14.22C63.0375 13.84 63.5908 13.65 64.2375 13.65C64.4575 13.65 64.6642 13.6767 64.8575 13.73C65.0575 13.7767 65.2308 13.85 65.3775 13.95L65.2475 15.42C65.2008 15.6 65.0908 15.69 64.9175 15.69C64.8242 15.69 64.6842 15.6733 64.4975 15.64C64.3108 15.6 64.1108 15.58 63.8975 15.58C63.5842 15.58 63.3075 15.6267 63.0675 15.72C62.8275 15.8067 62.6108 15.94 62.4175 16.12C62.2308 16.2933 62.0642 16.51 61.9175 16.77C61.7708 17.0233 61.6342 17.3133 61.5075 17.64V24H59.5575V13.84H60.6775C60.8908 13.84 61.0342 13.88 61.1075 13.96C61.1875 14.0333 61.2442 14.1667 61.2775 14.36L61.3975 15.79ZM67.5517 24V15.44L66.4917 15.31C66.3384 15.2767 66.2117 15.2233 66.1117 15.15C66.0184 15.07 65.9717 14.9567 65.9717 14.81V14H67.5517V13.08C67.5517 12.5 67.6351 11.9833 67.8017 11.53C67.9684 11.0767 68.2051 10.6933 68.5117 10.38C68.8251 10.06 69.1984 9.82 69.6317 9.66C70.0717 9.49333 70.5651 9.41 71.1117 9.41C71.5717 9.41 71.9951 9.47667 72.3817 9.61L72.3417 10.59C72.3351 10.6767 72.3084 10.7433 72.2617 10.79C72.2151 10.83 72.1517 10.86 72.0717 10.88C71.9984 10.9 71.9051 10.9133 71.7917 10.92C71.6851 10.92 71.5684 10.92 71.4417 10.92C71.1417 10.92 70.8684 10.9567 70.6217 11.03C70.3751 11.1033 70.1651 11.2267 69.9917 11.4C69.8184 11.5733 69.6851 11.8033 69.5917 12.09C69.4984 12.37 69.4517 12.72 69.4517 13.14V14H72.3017V15.42H69.5117V24H67.5517ZM77.95 13.68C78.6967 13.68 79.37 13.8033 79.97 14.05C80.5767 14.29 81.09 14.64 81.51 15.1C81.9367 15.5533 82.2633 16.1033 82.49 16.75C82.7167 17.39 82.83 18.11 82.83 18.91C82.83 19.71 82.7167 20.4333 82.49 21.08C82.2633 21.7267 81.9367 22.2767 81.51 22.73C81.09 23.1833 80.5767 23.5333 79.97 23.78C79.37 24.02 78.6967 24.14 77.95 24.14C77.1967 24.14 76.5167 24.02 75.91 23.78C75.31 23.5333 74.7967 23.1833 74.37 22.73C73.9433 22.2767 73.6133 21.7267 73.38 21.08C73.1533 20.4333 73.04 19.71 73.04 18.91C73.04 18.11 73.1533 17.39 73.38 16.75C73.6133 16.1033 73.9433 15.5533 74.37 15.1C74.7967 14.64 75.31 14.29 75.91 14.05C76.5167 13.8033 77.1967 13.68 77.95 13.68ZM77.95 22.62C78.91 22.62 79.6267 22.2967 80.1 21.65C80.5733 21.0033 80.81 20.0933 80.81 18.92C80.81 17.7467 80.5733 16.8367 80.1 16.19C79.6267 15.5367 78.91 15.21 77.95 15.21C76.9767 15.21 76.25 15.5367 75.77 16.19C75.2967 16.8367 75.06 17.7467 75.06 18.92C75.06 20.0933 75.2967 21.0033 75.77 21.65C76.25 22.2967 76.9767 22.62 77.95 22.62ZM86.8467 15.79C87.1734 15.1233 87.5667 14.6 88.0267 14.22C88.4867 13.84 89.0401 13.65 89.6867 13.65C89.9067 13.65 90.1134 13.6767 90.3067 13.73C90.5067 13.7767 90.6801 13.85 90.8267 13.95L90.6967 15.42C90.6501 15.6 90.5401 15.69 90.3667 15.69C90.2734 15.69 90.1334 15.6733 89.9467 15.64C89.7601 15.6 89.5601 15.58 89.3467 15.58C89.0334 15.58 88.7567 15.6267 88.5167 15.72C88.2767 15.8067 88.0601 15.94 87.8667 16.12C87.6801 16.2933 87.5134 16.51 87.3667 16.77C87.2201 17.0233 87.0834 17.3133 86.9567 17.64V24H85.0067V13.84H86.1267C86.3401 13.84 86.4834 13.88 86.5567 13.96C86.6367 14.0333 86.6934 14.1667 86.7267 14.36L86.8467 15.79ZM92.3309 24V13.84H93.5009C93.7743 13.84 93.9443 13.97 94.0109 14.23L94.1509 15.2C94.5243 14.7533 94.9376 14.39 95.3909 14.11C95.8509 13.8233 96.3876 13.68 97.0009 13.68C97.6743 13.68 98.2209 13.8667 98.6409 14.24C99.0609 14.6067 99.3676 15.1067 99.5609 15.74C99.7076 15.38 99.8976 15.07 100.131 14.81C100.364 14.55 100.624 14.3367 100.911 14.17C101.198 14.0033 101.501 13.88 101.821 13.8C102.148 13.72 102.478 13.68 102.811 13.68C103.351 13.68 103.831 13.7667 104.251 13.94C104.678 14.1067 105.038 14.3533 105.331 14.68C105.624 15.0067 105.848 15.41 106.001 15.89C106.154 16.37 106.231 16.9167 106.231 17.53V24H104.271V17.53C104.271 16.77 104.104 16.1967 103.771 15.81C103.444 15.4233 102.964 15.23 102.331 15.23C102.051 15.23 101.784 15.28 101.531 15.38C101.278 15.4733 101.054 15.6167 100.861 15.81C100.674 16.0033 100.524 16.2433 100.411 16.53C100.304 16.8167 100.251 17.15 100.251 17.53V24H98.2909V17.53C98.2909 16.7433 98.1343 16.1633 97.8209 15.79C97.5076 15.4167 97.0476 15.23 96.4409 15.23C96.0209 15.23 95.6309 15.34 95.2709 15.56C94.9109 15.78 94.5809 16.08 94.2809 16.46V24H92.3309ZM114.314 19.49C113.521 19.5167 112.848 19.58 112.294 19.68C111.741 19.7733 111.291 19.9 110.944 20.06C110.598 20.22 110.348 20.41 110.194 20.63C110.041 20.8433 109.964 21.0833 109.964 21.35C109.964 21.6033 110.004 21.8233 110.084 22.01C110.171 22.19 110.284 22.34 110.424 22.46C110.571 22.5733 110.741 22.6567 110.934 22.71C111.128 22.7633 111.338 22.79 111.564 22.79C111.864 22.79 112.138 22.76 112.384 22.7C112.638 22.64 112.874 22.5567 113.094 22.45C113.314 22.3367 113.524 22.2 113.724 22.04C113.924 21.88 114.121 21.6967 114.314 21.49V19.49ZM108.594 15.26C109.161 14.72 109.774 14.3167 110.434 14.05C111.101 13.7833 111.831 13.65 112.624 13.65C113.204 13.65 113.718 13.7467 114.164 13.94C114.611 14.1267 114.988 14.39 115.294 14.73C115.601 15.07 115.831 15.4767 115.984 15.95C116.144 16.4233 116.224 16.9467 116.224 17.52V24H115.354C115.161 24 115.014 23.97 114.914 23.91C114.814 23.8433 114.734 23.7233 114.674 23.55L114.464 22.66C114.204 22.9 113.948 23.1133 113.694 23.3C113.441 23.48 113.174 23.6367 112.894 23.77C112.621 23.8967 112.328 23.9933 112.014 24.06C111.701 24.1267 111.354 24.16 110.974 24.16C110.574 24.16 110.198 24.1067 109.844 24C109.498 23.8867 109.194 23.7167 108.934 23.49C108.674 23.2633 108.468 22.98 108.314 22.64C108.168 22.3 108.094 21.9033 108.094 21.45C108.094 21.05 108.201 20.6667 108.414 20.3C108.634 19.9267 108.988 19.5933 109.474 19.3C109.968 19.0067 110.608 18.7667 111.394 18.58C112.188 18.3933 113.161 18.2867 114.314 18.26V17.52C114.314 16.7533 114.151 16.18 113.824 15.8C113.498 15.42 113.018 15.23 112.384 15.23C111.958 15.23 111.598 15.2833 111.304 15.39C111.018 15.4967 110.768 15.6167 110.554 15.75C110.348 15.8767 110.164 15.9933 110.004 16.1C109.851 16.2067 109.691 16.26 109.524 16.26C109.391 16.26 109.274 16.2233 109.174 16.15C109.081 16.0767 109.004 15.99 108.944 15.89L108.594 15.26ZM120.665 15.25C120.885 15.0167 121.115 14.8033 121.355 14.61C121.595 14.4167 121.848 14.2533 122.115 14.12C122.388 13.98 122.678 13.8733 122.985 13.8C123.298 13.72 123.632 13.68 123.985 13.68C124.545 13.68 125.035 13.7733 125.455 13.96C125.882 14.1467 126.238 14.41 126.525 14.75C126.812 15.0833 127.028 15.4867 127.175 15.96C127.322 16.4333 127.395 16.9567 127.395 17.53V24H125.435V17.53C125.435 16.8033 125.268 16.24 124.935 15.84C124.602 15.4333 124.092 15.23 123.405 15.23C122.905 15.23 122.435 15.35 121.995 15.59C121.562 15.8233 121.158 16.1433 120.785 16.55V24H118.835V13.84H120.005C120.278 13.84 120.448 13.97 120.515 14.23L120.665 15.25ZM137.146 15.74C137.086 15.8133 137.026 15.8733 136.966 15.92C136.913 15.96 136.833 15.98 136.726 15.98C136.62 15.98 136.506 15.94 136.386 15.86C136.273 15.7733 136.126 15.6833 135.946 15.59C135.773 15.49 135.56 15.4 135.306 15.32C135.06 15.2333 134.753 15.19 134.386 15.19C133.906 15.19 133.483 15.2767 133.116 15.45C132.75 15.6233 132.443 15.87 132.196 16.19C131.956 16.51 131.773 16.9 131.646 17.36C131.52 17.82 131.456 18.3367 131.456 18.91C131.456 19.5033 131.523 20.0333 131.656 20.5C131.79 20.96 131.98 21.35 132.226 21.67C132.473 21.9833 132.773 22.2233 133.126 22.39C133.48 22.55 133.873 22.63 134.306 22.63C134.726 22.63 135.073 22.58 135.346 22.48C135.62 22.3733 135.846 22.26 136.026 22.14C136.206 22.02 136.356 21.91 136.476 21.81C136.596 21.7033 136.72 21.65 136.846 21.65C137.006 21.65 137.13 21.71 137.216 21.83L137.776 22.55C137.543 22.8367 137.28 23.08 136.986 23.28C136.7 23.48 136.393 23.6433 136.066 23.77C135.74 23.8967 135.396 23.99 135.036 24.05C134.683 24.11 134.323 24.14 133.956 24.14C133.323 24.14 132.73 24.0233 132.176 23.79C131.63 23.5567 131.153 23.2167 130.746 22.77C130.346 22.3233 130.03 21.7767 129.796 21.13C129.563 20.4767 129.446 19.7367 129.446 18.91C129.446 18.1567 129.55 17.46 129.756 16.82C129.97 16.18 130.28 15.63 130.686 15.17C131.1 14.7033 131.606 14.34 132.206 14.08C132.806 13.8133 133.493 13.68 134.266 13.68C134.993 13.68 135.633 13.7967 136.186 14.03C136.74 14.2633 137.233 14.5933 137.666 15.02L137.146 15.74ZM146.151 17.79C146.151 17.4033 146.094 17.0467 145.981 16.72C145.874 16.3933 145.714 16.11 145.501 15.87C145.287 15.63 145.027 15.4433 144.721 15.31C144.414 15.1767 144.061 15.11 143.661 15.11C142.841 15.11 142.194 15.3467 141.721 15.82C141.254 16.2933 140.957 16.95 140.831 17.79H146.151ZM147.761 22.55C147.521 22.83 147.244 23.0733 146.931 23.28C146.617 23.48 146.284 23.6433 145.931 23.77C145.577 23.8967 145.211 23.99 144.831 24.05C144.457 24.11 144.087 24.14 143.721 24.14C143.021 24.14 142.371 24.0233 141.771 23.79C141.177 23.55 140.661 23.2033 140.221 22.75C139.787 22.29 139.447 21.7233 139.201 21.05C138.961 20.37 138.841 19.59 138.841 18.71C138.841 18.0033 138.951 17.3467 139.171 16.74C139.391 16.1267 139.704 15.5933 140.111 15.14C140.524 14.6867 141.027 14.33 141.621 14.07C142.214 13.81 142.881 13.68 143.621 13.68C144.241 13.68 144.811 13.7833 145.331 13.99C145.857 14.19 146.311 14.4833 146.691 14.87C147.071 15.2567 147.367 15.7333 147.581 16.3C147.801 16.8667 147.911 17.5133 147.911 18.24C147.911 18.54 147.877 18.7433 147.811 18.85C147.744 18.95 147.621 19 147.441 19H140.781C140.801 19.6067 140.887 20.1367 141.041 20.59C141.194 21.0367 141.404 21.41 141.671 21.71C141.944 22.01 142.267 22.2333 142.641 22.38C143.014 22.5267 143.431 22.6 143.891 22.6C144.324 22.6 144.697 22.55 145.011 22.45C145.331 22.35 145.604 22.2433 145.831 22.13C146.064 22.01 146.257 21.9 146.411 21.8C146.571 21.7 146.711 21.65 146.831 21.65C146.991 21.65 147.114 21.71 147.201 21.83L147.761 22.55Z" fill="#2680EA"/>
</svg>
