<svg width="264" height="264" viewBox="0 0 264 264" fill="none" xmlns="http://www.w3.org/2000/svg">
<path d="M183.085 59.901C185.636 56.2918 184.792 51.2654 180.983 49.0243C171.59 43.4989 161.309 39.5964 150.574 37.5015C137.214 34.8945 123.453 35.1462 110.198 38.2399C96.943 41.3337 84.4941 47.1994 73.672 55.4505C64.9762 62.0803 57.4893 70.1294 51.5171 79.2404C49.0941 82.937 50.5637 87.817 54.4499 89.9226L74.2618 100.657C78.1451 102.761 82.9567 101.278 85.5783 97.7239C88.8215 93.3268 92.6804 89.4006 97.0476 86.071C103.541 81.1204 111.01 77.6011 118.963 75.7448C126.916 73.8886 135.172 73.7376 143.188 75.3018C148.58 76.354 153.781 78.1662 158.638 80.6735C162.563 82.6993 167.533 81.8974 170.083 78.2913L183.085 59.901Z" fill="#2699FB"/>
<path d="M53.8564 172.87C49.94 174.915 48.3956 179.77 50.7589 183.503C56.4997 192.572 63.7152 200.619 72.106 207.31C75.5616 210.066 80.5569 209.056 83.0146 205.383L95.5365 186.666C97.9925 182.996 96.9633 178.067 93.6674 175.127C90.4601 172.265 87.5814 169.055 85.085 165.556C82.5192 161.959 77.729 160.402 73.8128 162.447L53.8564 172.87Z" fill="#E6E7E8"/>
<path d="M51.8195 94.1135C47.8132 92.2461 43.0178 93.9726 41.4917 98.121C37.6324 108.613 35.6207 119.717 35.5676 130.938C35.5144 142.16 37.4213 153.285 41.1819 163.816C42.6681 167.978 47.4451 169.75 51.4687 167.923L71.9685 158.614C75.9907 156.787 77.7125 152.055 76.4589 147.819C74.8599 142.416 74.0548 136.794 74.0816 131.13C74.1085 125.467 74.9669 119.853 76.6173 114.465C77.911 110.243 76.2359 105.495 72.233 103.629L51.8195 94.1135Z" fill="#D4EBFE"/>
<path d="M87.0541 208.143C84.7937 211.939 86.0268 216.882 89.9975 218.82C109.379 228.279 131.457 230.995 152.683 226.388C176.525 221.214 197.517 207.187 211.42 187.139C225.323 167.091 231.102 142.515 227.591 118.372C224.465 96.8778 214.183 77.152 198.531 62.3159C195.324 59.2764 190.262 59.8541 187.499 63.3017L173.405 80.8878C170.642 84.3355 171.246 89.3365 174.279 92.5488C182.4 101.148 187.734 112.087 189.455 123.918C191.562 138.404 188.094 153.15 179.752 165.178C171.41 177.207 158.816 185.623 144.51 188.728C132.826 191.263 120.712 190.101 109.812 185.51C105.74 183.795 100.845 184.982 98.5843 188.778L87.0541 208.143Z" fill="#134075"/>
</svg>
