<svg width="8" height="67" viewBox="0 0 8 67" fill="none" xmlns="http://www.w3.org/2000/svg">
<path d="M3.875 0.125L6.96022 1.90625V5.46875L3.875 7.25L0.789784 5.46875V1.90625L3.875 0.125Z" fill="black"/>
<path d="M3.875 12L6.96022 13.7812V17.3438L3.875 19.125L0.789784 17.3438V13.7812L3.875 12Z" fill="black"/>
<path d="M3.875 23.875L6.96022 25.6562V29.2188L3.875 31L0.789784 29.2188V25.6562L3.875 23.875Z" fill="black"/>
<path d="M3.875 35.75L6.96022 37.5312V41.0938L3.875 42.875L0.789784 41.0938V37.5312L3.875 35.75Z" fill="black"/>
<path d="M3.875 47.625L6.96022 49.4062V52.9688L3.875 54.75L0.789784 52.9688V49.4062L3.875 47.625Z" fill="black"/>
<path d="M3.875 59.5L6.96022 61.2812V64.8438L3.875 66.625L0.789784 64.8438V61.2812L3.875 59.5Z" fill="black"/>
</svg>
