<svg width="24" height="24" viewBox="0 0 24 24" fill="none" xmlns="http://www.w3.org/2000/svg">
<mask id="path-1-inside-1_3484_3237" fill="white">
<path d="M17.5969 11.4621L17.554 11.4192L18.8799 10.0934C18.9568 10.0165 19 9.91216 19 9.80339C19 9.69462 18.9568 9.59027 18.8799 9.51338L17.554 8.18756L17.5969 8.14464C17.9267 8.09837 18.2319 7.94697 18.4702 7.70869C19.0709 7.10795 19.0709 6.13055 18.4702 5.52986C18.1792 5.23879 17.7923 5.07852 17.3808 5.07852C16.9692 5.07852 16.5823 5.23879 16.2914 5.52978C16.0531 5.76808 15.9017 6.07329 15.8554 6.40306L15.8125 6.44596L14.4866 5.12011C14.3265 4.95996 14.0668 4.95996 13.9066 5.12011L8.18752 10.8392L8.14462 10.7963C8.09835 10.4665 7.94695 10.1613 7.70865 9.92302C7.10796 9.3223 6.13057 9.3223 5.52982 9.92302C4.92914 10.5237 4.92914 11.5012 5.52982 12.1019C5.76812 12.3402 6.07331 12.4916 6.40307 12.5378L6.446 12.5807L5.12013 13.9066C4.95996 14.0667 4.95996 14.3265 5.12013 14.4866L9.51336 18.8799C9.59028 18.9568 9.69459 19 9.80337 19C9.91217 19 10.0165 18.9568 10.0934 18.8799L11.7092 17.264C11.8694 17.1038 11.8694 16.8441 11.7092 16.6839L11.2708 16.2455C11.1967 16.1713 11.0969 16.1284 10.9921 16.1255C10.8074 16.1204 10.6337 16.0456 10.5031 15.915C10.367 15.779 10.2921 15.5981 10.2921 15.4057C10.2921 15.2132 10.367 15.0323 10.5031 14.8963C10.7839 14.6154 11.2409 14.6154 11.5218 14.8963C11.6524 15.0269 11.7272 15.2006 11.7323 15.3853C11.7352 15.4902 11.7781 15.5898 11.8522 15.664L12.2907 16.1025C12.3676 16.1794 12.4719 16.2226 12.5807 16.2226C12.6895 16.2226 12.7938 16.1794 12.8707 16.1025L15.8124 13.1607L15.8553 13.2036C15.9016 13.5334 16.053 13.8386 16.2913 14.0769C16.892 14.6776 17.8694 14.6776 18.4701 14.0769C18.7611 13.7859 18.9214 13.399 18.9214 12.9875C18.9214 12.576 18.7611 12.1891 18.4701 11.8981C18.2319 11.6598 17.9267 11.5084 17.5969 11.4621ZM12.5807 15.2324L12.5378 15.1895C12.4916 14.8597 12.3401 14.5546 12.1019 14.3163C11.5011 13.7155 10.5237 13.7155 9.92302 14.3163C9.63203 14.6073 9.4718 14.9942 9.4718 15.4057C9.4718 15.8172 9.63206 16.2041 9.92302 16.4951C10.1613 16.7334 10.4665 16.8848 10.7963 16.9311L10.8392 16.974L9.80337 18.0098L5.99021 14.1966L7.31605 12.8708C7.39297 12.7938 7.4362 12.6895 7.4362 12.5808C7.4362 12.472 7.39297 12.3676 7.31605 12.2907L6.87759 11.8523C6.80347 11.7782 6.70374 11.7353 6.59893 11.7323C6.41417 11.7272 6.24049 11.6525 6.10987 11.5218C5.82902 11.241 5.82902 10.784 6.10987 10.5031C6.39074 10.2222 6.84771 10.2222 7.12858 10.5031C7.2592 10.6337 7.33396 10.8074 7.33907 10.9922C7.34197 11.097 7.3849 11.1967 7.45906 11.2708L7.89749 11.7093C8.05764 11.8694 8.31735 11.8694 8.47753 11.7093L9.80337 10.3834L11.1292 11.7093C11.2894 11.8695 11.5491 11.8695 11.7092 11.7093L12.1477 11.2708C12.2219 11.1967 12.2648 11.097 12.2677 10.9922C12.2728 10.8074 12.3476 10.6337 12.4782 10.5031C12.759 10.2222 13.216 10.2222 13.4969 10.5031C13.7778 10.784 13.7778 11.241 13.4969 11.5218C13.3663 11.6525 13.1926 11.7272 13.0078 11.7323C12.903 11.7352 12.8033 11.7782 12.7292 11.8523L12.2907 12.2907C12.1306 12.4509 12.1306 12.7106 12.2907 12.8708L13.6166 14.1966L12.5807 15.2324ZM17.8901 13.4969C17.6092 13.7778 17.1522 13.7778 16.8714 13.4969C16.7408 13.3663 16.666 13.1926 16.6609 13.0078C16.658 12.903 16.6151 12.8033 16.5409 12.7291L16.1025 12.2907C16.0224 12.2106 15.9174 12.1706 15.8125 12.1706C15.7075 12.1706 15.6025 12.2106 15.5225 12.2907L14.1966 13.6166L13.1608 12.5807L13.2037 12.5378C13.5335 12.4916 13.8387 12.3402 14.077 12.1019C14.6777 11.5012 14.6777 10.5237 14.077 9.92302C13.4763 9.3223 12.4989 9.3223 11.8981 9.92302C11.6599 10.1613 11.5085 10.4666 11.4622 10.7963L11.4193 10.8392L10.3835 9.80336L14.1966 5.99019L15.5225 7.31601C15.6826 7.47616 15.9423 7.47616 16.1025 7.31601L16.5409 6.87758C16.6151 6.80345 16.658 6.70373 16.6609 6.59892C16.666 6.41416 16.7408 6.24047 16.8714 6.10985C17.0075 5.97379 17.1883 5.89884 17.3808 5.89884C17.5732 5.89884 17.7541 5.97379 17.8901 6.10985C18.171 6.3907 18.171 6.84769 17.8901 7.12857C17.7595 7.25919 17.5858 7.33395 17.4011 7.33906C17.2962 7.34196 17.1965 7.38489 17.1224 7.45905L16.6839 7.8975C16.5238 8.05768 16.5238 8.31737 16.6839 8.47755L18.0098 9.80336L16.6839 11.1292C16.5238 11.2894 16.5238 11.5491 16.6839 11.7093L17.1224 12.1477C17.1965 12.2218 17.2962 12.2647 17.401 12.2677C17.5858 12.2728 17.7595 12.3475 17.8901 12.4782C18.0262 12.6142 18.1011 12.7951 18.1011 12.9875C18.1011 13.1799 18.0262 13.3608 17.8901 13.4969Z"/>
</mask>
<path d="M17.5969 11.4621L17.554 11.4192L18.8799 10.0934C18.9568 10.0165 19 9.91216 19 9.80339C19 9.69462 18.9568 9.59027 18.8799 9.51338L17.554 8.18756L17.5969 8.14464C17.9267 8.09837 18.2319 7.94697 18.4702 7.70869C19.0709 7.10795 19.0709 6.13055 18.4702 5.52986C18.1792 5.23879 17.7923 5.07852 17.3808 5.07852C16.9692 5.07852 16.5823 5.23879 16.2914 5.52978C16.0531 5.76808 15.9017 6.07329 15.8554 6.40306L15.8125 6.44596L14.4866 5.12011C14.3265 4.95996 14.0668 4.95996 13.9066 5.12011L8.18752 10.8392L8.14462 10.7963C8.09835 10.4665 7.94695 10.1613 7.70865 9.92302C7.10796 9.3223 6.13057 9.3223 5.52982 9.92302C4.92914 10.5237 4.92914 11.5012 5.52982 12.1019C5.76812 12.3402 6.07331 12.4916 6.40307 12.5378L6.446 12.5807L5.12013 13.9066C4.95996 14.0667 4.95996 14.3265 5.12013 14.4866L9.51336 18.8799C9.59028 18.9568 9.69459 19 9.80337 19C9.91217 19 10.0165 18.9568 10.0934 18.8799L11.7092 17.264C11.8694 17.1038 11.8694 16.8441 11.7092 16.6839L11.2708 16.2455C11.1967 16.1713 11.0969 16.1284 10.9921 16.1255C10.8074 16.1204 10.6337 16.0456 10.5031 15.915C10.367 15.779 10.2921 15.5981 10.2921 15.4057C10.2921 15.2132 10.367 15.0323 10.5031 14.8963C10.7839 14.6154 11.2409 14.6154 11.5218 14.8963C11.6524 15.0269 11.7272 15.2006 11.7323 15.3853C11.7352 15.4902 11.7781 15.5898 11.8522 15.664L12.2907 16.1025C12.3676 16.1794 12.4719 16.2226 12.5807 16.2226C12.6895 16.2226 12.7938 16.1794 12.8707 16.1025L15.8124 13.1607L15.8553 13.2036C15.9016 13.5334 16.053 13.8386 16.2913 14.0769C16.892 14.6776 17.8694 14.6776 18.4701 14.0769C18.7611 13.7859 18.9214 13.399 18.9214 12.9875C18.9214 12.576 18.7611 12.1891 18.4701 11.8981C18.2319 11.6598 17.9267 11.5084 17.5969 11.4621ZM12.5807 15.2324L12.5378 15.1895C12.4916 14.8597 12.3401 14.5546 12.1019 14.3163C11.5011 13.7155 10.5237 13.7155 9.92302 14.3163C9.63203 14.6073 9.4718 14.9942 9.4718 15.4057C9.4718 15.8172 9.63206 16.2041 9.92302 16.4951C10.1613 16.7334 10.4665 16.8848 10.7963 16.9311L10.8392 16.974L9.80337 18.0098L5.99021 14.1966L7.31605 12.8708C7.39297 12.7938 7.4362 12.6895 7.4362 12.5808C7.4362 12.472 7.39297 12.3676 7.31605 12.2907L6.87759 11.8523C6.80347 11.7782 6.70374 11.7353 6.59893 11.7323C6.41417 11.7272 6.24049 11.6525 6.10987 11.5218C5.82902 11.241 5.82902 10.784 6.10987 10.5031C6.39074 10.2222 6.84771 10.2222 7.12858 10.5031C7.2592 10.6337 7.33396 10.8074 7.33907 10.9922C7.34197 11.097 7.3849 11.1967 7.45906 11.2708L7.89749 11.7093C8.05764 11.8694 8.31735 11.8694 8.47753 11.7093L9.80337 10.3834L11.1292 11.7093C11.2894 11.8695 11.5491 11.8695 11.7092 11.7093L12.1477 11.2708C12.2219 11.1967 12.2648 11.097 12.2677 10.9922C12.2728 10.8074 12.3476 10.6337 12.4782 10.5031C12.759 10.2222 13.216 10.2222 13.4969 10.5031C13.7778 10.784 13.7778 11.241 13.4969 11.5218C13.3663 11.6525 13.1926 11.7272 13.0078 11.7323C12.903 11.7352 12.8033 11.7782 12.7292 11.8523L12.2907 12.2907C12.1306 12.4509 12.1306 12.7106 12.2907 12.8708L13.6166 14.1966L12.5807 15.2324ZM17.8901 13.4969C17.6092 13.7778 17.1522 13.7778 16.8714 13.4969C16.7408 13.3663 16.666 13.1926 16.6609 13.0078C16.658 12.903 16.6151 12.8033 16.5409 12.7291L16.1025 12.2907C16.0224 12.2106 15.9174 12.1706 15.8125 12.1706C15.7075 12.1706 15.6025 12.2106 15.5225 12.2907L14.1966 13.6166L13.1608 12.5807L13.2037 12.5378C13.5335 12.4916 13.8387 12.3402 14.077 12.1019C14.6777 11.5012 14.6777 10.5237 14.077 9.92302C13.4763 9.3223 12.4989 9.3223 11.8981 9.92302C11.6599 10.1613 11.5085 10.4666 11.4622 10.7963L11.4193 10.8392L10.3835 9.80336L14.1966 5.99019L15.5225 7.31601C15.6826 7.47616 15.9423 7.47616 16.1025 7.31601L16.5409 6.87758C16.6151 6.80345 16.658 6.70373 16.6609 6.59892C16.666 6.41416 16.7408 6.24047 16.8714 6.10985C17.0075 5.97379 17.1883 5.89884 17.3808 5.89884C17.5732 5.89884 17.7541 5.97379 17.8901 6.10985C18.171 6.3907 18.171 6.84769 17.8901 7.12857C17.7595 7.25919 17.5858 7.33395 17.4011 7.33906C17.2962 7.34196 17.1965 7.38489 17.1224 7.45905L16.6839 7.8975C16.5238 8.05768 16.5238 8.31737 16.6839 8.47755L18.0098 9.80336L16.6839 11.1292C16.5238 11.2894 16.5238 11.5491 16.6839 11.7093L17.1224 12.1477C17.1965 12.2218 17.2962 12.2647 17.401 12.2677C17.5858 12.2728 17.7595 12.3475 17.8901 12.4782C18.0262 12.6142 18.1011 12.7951 18.1011 12.9875C18.1011 13.1799 18.0262 13.3608 17.8901 13.4969Z" stroke="#929292" stroke-width="2" mask="url(#path-1-inside-1_3484_3237)"/>
</svg>
