<svg width="24" height="24" viewBox="0 0 24 24" fill="none" xmlns="http://www.w3.org/2000/svg">
<path d="M16.7974 11.539L16.7606 11.5022L17.897 10.3658C17.9629 10.2998 18 10.2104 18 10.1172C18 10.024 17.9629 9.93452 17.897 9.86861L16.7606 8.7322L16.7974 8.6954C17.08 8.65575 17.3416 8.52597 17.5459 8.32174C18.0608 7.80682 18.0608 6.96904 17.5459 6.45417C17.2964 6.20467 16.9648 6.06731 16.6121 6.06731C16.2593 6.06731 15.9277 6.20467 15.6783 6.4541C15.4741 6.65835 15.3443 6.91996 15.3046 7.20262L15.2679 7.23939L14.1314 6.10296C13.9941 5.96568 13.7715 5.96568 13.6342 6.10296L8.73216 11.005L8.69539 10.9683C8.65573 10.6856 8.52596 10.424 8.3217 10.2197C7.80683 9.70483 6.96906 9.70483 6.45414 10.2197C5.93926 10.7346 5.93926 11.5724 6.45414 12.0873C6.65839 12.2916 6.91998 12.4213 7.20263 12.461L7.23943 12.4978L6.10297 13.6342C5.96568 13.7715 5.96568 13.9941 6.10297 14.1314L9.86859 17.897C9.93452 17.9629 10.0239 18 10.1172 18C10.2104 18 10.2998 17.963 10.3657 17.897L11.7508 16.512C11.8881 16.3747 11.8881 16.1521 11.7508 16.0148L11.375 15.639C11.3114 15.5754 11.226 15.5387 11.1361 15.5362C10.9777 15.5317 10.8289 15.4677 10.7169 15.3557C10.6003 15.2391 10.5361 15.084 10.5361 14.9191C10.5361 14.7542 10.6003 14.5991 10.7169 14.4825C10.9576 14.2418 11.3493 14.2418 11.5901 14.4825C11.7021 14.5945 11.7661 14.7434 11.7705 14.9017C11.773 14.9916 11.8098 15.077 11.8733 15.1406L12.2492 15.5164C12.3151 15.5823 12.4045 15.6194 12.4978 15.6194C12.591 15.6194 12.6804 15.5823 12.7463 15.5164L15.2678 12.9949L15.3046 13.0317C15.3442 13.3143 15.474 13.576 15.6783 13.7802C16.1931 14.2951 17.0309 14.2951 17.5458 13.7802C17.7953 13.5308 17.9326 13.1992 17.9326 12.8464C17.9326 12.4937 17.7952 12.1621 17.5458 11.9126C17.3416 11.7084 17.08 11.5786 16.7974 11.539ZM12.4978 14.7706L12.461 14.7339C12.4214 14.4512 12.2916 14.1896 12.0873 13.9854C11.5724 13.4705 10.7346 13.4705 10.2197 13.9854C9.97031 14.2348 9.83297 14.5664 9.83297 14.9192C9.83297 15.2719 9.97034 15.6035 10.2197 15.8529C10.424 16.0572 10.6856 16.187 10.9682 16.2266L11.005 16.2634L10.1172 17.1513L6.84875 13.8828L7.98519 12.7464C8.05112 12.6804 8.08817 12.591 8.08817 12.4978C8.08817 12.4046 8.05112 12.3151 7.98519 12.2492L7.60937 11.8734C7.54583 11.8098 7.46035 11.7731 7.37052 11.7706C7.21215 11.7662 7.06327 11.7021 6.95131 11.5901C6.71059 11.3494 6.71059 10.9577 6.95131 10.7169C7.19206 10.4762 7.58375 10.4762 7.8245 10.7169C7.93646 10.8289 8.00054 10.9778 8.00492 11.1362C8.0074 11.226 8.0442 11.3115 8.10776 11.375L8.48356 11.7508C8.62083 11.8881 8.84344 11.8881 8.98074 11.7508L10.1172 10.6144L11.2536 11.7508C11.3909 11.8881 11.6135 11.8881 11.7508 11.7508L12.1266 11.375C12.1902 11.3115 12.227 11.226 12.2294 11.1361C12.2338 10.9778 12.2979 10.8289 12.4098 10.7169C12.6506 10.4762 13.0423 10.4762 13.2831 10.7169C13.5238 10.9577 13.5238 11.3494 13.2831 11.5901C13.1711 11.7021 13.0222 11.7662 12.8639 11.7706C12.774 11.7731 12.6885 11.8098 12.625 11.8734L12.2492 12.2492C12.1119 12.3865 12.1119 12.6091 12.2492 12.7464L13.3856 13.8828L12.4978 14.7706ZM17.0487 13.2831C16.8079 13.5238 16.4162 13.5238 16.1755 13.2831C16.0635 13.1711 15.9995 13.0222 15.9951 12.8638C15.9926 12.774 15.9558 12.6885 15.8922 12.625L15.5164 12.2492C15.4478 12.1805 15.3578 12.1462 15.2679 12.1462C15.1779 12.1462 15.0879 12.1805 15.0193 12.2492L13.8828 13.3856L12.995 12.4978L13.0318 12.461C13.3144 12.4213 13.576 12.2916 13.7803 12.0873C14.2952 11.5724 14.2952 10.7346 13.7803 10.2197C13.2654 9.70483 12.4276 9.70483 11.9127 10.2197C11.7085 10.424 11.5787 10.6856 11.5391 10.9683L11.5023 11.005L10.6144 10.1172L13.8828 6.84874L15.0193 7.98515C15.1565 8.12242 15.3791 8.12242 15.5164 7.98515L15.8922 7.60935C15.9558 7.54582 15.9926 7.46034 15.9951 7.3705C15.9995 7.21214 16.0635 7.06326 16.1755 6.9513C16.2921 6.83467 16.4472 6.77043 16.6121 6.77043C16.777 6.77043 16.9321 6.83467 17.0487 6.9513C17.2894 7.19203 17.2894 7.58374 17.0487 7.82449C16.9367 7.93645 16.7878 8.00053 16.6295 8.00491C16.5396 8.00739 16.4542 8.04419 16.3906 8.10775L16.0148 8.48357C15.8775 8.62087 15.8775 8.84346 16.0148 8.98075L17.1512 10.1172L16.0148 11.2536C15.8775 11.3909 15.8775 11.6135 16.0148 11.7508L16.3906 12.1266C16.4541 12.1901 16.5396 12.2269 16.6294 12.2294C16.7878 12.2338 16.9367 12.2979 17.0487 12.4098C17.1653 12.5265 17.2295 12.6815 17.2295 12.8464C17.2295 13.0114 17.1653 13.1664 17.0487 13.2831Z" fill="#262626"/>
</svg>
