<svg width="20" height="20" viewBox="0 0 20 20" fill="none" xmlns="http://www.w3.org/2000/svg">
<path d="M3.39258 6.78641C4.58183 4.32626 7.0936 2.63025 9.9998 2.63025C13.5305 2.63025 16.479 5.13348 17.1813 8.46897" stroke="#2680EA" stroke-width="1.5" stroke-miterlimit="10" stroke-linecap="round" stroke-linejoin="round"/>
<path d="M17.8325 7.94263L17.3951 8.90519L16.4365 8.46594" stroke="#2680EA" stroke-width="1.5" stroke-miterlimit="10" stroke-linecap="round" stroke-linejoin="round"/>
<path d="M2.16699 12.057L2.60441 11.0945L3.56296 11.5337" stroke="#2680EA" stroke-width="1.5" stroke-miterlimit="10" stroke-linecap="round" stroke-linejoin="round"/>
<path d="M8.01855 8.9696V13.0976" stroke="#2680EA" stroke-width="1.5" stroke-miterlimit="10" stroke-linecap="round" stroke-linejoin="round"/>
<path d="M9.4694 12.1484L8.01838 13.603L6.56738 12.1484" stroke="#2680EA" stroke-width="1.5" stroke-miterlimit="10" stroke-linecap="round" stroke-linejoin="round"/>
<path d="M11.9814 11.0302V6.90222" stroke="#2680EA" stroke-width="1.5" stroke-miterlimit="10" stroke-linecap="round" stroke-linejoin="round"/>
<path d="M10.5293 7.85115L11.9803 6.39661L13.4313 7.85115" stroke="#2680EA" stroke-width="1.5" stroke-miterlimit="10" stroke-linecap="round" stroke-linejoin="round"/>
<path d="M2.81836 11.5311C3.52064 14.8667 6.46913 17.3699 9.99987 17.3699C10.3837 17.3699 10.7607 17.3402 11.1287 17.2832" stroke="#2680EA" stroke-width="1.5" stroke-miterlimit="10" stroke-linecap="round" stroke-linejoin="round"/>
<path d="M14.4492 15.8629C15.3601 15.1652 16.1036 14.2583 16.6086 13.2136" stroke="#2680EA" stroke-width="1.5" stroke-miterlimit="10" stroke-linecap="round" stroke-linejoin="round"/>
</svg>
