<svg width="20" height="20" viewBox="0 0 20 20" fill="none" xmlns="http://www.w3.org/2000/svg">
<path d="M3.39258 6.78629C4.58183 4.32613 7.0936 2.63013 9.9998 2.63013C13.5305 2.63013 16.479 5.13336 17.1813 8.46885" stroke="#DADBDC" stroke-width="1.5" stroke-miterlimit="10" stroke-linecap="round" stroke-linejoin="round"/>
<path d="M17.8325 7.94238L17.3951 8.90494L16.4365 8.4657" stroke="#DADBDC" stroke-width="1.5" stroke-miterlimit="10" stroke-linecap="round" stroke-linejoin="round"/>
<path d="M2.16699 12.057L2.60441 11.0945L3.56296 11.5337" stroke="#DADBDC" stroke-width="1.5" stroke-miterlimit="10" stroke-linecap="round" stroke-linejoin="round"/>
<path d="M8.01855 8.96948V13.0974" stroke="#DADBDC" stroke-width="1.5" stroke-miterlimit="10" stroke-linecap="round" stroke-linejoin="round"/>
<path d="M9.4694 12.1484L8.01838 13.603L6.56738 12.1484" stroke="#DADBDC" stroke-width="1.5" stroke-miterlimit="10" stroke-linecap="round" stroke-linejoin="round"/>
<path d="M11.9814 11.03V6.9021" stroke="#DADBDC" stroke-width="1.5" stroke-miterlimit="10" stroke-linecap="round" stroke-linejoin="round"/>
<path d="M10.5293 7.85103L11.9803 6.39648L13.4313 7.85103" stroke="#DADBDC" stroke-width="1.5" stroke-miterlimit="10" stroke-linecap="round" stroke-linejoin="round"/>
<path d="M2.81836 11.531C3.52064 14.8665 6.46913 17.3697 9.99987 17.3697C10.3837 17.3697 10.7607 17.3401 11.1287 17.2831" stroke="#DADBDC" stroke-width="1.5" stroke-miterlimit="10" stroke-linecap="round" stroke-linejoin="round"/>
<path d="M14.4492 15.8629C15.3601 15.1652 16.1036 14.2583 16.6086 13.2136" stroke="#DADBDC" stroke-width="1.5" stroke-miterlimit="10" stroke-linecap="round" stroke-linejoin="round"/>
</svg>
