<svg id="Component_61_587" data-name="Component 61 – 587" xmlns="http://www.w3.org/2000/svg" width="16" height="16" viewBox="0 0 16 16">
  <g id="Group_16358" data-name="Group 16358">
    <rect id="Rectangle_4435" data-name="Rectangle 4435" width="16" height="16" fill="none"/>
    <g id="Group_16734" data-name="Group 16734" transform="translate(1.906 2.262)">
      <path id="Path_13248" data-name="Path 13248" d="M11.881,10.061,7.221,1.954A1.287,1.287,0,0,0,5,1.954L.334,10.061a1.249,1.249,0,0,0,.009,1.258,1.282,1.282,0,0,0,1.1.626h9.32a1.282,1.282,0,0,0,1.1-.626,1.249,1.249,0,0,0,.009-1.258Z" transform="translate(-0.074 -0.578)" fill="#e93030"/>
      <path id="Path_13249" data-name="Path 13249" d="M12.147,18.079a.813.813,0,0,1-.561.213.835.835,0,0,1-.561-.207.746.746,0,0,1-.247-.589.8.8,0,0,1,1.362-.566.762.762,0,0,1,.235.561A.751.751,0,0,1,12.147,18.079Z" transform="translate(-5.478 -8.486)" fill="#fff"/>
      <path id="Path_13250" data-name="Path 13250" d="M12.382,8.189l-.207,2.349a1.889,1.889,0,0,1-.129.656.46.46,0,0,1-.437.269.448.448,0,0,1-.432-.263,2.242,2.242,0,0,1-.151-.69l-.151-2.287c-.028-.454-.045-.768-.045-.964a.953.953,0,0,1,.23-.673.8.8,0,0,1,.605-.247.628.628,0,0,1,.605.37,1.979,1.979,0,0,1,.146.852q0,.315-.034.628Z" transform="translate(-5.502 -3.406)" fill="#fff"/>
    </g>
  </g>
</svg>
