<svg width="16" height="16" viewBox="0 0 16 16" fill="none" xmlns="http://www.w3.org/2000/svg">
<g clip-path="url(#clip0_20_894)">
<path d="M8 16C3.58862 16 0 12.4114 0 8C0 3.58862 3.58862 0 8 0C12.4114 0 16 3.58862 16 8C16 12.4114 12.4114 16 8 16ZM8 1C4.14001 1 1 4.14001 1 8C1 11.86 4.14001 15 8 15C11.86 15 15 11.86 15 8C15 4.14001 11.86 1 8 1Z" fill="#E85454"/>
<path d="M5.52722 10.9744C5.39917 10.9744 5.27112 10.9258 5.17383 10.8278C4.97852 10.6324 4.97852 10.3158 5.17383 10.1205L10.1238 5.17041C10.3192 4.9751 10.6359 4.9751 10.8312 5.17041C11.0265 5.36572 11.0265 5.68237 10.8312 5.87781L5.8811 10.8278C5.78247 10.9258 5.65454 10.9744 5.52722 10.9744Z" fill="#E85454"/>
<path d="M10.4732 10.9747C10.3453 10.9747 10.2173 10.9261 10.12 10.8281L5.17001 5.87875C4.97458 5.68344 4.97458 5.36679 5.17001 5.17148C5.36533 4.97604 5.68198 4.97604 5.87729 5.17148L10.8272 10.1214C11.0227 10.3167 11.0227 10.6334 10.8272 10.8287C10.7293 10.9261 10.6013 10.9747 10.4732 10.9747Z" fill="#E85454"/>
</g>
<defs>
<clipPath id="clip0_20_894">
<rect width="16" height="16" fill="white"/>
</clipPath>
</defs>
</svg>
