<svg width="21" height="22" viewBox="0 0 21 22" fill="none" xmlns="http://www.w3.org/2000/svg">
<path d="M11.6673 1.6665H5.00065C4.55862 1.6665 4.1347 1.8421 3.82214 2.15466C3.50958 2.46722 3.33398 2.89114 3.33398 3.33317V16.6665C3.33398 17.1085 3.50958 17.5325 3.82214 17.845C4.1347 18.1576 4.55862 18.3332 5.00065 18.3332H15.0007C15.4427 18.3332 15.8666 18.1576 16.1792 17.845C16.4917 17.5325 16.6673 17.1085 16.6673 16.6665V6.6665L11.6673 1.6665Z" stroke="#2680EA" stroke-width="1.5" stroke-linecap="round" stroke-linejoin="round"/>
<path d="M11.666 1.6665V6.6665H16.666" stroke="#2680EA" stroke-width="1.5" stroke-linecap="round" stroke-linejoin="round"/>
<path d="M13.3327 10.8335H6.66602" stroke="#2680EA" stroke-width="1.5" stroke-linecap="round" stroke-linejoin="round"/>
<path d="M13.3327 14.1665H6.66602" stroke="#2680EA" stroke-width="1.5" stroke-linecap="round" stroke-linejoin="round"/>
<path d="M8.33268 7.5H7.49935H6.66602" stroke="#2680EA" stroke-width="1.5" stroke-linecap="round" stroke-linejoin="round"/>
<path d="M17 14.25C19.0676 14.25 20.75 15.9324 20.75 18C20.75 20.0676 19.0676 21.75 17 21.75C14.9324 21.75 13.25 20.0676 13.25 18C13.25 15.9324 14.9324 14.25 17 14.25Z" fill="#E85454" stroke="white" stroke-width="0.5"/>
<path d="M18.4735 19.0011C18.6038 19.1315 18.6038 19.3421 18.4735 19.4725C18.4085 19.5375 18.3231 19.5701 18.2377 19.5701C18.1524 19.5701 18.0671 19.5375 18.0021 19.4725L17.0004 18.4708L15.9988 19.4725C15.9338 19.5375 15.8485 19.5701 15.7631 19.5701C15.6777 19.5701 15.5924 19.5375 15.5274 19.4725C15.3971 19.3421 15.3971 19.1315 15.5274 19.0011L16.5291 17.9995L15.5274 16.9978C15.3971 16.8674 15.3971 16.6568 15.5274 16.5264C15.6578 16.3961 15.8684 16.3961 15.9988 16.5264L17.0004 17.5282L18.0021 16.5264C18.1325 16.3961 18.3431 16.3961 18.4735 16.5264C18.6038 16.6568 18.6038 16.8674 18.4735 16.9978L17.4718 17.9995L18.4735 19.0011Z" fill="#FAFAFA"/>
</svg>
