<svg width="18" height="18" viewBox="0 0 18 18" fill="none" xmlns="http://www.w3.org/2000/svg">
<g clip-path="url(#clip0_2033_5634)">
<path d="M17.25 3V7.5H12.75" stroke="#A5A5A9" stroke-width="2" stroke-linecap="round" stroke-linejoin="round"/>
<path d="M0.75 15V10.5H5.25" stroke="#A5A5A9" stroke-width="2" stroke-linecap="round" stroke-linejoin="round"/>
<path d="M2.6325 6.75018C3.01288 5.67527 3.65935 4.71423 4.5116 3.95674C5.36385 3.19925 6.3941 2.67 7.50621 2.41837C8.61833 2.16674 9.77607 2.20093 10.8714 2.51776C11.9667 2.83458 12.9639 3.42371 13.77 4.23018L17.25 7.50018M0.75 10.5002L4.23 13.7702C5.03606 14.5766 6.03328 15.1658 7.12861 15.4826C8.22393 15.7994 9.38167 15.8336 10.4938 15.582C11.6059 15.3304 12.6361 14.8011 13.4884 14.0436C14.3407 13.2861 14.9871 12.3251 15.3675 11.2502" stroke="#A5A5A9" stroke-width="1.5" stroke-linecap="round" stroke-linejoin="round"/>
</g>
<defs>
<clipPath id="clip0_2033_5634">
<rect width="18" height="18" fill="white"/>
</clipPath>
</defs>
</svg>
