<svg width="20" height="20" viewBox="0 0 20 20" fill="none" xmlns="http://www.w3.org/2000/svg">
<path d="M4.78906 1.66699H13.3604C14.5243 1.66719 15.4824 2.62462 15.4824 3.8125V11.2656C15.4824 11.2911 15.4627 11.3018 15.4512 11.3018C15.4396 11.3016 15.4209 11.2909 15.4209 11.2656V3.8125C15.4209 2.67443 14.5025 1.73946 13.3604 1.73926H4.78906C3.64675 1.73926 2.72754 2.67431 2.72754 3.8125V16.1875C2.72754 17.3257 3.64675 18.2607 4.78906 18.2607H8.79785C8.80944 18.261 8.82812 18.2717 8.82812 18.2969C8.82812 18.3221 8.80944 18.3327 8.79785 18.333H4.78906C3.62488 18.333 2.66699 17.3755 2.66699 16.1875V3.8125C2.66699 2.62447 3.62488 1.66699 4.78906 1.66699ZM17.3184 12.9922C17.3255 12.9973 17.3311 13.0048 17.333 13.0166C17.3349 13.0284 17.3322 13.0383 17.3262 13.0469L13.876 17.9072L13.874 17.9092C13.7014 18.1258 13.4555 18.2698 13.1885 18.3164L13.0732 18.3311C13.048 18.3327 13.0235 18.333 13 18.333C12.7497 18.333 12.5035 18.248 12.3057 18.0918L12.2246 18.0205L10 15.8662C9.9932 15.8596 9.98855 15.8509 9.98828 15.8389C9.98804 15.8268 9.99226 15.8177 9.99902 15.8105C10.0105 15.7987 10.0267 15.7985 10.0381 15.8096L12.2627 17.9639L12.2646 17.9658C12.5604 18.2498 12.9048 18.2685 13.0684 18.2578H13.0703C13.2332 18.2468 13.5535 18.1847 13.8066 17.8887L13.8262 17.8652L13.8428 17.8408L17.2793 13C17.2848 12.9923 17.2919 12.9883 17.2988 12.9873L17.3184 12.9922ZM5.48242 11.5107H9.84277C9.85432 11.5107 9.87402 11.5213 9.87402 11.5469C9.87402 11.5724 9.85432 11.583 9.84277 11.583H5.48242C5.47088 11.583 5.45117 11.5724 5.45117 11.5469C5.45117 11.5213 5.47088 11.5107 5.48242 11.5107ZM5.48242 8.69824H12.6631C12.6746 8.69841 12.6934 8.70912 12.6934 8.73438C12.6934 8.75963 12.6746 8.77034 12.6631 8.77051H5.48242C5.47088 8.77051 5.45117 8.75991 5.45117 8.73438C5.45117 8.70884 5.47088 8.69824 5.48242 8.69824ZM5.48242 5.88574H12.6631C12.6746 5.88591 12.6934 5.89662 12.6934 5.92188C12.6934 5.94713 12.6746 5.95784 12.6631 5.95801H5.48242C5.47088 5.95801 5.45117 5.94741 5.45117 5.92188C5.45117 5.89634 5.47088 5.88574 5.48242 5.88574Z" fill="#DADBDC" stroke="#2680EA" stroke-width="1.33333"/>
</svg>
