<svg xmlns="http://www.w3.org/2000/svg" width="12.936" height="10.325" viewBox="0 0 12.936 10.325">
  <g id="router-svgrepo-com" transform="translate(-0.003 -0.004)">
    <path id="Path_6994" data-name="Path 6994" d="M1.9,283.13a10.455,10.455,0,0,1,9.149,0c2.525,1.4,2.525,3.686,0,5.091a10.455,10.455,0,0,1-9.149,0c-2.525-1.4-2.525-3.686,0-5.091Z" transform="translate(0 -278.946)" fill="#4467ae"/>
    <path id="Path_6995" data-name="Path 6995" d="M.005,368.72H12.941v3.126H.005Z" transform="translate(-0.002 -365.116)" fill="#4467ae"/>
    <path id="Path_6996" data-name="Path 6996" d="M1.9,1.058a10.456,10.456,0,0,1,9.149,0c2.525,1.4,2.525,3.686,0,5.091a10.456,10.456,0,0,1-9.149,0c-2.525-1.4-2.525-3.686,0-5.091Z" transform="translate(0)" fill="#6d8aca"/>
    <path id="Path_6997" data-name="Path 6997" d="M318.318,170.617l.543.367-1.559-.076-.112-1.053.543.367,1.4-.947.585.4ZM322.2,167.2l-.543-.367,1.559.076.112,1.053-.543-.367-1.4.947-.585-.395Zm-3.8-.183.543-.367-1.559.076-.112,1.053.543-.367,1.4.947.585-.395Zm3.98,3.478-.543.367,1.559-.076.112-1.053-.543.367-1.4-.947-.585.4Z" transform="translate(-313.747 -165.061)" fill="#fff"/>
    <path id="Path_6997_-_Outline" data-name="Path 6997 - Outline" d="M319.3,170.946l-2.538-.126-.182-1.751.811.56,1.373-.947.981.677-1.373.947Zm-2.124-.573.514.025-.135-.093,1.373-.947-.164-.113-1.373.947-.252-.174Zm3.431.454.928-.641-1.373-.947.981-.677,1.373.947.811-.56-.182,1.751Zm.373-1.588,1.373.947-.135.093.514-.025.037-.355-.252.174-1.373-.947Zm-.014-.724-.981-.677,1.373-.947-.928-.641,2.538.126.182,1.751-.811-.56Zm-.164-.677.164.113,1.373-.947.252.174-.037-.355-.514-.025.135.093Zm-1.953.494-1.373-.947-.811.56.182-1.751,2.538-.126-.928.641,1.373.947Zm-1.373-1.511,1.373.947.164-.113-1.373-.947.135-.093-.514.025-.037.355Z" transform="translate(-313.346 -164.717)" fill="#fff"/>
  </g>
</svg>
