<svg xmlns="http://www.w3.org/2000/svg" width="14" height="11.175" viewBox="0 0 14 11.175">
  <g id="router-svgrepo-com" transform="translate(-0.003 -0.005)">
    <path id="Path_6994" data-name="Path 6994" d="M2.053,283.217a11.316,11.316,0,0,1,9.9,0c2.732,1.52,2.732,3.99,0,5.51a11.316,11.316,0,0,1-9.9,0c-2.732-1.521-2.732-3.99,0-5.51Z" transform="translate(0 -278.688)" fill="#4467ae"/>
    <path id="Path_6995" data-name="Path 6995" d="M.005,368.72h14V372.1h-14Z" transform="translate(-0.002 -364.82)" fill="#4467ae"/>
    <path id="Path_6996" data-name="Path 6996" d="M2.053,1.145a11.316,11.316,0,0,1,9.9,0c2.732,1.521,2.732,3.99,0,5.51a11.316,11.316,0,0,1-9.9,0c-2.732-1.521-2.732-3.99,0-5.51Z" transform="translate(0)" fill="#6d8aca"/>
    <path id="Path_6997" data-name="Path 6997" d="M318.411,170.944l.588.4-1.687-.082-.121-1.14.588.4,1.518-1.025.633.428Zm4.2-3.7-.588-.4,1.687.082.121,1.14-.588-.4L321.73,168.7l-.633-.427Zm-4.11-.2.588-.4-1.687.082-.121,1.14.588-.4,1.518,1.025.633-.427Zm4.307,3.764-.588.4,1.687-.082.121-1.14-.588.4-1.518-1.025-.633.428,1.518,1.025Z" transform="translate(-313.464 -164.93)" fill="#fff"/>
    <path id="Path_6997_-_Outline" data-name="Path 6997 - Outline" d="M319.523,171.347l-2.746-.136-.2-1.9.878.606,1.486-1.025,1.062.733-1.486,1.025Zm-2.3-.62.556.028-.146-.1,1.486-1.025-.177-.122-1.486,1.025-.273-.188Zm3.713.492,1-.693-1.486-1.025,1.062-.733L323,169.793l.878-.606-.2,1.9Zm.4-1.719,1.486,1.025-.146.1.556-.028.04-.384L323,170.4l-1.486-1.025Zm-.015-.784-1.062-.733,1.486-1.025-1-.693,2.747.136.2,1.9-.878-.606Zm-.177-.733.177.122,1.486-1.025.273.188-.04-.384-.556-.028.146.1Zm-2.113.535-1.486-1.025-.878.606.2-1.9,2.747-.136-1,.693,1.486,1.025Zm-1.486-1.635,1.486,1.025.177-.122-1.486-1.025.146-.1-.556.028-.04.384Z" transform="translate(-313.08 -164.607)" fill="#fff"/>
  </g>
</svg>
