<svg width="48" height="48" viewBox="0 0 48 48" fill="none" xmlns="http://www.w3.org/2000/svg">
<path d="M42.6667 0H5.33333C2.38781 0 0 2.38781 0 5.33333V42.6667C0 45.6122 2.38781 48 5.33333 48H42.6667C45.6122 48 48 45.6122 48 42.6667V5.33333C48 2.38781 45.6122 0 42.6667 0Z" fill="#25B89D"/>
<path fill-rule="evenodd" clip-rule="evenodd" d="M19.5359 22.6268V25.3735C19.5359 26.1932 19.8616 26.9793 20.4412 27.5589C21.0208 28.1385 21.8069 28.4641 22.6266 28.4641H25.3733C26.193 28.4641 26.9791 28.1385 27.5587 27.5589C28.1383 26.9793 28.464 26.1932 28.464 25.3735V22.6268C28.464 21.8071 28.1383 21.021 27.5587 20.4414C26.9791 19.8618 26.193 19.5361 25.3733 19.5361H22.6266C21.8069 19.5361 21.0208 19.8618 20.4412 20.4414C19.8616 21.021 19.5359 21.8071 19.5359 22.6268Z" fill="white"/>
<path fill-rule="evenodd" clip-rule="evenodd" d="M9.33331 12.4239V15.1706C9.33331 15.9903 9.65894 16.7764 10.2385 17.356C10.8182 17.9356 11.6043 18.2613 12.424 18.2613H15.1706C15.9903 18.2613 16.7765 17.9356 17.3561 17.356C17.9357 16.7764 18.2613 15.9903 18.2613 15.1706V12.4239C18.2613 11.6042 17.9357 10.8181 17.3561 10.2385C16.7765 9.65887 15.9903 9.33325 15.1706 9.33325H12.424C11.6043 9.33325 10.8182 9.65887 10.2385 10.2385C9.65894 10.8181 9.33331 11.6042 9.33331 12.4239Z" fill="white"/>
<path fill-rule="evenodd" clip-rule="evenodd" d="M29.7386 32.8292V35.5759C29.7386 36.3956 30.0642 37.1817 30.6438 37.7613C31.2234 38.3409 32.0096 38.6665 32.8293 38.6665H35.5759C36.3956 38.6665 37.1817 38.3409 37.7614 37.7613C38.341 37.1817 38.6666 36.3956 38.6666 35.5759V32.8292C38.6666 32.0095 38.341 31.2234 37.7614 30.6438C37.1817 30.0641 36.3956 29.7385 35.5759 29.7385H32.8293C32.0096 29.7385 31.2234 30.0641 30.6438 30.6438C30.0642 31.2234 29.7386 32.0095 29.7386 32.8292Z" fill="white"/>
<path fill-rule="evenodd" clip-rule="evenodd" d="M17.032 14.8345H34.8893C35.3428 14.8355 35.7775 15.0161 36.0983 15.3366C36.4191 15.6572 36.5999 16.0917 36.6013 16.5452V21.3532C36.6015 21.5787 36.5572 21.8021 36.471 22.0106C36.3847 22.219 36.2582 22.4084 36.0987 22.5679C35.9392 22.7274 35.7498 22.8539 35.5414 22.9401C35.333 23.0264 35.1096 23.0707 34.884 23.0705H30.768C30.6296 23.0655 30.4916 23.0885 30.3623 23.138C30.233 23.1875 30.115 23.2626 30.0154 23.3587C29.9157 23.4548 29.8364 23.5701 29.7823 23.6975C29.7282 23.825 29.7003 23.962 29.7003 24.1005C29.7003 24.239 29.7282 24.376 29.7823 24.5035C29.8364 24.6309 29.9157 24.7461 30.0154 24.8423C30.115 24.9384 30.233 25.0135 30.3623 25.063C30.4916 25.1125 30.6296 25.1355 30.768 25.1305H34.8893C35.3854 25.1307 35.8767 25.0331 36.3351 24.8433C36.7934 24.6535 37.2099 24.3753 37.5607 24.0245C37.9115 23.6737 38.1897 23.2573 38.3795 22.7989C38.5693 22.3405 38.6668 21.8493 38.6667 21.3532V16.5452C38.6668 16.0491 38.5693 15.5578 38.3795 15.0994C38.1897 14.6411 37.9115 14.2246 37.5607 13.8738C37.2099 13.523 36.7934 13.2448 36.3351 13.055C35.8767 12.8652 35.3854 12.7676 34.8893 12.7678H17.032C16.7652 12.7774 16.5126 12.8901 16.3273 13.0823C16.142 13.2744 16.0384 13.5309 16.0384 13.7978C16.0384 14.0648 16.142 14.3213 16.3273 14.5134C16.5126 14.7055 16.7652 14.8182 17.032 14.8278V14.8345Z" fill="white"/>
<path fill-rule="evenodd" clip-rule="evenodd" d="M25.4733 33.1719H13.1106C12.6562 33.1705 12.2209 32.9889 11.9002 32.667C11.5795 32.345 11.3996 31.909 11.4 31.4546V26.6466C11.4014 26.1933 11.5821 25.759 11.9026 25.4385C12.2231 25.118 12.6574 24.9373 13.1106 24.9359H20.6653C20.8037 24.9409 20.9417 24.9179 21.071 24.8684C21.2003 24.8189 21.3183 24.7438 21.4179 24.6477C21.5176 24.5516 21.5969 24.4363 21.651 24.3089C21.7051 24.1814 21.733 24.0444 21.733 23.9059C21.733 23.7674 21.7051 23.6304 21.651 23.5029C21.5969 23.3755 21.5176 23.2603 21.4179 23.1641C21.3183 23.068 21.2003 22.9929 21.071 22.9434C20.9417 22.8939 20.8037 22.8709 20.6653 22.8759H13.1106C12.1099 22.8756 11.1499 23.2725 10.4416 23.9795C9.73336 24.6865 9.33473 25.6458 9.33331 26.6466V31.4546C9.33314 31.9507 9.43072 32.4419 9.62049 32.9003C9.81026 33.3587 10.0885 33.7752 10.4393 34.1259C10.7901 34.4767 11.2065 34.755 11.6649 34.9447C12.1233 35.1345 12.6146 35.2321 13.1106 35.2319H25.4733C25.6117 35.2369 25.7497 35.2139 25.879 35.1644C26.0083 35.1149 26.1263 35.0398 26.2259 34.9437C26.3256 34.8476 26.4049 34.7323 26.459 34.6049C26.5131 34.4774 26.541 34.3404 26.541 34.2019C26.541 34.0634 26.5131 33.9264 26.459 33.7989C26.4049 33.6715 26.3256 33.5563 26.2259 33.4601C26.1263 33.364 26.0083 33.2889 25.879 33.2394C25.7497 33.1899 25.6117 33.1669 25.4733 33.1719Z" fill="white"/>
<path fill-rule="evenodd" clip-rule="evenodd" d="M34.244 26.0227L32.2267 24.004L34.244 21.9853C34.4371 21.7923 34.5456 21.5304 34.5456 21.2573C34.5456 20.9843 34.4371 20.7224 34.244 20.5293C34.051 20.3363 33.7891 20.2278 33.516 20.2278C33.243 20.2278 32.9811 20.3363 32.7881 20.5293L30.0414 23.276C29.9458 23.3716 29.8699 23.4851 29.8181 23.61C29.7664 23.7349 29.7397 23.8688 29.7397 24.004C29.7397 24.1392 29.7664 24.2731 29.8181 24.398C29.8699 24.5229 29.9458 24.6364 30.0414 24.732L32.7881 27.4787C32.9811 27.6717 33.243 27.7802 33.516 27.7802C33.7891 27.7802 34.051 27.6717 34.244 27.4787C34.4371 27.2856 34.5456 27.0237 34.5456 26.7507C34.5456 26.4776 34.4371 26.2157 34.244 26.0227Z" fill="white"/>
<path fill-rule="evenodd" clip-rule="evenodd" d="M24.7173 37.6784L27.464 34.9317C27.5596 34.8361 27.6355 34.7226 27.6872 34.5977C27.739 34.4728 27.7656 34.3389 27.7656 34.2037C27.7656 34.0685 27.739 33.9346 27.6872 33.8097C27.6355 33.6848 27.5596 33.5713 27.464 33.4757L24.7173 30.729C24.6217 30.6334 24.5082 30.5576 24.3833 30.5059C24.2584 30.4541 24.1245 30.4275 23.9893 30.4275C23.8541 30.4275 23.7202 30.4541 23.5953 30.5059C23.4704 30.5576 23.3569 30.6334 23.2613 30.729C23.1657 30.8246 23.0899 30.9381 23.0381 31.063C22.9864 31.188 22.9598 31.3218 22.9598 31.457C22.9598 31.5922 22.9864 31.7261 23.0381 31.851C23.0899 31.9759 23.1657 32.0894 23.2613 32.185L25.2787 34.2037L23.2613 36.225C23.0682 36.4181 22.9598 36.68 22.9598 36.953C22.9598 37.2261 23.0682 37.488 23.2613 37.681C23.4544 37.8741 23.7163 37.9826 23.9893 37.9826C24.2624 37.9826 24.5242 37.8741 24.7173 37.681V37.6784Z" fill="white"/>
</svg>
