<svg width="48" height="48" viewBox="0 0 48 48" fill="none" xmlns="http://www.w3.org/2000/svg">
<path d="M42.6667 0H5.33333C2.38781 0 0 2.38781 0 5.33333V42.6667C0 45.6122 2.38781 48 5.33333 48H42.6667C45.6122 48 48 45.6122 48 42.6667V5.33333C48 2.38781 45.6122 0 42.6667 0Z" fill="#168EEA"/>
<g clip-path="url(#clip0_201_11195)">
<path d="M35.3137 12.6863C32.2917 9.66431 28.2739 8 24.0002 8H23.9998C19.7261 8 15.7083 9.66431 12.6863 12.6863C9.66431 15.7083 8 19.7263 8 24C8 28.2737 9.66431 32.2917 12.6863 35.3137C15.7083 38.3357 19.7263 40 24 40C28.2737 40 32.2917 38.3357 35.3137 35.3137C38.3357 32.2917 40 28.2737 40 24C40 19.7263 38.3357 15.7083 35.3137 12.6863ZM36.3589 30.8323H31.676C32.3035 28.9939 32.6814 27.0034 32.7695 24.9375H38.093C37.9531 27.0645 37.3403 29.064 36.3589 30.8323ZM24 37.9863C22.0044 36.7988 20.3494 34.9583 19.1589 32.7073H28.8411C27.6506 34.9583 25.9956 36.7988 24 37.9863ZM18.3115 30.8323C17.6221 29.0234 17.2041 27.0261 17.1074 24.9375H30.8926C30.7959 27.0261 30.3777 29.0234 29.6882 30.8323H18.3115ZM9.90698 24.9375H15.2305C15.3186 27.0034 15.6965 28.9939 16.324 30.8323H11.6411C10.6597 29.064 10.0469 27.0645 9.90698 24.9375ZM11.6411 17.1677H16.324C15.6965 19.0061 15.3186 20.9966 15.2305 23.0625H9.90698C10.0469 20.9355 10.6597 18.936 11.6411 17.1677ZM24 10.0137C25.9956 11.2012 27.6506 13.0417 28.8411 15.2927H19.1589C20.3494 13.0417 22.0044 11.2012 24 10.0137ZM29.6885 17.1677C30.3779 18.9766 30.7959 20.9739 30.8926 23.0625H17.1074C17.2041 20.9739 17.6223 18.9766 18.3118 17.1677H29.6885ZM38.093 23.0625H32.7695C32.6814 20.9966 32.3035 19.0061 31.676 17.1677H36.3589C37.3403 18.936 37.9531 20.9355 38.093 23.0625ZM30.9253 15.2927C30.0342 13.3679 28.8486 11.667 27.4253 10.2959C30.5146 11.0684 33.2048 12.8601 35.1147 15.2927H30.9253ZM20.5747 10.2959C19.1514 11.667 17.9658 13.3679 17.0747 15.2927H12.8853C14.7952 12.8601 17.4854 11.0684 20.5747 10.2959ZM17.0747 32.7073C17.9658 34.6321 19.1514 36.333 20.5747 37.7041C17.4854 36.9316 14.7952 35.1399 12.8853 32.7073H17.0747ZM27.4253 37.7041C28.8486 36.333 30.0342 34.6318 30.9253 32.7073H35.1147C33.2048 35.1399 30.5146 36.9316 27.4253 37.7041Z" fill="white"/>
</g>
<defs>
<clipPath id="clip0_201_11195">
<rect width="32" height="32" fill="white" transform="translate(8 8)"/>
</clipPath>
</defs>
</svg>
