<svg width="590" height="557" viewBox="0 0 590 557" fill="none" xmlns="http://www.w3.org/2000/svg">
<path d="M520.295 475.537C505.215 490.438 491.722 499.196 481.391 505.809C380.637 570.297 265.464 551.71 229.856 545.357C172.406 535.107 123.91 527.876 82.2432 491.791C-12.4359 409.795 -7.8308 238.744 64.5156 132.785C73.0938 120.221 145.33 17.5784 260.753 3.11499C263.576 2.76121 265.682 2.55982 267.527 2.37263C285.383 0.560526 396.03 -9.00396 486.252 63.4537C499.167 73.8256 519.95 92.534 539.223 121.067C609.695 225.398 609.918 386.983 520.295 475.537Z" fill="#EFF4FF"/>
<g opacity="0.3">
<path d="M377.369 124.787C377.991 124.115 379.064 124.054 379.765 124.651C381.126 125.81 382.561 126.929 384.028 127.978C384.771 128.509 384.93 129.51 384.393 130.229C384.387 130.238 384.381 130.246 384.374 130.255C383.814 130.975 382.751 131.123 381.999 130.586C380.455 129.482 378.944 128.304 377.511 127.083C376.856 126.526 376.758 125.59 377.257 124.921C377.292 124.875 377.328 124.83 377.369 124.787ZM391.536 132.614C393.138 133.461 394.793 134.25 396.456 134.96C397.312 135.326 397.697 136.287 397.316 137.108C396.931 137.931 395.931 138.298 395.075 137.932C393.325 137.185 391.583 136.354 389.897 135.463C389.076 135.03 388.778 134.04 389.23 133.253C389.263 133.196 389.299 133.141 389.338 133.09C389.832 132.429 390.775 132.211 391.536 132.614ZM404.843 137.889C406.597 138.372 408.393 138.787 410.185 139.123C411.104 139.296 411.704 140.151 411.523 141.033C411.342 141.913 410.452 142.488 409.532 142.316C407.646 141.962 405.753 141.524 403.906 141.016C403.005 140.768 402.485 139.867 402.743 139.004C402.798 138.82 402.884 138.652 402.995 138.505C403.401 137.961 404.134 137.694 404.843 137.889ZM419.047 140.179C420.871 140.274 422.72 140.293 424.544 140.238C425.481 140.21 426.264 140.915 426.294 141.813C426.323 142.711 425.587 143.461 424.651 143.49C422.731 143.548 420.784 143.527 418.864 143.428C417.928 143.379 417.21 142.613 417.261 141.716C417.279 141.395 417.393 141.101 417.575 140.857C417.901 140.42 418.446 140.148 419.047 140.179ZM433.428 139.378C435.225 139.083 437.033 138.71 438.803 138.268C439.711 138.042 440.637 138.564 440.873 139.434C441.109 140.303 440.564 141.192 439.657 141.417C437.795 141.881 435.892 142.274 434.002 142.584C433.078 142.736 432.201 142.142 432.043 141.256C431.963 140.81 432.081 140.375 432.336 140.034C432.587 139.698 432.97 139.453 433.428 139.378ZM447.267 135.547C448.953 134.878 450.63 134.13 452.252 133.325C453.084 132.912 454.108 133.224 454.539 134.022C454.97 134.82 454.645 135.801 453.812 136.215C452.106 137.062 450.341 137.848 448.566 138.553C447.7 138.897 446.708 138.503 446.349 137.673C446.116 137.133 446.208 136.543 446.538 136.101C446.716 135.863 446.963 135.668 447.267 135.547ZM487.749 89.2532C488.668 89.4272 489.266 90.283 489.085 91.1645C488.712 92.97 488.252 94.7845 487.717 96.5568C487.457 97.42 486.516 97.9174 485.616 97.6676C484.716 97.4184 484.197 96.5164 484.457 95.6535C484.965 93.9706 485.401 92.2477 485.755 90.5332C485.803 90.298 485.902 90.085 486.039 89.9018C486.415 89.3992 487.074 89.1252 487.749 89.2532ZM459.868 128.875C461.356 127.863 462.816 126.777 464.207 125.646C464.922 125.066 465.993 125.15 466.599 125.836C467.205 126.522 467.113 127.545 466.401 128.129C464.936 129.319 463.398 130.463 461.832 131.528C461.067 132.048 460.008 131.876 459.466 131.143C459.035 130.562 459.06 129.802 459.47 129.254C459.577 129.111 459.71 128.983 459.868 128.875ZM483.627 102.869C484.482 103.236 484.865 104.199 484.482 105.019C483.698 106.698 482.827 108.367 481.895 109.98C481.444 110.769 480.408 111.05 479.588 110.615C478.769 110.18 478.472 109.19 478.926 108.404C479.812 106.871 480.639 105.285 481.385 103.689C481.432 103.587 481.49 103.492 481.555 103.405C482.015 102.789 482.879 102.548 483.627 102.869ZM470.595 119.672C471.808 118.368 472.979 116.996 474.074 115.594C474.636 114.874 475.699 114.728 476.449 115.267C477.19 115.798 477.348 116.798 476.812 117.515C476.805 117.525 476.798 117.534 476.79 117.543C475.638 119.02 474.406 120.464 473.129 121.837C472.505 122.508 471.432 122.567 470.733 121.969C470.079 121.411 469.983 120.476 470.481 119.809C470.517 119.762 470.555 119.717 470.595 119.672Z" fill="#91B3FA"/>
<path d="M487.283 78.5419C487.088 78.8022 486.971 79.1202 486.966 79.465C486.954 80.3038 486.923 81.1559 486.876 81.9987C486.824 82.8954 487.542 83.663 488.477 83.7118C489.413 83.7612 490.215 83.074 490.264 82.1763C490.315 81.2899 490.347 80.3938 490.36 79.511C490.373 78.6129 489.624 77.8741 488.688 77.8615C488.11 77.8535 487.596 78.1233 487.283 78.5419Z" fill="#91B3FA"/>
</g>
<g opacity="0.3">
<path d="M467.751 32.6175C467.274 33.2557 467.337 34.1491 467.937 34.7194C468.559 35.3094 469.178 35.922 469.777 36.5397C470.416 37.1979 471.489 37.2353 472.176 36.6235C472.865 36.0092 472.901 34.9822 472.263 34.3245C471.632 33.6741 470.98 33.0289 470.326 32.4076C469.66 31.7754 468.585 31.7806 467.925 32.4188C467.861 32.4814 467.803 32.5481 467.751 32.6175Z" fill="#91B3FA"/>
<path d="M369.531 38.0902C370.114 37.3864 371.181 37.2684 371.916 37.8272C372.65 38.3856 372.772 39.4071 372.19 40.1125C371.081 41.4524 370.014 42.8585 369.007 44.3071C368.492 45.0526 367.433 45.2562 366.653 44.7578C365.873 44.2594 365.663 43.2495 366.183 42.5017C366.619 41.8742 367.065 41.2558 367.519 40.6474C368.168 39.7793 368.845 38.9187 369.531 38.0902ZM363.854 49.4424C364.696 49.8349 365.048 50.8083 364.638 51.6161C363.852 53.1676 363.125 54.7673 362.479 56.3714C362.145 57.2095 361.159 57.6267 360.285 57.3031C359.411 56.9798 358.976 56.0378 359.313 55.2001C359.993 53.5109 360.758 51.8266 361.586 50.1945C361.629 50.1099 361.679 50.0301 361.734 49.9563C362.206 49.3238 363.099 49.0908 363.854 49.4424ZM375.761 31.5395C377.126 30.2888 378.565 29.0767 380.04 27.9377C380.769 27.374 381.838 27.484 382.426 28.1835C383.014 28.8829 382.898 29.906 382.17 30.471C380.769 31.5525 379.403 32.7031 378.107 33.891C377.43 34.5118 376.356 34.489 375.708 33.8394C375.135 33.265 375.088 32.3929 375.554 31.7693C375.614 31.6883 375.683 31.6111 375.761 31.5395ZM358.622 62.4609C359.534 62.6665 360.1 63.5422 359.885 64.4166C359.474 66.0929 359.133 67.8062 358.87 69.5085C358.734 70.398 357.872 71.0116 356.944 70.8802C356.017 70.7492 355.376 69.9227 355.513 69.0341C355.789 67.2412 356.148 65.4369 356.581 63.6718C356.634 63.4586 356.727 63.2648 356.853 63.0968C357.241 62.5773 357.932 62.3055 358.622 62.4609ZM387.616 22.8662C389.233 21.9345 390.914 21.0561 392.614 20.2553C393.455 19.859 394.471 20.191 394.885 20.9969C395.299 21.8035 394.952 22.7782 394.111 23.1746C392.497 23.9355 390.9 24.7697 389.364 25.6547C388.561 26.1174 387.518 25.8684 387.035 25.0983C386.675 24.5245 386.728 23.8235 387.11 23.3122C387.241 23.137 387.411 22.984 387.616 22.8662ZM401.167 16.8951C402.961 16.3234 404.802 15.8176 406.638 15.3916C407.55 15.1806 408.466 15.717 408.687 16.5903C408.908 17.4649 408.348 18.3437 407.437 18.5538C405.692 18.9586 403.943 19.4392 402.237 19.9824C401.347 20.2657 400.387 19.8042 400.091 18.9516C399.914 18.4378 400.018 17.8993 400.323 17.4905C400.524 17.2207 400.813 17.0075 401.167 16.8951ZM415.754 13.8967C417.637 13.7131 419.549 13.6037 421.437 13.5713C422.374 13.5553 423.147 14.2705 423.164 15.1686C423.181 16.0682 422.434 16.8081 421.497 16.8241C419.704 16.8545 417.887 16.9589 416.097 17.1335C415.165 17.2245 414.332 16.5735 414.237 15.68C414.194 15.2694 414.313 14.8792 414.545 14.5683C414.819 14.2021 415.25 13.9459 415.754 13.8967ZM430.675 14.0199C432.555 14.2353 434.446 14.5303 436.297 14.8968C437.215 15.0784 437.806 15.939 437.616 16.8191C437.427 17.6975 436.529 18.2645 435.611 18.0827C433.853 17.7347 432.058 17.4547 430.272 17.2501C429.342 17.1433 428.678 16.334 428.789 15.442C428.824 15.1602 428.933 14.9042 429.093 14.6889C429.442 14.2223 430.039 13.9471 430.675 14.0199ZM445.212 17.2851C446.991 17.8907 448.767 18.5776 450.49 19.3266C451.344 19.6976 451.722 20.6619 451.335 21.4801C450.949 22.2956 449.943 22.661 449.089 22.29C447.452 21.5783 445.765 20.9263 444.075 20.3505C443.193 20.0502 442.731 19.1198 443.045 18.2734C443.099 18.1261 443.174 17.9907 443.264 17.8695C443.693 17.2951 444.483 17.0367 445.212 17.2851ZM458.632 23.5236C459.81 24.2327 460.98 24.9857 462.109 25.761C462.518 26.042 462.922 26.326 463.323 26.614C464.072 27.1528 464.246 28.1739 463.662 28.8911C463.1 29.61 462.036 29.7558 461.286 29.2167C460.906 28.9433 460.521 28.6725 460.132 28.4057C459.059 27.6685 457.947 26.953 456.827 26.2786C456.033 25.801 455.794 24.7969 456.292 24.0361C456.311 24.0077 456.331 23.9795 456.351 23.9523C456.869 23.259 457.868 23.0636 458.632 23.5236Z" fill="#91B3FA"/>
<path d="M355.111 76.9848C354.915 77.2478 354.798 77.5688 354.794 77.9162C354.786 78.7969 354.797 79.6943 354.827 80.5836C354.857 81.4818 355.641 82.1861 356.577 82.1571C357.514 82.1279 358.249 81.3778 358.219 80.479C358.19 79.6343 358.18 78.7817 358.188 77.9456C358.197 77.0476 357.444 76.3125 356.507 76.3043C355.932 76.2997 355.422 76.5688 355.111 76.9848Z" fill="#91B3FA"/>
</g>
<path d="M374.28 95.3006C374.368 95.6138 374.654 95.8384 374.992 95.8602L384.623 96.4836C386.764 100.287 389.552 103.79 392.944 106.824L391.134 115.908C391.071 116.226 391.225 116.548 391.519 116.71L401.563 122.232C401.856 122.393 402.225 122.358 402.479 122.145L409.745 116.061C414.189 117.336 418.752 117.874 423.257 117.725L428.682 125.379C428.872 125.647 429.219 125.77 429.545 125.685L440.721 122.782C441.048 122.697 441.282 122.423 441.305 122.099L441.955 112.867C445.923 110.815 449.577 108.143 452.742 104.891L462.218 106.625C462.551 106.686 462.887 106.538 463.055 106.257L468.816 96.6286C468.984 96.3472 468.948 95.9944 468.725 95.7502L462.378 88.7856C463.708 84.525 464.269 80.1512 464.113 75.8325L472.098 70.6328C472.378 70.4506 472.507 70.1182 472.418 69.805L469.39 59.092C469.301 58.779 469.015 58.5542 468.678 58.5324L459.046 57.9092C456.906 54.1058 454.118 50.6026 450.726 47.5686L452.535 38.4853C452.599 38.1667 452.444 37.8445 452.151 37.6831L442.107 32.1608C441.813 31.9994 441.445 32.0344 441.19 32.2478L433.925 38.3315C429.48 37.0572 424.918 36.5188 420.412 36.6682L414.988 29.014C414.798 28.7456 414.451 28.6226 414.124 28.7074L402.949 31.6109C402.622 31.6957 402.388 31.9698 402.365 32.2934L401.715 41.5259C397.747 43.5776 394.093 46.2507 390.927 49.5019L381.452 47.7674C381.119 47.7068 380.783 47.8546 380.615 48.136L374.854 57.7643C374.686 58.0456 374.722 58.3984 374.945 58.6426L381.291 65.607C379.962 69.8676 379.401 74.2414 379.556 78.5601L371.571 83.7598C371.291 83.942 371.163 84.2746 371.252 84.5876L374.28 95.3006Z" fill="#73A2C7"/>
<path d="M414.657 71.0475C419.115 66.6228 426.498 66.4994 431.114 70.7735C433.351 72.8438 434.612 75.6251 434.666 78.6047C434.72 81.5838 433.561 84.4056 431.4 86.5491C426.941 90.9738 419.559 91.0972 414.942 86.8231C410.743 82.9347 410.258 76.7268 413.562 72.3059C413.89 71.8677 414.255 71.4465 414.657 71.0475ZM431.951 78.6497C431.909 76.365 430.942 74.233 429.228 72.6452C425.689 69.3688 420.028 69.4628 416.61 72.8556C413.189 76.2482 413.29 81.6746 416.829 84.9516C420.368 88.228 426.029 88.134 429.447 84.7414C429.757 84.4336 430.039 84.1082 430.295 83.7668C431.403 82.2839 431.984 80.5066 431.951 78.6497Z" fill="#BDD0FB"/>
<path d="M400.036 62.7352C399.468 63.4945 398.937 64.2855 398.446 65.1069C398.291 65.3652 398.141 65.6262 397.995 65.8894C397.275 67.1871 396.664 68.5379 396.172 69.9204C396.165 69.9392 396.158 69.958 396.151 69.9768C396.133 70.0304 396.114 70.0838 396.095 70.1378C396.059 70.2422 396.024 70.347 395.989 70.4516C395.897 70.727 396.007 71.0177 396.24 71.1779C396.296 71.2167 396.36 71.2479 396.43 71.2691C396.787 71.3783 397.168 71.1881 397.282 70.8466C397.868 69.0847 398.656 67.3715 399.624 65.7546C404.428 57.7213 413.039 53.0611 422.04 52.6575C427.046 52.4325 432.173 53.5251 436.834 56.0877C437.651 56.5369 438.439 57.0225 439.194 57.5415C444.278 61.0341 447.924 66.0548 449.582 71.9199C451.487 78.6569 450.541 85.7019 446.918 91.7566C439.435 104.261 422.747 108.592 409.708 101.423C408.904 100.982 408.126 100.502 407.378 99.9878C404.135 97.7597 401.437 94.8763 399.488 91.535C399.437 91.4486 399.369 91.3778 399.291 91.3238C399.084 91.1817 398.801 91.1575 398.564 91.2848C398.237 91.4614 398.119 91.8562 398.303 92.1706C400.35 95.6782 403.183 98.706 406.587 101.045C407.373 101.585 408.189 102.088 409.032 102.552C422.721 110.079 440.247 105.522 448.096 92.4042C451.899 86.0477 452.892 78.6521 450.893 71.5795C449.152 65.422 445.325 60.1515 439.987 56.4847C439.194 55.94 438.367 55.4304 437.51 54.9586C430.878 51.3128 423.163 50.3607 415.785 52.2774C409.36 53.9465 403.861 57.6175 400.036 62.7352Z" fill="#BDD0FB"/>
<g opacity="0.3">
<path d="M307.177 145.079C306.913 145.433 306.91 145.923 307.204 146.283C307.752 146.955 308.329 147.62 308.918 148.26C309.301 148.676 309.963 148.715 310.398 148.348C310.834 147.982 310.872 147.346 310.489 146.93C309.928 146.32 309.378 145.686 308.855 145.045C308.499 144.608 307.84 144.531 307.384 144.872C307.303 144.933 307.234 145.003 307.177 145.079Z" fill="#91B3FA"/>
<path d="M312.772 150.624C313.156 150.208 313.818 150.169 314.252 150.536C315.347 151.463 316.504 152.347 317.692 153.162C317.942 153.334 318.196 153.504 318.452 153.672C318.929 153.986 319.051 154.611 318.723 155.069C318.396 155.49 317.744 155.643 317.266 155.33C316.998 155.154 316.733 154.976 316.471 154.796C315.226 153.941 314.012 153.014 312.864 152.042C312.458 151.698 312.396 151.119 312.705 150.705C312.726 150.677 312.749 150.651 312.772 150.624ZM323.018 156.295C324.59 157.077 326.226 157.773 327.882 158.363C328.425 158.556 328.701 159.134 328.499 159.654C328.298 160.172 327.695 160.44 327.152 160.246C325.416 159.628 323.701 158.899 322.052 158.078C321.538 157.822 321.338 157.216 321.604 156.723C321.628 156.68 321.655 156.639 321.684 156.6C321.983 156.2 322.549 156.062 323.018 156.295ZM332.978 159.838C334.7 160.227 336.464 160.516 338.225 160.697C338.8 160.757 339.217 161.252 339.155 161.803C339.092 162.357 338.577 162.755 338.001 162.695C336.155 162.505 334.303 162.201 332.498 161.794C331.935 161.667 331.585 161.126 331.717 160.586C331.75 160.455 331.808 160.335 331.886 160.232C332.126 159.911 332.552 159.743 332.978 159.838ZM343.542 160.928C345.313 160.9 347.099 160.766 348.847 160.53C349.421 160.453 349.951 160.836 350.032 161.385C350.112 161.933 349.713 162.442 349.14 162.52C347.306 162.768 345.434 162.908 343.577 162.937C342.998 162.947 342.521 162.503 342.511 161.949C342.508 161.725 342.581 161.517 342.707 161.348C342.894 161.098 343.197 160.933 343.542 160.928ZM354.064 159.512C355.774 159.072 357.471 158.527 359.11 157.891C359.646 157.683 360.257 157.931 360.474 158.446C360.692 158.96 360.434 159.546 359.896 159.754C358.179 160.42 356.4 160.992 354.608 161.453C354.049 161.597 353.474 161.279 353.324 160.744C353.239 160.441 353.308 160.133 353.484 159.897C353.62 159.715 353.821 159.575 354.064 159.512ZM363.908 155.691C365.454 154.867 366.96 153.942 368.385 152.942C368.851 152.614 369.508 152.711 369.849 153.159C370.191 153.606 370.09 154.233 369.623 154.563C368.129 155.612 366.549 156.582 364.928 157.447C364.422 157.716 363.784 157.542 363.503 157.058C363.299 156.707 363.338 156.289 363.566 155.983C363.654 155.867 363.768 155.766 363.908 155.691ZM372.475 149.681C373.758 148.521 374.983 147.269 376.114 145.958C376.483 145.531 377.144 145.471 377.589 145.825C378.035 146.178 378.091 146.806 377.729 147.24C376.543 148.614 375.259 149.927 373.913 151.143C373.492 151.523 372.829 151.504 372.431 151.101C372.082 150.746 372.056 150.21 372.342 149.827C372.381 149.775 372.425 149.726 372.475 149.681ZM383.231 136.901C383.753 137.14 383.974 137.74 383.724 138.241C383.033 139.626 382.251 141 381.402 142.319C381.274 142.52 381.144 142.719 381.012 142.917C380.716 143.391 380.052 143.521 379.564 143.22C379.076 142.921 378.935 142.3 379.247 141.832C379.371 141.647 379.493 141.46 379.615 141.268C380.428 140.006 381.174 138.696 381.833 137.374C381.86 137.32 381.892 137.269 381.927 137.221C382.218 136.832 382.766 136.688 383.231 136.901Z" fill="#91B3FA"/>
</g>
<g opacity="0.3">
<path d="M306.443 93.7822C307.526 92.372 308.709 91.0137 309.957 89.743C310.354 89.3398 311.017 89.3202 311.439 89.701C311.86 90.0817 311.873 90.7167 311.482 91.1215C310.292 92.3326 309.164 93.6288 308.131 94.9741C307.788 95.4211 307.131 95.5163 306.666 95.1875C306.203 94.8609 306.101 94.2393 306.435 93.7933C306.437 93.7897 306.44 93.7858 306.443 93.7822ZM304.888 97.8203C305.392 98.0933 305.569 98.7065 305.284 99.189C304.427 100.642 303.653 102.159 302.984 103.699C302.762 104.208 302.148 104.454 301.613 104.24C301.079 104.027 300.827 103.439 301.049 102.926C301.75 101.313 302.561 99.7224 303.459 98.2001C303.478 98.1679 303.498 98.1377 303.521 98.1081C303.828 97.6967 304.416 97.5647 304.888 97.8203ZM313.96 86.1406C315.367 85.0226 316.858 83.9773 318.39 83.0343C318.877 82.7345 319.526 82.8703 319.838 83.3369C320.151 83.8037 320.01 84.4228 319.523 84.7252C318.061 85.6246 316.64 86.6213 315.297 87.6875C314.851 88.0415 314.19 87.9819 313.822 87.5555C313.511 87.1961 313.506 86.6915 313.776 86.3293C313.827 86.2607 313.889 86.1972 313.96 86.1406ZM300.544 107.204C301.101 107.352 301.427 107.907 301.272 108.441C300.804 110.049 300.436 111.7 300.176 113.349C300.089 113.897 299.555 114.275 298.984 114.193C298.411 114.11 298.017 113.598 298.104 113.049C298.375 111.32 298.762 109.588 299.253 107.902C299.287 107.785 299.341 107.679 299.411 107.586C299.659 107.253 300.108 107.087 300.544 107.204ZM323.178 80.4691C324.82 79.7101 326.529 79.0397 328.256 78.476C328.804 78.2972 329.4 78.5784 329.586 79.1035C329.773 79.6289 329.481 80.2001 328.932 80.3787C327.284 80.9156 325.655 81.5552 324.088 82.2798C323.567 82.5206 322.94 82.311 322.689 81.8104C322.516 81.4682 322.565 81.0776 322.781 80.7884C322.88 80.6565 323.014 80.5449 323.178 80.4691ZM333.547 77.0822C335.335 76.7219 337.162 76.4625 338.977 76.3107C339.553 76.2625 340.061 76.6711 340.111 77.2238C340.162 77.776 339.735 78.264 339.158 78.3122C337.428 78.4572 335.685 78.705 333.979 79.0489C333.412 79.1633 332.856 78.8154 332.737 78.2724C332.675 77.9856 332.746 77.7014 332.911 77.48C333.058 77.2828 333.28 77.136 333.547 77.0822ZM344.465 76.1727C346.293 76.2327 348.132 76.4015 349.931 76.6729C350.504 76.7595 350.894 77.2736 350.804 77.8218C350.714 78.3698 350.177 78.7436 349.606 78.6582C347.89 78.3988 346.136 78.2382 344.394 78.1818C343.815 78.1626 343.362 77.6976 343.382 77.143C343.389 76.9371 343.461 76.7485 343.577 76.5931C343.774 76.3289 344.101 76.1609 344.465 76.1727Z" fill="#91B3FA"/>
<path d="M297.81 117.782C297.692 117.939 297.621 118.131 297.615 118.339C297.59 119.199 297.593 120.063 297.621 120.908C297.64 121.462 298.124 121.898 298.703 121.88C299.28 121.861 299.734 121.398 299.717 120.843C299.69 120.038 299.687 119.213 299.71 118.393C299.726 117.838 299.269 117.376 298.69 117.362C298.329 117.353 298.006 117.52 297.81 117.782Z" fill="#91B3FA"/>
</g>
<path d="M310.157 130.229C310.216 130.439 310.407 130.589 310.633 130.604L317.078 131.021C318.51 133.566 320.376 135.91 322.646 137.941L321.435 144.019C321.393 144.232 321.496 144.448 321.693 144.556L328.414 148.251C328.61 148.359 328.856 148.335 329.027 148.193L333.888 144.122C336.863 144.974 339.916 145.335 342.931 145.235L346.56 150.356C346.688 150.536 346.92 150.618 347.138 150.562L354.617 148.619C354.835 148.562 354.992 148.379 355.007 148.162L355.442 141.984C358.097 140.611 360.543 138.823 362.661 136.647L369.001 137.808C369.224 137.848 369.449 137.749 369.561 137.561L373.416 131.118C373.529 130.93 373.505 130.694 373.356 130.531L369.109 125.87C369.999 123.019 370.374 120.092 370.27 117.202L375.613 113.723C375.8 113.601 375.887 113.379 375.827 113.169L373.801 106.001C373.742 105.791 373.55 105.641 373.324 105.626L366.88 105.209C365.447 102.664 363.582 100.32 361.312 98.2895L362.523 92.2112C362.565 91.998 362.462 91.7827 362.265 91.6745L355.544 87.9793C355.348 87.8713 355.102 87.8947 354.931 88.0375L350.069 92.1084C347.095 91.2557 344.042 90.8955 341.027 90.9955L337.397 85.8736C337.27 85.694 337.038 85.6116 336.819 85.6684L329.341 87.6111C329.123 87.6679 328.966 87.8513 328.95 88.0679L328.515 94.2457C325.86 95.6186 323.415 97.4073 321.297 99.583L314.956 98.4223C314.734 98.3817 314.509 98.4807 314.396 98.6689L310.541 105.112C310.429 105.3 310.453 105.536 310.602 105.7L314.849 110.36C313.959 113.211 313.583 116.138 313.688 119.028L308.345 122.507C308.157 122.629 308.071 122.851 308.131 123.061L310.157 130.229Z" fill="#73A2C7"/>
<path d="M337.469 114.437C338.94 112.976 340.917 112.153 343.034 112.118C345.151 112.082 347.156 112.839 348.68 114.25C351.824 117.161 351.91 121.973 348.874 124.997C345.836 128.01 340.808 128.094 337.665 125.183C336.141 123.773 335.282 121.878 335.245 119.849C335.215 118.199 335.732 116.62 336.717 115.303C336.943 115 337.195 114.71 337.469 114.437ZM347.224 115.696C346.103 114.658 344.628 114.101 343.07 114.127C341.514 114.153 340.059 114.759 338.977 115.833C337.897 116.908 337.314 118.321 337.341 119.814C337.368 121.307 338.001 122.701 339.121 123.737C341.433 125.879 345.132 125.817 347.367 123.601C347.568 123.4 347.751 123.19 347.915 122.97C349.571 120.755 349.328 117.643 347.224 115.696Z" fill="#BDD0FB"/>
<path d="M327.293 108.653C326.906 109.17 326.545 109.71 326.207 110.272C325.538 111.39 324.987 112.573 324.568 113.794C324.55 113.849 324.531 113.904 324.513 113.959C324.371 114.384 324.541 114.833 324.9 115.08C324.987 115.14 325.086 115.188 325.194 115.221C325.745 115.39 326.332 115.096 326.51 114.569C326.89 113.426 327.4 112.317 328.025 111.273L328.025 111.272C328.06 111.215 328.095 111.158 328.129 111.101C329.633 108.643 331.719 106.637 334.2 105.204C335.547 104.427 337.011 103.819 338.564 103.401C338.576 103.398 338.589 103.394 338.601 103.391C338.64 103.381 338.679 103.37 338.717 103.36C343.267 102.179 348.025 102.766 352.114 105.014C352.643 105.304 353.152 105.619 353.642 105.955C356.933 108.216 359.293 111.466 360.367 115.263C361.6 119.625 360.987 124.185 358.641 128.104C356.296 132.02 352.499 134.833 347.949 136.016C343.4 137.198 338.642 136.611 334.553 134.363C334.032 134.077 333.529 133.766 333.045 133.434C330.945 131.991 329.199 130.125 327.937 127.962C327.859 127.829 327.755 127.719 327.633 127.636C327.313 127.416 326.877 127.379 326.511 127.575C326.006 127.848 325.825 128.458 326.108 128.943C327.52 131.363 329.474 133.452 331.822 135.066C332.365 135.439 332.927 135.786 333.509 136.106C338.085 138.621 343.407 139.278 348.498 137.955C353.588 136.633 357.838 133.494 360.46 129.105C363.084 124.719 363.77 119.617 362.389 114.738C361.189 110.489 358.548 106.853 354.866 104.323C354.319 103.948 353.749 103.596 353.157 103.271C344.3 98.4016 333.116 100.861 327.293 108.653Z" fill="#BDD0FB"/>
<path d="M85.214 21.5363C84.9626 18.5983 88.8345 17.1055 90.8121 19.3632C110.893 42.288 157.649 109.413 130.908 214.36C97.3562 346.032 120.344 398.093 152.796 431.949C152.796 431.949 104.898 412.309 79.8067 359.281C18.2014 229.085 89.6824 73.7759 85.214 21.5363Z" fill="#90CAF9"/>
<path d="M97.2414 65.2274C98.2246 80.4234 98.8949 95.63 98.9842 110.838C99.1568 126.044 98.8484 141.247 98.046 156.419C97.1831 171.587 96.0234 186.737 94.1941 201.817C92.4356 216.905 90.0032 231.903 87.5059 246.953C85.0977 262.008 82.5825 277.162 81.6779 292.608C80.7605 308.021 81.7478 323.786 85.7109 338.912C86.7029 342.682 87.7705 346.449 89.0589 350.119C90.2771 353.813 91.6662 357.456 93.1226 361.074C96.0739 368.298 99.5304 375.346 103.517 382.117C111.527 395.64 121.679 407.984 133.212 418.766C134.426 419.901 136.37 419.877 137.554 418.714C138.716 417.571 138.713 415.754 137.564 414.614L137.556 414.606C134.828 411.908 132.136 409.182 129.58 406.352C128.278 404.956 127.043 403.507 125.781 402.081C124.576 400.612 123.311 399.186 122.156 397.682C117.427 391.744 113.139 385.494 109.355 378.971C101.727 365.976 96.0862 351.82 92.2737 337.377C90.452 330.133 89.1902 322.772 88.5238 315.344C87.8633 307.915 87.797 300.426 88.1767 292.927C88.9354 277.921 91.2959 262.903 93.5908 247.832C95.8661 232.756 98.0442 217.59 99.5682 202.362C100.351 194.751 100.992 187.127 101.49 179.496C101.762 175.682 101.956 171.864 102.158 168.047C102.321 164.228 102.463 160.408 102.572 156.589C102.979 141.308 102.899 126.023 102.316 110.761C101.656 95.5026 100.575 80.2658 98.8822 65.0946C98.8338 64.6609 98.428 64.3471 97.9757 64.3935C97.5366 64.4385 97.2151 64.809 97.2414 65.2274Z" fill="white"/>
<path d="M80.604 393.981C78.3669 398.971 71.54 400.15 67.5741 396.27C45.6909 374.864 -10.4712 308.979 1.70921 206.177C11.995 119.365 8.96635 71.3548 6.01593 49.6514C5.39213 45.062 11.2427 42.3768 14.5881 45.7138C51.4959 82.5326 161.665 213.148 80.604 393.981Z" fill="#73A2C7"/>
<path d="M74.1358 395.196C74.0144 395.264 73.8848 395.321 73.7471 395.367C72.5932 395.752 71.3322 395.167 70.931 394.061C70.4762 392.807 25.5449 267.266 34.1584 145.94C34.2416 144.773 35.2966 143.89 36.5161 143.968C37.7353 144.048 38.6558 145.06 38.5734 146.228C30.0223 266.671 74.6584 391.422 75.1099 392.668C75.4637 393.642 75.0325 394.696 74.1358 395.196Z" fill="white"/>
<path d="M239.495 419.982L226.457 532.071H377.721L358.019 419.982H239.495Z" fill="#365170"/>
<path d="M410.304 555.005H188.919C182.904 555.005 178.388 550.901 179.551 546.492L182.391 535.723C183.246 532.484 186.963 530.106 191.377 529.974L404.8 523.59C409.413 523.452 413.497 525.799 414.502 529.165L419.623 546.318C420.953 550.775 416.415 555.005 410.304 555.005Z" fill="#365170"/>
<path d="M49.7365 143.82V400.532C49.7365 421.65 67.2919 438.92 89.3148 439.464C187.129 441.882 439.062 447.745 532.174 446.429C548.178 446.203 561.143 433.926 561.604 418.59C563.4 358.952 566.316 215.544 555.524 148.965C553.252 134.944 540.906 124.459 526.111 124.006C444.155 121.492 171.674 113.512 78.6044 115.516C62.5536 115.861 49.7365 128.43 49.7365 143.82Z" fill="#365170"/>
<path d="M66.5402 142.571V386.465C66.5402 398.795 76.8654 408.841 89.7263 409.025L518.779 415.175C531.53 415.358 541.981 405.524 542.029 393.3L542.897 151.585C542.931 142.844 535.667 135.682 526.552 135.47L85.1342 125.175C74.9389 124.937 66.5402 132.795 66.5402 142.571Z" fill="#EBEBEB"/>
<path d="M545.939 425.266C545.932 425.266 545.927 425.266 545.921 425.266L66.5236 415.963C66.0715 415.954 65.7122 415.595 65.721 415.161C65.7306 414.728 66.1115 414.386 66.5572 414.392L545.955 423.695C546.407 423.704 546.766 424.063 546.757 424.496C546.748 424.924 546.383 425.266 545.939 425.266Z" fill="#91B3FA"/>
<path d="M292.608 436.628C288.888 436.628 285.862 433.727 285.862 430.161C285.862 426.595 288.888 423.695 292.608 423.695C296.328 423.695 299.353 426.595 299.353 430.161C299.353 433.727 296.328 436.628 292.608 436.628ZM292.608 425.266C289.792 425.266 287.501 427.462 287.501 430.161C287.501 432.861 289.792 435.056 292.608 435.056C295.423 435.056 297.714 432.861 297.714 430.161C297.714 427.462 295.423 425.266 292.608 425.266Z" fill="#91B3FA"/>
<path d="M308.095 532.985C307.647 532.985 307.282 532.641 307.275 532.211C307.269 531.777 307.631 531.421 308.083 531.414L317.228 531.286C317.673 531.279 318.053 531.626 318.06 532.06C318.066 532.493 317.705 532.85 317.252 532.857L308.107 532.985C308.103 532.985 308.099 532.985 308.095 532.985Z" fill="white"/>
<path d="M187.747 549.161C187.705 549.161 187.661 549.158 187.617 549.151C187.17 549.083 186.866 548.68 186.937 548.252L188.242 540.419C188.95 536.164 192.726 533.031 197.22 532.968L294.221 531.608C294.654 531.582 295.046 531.948 295.053 532.382C295.059 532.816 294.697 533.173 294.245 533.179L197.244 534.539C193.548 534.591 190.442 537.168 189.86 540.667L188.555 548.499C188.491 548.886 188.143 549.161 187.747 549.161Z" fill="#91B3FA"/>
<path d="M433.137 170.191C427.844 170.191 423.538 166.063 423.538 160.99C423.538 155.916 427.844 151.788 433.137 151.788C438.429 151.788 442.735 155.916 442.735 160.99C442.735 166.063 438.429 170.191 433.137 170.191ZM433.137 154.507C429.408 154.507 426.375 157.415 426.375 160.99C426.375 164.563 429.408 167.471 433.137 167.471C436.865 167.471 439.898 164.563 439.898 160.99C439.898 157.415 436.865 154.507 433.137 154.507Z" fill="#90CAF9"/>
<path d="M464.996 170.191C459.704 170.191 455.397 166.063 455.397 160.99C455.397 155.916 459.704 151.788 464.996 151.788C470.289 151.788 474.595 155.916 474.595 160.99C474.595 166.063 470.289 170.191 464.996 170.191ZM464.996 154.508C461.268 154.508 458.234 157.415 458.234 160.99C458.234 164.564 461.268 167.471 464.996 167.471C468.725 167.471 471.758 164.564 471.758 160.99C471.758 157.415 468.725 154.508 464.996 154.508Z" fill="#90CAF9"/>
<path d="M496.855 170.191C491.563 170.191 487.257 166.063 487.257 160.99C487.257 155.916 491.563 151.788 496.855 151.788C502.148 151.788 506.454 155.916 506.454 160.99C506.454 166.063 502.148 170.191 496.855 170.191ZM496.855 154.508C493.127 154.508 490.094 157.415 490.094 160.99C490.094 164.564 493.127 167.471 496.855 167.471C500.583 167.471 503.617 164.564 503.617 160.99C503.617 157.415 500.583 154.508 496.855 154.508Z" fill="#90CAF9"/>
<path d="M348.106 362.624L100.02 364.229C92.9053 364.275 87.1866 358.015 87.4278 350.444L92.1674 201.633C92.3833 194.854 97.6251 189.481 103.996 189.51L345.527 190.594C352.041 190.623 357.294 196.269 357.26 203.203L356.525 353.653C356.501 358.593 352.745 362.594 348.106 362.624Z" fill="#90CAF9" fill-opacity="0.2"/>
<path d="M353.585 386.467H91.1013C89.2701 386.467 87.7855 384.819 87.7855 382.787V376.063C87.7855 374.011 89.297 372.356 91.1453 372.383L353.629 376.244C355.443 376.271 356.901 377.911 356.901 379.924V382.787C356.901 384.82 355.416 386.467 353.585 386.467Z" fill="#90CAF9" fill-opacity="0.6"/>
<path d="M516.215 402.723C516.134 402.723 516.052 402.723 515.97 402.721L89.2407 395.347C80.4756 395.195 73.461 388.235 73.6046 379.833L77.4809 152.713C77.5598 148.104 79.5136 143.808 82.982 140.616C86.4505 137.423 91.0117 135.704 95.8154 135.838L514.027 145.57C522.675 145.771 529.45 152.424 529.45 160.716V390.031C529.45 393.465 528.042 396.68 525.487 399.086C522.989 401.437 519.705 402.723 516.215 402.723ZM95.371 138.553C91.4642 138.553 87.7749 139.974 84.9465 142.577C82.0273 145.264 80.3838 148.88 80.3174 152.758L76.4411 379.879C76.3234 386.784 82.0876 392.503 89.2918 392.628L516.021 400.003C518.811 400.056 521.49 399.037 523.498 397.147C525.506 395.256 526.612 392.729 526.612 390.031V160.716C526.612 153.912 521.054 148.453 513.958 148.288L95.7457 138.557C95.6212 138.554 95.4958 138.553 95.371 138.553Z" fill="#90CAF9"/>
<path d="M505.033 261.943H505.012L383.096 259.685C377.418 259.58 372.798 255.066 372.798 249.621V199.363C372.798 192.115 378.949 186.219 386.51 186.219H505.032C512.593 186.219 518.744 192.115 518.744 199.363V248.799C518.744 256.046 512.593 261.943 505.033 261.943ZM386.51 188.258C380.122 188.258 374.926 193.239 374.926 199.362V249.621C374.926 253.962 378.609 257.562 383.137 257.646L505.042 259.903C511.425 259.899 516.616 254.919 516.616 248.799V199.363C516.616 193.24 511.42 188.258 505.033 188.258L386.51 188.258Z" fill="#90CAF9"/>
<path opacity="0.4" d="M513.013 386.946H378.53C375.952 386.946 373.862 384.943 373.862 382.472V376.379C373.862 373.872 376.011 371.854 378.626 371.905L513.108 374.549C515.648 374.599 517.68 376.587 517.68 379.023V382.472C517.68 384.943 515.59 386.946 513.013 386.946Z" fill="white"/>
<path d="M510.804 365.223C510.765 365.223 510.725 365.223 510.685 365.223L380.263 363.404C375.946 363.344 372.435 359.929 372.435 355.791V319.817C372.435 317.762 373.276 315.835 374.804 314.392C376.302 312.978 378.277 312.203 380.375 312.203C380.416 312.203 380.458 312.203 380.499 312.203L510.921 314.107C515.234 314.17 518.744 317.586 518.744 321.72V357.609C518.744 359.664 517.903 361.59 516.376 363.032C514.878 364.448 512.903 365.223 510.804 365.223ZM380.376 314.243C378.84 314.243 377.394 314.81 376.297 315.846C375.178 316.902 374.562 318.312 374.562 319.817V355.791C374.562 358.82 377.133 361.321 380.293 361.365L510.716 363.184C512.279 363.235 513.765 362.636 514.883 361.58C516.001 360.524 516.616 359.114 516.616 357.609V321.721C516.616 318.693 514.047 316.193 510.889 316.147L380.467 314.243C380.437 314.243 380.406 314.243 380.376 314.243Z" fill="#BDD0FB"/>
<path d="M508.703 306.88C508.662 306.88 508.622 306.88 508.581 306.88L382.588 305.006C378.451 304.944 375.087 301.668 375.087 297.703V269.711C375.087 267.729 375.901 265.875 377.379 264.489C378.857 263.103 380.826 262.351 382.876 262.409L508.869 265.113C512.976 265.201 516.318 268.477 516.318 272.415V299.577C516.318 301.55 515.511 303.398 514.044 304.782C512.607 306.137 510.714 306.88 508.703 306.88ZM382.702 264.447C381.26 264.447 379.902 264.977 378.867 265.947C377.801 266.946 377.214 268.282 377.214 269.711V297.703C377.214 300.561 379.64 302.922 382.621 302.967L508.614 304.84C510.085 304.869 511.494 304.326 512.552 303.328C513.608 302.331 514.19 300.998 514.19 299.577V272.414C514.19 269.575 511.781 267.215 508.821 267.151L382.829 264.448C382.787 264.447 382.744 264.447 382.702 264.447Z" fill="#90CAF9"/>
<path d="M97.5544 147.022L402.515 155.013C405.839 155.1 408.485 157.707 408.485 160.894V175.898C408.485 179.164 405.71 181.805 402.302 181.781L94.6042 179.604C91.2324 179.58 88.5118 176.953 88.5118 173.721V155.456C88.512 150.706 92.601 146.892 97.5544 147.022Z" fill="#90CAF9" fill-opacity="0.6"/>
<path d="M398.507 176.672C398.489 176.672 398.473 176.672 398.455 176.672L98.8916 175.443C94.9717 175.427 91.9015 173.519 91.9015 171.101V159.305C91.9015 158.432 92.2962 157.598 93.0429 156.893C94.3629 155.647 96.6353 154.928 99.1209 154.963L398.684 159.516C402.594 159.576 405.543 161.442 405.543 163.858V172.33C405.543 173.195 405.156 174.022 404.421 174.723C403.141 175.945 400.932 176.672 398.507 176.672ZM98.9435 157.002C97.1262 157.002 95.4073 157.523 94.5346 158.347C94.1993 158.663 94.0291 158.986 94.0291 159.305V171.101C94.0291 172.178 96.1122 173.392 98.9014 173.404L398.465 174.633C398.478 174.633 398.492 174.633 398.505 174.633C400.326 174.633 402.056 174.103 402.921 173.278C403.249 172.964 403.416 172.645 403.416 172.33V163.858C403.416 162.803 401.459 161.598 398.651 161.556L99.0877 157.003C99.0391 157.002 98.9913 157.002 98.9435 157.002Z" fill="#E0E0E0"/>
<path d="M106.695 172.111L84.548 193.723C83.6192 194.629 83.6926 196.102 84.7076 196.92L84.8743 197.054C85.7722 197.777 87.1127 197.661 87.8612 196.796L108.14 173.349L106.695 172.111Z" fill="#365170"/>
<path opacity="0.2" d="M129.445 154.797C132.869 161.676 129.721 169.961 122.414 173.304C115.107 176.647 106.407 173.781 102.983 166.903C99.5586 160.025 102.706 151.739 110.013 148.396C117.32 145.053 126.02 147.919 129.445 154.797Z" fill="url(#paint0_linear_345_1352)"/>
<path d="M109.314 146.992C101.183 150.711 97.6808 159.931 101.491 167.585C105.302 175.239 114.982 178.428 123.113 174.708C131.244 170.988 134.746 161.768 130.936 154.115C127.126 146.461 117.445 143.272 109.314 146.992ZM122.1 172.672C115.163 175.846 106.905 173.125 103.654 166.596C100.403 160.066 103.391 152.2 110.328 149.027C117.264 145.854 125.523 148.575 128.773 155.104C132.024 161.633 129.036 169.499 122.1 172.672Z" fill="#365170"/>
<path d="M379.856 285.35H303.36C285.139 285.35 270.314 271.14 270.314 253.673V244.287C270.314 226.82 285.139 212.609 303.36 212.609H379.856C398.077 212.609 412.902 226.82 412.902 244.287V253.673C412.902 271.14 398.077 285.35 379.856 285.35ZM303.36 224.342C291.887 224.342 282.553 233.289 282.553 244.287V253.673C282.553 264.671 291.887 273.618 303.36 273.618H379.856C391.329 273.618 400.662 264.67 400.662 253.673V244.287C400.662 233.289 391.328 224.342 379.856 224.342H303.36Z" fill="#73A2C7"/>
<path d="M271.691 285.35H195.195C176.974 285.35 162.149 271.14 162.149 253.672V244.287C162.149 226.819 176.974 212.609 195.195 212.609H271.691C289.913 212.609 304.737 226.819 304.737 244.287V253.672C304.737 271.14 289.913 285.35 271.691 285.35ZM277.135 225.034C275.399 224.582 273.574 224.341 271.691 224.341H195.195C183.722 224.341 174.389 233.289 174.389 244.286V253.672C174.389 264.67 183.723 273.617 195.195 273.617H271.691C283.164 273.617 292.498 264.67 292.498 253.672V244.286C292.498 235.094 285.976 227.333 277.135 225.034Z" fill="#365170"/>
<path d="M285.176 234.608C288.734 228.49 295.55 224.342 303.36 224.342H379.855C387.666 224.342 394.481 228.49 398.039 234.608H411.322C407.045 221.86 394.557 212.609 379.855 212.609H303.36C288.659 212.609 276.171 221.86 271.893 234.608H285.176Z" fill="#73A2C7"/>
<g opacity="0.9">
<path d="M358.161 555.654C312.264 533.814 276.857 499.458 272.907 427.568C272.907 427.568 392.364 465.799 358.161 555.654Z" fill="#73A2C7"/>
<path d="M351.931 541.128C351.68 541.128 351.445 540.978 351.357 540.737C330.497 483.731 290.048 450.747 289.642 450.421C289.385 450.213 289.351 449.845 289.567 449.599C289.783 449.352 290.166 449.318 290.424 449.526C290.833 449.855 331.529 483.03 352.506 540.351C352.617 540.655 352.45 540.988 352.133 541.094C352.066 541.117 351.998 541.128 351.931 541.128Z" fill="#BDD0FB"/>
</g>
<path d="M354.717 555.479C322.459 558.333 291.51 551.114 264.488 513.69C264.488 513.69 342.004 496.247 354.717 555.479Z" fill="#BDD0FB"/>
<path d="M336.415 545.596C336.242 545.596 336.071 545.526 335.95 545.39C317.744 524.818 277.013 518.179 276.603 518.114C276.272 518.062 276.047 517.762 276.102 517.444C276.156 517.126 276.465 516.902 276.801 516.963C277.215 517.028 318.386 523.74 336.879 544.635C337.096 544.881 337.064 545.249 336.808 545.457C336.694 545.55 336.554 545.596 336.415 545.596Z" fill="url(#paint1_linear_345_1352)"/>
<path d="M360.337 314.383C353.743 314.907 348.666 320.18 348.62 326.523C348.34 365.314 347.582 499.114 350.018 546.483C350.276 551.501 354.55 555.459 359.791 555.534C385.712 555.903 460.275 556.686 502.617 554.255C511.436 553.749 518.327 546.776 518.353 538.307C518.474 497.594 518.283 383.093 512.687 330.734C512.017 324.461 506.779 319.546 500.223 319.03C471.96 316.808 396.903 311.479 360.337 314.383Z" fill="#365170"/>
<path d="M359.371 338.39C358.548 370.17 356.055 475.889 358.2 514.929C358.513 520.635 363.294 525.171 369.25 525.403C393.773 526.358 456.663 528.311 492.544 524.938C499.005 524.33 503.988 519.227 504.222 513.008C505.439 480.58 508.833 382.122 506.755 343.519C506.423 337.361 501.35 332.414 494.934 331.972C468.389 330.145 400.221 325.884 369.716 328.004C363.99 328.402 359.514 332.888 359.371 338.39Z" fill="#EBEBEB"/>
<path opacity="0.09" d="M366.139 345.605C365.412 374.659 363.214 471.314 365.149 507.009C365.432 512.226 369.717 516.375 375.054 516.588C397.026 517.469 453.375 519.275 485.521 516.201C491.31 515.648 495.774 510.984 495.98 505.298C497.06 475.651 500.067 385.635 498.192 350.34C497.893 344.71 493.346 340.185 487.597 339.779C463.813 338.101 402.734 334.183 375.404 336.112C370.274 336.474 366.264 340.575 366.139 345.605Z" fill="white"/>
<path d="M412.548 320.266C412.57 321.456 413.556 322.42 414.797 322.461C420.921 322.664 438.175 323.238 445.886 323.534C447.406 323.593 448.574 322.263 448.259 320.836L448.205 320.593C447.99 319.619 447.131 318.898 446.096 318.825C440.88 318.457 425.144 317.458 414.741 317.992C413.491 318.056 412.526 319.066 412.548 320.266Z" fill="white"/>
<path opacity="0.4" d="M476.798 470.819L382.969 469.759C375.823 469.678 370.119 464.024 370.274 457.175L372.461 360.518C372.614 353.758 378.422 348.38 385.476 348.468L478.652 349.637C485.759 349.726 491.44 355.329 491.332 362.141L489.798 458.69C489.69 465.475 483.877 470.899 476.798 470.819Z" fill="#EFF4FF"/>
<path d="M434.444 441.488C419.955 441.736 407.985 430.993 407.734 417.54C407.483 404.06 419.044 392.913 433.506 392.665C447.996 392.417 459.965 403.161 460.216 416.614L460.216 416.64C460.467 430.094 448.906 441.241 434.444 441.488ZM433.561 394.106C419.926 394.34 409.047 404.828 409.283 417.487C409.52 430.172 420.782 440.281 434.389 440.047C448.024 439.814 458.903 429.325 458.667 416.667L458.666 416.641C458.431 403.982 447.168 393.873 433.561 394.106Z" fill="#365170"/>
<path d="M426.969 429.462C426.236 429.475 425.621 428.941 425.589 428.256L424.566 406.714C424.533 406.004 424.89 405.341 425.521 404.941C426.153 404.54 426.946 404.473 427.645 404.763L450.715 414.328C451.476 414.644 451.972 415.321 452.009 416.096C452.045 416.871 451.615 417.588 450.886 417.966L430.872 428.33C430.215 428.67 429.388 428.45 429.024 427.841C428.66 427.231 428.896 426.462 429.552 426.122L448.641 416.236L427.319 407.396L428.304 428.141C428.337 428.839 427.756 429.43 427.006 429.461C426.993 429.462 426.981 429.462 426.969 429.462Z" fill="#365170"/>
<defs>
<linearGradient id="paint0_linear_345_1352" x1="102.983" y1="166.903" x2="129.018" y2="153.941" gradientUnits="userSpaceOnUse">
<stop stop-color="#53D8FF"/>
<stop offset="1" stop-color="#3840F7"/>
</linearGradient>
<linearGradient id="paint1_linear_345_1352" x1="276.094" y1="531.275" x2="337.023" y2="531.275" gradientUnits="userSpaceOnUse">
<stop stop-color="#DAE3FE"/>
<stop offset="1" stop-color="#E9EFFD"/>
</linearGradient>
</defs>
</svg>
