<svg width="16" height="16" viewBox="0 0 16 16" fill="none" xmlns="http://www.w3.org/2000/svg">
<g clip-path="url(#clip0_1099_225092)">
<path d="M12.9337 10.0001C12.8449 10.2012 12.8184 10.4242 12.8577 10.6405C12.8969 10.8567 13 11.0563 13.1537 11.2134L13.1937 11.2534C13.3176 11.3772 13.416 11.5243 13.4831 11.6862C13.5502 11.848 13.5847 12.0215 13.5847 12.1967C13.5847 12.372 13.5502 12.5455 13.4831 12.7073C13.416 12.8692 13.3176 13.0163 13.1937 13.1401C13.0698 13.264 12.9228 13.3624 12.7609 13.4295C12.599 13.4966 12.4255 13.5311 12.2503 13.5311C12.0751 13.5311 11.9016 13.4966 11.7397 13.4295C11.5779 13.3624 11.4308 13.264 11.307 13.1401L11.267 13.1001C11.1099 12.9464 10.9103 12.8433 10.6941 12.8041C10.4778 12.7649 10.2547 12.7913 10.0537 12.8801C9.85648 12.9646 9.68831 13.1049 9.56986 13.2838C9.45141 13.4626 9.38785 13.6722 9.38699 13.8867V14.0001C9.38699 14.3537 9.24652 14.6928 8.99647 14.9429C8.74642 15.1929 8.40728 15.3334 8.05366 15.3334C7.70004 15.3334 7.3609 15.1929 7.11085 14.9429C6.8608 14.6928 6.72033 14.3537 6.72033 14.0001V13.9401C6.71516 13.7194 6.64374 13.5054 6.51533 13.3259C6.38693 13.1464 6.20748 13.0096 6.00033 12.9334C5.79925 12.8447 5.5762 12.8182 5.35993 12.8574C5.14367 12.8966 4.94411 12.9997 4.78699 13.1534L4.74699 13.1934C4.62316 13.3174 4.47611 13.4157 4.31425 13.4828C4.15238 13.5499 3.97888 13.5845 3.80366 13.5845C3.62844 13.5845 3.45494 13.5499 3.29307 13.4828C3.13121 13.4157 2.98416 13.3174 2.86033 13.1934C2.73636 13.0696 2.63801 12.9225 2.57091 12.7607C2.50381 12.5988 2.46928 12.4253 2.46928 12.2501C2.46928 12.0749 2.50381 11.9014 2.57091 11.7395C2.63801 11.5776 2.73636 11.4306 2.86033 11.3067L2.90033 11.2667C3.05402 11.1096 3.15712 10.9101 3.19633 10.6938C3.23554 10.4775 3.20907 10.2545 3.12033 10.0534C3.03582 9.85624 2.8955 9.68807 2.71664 9.56962C2.53778 9.45117 2.32818 9.3876 2.11366 9.38675H2.00033C1.6467 9.38675 1.30757 9.24627 1.05752 8.99622C0.807468 8.74618 0.666992 8.40704 0.666992 8.05341C0.666992 7.69979 0.807468 7.36065 1.05752 7.11061C1.30757 6.86056 1.6467 6.72008 2.00033 6.72008H2.06033C2.28099 6.71492 2.495 6.64349 2.67453 6.51509C2.85405 6.38668 2.9908 6.20724 3.06699 6.00008C3.15574 5.799 3.18221 5.57595 3.143 5.35969C3.10378 5.14343 3.00068 4.94387 2.84699 4.78675L2.80699 4.74675C2.68302 4.62292 2.58468 4.47587 2.51758 4.314C2.45048 4.15214 2.41594 3.97864 2.41594 3.80341C2.41594 3.62819 2.45048 3.45469 2.51758 3.29283C2.58468 3.13096 2.68302 2.98391 2.80699 2.86008C2.93082 2.73611 3.07787 2.63777 3.23974 2.57067C3.4016 2.50357 3.5751 2.46903 3.75033 2.46903C3.92555 2.46903 4.09905 2.50357 4.26091 2.57067C4.42278 2.63777 4.56983 2.73611 4.69366 2.86008L4.73366 2.90008C4.89078 3.05377 5.09034 3.15687 5.3066 3.19608C5.52286 3.2353 5.74592 3.20882 5.94699 3.12008H6.00033C6.19751 3.03557 6.36567 2.89525 6.48412 2.71639C6.60257 2.53753 6.66614 2.32794 6.66699 2.11341V2.00008C6.66699 1.64646 6.80747 1.30732 7.05752 1.05727C7.30757 0.807224 7.6467 0.666748 8.00033 0.666748C8.35395 0.666748 8.69309 0.807224 8.94313 1.05727C9.19318 1.30732 9.33366 1.64646 9.33366 2.00008V2.06008C9.33451 2.27461 9.39808 2.4842 9.51653 2.66306C9.63498 2.84192 9.80315 2.98224 10.0003 3.06675C10.2014 3.15549 10.4245 3.18196 10.6407 3.14275C10.857 3.10354 11.0565 3.00044 11.2137 2.84675L11.2537 2.80675C11.3775 2.68278 11.5245 2.58443 11.6864 2.51734C11.8483 2.45024 12.0218 2.4157 12.197 2.4157C12.3722 2.4157 12.5457 2.45024 12.7076 2.51734C12.8694 2.58443 13.0165 2.68278 13.1403 2.80675C13.2643 2.93058 13.3626 3.07763 13.4297 3.23949C13.4968 3.40136 13.5314 3.57486 13.5314 3.75008C13.5314 3.9253 13.4968 4.0988 13.4297 4.26067C13.3626 4.42253 13.2643 4.56958 13.1403 4.69341L13.1003 4.73341C12.9466 4.89053 12.8435 5.09009 12.8043 5.30636C12.7651 5.52262 12.7916 5.74567 12.8803 5.94675V6.00008C12.9648 6.19726 13.1052 6.36543 13.284 6.48388C13.4629 6.60233 13.6725 6.66589 13.887 6.66675H14.0003C14.3539 6.66675 14.6931 6.80722 14.9431 7.05727C15.1932 7.30732 15.3337 7.64646 15.3337 8.00008C15.3337 8.3537 15.1932 8.69284 14.9431 8.94289C14.6931 9.19294 14.3539 9.33341 14.0003 9.33341H13.9403C13.7258 9.33427 13.5162 9.39784 13.3373 9.51629C13.1585 9.63474 13.0182 9.8029 12.9337 10.0001Z" stroke="#2680EA" stroke-linecap="round" stroke-linejoin="round"/>
<path d="M8.18783 8.61393C8.18783 8.98069 8.14117 9.31489 8.04785 9.61654C7.95454 9.91602 7.81565 10.1743 7.63119 10.3913C7.44889 10.6061 7.22211 10.7721 6.95085 10.8893C6.67958 11.0065 6.36491 11.0651 6.00684 11.0651C5.63791 11.0651 5.31565 11.0065 5.04004 10.8893C4.7666 10.7721 4.53874 10.605 4.35645 10.388C4.17632 10.171 4.04069 9.91168 3.94954 9.61003C3.86057 9.30838 3.81608 8.97418 3.81608 8.60742C3.81608 8.12131 3.89638 7.69488 4.05697 7.32812C4.21756 6.96137 4.46061 6.676 4.78613 6.472C5.11382 6.26801 5.52398 6.16602 6.0166 6.16602C6.48752 6.16602 6.88357 6.26693 7.20475 6.46875C7.5281 6.67057 7.77224 6.95486 7.93717 7.32161C8.10428 7.6862 8.18783 8.11697 8.18783 8.61393ZM4.39876 8.61393C4.39876 9.01758 4.45627 9.36697 4.57129 9.66211C4.68631 9.95725 4.86209 10.1851 5.09863 10.3457C5.33735 10.5063 5.64008 10.5866 6.00684 10.5866C6.37576 10.5866 6.67741 10.5063 6.91178 10.3457C7.14833 10.1851 7.32303 9.95725 7.43587 9.66211C7.54872 9.36697 7.60514 9.01758 7.60514 8.61393C7.60514 7.99978 7.47602 7.52018 7.21777 7.17513C6.9617 6.82791 6.56131 6.6543 6.0166 6.6543C5.64768 6.6543 5.34386 6.73351 5.10514 6.89193C4.86643 7.05035 4.68848 7.27604 4.57129 7.56901C4.45627 7.85981 4.39876 8.20812 4.39876 8.61393ZM11.9346 9.73372C11.9346 10.0158 11.864 10.2567 11.723 10.4564C11.5841 10.6539 11.3888 10.8047 11.137 10.9089C10.8853 11.013 10.5891 11.0651 10.2484 11.0651C10.0683 11.0651 9.8979 11.0564 9.7373 11.0391C9.57671 11.0217 9.42915 10.9967 9.2946 10.9642C9.16005 10.9316 9.04178 10.8915 8.93978 10.8437V10.3132C9.10254 10.3804 9.30111 10.4434 9.53548 10.502C9.76986 10.5584 10.0151 10.5866 10.2712 10.5866C10.5099 10.5866 10.7117 10.5551 10.8766 10.4922C11.0416 10.4271 11.1663 10.3349 11.251 10.2155C11.3378 10.094 11.3812 9.94857 11.3812 9.7793C11.3812 9.61654 11.3454 9.4809 11.2738 9.3724C11.2021 9.26172 11.0828 9.16189 10.9157 9.07292C10.7508 8.98177 10.5251 8.8852 10.2386 8.7832C10.0368 8.71159 9.85883 8.63346 9.70475 8.54883C9.55067 8.46202 9.42155 8.36437 9.31738 8.25586C9.21322 8.14735 9.13401 8.02148 9.07975 7.87826C9.02767 7.73503 9.00163 7.57118 9.00163 7.38672C9.00163 7.13281 9.06565 6.9158 9.19369 6.73568C9.32389 6.55339 9.50293 6.4145 9.73079 6.31901C9.96083 6.22135 10.2245 6.17253 10.5218 6.17253C10.7757 6.17253 11.0101 6.1964 11.2249 6.24414C11.4419 6.29188 11.6405 6.3559 11.8206 6.4362L11.6481 6.91146C11.4767 6.83984 11.2944 6.78016 11.1012 6.73242C10.9103 6.68468 10.7128 6.66081 10.5088 6.66081C10.3048 6.66081 10.1323 6.69119 9.99121 6.75195C9.85232 6.81055 9.74599 6.8941 9.6722 7.0026C9.59842 7.11111 9.56152 7.24023 9.56152 7.38997C9.56152 7.55707 9.59625 7.69596 9.66569 7.80664C9.7373 7.91732 9.85015 8.01606 10.0042 8.10286C10.1605 8.1875 10.3666 8.27648 10.6227 8.36979C10.9027 8.47179 11.1403 8.5803 11.3356 8.69531C11.5309 8.80816 11.6796 8.94705 11.7816 9.11198C11.8836 9.27474 11.9346 9.48199 11.9346 9.73372Z" fill="#2680EA"/>
</g>
<defs>
<clipPath id="clip0_1099_225092">
<rect width="16" height="16" fill="white"/>
</clipPath>
</defs>
</svg>
