<svg xmlns="http://www.w3.org/2000/svg" width="14.542" height="12.452" viewBox="0 0 14.542 12.452">
  <path id="Path_11289" data-name="Path 11289" d="M13.133,13.709a3.988,3.988,0,0,1-2.388-1.582,13.029,13.029,0,0,0-1.274-1.271c.765-.638,1.322-1.381,1.909-1.92a3.069,3.069,0,0,1,1.753-.925V9.422l4.141-2.391L13.133,4.64V6.093a5.726,5.726,0,0,0-3.8,2.2,9.745,9.745,0,0,1-1.212,1.2,1.753,1.753,0,0,1-1.1.407H2.734v1.918H7.017a1.755,1.755,0,0,1,1.105.407c.56.407,1.148,1.2,1.947,1.955a4.964,4.964,0,0,0,3.065,1.45v1.46L17.276,14.7l-4.141-2.39v1.395Z" transform="translate(-2.734 -4.64)" fill="#fff"/>
</svg>
