<svg width="15" height="15" viewBox="0 0 15 15" fill="none" xmlns="http://www.w3.org/2000/svg">
<path d="M0.957833 9.59675L2.22996 8.86236C2.29887 8.82258 2.37973 8.80877 2.45794 8.8234L4.96094 9.29185C5.16664 9.33035 5.35652 9.17199 5.35559 8.96272L5.34584 6.76963C5.34558 6.71005 5.36129 6.65148 5.39134 6.60003L6.65449 4.43748C6.72023 4.32493 6.71434 4.18439 6.63941 4.07773L4.51262 1.05046M11.8335 2.40603C8.16681 4.16669 10.1667 6.50003 10.8335 6.83336C12.0849 7.45894 13.8251 7.49999 13.8251 7.49999C13.8305 7.38957 13.8333 7.27844 13.8333 7.16667C13.8333 3.48477 10.8486 0.5 7.16667 0.5C3.48477 0.5 0.5 3.48477 0.5 7.16667C0.5 10.8486 3.48477 13.8333 7.16667 13.8333C7.27844 13.8333 7.38957 13.8306 7.5 13.8251M10.3385 13.7932L8.22734 8.22734L13.7932 10.3385L11.3251 11.3251L10.3385 13.7932Z" stroke="#040D17" stroke-linecap="round" stroke-linejoin="round"/>
</svg>
