<svg xmlns="http://www.w3.org/2000/svg" width="28" height="28" viewBox="0 0 28 28">
  <g id="Group_13323" data-name="Group 13323" transform="translate(-9936 -1408)">
    <circle id="Ellipse_116" data-name="Ellipse 116" cx="14" cy="14" r="14" transform="translate(9936 1408)" fill="#f5f5ff"/>
    <g id="Page-1" transform="translate(9942.001 1414)">
      <g id="_049---Building-Insurance" data-name="049---Building-Insurance" transform="translate(0)">
        <path id="Shape" d="M38.341,19.267v3.958l-1.068,6.457H33V19h5.074A.267.267,0,0,1,38.341,19.267Z" transform="translate(-24.211 -13.949)" fill="#dab0fd"/>
        <path id="Shape-2" data-name="Shape" d="M37.54,19.267v3.958l-1.068,6.457H33V19h4.273A.267.267,0,0,1,37.54,19.267Z" transform="translate(-24.205 -13.949)" fill="#f1e0ff"/>
        <path id="Shape-3" data-name="Shape" d="M9.546,1.267v15.2H1.267A.267.267,0,0,1,1,16.2V1.267A.267.267,0,0,1,1.267,1H9.279A.267.267,0,0,1,9.546,1.267Z" transform="translate(-0.733 -0.733)" fill="#dab0fd"/>
        <path id="Shape-4" data-name="Shape" d="M8.745,1.267v15.2H1.267A.267.267,0,0,1,1,16.2V1.267A.267.267,0,0,1,1.267,1H8.478A.267.267,0,0,1,8.745,1.267Z" transform="translate(-0.733 -0.733)" fill="#f1e0ff"/>
        <path id="Shape-5" data-name="Shape" d="M12.068,45h1.068A1.068,1.068,0,0,1,14.2,46.068v2.671H11V46.068A1.068,1.068,0,0,1,12.068,45Z" transform="translate(-8.068 -33.006)" fill="#f1e0ff"/>
        <rect id="Rectangle-path" height="2" transform="translate(2.015 8.997)" fill="#a4c2f7"/>
        <rect id="Rectangle-path-2" data-name="Rectangle-path" width="1" height="2" rx="0.5" transform="translate(4.009 8.997)" fill="#dab0fd"/>
        <rect id="Rectangle-path-3" data-name="Rectangle-path" width="1" height="2" rx="0.5" transform="translate(7.004 8.997)" fill="#dab0fd"/>
        <rect id="Rectangle-path-4" data-name="Rectangle-path" height="1" transform="translate(2.015 7.001)" fill="#a4c2f7"/>
        <rect id="Rectangle-path-5" data-name="Rectangle-path" width="1" height="1" rx="0.5" transform="translate(4.009 7.001)" fill="#dab0fd"/>
        <rect id="Rectangle-path-6" data-name="Rectangle-path" width="1" height="1" rx="0.5" transform="translate(7.004 7.001)" fill="#dab0fd"/>
        <rect id="Rectangle-path-7" data-name="Rectangle-path" height="2" transform="translate(2.015 4.005)" fill="#a4c2f7"/>
        <rect id="Rectangle-path-8" data-name="Rectangle-path" width="1" height="2" rx="0.5" transform="translate(4.009 4.005)" fill="#dab0fd"/>
        <rect id="Rectangle-path-9" data-name="Rectangle-path" width="1" height="2" rx="0.5" transform="translate(7.004 4.005)" fill="#dab0fd"/>
        <rect id="Rectangle-path-10" data-name="Rectangle-path" height="1" transform="translate(2.015 2.012)" fill="#a4c2f7"/>
        <rect id="Rectangle-path-11" data-name="Rectangle-path" width="1" height="1" rx="0.5" transform="translate(4.009 2.012)" fill="#dab0fd"/>
        <rect id="Rectangle-path-12" data-name="Rectangle-path" width="1" height="1" rx="0.5" transform="translate(7.004 2.012)" fill="#dab0fd"/>
        <path id="Shape-6" data-name="Shape" d="M41.136,51.291v.379H39V49" transform="translate(-28.602 -35.938)" fill="#e8edfc"/>
        <path id="Shape-7" data-name="Shape" d="M18.6,46.068v2.671H17V45h.534A1.068,1.068,0,0,1,18.6,46.068Z" transform="translate(-12.467 -33.006)" fill="#f1e0ff"/>
        <path id="Shape-8" data-name="Shape" d="M44.341,34.244V37.4a1.386,1.386,0,0,1-.585,1.122L41.671,40.01l-.4-.286-1.685-1.2A1.386,1.386,0,0,1,39,37.4V34.244l2.27-.98.4-.174Z" transform="translate(-28.608 -24.277)" fill="#dab0fd"/>
        <path id="Shape-9" data-name="Shape" d="M43.54,34.72v3.159A1.386,1.386,0,0,1,42.955,39L41.27,40.2,39.585,39A1.386,1.386,0,0,1,39,37.879V34.72l2.27-.98Z" transform="translate(-28.608 -24.753)" fill="#f1e0ff"/>
        <path id="Shape-10" data-name="Shape" d="M1.8,16.2V1.267A.267.267,0,0,1,2.068,1h-.8A.267.267,0,0,0,1,1.267V16.2a.267.267,0,0,0,.267.267h.8A.267.267,0,0,1,1.8,16.2Z" transform="translate(-0.733 -0.733)" fill="#fff"/>
        <path id="Shape-11" data-name="Shape" d="M.534,2V16.932H0V2Z" transform="translate(0 -1.466)" fill="#fff"/>
        <path id="Shape-12" data-name="Shape" d="M.267,3.335a.267.267,0,0,0,.267-.267V2H0V3.068A.267.267,0,0,0,.267,3.335Z" transform="translate(0 -1.466)" fill="#8f59bc"/>
        <path id="Shape-13" data-name="Shape" d="M0,25.018H.534V13.267a.267.267,0,1,0-.534,0Z" transform="translate(0 -9.552)" fill="#8f59bc"/>
        <path id="Shape-14" data-name="Shape" d="M.538,9.267a.281.281,0,0,0-.077-.19l-.04-.032a.2.2,0,0,0-.048-.024.17.17,0,0,0-.048-.016A.4.4,0,0,0,.271,9a.281.281,0,0,0-.19.077.276.276,0,0,0-.056.088.273.273,0,0,0,.056.291.276.276,0,0,0,.088.056.267.267,0,0,0,.1.021.281.281,0,0,0,.19-.077A.281.281,0,0,0,.538,9.267Z" transform="translate(-0.004 -6.596)" fill="#8f59bc"/>
        <path id="Shape-15" data-name="Shape" d="M8.813,16H.534A.534.534,0,0,1,0,15.467a.267.267,0,0,1,.534,0H8.546V.533H.534A.267.267,0,0,1,0,.533.534.534,0,0,1,.534,0H8.546A.534.534,0,0,1,9.08.533v15.2A.267.267,0,0,1,8.813,16Z" transform="translate(0)" fill="#8f59bc"/>
        <path id="Shape-16" data-name="Shape" d="M36.54,29.216H32.267A.267.267,0,0,1,32,28.949V18.267A.267.267,0,0,1,32.267,18h5.074a.534.534,0,0,1,.534.534v3.958a.267.267,0,1,1-.534,0V18.534H32.534V28.682H36.54a.267.267,0,1,1,0,.534Z" transform="translate(-23.478 -13.216)" fill="#8f59bc"/>
        <path id="Shape-17" data-name="Shape" d="M13.472,48.273h-3.2A.267.267,0,0,1,10,48.006V45.335A1.337,1.337,0,0,1,11.335,44H12.4a1.337,1.337,0,0,1,1.335,1.335v2.671A.267.267,0,0,1,13.472,48.273Zm-2.938-.534H13.2v-2.4a.8.8,0,0,0-.8-.8H11.335a.8.8,0,0,0-.8.8Z" transform="translate(-7.335 -32.273)" fill="#8f59bc"/>
        <path id="Shape-18" data-name="Shape" d="M16.267,48.273A.267.267,0,0,1,16,48.006V44.267a.267.267,0,0,1,.534,0v3.739A.267.267,0,0,1,16.267,48.273Z" transform="translate(-11.734 -32.273)" fill="#8f59bc"/>
        <path id="Shape-19" data-name="Shape" d="M5.068,36.136H4.534A.534.534,0,0,1,4,35.6V34.534A.534.534,0,0,1,4.534,34h.534a.534.534,0,0,1,.534.534V35.6A.534.534,0,0,1,5.068,36.136Zm-.534-1.6V35.6h.534V34.534Z" transform="translate(-2.932 -24.935)" fill="#8f59bc"/>
        <path id="Shape-20" data-name="Shape" d="M15.068,36.136h-.534A.534.534,0,0,1,14,35.6V34.534A.534.534,0,0,1,14.534,34h.534a.534.534,0,0,1,.534.534V35.6A.534.534,0,0,1,15.068,36.136Zm-.534-1.6V35.6h.534V34.534Z" transform="translate(-10.267 -24.935)" fill="#8f59bc"/>
        <path id="Shape-21" data-name="Shape" d="M25.068,36.136h-.534A.534.534,0,0,1,24,35.6V34.534A.534.534,0,0,1,24.534,34h.534a.534.534,0,0,1,.534.534V35.6A.534.534,0,0,1,25.068,36.136Zm-.534-1.6V35.6h.534V34.534Z" transform="translate(-17.601 -24.935)" fill="#8f59bc"/>
        <path id="Shape-22" data-name="Shape" d="M5.068,26.136H4.534A.534.534,0,0,1,4,25.6V24.534A.534.534,0,0,1,4.534,24h.534a.534.534,0,0,1,.534.534V25.6A.534.534,0,0,1,5.068,26.136Zm-.534-1.6V25.6h.534V24.534Z" transform="translate(-2.932 -17.601)" fill="#8f59bc"/>
        <path id="Shape-23" data-name="Shape" d="M15.068,26.136h-.534A.534.534,0,0,1,14,25.6V24.534A.534.534,0,0,1,14.534,24h.534a.534.534,0,0,1,.534.534V25.6A.534.534,0,0,1,15.068,26.136Zm-.534-1.6V25.6h.534V24.534Z" transform="translate(-10.267 -17.601)" fill="#8f59bc"/>
        <path id="Shape-24" data-name="Shape" d="M25.068,26.136h-.534A.534.534,0,0,1,24,25.6V24.534A.534.534,0,0,1,24.534,24h.534a.534.534,0,0,1,.534.534V25.6A.534.534,0,0,1,25.068,26.136Zm-.534-1.6V25.6h.534V24.534Z" transform="translate(-17.601 -17.601)" fill="#8f59bc"/>
        <path id="Shape-25" data-name="Shape" d="M5.068,16.136H4.534A.534.534,0,0,1,4,15.6V14.534A.534.534,0,0,1,4.534,14h.534a.534.534,0,0,1,.534.534V15.6A.534.534,0,0,1,5.068,16.136Zm-.534-1.6V15.6h.534V14.534Z" transform="translate(-2.932 -10.268)" fill="#8f59bc"/>
        <path id="Shape-26" data-name="Shape" d="M15.068,16.136h-.534A.534.534,0,0,1,14,15.6V14.534A.534.534,0,0,1,14.534,14h.534a.534.534,0,0,1,.534.534V15.6A.534.534,0,0,1,15.068,16.136Zm-.534-1.6V15.6h.534V14.534Z" transform="translate(-10.267 -10.268)" fill="#8f59bc"/>
        <path id="Shape-27" data-name="Shape" d="M25.068,16.136h-.534A.534.534,0,0,1,24,15.6V14.534A.534.534,0,0,1,24.534,14h.534a.534.534,0,0,1,.534.534V15.6A.534.534,0,0,1,25.068,16.136Zm-.534-1.6V15.6h.534V14.534Z" transform="translate(-17.601 -10.268)" fill="#8f59bc"/>
        <path id="Shape-28" data-name="Shape" d="M5.068,6.136H4.534A.534.534,0,0,1,4,5.6V4.534A.534.534,0,0,1,4.534,4h.534a.534.534,0,0,1,.534.534V5.6A.534.534,0,0,1,5.068,6.136Zm-.534-1.6V5.6h.534V4.534Z" transform="translate(-2.932 -2.932)" fill="#8f59bc"/>
        <path id="Shape-29" data-name="Shape" d="M15.068,6.136h-.534A.534.534,0,0,1,14,5.6V4.534A.534.534,0,0,1,14.534,4h.534a.534.534,0,0,1,.534.534V5.6A.534.534,0,0,1,15.068,6.136Zm-.534-1.6V5.6h.534V4.534Z" transform="translate(-10.267 -2.932)" fill="#8f59bc"/>
        <path id="Shape-30" data-name="Shape" d="M25.068,6.136h-.534A.534.534,0,0,1,24,5.6V4.534A.534.534,0,0,1,24.534,4h.534a.534.534,0,0,1,.534.534V5.6A.534.534,0,0,1,25.068,6.136Zm-.534-1.6V5.6h.534V4.534Z" transform="translate(-17.601 -2.932)" fill="#8f59bc"/>
        <path id="Shape-31" data-name="Shape" d="M40.4,51.2H38.267A.267.267,0,0,1,38,50.938V48.267a.267.267,0,1,1,.534,0v2.4h1.6v-.112a.267.267,0,0,1,.534,0v.379A.267.267,0,0,1,40.4,51.2Z" transform="translate(-27.87 -35.205)" fill="#8f59bc"/>
        <path id="Shape-32" data-name="Shape" d="M42.267,31.6A.267.267,0,0,1,42,31.335V30.267a.267.267,0,0,1,.534,0v1.068A.267.267,0,0,1,42.267,31.6Z" transform="translate(-30.801 -22.001)" fill="#dab0fd"/>
        <path id="Shape-33" data-name="Shape" d="M37.267,31.6A.267.267,0,0,1,37,31.335V30.267a.267.267,0,0,1,.534,0v1.068A.267.267,0,0,1,37.267,31.6Z" transform="translate(-27.134 -22.001)" fill="#dab0fd"/>
        <path id="Shape-34" data-name="Shape" d="M47.267,31.207A.267.267,0,0,1,47,30.94v-.673a.267.267,0,1,1,.534,0v.673A.267.267,0,0,1,47.267,31.207Z" transform="translate(-34.467 -22.001)" fill="#dab0fd"/>
        <path id="Shape-35" data-name="Shape" d="M42.267,23.6A.267.267,0,0,1,42,23.335V22.267a.267.267,0,0,1,.534,0v1.068A.267.267,0,0,1,42.267,23.6Z" transform="translate(-30.801 -16.134)" fill="#dab0fd"/>
        <path id="Shape-36" data-name="Shape" d="M37.267,23.6A.267.267,0,0,1,37,23.335V22.267a.267.267,0,0,1,.534,0v1.068A.267.267,0,0,1,37.267,23.6Z" transform="translate(-27.134 -16.134)" fill="#dab0fd"/>
        <path id="Shape-37" data-name="Shape" d="M47.267,23.6A.267.267,0,0,1,47,23.335V22.267a.267.267,0,1,1,.534,0v1.068A.267.267,0,0,1,47.267,23.6Z" transform="translate(-34.467 -16.134)" fill="#dab0fd"/>
        <path id="Shape-38" data-name="Shape" d="M40.938,39.542a.267.267,0,0,1-.155-.05L38.7,38.008a1.651,1.651,0,0,1-.7-1.339v-3.16a.267.267,0,0,1,.16-.245l2.671-1.154a.267.267,0,0,1,.212,0l2.671,1.154a.267.267,0,0,1,.16.245v3.16a1.651,1.651,0,0,1-.7,1.339L41.09,39.493A.267.267,0,0,1,40.938,39.542Zm-1.931-1.97,1.931,1.375,1.931-1.375a1.115,1.115,0,0,0,.472-.9V33.684l-2.4-1.038-2.4,1.038v2.984A1.116,1.116,0,0,0,39.007,37.573Z" transform="translate(-27.875 -23.542)" fill="#8f59bc"/>
        <path id="Shape-39" data-name="Shape" d="M43.335,42.934a.266.266,0,0,1-.16-.053l-1.068-.8a.267.267,0,1,1,.32-.427l.861.646,1.976-2.469a.267.267,0,1,1,.417.334l-2.136,2.671A.267.267,0,0,1,43.335,42.934Z" transform="translate(-30.807 -29.142)" fill="#8f59bc"/>
      </g>
    </g>
  </g>
</svg>
