<svg width="14" height="14" viewBox="0 0 14 14" fill="none" xmlns="http://www.w3.org/2000/svg">
<path fill-rule="evenodd" clip-rule="evenodd" d="M6.16831 6.29839H4.16829C3.15577 6.29839 2.33496 7.11919 2.33496 8.13173V9.13259H3.33496V8.13173C3.33496 7.67153 3.70805 7.29839 4.16829 7.29839H9.16831C9.62851 7.29839 10.0016 7.67153 10.0016 8.13173V9.13259H11.0016V8.13173C11.0016 7.11919 10.1808 6.29839 9.16831 6.29839H7.16831V4.20117H6.16831V6.29839Z" fill="#434A51"/>
<path fill-rule="evenodd" clip-rule="evenodd" d="M3.66927 1.16667C3.66927 0.522333 4.19161 0 4.83593 0H8.50105C9.14538 0 9.66771 0.522333 9.66771 1.16667V3.53425C9.66771 4.17858 9.14538 4.70091 8.50105 4.70091H4.83593C4.19161 4.70091 3.66927 4.17858 3.66927 3.53425V1.16667ZM4.83593 1C4.74389 1 4.66927 1.07462 4.66927 1.16667V3.53425C4.66927 3.62629 4.74389 3.70091 4.83593 3.70091H8.50105C8.59305 3.70091 8.66771 3.62629 8.66771 3.53425V1.16667C8.66771 1.07462 8.59305 1 8.50105 1H4.83593ZM0 9.79907C0 9.15473 0.522333 8.6324 1.16667 8.6324H4.83175C5.47611 8.6324 5.99845 9.15473 5.99845 9.79907V12.1667C5.99845 12.811 5.47605 13.3333 4.83175 13.3333H1.16667C0.522333 13.3333 0 12.811 0 12.1667V9.79907ZM1.16667 9.6324C1.07462 9.6324 1 9.70707 1 9.79907V12.1667C1 12.2587 1.07462 12.3333 1.16667 12.3333H4.83175C4.9238 12.3333 4.99841 12.2587 4.99841 12.1667V9.79907C4.99841 9.70707 4.92379 9.6324 4.83175 9.6324H1.16667ZM7.33465 9.79907C7.33465 9.15473 7.85698 8.6324 8.50131 8.6324H12.1664C12.8107 8.6324 13.333 9.15473 13.333 9.79907V12.1667C13.333 12.811 12.8107 13.3333 12.1664 13.3333H8.50131C7.85698 13.3333 7.33465 12.811 7.33465 12.1667V9.79907ZM8.50131 9.6324C8.40925 9.6324 8.33465 9.70707 8.33465 9.79907V12.1667C8.33465 12.2587 8.40925 12.3333 8.50131 12.3333H12.1664C12.2584 12.3333 12.333 12.2587 12.333 12.1667V9.79907C12.333 9.70707 12.2584 9.6324 12.1664 9.6324H8.50131Z" fill="#434A51"/>
</svg>
