<svg width="38" height="22" viewBox="0 0 38 22" fill="none" xmlns="http://www.w3.org/2000/svg">
<rect x="0.59375" y="2.59375" width="36.8125" height="15.4375" fill="#171818" stroke="#BDBFC4" stroke-width="1.1875"/>
<rect x="2.96875" y="5.09375" width="32.0625" height="10.6875" fill="#B9BBC0" stroke="#BDBFC4" stroke-width="1.1875"/>
<rect x="9.5" width="19" height="7.125" rx="2.375" fill="#747578"/>
<rect x="9.5" y="14.25" width="19" height="7.125" rx="2.375" fill="#747578"/>
<path d="M8.26418 7.28793C8.30323 7.18647 8.44677 7.18647 8.48582 7.28793L10.3697 12.1823C10.3996 12.2601 10.3422 12.3438 10.2589 12.3438H6.49114C6.40779 12.3438 6.35038 12.2601 6.38031 12.1823L8.26418 7.28793Z" fill="#19191A"/>
<path d="M15.2642 13.8371C15.3032 13.9385 15.4468 13.9385 15.4858 13.8371L17.3697 8.94266C17.3996 8.86487 17.3422 8.78125 17.2589 8.78125H13.4911C13.4078 8.78125 13.3504 8.86487 13.3803 8.94266L15.2642 13.8371Z" fill="#19191A"/>
<path d="M29.6392 13.8371C29.6782 13.9385 29.8218 13.9385 29.8608 13.8371L31.7447 8.94266C31.7746 8.86487 31.7172 8.78125 31.6339 8.78125H27.8661C27.7828 8.78125 27.7254 8.86487 27.7553 8.94266L29.6392 13.8371Z" fill="#19191A"/>
<path d="M22.5142 7.28793C22.5532 7.18647 22.6968 7.18647 22.7358 7.28793L24.6197 12.1823C24.6496 12.2601 24.5922 12.3438 24.5089 12.3438H20.7411C20.6578 12.3438 20.6004 12.2601 20.6303 12.1823L22.5142 7.28793Z" fill="#19191A"/>
<rect x="2" y="8" width="2.375" height="4.75" fill="#19191A"/>
<rect x="34.25" y="8" width="2.375" height="4.75" fill="#19191A"/>
</svg>
