<svg width="12" height="12" viewBox="0 0 12 12" fill="none" xmlns="http://www.w3.org/2000/svg">
<g clip-path="url(#clip0_350_10496)">
<path d="M10.8957 1.50626H4.11676C3.50785 1.50626 3.01245 2.00165 3.01245 2.61131C3.01245 3.22022 3.50785 3.71562 4.11676 3.71562H10.8956C11.5045 3.71562 11.9999 3.22022 11.9999 2.61131C12 2.00163 11.5046 1.50626 10.8957 1.50626Z" fill="#F7FAFE"/>
<path d="M1.1047 1.50626C0.495586 1.50626 0 2.00182 0 2.61094C0 3.22005 0.495586 3.71562 1.1047 3.71562C1.71382 3.71562 2.20938 3.22005 2.20938 2.61094C2.20938 2.00182 1.71382 1.50626 1.1047 1.50626Z" fill="#F7FAFE"/>
<path d="M1.1047 4.89532C0.495586 4.89532 0 5.39089 0 6C0 6.60912 0.495586 7.10468 1.1047 7.10468C1.71382 7.10468 2.20938 6.60912 2.20938 6C2.20938 5.39089 1.71382 4.89532 1.1047 4.89532Z" fill="#F7FAFE"/>
<path d="M1.1047 8.28439C0.495586 8.28439 0 8.77996 0 9.38907C0 9.99819 0.495586 10.4938 1.1047 10.4938C1.71382 10.4938 2.20938 9.99819 2.20938 9.38907C2.20938 8.77996 1.71382 8.28439 1.1047 8.28439Z" fill="#F7FAFE"/>
<path d="M10.8957 4.89532H4.11676C3.50785 4.89532 3.01245 5.39072 3.01245 6.00038C3.01245 6.60929 3.50785 7.10468 4.11676 7.10468H10.8956C11.5045 7.10468 11.9999 6.60929 11.9999 6.00038C12 5.3907 11.5046 4.89532 10.8957 4.89532Z" fill="#F7FAFE"/>
<path d="M10.8957 8.28439H4.11676C3.50785 8.28439 3.01245 8.77979 3.01245 9.38945C3.01245 9.99835 3.50785 10.4938 4.11676 10.4938H10.8956C11.5045 10.4938 11.9999 9.99835 11.9999 9.38945C12 8.77979 11.5046 8.28439 10.8957 8.28439Z" fill="#F7FAFE"/>
</g>
<defs>
<clipPath id="clip0_350_10496">
<rect width="12" height="12" fill="white"/>
</clipPath>
</defs>
</svg>
