<svg width="16" height="16" viewBox="0 0 16 16" fill="none" xmlns="http://www.w3.org/2000/svg">
<path d="M7.99967 8.66732C8.36786 8.66732 8.66634 8.36884 8.66634 8.00065C8.66634 7.63246 8.36786 7.33398 7.99967 7.33398C7.63148 7.33398 7.33301 7.63246 7.33301 8.00065C7.33301 8.36884 7.63148 8.66732 7.99967 8.66732Z" stroke="#434A51" stroke-width="1.2" stroke-linecap="round" stroke-linejoin="round"/>
<path d="M12.6667 8.66732C13.0349 8.66732 13.3333 8.36884 13.3333 8.00065C13.3333 7.63246 13.0349 7.33398 12.6667 7.33398C12.2985 7.33398 12 7.63246 12 8.00065C12 8.36884 12.2985 8.66732 12.6667 8.66732Z" stroke="#434A51" stroke-width="1.5" stroke-linecap="round" stroke-linejoin="round"/>
<path d="M3.33366 8.66732C3.70185 8.66732 4.00033 8.36884 4.00033 8.00065C4.00033 7.63246 3.70185 7.33398 3.33366 7.33398C2.96547 7.33398 2.66699 7.63246 2.66699 8.00065C2.66699 8.36884 2.96547 8.66732 3.33366 8.66732Z" stroke="#434A51" stroke-width="1.5" stroke-linecap="round" stroke-linejoin="round"/>
</svg>
