<svg width="17" height="16" viewBox="0 0 17 16" fill="none" xmlns="http://www.w3.org/2000/svg">
<g clip-path="url(#clip0_247_1536)">
<path d="M1.16669 2.66666V6.66666H5.16669" stroke="#2680EA" stroke-linecap="round" stroke-linejoin="round"/>
<path d="M2.84002 10C3.27228 11.2269 4.09158 12.2801 5.17446 13.0009C6.25734 13.7217 7.54514 14.0711 8.84383 13.9963C10.1425 13.9216 11.3817 13.4268 12.3748 12.5865C13.3678 11.7462 14.0609 10.606 14.3495 9.33758C14.6381 8.06917 14.5067 6.74131 13.9751 5.55407C13.4435 4.36684 12.5404 3.38454 11.4019 2.75518C10.2634 2.12583 8.95129 1.88352 7.66314 2.06475C6.37499 2.24599 5.18063 2.84095 4.26002 3.76001L1.16669 6.66667" stroke="#2680EA" stroke-linecap="round" stroke-linejoin="round"/>
</g>
<defs>
<clipPath id="clip0_247_1536">
<rect width="16" height="16" fill="white" transform="translate(0.5)"/>
</clipPath>
</defs>
</svg>
