<svg xmlns="http://www.w3.org/2000/svg" width="28" height="28" viewBox="0 0 28 28">
  <g id="Group_13320" data-name="Group 13320" transform="translate(-9936 -1408)">
    <circle id="Ellipse_116" data-name="Ellipse 116" cx="14" cy="14" r="14" transform="translate(9936 1408)" fill="#f5f5ff"/>
    <g id="Page-1" transform="translate(9942 1414.006)">
      <g id="_016---Team-Organisation" data-name="016---Team-Organisation" transform="translate(0 -0.007)">
        <g id="Cartoony" transform="translate(0.268 0.045)">
          <path id="Shape" d="M4.293,46.61v1.341a.538.538,0,0,1-.537.537H.537A.538.538,0,0,1,0,47.951V46.61A1.61,1.61,0,0,1,1.61,45H2.683A1.61,1.61,0,0,1,4.293,46.61Z" transform="translate(0 -32.799)" fill="#f1e0ff"/>
          <path id="Shape-2" data-name="Shape" d="M25.293,46.61v1.341a.538.538,0,0,1-.537.537H21.537A.538.538,0,0,1,21,47.951V46.61A1.61,1.61,0,0,1,22.61,45h1.073A1.61,1.61,0,0,1,25.293,46.61Z" transform="translate(-15.415 -32.799)" fill="#f1e0ff"/>
          <path id="Shape-3" data-name="Shape" d="M28.8,45H28a1.61,1.61,0,0,1,1.61,1.61v1.341a.538.538,0,0,1-.537.537h.8a.538.538,0,0,0,.537-.537V46.61A1.61,1.61,0,0,0,28.8,45Z" transform="translate(-20.544 -32.799)" fill="#dab0fd"/>
          <path id="Shape-4" data-name="Shape" d="M46.293,46.61v1.341a.538.538,0,0,1-.537.537H42.537A.538.538,0,0,1,42,47.951V46.61A1.61,1.61,0,0,1,43.61,45h1.073A1.61,1.61,0,0,1,46.293,46.61Z" transform="translate(-30.829 -32.799)" fill="#f1e0ff"/>
          <path id="Shape-5" data-name="Shape" d="M49.8,45H49a1.61,1.61,0,0,1,1.61,1.61v1.341a.538.538,0,0,1-.537.537h.8a.538.538,0,0,0,.537-.537V46.61A1.61,1.61,0,0,0,49.8,45Z" transform="translate(-35.951 -32.799)" fill="#dab0fd"/>
          <ellipse id="Oval" cx="1.412" cy="1.648" rx="1.412" ry="1.648" transform="translate(0.719 8.875)" fill="#f1e0ff"/>
          <path id="Shape-6" data-name="Shape" d="M6.9,33a1.605,1.605,0,0,0-.4.054,1.608,1.608,0,0,1,0,3.112A1.61,1.61,0,1,0,6.9,33Z" transform="translate(-4.756 -23.992)" fill="#dab0fd"/>
          <ellipse id="Oval-2" data-name="Oval" cx="1.412" cy="1.648" rx="1.412" ry="1.648" transform="translate(6.319 8.875)" fill="#f1e0ff"/>
          <path id="Shape-7" data-name="Shape" d="M27.9,33a1.605,1.605,0,0,0-.4.054,1.608,1.608,0,0,1,0,3.114A1.61,1.61,0,1,0,27.9,33Z" transform="translate(-20.175 -23.992)" fill="#dab0fd"/>
          <ellipse id="Oval-3" data-name="Oval" cx="1.412" cy="1.648" rx="1.412" ry="1.648" transform="translate(11.92 8.875)" fill="#f1e0ff"/>
          <path id="Shape-8" data-name="Shape" d="M48.9,33a1.605,1.605,0,0,0-.4.054,1.608,1.608,0,0,1,0,3.114A1.61,1.61,0,1,0,48.9,33Z" transform="translate(-35.585 -23.992)" fill="#dab0fd"/>
          <ellipse id="Oval-4" data-name="Oval" cx="1.412" cy="1.648" rx="1.412" ry="1.648" transform="translate(6.319 0)" fill="#f1e0ff"/>
          <path id="Shape-9" data-name="Shape" d="M27.9,0a1.605,1.605,0,0,0-.4.054,1.608,1.608,0,0,1,0,3.114A1.61,1.61,0,1,0,27.9,0Z" transform="translate(-20.175 0.225)" fill="#dab0fd"/>
          <path id="Shape-10" data-name="Shape" d="M25.293,13.61v1.341a.538.538,0,0,1-.537.537H21.537A.538.538,0,0,1,21,14.951V13.61A1.61,1.61,0,0,1,22.61,12h1.073A1.61,1.61,0,0,1,25.293,13.61Z" transform="translate(-15.415 -8.583)" fill="#f1e0ff"/>
          <path id="Shape-11" data-name="Shape" d="M28.8,12H28a1.61,1.61,0,0,1,1.61,1.61v1.341a.538.538,0,0,1-.537.537h.8a.538.538,0,0,0,.537-.537V13.61A1.61,1.61,0,0,0,28.8,12Z" transform="translate(-20.544 -8.583)" fill="#dab0fd"/>
          <path id="Shape-12" data-name="Shape" d="M4.293,46.61v1.341a.538.538,0,0,1-.537.537H.537A.538.538,0,0,1,0,47.951V46.61A1.61,1.61,0,0,1,1.61,45H2.683A1.61,1.61,0,0,1,4.293,46.61Z" transform="translate(0 -32.799)" fill="#f1e0ff"/>
          <path id="Shape-13" data-name="Shape" d="M7.8,45H7a1.61,1.61,0,0,1,1.61,1.61v1.341a.538.538,0,0,1-.537.537h.8a.538.538,0,0,0,.537-.537V46.61A1.61,1.61,0,0,0,7.8,45Z" transform="translate(-5.122 -32.799)" fill="#dab0fd"/>
        </g>
        <g id="Cartoony_copy" transform="translate(0.268 0.271)">
          <path id="Shape-14" data-name="Shape" d="M.537,48.488h.8A.538.538,0,0,1,.8,47.951V46.61A1.61,1.61,0,0,1,2.415,45h-.8A1.61,1.61,0,0,0,0,46.61v1.341A.538.538,0,0,0,.537,48.488Z" transform="translate(0 -33.025)" fill="#fff"/>
          <path id="Shape-15" data-name="Shape" d="M2.814,34.612a1.61,1.61,0,0,1,1.207-1.556,1.529,1.529,0,0,0-.6-.039l-.02,0a1.608,1.608,0,0,0,0,3.185l.02,0a1.529,1.529,0,0,0,.6-.039,1.61,1.61,0,0,1-1.207-1.556Z" transform="translate(-1.473 -24.219)" fill="#fff"/>
          <path id="Shape-16" data-name="Shape" d="M23.806,1.612A1.61,1.61,0,0,1,25.013.056a1.529,1.529,0,0,0-.6-.039l-.02,0a1.608,1.608,0,0,0-.184,3.15,1.6,1.6,0,0,0,.184.036l.02,0a1.529,1.529,0,0,0,.6-.041,1.61,1.61,0,0,1-1.207-1.556Z" transform="translate(-16.83 -0.003)" fill="#fff"/>
          <path id="Shape-17" data-name="Shape" d="M22.61,12A1.61,1.61,0,0,0,21,13.61v1.341a.538.538,0,0,0,.537.537h.8a.538.538,0,0,1-.537-.537V13.61A1.61,1.61,0,0,1,23.415,12Z" transform="translate(-15.366 -8.807)" fill="#fff"/>
        </g>
        <g id="Icons">
          <path id="Rectangle-path" d="M11,30h2.146v.537H11Z" transform="translate(-8.069 -22.266)" fill="#fff"/>
          <g id="Group_13319" data-name="Group 13319">
            <path id="Shape-18" data-name="Shape" d="M.8,38.317H4.024a.8.8,0,0,0,.8-.8V36.171A1.88,1.88,0,0,0,3.6,34.409a1.875,1.875,0,0,0-.912-3.314V30.8a.268.268,0,0,1,.268-.268.268.268,0,1,0,0-.537.8.8,0,0,0-.8.8v.29a1.875,1.875,0,0,0-.912,3.314A1.88,1.88,0,0,0,0,36.171v1.341a.8.8,0,0,0,.8.8Zm.268-5.366a1.341,1.341,0,1,1,1.341,1.341A1.341,1.341,0,0,1,1.073,32.951ZM.537,36.171a1.343,1.343,0,0,1,1.341-1.341H2.951a1.343,1.343,0,0,1,1.341,1.341v1.341a.268.268,0,0,1-.537,0V36.171a.268.268,0,0,0-.537,0v1.341a.8.8,0,0,0,.049.268H1.56a.8.8,0,0,0,.049-.268V36.171a.268.268,0,0,0-.537,0v1.341a.268.268,0,0,1-.537,0Z" transform="translate(0 -22.315)" fill="#8f59bc"/>
            <path id="Shape-19" data-name="Shape" d="M27.947,13.111a1.865,1.865,0,0,0-.9-3.294V9.528a.8.8,0,0,0-.8-.8H21.458V8.195h1.33a.8.8,0,0,0,.8-.8V6.062a1.868,1.868,0,0,0-1.223-1.751,1.863,1.863,0,1,0-2.343,0A1.868,1.868,0,0,0,18.8,6.062V7.395a.8.8,0,0,0,.8.8h1.33v.533h-2.66a.267.267,0,0,0,0,.533h2.66v.555a1.865,1.865,0,0,0-.9,3.294A1.868,1.868,0,0,0,18.8,14.862v1.333a.8.8,0,0,0,.8.8h3.192a.8.8,0,0,0,.8-.8V14.862a1.868,1.868,0,0,0-1.223-1.751,1.865,1.865,0,0,0-.9-3.294V9.262h4.787a.266.266,0,0,1,.266.267v.288a1.865,1.865,0,0,0-.9,3.294,1.868,1.868,0,0,0-1.223,1.751v1.333a.8.8,0,0,0,.8.8h3.192a.8.8,0,0,0,.8-.8V14.862a1.868,1.868,0,0,0-1.223-1.751ZM19.862,2.862a1.33,1.33,0,1,1,1.33,1.333A1.332,1.332,0,0,1,19.862,2.862Zm-.532,3.2a1.333,1.333,0,0,1,1.33-1.333h1.064a1.333,1.333,0,0,1,1.33,1.333V7.395a.266.266,0,1,1-.532,0V6.062a.266.266,0,1,0-.532,0V7.395a.793.793,0,0,0,.049.267H20.345a.793.793,0,0,0,.049-.267V6.062a.266.266,0,1,0-.532,0V7.395a.266.266,0,1,1-.532,0Zm2.394,7.467a1.333,1.333,0,0,1,1.33,1.333v1.333a.266.266,0,1,1-.532,0V14.862a.266.266,0,1,0-.532,0v1.333a.793.793,0,0,0,.049.267H20.345a.793.793,0,0,0,.049-.267V14.862a.266.266,0,1,0-.532,0v1.333a.266.266,0,1,1-.532,0V14.862a1.333,1.333,0,0,1,1.33-1.333Zm.8-1.867a1.33,1.33,0,1,1-1.33-1.333A1.332,1.332,0,0,1,22.522,11.662Zm2.926,0a1.33,1.33,0,1,1,1.33,1.333A1.332,1.332,0,0,1,25.447,11.662Zm3.192,4.533a.266.266,0,1,1-.532,0V14.862a.266.266,0,1,0-.532,0v1.333a.793.793,0,0,0,.049.267H25.93a.793.793,0,0,0,.049-.267V14.862a.266.266,0,1,0-.532,0v1.333a.266.266,0,1,1-.532,0V14.862a1.333,1.333,0,0,1,1.33-1.333h1.064a1.333,1.333,0,0,1,1.33,1.333Z" transform="translate(-13.171 -0.993)" fill="#8f59bc"/>
            <ellipse id="Oval-5" data-name="Oval" cx="0.235" cy="0.471" rx="0.235" ry="0.471" transform="translate(3.788 7.529)" fill="#8f59bc"/>
          </g>
        </g>
      </g>
    </g>
  </g>
</svg>
