<svg width="1705" height="256" viewBox="0 0 1705 256" fill="none" xmlns="http://www.w3.org/2000/svg">
<circle cx="968.286" cy="108.652" r="9.587" fill="#131313"/>
<circle cx="990.655" cy="108.652" r="9.587" fill="#131313"/>
<circle cx="1013.02" cy="108.652" r="9.587" fill="#131313"/>
<circle cx="1035.39" cy="108.652" r="9.587" fill="#131313"/>
<circle cx="1057.76" cy="108.652" r="9.587" fill="#131313"/>
<circle cx="1080.13" cy="108.652" r="9.587" fill="#131313"/>
<circle cx="1102.5" cy="108.652" r="9.587" fill="#131313"/>
<circle cx="1124.87" cy="108.652" r="9.587" fill="#131313"/>
<circle cx="1147.24" cy="108.652" r="9.587" fill="#131313"/>
<circle cx="1169.61" cy="108.652" r="9.587" fill="#131313"/>
<circle cx="1191.98" cy="108.652" r="9.587" fill="#131313"/>
<circle cx="1214.35" cy="108.652" r="9.587" fill="#131313"/>
<circle cx="945.918" cy="131.023" r="9.587" fill="#131313"/>
<circle cx="968.287" cy="131.023" r="9.587" fill="#131313"/>
<circle cx="990.657" cy="131.023" r="9.587" fill="#131313"/>
<circle cx="1013.03" cy="131.023" r="9.587" fill="#131313"/>
<circle cx="1035.4" cy="131.023" r="9.587" fill="#131313"/>
<circle cx="1057.77" cy="131.023" r="9.587" fill="#131313"/>
<circle cx="1080.14" cy="131.023" r="9.587" fill="#131313"/>
<circle cx="1102.51" cy="131.023" r="9.587" fill="#131313"/>
<circle cx="1124.87" cy="131.023" r="9.587" fill="#131313"/>
<circle cx="1147.24" cy="131.023" r="9.587" fill="#131313"/>
<circle cx="1169.61" cy="131.023" r="9.587" fill="#131313"/>
<circle cx="1191.98" cy="131.023" r="9.587" fill="#131313"/>
<circle cx="923.546" cy="153.391" r="9.587" fill="#131313"/>
<circle cx="945.916" cy="153.391" r="9.587" fill="#131313"/>
<circle cx="968.286" cy="153.391" r="9.587" fill="#131313"/>
<circle cx="990.655" cy="153.391" r="9.587" fill="#131313"/>
<circle cx="1013.02" cy="153.391" r="9.587" fill="#131313"/>
<circle cx="1035.39" cy="153.391" r="9.587" fill="#131313"/>
<circle cx="1057.76" cy="153.391" r="9.587" fill="#131313"/>
<circle cx="1080.13" cy="153.391" r="9.587" fill="#131313"/>
<circle cx="1102.5" cy="153.391" r="9.587" fill="#131313"/>
<circle cx="1124.87" cy="153.391" r="9.587" fill="#131313"/>
<circle cx="1147.24" cy="153.391" r="9.587" fill="#131313"/>
<circle cx="1169.61" cy="153.391" r="9.587" fill="#131313"/>
<path d="M6.55693 61.747V65.1299H5.50836V56.1796H7.96752C8.92456 56.1796 9.66522 56.4126 10.1895 56.8786C10.718 57.3447 10.9822 58.0021 10.9822 58.851C10.9822 59.6998 10.6888 60.3947 10.1021 60.9356C9.51958 61.4766 8.73107 61.747 7.73658 61.747H6.55693ZM6.55693 57.1283V60.7983H7.65544C8.37946 60.7983 8.9308 60.634 9.30945 60.3052C9.69227 59.9724 9.88367 59.5042 9.88367 58.9009C9.88367 57.7192 9.18462 57.1283 7.78652 57.1283H6.55693ZM23.2842 56.1796L20.7564 65.1299H19.5268L17.6856 58.5888C17.6065 58.31 17.5587 58.0063 17.542 57.6776H17.5171C17.4921 57.9855 17.438 58.2851 17.3548 58.5763L15.5011 65.1299H14.284L11.6625 56.1796H12.8172L14.7209 63.0453C14.7999 63.3324 14.8499 63.632 14.8707 63.9441H14.9019C14.9227 63.7235 14.9872 63.4239 15.0954 63.0453L17.0739 56.1796H18.0788L19.9762 63.0952C20.0428 63.3324 20.0927 63.6112 20.126 63.9316H20.151C20.1676 63.7152 20.2238 63.4281 20.3195 63.0702L22.1483 56.1796H23.2842ZM31.0362 65.1299H29.7879L28.29 62.6209C28.1526 62.3878 28.0195 62.1902 27.8905 62.0279C27.7615 61.8615 27.6284 61.7262 27.491 61.6222C27.3579 61.5182 27.2123 61.4433 27.0541 61.3975C26.9002 61.3476 26.7254 61.3226 26.5298 61.3226H25.6685V65.1299H24.6199V56.1796H27.2913C27.6824 56.1796 28.0424 56.2295 28.3711 56.3294C28.704 56.4251 28.9911 56.5728 29.2324 56.7725C29.4779 56.9723 29.6693 57.2219 29.8066 57.5215C29.944 57.817 30.0126 58.1644 30.0126 58.5639C30.0126 58.8759 29.9648 59.163 29.8691 59.4252C29.7775 59.6832 29.6444 59.9141 29.4696 60.118C29.299 60.3219 29.091 60.4966 28.8455 60.6423C28.6041 60.7838 28.3316 60.894 28.0278 60.9731V60.9981C28.1776 61.0646 28.3066 61.1416 28.4148 61.229C28.5271 61.3122 28.6332 61.4121 28.7331 61.5286C28.833 61.6451 28.9308 61.7782 29.0265 61.928C29.1263 62.0737 29.2366 62.2443 29.3573 62.4398L31.0362 65.1299ZM25.6685 57.1283V60.3739H27.0916C27.3537 60.3739 27.5951 60.3344 27.8156 60.2553C28.0403 60.1763 28.2338 60.0639 28.3961 59.9183C28.5583 59.7685 28.6853 59.5875 28.7768 59.3753C28.8683 59.1589 28.9141 58.9175 28.9141 58.6512C28.9141 58.1727 28.7581 57.8003 28.446 57.534C28.1381 57.2635 27.6908 57.1283 27.1041 57.1283H25.6685Z" fill="black"/>
<circle cx="56.9452" cy="59.6299" r="7.98916" fill="#131313"/>
<path d="M5.14853 84.9636V83.7278C5.29 83.8526 5.45852 83.965 5.65409 84.0648C5.85382 84.1647 6.06187 84.25 6.27824 84.3207C6.49878 84.3873 6.71931 84.4393 6.93985 84.4768C7.16038 84.5142 7.36427 84.5329 7.55152 84.5329C8.19647 84.5329 8.67707 84.4143 8.99331 84.1772C9.31371 83.9358 9.47391 83.5905 9.47391 83.1411C9.47391 82.8997 9.41982 82.6896 9.31163 82.5107C9.2076 82.3318 9.06197 82.1695 8.87472 82.0238C8.68748 81.874 8.46486 81.7326 8.20688 81.5994C7.95305 81.4621 7.67843 81.3185 7.38299 81.1688C7.07092 81.0106 6.77965 80.8504 6.50918 80.6882C6.23871 80.5259 6.00362 80.3469 5.80389 80.1514C5.60416 79.9558 5.44604 79.7353 5.32953 79.4898C5.21718 79.2401 5.16101 78.9488 5.16101 78.616C5.16101 78.2082 5.25047 77.8545 5.42939 77.5549C5.60832 77.2511 5.84342 77.0015 6.13469 76.8059C6.42596 76.6104 6.75676 76.4647 7.12709 76.369C7.50158 76.2733 7.88232 76.2255 8.26929 76.2255C9.15143 76.2255 9.79431 76.3316 10.1979 76.5438V77.7234C9.66948 77.3573 8.99123 77.1742 8.16319 77.1742C7.93433 77.1742 7.70547 77.1991 7.47662 77.2491C7.24776 77.2948 7.04387 77.3718 6.86495 77.48C6.68602 77.5882 6.54039 77.7276 6.42804 77.8982C6.31569 78.0688 6.25952 78.2768 6.25952 78.5223C6.25952 78.7512 6.30113 78.9488 6.38435 79.1153C6.47173 79.2817 6.59864 79.4336 6.76508 79.5709C6.93152 79.7082 7.13333 79.8414 7.37051 79.9704C7.61185 80.0994 7.88856 80.2408 8.20064 80.3948C8.52103 80.5529 8.82479 80.7194 9.1119 80.8941C9.39901 81.0689 9.65075 81.2624 9.86713 81.4746C10.0835 81.6868 10.2541 81.9219 10.3789 82.1799C10.5079 82.4379 10.5724 82.7333 10.5724 83.0662C10.5724 83.5072 10.485 83.8817 10.3103 84.1897C10.1397 84.4934 9.90666 84.741 9.61122 84.9324C9.31995 85.1238 8.98291 85.2611 8.60009 85.3443C8.21728 85.4317 7.81366 85.4754 7.38924 85.4754C7.24776 85.4754 7.073 85.4629 6.86495 85.438C6.6569 85.4172 6.44468 85.3839 6.22831 85.3381C6.01194 85.2965 5.80597 85.2445 5.6104 85.1821C5.41899 85.1155 5.26503 85.0427 5.14853 84.9636ZM18.1746 76.3753L15.2224 82.0176V85.3256H14.1738V82.0426L11.2964 76.3753H12.4886L14.4921 80.4198C14.5171 80.4697 14.5899 80.6528 14.7106 80.969H14.7293C14.7709 80.8275 14.8499 80.6445 14.9665 80.4198L17.0636 76.3753H18.1746ZM19.0047 84.9636V83.7278C19.1462 83.8526 19.3147 83.965 19.5103 84.0648C19.71 84.1647 19.9181 84.25 20.1344 84.3207C20.355 84.3873 20.5755 84.4393 20.7961 84.4768C21.0166 84.5142 21.2205 84.5329 21.4077 84.5329C22.0527 84.5329 22.5333 84.4143 22.8495 84.1772C23.1699 83.9358 23.3301 83.5905 23.3301 83.1411C23.3301 82.8997 23.276 82.6896 23.1678 82.5107C23.0638 82.3318 22.9182 82.1695 22.7309 82.0238C22.5437 81.874 22.3211 81.7326 22.0631 81.5994C21.8093 81.4621 21.5346 81.3185 21.2392 81.1688C20.9271 81.0106 20.6359 80.8504 20.3654 80.6882C20.0949 80.5259 19.8598 80.3469 19.6601 80.1514C19.4604 79.9558 19.3022 79.7353 19.1857 79.4898C19.0734 79.2401 19.0172 78.9488 19.0172 78.616C19.0172 78.2082 19.1067 77.8545 19.2856 77.5549C19.4645 77.2511 19.6996 77.0015 19.9909 76.8059C20.2822 76.6104 20.613 76.4647 20.9833 76.369C21.3578 76.2733 21.7385 76.2255 22.1255 76.2255C23.0076 76.2255 23.6505 76.3316 24.0541 76.5438V77.7234C23.5257 77.3573 22.8474 77.1742 22.0194 77.1742C21.7905 77.1742 21.5617 77.1991 21.3328 77.2491C21.104 77.2948 20.9001 77.3718 20.7212 77.48C20.5422 77.5882 20.3966 77.7276 20.2842 77.8982C20.1719 78.0688 20.1157 78.2768 20.1157 78.5223C20.1157 78.7512 20.1573 78.9488 20.2406 79.1153C20.3279 79.2817 20.4548 79.4336 20.6213 79.5709C20.7877 79.7082 20.9895 79.8414 21.2267 79.9704C21.4681 80.0994 21.7448 80.2408 22.0568 80.3948C22.3772 80.5529 22.681 80.7194 22.9681 80.8941C23.2552 81.0689 23.507 81.2624 23.7233 81.4746C23.9397 81.6868 24.1103 81.9219 24.2351 82.1799C24.3641 82.4379 24.4286 82.7333 24.4286 83.0662C24.4286 83.5072 24.3412 83.8817 24.1665 84.1897C23.9959 84.4934 23.7629 84.741 23.4674 84.9324C23.1762 85.1238 22.8391 85.2611 22.4563 85.3443C22.0735 85.4317 21.6699 85.4754 21.2454 85.4754C21.104 85.4754 20.9292 85.4629 20.7212 85.438C20.5131 85.4172 20.3009 85.3839 20.0845 85.3381C19.8681 85.2965 19.6622 85.2445 19.4666 85.1821C19.2752 85.1155 19.1212 85.0427 19.0047 84.9636Z" fill="black"/>
<circle cx="56.9452" cy="79.8256" r="7.98916" fill="#131313"/>
<path d="M11.9844 101.901C11.9844 104.414 10.8505 105.671 8.58272 105.671C6.41067 105.671 5.32464 104.462 5.32464 102.045V96.5709H6.37322V101.976C6.37322 103.811 7.14717 104.729 8.69507 104.729C10.1889 104.729 10.9358 103.842 10.9358 102.07V96.5709H11.9844V101.901ZM13.8069 105.159V103.923C13.9484 104.048 14.1169 104.161 14.3125 104.26C14.5122 104.36 14.7202 104.446 14.9366 104.516C15.1571 104.583 15.3777 104.635 15.5982 104.672C15.8187 104.71 16.0226 104.729 16.2099 104.729C16.8548 104.729 17.3354 104.61 17.6517 104.373C17.9721 104.131 18.1323 103.786 18.1323 103.337C18.1323 103.095 18.0782 102.885 17.97 102.706C17.866 102.527 17.7203 102.365 17.5331 102.22C17.3458 102.07 17.1232 101.928 16.8652 101.795C16.6114 101.658 16.3368 101.514 16.0414 101.364C15.7293 101.206 15.438 101.046 15.1675 100.884C14.8971 100.722 14.662 100.543 14.4622 100.347C14.2625 100.151 14.1044 99.9309 13.9879 99.6854C13.8755 99.4358 13.8194 99.1445 13.8194 98.8116C13.8194 98.4038 13.9088 98.0502 14.0878 97.7506C14.2667 97.4468 14.5018 97.1972 14.7931 97.0016C15.0843 96.806 15.4151 96.6604 15.7855 96.5647C16.1599 96.469 16.5407 96.4211 16.9277 96.4211C17.8098 96.4211 18.4527 96.5272 18.8563 96.7394V97.9191C18.3278 97.5529 17.6496 97.3698 16.8215 97.3698C16.5927 97.3698 16.3638 97.3948 16.135 97.4447C15.9061 97.4905 15.7022 97.5675 15.5233 97.6757C15.3444 97.7839 15.1988 97.9233 15.0864 98.0939C14.9741 98.2645 14.9179 98.4725 14.9179 98.718C14.9179 98.9469 14.9595 99.1445 15.0427 99.311C15.1301 99.4774 15.257 99.6293 15.4234 99.7666C15.5899 99.9039 15.7917 100.037 16.0289 100.166C16.2702 100.295 16.5469 100.437 16.859 100.59C17.1794 100.749 17.4832 100.915 17.7703 101.09C18.0574 101.265 18.3091 101.458 18.5255 101.67C18.7419 101.882 18.9125 102.118 19.0373 102.376C19.1663 102.634 19.2308 102.929 19.2308 103.262C19.2308 103.703 19.1434 104.077 18.9686 104.385C18.798 104.689 18.565 104.937 18.2696 105.128C17.9783 105.319 17.6413 105.457 17.2585 105.54C16.8756 105.627 16.472 105.671 16.0476 105.671C15.9061 105.671 15.7314 105.659 15.5233 105.634C15.3153 105.613 15.103 105.58 14.8867 105.534C14.6703 105.492 14.4643 105.44 14.2688 105.378C14.0774 105.311 13.9234 105.238 13.8069 105.159ZM21.0159 105.521V96.5709H23.5624C24.3364 96.5709 24.9501 96.7602 25.4037 97.1389C25.8572 97.5176 26.084 98.0106 26.084 98.6181C26.084 99.1258 25.9467 99.5669 25.672 99.9413C25.3974 100.316 25.0188 100.582 24.5361 100.74V100.765C25.1394 100.836 25.6221 101.065 25.9841 101.452C26.3461 101.835 26.5271 102.334 26.5271 102.95C26.5271 103.715 26.2525 104.335 25.7033 104.81C25.154 105.284 24.4612 105.521 23.6248 105.521H21.0159ZM22.0644 97.5196V100.409H23.138C23.7122 100.409 24.1637 100.272 24.4924 99.9975C24.8211 99.7187 24.9855 99.3276 24.9855 98.8241C24.9855 97.9545 24.4133 97.5196 23.2691 97.5196H22.0644ZM22.0644 101.352V104.573H23.4875C24.1033 104.573 24.5798 104.427 24.9168 104.136C25.258 103.844 25.4286 103.445 25.4286 102.937C25.4286 101.88 24.7088 101.352 23.2691 101.352H22.0644Z" fill="black"/>
<circle cx="56.9452" cy="100.021" r="7.98916" fill="#131313"/>
<path d="M12.4553 125.717H11.4068V121.635H6.77553V125.717H5.72696V116.767H6.77553V120.693H11.4068V116.767H12.4553V125.717ZM21.7302 125.717H20.5693L19.6206 123.208H15.8258L14.9332 125.717H13.7661L17.1989 116.767H18.2849L21.7302 125.717ZM19.2773 122.265L17.873 118.452C17.8272 118.327 17.7814 118.127 17.7357 117.853H17.7107C17.6691 118.106 17.6212 118.306 17.5671 118.452L16.1753 122.265H19.2773Z" fill="black"/>
<circle cx="56.9452" cy="120.217" r="7.98916" fill="#131313"/>
<path d="M16.3707 136.962L13.8428 145.913H12.6133L10.772 139.371C10.6929 139.093 10.6451 138.789 10.6284 138.46H10.6035C10.5785 138.768 10.5244 139.068 10.4412 139.359L8.58746 145.913H7.37037L4.74892 136.962H5.9036L7.80727 143.828C7.88633 144.115 7.93626 144.415 7.95707 144.727H7.98828C8.00908 144.506 8.07358 144.207 8.18176 143.828L10.1603 136.962H11.1652L13.0626 143.878C13.1292 144.115 13.1792 144.394 13.2124 144.714H13.2374C13.2541 144.498 13.3102 144.211 13.4059 143.853L15.2347 136.962H16.3707ZM24.1351 145.913H22.9742L22.0255 143.404H18.2306L17.3381 145.913H16.1709L19.6038 136.962H20.6898L24.1351 145.913ZM21.6822 142.461L20.2779 138.647C20.2321 138.523 20.1863 138.323 20.1405 138.048H20.1156C20.074 138.302 20.0261 138.502 19.972 138.647L18.5802 142.461H21.6822ZM32.6735 145.913H31.3878L26.7815 138.779C26.665 138.6 26.5693 138.412 26.4944 138.217H26.457C26.4903 138.408 26.5069 138.818 26.5069 139.446V145.913H25.4583V136.962H26.819L31.3004 143.984C31.4877 144.275 31.6083 144.475 31.6624 144.583H31.6874C31.6458 144.325 31.625 143.886 31.625 143.266V136.962H32.6735V145.913Z" fill="black"/>
<circle cx="56.9452" cy="140.413" r="7.98916" fill="#131313"/>
<path d="M11.5409 165.734C10.8793 166.083 10.0554 166.258 9.06927 166.258C7.796 166.258 6.77655 165.848 6.01092 165.028C5.24529 164.209 4.86248 163.133 4.86248 161.802C4.86248 160.37 5.29314 159.213 6.15447 158.331C7.01581 157.449 8.10807 157.008 9.43128 157.008C10.2801 157.008 10.9833 157.131 11.5409 157.376V158.494C10.9001 158.136 10.1927 157.957 9.4188 157.957C8.39102 157.957 7.55674 158.3 6.91594 158.987C6.2793 159.673 5.96099 160.591 5.96099 161.739C5.96099 162.829 6.2585 163.699 6.85353 164.348C7.45271 164.993 8.23707 165.316 9.20658 165.316C10.1054 165.316 10.8835 165.116 11.5409 164.716V165.734ZM18.0071 166.108H13.3634V157.158H14.412V165.16H18.0071V166.108ZM22.551 166.258C21.2819 166.258 20.2645 165.84 19.4989 165.004C18.7374 164.167 18.3567 163.079 18.3567 161.739C18.3567 160.299 18.7457 159.151 19.5238 158.294C20.302 157.437 21.3609 157.008 22.7008 157.008C23.9366 157.008 24.9311 157.424 25.6842 158.256C26.4415 159.089 26.8202 160.177 26.8202 161.521C26.8202 162.981 26.4332 164.136 25.6593 164.985C24.8853 165.834 23.8492 166.258 22.551 166.258ZM22.6259 157.957C21.6855 157.957 20.9219 158.296 20.3352 158.974C19.7485 159.652 19.4552 160.543 19.4552 161.646C19.4552 162.748 19.7402 163.637 20.3103 164.311C20.8845 164.981 21.6314 165.316 22.551 165.316C23.533 165.316 24.3069 164.995 24.8728 164.354C25.4387 163.714 25.7217 162.817 25.7217 161.664C25.7217 160.483 25.4471 159.569 24.8978 158.924C24.3485 158.279 23.5912 157.957 22.6259 157.957ZM35.1277 162.488C35.1277 165.001 33.9938 166.258 31.726 166.258C29.554 166.258 28.468 165.049 28.468 162.632V157.158H29.5165V162.563C29.5165 164.398 30.2905 165.316 31.8384 165.316C33.3322 165.316 34.0791 164.429 34.0791 162.657V157.158H35.1277V162.488ZM37.3684 166.108V157.158H39.84C42.9941 157.158 44.5711 158.612 44.5711 161.521C44.5711 162.902 44.1321 164.013 43.2542 164.854C42.3803 165.69 41.209 166.108 39.7402 166.108H37.3684ZM38.417 158.107V165.16H39.7527C40.9261 165.16 41.8394 164.845 42.4927 164.217C43.146 163.589 43.4726 162.698 43.4726 161.546C43.4726 159.253 42.2534 158.107 39.8151 158.107H38.417Z" fill="black"/>
<circle cx="56.9452" cy="160.608" r="7.98916" fill="#131313"/>
<path d="M12.2333 202.544H10.985L9.48707 200.035C9.34976 199.802 9.2166 199.605 9.08761 199.442C8.95862 199.276 8.82547 199.141 8.68815 199.037C8.555 198.933 8.40936 198.858 8.25125 198.812C8.09729 198.762 7.92252 198.737 7.72696 198.737H6.86562V202.544H5.81705V193.594H8.48842C8.87956 193.594 9.23949 193.644 9.56821 193.744C9.90109 193.84 10.1882 193.987 10.4295 194.187C10.675 194.387 10.8664 194.636 11.0038 194.936C11.1411 195.231 11.2097 195.579 11.2097 195.978C11.2097 196.29 11.1619 196.577 11.0662 196.84C10.9746 197.098 10.8415 197.329 10.6667 197.532C10.4961 197.736 10.2881 197.911 10.0426 198.057C9.80123 198.198 9.52868 198.308 9.22492 198.388V198.412C9.37472 198.479 9.50371 198.556 9.6119 198.643C9.72425 198.727 9.83035 198.827 9.93022 198.943C10.0301 199.06 10.1279 199.193 10.2236 199.342C10.3234 199.488 10.4337 199.659 10.5544 199.854L12.2333 202.544ZM6.86562 194.543V197.788H8.28869C8.55084 197.788 8.79218 197.749 9.01271 197.67C9.23741 197.591 9.4309 197.478 9.59317 197.333C9.75545 197.183 9.88237 197.002 9.97391 196.79C10.0655 196.573 10.1112 196.332 10.1112 196.066C10.1112 195.587 9.95518 195.215 9.64311 194.948C9.33519 194.678 8.88788 194.543 8.30118 194.543H6.86562ZM13.051 202.182V200.947C13.1925 201.071 13.361 201.184 13.5565 201.284C13.7563 201.383 13.9643 201.469 14.1807 201.54C14.4012 201.606 14.6218 201.658 14.8423 201.696C15.0628 201.733 15.2667 201.752 15.454 201.752C16.0989 201.752 16.5795 201.633 16.8958 201.396C17.2162 201.155 17.3764 200.809 17.3764 200.36C17.3764 200.119 17.3223 199.908 17.2141 199.729C17.1101 199.551 16.9644 199.388 16.7772 199.243C16.5899 199.093 16.3673 198.951 16.1093 198.818C15.8555 198.681 15.5809 198.537 15.2855 198.388C14.9734 198.229 14.6821 198.069 14.4116 197.907C14.1412 197.745 13.9061 197.566 13.7063 197.37C13.5066 197.175 13.3485 196.954 13.232 196.709C13.1196 196.459 13.0635 196.168 13.0635 195.835C13.0635 195.427 13.1529 195.073 13.3319 194.774C13.5108 194.47 13.7459 194.22 14.0371 194.025C14.3284 193.829 14.6592 193.683 15.0296 193.588C15.404 193.492 15.7848 193.444 16.1718 193.444C17.0539 193.444 17.6968 193.55 18.1004 193.763V194.942C17.5719 194.576 16.8937 194.393 16.0656 194.393C15.8368 194.393 15.6079 194.418 15.3791 194.468C15.1502 194.514 14.9463 194.591 14.7674 194.699C14.5885 194.807 14.4428 194.946 14.3305 195.117C14.2182 195.288 14.162 195.496 14.162 195.741C14.162 195.97 14.2036 196.168 14.2868 196.334C14.3742 196.501 14.5011 196.652 14.6675 196.79C14.834 196.927 15.0358 197.06 15.273 197.189C15.5143 197.318 15.791 197.46 16.1031 197.614C16.4235 197.772 16.7272 197.938 17.0144 198.113C17.3015 198.288 17.5532 198.481 17.7696 198.693C17.986 198.906 18.1566 199.141 18.2814 199.399C18.4104 199.657 18.4749 199.952 18.4749 200.285C18.4749 200.726 18.3875 201.101 18.2127 201.408C18.0421 201.712 17.8091 201.96 17.5137 202.151C17.2224 202.343 16.8854 202.48 16.5026 202.563C16.1197 202.65 15.7161 202.694 15.2917 202.694C15.1502 202.694 14.9755 202.682 14.7674 202.657C14.5594 202.636 14.3471 202.603 14.1308 202.557C13.9144 202.515 13.7084 202.463 13.5129 202.401C13.3215 202.334 13.1675 202.261 13.051 202.182ZM25.5528 194.543H22.9688V202.544H21.9202V194.543H19.3425V193.594H25.5528V194.543Z" fill="black"/>
<circle cx="56.9452" cy="197.044" r="7.98916" fill="black"/>
<circle cx="210.914" cy="57.5217" r="9.587" fill="#131313"/>
<circle cx="210.914" cy="76.6958" r="9.587" fill="#131313"/>
<circle cx="255.653" cy="57.5217" r="9.587" fill="#131313"/>
<circle cx="255.653" cy="76.6958" r="9.587" fill="#131313"/>
<circle cx="233.283" cy="57.5217" r="9.587" fill="#131313"/>
<circle cx="233.283" cy="76.6958" r="9.587" fill="#131313"/>
<circle cx="278.023" cy="57.5217" r="9.587" fill="#131313"/>
<circle cx="278.023" cy="76.6958" r="9.587" fill="#131313"/>
<circle cx="300.392" cy="57.5217" r="9.587" fill="#131313"/>
<circle cx="300.392" cy="76.6958" r="9.587" fill="#131313"/>
<circle cx="210.914" cy="95.8696" r="9.587" fill="#131313"/>
<circle cx="210.914" cy="115.044" r="9.587" fill="#131313"/>
<circle cx="255.653" cy="95.8696" r="9.587" fill="#131313"/>
<circle cx="255.653" cy="115.044" r="9.587" fill="#131313"/>
<circle cx="233.283" cy="95.8696" r="9.587" fill="#131313"/>
<circle cx="233.283" cy="115.044" r="9.587" fill="#131313"/>
<circle cx="278.023" cy="95.8696" r="9.587" fill="#131313"/>
<circle cx="278.023" cy="115.044" r="9.587" fill="#131313"/>
<circle cx="300.392" cy="95.8696" r="9.587" fill="#131313"/>
<circle cx="300.392" cy="115.044" r="9.587" fill="#131313"/>
<circle cx="210.914" cy="134.218" r="9.587" fill="#131313"/>
<circle cx="210.914" cy="153.393" r="9.587" fill="#131313"/>
<circle cx="255.653" cy="134.218" r="9.587" fill="#131313"/>
<circle cx="255.653" cy="153.393" r="9.587" fill="#131313"/>
<circle cx="233.283" cy="134.218" r="9.587" fill="#131313"/>
<circle cx="233.283" cy="153.393" r="9.587" fill="#131313"/>
<circle cx="278.023" cy="134.218" r="9.587" fill="#131313"/>
<circle cx="278.023" cy="153.393" r="9.587" fill="#131313"/>
<circle cx="300.392" cy="134.218" r="9.587" fill="#131313"/>
<circle cx="300.392" cy="153.393" r="9.587" fill="#131313"/>
<circle cx="322.761" cy="57.5217" r="9.587" fill="#131313"/>
<circle cx="322.761" cy="76.6958" r="9.587" fill="#131313"/>
<circle cx="367.5" cy="57.5217" r="9.587" fill="#131313"/>
<circle cx="367.5" cy="76.6958" r="9.587" fill="#131313"/>
<circle cx="345.131" cy="57.5217" r="9.587" fill="#131313"/>
<circle cx="345.131" cy="76.6958" r="9.587" fill="#131313"/>
<circle cx="389.87" cy="57.5217" r="9.587" fill="#131313"/>
<circle cx="389.87" cy="76.6958" r="9.587" fill="#131313"/>
<circle cx="412.24" cy="57.5217" r="9.587" fill="#131313"/>
<circle cx="412.24" cy="76.6958" r="9.587" fill="#131313"/>
<circle cx="322.761" cy="95.8696" r="9.587" fill="#131313"/>
<circle cx="322.761" cy="115.044" r="9.587" fill="#131313"/>
<circle cx="367.5" cy="95.8696" r="9.587" fill="#131313"/>
<circle cx="367.5" cy="115.044" r="9.587" fill="#131313"/>
<circle cx="345.131" cy="95.8696" r="9.587" fill="#131313"/>
<circle cx="345.131" cy="115.044" r="9.587" fill="#131313"/>
<circle cx="389.87" cy="95.8696" r="9.587" fill="#131313"/>
<circle cx="389.87" cy="115.044" r="9.587" fill="#131313"/>
<circle cx="412.24" cy="95.8696" r="9.587" fill="#131313"/>
<circle cx="412.24" cy="115.044" r="9.587" fill="#131313"/>
<circle cx="322.761" cy="134.218" r="9.587" fill="#131313"/>
<circle cx="322.761" cy="153.393" r="9.587" fill="#131313"/>
<circle cx="367.5" cy="134.218" r="9.587" fill="#131313"/>
<circle cx="367.5" cy="153.393" r="9.587" fill="#131313"/>
<circle cx="345.131" cy="134.218" r="9.587" fill="#131313"/>
<circle cx="345.131" cy="153.393" r="9.587" fill="#131313"/>
<circle cx="389.87" cy="134.218" r="9.587" fill="#131313"/>
<circle cx="389.87" cy="153.393" r="9.587" fill="#131313"/>
<circle cx="412.24" cy="134.218" r="9.587" fill="#131313"/>
<circle cx="412.24" cy="153.393" r="9.587" fill="#131313"/>
<circle cx="434.611" cy="57.5217" r="9.587" fill="#131313"/>
<circle cx="434.611" cy="76.6958" r="9.587" fill="#131313"/>
<circle cx="479.35" cy="57.5217" r="9.587" fill="#131313"/>
<circle cx="479.35" cy="76.6958" r="9.587" fill="#131313"/>
<circle cx="456.981" cy="57.5217" r="9.587" fill="#131313"/>
<circle cx="456.981" cy="76.6958" r="9.587" fill="#131313"/>
<circle cx="501.72" cy="57.5217" r="9.587" fill="#131313"/>
<circle cx="501.72" cy="76.6958" r="9.587" fill="#131313"/>
<circle cx="524.09" cy="57.5217" r="9.587" fill="#131313"/>
<circle cx="524.09" cy="76.6958" r="9.587" fill="#131313"/>
<circle cx="434.611" cy="95.8696" r="9.587" fill="#131313"/>
<circle cx="434.611" cy="115.044" r="9.587" fill="#131313"/>
<circle cx="479.35" cy="95.8696" r="9.587" fill="#131313"/>
<circle cx="479.35" cy="115.044" r="9.587" fill="#131313"/>
<circle cx="456.981" cy="95.8696" r="9.587" fill="#131313"/>
<circle cx="456.981" cy="115.044" r="9.587" fill="#131313"/>
<circle cx="501.72" cy="95.8696" r="9.587" fill="#131313"/>
<circle cx="501.72" cy="115.044" r="9.587" fill="#131313"/>
<circle cx="524.09" cy="95.8696" r="9.587" fill="#131313"/>
<circle cx="524.09" cy="115.044" r="9.587" fill="#131313"/>
<circle cx="434.611" cy="134.218" r="9.587" fill="#131313"/>
<circle cx="434.611" cy="153.393" r="9.587" fill="#131313"/>
<circle cx="479.35" cy="134.218" r="9.587" fill="#131313"/>
<circle cx="479.35" cy="153.393" r="9.587" fill="#131313"/>
<circle cx="456.981" cy="134.218" r="9.587" fill="#131313"/>
<circle cx="456.981" cy="153.393" r="9.587" fill="#131313"/>
<circle cx="501.72" cy="134.218" r="9.587" fill="#131313"/>
<circle cx="501.72" cy="153.393" r="9.587" fill="#131313"/>
<circle cx="524.09" cy="134.218" r="9.587" fill="#131313"/>
<circle cx="524.09" cy="153.393" r="9.587" fill="#131313"/>
<circle cx="99.0655" cy="57.5217" r="9.587" fill="#131313"/>
<circle cx="99.0655" cy="76.6958" r="9.587" fill="#131313"/>
<circle cx="143.805" cy="57.5217" r="9.587" fill="#131313"/>
<circle cx="143.805" cy="76.6958" r="9.587" fill="#131313"/>
<circle cx="121.435" cy="57.5217" r="9.587" fill="#131313"/>
<circle cx="121.435" cy="76.6958" r="9.587" fill="#131313"/>
<circle cx="166.174" cy="57.5217" r="9.587" fill="#131313"/>
<circle cx="166.174" cy="76.6958" r="9.587" fill="#131313"/>
<circle cx="188.544" cy="57.5217" r="9.587" fill="#131313"/>
<circle cx="188.544" cy="76.6958" r="9.587" fill="#131313"/>
<circle cx="99.0655" cy="95.8696" r="9.587" fill="#131313"/>
<circle cx="99.0655" cy="115.044" r="9.587" fill="#131313"/>
<circle cx="143.805" cy="95.8696" r="9.587" fill="#131313"/>
<circle cx="143.805" cy="115.044" r="9.587" fill="#131313"/>
<circle cx="121.435" cy="95.8696" r="9.587" fill="#131313"/>
<circle cx="121.435" cy="115.044" r="9.587" fill="#131313"/>
<circle cx="166.174" cy="95.8696" r="9.587" fill="#131313"/>
<circle cx="166.174" cy="115.044" r="9.587" fill="#131313"/>
<circle cx="188.544" cy="95.8696" r="9.587" fill="#131313"/>
<circle cx="188.544" cy="115.044" r="9.587" fill="#131313"/>
<circle cx="99.0655" cy="134.217" r="9.587" fill="#131313"/>
<circle cx="99.0655" cy="153.391" r="9.587" fill="#131313"/>
<circle cx="143.805" cy="134.217" r="9.587" fill="#131313"/>
<circle cx="143.805" cy="153.391" r="9.587" fill="#131313"/>
<circle cx="121.435" cy="134.217" r="9.587" fill="#131313"/>
<circle cx="121.435" cy="153.391" r="9.587" fill="#131313"/>
<circle cx="166.174" cy="134.217" r="9.587" fill="#131313"/>
<circle cx="166.174" cy="153.391" r="9.587" fill="#131313"/>
<circle cx="188.544" cy="134.217" r="9.587" fill="#131313"/>
<circle cx="188.544" cy="153.391" r="9.587" fill="#131313"/>
<circle cx="99.0655" cy="233.283" r="9.587" fill="#131313"/>
<circle cx="121.435" cy="233.283" r="9.587" fill="#131313"/>
<circle cx="143.805" cy="233.283" r="9.587" fill="#131313"/>
<circle cx="166.174" cy="233.283" r="9.587" fill="#131313"/>
<circle cx="188.544" cy="233.283" r="9.587" fill="#131313"/>
<circle cx="210.914" cy="233.283" r="9.587" fill="#131313"/>
<circle cx="233.284" cy="233.283" r="9.587" fill="#131313"/>
<circle cx="255.653" cy="233.283" r="9.587" fill="#131313"/>
<circle cx="278.023" cy="233.283" r="9.587" fill="#131313"/>
<circle cx="300.392" cy="233.283" r="9.587" fill="#131313"/>
<circle cx="322.762" cy="233.283" r="9.587" fill="#131313"/>
<circle cx="345.132" cy="233.283" r="9.587" fill="#131313"/>
<circle cx="367.501" cy="233.283" r="9.587" fill="#131313"/>
<circle cx="389.871" cy="233.283" r="9.587" fill="#131313"/>
<circle cx="412.241" cy="233.283" r="9.587" fill="#131313"/>
<circle cx="434.61" cy="233.283" r="9.587" fill="#131313"/>
<circle cx="456.98" cy="233.283" r="9.587" fill="#131313"/>
<circle cx="479.35" cy="233.283" r="9.587" fill="#131313"/>
<circle cx="501.719" cy="233.283" r="9.587" fill="#131313"/>
<circle cx="524.089" cy="233.283" r="9.587" fill="#131313"/>
<circle cx="546.459" cy="233.283" r="9.587" fill="#131313"/>
<circle cx="568.828" cy="233.283" r="9.587" fill="#131313"/>
<circle cx="591.198" cy="233.283" r="9.587" fill="#131313"/>
<circle cx="613.568" cy="233.283" r="9.587" fill="#131313"/>
<circle cx="635.937" cy="233.283" r="9.587" fill="#131313"/>
<circle cx="658.307" cy="233.283" r="9.587" fill="#131313"/>
<circle cx="680.677" cy="233.283" r="9.587" fill="#131313"/>
<circle cx="703.046" cy="233.283" r="9.587" fill="#131313"/>
<circle cx="725.416" cy="233.283" r="9.587" fill="#131313"/>
<circle cx="747.785" cy="233.283" r="9.587" fill="#131313"/>
<circle cx="770.155" cy="233.283" r="9.587" fill="#131313"/>
<circle cx="792.525" cy="233.283" r="9.587" fill="#131313"/>
<circle cx="814.894" cy="233.283" r="9.587" fill="#131313"/>
<circle cx="837.264" cy="233.283" r="9.587" fill="#131313"/>
<circle cx="859.634" cy="233.283" r="9.587" fill="#131313"/>
<circle cx="882.003" cy="233.283" r="9.587" fill="#131313"/>
<circle cx="904.373" cy="233.283" r="9.587" fill="#131313"/>
<circle cx="926.742" cy="233.283" r="9.587" fill="#131313"/>
<circle cx="949.112" cy="233.283" r="9.587" fill="#131313"/>
<circle cx="971.482" cy="233.283" r="9.587" fill="#131313"/>
<circle cx="993.851" cy="233.283" r="9.587" fill="#131313"/>
<circle cx="1016.22" cy="233.283" r="9.587" fill="#131313"/>
<circle cx="1038.59" cy="233.283" r="9.587" fill="#131313"/>
<circle cx="1060.96" cy="233.283" r="9.587" fill="#131313"/>
<circle cx="1083.33" cy="233.283" r="9.587" fill="#131313"/>
<circle cx="1105.7" cy="233.283" r="9.587" fill="#131313"/>
<circle cx="1128.07" cy="233.283" r="9.587" fill="#131313"/>
<circle cx="1150.44" cy="233.283" r="9.587" fill="#131313"/>
<circle cx="1172.81" cy="233.283" r="9.587" fill="#131313"/>
<circle cx="1195.18" cy="233.283" r="9.587" fill="#131313"/>
<circle cx="1217.55" cy="233.283" r="9.587" fill="#131313"/>
<circle cx="1239.92" cy="233.283" r="9.587" fill="#131313"/>
<circle cx="1262.29" cy="233.283" r="9.587" fill="#131313"/>
<circle cx="1284.66" cy="233.283" r="9.587" fill="#131313"/>
<circle cx="1307.03" cy="233.283" r="9.587" fill="#131313"/>
<circle cx="1329.4" cy="233.283" r="9.587" fill="#131313"/>
<circle cx="1351.77" cy="233.283" r="9.587" fill="#131313"/>
<circle cx="1374.14" cy="233.283" r="9.587" fill="#131313"/>
<circle cx="1396.5" cy="233.283" r="9.587" fill="#131313"/>
<circle cx="1418.87" cy="233.283" r="9.587" fill="#131313"/>
<circle cx="1441.24" cy="233.283" r="9.587" fill="#131313"/>
<circle cx="1463.61" cy="233.283" r="9.587" fill="#131313"/>
<circle cx="1485.98" cy="233.283" r="9.587" fill="#131313"/>
<circle cx="1508.35" cy="233.283" r="9.587" fill="#131313"/>
<circle cx="1530.72" cy="233.283" r="9.587" fill="#131313"/>
<circle cx="1553.09" cy="233.283" r="9.587" fill="#131313"/>
<circle cx="1575.46" cy="233.283" r="9.587" fill="#131313"/>
<circle cx="99.0655" cy="19.1735" r="9.587" fill="#131313"/>
<circle cx="121.435" cy="19.1735" r="9.587" fill="#131313"/>
<circle cx="143.805" cy="19.1735" r="9.587" fill="#131313"/>
<circle cx="166.174" cy="19.1735" r="9.587" fill="#131313"/>
<circle cx="188.544" cy="19.1735" r="9.587" fill="#131313"/>
<circle cx="210.914" cy="19.1735" r="9.587" fill="#131313"/>
<circle cx="233.284" cy="19.1735" r="9.587" fill="#131313"/>
<circle cx="255.653" cy="19.1735" r="9.587" fill="#131313"/>
<circle cx="278.023" cy="19.1735" r="9.587" fill="#131313"/>
<circle cx="300.392" cy="19.1735" r="9.587" fill="#131313"/>
<circle cx="322.762" cy="19.1735" r="9.587" fill="#131313"/>
<circle cx="345.132" cy="19.1735" r="9.587" fill="#131313"/>
<circle cx="367.501" cy="19.1735" r="9.587" fill="#131313"/>
<circle cx="389.871" cy="19.1735" r="9.587" fill="#131313"/>
<circle cx="412.241" cy="19.1735" r="9.587" fill="#131313"/>
<circle cx="434.61" cy="19.1735" r="9.587" fill="#131313"/>
<circle cx="456.98" cy="19.1735" r="9.587" fill="#131313"/>
<circle cx="479.35" cy="19.1735" r="9.587" fill="#131313"/>
<circle cx="501.719" cy="19.1735" r="9.587" fill="#131313"/>
<circle cx="524.089" cy="19.1735" r="9.587" fill="#131313"/>
<circle cx="546.459" cy="19.1735" r="9.587" fill="#131313"/>
<circle cx="568.828" cy="19.1735" r="9.587" fill="#131313"/>
<circle cx="591.198" cy="19.1735" r="9.587" fill="#131313"/>
<circle cx="613.568" cy="19.1735" r="9.587" fill="#131313"/>
<circle cx="635.937" cy="19.1735" r="9.587" fill="#131313"/>
<circle cx="658.307" cy="19.1735" r="9.587" fill="#131313"/>
<circle cx="680.677" cy="19.1735" r="9.587" fill="#131313"/>
<circle cx="703.046" cy="19.1735" r="9.587" fill="#131313"/>
<circle cx="725.416" cy="19.1735" r="9.587" fill="#131313"/>
<circle cx="747.785" cy="19.1735" r="9.587" fill="#131313"/>
<circle cx="770.155" cy="19.1735" r="9.587" fill="#131313"/>
<circle cx="792.525" cy="19.1735" r="9.587" fill="#131313"/>
<circle cx="814.894" cy="19.1735" r="9.587" fill="#131313"/>
<circle cx="837.264" cy="19.1735" r="9.587" fill="#131313"/>
<circle cx="859.634" cy="19.1735" r="9.587" fill="#131313"/>
<circle cx="882.003" cy="19.1735" r="9.587" fill="#131313"/>
<circle cx="904.373" cy="19.1735" r="9.587" fill="#131313"/>
<circle cx="926.742" cy="19.1735" r="9.587" fill="#131313"/>
<circle cx="949.112" cy="19.1735" r="9.587" fill="#131313"/>
<circle cx="971.482" cy="19.1735" r="9.587" fill="#131313"/>
<circle cx="993.851" cy="19.1735" r="9.587" fill="#131313"/>
<circle cx="1016.22" cy="19.1735" r="9.587" fill="#131313"/>
<circle cx="1038.59" cy="19.1735" r="9.587" fill="#131313"/>
<circle cx="1060.96" cy="19.1735" r="9.587" fill="#131313"/>
<circle cx="1083.33" cy="19.1735" r="9.587" fill="#131313"/>
<circle cx="1105.7" cy="19.1735" r="9.587" fill="#131313"/>
<circle cx="1128.07" cy="19.1735" r="9.587" fill="#131313"/>
<circle cx="1150.44" cy="19.1735" r="9.587" fill="#131313"/>
<circle cx="1172.81" cy="19.1735" r="9.587" fill="#131313"/>
<circle cx="1195.18" cy="19.1735" r="9.587" fill="#131313"/>
<circle cx="1217.55" cy="19.1735" r="9.587" fill="#131313"/>
<circle cx="1239.92" cy="19.1735" r="9.587" fill="#131313"/>
<circle cx="1262.29" cy="19.1735" r="9.587" fill="#131313"/>
<circle cx="1284.66" cy="19.1735" r="9.587" fill="#131313"/>
<circle cx="1307.03" cy="19.1735" r="9.587" fill="#131313"/>
<circle cx="1329.4" cy="19.1735" r="9.587" fill="#131313"/>
<circle cx="1351.77" cy="19.1735" r="9.587" fill="#131313"/>
<circle cx="1374.14" cy="19.1735" r="9.587" fill="#131313"/>
<circle cx="1396.5" cy="19.1735" r="9.587" fill="#131313"/>
<circle cx="1418.87" cy="19.1735" r="9.587" fill="#131313"/>
<circle cx="1441.24" cy="19.1735" r="9.587" fill="#131313"/>
<circle cx="1463.61" cy="19.1735" r="9.587" fill="#131313"/>
<circle cx="1485.98" cy="19.1735" r="9.587" fill="#131313"/>
<circle cx="1508.35" cy="19.1735" r="9.587" fill="#131313"/>
<circle cx="1530.72" cy="19.1735" r="9.587" fill="#131313"/>
<circle cx="1553.09" cy="19.1735" r="9.587" fill="#131313"/>
<circle cx="1575.46" cy="19.1735" r="9.587" fill="#131313"/>
<circle cx="99.0655" cy="38.3476" r="9.587" fill="#131313"/>
<circle cx="121.435" cy="38.3476" r="9.587" fill="#131313"/>
<circle cx="143.805" cy="38.3476" r="9.587" fill="#131313"/>
<circle cx="166.174" cy="38.3476" r="9.587" fill="#131313"/>
<circle cx="188.544" cy="38.3476" r="9.587" fill="#131313"/>
<circle cx="210.914" cy="38.3476" r="9.587" fill="#131313"/>
<circle cx="233.284" cy="38.3476" r="9.587" fill="#131313"/>
<circle cx="255.653" cy="38.3476" r="9.587" fill="#131313"/>
<circle cx="278.023" cy="38.3476" r="9.587" fill="#131313"/>
<circle cx="300.392" cy="38.3476" r="9.587" fill="#131313"/>
<circle cx="322.762" cy="38.3476" r="9.587" fill="#131313"/>
<circle cx="345.132" cy="38.3476" r="9.587" fill="#131313"/>
<circle cx="367.501" cy="38.3476" r="9.587" fill="#131313"/>
<circle cx="389.871" cy="38.3476" r="9.587" fill="#131313"/>
<circle cx="412.241" cy="38.3476" r="9.587" fill="#131313"/>
<circle cx="434.61" cy="38.3476" r="9.587" fill="#131313"/>
<circle cx="456.98" cy="38.3476" r="9.587" fill="#131313"/>
<circle cx="479.35" cy="38.3476" r="9.587" fill="#131313"/>
<circle cx="501.719" cy="38.3476" r="9.587" fill="#131313"/>
<circle cx="524.089" cy="38.3476" r="9.587" fill="#131313"/>
<circle cx="546.459" cy="38.3476" r="9.587" fill="#131313"/>
<circle cx="568.828" cy="38.3476" r="9.587" fill="#131313"/>
<circle cx="591.198" cy="38.3476" r="9.587" fill="#131313"/>
<circle cx="613.568" cy="38.3476" r="9.587" fill="#131313"/>
<circle cx="635.937" cy="38.3476" r="9.587" fill="#131313"/>
<circle cx="658.307" cy="38.3476" r="9.587" fill="#131313"/>
<circle cx="680.677" cy="38.3476" r="9.587" fill="#131313"/>
<circle cx="703.046" cy="38.3476" r="9.587" fill="#131313"/>
<circle cx="725.416" cy="38.3476" r="9.587" fill="#131313"/>
<circle cx="747.785" cy="38.3476" r="9.587" fill="#131313"/>
<circle cx="770.155" cy="38.3476" r="9.587" fill="#131313"/>
<circle cx="792.525" cy="38.3476" r="9.587" fill="#131313"/>
<circle cx="814.894" cy="38.3476" r="9.587" fill="#131313"/>
<circle cx="837.264" cy="38.3476" r="9.587" fill="#131313"/>
<circle cx="859.634" cy="38.3476" r="9.587" fill="#131313"/>
<circle cx="882.003" cy="38.3476" r="9.587" fill="#131313"/>
<circle cx="904.373" cy="38.3476" r="9.587" fill="#131313"/>
<circle cx="926.742" cy="38.3476" r="9.587" fill="#131313"/>
<circle cx="949.112" cy="38.3476" r="9.587" fill="#131313"/>
<circle cx="971.482" cy="38.3476" r="9.587" fill="#131313"/>
<circle cx="993.851" cy="38.3476" r="9.587" fill="#131313"/>
<circle cx="1016.22" cy="38.3476" r="9.587" fill="#131313"/>
<circle cx="1038.59" cy="38.3476" r="9.587" fill="#131313"/>
<circle cx="1060.96" cy="38.3476" r="9.587" fill="#131313"/>
<circle cx="1083.33" cy="38.3476" r="9.587" fill="#131313"/>
<circle cx="1105.7" cy="38.3476" r="9.587" fill="#131313"/>
<circle cx="1128.07" cy="38.3476" r="9.587" fill="#131313"/>
<circle cx="1150.44" cy="38.3476" r="9.587" fill="#131313"/>
<circle cx="1172.81" cy="38.3476" r="9.587" fill="#131313"/>
<circle cx="1195.18" cy="38.3476" r="9.587" fill="#131313"/>
<circle cx="1217.55" cy="38.3476" r="9.587" fill="#131313"/>
<circle cx="1239.92" cy="38.3476" r="9.587" fill="#131313"/>
<circle cx="1262.29" cy="38.3476" r="9.587" fill="#131313"/>
<circle cx="1284.66" cy="38.3476" r="9.587" fill="#131313"/>
<circle cx="1307.03" cy="38.3476" r="9.587" fill="#131313"/>
<circle cx="1329.4" cy="38.3476" r="9.587" fill="#131313"/>
<circle cx="1351.77" cy="38.3476" r="9.587" fill="#131313"/>
<circle cx="1374.14" cy="38.3476" r="9.587" fill="#131313"/>
<circle cx="1396.5" cy="38.3476" r="9.587" fill="#131313"/>
<circle cx="1418.87" cy="38.3476" r="9.587" fill="#131313"/>
<circle cx="1441.24" cy="38.3476" r="9.587" fill="#131313"/>
<circle cx="1463.61" cy="38.3476" r="9.587" fill="#131313"/>
<circle cx="1485.98" cy="38.3476" r="9.587" fill="#131313"/>
<circle cx="1508.35" cy="38.3476" r="9.587" fill="#131313"/>
<circle cx="1530.72" cy="38.3476" r="9.587" fill="#131313"/>
<circle cx="1553.09" cy="38.3476" r="9.587" fill="#131313"/>
<circle cx="1575.46" cy="38.3476" r="9.587" fill="#131313"/>
<circle cx="99.0655" cy="57.5217" r="9.587" fill="#131313"/>
<circle cx="121.435" cy="57.5217" r="9.587" fill="#131313"/>
<circle cx="143.805" cy="57.5217" r="9.587" fill="#131313"/>
<rect x="550.809" y="81.0471" width="272.517" height="109.253" fill="#AAAAAA"/>
<rect x="550.809" y="81.0471" width="272.517" height="109.253" stroke="#747578" stroke-width="2.31044"/>
<rect x="575.07" y="86.8238" width="20.794" height="36.967" fill="#FFFEFF"/>
<path d="M602.795 96.0656H612.038V133.032H558.897V96.0656H568.139V89.1339H602.795V96.0656Z" fill="#191718"/>
<rect x="561.208" y="105.308" width="4.62088" height="13.8626" fill="#FFFEFF"/>
<rect x="605.105" y="105.308" width="4.62088" height="13.8626" fill="#FFFEFF"/>
<rect x="605.105" y="93.7556" width="9.24176" height="6.93132" fill="#1F7838"/>
<rect x="556.586" y="93.7556" width="9.24176" height="6.93132" fill="#D5C331"/>
<rect x="570.448" y="116.86" width="2.31044" height="13.8626" fill="#888888"/>
<rect x="575.07" y="116.86" width="2.31044" height="13.8626" fill="#888888"/>
<rect x="579.688" y="116.86" width="2.31044" height="13.8626" fill="#888888"/>
<rect x="584.312" y="116.86" width="2.31044" height="13.8626" fill="#888888"/>
<rect x="588.932" y="116.86" width="2.31044" height="13.8626" fill="#888888"/>
<rect x="593.553" y="116.86" width="2.31044" height="13.8626" fill="#888888"/>
<rect x="598.174" y="116.86" width="2.31044" height="13.8626" fill="#888888"/>
<rect x="642.073" y="86.8238" width="20.794" height="36.967" fill="#FFFEFF"/>
<path d="M669.797 96.0656H679.04V133.032H625.9V96.0656H635.141V89.1339H669.797V96.0656Z" fill="#191718"/>
<rect x="628.212" y="105.308" width="4.62088" height="13.8626" fill="#FFFEFF"/>
<rect x="672.11" y="105.308" width="4.62088" height="13.8626" fill="#FFFEFF"/>
<rect x="672.11" y="93.7556" width="9.24176" height="6.93132" fill="#1F7838"/>
<rect x="623.589" y="93.7556" width="9.24176" height="6.93132" fill="#D5C331"/>
<rect x="637.454" y="116.86" width="2.31044" height="13.8626" fill="#888888"/>
<rect x="642.073" y="116.86" width="2.31044" height="13.8626" fill="#888888"/>
<rect x="646.694" y="116.86" width="2.31044" height="13.8626" fill="#888888"/>
<rect x="651.314" y="116.86" width="2.31044" height="13.8626" fill="#888888"/>
<rect x="655.936" y="116.86" width="2.31044" height="13.8626" fill="#888888"/>
<rect x="660.556" y="116.86" width="2.31044" height="13.8626" fill="#888888"/>
<rect x="665.177" y="116.86" width="2.31044" height="13.8626" fill="#888888"/>
<rect x="709.077" y="86.8238" width="20.794" height="36.967" fill="#FFFEFF"/>
<path d="M736.801 96.0656H746.044V133.032H692.903V96.0656H702.145V89.1339H736.801V96.0656Z" fill="#191718"/>
<rect x="695.213" y="105.308" width="4.62088" height="13.8626" fill="#FFFEFF"/>
<rect x="739.113" y="105.308" width="4.62088" height="13.8626" fill="#FFFEFF"/>
<rect x="739.113" y="93.7556" width="9.24176" height="6.93132" fill="#1F7838"/>
<rect x="690.593" y="93.7556" width="9.24176" height="6.93132" fill="#D5C331"/>
<rect x="704.455" y="116.86" width="2.31044" height="13.8626" fill="#888888"/>
<rect x="709.077" y="116.86" width="2.31044" height="13.8626" fill="#888888"/>
<rect x="713.696" y="116.86" width="2.31044" height="13.8626" fill="#888888"/>
<rect x="718.317" y="116.86" width="2.31044" height="13.8626" fill="#888888"/>
<rect x="722.939" y="116.86" width="2.31044" height="13.8626" fill="#888888"/>
<rect x="727.561" y="116.86" width="2.31044" height="13.8626" fill="#888888"/>
<rect x="732.179" y="116.86" width="2.31044" height="13.8626" fill="#888888"/>
<rect x="776.078" y="86.8238" width="20.794" height="36.967" fill="#FFFEFF"/>
<path d="M803.804 96.0656H813.047V133.032H759.906V96.0656H769.146V89.1339H803.804V96.0656Z" fill="#191718"/>
<rect x="762.216" y="105.308" width="4.62088" height="13.8626" fill="#FFFEFF"/>
<rect x="806.114" y="105.308" width="4.62088" height="13.8626" fill="#FFFEFF"/>
<rect x="806.114" y="93.7556" width="9.24176" height="6.93132" fill="#1F7838"/>
<rect x="757.596" y="93.7556" width="9.24176" height="6.93132" fill="#D5C331"/>
<rect x="771.458" y="116.86" width="2.31044" height="13.8626" fill="#888888"/>
<rect x="776.078" y="116.86" width="2.31044" height="13.8626" fill="#888888"/>
<rect x="780.7" y="116.86" width="2.31044" height="13.8626" fill="#888888"/>
<rect x="785.32" y="116.86" width="2.31044" height="13.8626" fill="#888888"/>
<rect x="789.942" y="116.86" width="2.31044" height="13.8626" fill="#888888"/>
<rect x="794.562" y="116.86" width="2.31044" height="13.8626" fill="#888888"/>
<rect x="799.184" y="116.86" width="2.31044" height="13.8626" fill="#888888"/>
<rect width="20.794" height="36.967" transform="matrix(1 0 0 -1 573.58 183.245)" fill="#FFFEFF"/>
<path d="M601.305 174.003H610.546V137.035H557.407V174.003H566.649V180.935H601.305V174.003Z" fill="#191718"/>
<rect width="4.62088" height="13.8626" transform="matrix(1 0 0 -1 559.717 164.761)" fill="#FFFEFF"/>
<rect width="4.62088" height="13.8626" transform="matrix(1 0 0 -1 603.616 164.761)" fill="#FFFEFF"/>
<rect width="9.24176" height="6.93132" transform="matrix(1 0 0 -1 603.616 176.313)" fill="#1F7838"/>
<rect width="9.24176" height="6.93132" transform="matrix(1 0 0 -1 555.097 176.313)" fill="#D5C331"/>
<rect width="2.31044" height="13.8626" transform="matrix(1 0 0 -1 568.959 153.209)" fill="#888888"/>
<rect width="2.31044" height="13.8626" transform="matrix(1 0 0 -1 573.58 153.209)" fill="#888888"/>
<rect width="2.31044" height="13.8626" transform="matrix(1 0 0 -1 578.201 153.209)" fill="#888888"/>
<rect width="2.31044" height="13.8626" transform="matrix(1 0 0 -1 582.822 153.209)" fill="#888888"/>
<rect width="2.31044" height="13.8626" transform="matrix(1 0 0 -1 587.442 153.209)" fill="#888888"/>
<rect width="2.31044" height="13.8626" transform="matrix(1 0 0 -1 592.064 153.209)" fill="#888888"/>
<rect width="2.31044" height="13.8626" transform="matrix(1 0 0 -1 596.684 153.209)" fill="#888888"/>
<rect width="20.794" height="36.967" transform="matrix(1 0 0 -1 640.583 183.245)" fill="#FFFEFF"/>
<path d="M668.308 174.003H677.551V137.035H624.411V174.003H633.651V180.935H668.308V174.003Z" fill="#191718"/>
<rect width="4.62088" height="13.8626" transform="matrix(1 0 0 -1 626.721 164.761)" fill="#FFFEFF"/>
<rect width="4.62088" height="13.8626" transform="matrix(1 0 0 -1 670.619 164.761)" fill="#FFFEFF"/>
<rect width="9.24176" height="6.93132" transform="matrix(1 0 0 -1 670.619 176.313)" fill="#1F7838"/>
<rect width="9.24176" height="6.93132" transform="matrix(1 0 0 -1 622.1 176.313)" fill="#D5C331"/>
<rect width="2.31044" height="13.8626" transform="matrix(1 0 0 -1 635.963 153.209)" fill="#888888"/>
<rect width="2.31044" height="13.8626" transform="matrix(1 0 0 -1 640.583 153.209)" fill="#888888"/>
<rect width="2.31044" height="13.8626" transform="matrix(1 0 0 -1 645.204 153.209)" fill="#888888"/>
<rect width="2.31044" height="13.8626" transform="matrix(1 0 0 -1 649.825 153.209)" fill="#888888"/>
<rect width="2.31044" height="13.8626" transform="matrix(1 0 0 -1 654.447 153.209)" fill="#888888"/>
<rect width="2.31044" height="13.8626" transform="matrix(1 0 0 -1 659.067 153.209)" fill="#888888"/>
<rect width="2.31044" height="13.8626" transform="matrix(1 0 0 -1 663.688 153.209)" fill="#888888"/>
<rect width="20.794" height="36.967" transform="matrix(1 0 0 -1 707.586 183.245)" fill="#FFFEFF"/>
<path d="M735.311 174.003H744.553V137.035H691.413V174.003H700.655V180.935H735.311V174.003Z" fill="#191718"/>
<rect width="4.62088" height="13.8626" transform="matrix(1 0 0 -1 693.723 164.761)" fill="#FFFEFF"/>
<rect width="4.62088" height="13.8626" transform="matrix(1 0 0 -1 737.622 164.761)" fill="#FFFEFF"/>
<rect width="9.24176" height="6.93132" transform="matrix(1 0 0 -1 737.622 176.313)" fill="#1F7838"/>
<rect width="9.24176" height="6.93132" transform="matrix(1 0 0 -1 689.103 176.313)" fill="#D5C331"/>
<rect width="2.31044" height="13.8626" transform="matrix(1 0 0 -1 702.965 153.209)" fill="#888888"/>
<rect width="2.31044" height="13.8626" transform="matrix(1 0 0 -1 707.586 153.209)" fill="#888888"/>
<rect width="2.31044" height="13.8626" transform="matrix(1 0 0 -1 712.205 153.209)" fill="#888888"/>
<rect width="2.31044" height="13.8626" transform="matrix(1 0 0 -1 716.828 153.209)" fill="#888888"/>
<rect width="2.31044" height="13.8626" transform="matrix(1 0 0 -1 721.448 153.209)" fill="#888888"/>
<rect width="2.31044" height="13.8626" transform="matrix(1 0 0 -1 726.07 153.209)" fill="#888888"/>
<rect width="2.31044" height="13.8626" transform="matrix(1 0 0 -1 730.689 153.209)" fill="#888888"/>
<rect width="20.794" height="36.967" transform="matrix(1 0 0 -1 774.588 183.245)" fill="#FFFEFF"/>
<path d="M802.313 174.003H811.555V137.035H758.414V174.003H767.656V180.935H802.313V174.003Z" fill="#191718"/>
<rect width="4.62088" height="13.8626" transform="matrix(1 0 0 -1 760.724 164.761)" fill="#FFFEFF"/>
<rect width="4.62088" height="13.8626" transform="matrix(1 0 0 -1 804.624 164.761)" fill="#FFFEFF"/>
<rect width="9.24176" height="6.93132" transform="matrix(1 0 0 -1 804.624 176.313)" fill="#1F7838"/>
<rect width="9.24176" height="6.93132" transform="matrix(1 0 0 -1 756.105 176.313)" fill="#D5C331"/>
<rect width="2.31044" height="13.8626" transform="matrix(1 0 0 -1 769.968 153.209)" fill="#888888"/>
<rect width="2.31044" height="13.8626" transform="matrix(1 0 0 -1 774.588 153.209)" fill="#888888"/>
<rect width="2.31044" height="13.8626" transform="matrix(1 0 0 -1 779.209 153.209)" fill="#888888"/>
<rect width="2.31044" height="13.8626" transform="matrix(1 0 0 -1 783.828 153.209)" fill="#888888"/>
<rect width="2.31044" height="13.8626" transform="matrix(1 0 0 -1 788.451 153.209)" fill="#888888"/>
<rect width="2.31044" height="13.8626" transform="matrix(1 0 0 -1 793.072 153.209)" fill="#888888"/>
<rect width="2.31044" height="13.8626" transform="matrix(1 0 0 -1 797.693 153.209)" fill="#888888"/>
<rect x="1193.14" y="75.6499" width="67.9942" height="109.538" fill="#AAAAAA"/>
<rect x="1193.14" y="75.6499" width="67.9942" height="109.538" stroke="#747578" stroke-width="2.31044"/>
<rect x="1217.4" y="81.426" width="20.794" height="36.967" fill="#FFFEFF"/>
<path d="M1245.12 90.6678H1254.37V127.636H1201.23V90.6678H1210.47V83.7361H1245.12V90.6678Z" fill="#191718"/>
<rect x="1203.53" y="99.9097" width="4.62088" height="13.8626" fill="#FFFEFF"/>
<rect x="1247.43" y="99.9097" width="4.62088" height="13.8626" fill="#FFFEFF"/>
<rect x="1247.43" y="88.3577" width="9.24176" height="6.93132" fill="#1F7838"/>
<rect x="1198.91" y="88.3577" width="9.24176" height="6.93132" fill="#D5C331"/>
<rect x="1212.78" y="111.462" width="2.31044" height="13.8626" fill="#888888"/>
<rect x="1217.4" y="111.462" width="2.31044" height="13.8626" fill="#888888"/>
<rect x="1222.02" y="111.462" width="2.31044" height="13.8626" fill="#888888"/>
<rect x="1226.64" y="111.462" width="2.31044" height="13.8626" fill="#888888"/>
<rect x="1231.26" y="111.462" width="2.31044" height="13.8626" fill="#888888"/>
<rect x="1235.88" y="111.462" width="2.31044" height="13.8626" fill="#888888"/>
<rect x="1240.5" y="111.462" width="2.31044" height="13.8626" fill="#888888"/>
<rect width="20.794" height="36.967" transform="matrix(1 0 0 -1 1215.91 177.848)" fill="#FFFEFF"/>
<path d="M1243.63 168.606H1252.87V131.639H1199.74V168.606H1208.98V175.537H1243.63V168.606Z" fill="#191718"/>
<rect width="4.62088" height="13.8626" transform="matrix(1 0 0 -1 1202.05 159.364)" fill="#FFFEFF"/>
<rect width="4.62088" height="13.8626" transform="matrix(1 0 0 -1 1245.95 159.364)" fill="#FFFEFF"/>
<rect width="9.24176" height="6.93132" transform="matrix(1 0 0 -1 1245.95 170.916)" fill="#1F7838"/>
<rect width="9.24176" height="6.93132" transform="matrix(1 0 0 -1 1197.43 170.916)" fill="#D5C331"/>
<rect width="2.31044" height="13.8626" transform="matrix(1 0 0 -1 1211.29 147.812)" fill="#888888"/>
<rect width="2.31044" height="13.8626" transform="matrix(1 0 0 -1 1215.91 147.812)" fill="#888888"/>
<rect width="2.31044" height="13.8626" transform="matrix(1 0 0 -1 1220.53 147.812)" fill="#888888"/>
<rect width="2.31044" height="13.8626" transform="matrix(1 0 0 -1 1225.15 147.812)" fill="#888888"/>
<rect width="2.31044" height="13.8626" transform="matrix(1 0 0 -1 1229.77 147.812)" fill="#888888"/>
<rect width="2.31044" height="13.8626" transform="matrix(1 0 0 -1 1234.39 147.812)" fill="#888888"/>
<rect width="2.31044" height="13.8626" transform="matrix(1 0 0 -1 1239.01 147.812)" fill="#888888"/>
<rect x="1564.58" y="74.687" width="64.2714" height="109.249" fill="#AAAAAA"/>
<rect x="1564.58" y="74.687" width="64.2714" height="109.249" stroke="#888888" stroke-width="3.19567"/>
<rect width="31.9566" height="28.761" transform="matrix(1 0 0 -1 1582.16 122.238)" fill="#E6E3E2"/>
<path d="M1620.51 109.455H1626.9V80.6942H1569.38V109.455H1575.77V115.847H1620.51V109.455Z" fill="#291F1B"/>
<rect width="3.19566" height="9.587" transform="matrix(1 0 0 -1 1569.38 99.8679)" fill="#E6E3E2"/>
<rect width="38.348" height="9.587" transform="matrix(1 0 0 -1 1578.97 99.8679)" fill="#848080"/>
<rect width="3.19566" height="9.587" transform="matrix(1 0 0 -1 1623.7 99.8679)" fill="#E6E3E2"/>
<path d="M1583.61 122.626C1583.66 122.489 1583.86 122.489 1583.91 122.626L1586.44 129.211C1586.48 129.316 1586.41 129.428 1586.29 129.428H1581.22C1581.11 129.428 1581.03 129.316 1581.07 129.211L1583.61 122.626Z" fill="#19191A"/>
<path d="M1593.2 131.437C1593.25 131.574 1593.44 131.574 1593.49 131.437L1596.03 124.851C1596.07 124.747 1595.99 124.634 1595.88 124.634H1590.81C1590.7 124.634 1590.62 124.747 1590.66 124.851L1593.2 131.437Z" fill="#19191A"/>
<path d="M1612.37 131.437C1612.42 131.574 1612.62 131.574 1612.67 131.437L1615.2 124.851C1615.24 124.747 1615.17 124.634 1615.05 124.634H1609.98C1609.87 124.634 1609.8 124.747 1609.84 124.851L1612.37 131.437Z" fill="#19191A"/>
<path d="M1602.78 122.626C1602.84 122.489 1603.03 122.489 1603.08 122.626L1605.62 129.211C1605.66 129.316 1605.58 129.428 1605.47 129.428H1600.4C1600.29 129.428 1600.21 129.316 1600.25 129.211L1602.78 122.626Z" fill="#19191A"/>
<rect x="1582.16" y="131.825" width="31.9566" height="28.761" fill="#E6E3E2"/>
<path d="M1620.51 144.607H1626.9V173.368H1569.38V144.607H1575.77V138.216H1620.51V144.607Z" fill="#291F1B"/>
<rect x="1569.38" y="154.195" width="3.19566" height="9.587" fill="#E6E3E2"/>
<rect x="1578.97" y="154.195" width="38.348" height="9.587" fill="#848080"/>
<rect x="1623.7" y="154.195" width="3.19566" height="9.587" fill="#E6E3E2"/>
<rect x="1100.75" y="74.687" width="64.2714" height="109.249" fill="#AAAAAA"/>
<rect x="1100.75" y="74.687" width="64.2714" height="109.249" stroke="#888888" stroke-width="3.19567"/>
<rect width="31.9566" height="28.761" transform="matrix(1 0 0 -1 1118.33 122.237)" fill="#E6E3E2"/>
<path d="M1156.67 109.455H1163.06V80.6941H1105.54V109.455H1111.93V115.846H1156.67V109.455Z" fill="#291F1B"/>
<rect width="3.19566" height="9.587" transform="matrix(1 0 0 -1 1105.54 99.8678)" fill="#E6E3E2"/>
<rect width="38.348" height="9.587" transform="matrix(1 0 0 -1 1115.13 99.8678)" fill="#848080"/>
<rect width="3.19566" height="9.587" transform="matrix(1 0 0 -1 1159.87 99.8678)" fill="#E6E3E2"/>
<path d="M1119.77 122.625C1119.83 122.489 1120.02 122.489 1120.07 122.625L1122.61 129.211C1122.65 129.316 1122.57 129.428 1122.46 129.428H1117.39C1117.28 129.428 1117.2 129.316 1117.24 129.211L1119.77 122.625Z" fill="#19191A"/>
<path d="M1129.36 131.437C1129.41 131.573 1129.61 131.573 1129.66 131.437L1132.19 124.851C1132.23 124.747 1132.16 124.634 1132.04 124.634H1126.97C1126.86 124.634 1126.79 124.747 1126.83 124.851L1129.36 131.437Z" fill="#19191A"/>
<path d="M1148.53 131.437C1148.59 131.573 1148.78 131.573 1148.83 131.437L1151.37 124.851C1151.41 124.747 1151.33 124.634 1151.22 124.634H1146.15C1146.04 124.634 1145.96 124.747 1146 124.851L1148.53 131.437Z" fill="#19191A"/>
<path d="M1138.95 122.625C1139 122.489 1139.19 122.489 1139.25 122.625L1141.78 129.211C1141.82 129.316 1141.74 129.428 1141.63 129.428H1136.56C1136.45 129.428 1136.37 129.316 1136.41 129.211L1138.95 122.625Z" fill="#19191A"/>
<rect x="1118.33" y="131.825" width="31.9566" height="28.761" fill="#E6E3E2"/>
<path d="M1156.67 144.607H1163.06V173.368H1105.54V144.607H1111.93V138.216H1156.67V144.607Z" fill="#291F1B"/>
<rect x="1105.54" y="154.195" width="3.19566" height="9.587" fill="#E6E3E2"/>
<rect x="1115.13" y="154.195" width="38.348" height="9.587" fill="#848080"/>
<rect x="1159.87" y="154.195" width="3.19566" height="9.587" fill="#E6E3E2"/>
<rect x="1430.06" y="145.402" width="19.174" height="41.5436" rx="1.59783" fill="#221613" stroke="white" stroke-width="3.19567"/>
<rect x="1441.25" y="153.39" width="3.19566" height="25.5653" fill="#D9D9D9"/>
<rect x="1434.85" y="172.564" width="3.19566" height="6.39133" fill="#D9D9D9"/>
<rect x="1434.85" y="153.39" width="3.19566" height="6.39133" fill="#D9D9D9"/>
<rect x="1428.46" y="194.934" width="22.3697" height="6.39133" fill="#231714"/>
<rect x="1462.02" y="145.402" width="19.174" height="41.5436" rx="1.59783" fill="#221613" stroke="white" stroke-width="3.19567"/>
<rect x="1473.2" y="153.39" width="3.19566" height="25.5653" fill="#D9D9D9"/>
<rect x="1466.81" y="172.564" width="3.19566" height="6.39133" fill="#D9D9D9"/>
<rect x="1466.81" y="153.39" width="3.19566" height="6.39133" fill="#D9D9D9"/>
<rect x="1460.42" y="194.934" width="22.3697" height="6.39133" fill="#231714"/>
<rect x="29.1462" y="215.515" width="38.348" height="15.9783" rx="7.98916" fill="black"/>
<rect x="866.824" y="90.2771" width="49.5328" height="84.6851" rx="0.798916" fill="#5B5C5E" stroke="#BDBFC4" stroke-width="1.59783"/>
<rect x="866.824" y="122.234" width="49.5328" height="20.7718" fill="#171818" stroke="#BDBFC4" stroke-width="1.59783"/>
<rect x="870.019" y="125.43" width="43.1415" height="14.3805" fill="#B9BBC0" stroke="#BDBFC4" stroke-width="1.59783"/>
<rect x="867.623" y="129.424" width="3.19566" height="6.39133" fill="#19191A"/>
<rect x="912.362" y="129.424" width="3.19566" height="6.39133" fill="#19191A"/>
<path d="M875.464 128.214C875.516 128.077 875.709 128.077 875.762 128.214L878.297 134.799C878.337 134.904 878.26 135.017 878.148 135.017H873.078C872.966 135.017 872.889 134.904 872.929 134.799L875.464 128.214Z" fill="#19191A"/>
<path d="M885.05 137.025C885.103 137.162 885.296 137.162 885.348 137.025L887.883 130.44C887.924 130.335 887.846 130.223 887.734 130.223H882.665C882.552 130.223 882.475 130.335 882.515 130.44L885.05 137.025Z" fill="#19191A"/>
<path d="M904.224 137.025C904.277 137.162 904.47 137.162 904.523 137.025L907.057 130.44C907.098 130.335 907.02 130.223 906.908 130.223H901.839C901.726 130.223 901.649 130.335 901.689 130.44L904.224 137.025Z" fill="#19191A"/>
<path d="M894.637 128.214C894.689 128.077 894.882 128.077 894.935 128.214L897.47 134.799C897.51 134.904 897.433 135.017 897.321 135.017H892.251C892.139 135.017 892.062 134.904 892.102 134.799L894.637 128.214Z" fill="#19191A"/>
<rect x="877.211" y="107.055" width="28.761" height="9.58699" fill="#D9D9D9" stroke="black" stroke-width="3.19567"/>
<rect x="878.808" y="118.24" width="25.5653" height="9.587" rx="3.19567" fill="#747578"/>
<rect x="877.211" y="148.598" width="28.761" height="9.58699" fill="#D9D9D9" stroke="black" stroke-width="3.19567"/>
<rect x="878.808" y="137.413" width="25.5653" height="9.587" rx="3.19567" fill="#747578"/>
<rect x="914.76" y="90.2771" width="49.5328" height="84.6851" rx="0.798916" fill="#5B5C5E" stroke="#BDBFC4" stroke-width="1.59783"/>
<rect x="914.759" y="122.235" width="49.5328" height="20.7718" fill="#171818" stroke="#BDBFC4" stroke-width="1.59783"/>
<rect x="917.955" y="125.43" width="43.1415" height="14.3805" fill="#B9BBC0" stroke="#BDBFC4" stroke-width="1.59783"/>
<rect x="915.558" y="129.424" width="3.19566" height="6.39133" fill="#19191A"/>
<rect x="960.297" y="129.424" width="3.19566" height="6.39133" fill="#19191A"/>
<path d="M923.398 128.214C923.45 128.077 923.644 128.077 923.696 128.214L926.231 134.8C926.271 134.904 926.194 135.017 926.082 135.017H921.012C920.9 135.017 920.823 134.904 920.863 134.8L923.398 128.214Z" fill="#19191A"/>
<path d="M932.986 137.025C933.038 137.162 933.231 137.162 933.284 137.025L935.819 130.44C935.859 130.335 935.782 130.223 935.669 130.223H930.6C930.488 130.223 930.41 130.335 930.451 130.44L932.986 137.025Z" fill="#19191A"/>
<path d="M952.16 137.025C952.212 137.162 952.405 137.162 952.458 137.025L954.993 130.44C955.033 130.335 954.956 130.223 954.844 130.223H949.774C949.662 130.223 949.584 130.335 949.625 130.44L952.16 137.025Z" fill="#19191A"/>
<path d="M942.572 128.214C942.624 128.077 942.818 128.077 942.87 128.214L945.405 134.8C945.445 134.904 945.368 135.017 945.256 135.017H940.186C940.074 135.017 939.997 134.904 940.037 134.8L942.572 128.214Z" fill="#19191A"/>
<rect x="925.146" y="107.055" width="28.761" height="9.58699" fill="#D9D9D9" stroke="black" stroke-width="3.19567"/>
<rect x="926.744" y="118.24" width="25.5653" height="9.587" rx="3.19567" fill="#747578"/>
<rect x="925.146" y="148.599" width="28.761" height="9.58699" fill="#D9D9D9" stroke="black" stroke-width="3.19567"/>
<rect x="926.744" y="137.413" width="25.5653" height="9.587" rx="3.19567" fill="#747578"/>
<rect x="962.694" y="90.2771" width="49.5328" height="84.6851" rx="0.798916" fill="#5B5C5E" stroke="#BDBFC4" stroke-width="1.59783"/>
<rect x="962.695" y="122.235" width="49.5328" height="20.7718" fill="#171818" stroke="#BDBFC4" stroke-width="1.59783"/>
<rect x="965.89" y="125.43" width="43.1415" height="14.3805" fill="#B9BBC0" stroke="#BDBFC4" stroke-width="1.59783"/>
<rect x="963.493" y="129.424" width="3.19566" height="6.39133" fill="#19191A"/>
<rect x="1008.23" y="129.424" width="3.19566" height="6.39133" fill="#19191A"/>
<path d="M971.334 128.214C971.386 128.078 971.579 128.078 971.632 128.214L974.167 134.8C974.207 134.905 974.13 135.017 974.018 135.017H968.948C968.836 135.017 968.759 134.905 968.799 134.8L971.334 128.214Z" fill="#19191A"/>
<path d="M980.921 137.026C980.974 137.162 981.167 137.162 981.22 137.026L983.754 130.44C983.795 130.336 983.717 130.223 983.605 130.223H978.536C978.423 130.223 978.346 130.336 978.386 130.44L980.921 137.026Z" fill="#19191A"/>
<path d="M1000.1 137.026C1000.15 137.162 1000.34 137.162 1000.39 137.026L1002.93 130.44C1002.97 130.336 1002.89 130.223 1002.78 130.223H997.71C997.598 130.223 997.52 130.336 997.561 130.44L1000.1 137.026Z" fill="#19191A"/>
<path d="M990.508 128.214C990.56 128.078 990.753 128.078 990.806 128.214L993.341 134.8C993.381 134.905 993.304 135.017 993.192 135.017H988.122C988.01 135.017 987.933 134.905 987.973 134.8L990.508 128.214Z" fill="#19191A"/>
<rect x="973.081" y="107.055" width="28.761" height="9.58699" fill="#D9D9D9" stroke="black" stroke-width="3.19567"/>
<rect x="974.679" y="118.24" width="25.5653" height="9.587" rx="3.19567" fill="#747578"/>
<rect x="973.081" y="148.599" width="28.761" height="9.58699" fill="#D9D9D9" stroke="black" stroke-width="3.19567"/>
<rect x="974.679" y="137.413" width="25.5653" height="9.587" rx="3.19567" fill="#747578"/>
<rect x="1010.63" y="90.2771" width="49.5328" height="84.6851" rx="0.798916" fill="#5B5C5E" stroke="#BDBFC4" stroke-width="1.59783"/>
<rect x="1010.63" y="122.235" width="49.5328" height="20.7718" fill="#171818" stroke="#BDBFC4" stroke-width="1.59783"/>
<rect x="1013.83" y="125.43" width="43.1415" height="14.3805" fill="#B9BBC0" stroke="#BDBFC4" stroke-width="1.59783"/>
<rect x="1011.43" y="129.424" width="3.19566" height="6.39133" fill="#19191A"/>
<rect x="1056.17" y="129.424" width="3.19566" height="6.39133" fill="#19191A"/>
<path d="M1019.27 128.214C1019.32 128.077 1019.51 128.077 1019.57 128.214L1022.1 134.8C1022.14 134.904 1022.06 135.017 1021.95 135.017H1016.88C1016.77 135.017 1016.69 134.904 1016.73 134.8L1019.27 128.214Z" fill="#19191A"/>
<path d="M1028.86 137.025C1028.91 137.162 1029.1 137.162 1029.15 137.025L1031.69 130.44C1031.73 130.335 1031.65 130.223 1031.54 130.223H1026.47C1026.36 130.223 1026.28 130.335 1026.32 130.44L1028.86 137.025Z" fill="#19191A"/>
<path d="M1048.03 137.025C1048.08 137.162 1048.28 137.162 1048.33 137.025L1050.86 130.44C1050.9 130.335 1050.83 130.223 1050.71 130.223H1045.64C1045.53 130.223 1045.46 130.335 1045.5 130.44L1048.03 137.025Z" fill="#19191A"/>
<path d="M1038.44 128.214C1038.5 128.077 1038.69 128.077 1038.74 128.214L1041.28 134.8C1041.32 134.904 1041.24 135.017 1041.13 135.017H1036.06C1035.95 135.017 1035.87 134.904 1035.91 134.8L1038.44 128.214Z" fill="#19191A"/>
<rect x="1021.02" y="107.055" width="28.761" height="9.58699" fill="#D9D9D9" stroke="black" stroke-width="3.19567"/>
<rect x="1022.61" y="118.24" width="25.5653" height="9.587" rx="3.19567" fill="#747578"/>
<rect x="1021.02" y="148.599" width="28.761" height="9.58699" fill="#D9D9D9" stroke="black" stroke-width="3.19567"/>
<rect x="1022.61" y="137.413" width="25.5653" height="9.587" rx="3.19567" fill="#747578"/>
<circle cx="546.458" cy="57.5215" r="9.587" fill="#131313"/>
<circle cx="568.827" cy="57.5215" r="9.587" fill="#131313"/>
<circle cx="591.197" cy="57.5215" r="9.587" fill="#131313"/>
<circle cx="613.567" cy="57.5214" r="9.587" fill="#131313"/>
<circle cx="635.936" cy="57.5214" r="9.587" fill="#131313"/>
<circle cx="658.306" cy="57.5214" r="9.587" fill="#131313"/>
<circle cx="680.676" cy="57.5214" r="9.587" fill="#131313"/>
<circle cx="703.045" cy="57.5214" r="9.587" fill="#131313"/>
<circle cx="725.415" cy="57.5215" r="9.587" fill="#131313"/>
<circle cx="747.784" cy="57.5214" r="9.587" fill="#131313"/>
<circle cx="770.154" cy="57.5215" r="9.587" fill="#131313"/>
<circle cx="792.524" cy="57.5215" r="9.587" fill="#131313"/>
<circle cx="814.893" cy="57.5215" r="9.587" fill="#131313"/>
<circle cx="837.263" cy="57.5215" r="9.587" fill="#131313"/>
<circle cx="859.633" cy="57.5215" r="9.587" fill="#131313"/>
<circle cx="882.003" cy="57.5215" r="9.587" fill="#131313"/>
<circle cx="904.372" cy="57.5215" r="9.587" fill="#131313"/>
<circle cx="926.742" cy="57.5215" r="9.587" fill="#131313"/>
<circle cx="949.111" cy="57.5215" r="9.587" fill="#131313"/>
<circle cx="971.481" cy="57.5215" r="9.587" fill="#131313"/>
<circle cx="993.851" cy="57.5215" r="9.587" fill="#131313"/>
<circle cx="1016.22" cy="57.5215" r="9.587" fill="#131313"/>
<circle cx="1038.59" cy="57.5215" r="9.587" fill="#131313"/>
<circle cx="1060.96" cy="57.5215" r="9.587" fill="#131313"/>
<circle cx="1083.33" cy="57.5215" r="9.587" fill="#131313"/>
<circle cx="1307.03" cy="57.5215" r="9.587" fill="#131313"/>
<circle cx="1329.4" cy="57.5214" r="9.587" fill="#131313"/>
<circle cx="1351.77" cy="57.5214" r="9.587" fill="#131313"/>
<circle cx="1374.14" cy="57.5214" r="9.587" fill="#131313"/>
<circle cx="1396.51" cy="57.5214" r="9.587" fill="#131313"/>
<circle cx="1418.87" cy="57.5214" r="9.587" fill="#131313"/>
<circle cx="1441.24" cy="57.5214" r="9.587" fill="#131313"/>
<circle cx="1463.61" cy="57.5214" r="9.587" fill="#131313"/>
<circle cx="1485.98" cy="57.5215" r="9.587" fill="#131313"/>
<circle cx="1508.35" cy="57.5215" r="9.587" fill="#131313"/>
<circle cx="1530.72" cy="57.5215" r="9.587" fill="#131313"/>
<circle cx="1553.09" cy="57.5215" r="9.587" fill="#131313"/>
<rect x="1283.86" y="155.789" width="132.62" height="39.9458" stroke="black" stroke-width="1.59783"/>
<circle cx="1361.35" cy="166.174" r="9.587" fill="#131313"/>
<circle cx="1361.35" cy="185.348" r="9.587" fill="#131313"/>
<circle cx="1406.09" cy="166.174" r="9.587" fill="#131313"/>
<circle cx="1406.09" cy="185.348" r="9.587" fill="#131313"/>
<circle cx="1383.72" cy="166.174" r="9.587" fill="#131313"/>
<circle cx="1383.72" cy="185.348" r="9.587" fill="#131313"/>
<rect x="1310.22" y="172.565" width="12.7827" height="9.587" fill="#747578"/>
<rect x="1284.66" y="172.566" width="12.7827" height="9.587" fill="#747578"/>
<circle cx="1522.73" cy="196.534" r="7.98916" fill="#131313"/>
</svg>
