<svg width="19" height="19" viewBox="0 0 19 19" fill="none" xmlns="http://www.w3.org/2000/svg">
<path d="M5.5 0.5V3.5C5.5 4.03043 5.28929 4.53914 4.91421 4.91421C4.53914 5.28929 4.03043 5.5 3.5 5.5H0.5M18.5 5.5H15.5C14.9696 5.5 14.4609 5.28929 14.0858 4.91421C13.7107 4.53914 13.5 4.03043 13.5 3.5V0.5M13.5 18.5V15.5C13.5 14.9696 13.7107 14.4609 14.0858 14.0858C14.4609 13.7107 14.9696 13.5 15.5 13.5H18.5M0.5 13.5H3.5C4.03043 13.5 4.53914 13.7107 4.91421 14.0858C5.28929 14.4609 5.5 14.9696 5.5 15.5V18.5" stroke="#040D17" stroke-linecap="round" stroke-linejoin="round"/>
</svg>
