<svg width="15" height="15" viewBox="0 0 15 15" fill="none" xmlns="http://www.w3.org/2000/svg">
<path d="M9.99526 2.38558C11.5574 3.94768 11.5574 6.48034 9.99526 8.04243M4.33839 8.04243C2.77629 6.48034 2.77629 3.94768 4.33839 2.38558M2.40569 9.8807C-0.150779 7.27362 -0.135135 3.08776 2.45262 0.5M11.881 0.5C14.4688 3.08776 14.4844 7.27362 11.9279 9.8807M7.16681 9.8807V5.21403M2.50015 13.8807H11.8335C12.4547 13.8807 12.7654 13.8807 13.0104 13.7792C13.3371 13.6439 13.5967 13.3843 13.732 13.0576C13.8335 12.8126 13.8335 12.502 13.8335 11.8807C13.8335 11.2594 13.8335 10.9488 13.732 10.7038C13.5967 10.3771 13.3371 10.1175 13.0104 9.98219C12.7654 9.8807 12.4547 9.8807 11.8335 9.8807H2.50015C1.87889 9.8807 1.56826 9.8807 1.32324 9.98219C0.996532 10.1175 0.736967 10.3771 0.601641 10.7038C0.500147 10.9488 0.500147 11.2594 0.500147 11.8807C0.500147 12.502 0.500147 12.8126 0.601641 13.0576C0.736967 13.3843 0.996532 13.6439 1.32324 13.7792C1.56826 13.8807 1.87889 13.8807 2.50015 13.8807Z" stroke="#434A51" stroke-linecap="round" stroke-linejoin="round"/>
</svg>
