<svg width="18" height="18" viewBox="0 0 18 18" fill="none" xmlns="http://www.w3.org/2000/svg">
<path d="M9 0C4.0372 0 0 4.0372 0 9C0 13.9628 4.0372 18 9 18C13.9628 18 18 13.9628 18 9C18 4.0372 13.9628 0 9 0Z" fill="#E85454"/>
<path d="M12.3143 11.2529C12.6075 11.5462 12.6075 12.0202 12.3143 12.3135C12.1681 12.4598 11.9761 12.5332 11.784 12.5332C11.592 12.5332 11.4 12.4598 11.2537 12.3135L9.00002 10.0597L6.74631 12.3135C6.60006 12.4598 6.40807 12.5332 6.21608 12.5332C6.02396 12.5332 5.83197 12.4598 5.68572 12.3135C5.39252 12.0202 5.39252 11.5462 5.68572 11.2529L7.93956 8.9992L5.68572 6.74549C5.39252 6.45215 5.39252 5.97823 5.68572 5.68489C5.97905 5.3917 6.45298 5.3917 6.74631 5.68489L9.00002 7.93874L11.2537 5.68489C11.5471 5.3917 12.021 5.3917 12.3143 5.68489C12.6075 5.97823 12.6075 6.45215 12.3143 6.74549L10.0605 8.9992L12.3143 11.2529Z" fill="#FAFAFA"/>
</svg>
