<svg width="19" height="18" viewBox="0 0 19 18" fill="none" xmlns="http://www.w3.org/2000/svg">
<path fill-rule="evenodd" clip-rule="evenodd" d="M9.44977 1.30662e-07H9.55022C11.4738 -8.64983e-06 12.9846 -1.74016e-05 14.1642 0.158567C15.3729 0.321085 16.332 0.660925 17.0856 1.41446C17.8391 2.168 18.1789 3.12706 18.3414 4.33582C18.5 5.51541 18.5 7.02625 18.5 8.94977V9.05022C18.5 10.9738 18.5 12.4846 18.3414 13.6642C18.1789 14.8729 17.8391 15.832 17.0856 16.5856C16.332 17.3391 15.3729 17.6789 14.1642 17.8414C12.9846 18 11.4738 18 9.55022 18H9.44977C7.52625 18 6.01541 18 4.83582 17.8414C3.62706 17.6789 2.668 17.3391 1.91446 16.5856C1.16092 15.832 0.821085 14.8729 0.658567 13.6642C0.499983 12.4846 0.499991 10.9738 0.5 9.05022V8.94977C0.499991 7.02625 0.499983 5.51541 0.658567 4.33582C0.821085 3.12706 1.16092 2.168 1.91446 1.41446C2.668 0.660925 3.62706 0.321085 4.83582 0.158567C6.01541 -1.74016e-05 7.52625 -8.64983e-06 9.44977 1.30662e-07ZM5.01133 1.4639C3.9486 1.60678 3.31381 1.87773 2.84577 2.34577C2.37773 2.81381 2.10678 3.4486 1.9639 4.51133C1.81847 5.59299 1.81707 7.01529 1.81707 9C1.81707 10.9847 1.81847 12.407 1.9639 13.4887C2.10678 14.5514 2.37773 15.1862 2.84577 15.6542C3.31381 16.1223 3.9486 16.3933 5.01133 16.5361C6.09299 16.6815 7.51529 16.6829 9.5 16.6829C11.4847 16.6829 12.907 16.6815 13.9887 16.5361C15.0514 16.3933 15.6862 16.1223 16.1542 15.6542C16.6223 15.1862 16.8933 14.5514 17.0361 13.4887C17.1815 12.407 17.1829 10.9847 17.1829 9C17.1829 7.01529 17.1815 5.59299 17.0361 4.51133C16.8933 3.4486 16.6223 2.81381 16.1542 2.34577C15.6862 1.87773 15.0514 1.60678 13.9887 1.4639C12.907 1.31847 11.4847 1.31707 9.5 1.31707C7.51529 1.31707 6.09299 1.31847 5.01133 1.4639Z" fill="#262626"/>
<path fill-rule="evenodd" clip-rule="evenodd" d="M7.55889 7.09395C7.38885 7.0343 7.1688 7.02519 6.40084 7.02519C6.03714 7.02519 5.7423 6.73035 5.7423 6.36665C5.7423 6.00295 6.03714 5.70811 6.40084 5.70811C6.43685 5.70811 6.47237 5.70809 6.5074 5.70806C7.11876 5.70759 7.58476 5.70724 7.99495 5.85116C8.22886 5.93323 8.44925 6.05051 8.64295 6.2018C8.99978 6.48051 9.1926 6.87559 9.40597 7.31292C9.42019 7.34199 9.43442 7.37122 9.44882 7.40064L9.63944 7.78944C9.97284 7.39625 10.3248 7.01396 10.6975 6.69169C11.3292 6.14549 12.0912 5.70811 13.012 5.70811C13.3757 5.70811 13.6706 6.00295 13.6706 6.36665C13.6706 6.73035 13.3757 7.02519 13.012 7.02519C12.5351 7.02519 12.0697 7.24637 11.559 7.68794C11.127 8.06146 10.7137 8.54693 10.2757 9.08737L10.7335 10.0213C11.0162 10.5981 11.0794 10.693 11.1674 10.7618C11.24 10.8184 11.3318 10.8694 11.4408 10.9077C11.6108 10.9673 11.8309 10.9764 12.5988 10.9764C12.9625 10.9764 13.2574 11.2713 13.2574 11.6349C13.2574 11.9986 12.9625 12.2935 12.5988 12.2935C12.5628 12.2935 12.5273 12.2935 12.4923 12.2936C11.8809 12.294 11.4149 12.2944 11.0047 12.1504C10.7708 12.0683 10.5504 11.951 10.3567 11.7998C9.99988 11.5211 9.80706 11.126 9.5937 10.6887C9.57947 10.6596 9.56525 10.6304 9.55085 10.601L9.36022 10.2122C9.02683 10.6053 8.67482 10.9876 8.30217 11.3099C7.67048 11.8561 6.90844 12.2935 5.98764 12.2935C5.62394 12.2935 5.3291 11.9986 5.3291 11.6349C5.3291 11.2713 5.62394 10.9764 5.98764 10.9764C6.46455 10.9764 6.92998 10.7552 7.44068 10.3137C7.87263 9.94013 8.28593 9.45466 8.72399 8.91422L8.26617 7.98033C7.98344 7.40354 7.92031 7.30862 7.83224 7.23978C7.75972 7.18314 7.66787 7.13219 7.55889 7.09395Z" fill="#262626"/>
</svg>
