<svg width="13" height="13" viewBox="0 0 13 13" fill="none" xmlns="http://www.w3.org/2000/svg">
<path d="M9.83346 4.49996C9.83345 4.15874 9.70327 3.81753 9.44293 3.55719C9.18258 3.29684 8.84135 3.16667 8.50012 3.16667M8.50012 8.5C10.7093 8.5 12.5001 6.70914 12.5001 4.5C12.5001 2.29086 10.7093 0.5 8.50012 0.5C6.29098 0.5 4.50012 2.29086 4.50012 4.5C4.50012 4.68245 4.51234 4.86205 4.536 5.03802C4.57491 5.32745 4.59436 5.47217 4.58127 5.56373C4.56762 5.6591 4.55026 5.7105 4.50325 5.7946C4.45812 5.87533 4.3786 5.95486 4.21954 6.11391L0.812542 9.52091C0.69724 9.63622 0.63959 9.69387 0.598362 9.76114C0.561809 9.82079 0.534873 9.88582 0.518542 9.95385C0.500122 10.0306 0.500122 10.1121 0.500122 10.2752V11.4333C0.500122 11.8067 0.500122 11.9934 0.572784 12.136C0.6367 12.2614 0.738687 12.3634 0.864128 12.4273C1.00674 12.5 1.19342 12.5 1.56679 12.5H3.16679V11.1667H4.50012V9.83333H5.83346L6.88621 8.78058C7.04526 8.62153 7.12479 8.542 7.20552 8.49687C7.28962 8.44987 7.34102 8.4325 7.4364 8.41886C7.52795 8.40576 7.67267 8.42522 7.9621 8.46413C8.13807 8.48778 8.31767 8.5 8.50012 8.5Z" stroke="#434A51" stroke-linecap="round" stroke-linejoin="round"/>
</svg>
