<svg width="13" height="14" viewBox="0 0 13 14" fill="none" xmlns="http://www.w3.org/2000/svg">
<path d="M4.16667 6.83333C4.16667 6.83333 5.04167 7.83333 6.5 7.83333C7.95833 7.83333 8.83333 6.83333 8.83333 6.83333M8.33333 3.5H8.34M4.66667 3.5H4.67333M3.16667 10.5V12.057C3.16667 12.4122 3.16667 12.5898 3.23949 12.6811C3.30282 12.7604 3.39885 12.8066 3.50036 12.8065C3.61708 12.8063 3.75578 12.6954 4.03317 12.4735L5.62348 11.2012C5.94834 10.9413 6.11078 10.8114 6.29166 10.719C6.45213 10.637 6.62295 10.5771 6.79948 10.5408C6.99845 10.5 7.20646 10.5 7.6225 10.5H9.3C10.4201 10.5 10.9802 10.5 11.408 10.282C11.7843 10.0903 12.0903 9.7843 12.282 9.40798C12.5 8.98016 12.5 8.4201 12.5 7.3V3.7C12.5 2.57989 12.5 2.01984 12.282 1.59202C12.0903 1.21569 11.7843 0.909734 11.408 0.717987C10.9802 0.5 10.4201 0.5 9.3 0.5H3.7C2.5799 0.5 2.01984 0.5 1.59202 0.717987C1.21569 0.909734 0.909734 1.21569 0.717987 1.59202C0.5 2.01984 0.5 2.57989 0.5 3.7V7.83333C0.5 8.45331 0.5 8.7633 0.568148 9.01764C0.753083 9.70782 1.29218 10.2469 1.98236 10.4319C2.2367 10.5 2.54669 10.5 3.16667 10.5ZM8.66667 3.5C8.66667 3.68409 8.51743 3.83333 8.33333 3.83333C8.14924 3.83333 8 3.68409 8 3.5C8 3.3159 8.14924 3.16667 8.33333 3.16667C8.51743 3.16667 8.66667 3.3159 8.66667 3.5ZM5 3.5C5 3.68409 4.85076 3.83333 4.66667 3.83333C4.48257 3.83333 4.33333 3.68409 4.33333 3.5C4.33333 3.3159 4.48257 3.16667 4.66667 3.16667C4.85076 3.16667 5 3.3159 5 3.5Z" stroke="#434A51" stroke-linecap="round" stroke-linejoin="round"/>
</svg>
