<svg width="15" height="15" viewBox="0 0 15 15" fill="none" xmlns="http://www.w3.org/2000/svg">
<path d="M5.22667 5.16667C5.3834 4.72111 5.69277 4.3454 6.09997 4.10609C6.50717 3.86677 6.98593 3.77929 7.45145 3.85914C7.91697 3.93899 8.33921 4.18102 8.64338 4.54235C8.94756 4.90369 9.11404 5.36101 9.11333 5.83333C9.11333 7.16667 7.11333 7.83333 7.11333 7.83333M7.16667 10.5H7.17333M13.8333 7.16667C13.8333 10.8486 10.8486 13.8333 7.16667 13.8333C3.48477 13.8333 0.5 10.8486 0.5 7.16667C0.5 3.48477 3.48477 0.5 7.16667 0.5C10.8486 0.5 13.8333 3.48477 13.8333 7.16667Z" stroke="#434A51" stroke-linecap="round" stroke-linejoin="round"/>
</svg>
