<svg width="13" height="15" viewBox="0 0 13 15" fill="none" xmlns="http://www.w3.org/2000/svg">
<path d="M11.1667 7.5V3.7C11.1667 2.57989 11.1667 2.01984 10.9487 1.59202C10.7569 1.21569 10.451 0.909734 10.0746 0.717987C9.64682 0.5 9.08677 0.5 7.96667 0.5H3.7C2.57989 0.5 2.01984 0.5 1.59202 0.717987C1.21569 0.909734 0.909734 1.21569 0.717987 1.59202C0.5 2.01984 0.5 2.57989 0.5 3.7V10.6333C0.5 11.7534 0.5 12.3135 0.717987 12.7413C0.909734 13.1176 1.21569 13.4236 1.59202 13.6153C2.01984 13.8333 2.57989 13.8333 3.7 13.8333H5.83333M7.16667 6.5H3.16667M4.5 9.16667H3.16667M8.5 3.83333H3.16667M7.5 11.8333L8.83333 13.1667L11.8333 10.1667" stroke="#434A51" stroke-linecap="round" stroke-linejoin="round"/>
</svg>
