<svg width="13" height="15" viewBox="0 0 13 15" fill="none" xmlns="http://www.w3.org/2000/svg">
<path d="M4.56214 13.1667C5.03223 13.5816 5.64972 13.8333 6.32602 13.8333C7.00232 13.8333 7.61982 13.5816 8.0899 13.1667M10.326 4.5C10.326 3.43913 9.90459 2.42172 9.15445 1.67157C8.4043 0.921427 7.38689 0.5 6.32602 0.5C5.26516 0.5 4.24774 0.921427 3.49759 1.67157C2.74745 2.42172 2.32602 3.43913 2.32602 4.5C2.32602 6.56012 1.80633 7.97064 1.2258 8.90361C0.736106 9.69058 0.49126 10.0841 0.500238 10.1938C0.510179 10.3154 0.535928 10.3617 0.633872 10.4344C0.722327 10.5 1.12108 10.5 1.91859 10.5H10.7335C11.531 10.5 11.9297 10.5 12.0182 10.4344C12.1161 10.3617 12.1419 10.3154 12.1518 10.1938C12.1608 10.0841 11.9159 9.69058 11.4262 8.90361C10.8457 7.97064 10.326 6.56012 10.326 4.5Z" stroke="#434A51" stroke-linecap="round" stroke-linejoin="round"/>
</svg>
