<svg width="16" height="16" viewBox="0 0 16 16" fill="none" xmlns="http://www.w3.org/2000/svg">
<path d="M2 4.66675L10 4.66675M10 4.66675C10 5.77132 10.8954 6.66675 12 6.66675C13.1046 6.66675 14 5.77132 14 4.66675C14 3.56218 13.1046 2.66675 12 2.66675C10.8954 2.66675 10 3.56218 10 4.66675ZM6 10.0001L14 10.0001M6 10.0001C6 11.1047 5.10457 12.0001 4 12.0001C2.89543 12.0001 2 11.1047 2 10.0001C2 8.89551 2.89543 8.00008 4 8.00008C5.10457 8.00008 6 8.89551 6 10.0001Z" stroke="#434A51" stroke-linecap="round" stroke-linejoin="round"/>
</svg>
