<svg width="13" height="15" viewBox="0 0 13 15" fill="none" xmlns="http://www.w3.org/2000/svg">
<path d="M9.16667 3.16667V2.63333C9.16667 1.8866 9.16667 1.51323 9.02134 1.22801C8.89351 0.97713 8.68954 0.773156 8.43865 0.645325C8.15344 0.5 7.78007 0.5 7.03333 0.5H5.96667C5.21993 0.5 4.84656 0.5 4.56135 0.645325C4.31046 0.773156 4.10649 0.97713 3.97866 1.22801C3.83333 1.51323 3.83333 1.8866 3.83333 2.63333V3.16667M5.16667 6.83333V10.1667M7.83333 6.83333V10.1667M0.5 3.16667H12.5M11.1667 3.16667V10.6333C11.1667 11.7534 11.1667 12.3135 10.9487 12.7413C10.7569 13.1176 10.451 13.4236 10.0746 13.6153C9.64682 13.8333 9.08677 13.8333 7.96667 13.8333H5.03333C3.91323 13.8333 3.35318 13.8333 2.92535 13.6153C2.54903 13.4236 2.24307 13.1176 2.05132 12.7413C1.83333 12.3135 1.83333 11.7534 1.83333 10.6333V3.16667" stroke="#434A51" stroke-linecap="round" stroke-linejoin="round"/>
</svg>
