<svg width="15" height="14" viewBox="0 0 15 14" fill="none" xmlns="http://www.w3.org/2000/svg">
<path d="M14.0833 12.75V11.4167C14.0833 10.1741 13.2335 9.13004 12.0833 8.83401M9.75 0.943839C10.7273 1.33943 11.4167 2.29754 11.4167 3.41667C11.4167 4.53579 10.7273 5.4939 9.75 5.88949M10.75 12.75C10.75 11.5075 10.75 10.8862 10.547 10.3962C10.2764 9.74277 9.75723 9.22364 9.10382 8.95299C8.61377 8.75 7.99251 8.75 6.75 8.75H4.75C3.50749 8.75 2.88623 8.75 2.39618 8.95299C1.74277 9.22364 1.22364 9.74277 0.952988 10.3962C0.75 10.8862 0.75 11.5075 0.75 12.75M8.41667 3.41667C8.41667 4.88943 7.22276 6.08333 5.75 6.08333C4.27724 6.08333 3.08333 4.88943 3.08333 3.41667C3.08333 1.94391 4.27724 0.75 5.75 0.75C7.22276 0.75 8.41667 1.94391 8.41667 3.41667Z" stroke="#134075" stroke-width="1.5" stroke-linecap="round" stroke-linejoin="round"/>
</svg>
