<svg width="15" height="14" viewBox="0 0 15 14" fill="none" xmlns="http://www.w3.org/2000/svg">
<path d="M4.41667 6.08333H2.48333C2.10996 6.08333 1.92328 6.08333 1.78067 6.156C1.65523 6.21991 1.55324 6.3219 1.48933 6.44734C1.41667 6.58995 1.41667 6.77663 1.41667 7.15V12.75M10.4167 6.08333H12.35C12.7234 6.08333 12.9101 6.08333 13.0527 6.156C13.1781 6.21991 13.2801 6.3219 13.344 6.44734C13.4167 6.58995 13.4167 6.77663 13.4167 7.15V12.75M10.4167 12.75V2.88333C10.4167 2.1366 10.4167 1.76323 10.2713 1.47801C10.1435 1.22713 9.93954 1.02316 9.68865 0.895325C9.40344 0.75 9.03007 0.75 8.28333 0.75H6.55C5.80326 0.75 5.42989 0.75 5.14468 0.895325C4.8938 1.02316 4.68982 1.22713 4.56199 1.47801C4.41667 1.76323 4.41667 2.1366 4.41667 2.88333V12.75M14.0833 12.75H0.75M6.75 3.41667H8.08333M6.75 6.08333H8.08333M6.75 8.75H8.08333" stroke="#134075" stroke-width="1.5" stroke-linecap="round" stroke-linejoin="round"/>
</svg>
