<svg width="24" height="24" viewBox="0 0 24 24" fill="none" xmlns="http://www.w3.org/2000/svg">
<path d="M12 8.25C12.9665 8.25 13.75 9.0335 13.75 10C13.75 10.9665 12.9665 11.75 12 11.75C11.0335 11.75 10.25 10.9665 10.25 10C10.25 9.0335 11.0335 8.25 12 8.25Z" stroke="#F7FAFE" stroke-width="1.5" stroke-linecap="round" stroke-linejoin="round"/>
<path d="M16.0364 11.6364C15.9638 11.8009 15.9421 11.9834 15.9742 12.1603C16.0063 12.3373 16.0906 12.5005 16.2164 12.6291L16.2491 12.6618C16.3505 12.7631 16.431 12.8834 16.4859 13.0159C16.5408 13.1483 16.569 13.2903 16.569 13.4336C16.569 13.577 16.5408 13.719 16.4859 13.8514C16.431 13.9838 16.3505 14.1041 16.2491 14.2055C16.1478 14.3069 16.0275 14.3873 15.895 14.4422C15.7626 14.4971 15.6206 14.5254 15.4773 14.5254C15.3339 14.5254 15.192 14.4971 15.0595 14.4422C14.9271 14.3873 14.8068 14.3069 14.7055 14.2055L14.6727 14.1727C14.5442 14.047 14.3809 13.9626 14.204 13.9305C14.027 13.8985 13.8445 13.9201 13.68 13.9927C13.5187 14.0619 13.3811 14.1767 13.2842 14.323C13.1873 14.4694 13.1352 14.6408 13.1345 14.8164V14.9091C13.1345 15.1984 13.0196 15.4759 12.815 15.6805C12.6104 15.8851 12.333 16 12.0436 16C11.7543 16 11.4768 15.8851 11.2722 15.6805C11.0677 15.4759 10.9527 15.1984 10.9527 14.9091V14.86C10.9485 14.6795 10.8901 14.5044 10.785 14.3575C10.6799 14.2106 10.5331 14.0987 10.3636 14.0364C10.1991 13.9638 10.0166 13.9421 9.83968 13.9742C9.66274 14.0063 9.49946 14.0906 9.37091 14.2164L9.33818 14.2491C9.23687 14.3505 9.11655 14.431 8.98412 14.4859C8.85168 14.5408 8.70973 14.569 8.56636 14.569C8.423 14.569 8.28104 14.5408 8.14861 14.4859C8.01618 14.431 7.89586 14.3505 7.79455 14.2491C7.69312 14.1478 7.61265 14.0275 7.55775 13.895C7.50285 13.7626 7.4746 13.6206 7.4746 13.4773C7.4746 13.3339 7.50285 13.192 7.55775 13.0595C7.61265 12.9271 7.69312 12.8068 7.79455 12.7055L7.82727 12.6727C7.95302 12.5442 8.03737 12.3809 8.06946 12.204C8.10154 12.027 8.07988 11.8445 8.00727 11.68C7.93813 11.5187 7.82332 11.3811 7.67698 11.2842C7.53064 11.1873 7.35916 11.1352 7.18364 11.1345H7.09091C6.80158 11.1345 6.52411 11.0196 6.31952 10.815C6.11493 10.6104 6 10.333 6 10.0436C6 9.75431 6.11493 9.47683 6.31952 9.27225C6.52411 9.06766 6.80158 8.95273 7.09091 8.95273H7.14C7.32054 8.9485 7.49564 8.89006 7.64253 8.78501C7.78941 8.67995 7.9013 8.53313 7.96364 8.36364C8.03624 8.19912 8.0579 8.01662 8.02582 7.83968C7.99374 7.66274 7.90938 7.49946 7.78364 7.37091L7.75091 7.33818C7.64948 7.23687 7.56902 7.11655 7.51412 6.98412C7.45922 6.85168 7.43096 6.70973 7.43096 6.56636C7.43096 6.423 7.45922 6.28104 7.51412 6.14861C7.56902 6.01618 7.64948 5.89586 7.75091 5.79455C7.85223 5.69312 7.97254 5.61265 8.10497 5.55775C8.23741 5.50285 8.37936 5.4746 8.52273 5.4746C8.66609 5.4746 8.80805 5.50285 8.94048 5.55775C9.07291 5.61265 9.19323 5.69312 9.29455 5.79455L9.32727 5.82727C9.45583 5.95302 9.6191 6.03737 9.79604 6.06946C9.97299 6.10154 10.1555 6.07988 10.32 6.00727H10.3636C10.525 5.93813 10.6626 5.82332 10.7595 5.67698C10.8564 5.53064 10.9084 5.35916 10.9091 5.18364V5.09091C10.9091 4.80158 11.024 4.52411 11.2286 4.31952C11.4332 4.11493 11.7107 4 12 4C12.2893 4 12.5668 4.11493 12.7714 4.31952C12.976 4.52411 13.0909 4.80158 13.0909 5.09091V5.14C13.0916 5.31552 13.1436 5.487 13.2405 5.63334C13.3374 5.77969 13.475 5.89449 13.6364 5.96364C13.8009 6.03624 13.9834 6.0579 14.1603 6.02582C14.3373 5.99374 14.5005 5.90938 14.6291 5.78364L14.6618 5.75091C14.7631 5.64948 14.8834 5.56902 15.0159 5.51412C15.1483 5.45922 15.2903 5.43096 15.4336 5.43096C15.577 5.43096 15.719 5.45922 15.8514 5.51412C15.9838 5.56902 16.1041 5.64948 16.2055 5.75091C16.3069 5.85223 16.3873 5.97254 16.4422 6.10497C16.4971 6.23741 16.5254 6.37936 16.5254 6.52273C16.5254 6.66609 16.4971 6.80805 16.4422 6.94048C16.3873 7.07291 16.3069 7.19323 16.2055 7.29455L16.1727 7.32727C16.047 7.45583 15.9626 7.6191 15.9305 7.79604C15.8985 7.97299 15.9201 8.15548 15.9927 8.32V8.36364C16.0619 8.52497 16.1767 8.66255 16.323 8.75947C16.4694 8.85638 16.6408 8.90839 16.8164 8.90909H16.9091C17.1984 8.90909 17.4759 9.02403 17.6805 9.22861C17.8851 9.4332 18 9.71067 18 10C18 10.2893 17.8851 10.5668 17.6805 10.7714C17.4759 10.976 17.1984 11.0909 16.9091 11.0909H16.86C16.6845 11.0916 16.513 11.1436 16.3667 11.2405C16.2203 11.3374 16.1055 11.475 16.0364 11.6364Z" stroke="#F7FAFE" stroke-width="1.7" stroke-linecap="round" stroke-linejoin="round"/>
<path d="M5.33333 14L2 15.75L12 21L22 15.75L18.6667 14" stroke="#F7FAFE" stroke-width="1.7" stroke-linecap="round" stroke-linejoin="round"/>
</svg>
