<svg width="24" height="24" viewBox="0 0 24 24" fill="none" xmlns="http://www.w3.org/2000/svg">
<path d="M9.75 20.7501L11.223 21.5684C11.5066 21.726 11.6484 21.8047 11.7986 21.8356C11.9315 21.863 12.0685 21.863 12.2015 21.8356C12.3516 21.8047 12.4934 21.726 12.777 21.5684L14.25 20.7501M5.25 18.2501L3.82297 17.4573C3.52346 17.2909 3.37368 17.2077 3.26463 17.0893C3.16816 16.9847 3.09515 16.8606 3.05048 16.7254C3 16.5726 3 16.4013 3 16.0586V14.5001M3 9.50009V7.94153C3 7.59889 3 7.42757 3.05048 7.27477C3.09515 7.13959 3.16816 7.01551 3.26463 6.91082C3.37368 6.79248 3.52345 6.70928 3.82297 6.54288L5.25 5.75009M9.75 3.25008L11.223 2.43177C11.5066 2.27421 11.6484 2.19543 11.7986 2.16454C11.9315 2.13721 12.0685 2.13721 12.2015 2.16454M14.25 3.25008L12.777 2.43177C12.4934 2.27421 12.3516 2.19543 12.2015 2.16454M18.75 5.75008L20.177 6.54288C20.4766 6.70928 20.6263 6.79248 20.7354 6.91082C20.8318 7.01551 20.9049 7.13959 20.9495 7.27477C21 7.42757 21 7.59889 21 7.94153V9.50008M21 14.5001V16.0586C21 16.4013 21 16.5726 20.9495 16.7254M18.75 18.2501L20.177 17.4573C20.4766 17.2909 20.6263 17.2077 20.7354 17.0893C20.8318 16.9847 20.9049 16.8606 20.9495 16.7254M20.9495 16.7254L18 15M12.2015 2.16454L12 5.5M3 7.00008L5.25 8.25008M18.75 8.25008L21 7.00008M12 19.5001V22.0001M3.26463 16.7254L6 15" stroke="#F7FAFE" stroke-width="1.73" stroke-linecap="round" stroke-linejoin="round"/>
<path d="M15.2679 15.3819C15.2703 15.2523 15.1978 15.1565 15.053 14.9647C14.3799 14.074 13.3228 13.5 12.134 13.5C10.9452 13.5 9.88803 14.074 9.21498 14.9647C9.07012 15.1565 8.99769 15.2523 9.00006 15.3819M13.8215 10.6875C13.8215 11.6195 13.066 12.375 12.134 12.375C11.202 12.375 10.4465 11.6195 10.4465 10.6875C10.4465 9.75552 11.202 9 12.134 9C13.066 9 13.8215 9.75552 13.8215 10.6875Z" stroke="#F7FAFE" stroke-width="1.73" stroke-linecap="round" stroke-linejoin="round"/>
</svg>
