<svg width="24" height="24" viewBox="0 0 24 24" fill="none" xmlns="http://www.w3.org/2000/svg">
<path d="M12 4H12.003M15 4H15.003M9 4H9.003M7.92 1H16.08C16.7521 1 17.0881 1 17.3448 1.13079C17.5706 1.24584 17.7542 1.42942 17.8692 1.65521C18 1.91191 18 2.24794 18 2.92V5.08C18 5.75206 18 6.08809 17.8692 6.34479C17.7542 6.57058 17.5706 6.75416 17.3448 6.86921C17.0881 7 16.7521 7 16.08 7H12H7.92C7.24794 7 6.91191 7 6.65521 6.86921C6.42942 6.75416 6.24584 6.57058 6.13079 6.34479C6 6.08809 6 5.75206 6 5.08V2.92C6 2.24794 6 1.91191 6.13079 1.65521C6.24584 1.42942 6.42942 1.24584 6.65521 1.13079C6.91191 1 7.24794 1 7.92 1ZM12.15 4C12.15 4.08284 12.0828 4.15 12 4.15C11.9172 4.15 11.85 4.08284 11.85 4C11.85 3.91716 11.9172 3.85 12 3.85C12.0828 3.85 12.15 3.91716 12.15 4ZM15.15 4C15.15 4.08284 15.0828 4.15 15 4.15C14.9172 4.15 14.85 4.08284 14.85 4C14.85 3.91716 14.9172 3.85 15 3.85C15.0828 3.85 15.15 3.91716 15.15 4ZM9.15 4C9.15 4.08284 9.08284 4.15 9 4.15C8.91716 4.15 8.85 4.08284 8.85 4C8.85 3.91716 8.91716 3.85 9 3.85C9.08284 3.85 9.15 3.91716 9.15 4Z" stroke="#F7FAFE" stroke-width="1.73" stroke-linecap="round" stroke-linejoin="round"/>
<rect x="2" y="16.3564" width="4.9505" height="4.9505" rx="1" stroke="#F7FAFE" stroke-width="1.73"/>
<rect x="9.52478" y="16.3564" width="4.9505" height="4.9505" rx="1" stroke="#F7FAFE" stroke-width="1.73"/>
<rect x="17.0495" y="16.1089" width="4.9505" height="4.9505" rx="1" stroke="#F7FAFE" stroke-width="1.73"/>
<path d="M12.3465 7V10.4654M12.3465 12.3466V10.4654M12.3465 10.4654H19.8119C20.3641 10.4654 20.8119 10.9131 20.8119 11.4654V12.3466M12.3465 10.4654H4.88116C4.32888 10.4654 3.88116 10.9131 3.88116 11.4654V12.3466" stroke="#F7FAFE" stroke-width="1.73" stroke-linecap="round" stroke-linejoin="round"/>
</svg>
