<svg width="24" height="24" viewBox="0 0 24 24" fill="none" xmlns="http://www.w3.org/2000/svg">
<g clip-path="url(#clip0_14233_6528)">
<path d="M6.00001 20.0002L11.3709 11.5002M6.00001 20.0002L5.5 6M6.00001 20.0002L19.2052 19.4589M11.3709 11.5002L19.2052 19.4589M11.3709 11.5002L18 7.00016M11.3709 11.5002L5.12366 5.12375M19.2052 19.4589L18 7.00016M18 7.00016L5.50001 4.5" stroke="#F7FAFE" stroke-width="1.73" stroke-linecap="round" stroke-linejoin="round"/>
<path d="M3 5.5C3 4.11929 4.11929 3 5.5 3C6.88071 3 8 4.11929 8 5.5C8 6.88071 6.88071 8 5.5 8C4.11929 8 3 6.88071 3 5.5Z" fill="#F7FAFE" stroke="#92BFF4" stroke-width="1.73"/>
<path d="M11.335 10.5C12.3484 10.5 13.1699 11.3215 13.1699 12.335C13.1699 13.3484 12.3484 14.1699 11.335 14.1699C10.3215 14.1699 9.5 13.3484 9.5 12.335C9.5 11.3215 10.3215 10.5 11.335 10.5Z" fill="#F7FAFE" stroke="#92BFF4" stroke-linecap="round" stroke-linejoin="round"/>
<path d="M14.835 7.33496C14.835 5.95425 15.9542 4.83496 17.335 4.83496C18.7157 4.83496 19.835 5.95425 19.835 7.33496C19.835 8.71567 18.7157 9.83496 17.335 9.83496C15.9542 9.83496 14.835 8.71567 14.835 7.33496Z" fill="#F7FAFE" stroke="#92BFF4" stroke-width="1.73"/>
<path d="M4 18.5C4 17.1193 5.11929 16 6.5 16C7.88071 16 9 17.1193 9 18.5C9 19.8807 7.88071 21 6.5 21C5.11929 21 4 19.8807 4 18.5Z" fill="#F7FAFE" stroke="#92BFF4" stroke-width="1.73"/>
<path d="M15 18.5C15 17.1193 16.1193 16 17.5 16C18.8807 16 20 17.1193 20 18.5C20 19.8807 18.8807 21 17.5 21C16.1193 21 15 19.8807 15 18.5Z" fill="#F7FAFE" stroke="#92BFF4" stroke-width="1.73"/>
</g>
<defs>
<clipPath id="clip0_14233_6528">
<rect width="19" height="20" fill="white" transform="translate(2 2)"/>
</clipPath>
</defs>
</svg>
