<svg width="48" height="48" viewBox="0 0 48 48" fill="none" xmlns="http://www.w3.org/2000/svg">
<rect width="48" height="48" rx="4" fill="#1C60AF"/>
<path d="M22.8561 32.5366H24.9129V38H22.8561V32.5366Z" fill="white"/>
<path d="M30.7405 10H17.0284C16.4605 10 16 10.4587 16 11.0244V38H20.7992V31.5122C20.7992 30.9465 21.2597 30.4878 21.8276 30.4878H25.9413C26.5092 30.4878 26.9697 30.9465 26.9697 31.5122V38H31.7689V11.0244C31.7689 10.4587 31.3085 10 30.7405 10ZM26.6269 28.439H21.142C20.5741 28.439 20.1136 27.9804 20.1136 27.4146C20.1136 26.8489 20.5741 26.3902 21.142 26.3902H26.6269C27.1948 26.3902 27.6553 26.8489 27.6553 27.4146C27.6553 27.9804 27.1948 28.439 26.6269 28.439ZM26.6269 24.3415H21.142C20.5741 24.3415 20.1136 23.8828 20.1136 23.3171C20.1136 22.7513 20.5741 22.2927 21.142 22.2927H26.6269C27.1948 22.2927 27.6553 22.7513 27.6553 23.3171C27.6553 23.8828 27.1948 24.3415 26.6269 24.3415ZM26.6269 20.2439H21.142C20.5741 20.2439 20.1136 19.7852 20.1136 19.2195C20.1136 18.6538 20.5741 18.1951 21.142 18.1951H26.6269C27.1948 18.1951 27.6553 18.6538 27.6553 19.2195C27.6553 19.7852 27.1948 20.2439 26.6269 20.2439ZM26.6269 16.1463H21.142C20.5741 16.1463 20.1136 15.6877 20.1136 15.122C20.1136 14.5562 20.5741 14.0976 21.142 14.0976H26.6269C27.1948 14.0976 27.6553 14.5562 27.6553 15.122C27.6553 15.6877 27.1948 16.1463 26.6269 16.1463Z" fill="white"/>
</svg>
