<svg width="48" height="48" viewBox="0 0 48 48" fill="none" xmlns="http://www.w3.org/2000/svg">
<circle cx="24" cy="24" r="24" fill="#ffffff"/>
<g clip-path="url(#clip0_482_13271)">
<path d="M24 0C37.2548 0 48 10.7452 48 24C48 37.2548 37.2548 48 24 48C10.7452 48 0 37.2548 0 24C0 10.7452 10.7452 0 24 0ZM26.7451 10C24.5953 10 22.6194 10.9793 21.3242 12.6533C20.6088 12.347 19.8375 12.1875 19.0586 12.1875C15.88 12.1876 13.2939 14.7634 13.2939 17.9297C13.2939 18.2654 13.3245 18.6005 13.3848 18.9326C11.4246 19.491 10 21.2953 10 23.3984C10 25.9615 12.0939 28.0469 14.667 28.0469H18.7842V33.3076L16.6143 34.0273C16.1616 33.4504 15.4572 33.0782 14.667 33.0781C13.3047 33.0781 12.1963 34.1821 12.1963 35.5391C12.1963 36.896 13.3047 38 14.667 38C16.014 37.9998 17.1114 36.9202 17.1357 35.584L19.8682 34.6768C20.2044 34.565 20.4316 34.2516 20.4316 33.8984V28.0469H23.1768V33.2188C22.2181 33.5576 21.5293 34.4697 21.5293 35.5391C21.5293 36.896 22.6377 38 24 38C25.3623 38 26.4707 36.896 26.4707 35.5391C26.4707 34.4697 25.7819 33.5576 24.8232 33.2188V28.0469H27.5684V33.8984C27.5684 34.2516 27.7956 34.565 28.1318 34.6768L30.8643 35.584C30.8886 36.9202 31.986 37.9998 33.333 38C34.6953 38 35.8037 36.896 35.8037 35.5391C35.8037 34.1821 34.6953 33.0781 33.333 33.0781C32.5428 33.0782 31.8384 33.4504 31.3857 34.0273L29.2158 33.3076V28.0469H32.2354C35.4141 28.0468 38 25.471 38 22.3047C38 20.8765 37.4702 19.5076 36.5078 18.4502C35.7285 17.5939 34.7182 16.997 33.6074 16.7266C33.5486 13.0074 30.4927 10 26.7451 10ZM14.667 34.7188C15.1217 34.7189 15.4902 35.0861 15.4902 35.5391C15.4902 35.9921 15.1217 36.3592 14.667 36.3594C14.2121 36.3594 13.8428 35.9922 13.8428 35.5391C13.8428 35.086 14.2121 34.7188 14.667 34.7188ZM24 34.7188C24.4549 34.7188 24.8232 35.086 24.8232 35.5391C24.8232 35.9922 24.4549 36.3594 24 36.3594C23.5451 36.3594 23.1768 35.9922 23.1768 35.5391C23.1768 35.086 23.5451 34.7188 24 34.7188ZM33.333 34.7188C33.7879 34.7188 34.1572 35.086 34.1572 35.5391C34.1572 35.9922 33.7879 36.3594 33.333 36.3594C32.8783 36.3592 32.5098 35.9921 32.5098 35.5391C32.5098 35.0861 32.8783 34.7189 33.333 34.7188Z" fill="#1C60AF"/>
</g>
<defs>
<clipPath id="clip0_482_13271">
<rect width="48" height="48" fill="white"/>
</clipPath>
</defs>
</svg>
