<svg width="48" height="48" viewBox="0 0 48 48" fill="none" xmlns="http://www.w3.org/2000/svg">
<circle cx="24" cy="24" r="24" fill="#ffffff"/>
<g clip-path="url(#clip0_482_13265)">
<path d="M24 0C37.2548 0 48 10.7452 48 24C48 37.2548 37.2548 48 24 48C10.7452 48 0 37.2548 0 24C0 10.7452 10.7452 0 24 0ZM20.25 13.7676C16.1147 13.7676 12.7502 17.1323 12.75 21.2676C12.75 21.2932 12.75 21.3201 12.751 21.3457C10.0933 21.7934 8.00014 24.1104 8 26.8926C8 29.9944 10.5857 32.5176 13.6875 32.5176H34.3125C37.4143 32.5176 40 29.9944 40 26.8926C39.9999 24.0868 37.8731 21.7554 35.1836 21.335C34.7633 18.6451 32.4311 16.5801 29.625 16.5801C28.5694 16.5801 27.5546 16.8722 26.6748 17.417C25.3363 15.1677 22.9269 13.7676 20.25 13.7676Z" fill="#1C60AF"/>
</g>
<defs>
<clipPath id="clip0_482_13265">
<rect width="48" height="48" fill="white"/>
</clipPath>
</defs>
</svg>
