<svg width="48" height="48" viewBox="0 0 48 48" fill="none" xmlns="http://www.w3.org/2000/svg">
<rect width="48" height="48" rx="4" fill="#1C60AF"/>
<g clip-path="url(#clip0_697_1061)">
<path d="M39.9993 22.418C39.9993 19.6182 37.9326 17.2771 35.2444 16.8508C35.0129 15.5063 34.3606 14.272 33.3618 13.3118C32.157 12.1533 30.5728 11.5154 28.9009 11.5154C28.1621 11.5154 27.4265 11.6438 26.7334 11.8911C25.2756 9.50122 22.6494 8 19.812 8C15.3455 8 11.7114 11.634 11.7114 16.1006C11.7114 16.4336 11.7319 16.7666 11.7727 17.0964C9.53955 17.8721 8 19.98 8 22.418C8 25.5264 10.5291 28.0554 13.6375 28.0554H14.0664C15.4641 23.9099 19.3889 20.9165 23.9995 20.9165C28.6104 20.9165 32.5352 23.9099 33.9329 28.0554H34.3618C37.4702 28.0554 39.9993 25.5266 39.9993 22.418Z" fill="white"/>
<path d="M19.4319 31.3958C19.4319 30.6379 19.4656 29.8923 19.5288 29.1682H15.6885C15.4978 29.8789 15.3955 30.6255 15.3955 31.3958C15.3955 32.1638 15.4971 32.9084 15.6868 33.6177H19.5283C19.4653 32.8955 19.4319 32.1519 19.4319 31.3958Z" fill="white"/>
<path d="M28.5674 31.3958C28.5674 32.1519 28.5339 32.8955 28.4709 33.6177H32.3125C32.5022 32.9084 32.6038 32.1638 32.6038 31.3958C32.6038 30.6257 32.5015 29.8789 32.3108 29.1682H28.4702C28.5337 29.8921 28.5674 30.6379 28.5674 31.3958Z" fill="white"/>
<path d="M19.7698 35.4927H16.4348C17.4204 37.3052 19.0388 38.7258 20.9912 39.4568C20.8372 39.155 20.6924 38.8271 20.5576 38.4731C20.2229 37.5933 19.9585 36.584 19.7698 35.4927Z" fill="white"/>
<path d="M26.6924 31.3958C26.6924 30.6335 26.6575 29.8867 26.5896 29.1682H21.4097C21.3418 29.8867 21.3069 30.6335 21.3069 31.3958C21.3069 32.156 21.3416 32.9009 21.4092 33.6177H26.5901C26.6577 32.9009 26.6924 32.156 26.6924 31.3958Z" fill="white"/>
<path d="M28.2295 35.4927C28.0408 36.584 27.7764 37.5935 27.4417 38.4731C27.3069 38.8271 27.1621 39.155 27.0081 39.4568C28.9604 38.7258 30.5789 37.3054 31.5645 35.4927H28.2295Z" fill="white"/>
<path d="M25.6892 37.8062C25.9502 37.1201 26.1631 36.3389 26.3252 35.4924H21.6741C21.8362 36.3389 22.0491 37.1201 22.3101 37.8062C22.7256 38.8982 23.4092 40 23.9995 40C24.425 40 25.1125 39.3215 25.6892 37.8062Z" fill="white"/>
<path d="M22.3101 24.9854C22.0496 25.6699 21.8372 26.4492 21.6753 27.2932H26.3242C26.1621 26.4492 25.9497 25.6699 25.6892 24.9854C25.2739 23.8933 24.5903 22.7915 23.9998 22.7915C23.574 22.7915 22.8865 23.47 22.3101 24.9854Z" fill="white"/>
<path d="M28.2285 27.2932H31.5613C30.5752 25.4834 28.9583 24.0649 27.0078 23.3347C27.1619 23.6365 27.3069 23.9646 27.4417 24.3186C27.7756 25.1968 28.0396 26.2039 28.2285 27.2932Z" fill="white"/>
<path d="M16.438 27.2932H19.7708C19.9595 26.2039 20.2236 25.1965 20.5576 24.3186C20.6924 23.9644 20.8374 23.6365 20.9912 23.3347C19.041 24.0649 17.4241 25.4834 16.438 27.2932Z" fill="white"/>
</g>
<defs>
<clipPath id="clip0_697_1061">
<rect width="32" height="32" fill="white" transform="translate(8 8)"/>
</clipPath>
</defs>
</svg>
