<svg width="48" height="48" viewBox="0 0 48 48" fill="none" xmlns="http://www.w3.org/2000/svg">
<rect width="48" height="48" rx="4" fill="#1C60AF"/>
<path d="M24.0571 24.4848C17.4617 24.4848 12.1143 23.1825 12.1143 21.5757V28.3636C12.1143 29.9704 17.4617 31.2727 24.0571 31.2727C30.6526 31.2727 36 29.9704 36 28.3636V21.5757C36 23.1825 30.6526 24.4848 24.0571 24.4848ZM15.5976 28.3636C14.7736 28.3636 14.1048 27.712 14.1048 26.9091C14.1048 26.1062 14.7736 25.4545 15.5976 25.4545C16.4217 25.4545 17.0905 26.1062 17.0905 26.9091C17.0905 27.712 16.4217 28.3636 15.5976 28.3636Z" fill="white"/>
<path d="M24.0571 13.8182C30.653 13.8182 36 12.5157 36 10.9091C36 9.30244 30.653 8 24.0571 8C17.4613 8 12.1143 9.30244 12.1143 10.9091C12.1143 12.5157 17.4613 13.8182 24.0571 13.8182Z" fill="white"/>
<path d="M24.0571 15.7576C17.4617 15.7576 12.1143 14.4553 12.1143 12.8485V19.6363C12.1143 21.2431 17.4617 22.5454 24.0571 22.5454C30.6526 22.5454 36 21.2431 36 19.6363V12.8485C36 14.4553 30.6526 15.7576 24.0571 15.7576ZM15.5976 19.6363C14.7736 19.6363 14.1048 18.9847 14.1048 18.1818C14.1048 17.3789 14.7736 16.7273 15.5976 16.7273C16.4217 16.7273 17.0905 17.3789 17.0905 18.1818C17.0905 18.9847 16.4217 19.6363 15.5976 19.6363Z" fill="white"/>
<path d="M23.9429 33.2121C17.3475 33.2121 12 31.9098 12 30.303V37.0909C12 38.6977 17.3475 40 23.9429 40C30.5383 40 35.8858 38.6977 35.8858 37.0909V30.303C35.8858 31.9098 30.5383 33.2121 23.9429 33.2121ZM15.4834 37.0909C14.6593 37.0909 13.9905 36.4393 13.9905 35.6364C13.9905 34.8335 14.6593 34.1818 15.4834 34.1818C16.3074 34.1818 16.9762 34.8335 16.9762 35.6364C16.9762 36.4393 16.3074 37.0909 15.4834 37.0909Z" fill="white"/>
</svg>
