<svg width="48" height="48" viewBox="0 0 48 48" fill="none" xmlns="http://www.w3.org/2000/svg">
<rect width="48" height="48" rx="4" fill="#1C60AF"/>
<path d="M10 15.3846C10 12.3118 14.7896 10 21.147 10C27.5044 10 32.294 12.3118 32.294 15.3846C32.294 18.4574 27.5044 20.7692 21.147 20.7692C14.7896 20.7692 10 18.4574 10 15.3846ZM20.96 28.6667C21.4103 26.2735 22.7515 24.1393 24.714 22.6933C23.5311 22.8456 22.3397 22.9223 21.147 22.9231C16.2567 22.9231 12.2869 21.7169 10 19.7354V23.4974C10.0815 23.6527 10.1258 23.8247 10.1294 24C10.1294 26.1682 14.7465 28.6236 20.96 28.6667ZM20.8018 30.8205C16.0985 30.8205 12.1719 29.4995 10 27.561V32.6154C10 35.6882 14.7896 38 21.147 38C22.1572 37.9998 23.1662 37.9326 24.1675 37.799C23.154 36.931 22.3318 35.8627 21.7525 34.6617C21.1732 33.4606 20.8495 32.1527 20.8018 30.8205ZM32.9412 26.8718C32.8993 27.0066 32.8847 27.1484 32.8982 27.2889C32.9118 27.4294 32.9533 27.5658 33.0202 27.6901C33.0872 27.8144 33.1783 27.9241 33.2882 28.0129C33.3981 28.1017 33.5246 28.1678 33.6604 28.2072L35.9329 28.8964C36.038 28.9101 36.1443 28.9101 36.2494 28.8964C36.4822 28.8941 36.7082 28.8177 36.8945 28.6782C37.0808 28.5387 37.2176 28.3435 37.2849 28.121L37.9753 25.8523C38.0322 25.5912 37.9899 25.3184 37.8565 25.0867C37.7232 24.8551 37.5083 24.6812 37.2537 24.5989C36.9991 24.5165 36.7229 24.5316 36.4788 24.6412C36.2347 24.7508 36.0402 24.947 35.9329 25.1918C34.8191 24.0418 33.3678 23.2753 31.7888 23.0032C30.2098 22.7311 28.5851 22.9674 27.1495 23.6781C25.714 24.3887 24.5421 25.5369 23.8034 26.9564C23.0647 28.3759 22.7975 29.9931 23.0403 31.5743C23.2832 33.1555 24.0235 34.6185 25.1543 35.7518C26.2852 36.8852 27.7478 37.63 29.3306 37.8786C30.9135 38.1272 32.5346 37.8667 33.9593 37.1348C35.3841 36.4029 36.5387 35.2375 37.2562 33.8072C37.3219 33.6815 37.3614 33.5438 37.3722 33.4024C37.3831 33.2611 37.3652 33.119 37.3194 32.9848C37.2737 32.8505 37.2012 32.727 37.1063 32.6215C37.0113 32.5161 36.896 32.4309 36.7671 32.3713C36.6409 32.3077 36.5031 32.2699 36.362 32.2601C36.2209 32.2503 36.0793 32.2686 35.9454 32.3141C35.8115 32.3595 35.688 32.4312 35.5821 32.5248C35.4762 32.6185 35.3901 32.7322 35.3288 32.8595C34.8375 33.8547 34.0511 34.6747 33.0764 35.2078C32.1017 35.7409 30.9862 35.9613 29.8815 35.839C28.7769 35.7167 27.7369 35.2576 26.9029 34.5241C26.069 33.7907 25.4816 32.8186 25.2208 31.7401C24.9599 30.6616 25.0383 29.529 25.4451 28.4965C25.8519 27.464 26.5676 26.5817 27.4946 25.9697C28.4216 25.3576 29.5149 25.0456 30.6259 25.076C31.7369 25.1064 32.8115 25.4777 33.7035 26.1395C33.5248 26.1872 33.361 26.2794 33.2277 26.4074C33.0944 26.5355 32.9958 26.6953 32.9412 26.8718Z" fill="white"/>
</svg>
