<svg width="16" height="16" viewBox="0 0 16 16" fill="none" xmlns="http://www.w3.org/2000/svg">
<path d="M7.99967 1.99967H10.7997C11.9198 1.99967 12.4798 1.99967 12.9077 2.21766C13.284 2.40941 13.5899 2.71537 13.7817 3.09169C13.9997 3.51952 13.9997 4.07957 13.9997 5.19967V10.7997C13.9997 11.9198 13.9997 12.4798 13.7817 12.9077C13.5899 13.284 13.284 13.5899 12.9077 13.7817C12.4798 13.9997 11.9198 13.9997 10.7997 13.9997H5.19967C4.07957 13.9997 3.51952 13.9997 3.09169 13.7817C2.71537 13.5899 2.40941 13.284 2.21766 12.9077C1.99967 12.4798 1.99967 11.9198 1.99967 10.7997V7.99967M5.33301 8.66634V11.333M10.6663 7.33301V11.333M7.99967 4.66634V11.333M5.33301 3.33301L3.33301 1.33301L1.33301 3.33301M3.33301 1.33301L3.33301 5.33301" stroke="#040D17" stroke-linecap="round" stroke-linejoin="round"/>
</svg>
