<svg width="48" height="48" viewBox="0 0 48 48" fill="none" xmlns="http://www.w3.org/2000/svg">
<circle cx="24" cy="24" r="24" fill="#ffffff"/>
<path d="M24 0C37.2548 0 48 10.7452 48 24C48 37.2548 37.2548 48 24 48C10.7452 48 0 37.2548 0 24C0 10.7452 10.7452 0 24 0ZM24.665 10.1689C24.3265 9.94342 23.8854 9.9434 23.5469 10.1689C20.2126 12.3913 15.9016 12.3913 12.5674 10.1689C12.2583 9.96358 11.8603 9.9439 11.5322 10.1191C11.2048 10.2944 11.0001 10.6365 11 11.0078V25.6279C11.0001 33.2289 16.4423 39.6535 23.9395 40.9033C23.9944 40.9125 24.0504 40.917 24.1055 40.917C24.1607 40.917 24.2173 40.9125 24.2725 40.9033C31.7696 39.6535 37.2118 33.2288 37.2119 25.6279V11.0078C37.2119 10.6365 37.0071 10.2944 36.6797 10.1191C36.3529 9.94399 35.9549 9.96362 35.6445 10.1689C32.3103 12.3913 27.9993 12.3913 24.665 10.1689ZM24.5371 16.0488C24.818 20.5429 32.6133 23.0289 29.8594 29.4951C28.8342 31.9007 26.3746 33.5166 23.7393 33.5166C21.413 33.5165 19.301 32.332 18.0898 30.3467C15.9357 26.8143 17.7908 22.3043 20.1318 21.2705L22.0068 22.9707C21.9161 20.5634 21.3485 17.4366 24.5371 16.0488Z" fill="#1C60AF"/>
</svg>
