<svg width="48" height="48" viewBox="0 0 48 48" fill="none" xmlns="http://www.w3.org/2000/svg">
<rect width="48" height="48" rx="4" fill="#1C60AF"/>
<path d="M23.1213 35H25.0037V40H23.1213V35Z" fill="white"/>
<path d="M30.337 14.375H17.788C17.2682 14.375 16.8468 14.7947 16.8468 15.3125V40H21.239V34.0625C21.239 33.5448 21.6604 33.125 22.1801 33.125H25.9448C26.4646 33.125 26.886 33.5448 26.886 34.0625V40H31.2782V15.3125C31.2782 14.7947 30.8568 14.375 30.337 14.375ZM26.5723 31.25H21.5527C21.0329 31.25 20.6115 30.8302 20.6115 30.3125C20.6115 29.7948 21.0329 29.375 21.5527 29.375H26.5723C27.0921 29.375 27.5135 29.7948 27.5135 30.3125C27.5135 30.8302 27.0921 31.25 26.5723 31.25ZM26.5723 27.5H21.5527C21.0329 27.5 20.6115 27.0802 20.6115 26.5625C20.6115 26.0448 21.0329 25.625 21.5527 25.625H26.5723C27.0921 25.625 27.5135 26.0448 27.5135 26.5625C27.5135 27.0802 27.0921 27.5 26.5723 27.5ZM26.5723 23.75H21.5527C21.0329 23.75 20.6115 23.3302 20.6115 22.8125C20.6115 22.2948 21.0329 21.875 21.5527 21.875H26.5723C27.0921 21.875 27.5135 22.2948 27.5135 22.8125C27.5135 23.3302 27.0921 23.75 26.5723 23.75ZM26.5723 20H21.5527C21.0329 20 20.6115 19.5802 20.6115 19.0625C20.6115 18.5448 21.0329 18.125 21.5527 18.125H26.5723C27.0921 18.125 27.5135 18.5448 27.5135 19.0625C27.5135 19.5802 27.0921 20 26.5723 20Z" fill="white"/>
<path d="M39.1213 38.125H38.8076V19.375H39.1213C39.6411 19.375 40.0625 18.9553 40.0625 18.4375C40.0625 17.9197 39.6411 17.5 39.1213 17.5H33.1605V40H39.1213C39.6411 40 40.0625 39.5802 40.0625 39.0625C40.0625 38.5448 39.6411 38.125 39.1213 38.125ZM36.9252 35.3125C36.9252 35.8302 36.5038 36.25 35.9841 36.25C35.4643 36.25 35.0429 35.8302 35.0429 35.3125V33.4375C35.0429 32.9198 35.4643 32.5 35.9841 32.5C36.5038 32.5 36.9252 32.9198 36.9252 33.4375V35.3125ZM36.9252 29.6875C36.9252 30.2052 36.5038 30.625 35.9841 30.625C35.4643 30.625 35.0429 30.2052 35.0429 29.6875V27.8125C35.0429 27.2948 35.4643 26.875 35.9841 26.875C36.5038 26.875 36.9252 27.2948 36.9252 27.8125V29.6875ZM36.9252 24.0625C36.9252 24.5802 36.5038 25 35.9841 25C35.4643 25 35.0429 24.5802 35.0429 24.0625V22.1875C35.0429 21.6698 35.4643 21.25 35.9841 21.25C36.5038 21.25 36.9252 21.6698 36.9252 22.1875V24.0625Z" fill="white"/>
<path d="M8.0625 18.4375C8.0625 18.9553 8.4839 19.375 9.00368 19.375H9.3174V38.125H9.00368C8.4839 38.125 8.0625 38.5448 8.0625 39.0625C8.0625 39.5802 8.4839 40 9.00368 40H14.9645V17.5H9.00368C8.4839 17.5 8.0625 17.9197 8.0625 18.4375ZM11.1998 22.1875C11.1998 21.6698 11.6212 21.25 12.1409 21.25C12.6607 21.25 13.0821 21.6698 13.0821 22.1875V24.0625C13.0821 24.5802 12.6607 25 12.1409 25C11.6212 25 11.1998 24.5802 11.1998 24.0625V22.1875ZM11.1998 27.8125C11.1998 27.2948 11.6212 26.875 12.1409 26.875C12.6607 26.875 13.0821 27.2948 13.0821 27.8125V29.6875C13.0821 30.2052 12.6607 30.625 12.1409 30.625C11.6212 30.625 11.1998 30.2052 11.1998 29.6875V27.8125ZM11.1998 33.4375C11.1998 32.9198 11.6212 32.5 12.1409 32.5C12.6607 32.5 13.0821 32.9198 13.0821 33.4375V35.3125C13.0821 35.8302 12.6607 36.25 12.1409 36.25C11.6212 36.25 11.1998 35.8302 11.1998 35.3125V33.4375Z" fill="white"/>
<path d="M28.7683 11.5625C28.7683 11.0447 28.3469 10.625 27.8272 10.625H25.0036V8.9375C25.0036 8.41975 24.5822 8 24.0624 8C23.5427 8 23.1213 8.41975 23.1213 8.9375V10.625H20.2977C19.778 10.625 19.3566 11.0447 19.3566 11.5625V12.5H28.7683V11.5625Z" fill="white"/>
</svg>
