<svg width="48" height="48" viewBox="0 0 48 48" fill="none" xmlns="http://www.w3.org/2000/svg">
<g clip-path="url(#clip0_482_13357)">
<path d="M24 0C37.2548 0 48 10.7452 48 24C48 37.2548 37.2548 48 24 48C10.7452 48 0 37.2548 0 24C0 10.7452 10.7452 0 24 0ZM13.8613 31.1416C13.368 31.1416 12.8947 31.3377 12.5459 31.6875C12.196 32.0363 12 32.5095 12 33.0029V36.1934C12 36.6868 12.1961 37.16 12.5459 37.5088C12.8947 37.8585 13.368 38.0547 13.8613 38.0547H33.0029C33.4963 38.0547 33.9696 37.8586 34.3184 37.5088C34.6682 37.16 34.8642 36.6868 34.8643 36.1934V33.0029C34.8643 32.5095 34.6682 32.0363 34.3184 31.6875C33.9696 31.3376 33.4964 31.1416 33.0029 31.1416H13.8613ZM16.5195 33.5342C17.1064 33.5342 17.5828 34.0108 17.583 34.5977C17.583 35.1847 17.1066 35.6611 16.5195 35.6611C15.9326 35.6611 15.4561 35.1846 15.4561 34.5977C15.4563 34.0109 15.9327 33.5342 16.5195 33.5342ZM20.2412 33.5342C20.8281 33.5342 21.3045 34.0108 21.3047 34.5977C21.3047 35.1847 20.8282 35.6611 20.2412 35.6611C19.6544 35.6609 19.1777 35.1845 19.1777 34.5977C19.178 34.011 19.6545 33.5344 20.2412 33.5342ZM31.4082 33.8008C31.8481 33.801 32.2048 34.1577 32.2051 34.5977C32.2051 35.0378 31.8483 35.3953 31.4082 35.3955H28.2178C27.7775 35.3955 27.4199 35.0379 27.4199 34.5977C27.4202 34.1576 27.7777 33.8008 28.2178 33.8008H31.4082ZM13.8613 21.5713C13.368 21.5713 12.8947 21.7665 12.5459 22.1162C12.1961 22.4649 12.0001 22.9383 12 23.4316V26.6221C12 27.1155 12.196 27.5887 12.5459 27.9375C12.8947 28.2873 13.3679 28.4834 13.8613 28.4834H33.0029C33.4964 28.4834 33.9696 28.2874 34.3184 27.9375C34.6682 27.5887 34.8643 27.1155 34.8643 26.6221V23.4316C34.8642 22.9383 34.6682 22.4649 34.3184 22.1162C33.9696 21.7664 33.4963 21.5713 33.0029 21.5713H13.8613ZM16.5195 23.9639C17.1066 23.9639 17.583 24.4403 17.583 25.0273C17.5829 25.6143 17.1065 26.0908 16.5195 26.0908C15.9326 26.0908 15.4562 25.6142 15.4561 25.0273C15.4561 24.4404 15.9326 23.9639 16.5195 23.9639ZM20.2412 23.9639C20.8282 23.9639 21.3047 24.4403 21.3047 25.0273C21.3046 25.6143 20.8282 26.0908 20.2412 26.0908C19.6545 26.0906 19.1778 25.6141 19.1777 25.0273C19.1777 24.4405 19.6544 23.9641 20.2412 23.9639ZM31.4082 24.2295C31.8483 24.2297 32.2051 24.5872 32.2051 25.0273C32.205 25.4674 31.8482 25.825 31.4082 25.8252H28.2178C27.7776 25.8252 27.42 25.4675 27.4199 25.0273C27.4199 24.5871 27.7775 24.2295 28.2178 24.2295H31.4082ZM13.8613 12C13.3679 12 12.8947 12.196 12.5459 12.5459C12.196 12.8947 12 13.3679 12 13.8613V17.0518C12.0001 17.545 12.1961 18.0185 12.5459 18.3672C12.8947 18.7168 13.3681 18.9121 13.8613 18.9121H33.0029C33.4963 18.9121 33.9696 18.7169 34.3184 18.3672C34.6681 18.0185 34.8641 17.545 34.8643 17.0518V13.8613C34.8643 13.368 34.6681 12.8947 34.3184 12.5459C33.9696 12.196 33.4964 12 33.0029 12H13.8613ZM16.5195 14.3926C17.1065 14.3926 17.5829 14.8691 17.583 15.4561C17.583 16.0431 17.1066 16.5195 16.5195 16.5195C15.9326 16.5195 15.4561 16.043 15.4561 15.4561C15.4561 14.8691 15.9326 14.3926 16.5195 14.3926ZM20.2412 14.3926C20.8282 14.3926 21.3046 14.8691 21.3047 15.4561C21.3047 16.0431 20.8282 16.5195 20.2412 16.5195C19.6544 16.5193 19.1777 16.0429 19.1777 15.4561C19.1778 14.8692 19.6544 14.3928 20.2412 14.3926ZM31.4082 14.6582C31.8482 14.6584 32.205 15.016 32.2051 15.4561C32.2051 15.8962 31.8483 16.2537 31.4082 16.2539H28.2178C27.7775 16.2539 27.4199 15.8963 27.4199 15.4561C27.42 15.0158 27.7775 14.6582 28.2178 14.6582H31.4082Z" fill="#1C60AF"/>
</g>
<defs>
<clipPath id="clip0_482_13357">
<rect width="48" height="48" fill="white"/>
</clipPath>
</defs>
</svg>
