<svg width="36" height="36" viewBox="0 0 36 36" fill="none" xmlns="http://www.w3.org/2000/svg">
<g filter="url(#filter0_d_813_24084)">
<path d="M2 1H30C32.2091 1 34 2.79086 34 5V29C34 31.2091 32.2091 33 30 33H2V1Z" fill="white"/>
<path d="M30 1.5C31.933 1.5 33.5 3.067 33.5 5V29C33.5 30.933 31.933 32.5 30 32.5H2.5V1.5H30Z" stroke="#DADBDC"/>
<g clip-path="url(#clip0_813_24084)">
<path d="M19.3335 23.6666H14.5335M14.5335 23.6666C13.4134 23.6666 12.8533 23.6666 12.4255 23.4486C12.0492 23.2569 11.7432 22.9509 11.5515 22.5746C11.3335 22.1467 11.3335 21.5867 11.3335 20.4666M14.5335 23.6666H14.8002C15.9203 23.6666 16.4803 23.6666 16.9081 23.4486C17.2845 23.2569 17.5904 22.9509 17.7822 22.5746C18.0002 22.1467 18.0002 21.5867 18.0002 20.4666V20.1999C18.0002 19.0798 18.0002 18.5198 17.7822 18.0919C17.5904 17.7156 17.2845 17.4097 16.9081 17.2179C16.4803 16.9999 15.9203 16.9999 14.8002 16.9999H14.5335C13.4134 16.9999 12.8533 16.9999 12.4255 17.2179C12.0492 17.4097 11.7432 17.7156 11.5515 18.0919C11.3335 18.5198 11.3335 19.0798 11.3335 20.1999V20.4666M11.3335 20.4666V15.6666M16.6668 10.3333H19.3335M24.6668 15.6666V18.3333M22.0002 23.6666C22.6201 23.6666 22.9301 23.6666 23.1845 23.5984C23.8747 23.4135 24.4137 22.8744 24.5987 22.1842C24.6668 21.9299 24.6668 21.6199 24.6668 20.9999M24.6668 12.9999C24.6668 12.3799 24.6668 12.0699 24.5987 11.8156C24.4137 11.1254 23.8747 10.5863 23.1845 10.4014C22.9301 10.3333 22.6201 10.3333 22.0002 10.3333M14.0002 10.3333C13.3802 10.3333 13.0702 10.3333 12.8159 10.4014C12.1257 10.5863 11.5866 11.1254 11.4016 11.8156C11.3335 12.0699 11.3335 12.3799 11.3335 12.9999" stroke="#434A51" stroke-width="1.2" stroke-linecap="round" stroke-linejoin="round"/>
</g>
</g>
<defs>
<filter id="filter0_d_813_24084" x="0" y="0" width="36" height="36" filterUnits="userSpaceOnUse" color-interpolation-filters="sRGB">
<feFlood flood-opacity="0" result="BackgroundImageFix"/>
<feColorMatrix in="SourceAlpha" type="matrix" values="0 0 0 0 0 0 0 0 0 0 0 0 0 0 0 0 0 0 127 0" result="hardAlpha"/>
<feOffset dy="1"/>
<feGaussianBlur stdDeviation="1"/>
<feColorMatrix type="matrix" values="0 0 0 0 0.0392157 0 0 0 0 0.0496732 0 0 0 0 0.0705882 0 0 0 0.05 0"/>
<feBlend mode="normal" in2="BackgroundImageFix" result="effect1_dropShadow_813_24084"/>
<feBlend mode="normal" in="SourceGraphic" in2="effect1_dropShadow_813_24084" result="shape"/>
</filter>
<clipPath id="clip0_813_24084">
<rect width="16" height="16" fill="white" transform="translate(10 9)"/>
</clipPath>
</defs>
</svg>
