<svg width="16" height="16" viewBox="0 0 16 16" fill="none" xmlns="http://www.w3.org/2000/svg">
<g clip-path="url(#clip0_1599_6416)">
<path d="M10.8283 3.17171C12.3904 4.73381 12.3904 7.26647 10.8283 8.82857M5.1714 8.82857C3.6093 7.26647 3.6093 4.73381 5.1714 3.17171M3.2387 10.6668C0.682229 8.05975 0.697873 3.87389 3.28563 1.28613M12.714 1.28613C15.3018 3.87389 15.3174 8.05975 12.7609 10.6668M7.99982 10.6668V6.00016M3.33316 14.6668H12.6665C13.2877 14.6668 13.5984 14.6668 13.8434 14.5653C14.1701 14.43 14.4297 14.1704 14.565 13.8437C14.6665 13.5987 14.6665 13.2881 14.6665 12.6668C14.6665 12.0456 14.6665 11.7349 14.565 11.4899C14.4297 11.1632 14.1701 10.9036 13.8434 10.7683C13.5984 10.6668 13.2877 10.6668 12.6665 10.6668H3.33316C2.7119 10.6668 2.40127 10.6668 2.15624 10.7683C1.82954 10.9036 1.56997 11.1632 1.43465 11.4899C1.33316 11.7349 1.33316 12.0456 1.33316 12.6668C1.33316 13.2881 1.33316 13.5987 1.43465 13.8437C1.56997 14.1704 1.82954 14.43 2.15624 14.5653C2.40127 14.6668 2.7119 14.6668 3.33316 14.6668Z" stroke="#BF7200" stroke-linecap="round" stroke-linejoin="round"/>
</g>
<defs>
<clipPath id="clip0_1599_6416">
<rect width="16" height="16" fill="white"/>
</clipPath>
</defs>
</svg>
