<svg width="48" height="48" viewBox="0 0 48 48" fill="none" xmlns="http://www.w3.org/2000/svg">
<rect width="48" height="48" rx="4" fill="#1C60AF"/>
<g clip-path="url(#clip0_697_1044)">
<path d="M35.9549 17.994L33.9549 13.694C33.8469 13.397 33.5659 13.2 33.2499 13.2H14.7499C14.4339 13.2 14.1529 13.397 14.0449 13.694L12.0449 17.994C11.9619 18.224 11.9949 18.48 12.1359 18.681C12.2759 18.881 12.5049 19 12.7499 19H13.9999V34.9999C13.9999 35.5519 14.4479 36 14.9999 36H16.9999V24H30.9999V36H32.9999C33.5519 36 33.9999 35.5519 33.9999 34.9999V19H35.2499C35.4949 19 35.7239 18.881 35.8639 18.68C36.0049 18.48 36.0379 18.224 35.9549 17.994Z" fill="white"/>
<path d="M18.5 33.5H29.5V36H18.5V33.5Z" fill="white"/>
<path d="M18.5 29.5H29.5V32H18.5V29.5Z" fill="white"/>
<path d="M18.5 25.5H29.5V28H18.5V25.5Z" fill="white"/>
</g>
<defs>
<clipPath id="clip0_697_1044">
<rect width="24" height="24" fill="white" transform="translate(12 12)"/>
</clipPath>
</defs>
</svg>
