<svg width="48" height="48" viewBox="0 0 48 48" fill="none" xmlns="http://www.w3.org/2000/svg">
<circle cx="24" cy="24" r="24" fill="#ffffff"/>
<path d="M24 0C37.2548 0 48 10.7452 48 24C48 37.2548 37.2548 48 24 48C10.7452 48 0 37.2548 0 24C0 10.7452 10.7452 0 24 0ZM24.6934 27.6064C24.2561 27.1665 23.8334 27.6521 23.8281 27.6582L18.6719 33.8916C18.6572 33.9055 17.8959 34.6325 18.7354 34.6328H21.6426V43.7061C21.6391 43.7198 21.5374 44.1455 22.1953 44.1455H26.2861C26.759 44.1455 26.7551 43.7897 26.7549 43.7783V34.8154H29.4385C30.4691 34.8154 29.6934 34.042 29.6934 34.042C29.673 34.015 25.3028 28.2159 24.6934 27.6064ZM34.9688 18.417C34.9686 17.391 34.2028 18.1517 34.1924 18.1621C34.1924 18.1621 28.368 22.551 27.7568 23.1621C27.311 23.6051 27.8066 24.0312 27.8066 24.0312L34.0391 29.1865C34.0391 29.1865 34.7832 29.9713 34.7832 29.123V26.2168H43.8564C43.8649 26.2189 44.2967 26.323 44.2969 25.6641V21.5732C44.2998 21.0907 43.9331 21.1015 43.9316 21.1016H34.9688C34.9688 21.1016 34.9688 19.4534 34.9688 18.417ZM14.1035 18.1621C14.0847 18.1434 13.3312 17.3969 13.3311 18.417V21.1016H4.36719C4.35245 21.1013 4 21.0998 4 21.5703V25.6611C4.00015 26.3266 4.44043 26.2139 4.44043 26.2139H13.5127V29.1201C13.5127 29.9684 14.2539 29.1836 14.2539 29.1836L20.4873 24.0283C20.4947 24.0298 20.99 23.6043 20.542 23.1621C19.9295 22.5501 14.1035 18.1621 14.1035 18.1621ZM22.1982 4C21.5295 4 21.6455 4.44043 21.6455 4.44043V13.5127C21.6455 13.5127 19.5894 13.5127 18.7383 13.5127C17.8971 13.5129 18.655 14.2379 18.6719 14.2539L23.8281 20.4873C23.8281 20.4873 24.2504 20.9849 24.6934 20.5391C25.3042 19.9282 29.6963 14.1035 29.6963 14.1035C29.7031 14.0967 30.4704 13.3311 29.4414 13.3311H26.7578V4.36719C26.7581 4.35235 26.7594 4.00006 26.2891 4H22.1982Z" fill="#1C60AF"/>
</svg>
