<svg width="16" height="16" viewBox="0 0 16 16" fill="none" xmlns="http://www.w3.org/2000/svg">
<g clip-path="url(#clip0_813_24086)">
<path d="M9.3335 14.6666H4.5335M4.5335 14.6666C3.41339 14.6666 2.85334 14.6666 2.42552 14.4486C2.04919 14.2569 1.74323 13.9509 1.55148 13.5746C1.3335 13.1467 1.3335 12.5867 1.3335 11.4666M4.5335 14.6666H4.80016C5.92027 14.6666 6.48032 14.6666 6.90814 14.4486C7.28447 14.2569 7.59043 13.9509 7.78218 13.5746C8.00016 13.1467 8.00016 12.5867 8.00016 11.4666V11.1999C8.00016 10.0798 8.00016 9.51976 7.78218 9.09194C7.59043 8.71561 7.28447 8.40965 6.90814 8.21791C6.48032 7.99992 5.92027 7.99992 4.80016 7.99992H4.5335C3.41339 7.99992 2.85334 7.99992 2.42552 8.21791C2.04919 8.40965 1.74323 8.71561 1.55148 9.09194C1.3335 9.51976 1.3335 10.0798 1.3335 11.1999V11.4666M1.3335 11.4666V6.66658M6.66683 1.33325H9.3335M14.6668 6.66658V9.33325M12.0002 14.6666C12.6201 14.6666 12.9301 14.6666 13.1845 14.5984C13.8747 14.4135 14.4137 13.8744 14.5987 13.1842C14.6668 12.9299 14.6668 12.6199 14.6668 11.9999M14.6668 3.99992C14.6668 3.37994 14.6668 3.06995 14.5987 2.81561C14.4137 2.12543 13.8747 1.58633 13.1845 1.4014C12.9301 1.33325 12.6201 1.33325 12.0002 1.33325M4.00016 1.33325C3.38018 1.33325 3.07019 1.33325 2.81586 1.4014C2.12567 1.58633 1.58658 2.12543 1.40164 2.81561C1.3335 3.06995 1.3335 3.37994 1.3335 3.99992" stroke="#434A51" stroke-width="1.2" stroke-linecap="round" stroke-linejoin="round"/>
</g>
<defs>
<clipPath id="clip0_813_24086">
<rect width="16" height="16" fill="white"/>
</clipPath>
</defs>
</svg>
