<svg xmlns="http://www.w3.org/2000/svg" width="300" height="300" viewBox="0 0 300 300">
<g>
<path d="M 170.00 289.50 L 170.00 296.00 L 132.06 296.00 C110.25,296.00 93.88,295.61 93.55,295.09 C92.99,294.17 92.73,36.93 93.30,36.37 C93.46,36.20 110.68,36.02 131.55,35.96 L 169.50 35.86 L 169.75 127.18 C169.89,177.41 170.27,219.18 170.61,220.00 C172.44,224.53 172.87,211.31 172.93,147.25 L 173.00 77.00 L 215.01 77.00 L 214.50 295.50 L 173.00 296.04 L 173.00 289.52 C173.00,284.39 172.68,283.00 171.50,283.00 C170.32,283.00 170.00,284.39 170.00,289.50 ZM 246.00 46.53 L 246.00 264.53 L 217.00 293.47 L 217.00 75.47 ZM 90.77 271.25 L 90.50 295.50 L 72.44 295.77 C62.50,295.92 54.07,295.73 53.69,295.36 C53.31,294.98 53.00,269.09 53.00,237.83 L 53.00 181.00 L 91.00 181.00 L 91.00 223.09 L 84.25 222.80 L 77.50 222.50 L 77.20 217.25 C76.77,209.74 75.00,210.75 75.00,218.50 L 75.00 225.00 L 91.00 225.00 L 91.00 245.09 L 84.25 244.80 L 77.50 244.50 L 77.20 238.25 C76.78,229.44 75.00,230.45 75.00,239.50 L 75.00 247.00 L 91.04 247.00 ZM 185.94 18.51 L 170.37 34.00 L 133.25 34.00 C112.83,34.00 95.92,33.66 95.67,33.25 C95.42,32.84 101.65,25.86 109.52,17.75 L 123.83 3.00 L 162.66 3.01 L 201.50 3.02 ZM 137.16 254.00 C153.54,256.31 177.29,253.46 188.23,247.88 C197.59,243.11 199.81,236.25 193.54,231.47 C190.16,228.88 179.57,224.79 173.37,223.66 C170.52,223.15 170.18,223.37 169.64,226.05 C169.25,228.00 168.44,229.00 167.26,229.00 C166.27,229.00 163.75,230.17 161.65,231.59 C157.15,234.65 155.97,234.32 159.50,231.00 C160.88,229.71 162.00,228.15 162.00,227.54 C162.00,226.94 163.46,225.84 165.25,225.12 L 168.50 223.80 L 165.00 222.78 C160.32,221.43 136.21,222.50 128.37,224.42 C120.59,226.32 111.81,230.19 109.10,232.90 C105.96,236.04 106.37,240.30 110.13,243.46 C116.15,248.52 126.24,252.46 137.16,254.00 ZM 134.36 280.52 C149.34,283.24 171.87,281.70 183.89,277.13 C190.22,274.73 195.61,270.57 196.77,267.19 C197.91,263.86 198.36,251.27 197.46,247.70 L 196.80 245.05 L 193.65 247.42 C191.92,248.72 187.35,250.90 183.50,252.28 C161.37,260.17 126.47,257.86 110.77,247.47 L 107.00 244.97 L 107.03 256.24 C107.07,269.01 107.46,269.88 115.01,274.21 C120.49,277.35 125.05,278.83 134.36,280.52 ZM 244.47 45.00 L 215.53 74.00 L 174.53 74.00 L 203.47 45.00 ZM 203.00 4.51 L 203.00 42.50 L 188.00 57.47 C174.02,71.42 173.00,72.23 172.97,69.47 C172.96,67.84 172.93,59.32 172.92,50.55 L 172.90 34.61 L 187.95 19.56 ZM 90.79 169.25 L 90.50 178.50 L 73.25 178.77 C63.76,178.92 56.00,178.67 56.00,178.21 C56.00,177.75 60.27,173.18 65.48,168.07 C72.09,161.59 75.45,158.96 76.56,159.39 C77.44,159.72 81.07,160.00 84.62,160.00 L 91.08 160.00 ZM 114.00 173.50 L 114.00 181.00 L 121.50 181.00 C130.27,181.00 131.67,179.24 123.25,178.80 L 117.50 178.50 L 117.20 172.25 C116.98,167.59 116.54,166.00 115.45,166.00 C114.31,166.00 114.00,167.61 114.00,173.50 ZM 197.75 143.28 C205.02,144.39 210.00,143.82 210.00,141.89 C210.00,141.40 207.30,141.00 204.00,141.00 L 198.00 141.00 L 197.86 137.25 C197.78,135.19 197.69,132.49 197.66,131.25 C197.64,130.01 197.02,129.00 196.31,129.00 C195.36,129.00 195.00,130.90 195.00,135.93 C195.00,142.73 195.05,142.88 197.75,143.28 ZM 180.25 143.29 C186.05,144.41 193.00,143.67 193.00,141.93 C193.00,141.47 190.20,140.96 186.79,140.80 L 180.57 140.50 L 180.56 134.75 C180.55,130.77 180.15,129.00 179.27,129.00 C178.36,129.00 178.00,130.99 178.00,135.93 C178.00,142.32 178.17,142.89 180.25,143.29 ZM 141.82 236.51 C141.61,236.72 139.54,237.32 137.22,237.84 C134.01,238.56 133.00,238.49 133.00,237.54 C133.00,236.73 129.84,235.84 124.00,235.00 C119.05,234.29 115.00,233.27 115.00,232.73 C115.00,232.16 116.33,232.02 118.15,232.38 C119.88,232.73 125.75,233.30 131.18,233.66 C139.78,234.22 143.20,235.14 141.82,236.51 ZM 196.75 185.33 C200.20,186.28 209.34,185.52 209.75,184.25 C210.05,183.34 208.50,183.00 204.08,183.00 C197.78,183.00 197.40,182.69 197.82,178.00 C198.06,175.36 196.87,171.00 195.92,171.00 C195.41,171.00 195.00,174.12 195.00,177.93 C195.00,183.67 195.30,184.93 196.75,185.33 ZM 195.00 91.50 L 195.00 99.00 L 202.50 99.00 C206.83,99.00 210.00,98.58 210.00,98.00 C210.00,97.44 207.33,97.00 204.00,97.00 L 198.00 97.00 L 198.00 92.08 C198.00,86.73 197.29,84.00 195.89,84.00 C195.40,84.00 195.00,87.38 195.00,91.50 ZM 97.00 79.00 L 97.00 86.00 L 104.50 86.00 C108.83,86.00 112.00,85.58 112.00,85.00 C112.00,84.44 109.33,84.00 106.00,84.00 C99.37,84.00 99.33,83.94 99.93,75.25 C100.10,72.86 99.74,72.00 98.58,72.00 C97.29,72.00 97.00,73.29 97.00,79.00 ZM 74.67 202.33 C75.03,202.70 78.18,203.00 81.67,203.00 C86.63,203.00 88.00,202.68 88.00,201.50 C88.00,200.33 86.67,200.00 82.00,200.00 L 76.00 200.00 L 76.00 194.00 C76.00,190.67 75.56,188.00 75.00,188.00 C73.89,188.00 73.59,201.25 74.67,202.33 ZM 97.67 180.33 C98.75,181.41 112.00,181.11 112.00,180.00 C112.00,179.45 109.51,179.00 106.48,179.00 C101.37,179.00 100.87,178.79 99.89,176.25 C99.31,174.74 99.05,171.81 99.32,169.75 C99.68,166.96 99.45,166.00 98.40,166.00 C97.34,166.00 97.00,167.63 97.00,172.83 C97.00,176.59 97.30,179.97 97.67,180.33 ZM 114.00 53.50 L 114.00 60.00 L 121.50 60.00 C125.83,60.00 129.00,59.58 129.00,59.00 C129.00,58.44 126.33,58.00 123.00,58.00 L 117.00 58.00 L 117.00 52.50 C117.00,48.28 116.65,47.00 115.50,47.00 C114.32,47.00 114.00,48.39 114.00,53.50 ZM 135.25 133.32 C139.33,134.14 146.34,133.52 146.74,132.30 C147.01,131.48 145.28,131.01 141.32,130.80 L 135.50 130.50 L 135.20 124.75 C134.78,116.63 133.00,117.58 133.00,125.93 C133.00,132.32 133.18,132.90 135.25,133.32 ZM 195.20 158.33 L 194.91 165.00 L 202.45 165.00 C206.82,165.00 210.00,164.58 210.00,164.00 C210.00,163.44 207.33,163.00 204.00,163.00 L 198.00 163.00 L 198.00 156.92 C198.00,152.50 197.66,150.95 196.75,151.25 C195.96,151.51 195.39,154.11 195.20,158.33 ZM 178.00 92.00 L 178.00 99.00 L 185.50 99.00 C189.83,99.00 193.00,98.58 193.00,98.00 C193.00,97.45 190.37,97.00 187.10,97.00 L 181.20 97.00 L 180.50 91.00 C179.55,82.81 178.00,83.43 178.00,92.00 ZM 117.25 133.29 C120.89,134.00 126.71,134.05 128.42,133.39 C131.87,132.07 129.67,131.00 123.50,131.00 L 117.00 131.00 L 117.00 126.06 C117.00,123.34 116.55,120.84 116.00,120.50 C115.37,120.11 115.00,122.30 115.00,126.37 C115.00,132.31 115.19,132.90 117.25,133.29 ZM 57.71 202.37 C58.78,203.45 71.50,202.64 71.50,201.50 C71.50,200.95 68.69,200.37 65.25,200.20 L 59.00 199.90 L 59.00 193.95 C59.00,190.65 58.55,188.00 58.00,188.00 C56.87,188.00 56.60,201.27 57.71,202.37 ZM 149.00 173.50 L 149.00 181.00 L 156.00 181.00 C164.40,181.00 165.41,179.23 157.25,178.80 L 151.50 178.50 L 151.20 172.25 C150.78,163.44 149.00,164.45 149.00,173.50 ZM 58.00 239.50 L 58.00 247.00 L 65.00 247.00 C73.40,247.00 74.41,245.23 66.25,244.80 L 60.50 244.50 L 60.20 238.25 C59.78,229.44 58.00,230.45 58.00,239.50 ZM 195.67 121.33 C196.69,122.36 206.31,122.10 208.00,121.00 C209.06,120.31 207.83,120.03 203.75,120.02 L 198.00 120.00 L 198.00 115.58 C198.00,110.69 197.25,108.00 195.89,108.00 C194.87,108.00 194.66,120.33 195.67,121.33 ZM 178.67 121.33 C179.73,122.40 191.82,122.10 192.50,121.00 C192.89,120.38 190.84,120.00 187.06,120.00 C182.92,120.00 180.97,119.60 180.92,118.75 C180.87,118.06 180.76,115.74 180.67,113.59 C180.58,111.44 179.94,109.49 179.25,109.25 C178.34,108.95 178.00,110.46 178.00,114.75 C178.00,118.00 178.30,120.97 178.67,121.33 ZM 153.25 133.30 C158.75,134.02 163.33,133.56 163.76,132.25 C164.05,131.34 162.50,131.00 158.08,131.00 L 152.00 131.00 L 152.00 125.56 C152.00,122.57 151.55,119.84 151.00,119.50 C150.37,119.11 150.00,121.47 150.00,125.88 L 150.00 132.87 ZM 132.00 198.56 L 132.00 205.00 L 138.94 205.00 C147.77,205.00 149.27,203.20 140.78,202.80 L 134.50 202.50 L 134.20 196.72 C133.79,188.90 132.00,190.40 132.00,198.56 ZM 102.75 133.20 C108.51,133.57 112.00,133.07 112.00,131.88 C112.00,131.40 109.30,131.00 106.00,131.00 L 100.00 131.00 L 100.00 125.00 C100.00,121.67 99.56,119.00 99.00,119.00 C98.43,119.00 98.00,121.98 98.00,125.95 L 98.00 132.89 ZM 58.00 218.44 L 58.00 225.00 L 64.94 225.00 C68.76,225.00 72.16,224.55 72.50,224.00 C72.89,223.37 70.68,223.00 66.56,223.00 L 60.00 223.00 L 60.00 218.06 C60.00,215.34 59.55,212.84 59.00,212.50 C58.37,212.11 58.00,214.32 58.00,218.44 ZM 139.90 250.55 C136.25,252.44 134.64,252.39 135.39,250.42 C135.73,249.55 136.00,248.65 136.00,248.42 C136.00,248.19 136.74,248.00 137.65,248.00 C138.55,248.00 141.25,246.40 143.64,244.44 C146.03,242.48 148.40,241.13 148.90,241.44 C150.03,242.14 143.64,248.62 139.90,250.55 ZM 133.67 85.33 C134.74,86.40 146.00,86.10 146.00,85.00 C146.00,84.45 143.52,84.00 140.50,84.00 L 135.00 84.00 L 135.00 78.00 C135.00,74.67 134.56,72.00 134.00,72.00 C132.90,72.00 132.59,84.26 133.67,85.33 ZM 133.67 59.33 C134.74,60.40 146.00,60.10 146.00,59.00 C146.00,58.45 143.52,58.00 140.50,58.00 L 135.00 58.00 L 135.00 52.00 C135.00,48.67 134.56,46.00 134.00,46.00 C132.90,46.00 132.59,58.26 133.67,59.33 ZM 179.00 184.50 C179.00,185.65 180.27,186.00 184.42,186.00 C190.24,186.00 193.00,185.32 193.00,183.89 C193.00,183.40 189.85,183.00 186.00,183.00 C180.44,183.00 179.00,183.31 179.00,184.50 ZM 97.00 53.50 C97.00,58.10 97.37,60.00 98.27,60.00 C99.14,60.00 99.64,57.94 99.84,53.50 C100.08,48.14 99.85,47.00 98.56,47.00 C97.31,47.00 97.00,48.27 97.00,53.50 ZM 97.00 103.50 C97.00,108.04 97.38,110.00 98.25,109.99 C99.12,109.99 99.51,108.00 99.55,103.49 C99.58,98.82 99.23,97.00 98.30,97.00 C97.37,97.00 97.00,98.84 97.00,103.50 ZM 172.50 241.00 C171.75,242.22 166.01,242.30 164.14,241.11 C162.46,240.04 163.42,239.46 168.35,238.57 C170.97,238.09 171.99,238.21 171.54,238.94 C171.18,239.52 171.39,240.00 172.00,240.00 C172.61,240.00 172.84,240.45 172.50,241.00 ZM 178.00 164.00 C178.00,164.58 181.17,165.00 185.50,165.00 C189.83,165.00 193.00,164.58 193.00,164.00 C193.00,163.42 189.83,163.00 185.50,163.00 C181.17,163.00 178.00,163.42 178.00,164.00 ZM 132.00 180.00 C132.00,180.57 135.00,181.00 139.00,181.00 C143.00,181.00 146.00,180.57 146.00,180.00 C146.00,179.43 143.00,179.00 139.00,179.00 C135.00,179.00 132.00,179.43 132.00,180.00 ZM 149.00 204.00 C149.00,204.57 152.00,205.00 156.00,205.00 C160.00,205.00 163.00,204.57 163.00,204.00 C163.00,203.43 160.00,203.00 156.00,203.00 C152.00,203.00 149.00,203.43 149.00,204.00 Z" fill="rgb(21,108,149)"/>
<path d="M 187.00 243.00 C187.00,243.55 186.07,244.00 184.94,244.00 C183.81,244.00 183.16,243.55 183.50,243.00 C183.84,242.45 184.77,242.00 185.56,242.00 C186.35,242.00 187.00,242.45 187.00,243.00 Z" fill="rgb(117,169,196)"/>
<path d="M 114.00 173.50 C114.00,167.61 114.31,166.00 115.45,166.00 C116.54,166.00 116.98,167.59 117.20,172.25 L 117.50 178.50 L 123.25 178.80 C131.67,179.24 130.27,181.00 121.50,181.00 L 114.00 181.00 ZM 97.00 79.00 C97.00,73.29 97.29,72.00 98.58,72.00 C99.74,72.00 100.10,72.86 99.93,75.25 C99.33,83.94 99.37,84.00 106.00,84.00 C109.33,84.00 112.00,84.44 112.00,85.00 C112.00,85.58 108.83,86.00 104.50,86.00 L 97.00 86.00 ZM 97.67 180.33 C97.30,179.97 97.00,176.59 97.00,172.83 C97.00,167.63 97.34,166.00 98.40,166.00 C99.45,166.00 99.68,166.96 99.32,169.75 C99.05,171.81 99.31,174.74 99.89,176.25 C100.87,178.79 101.37,179.00 106.48,179.00 C109.51,179.00 112.00,179.45 112.00,180.00 C112.00,181.11 98.75,181.41 97.67,180.33 ZM 114.00 53.50 C114.00,48.39 114.32,47.00 115.50,47.00 C116.65,47.00 117.00,48.28 117.00,52.50 L 117.00 58.00 L 123.00 58.00 C126.33,58.00 129.00,58.44 129.00,59.00 C129.00,59.58 125.83,60.00 121.50,60.00 L 114.00 60.00 ZM 149.00 173.50 C149.00,164.45 150.78,163.44 151.20,172.25 L 151.50 178.50 L 157.25 178.80 C165.41,179.23 164.40,181.00 156.00,181.00 L 149.00 181.00 ZM 58.00 239.50 C58.00,230.45 59.78,229.44 60.20,238.25 L 60.50 244.50 L 66.25 244.80 C74.41,245.23 73.40,247.00 65.00,247.00 L 58.00 247.00 ZM 132.00 198.56 C132.00,190.40 133.79,188.90 134.20,196.72 L 134.50 202.50 L 140.78 202.80 C149.27,203.20 147.77,205.00 138.94,205.00 L 132.00 205.00 ZM 133.67 85.33 C132.59,84.26 132.90,72.00 134.00,72.00 C134.56,72.00 135.00,74.67 135.00,78.00 L 135.00 84.00 L 140.50 84.00 C143.52,84.00 146.00,84.45 146.00,85.00 C146.00,86.10 134.74,86.40 133.67,85.33 ZM 133.67 59.33 C132.59,58.26 132.90,46.00 134.00,46.00 C134.56,46.00 135.00,48.67 135.00,52.00 L 135.00 58.00 L 140.50 58.00 C143.52,58.00 146.00,58.45 146.00,59.00 C146.00,60.10 134.74,60.40 133.67,59.33 ZM 97.00 53.50 C97.00,48.27 97.31,47.00 98.56,47.00 C99.85,47.00 100.08,48.14 99.84,53.50 C99.64,57.94 99.14,60.00 98.27,60.00 C97.37,60.00 97.00,58.10 97.00,53.50 ZM 97.00 103.50 C97.00,98.84 97.37,97.00 98.30,97.00 C99.23,97.00 99.58,98.82 99.55,103.49 C99.51,108.00 99.12,109.99 98.25,109.99 C97.38,110.00 97.00,108.04 97.00,103.50 ZM 90.69 247.00 L 75.00 247.00 L 75.00 246.00 L 79.25 245.88 C83.06,245.78 83.19,245.70 80.50,245.13 C79.67,244.95 79.07,244.81 78.63,244.55 L 84.25 244.80 L 90.70 245.08 ZM 178.00 164.00 C178.00,163.42 181.17,163.00 185.50,163.00 C189.83,163.00 193.00,163.42 193.00,164.00 C193.00,164.58 189.83,165.00 185.50,165.00 C181.17,165.00 178.00,164.58 178.00,164.00 ZM 133.19 131.11 C133.03,130.05 133.00,128.44 133.00,125.93 C133.00,117.58 134.78,116.63 135.20,124.75 L 135.50 130.50 L 141.32 130.80 C142.93,130.89 144.17,131.01 145.06,131.19 C144.07,131.06 142.63,131.00 140.64,131.00 L 134.12 131.00 L 133.73 127.25 C133.36,123.76 133.32,123.83 133.17,128.18 C133.12,129.47 133.11,130.41 133.19,131.11 ZM 149.00 204.00 C149.00,203.43 152.00,203.00 156.00,203.00 C160.00,203.00 163.00,203.43 163.00,204.00 C163.00,204.57 160.00,205.00 156.00,205.00 C152.00,205.00 149.00,204.57 149.00,204.00 ZM 132.00 180.00 C132.00,179.43 135.00,179.00 139.00,179.00 C143.00,179.00 146.00,179.43 146.00,180.00 C146.00,180.57 143.00,181.00 139.00,181.00 C135.00,181.00 132.00,180.57 132.00,180.00 ZM 57.71 202.37 C56.60,201.27 56.87,188.00 58.00,188.00 C58.55,188.00 59.00,190.65 59.00,193.95 L 59.00 199.90 L 65.25 200.20 C68.69,200.37 71.50,200.95 71.50,201.50 C71.50,201.94 69.65,202.32 67.29,202.58 C69.59,202.32 71.36,201.93 71.26,201.50 C71.13,200.95 68.11,200.37 64.56,200.21 L 58.11 199.91 L 57.36 190.50 L 57.18 196.08 C57.08,199.15 57.32,201.99 57.71,202.37 ZM 74.67 202.33 C73.59,201.25 73.89,188.00 75.00,188.00 C75.56,188.00 76.00,190.67 76.00,194.00 L 76.00 200.00 L 75.11 200.00 L 74.36 190.50 L 74.18 196.08 C74.08,199.15 74.30,201.97 74.67,202.33 ZM 90.78 225.00 L 79.44 225.00 C84.95,225.00 86.42,223.24 81.27,222.81 L 77.50 222.50 L 84.25 222.80 L 90.79 223.08 ZM 195.00 91.50 C195.00,87.38 195.40,84.00 195.89,84.00 C197.29,84.00 198.00,86.73 198.00,92.08 L 198.00 92.50 C198.00,89.17 197.61,88.00 196.50,88.00 C195.35,88.00 195.00,89.28 195.00,93.50 ZM 198.00 115.58 L 198.00 116.00 C198.00,113.11 197.58,112.00 196.50,112.00 C195.49,112.00 195.07,112.96 195.01,115.56 C194.99,111.95 195.31,108.00 195.89,108.00 C197.25,108.00 198.00,110.69 198.00,115.58 ZM 188.01 143.75 C189.26,143.55 190.00,143.15 190.00,142.55 C190.00,141.54 188.59,141.02 185.28,140.80 L 180.57 140.50 L 180.57 140.50 L 180.56 134.75 C180.55,132.60 180.44,131.10 180.19,130.17 C180.44,131.10 180.55,132.60 180.56,134.75 L 180.57 140.50 L 186.79 140.80 C190.20,140.96 193.00,141.47 193.00,141.93 C193.00,142.89 190.88,143.55 188.01,143.75 ZM 202.50 99.00 L 200.94 99.00 C204.21,99.00 207.16,98.55 207.50,98.00 C207.88,97.38 206.18,97.00 203.06,97.00 L 204.00 97.00 C207.33,97.00 210.00,97.44 210.00,98.00 C210.00,98.58 206.83,99.00 202.50,99.00 ZM 202.45 165.00 L 201.51 165.00 C205.66,165.00 207.89,164.63 207.50,164.00 C207.16,163.45 204.88,163.00 202.44,163.00 L 204.00 163.00 C207.33,163.00 210.00,163.44 210.00,164.00 C210.00,164.58 206.82,165.00 202.45,165.00 ZM 205.76 143.80 C207.23,143.63 208.00,143.20 208.00,142.50 C208.00,141.37 206.78,141.00 203.00,141.00 L 204.00 141.00 C207.30,141.00 210.00,141.40 210.00,141.89 C210.00,142.98 208.43,143.63 205.76,143.80 ZM 185.45 183.00 C185.63,183.00 185.81,183.00 186.00,183.00 C189.85,183.00 193.00,183.40 193.00,183.89 C193.00,184.80 191.89,185.40 189.60,185.72 C190.63,185.50 191.00,185.11 191.00,184.50 C191.00,183.37 189.75,183.02 185.45,183.00 ZM 185.50 99.00 L 184.50 99.00 C188.17,99.00 191.00,98.56 191.00,98.00 C191.00,97.45 188.79,97.00 186.10,97.00 L 187.10 97.00 C190.37,97.00 193.00,97.45 193.00,98.00 C193.00,98.58 189.83,99.00 185.50,99.00 ZM 207.82 185.13 C207.95,184.96 208.00,184.75 208.00,184.50 C208.00,183.37 206.78,183.00 203.00,183.00 C199.79,183.00 198.40,182.82 197.92,181.57 C198.45,182.88 200.07,183.00 204.08,183.00 C208.50,183.00 210.05,183.34 209.75,184.25 C209.64,184.59 208.91,184.89 207.82,185.13 ZM 196.75 185.33 C196.10,185.16 195.69,184.81 195.42,183.97 C195.69,184.80 196.10,185.14 196.75,185.31 C197.36,185.47 198.75,185.63 200.35,185.74 C198.93,185.71 197.65,185.58 196.75,185.33 ZM 184.69 186.00 C184.60,186.00 184.51,186.00 184.42,186.00 C180.27,186.00 179.00,185.65 179.00,184.50 C179.00,185.64 180.27,185.98 184.69,186.00 ZM 82.00 200.00 C86.67,200.00 88.00,200.33 88.00,201.50 C88.00,200.32 86.62,200.00 81.55,200.00 ZM 77.16 237.42 C76.93,233.83 76.44,232.11 75.99,232.16 C76.44,232.02 76.93,233.72 77.16,237.42 ZM 146.75 132.28 C146.74,132.28 146.74,132.29 146.74,132.30 C146.58,132.78 145.42,133.16 143.82,133.41 C145.40,133.16 146.55,132.76 146.75,132.28 ZM 195.67 121.33 C195.54,121.21 195.43,120.89 195.34,120.45 C195.44,120.90 195.55,121.21 195.67,121.33 ZM 135.25 133.32 C134.98,133.26 134.75,133.21 134.54,133.14 C134.75,133.21 134.98,133.26 135.25,133.32 Z" fill="rgb(191,226,240)"/>
<path d="M 0.00 150.00 L 0.00 0.00 L 150.00 0.00 L 300.00 0.00 L 300.00 150.00 L 300.00 300.00 L 150.00 300.00 L 0.00 300.00 L 0.00 150.00 ZM 90.73 238.25 L 90.96 181.00 L 71.98 181.00 L 53.00 181.00 L 53.00 237.83 C53.00,269.09 53.31,294.98 53.69,295.36 C54.07,295.73 62.50,295.92 72.44,295.77 L 90.50 295.50 L 90.73 238.25 ZM 170.00 289.50 C170.00,284.39 170.32,283.00 171.50,283.00 C172.68,283.00 173.00,284.39 173.00,289.52 L 173.00 296.04 L 193.75 295.77 L 214.50 295.50 L 214.75 186.25 L 215.01 77.00 L 194.00 77.00 L 173.00 77.00 L 172.93 147.25 C172.87,211.31 172.44,224.53 170.61,220.00 C170.27,219.18 169.89,177.41 169.75,127.18 L 169.50 35.86 L 131.55 35.96 C110.68,36.02 93.46,36.20 93.30,36.37 C92.73,36.93 92.99,294.17 93.55,295.09 C93.88,295.61 110.25,296.00 132.06,296.00 L 170.00 296.00 L 170.00 289.50 ZM 246.00 155.53 L 246.00 46.53 L 231.50 61.00 L 217.00 75.47 L 217.00 184.47 L 217.00 293.47 L 231.50 279.00 L 246.00 264.53 L 246.00 155.53 ZM 90.79 169.25 L 91.08 160.00 L 84.62 160.00 C81.07,160.00 77.44,159.72 76.56,159.39 C75.45,158.96 72.09,161.59 65.48,168.07 C60.27,173.18 56.00,177.75 56.00,178.21 C56.00,178.67 63.76,178.92 73.25,178.77 L 90.50 178.50 L 90.79 169.25 ZM 230.00 59.50 L 244.47 45.00 L 223.97 45.00 L 203.47 45.00 L 189.00 59.50 L 174.53 74.00 L 195.03 74.00 L 215.53 74.00 L 230.00 59.50 ZM 203.00 23.50 L 203.00 4.51 L 187.95 19.56 L 172.90 34.61 L 172.92 50.55 C172.93,59.32 172.96,67.84 172.97,69.47 C173.00,72.23 174.02,71.42 188.00,57.47 L 203.00 42.50 L 203.00 23.50 ZM 185.94 18.51 L 201.50 3.02 L 162.66 3.01 L 123.83 3.00 L 109.52 17.75 C101.65,25.86 95.42,32.84 95.67,33.25 C95.92,33.66 112.83,34.00 133.25,34.00 L 170.37 34.00 L 185.94 18.51 ZM 75.00 239.00 C75.00,230.32 76.80,229.71 77.20,238.24 C77.49,244.28 77.60,244.51 80.50,245.13 C83.19,245.70 83.06,245.78 79.25,245.88 L 75.00 246.00 L 75.00 239.00 ZM 58.00 218.44 C58.00,214.32 58.37,212.11 59.00,212.50 C59.55,212.84 60.00,215.34 60.00,218.06 L 60.00 223.00 L 66.56 223.00 C70.68,223.00 72.89,223.37 72.50,224.00 C72.16,224.55 68.76,225.00 64.94,225.00 L 58.00 225.00 L 58.00 218.44 ZM 75.00 218.50 C75.00,210.75 76.77,209.74 77.20,217.25 L 77.50 222.50 L 81.27 222.81 C86.42,223.24 84.95,225.00 79.44,225.00 L 75.00 225.00 L 75.00 218.50 ZM 57.71 202.37 C57.32,201.99 57.08,199.15 57.18,196.08 L 57.36 190.50 L 57.73 195.21 L 58.11 199.91 L 64.56 200.21 C68.11,200.37 71.13,200.95 71.26,201.50 C71.53,202.64 58.80,203.47 57.71,202.37 ZM 74.67 202.33 C74.30,201.97 74.08,199.15 74.18,196.08 L 74.36 190.50 L 74.74 195.25 L 75.11 200.00 L 81.55 200.00 C86.62,200.00 88.00,200.32 88.00,201.50 C88.00,202.68 86.63,203.00 81.67,203.00 C78.18,203.00 75.03,202.70 74.67,202.33 ZM 134.36 280.52 C125.05,278.83 120.49,277.35 115.01,274.21 C107.46,269.88 107.07,269.01 107.03,256.24 L 107.00 244.97 L 110.77 247.47 C126.47,257.86 161.37,260.17 183.50,252.28 C187.35,250.90 191.92,248.72 193.65,247.42 L 196.80 245.05 L 197.46 247.70 C198.36,251.27 197.91,263.86 196.77,267.19 C195.61,270.57 190.22,274.73 183.89,277.13 C171.87,281.70 149.34,283.24 134.36,280.52 ZM 137.16 254.00 C126.24,252.46 116.15,248.52 110.13,243.46 C106.37,240.30 105.96,236.04 109.10,232.90 C111.81,230.19 120.59,226.32 128.37,224.42 C136.21,222.50 160.32,221.43 165.00,222.78 L 168.50 223.80 L 165.25 225.12 C163.46,225.84 162.00,226.94 162.00,227.54 C162.00,228.15 160.88,229.71 159.50,231.00 C155.97,234.32 157.15,234.65 161.65,231.59 C163.75,230.17 166.27,229.00 167.26,229.00 C168.44,229.00 169.25,228.00 169.64,226.05 C170.18,223.37 170.52,223.15 173.37,223.66 C179.57,224.79 190.16,228.88 193.54,231.47 C199.81,236.25 197.59,243.11 188.23,247.88 C177.29,253.46 153.54,256.31 137.16,254.00 ZM 139.90 250.55 C143.64,248.62 150.03,242.14 148.90,241.44 C148.40,241.13 146.03,242.48 143.64,244.44 C141.25,246.40 138.55,248.00 137.65,248.00 C136.74,248.00 136.00,248.19 136.00,248.42 C136.00,248.65 135.73,249.55 135.39,250.42 C134.64,252.39 136.25,252.44 139.90,250.55 ZM 187.00 243.00 C187.00,242.45 186.35,242.00 185.56,242.00 C184.77,242.00 183.84,242.45 183.50,243.00 C183.16,243.55 183.81,244.00 184.94,244.00 C186.07,244.00 187.00,243.55 187.00,243.00 ZM 172.50 241.00 C172.84,240.45 172.61,240.00 172.00,240.00 C171.39,240.00 171.18,239.52 171.54,238.94 C171.99,238.21 170.97,238.09 168.35,238.57 C163.42,239.46 162.46,240.04 164.14,241.11 C166.01,242.30 171.75,242.22 172.50,241.00 ZM 141.82 236.51 C143.20,235.14 139.78,234.22 131.18,233.66 C125.75,233.30 119.88,232.73 118.15,232.38 C116.33,232.02 115.00,232.16 115.00,232.73 C115.00,233.27 119.05,234.29 124.00,235.00 C129.84,235.84 133.00,236.73 133.00,237.54 C133.00,238.49 134.01,238.56 137.22,237.84 C139.54,237.32 141.61,236.72 141.82,236.51 ZM 179.00 184.50 C179.00,183.33 180.33,183.00 185.00,183.00 C189.67,183.00 191.00,183.33 191.00,184.50 C191.00,185.67 189.67,186.00 185.00,186.00 C180.33,186.00 179.00,185.67 179.00,184.50 ZM 196.75 185.31 C195.30,184.93 195.00,183.68 195.00,177.93 C195.00,174.12 195.41,171.00 195.92,171.00 C196.87,171.00 198.06,175.36 197.82,178.00 C197.41,182.55 197.87,183.00 203.00,183.00 C206.78,183.00 208.00,183.37 208.00,184.50 C208.00,185.64 206.86,185.97 203.25,185.88 C200.64,185.82 197.71,185.56 196.75,185.31 ZM 195.20 158.33 C195.39,154.11 195.96,151.51 196.75,151.25 C197.66,150.95 198.00,152.50 198.00,156.92 L 198.00 163.00 L 202.44 163.00 C204.88,163.00 207.16,163.45 207.50,164.00 C207.89,164.63 205.66,165.00 201.51,165.00 L 194.91 165.00 L 195.20 158.33 ZM 180.25 143.29 C178.17,142.89 178.00,142.32 178.00,135.93 C178.00,130.99 178.36,129.00 179.27,129.00 C180.15,129.00 180.55,130.77 180.56,134.75 L 180.57 140.50 L 185.28 140.80 C188.59,141.02 190.00,141.54 190.00,142.55 C190.00,144.00 185.62,144.33 180.25,143.29 ZM 197.75 143.28 C195.05,142.88 195.00,142.73 195.00,135.93 C195.00,130.90 195.36,129.00 196.31,129.00 C197.02,129.00 197.64,130.01 197.66,131.25 C197.69,132.49 197.78,135.19 197.86,137.25 L 198.00 141.00 L 203.00 141.00 C206.78,141.00 208.00,141.37 208.00,142.50 C208.00,144.01 204.38,144.29 197.75,143.28 ZM 102.75 133.20 L 98.00 132.89 L 98.00 125.95 C98.00,121.98 98.43,119.00 99.00,119.00 C99.56,119.00 100.00,121.67 100.00,125.00 L 100.00 131.00 L 106.00 131.00 C109.30,131.00 112.00,131.40 112.00,131.88 C112.00,133.07 108.51,133.57 102.75,133.20 ZM 117.25 133.29 C115.19,132.90 115.00,132.31 115.00,126.37 C115.00,122.30 115.37,120.11 116.00,120.50 C116.55,120.84 117.00,123.34 117.00,126.06 L 117.00 131.00 L 123.50 131.00 C129.67,131.00 131.87,132.07 128.42,133.39 C126.71,134.05 120.89,134.00 117.25,133.29 ZM 135.25 133.32 C133.27,132.92 133.02,132.30 133.17,128.18 C133.32,123.83 133.36,123.76 133.73,127.25 L 134.12 131.00 L 140.64 131.00 C145.41,131.00 147.06,131.34 146.76,132.25 C146.34,133.52 139.43,134.16 135.25,133.32 ZM 153.25 133.30 L 150.00 132.87 L 150.00 125.88 C150.00,121.47 150.37,119.11 151.00,119.50 C151.55,119.84 152.00,122.57 152.00,125.56 L 152.00 131.00 L 158.08 131.00 C162.50,131.00 164.05,131.34 163.76,132.25 C163.33,133.56 158.75,134.02 153.25,133.30 ZM 178.67 121.33 C178.30,120.97 178.00,118.00 178.00,114.75 C178.00,110.46 178.34,108.95 179.25,109.25 C179.94,109.49 180.58,111.44 180.67,113.59 C180.76,115.74 180.87,118.06 180.92,118.75 C180.97,119.60 182.92,120.00 187.06,120.00 C190.84,120.00 192.89,120.38 192.50,121.00 C191.82,122.10 179.73,122.40 178.67,121.33 ZM 195.67 121.33 C195.30,120.97 195.00,118.72 195.00,116.33 C195.00,113.15 195.40,112.00 196.50,112.00 C197.58,112.00 198.00,113.11 198.00,116.00 L 198.00 120.00 L 203.75 120.02 C207.83,120.03 209.06,120.31 208.00,121.00 C206.31,122.10 196.69,122.36 195.67,121.33 ZM 178.00 92.00 C178.00,83.43 179.55,82.81 180.50,91.00 L 181.20 97.00 L 186.10 97.00 C188.79,97.00 191.00,97.45 191.00,98.00 C191.00,98.56 188.17,99.00 184.50,99.00 L 178.00 99.00 L 178.00 92.00 ZM 195.00 93.50 C195.00,89.28 195.35,88.00 196.50,88.00 C197.61,88.00 198.00,89.17 198.00,92.50 L 198.00 97.00 L 203.06 97.00 C206.18,97.00 207.88,97.38 207.50,98.00 C207.16,98.55 204.21,99.00 200.94,99.00 L 195.00 99.00 L 195.00 93.50 Z" fill="none"/>
</g>
</svg>