<svg width="16" height="16" viewBox="0 0 16 16" fill="none" xmlns="http://www.w3.org/2000/svg">
<g clip-path="url(#clip0_351_20161)">
<path d="M14.6663 7.99967C14.6663 11.6816 11.6816 14.6663 7.99967 14.6663C4.31778 14.6663 1.33301 11.6816 1.33301 7.99967M14.6663 7.99967C14.6663 4.31778 11.6816 1.33301 7.99967 1.33301M14.6663 7.99967H12.9997M1.33301 7.99967C1.33301 4.31778 4.31778 1.33301 7.99967 1.33301M1.33301 7.99967H2.99967M7.99967 1.33301V2.99967M12.7186 3.33301L8.99961 6.99967M12.7186 12.7186L12.5827 12.5827C12.1215 12.1215 11.8909 11.8909 11.6218 11.726C11.3832 11.5798 11.1231 11.472 10.851 11.4067C10.5441 11.333 10.2179 11.333 9.56568 11.333L6.43364 11.333C5.78141 11.333 5.45529 11.333 5.14839 11.4067C4.87629 11.472 4.61617 11.5798 4.37758 11.726C4.10847 11.8909 3.87787 12.1215 3.41667 12.5827L3.28076 12.7186M3.28076 3.33301L4.43839 4.49064M9.33301 7.99967C9.33301 8.73605 8.73605 9.33301 7.99967 9.33301C7.26329 9.33301 6.66634 8.73605 6.66634 7.99967C6.66634 7.26329 7.26329 6.66634 7.99967 6.66634C8.73605 6.66634 9.33301 7.26329 9.33301 7.99967Z" stroke="#040D17" stroke-linecap="round" stroke-linejoin="round"/>
</g>
<defs>
<clipPath id="clip0_351_20161">
<rect width="16" height="16" fill="white"/>
</clipPath>
</defs>
</svg>
