<svg width="48" height="48" viewBox="0 0 48 48" fill="none" xmlns="http://www.w3.org/2000/svg">
<circle cx="24" cy="24" r="24" fill="#ffffff"/>
<g clip-path="url(#clip0_482_13275)">
<path fill-rule="evenodd" clip-rule="evenodd" d="M24 0C37.2548 0 48 10.7452 48 24C48 37.2548 37.2548 48 24 48C10.7452 48 0 37.2548 0 24C0 10.7452 10.7452 0 24 0ZM28.9688 22.417C28.9686 21.391 28.2028 22.1517 28.1924 22.1621C28.1924 22.1621 22.368 26.551 21.7568 27.1621C21.311 27.6051 21.8066 28.0312 21.8066 28.0312L28.0391 33.1865C28.0391 33.1865 28.7832 33.9713 28.7832 33.123V30.2168H39.8564C39.8649 30.2189 40.2967 30.323 40.2969 29.6641V25.5732C40.2998 25.0907 39.9331 25.1015 39.9316 25.1016H28.9688C28.9688 25.1016 28.9688 23.4534 28.9688 22.417ZM18.1035 14.2812C18.0898 14.2675 17.3311 13.512 17.3311 14.5361V17.2197H6.36719C6.35228 17.2195 6.0002 17.2185 6 17.6885V21.7793C6 22.4452 6.44043 22.333 6.44043 22.333H17.5127V25.2393C17.5127 26.0814 18.2437 25.3135 18.2539 25.3027L24.4873 20.1465C24.4931 20.1494 24.9907 19.7242 24.542 19.2812C23.9304 18.6699 18.1035 14.2812 18.1035 14.2812Z" fill="#1C60AF"/>
</g>
<defs>
<clipPath id="clip0_482_13275">
<rect width="48" height="48" fill="white"/>
</clipPath>
</defs>
</svg>
