<svg width="48" height="48" viewBox="0 0 48 48" fill="none" xmlns="http://www.w3.org/2000/svg">
<g clip-path="url(#clip0_482_13355)">
<path d="M24 0C37.2548 0 48 10.7452 48 24C48 37.2548 37.2548 48 24 48C10.7452 48 0 37.2548 0 24C0 10.7452 10.7452 0 24 0ZM20.2939 32.0605C19.3844 32.0606 18.6475 32.8207 18.6475 33.7578V36.3027C18.6475 37.2399 19.3844 37.9999 20.2939 38H27.7061C28.6156 37.9999 29.3525 37.2399 29.3525 36.3027V33.7578C29.3525 32.8207 28.6156 32.0606 27.7061 32.0605H20.2939ZM16.1768 23.1514C12.7656 23.1514 10 26.0011 10 29.5156C10.0002 32.439 11.9136 34.9018 14.5205 35.6475L14.0146 36.0645C13.6596 36.3572 13.6027 36.8909 13.8867 37.2568C14.1708 37.6228 14.6888 37.6824 15.0439 37.3896L17.1025 35.6934C17.4244 35.4281 17.506 34.9579 17.2939 34.5938L16.0596 32.4727C15.8256 32.0709 15.3197 31.9408 14.9297 32.1816C14.5397 32.4227 14.4125 32.9439 14.6465 33.3457L15.0488 34.0361C13.093 33.5198 11.6477 31.6916 11.6475 29.5156C11.6475 26.9383 13.6752 24.8486 16.1768 24.8486H16.5879C17.0427 24.8486 17.4121 24.4686 17.4121 24C17.4121 23.5314 17.0427 23.1514 16.5879 23.1514H16.1768ZM20.2939 21.0303C19.3844 21.0304 18.6475 21.7904 18.6475 22.7275V25.2725C18.6475 26.2096 19.3844 26.9696 20.2939 26.9697H27.7061C28.6156 26.9696 29.3525 26.2096 29.3525 25.2725V22.7275C29.3525 21.7904 28.6156 21.0304 27.7061 21.0303H20.2939ZM31.4121 12.1211C30.9573 12.1211 30.5879 12.5011 30.5879 12.9697C30.5879 13.4383 30.9573 13.8184 31.4121 13.8184H31.8232C34.3246 13.8184 36.3523 15.9073 36.3525 18.4844C36.3525 20.6606 34.9071 22.4895 32.9512 23.0059L33.3535 22.3154C33.5875 21.9136 33.4603 21.3925 33.0703 21.1514C32.6803 20.9105 32.1744 21.0406 31.9404 21.4424L30.7061 23.5635C30.494 23.9276 30.5757 24.3968 30.8975 24.6621L32.9561 26.3594C33.3112 26.6521 33.8292 26.5925 34.1133 26.2266C34.3973 25.8607 34.3404 25.3269 33.9854 25.0342L33.4795 24.6172C36.0865 23.8715 38 21.4079 38 18.4844C37.9998 14.9701 35.2343 12.1211 31.8232 12.1211H31.4121ZM20.2939 10C19.3844 10.0001 18.6475 10.7601 18.6475 11.6973V14.2422C18.6475 15.1793 19.3844 15.9394 20.2939 15.9395H27.7061C28.6156 15.9394 29.3525 15.1793 29.3525 14.2422V11.6973C29.3525 10.7601 28.6156 10.0001 27.7061 10H20.2939Z" fill="#1C60AF"/>
</g>
<defs>
<clipPath id="clip0_482_13355">
<rect width="48" height="48" fill="white"/>
</clipPath>
</defs>
</svg>
