<svg width="143" height="25" viewBox="0 0 143 25" fill="none" xmlns="http://www.w3.org/2000/svg">
<path d="M43.1323 0.0170751H47.9817V13.5066C47.9817 20.3538 44.208 24.2811 37.634 24.2811C31.1283 24.2811 27.3888 20.4221 27.3888 13.6944V0.0341515H32.2382V13.5407C32.2382 17.5364 34.2019 19.6708 37.7023 19.6708C41.2028 19.6708 43.1323 17.5876 43.1323 13.7115V0.0170751ZM15.8118 9.64757H4.84939V0.0170751H0V23.9226H4.84939V14.2067H15.7947V23.9226H20.6441V0.0170751H15.7947V9.64757H15.8118ZM137.252 0.0170751V23.8884H142.033V0.0170751H137.252ZM118.213 13.6261H127.041V9.27191H118.213V4.37129H131.019V0.0341515H113.431V23.9055H131.48V19.5513H118.213V13.6261ZM99.1906 16.4436L93.7607 0H89.7992L84.3692 16.4436L79.093 0.0170751H73.9362L82.269 23.9055H86.2817L91.7116 8.21324L97.1416 23.9055H101.188L109.504 0.0170751H104.467L99.1906 16.4436ZM65.3132 0.153678L75.7462 23.9055H70.6578L68.5062 18.9366H57.561L57.4073 19.2781L55.3924 23.9055H50.4405L60.976 0.0170751H65.2107L65.3132 0.153678ZM66.4743 14.053L63.0251 6.04467L59.5929 14.053L59.3539 14.5994H66.6963L66.4743 14.053Z" fill="black"/>
</svg>
