<svg width="59" height="53" viewBox="0 0 59 53" fill="none" xmlns="http://www.w3.org/2000/svg">
<g clip-path="url(#clip0_1013_2041)">
<path d="M37.0018 6.36602L57.481 37.8269C58.2321 38.9807 58.6639 40.3182 58.6639 41.7461C58.6639 46.0824 54.7005 49.598 49.8112 49.598H29.3321L22.25 26.0157L29.3321 2.43359C32.6113 2.43359 35.472 4.01618 37.0018 6.36602Z" fill="#3B4145"/>
<path d="M21.6621 6.36602L1.18278 37.8269C0.431842 38.9807 0 40.3182 0 41.7461C0 46.0824 3.96346 49.598 8.8527 49.598H29.3318V2.43359C26.0526 2.43359 23.1919 4.01618 21.6621 6.36602Z" fill="#525A61"/>
<path d="M54.4146 39.3984L33.9355 7.93782C33.0124 6.51926 31.3175 5.62416 29.4844 5.57812L46.9997 46.4587H49.8113C52.7398 46.4587 55.1229 44.3452 55.1229 41.7477C55.1229 40.9227 54.8773 40.1103 54.4146 39.3984Z" fill="#FFB751"/>
<path d="M50.9699 39.3977C51.37 40.1096 51.5813 40.9219 51.5813 41.7469C51.5813 44.3443 49.5264 46.458 46.9991 46.458H8.85259C5.92411 46.458 3.54102 44.3443 3.54102 41.7469C3.54102 40.9219 3.78655 40.1096 4.24922 39.3977L24.7283 7.93707C25.6773 6.47979 27.4408 5.57422 29.3317 5.57422C29.3824 5.57422 29.4332 5.57523 29.4839 5.57737C31.0573 5.63184 32.5104 6.52481 33.3024 7.93707L50.9699 39.3977Z" fill="#FABE00"/>
<path d="M29.332 35.9883V41.2228C30.9625 41.2228 32.2837 40.0513 32.2837 38.6055C32.2837 37.1598 30.9625 35.9883 29.332 35.9883Z" fill="#3B4145"/>
<path d="M29.3326 35.9883C29.6584 35.9883 29.9229 37.1598 29.9229 38.6056C29.9229 40.0514 29.6584 41.2229 29.3326 41.2229C27.702 41.2229 26.3809 40.0514 26.3809 38.6056C26.3809 37.1598 27.702 35.9883 29.3326 35.9883Z" fill="#525A61"/>
<path d="M29.332 13.4805V32.8483C30.9625 32.8483 32.2837 31.6758 32.2837 30.231V16.0978C32.2837 14.652 30.9625 13.4805 29.332 13.4805Z" fill="#3B4145"/>
<path d="M29.3326 13.4805C29.6584 13.4805 29.9229 14.652 29.9229 16.0978V30.231C29.9229 31.6757 29.6584 32.8483 29.3326 32.8483C27.702 32.8483 26.3809 31.6758 26.3809 30.231V16.0978C26.3809 14.652 27.702 13.4805 29.3326 13.4805Z" fill="#525A61"/>
</g>
<defs>
<clipPath id="clip0_1013_2041">
<rect width="58.6636" height="52.0313" fill="white"/>
</clipPath>
</defs>
</svg>
