<svg width="43" height="39" viewBox="0 0 43 39" fill="none" xmlns="http://www.w3.org/2000/svg">
<g clip-path="url(#clip0_1013_2137)">
<path d="M26.6831 4.77177L41.4516 28.3533C41.9933 29.2181 42.3047 30.2206 42.3047 31.2909C42.3047 34.5412 39.4465 37.1763 35.9206 37.1763H21.1522L16.0449 19.5002L21.1522 1.82422C23.517 1.82422 25.5799 3.01044 26.6831 4.77177Z" fill="#3B4145"/>
<path d="M15.6215 4.77177L0.852959 28.3533C0.311421 29.2181 0 30.2206 0 31.2909C0 34.5412 2.85823 37.1763 6.38409 37.1763H21.1525V1.82422C18.7877 1.82422 16.7248 3.01044 15.6215 4.77177Z" fill="#525A61"/>
<path d="M39.24 29.5297L24.4716 5.9484C23.806 4.88512 22.5837 4.21419 21.2617 4.17969L33.8928 34.8217H35.9204C38.0323 34.8217 39.7508 33.2375 39.7508 31.2906C39.7508 30.6722 39.5738 30.0633 39.24 29.5297Z" fill="white"/>
<path d="M36.7559 29.5301C37.0445 30.0637 37.1968 30.6726 37.1968 31.291C37.1968 33.2378 35.7149 34.8221 33.8924 34.8221H6.38316C4.27129 34.8221 2.55273 33.2378 2.55273 31.291C2.55273 30.6726 2.7298 30.0637 3.06345 29.5301L17.8319 5.94881C18.5163 4.8565 19.788 4.17773 21.1516 4.17773C21.1882 4.17773 21.2248 4.1785 21.2614 4.1801C22.396 4.22092 23.4439 4.89025 24.015 5.94881L36.7559 29.5301Z" fill="white"/>
<path d="M21.1523 26.9746V30.8981C22.3282 30.8981 23.2809 30.02 23.2809 28.9363C23.2809 27.8527 22.3282 26.9746 21.1523 26.9746Z" fill="#3B4145"/>
<path d="M21.152 26.9746C21.387 26.9746 21.5778 27.8527 21.5778 28.9364C21.5778 30.0201 21.387 30.8982 21.152 30.8982C19.9762 30.8982 19.0234 30.0201 19.0234 28.9364C19.0234 27.8527 19.9762 26.9746 21.152 26.9746Z" fill="#525A61"/>
<path d="M21.1523 10.1035V24.6207C22.3282 24.6207 23.2809 23.7418 23.2809 22.6589V12.0653C23.2809 10.9816 22.3282 10.1035 21.1523 10.1035Z" fill="#3B4145"/>
<path d="M21.152 10.1035C21.387 10.1035 21.5778 10.9816 21.5778 12.0653V22.6589C21.5778 23.7417 21.387 24.6207 21.152 24.6207C19.9762 24.6207 19.0234 23.7418 19.0234 22.6589V12.0653C19.0234 10.9816 19.9762 10.1035 21.152 10.1035Z" fill="#525A61"/>
</g>
<defs>
<clipPath id="clip0_1013_2137">
<rect width="42.305" height="39" fill="white"/>
</clipPath>
</defs>
</svg>
