<svg width="24" height="24" viewBox="0 0 24 24" fill="none" xmlns="http://www.w3.org/2000/svg">
<path d="M11.1649 5.67017H5.59221C5.16993 5.67017 4.76494 5.83792 4.46635 6.13651C4.16775 6.43511 4 6.84009 4 7.26237V18.4078C4 18.8301 4.16775 19.2351 4.46635 19.5337C4.76494 19.8323 5.16993 20 5.59221 20H16.7377C17.1599 20 17.5649 19.8323 17.8635 19.5337C18.1621 19.2351 18.3299 18.8301 18.3299 18.4078V12.8351" stroke="#262626" stroke-width="1.5" stroke-linecap="round" stroke-linejoin="round"/>
<path d="M17.1353 4.39118C17.4633 4.06318 17.9081 3.87891 18.372 3.87891C18.8359 3.87891 19.2808 4.06318 19.6088 4.39118C19.9368 4.71919 20.121 5.16406 20.121 5.62793C20.121 6.0918 19.9368 6.53667 19.6088 6.86468L11.776 14.6974L8.47803 15.5219L9.30253 12.2239L17.1353 4.39118Z" stroke="#262626" stroke-width="1.5" stroke-linecap="round" stroke-linejoin="round"/>
</svg>
