<svg width="24" height="24" viewBox="0 0 24 24" fill="none" xmlns="http://www.w3.org/2000/svg">
<path d="M12 24C18.6274 24 24 18.6274 24 12C24 5.37258 18.6274 0 12 0C5.37258 0 0 5.37258 0 12C0 18.6274 5.37258 24 12 24Z" fill="#8AC9FE"/>
<path fill-rule="evenodd" clip-rule="evenodd" d="M7.00004 17.4146C6.79104 17.3406 6.59904 17.2206 6.43954 17.061C6.27054 16.8918 6.14604 16.687 6.07354 16.4638C6.21204 16.4878 6.35454 16.5002 6.50004 16.5002H17.5C17.6455 16.5002 17.788 16.4878 17.9265 16.4638C17.854 16.687 17.7295 16.8918 17.5605 17.061C17.401 17.2206 17.209 17.3406 17 17.4146V18.5002C17 18.7762 16.776 19.0002 16.5 19.0002C16.224 19.0002 16 18.7762 16 18.5002V17.5002H8.00004V18.5002C8.00004 18.7762 7.77604 19.0002 7.50004 19.0002C7.22404 19.0002 7.00004 18.7762 7.00004 18.5002V17.4146ZM17.5 10.5002C18.3285 10.5002 19 11.1718 19 12.0002V14.0002C19 14.8286 18.3285 15.5002 17.5 15.5002H6.50004C5.67154 15.5002 5.00004 14.8286 5.00004 14.0002V12.0002C5.00004 11.1718 5.67154 10.5002 6.50004 10.5002H17.5ZM8.00004 13.2502V12.7502C8.00004 12.4742 7.77604 12.2502 7.50004 12.2502C7.22404 12.2502 7.00004 12.4742 7.00004 12.7502V13.2502C7.00004 13.5262 7.22404 13.7502 7.50004 13.7502C7.77604 13.7502 8.00004 13.5262 8.00004 13.2502ZM16.5 12.5002C16.224 12.5002 16 12.7242 16 13.0002C16 13.2762 16.224 13.5002 16.5 13.5002C16.776 13.5002 17 13.2762 17 13.0002C17 12.7242 16.776 12.5002 16.5 12.5002ZM10 13.2502V12.7502C10 12.4742 9.77604 12.2502 9.50004 12.2502C9.22404 12.2502 9.00004 12.4742 9.00004 12.7502V13.2502C9.00004 13.5262 9.22404 13.7502 9.50004 13.7502C9.77604 13.7502 10 13.5262 10 13.2502ZM14.5 12.5002H11.5C11.224 12.5002 11 12.7242 11 13.0002C11 13.2762 11.224 13.5002 11.5 13.5002H14.5C14.776 13.5002 15 13.2762 15 13.0002C15 12.7242 14.776 12.5002 14.5 12.5002ZM6.42304 9.50144L5.03004 5.67104C4.93604 5.41184 5.07004 5.12464 5.32904 5.03024C5.58854 4.93584 5.87554 5.06984 5.97004 5.32944L7.48654 9.50024H6.50004C6.47404 9.50024 6.44854 9.50064 6.42304 9.50144ZM16.5135 9.50024L18.03 5.32944C18.1245 5.06984 18.4115 4.93584 18.671 5.03024C18.93 5.12464 19.064 5.41184 18.97 5.67104L17.577 9.50144C17.5515 9.50064 17.526 9.50024 17.5 9.50024H16.5135ZM10.586 9.58584C10.3905 9.78104 10.074 9.78104 9.87854 9.58584C9.68354 9.39104 9.68354 9.07424 9.87854 8.87904C11.0495 7.70824 12.9505 7.70824 14.1215 8.87904C14.3165 9.07424 14.3165 9.39104 14.1215 9.58584C13.926 9.78104 13.6095 9.78104 13.414 9.58584C12.6335 8.80544 11.3665 8.80544 10.586 9.58584ZM9.17154 8.17184C8.97654 8.36704 8.65954 8.36704 8.46454 8.17184C8.26954 7.97664 8.26954 7.65984 8.46454 7.46464C10.416 5.51344 13.584 5.51344 15.5355 7.46464C15.7305 7.65984 15.7305 7.97664 15.5355 8.17184C15.3405 8.36704 15.0235 8.36704 14.8285 8.17184C13.2675 6.61064 10.7325 6.61064 9.17154 8.17184Z" fill="white"/>
</svg>
