<svg width="24" height="24" viewBox="0 0 24 24" fill="none" xmlns="http://www.w3.org/2000/svg">
<path d="M12 24C18.6274 24 24 18.6274 24 12C24 5.37258 18.6274 0 12 0C5.37258 0 0 5.37258 0 12C0 18.6274 5.37258 24 12 24Z" fill="#8AC9FE"/>
<g clip-path="url(#clip0_351_16057)">
<path d="M14 6C12.201 6 10.591 6.796 9.492 8.05C9.328 8.033 9.168 8 9 8C6.239 8 4 10.239 4 13C4 15.761 6.239 18 9 18C9.859 18 13.052 18 14 18C17.314 18 20 15.314 20 12C20 8.686 17.314 6 14 6ZM9 17C6.794 17 5 15.206 5 13C5 10.794 6.794 9 9 9C9.448 9 9.888 9.077 10.31 9.23C10.54 9.293 10.815 9.418 11.094 9.592C11.103 9.597 11.112 9.602 11.12 9.607L14.266 11.576C14.499 11.722 14.571 12.031 14.424 12.265C14.278 12.5 13.97 12.571 13.734 12.424L10.611 10.469C10.601 10.464 10.591 10.458 10.582 10.452C10.378 10.323 10.184 10.231 10.006 10.182C7.917 9.437 6 11.015 6 13C6 14.654 7.346 16 9 16C9.169 16 9.336 15.982 9.499 15.955C9.752 16.246 10.034 16.513 10.358 16.758C9.928 16.913 9.471 17 9 17ZM14 17C12.918 17 11.888 16.658 11.021 16.011C10.684 15.763 10.4 15.496 10.158 15.198C10.149 15.188 10.14 15.178 10.132 15.169L8.613 13.317C8.438 13.103 8.469 12.788 8.683 12.613C8.895 12.437 9.211 12.469 9.387 12.683L10.877 14.499C10.889 14.512 10.901 14.525 10.912 14.539C11.104 14.781 11.334 15 11.616 15.208C12.312 15.727 13.136 16 14 16C16.206 16 18 14.206 18 12C18 9.794 16.206 8 14 8C13.133 8 12.321 8.274 11.653 8.762L11.65 8.76C11.634 8.75 11.618 8.74 11.602 8.731C11.287 8.536 10.969 8.392 10.655 8.293C11.556 7.471 12.73 7 14 7C16.757 7 19 9.243 19 12C19 14.757 16.757 17 14 17Z" fill="white"/>
</g>
<defs>
<clipPath id="clip0_351_16057">
<rect width="16" height="16" fill="white" transform="translate(4 4)"/>
</clipPath>
</defs>
</svg>
