<svg width="24" height="24" viewBox="0 0 24 24" fill="none" xmlns="http://www.w3.org/2000/svg">
<path d="M12 24C18.6274 24 24 18.6274 24 12C24 5.37258 18.6274 0 12 0C5.37258 0 0 5.37258 0 12C0 18.6274 5.37258 24 12 24Z" fill="#8AC9FE"/>
<path d="M12.3545 4.49219V7.27549C14.5917 7.50336 16.343 9.39814 16.343 11.6944C16.343 13.9907 14.5917 15.8856 12.3545 16.1135V19.4922C12.8089 19.2017 13.891 18.4684 14.9848 17.4211C15.8185 16.6228 16.4847 15.8068 16.9652 14.9957C17.5815 13.9552 17.8941 12.9177 17.8941 11.912V6.99891L12.3545 4.49219Z" fill="white"/>
<path d="M7.45938 11.6944C7.45938 9.39814 9.21061 7.50336 11.4479 7.27549V4.49219L5.9082 6.99891V11.9121C5.9082 12.9177 6.22076 13.9552 6.83701 14.9957C7.31748 15.8068 7.9838 16.6228 8.81757 17.4211C9.91117 18.4685 10.9934 19.2017 11.4477 19.4922V16.1135C9.21061 15.8856 7.45938 13.9907 7.45938 11.6944Z" fill="white"/>
<path d="M15.436 11.694C15.436 9.74488 13.8503 8.15918 11.9011 8.15918C9.95191 8.15918 8.36621 9.74488 8.36621 11.694C8.36621 13.6434 9.95191 15.2291 11.9011 15.2291C13.8503 15.2291 15.436 13.6434 15.436 11.694ZM11.5038 14.8601C10.8979 14.8601 10.3186 14.5313 10.0132 13.9954C9.19321 12.556 9.97049 10.9341 10.0039 10.8657L10.243 10.3777L10.629 10.6624C11.0166 9.87891 11.4891 9.09796 11.5133 9.05805L11.9011 8.41901L12.2888 9.05805C12.3131 9.09796 12.7857 9.87891 13.1731 10.6624L13.5592 10.3777L13.7982 10.8657C13.8318 10.9341 14.6089 12.556 13.789 13.9954C13.4505 14.5896 12.7751 14.9291 12.0998 14.8482H11.7024C11.6361 14.8562 11.5699 14.8601 11.5038 14.8601Z" fill="white"/>
<path d="M10.8294 12.8713L11.2335 13.0655C11.2957 12.8942 11.3775 12.6814 11.4825 12.4295L11.8906 11.4494L12.3165 12.4219C12.4255 12.6708 12.5098 12.8868 12.5735 13.0633L12.9728 12.8713L12.996 13.5547C12.9975 13.552 12.9993 13.5494 13.0008 13.5469C13.3417 12.9486 13.2777 12.2688 13.1658 11.8076L12.8142 12.0797L12.5827 11.5428C12.3946 11.1066 12.1235 10.5967 11.9011 10.1992C11.6787 10.597 11.4074 11.1071 11.2195 11.5428L10.9881 12.0797L10.6364 11.8076C10.5246 12.2684 10.4603 12.9484 10.8013 13.5469C10.8029 13.5494 10.8046 13.552 10.8062 13.5547L10.8294 12.8713Z" fill="white"/>
</svg>
