<svg width="40" height="40" viewBox="0 0 40 40" fill="none" xmlns="http://www.w3.org/2000/svg">
<path d="M20 40C31.0457 40 40 31.0457 40 20C40 8.9543 31.0457 0 20 0C8.9543 0 0 8.9543 0 20C0 31.0457 8.9543 40 20 40Z" fill="#8AC9FE"/>
<path d="M17.3292 10H11.7073C10.7659 10 10 10.7659 10 11.7073V17.3292C10 18.2706 10.7659 19.0365 11.7073 19.0365H17.3292C18.2706 19.0365 19.0365 18.2706 19.0365 17.3292V11.7073C19.0365 10.7659 18.2706 10 17.3292 10Z" fill="white"/>
<path d="M28.2931 10H22.6712C21.7298 10 20.9639 10.7659 20.9639 11.7073V17.3292C20.9639 18.2706 21.7298 19.0365 22.6712 19.0365H28.2931C29.2345 19.0365 30.0004 18.2706 30.0004 17.3292V11.7073C30.0004 10.7659 29.2345 10 28.2931 10Z" fill="white"/>
<path d="M17.3292 20.9639H11.7073C10.7659 20.9639 10 21.7298 10 22.6712V28.2931C10 29.2345 10.7659 30.0004 11.7073 30.0004H17.3292C18.2706 30.0004 19.0365 29.2345 19.0365 28.2931V22.6712C19.0365 21.7298 18.2706 20.9639 17.3292 20.9639Z" fill="white"/>
<path d="M28.2931 20.9639H22.6712C21.7298 20.9639 20.9639 21.7298 20.9639 22.6712V28.2931C20.9639 29.2345 21.7298 30.0004 22.6712 30.0004H28.2931C29.2345 30.0004 30.0004 29.2345 30.0004 28.2931V22.6712C30.0004 21.7298 29.2345 20.9639 28.2931 20.9639Z" fill="white"/>
</svg>
