<svg width="24" height="24" viewBox="0 0 24 24" fill="none" xmlns="http://www.w3.org/2000/svg">
<g clip-path="url(#clip0_351_16174)">
<path d="M12 24C18.6274 24 24 18.6274 24 12C24 5.37258 18.6274 0 12 0C5.37258 0 0 5.37258 0 12C0 18.6274 5.37258 24 12 24Z" fill="#8AC9FE"/>
<path d="M17.5 6H6.5C5.67 6 5 6.67 5 7.5V10H19V7.5C19 6.67 18.33 6 17.5 6Z" fill="white"/>
<path d="M19 10H5V14H19V10Z" fill="#8AC9FE"/>
<path d="M19 14H5V16.5C5 17.33 5.67 18 6.5 18H17.5C18.33 18 19 17.33 19 16.5V14Z" fill="white"/>
<path d="M9.5 8.5H7.5C7.225 8.5 7 8.275 7 8C7 7.725 7.225 7.5 7.5 7.5H9.5C9.775 7.5 10 7.725 10 8C10 8.275 9.775 8.5 9.5 8.5Z" fill="#8AC9FE"/>
<path d="M9.5 12.5H7.5C7.225 12.5 7 12.275 7 12C7 11.725 7.225 11.5 7.5 11.5H9.5C9.775 11.5 10 11.725 10 12C10 12.275 9.775 12.5 9.5 12.5Z" fill="white"/>
<path d="M15 8.5C15.2761 8.5 15.5 8.27614 15.5 8C15.5 7.72386 15.2761 7.5 15 7.5C14.7239 7.5 14.5 7.72386 14.5 8C14.5 8.27614 14.7239 8.5 15 8.5Z" fill="#8AC9FE"/>
<path d="M16.5 8.5C16.7761 8.5 17 8.27614 17 8C17 7.72386 16.7761 7.5 16.5 7.5C16.2239 7.5 16 7.72386 16 8C16 8.27614 16.2239 8.5 16.5 8.5Z" fill="#8AC9FE"/>
<path d="M15 12.5C15.2761 12.5 15.5 12.2761 15.5 12C15.5 11.7239 15.2761 11.5 15 11.5C14.7239 11.5 14.5 11.7239 14.5 12C14.5 12.2761 14.7239 12.5 15 12.5Z" fill="white"/>
<path d="M13.5 8.5C13.7761 8.5 14 8.27614 14 8C14 7.72386 13.7761 7.5 13.5 7.5C13.2239 7.5 13 7.72386 13 8C13 8.27614 13.2239 8.5 13.5 8.5Z" fill="#8AC9FE"/>
<path d="M13.5 12.5C13.7761 12.5 14 12.2761 14 12C14 11.7239 13.7761 11.5 13.5 11.5C13.2239 11.5 13 11.7239 13 12C13 12.2761 13.2239 12.5 13.5 12.5Z" fill="white"/>
<path d="M16.5 12.5C16.7761 12.5 17 12.2761 17 12C17 11.7239 16.7761 11.5 16.5 11.5C16.2239 11.5 16 11.7239 16 12C16 12.2761 16.2239 12.5 16.5 12.5Z" fill="white"/>
<path d="M9.5 16.5H7.5C7.225 16.5 7 16.275 7 16C7 15.725 7.225 15.5 7.5 15.5H9.5C9.775 15.5 10 15.725 10 16C10 16.275 9.775 16.5 9.5 16.5Z" fill="#8AC9FE"/>
<path d="M15 16.5C15.2761 16.5 15.5 16.2761 15.5 16C15.5 15.7239 15.2761 15.5 15 15.5C14.7239 15.5 14.5 15.7239 14.5 16C14.5 16.2761 14.7239 16.5 15 16.5Z" fill="#8AC9FE"/>
<path d="M13.5 16.5C13.7761 16.5 14 16.2761 14 16C14 15.7239 13.7761 15.5 13.5 15.5C13.2239 15.5 13 15.7239 13 16C13 16.2761 13.2239 16.5 13.5 16.5Z" fill="#29B6F6"/>
<path d="M16.5 16.5C16.7761 16.5 17 16.2761 17 16C17 15.7239 16.7761 15.5 16.5 15.5C16.2239 15.5 16 15.7239 16 16C16 16.2761 16.2239 16.5 16.5 16.5Z" fill="#8AC9FE"/>
</g>
<defs>
<clipPath id="clip0_351_16174">
<rect width="24" height="24" fill="white"/>
</clipPath>
</defs>
</svg>
