<svg width="24" height="24" viewBox="0 0 24 24" fill="none" xmlns="http://www.w3.org/2000/svg">
<rect width="24" height="24" rx="12" fill="#8AC9FE"/>
<path d="M5 8.51654C4.99999 8.87095 4.99999 9.1608 5.0238 9.39635C5.04845 9.64017 5.10102 9.86038 5.23066 10.066C5.43356 10.3879 5.7573 10.6496 6.15551 10.8136C6.40995 10.9184 6.68239 10.9608 6.98405 10.9808C7.27548 11 7.63407 11 8.07254 11H15.9275C16.3659 11 16.7246 11 17.016 10.9807C17.3177 10.9608 17.5901 10.9184 17.8445 10.8136C18.2427 10.6496 18.5665 10.3879 18.7694 10.066C18.899 9.86038 18.9516 9.64017 18.9762 9.39635C19.0001 9.1608 19 8.87095 19 8.51655V8.48345C19 8.12905 19.0001 7.83921 18.9762 7.60365C18.9516 7.35983 18.899 7.13962 18.7694 6.93396C18.5665 6.61211 18.2427 6.35043 17.8445 6.18644C17.5901 6.08165 17.3177 6.03916 17.016 6.01924C16.7245 5.99999 16.3659 5.99999 15.9275 6H8.07257C7.63409 5.99999 7.27549 5.99999 6.98405 6.01924C6.68239 6.03916 6.40995 6.08165 6.15551 6.18644C5.7573 6.35043 5.43356 6.61211 5.23066 6.93396C5.10102 7.13962 5.04845 7.35983 5.0238 7.60365C4.99999 7.83921 4.99999 8.12905 5 8.48346V8.51654Z" fill="white"/>
<path d="M6.20793 16.2606C6.16707 15.8393 6.16634 15.2925 6.16634 14.4997C6.16634 14.1315 5.86787 13.833 5.49967 13.833C5.13149 13.833 4.83301 14.1315 4.83301 14.4997V14.5333C4.83299 15.2843 4.83299 15.8961 4.88083 16.3893C4.93037 16.9002 5.03611 17.3539 5.29283 17.7624C5.53262 18.1441 5.8553 18.4667 6.23691 18.7065C6.64548 18.9632 7.09913 19.069 7.61001 19.1185C8.10328 19.1663 8.71498 19.1663 9.46602 19.1663H14.5333C15.2844 19.1663 15.896 19.1663 16.3893 19.1185C16.9002 19.069 17.3538 18.9632 17.7624 18.7065C18.144 18.4667 18.4667 18.1441 18.7065 17.7624C18.9632 17.3539 19.069 16.9002 19.1185 16.3893C19.1664 15.8961 19.1664 15.2844 19.1663 14.5333V14.4997C19.1663 14.1315 18.8678 13.833 18.4996 13.833C18.1315 13.833 17.833 14.1315 17.833 14.4997C17.833 15.2925 17.8322 15.8393 17.7914 16.2606C17.7516 16.6717 17.6784 16.8925 17.5776 17.0531C17.4443 17.2651 17.265 17.4443 17.053 17.5775C16.8924 17.6785 16.6717 17.7515 16.2606 17.7914C15.8393 17.8323 15.2925 17.833 14.4996 17.833H9.49967C8.70686 17.833 8.16003 17.8323 7.73871 17.7914C7.32766 17.7515 7.10691 17.6785 6.94629 17.5775C6.73428 17.4443 6.55501 17.2651 6.4218 17.0531C6.32087 16.8925 6.2478 16.6717 6.20793 16.2606Z" fill="white"/>
<path d="M12 10C11.6318 10 11.3333 10.2985 11.3333 10.6667V14.0001H10.7975L10.785 14C10.7382 13.9999 10.6547 13.9997 10.5819 14.0091L10.5795 14.0094C10.5269 14.0161 10.2138 14.0558 10.0629 14.3695C9.91121 14.6847 10.0781 14.9552 10.1051 14.9988L10.1066 15.0013C10.1448 15.0637 10.1972 15.1287 10.2272 15.1661L10.2352 15.176C10.2728 15.223 10.3159 15.2779 10.363 15.3378C10.519 15.5363 10.7192 15.7912 10.9142 16.0057C11.0426 16.1471 11.1889 16.2941 11.341 16.4099C11.4699 16.5081 11.7066 16.6667 12 16.6667C12.2934 16.6667 12.53 16.5081 12.6589 16.4099C12.8111 16.2941 12.9574 16.1471 13.0858 16.0057C13.2807 15.7912 13.481 15.5363 13.637 15.3378C13.6841 15.2779 13.7272 15.223 13.7648 15.176L13.7728 15.1661C13.8028 15.1288 13.8552 15.0637 13.8934 15.0013L13.8949 14.9988C13.9218 14.9552 14.0888 14.6847 13.9371 14.3695C13.7862 14.0558 13.4731 14.0161 13.4205 14.0094L13.4181 14.0091C13.3453 13.9997 13.2618 13.9999 13.215 14L13.2025 14.0001H12.6666V10.6667C12.6666 10.2985 12.3682 10 12 10Z" fill="white"/>
</svg>
