<svg width="40" height="40" viewBox="0 0 40 40" fill="none" xmlns="http://www.w3.org/2000/svg">
<path d="M20 40C31.0457 40 40 31.0457 40 20C40 8.9543 31.0457 0 20 0C8.9543 0 0 8.9543 0 20C0 31.0457 8.9543 40 20 40Z" fill="#8AC9FE"/>
<path d="M28.1663 24.6663C27.7813 24.6663 27.4197 24.748 27.0697 24.8647L23.6747 20.513C24.293 19.7197 24.6663 18.7397 24.6663 17.6663C24.6663 15.4963 23.173 13.688 21.1663 13.163V9.49967C21.1663 8.85801 20.6413 8.33301 19.9997 8.33301C19.358 8.33301 18.833 8.85801 18.833 9.49967V13.163C16.8263 13.688 15.333 15.4963 15.333 17.6663C15.333 18.7397 15.7063 19.7197 16.313 20.5013L12.918 24.8647C12.5797 24.748 12.218 24.6663 11.833 24.6663C9.90801 24.6663 8.33301 26.2413 8.33301 28.1663C8.33301 30.0913 9.90801 31.6663 11.833 31.6663C13.758 31.6663 15.333 30.0913 15.333 28.1663C15.333 27.478 15.123 26.8363 14.773 26.288L18.1447 21.948C18.7163 22.193 19.3463 22.333 19.9997 22.333C20.653 22.333 21.283 22.193 21.8547 21.948L25.2263 26.288C24.8763 26.8363 24.6663 27.478 24.6663 28.1663C24.6663 30.0913 26.2413 31.6663 28.1663 31.6663C30.0913 31.6663 31.6663 30.0913 31.6663 28.1663C31.6663 26.2413 30.0913 24.6663 28.1663 24.6663Z" fill="white"/>
</svg>
