<svg width="24" height="24" viewBox="0 0 24 24" fill="none" xmlns="http://www.w3.org/2000/svg">
<rect width="24" height="24" rx="12" fill="#8AC9FE"/>
<path d="M12.8506 18.9717L12.8516 18.9727L12.8535 18.9736V18.9746L12.8506 18.9717ZM12.8506 18.9717L12.8496 18.9697C12.8481 18.968 12.8462 18.9666 12.8447 18.9648L12.8506 18.9717ZM12.2549 17.7939H12.6338C12.5092 17.9563 12.3839 18.1168 12.2676 18.2666L11.9365 17.8662H12.2305V15.1758C12.2386 15.1755 12.2467 15.1751 12.2549 15.1748V17.7939ZM18.7139 11.7412L18.3135 12.0723V11.7783H15.6211C15.6213 11.7699 15.6219 11.7614 15.6221 11.7529H18.2402V11.374C18.403 11.4989 18.5638 11.6246 18.7139 11.7412ZM5.85352 11.7539H8.62598C8.62615 11.762 8.62575 11.7702 8.62598 11.7783H5.78125V12.0713L5.37988 11.7393C5.52988 11.6228 5.69091 11.4978 5.85352 11.373V11.7539ZM12.5469 11.0996V12.0996H11.5469V11.0996H12.5469ZM12.6338 5.40625H12.2559V8.18066C12.2477 8.18036 12.2396 8.18091 12.2314 8.18066V5.33398H11.9365L12.2676 4.93262C12.3841 5.08252 12.509 5.24367 12.6338 5.40625ZM11.7285 4.25684L11.7314 4.25879C11.7281 4.25549 11.7282 4.25584 11.7324 4.26074C11.7312 4.2595 11.7297 4.25807 11.7285 4.25684Z" stroke="white" stroke-width="2"/>
</svg>
