<svg width="24" height="24" viewBox="0 0 24 24" fill="none" xmlns="http://www.w3.org/2000/svg">
<g clip-path="url(#clip0_351_16156)">
<path d="M12 24C18.6274 24 24 18.6274 24 12C24 5.37258 18.6274 0 12 0C5.37258 0 0 5.37258 0 12C0 18.6274 5.37258 24 12 24Z" fill="#8AC9FE"/>
<path fill-rule="evenodd" clip-rule="evenodd" d="M8.51491 15.36V12.7921C8.51491 12.5399 8.7193 12.3355 8.97144 12.3355H15.0288C15.2809 12.3355 15.4853 12.5399 15.4853 12.7921V15.36C15.4853 15.6121 15.2809 15.8165 15.0288 15.8165H13.8784L13.8662 14.9035H14.5723V13.2486H9.42873L9.42797 14.9035H10.1562L10.1684 15.8165H8.97144C8.7193 15.8165 8.51491 15.6121 8.51491 15.36ZM13.5058 13.6878L13.5548 17.3423L14.0392 16.9318C14.2314 16.7689 14.5197 16.7927 14.6826 16.9849C14.8455 17.1772 14.8217 17.4655 14.6294 17.6284L13.4064 18.6648C13.2716 18.779 13.0829 18.8052 12.9221 18.732C12.7613 18.6588 12.6571 18.4993 12.6548 18.3226L12.5927 13.6878H13.5058ZM11.4923 13.6878L11.5542 18.3104C11.5576 18.5623 11.3558 18.7696 11.1038 18.773C10.8519 18.7763 10.6446 18.5745 10.6412 18.3226L10.5792 13.6878H11.4923ZM10.5539 11.8963H8.97144C8.47673 11.8963 8.07569 12.2973 8.07569 12.7921V14.076H7.11039C5.65254 14.076 4.4707 12.8942 4.4707 11.4363V11.4363C4.4707 10.0719 5.50587 8.94923 6.83365 8.81091C6.92586 6.81759 8.57332 5.22754 10.5893 5.22754C11.773 5.22754 12.8297 5.77577 13.519 6.63196C13.852 6.49847 14.2154 6.42503 14.5958 6.42503C16.1953 6.42503 17.4939 7.7236 17.4939 9.3231C17.4939 9.4361 17.4874 9.54763 17.4748 9.65728C18.623 9.73797 19.5295 10.6951 19.5295 11.8639V11.8639C19.5295 13.0856 18.5391 14.076 17.3174 14.076H15.9245V12.7921C15.9245 12.2973 15.5235 11.8963 15.0288 11.8963H13.4805L13.4541 9.82942C13.4508 9.5775 13.2435 9.37568 12.9916 9.37907C12.7396 9.38243 12.5378 9.58974 12.5412 9.84166L12.5674 11.8963H11.467L11.4406 9.82942C11.4383 9.65273 11.3341 9.49326 11.1733 9.42004C11.0125 9.34685 10.8238 9.37301 10.689 9.48724L9.46597 10.5237C9.27372 10.6866 9.2499 10.9749 9.41279 11.1671C9.57571 11.3593 9.86402 11.3831 10.0562 11.2202L10.5406 10.8098L10.5539 11.8963Z" fill="white"/>
</g>
<defs>
<clipPath id="clip0_351_16156">
<rect width="24" height="24" fill="white"/>
</clipPath>
</defs>
</svg>
