<svg width="40" height="40" viewBox="0 0 40 40" fill="none" xmlns="http://www.w3.org/2000/svg">
<path d="M20 40C31.0457 40 40 31.0457 40 20C40 8.9543 31.0457 0 20 0C8.9543 0 0 8.9543 0 20C0 31.0457 8.9543 40 20 40Z" fill="#8AC9FE"/>
<path d="M20 6C12.2679 6 6 12.2679 6 20C6 27.7321 12.2679 34 20 34C27.7321 34 34 27.7321 34 20C34 12.2679 27.7321 6 20 6ZM11.1154 25.5163C10.9748 25.2899 10.8421 25.0572 10.719 24.8195C10.0143 23.4671 9.59702 21.9441 9.54736 20.3275C9.36498 14.4114 14.1794 9.48857 20.0978 9.54277C21.8003 9.55802 23.4051 9.98098 24.8213 10.7173C25.059 10.8409 25.2911 10.9737 25.5175 11.1148C25.6203 11.1786 25.6372 11.3215 25.552 11.4067L11.4079 25.5508C11.3226 25.636 11.1798 25.6191 11.1154 25.5163ZM20 30.4578C18.2614 30.4578 16.6221 30.0331 15.1805 29.2827C14.9428 29.1591 14.7096 29.0263 14.4831 28.8857C14.3798 28.8214 14.3629 28.6785 14.4481 28.5932L28.5932 14.4481C28.6785 14.3629 28.8214 14.3798 28.8857 14.4831C29.0263 14.7096 29.159 14.9428 29.2827 15.1805C30.0332 16.6238 30.4578 18.2614 30.4578 20C30.4578 25.7755 25.7772 30.4578 20 30.4578Z" fill="white"/>
</svg>
