<svg width="40" height="40" viewBox="0 0 40 40" fill="none" xmlns="http://www.w3.org/2000/svg">
<path d="M20 40C31.0457 40 40 31.0457 40 20C40 8.9543 31.0457 0 20 0C8.9543 0 0 8.9543 0 20C0 31.0457 8.9543 40 20 40Z" fill="#8AC9FE"/>
<path d="M15.57 11.1414C13.1132 11.1414 11.1406 13.1376 11.1406 15.5708V17.7914H15.57V15.5708H23.6188V20.0002L30.2688 13.3502L23.6188 6.7002V11.1414H15.57Z" fill="white"/>
<path d="M16.3805 24.4294V20L9.73047 26.65L16.3805 33.3V28.8588H24.4292C26.8624 28.8588 28.8586 26.8626 28.8586 24.4294V22.2088H24.4292V24.4294H16.3805Z" fill="white"/>
</svg>
