<svg width="24" height="24" viewBox="0 0 24 24" fill="none" xmlns="http://www.w3.org/2000/svg">
<rect width="24" height="24" rx="12" fill="#8AC9FE"/>
<path d="M19.8558 10.8172C19.23 10.8172 17.5967 10.8172 16.7577 10.8172C16.485 10.8172 16.3073 10.8172 16.3073 10.8172C16.3073 10.8172 16.3073 10.1651 16.3073 9.75473C16.3073 9.34555 16.0001 9.65387 16.0001 9.65387C16.0001 9.65387 13.6941 11.3914 13.4522 11.6333C13.2757 11.8086 13.4717 11.9771 13.4717 11.9771L15.9394 14.0184C15.9394 14.0184 16.234 14.329 16.234 13.9932C16.234 13.6563 16.234 12.8425 16.234 12.8425C16.234 12.8425 16.4322 12.8425 16.736 12.8425C17.6036 12.8425 19.183 12.8425 19.826 12.8425C19.826 12.8425 20.0002 12.8872 20.0002 12.6236C20.0002 12.3577 20.0002 11.1932 20.0002 11.004C20.0014 10.8126 19.8558 10.8172 19.8558 10.8172Z" fill="white"/>
<path d="M10.596 11.6333C10.3542 11.3914 8.04696 9.65387 8.04696 9.65387C8.04696 9.65387 7.74094 9.34555 7.74094 9.75473C7.74094 10.1639 7.74094 10.8172 7.74094 10.8172C7.74094 10.8172 7.56329 10.8172 7.2905 10.8172C6.45151 10.8172 4.81709 10.8172 4.19244 10.8172C4.19244 10.8172 4.04688 10.8126 4.04688 11.0029C4.04688 11.192 4.04688 12.3565 4.04688 12.6224C4.04688 12.886 4.22109 12.8413 4.22109 12.8413C4.86409 12.8413 6.44349 12.8413 7.31113 12.8413C7.61486 12.8413 7.81315 12.8413 7.81315 12.8413C7.81315 12.8413 7.81315 13.6551 7.81315 13.9921C7.81315 14.3279 8.10656 14.0173 8.10656 14.0173L10.5742 11.976C10.5765 11.9771 10.7737 11.8086 10.596 11.6333Z" fill="white"/>
<path d="M12.2396 13.3927C12.0654 13.2173 11.8969 13.4133 11.8969 13.4133L9.85562 15.881C9.85562 15.881 9.54502 16.1744 9.88084 16.1744C10.2178 16.1744 11.0316 16.1744 11.0316 16.1744C11.0316 16.1744 11.0316 16.3727 11.0316 16.6764C11.0316 17.5441 11.0316 19.1246 11.0316 19.7665C11.0316 19.7665 10.9857 19.9407 11.2505 19.9407C11.5164 19.9407 12.6809 19.9407 12.87 19.9407C13.0603 19.9407 13.0557 19.7951 13.0557 19.7951C13.0557 19.1705 13.0557 17.5361 13.0557 16.6982C13.0557 16.4254 13.0557 16.2466 13.0557 16.2466C13.0557 16.2466 13.7079 16.2466 14.1182 16.2466C14.5262 16.2466 14.219 15.9406 14.219 15.9406C14.219 15.9406 12.4815 13.6345 12.2396 13.3927Z" fill="white"/>
<path d="M9.85563 8.10656L11.8969 10.5742C11.8969 10.5742 12.0643 10.7714 12.2396 10.5949C12.4815 10.353 14.2202 8.04696 14.2202 8.04696C14.2202 8.04696 14.5285 7.74094 14.1193 7.74094C13.7102 7.74094 13.0569 7.74094 13.0569 7.74094C13.0569 7.74094 13.0569 7.56329 13.0569 7.2905C13.0569 6.45151 13.0569 4.81824 13.0569 4.19244C13.0569 4.19244 13.0614 4.04688 12.8712 4.04688C12.6821 4.04688 11.5176 4.04688 11.2517 4.04688C10.9869 4.04688 11.0327 4.22109 11.0327 4.22109C11.0327 4.86409 11.0327 6.44349 11.0327 7.31113C11.0327 7.61486 11.0327 7.81315 11.0327 7.81315C11.0327 7.81315 10.219 7.81315 9.882 7.81315C9.54502 7.81315 9.85563 8.10656 9.85563 8.10656Z" fill="white"/>
</svg>
