<svg width="40" height="40" viewBox="0 0 40 40" fill="none" xmlns="http://www.w3.org/2000/svg">
<path d="M20 40C31.0457 40 40 31.0457 40 20C40 8.9543 31.0457 0 20 0C8.9543 0 0 8.9543 0 20C0 31.0457 8.9543 40 20 40Z" fill="#8AC9FE"/>
<path d="M30.1259 25.1147H29.4274V24.2388C29.4274 22.165 27.7282 20.4779 25.6397 20.4779H20.8602V17.2388H22.9555C23.9889 17.2388 24.8296 16.404 24.8296 15.3779V10.8609C24.8296 9.83481 23.9889 9 22.9555 9H17.3573C16.324 9 15.4833 9.83477 15.4833 10.8609V15.3778C15.4833 16.4039 16.324 17.2387 17.3573 17.2387H19.4527V20.4778H14.3916C12.303 20.4778 10.604 22.165 10.604 24.2387V25.1146H9.87411C8.8407 25.1147 8 25.9494 8 26.9755V29.1392C8 30.1652 8.8407 31 9.87411 31H12.7413C13.7746 31 14.6153 30.1652 14.6153 29.1392V26.9755C14.6153 25.9494 13.7746 25.1147 12.7413 25.1147H12.0115V24.2388C12.0115 22.9357 13.0792 21.8755 14.3916 21.8755H19.4526V25.1147H18.7228C17.6894 25.1147 16.8487 25.9494 16.8487 26.9755V29.1392C16.8487 30.1652 17.6894 31 18.7228 31H21.59C22.6233 31 23.464 30.1652 23.464 29.1392V26.9755C23.464 25.9494 22.6233 25.1147 21.59 25.1147H20.8602V21.8755H25.6397C26.9521 21.8755 28.0198 22.9357 28.0198 24.2388V25.1147H27.2587C26.2254 25.1147 25.3847 25.9494 25.3847 26.9755V29.1392C25.3847 30.1652 26.2254 31 27.2587 31H30.1259C31.1593 31 32 30.1652 32 29.1392V26.9755C32 25.9494 31.1593 25.1147 30.1259 25.1147Z" fill="white"/>
</svg>
