<svg width="24" height="24" viewBox="0 0 24 24" fill="none" xmlns="http://www.w3.org/2000/svg">
<g clip-path="url(#clip0_351_16138)">
<path d="M12 24C18.6274 24 24 18.6274 24 12C24 5.37258 18.6274 0 12 0C5.37258 0 0 5.37258 0 12C0 18.6274 5.37258 24 12 24Z" fill="#8AC9FE"/>
<path fill-rule="evenodd" clip-rule="evenodd" d="M6.99325 7.84516C6.54134 8.04557 6.25 8.49349 6.25 8.98784V11.3051C6.25 14.6316 8.52404 17.5269 11.7557 18.3152C11.9162 18.3544 12.0838 18.3544 12.2443 18.3152C15.476 17.5269 17.75 14.6316 17.75 11.3051V8.98784C17.75 8.49349 17.4586 8.04557 17.0068 7.84516L12.5068 5.84951C12.1841 5.70641 11.8159 5.70641 11.4932 5.84951L6.99325 7.84516ZM13.25 10.9998C13.25 11.4625 12.9986 11.8664 12.625 12.0826V13.4998C12.625 13.8449 12.3452 14.1248 12 14.1248C11.6548 14.1248 11.375 13.8449 11.375 13.4998V12.0826C11.0014 11.8664 10.75 11.4625 10.75 10.9998C10.75 10.3094 11.3096 9.74977 12 9.74977C12.6904 9.74977 13.25 10.3094 13.25 10.9998Z" fill="white"/>
</g>
<defs>
<clipPath id="clip0_351_16138">
<rect width="24" height="24" fill="white"/>
</clipPath>
</defs>
</svg>
