<svg width="24" height="24" viewBox="0 0 24 24" fill="none" xmlns="http://www.w3.org/2000/svg">
<path d="M17.766 17.012H5.61298C5.18553 17.0117 4.77566 16.8418 4.47341 16.5396C4.17116 16.2373 4.00124 15.8274 4.00098 15.4V5.612C4.00124 5.18455 4.17116 4.77469 4.47341 4.47244C4.77566 4.17019 5.18553 4.00027 5.61298 4H17.766C17.9778 3.99987 18.1875 4.04147 18.3832 4.12242C18.5789 4.20337 18.7567 4.32209 18.9065 4.47179C19.0563 4.62149 19.1751 4.79924 19.2562 4.99488C19.3372 5.19053 19.379 5.40023 19.379 5.612V15.399C19.379 15.8268 19.209 16.2371 18.9065 16.5396C18.604 16.8421 18.1938 17.012 17.766 17.012Z" stroke="#434A51" stroke-width="1.73" stroke-linecap="round" stroke-linejoin="round"/>
<path fill-rule="evenodd" clip-rule="evenodd" d="M19.882 13.417L19.596 12.917C19.4796 12.7151 19.2879 12.5677 19.063 12.5069C18.838 12.4462 18.5982 12.4771 18.396 12.593C18.2967 12.6514 18.1869 12.6897 18.0729 12.7056C17.9588 12.7215 17.8428 12.7148 17.7313 12.6858C17.6198 12.6569 17.5152 12.6062 17.4233 12.5367C17.3315 12.4673 17.2542 12.3804 17.196 12.281C17.1203 12.1535 17.0796 12.0083 17.078 11.86C17.0809 11.7425 17.0603 11.6256 17.0173 11.5163C16.9744 11.4069 16.9099 11.3072 16.8278 11.2231C16.7457 11.1391 16.6476 11.0723 16.5392 11.0267C16.4309 10.9812 16.3145 10.9578 16.197 10.958H15.62C15.5046 10.958 15.3904 10.9808 15.2838 11.0251C15.1773 11.0693 15.0806 11.1342 14.9992 11.216C14.9178 11.2978 14.8533 11.3948 14.8095 11.5015C14.7657 11.6083 14.7435 11.7226 14.744 11.838C14.7406 12.0691 14.6464 12.2896 14.4817 12.4519C14.317 12.6141 14.0952 12.705 13.864 12.705C13.7157 12.7034 13.5705 12.6627 13.443 12.587C13.2408 12.4711 13.001 12.4402 12.776 12.5009C12.5511 12.5617 12.3594 12.7091 12.243 12.911L11.936 13.416C11.8198 13.6177 11.7882 13.8572 11.8482 14.0821C11.9082 14.307 12.0548 14.499 12.256 14.616C12.3897 14.6933 12.5008 14.8043 12.578 14.9381C12.6552 15.0719 12.6958 15.2236 12.6958 15.378C12.6958 15.5324 12.6552 15.6842 12.578 15.8179C12.5008 15.9517 12.3897 16.0628 12.256 16.14C12.156 16.1976 12.0683 16.2744 11.9981 16.3659C11.9278 16.4575 11.8763 16.562 11.8466 16.6735C11.8169 16.785 11.8094 16.9013 11.8248 17.0157C11.8401 17.1301 11.8779 17.2403 11.936 17.34L12.227 17.84C12.2832 17.9414 12.3589 18.0307 12.4497 18.1027C12.5405 18.1748 12.6446 18.2282 12.7561 18.2599C12.8676 18.2916 12.9843 18.3009 13.0994 18.2874C13.2146 18.2738 13.3259 18.2377 13.427 18.181C13.5266 18.1224 13.6368 18.0842 13.7513 18.0685C13.8658 18.0529 13.9823 18.0602 14.0939 18.09C14.2056 18.1198 14.3102 18.1714 14.4017 18.242C14.4932 18.3125 14.5698 18.4006 14.627 18.501C14.7027 18.6285 14.7434 18.7737 14.745 18.922C14.745 19.0376 14.7678 19.152 14.812 19.2588C14.8562 19.3655 14.921 19.4625 15.0027 19.5443C15.0845 19.626 15.1815 19.6908 15.2882 19.735C15.395 19.7792 15.5094 19.802 15.625 19.802H16.202C16.4347 19.802 16.6579 19.7098 16.8228 19.5457C16.9878 19.3815 17.0809 19.1587 17.082 18.926C17.0815 18.8103 17.1039 18.6956 17.1479 18.5886C17.1919 18.4816 17.2567 18.3844 17.3386 18.3026C17.4204 18.2208 17.5176 18.156 17.6246 18.1119C17.7316 18.0679 17.8463 18.0455 17.962 18.046C18.1099 18.0501 18.2545 18.0907 18.383 18.164C18.5847 18.2802 18.8242 18.3118 19.0491 18.2518C19.274 18.1918 19.466 18.0452 19.583 17.844L19.883 17.339C19.9411 17.2393 19.9789 17.1291 19.9942 17.0147C20.0095 16.9003 20.0021 16.784 19.9724 16.6725C19.9427 16.561 19.8912 16.4565 19.8209 16.3649C19.7507 16.2734 19.663 16.1966 19.563 16.139C19.463 16.0814 19.3753 16.0047 19.3051 15.9131C19.2348 15.8216 19.1833 15.717 19.1536 15.6055C19.1239 15.494 19.1164 15.3777 19.1318 15.2633C19.1471 15.149 19.1849 15.0387 19.243 14.939C19.3193 14.8058 19.4298 14.6953 19.563 14.619C19.7642 14.502 19.9108 14.31 19.9708 14.0851C20.0308 13.8602 19.9992 13.6207 19.883 13.419L19.882 13.417Z" fill="#E6E7E8" stroke="#434A51" stroke-width="1.73" stroke-linecap="round" stroke-linejoin="round"/>
<path d="M15.911 16.593C16.5809 16.593 17.124 16.0499 17.124 15.38C17.124 14.7101 16.5809 14.167 15.911 14.167C15.2411 14.167 14.698 14.7101 14.698 15.38C14.698 16.0499 15.2411 16.593 15.911 16.593Z" fill="#E6E7E8" stroke="#434A51" stroke-linecap="round" stroke-linejoin="round"/>
<path d="M10.704 17.012H5.61298C5.18553 17.0117 4.77566 16.8418 4.47341 16.5396C4.17116 16.2373 4.00124 15.8274 4.00098 15.4V7.549M4.00098 7.549V5.612C4.00124 5.18455 4.17116 4.77469 4.47341 4.47244C4.77566 4.17019 5.18553 4.00027 5.61298 4H17.766C17.9778 3.99987 18.1875 4.04147 18.3832 4.12242C18.5789 4.20337 18.7567 4.32209 18.9065 4.47179C19.0563 4.62149 19.1751 4.79924 19.2562 4.99488C19.3372 5.19053 19.379 5.40023 19.379 5.612V7.549M4.00098 7.549H19.379M19.379 9.52V7.549" stroke="#434A51" stroke-width="1.73" stroke-linecap="round" stroke-linejoin="round"/>
<path d="M13.867 6.37412C14.0896 6.37412 14.27 6.19369 14.27 5.97112C14.27 5.74854 14.0896 5.56812 13.867 5.56812C13.6444 5.56812 13.464 5.74854 13.464 5.97112C13.464 6.19369 13.6444 6.37412 13.867 6.37412Z" fill="#434A51" stroke="#434A51" stroke-width="0.25" stroke-linecap="round" stroke-linejoin="round"/>
<path d="M15.48 6.37412C15.7026 6.37412 15.883 6.19369 15.883 5.97112C15.883 5.74854 15.7026 5.56812 15.48 5.56812C15.2575 5.56812 15.077 5.74854 15.077 5.97112C15.077 6.19369 15.2575 6.37412 15.48 6.37412Z" fill="#434A51" stroke="#434A51" stroke-width="0.25" stroke-linecap="round" stroke-linejoin="round"/>
<path d="M17.092 6.37412C17.3145 6.37412 17.495 6.19369 17.495 5.97112C17.495 5.74854 17.3145 5.56812 17.092 5.56812C16.8694 5.56812 16.689 5.74854 16.689 5.97112C16.689 6.19369 16.8694 6.37412 17.092 6.37412Z" fill="#434A51" stroke="#434A51" stroke-width="0.25" stroke-linecap="round" stroke-linejoin="round"/>
</svg>
