<svg width="24" height="24" viewBox="0 0 24 24" fill="none" xmlns="http://www.w3.org/2000/svg">
<path fill-rule="evenodd" clip-rule="evenodd" d="M3 6.67993C3 3.91879 3.02935 3 6.63902 3C10.2487 3 10.278 3.91879 10.278 6.67993C10.278 9.44106 10.2898 10.3599 6.63902 10.3599C2.98826 10.3599 3 9.43394 3 6.67993Z" fill="#E3E3E5" fill-opacity="0.16" stroke="#434A51" stroke-width="1.73" stroke-linecap="round" stroke-linejoin="round"/>
<path opacity="0.4" fill-rule="evenodd" clip-rule="evenodd" d="M14.511 6.67993C14.511 3.92236 14.5403 3 18.15 3C21.7597 3 21.789 3.91879 21.789 6.67993C21.789 9.44106 21.8008 10.3599 18.15 10.3599C14.4992 10.3599 14.511 9.43394 14.511 6.67993Z" fill="#E3E3E5" fill-opacity="0.16" stroke="#434A51" stroke-width="1.73" stroke-linecap="round" stroke-linejoin="round"/>
<path fill-rule="evenodd" clip-rule="evenodd" d="M3 18.3198C3 15.5622 3.02935 14.6399 6.63902 14.6399C10.2487 14.6399 10.278 15.5587 10.278 18.3198C10.278 21.081 10.2898 21.9997 6.63902 21.9997C2.98826 21.9997 3 21.0738 3 18.3198Z" fill="#E3E3E5" fill-opacity="0.16" stroke="#434A51" stroke-width="1.73" stroke-linecap="round" stroke-linejoin="round"/>
<path fill-rule="evenodd" clip-rule="evenodd" d="M14.511 18.3198C14.511 15.5622 14.5403 14.6399 18.15 14.6399C21.7597 14.6399 21.789 15.5587 21.789 18.3198C21.789 21.081 21.8008 21.9997 18.15 21.9997C14.4992 21.9997 14.511 21.0738 14.511 18.3198Z" fill="#E3E3E5" fill-opacity="0.16" stroke="#434A51" stroke-width="1.73" stroke-linecap="round" stroke-linejoin="round"/>
</svg>
