<svg width="24" height="24" viewBox="0 0 24 24" fill="none" xmlns="http://www.w3.org/2000/svg">
<path d="M7.5 19H10M10 15H7.2C6.0799 15 5.51984 15 5.09202 14.782C4.71569 14.5903 4.40973 14.2843 4.21799 13.908C4 13.4802 4 12.9201 4 11.8V8.2C4 7.0799 4 6.51984 4.21799 6.09202C4.40973 5.71569 4.71569 5.40973 5.09202 5.21799C5.51984 5 6.0799 5 7.2 5H10H14.9775C15.4422 5 15.6745 5 15.8677 5.03843C16.6611 5.19624 17.2813 5.81644 17.4391 6.60982C17.4775 6.80302 17.4775 7.03534 17.4775 7.5M16.16 16.84H18.66M16.16 19H18.59C19.3461 19 19.7241 19 20.0129 18.8529C20.2669 18.7234 20.4735 18.5169 20.6029 18.2629C20.75 17.9741 20.75 17.5961 20.75 16.84V10.36C20.75 9.60389 20.75 9.22585 20.6029 8.93707C20.4735 8.68305 20.2669 8.47652 20.0129 8.34709C19.7241 8.19995 19.3461 8.19995 18.59 8.19995H16.16C15.4039 8.19995 15.0259 8.19995 14.7371 8.34709C14.4831 8.47652 14.2766 8.68305 14.1471 8.93707C14 9.22585 14 9.60389 14 10.36V16.84C14 17.5961 14 17.9741 14.1471 18.2629C14.2766 18.5169 14.4831 18.7234 14.7371 18.8529C15.0259 19 15.4039 19 16.16 19Z" stroke="#040D17" stroke-linecap="round" stroke-linejoin="round"/>
</svg>
