<svg width="24" height="24" viewBox="0 0 24 24" fill="none" xmlns="http://www.w3.org/2000/svg">
<path d="M12.5 6L4 19H20.5L12.5 6Z" stroke="#434A51" stroke-width="1.73" stroke-linecap="round" stroke-linejoin="round"/>
<path d="M10 5.5C10 4.11929 11.1193 3 12.5 3C13.8807 3 15 4.11929 15 5.5C15 6.88071 13.8807 8 12.5 8C11.1193 8 10 6.88071 10 5.5Z" fill="#E6E7E8" stroke="#434A51" stroke-width="1.73"/>
<path d="M17 18.5C17 17.1193 18.1193 16 19.5 16C20.8807 16 22 17.1193 22 18.5C22 19.8807 20.8807 21 19.5 21C18.1193 21 17 19.8807 17 18.5Z" fill="#E6E7E8" stroke="#434A51" stroke-width="1.73"/>
<path d="M3 18.5C3 17.1193 4.11929 16 5.5 16C6.88071 16 8 17.1193 8 18.5C8 19.8807 6.88071 21 5.5 21C4.11929 21 3 19.8807 3 18.5Z" fill="#E6E7E8" stroke="#434A51" stroke-width="1.73"/>
</svg>
