<svg width="24" height="24" viewBox="0 0 24 24" fill="none" xmlns="http://www.w3.org/2000/svg">
<path d="M5 18C3.34315 18 2 16.6569 2 15V7.8C2 6.11984 2 5.27976 2.32698 4.63803C2.6146 4.07354 3.07354 3.6146 3.63803 3.32698C4.27976 3 5.11984 3 6.8 3H17.2C18.8802 3 19.7202 3 20.362 3.32698C20.9265 3.6146 21.3854 4.07354 21.673 4.63803C22 5.27976 22 6.11984 22 7.8V15C22 16.6569 20.6569 18 19 18" stroke="#434A51" stroke-width="1.73" stroke-linecap="round" stroke-linejoin="round"/>
<path d="M17 22C17 21.2247 17 20.837 16.9031 20.5216C16.685 19.8114 16.1222 19.2556 15.4031 19.0401C15.0838 18.9444 14.6913 18.9444 13.9062 18.9444H11.0938C10.3087 18.9444 9.91624 18.9444 9.59686 19.0401C8.87776 19.2556 8.31502 19.8114 8.09688 20.5216C8 20.837 8 21.2247 8 22M15.0312 14.5C15.0312 15.8807 13.898 17 12.5 17C11.102 17 9.96875 15.8807 9.96875 14.5C9.96875 13.1193 11.102 12 12.5 12C13.898 12 15.0312 13.1193 15.0312 14.5Z" stroke="#434A51" stroke-width="1.73" stroke-linecap="round" stroke-linejoin="round"/>
</svg>
