<svg width="24" height="24" viewBox="0 0 24 24" fill="none" xmlns="http://www.w3.org/2000/svg">
<path d="M3 16V4M3 16H8.33726C8.58185 16 8.70414 16 8.81923 16.0276C8.92127 16.0521 9.01881 16.0925 9.10828 16.1474C9.2092 16.2092 9.29568 16.2957 9.46863 16.4686L9.53137 16.5314C9.70432 16.7043 9.7908 16.7908 9.89172 16.8526C9.98119 16.9075 10.0787 16.9479 10.1808 16.9724C10.2959 17 10.4182 17 10.6627 17H13.3373C13.5818 17 13.7041 17 13.8192 16.9724C13.9213 16.9479 14.0188 16.9075 14.1083 16.8526C14.2092 16.7908 14.2957 16.7043 14.4686 16.5314L14.5314 16.4686C14.7043 16.2957 14.7908 16.2092 14.8917 16.1474C14.9812 16.0925 15.0787 16.0521 15.1808 16.0276C15.2959 16 15.4182 16 15.6627 16H21L21.1883 7.269C21.2129 6.12716 21.2253 5.55623 21.0107 5.11902C20.8221 4.73455 20.515 4.42079 20.1347 4.2239C19.7022 4 19.1312 4 17.9891 4H4M3 16C2.44772 16 2 16.4477 2 17V17.3333C2 17.9533 2 18.2633 2.06815 18.5176C2.25308 19.2078 2.79218 19.7469 3.48236 19.9319C3.7367 20 4.04669 20 4.66667 20H19.3333C19.9533 20 20.2633 20 20.5176 19.9319C21.2078 19.7469 21.7469 19.2078 21.9319 18.5176C22 18.2633 22 17.9533 22 17.3333C22 17.0233 22 16.8683 21.9659 16.7412C21.8735 16.3961 21.6039 16.1265 21.2588 16.0341C21.1317 16 20.9767 16 20.6667 16H20" stroke="#434A51" stroke-width="1.73" stroke-linecap="round" stroke-linejoin="round"/>
<path d="M3 4.5L11.5 12L21 4" stroke="#434A51" stroke-width="1.73" stroke-linecap="round" stroke-linejoin="round"/>
<path d="M17 4.5C17 3.11929 18.1193 2 19.5 2C20.8807 2 22 3.11929 22 4.5C22 5.88071 20.8807 7 19.5 7C18.1193 7 17 5.88071 17 4.5Z" fill="#E6E7E8" stroke="#434A51" stroke-width="1.73"/>
<path d="M1 4.5C1 3.11929 2.11929 2 3.5 2C4.88071 2 6 3.11929 6 4.5C6 5.88071 4.88071 7 3.5 7C2.11929 7 1 5.88071 1 4.5Z" fill="#E6E7E8" stroke="#434A51" stroke-width="1.73"/>
<path d="M9 11.5C9 10.1193 10.1193 9 11.5 9C12.8807 9 14 10.1193 14 11.5C14 12.8807 12.8807 14 11.5 14C10.1193 14 9 12.8807 9 11.5Z" fill="#E6E7E8" stroke="#434A51" stroke-width="1.73"/>
</svg>
