<svg width="24" height="24" viewBox="0 0 24 24" fill="none" xmlns="http://www.w3.org/2000/svg">
<path d="M20.6168 7C20.831 7.37054 20.933 7.79528 20.9105 8.22267C20.888 8.65007 20.742 9.06175 20.4901 9.40778L19.6435 10.5711C19.3415 10.9864 19.1789 11.4866 19.179 12C19.1764 12.5148 19.3375 13.0171 19.639 13.4344L20.4857 14.5978C20.7376 14.9438 20.8836 15.3555 20.9061 15.7829C20.9286 16.2103 20.8265 16.635 20.6123 17.0056C20.3984 17.3763 20.0816 17.6771 19.7001 17.8713C19.3187 18.0656 18.8891 18.145 18.4635 18.1L17.0335 17.9478C16.5228 17.8941 16.0082 18.0034 15.5635 18.26C15.1215 18.5159 14.7715 18.9047 14.5635 19.3711L13.979 20.6856C13.8053 21.0768 13.5217 21.4093 13.1628 21.6426C12.8038 21.8759 12.3849 22.0001 11.9568 22C11.5287 22.0001 11.1097 21.8759 10.7508 21.6426C10.3918 21.4093 10.1083 21.0768 9.93457 20.6856L9.35012 19.3711C9.14188 18.902 8.7902 18.511 8.34568 18.2544C7.90089 17.9979 7.38634 17.8886 6.87568 17.9422L5.44568 18.0944C5.02004 18.1392 4.59055 18.0596 4.20918 17.8654C3.82782 17.6712 3.5109 17.3706 3.29679 17C3.08261 16.6295 2.98057 16.2047 3.00305 15.7773C3.02554 15.3499 3.17158 14.9382 3.42345 14.5922L4.27012 13.4289C4.57206 13.0137 4.73466 12.5134 4.73456 12C4.73466 11.4866 4.57206 10.9864 4.27012 10.5711L3.42345 9.40778C3.17158 9.06175 3.02554 8.65007 3.00305 8.22267C2.98057 7.79528 3.08261 7.37054 3.29679 7C3.51069 6.62923 3.82757 6.32849 4.20899 6.13423C4.59042 5.93997 5.02001 5.86053 5.44568 5.90556L6.88012 6.05778C7.39079 6.11141 7.90534 6.00212 8.35012 5.74556C8.79299 5.48825 9.14305 5.09736 9.35012 4.62889L9.93457 3.31444C10.1083 2.92317 10.3918 2.59072 10.7508 2.3574C11.1097 2.12408 11.5287 1.99993 11.9568 2C12.3849 1.99993 12.8038 2.12408 13.1628 2.3574C13.5217 2.59072 13.8053 2.92317 13.979 3.31444L14.5679 4.62889C14.775 5.09736 15.125 5.48825 15.5679 5.74556M14.955 12C14.955 13.6569 13.6119 15 11.955 15C10.2981 15 8.955 13.6569 8.955 12C8.955 10.8941 9.55334 9.92805 10.4439 9.40778M11.6217 8L14.2882 10.6667L20.9549 4" stroke="#040D17" stroke-linecap="round" stroke-linejoin="round"/>
</svg>
