<svg width="24" height="24" viewBox="0 0 24 24" fill="none" xmlns="http://www.w3.org/2000/svg">
<circle cx="12" cy="12.0001" r="9.09091" fill="#E6E7E8"/>
<path d="M7.45457 4.12524C5.25912 5.39524 3.64408 7.557 3.10474 10.1152M16.5455 4.12524C18.8502 5.45843 20.5152 7.77431 20.9678 10.4999M6.50002 19.239C6.80378 19.4701 7.12254 19.6826 7.45457 19.8747C8.79172 20.6482 10.3442 21.0909 12 21.0909C13.6559 21.0909 15.2083 20.6482 16.5455 19.8747C16.8775 19.6826 17.1963 19.4701 17.5 19.239" stroke="#434A51" stroke-width="1.73" stroke-linecap="round" stroke-linejoin="round"/>
<rect x="9.72729" y="2" width="4.54545" height="4.54545" rx="2.27273" fill="#E6E7E8" stroke="#434A51" stroke-width="1.73"/>
<rect x="2" y="12.9092" width="4.54545" height="4.54545" rx="2.27273" fill="#E6E7E8" stroke="#434A51" stroke-width="1.73"/>
<rect x="17.4546" y="12.9092" width="4.54545" height="4.54545" rx="2.27273" fill="#E6E7E8" stroke="#434A51" stroke-width="1.73"/>
</svg>
