<svg width="24" height="24" viewBox="0 0 24 24" fill="none" xmlns="http://www.w3.org/2000/svg">
<path d="M21 20L16.65 15.65M19 10C19 14.4183 15.4183 18 11 18C6.58172 18 3 14.4183 3 10C3 5.58172 6.58172 2 11 2C15.4183 2 19 5.58172 19 10Z" stroke="#040D17" stroke-linecap="round" stroke-linejoin="round"/>
<path d="M7.10722 10.3056C7.05188 10.2132 7.02421 10.167 7.00873 10.0957C6.99709 10.0422 6.99709 9.95779 7.00873 9.90425C7.02421 9.83298 7.05188 9.78677 7.10722 9.69435C7.56451 8.93065 8.92567 7 11 7C13.0743 7 14.4355 8.93065 14.8928 9.69435C14.9481 9.78677 14.9758 9.83298 14.9913 9.90425C15.0029 9.95779 15.0029 10.0422 14.9913 10.0957C14.9758 10.167 14.9481 10.2132 14.8928 10.3056C14.4355 11.0694 13.0743 13 11 13C8.92567 13 7.56451 11.0694 7.10722 10.3056Z" stroke="#040D17" stroke-width="0.857143" stroke-linecap="round" stroke-linejoin="round"/>
<path d="M11 11.2857C11.6732 11.2857 12.219 10.7101 12.219 10C12.219 9.28992 11.6732 8.71429 11 8.71429C10.3268 8.71429 9.781 9.28992 9.781 10C9.781 10.7101 10.3268 11.2857 11 11.2857Z" stroke="#040D17" stroke-width="0.857143" stroke-linecap="round" stroke-linejoin="round"/>
</svg>
