<svg width="24" height="24" viewBox="0 0 24 24" fill="none" xmlns="http://www.w3.org/2000/svg">
<path d="M6 20.0872H8.61029C8.95063 20.0872 9.28888 20.1277 9.61881 20.2086L12.3769 20.8789C12.9753 21.0247 13.5988 21.0388 14.2035 20.9214L17.253 20.3281C18.0585 20.1712 18.7996 19.7854 19.3803 19.2205L21.5379 17.1217C22.154 16.5234 22.154 15.5524 21.5379 14.9531C20.9832 14.4134 20.1047 14.3527 19.4771 14.8103L16.9626 16.6449C16.6025 16.9081 16.1643 17.0498 15.7137 17.0498H13.2855L14.8311 17.0498C15.7022 17.0498 16.4079 16.3633 16.4079 15.5159V15.2091C16.4079 14.5055 15.9156 13.892 15.2141 13.7219L12.8286 13.1417C12.4404 13.0476 12.0428 13 11.6431 13C10.6783 13 8.93189 13.7988 8.93189 13.7988L6 15.0249M2 14.6L2 20.4C2 20.9601 2 21.2401 2.10899 21.454C2.20487 21.6422 2.35785 21.7951 2.54601 21.891C2.75992 22 3.03995 22 3.6 22H4.4C4.96005 22 5.24008 22 5.45399 21.891C5.64215 21.7951 5.79513 21.6422 5.89101 21.454C6 21.2401 6 20.9601 6 20.4V14.6C6 14.0399 6 13.7599 5.89101 13.546C5.79513 13.3578 5.64215 13.2049 5.45399 13.109C5.24008 13 4.96005 13 4.4 13H3.6C3.03995 13 2.75992 13 2.54601 13.109C2.35785 13.2049 2.20487 13.3578 2.10899 13.546C2 13.7599 2 14.0399 2 14.6Z" stroke="#434A51" stroke-width="1.73" stroke-linecap="round" stroke-linejoin="round"/>
<path d="M12 10C12.5523 10 13 9.55228 13 9C13 8.44772 12.5523 8 12 8C11.4477 8 11 8.44772 11 9C11 9.55228 11.4477 10 12 10Z" stroke="#434A51" stroke-width="1.36364" stroke-linecap="round" stroke-linejoin="round"/>
<path d="M16.0568 14C16.2241 14 16.3897 13.9678 16.5442 13.9052C16.6987 13.8426 16.8391 13.7509 16.9573 13.6352C17.0756 13.5197 17.1695 13.3825 17.2335 13.2316C17.2976 13.0806 17.3305 12.9187 17.3305 12.7553C17.3305 12.5918 17.2976 12.43 17.2335 12.279C17.1695 12.128 17.0756 11.9908 16.9573 11.8753L16.9191 11.838C16.7724 11.6915 16.674 11.5053 16.6365 11.3036C16.5991 11.1018 16.6244 10.8938 16.7091 10.7062C16.7898 10.5223 16.9237 10.3654 17.0944 10.2549C17.2652 10.1444 17.4652 10.0851 17.67 10.0843H17.7273C18.0648 10.0843 18.3885 9.9533 18.6272 9.72005C18.8659 9.48681 19 9.17045 19 8.84059C19 8.51073 18.8659 8.19438 18.6272 7.96113C18.3885 7.72789 18.0648 7.59685 17.7273 7.59685H17.6191C17.4143 7.59605 17.2143 7.53676 17.0435 7.42626C16.8728 7.31577 16.7388 7.15891 16.6582 6.97498V6.92523C16.5735 6.73766 16.5482 6.5296 16.5856 6.32786C16.6231 6.12613 16.7215 5.93998 16.8682 5.79342L16.9064 5.75611C17.0247 5.6406 17.1186 5.50343 17.1826 5.35244C17.2467 5.20145 17.2796 5.03961 17.2796 4.87616C17.2796 4.71271 17.2467 4.55087 17.1826 4.39988C17.1186 4.24889 17.0247 4.11172 16.9064 3.99621C16.7882 3.88057 16.6478 3.78883 16.4933 3.72624C16.3388 3.66365 16.1732 3.63144 16.0059 3.63144C15.8387 3.63144 15.673 3.66365 15.5185 3.72624C15.364 3.78883 15.2237 3.88057 15.1055 3.99621L15.0673 4.03352C14.9173 4.17689 14.7268 4.27306 14.5204 4.30964C14.3139 4.34621 14.101 4.32152 13.9091 4.23874C13.7209 4.15991 13.5604 4.02902 13.4473 3.86217C13.3342 3.69533 13.2735 3.49982 13.2727 3.29971V3.24374C13.2727 2.91388 13.1386 2.59753 12.9 2.36428C12.6613 2.13104 12.3375 2 12 2C11.6625 2 11.3387 2.13104 11.1 2.36428C10.8614 2.59753 10.7273 2.91388 10.7273 3.24374V3.34946C10.7265 3.54957 10.6658 3.74508 10.5527 3.91192C10.4396 4.07877 10.2791 4.20966 10.0909 4.28849H10.04C9.84806 4.37127 9.63515 4.39596 9.42872 4.35939C9.22228 4.32281 9.0318 4.22664 8.88182 4.08327L8.84364 4.04596C8.72543 3.93032 8.58507 3.83858 8.43056 3.77599C8.27605 3.7134 8.11044 3.68119 7.94318 3.68119C7.77593 3.68119 7.61031 3.7134 7.4558 3.77599C7.3013 3.83858 7.16093 3.93032 7.04273 4.04596C6.92439 4.16147 6.83052 4.29864 6.76647 4.44963C6.70242 4.60062 6.66945 4.76246 6.66945 4.92591C6.66945 5.08936 6.70242 5.2512 6.76647 5.40219C6.83052 5.55318 6.92439 5.69035 7.04273 5.80586L7.08091 5.84317C7.22761 5.98973 7.32603 6.17588 7.36346 6.37761C7.40089 6.57935 7.37562 6.78741 7.29091 6.97498C7.21818 7.16821 7.08765 7.3356 6.91628 7.45538C6.74491 7.57516 6.54063 7.64178 6.33 7.6466H6.27273C5.93518 7.6466 5.61146 7.77764 5.37277 8.01088C5.13409 8.24413 5 8.56048 5 8.89034C5 9.2202 5.13409 9.53655 5.37277 9.7698C5.61146 10.003 5.93518 10.1341 6.27273 10.1341H6.38091C6.58568 10.1349 6.78575 10.1942 6.95648 10.3047C7.12721 10.4152 7.26115 10.572 7.34182 10.756C7.42653 10.9435 7.4518 11.1516 7.41437 11.3533C7.37694 11.5551 7.27852 11.7412 7.13182 11.8878L7.09364 11.9251C6.9753 12.0406 6.88143 12.1778 6.81738 12.3287C6.75333 12.4797 6.72036 12.6416 6.72036 12.805C6.72036 12.9685 6.75333 13.1303 6.81738 13.2813C6.88143 13.4323 6.9753 13.5695 7.09364 13.685" stroke="#434A51" stroke-width="1.73" stroke-linecap="round" stroke-linejoin="round"/>
</svg>
