<svg xmlns="http://www.w3.org/2000/svg" width="11.503" height="10.278" viewBox="0 0 11.503 10.278">
  <g id="Icon_feather-git-pull-request" data-name="Icon feather-git-pull-request" transform="translate(14 -4)">
    <path id="Path_2204" data-name="Path 2204" d="M24.6,23.55a1.05,1.05,0,1,1-1.05-1.05A1.05,1.05,0,0,1,24.6,23.55Z" transform="translate(-27.597 -10.823)" fill="none" stroke="#262626" stroke-linecap="round" stroke-linejoin="round" stroke-width="1"/>
    <path id="Path_2210" data-name="Path 2210" d="M22.5,23.55a1.05,1.05,0,1,0,1.05-1.05A1.05,1.05,0,0,0,22.5,23.55Z" transform="translate(-36 -10.823)" fill="none" stroke="#262626" stroke-linecap="round" stroke-linejoin="round" stroke-width="1"/>
    <path id="Path_2205" data-name="Path 2205" d="M6.6,5.55A1.05,1.05,0,1,1,5.55,4.5,1.05,1.05,0,0,1,6.6,5.55Z" transform="translate(-13.799)" fill="none" stroke="#262626" stroke-linecap="round" stroke-linejoin="round" stroke-width="1"/>
    <path id="Path_2209" data-name="Path 2209" d="M6.6,5.55A1.05,1.05,0,1,0,5.55,6.6,1.05,1.05,0,0,0,6.6,5.55Z" transform="translate(-13.799 7.177)" fill="none" stroke="#262626" stroke-linecap="round" stroke-linejoin="round" stroke-width="1"/>
    <path id="Path_2206" data-name="Path 2206" d="M9.5,9h3.384a.7.7,0,0,1,.7.7v2.451" transform="translate(-17.632 -0.474)" fill="none" stroke="#262626" stroke-linecap="round" stroke-linejoin="round" stroke-width="1"/>
    <path id="Path_2211" data-name="Path 2211" d="M13.585,9H10.2a.7.7,0,0,0-.7.7v2.451" transform="translate(-21.95 -0.474)" fill="none" stroke="#262626" stroke-linecap="round" stroke-linejoin="round" stroke-width="1"/>
    <path id="Path_2207" data-name="Path 2207" d="M9,13.5v2.509" transform="translate(-17.248 -6.899)" fill="none" stroke="#262626" stroke-linecap="round" stroke-linejoin="round" stroke-width="1"/>
    <path id="Path_2208" data-name="Path 2208" d="M9,16.009V13.5" transform="translate(-17.248 -4.332)" fill="none" stroke="#262626" stroke-linecap="round" stroke-linejoin="round" stroke-width="1"/>
  </g>
</svg>
