<svg xmlns="http://www.w3.org/2000/svg" width="10.088" height="12.31" viewBox="0 0 10.088 12.31">
  <g id="Group_2333" data-name="Group 2333" transform="translate(0.246 -1.502)">
    <g id="Icon_feather-file-text" data-name="Icon feather-file-text" transform="translate(-5.646 -0.898)">
      <path id="Path_1906" data-name="Path 1906" d="M11.555,3H7.111A1.111,1.111,0,0,0,6,4.111V13A1.111,1.111,0,0,0,7.111,14.11h6.666A1.111,1.111,0,0,0,14.888,13V6.333Z" fill="none" stroke="#a8a8a8" stroke-linecap="round" stroke-linejoin="round" stroke-width="1.2"/>
      <g id="Icon_feather-dollar-sign" data-name="Icon feather-dollar-sign" transform="translate(-0.547 3.6)">
        <path id="Path_1913" data-name="Path 1913" d="M18,1.5V8.409" transform="translate(-7.116 0)" fill="none" stroke="#a8a8a8" stroke-linecap="round" stroke-linejoin="round" stroke-width="1.2"/>
        <path id="Path_1914" data-name="Path 1914" d="M12.455,7.5H10.1a1.1,1.1,0,1,0,0,2.2h1.57a1.1,1.1,0,0,1,0,2.2H9" transform="translate(0 -4.744)" fill="none" stroke="#a8a8a8" stroke-linecap="round" stroke-linejoin="round" stroke-width="1.2"/>
      </g>
    </g>
  </g>
</svg>
