<svg xmlns="http://www.w3.org/2000/svg" width="169.075" height="161.215" viewBox="0 0 169.075 161.215">
  <g id="Group_2936" data-name="Group 2936" transform="translate(-494.027 -139.414)">
    <g id="Finance-cuate" transform="translate(494.027 139.414)">
      <g id="freepik--background-complete--inject-143" transform="translate(6.321 0)">
        <path id="Path_896" data-name="Path 896" d="M368.4,160.34c-14.055,0-14.078,19.985,0,19.985S382.475,160.34,368.4,160.34Z" transform="translate(-239.359 -116.523)" fill="#ebebeb"/>
        <path id="Path_897" data-name="Path 897" d="M379.963,175.058c-.747,3.439-3.6,6.419-8.551,6.419-11.68,0-11.662-16.587,0-16.587h.232c-10.978.2-10.926,15.911.213,15.911C376.4,180.8,379.1,178.176,379.963,175.058Z" transform="translate(-242.374 -119.374)" fill="#dbdbdb"/>
        <path id="Path_898" data-name="Path 898" d="M379.7,170.75a.373.373,0,0,1,.373.332v.556a5.228,5.228,0,0,1,2.707.975c.134.1.213.179.213.321a.373.373,0,0,1-.4.347.4.4,0,0,1-.273-.1,4.515,4.515,0,0,0-2.282-.9v3.895c2.311.444,3.282,1.236,3.282,2.614,0,1.475-1.352,2.517-3.252,2.573v1.057a.373.373,0,0,1-.728,0v-1.083a5.975,5.975,0,0,1-3.424-1.348.346.346,0,0,1,.205-.642.418.418,0,0,1,.276.1,5.09,5.09,0,0,0,2.965,1.266v-3.962c-2.281-.459-3.226-1.225-3.226-2.614s1.341-2.476,3.2-2.517v-.53A.351.351,0,0,1,379.7,170.75Zm-.332,5.288v-3.8c-1.475.03-2.45.836-2.45,1.837S377.4,175.6,379.365,176.037Zm.668.848v3.839c1.52-.026,2.509-.833,2.509-1.893C382.542,177.871,382.008,177.288,380.033,176.885Z" transform="translate(-250.576 -123.046)" fill="#dbdbdb"/>
        <path id="Path_899" data-name="Path 899" d="M151.6,43c-14.055,0-14.078,19.985,0,19.985S165.675,43,151.6,43Z" transform="translate(-103.516 -43)" fill="#ebebeb"/>
        <path id="Path_900" data-name="Path 900" d="M163.153,57.748c-.747,3.435-3.6,6.419-8.551,6.419-11.68,0-11.662-16.587,0-16.587h.232c-10.978.2-10.926,15.911.213,15.911C159.591,63.495,162.3,60.866,163.153,57.748Z" transform="translate(-106.524 -45.87)" fill="#dbdbdb"/>
        <path id="Path_901" data-name="Path 901" d="M162.872,53.43a.373.373,0,0,1,.373.336v.556a5.228,5.228,0,0,1,2.707.975c.134.1.213.179.213.317a.412.412,0,0,1-.672.25,4.559,4.559,0,0,0-2.278-.9v3.91c2.311.448,3.282,1.24,3.282,2.614,0,1.475-1.352,2.521-3.252,2.577v1.083a.373.373,0,1,1-.747,0V64.02a5.975,5.975,0,0,1-3.42-1.352.344.344,0,0,1,.205-.639.4.4,0,0,1,.273.1,5.123,5.123,0,0,0,2.969,1.266V59.427c-2.282-.459-3.226-1.225-3.226-2.614s1.341-2.476,3.193-2.521v-.527A.373.373,0,0,1,162.872,53.43Zm-.332,5.288v-3.8c-1.475.026-2.45.836-2.45,1.837C160.09,57.7,160.575,58.288,162.54,58.717Zm.668.848v3.842c1.52-.03,2.509-.836,2.509-1.893C165.717,60.555,165.183,59.991,163.208,59.565Z" transform="translate(-114.708 -49.535)" fill="#dbdbdb"/>
        <path id="Path_902" data-name="Path 902" d="M85.123,131.01c-12.659,2.27-9.313,21.02,3.361,18.745S97.8,128.735,85.123,131.01Z" transform="translate(-63.472 -98.026)" fill="#dbdbdb"/>
        <path id="Path_903" data-name="Path 903" d="M89.04,130.472c-12.061,2.166-8.719,20.911,3.361,18.745S101.12,128.321,89.04,130.472Z" transform="translate(-66.201 -97.701)" fill="#ebebeb"/>
        <path id="Path_904" data-name="Path 904" d="M101,143.152a7.265,7.265,0,0,1-6.255,7.338c-10.026,1.8-12.8-13.76-2.793-15.557l.2-.034c-9.388,1.867-6.7,16.606,2.86,14.892A6.941,6.941,0,0,0,101,143.152Z" transform="translate(-68.832 -100.583)" fill="#dbdbdb"/>
        <path id="Path_905" data-name="Path 905" d="M99.427,140.48a.317.317,0,0,1,.373.254l.093.523a4.324,4.324,0,0,1,2.487.5c.134.071.213.138.235.269a.336.336,0,0,1-.28.373.31.31,0,0,1-.25-.049,3.805,3.805,0,0,0-2.11-.5l.657,3.656c2.058.06,3.025.653,3.256,1.934.246,1.382-.747,2.569-2.36,2.913l.183,1.019a.319.319,0,1,1-.627.112l-.187-1.031a4.981,4.981,0,0,1-3.163-.747.332.332,0,0,1,.075-.631.329.329,0,0,1,.254.049,4.29,4.29,0,0,0,2.756.728l-.665-3.734c-2.035-.078-2.987-.65-3.208-1.953a2.614,2.614,0,0,1,2.315-2.857l-.09-.493A.325.325,0,0,1,99.427,140.48Zm.6,5.008-.642-3.562c-1.258.254-1.96,1.161-1.789,2.1C97.758,144.912,98.273,145.387,100.032,145.487Zm.717.695.646,3.6c1.3-.258,2.013-1.169,1.833-2.158C103.068,146.723,102.512,146.272,100.749,146.182Z" transform="translate(-75.864 -104.076)" fill="#dbdbdb"/>
        <path id="Path_906" data-name="Path 906" d="M309.783,220.445c-10.829,1.946-7.98,18.01,2.879,16.057S320.642,218.5,309.783,220.445Z" transform="translate(-204.961 -154.082)" fill="#dbdbdb"/>
        <path id="Path_907" data-name="Path 907" d="M313.156,219.98c-10.332,1.867-7.468,17.924,2.883,16.057S323.5,218.124,313.156,219.98Z" transform="translate(-207.306 -153.799)" fill="#ebebeb"/>
        <path id="Path_908" data-name="Path 908" d="M323.375,230.889a6.232,6.232,0,0,1-5.358,6.285c-8.589,1.542-10.967-11.789-2.394-13.327l.172-.026c-8.043,1.609-5.739,14.223,2.45,12.756A5.965,5.965,0,0,0,323.375,230.889Z" transform="translate(-209.542 -156.299)" fill="#dbdbdb"/>
        <path id="Path_909" data-name="Path 909" d="M323.138,228.547a.273.273,0,0,1,.239.3l-.052.452a3.674,3.674,0,0,1,1.916,1.023.314.314,0,0,1,.127.28.291.291,0,0,1-.325.246.276.276,0,0,1-.194-.1,3.237,3.237,0,0,0-1.606-.93l-.373,3.159c1.673.56,2.319,1.288,2.188,2.394a2.237,2.237,0,0,1-2.659,1.8l-.1.881a.276.276,0,0,1-.3.239.28.28,0,0,1-.239-.3l.108-.892a4.268,4.268,0,0,1-2.412-1.393.284.284,0,0,1-.093-.25.288.288,0,0,1,.508-.146,3.674,3.674,0,0,0,2.08,1.285l.373-3.215c-1.65-.571-2.274-1.273-2.143-2.4a2.217,2.217,0,0,1,2.614-1.763l.049-.429A.276.276,0,0,1,323.138,228.547Zm-.747,4.257.373-3.081a1.651,1.651,0,0,0-1.99,1.277c-.093.814.2,1.281,1.613,1.822Zm.414.747-.373,3.111a1.683,1.683,0,0,0,2.043-1.314c.093-.777-.243-1.3-1.673-1.777Z" transform="translate(-215.239 -159.26)" fill="#dbdbdb"/>
        <path id="Path_910" data-name="Path 910" d="M191.782,363.64c-2.02,2.853-1.609,11.576-2.831,12.786s-13.753,1.094-14.6.373-.444-3.794-1.393-4.3C172.6,372.3,191.782,363.64,191.782,363.64Z" transform="translate(-123.509 -243.908)" fill="#ebebeb"/>
        <path id="Path_911" data-name="Path 911" d="M80.09,364c2.524,3.641,1.161,11.423,2.382,12.644s13.753,1.094,14.6.373.456-3.962.956-4.578C98.29,372.118,80.09,364,80.09,364Z" transform="translate(-65.321 -244.133)" fill="#ebebeb"/>
        <path id="Path_912" data-name="Path 912" d="M172.991,372.5a1.381,1.381,0,0,1,.538.93,59.5,59.5,0,0,0,16.781-4.515,13.228,13.228,0,0,1,1.494-5.269C191.8,363.65,172.618,372.306,172.991,372.5Z" transform="translate(-123.528 -243.914)" fill="#dbdbdb"/>
        <path id="Path_913" data-name="Path 913" d="M80.09,364a11.43,11.43,0,0,1,1.538,5.25,56.926,56.926,0,0,0,16.117,4.459,2.775,2.775,0,0,1,.28-1.262C98.29,372.118,80.09,364,80.09,364Z" transform="translate(-65.321 -244.133)" fill="#dbdbdb"/>
        <path id="Path_914" data-name="Path 914" d="M92.488,222.61c25.206,0,34.851,19.728,34.851,31.274,0,11.393-7.326,30.755-34.851,30.755s-36.658-16.4-36.658-31.016S67.018,222.61,92.488,222.61Z" transform="translate(-50.12 -155.541)" fill="#ebebeb"/>
        <path id="Path_915" data-name="Path 915" d="M92.391,213.228s-11.509-8.828-23.977-7.775c-4.294.373,2.834,9.664,2.965,16.931Z" transform="translate(-57.143 -144.736)" fill="#ebebeb"/>
        <path id="Path_916" data-name="Path 916" d="M77.442,224.176c.075.459-3.9,2.162-4.309,1.9s-.825-5.975-4.066-12.084C68.588,213.1,76.676,219.258,77.442,224.176Z" transform="translate(-58.4 -150.087)" fill="#dbdbdb"/>
        <path id="Path_917" data-name="Path 917" d="M228.859,255.039c-.149-.777-.243-1.475-.317-2.218a20.961,20.961,0,0,1-.112-2.241,12.782,12.782,0,0,1,.2-2.319,5.6,5.6,0,0,1,1.034-2.442,3.208,3.208,0,0,1,1.262-.956,3.024,3.024,0,0,1,.747-.209,3.71,3.71,0,0,1,.747-.034,4.4,4.4,0,0,1,2.468.993,6.826,6.826,0,0,1,1.58,1.807,6.322,6.322,0,0,1,.866,2.24,2.73,2.73,0,0,1-.1,1.445,1.565,1.565,0,0,1-.571.724,1.665,1.665,0,0,1-.829.273,1.527,1.527,0,0,1-.87-.209,1.823,1.823,0,0,1-.564-.556,3.256,3.256,0,0,1-.441-1.191,6.568,6.568,0,0,1,.022-2.263,5.31,5.31,0,0,1,.8-2.1,2.5,2.5,0,0,1,.87-.814,1.844,1.844,0,0,1,1.187-.2,3.588,3.588,0,0,1,1.893,1.12,12,12,0,0,1,2.24,3.555,11.834,11.834,0,0,0-2.465-3.308,3.107,3.107,0,0,0-1.721-.848,1.468,1.468,0,0,0-1.4.885,4.556,4.556,0,0,0-.5,1.837,5.512,5.512,0,0,0,.161,1.9,2.054,2.054,0,0,0,.344.747.572.572,0,0,0,.19.157.217.217,0,0,0,.138,0,.181.181,0,0,0,.142-.071.217.217,0,0,0,.041-.1,1.434,1.434,0,0,0-.045-.642,5.228,5.228,0,0,0-2.08-2.786,2.379,2.379,0,0,0-1.393-.433,1.377,1.377,0,0,0-.306.049.938.938,0,0,0-.239.093,1.023,1.023,0,0,0-.351.344,3.44,3.44,0,0,0-.414,1.43,10.227,10.227,0,0,0,0,1.867,19.291,19.291,0,0,0,.261,1.931c.119.639.273,1.311.437,1.893Z" transform="translate(-158.268 -169.328)" fill="#ebebeb"/>
        <path id="Path_918" data-name="Path 918" d="M79.878,287.972c.037-.078.149.142.127.232-.553,2.158-.822,4.724.986,5.881.056.034.026.142-.045.116C78.631,293.338,79.023,289.936,79.878,287.972Z" transform="translate(-64.769 -196.485)" fill="#dbdbdb"/>
        <path id="Path_919" data-name="Path 919" d="M82.642,283.071c3.555.508,2.274,7.58-1.019,7.095S79.662,282.66,82.642,283.071Z" transform="translate(-65.076 -193.414)" fill="#dbdbdb"/>
        <path id="Path_920" data-name="Path 920" d="M48.6,275.15c-.549,1.654-5.549.314-6.807,1.359-1.983,1.647-1.434,22.065.373,23.708,1.019.922,6.688-.049,8.279,1.072S48.6,275.15,48.6,275.15Z" transform="translate(-40.538 -188.461)" fill="#ebebeb"/>
        <ellipse id="Ellipse_27" data-name="Ellipse 27" cx="0.93" cy="9.007" rx="0.93" ry="9.007" transform="translate(0.987 90.4)" fill="#dbdbdb"/>
        <path id="Path_921" data-name="Path 921" d="M151.154,232.66c-.082-.03-8.589-2.793-16.486-.631l-.788-2.879c8.8-2.409,17.838.549,18.219.676l-.945,2.834.474-1.419Z" transform="translate(-99.025 -159.049)" fill="#dbdbdb"/>
        <path id="Path_922" data-name="Path 922" d="M210.536,303.309c11.356-13.047,4.41-28.2,4.108-28.846A1.87,1.87,0,1,1,218,272.819a31.576,31.576,0,0,1,2.677,10.878c.545,8.294-2.2,15.915-8.693,21.1C210.006,306.359,209.08,304.985,210.536,303.309Z" transform="translate(-146.611 -186.344)" fill="#fff"/>
        <path id="Path_923" data-name="Path 923" d="M218.183,260.071a2.031,2.031,0,1,1-2.031-2.031,2.031,2.031,0,0,1,2.031,2.031Z" transform="translate(-149.302 -177.741)" fill="#fff"/>
      </g>
      <g id="freepik--Shadows--inject-143" transform="translate(8.682 143.045)">
        <ellipse id="Ellipse_28" data-name="Ellipse 28" cx="48.171" cy="6.931" rx="48.171" ry="6.931" transform="translate(31.52 4.309)" fill="#ebebeb"/>
        <path id="Path_924" data-name="Path 924" d="M98.3,431c0,2.718-11.516,4.925-25.721,4.925S46.86,433.714,46.86,431s11.516-4.925,25.721-4.925S98.3,428.284,98.3,431Z" transform="translate(-46.86 -426.07)" fill="#ebebeb"/>
      </g>
      <g id="freepik--Chart--inject-143" transform="translate(107.26 59.754)">
        <rect id="Rectangle_1682" data-name="Rectangle 1682" width="11.195" height="36.483" transform="translate(14.716 37.371)" fill="#90caf9"/>
        <g id="Group_1285" data-name="Group 1285" transform="translate(23.346 37.371)" opacity="0.1">
          <rect id="Rectangle_1683" data-name="Rectangle 1683" width="2.562" height="36.483"/>
        </g>
        <rect id="Rectangle_1684" data-name="Rectangle 1684" width="11.195" height="48.35" transform="translate(29.463 25.501)" fill="#90caf9"/>
        <g id="Group_1286" data-name="Group 1286" transform="translate(38.096 25.501)" opacity="0.1">
          <rect id="Rectangle_1685" data-name="Rectangle 1685" width="2.562" height="48.35"/>
        </g>
        <rect id="Rectangle_1686" data-name="Rectangle 1686" width="11.195" height="29.41" transform="translate(0 44.444)" fill="#90caf9"/>
        <g id="Group_1287" data-name="Group 1287" transform="translate(8.63 44.444)" opacity="0.1">
          <rect id="Rectangle_1687" data-name="Rectangle 1687" width="2.562" height="29.41"/>
        </g>
        <rect id="Rectangle_1688" data-name="Rectangle 1688" width="11.195" height="64.153" transform="translate(44.212 9.698)" fill="#90caf9"/>
        <g id="Group_1288" data-name="Group 1288" transform="translate(52.842 9.698)" opacity="0.1">
          <rect id="Rectangle_1689" data-name="Rectangle 1689" width="2.562" height="64.153"/>
        </g>
        <path id="Path_925" data-name="Path 925" d="M310.85,264.176v-5.657s38.088-3.245,53.488-45.448h1.632S355.645,256.733,310.85,264.176Z" transform="translate(-310.85 -209.317)" fill="#c7c7c7"/>
        <path id="Path_926" data-name="Path 926" d="M453.933,208.588l-4.813-1.594,3.988-3.973Z" transform="translate(-397.488 -203.02)" fill="#c7c7c7"/>
      </g>
      <g id="freepik--Floor--inject-143" transform="translate(0 133.422)">
        <path id="Path_927" data-name="Path 927" d="M23.61,400.483l21.135-.09,21.135-.034,42.267-.06,42.267.06,21.135.034,21.135.09-21.135.093-21.135.034-42.267.06-42.267-.06-21.135-.034Z" transform="translate(-23.61 -400.3)" fill="#263238"/>
      </g>
      <g id="freepik--Coins--inject-143" transform="translate(11.823 116.932)">
        <rect id="Rectangle_1690" data-name="Rectangle 1690" width="23.518" height="5.198" transform="translate(86.483 32.319)" fill="#90caf9"/>
        <g id="Group_1289" data-name="Group 1289" transform="translate(87.267 32.808)" opacity="0.1">
          <path id="Path_928" data-name="Path 928" d="M289.157,444a11.657,11.657,0,0,1,0,4.156A11.658,11.658,0,0,1,289.157,444Z" transform="translate(-288.97 -444)"/>
          <path id="Path_929" data-name="Path 929" d="M293.847,444a11.658,11.658,0,0,1,0,4.156A11.658,11.658,0,0,1,293.847,444Z" transform="translate(-291.909 -444)"/>
          <path id="Path_930" data-name="Path 930" d="M296.135,444a11.658,11.658,0,0,1,0,4.156,10.049,10.049,0,0,1-.187-2.08A10.274,10.274,0,0,1,296.135,444Z" transform="translate(-293.342 -444)"/>
          <path id="Path_931" data-name="Path 931" d="M308.687,444a11.658,11.658,0,0,1,0,4.156A11.656,11.656,0,0,1,308.687,444Z" transform="translate(-301.207 -444)"/>
          <path id="Path_932" data-name="Path 932" d="M312.115,444a10.55,10.55,0,0,1,.187,2.076,10.313,10.313,0,0,1-.187,2.08,10.051,10.051,0,0,1-.187-2.08A10.279,10.279,0,0,1,312.115,444Z" transform="translate(-303.355 -444)"/>
          <path id="Path_933" data-name="Path 933" d="M326.185,444a10.547,10.547,0,0,1,.187,2.076,10.3,10.3,0,0,1-.187,2.08,10.051,10.051,0,0,1-.187-2.08A10.557,10.557,0,0,1,326.185,444Z" transform="translate(-312.171 -444)"/>
          <path id="Path_934" data-name="Path 934" d="M329.435,444a10.557,10.557,0,0,1,.187,2.076,10.047,10.047,0,0,1-.187,2.08,10.309,10.309,0,0,1-.187-2.08A10.557,10.557,0,0,1,329.435,444Z" transform="translate(-314.208 -444)"/>
          <path id="Path_935" data-name="Path 935" d="M335.4,444a10.552,10.552,0,0,1,.187,2.076,10.306,10.306,0,0,1-.187,2.08,10.043,10.043,0,0,1-.187-2.08A10.55,10.55,0,0,1,335.4,444Z" transform="translate(-317.948 -444)"/>
          <path id="Path_936" data-name="Path 936" d="M323.465,444a10.277,10.277,0,0,1,.187,2.076,10.049,10.049,0,0,1-.187,2.08,10.313,10.313,0,0,1-.187-2.08A10.554,10.554,0,0,1,323.465,444Z" transform="translate(-310.467 -444)"/>
          <path id="Path_937" data-name="Path 937" d="M300.3,444a11.894,11.894,0,0,1,0,4.156A11.659,11.659,0,0,1,300.3,444Z" transform="translate(-295.95 -444)"/>
          <path id="Path_938" data-name="Path 938" d="M316.6,444a11.658,11.658,0,0,1,0,4.156A11.658,11.658,0,0,1,316.6,444Z" transform="translate(-306.163 -444)"/>
          <path id="Path_939" data-name="Path 939" d="M318.935,444a10.277,10.277,0,0,1,.187,2.076,10.047,10.047,0,0,1-.187,2.08,10.313,10.313,0,0,1-.187-2.08,10.557,10.557,0,0,1,.187-2.076Z" transform="translate(-307.628 -444)"/>
          <path id="Path_940" data-name="Path 940" d="M343.185,444a10.277,10.277,0,0,1,.187,2.076,10.045,10.045,0,0,1-.187,2.08,10.313,10.313,0,0,1-.187-2.08A10.554,10.554,0,0,1,343.185,444Z" transform="translate(-322.823 -444)"/>
          <path id="Path_941" data-name="Path 941" d="M346.685,444a10.552,10.552,0,0,1,.187,2.076,10.311,10.311,0,0,1-.187,2.08,10.049,10.049,0,0,1-.187-2.08A10.281,10.281,0,0,1,346.685,444Z" transform="translate(-325.016 -444)"/>
          <path id="Path_942" data-name="Path 942" d="M338.175,444a10.277,10.277,0,0,1,.187,2.076,10.049,10.049,0,0,1-.187,2.08,10.311,10.311,0,0,1-.187-2.08A10.554,10.554,0,0,1,338.175,444Z" transform="translate(-319.684 -444)"/>
          <path id="Path_943" data-name="Path 943" d="M305.995,444a11.657,11.657,0,0,1,0,4.156,10.047,10.047,0,0,1-.187-2.08A10.279,10.279,0,0,1,305.995,444Z" transform="translate(-299.52 -444)"/>
        </g>
        <path id="Path_944" data-name="Path 944" d="M310.388,442.69V443.8l-23.518.739V442.69Z" transform="translate(-200.387 -410.371)" opacity="0.1"/>
        <rect id="Rectangle_1691" data-name="Rectangle 1691" width="23.518" height="5.198" transform="translate(84.522 27.125)" fill="#90caf9"/>
        <g id="Group_1290" data-name="Group 1290" transform="translate(85.302 27.599)" opacity="0.1">
          <path id="Path_945" data-name="Path 945" d="M341.447,434.21a11.676,11.676,0,0,1,0-4.16A11.676,11.676,0,0,1,341.447,434.21Z" transform="translate(-319.769 -430.05)"/>
          <path id="Path_946" data-name="Path 946" d="M336.757,434.21a11.677,11.677,0,0,1,0-4.16A11.677,11.677,0,0,1,336.757,434.21Z" transform="translate(-316.83 -430.05)"/>
          <path id="Path_947" data-name="Path 947" d="M334.465,434.21a10.62,10.62,0,0,1-.187-2.08,10.308,10.308,0,0,1,.187-2.08,10.048,10.048,0,0,1,.187,2.08A10.333,10.333,0,0,1,334.465,434.21Z" transform="translate(-315.394 -430.05)"/>
          <path id="Path_948" data-name="Path 948" d="M321.887,434.21a11.675,11.675,0,0,1,0-4.16A11.678,11.678,0,0,1,321.887,434.21Z" transform="translate(-307.513 -430.05)"/>
          <path id="Path_949" data-name="Path 949" d="M318.485,434.21a10.615,10.615,0,0,1-.187-2.08,10.306,10.306,0,0,1,.187-2.08,10.05,10.05,0,0,1,.187,2.08A10.615,10.615,0,0,1,318.485,434.21Z" transform="translate(-305.382 -430.05)"/>
          <path id="Path_950" data-name="Path 950" d="M304.415,434.21a10.615,10.615,0,0,1-.187-2.08,10.047,10.047,0,0,1,.187-2.08,10.048,10.048,0,0,1,.187,2.08,10.616,10.616,0,0,1-.187,2.08Z" transform="translate(-296.565 -430.05)"/>
          <path id="Path_951" data-name="Path 951" d="M301.165,434.21a10.335,10.335,0,0,1-.187-2.08,10.046,10.046,0,0,1,.187-2.08,10.31,10.31,0,0,1,.187,2.08A10.615,10.615,0,0,1,301.165,434.21Z" transform="translate(-294.529 -430.05)"/>
          <path id="Path_952" data-name="Path 952" d="M295.195,434.21a10.613,10.613,0,0,1-.187-2.08,10.044,10.044,0,0,1,.187-2.08,10.315,10.315,0,0,1,.187,2.08A10.618,10.618,0,0,1,295.195,434.21Z" transform="translate(-290.788 -430.05)"/>
          <path id="Path_953" data-name="Path 953" d="M307.135,434.21a10.337,10.337,0,0,1-.187-2.08,10.049,10.049,0,0,1,.187-2.08A11.678,11.678,0,0,1,307.135,434.21Z" transform="translate(-298.269 -430.05)"/>
          <path id="Path_954" data-name="Path 954" d="M330.307,434.21a11.676,11.676,0,0,1,0-4.16A11.676,11.676,0,0,1,330.307,434.21Z" transform="translate(-312.789 -430.05)"/>
          <path id="Path_955" data-name="Path 955" d="M314.007,434.21a11.677,11.677,0,0,1,0-4.16,11.675,11.675,0,0,1,0,4.16Z" transform="translate(-302.576 -430.05)"/>
          <path id="Path_956" data-name="Path 956" d="M311.685,434.21a10.34,10.34,0,0,1-.187-2.08,10.052,10.052,0,0,1,.187-2.08A11.675,11.675,0,0,1,311.685,434.21Z" transform="translate(-301.12 -430.05)"/>
          <path id="Path_957" data-name="Path 957" d="M287.415,434.21a10.335,10.335,0,0,1-.187-2.08,10.047,10.047,0,0,1,.187-2.08,11.677,11.677,0,0,1,0,4.16Z" transform="translate(-285.913 -430.05)"/>
          <path id="Path_958" data-name="Path 958" d="M283.9,434.21a10.615,10.615,0,0,1-.187-2.08,10.307,10.307,0,0,1,.187-2.08,10.047,10.047,0,0,1,.187,2.08,10.338,10.338,0,0,1-.187,2.08Z" transform="translate(-283.708 -430.05)"/>
          <path id="Path_959" data-name="Path 959" d="M292.425,434.21a10.335,10.335,0,0,1-.187-2.08,10.046,10.046,0,0,1,.187-2.08A11.678,11.678,0,0,1,292.425,434.21Z" transform="translate(-289.052 -430.05)"/>
          <path id="Path_960" data-name="Path 960" d="M324.605,434.21a10.615,10.615,0,0,1-.187-2.08,10.31,10.31,0,0,1,.187-2.08,10.046,10.046,0,0,1,.187,2.08,10.333,10.333,0,0,1-.187,2.08Z" transform="translate(-309.216 -430.05)"/>
        </g>
        <path id="Path_961" data-name="Path 961" d="M305.128,428.78v1.1l-23.518.743V428.78Z" transform="translate(-197.091 -401.655)" opacity="0.1"/>
        <rect id="Rectangle_1692" data-name="Rectangle 1692" width="23.518" height="5.198" transform="translate(86.333 21.968)" fill="#90caf9"/>
        <g id="Group_1291" data-name="Group 1291" transform="translate(87.114 22.446)" opacity="0.1">
          <path id="Path_962" data-name="Path 962" d="M288.747,416.25a11.658,11.658,0,0,1,0,4.156A11.658,11.658,0,0,1,288.747,416.25Z" transform="translate(-288.56 -416.25)"/>
          <path id="Path_963" data-name="Path 963" d="M293.437,416.25a11.657,11.657,0,0,1,0,4.156A11.658,11.658,0,0,1,293.437,416.25Z" transform="translate(-291.499 -416.25)"/>
          <path id="Path_964" data-name="Path 964" d="M295.737,416.25a11.892,11.892,0,0,1,0,4.156A11.658,11.658,0,0,1,295.737,416.25Z" transform="translate(-292.94 -416.25)"/>
          <path id="Path_965" data-name="Path 965" d="M308.307,416.25a11.657,11.657,0,0,1,0,4.156A11.658,11.658,0,0,1,308.307,416.25Z" transform="translate(-300.816 -416.25)"/>
          <path id="Path_966" data-name="Path 966" d="M311.687,416.25a11.658,11.658,0,0,1,0,4.156A11.658,11.658,0,0,1,311.687,416.25Z" transform="translate(-302.934 -416.25)"/>
          <path id="Path_967" data-name="Path 967" d="M325.787,416.25a11.657,11.657,0,0,1,0,4.156A11.658,11.658,0,0,1,325.787,416.25Z" transform="translate(-311.769 -416.25)"/>
          <path id="Path_968" data-name="Path 968" d="M329.037,416.25a11.658,11.658,0,0,1,0,4.156A11.658,11.658,0,0,1,329.037,416.25Z" transform="translate(-313.805 -416.25)"/>
          <path id="Path_969" data-name="Path 969" d="M335.007,416.25a11.658,11.658,0,0,1,0,4.156A11.658,11.658,0,0,1,335.007,416.25Z" transform="translate(-317.546 -416.25)"/>
          <path id="Path_970" data-name="Path 970" d="M323.065,416.25a11.659,11.659,0,0,1,0,4.156,10.015,10.015,0,0,1-.187-2.076A10.286,10.286,0,0,1,323.065,416.25Z" transform="translate(-310.062 -416.25)"/>
          <path id="Path_971" data-name="Path 971" d="M299.887,416.25a10.288,10.288,0,0,1,.187,2.08,10.019,10.019,0,0,1-.187,2.076A11.655,11.655,0,0,1,299.887,416.25Z" transform="translate(-295.54 -416.25)"/>
          <path id="Path_972" data-name="Path 972" d="M316.187,416.25a11.657,11.657,0,0,1,0,4.156A11.657,11.657,0,0,1,316.187,416.25Z" transform="translate(-305.753 -416.25)"/>
          <path id="Path_973" data-name="Path 973" d="M318.535,416.25a11.658,11.658,0,0,1,0,4.156,10.011,10.011,0,0,1-.187-2.076A10.286,10.286,0,0,1,318.535,416.25Z" transform="translate(-307.224 -416.25)"/>
          <path id="Path_974" data-name="Path 974" d="M342.787,416.25a11.655,11.655,0,0,1,0,4.156,11.659,11.659,0,0,1,0-4.156Z" transform="translate(-322.421 -416.25)"/>
          <path id="Path_975" data-name="Path 975" d="M346.307,416.25a11.658,11.658,0,0,1,0,4.156A11.657,11.657,0,0,1,346.307,416.25Z" transform="translate(-324.626 -416.25)"/>
          <path id="Path_976" data-name="Path 976" d="M337.775,416.25a11.658,11.658,0,0,1,0,4.156,10.015,10.015,0,0,1-.187-2.076A10.288,10.288,0,0,1,337.775,416.25Z" transform="translate(-319.28 -416.25)"/>
          <path id="Path_977" data-name="Path 977" d="M305.593,416.25a11.658,11.658,0,0,1,0,4.156A11.894,11.894,0,0,1,305.593,416.25Z" transform="translate(-299.118 -416.25)"/>
        </g>
        <path id="Path_978" data-name="Path 978" d="M309.984,414.97v1.105l-23.514.743V414.97Z" transform="translate(-200.137 -393.002)" opacity="0.1"/>
        <rect id="Rectangle_1693" data-name="Rectangle 1693" width="23.518" height="5.198" transform="translate(16.411 25.941)" fill="#90caf9"/>
        <g id="Group_1292" data-name="Group 1292" transform="translate(17.195 26.408)" opacity="0.1">
          <path id="Path_979" data-name="Path 979" d="M101.507,426.88a11.676,11.676,0,0,1,0,4.16,11.677,11.677,0,0,1,0-4.16Z" transform="translate(-101.32 -426.872)"/>
          <path id="Path_980" data-name="Path 980" d="M106.2,426.88a11.677,11.677,0,0,1,0,4.16A11.677,11.677,0,0,1,106.2,426.88Z" transform="translate(-104.259 -426.872)"/>
          <path id="Path_981" data-name="Path 981" d="M108.487,426.88a11.677,11.677,0,0,1,0,4.16A11.676,11.676,0,0,1,108.487,426.88Z" transform="translate(-105.693 -426.872)"/>
          <path id="Path_982" data-name="Path 982" d="M121.067,426.88a11.913,11.913,0,0,1,0,4.16A11.677,11.677,0,0,1,121.067,426.88Z" transform="translate(-113.576 -426.872)"/>
          <path id="Path_983" data-name="Path 983" d="M124.465,426.88a11.676,11.676,0,0,1,0,4.16,10.048,10.048,0,0,1-.187-2.08,10.337,10.337,0,0,1,.187-2.08Z" transform="translate(-115.705 -426.872)"/>
          <path id="Path_984" data-name="Path 984" d="M138.535,426.88a11.676,11.676,0,0,1,0,4.16,10.047,10.047,0,0,1-.187-2.08,10.336,10.336,0,0,1,.187-2.08Z" transform="translate(-124.521 -426.872)"/>
          <path id="Path_985" data-name="Path 985" d="M141.785,426.88a10.615,10.615,0,0,1,.187,2.08,10.31,10.31,0,0,1-.187,2.08,10.047,10.047,0,0,1-.187-2.08A10.617,10.617,0,0,1,141.785,426.88Z" transform="translate(-126.557 -426.872)"/>
          <path id="Path_986" data-name="Path 986" d="M147.755,426.88a10.617,10.617,0,0,1,.187,2.08,10.31,10.31,0,0,1-.187,2.08,10.049,10.049,0,0,1-.187-2.08A10.338,10.338,0,0,1,147.755,426.88Z" transform="translate(-130.298 -426.872)"/>
          <path id="Path_987" data-name="Path 987" d="M135.815,426.88a10.617,10.617,0,0,1,.187,2.08,10.049,10.049,0,0,1-.187,2.08,10.31,10.31,0,0,1-.187-2.08,10.616,10.616,0,0,1,.187-2.08Z" transform="translate(-122.817 -426.872)"/>
          <path id="Path_988" data-name="Path 988" d="M112.687,426.867a11.677,11.677,0,0,1,0,4.152,11.676,11.676,0,0,1,0-4.16Z" transform="translate(-108.325 -426.86)"/>
          <path id="Path_989" data-name="Path 989" d="M128.947,426.88a11.912,11.912,0,0,1,0,4.16A11.676,11.676,0,0,1,128.947,426.88Z" transform="translate(-118.513 -426.872)"/>
          <path id="Path_990" data-name="Path 990" d="M131.285,426.88a10.619,10.619,0,0,1,.187,2.08,10.05,10.05,0,0,1-.187,2.08,10.307,10.307,0,0,1-.187-2.08A10.616,10.616,0,0,1,131.285,426.88Z" transform="translate(-119.978 -426.872)"/>
          <path id="Path_991" data-name="Path 991" d="M155.535,426.88a10.615,10.615,0,0,1,.187,2.08,10.048,10.048,0,0,1-.187,2.08,10.047,10.047,0,0,1-.187-2.08,10.614,10.614,0,0,1,.187-2.08Z" transform="translate(-135.173 -426.872)"/>
          <path id="Path_992" data-name="Path 992" d="M159.057,426.88a11.677,11.677,0,0,1,0,4.16A11.677,11.677,0,0,1,159.057,426.88Z" transform="translate(-137.38 -426.872)"/>
          <path id="Path_993" data-name="Path 993" d="M150.525,426.88a10.616,10.616,0,0,1,.187,2.08,10.048,10.048,0,0,1-.187,2.08,10.309,10.309,0,0,1-.187-2.08A10.618,10.618,0,0,1,150.525,426.88Z" transform="translate(-132.034 -426.872)"/>
          <path id="Path_994" data-name="Path 994" d="M118.347,426.88a11.676,11.676,0,0,1,0,4.16A11.677,11.677,0,0,1,118.347,426.88Z" transform="translate(-111.872 -426.872)"/>
        </g>
        <path id="Path_995" data-name="Path 995" d="M122.734,425.61v1.105l-23.514.739V425.61Z" transform="translate(-82.809 -399.669)" opacity="0.1"/>
        <rect id="Rectangle_1694" data-name="Rectangle 1694" width="23.518" height="5.198" transform="translate(14.802 20.743)" fill="#90caf9"/>
        <g id="Group_1293" data-name="Group 1293" transform="translate(15.585 21.232)" opacity="0.1">
          <path id="Path_996" data-name="Path 996" d="M97.195,413a11.658,11.658,0,0,1,0,4.156,10.014,10.014,0,0,1-.187-2.076A10.287,10.287,0,0,1,97.195,413Z" transform="translate(-97.007 -413)"/>
          <path id="Path_997" data-name="Path 997" d="M101.885,413a11.657,11.657,0,0,1,0,4.156,10.015,10.015,0,0,1-.187-2.076,10.287,10.287,0,0,1,.187-2.08Z" transform="translate(-99.946 -413)"/>
          <path id="Path_998" data-name="Path 998" d="M104.175,413a10.565,10.565,0,0,1,.187,2.08,10.016,10.016,0,0,1-.187,2.076,10.016,10.016,0,0,1-.187-2.076A10.564,10.564,0,0,1,104.175,413Z" transform="translate(-101.381 -413)"/>
          <path id="Path_999" data-name="Path 999" d="M116.757,413a11.658,11.658,0,0,1,0,4.156A11.658,11.658,0,0,1,116.757,413Z" transform="translate(-109.265 -413)"/>
          <path id="Path_1000" data-name="Path 1000" d="M120.155,413a10.288,10.288,0,0,1,.187,2.08,10.016,10.016,0,0,1-.187,2.076,10.277,10.277,0,0,1-.187-2.076A10.563,10.563,0,0,1,120.155,413Z" transform="translate(-111.394 -413)"/>
          <path id="Path_1001" data-name="Path 1001" d="M134.225,413a10.289,10.289,0,0,1,.187,2.08,10.016,10.016,0,0,1-.187,2.076,10.277,10.277,0,0,1-.187-2.076A10.563,10.563,0,0,1,134.225,413Z" transform="translate(-120.21 -413)"/>
          <path id="Path_1002" data-name="Path 1002" d="M137.477,413a11.657,11.657,0,0,1,0,4.156A11.659,11.659,0,0,1,137.477,413Z" transform="translate(-122.248 -413)"/>
          <path id="Path_1003" data-name="Path 1003" d="M143.447,413a10.287,10.287,0,0,1,.187,2.08,10.015,10.015,0,0,1-.187,2.076,11.658,11.658,0,0,1,0-4.156Z" transform="translate(-125.988 -413)"/>
          <path id="Path_1004" data-name="Path 1004" d="M131.507,413a11.657,11.657,0,0,1,0,4.156A11.658,11.658,0,0,1,131.507,413Z" transform="translate(-118.507 -413)"/>
          <path id="Path_1005" data-name="Path 1005" d="M108.337,413a11.659,11.659,0,0,1,0,4.156A11.657,11.657,0,0,1,108.337,413Z" transform="translate(-103.989 -413)"/>
          <path id="Path_1006" data-name="Path 1006" d="M124.685,413a11.658,11.658,0,0,1,0,4.156,10.016,10.016,0,0,1-.187-2.076,10.286,10.286,0,0,1,.187-2.08Z" transform="translate(-114.232 -413)"/>
          <path id="Path_1007" data-name="Path 1007" d="M126.977,413a11.657,11.657,0,0,1,0,4.156A11.658,11.658,0,0,1,126.977,413Z" transform="translate(-115.669 -413)"/>
          <path id="Path_1008" data-name="Path 1008" d="M151.227,413a11.657,11.657,0,0,1,0,4.156,11.658,11.658,0,0,1,0-4.156Z" transform="translate(-130.863 -413)"/>
          <path id="Path_1009" data-name="Path 1009" d="M154.745,413a10.561,10.561,0,0,1,.187,2.08,10.013,10.013,0,0,1-.187,2.076,10.277,10.277,0,0,1-.187-2.076A10.561,10.561,0,0,1,154.745,413Z" transform="translate(-133.068 -413)"/>
          <path id="Path_1010" data-name="Path 1010" d="M146.217,413a11.658,11.658,0,0,1,0,4.156A11.657,11.657,0,0,1,146.217,413Z" transform="translate(-127.724 -413)"/>
          <path id="Path_1011" data-name="Path 1011" d="M114.035,413a10.563,10.563,0,0,1,.187,2.08,10.277,10.277,0,0,1-.187,2.076,10.016,10.016,0,0,1-.187-2.076A10.563,10.563,0,0,1,114.035,413Z" transform="translate(-107.559 -413)"/>
        </g>
        <path id="Path_1012" data-name="Path 1012" d="M118.428,411.69V412.8l-23.518.743V411.69Z" transform="translate(-80.108 -390.947)" opacity="0.1"/>
        <rect id="Rectangle_1695" data-name="Rectangle 1695" width="23.518" height="5.198" transform="translate(18.435 10.396)" fill="#90caf9"/>
        <g id="Group_1294" data-name="Group 1294" transform="translate(19.219 10.87)" opacity="0.1">
          <path id="Path_1013" data-name="Path 1013" d="M106.927,385.25a11.658,11.658,0,0,1,0,4.156A11.658,11.658,0,0,1,106.927,385.25Z" transform="translate(-106.74 -385.25)"/>
          <path id="Path_1014" data-name="Path 1014" d="M111.617,385.25a11.658,11.658,0,0,1,0,4.156A11.658,11.658,0,0,1,111.617,385.25Z" transform="translate(-109.679 -385.25)"/>
          <path id="Path_1015" data-name="Path 1015" d="M113.9,385.25a10.591,10.591,0,0,1,.187,2.08,10.277,10.277,0,0,1-.187,2.076,10.015,10.015,0,0,1-.187-2.076A10.591,10.591,0,0,1,113.9,385.25Z" transform="translate(-111.112 -385.25)"/>
          <path id="Path_1016" data-name="Path 1016" d="M126.487,385.25a11.658,11.658,0,0,1,0,4.156A11.658,11.658,0,0,1,126.487,385.25Z" transform="translate(-118.996 -385.25)"/>
          <path id="Path_1017" data-name="Path 1017" d="M129.885,385.25a10.59,10.59,0,0,1,.187,2.08,10.016,10.016,0,0,1-.187,2.076,10.277,10.277,0,0,1-.187-2.076A10.591,10.591,0,0,1,129.885,385.25Z" transform="translate(-121.125 -385.25)"/>
          <path id="Path_1018" data-name="Path 1018" d="M143.955,385.25a10.309,10.309,0,0,1,.187,2.08,10.014,10.014,0,0,1-.187,2.076,10.277,10.277,0,0,1-.187-2.076A10.591,10.591,0,0,1,143.955,385.25Z" transform="translate(-129.941 -385.25)"/>
          <path id="Path_1019" data-name="Path 1019" d="M147.207,385.25a10.308,10.308,0,0,1,.187,2.08,10.013,10.013,0,0,1-.187,2.076,11.659,11.659,0,0,1,0-4.156Z" transform="translate(-131.979 -385.25)"/>
          <path id="Path_1020" data-name="Path 1020" d="M153.175,385.25a10.31,10.31,0,0,1,.187,2.08,10.015,10.015,0,0,1-.187,2.076,10.275,10.275,0,0,1-.187-2.076A10.59,10.59,0,0,1,153.175,385.25Z" transform="translate(-135.718 -385.25)"/>
          <path id="Path_1021" data-name="Path 1021" d="M141.237,385.25a11.658,11.658,0,0,1,0,4.156,11.658,11.658,0,0,1,0-4.156Z" transform="translate(-128.238 -385.25)"/>
          <path id="Path_1022" data-name="Path 1022" d="M118.067,385.25a11.658,11.658,0,0,1,0,4.156A11.658,11.658,0,0,1,118.067,385.25Z" transform="translate(-113.72 -385.25)"/>
          <path id="Path_1023" data-name="Path 1023" d="M134.367,385.25a11.658,11.658,0,0,1,0,4.156A11.657,11.657,0,0,1,134.367,385.25Z" transform="translate(-123.933 -385.25)"/>
          <path id="Path_1024" data-name="Path 1024" d="M136.687,385.25a11.657,11.657,0,0,1,0,4.156A11.657,11.657,0,0,1,136.687,385.25Z" transform="translate(-125.387 -385.25)"/>
          <path id="Path_1025" data-name="Path 1025" d="M160.957,385.25a11.658,11.658,0,0,1,0,4.156A11.658,11.658,0,0,1,160.957,385.25Z" transform="translate(-140.594 -385.25)"/>
          <path id="Path_1026" data-name="Path 1026" d="M164.475,385.25a10.591,10.591,0,0,1,.187,2.08,10.014,10.014,0,0,1-.187,2.076,10.016,10.016,0,0,1-.187-2.076A10.592,10.592,0,0,1,164.475,385.25Z" transform="translate(-142.798 -385.25)"/>
          <path id="Path_1027" data-name="Path 1027" d="M155.947,385.25a11.658,11.658,0,0,1,0,4.156A11.657,11.657,0,0,1,155.947,385.25Z" transform="translate(-137.455 -385.25)"/>
          <path id="Path_1028" data-name="Path 1028" d="M123.765,385.25a10.59,10.59,0,0,1,.187,2.08,10.276,10.276,0,0,1-.187,2.076,10.015,10.015,0,0,1-.187-2.076A10.311,10.311,0,0,1,123.765,385.25Z" transform="translate(-117.29 -385.25)"/>
        </g>
        <path id="Path_1029" data-name="Path 1029" d="M128.158,383.98v1.1l-23.518.743V383.98Z" transform="translate(-86.205 -373.584)" opacity="0.1"/>
        <rect id="Rectangle_1696" data-name="Rectangle 1696" width="23.518" height="5.198" transform="translate(17.841 5.198)" fill="#90caf9"/>
        <g id="Group_1295" data-name="Group 1295" transform="translate(18.626 5.672)" opacity="0.1">
          <path id="Path_1030" data-name="Path 1030" d="M162.885,375.49a10.588,10.588,0,0,1-.187-2.08,10.081,10.081,0,0,1,.187-2.08,10.084,10.084,0,0,1,.187,2.08A10.59,10.59,0,0,1,162.885,375.49Z" transform="translate(-141.208 -371.33)"/>
          <path id="Path_1031" data-name="Path 1031" d="M158.195,375.49a10.591,10.591,0,0,1-.187-2.08,10.082,10.082,0,0,1,.187-2.08,10.08,10.08,0,0,1,.187,2.08A10.588,10.588,0,0,1,158.195,375.49Z" transform="translate(-138.269 -371.33)"/>
          <path id="Path_1032" data-name="Path 1032" d="M155.9,375.49a10.31,10.31,0,0,1-.187-2.08,10.082,10.082,0,0,1,.187-2.08A11.677,11.677,0,0,1,155.9,375.49Z" transform="translate(-136.835 -371.33)"/>
          <path id="Path_1033" data-name="Path 1033" d="M143.326,375.49a10.587,10.587,0,0,1-.187-2.08,10.334,10.334,0,0,1,.187-2.08,10.082,10.082,0,0,1,.187,2.08A10.591,10.591,0,0,1,143.326,375.49Z" transform="translate(-128.953 -371.33)"/>
          <path id="Path_1034" data-name="Path 1034" d="M139.927,375.49a11.676,11.676,0,0,1,0-4.16A11.676,11.676,0,0,1,139.927,375.49Z" transform="translate(-126.823 -371.33)"/>
          <path id="Path_1035" data-name="Path 1035" d="M125.857,375.49a11.677,11.677,0,0,1,0-4.16,11.677,11.677,0,0,1,0,4.16Z" transform="translate(-118.007 -371.33)"/>
          <path id="Path_1036" data-name="Path 1036" d="M122.607,375.49a11.677,11.677,0,0,1,0-4.16A11.677,11.677,0,0,1,122.607,375.49Z" transform="translate(-115.971 -371.33)"/>
          <path id="Path_1037" data-name="Path 1037" d="M116.687,375.49a11.676,11.676,0,0,1,0-4.16A11.678,11.678,0,0,1,116.687,375.49Z" transform="translate(-112.262 -371.33)"/>
          <path id="Path_1038" data-name="Path 1038" d="M128.577,375.49a11.676,11.676,0,0,1,0-4.16A11.912,11.912,0,0,1,128.577,375.49Z" transform="translate(-119.712 -371.33)"/>
          <path id="Path_1039" data-name="Path 1039" d="M151.746,375.49a10.591,10.591,0,0,1-.187-2.08,10.336,10.336,0,0,1,.187-2.08,10.082,10.082,0,0,1,.187,2.08A10.31,10.31,0,0,1,151.746,375.49Z" transform="translate(-134.229 -371.33)"/>
          <path id="Path_1040" data-name="Path 1040" d="M135.446,375.49a10.588,10.588,0,0,1-.187-2.08,10.337,10.337,0,0,1,.187-2.08,10.082,10.082,0,0,1,.187,2.08A10.589,10.589,0,0,1,135.446,375.49Z" transform="translate(-124.015 -371.33)"/>
          <path id="Path_1041" data-name="Path 1041" d="M133.107,375.49a11.676,11.676,0,0,1,0-4.16A11.911,11.911,0,0,1,133.107,375.49Z" transform="translate(-122.55 -371.33)"/>
          <path id="Path_1042" data-name="Path 1042" d="M108.857,375.49a11.677,11.677,0,0,1,0-4.16A11.677,11.677,0,0,1,108.857,375.49Z" transform="translate(-107.355 -371.33)"/>
          <path id="Path_1043" data-name="Path 1043" d="M105.337,375.49a11.676,11.676,0,0,1,0-4.16A11.677,11.677,0,0,1,105.337,375.49Z" transform="translate(-105.15 -371.33)"/>
          <path id="Path_1044" data-name="Path 1044" d="M113.867,375.49a11.677,11.677,0,0,1,0-4.16A11.912,11.912,0,0,1,113.867,375.49Z" transform="translate(-110.495 -371.33)"/>
          <path id="Path_1045" data-name="Path 1045" d="M146.045,375.49a10.311,10.311,0,0,1-.187-2.08,10.083,10.083,0,0,1,.187-2.08A11.676,11.676,0,0,1,146.045,375.49Z" transform="translate(-130.656 -371.33)"/>
        </g>
        <path id="Path_1046" data-name="Path 1046" d="M126.568,370.06v1.105l-23.518.739V370.06Z" transform="translate(-85.209 -364.862)" opacity="0.1"/>
        <rect id="Rectangle_1697" data-name="Rectangle 1697" width="23.518" height="5.198" transform="translate(16.411)" fill="#90caf9"/>
        <g id="Group_1296" data-name="Group 1296" transform="translate(17.195 0.478)" opacity="0.1">
          <path id="Path_1047" data-name="Path 1047" d="M101.507,357.42a11.659,11.659,0,0,1,0,4.156A11.658,11.658,0,0,1,101.507,357.42Z" transform="translate(-101.32 -357.42)"/>
          <path id="Path_1048" data-name="Path 1048" d="M106.2,357.42a11.659,11.659,0,0,1,0,4.156A11.658,11.658,0,0,1,106.2,357.42Z" transform="translate(-104.259 -357.42)"/>
          <path id="Path_1049" data-name="Path 1049" d="M108.485,357.42a10.563,10.563,0,0,1,.187,2.08,10.276,10.276,0,0,1-.187,2.076,10.017,10.017,0,0,1-.187-2.076A10.289,10.289,0,0,1,108.485,357.42Z" transform="translate(-105.692 -357.42)"/>
          <path id="Path_1050" data-name="Path 1050" d="M121.067,357.42a11.659,11.659,0,0,1,0,4.156A11.659,11.659,0,0,1,121.067,357.42Z" transform="translate(-113.576 -357.42)"/>
          <path id="Path_1051" data-name="Path 1051" d="M124.465,357.42a10.565,10.565,0,0,1,.187,2.08,10.276,10.276,0,0,1-.187,2.076,10.015,10.015,0,0,1-.187-2.076A10.563,10.563,0,0,1,124.465,357.42Z" transform="translate(-115.705 -357.42)"/>
          <path id="Path_1052" data-name="Path 1052" d="M138.535,357.42a10.564,10.564,0,0,1,.187,2.08,10.276,10.276,0,0,1-.187,2.076,10.017,10.017,0,0,1-.187-2.076A10.564,10.564,0,0,1,138.535,357.42Z" transform="translate(-124.521 -357.42)"/>
          <path id="Path_1053" data-name="Path 1053" d="M141.785,357.42a10.288,10.288,0,0,1,.187,2.08,10.016,10.016,0,0,1-.187,2.076,10.278,10.278,0,0,1-.187-2.076A10.564,10.564,0,0,1,141.785,357.42Z" transform="translate(-126.558 -357.42)"/>
          <path id="Path_1054" data-name="Path 1054" d="M147.755,357.42a10.566,10.566,0,0,1,.187,2.08,10.018,10.018,0,0,1-.187,2.076,10.279,10.279,0,0,1-.187-2.076A10.566,10.566,0,0,1,147.755,357.42Z" transform="translate(-130.298 -357.42)"/>
          <path id="Path_1055" data-name="Path 1055" d="M135.817,357.42A10.288,10.288,0,0,1,136,359.5a10.016,10.016,0,0,1-.187,2.076A11.659,11.659,0,0,1,135.817,357.42Z" transform="translate(-122.818 -357.42)"/>
          <path id="Path_1056" data-name="Path 1056" d="M112.687,357.42a11.658,11.658,0,0,1,0,4.156A11.659,11.659,0,0,1,112.687,357.42Z" transform="translate(-108.325 -357.42)"/>
          <path id="Path_1057" data-name="Path 1057" d="M128.947,357.42a11.659,11.659,0,0,1,0,4.156,11.658,11.658,0,0,1,0-4.156Z" transform="translate(-118.513 -357.42)"/>
          <path id="Path_1058" data-name="Path 1058" d="M131.287,357.42a10.287,10.287,0,0,1,.187,2.08,10.019,10.019,0,0,1-.187,2.076A11.658,11.658,0,0,1,131.287,357.42Z" transform="translate(-119.98 -357.42)"/>
          <path id="Path_1059" data-name="Path 1059" d="M155.535,357.42a10.289,10.289,0,0,1,.187,2.08,10.016,10.016,0,0,1-.187,2.076,10.276,10.276,0,0,1-.187-2.076,10.564,10.564,0,0,1,.187-2.08Z" transform="translate(-135.173 -357.42)"/>
          <path id="Path_1060" data-name="Path 1060" d="M159.055,357.42a10.562,10.562,0,0,1,.187,2.08,10.276,10.276,0,0,1-.187,2.076,10.014,10.014,0,0,1-.187-2.076A10.288,10.288,0,0,1,159.055,357.42Z" transform="translate(-137.378 -357.42)"/>
          <path id="Path_1061" data-name="Path 1061" d="M150.527,357.42a10.287,10.287,0,0,1,.187,2.08,10.015,10.015,0,0,1-.187,2.076A11.659,11.659,0,0,1,150.527,357.42Z" transform="translate(-132.035 -357.42)"/>
          <path id="Path_1062" data-name="Path 1062" d="M118.345,357.42a11.659,11.659,0,0,1,0,4.156,10.014,10.014,0,0,1-.187-2.076,10.287,10.287,0,0,1,.187-2.08Z" transform="translate(-111.87 -357.42)"/>
        </g>
        <path id="Path_1063" data-name="Path 1063" d="M122.738,356.14v1.105l-23.518.743V356.14Z" transform="translate(-82.809 -356.14)" opacity="0.1"/>
        <rect id="Rectangle_1698" data-name="Rectangle 1698" width="23.518" height="5.198" transform="translate(16.411 15.59)" fill="#90caf9"/>
        <g id="Group_1297" data-name="Group 1297" transform="translate(17.195 16.068)" opacity="0.1">
          <path id="Path_1064" data-name="Path 1064" d="M159.055,403.326a10.287,10.287,0,0,1-.187-2.08,10.014,10.014,0,0,1,.187-2.076A11.658,11.658,0,0,1,159.055,403.326Z" transform="translate(-137.378 -399.17)"/>
          <path id="Path_1065" data-name="Path 1065" d="M154.365,403.326a10.29,10.29,0,0,1-.187-2.08,10.016,10.016,0,0,1,.187-2.076A11.657,11.657,0,0,1,154.365,403.326Z" transform="translate(-134.439 -399.17)"/>
          <path id="Path_1066" data-name="Path 1066" d="M152.077,403.326a11.658,11.658,0,0,1,0-4.156,11.657,11.657,0,0,1,0,4.156Z" transform="translate(-133.006 -399.17)"/>
          <path id="Path_1067" data-name="Path 1067" d="M139.495,403.326a10.289,10.289,0,0,1-.187-2.08,10.017,10.017,0,0,1,.187-2.076,10.277,10.277,0,0,1,.187,2.076A10.563,10.563,0,0,1,139.495,403.326Z" transform="translate(-125.122 -399.17)"/>
          <path id="Path_1068" data-name="Path 1068" d="M136.1,403.326a11.658,11.658,0,0,1,0-4.156A11.657,11.657,0,0,1,136.1,403.326Z" transform="translate(-122.994 -399.17)"/>
          <path id="Path_1069" data-name="Path 1069" d="M122.027,403.326a11.658,11.658,0,0,1,0-4.156A11.893,11.893,0,0,1,122.027,403.326Z" transform="translate(-114.178 -399.17)"/>
          <path id="Path_1070" data-name="Path 1070" d="M118.767,403.326a11.658,11.658,0,0,1,0-4.156A11.658,11.658,0,0,1,118.767,403.326Z" transform="translate(-112.135 -399.17)"/>
          <path id="Path_1071" data-name="Path 1071" d="M112.8,403.326a11.893,11.893,0,0,1,0-4.156A11.658,11.658,0,0,1,112.8,403.326Z" transform="translate(-108.4 -399.17)"/>
          <path id="Path_1072" data-name="Path 1072" d="M124.737,403.326a11.658,11.658,0,0,1,0-4.156A11.657,11.657,0,0,1,124.737,403.326Z" transform="translate(-115.876 -399.17)"/>
          <path id="Path_1073" data-name="Path 1073" d="M147.915,403.326a10.288,10.288,0,0,1-.187-2.08,10.016,10.016,0,0,1,.187-2.076,10.275,10.275,0,0,1,.187,2.076,10.562,10.562,0,0,1-.187,2.08Z" transform="translate(-130.398 -399.17)"/>
          <path id="Path_1074" data-name="Path 1074" d="M131.615,403.326a10.289,10.289,0,0,1-.187-2.08,10.016,10.016,0,0,1,.187-2.076,10.277,10.277,0,0,1,.187,2.076A10.564,10.564,0,0,1,131.615,403.326Z" transform="translate(-120.185 -399.17)"/>
          <path id="Path_1075" data-name="Path 1075" d="M129.267,403.326a11.658,11.658,0,0,1,0-4.156,11.657,11.657,0,0,1,0,4.156Z" transform="translate(-118.714 -399.17)"/>
          <path id="Path_1076" data-name="Path 1076" d="M105.017,403.326a11.658,11.658,0,0,1,0-4.156A11.657,11.657,0,0,1,105.017,403.326Z" transform="translate(-103.519 -399.17)"/>
          <path id="Path_1077" data-name="Path 1077" d="M101.507,403.326a11.658,11.658,0,0,1,0-4.156A11.658,11.658,0,0,1,101.507,403.326Z" transform="translate(-101.32 -399.17)"/>
          <path id="Path_1078" data-name="Path 1078" d="M110.027,403.326a11.658,11.658,0,0,1,0-4.156A11.658,11.658,0,0,1,110.027,403.326Z" transform="translate(-106.658 -399.17)"/>
          <path id="Path_1079" data-name="Path 1079" d="M142.217,403.326a11.658,11.658,0,0,1,0-4.156A11.658,11.658,0,0,1,142.217,403.326Z" transform="translate(-126.828 -399.17)"/>
        </g>
        <path id="Path_1080" data-name="Path 1080" d="M122.738,397.89V399l-23.518.743V397.89Z" transform="translate(-82.809 -382.3)" opacity="0.1"/>
        <path id="Path_1081" data-name="Path 1081" d="M71.624,385.605c15.478,2.778,11.393,25.71-4.108,22.928S56.116,382.812,71.624,385.605Z" transform="translate(-56.819 -374.455)" fill="#90caf9"/>
        <path id="Path_1082" data-name="Path 1082" d="M71.624,385.605c15.478,2.778,11.393,25.71-4.108,22.928S56.116,382.812,71.624,385.605Z" transform="translate(-56.819 -374.455)" opacity="0.1"/>
        <path id="Path_1083" data-name="Path 1083" d="M68.613,384.913c14.754,2.648,10.661,25.579-4.108,22.928S53.844,382.261,68.613,384.913Z" transform="translate(-55.271 -374.035)" fill="#90caf9"/>
        <path id="Path_1084" data-name="Path 1084" d="M60.46,400.455a8.876,8.876,0,0,0,7.67,8.977c12.263,2.2,15.657-16.834,3.413-19.044-.078,0-.161-.03-.239-.037,11.479,2.3,8.189,20.31-3.5,18.211A8.489,8.489,0,0,1,60.46,400.455Z" transform="translate(-58.522 -377.575)" opacity="0.1"/>
        <g id="Group_1298" data-name="Group 1298" transform="translate(5.917 15.179)" opacity="0.1">
          <path id="Path_1085" data-name="Path 1085" d="M77.769,396.815a.373.373,0,0,1,.284.47l-.157.631a5.287,5.287,0,0,1,2.513,1.8.444.444,0,0,1,.127.414.415.415,0,0,1-.508.291.374.374,0,0,1-.254-.179,4.615,4.615,0,0,0-2.106-1.613l-1.1,4.406c2.267,1.12,3.051,2.241,2.662,3.79-.414,1.669-2.11,2.5-4.108,2.072l-.306,1.225a.385.385,0,0,1-.747-.187l.31-1.243a6.087,6.087,0,0,1-3.159-2.409.411.411,0,1,1,.657-.489,5.247,5.247,0,0,0,2.711,2.2l1.12-4.481c-2.24-1.12-2.987-2.218-2.614-3.79s2.084-2.457,4.014-2.024l.149-.6a.373.373,0,0,1,.508-.287Zm-1.841,5.892,1.072-4.3c-1.535-.347-2.767.314-3.051,1.445C73.688,400.926,74.024,401.722,75.928,402.707Zm.452,1.12L75.3,408.17c1.583.373,2.834-.295,3.129-1.494.276-1.072-.108-1.871-2.043-2.838Z" transform="translate(-71.118 -396.788)"/>
        </g>
      </g>
      <g id="freepik--Character--inject-143" transform="translate(47.902 18.157)">
        <path id="Path_1086" data-name="Path 1086" d="M286.084,373.82c-.855.276-25.265-.041-26.188-.646-.355-.22-.515-3.779-.586-8.088v-.134c-.019-.889-.03-1.8-.03-2.726v-.373l1.184-12.662,16.329.164L275.18,361.9l-.019.5-.1,2.614v.265s9.291,4.3,10.235,5.071S286.943,373.548,286.084,373.82Z" transform="translate(-219.179 -253.011)" fill="#f7a9a0"/>
        <path id="Path_1087" data-name="Path 1087" d="M286.084,395.068c-.855.276-25.265-.041-26.188-.646-.355-.22-.515-3.779-.586-8.088V386.2c-.019-.889-.03-1.8-.03-2.726V383.1l15.9.045-.019.5-.1,2.614v.265s9.291,4.3,10.235,5.071S286.943,394.8,286.084,395.068Z" transform="translate(-219.179 -274.259)" fill="#ebebeb"/>
        <path id="Path_1088" data-name="Path 1088" d="M286.15,400.265c-.441.142-7.073.127-13.555,0-1.3-.026-2.614-.056-3.835-.09-4.623-.127-8.443-.317-8.8-.549s-.512-3.682-.583-7.909V391.4h.019l15.732.03v.269s9.291,4.3,10.232,5.067S287.005,399.992,286.15,400.265Z" transform="translate(-219.242 -279.459)" fill="#37474f"/>
        <path id="Path_1089" data-name="Path 1089" d="M288.706,412.138c-4.108-.153-20.721-.373-24.8-.228-.034,0-.034.022,0,.026,4.074.243,20.68.34,24.795.269C288.792,412.2,288.792,412.141,288.706,412.138Z" transform="translate(-222.063 -292.281)" fill="#263238"/>
        <path id="Path_1090" data-name="Path 1090" d="M298.051,391.432a5.735,5.735,0,0,0-4.854,1.038c-.049.041,0,.112.067.093a22.777,22.777,0,0,1,4.776-.926.1.1,0,0,0,.011-.205Z" transform="translate(-240.419 -279.394)" fill="#263238"/>
        <path id="Path_1091" data-name="Path 1091" d="M301.161,393.356a5.758,5.758,0,0,0-4.854,1.038c-.049.045,0,.112.067.1a22.775,22.775,0,0,1,4.772-.93.1.1,0,0,0,.015-.205Z" transform="translate(-242.367 -280.601)" fill="#263238"/>
        <path id="Path_1092" data-name="Path 1092" d="M304.261,395.285a5.748,5.748,0,0,0-4.854,1.038c-.049.045,0,.112.067.1a22.8,22.8,0,0,1,4.776-.93.1.1,0,0,0,.011-.205Z" transform="translate(-244.31 -281.809)" fill="#263238"/>
        <path id="Path_1093" data-name="Path 1093" d="M243.493,273.864H224.337s4.16-37.812,4.022-38.529c-.071-.373-3.514-5.571-7.606-11.654-2.289-3.406-4.78-7.095-6.994-10.351-3.66-5.392-6.568-9.649-6.568-9.649h18.757s2.524,3.047,5.833,7.36c4.683,6.109,10.937,14.754,13.816,20.87C247.821,236.66,243.493,273.864,243.493,273.864Z" transform="translate(-186.541 -161.837)" fill="#455a64"/>
        <path id="Path_1094" data-name="Path 1094" d="M266.856,237.882a18.3,18.3,0,0,0-2.45-5.781c-2.155-3.786-11.867-18.219-14.563-21.621l-1.034-1.292c-.022-.03-.071,0-.049.03,2.64,3.409,12.263,17.711,14.421,21.43a33.286,33.286,0,0,1,2.939,5.7,17.64,17.64,0,0,1,.508,6.606q-.347,6.852-.829,13.7-.489,6.919-1.12,13.816c-.052.564-.1,1.12-.153,1.7-.019.179.161.2.179,0,.441-4.589.926-9.134,1.27-13.73s.646-9.253.9-13.884A29.912,29.912,0,0,0,266.856,237.882Z" transform="translate(-212.584 -165.281)" fill="#263238"/>
        <path id="Path_1095" data-name="Path 1095" d="M275.814,383.384c-2.685-.056-1.912-.078-4.6-.1-1.314,0-9.952-.086-11.18.116-.026,0-.026.052,0,.056,1.229.2,9.866.127,11.18.116,2.685-.026,1.912-.049,4.6-.1a.039.039,0,0,0,0-.078Z" transform="translate(-219.641 -274.36)" fill="#263238"/>
        <path id="Path_1096" data-name="Path 1096" d="M226.783,232.754c-4.907-7.573-19.593-29.074-19.593-29.074h9.828Z" transform="translate(-186.54 -161.837)" fill="#263238"/>
        <path id="Path_1097" data-name="Path 1097" d="M152.279,416.274c.859.269,25.265-.3,26.18-.911.351-.228.474-3.786.5-8.1v-.134c0-.885,2.046-15.8,2.046-15.8l-15.952.325-1.845,15.684v.269s-9.235,4.38-10.161,5.157S151.42,416.009,152.279,416.274Z" transform="translate(-151.891 -279.415)" fill="#f7a9a0"/>
        <path id="Path_1098" data-name="Path 1098" d="M152.279,437.565c.859.269,25.265-.3,26.18-.911.351-.228.474-3.786.5-8.1v-.134s.373-2.987.373-3.114l-15.751.28-.355,3.025v.269s-9.253,4.4-10.179,5.172S151.42,437.3,152.279,437.565Z" transform="translate(-151.891 -300.707)" fill="#ebebeb"/>
        <path id="Path_1099" data-name="Path 1099" d="M152.279,442.791c.859.269,25.265-.3,26.18-.911.351-.228.474-3.786.5-8.1v-.134l-15.751.19v.269s-9.235,4.4-10.161,5.172S151.42,442.526,152.279,442.791Z" transform="translate(-151.891 -305.932)" fill="#37474f"/>
        <path id="Path_1100" data-name="Path 1100" d="M153.5,454.735c4.108-.2,20.713-.6,24.795-.482.034,0,.034.022,0,.026-4.07.284-20.676.553-24.795.523C153.416,454.8,153.416,454.739,153.5,454.735Z" transform="translate(-152.86 -318.829)" fill="#263238"/>
        <path id="Path_1101" data-name="Path 1101" d="M177.381,434.139a5.716,5.716,0,0,1,4.854.986c.049.045,0,.116-.067.1a22.829,22.829,0,0,0-4.783-.878.1.1,0,0,1,0-.205Z" transform="translate(-167.81 -306.145)" fill="#263238"/>
        <path id="Path_1102" data-name="Path 1102" d="M174.291,436.1a5.713,5.713,0,0,1,4.854.986c.049.045,0,.112-.067.1a22.547,22.547,0,0,0-4.783-.878.1.1,0,0,1,0-.205Z" transform="translate(-165.874 -307.373)" fill="#263238"/>
        <path id="Path_1103" data-name="Path 1103" d="M171.184,438.059a5.719,5.719,0,0,1,4.854.986c.049.045,0,.112-.067.1a22.832,22.832,0,0,0-4.783-.881.1.1,0,0,1,0-.2Z" transform="translate(-163.918 -308.601)" fill="#263238"/>
        <path id="Path_1104" data-name="Path 1104" d="M208.791,203.68s-2.24,13.7-2.4,14.141c0,0-.836.4-2.345,1.09l-6.658,71.046-17.577.071,9.8-86.349Z" transform="translate(-169.385 -161.837)" fill="#455a64"/>
        <path id="Path_1105" data-name="Path 1105" d="M198.764,426.209c-2.685-.045-1.912-.071-4.6-.086-1.311,0-9.948-.045-11.176.164-.026,0-.026.048,0,.056,1.232.2,9.866.086,11.18.067,2.685-.037,1.912-.056,4.6-.123a.041.041,0,1,0,0-.078Z" transform="translate(-171.363 -301.214)" fill="#263238"/>
        <path id="Path_1106" data-name="Path 1106" d="M205.55,210.675c-.683,9.787-1.389,19.574-2.188,29.354s-1.755,19.616-2.939,29.392c-.661,5.459-1.382,13.152-2.173,18.592,0,.037.052.052.056,0,1.639-9.671,2.793-21.658,3.783-31.427s1.777-19.537,2.472-29.321q.56-8.3,1.12-16.606C205.677,210.593,205.554,210.6,205.55,210.675Z" transform="translate(-180.939 -166.181)" fill="#263238"/>
        <path id="Path_1107" data-name="Path 1107" d="M244.515,240.39a32.352,32.352,0,0,0-5.026,2.633.057.057,0,0,0,.052.1c1.7-.822,3.428-1.617,5.075-2.532a.113.113,0,0,0-.1-.2Z" transform="translate(-206.759 -184.831)" fill="#263238"/>
        <path id="Path_1108" data-name="Path 1108" d="M246.771,219.342c-.276,1.639-.429,3.3-.612,4.955-.045.4-.093.8-.134,1.191a2.3,2.3,0,0,1-.288,1.042,3.291,3.291,0,0,1-1.572,1.064c-.067.03-.041.134.034.112a3.82,3.82,0,0,0,1.673-.885,3.505,3.505,0,0,0,.59-2.117,45.12,45.12,0,0,0,.373-5.355C246.846,219.308,246.779,219.3,246.771,219.342Z" transform="translate(-209.684 -171.632)" fill="#263238"/>
        <path id="Path_1109" data-name="Path 1109" d="M245.035,220.688c-.06,1.18-.19,2.36-.291,3.54-.049.579-.09,1.165-.123,1.748s-.1,1.2-.086,1.789a.037.037,0,0,0,.071,0c.1-.56.112-1.143.157-1.71s.09-1.195.123-1.792c.067-1.191.1-2.394.205-3.585A.029.029,0,0,0,245.035,220.688Z" transform="translate(-209.938 -172.474)" fill="#263238"/>
        <path id="Path_1110" data-name="Path 1110" d="M228.957,211.04l-7.2.915-10.829,1.374-8.215,1.042,1.214-10.691h19.182S225.664,206.727,228.957,211.04Z" transform="translate(-183.733 -161.837)" fill="#263238"/>
        <path id="Path_1111" data-name="Path 1111" d="M247.025,143.946c3.3,6.789,10.273,13.91,14.246,13.91,3.734,0,13.122-7.356,17.513-11.68,1-.986-8.129-8.779-9.111-7.636-2.293,2.67-7.655,8.465-9.373,8.465-1.531,0-6.348-3.473-10.564-6.916C244.628,135.91,245.711,141.253,247.025,143.946Z" transform="translate(-210.816 -120.949)" fill="#f7a9a0"/>
        <path id="Path_1112" data-name="Path 1112" d="M321.078,129.193a33.978,33.978,0,0,0,6.893-6.434c1.064-1.352,3.712-5.549,2.741-6.445s-1.867.261-1.867.261.851-1.942-.209-2.756-2.375,1.034-2.375,1.034.747-2.058-.373-2.793-2.129,1.344-2.129,1.344.747-1.867-.418-2.069c-1.415-.265-2.423,3.3-3.674,4.735-.288.329-6.236,6.184-6.236,6.184Z" transform="translate(-253.109 -103.967)" fill="#f7a9a0"/>
        <path id="Path_1113" data-name="Path 1113" d="M335.053,116.833a9.58,9.58,0,0,1-3.529,5.426c-.037.037,0,.1.049.071,2.121-1.576,3.282-2.711,3.611-5.471C335.2,116.706,335.087,116.687,335.053,116.833Z" transform="translate(-264.437 -107.358)" fill="#263238"/>
        <path id="Path_1114" data-name="Path 1114" d="M341.589,120.421a14.543,14.543,0,0,1-3.809,5.8c-.03.026,0,.078.049.052,2.087-1.83,3.223-2.987,3.887-5.777C341.742,120.365,341.63,120.3,341.589,120.421Z" transform="translate(-268.359 -109.627)" fill="#263238"/>
        <path id="Path_1115" data-name="Path 1115" d="M347.435,125.814a12.853,12.853,0,0,1-4.186,5.485.052.052,0,0,0,.06.082,9.153,9.153,0,0,0,4.2-5.523C347.558,125.679,347.51,125.642,347.435,125.814Z" transform="translate(-271.785 -112.978)" fill="#263238"/>
        <rect id="Rectangle_1699" data-name="Rectangle 1699" width="27.566" height="19.884" transform="matrix(1, -0.01, 0.01, 1, 64.196, 0.333)" fill="#ebebeb"/>
        <rect id="Rectangle_1700" data-name="Rectangle 1700" width="2.009" height="11.016" transform="matrix(1, -0.01, 0.01, 1, 69.256, 4.37)" fill="#90caf9"/>
        <path id="Path_1116" data-name="Path 1116" d="M348.38,119.276l-2.009.022-.071-7.98,2.005-.019Z" transform="translate(-273.705 -103.953)" fill="#90caf9"/>
        <rect id="Rectangle_1701" data-name="Rectangle 1701" width="2.009" height="6.146" transform="matrix(1, -0.01, 0.01, 1, 75.895, 9.173)" fill="#90caf9"/>
        <rect id="Rectangle_1702" data-name="Rectangle 1702" width="2.009" height="4.925" transform="matrix(1, -0.01, 0.01, 1, 79.201, 10.36)" fill="#90caf9"/>
        <rect id="Rectangle_1703" data-name="Rectangle 1703" width="2.009" height="7.98" transform="matrix(1, -0.01, 0.01, 1, 82.463, 7.273)" fill="#90caf9"/>
        <rect id="Rectangle_1704" data-name="Rectangle 1704" width="2.009" height="9.5" transform="translate(85.748 5.702) rotate(-0.59)" fill="#90caf9"/>
        <path id="Path_1117" data-name="Path 1117" d="M333.586,100.06c.071,2.039.134,4.078.176,6.12s.093,4.081.116,6.12l-.168-.168,5.3-.067,5.3-.034h5.3c1.77,0,3.533.022,5.3.052q-2.651.093-5.3.157c-1.766.037-3.533.09-5.3.112l-5.3.075-5.314.045h-.172V112.3c-.019-2.043,0-4.081,0-6.124S333.552,102.1,333.586,100.06Z" transform="translate(-265.695 -96.91)" fill="#c7c7c7"/>
        <path id="Path_1118" data-name="Path 1118" d="M332,102.912a4.825,4.825,0,0,1,.657-.052,4.267,4.267,0,0,1,.653.041,4.623,4.623,0,0,1-1.311,0Z" transform="translate(-264.744 -98.664)" fill="#c7c7c7"/>
        <path id="Path_1119" data-name="Path 1119" d="M332,105.912a4.854,4.854,0,0,1,.657-.052,4.267,4.267,0,0,1,.653.041,4.622,4.622,0,0,1-1.311,0Z" transform="translate(-264.744 -100.544)" fill="#c7c7c7"/>
        <path id="Path_1120" data-name="Path 1120" d="M332,108.972a4.333,4.333,0,0,1,.657-.052,4.27,4.27,0,0,1,.654.041,4.622,4.622,0,0,1-1.311,0Z" transform="translate(-264.744 -102.461)" fill="#c7c7c7"/>
        <path id="Path_1121" data-name="Path 1121" d="M332.06,112a4.65,4.65,0,0,1,1.314,0A4.649,4.649,0,0,1,332.06,112Z" transform="translate(-264.782 -104.364)" fill="#c7c7c7"/>
        <path id="Path_1122" data-name="Path 1122" d="M332.09,115.022a4.649,4.649,0,0,1,1.314,0,4.648,4.648,0,0,1-1.314,0Z" transform="translate(-264.801 -106.256)" fill="#c7c7c7"/>
        <path id="Path_1123" data-name="Path 1123" d="M332.12,118.042a4.649,4.649,0,0,1,1.314,0A4.649,4.649,0,0,1,332.12,118.042Z" transform="translate(-264.82 -108.148)" fill="#c7c7c7"/>
        <path id="Path_1124" data-name="Path 1124" d="M332.16,121.052a4.245,4.245,0,0,1,.653-.052,4.316,4.316,0,0,1,.657.041,4.331,4.331,0,0,1-.657.052A4.267,4.267,0,0,1,332.16,121.052Z" transform="translate(-264.845 -110.03)" fill="#c7c7c7"/>
        <path id="Path_1125" data-name="Path 1125" d="M332.19,124.082a4.623,4.623,0,0,1,1.311,0,4.33,4.33,0,0,1-.657.052,4.267,4.267,0,0,1-.653-.052Z" transform="translate(-264.863 -111.933)" fill="#c7c7c7"/>
        <path id="Path_1126" data-name="Path 1126" d="M332.22,127.1a4.624,4.624,0,0,1,1.311,0,4.33,4.33,0,0,1-.657.052A4.268,4.268,0,0,1,332.22,127.1Z" transform="translate(-264.882 -113.825)" fill="#c7c7c7"/>
        <path id="Path_1127" data-name="Path 1127" d="M332.25,130.122a4.622,4.622,0,0,1,1.311,0,4.82,4.82,0,0,1-.654.052,4.287,4.287,0,0,1-.657-.052Z" transform="translate(-264.901 -115.717)" fill="#c7c7c7"/>
        <path id="Path_1128" data-name="Path 1128" d="M349.24,98.818c.721-.067,1.438-.1,2.155-.131s1.438-.045,2.158-.056,1.438,0,2.155,0,1.438.034,2.158.086c-.721.067-1.438.1-2.155.131s-1.438.041-2.158.052-1.438,0-2.155,0S349.961,98.867,349.24,98.818Z" transform="translate(-275.547 -96.012)" fill="#c7c7c7"/>
        <path id="Path_1129" data-name="Path 1129" d="M353.6,101.486a25.988,25.988,0,0,1,5.388-.056,22.4,22.4,0,0,1-2.692.168,23.247,23.247,0,0,1-2.7-.112Z" transform="translate(-278.279 -97.697)" fill="#c7c7c7"/>
        <path id="Path_1130" data-name="Path 1130" d="M333.84,136.658V135.37h1.288v1.292Zm.175-1.12v.919h.915v-.915Z" transform="translate(-265.897 -119.035)" fill="#c7c7c7"/>
        <path id="Path_1131" data-name="Path 1131" d="M339.78,135.291c1.094-.049,2.188-.082,3.286-.108l3.282-.052h3.282c1.1,0,2.192,0,3.286.041-1.094.045-2.188.082-3.282.1l-3.286.056h-3.282Q341.423,135.324,339.78,135.291Z" transform="translate(-269.619 -118.885)" fill="#c7c7c7"/>
        <path id="Path_1132" data-name="Path 1132" d="M339.8,136.764c1.236-.09,2.472-.1,3.708-.131s2.476,0,3.712.056c-1.236.09-2.472.108-3.708.131S341.036,136.842,339.8,136.764Z" transform="translate(-269.632 -119.82)" fill="#c7c7c7"/>
        <path id="Path_1133" data-name="Path 1133" d="M339.81,138.261c1.516-.09,3.036-.112,4.552-.138s3.032,0,4.552.045c-1.516.093-3.032.116-4.552.142S341.33,138.324,339.81,138.261Z" transform="translate(-269.638 -120.753)" fill="#c7c7c7"/>
        <path id="Path_1134" data-name="Path 1134" d="M333.94,103.885a5.119,5.119,0,0,1,1.471-.344,3.111,3.111,0,0,1,1.516.194,4.358,4.358,0,0,1,1.214.941c.355.373.68.747.993,1.15.635.78,1.225,1.594,1.9,2.315a5.571,5.571,0,0,0,2.371,1.639,3.017,3.017,0,0,0,1.4.086,4.708,4.708,0,0,0,1.355-.512,16.629,16.629,0,0,0,2.416-1.733c.777-.635,1.527-1.307,2.33-1.919a9.483,9.483,0,0,1,1.266-.833,4.282,4.282,0,0,1,.695-.31,2.532,2.532,0,0,1,.747-.112,3.055,3.055,0,0,0-1.393.508,9.607,9.607,0,0,0-1.2.889c-.769.639-1.494,1.329-2.24,1.994a14.49,14.49,0,0,1-2.442,1.815,4.978,4.978,0,0,1-1.449.564,3.409,3.409,0,0,1-1.576-.078,5.908,5.908,0,0,1-2.513-1.766A29.537,29.537,0,0,1,338.936,106c-.3-.4-.609-.8-.941-1.165a4.216,4.216,0,0,0-1.12-.937,2.987,2.987,0,0,0-1.426-.258,5.72,5.72,0,0,0-1.509.243Z" transform="translate(-265.96 -99.078)" fill="#263238"/>
        <path id="Path_1135" data-name="Path 1135" d="M307.71,131.2a30.422,30.422,0,0,1,3.282-3.656c1.2-.96,6.99-2.9,7.468-1.669.631,1.583-2.491,3.361-4.134,4.029,0,0,1.464,3.659-.5,5.418S307.71,131.2,307.71,131.2Z" transform="translate(-249.525 -112.838)" fill="#f7a9a0"/>
        <path id="Path_1136" data-name="Path 1136" d="M328.948,127.854c-.467,1.867-2.681,2.614-4.223,3.361a.157.157,0,0,0-.049.254c.508,1.576.773,3.947-.284,5.34a.038.038,0,1,0,.056.052c1.337-1.341,1.27-3.689.6-5.381,1.594-.747,3.783-1.6,3.917-3.63Z" transform="translate(-259.971 -114.323)" fill="#263238"/>
        <path id="Path_1137" data-name="Path 1137" d="M248.23,139.29c2.76,1.845,9.5,7.722,11.341,7.252s7.752-6.763,7.752-6.763l9.313,8.809s-10.556,10.037-16.393,9.668-11.89-9.335-13.816-13.2S243.634,136.224,248.23,139.29Z" transform="translate(-210.15 -120.894)" fill="#90caf9"/>
        <path id="Path_1138" data-name="Path 1138" d="M264.434,155.106a1.565,1.565,0,0,1,0-1.064A1.565,1.565,0,0,1,264.434,155.106Zm8.813-6.516a.273.273,0,1,0-.187,0,1.472,1.472,0,0,0,.093.53A1.472,1.472,0,0,0,273.247,148.59Zm1.12,8.3a1.472,1.472,0,0,0-.093-.53,1.554,1.554,0,0,0,0,1.061A1.472,1.472,0,0,0,274.367,156.895ZM255.069,153a1.314,1.314,0,0,0-.093-.53,1.553,1.553,0,0,0,0,1.061A1.4,1.4,0,0,0,255.069,153Zm16.524,2.677a1.4,1.4,0,0,0-.093-.53,1.553,1.553,0,0,0,0,1.061A1.4,1.4,0,0,0,271.593,155.677Zm-10.456-6.034a1.493,1.493,0,0,0,.53-.093,1.338,1.338,0,0,0-.53-.093,1.382,1.382,0,0,0-.53.093,1.457,1.457,0,0,0,.538.093Zm.672,7.711a1.472,1.472,0,0,0,.53-.093,1.553,1.553,0,0,0-1.061,0,1.457,1.457,0,0,0,.538.093Zm6.677-3.734a1.408,1.408,0,0,0,.53-.093,1.408,1.408,0,0,0-.53-.093,1.494,1.494,0,0,0-.534.093,1.493,1.493,0,0,0,.541.1Zm8.032.788a1.4,1.4,0,0,0,.53-.093,1.554,1.554,0,0,0-1.061,0,1.382,1.382,0,0,0,.538.1Zm-4.481-8.962a1.456,1.456,0,0,0,.53-.093,1.315,1.315,0,0,0-.53-.093,1.408,1.408,0,0,0-.53.093,1.494,1.494,0,0,0,.523.1Zm-17.267,1.516a1.461,1.461,0,0,0-.444-.31,1.4,1.4,0,0,0,.31.441,1.382,1.382,0,0,0,.441.31,1.434,1.434,0,0,0-.314-.429Zm3.846,8.264a1.442,1.442,0,0,0-.441-.31,1.568,1.568,0,0,0,.747.747,1.441,1.441,0,0,0-.314-.426Zm9.175,1.867a1.415,1.415,0,0,0-.444-.31,1.516,1.516,0,0,0,.747.747,1.494,1.494,0,0,0-.31-.429Zm5.041-4.8a1.382,1.382,0,0,0-.441-.31,1.569,1.569,0,0,0,.747.747,1.442,1.442,0,0,0-.306-.437Zm-6.849-1.826a1.434,1.434,0,0,0-.441-.306,1.568,1.568,0,0,0,.747.747,1.461,1.461,0,0,0-.306-.429Zm-1.326,9.264a1.441,1.441,0,0,0-.31.441,1.4,1.4,0,0,0,.441-.31,1.381,1.381,0,0,0,.31-.441A1.442,1.442,0,0,0,264.659,159.729Zm5.687-.691a1.389,1.389,0,0,0-.306.441,1.568,1.568,0,0,0,.747-.747,1.46,1.46,0,0,0-.448.306Zm-9.634-6.348a1.381,1.381,0,0,0-.31.441,1.382,1.382,0,0,0,.441-.31,1.4,1.4,0,0,0,.31-.441,1.4,1.4,0,0,0-.448.284Zm16.27-2.4a1.37,1.37,0,0,0-.306.441,1.442,1.442,0,0,0,.441-.31,1.5,1.5,0,0,0,.31-.441A1.46,1.46,0,0,0,276.981,150.289Zm-19.679,0a1.442,1.442,0,0,0-.31.441,1.568,1.568,0,0,0,.747-.747,1.441,1.441,0,0,0-.429.306Zm11.856-1.389a1.44,1.44,0,0,0-.31.441,1.416,1.416,0,0,0,.444-.31,1.494,1.494,0,0,0,.31-.441,1.46,1.46,0,0,0-.437.31Zm-16.871-4.249a1.472,1.472,0,0,0-.093-.53,1.326,1.326,0,0,0-.093.53,1.381,1.381,0,0,0,.093.53,1.457,1.457,0,0,0,.1-.53Zm.183,5.706a1.494,1.494,0,0,0,.534-.093,1.345,1.345,0,0,0-.534-.093,1.408,1.408,0,0,0-.53.093,1.494,1.494,0,0,0,.538.093Z" transform="translate(-214.58 -124.518)" fill="#fff"/>
        <path id="Path_1139" data-name="Path 1139" d="M309.35,156.087a11.422,11.422,0,0,0-.956-.99c-.317-.329-.65-.646-.982-.96-.642-.609-1.292-1.21-1.942-1.8l-1.964-1.781c-.676-.612-1.337-1.27-2.061-1.826a.03.03,0,1,0-.041.045c.6.68,1.307,1.292,1.968,1.923l1.953,1.867q.975.93,1.972,1.845c.329.3.657.59.993.878a12.456,12.456,0,0,0,1.027.855C309.346,156.158,309.372,156.113,309.35,156.087Z" transform="translate(-245.567 -127.399)" fill="#263238"/>
        <path id="Path_1140" data-name="Path 1140" d="M259.469,158.74c-5.6-1.049-11.2-9.4-13.07-13.092-1.24-2.468-2.024-5.388-1.229-6.378C247.438,142.347,255.361,153.154,259.469,158.74Z" transform="translate(-210.137 -121.479)" fill="#263238"/>
        <path id="Path_1141" data-name="Path 1141" d="M227.587,168c-.373.422-25.564.459-25.691.306-.347-.418,5.62-26.176,11.2-30.657,1.2-.963,5.8-.818,6.426-.571.717.273,2.741,3.7,3.663,6.486C225.025,149.142,227.915,167.626,227.587,168Z" transform="translate(-183.214 -119.988)" fill="#90caf9"/>
        <path id="Path_1142" data-name="Path 1142" d="M219.587,155.491a1.472,1.472,0,0,1-.093-.53,1.382,1.382,0,0,1,.093-.53,1.382,1.382,0,0,1,.093.53A1.472,1.472,0,0,1,219.587,155.491Zm3.189,5.527a1.494,1.494,0,0,0-.093-.534,1.344,1.344,0,0,0-.093.534,1.408,1.408,0,0,0,.093.53A1.493,1.493,0,0,0,222.776,161.018Zm-.093-17.771a1.471,1.471,0,0,0-.093-.53,1.326,1.326,0,0,0-.093.53,1.381,1.381,0,0,0,.093.53,1.457,1.457,0,0,0,.093-.53Zm-7.7,17.973a1.457,1.457,0,0,0-.093-.53,1.314,1.314,0,0,0-.093.53,1.4,1.4,0,0,0,.093.53,1.471,1.471,0,0,0,.093-.53Zm13.155,2.513a1.416,1.416,0,0,0-.093-.534,1.415,1.415,0,0,0-.093.534,1.494,1.494,0,0,0,.093.53,1.408,1.408,0,0,0,.093-.53Zm-9.085,3.63a1.4,1.4,0,0,0-.093-.53,1.4,1.4,0,0,0-.093.53,1.456,1.456,0,0,0,.093.53,1.381,1.381,0,0,0,.093-.53Zm-7.394,2.5a1.472,1.472,0,0,0-.093-.53,1.553,1.553,0,0,0,0,1.061,1.472,1.472,0,0,0,.093-.53Zm6.064-21.819a1.407,1.407,0,0,0-.093-.53,1.565,1.565,0,0,0,0,1.064A1.415,1.415,0,0,0,217.723,148.041Zm-4.783-3.017a1.456,1.456,0,0,0-.093-.53,1.553,1.553,0,0,0,0,1.061,1.472,1.472,0,0,0,.093-.53Zm-.093,9.018a1.494,1.494,0,0,0-.093-.53,1.565,1.565,0,0,0,0,1.064A1.494,1.494,0,0,0,212.847,154.042Zm-5.034,9.709a1.314,1.314,0,0,0-.093-.53,1.456,1.456,0,0,0-.093.53,1.494,1.494,0,0,0,.093.53,1.408,1.408,0,0,0,.093-.549Zm17.644-12.136a1.315,1.315,0,0,0-.093-.53,1.553,1.553,0,0,0,0,1.061,1.4,1.4,0,0,0,.093-.549Zm-9.182,1.632a1.494,1.494,0,0,0,.53-.093,1.565,1.565,0,0,0-1.064,0,1.494,1.494,0,0,0,.534.075Zm-.534,11.822a1.494,1.494,0,0,0,.534-.093,1.565,1.565,0,0,0-1.064,0,1.494,1.494,0,0,0,.53.075Zm2.875,5.982a1.381,1.381,0,0,0,.53-.093,1.456,1.456,0,0,0-.53-.093,1.493,1.493,0,0,0-.53.093A1.408,1.408,0,0,0,218.616,171.051Zm6.606-15.769a1.472,1.472,0,0,0,.53-.093,1.553,1.553,0,0,0-1.061,0,1.456,1.456,0,0,0,.519.1Zm-13.07-6.464a1.4,1.4,0,0,0,.53-.093,1.4,1.4,0,0,0-.53-.093,1.472,1.472,0,0,0-.53.093,1.4,1.4,0,0,0,.512.1Zm6.565-4.854a1.472,1.472,0,0,0,.53-.093,1.326,1.326,0,0,0-.53-.093,1.381,1.381,0,0,0-.53.093,1.456,1.456,0,0,0,.512.09ZM212.1,157.982a1.471,1.471,0,0,0,.53-.093,1.325,1.325,0,0,0-.53-.093,1.382,1.382,0,0,0-.53.093,1.456,1.456,0,0,0,.53.093Zm-3.7,9.376a1.407,1.407,0,0,0,.53-.093,1.565,1.565,0,0,0-1.064,0,1.415,1.415,0,0,0,.534.1Zm14.474-18.409a1.494,1.494,0,0,0,.534-.093,1.345,1.345,0,0,0-.534-.093,1.408,1.408,0,0,0-.53.093,1.494,1.494,0,0,0,.53.1Zm-3.469,9.888a1.382,1.382,0,0,0,.53-.093,1.553,1.553,0,0,0-1.061,0,1.4,1.4,0,0,0,.53.1Zm7.58,11.468a1.382,1.382,0,0,0,.53-.093,1.553,1.553,0,0,0-1.06,0,1.4,1.4,0,0,0,.53.093Zm-4.388-5.146a1.494,1.494,0,0,0,.53-.093,1.565,1.565,0,0,0-1.064,0,1.493,1.493,0,0,0,.534.078Zm.063,4.216a1.441,1.441,0,0,0-.441-.31,1.4,1.4,0,0,0,.31.441,1.381,1.381,0,0,0,.441.31,1.441,1.441,0,0,0-.31-.456Zm-14.19-9.406a1.441,1.441,0,0,0-.441-.31,1.4,1.4,0,0,0,.31.441,1.441,1.441,0,0,0,.441.31,1.441,1.441,0,0,0-.317-.456Zm7.73-3.069a1.359,1.359,0,0,0-.444-.31,1.441,1.441,0,0,0,.31.441,1.46,1.46,0,0,0,.444.31,1.494,1.494,0,0,0-.317-.456Zm-4.249,8.1a1.441,1.441,0,0,0-.441-.31,1.568,1.568,0,0,0,.747.747,1.441,1.441,0,0,0-.314-.452Zm-6.819,4.4a1.408,1.408,0,0,0-.444-.306,1.441,1.441,0,0,0,.31.441,1.46,1.46,0,0,0,.444.31,1.528,1.528,0,0,0-.317-.459Zm5.691-17.857a1.4,1.4,0,0,0-.441-.31,1.46,1.46,0,0,0,.31.444,1.434,1.434,0,0,0,.441.306,1.382,1.382,0,0,0-.317-.456Zm8.839-.657a1.36,1.36,0,0,0-.444-.31,1.441,1.441,0,0,0,.31.441,1.46,1.46,0,0,0,.444.31A1.493,1.493,0,0,0,219.654,150.887Zm5.87,12.248a1.441,1.441,0,0,0-.441-.31,1.4,1.4,0,0,0,.31.441,1.381,1.381,0,0,0,.441.31A1.441,1.441,0,0,0,225.524,163.135Zm-9.709-17.177a1.382,1.382,0,0,0-.441-.31,1.568,1.568,0,0,0,.747.747,1.441,1.441,0,0,0-.314-.448Zm7,11.139a1.442,1.442,0,0,0-.441-.31,1.415,1.415,0,0,0,.31.444,1.494,1.494,0,0,0,.441.31,1.46,1.46,0,0,0-.317-.456Zm-.131-4.235a1.4,1.4,0,0,0-.31.441,1.568,1.568,0,0,0,.747-.747,1.381,1.381,0,0,0-.444.295Zm-11.621,8.831a1.382,1.382,0,0,0-.31.441,1.433,1.433,0,0,0,.441-.306,1.46,1.46,0,0,0,.31-.444,1.441,1.441,0,0,0-.448.3Zm14.619-2.1a1.4,1.4,0,0,0-.31.441,1.46,1.46,0,0,0,.444-.31,1.434,1.434,0,0,0,.306-.441,1.423,1.423,0,0,0-.448.3Zm-10.2,9.22a1.441,1.441,0,0,0-.31.441,1.407,1.407,0,0,0,.444-.306,1.527,1.527,0,0,0,.31-.444A1.46,1.46,0,0,0,215.479,168.811Zm-.657-18.107a1.4,1.4,0,0,0-.31.441,1.568,1.568,0,0,0,.747-.747,1.442,1.442,0,0,0-.437.288Zm3.977,12.45a1.435,1.435,0,0,0-.306.441,1.381,1.381,0,0,0,.441-.31,1.4,1.4,0,0,0,.31-.441,1.459,1.459,0,0,0-.444.291Zm6.721,4.007a1.382,1.382,0,0,0-.31.441,1.568,1.568,0,0,0,.747-.747,1.441,1.441,0,0,0-.437.288Zm-16.21-11.3a1.442,1.442,0,0,0-.31.441,1.46,1.46,0,0,0,.444-.31,1.433,1.433,0,0,0,.306-.441,1.442,1.442,0,0,0-.441.291Zm11.236-9.145a1.441,1.441,0,0,0-.31.441,1.568,1.568,0,0,0,.747-.747,1.442,1.442,0,0,0-.437.288Zm-5.556-4.53a1.389,1.389,0,0,0-.306.444,1.441,1.441,0,0,0,.441-.31,1.494,1.494,0,0,0,.31-.441,1.449,1.449,0,0,0-.444.288Z" transform="translate(-184.968 -123.114)" fill="#fff"/>
        <path id="Path_1143" data-name="Path 1143" d="M246.09,151.044l.366-1.613-1.486-1.621-1.15,2.035.807,1.389-.7,16.483,3.088,5.452,1.606-6.135Z" transform="translate(-209.492 -126.83)" fill="#263238"/>
        <path id="Path_1144" data-name="Path 1144" d="M217.762,137.28,206.35,160.85c2.11-8.092,5.907-20.041,9.537-22.961A4.171,4.171,0,0,1,217.762,137.28Z" transform="translate(-186.014 -120.232)" fill="#263238"/>
        <path id="Path_1145" data-name="Path 1145" d="M192.006,144.963c-1.587,2.845-10.993,13.443-11.232,14.492s1.83,3.828,1.845,4.246c.052,1.7-1.841,12.969-3.439,12.005-2.1-1.273-11.135-10.751-10.545-15.553s18.843-17.659,21.74-19S193.574,142.14,192.006,144.963Z" transform="translate(-162.364 -122.418)" fill="#f7a9a0"/>
        <path id="Path_1146" data-name="Path 1146" d="M199.6,216.057c.881-1.012-.818-1.471-.818-1.471s2.614.071,3.111-1.326-1.591-1.83-1.74-1.867c.138,0,2.535,0,2.9-1.449s-1.789-1.639-1.927-1.647c.131-.037,1.867-.575,1.867-1.744.041-2.009-5.019-.892-6.4-1.744,0,0-.168-2.592-.149-2.67a2.942,2.942,0,0,1-1.1,1.587c-1,.594-1.927,1.031-2.24,1.665a1.468,1.468,0,0,0,.291,1.733,2.2,2.2,0,0,0-1.733,1.344c-.164.583.624,1.363.624,1.363a1.761,1.761,0,0,0-1.344,1.24,1.734,1.734,0,0,0,.639,1.494s-.982.7-.892,1.6C190.871,215.964,197.712,218.227,199.6,216.057Z" transform="translate(-176.192 -160.872)" fill="#f7a9a0"/>
        <path id="Path_1147" data-name="Path 1147" d="M193.392,230.346a.019.019,0,0,0-.019.034,12.494,12.494,0,0,0,7.185,1.912.075.075,0,0,0,0-.149A25.531,25.531,0,0,1,193.392,230.346Z" transform="translate(-177.877 -178.544)" fill="#263238"/>
        <path id="Path_1148" data-name="Path 1148" d="M194.875,222.75c-.026,0-.045.03,0,.049a11.734,11.734,0,0,0,7.969,1.6c.093,0,.164-.131.052-.119A21.043,21.043,0,0,1,194.875,222.75Z" transform="translate(-178.807 -173.786)" fill="#263238"/>
        <path id="Path_1149" data-name="Path 1149" d="M205.974,216.658a16.087,16.087,0,0,1-7.819-1.008.03.03,0,0,0-.019.056,10.455,10.455,0,0,0,4.156,1.385,7.181,7.181,0,0,0,3.693-.34C206.033,216.737,206.03,216.651,205.974,216.658Z" transform="translate(-180.858 -169.337)" fill="#263238"/>
        <path id="Path_1150" data-name="Path 1150" d="M191.5,213.018a1.723,1.723,0,0,1-.844-1.606,1.292,1.292,0,0,1,.448-.792,2.24,2.24,0,0,1,1-.373,1.7,1.7,0,0,1-.519-1.867,1.273,1.273,0,0,1,.687-.609,4.056,4.056,0,0,1,1.083-.243,1.494,1.494,0,0,1-.65-1.184,1.632,1.632,0,0,1,.683-1.318,7.633,7.633,0,0,1,1.591-.844,3.89,3.89,0,0,0,.8-.467,1.688,1.688,0,0,0,.512-.81c0-.06.082-.041.067,0a1.841,1.841,0,0,1-.3.631,2.744,2.744,0,0,1-.485.534,11.99,11.99,0,0,1-1.494.9,2.334,2.334,0,0,0-1,1.12,1.393,1.393,0,0,0,.332,1.426c.022.019,0,.056-.026.06a4.109,4.109,0,0,0-.922.373,1.385,1.385,0,0,0-.556.59,1.785,1.785,0,0,0,.373,1.744,3.07,3.07,0,0,0-.93.527,1.314,1.314,0,0,0-.336.65,1.546,1.546,0,0,0,.571,1.516.019.019,0,0,1,0,.019h0a.052.052,0,0,1,0,.022h0s-.31.235-.329.243,0,0,0-.019A2.462,2.462,0,0,1,191.5,213.018Z" transform="translate(-176.171 -161.328)" fill="#263238"/>
        <path id="Path_1151" data-name="Path 1151" d="M174.217,171.657l7.468-10.721s-1.236-2.091-1.12-2.771,9.653-11.12,11.382-14.716,2.132-5.8-1.927-3.895-21.049,15.008-22.032,18.465S171.05,166.959,174.217,171.657Z" transform="translate(-161.883 -121.218)" fill="#90caf9"/>
        <path id="Path_1152" data-name="Path 1152" d="M186.737,150.615a1.565,1.565,0,0,1,0-1.064,1.565,1.565,0,0,1,0,1.064Zm4.548-5.6a1.456,1.456,0,0,0-.093-.53,1.554,1.554,0,0,0,0,1.061,1.471,1.471,0,0,0,.093-.545Zm-10.556,9.018a1.408,1.408,0,0,0-.093-.53,1.564,1.564,0,0,0,0,1.064,1.416,1.416,0,0,0,.093-.549Zm-7.4,3.641a1.4,1.4,0,0,0-.093-.53,1.553,1.553,0,0,0,0,1.061,1.382,1.382,0,0,0,.093-.545Zm6.21,2.633a1.472,1.472,0,0,0-.093-.53,1.554,1.554,0,0,0,0,1.061,1.472,1.472,0,0,0,.093-.545Zm-6.023,3.667a1.415,1.415,0,0,0-.093-.534,1.565,1.565,0,0,0,0,1.064,1.407,1.407,0,0,0,.093-.545Zm6.023,1.815a1.471,1.471,0,0,0-.093-.53,1.553,1.553,0,0,0,0,1.06,1.472,1.472,0,0,0,.093-.545Zm10.28-22.778a1.408,1.408,0,0,0,.53-.093,1.494,1.494,0,0,0-.53-.093,1.456,1.456,0,0,0-.53.093,1.382,1.382,0,0,0,.53.1Zm.661,5.8a1.4,1.4,0,0,0,.53-.093,1.4,1.4,0,0,0-.53-.093,1.471,1.471,0,0,0-.53.093,1.4,1.4,0,0,0,.53.086Zm-6.83-.459a1.4,1.4,0,0,0,.53-.093,1.4,1.4,0,0,0-.53-.093,1.457,1.457,0,0,0-.53.093,1.382,1.382,0,0,0,.53.086Zm2.509,4.754a1.494,1.494,0,0,0,.534-.093,1.565,1.565,0,0,0-1.064,0A1.493,1.493,0,0,0,186.158,153.1Zm-8.07-.407a1.471,1.471,0,0,0,.53-.093,1.553,1.553,0,0,0-1.06,0,1.456,1.456,0,0,0,.53.1Zm-1.337,6.206a1.4,1.4,0,0,0,.53-.093,1.553,1.553,0,0,0-1.061,0,1.381,1.381,0,0,0,.53.1Zm-1.822,11.949a1.315,1.315,0,0,0,.53-.093,1.554,1.554,0,0,0-1.061,0,1.4,1.4,0,0,0,.53.1Zm1.292-5.743a1.494,1.494,0,0,0,.53-.093,1.408,1.408,0,0,0-.53-.093,1.381,1.381,0,0,0-.53.093,1.457,1.457,0,0,0,.53.1Zm-5.571-2.132a1.416,1.416,0,0,0,.534-.093,1.565,1.565,0,0,0-1.064,0,1.408,1.408,0,0,0,.53.1Zm9.959-12.775a1.442,1.442,0,0,0-.441-.31,1.4,1.4,0,0,0,.31.444,1.434,1.434,0,0,0,.441.306,1.441,1.441,0,0,0-.31-.429Zm-2.453,5.837a1.461,1.461,0,0,0-.444-.31,1.568,1.568,0,0,0,.747.747,1.434,1.434,0,0,0-.3-.426Zm-5.325,11.221a1.389,1.389,0,0,0-.441-.306,1.568,1.568,0,0,0,.747.747,1.4,1.4,0,0,0-.306-.429Zm5.422.907a1.4,1.4,0,0,0-.441-.31,1.4,1.4,0,0,0,.31.441,1.381,1.381,0,0,0,.441.31,1.441,1.441,0,0,0-.31-.429Zm-7.158-8.047a1.415,1.415,0,0,0-.444-.31,1.4,1.4,0,0,0,.31.441,1.422,1.422,0,0,0,.441.31,1.434,1.434,0,0,0-.306-.429Zm6.255,1.8a1.434,1.434,0,0,0-.441-.306,1.37,1.37,0,0,0,.306.441,1.46,1.46,0,0,0,.444.31,1.528,1.528,0,0,0-.31-.433Zm8.547-15.635a1.461,1.461,0,0,0-.444-.31,1.46,1.46,0,0,0,.31.444,1.434,1.434,0,0,0,.441.306,1.434,1.434,0,0,0-.306-.429Zm-1.867,9.376a1.4,1.4,0,0,0-.441-.31,1.46,1.46,0,0,0,.31.444,1.434,1.434,0,0,0,.441.306,1.381,1.381,0,0,0-.314-.429Zm4.515-9a1.382,1.382,0,0,0-.31.441,1.568,1.568,0,0,0,.747-.747,1.4,1.4,0,0,0-.441.317Zm-5.116,4.832a1.381,1.381,0,0,0-.31.441,1.434,1.434,0,0,0,.441-.306,1.46,1.46,0,0,0,.31-.444,1.442,1.442,0,0,0-.444.321Zm-8.562,3.693a1.434,1.434,0,0,0-.306.441,1.434,1.434,0,0,0,.441-.306,1.46,1.46,0,0,0,.31-.444,1.46,1.46,0,0,0-.448.321Zm-.814,5.792a1.415,1.415,0,0,0-.31.444,1.516,1.516,0,0,0,.747-.747,1.561,1.561,0,0,0-.441.314Zm6.43,2.121a1.382,1.382,0,0,0-.325.459,1.382,1.382,0,0,0,.441-.31,1.4,1.4,0,0,0,.306-.437,1.442,1.442,0,0,0-.426.3Zm-5.082,4.694a1.341,1.341,0,0,0-.31.441,1.568,1.568,0,0,0,.747-.747,1.442,1.442,0,0,0-.441.317Zm5.784-10.082a1.441,1.441,0,0,0-.31.441,1.568,1.568,0,0,0,.747-.747,1.441,1.441,0,0,0-.441.3Zm12.155-15.564a1.389,1.389,0,0,0-.306.444,1.442,1.442,0,0,0,.441-.31,1.494,1.494,0,0,0,.31-.441,1.448,1.448,0,0,0-.448.3Z" transform="translate(-163.313 -123.089)" fill="#fff"/>
        <path id="Path_1153" data-name="Path 1153" d="M183.025,204.683c.317-.329.571-.721.855-1.075s.556-.747.825-1.12c.515-.717,1.023-1.441,1.527-2.166s1.008-1.453,1.494-2.181,1.083-1.494,1.538-2.282a.034.034,0,1,0-.052-.037c-.594.691-1.12,1.468-1.643,2.2s-1.064,1.453-1.591,2.181-1.053,1.464-1.568,2.2c-.254.373-.5.747-.747,1.12s-.512.747-.713,1.12C182.969,204.69,183,204.705,183.025,204.683Z" transform="translate(-171.352 -156.898)" fill="#263238"/>
        <path id="Path_1154" data-name="Path 1154" d="M239,131.808c-1.322.474-3.887-1.337-5-2.913-.075-.108-.034-1.344-.06-2.849-.019-.911-.06-1.927-.164-2.849-.022-.19.665.082.665.082l1.229.153,4.063.512a14.751,14.751,0,0,0-.157,3.611,1.928,1.928,0,0,0,.082.373v.06C239.873,128.7,240.28,131.348,239,131.808Z" transform="translate(-203.2 -111.365)" fill="#f7a9a0"/>
        <path id="Path_1155" data-name="Path 1155" d="M240.213,128.45v.06a3.328,3.328,0,0,1-.594.1c-3.91.373-4.959-4.552-4.959-4.552l1.55-.108,4.063.512a14.75,14.75,0,0,0-.157,3.611A1.922,1.922,0,0,0,240.213,128.45Z" transform="translate(-203.753 -111.879)" fill="#263238"/>
        <path id="Path_1156" data-name="Path 1156" d="M229.992,98.251c-.545,2.091.8,8.014,2.326,9.279,2.211,1.841,5.706,1.867,7.237-.747,1.494-2.55-.4-10.235-2.1-11.374A5.145,5.145,0,0,0,229.992,98.251Z" transform="translate(-200.751 -93.548)" fill="#f7a9a0"/>
        <path id="Path_1157" data-name="Path 1157" d="M243.465,113.7s-.03.026-.022.041c.1.4.149.866-.183,1.079v.022C243.7,114.682,243.622,114.058,243.465,113.7Z" transform="translate(-209.141 -105.457)" fill="#263238"/>
        <path id="Path_1158" data-name="Path 1158" d="M241.948,112.784c-.65.093-.415,1.393.19,1.307S242.5,112.706,241.948,112.784Z" transform="translate(-208.076 -104.881)" fill="#263238"/>
        <path id="Path_1159" data-name="Path 1159" d="M250.32,112.32s.034,0,.037.03c.06.4.2.859.583.926v.022C250.488,113.321,250.312,112.712,250.32,112.32Z" transform="translate(-213.565 -104.592)" fill="#263238"/>
        <path id="Path_1160" data-name="Path 1160" d="M250.6,110.975c.635-.168.922,1.12.332,1.277S250.061,111.12,250.6,110.975Z" transform="translate(-213.56 -103.74)" fill="#263238"/>
        <path id="Path_1161" data-name="Path 1161" d="M240.234,109.715a4.505,4.505,0,0,0,.471-.269c.179-.1.336-.168.429-.373a.273.273,0,0,0-.1-.321.691.691,0,0,0-.7.052,1.019,1.019,0,0,0-.5.538.3.3,0,0,0,.4.373Z" transform="translate(-206.982 -102.312)" fill="#263238"/>
        <path id="Path_1162" data-name="Path 1162" d="M250.145,107.687a5.2,5.2,0,0,1-.538-.037.87.87,0,0,1-.545-.149.276.276,0,0,1-.045-.336.691.691,0,0,1,.653-.25,1.027,1.027,0,0,1,.683.269.3.3,0,0,1-.209.5Z" transform="translate(-212.725 -101.199)" fill="#263238"/>
        <path id="Path_1163" data-name="Path 1163" d="M244.845,123.673c.116.078.235.19.373.175a1.038,1.038,0,0,0,.411-.179h.022a.545.545,0,0,1-.471.31.437.437,0,0,1-.373-.3C244.8,123.677,244.83,123.662,244.845,123.673Z" transform="translate(-210.111 -111.703)" fill="#263238"/>
        <path id="Path_1164" data-name="Path 1164" d="M245.439,112.4a1.382,1.382,0,0,0,1.027.444,1.748,1.748,0,0,0,.5-.067l.093-.026.082-.03a.1.1,0,0,0,.067-.1h0v-.041h0v-.034c-.045-.314-.161-.777-.161-.777.123.034.747.19.709.03a21.109,21.109,0,0,0-1.285-4.052.037.037,0,0,0-.071.022c.258,1.288.747,2.521,1.027,3.809a2.386,2.386,0,0,0-.683-.078c-.041,0,.239.9.25,1.038h0a1.931,1.931,0,0,1-1.494-.183C245.436,112.338,245.409,112.372,245.439,112.4Z" transform="translate(-210.499 -101.709)" fill="#263238"/>
        <path id="Path_1165" data-name="Path 1165" d="M246.644,120.525a1.613,1.613,0,0,1-.586.594.717.717,0,0,1-.444.09c-.332-.041-.373-.336-.373-.6a1.932,1.932,0,0,1,.093-.411,2.132,2.132,0,0,0,1.311.325Z" transform="translate(-210.382 -109.53)" fill="#263238"/>
        <path id="Path_1166" data-name="Path 1166" d="M246.028,121.8a.717.717,0,0,1-.444.09c-.332-.041-.373-.336-.373-.6A.769.769,0,0,1,246.028,121.8Z" transform="translate(-210.363 -110.21)" fill="#ff9abb"/>
        <path id="Path_1167" data-name="Path 1167" d="M227.521,100.835c1.37-.269,1.161-2.8,1.161-2.8s2.278-.833,2.282-2.67c0,0,2.5,1,4.137.03s.971-3.107.691-3.491c-.639-.881-1.867.642-1.867.642a8.715,8.715,0,0,0-4.929-.19,4.37,4.37,0,0,0-2.662,2.711s-1.053.444-1.262,1.281S226.651,101,227.521,100.835Z" transform="translate(-197.734 -91.625)" fill="#263238"/>
        <path id="Path_1168" data-name="Path 1168" d="M233.222,103.508a2.926,2.926,0,0,0,2.771-3.338h.034c.258,1.636-.911,3.734-2.808,3.428a.045.045,0,0,1,0-.09Z" transform="translate(-202.822 -96.979)" fill="#263238"/>
        <path id="Path_1169" data-name="Path 1169" d="M226.037,100.72s.034.022,0,.034a3.574,3.574,0,0,0-1.285,1.154,2.266,2.266,0,0,0,.19,1.968,5.031,5.031,0,0,0,2.184,2.532c.06.026,0,.108-.037.09a5.092,5.092,0,0,1-2.479-3.1A2.1,2.1,0,0,1,226.037,100.72Z" transform="translate(-197.386 -97.324)" fill="#263238"/>
        <path id="Path_1170" data-name="Path 1170" d="M246.3,95.718a2.547,2.547,0,0,0,2.763-.6c.822-.919.4-2.08-.2-2.987-.03-.045.026-.112.067-.071a2.484,2.484,0,0,1,.373,3.013,2.7,2.7,0,0,1-3.058.792C246.167,95.819,246.219,95.684,246.3,95.718Z" transform="translate(-210.988 -91.889)" fill="#263238"/>
        <path id="Path_1171" data-name="Path 1171" d="M229.8,114.738s-1.471-1.845-2.315-1.311.344,3.267,1.4,3.585a1.046,1.046,0,0,0,1.363-.65Z" transform="translate(-199.08 -105.225)" fill="#f7a9a0"/>
        <path id="Path_1172" data-name="Path 1172" d="M228.93,115.67v.026a2.632,2.632,0,0,1,1.471,1.568.579.579,0,0,0-.874-.1c-.019,0,0,.041.022.037a.642.642,0,0,1,.721.179,2.9,2.9,0,0,1,.373.549c.037.063.153.022.123-.049h0C230.719,116.94,229.923,115.7,228.93,115.67Z" transform="translate(-200.162 -106.691)" fill="#263238"/>
        <path id="Path_1173" data-name="Path 1173" d="M237.939,135.423l-1.262,3.585-4.567-4.268-1.18,1.494s4.586,6.893,4.6,6.572l1.318-3.1,2.188,2.02-.4-5.291Z" transform="translate(-201.416 -118.64)" fill="#90caf9"/>
        <path id="Path_1174" data-name="Path 1174" d="M239.331,141.969c-.1-.874-.168-1.755-.3-2.614,0-.03-.056-.041-.06,0a48.768,48.768,0,0,0,.273,4.985h0c-.09-.086-2.02-1.774-2.039-1.744-.291.5-1.262,2.752-1.326,2.954-.728-1.094-3.5-5.071-4.343-6.1a.031.031,0,1,0-.052.034c.65,1.161,4.32,6.516,4.369,6.5a33.981,33.981,0,0,0,1.382-3.275,22.79,22.79,0,0,0,2.289,2.155A28.382,28.382,0,0,0,239.331,141.969Z" transform="translate(-201.758 -121.515)" fill="#263238"/>
      </g>
      <g id="freepik--speech-bubble--inject-143" transform="translate(94.37 1.593)">
        <path id="Path_1175" data-name="Path 1175" d="M292.87,55.062a7.569,7.569,0,0,1-12.1,6.079l-3.712.948,1.546-3.454a7.573,7.573,0,1,1,14.25-3.574Z" transform="translate(-276.787 -47.406)" fill="#fff"/>
        <path id="Path_1176" data-name="Path 1176" d="M292.413,54.923a7.615,7.615,0,0,1-1.121,3.978,8.634,8.634,0,0,1-.6.858,8.194,8.194,0,0,1-.724.747,7.644,7.644,0,0,1-3.689,1.9,7.1,7.1,0,0,1-1.046.131,6.658,6.658,0,0,1-1.057,0,7.64,7.64,0,0,1-3.932-1.445l.112.022-3.7.986-.329.09.138-.314L278,58.418v.161a7.666,7.666,0,1,1,14.41-3.659Zm0,0a7.5,7.5,0,0,0-12.375-5.683,7.811,7.811,0,0,0-1.964,2.685,7.468,7.468,0,0,0-.62,3.275,7.606,7.606,0,0,0,.87,3.211l.041.078-.034.078-1.561,3.45-.19-.228,3.734-.915h.063l.049.041a7.468,7.468,0,0,0,3.786,1.494,6.382,6.382,0,0,0,1.034.019,7.312,7.312,0,0,0,1.027-.108,7.438,7.438,0,0,0,1.964-.646,7.054,7.054,0,0,0,1.714-1.165,9.158,9.158,0,0,0,.728-.747,8.562,8.562,0,0,0,.6-.851A7.618,7.618,0,0,0,292.413,54.923Z" transform="translate(-276.33 -47.266)" fill="#263238"/>
        <path id="Path_1177" data-name="Path 1177" d="M293.384,59.4V56.6a3.521,3.521,0,0,1,1.55.668.508.508,0,0,0,.34.119.468.468,0,0,0,.25-.885,4.481,4.481,0,0,0-2.114-.807v-.28a.485.485,0,0,0-.967,0v.25c-1.512.1-2.588,1.016-2.588,2.24s.784,1.867,2.614,2.274v2.857a3.947,3.947,0,0,1-2.1-.96.515.515,0,0,0-.347-.127.5.5,0,0,0-.493.471.463.463,0,0,0,.205.373,5.026,5.026,0,0,0,2.7,1.12v.721a.485.485,0,0,0,.967,0v-.691c1.565-.108,2.64-1.023,2.64-2.267C296.054,60.48,295.225,59.778,293.384,59.4Zm-.919-.194c-1.348-.332-1.613-.747-1.613-1.359,0-.691.668-1.214,1.613-1.292Zm2.58,2.5c0,.747-.676,1.262-1.662,1.341V60.357C294.765,60.674,295.045,61.1,295.045,61.705Z" transform="translate(-284.601 -52.096)" fill="#90caf9"/>
      </g>
    </g>
  </g>
</svg>
