<svg xmlns="http://www.w3.org/2000/svg" width="10.499" height="10.499" viewBox="0 0 10.499 10.499">
  <g id="Icon_ionic-ios-expand" data-name="Icon ionic-ios-expand" transform="translate(-4.25 -4.25)">
    <path id="Path_303" data-name="Path 303" d="M5.76,5.229H7.784a.361.361,0,0,0,.362-.362V4.862A.361.361,0,0,0,7.784,4.5H4.862a.361.361,0,0,0-.362.362V7.784a.361.361,0,0,0,.362.362h.005a.361.361,0,0,0,.362-.362V5.76L8.278,8.789a.358.358,0,0,0,.255.1.35.35,0,0,0,.255-.107.361.361,0,0,0,0-.51Z" transform="translate(0 0)" fill="#168eea" stroke="#168eea" stroke-width="0.5"/>
    <path id="Path_304" data-name="Path 304" d="M23.667,4.5H20.745a.361.361,0,0,0-.362.362v.005a.361.361,0,0,0,.362.362h2.023L19.74,8.278a.362.362,0,0,0,.51.513L23.3,5.76V7.784a.361.361,0,0,0,.362.362h.005a.361.361,0,0,0,.362-.362V4.862A.361.361,0,0,0,23.667,4.5Z" transform="translate(-9.53)" fill="#168eea" stroke="#168eea" stroke-width="0.5"/>
    <path id="Path_305" data-name="Path 305" d="M8.533,19.631a.358.358,0,0,0-.255.1L5.229,22.766V20.743a.361.361,0,0,0-.362-.362H4.862a.361.361,0,0,0-.362.362v2.922a.361.361,0,0,0,.362.362H7.784a.361.361,0,0,0,.362-.362V23.66a.361.361,0,0,0-.362-.362H5.76l3.028-3.049a.362.362,0,0,0-.255-.617Z" transform="translate(0 -9.528)" fill="#168eea" stroke="#168eea" stroke-width="0.5"/>
    <path id="Path_306" data-name="Path 306" d="M23.667,20.386h-.005a.361.361,0,0,0-.362.362v2.023l-3.049-3.028a.358.358,0,0,0-.255-.1.35.35,0,0,0-.255.107.361.361,0,0,0,0,.51L22.769,23.3H20.745a.361.361,0,0,0-.362.362v.005a.361.361,0,0,0,.362.362h2.922a.361.361,0,0,0,.362-.362V20.748A.361.361,0,0,0,23.667,20.386Z" transform="translate(-9.53 -9.532)" fill="#168eea" stroke="#168eea" stroke-width="0.5"/>
  </g>
</svg>
