<svg xmlns="http://www.w3.org/2000/svg" width="11.289" height="12.902" viewBox="0 0 11.289 12.902">
  <path id="Icon_metro-attachment" data-name="Icon metro-attachment" d="M11.521,6.049,10.7,5.231,6.61,9.322a1.736,1.736,0,0,0,2.455,2.455l4.911-4.91A2.893,2.893,0,0,0,9.884,2.776L4.728,7.931l-.011.011a4.035,4.035,0,0,0,5.707,5.706l.01-.011h0l3.519-3.519L13.136,9.3,9.616,12.819l-.011.011A2.878,2.878,0,0,1,5.535,8.76l.011-.011h0L10.7,3.594a1.736,1.736,0,1,1,2.455,2.455l-4.911,4.91a.579.579,0,1,1-.819-.818l4.092-4.092Z" transform="translate(-3.535 -1.928)" fill="#262a41"/>
</svg>
