<svg xmlns="http://www.w3.org/2000/svg" width="11.257" height="11.277" viewBox="0 0 11.257 11.277">
  <path id="Icon_feather-phone-call" data-name="Icon feather-phone-call" d="M9.358,3.414a2.392,2.392,0,0,1,1.89,1.89M9.358,1.5a4.306,4.306,0,0,1,3.8,3.8m-.478,3.818v1.435a.957.957,0,0,1-1.043.957A9.469,9.469,0,0,1,7.511,10.04,9.33,9.33,0,0,1,4.641,7.17,9.469,9.469,0,0,1,3.172,3.021a.957.957,0,0,1,.952-1.043H5.559a.957.957,0,0,1,.957.823,6.143,6.143,0,0,0,.335,1.344.957.957,0,0,1-.215,1.01l-.608.608A7.655,7.655,0,0,0,8.9,8.634l.608-.608a.957.957,0,0,1,1.01-.215,6.143,6.143,0,0,0,1.344.335A.957.957,0,0,1,12.683,9.117Z" transform="translate(-2.568 -0.837)" fill="none" stroke="#a8a8a8" stroke-linecap="round" stroke-linejoin="round" stroke-width="1.2"/>
</svg>
