<svg xmlns="http://www.w3.org/2000/svg" width="11.756" height="10.7" viewBox="0 0 11.756 10.7">
  <g id="Icon_feather-briefcase" data-name="Icon feather-briefcase" transform="translate(-2.4 -3.9)">
    <path id="Path_1918" data-name="Path 1918" d="M4.056,10.5H12.5a1.056,1.056,0,0,1,1.056,1.056v5.278A1.056,1.056,0,0,1,12.5,17.889H4.056A1.056,1.056,0,0,1,3,16.833V11.556A1.056,1.056,0,0,1,4.056,10.5Z" transform="translate(0 -3.889)" fill="none" stroke="#a8a8a8" stroke-linecap="round" stroke-linejoin="round" stroke-width="1.2"/>
    <path id="Path_1919" data-name="Path 1919" d="M16.222,14V5.556A1.056,1.056,0,0,0,15.167,4.5H13.056A1.056,1.056,0,0,0,12,5.556V14" transform="translate(-5.833 0)" fill="none" stroke="#a8a8a8" stroke-linecap="round" stroke-linejoin="round" stroke-width="1.2"/>
  </g>
</svg>
