<svg id="Group_3329" data-name="Group 3329" xmlns="http://www.w3.org/2000/svg" width="16" height="16" viewBox="0 0 16 16">
  <g id="Rectangle_2262" data-name="Rectangle 2262" fill="#fff0b2" stroke="#b8a03f" stroke-width="0.5">
    <rect width="16" height="16" rx="6" stroke="none"/>
    <rect x="0.25" y="0.25" width="15.5" height="15.5" rx="5.75" fill="none"/>
  </g>
  <path id="Icon_awesome-redo-alt" data-name="Icon awesome-redo-alt" d="M4.617.562A4.033,4.033,0,0,1,7.4,1.683L7.988,1.1a.392.392,0,0,1,.669.277V3.565a.392.392,0,0,1-.392.392H6.077A.392.392,0,0,1,5.8,3.288l.681-.681a2.741,2.741,0,1,0-.067,4.066.2.2,0,0,1,.267.009l.647.647a.2.2,0,0,1-.008.284A4.047,4.047,0,1,1,4.617.562Z" transform="translate(3.553 3.554)" fill="#b8a03f" stroke="#b8a03f" stroke-width="0.2"/>
</svg>
