<svg id="Group_3330" data-name="Group 3330" xmlns="http://www.w3.org/2000/svg" width="16.326" height="16.326" viewBox="0 0 16.326 16.326">
  <g id="Path_2203" data-name="Path 2203" fill="#dfe0e0">
    <path d="M 8.162867546081543 16.07573699951172 C 3.799697637557983 16.07573699951172 0.249997541308403 12.52603721618652 0.249997541308403 8.162867546081543 C 0.249997541308403 3.799697637557983 3.799697637557983 0.249997541308403 8.162867546081543 0.249997541308403 C 12.52603721618652 0.249997541308403 16.07573699951172 3.799697637557983 16.07573699951172 8.162867546081543 C 16.07573699951172 12.52603721618652 12.52603721618652 16.07573699951172 8.162867546081543 16.07573699951172 Z" stroke="none"/>
    <path d="M 8.162867546081543 0.4999971389770508 C 3.93754768371582 0.4999971389770508 0.4999971389770508 3.93754768371582 0.4999971389770508 8.162867546081543 C 0.4999971389770508 12.38818740844727 3.93754768371582 15.82573795318604 8.162867546081543 15.82573795318604 C 12.38818740844727 15.82573795318604 15.82573795318604 12.38818740844727 15.82573795318604 8.162867546081543 C 15.82573795318604 3.93754768371582 12.38818740844727 0.4999971389770508 8.162867546081543 0.4999971389770508 M 8.162867546081543 -1.9073486328125e-06 C 12.67109775543213 -1.9073486328125e-06 16.32573699951172 3.654637336730957 16.32573699951172 8.162867546081543 C 16.32573699951172 12.67109775543213 12.67109775543213 16.32573699951172 8.162867546081543 16.32573699951172 C 3.654637336730957 16.32573699951172 -1.9073486328125e-06 12.67109775543213 -1.9073486328125e-06 8.162867546081543 C -1.9073486328125e-06 3.654637336730957 3.654637336730957 -1.9073486328125e-06 8.162867546081543 -1.9073486328125e-06 Z" stroke="none" fill="#8d8d8e"/>
  </g>
  <path id="Icon_metro-cross" data-name="Icon metro-cross" d="M10.211,8.123h0L7.872,5.783l2.339-2.339h0a.242.242,0,0,0,0-.341L9.106,2a.242.242,0,0,0-.341,0h0L6.426,4.338,4.087,2h0a.242.242,0,0,0-.341,0l-1.1,1.1a.242.242,0,0,0,0,.341h0L4.98,5.783,2.641,8.123h0a.241.241,0,0,0,0,.341l1.1,1.1a.242.242,0,0,0,.341,0h0L6.426,7.229,8.765,9.568h0a.241.241,0,0,0,.341,0l1.1-1.105a.241.241,0,0,0,0-.341Z" transform="translate(1.844 2.378)" fill="#8d8d8e"/>
</svg>
