<svg id="Group_3331" data-name="Group 3331" xmlns="http://www.w3.org/2000/svg" width="16.326" height="16.326" viewBox="0 0 16.326 16.326">
  <g id="Path_2203" data-name="Path 2203" fill="#d1e7ff">
    <path d="M 8.162867546081543 16.07573699951172 C 3.799697637557983 16.07573699951172 0.249997541308403 12.52603721618652 0.249997541308403 8.162867546081543 C 0.249997541308403 3.799697637557983 3.799697637557983 0.249997541308403 8.162867546081543 0.249997541308403 C 12.52603721618652 0.249997541308403 16.07573699951172 3.799697637557983 16.07573699951172 8.162867546081543 C 16.07573699951172 12.52603721618652 12.52603721618652 16.07573699951172 8.162867546081543 16.07573699951172 Z" stroke="none"/>
    <path d="M 8.162867546081543 0.4999971389770508 C 3.93754768371582 0.4999971389770508 0.4999971389770508 3.93754768371582 0.4999971389770508 8.162867546081543 C 0.4999971389770508 12.38818740844727 3.93754768371582 15.82573795318604 8.162867546081543 15.82573795318604 C 12.38818740844727 15.82573795318604 15.82573795318604 12.38818740844727 15.82573795318604 8.162867546081543 C 15.82573795318604 3.93754768371582 12.38818740844727 0.4999971389770508 8.162867546081543 0.4999971389770508 M 8.162867546081543 -1.9073486328125e-06 C 12.67109775543213 -1.9073486328125e-06 16.32573699951172 3.654637336730957 16.32573699951172 8.162867546081543 C 16.32573699951172 12.67109775543213 12.67109775543213 16.32573699951172 8.162867546081543 16.32573699951172 C 3.654637336730957 16.32573699951172 -1.9073486328125e-06 12.67109775543213 -1.9073486328125e-06 8.162867546081543 C -1.9073486328125e-06 3.654637336730957 3.654637336730957 -1.9073486328125e-06 8.162867546081543 -1.9073486328125e-06 Z" stroke="none" fill="#168eea"/>
  </g>
  <path id="Icon_awesome-exclamation" data-name="Icon awesome-exclamation" d="M3.846,7.347a1.36,1.36,0,1,1-1.36-1.36A1.362,1.362,0,0,1,3.846,7.347ZM1.282.429l.231,4.626a.408.408,0,0,0,.408.388H3.05a.408.408,0,0,0,.408-.388L3.688.429A.408.408,0,0,0,3.281,0H1.69A.408.408,0,0,0,1.282.429Z" transform="translate(5.677 3.81)" fill="#168eea"/>
</svg>
