<svg xmlns="http://www.w3.org/2000/svg" width="12.976" height="12.31" viewBox="0 0 12.976 12.31">
  <g id="Group_2332" data-name="Group 2332" transform="translate(0.246 -1.345)">
    <g id="Icon_feather-file-text" data-name="Icon feather-file-text" transform="translate(-5.646 -1.055)">
      <path id="Path_1906" data-name="Path 1906" d="M11.555,3H7.111A1.111,1.111,0,0,0,6,4.111V13A1.111,1.111,0,0,0,7.111,14.11h7.666" fill="none" stroke="#a8a8a8" stroke-linecap="round" stroke-linejoin="round" stroke-width="1.2"/>
      <path id="Path_1907" data-name="Path 1907" d="M24.333,8.514V6.333H21V3s3.333,3.346,3.333,3.333" transform="translate(-9.445)" fill="none" stroke="#a8a8a8" stroke-linecap="round" stroke-linejoin="round" stroke-width="1.2"/>
      <g id="Icon_feather-clock" data-name="Icon feather-clock" transform="translate(9.221 5.555)">
        <path id="Path_1911" data-name="Path 1911" d="M8.555,5.777A2.777,2.777,0,1,1,5.777,3,2.777,2.777,0,0,1,8.555,5.777Z" fill="none" stroke="#a8a8a8" stroke-linecap="round" stroke-linejoin="round" stroke-width="1.2"/>
        <path id="Path_1912" data-name="Path 1912" d="M18,9.452v1.215l1.111.555" transform="translate(-12.223 -4.889)" fill="none" stroke="#a8a8a8" stroke-linecap="round" stroke-linejoin="round" stroke-width="1.2"/>
      </g>
    </g>
  </g>
</svg>
