<svg xmlns="http://www.w3.org/2000/svg" width="8.533" height="8.533" viewBox="0 0 8.533 8.533">
  <path id="Icon_awesome-thumbs-up" data-name="Icon awesome-thumbs-up" d="M1.733,3.733H.4a.4.4,0,0,0-.4.4v4a.4.4,0,0,0,.4.4H1.733a.4.4,0,0,0,.4-.4v-4A.4.4,0,0,0,1.733,3.733ZM6.4,1.358c0,.707-.433,1.1-.555,1.576h1.7a1,1,0,0,1,.993.968,1.207,1.207,0,0,1-.324.82l0,0a1.392,1.392,0,0,1-.155,1.325,1.318,1.318,0,0,1-.273,1.246.885.885,0,0,1-.1.744c-.34.489-1.183.5-1.9.5H5.733A4.785,4.785,0,0,1,3.741,8a2.623,2.623,0,0,0-.878-.27.2.2,0,0,1-.2-.2V3.972a.2.2,0,0,1,.059-.142c.66-.652.944-1.343,1.485-1.885A2.018,2.018,0,0,0,4.635.963C4.709.655,4.864,0,5.2,0,5.6,0,6.4.133,6.4,1.358Z" fill="#3dcde8"/>
</svg>
