<svg width="127" height="108" viewBox="0 0 127 108" fill="none" xmlns="http://www.w3.org/2000/svg">
<g clip-path="url(#clip0_470_45672)">
<path d="M15.7768 61.3511C15.8166 61.3213 15.8265 61.2616 15.8066 61.2119C13.0637 55.3164 9.64192 49.7614 5.61068 44.6596C5.61068 44.6596 2.40766 47.7035 2.63645 50.7573C2.69004 51.4613 2.88191 52.1479 3.20109 52.7777C3.52028 53.4076 3.9605 53.9683 4.49658 54.4278C7.29176 57.1534 14.0559 60.5951 15.6276 61.381C15.6773 61.4009 15.737 61.3909 15.7768 61.3511ZM14.7323 63.6788C14.7124 63.6191 14.6527 63.5793 14.5831 63.5793L3.32281 63.9672C4.54632 66.1457 6.6054 67.8367 8.74406 67.3195C10.2262 66.9514 13.5685 64.6138 14.6726 63.818C14.7621 63.7484 14.7323 63.6887 14.7323 63.6788ZM14.9014 62.6741C14.9611 62.5846 14.8616 62.505 14.8616 62.505C9.91784 59.1627 0.328685 54.0299 0.328685 54.0299C0.0108493 55.0041 -0.0780634 56.0385 0.0688574 57.0526C0.215778 58.0668 0.594575 59.0334 1.17581 59.8773C1.75704 60.7213 2.52505 61.4198 3.42015 61.9187C4.31526 62.4175 5.31334 62.7033 6.33682 62.7537C6.50593 62.7835 13.0313 62.7537 14.782 62.7437C14.8318 62.7338 14.8716 62.7139 14.9014 62.6741ZM15.6475 39.7954C15.16 39.8352 13.8371 40.1436 13.8371 40.1436C10.8529 40.9095 10.1466 43.6251 10.1466 43.6251C9.59952 45.3261 10.1566 47.2061 10.1566 47.2061C11.1513 51.6227 16.0453 58.8941 17.0998 60.4161C17.1694 60.4957 17.2291 60.4658 17.2291 60.4658C17.2887 60.4459 17.3385 60.3962 17.3385 60.3266C18.9698 44.0926 15.6475 39.7954 15.6475 39.7954ZM19.3777 60.4459C19.4374 60.4658 19.507 60.4459 19.5368 60.3862C20.6211 58.8245 25.4853 51.5929 26.48 47.1962C26.48 47.1962 27.0172 45.0675 26.4999 43.6152C26.4999 43.6152 25.7638 40.8598 22.7796 40.1336C22.7796 40.1336 21.9242 39.9148 21.009 39.7855C21.009 39.7855 17.6667 44.0827 19.2981 60.3166C19.2881 60.3763 19.3279 60.426 19.3777 60.4459ZM22.0435 63.5893C22.017 63.5946 21.9919 63.6053 21.9697 63.6207C21.9474 63.6361 21.9286 63.6558 21.9142 63.6788C21.9043 63.7385 21.9142 63.7882 21.954 63.828C23.0283 64.6039 26.301 66.8917 27.8726 67.3294C27.8726 67.3294 30.7872 68.3241 33.3138 63.9772L22.0435 63.5893ZM36.3178 54.01C36.3178 54.01 26.7486 59.1528 21.7949 62.4951C21.7451 62.5348 21.7153 62.5945 21.7352 62.6542C21.7352 62.6542 21.7849 62.7437 21.8545 62.7437C23.6251 62.7437 30.3296 62.7537 30.5086 62.7238C31.1751 62.6741 31.8316 62.5249 32.4484 62.2762C32.4484 62.2762 34.8357 61.5202 36.0692 58.8046C36.0692 58.8046 37.1733 56.5963 36.3178 54.01ZM20.8897 61.3511C20.9294 61.381 20.9891 61.3909 21.0389 61.3611C22.6503 60.5553 29.3647 57.1434 32.14 54.4278C32.14 54.4278 33.9007 53.0153 33.9902 50.7374C34.1891 47.5841 31.016 44.6596 31.016 44.6596C31.016 44.6596 25.1471 51.7719 20.8399 61.1721C20.833 61.2037 20.8339 61.2366 20.8426 61.2678C20.8513 61.299 20.8674 61.3276 20.8897 61.3511Z" fill="black"/>
<path d="M68.4002 46.5439H71.2252V54.4022C71.2252 58.3911 69.0269 60.679 65.1972 60.679C61.4073 60.679 59.2288 58.4309 59.2288 54.5117V46.5539H62.0538V54.4221C62.0538 56.7498 63.1978 57.9932 65.237 57.9932C67.2762 57.9932 68.4002 56.7796 68.4002 54.5216V46.5439ZM52.4846 52.1542H46.0985V46.5439H43.2734V60.4701H46.0985V54.8101H52.4746V60.4701H55.2997V46.5439H52.4746V52.1542H52.4846ZM123.229 46.5439V60.4502H126.015V46.5439H123.229ZM112.138 54.4719H117.281V51.9353H112.138V49.0805H119.599V46.5539H109.353V60.4601H119.867V57.9236H112.138V54.4719ZM101.057 56.1132L97.8938 46.534H95.586L92.4228 56.1132L89.3491 46.5439H86.345L91.1993 60.4601H93.5369L96.7001 51.3186L99.8633 60.4601H102.221L107.065 46.5439H104.131L101.057 56.1132ZM81.3217 46.6235L87.3994 60.4601H84.4352L83.1818 57.5655H76.8056L76.7161 57.7644L75.5423 60.4601H72.6576L78.7951 46.5439H81.262L81.3217 46.6235ZM81.9981 54.7206L79.9887 50.0553L77.9893 54.7206L77.8501 55.0389H82.1274L81.9981 54.7206Z" fill="black"/>
</g>
<defs>
<clipPath id="clip0_470_45672">
<rect width="126.015" height="107.213" fill="white"/>
</clipPath>
</defs>
</svg>
