<svg width="40" height="40" viewBox="0 0 40 40" fill="none" xmlns="http://www.w3.org/2000/svg">
<rect width="40" height="40" rx="20" fill="#EAF3FD"/>
<g clip-path="url(#clip0_10244_60257)">
<path d="M20 30C25.5228 30 30 25.5228 30 20C30 14.4772 25.5228 10 20 10C14.4772 10 10 14.4772 10 20C10 25.5228 14.4772 30 20 30Z" fill="#5CA0EF"/>
<mask id="mask0_10244_60257" style="mask-type:luminance" maskUnits="userSpaceOnUse" x="10" y="10" width="20" height="20">
<path d="M20 30C25.5228 30 30 25.5228 30 20C30 14.4772 25.5228 10 20 10C14.4772 10 10 14.4772 10 20C10 25.5228 14.4772 30 20 30Z" fill="white"/>
</mask>
<g mask="url(#mask0_10244_60257)">
<path d="M21.6991 20.0677L24.2164 22.585L24.9704 21.8311C25.2603 21.5412 25.2603 21.9778 25.2603 21.9778C25.2603 21.9778 25.6625 24.846 25.6634 25.1898C25.6638 25.2226 25.6572 25.2551 25.6439 25.285C25.6307 25.315 25.6112 25.3418 25.5867 25.3636C25.5623 25.3854 25.5334 25.4017 25.5021 25.4113C25.4708 25.421 25.4378 25.4238 25.4053 25.4196L22.2056 25.1173C22.2056 25.1173 21.7769 25.1288 22.0147 24.8911L22.8314 24.0744L20.2832 21.5261C20.2832 21.5261 20.1276 21.4342 20.315 21.2468L21.464 20.0978C21.5993 19.9625 21.6991 20.0677 21.6991 20.0677Z" fill="white"/>
<path d="M14.455 13.9811C14.7979 13.9811 17.667 14.3841 17.667 14.3841C17.667 14.3841 18.1028 14.3833 17.8129 14.6732L17.0589 15.4271L19.5771 17.9453C19.5771 17.9453 19.6805 18.0487 19.5488 18.1804L18.3998 19.3295C18.2124 19.5168 18.1205 19.3613 18.1205 19.3613L15.5713 16.8122L14.7546 17.6289C14.516 17.8675 14.5283 17.438 14.5283 17.438L14.2269 14.2392C14.2221 14.2067 14.2244 14.1736 14.2337 14.1421C14.2431 14.1107 14.2591 14.0816 14.2809 14.057C14.3026 14.0325 14.3294 14.0129 14.3595 13.9998C14.3896 13.9867 14.4222 13.9803 14.455 13.9811Z" fill="white"/>
<path d="M14.3507 25.5989C14.318 25.599 14.2858 25.5922 14.256 25.5789C14.2262 25.5656 14.1997 25.546 14.1781 25.5216C14.1565 25.4971 14.1403 25.4684 14.1308 25.4372C14.1212 25.406 14.1184 25.3731 14.1226 25.3408L14.4249 22.1429C14.4249 22.1429 14.4125 21.7151 14.6503 21.9528L15.467 22.7696L18.0152 20.2213C18.0152 20.2213 18.1063 20.0649 18.2946 20.2531L19.4436 21.4022C19.5788 21.5374 19.4719 21.6373 19.4719 21.6373L16.9546 24.1546L17.7085 24.9086C17.9976 25.1976 17.5627 25.1976 17.5627 25.1976C17.5627 25.1976 14.6945 25.5998 14.3507 25.5989Z" fill="white"/>
<path d="M22.0997 14.4592L25.302 14.1614C25.3344 14.157 25.3674 14.1596 25.3986 14.1691C25.4299 14.1786 25.4588 14.1947 25.4833 14.2163C25.5078 14.238 25.5273 14.2646 25.5406 14.2945C25.5538 14.3244 25.5605 14.3567 25.5601 14.3894C25.5601 14.7324 25.1615 17.5988 25.1615 17.5988C25.1615 17.5988 25.1624 18.0345 24.8725 17.7446L24.1185 16.9907L21.5959 19.5133C21.5959 19.5133 21.4925 19.6167 21.3608 19.485L20.2117 18.3359C20.0235 18.1477 20.1799 18.0566 20.1799 18.0566L22.7299 15.5066L21.9141 14.6908C21.6746 14.4513 22.0997 14.4592 22.0997 14.4592Z" fill="white"/>
</g>
</g>
<defs>
<clipPath id="clip0_10244_60257">
<rect width="20" height="20" fill="white" transform="translate(10 10)"/>
</clipPath>
</defs>
</svg>
