<svg width="32" height="32" viewBox="0 0 32 32" fill="none" xmlns="http://www.w3.org/2000/svg">
<path fill-rule="evenodd" clip-rule="evenodd" d="M5.86496 23.8732C5.85408 23.7972 5.78358 23.7459 5.7079 23.7569C5.63171 23.768 5.57908 23.8384 5.58996 23.9147C5.60065 23.9893 5.67277 24.0418 5.74696 24.031C5.82321 24.0198 5.87583 23.9495 5.86496 23.8732ZM8.26333 30.5277C8.14208 30.4946 8.0399 30.4161 7.97658 30.3072L4.25721 23.7365L4.2554 23.7332C4.1344 23.5068 4.2149 23.218 4.4389 23.0913L5.70296 22.3764C5.77496 22.3357 5.85358 22.315 5.93615 22.315C5.97852 22.315 6.01971 22.321 6.06052 22.332C6.18221 22.3638 6.28558 22.4424 6.34952 22.551L6.35215 22.5556L10.07 29.1237L10.072 29.1275C10.1923 29.3542 10.1121 29.6416 9.88815 29.7684L8.62408 30.4839C8.51552 30.5453 8.3834 30.5614 8.26333 30.5277ZM18.3055 17.4378H20.4091V23.8966L19.9796 24.145C19.8212 24.2367 19.6543 24.3151 19.4813 24.3748L18.8008 24.6097L19.0939 23.9522C19.1295 23.8723 19.1577 23.7889 19.1804 23.7043C19.3548 23.0534 19.0388 22.3842 18.4623 22.0531L18.3055 21.963V17.4378H18.3055ZM11.032 20.8499C10.8983 20.9202 10.7653 20.9922 10.6346 21.068L9.09546 21.9598V19.4739H11.1991V20.7621L11.032 20.8499ZM7.33096 4.37835L9.9879 1.71991V4.37835H7.33096Z" fill="#C8DFF9"/>
<path fill-rule="evenodd" clip-rule="evenodd" d="M5.66336 23.4477C5.41643 23.4833 5.24593 23.7126 5.28118 23.9589C5.31643 24.2058 5.54868 24.3763 5.79268 24.3402C6.03961 24.3046 6.21011 24.0753 6.1748 23.829C6.13961 23.582 5.9103 23.4112 5.66336 23.4477ZM26.735 27.1193V24.5151L22.4519 27.1514H26.7027C26.7173 27.1514 26.735 27.1364 26.735 27.1193ZM27.1701 23.072L18.9949 28.1053C18.3717 28.489 17.6867 28.5851 16.9606 28.3902L11.0313 26.8013C10.9049 26.7672 10.7667 26.7851 10.6521 26.8516L9.84068 27.3213L7.70943 23.5576L10.9813 21.6633C11.7104 21.24 12.5011 20.8852 13.3154 21.1489C13.5888 21.2377 13.9034 21.3515 14.2679 21.4825C15.3144 21.862 16.6196 22.3333 17.9748 22.582C18.3893 22.7313 18.6245 23.132 18.5186 23.5265C18.404 23.9456 18.0924 24.1282 17.5867 24.0709C16.9312 23.9351 16.3021 23.7563 15.6407 23.567C15.3232 23.4771 14.9969 23.3833 14.6588 23.2925C14.3942 23.2213 14.1179 23.3795 14.0474 23.6464C13.9768 23.9133 14.1356 24.1876 14.4001 24.259C14.7294 24.3469 15.0527 24.4395 15.3672 24.5289C16.0551 24.7258 16.7077 24.9113 17.4103 25.0551C17.4132 25.0556 17.425 25.0583 17.4309 25.0589L17.9894 25.15C18.8507 25.2876 19.6151 25.1533 20.3294 24.7388L24.833 22.1151C26.0559 21.4019 27.026 21.3102 27.3641 21.8746C27.5934 22.2571 27.4934 22.8727 27.1701 23.072ZM9.79655 29.2738C9.83774 29.3515 9.81124 29.4531 9.7348 29.4964L8.47074 30.2119C8.42074 30.2401 8.3708 30.2333 8.3473 30.2266C8.32086 30.2195 8.27674 30.2007 8.24736 30.1501L4.53161 23.5858C4.49049 23.5088 4.51693 23.4068 4.59336 23.3633L5.85743 22.6483C5.8868 22.6318 5.9133 22.6275 5.9368 22.6275C5.95443 22.6275 5.96911 22.6307 5.98086 22.634C6.0073 22.6407 6.05143 22.6595 6.0808 22.7095L9.79655 29.2738ZM8.08568 4.06583H9.67605V2.47458L8.08568 4.06583ZM10.8872 19.7863H9.40849V21.4175L10.4786 20.7975C10.6109 20.7214 10.749 20.6458 10.8872 20.5732V19.7863ZM15.4936 16.7164H14.0149V20.3301C14.2001 20.3957 14.4001 20.4677 14.6058 20.5426C14.8851 20.6432 15.182 20.7508 15.4936 20.8584L15.4936 16.7164ZM19.4828 23.7851C19.4563 23.8889 19.4211 23.9871 19.3799 24.0794C19.5299 24.0276 19.6798 23.9595 19.8238 23.8745L20.0972 23.7163V17.7503H18.6186V21.782C19.3211 22.1856 19.6944 23.0003 19.4828 23.7851ZM24.7007 13.464H23.2221V21.8964L24.3303 21.2514C24.4567 21.177 24.5802 21.1088 24.7007 21.0468V13.464H24.7007ZM26.7026 1.76758H10.6755V4.29952C10.6755 4.72195 10.3316 5.06558 9.90824 5.06558H7.37718V22.5946L8.40899 21.9963V19.2863C8.40899 19.01 8.63243 18.7865 8.90874 18.7865H11.3898C11.6661 18.7865 11.8896 19.0099 11.8896 19.2863V20.1738C12.2452 20.0776 12.6216 20.0321 13.0125 20.0709V16.2164C13.0125 15.9401 13.2359 15.7163 13.5122 15.7163H15.9934C16.2697 15.7163 16.4931 15.94 16.4931 16.2164V21.185C16.8606 21.2965 17.2369 21.3996 17.6161 21.487V17.25C17.6161 16.974 17.8424 16.7503 18.1158 16.7503H20.5969C20.8732 16.7503 21.0966 16.974 21.0966 17.25V23.1341L22.2225 22.4788V12.964C22.2225 12.6876 22.4459 12.4639 22.7222 12.4639H25.2004C25.4767 12.4639 25.7001 12.6876 25.7001 12.964V20.64C26.0999 20.5251 26.4409 20.4895 26.7349 20.5063V1.79933C26.735 1.78202 26.7173 1.76758 26.7026 1.76758ZM27.7344 23.8978V27.1194C27.7344 27.6882 27.2699 28.1515 26.7026 28.1515H20.8291L19.5209 28.9564C18.9477 29.3088 18.3216 29.487 17.6748 29.487C17.3544 29.487 17.0281 29.4438 16.7018 29.3559L12.2071 28.1515H10.4021L10.3316 28.1915L10.6667 28.7815C10.9812 29.3403 10.7842 30.0509 10.2257 30.3672L8.96168 31.0821C8.7853 31.1821 8.5913 31.2326 8.3943 31.2326C8.28849 31.2326 8.18268 31.2191 8.07974 31.1903C7.77986 31.1071 7.52999 30.9128 7.37718 30.6426L3.66149 24.0782C3.34693 23.5203 3.54386 22.8088 4.10243 22.4931L5.36649 21.7776C5.63399 21.6251 5.94855 21.5868 6.24836 21.6701C6.29249 21.6821 6.33655 21.6977 6.37774 21.7145V4.78577C6.37774 4.50652 6.48061 4.25395 6.68055 4.05645L9.6643 1.06945C9.86418 0.871891 10.117 0.767578 10.3963 0.767578H26.7027C27.2701 0.767578 27.7345 1.23027 27.7345 1.79939V20.8381C27.9902 21.019 28.1461 21.2309 28.2225 21.3608C28.7281 22.2013 28.4899 23.3956 27.7344 23.8978ZM14.9498 4.80458C14.6735 4.80458 14.4501 4.58002 14.4501 4.30452C14.4501 4.0282 14.6735 3.80452 14.9498 3.80452H21.6876C21.9639 3.80452 22.1873 4.0282 22.1873 4.30452C22.1873 4.57995 21.9639 4.80458 21.6876 4.80458H14.9498ZM12.2835 4.80458C12.0072 4.80458 11.7837 4.58002 11.7837 4.30452C11.7837 4.0282 12.0072 3.80452 12.2835 3.80452H13.0037C13.2801 3.80452 13.5035 4.0282 13.5035 4.30452C13.5035 4.57995 13.2801 4.80458 13.0037 4.80458H12.2835ZM14.9498 7.05814C14.6735 7.05814 14.4501 6.83383 14.4501 6.55839C14.4501 6.28202 14.6735 6.05833 14.9498 6.05833H21.6876C21.9639 6.05833 22.1873 6.28202 22.1873 6.55839C22.1873 6.83383 21.9639 7.05814 21.6876 7.05814H14.9498ZM12.2835 7.05814C12.0072 7.05814 11.7837 6.83383 11.7837 6.55839C11.7837 6.28202 12.0072 6.05833 12.2835 6.05833H13.0037C13.2801 6.05833 13.5035 6.28202 13.5035 6.55839C13.5035 6.83383 13.2801 7.05814 13.0037 7.05814H12.2835ZM14.9498 9.31195C14.6735 9.31195 14.4501 9.0882 14.4501 8.81189C14.4501 8.53589 14.6735 8.31183 14.9498 8.31183H21.6876C21.9639 8.31183 22.1873 8.53583 22.1873 8.81189C22.1873 9.0882 21.9639 9.31195 21.6876 9.31195H14.9498ZM13.0037 9.31195H12.2835C12.0072 9.31195 11.7837 9.0882 11.7837 8.81189C11.7837 8.53589 12.0072 8.31183 12.2835 8.31183H13.0037C13.2801 8.31183 13.5035 8.53583 13.5035 8.81189C13.5035 9.08827 13.2801 9.31195 13.0037 9.31195ZM9.84068 16.3225L14.4472 12.7376C14.5765 12.6356 14.7499 12.6059 14.9087 12.657L19.2182 14.054L22.6459 10.599L22.5048 10.6107C22.2314 10.6345 21.9874 10.4314 21.9639 10.1562C21.9404 9.88133 22.1432 9.63883 22.4196 9.61445L23.9159 9.48333C24.0687 9.47014 24.2157 9.52445 24.3186 9.63208C24.4244 9.73964 24.4744 9.88752 24.4567 10.0369L24.2921 11.532C24.2627 11.7878 24.0452 11.9765 23.7953 11.9765C23.7747 11.9765 23.7571 11.976 23.7394 11.9733C23.4631 11.9427 23.2662 11.6952 23.2985 11.421L23.3044 11.3533L19.7121 14.9765C19.5797 15.1108 19.3828 15.1585 19.2035 15.1003L14.8499 13.6895L10.4551 17.1121C10.3639 17.1833 10.2581 17.2177 10.1493 17.2177C9.99936 17.2177 9.85243 17.1513 9.75536 17.0246C9.58486 16.807 9.62311 16.4927 9.84068 16.3225Z" fill="#5CA0EF"/>
</svg>
