<svg width="32" height="32" viewBox="0 0 32 32" fill="none" xmlns="http://www.w3.org/2000/svg">
<path fill-rule="evenodd" clip-rule="evenodd" d="M11.8125 11.857C13.7788 11.857 15.3821 10.2536 15.3821 8.28859C15.3821 6.32235 13.7788 4.72021 11.8125 4.72021C9.84747 4.72021 8.24414 6.32235 8.24414 8.28859C8.24414 10.2536 9.84747 11.857 11.8125 11.857Z" fill="#C8DFF9"/>
<path fill-rule="evenodd" clip-rule="evenodd" d="M21.8388 11.0843C21.8939 11.0607 21.9562 11.0607 22.0113 11.0843L30.1667 14.5803C30.2472 14.6148 30.2994 14.6939 30.2994 14.7815V21.406C30.2994 26.1183 26.8699 30.1892 22.2298 30.997L21.9251 31.0511L21.6204 30.997C16.9823 30.1892 13.5527 26.1183 13.5527 21.406V14.7815C13.5527 14.6939 13.6049 14.6148 13.6854 14.5803L21.8388 11.0843ZM22.0139 13.3871C21.9571 13.3627 21.8929 13.3627 21.8362 13.3871L15.9138 15.9255C15.8308 15.9611 15.777 16.0426 15.777 16.1329V21.3267C15.777 24.9407 18.3874 28.0756 21.9251 28.7489C25.4647 28.0756 28.0751 24.9407 28.0751 21.3267V16.1329C28.0751 16.0426 28.0213 15.9611 27.9383 15.9255L22.0139 13.3871Z" fill="#C8DFF9"/>
<path d="M18.293 21.6808C17.9388 21.3288 17.9388 20.7569 18.293 20.4048C18.6451 20.0527 19.2148 20.0527 19.569 20.4048L20.9496 21.7854L24.2848 18.4182C24.6348 18.0662 25.2045 18.064 25.5566 18.414C25.9108 18.766 25.9108 19.3357 25.5609 19.6879C23.8388 21.4269 23.3203 21.9689 21.5877 23.6995C21.2355 24.0537 20.6637 24.0537 20.3116 23.6995L18.293 21.6808Z" fill="#C8DFF9"/>
<path fill-rule="evenodd" clip-rule="evenodd" d="M13.0535 21.5973C12.6469 21.6445 12.2333 21.6689 11.8141 21.6689C5.95103 21.6689 1.19922 16.9171 1.19922 11.054C1.19922 5.19102 5.95103 0.439209 11.8141 0.439209C17.5656 0.439209 22.2478 5.01207 22.4238 10.7209L30.4979 14.1818C30.6824 14.2609 30.8021 14.4424 30.8021 14.6432V21.4138C30.8021 26.3682 27.1964 30.6495 22.3185 31.4999L22.0134 31.5533C21.9562 31.5633 21.8977 31.5633 21.8405 31.5533L21.5356 31.5C16.7178 30.6601 13.1411 26.4736 13.0535 21.5973ZM21.4195 10.7255C21.2463 5.56912 17.0126 1.44313 11.8141 1.44313C6.50557 1.44313 2.20314 5.74556 2.20314 11.054C2.20314 13.4204 3.05798 15.5867 4.47577 17.2612C5.11533 14.6902 7.06996 12.6386 9.58341 11.8631C8.47539 11.1332 7.74065 9.87802 7.74065 8.45891C7.74065 6.21784 9.57299 4.3855 11.8141 4.3855C14.0551 4.3855 15.8875 6.21784 15.8875 8.45891C15.8875 9.87802 15.1527 11.1332 14.0447 11.8631C14.8357 12.1071 15.5714 12.4775 16.2281 12.9507L21.4195 10.7255ZM5.32446 18.1436C7.03426 19.7095 9.31241 20.665 11.8141 20.665C12.2334 20.665 12.6466 20.6382 13.0518 20.5861V14.6432C13.0518 14.4424 13.1714 14.2609 13.356 14.1818L15.1197 13.4258C14.1491 12.8578 13.0195 12.5323 11.8141 12.5323C8.51523 12.5323 5.784 14.9705 5.32446 18.1436ZM11.8141 11.5283C13.5028 11.5283 14.8835 10.1476 14.8835 8.45891C14.8835 6.77013 13.5028 5.38942 11.8141 5.38942C10.1253 5.38942 8.74457 6.77013 8.74457 8.45891C8.74457 10.1476 10.1253 11.5283 11.8141 11.5283ZM21.9269 11.6002L14.0557 14.9741V21.4138C14.0557 25.8825 17.3081 29.7439 21.708 30.511L21.9269 30.5493L22.1459 30.511C26.5457 29.7439 29.7982 25.8825 29.7982 21.4138V14.9741L21.9269 11.6002ZM22.1245 13.0145L28.2742 15.6477C28.4589 15.7267 28.5787 15.9083 28.5787 16.1091V21.4138C28.5787 25.2587 25.7926 28.5938 22.0184 29.2927C21.9579 29.3038 21.8959 29.3038 21.8355 29.2927C18.0635 28.5938 15.2774 25.2587 15.2774 21.4138V16.1091C15.2774 15.9083 15.3971 15.7268 15.5817 15.6477L21.7293 13.0145C21.8555 12.9605 21.9983 12.9605 22.1245 13.0145ZM21.927 14.022L16.2813 16.4402V21.4138C16.2813 24.746 18.6739 27.6401 21.9271 28.2879C25.182 27.6402 27.5747 24.746 27.5747 21.4138L27.5747 16.4402L21.927 14.022ZM17.9413 22.0344L17.9402 22.0334C17.3896 21.4849 17.3898 20.5951 17.9408 20.0469C18.4885 19.4998 19.3743 19.4989 19.9251 20.0464C19.9254 20.0467 19.9257 20.0471 19.9261 20.0475L20.9501 21.0714L23.9303 18.0626L23.931 18.0619C24.4763 17.5133 25.364 17.5103 25.9126 18.0555C26.4642 18.6038 26.464 19.491 25.9197 20.0386C24.1969 21.7785 23.6781 22.3208 21.9447 24.0521C21.396 24.6028 20.5059 24.6024 19.9588 24.052L17.9413 22.0344ZM18.6501 21.3235L20.6687 23.3421C20.6691 23.3425 20.6694 23.3429 20.6698 23.3432C20.8254 23.4998 21.0782 23.4998 21.2338 23.3432C21.2342 23.3427 21.2347 23.3424 21.2351 23.3419C22.9669 21.6122 23.4851 21.0705 25.2063 19.3323L25.207 19.3316C25.3619 19.1757 25.3617 18.9234 25.2049 18.7676C25.0494 18.613 24.7977 18.6141 24.6431 18.7696L21.3084 22.1363C21.2144 22.2311 21.0865 22.2847 20.953 22.285C20.8194 22.2853 20.6913 22.2324 20.5969 22.138C20.5969 22.138 19.217 20.7581 19.2163 20.7574C19.0587 20.6019 18.8062 20.6012 18.6501 20.7573C18.6498 20.7577 18.6494 20.7581 18.649 20.7584C18.4925 20.9141 18.4925 21.1668 18.649 21.3224C18.6494 21.3228 18.6498 21.3232 18.6501 21.3235Z" fill="#5CA0EF"/>
</svg>
