<svg width="66" height="66" viewBox="0 0 66 66" fill="none" xmlns="http://www.w3.org/2000/svg">
<g clip-path="url(#clip0_422_24545)">
<path d="M33 66C51.2254 66 66 51.2254 66 33C66 14.7746 51.2254 0 33 0C14.7746 0 0 14.7746 0 33C0 51.2254 14.7746 66 33 66Z" fill="#FF7171"/>
<g clip-path="url(#clip1_422_24545)">
<path d="M53.5 33.937C53.5 35.041 52.604 35.937 51.5 35.937H44.688L42.126 46.532C41.909 47.433 41.104 48.062 40.184 48.062C40.157 48.062 40.128 48.062 40.1 48.06C39.147 48.021 38.354 47.314 38.206 46.372L36.919 38.143L35.654 41.358C35.325 42.198 34.474 42.712 33.576 42.616C32.679 42.516 31.959 41.831 31.818 40.938L30.38 31.818L27.838 45.633C27.675 46.52 26.941 47.186 26.044 47.264C25.147 47.34 24.308 46.811 23.996 45.965L20.285 35.938H14.5C13.396 35.938 12.5 35.042 12.5 33.938C12.5 32.834 13.396 31.938 14.5 31.938H21.678C22.515 31.938 23.263 32.459 23.553 33.244L25.221 37.75L28.565 19.576C28.74 18.626 29.568 17.938 30.531 17.938C30.54 17.938 30.549 17.938 30.557 17.938C31.532 17.951 32.355 18.664 32.507 19.626L34.623 33.047L35.894 29.814C36.224 28.974 37.079 28.46 37.974 28.558C38.87 28.657 39.59 29.345 39.73 30.237L40.601 35.807L41.166 33.468C41.383 32.57 42.187 31.938 43.108 31.938H51.5C52.604 31.936 53.5 32.831 53.5 33.937Z" fill="white"/>
</g>
</g>
<defs>
<clipPath id="clip0_422_24545">
<rect width="66" height="66" fill="white"/>
</clipPath>
<clipPath id="clip1_422_24545">
<rect width="41" height="41" fill="white" transform="translate(12.5 12.5)"/>
</clipPath>
</defs>
</svg>
