<svg width="66" height="66" viewBox="0 0 66 66" fill="none" xmlns="http://www.w3.org/2000/svg">
<rect width="66" height="66" rx="33" fill="#5CA0EF"/>
<path d="M34.3533 46.5271C41.8122 46.5271 47.8804 40.4589 47.8804 33.0001C47.8804 25.5413 41.8121 19.473 34.3533 19.473C26.8945 19.473 20.8262 25.5412 20.8262 33C20.8262 40.4588 26.8944 46.5271 34.3533 46.5271ZM33.0057 31.6523V28.6576C33.0057 27.9133 33.609 27.3099 34.3533 27.3099C35.0976 27.3099 35.701 27.9133 35.701 28.6576V33C35.701 33.7443 35.0976 34.3476 34.3533 34.3476H27.5869C26.8426 34.3476 26.2393 33.7443 26.2393 33C26.2393 32.2557 26.8426 31.6523 27.5869 31.6523H33.0057Z" fill="white"/>
<path d="M49.6599 17.6934C45.5713 13.6049 40.1353 11.3533 34.3533 11.3533C28.5713 11.3533 23.1352 13.6049 19.0467 17.6934C15.6842 21.056 13.5655 25.3303 12.9186 29.9585L12.3006 29.3405C11.7744 28.8143 10.921 28.8143 10.3947 29.3405C9.86842 29.8667 9.86842 30.7201 10.3947 31.2464L13.1013 33.9529C13.3644 34.216 13.7093 34.3477 14.0542 34.3477C14.399 34.3477 14.744 34.216 15.007 33.9529L17.7136 31.2464C18.2399 30.7201 18.2399 29.8668 17.7136 29.3405C17.1874 28.8143 16.334 28.8143 15.8077 29.3405L15.7458 29.4024C17.4314 20.6673 25.1332 14.0486 34.3533 14.0486C44.8031 14.0486 53.3046 22.5502 53.3046 33C53.3046 43.4498 44.8031 51.9515 34.3532 51.9515C25.8541 51.9515 18.3411 46.2369 16.0829 38.0545C15.885 37.337 15.1427 36.9157 14.4254 37.114C13.7079 37.3119 13.2868 38.0541 13.4848 38.7715C14.7205 43.2489 17.4363 47.2868 21.1319 50.1412C24.9481 53.0888 29.5199 54.6467 34.3532 54.6467C40.1352 54.6467 45.5712 52.395 49.6598 48.3066C53.7484 44.218 56 38.7821 56 33C56 27.2179 53.7484 21.782 49.6599 17.6934Z" fill="white"/>
</svg>
