<svg width="66" height="66" viewBox="0 0 66 66" fill="none" xmlns="http://www.w3.org/2000/svg">
<rect width="66" height="66" rx="33" fill="#CF8A91"/>
<path fill-rule="evenodd" clip-rule="evenodd" d="M36.2891 29.5133L44.606 43.9186C45.2897 45.103 45.2897 46.5322 44.606 47.7166C43.9222 48.901 42.6844 49.6155 41.3168 49.6155H24.6831C23.3156 49.6155 22.0777 48.9009 21.394 47.7166C20.7102 46.5323 20.7102 45.103 21.394 43.9186L29.7108 29.5133C30.3946 28.3289 31.6324 27.6144 33 27.6144C34.3676 27.6144 35.6053 28.329 36.2891 29.5133ZM40.8748 29.003L44.1051 25.1985C44.2347 25.0459 44.1265 24.8121 43.9262 24.8121H42.3687V17.5368H39.0233V24.812H37.4657C37.2655 24.812 37.1572 25.0458 37.2869 25.1985L40.5171 29.0029C40.6109 29.1134 40.7812 29.1134 40.8748 29.003ZM27.1605 27.8505L30.3907 24.0461C30.5204 23.8934 30.4121 23.6596 30.2118 23.6596H28.6543V16.3844H25.3089V23.6596H23.7514C23.5511 23.6596 23.4429 23.8934 23.5725 24.0461L26.8027 27.8505C26.8964 27.961 27.0667 27.9609 27.1605 27.8505ZM18.8319 40.8203L22.0621 37.0157C22.1917 36.8631 22.0835 36.6293 21.8832 36.6293H20.3257V27.5152H16.9803V36.6293H15.4228C15.2225 36.6293 15.1142 36.8631 15.2439 37.0157L18.4741 40.8203C18.5679 40.9307 18.7381 40.9306 18.8319 40.8203ZM47.5259 39.5225L50.7561 35.718C50.8857 35.5653 50.7775 35.3316 50.5772 35.3316H49.0197V26.2175H45.6743V35.3316H44.1168C43.9165 35.3316 43.8083 35.5654 43.9379 35.7181L47.1681 39.5226C47.2619 39.633 47.4321 39.6329 47.5259 39.5225ZM33 44.3137C32.2965 44.3137 31.7263 44.884 31.7263 45.5875C31.7263 46.2909 32.2966 46.8612 33 46.8612C33.7034 46.8612 34.2737 46.291 34.2737 45.5875C34.2737 44.884 33.7034 44.3137 33 44.3137ZM33 42.04C33.535 42.04 33.9743 41.6163 33.9936 41.0816L34.2449 34.1216C34.2654 33.5552 33.8182 33.0915 33.2513 33.0915C32.8959 33.0915 33.1039 33.0915 32.7486 33.0915C32.1818 33.0915 31.7346 33.5552 31.755 34.1216L32.0064 41.0816C32.0257 41.6163 32.465 42.04 33 42.04Z" fill="white"/>
</svg>
