<svg width="66" height="66" viewBox="0 0 66 66" fill="none" xmlns="http://www.w3.org/2000/svg">
<rect width="66" height="66" rx="33" fill="#5CA0EF"/>
<path d="M43.1837 21.0141H43.1681C42.8876 19.0658 41.2354 17.554 39.2092 17.554H37.9467C37.2921 15.6524 35.4996 14.2964 33.3799 14.2964C31.2601 14.2964 29.4677 15.6524 28.8131 17.554H27.5661C25.5399 17.554 23.8878 19.0658 23.6228 21.0141H23.5916C20.9264 21.0141 18.7599 23.1806 18.7599 25.8459V46.872C18.7599 49.5372 20.9264 51.7037 23.5916 51.7037H43.1837C45.8334 51.7037 48 49.5372 48 46.872V25.8459C48 23.1806 45.8334 21.0141 43.1837 21.0141ZM39.5796 35.6072L32.2856 42.9012C31.9812 43.2056 31.5824 43.3578 31.1836 43.3578C30.7848 43.3578 30.386 43.2056 30.0816 42.9012L26.9324 39.7519C26.3235 39.1431 26.3235 38.1568 26.9324 37.5479C27.5412 36.9391 28.5275 36.9391 29.1364 37.5479L31.1836 39.5951L37.3755 33.4032C37.9844 32.7944 38.9707 32.7944 39.5796 33.4032C40.1884 34.0121 40.1884 34.9984 39.5796 35.6072ZM40.0976 23.1962C40.0976 23.6794 39.708 24.0847 39.2092 24.0847H27.5661C27.083 24.0847 26.6778 23.6794 26.6778 23.1962V21.5596C26.6778 21.0764 27.083 20.6713 27.5661 20.6713H30.1223C30.9796 20.6713 31.681 19.9699 31.681 19.1126C31.681 18.1774 32.4447 17.4137 33.3799 17.4137C34.3307 17.4137 35.0944 18.1774 35.0944 19.1126C35.0944 19.9699 35.7802 20.6713 36.653 20.6713H39.2092C39.708 20.6713 40.0976 21.0764 40.0976 21.5596V23.1962Z" fill="white"/>
</svg>
