<svg width="32" height="32" viewBox="0 0 32 32" fill="none" xmlns="http://www.w3.org/2000/svg">
<g clip-path="url(#clip0_230_8925)">
<path fill-rule="evenodd" clip-rule="evenodd" d="M16.001 18.9288C14.5794 18.9288 13.421 20.0867 13.421 21.5085C13.421 22.9304 14.5792 24.0885 16.001 24.0885C17.4229 24.0885 18.581 22.9304 18.581 21.5085C18.581 20.0867 17.4227 18.9288 16.001 18.9288ZM18.932 19.7067C19.1237 20.0171 19.2647 20.3552 19.348 20.7103C19.3672 20.7916 19.4265 20.8551 19.5038 20.885L20.0548 21.0983V21.9194L19.5037 22.1324C19.4264 22.1622 19.3671 22.2258 19.348 22.307C19.2647 22.6622 19.1237 23.0001 18.932 23.3106C18.8888 23.3804 18.8854 23.4684 18.9185 23.5431L19.1585 24.0852L18.5776 24.6661L18.0354 24.4252C17.9601 24.3917 17.8732 24.3977 17.803 24.4409C17.4925 24.6319 17.1551 24.7719 16.8005 24.8565C16.7206 24.8756 16.655 24.9346 16.6254 25.0109L16.4104 25.5629H15.592L15.377 25.0109C15.3468 24.9334 15.2837 24.8758 15.2023 24.8566C14.847 24.7726 14.5092 24.6326 14.1987 24.4406C14.1299 24.398 14.0408 24.3924 13.9669 24.4252L13.4247 24.6661L12.8437 24.0852L13.0838 23.5433C13.1169 23.4687 13.1134 23.3807 13.0702 23.3109C12.8784 23.0003 12.7375 22.6624 12.6542 22.307C12.6351 22.2258 12.576 22.162 12.4987 22.1322L11.9475 21.9196V21.0984L12.4985 20.8851C12.5758 20.8551 12.6352 20.7916 12.6542 20.7104C12.7376 20.3551 12.8785 20.0172 13.0703 19.7068C13.1135 19.6369 13.1169 19.549 13.0838 19.4743L12.8437 18.9321L13.4247 18.3517L13.9668 18.5921C14.0407 18.6249 14.1299 18.6194 14.1987 18.5769C14.5092 18.3848 14.847 18.2449 15.2023 18.1608C15.2834 18.1416 15.3468 18.0842 15.3769 18.0069L15.5919 17.4545H16.4104L16.6254 18.0069C16.6551 18.0832 16.7208 18.1418 16.8007 18.1609C17.1541 18.2456 17.4933 18.3862 17.8029 18.5764C17.8732 18.6196 17.9602 18.6255 18.0355 18.5921L18.5776 18.3517L19.1586 18.9322L18.9185 19.4741C18.8853 19.5488 18.8887 19.6368 18.932 19.7067ZM8.05817 24.1888C8.05817 25.4092 7.06648 26.4012 5.84617 26.4022C5.84505 26.4022 5.84392 26.4022 5.8428 26.4022C4.62255 26.4012 3.63086 25.4092 3.63086 24.1888C3.63086 22.9681 4.62567 21.9754 5.84598 21.9754C7.06667 21.9754 8.05817 22.9684 8.05817 24.1888ZM26.1562 21.9754C27.3765 21.9754 28.3713 22.9681 28.3713 24.1888C28.3713 25.4092 27.3796 26.4012 26.1594 26.4022C26.1582 26.4022 26.1571 26.4022 26.156 26.4022C24.9357 26.4012 23.944 25.4092 23.944 24.1888C23.944 22.9684 24.9354 21.9754 26.1562 21.9754ZM13.63 3.6215C13.63 2.31318 14.6926 1.25018 16.001 1.25018C17.3095 1.25018 18.3721 2.31318 18.3721 3.6215C18.3721 4.92962 17.3094 5.99281 16.001 5.99281C14.6928 5.99281 13.63 4.92962 13.63 3.6215Z" fill="#C8DFF9"/>
<path fill-rule="evenodd" clip-rule="evenodd" d="M22.6751 21.5085C22.6751 25.189 19.6804 28.1831 16.0002 28.1831C14.6911 28.1831 13.432 27.8054 12.3583 27.1026C12.3141 27.2521 12.2024 27.3791 12.0435 27.4348C11.7817 27.5265 11.4963 27.3901 11.4051 27.1294L10.9374 25.8035C10.8786 25.6349 10.9139 25.4478 11.0286 25.3119C11.1463 25.1763 11.3257 25.1131 11.5022 25.1458L12.8819 25.4034C13.1555 25.4541 13.335 25.7153 13.282 25.9868C13.2525 26.1445 13.1525 26.271 13.0201 26.3395C13.9086 26.8888 14.9353 27.1832 16.0002 27.1832C19.1303 27.1832 21.675 24.6373 21.675 21.5084C21.675 20.9086 21.5808 20.3173 21.3985 19.751C21.3102 19.4886 21.4543 19.2065 21.7191 19.1209C21.9809 19.0353 22.2633 19.1791 22.3486 19.4415C22.5634 20.1083 22.6751 20.8037 22.6751 21.5085ZM10.3255 21.5085C10.3255 18.3799 12.8701 15.8341 16.0002 15.8341C17.071 15.8341 18.1095 16.1341 19.0038 16.6928C18.8538 16.7587 18.739 16.8961 18.7096 17.069C18.6655 17.3414 18.8508 17.5988 19.1215 17.6438L20.51 17.8733C20.6865 17.9024 20.863 17.8353 20.9778 17.6973C21.0895 17.5591 21.1219 17.3711 21.0601 17.204L20.563 15.8878C20.4659 15.6295 20.1776 15.4986 19.9216 15.596C19.7746 15.6507 19.6686 15.7658 19.6245 15.9023C18.5508 15.2077 17.2976 14.8341 16.0002 14.8341C12.32 14.8341 9.32526 17.8283 9.32526 21.5084C9.32526 22.2139 9.43708 22.9096 9.65183 23.5757C9.72245 23.7869 9.91658 23.9211 10.1284 23.9211C10.1784 23.9211 10.2313 23.9131 10.2813 23.8963C10.5461 23.8107 10.6903 23.5286 10.602 23.2662C10.4196 22.6999 10.3255 22.1089 10.3255 21.5085ZM16.0002 23.3386C17.0093 23.3386 17.83 22.5179 17.83 21.5085C17.83 20.4995 17.0093 19.6787 16.0002 19.6787C14.9911 19.6787 14.1704 20.4994 14.1704 21.5085C14.1704 22.5179 14.9911 23.3386 16.0002 23.3386ZM16.0002 18.6788C14.441 18.6788 13.1702 19.9482 13.1702 21.5085C13.1702 23.0691 14.4411 24.3385 16.0002 24.3385C17.5593 24.3385 18.8302 23.0691 18.8302 21.5085C18.8302 19.9482 17.5594 18.6788 16.0002 18.6788ZM19.804 21.748V21.2696L19.4127 21.1181C19.2568 21.059 19.1421 20.9278 19.1038 20.7674C19.0273 20.4391 18.8979 20.1261 18.7185 19.8381C18.6331 19.6975 18.6214 19.5234 18.689 19.3728L18.8596 18.9877L18.5213 18.6497L18.136 18.8206C17.986 18.8873 17.8124 18.8759 17.6711 18.7894C17.3828 18.612 17.0681 18.4823 16.7415 18.404C16.5826 18.3661 16.4503 18.2513 16.3915 18.0975L16.2385 17.7044H15.762L15.609 18.0975C15.5502 18.2514 15.4207 18.3661 15.259 18.404C14.9295 18.4823 14.6176 18.612 14.3293 18.7894C14.1911 18.8759 14.0145 18.8873 13.8645 18.8206L13.4791 18.6497L13.1408 18.9877L13.3115 19.3731C13.3791 19.5237 13.3673 19.6979 13.282 19.8382C13.1026 20.1265 12.9731 20.4392 12.8966 20.7675C12.8584 20.9278 12.7436 21.0591 12.5878 21.1182L12.1965 21.2697V21.7481L12.5878 21.899C12.7437 21.9584 12.8584 22.0896 12.8966 22.2499C12.9731 22.5785 13.1026 22.8913 13.282 23.1796C13.3673 23.3199 13.3791 23.4941 13.3115 23.6446L13.1408 24.0297L13.4791 24.368L13.8645 24.1968C14.0145 24.1301 14.1911 24.1415 14.3293 24.228C14.6176 24.4054 14.9295 24.5351 15.259 24.6134C15.4208 24.6513 15.5502 24.7661 15.609 24.9202L15.762 25.3129H16.2385L16.3915 24.9202C16.4503 24.7663 16.5827 24.6516 16.7415 24.6134C17.071 24.5351 17.3828 24.4057 17.6711 24.228C17.8123 24.1415 17.986 24.13 18.136 24.1968L18.5213 24.368L18.8596 24.0297L18.689 23.6443C18.6214 23.4937 18.6331 23.3196 18.7185 23.1792C18.8979 22.8909 19.0273 22.5782 19.1038 22.2499C19.1421 22.0896 19.2568 21.9583 19.4127 21.8992L19.804 21.748ZM20.4835 22.5579C20.6776 22.4834 20.8041 22.2981 20.8041 22.0913V20.9261C20.8041 20.7196 20.6776 20.5339 20.4835 20.4595L20.007 20.2759C19.9305 20.0241 19.8275 19.7806 19.704 19.5476L19.9128 19.0801C19.9952 18.8909 19.957 18.6698 19.8099 18.5235L18.9862 17.6998C18.8391 17.5536 18.6185 17.5124 18.4302 17.5963L17.9625 17.8039C17.7271 17.6804 17.4859 17.5795 17.2329 17.5021L17.0505 17.0249C16.974 16.8317 16.7887 16.7046 16.5828 16.7046H15.4177C15.2118 16.7046 15.0265 16.8316 14.95 17.0249L14.7676 17.5021C14.5146 17.5795 14.2733 17.6804 14.041 17.8039L13.5703 17.5963C13.382 17.5124 13.1613 17.5536 13.0143 17.6998L12.1906 18.5235C12.0465 18.6697 12.0053 18.8909 12.0876 19.0801L12.2965 19.5476C12.173 19.7806 12.07 20.0241 11.9935 20.2759L11.517 20.4595C11.3228 20.5339 11.1963 20.7196 11.1963 20.9261V22.0913C11.1963 22.2981 11.3228 22.4838 11.517 22.5579L11.9935 22.7414C12.07 22.9933 12.173 23.2369 12.2965 23.4698L12.0876 23.9373C12.0053 24.1264 12.0465 24.3476 12.1906 24.4938L13.0143 25.3175C13.1613 25.4637 13.382 25.5052 13.5703 25.4211L14.041 25.2131C14.2733 25.3369 14.5146 25.4378 14.7676 25.5152L14.95 25.9924C15.0265 26.1854 15.2118 26.3128 15.4177 26.3128H16.5826C16.7886 26.3128 16.9739 26.1854 17.0504 25.9924L17.2328 25.5152C17.4858 25.4378 17.727 25.3369 17.9623 25.2134L18.4301 25.4211C18.6183 25.5049 18.839 25.464 18.9861 25.3175L19.8098 24.4938C19.9569 24.3476 19.9951 24.1264 19.9127 23.9373L19.7038 23.4695C19.8274 23.2365 19.9303 22.9933 20.0068 22.7414L20.4835 22.5579ZM21.9044 30.5001L30.4091 30.4998C29.9443 28.5574 28.2058 27.1526 26.1583 27.1521C26.1583 27.1521 26.1583 27.1521 26.1553 27.1521C24.1049 27.1527 22.3663 28.5574 21.9044 30.5001ZM24.1931 24.1888C24.1931 23.1063 25.0728 22.2254 26.1553 22.2254C27.2379 22.2254 28.1205 23.1062 28.1205 24.1888C28.1205 25.2711 27.2408 26.1513 26.1583 26.1522H26.1553C25.0727 26.1513 24.1931 25.2711 24.1931 24.1888ZM7.80733 24.1888C7.80733 25.2711 6.9277 26.1513 5.84514 26.1522H5.8422C4.75964 26.1513 3.88001 25.2711 3.88001 24.1888C3.88001 23.1063 4.76258 22.2254 5.84514 22.2254C6.9277 22.2254 7.80733 23.1062 7.80733 24.1888ZM10.096 30.4998L1.59126 30.5001C2.05608 28.5574 3.7947 27.1526 5.84214 27.1521H5.84508C7.89551 27.1527 9.63414 28.5574 10.096 30.4998ZM16.0002 6.74307C18.2095 6.74307 20.0834 8.26719 20.5659 10.3697L11.4345 10.37C11.917 8.26719 13.7909 6.74307 16.0002 6.74307ZM16.0002 1.50019C17.171 1.50019 18.1213 2.45157 18.1213 3.6215C18.1213 4.79119 17.1711 5.74282 16.0002 5.74282C14.8294 5.74282 13.8791 4.79113 13.8791 3.6215C13.8791 2.45157 14.8294 1.50019 16.0002 1.50019ZM31.4976 30.9467C31.274 28.8651 29.8885 27.1744 28.0263 26.4861C28.6941 25.9421 29.1206 25.1146 29.1206 24.1888C29.1206 22.7253 28.0528 21.5071 26.6554 21.2685V13.072C26.6554 12.7975 26.4348 12.5746 26.1611 12.5722L16.5003 12.4872V11.3699H21.1542C21.2983 11.3699 21.4307 11.3096 21.5278 11.2039C21.622 11.0983 21.669 10.9577 21.6514 10.8165C21.4131 8.59369 19.9245 6.79213 17.9241 6.07669C18.6537 5.5045 19.1215 4.617 19.1215 3.62144C19.1215 1.90019 17.7211 0.499878 16.0002 0.499878C14.2793 0.499878 12.879 1.90019 12.879 3.62144C12.879 4.61694 13.3496 5.5045 14.0763 6.07669C12.0758 6.79213 10.5873 8.59369 10.349 10.8165C10.3343 10.9577 10.3785 11.0986 10.4726 11.2039C10.5696 11.3096 10.702 11.3699 10.8462 11.3699H15.5001V12.4824H5.84508C5.56858 12.4824 5.34495 12.7063 5.34495 12.9826V21.2684C3.94758 21.507 2.8797 22.7252 2.8797 24.1888C2.8797 25.1145 3.30626 25.9421 3.97408 26.486C2.11189 27.1744 0.726325 28.865 0.502763 30.9466C0.488075 31.0878 0.5322 31.2284 0.629262 31.3341C0.723388 31.4397 0.8587 31.5 0.99995 31.5H10.6873C10.8315 31.5 10.9638 31.4397 11.061 31.3341C11.1551 31.2284 11.2021 31.0878 11.1845 30.9466C10.9639 28.865 9.57833 27.1744 7.7132 26.486C8.38101 25.9421 8.80758 25.1145 8.80758 24.1888C8.80758 22.7252 7.7397 21.5067 6.34533 21.2684V13.4827H15.9974L25.6553 13.5677V21.2684C24.261 21.507 23.1931 22.7252 23.1931 24.1888C23.1931 25.1145 23.6196 25.9421 24.2875 26.486C22.4223 27.1744 21.0368 28.865 20.8161 30.9466C20.8015 31.0878 20.8456 31.2284 20.9397 31.3341C21.0338 31.4397 21.1691 31.5 21.3133 31.5H31.0007C31.1419 31.5 31.2773 31.4397 31.3714 31.3341C31.4682 31.2285 31.5123 31.0879 31.4976 30.9467Z" fill="#5CA0EF"/>
</g>
<defs>
<clipPath id="clip0_230_8925">
<rect width="32" height="32" fill="white"/>
</clipPath>
</defs>
</svg>
