<svg width="32" height="32" viewBox="0 0 32 32" fill="none" xmlns="http://www.w3.org/2000/svg">
<g clip-path="url(#clip0_230_9088)">
<path fill-rule="evenodd" clip-rule="evenodd" d="M5.52023 21.5007L3.36907 19.3496L4.17993 17.5263C3.64509 16.6571 3.25099 15.7096 3.01475 14.7183L1.1543 14.0016V10.9601L3.01475 10.2435C3.25099 9.25084 3.64509 8.30332 4.17993 7.43549L3.36907 5.6108L5.52023 3.46097L7.3436 4.27051C8.21281 3.73567 9.16026 3.34288 10.1516 3.10665L10.8682 1.24481H13.9097L14.6264 3.10665C15.619 3.34288 16.5665 3.73567 17.4344 4.27051L18.6459 3.73303L19.259 3.46097L21.4089 5.6108L20.5994 7.43549C21.1342 8.30332 21.5269 9.25084 21.7632 10.2435L23.625 10.9601V13.7332H23.6829L24.2353 15.1683C25.0005 15.3504 25.7309 15.6532 26.3999 16.0655L27.3338 15.6511L27.8064 15.4415L29.4635 17.0986L28.8396 18.5052C29.2518 19.1742 29.5546 19.9045 29.7366 20.6697L31.1718 21.222V23.5666L29.7366 24.119C29.5546 24.8831 29.2518 25.6135 28.8396 26.2825L29.4635 27.689L27.8064 29.3472L27.3338 29.1375L27.334 29.1373L26.3999 28.7222C25.7309 29.1344 25.0005 29.4383 24.2353 29.6203L23.6829 31.0544H21.3384L20.786 29.6193C20.0219 29.4372 19.2915 29.1344 18.6225 28.7222L17.216 29.3472L15.5578 27.689L16.1828 26.2835C15.7706 25.6135 15.4668 24.8831 15.2847 24.119L13.9521 23.6057L13.9097 23.7156H10.8682L10.1516 21.8538C9.16026 21.6175 8.21281 21.2247 7.34492 20.6899L5.52023 21.5007ZM17.8963 15.7435C18.4638 14.7881 18.7896 13.6725 18.7896 12.4808C18.7896 8.9457 15.9241 6.0802 12.389 6.0802C8.85519 6.0802 5.98962 8.9457 5.98962 12.4808C5.98962 16.0146 8.85519 18.8802 12.389 18.8802C13.6801 18.8802 14.882 18.498 15.8875 17.8405C16.7067 17.3049 17.3956 16.5866 17.8963 15.7435ZM18.607 21.211C18.4937 21.5855 18.4327 21.9828 18.4327 22.3942C18.4327 24.6462 20.2588 26.4722 22.5108 26.4722C24.7635 26.4722 26.5896 24.6462 26.5896 22.3942C26.5896 20.1414 24.7635 18.3154 22.5108 18.3154C22.0024 18.3154 21.5156 18.4085 21.0668 18.5785L21.4089 19.3496L19.259 21.5007L18.6459 21.2287L18.6463 21.2284L18.607 21.211Z" fill="#C8DFF9"/>
<path fill-rule="evenodd" clip-rule="evenodd" d="M24.3861 15.8398C24.1196 15.7639 23.9649 15.486 24.0408 15.2195C24.1166 14.9531 24.3945 14.7984 24.661 14.8742C25.2614 15.0452 25.8387 15.2876 26.382 15.5971L27.5335 15.0851C27.7233 15.0007 27.9455 15.042 28.0923 15.1889L29.7275 16.8241C29.8742 16.9708 29.9156 17.1926 29.8316 17.3824C29.8316 17.3824 29.3214 18.5341 29.3214 18.534C29.6437 19.0996 29.8931 19.7019 30.065 20.3303L31.2393 20.7823C31.4331 20.8569 31.561 21.0431 31.561 21.2508V23.5638C31.561 23.7715 31.4331 23.9577 31.2393 24.0323L30.0647 24.4844C29.8926 25.1107 29.642 25.7125 29.3211 26.2776L29.8316 27.4299C29.9156 27.6196 29.8742 27.8415 29.7275 27.9882L28.0923 29.6234C27.9457 29.7701 27.7238 29.8114 27.5341 29.7274C27.5341 29.7274 26.3827 29.2173 26.3827 29.2173C25.8187 29.5394 25.2154 29.7888 24.5885 29.9606L24.1365 31.1352C24.0619 31.329 23.8756 31.4568 23.668 31.4568H21.355C21.1473 31.4568 20.9611 31.329 20.8865 31.1352L20.4345 29.9607C19.8063 29.7886 19.2041 29.5379 18.6389 29.217L17.4865 29.7274C17.2968 29.8114 17.075 29.7701 16.9283 29.6234L15.2931 27.9882C15.1462 27.8413 15.1049 27.6191 15.1893 27.4293C15.1893 27.4293 15.7012 26.2781 15.7012 26.2782C15.3353 25.6372 15.063 24.9457 14.8898 24.2264C14.825 23.957 14.991 23.6857 15.2603 23.6209C15.5296 23.556 15.801 23.7221 15.8658 23.9914C16.0351 24.6943 16.3126 25.3669 16.6922 25.9809C16.7795 26.1221 16.7914 26.2973 16.7239 26.4488L16.2468 27.5221L17.3947 28.67L18.4683 28.1945C18.619 28.1277 18.7931 28.1393 18.9338 28.2255C19.55 28.603 20.2204 28.8831 20.9256 29.0502C21.0869 29.0884 21.2188 29.2037 21.2784 29.3583L21.6996 30.4529H23.3233L23.7446 29.3583C23.8041 29.2038 23.9359 29.0885 24.097 29.0503C24.7994 28.8834 25.4715 28.606 26.0851 28.2265C26.226 28.1394 26.4009 28.1274 26.5524 28.1945L27.6259 28.67L28.7742 27.5217L28.2987 26.4482C28.2319 26.2974 28.2434 26.1233 28.3297 25.9827C28.7073 25.3664 28.9873 24.6959 29.1544 23.9928C29.1927 23.8317 29.308 23.6999 29.4625 23.6404L30.5571 23.2192V21.5954L29.4625 21.1742C29.3078 21.1146 29.1926 20.9827 29.1544 20.8214C28.9874 20.1166 28.7098 19.4466 28.3303 18.8306C28.2435 18.6898 28.2317 18.5153 28.2987 18.3641L28.7742 17.2906L27.6263 16.1426L26.553 16.6198C26.4017 16.6871 26.2268 16.6754 26.0858 16.5885C25.5549 16.2613 24.9837 16.0099 24.3861 15.8398ZM17.9942 22.8382C17.9682 22.5625 18.1709 22.3174 18.4467 22.2913C18.7226 22.2652 18.9676 22.468 18.9937 22.7438C19.1632 24.5375 20.6722 25.941 22.5103 25.941C24.4623 25.941 26.0451 24.3581 26.0451 22.4061C26.0451 20.4973 24.5314 18.9434 22.639 18.8759C22.3621 18.866 22.1454 18.6332 22.1552 18.3564C22.1651 18.0795 22.3979 17.8628 22.6747 17.8727C25.105 17.9593 27.049 19.9547 27.049 22.4061C27.049 24.9125 25.0167 26.9449 22.5103 26.9449C20.1496 26.9449 18.2119 25.142 17.9942 22.8382ZM15.0454 2.52169C15.928 2.75586 16.7743 3.10648 17.565 3.56583L19.1861 2.84502C19.3759 2.76062 19.5981 2.80185 19.745 2.94873L21.9349 5.1386C22.0816 5.2853 22.1229 5.50717 22.0389 5.69684C22.0389 5.69684 21.3207 7.31824 21.3206 7.31824C21.7803 8.10933 22.1311 8.9562 22.3653 9.8416L24.0187 10.478C24.2126 10.5526 24.3404 10.7388 24.3404 10.9464V14.0441C24.3404 14.2517 24.2126 14.4379 24.0187 14.5125C24.0187 14.5125 22.365 15.149 22.365 15.149C22.1305 16.0316 21.7779 16.8778 21.3204 17.6685L22.0389 19.2905C22.1229 19.4802 22.0816 19.702 21.9349 19.8487L19.745 22.0386C19.5983 22.1853 19.3764 22.2267 19.1867 22.1426L17.5657 21.4246C16.7768 21.8839 15.9283 22.2346 15.0452 22.4689L14.4088 24.1225C14.3342 24.3163 14.1479 24.4441 13.9403 24.4441H10.8427C10.635 24.4441 10.4488 24.3163 10.3742 24.1225L9.73784 22.469C8.85269 22.2344 8.00595 21.8818 7.21511 21.4242L5.59308 22.1426C5.40341 22.2267 5.18154 22.1853 5.03484 22.0386L2.84497 19.8487C2.69809 19.7019 2.65687 19.4797 2.74126 19.2899C2.74126 19.2899 3.46188 17.669 3.46195 17.6691C3.00272 16.8804 2.65191 16.0322 2.41555 15.1493L0.761147 14.5125C0.567328 14.4379 0.439453 14.2517 0.439453 14.0441V10.9464C0.439453 10.7388 0.567328 10.5526 0.761147 10.478C0.761147 10.478 2.41536 9.84128 2.41536 9.84135C2.65172 8.95614 3.00259 8.10952 3.46207 7.31868L2.74126 5.69747C2.65687 5.50767 2.69809 5.28549 2.84497 5.1386L5.03484 2.94873C5.18173 2.80185 5.40391 2.76062 5.59371 2.84502C5.59371 2.84502 7.21492 3.56583 7.21486 3.56583C8.0057 3.10641 8.85213 2.75573 9.73489 2.52157L10.3744 0.864468C10.4491 0.670899 10.6352 0.543213 10.8427 0.543213H13.9403C14.1481 0.543213 14.3344 0.671213 14.4089 0.865158L15.0454 2.52169ZM14.2017 3.12499L13.5955 1.54713H11.187L10.5779 3.12568C10.5183 3.27997 10.3866 3.39504 10.2256 3.43331C9.26694 3.66114 8.35268 4.03987 7.51233 4.55771C7.37128 4.64461 7.19647 4.65634 7.04507 4.58902L5.50091 3.90246L3.7987 5.60467L4.48526 7.14883C4.55258 7.30023 4.54085 7.47504 4.45395 7.61609C3.93592 8.45681 3.55707 9.37151 3.32617 10.3336C3.28764 10.4942 3.1725 10.6256 3.01834 10.6849L1.44337 11.2911V13.6994L3.01834 14.3055C3.17238 14.3648 3.28745 14.4961 3.3261 14.6565C3.55694 15.6155 3.93561 16.533 4.45351 17.3706C4.54079 17.5117 4.55265 17.6869 4.48526 17.8385L3.7987 19.3827L5.50129 21.0853L7.0457 20.4012C7.19654 20.3344 7.37059 20.3459 7.51127 20.4322C8.35186 20.9472 9.26643 21.3292 10.2284 21.5571C10.3896 21.5953 10.5217 21.7106 10.5812 21.8652L11.1873 23.4402H13.5957L14.2018 21.8652C14.2613 21.7107 14.3931 21.5954 14.5542 21.5572C15.5126 21.3294 16.4297 20.9509 17.2668 20.4332C17.4078 20.3461 17.5826 20.3341 17.7341 20.4012L19.2785 21.0853L20.9816 19.3823L20.2975 17.8379C20.2306 17.6871 20.2422 17.513 20.3284 17.3724C20.8435 16.5317 21.2255 15.617 21.4534 14.658C21.4918 14.4969 21.607 14.365 21.7615 14.3055L23.3365 13.6994V11.2911L21.7615 10.6849C21.6069 10.6254 21.4916 10.4934 21.4534 10.3322C21.2255 9.37063 20.8468 8.45637 20.329 7.61609C20.2422 7.47529 20.2304 7.30073 20.2975 7.14946L20.9816 5.60505L19.2789 3.90246L17.7348 4.58902C17.5834 4.65634 17.4086 4.64461 17.2675 4.55771C16.4272 4.03987 15.5129 3.66114 14.5542 3.43331C14.393 3.39498 14.2611 3.27965 14.2017 3.12499ZM12.3881 5.62469C16.1824 5.62469 19.2589 8.69757 19.2589 12.4918C19.2589 16.2861 16.1823 19.3627 12.3881 19.3627C8.59381 19.3627 5.52099 16.2861 5.52099 12.4918C5.52099 8.6975 8.59374 5.62469 12.3881 5.62469ZM12.3881 6.62861C9.14841 6.62861 6.52491 9.25217 6.52491 12.4918C6.52491 15.7316 9.14835 18.3587 12.3881 18.3587C15.6279 18.3587 18.255 15.7317 18.255 12.4918C18.255 9.25211 15.6278 6.62861 12.3881 6.62861ZM10.0539 14.2449C10.2498 14.4407 10.2498 14.7589 10.0539 14.9548C9.85806 15.1506 9.53994 15.1506 9.34405 14.9548L7.23795 12.8486C7.04193 12.6526 7.04193 12.3348 7.23795 12.1388L9.34405 10.0326C9.53994 9.8367 9.85806 9.8367 10.0539 10.0326C10.2498 10.2285 10.2498 10.5466 10.0539 10.7425L8.30273 12.4937L10.0539 14.2449ZM13.0508 10.1543C13.1795 9.90899 13.4832 9.81437 13.7286 9.94312C13.9739 10.0718 14.0685 10.3755 13.9398 10.6208L11.7291 14.8331C11.6003 15.0784 11.2966 15.173 11.0513 15.0443C10.806 14.9155 10.7114 14.6119 10.8401 14.3665L13.0508 10.1543ZM15.4358 14.9548C15.2399 15.1506 14.9218 15.1506 14.7259 14.9548C14.53 14.7589 14.53 14.4407 14.7259 14.2449L16.4771 12.4937L14.7259 10.7425C14.53 10.5466 14.53 10.2285 14.7259 10.0326C14.9218 9.8367 15.2399 9.8367 15.4358 10.0326L17.5419 12.1388C17.738 12.3348 17.738 12.6526 17.5419 12.8486L15.4358 14.9548Z" fill="#5CA0EF"/>
</g>
<defs>
<clipPath id="clip0_230_9088">
<rect width="32" height="32" fill="white"/>
</clipPath>
</defs>
</svg>
