<svg width="32" height="32" viewBox="0 0 32 32" fill="none" xmlns="http://www.w3.org/2000/svg">
<g clip-path="url(#clip0_230_8930)">
<path fill-rule="evenodd" clip-rule="evenodd" d="M14.2607 14.7559V18.4303C14.2607 18.534 14.3445 18.6182 14.4483 18.6182H18.122C18.2258 18.6182 18.3096 18.534 18.3096 18.4303V14.7559C18.3096 14.6521 18.2259 14.5684 18.122 14.5684H14.4483C14.3444 14.5684 14.2607 14.6521 14.2607 14.7559ZM19.9494 12.9286V20.2572H12.621V12.9286H19.9494ZM15.2712 2.20037C15.2712 1.64219 15.7255 1.18756 16.2837 1.18756C16.8435 1.18756 17.2963 1.64081 17.2963 2.20037C17.2963 2.75994 16.8435 3.21319 16.2837 3.21319C15.7255 3.21325 15.2712 2.75862 15.2712 2.20037ZM11.0752 7.58019C11.0752 8.13962 10.6224 8.59269 10.0627 8.59269C9.50467 8.59269 9.05017 8.13825 9.05017 7.58019C9.05017 7.022 9.50449 6.56737 10.0627 6.56737C10.6225 6.56731 11.0752 7.02062 11.0752 7.58019ZM3.37473 11.8016C3.37473 12.3597 2.92023 12.8141 2.36217 12.8141C1.80255 12.8141 1.34961 12.3611 1.34961 11.8016C1.34961 11.2421 1.80236 10.7888 2.36217 10.7888C2.92042 10.7888 3.37473 11.2434 3.37473 11.8016ZM8.3538 15.5803C8.91198 15.5803 9.3663 16.0349 9.3663 16.5931C9.3663 17.1513 8.91198 17.6059 8.3538 17.6059C7.79398 17.6059 7.34123 17.1527 7.34123 16.5931C7.34123 16.0336 7.79398 15.5803 8.3538 15.5803ZM3.84236 21.4143C3.84236 21.9725 3.38805 22.4274 2.8298 22.4274C2.27155 22.4274 1.81723 21.9725 1.81723 21.4143C1.81723 20.8564 2.27186 20.4017 2.8298 20.4017C3.3878 20.4018 3.84236 20.8564 3.84236 21.4143ZM11.7746 26.2601C12.333 26.2601 12.7872 26.7149 12.7872 27.2732C12.7872 27.8315 12.3328 28.2855 11.7746 28.2855C11.2165 28.2855 10.762 27.8316 10.762 27.2732C10.762 26.7149 11.2162 26.2601 11.7746 26.2601ZM15.2712 27.2212C15.2712 26.663 15.7255 26.2081 16.2837 26.2081C16.8435 26.2081 17.2963 26.6616 17.2963 27.2212C17.2963 27.7808 16.8435 28.2337 16.2837 28.2337C15.7255 28.2337 15.2712 27.7794 15.2712 27.2212ZM20.7686 24.8442C20.7686 24.2861 21.2229 23.8311 21.7811 23.8311C22.3394 23.8311 22.7937 24.2861 22.7937 24.8442C22.7937 25.4022 22.339 25.8568 21.7811 25.8568C21.2232 25.8568 20.7686 25.4022 20.7686 24.8442ZM20.4657 8.90437C20.4657 8.34481 20.9184 7.89156 21.4782 7.89156C22.0364 7.89156 22.4908 8.34619 22.4908 8.90437C22.4908 9.46256 22.0365 9.91719 21.4782 9.91719C20.9184 9.91719 20.4657 9.46394 20.4657 8.90437ZM23.6019 15.5803C24.1617 15.5803 24.6144 16.0336 24.6144 16.5931C24.6144 17.1527 24.1617 17.6059 23.6019 17.6059C23.0437 17.6059 22.5894 17.1513 22.5894 16.5931C22.5894 16.0349 23.0436 15.5803 23.6019 15.5803ZM29.3376 10.3441C29.8974 10.3441 30.35 10.7973 30.35 11.3569C30.35 11.9164 29.8973 12.3697 29.3376 12.3697C28.7794 12.3697 28.325 11.9151 28.325 11.3569C28.325 10.7987 28.7793 10.3441 29.3376 10.3441ZM30.6501 21.0893C30.6501 21.6476 30.1957 22.1019 29.6376 22.1019C29.0794 22.1019 28.625 21.6476 28.625 21.0893C28.625 20.5311 29.0794 20.0767 29.6376 20.0767C30.1957 20.0767 30.6501 20.5311 30.6501 21.0893Z" fill="#C8DFF9"/>
<path fill-rule="evenodd" clip-rule="evenodd" d="M14.9484 17.9303H17.622V15.2559H14.9484V17.9303ZM13.9483 18.4303V14.7559C13.9483 14.4797 14.1719 14.2559 14.4484 14.2559H18.1221C18.3986 14.2559 18.6222 14.4797 18.6222 14.7559V18.4303C18.6222 18.7062 18.3986 18.9306 18.1221 18.9306H14.4484C14.1719 18.9306 13.9483 18.7062 13.9483 18.4303ZM30.3377 21.0893C30.3377 20.7031 30.0229 20.3892 29.6376 20.3892C29.2523 20.3892 28.9375 20.7031 28.9375 21.0893C28.9375 21.4755 29.2523 21.7894 29.6376 21.7894C30.0229 21.7894 30.3377 21.4755 30.3377 21.0893ZM19.6369 13.2411V19.9448H12.9335V13.2411H19.6369ZM21.0812 24.8442C21.0812 25.2299 21.3959 25.5443 21.7812 25.5443C22.1665 25.5443 22.4813 25.2299 22.4813 24.8442C22.4813 24.4581 22.1666 24.1436 21.7812 24.1436C21.3959 24.1436 21.0812 24.4581 21.0812 24.8442ZM16.9838 27.2212C16.9838 26.835 16.672 26.5206 16.2837 26.5206C15.8984 26.5206 15.5837 26.835 15.5837 27.2212C15.5837 27.6074 15.8984 27.9212 16.2837 27.9212C16.672 27.9212 16.9838 27.6074 16.9838 27.2212ZM12.4747 27.2733C12.4747 26.8868 12.1599 26.5726 11.7746 26.5726C11.3893 26.5726 11.0745 26.8868 11.0745 27.2733C11.0745 27.6594 11.3893 27.973 11.7746 27.973C12.16 27.973 12.4747 27.6594 12.4747 27.2733ZM3.52998 21.4143C3.52998 21.0287 3.21523 20.7143 2.82992 20.7143C2.44461 20.7143 2.12986 21.0287 2.12986 21.4143C2.12986 21.8005 2.44461 22.1149 2.82992 22.1149C3.21523 22.115 3.52998 21.8006 3.52998 21.4143ZM9.05386 16.5931C9.05386 16.2069 8.73917 15.8928 8.3538 15.8928C7.96555 15.8928 7.65373 16.2069 7.65373 16.5931C7.65373 16.9793 7.96548 17.2935 8.3538 17.2935C8.73917 17.2935 9.05386 16.9793 9.05386 16.5931ZM3.0623 11.8016C3.0623 11.4154 2.74755 11.1012 2.36223 11.1012C1.97398 11.1012 1.66217 11.4154 1.66217 11.8016C1.66217 12.1875 1.97398 12.5017 2.36223 12.5017C2.74755 12.5017 3.0623 12.1876 3.0623 11.8016ZM10.7628 7.58019C10.7628 7.194 10.451 6.87981 10.0627 6.87981C9.67742 6.87981 9.36267 7.19394 9.36267 7.58019C9.36267 7.96606 9.67736 8.28019 10.0627 8.28019C10.451 8.28019 10.7628 7.96606 10.7628 7.58019ZM15.5837 2.20038C15.5837 2.58656 15.8985 2.90075 16.2838 2.90075C16.672 2.90075 16.9839 2.58663 16.9839 2.20038C16.9839 1.81419 16.672 1.50006 16.2838 1.50006C15.8984 1.50006 15.5837 1.81419 15.5837 2.20038ZM20.7782 8.90438C20.7782 9.29056 21.09 9.60469 21.4782 9.60469C21.8635 9.60469 22.1783 9.29056 22.1783 8.90438C22.1783 8.51819 21.8635 8.204 21.4782 8.204C21.09 8.204 20.7782 8.51819 20.7782 8.90438ZM28.6375 11.3569C28.6375 11.7431 28.9523 12.0572 29.3376 12.0572C29.7259 12.0572 30.0377 11.7431 30.0377 11.3569C30.0377 10.9707 29.7259 10.6565 29.3376 10.6565C28.9523 10.6566 28.6375 10.9707 28.6375 11.3569ZM22.9019 16.5931C22.9019 16.9793 23.2165 17.2935 23.6019 17.2935C23.9902 17.2935 24.302 16.9794 24.302 16.5931C24.302 16.2069 23.9902 15.8928 23.6019 15.8928C23.2166 15.8928 22.9019 16.2069 22.9019 16.5931ZM31.3377 21.0893C31.3377 22.027 30.5759 22.7894 29.6376 22.7894C28.8758 22.7894 28.2257 22.2838 28.014 21.5894H22.0665C21.79 21.5894 21.5665 21.3656 21.5665 21.0894V19.0912H20.637V20.4449C20.637 20.7214 20.4135 20.9449 20.137 20.9449H19.0605V24.3446H20.1547C20.3694 23.6501 21.0165 23.1436 21.7812 23.1436C22.7195 23.1436 23.4814 23.9069 23.4814 24.8443C23.4814 25.7821 22.7195 26.5444 21.7812 26.5444C21.0165 26.5444 20.3694 26.0382 20.1547 25.3444H18.5604C18.428 25.3444 18.3016 25.2914 18.2075 25.1976C18.1134 25.1038 18.0604 24.977 18.0604 24.8444V20.945H16.7839V25.5962C17.481 25.81 17.9839 26.4574 17.9839 27.2213C17.9839 28.1587 17.2221 28.9214 16.2838 28.9214C15.3484 28.9214 14.5866 28.1587 14.5866 27.2213C14.5866 26.4574 15.0896 25.81 15.7867 25.5962V20.945H14.7719V23.7952C14.7719 24.0714 14.5484 24.2952 14.2718 24.2952H12.2746V25.6483C12.9688 25.8618 13.4747 26.5095 13.4747 27.2734C13.4747 28.2108 12.7129 28.9732 11.7745 28.9732C10.8362 28.9732 10.0744 28.2107 10.0744 27.2734C10.0744 26.5095 10.5804 25.8618 11.2745 25.6483V23.7952C11.2745 23.5187 11.498 23.2951 11.7745 23.2951H13.7747V20.945H12.4334C12.1569 20.945 11.9334 20.7214 11.9334 20.4449V20.0164H10.7833V21.4144C10.7833 21.6906 10.5597 21.9144 10.2832 21.9144H4.45355C4.23886 22.6089 3.59173 23.1151 2.82992 23.1151C1.89161 23.1151 1.1298 22.3518 1.1298 21.4144C1.1298 20.477 1.89161 19.7143 2.82992 19.7143C3.59173 19.7143 4.23886 20.2208 4.45355 20.9144H9.7833V19.5163C9.7833 19.2406 10.0069 19.0162 10.2834 19.0162H11.9335V17.0931H9.97748C9.76273 17.7873 9.11567 18.2932 8.35386 18.2932C7.41555 18.2932 6.65373 17.5305 6.65373 16.5931C6.65373 15.6556 7.41555 14.8929 8.35386 14.8929C9.11567 14.8929 9.76273 15.3989 9.97748 16.093H11.9335V14.1996H10.6305C10.354 14.1996 10.1304 13.9755 10.1304 13.6996V12.3016H3.98586C3.77117 12.9957 3.12405 13.5016 2.36223 13.5016C1.42392 13.5016 0.662109 12.7389 0.662109 11.8015C0.662109 10.8638 1.42392 10.1011 2.36223 10.1011C3.12405 10.1011 3.77117 10.607 3.98586 11.3014H10.6304C10.9069 11.3014 11.1305 11.525 11.1305 11.8015V13.1995H11.9335V12.7409C11.9335 12.4647 12.157 12.2409 12.4335 12.2409H13.3836V8.08H11.6894C11.4746 8.77413 10.8275 9.28006 10.0628 9.28006C9.12742 9.28006 8.36267 8.51737 8.36267 7.57994C8.36267 6.64219 9.12742 5.87981 10.0628 5.87981C10.8275 5.87981 11.4747 6.38575 11.6894 7.07987H13.8836C14.1601 7.07987 14.3837 7.30375 14.3837 7.57994V12.2408H15.7867V3.8255C15.0896 3.61138 14.5867 2.96394 14.5867 2.20038C14.5866 1.263 15.3484 0.5 16.2838 0.5C17.2221 0.5 17.9839 1.263 17.9839 2.20038C17.9839 2.96394 17.4809 3.61138 16.7839 3.8255V12.2411H17.7574V8.90438C17.7574 8.62819 17.981 8.40462 18.2574 8.40462H19.8517C20.0664 7.71019 20.7135 7.20425 21.4783 7.20425C22.4166 7.20425 23.1784 7.96694 23.1784 8.90438C23.1784 9.84206 22.4166 10.6047 21.4783 10.6047C20.7135 10.6047 20.0664 10.0986 19.8517 9.40438H18.7575V12.2411H20.137C20.4135 12.2411 20.637 12.4649 20.637 12.7411V13.3553H21.6606V11.3569C21.6606 11.0807 21.8842 10.8569 22.1606 10.8569H27.7139C27.9287 10.1627 28.5757 9.65681 29.3375 9.65681C30.2759 9.65681 31.0377 10.4195 31.0377 11.3569C31.0377 12.2944 30.2759 13.0573 29.3375 13.0573C28.5757 13.0573 27.9286 12.5511 27.7139 11.8569H22.6607V13.8553C22.6607 14.1315 22.4371 14.3554 22.1606 14.3554H20.637V16.0931H21.9782C22.193 15.3989 22.84 14.8931 23.6019 14.8931C24.5402 14.8931 25.302 15.6558 25.302 16.5932C25.302 17.5306 24.5402 18.2933 23.6019 18.2933C22.84 18.2933 22.1929 17.7874 21.9782 17.0933H20.637V18.0912H22.0665C22.34 18.0912 22.5665 18.3151 22.5665 18.5912V20.5893H28.014C28.2257 19.8951 28.8758 19.3892 29.6376 19.3892C30.5759 19.3892 31.3377 20.1519 31.3377 21.0893ZM19.1457 3.07044C18.878 3.00662 18.7104 2.73719 18.7751 2.46831C18.8398 2.19975 19.1075 2.03356 19.3781 2.09737C23.0813 2.97687 26.2785 5.22056 28.3787 8.41575C28.5317 8.64637 28.467 8.95638 28.2375 9.10812C28.1522 9.164 28.0552 9.1905 27.964 9.1905C27.7993 9.1905 27.6404 9.11137 27.5434 8.9655C25.5815 5.98419 22.5989 3.89081 19.1457 3.07044ZM30.1877 18.6468C30.2053 18.6486 30.2259 18.6494 30.2435 18.6494C30.4935 18.6494 30.7112 18.4594 30.7377 18.2029C30.7965 17.6685 30.8259 17.1282 30.8259 16.5969C30.8259 15.7875 30.7582 14.9709 30.6289 14.1698C30.5818 13.8974 30.3259 13.7129 30.0524 13.7574C29.7817 13.8021 29.5964 14.0592 29.6405 14.3316C29.7641 15.0792 29.8259 15.8417 29.8259 16.597C29.8259 17.0926 29.7994 17.5971 29.7435 18.0965C29.7141 18.3709 29.9141 18.6174 30.1877 18.6468ZM28.6375 23.3851C28.8758 23.523 28.9582 23.8295 28.8199 24.0681C27.5316 26.2876 25.6815 28.1486 23.4695 29.4499C21.19 30.7911 18.581 31.5 15.922 31.5C13.36 31.5 10.8334 30.8388 8.61561 29.5887C6.46548 28.3763 4.63298 26.6317 3.3123 24.5424C3.16523 24.3086 3.2358 24.0001 3.46817 23.853C3.70348 23.7056 4.00942 23.7751 4.15942 24.0086C6.7243 28.073 11.1217 30.4999 15.922 30.4999C20.8605 30.4999 25.4726 27.843 27.9552 23.5662C28.0934 23.3274 28.3993 23.2462 28.6375 23.3851ZM1.7063 14.2191C1.43273 14.1832 1.18273 14.3762 1.14448 14.6501C1.06211 15.2913 1.02092 15.9463 1.02092 16.5969C1.02092 17.3029 1.07092 18.0168 1.17092 18.7189C1.20623 18.968 1.42092 19.148 1.66505 19.148C1.68861 19.148 1.71211 19.1468 1.73567 19.143C2.00923 19.1045 2.20042 18.8512 2.15923 18.5774C2.06805 17.9221 2.02098 17.2558 2.02098 16.5969C2.02098 15.9896 2.05923 15.3781 2.13573 14.7795C2.17398 14.5056 1.97986 14.2548 1.7063 14.2191ZM3.20642 8.822C5.4183 5.21381 9.05973 2.706 13.2012 1.94212C13.4748 1.89213 13.7365 2.07156 13.7865 2.34306C13.8365 2.61456 13.6571 2.87544 13.3836 2.92544C9.52155 3.63812 6.1213 5.97769 4.05942 9.34437C3.9653 9.4985 3.80061 9.5835 3.63292 9.5835C3.54467 9.5835 3.45348 9.55969 3.37111 9.50969C3.1358 9.36531 3.0623 9.05762 3.20642 8.822Z" fill="#5CA0EF"/>
</g>
<defs>
<clipPath id="clip0_230_8930">
<rect width="32" height="32" fill="white"/>
</clipPath>
</defs>
</svg>
