<svg width="32" height="32" viewBox="0 0 32 32" fill="none" xmlns="http://www.w3.org/2000/svg">
<g clip-path="url(#clip0_230_8935)">
<path fill-rule="evenodd" clip-rule="evenodd" d="M3.30453 23.656C3.29097 23.563 3.20466 23.4982 3.11153 23.5118C3.0181 23.5254 2.95385 23.6123 2.96741 23.7057C2.98103 23.7992 3.0681 23.8623 3.16128 23.8488C3.25441 23.8353 3.3181 23.749 3.30453 23.656ZM16.729 12.5862C16.7284 12.5862 16.7277 12.5862 16.7257 12.5862C15.1108 12.5852 13.7976 11.2717 13.7976 9.65671C13.7976 8.04103 15.1113 6.7269 16.7271 6.7269C18.3427 6.7269 19.6572 8.04109 19.6572 9.65671C19.6572 11.2717 18.3439 12.5853 16.729 12.5862ZM7.79147 29.2679C7.85978 29.3886 7.87635 29.531 7.83959 29.6643C7.80285 29.7977 7.71466 29.9115 7.59403 29.9797L6.24141 30.7452C6.12116 30.8132 5.97734 30.8302 5.84453 30.7929C5.71135 30.7555 5.5986 30.6685 5.53022 30.5477L1.55322 23.5221C1.41222 23.273 1.50166 22.9509 1.75072 22.81L3.1061 22.043C3.18341 22.0002 3.2701 21.9775 3.35847 21.9775C3.4061 21.9775 3.4541 21.9838 3.49997 21.9965C3.63366 22.0337 3.74691 22.1206 3.81547 22.2417L7.79147 29.2679ZM4.03997 19.6882C3.48322 18.4323 3.12997 17.1038 2.98647 15.7375L2.95022 15.3923H4.92578L4.95822 15.6684C5.08347 16.7355 5.36091 17.7753 5.78378 18.7628L5.89297 19.0178L4.18091 20.006L4.03997 19.6882ZM6.95297 7.85228L5.23672 6.86121L5.44128 6.5804C6.24997 5.47028 7.22078 4.49871 8.33028 3.68928L8.61116 3.48434L9.59478 5.18778L9.37347 5.35409C8.51472 5.9994 7.75753 6.7644 7.11884 7.62796L6.95297 7.85228ZM17.4884 1.23309L17.1433 1.19678V3.17196L17.4192 3.20446C20.0655 3.5159 22.4947 4.75521 24.3093 6.70646C26.2449 8.78784 27.3102 11.4995 27.3102 14.3418C27.3102 14.8075 27.2808 15.2742 27.2237 15.7363C27.212 15.8305 27.1322 15.9006 27.0375 15.9006H26.0985L28.3489 18.7599L30.6 15.9006H29.3965C29.3428 15.9006 29.293 15.8782 29.257 15.8384C29.2215 15.7992 29.2043 15.7467 29.2096 15.6941C29.2554 15.2451 29.2783 14.7931 29.2783 14.3418C29.2783 7.61965 24.174 1.93584 17.4884 1.23309Z" fill="#C8DFF9"/>
<path fill-rule="evenodd" clip-rule="evenodd" d="M16.7275 12.2738C16.7275 12.2738 16.727 12.2738 16.7264 12.2738C15.2837 12.2729 14.1105 11.0991 14.1105 9.65679C14.1105 8.21354 15.2842 7.03947 16.7275 7.03947C18.1704 7.03947 19.3451 8.21354 19.3451 9.65679C19.3451 11.0992 18.1719 12.2729 16.7293 12.2738C16.7287 12.2738 16.7281 12.2738 16.7275 12.2738ZM22.2737 17.7755H11.182C11.7206 15.1738 14.0132 13.2746 16.7264 13.2737C16.7269 13.2737 16.7275 13.274 16.7275 13.274C16.7282 13.274 16.7287 13.2737 16.7293 13.2737C19.4425 13.2746 21.735 15.1738 22.2737 17.7755ZM20.345 9.65672C20.345 7.66216 18.7226 6.03947 16.7275 6.03947C14.733 6.03947 13.1105 7.66216 13.1105 9.65672C13.1105 10.8732 13.7151 11.9505 14.6382 12.6065C12.2107 13.4031 10.3862 15.5545 10.1005 18.2224C10.0855 18.3635 10.1311 18.5045 10.2261 18.6101C10.3211 18.7151 10.4562 18.7757 10.5979 18.7757H22.8573C22.9994 18.7757 23.1341 18.7151 23.2292 18.6101C23.3242 18.5045 23.37 18.3636 23.3542 18.2224C23.0685 15.5544 21.2449 13.4031 18.8167 12.6065C19.7405 11.9505 20.345 10.8732 20.345 9.65672ZM3.61417 23.6109C3.65329 23.8745 3.4706 24.1202 3.20673 24.1581C2.94254 24.1969 2.69748 24.0145 2.65867 23.7507C2.62073 23.4865 2.8031 23.2414 3.06698 23.2026C3.3306 23.1646 3.57623 23.347 3.61417 23.6109ZM26.1036 22.8307L17.3556 28.2177C16.6793 28.634 15.9368 28.7382 15.1492 28.5269L8.80379 26.8263C8.67554 26.7927 8.53935 26.8101 8.42429 26.8763L7.52323 27.397L5.2086 23.3076L8.74054 21.2625C9.52985 20.8056 10.3827 20.422 11.2675 20.7094C11.5594 20.8039 11.8968 20.9259 12.2875 21.0671C13.4095 21.4728 14.8036 21.977 16.253 22.2427C16.7175 22.4077 16.977 22.8552 16.8587 23.2964C16.7031 23.8771 16.215 23.9495 15.825 23.905C15.1192 23.7594 14.4474 23.5676 13.7363 23.3643C13.3974 23.2682 13.0467 23.1675 12.686 23.0714C12.4198 23.0002 12.1456 23.1581 12.0745 23.4252C12.0024 23.6915 12.1612 23.9657 12.4275 24.0368C12.7799 24.1313 13.1267 24.2307 13.4618 24.3263C14.1987 24.537 15.6625 24.892 15.6661 24.8927L16.2657 24.99C17.1794 25.1362 17.9907 24.9939 18.745 24.5547L23.5655 21.7464C24.9152 20.9607 25.9463 20.8689 26.3249 21.5014C26.5837 21.9332 26.472 22.6045 26.1036 22.8307ZM7.53885 29.5813C7.54735 29.5495 7.55679 29.4872 7.52004 29.4219L3.54385 22.3957C3.50679 22.3307 3.44823 22.3065 3.41679 22.2977C3.40267 22.2939 3.38267 22.29 3.35885 22.29C3.32942 22.29 3.29385 22.2965 3.25767 22.3165L1.90504 23.082C1.80617 23.1382 1.76998 23.2688 1.8256 23.3682L5.8026 30.3939C5.83935 30.4589 5.8976 30.4833 5.92942 30.4921C5.9606 30.5009 6.02323 30.51 6.08798 30.4733L7.4406 29.7079C7.5056 29.6713 7.52998 29.6124 7.53885 29.5813ZM23.0624 20.8827L18.242 23.69C18.0587 23.7971 17.8725 23.8795 17.6813 23.9374C17.7401 23.8195 17.7881 23.6921 17.8249 23.555C18.0811 22.5983 17.5139 21.5996 16.5325 21.2813C16.5114 21.2745 16.4893 21.2689 16.4675 21.2651C15.0875 21.0162 13.7237 20.5232 12.6276 20.1269C12.2449 19.9881 11.8839 19.8584 11.5762 19.7583C10.3151 19.3488 9.18192 19.8522 8.23935 20.3975L4.71623 22.4371L4.41379 21.9032C4.25498 21.6225 3.99579 21.4207 3.68367 21.3345C3.37185 21.2478 3.0456 21.2878 2.76492 21.4464L1.4126 22.2121C0.831915 22.5401 0.626853 23.2803 0.955728 23.8607L4.93185 30.8864C5.09073 31.167 5.34985 31.3697 5.66198 31.4559C5.76992 31.4859 5.87935 31.5 5.98823 31.5C6.19442 31.5 6.39742 31.4476 6.58073 31.344L7.93304 30.5783C8.21367 30.4194 8.41635 30.1602 8.5026 29.8484C8.58879 29.5363 8.54879 29.21 8.38991 28.9294L8.01573 28.2678L8.74498 27.8465L14.8907 29.4928C15.2375 29.5857 15.5825 29.6319 15.9227 29.6319C16.6093 29.6319 17.2732 29.4427 17.8799 29.0694L26.6282 23.6827C27.4575 23.172 27.7219 21.8876 27.183 20.9877C26.9217 20.552 25.8539 19.257 23.0624 20.8827ZM8.51491 3.94172L9.18623 5.10435C8.30429 5.7671 7.52735 6.55079 6.8681 7.44216L5.69429 6.76435C6.48504 5.67885 7.43054 4.73279 8.51491 3.94172ZM4.72267 7.35804C4.60235 7.28891 4.51673 7.17329 4.48554 7.03854C4.45435 6.90379 4.47998 6.76229 4.55673 6.64729C5.5781 5.11847 6.86985 3.82554 8.39754 2.80447C8.51254 2.72741 8.65379 2.70179 8.78879 2.73297C8.92385 2.76447 9.03941 2.85004 9.10798 2.9701L10.2779 4.99554C10.4082 5.22116 10.3432 5.50891 10.1294 5.65716C9.06679 6.39116 8.15685 7.30841 7.42554 8.38391C7.32935 8.52541 7.17254 8.60279 7.01192 8.60279C6.92692 8.60279 6.84073 8.58104 6.76185 8.53572L4.72267 7.35804ZM28.3494 18.2547L29.9568 16.2131H29.397C29.2549 16.2131 29.1207 16.1533 29.0257 16.048C28.9307 15.9433 28.8848 15.803 28.8992 15.6623C28.9437 15.2264 28.9663 14.7822 28.9663 14.3418C28.9663 7.74804 23.9517 2.2266 17.4562 1.54378V2.8941C20.1656 3.21297 22.6661 4.48004 24.5385 6.49366C26.5275 8.63235 27.623 11.4194 27.623 14.3418C27.623 14.8198 27.593 15.302 27.5342 15.7747C27.5036 16.0251 27.2907 16.2131 27.0379 16.2131H26.7425L28.3494 18.2547ZM31.1244 15.6465C30.9944 15.3794 30.7294 15.2132 30.4319 15.2132H29.9392C29.9568 14.9232 29.9662 14.6316 29.9662 14.3418C29.9662 10.7926 28.6262 7.41597 26.1937 4.83366C23.772 2.26278 20.5025 0.724285 16.9873 0.500972C16.8499 0.49241 16.7143 0.54066 16.6137 0.63541C16.513 0.729847 16.4563 0.86191 16.4563 0.99991V3.34778C16.4563 3.60904 16.6569 3.82641 16.9175 3.84641C22.3599 4.26622 26.6231 8.8766 26.6231 14.3418C26.6231 14.6319 26.6114 14.9235 26.5875 15.2132H26.2675C25.9698 15.2132 25.705 15.3792 25.575 15.6465C25.445 15.9139 25.4788 16.2252 25.6629 16.4588L27.7449 19.1032C27.8919 19.29 28.1126 19.397 28.35 19.397C28.5874 19.397 28.8074 19.2894 28.9542 19.1032L31.0361 16.4588C31.22 16.2252 31.2535 15.914 31.1244 15.6465ZM4.32929 9.12397L5.51367 9.80797C5.08442 10.8167 4.79823 11.8798 4.66054 12.9789H3.2976C3.43885 11.6418 3.78448 10.3495 4.32929 9.12397ZM2.75367 13.9788H5.11067C5.36985 13.9788 5.58635 13.7805 5.60873 13.522C5.72142 12.2237 6.05767 10.9764 6.60685 9.81472C6.71867 9.57935 6.63067 9.29785 6.40504 9.16779L4.35873 7.98604C4.23873 7.91691 4.09542 7.90041 3.96367 7.94041C3.83129 7.98041 3.72185 8.07341 3.66067 8.19722C2.84579 9.8426 2.37248 11.6088 2.25448 13.4468C2.24567 13.5845 2.29448 13.7202 2.3886 13.8207C2.48304 13.9218 2.61573 13.9788 2.75367 13.9788ZM4.64823 15.7048C4.77735 16.8047 5.06242 17.8712 5.49692 18.8857L4.3261 19.5615C3.78304 18.3365 3.43829 17.0433 3.29767 15.7048H4.64823ZM3.65623 20.4882C3.71742 20.612 3.82742 20.7053 3.95985 20.745C4.00748 20.7594 4.05635 20.767 4.10485 20.767C4.19192 20.767 4.27817 20.7438 4.35492 20.6994L6.38942 19.525C6.61479 19.3944 6.70304 19.1125 6.59067 18.8769C6.03435 17.7099 5.70048 16.4611 5.59985 15.1661C5.58017 14.9058 5.36242 14.7048 5.10123 14.7048H2.75367C2.61573 14.7048 2.48304 14.7619 2.3886 14.8628C2.29448 14.9634 2.24567 15.099 2.25448 15.2367C2.37242 17.0768 2.84429 18.844 3.65623 20.4882ZM14.73 1.54416V2.89329C13.6257 3.02129 12.5575 3.30454 11.5449 3.73847L10.8742 2.57647C12.1001 2.03103 13.3924 1.68479 14.73 1.54416ZM10.9051 4.63066C10.9975 4.7901 11.1649 4.88072 11.3387 4.88072C11.4111 4.88072 11.4844 4.86485 11.5538 4.83191C12.717 4.27679 13.9667 3.94497 15.2681 3.8461C15.5287 3.82641 15.73 3.60897 15.73 3.34747V1.00053C15.73 0.862222 15.6729 0.73016 15.5717 0.635722C15.4714 0.541285 15.3364 0.492472 15.1981 0.501285C13.36 0.61866 11.5932 1.09172 9.9476 1.90778C9.82316 1.96897 9.73048 2.07872 9.69079 2.2111C9.65079 2.34316 9.66698 2.48616 9.73641 2.6056L10.9051 4.63066Z" fill="#5CA0EF"/>
</g>
<defs>
<clipPath id="clip0_230_8935">
<rect width="32" height="32" fill="white"/>
</clipPath>
</defs>
</svg>
