<svg width="32" height="32" viewBox="0 0 32 32" fill="none" xmlns="http://www.w3.org/2000/svg">
<g clip-path="url(#clip0_230_8946)">
<path fill-rule="evenodd" clip-rule="evenodd" d="M15.955 8.45852C12.8483 8.45852 10.3097 7.68374 10.1437 6.70963C10.14 6.67643 10.1364 6.64324 10.1364 6.61005V2.84283C10.1364 3.00152 10.199 3.1528 10.3134 3.29667C10.4278 3.44425 10.5975 3.58448 10.8189 3.71361C11.7967 4.30028 13.7301 4.69507 15.955 4.69507C19.1686 4.69507 21.7736 3.86859 21.7736 2.84283V6.61005C21.7736 7.63204 19.1686 8.45852 15.955 8.45852ZM3.6083 18.2505V20.5484C3.6083 20.663 3.516 20.7553 3.40143 20.7553H1.10352C1.12259 20.7108 1.15126 20.6694 1.18941 20.6344L3.48739 18.3364C3.52554 18.2983 3.56375 18.2696 3.6083 18.2505ZM23.271 18.2505V20.5484C23.271 20.663 23.1787 20.7553 23.0641 20.7553H20.7662C20.7853 20.7108 20.8139 20.6694 20.8522 20.6344L23.1501 18.3364C23.1883 18.2983 23.2264 18.2696 23.271 18.2505Z" fill="#C8DFF9"/>
<path fill-rule="evenodd" clip-rule="evenodd" d="M9.61971 2.81094C9.61971 2.3615 9.90714 1.89674 10.5151 1.52347C11.5433 0.89213 13.6109 0.438232 15.9994 0.438232C18.388 0.438232 20.4556 0.89213 21.4838 1.52347C22.0917 1.89674 22.3792 2.3615 22.3792 2.81094V10.4149C22.3792 10.8643 22.0917 11.3291 21.4838 11.7024C20.4556 12.3337 18.388 12.7875 15.9994 12.7875C13.6109 12.7875 11.5433 12.3337 10.5151 11.7024C9.90714 11.3291 9.61971 10.8643 9.61971 10.4149V2.81094ZM21.3753 2.81094C21.3753 2.72667 21.31 2.65828 21.2307 2.58242C21.0713 2.43001 20.8356 2.29348 20.5432 2.16655C19.5191 1.72187 17.8645 1.44215 15.9994 1.44215C14.1344 1.44215 12.4798 1.72187 11.4556 2.16655C11.1633 2.29348 10.9276 2.43008 10.7682 2.58248C10.6889 2.65828 10.6236 2.72667 10.6236 2.81094C10.6236 2.89527 10.6889 2.96366 10.7682 3.03946C10.9276 3.19186 11.1633 3.32846 11.4556 3.45539C12.4798 3.90007 14.1344 4.17979 15.9994 4.17979C17.8645 4.17979 19.5191 3.90007 20.5432 3.45539C20.8356 3.32846 21.0713 3.19186 21.2307 3.03946C21.31 2.96366 21.3753 2.8952 21.3753 2.81094ZM21.3753 6.61291V4.16228C20.3145 4.76018 18.3068 5.18371 15.9994 5.18371C13.6922 5.18371 11.6843 4.76018 10.6236 4.16228V6.61291C10.6236 6.69724 10.6889 6.76564 10.7682 6.84143C10.9276 6.99384 11.1633 7.13044 11.4556 7.25737C12.4798 7.70204 14.1344 7.9817 15.9994 7.9817C17.8645 7.9817 19.5191 7.70204 20.5432 7.25737C20.8356 7.13044 21.0713 6.99384 21.2307 6.84143C21.31 6.76564 21.3753 6.69724 21.3753 6.61291ZM10.6236 7.96426V10.4149C10.6236 10.4992 10.6889 10.5676 10.7682 10.6433C10.9276 10.7958 11.1633 10.9324 11.4556 11.0593C12.4798 11.504 14.1344 11.7837 15.9994 11.7837C17.8645 11.7837 19.5191 11.504 20.5432 11.0593C20.8356 10.9324 21.0713 10.7958 21.2307 10.6433C21.31 10.5676 21.3753 10.4992 21.3753 10.4149V7.96426C20.3145 8.56209 18.3068 8.98562 15.9994 8.98562C13.6922 8.98562 11.6843 8.56209 10.6236 7.96426ZM11.6931 9.12586C12.0569 9.12586 12.3519 9.42082 12.3519 9.78474C12.3519 10.1486 12.0569 10.4436 11.6931 10.4436C11.3291 10.4436 11.0341 10.1486 11.0341 9.78474C11.0341 9.42082 11.3291 9.12586 11.6931 9.12586ZM11.6931 5.3257C12.0569 5.3257 12.3519 5.62073 12.3519 5.98465C12.3519 6.34857 12.0569 6.64353 11.6931 6.64353C11.3291 6.64353 11.0341 6.34857 11.0341 5.98465C11.0341 5.62073 11.3291 5.3257 11.6931 5.3257ZM10.8779 17.8128C11.3779 17.8128 11.7863 18.2212 11.7863 18.7211V30.6534C11.7863 31.1534 11.3779 31.5618 10.8779 31.5618H1.53531C1.03536 31.5618 0.626953 31.1534 0.626953 30.6534V20.9847C0.626953 20.7381 0.717494 20.5192 0.893682 20.3431C0.893682 20.3431 3.15433 18.0824 3.15426 18.0825C3.33202 17.8997 3.55087 17.8128 3.79884 17.8128H10.8779ZM3.12879 19.5333L2.34749 20.3146H3.12879V19.5333ZM1.63483 21.3225V30.5539H10.7784V18.8207H4.13666V20.6148C4.13666 21.0068 3.82087 21.3225 3.4289 21.3225H1.63483ZM9.05017 28.1085C9.32832 28.1085 9.55414 28.3343 9.55414 28.6125C9.55414 28.8906 9.32832 29.1164 9.05017 29.1164H3.36308C3.08493 29.1164 2.85911 28.8906 2.85911 28.6125C2.85911 28.3343 3.08493 28.1085 3.36308 28.1085H9.05017ZM9.05017 25.4907C9.32832 25.4907 9.55414 25.7165 9.55414 25.9946C9.55414 26.2728 9.32832 26.4986 9.05017 26.4986H3.36308C3.08493 26.4986 2.85911 26.2728 2.85911 25.9946C2.85911 25.7165 3.08493 25.4907 3.36308 25.4907H9.05017ZM9.05017 20.2551C9.32832 20.2551 9.55414 20.4808 9.55414 20.759C9.55414 21.0371 9.32832 21.263 9.05017 21.263H5.47615C5.198 21.263 4.97224 21.0371 4.97224 20.759C4.97224 20.4808 5.198 20.2551 5.47615 20.2551H9.05017ZM9.05017 22.8729C9.32832 22.8729 9.55414 23.0987 9.55414 23.3768C9.55414 23.6549 9.32832 23.8807 9.05017 23.8807H3.36308C3.08493 23.8807 2.85911 23.6549 2.85911 23.3768C2.85911 23.0987 3.08493 22.8729 3.36308 22.8729H9.05017ZM30.4636 17.8128C30.9635 17.8128 31.3719 18.2212 31.3719 18.7211V30.6534C31.3719 31.1534 30.9635 31.5618 30.4636 31.5618H21.1209C20.621 31.5618 20.2126 31.1534 20.2126 30.6534V20.9847C20.2126 20.7381 20.3031 20.5192 20.4793 20.3431C20.4793 20.3431 22.74 18.0824 22.7399 18.0825C22.9176 17.8997 23.1365 17.8128 23.3845 17.8128H30.4636ZM22.7144 19.5333L21.9331 20.3146H22.7144V19.5333ZM21.2205 21.3225V30.5539H30.364V18.8207H23.7222V20.6148C23.7222 21.0068 23.4065 21.3225 23.0145 21.3225H21.2205ZM28.6358 22.8729C28.9139 22.8729 29.1398 23.0987 29.1398 23.3768C29.1398 23.6549 28.9139 23.8807 28.6358 23.8807H22.9487C22.6706 23.8807 22.4447 23.6549 22.4447 23.3768C22.4447 23.0987 22.6706 22.8729 22.9487 22.8729H28.6358ZM28.6358 28.1085C28.9139 28.1085 29.1398 28.3343 29.1398 28.6125C29.1398 28.8906 28.9139 29.1164 28.6358 29.1164H22.9487C22.6706 29.1164 22.4447 28.8906 22.4447 28.6125C22.4447 28.3343 22.6706 28.1085 22.9487 28.1085H28.6358ZM28.6358 20.2551C28.9139 20.2551 29.1398 20.4808 29.1398 20.759C29.1398 21.0371 28.9139 21.263 28.6358 21.263H25.0618C24.7836 21.263 24.5578 21.0371 24.5578 20.759C24.5578 20.4808 24.7836 20.2551 25.0618 20.2551H28.6358ZM28.6358 25.4907C28.9139 25.4907 29.1398 25.7165 29.1398 25.9946C29.1398 26.2728 28.9139 26.4986 28.6358 26.4986H22.9487C22.6706 26.4986 22.4447 26.2728 22.4447 25.9946C22.4447 25.7165 22.6706 25.4907 22.9487 25.4907H28.6358ZM6.70858 16.4435C6.70858 16.7205 6.48364 16.9455 6.20662 16.9455C5.9296 16.9455 5.70466 16.7205 5.70466 16.4435V6.61291C5.70466 6.33571 5.92942 6.11095 6.20662 6.11095H8.16414C8.44116 6.11095 8.66611 6.33589 8.66611 6.61291C8.66611 6.89 8.44116 7.11487 8.16414 7.11487H6.70858V16.4435ZM26.2942 16.4435C26.2942 16.7205 26.0693 16.9455 25.7923 16.9455C25.5152 16.9455 25.2903 16.7205 25.2903 16.4435V7.11487H23.8347C23.5577 7.11487 23.3328 6.89 23.3328 6.61291C23.3328 6.33589 23.5577 6.11095 23.8347 6.11095H25.7923C26.0695 6.11095 26.2942 6.33571 26.2942 6.61291V16.4435Z" fill="#5CA0EF"/>
</g>
<defs>
<clipPath id="clip0_230_8946">
<rect width="32" height="32" fill="white"/>
</clipPath>
</defs>
</svg>
