<svg width="32" height="32" viewBox="0 0 32 32" fill="none" xmlns="http://www.w3.org/2000/svg">
<path fill-rule="evenodd" clip-rule="evenodd" d="M15.1468 23.0259C15.0933 23.0263 15.0396 23.0265 14.9858 23.0265C11.093 23.0265 7.9375 22.0209 7.9375 20.7829V16.2241C7.9375 17.4621 11.093 18.4677 14.9858 18.4677C15.8316 18.4677 16.6427 18.4202 17.3941 18.3332L17.9817 17.7459L18.8025 18.1104C19.7173 17.9223 20.4867 17.6687 21.045 17.3704L21.4543 16.3069H22.0294C22.0325 16.2794 22.0341 16.2518 22.0341 16.2241V16.3069H23.4293L23.8946 17.5159C24.5392 17.6693 25.1544 17.9243 25.7179 18.2716L26.5047 17.9226L26.9027 17.7459L28.2987 19.1419L27.773 20.3267C28.1203 20.8902 28.3753 21.5055 28.5287 22.15L29.7377 22.6153V24.5903L28.5287 25.0556C28.3753 25.6993 28.1203 26.3145 27.773 26.8781L28.2987 28.0629L26.9027 29.4597L26.5047 29.2831L26.5048 29.2829L25.7179 28.9332C25.1544 29.2805 24.5392 29.5364 23.8946 29.6898L23.4293 30.8979H21.4543L20.989 29.6889C20.3453 29.5356 19.7301 29.2805 19.1666 28.9332L17.9817 29.4597L16.5849 28.0629L17.1114 26.8789C16.7642 26.3145 16.5082 25.6993 16.3548 25.0556L15.1468 24.5903V23.0259ZM19.0375 22.6187C18.9474 22.9311 18.8991 23.2613 18.8991 23.6028C18.8991 25.5591 20.4855 27.1455 22.4418 27.1455C24.3989 27.1455 25.9853 25.5591 25.9853 23.6028C25.9853 21.6457 24.3989 20.0593 22.4418 20.0593C22.3039 20.0593 22.1679 20.0672 22.0341 20.0825C20.6009 20.2468 19.4276 21.2666 19.0375 22.6187ZM14.9858 13.9044C11.2226 13.9044 8.14757 12.9658 7.94647 11.7859C7.94202 11.7457 7.9375 11.7055 7.9375 11.6653V7.10199C7.9375 7.29418 8.01348 7.47739 8.15209 7.6517C8.29063 7.83046 8.49618 8.00031 8.76435 8.15673C9.94879 8.86739 12.2908 9.34563 14.9858 9.34563C18.8787 9.34563 22.0341 8.34447 22.0341 7.10199V11.6653C22.0341 12.9033 18.8787 13.9044 14.9858 13.9044Z" fill="#C8DFF9"/>
<path fill-rule="evenodd" clip-rule="evenodd" d="M7.02756 7.42606C7.02756 6.88727 7.37875 6.33963 8.09649 5.89201C9.38822 5.08636 11.9866 4.51268 14.9864 4.51268C17.9871 4.51268 20.5851 5.08642 21.8766 5.89207C22.5942 6.3397 22.9453 6.88727 22.9453 7.42606V15.644H23.4526C23.6603 15.644 23.8466 15.772 23.9212 15.9659L24.3039 16.9621C24.8338 17.1101 25.3434 17.3212 25.8233 17.5917L26.7981 17.1583C26.9879 17.0739 27.2101 17.1151 27.357 17.262L28.7832 18.6882C28.9299 18.835 28.9713 19.0568 28.8873 19.2465L28.4553 20.2215C28.7261 20.7019 28.9373 21.212 29.0854 21.7436L30.0795 22.1262C30.2734 22.2008 30.4012 22.387 30.4012 22.5947V24.6121C30.4012 24.8198 30.2734 25.006 30.0795 25.0807L29.0852 25.4633C28.9368 25.9932 28.7246 26.5028 28.4551 26.9826L28.8873 27.9583C28.9713 28.148 28.9299 28.3698 28.7832 28.5165L27.357 29.9428C27.2103 30.0895 26.9884 30.1308 26.7987 30.0468L25.824 29.6151C25.3449 29.8855 24.8341 30.0967 24.3037 30.2448L23.9211 31.2391C23.8465 31.4329 23.6603 31.5608 23.4526 31.5608H21.4351C21.2275 31.5608 21.0412 31.4329 20.9666 31.2391C20.9666 31.2391 20.584 30.2449 20.584 30.245C20.0526 30.0966 19.5426 29.8843 19.0626 29.6146L18.087 30.0468C17.8973 30.1308 17.6754 30.0895 17.5287 29.9428L16.1024 28.5165C15.9556 28.3696 15.9143 28.1474 15.9987 27.9576C15.9987 27.9576 16.432 26.9831 16.432 26.9832C16.1616 26.5043 15.9504 25.9937 15.8011 25.4636L14.8061 25.0807C14.6123 25.006 14.4844 24.8198 14.4844 24.6121V23.3718C11.9451 23.3227 9.48115 22.9024 8.18345 22.1481C7.42474 21.7071 7.02756 21.1359 7.02756 20.5059V7.42606ZM21.9404 7.42606C21.9404 7.28181 21.8463 7.1545 21.7127 7.02468C21.5012 6.81926 21.1894 6.63328 20.8015 6.46217C19.4908 5.88391 17.3736 5.51761 14.9864 5.51761C12.5998 5.51761 10.4825 5.88398 9.17162 6.46217C8.78361 6.63334 8.47183 6.81926 8.26019 7.02475C8.12654 7.1545 8.03242 7.28181 8.03242 7.42606C8.03242 7.60953 8.13595 7.76602 8.29194 7.91278C8.5219 8.12919 8.85752 8.31253 9.26637 8.47485C10.6527 9.02537 12.8202 9.29217 14.9865 9.29223C17.1527 9.29235 19.3201 9.02569 20.7065 8.47516C21.1153 8.31284 21.451 8.1295 21.6809 7.91303C21.8368 7.76621 21.9404 7.60966 21.9404 7.42606ZM21.9404 11.786V8.97606C21.8917 9.00749 21.8414 9.03836 21.7894 9.06861C20.4063 9.87268 17.6984 10.2973 14.9864 10.2972C12.2744 10.297 9.56654 9.87231 8.18345 9.06835C8.13144 9.03805 8.08105 9.00724 8.03242 8.97574V11.786C8.03242 11.9695 8.13595 12.126 8.29194 12.2727C8.5219 12.4892 8.85752 12.6725 9.26637 12.8348C10.6527 13.3853 12.8202 13.6521 14.9865 13.6522C17.1527 13.6523 19.3201 13.3857 20.7065 12.8351C21.1153 12.6728 21.451 12.4895 21.6809 12.273C21.8368 12.1262 21.9404 11.9696 21.9404 11.786ZM21.9404 15.644V13.336C21.8917 13.3675 21.8414 13.3983 21.7894 13.4286C20.4063 14.2327 17.6984 14.6572 14.9864 14.6571C12.2744 14.657 9.56654 14.2323 8.18345 13.4283C8.13144 13.398 8.08105 13.3671 8.03242 13.3357V16.146C8.03242 16.3772 8.18991 16.5638 8.41862 16.7401C8.75092 16.9961 9.22979 17.206 9.80472 17.3821C11.6373 17.9438 14.3931 18.1273 16.8471 17.9436L17.5287 17.262C17.6756 17.1151 17.8978 17.0739 18.0876 17.1583L19.0624 17.5917C19.5424 17.3212 20.0522 17.11 20.5822 16.9619L20.9668 15.9653C21.0415 15.7717 21.2276 15.644 21.4351 15.644H21.9404ZM14.5386 22.3679C14.5936 22.2593 14.6875 22.1719 14.8061 22.1262C14.8061 22.1262 15.801 21.7433 15.801 21.7434C15.9502 21.212 16.1616 20.702 16.4322 20.222L15.9987 19.2472C15.9632 19.1674 15.95 19.0818 15.9574 18.9986C13.1739 19.0979 10.2148 18.7536 8.57122 17.9894C8.37351 17.8975 8.19368 17.7982 8.03242 17.6925V20.5059C8.03242 20.6894 8.13595 20.8459 8.29188 20.9926C8.52184 21.209 8.85752 21.3923 9.26631 21.5546C10.5572 22.0671 12.525 22.3336 14.5386 22.3679ZM23.4594 17.5634L23.1077 16.648H21.7794L21.4259 17.564C21.3664 17.7183 21.2346 17.8334 21.0737 17.8717C20.4674 18.0157 19.8893 18.2552 19.3579 18.5827C19.2169 18.6696 19.042 18.6813 18.8907 18.614L17.9948 18.2157L17.0561 19.1543L17.4545 20.0502C17.5217 20.2016 17.5101 20.3764 17.4231 20.5175C17.0955 21.0492 16.8558 21.6279 16.7098 22.2364C16.6712 22.397 16.5562 22.5284 16.402 22.5877L15.4884 22.9394V24.2675L16.402 24.6191C16.556 24.6784 16.6711 24.8097 16.7097 24.9701C16.8557 25.5766 17.0951 26.1569 17.4227 26.6867C17.51 26.8278 17.5219 27.003 17.4545 27.1546L17.0561 28.0504L17.9952 28.9895L18.8913 28.5925C19.0421 28.5257 19.2161 28.5373 19.3568 28.6234C19.8885 28.9492 20.4669 29.191 21.0754 29.3351C21.2366 29.3733 21.3686 29.4886 21.4281 29.6432L21.7797 30.5569H23.1079L23.4596 29.6432C23.519 29.4887 23.6509 29.3735 23.8119 29.3351C24.4179 29.1911 24.9978 28.9518 25.5271 28.6246C25.6681 28.5374 25.8429 28.5254 25.9944 28.5925L26.8905 28.9895L27.8299 28.0501L27.433 27.1539C27.3661 27.0032 27.3777 26.8291 27.4639 26.6884C27.7897 26.1567 28.0314 25.5782 28.1756 24.9715C28.2139 24.8104 28.3291 24.6786 28.4837 24.6191L29.3973 24.2675V22.9394L28.4837 22.5877C28.329 22.5282 28.2138 22.3962 28.1755 22.235C28.0315 21.6269 27.792 21.0488 27.4646 20.5175C27.3778 20.3766 27.3659 20.2021 27.433 20.0508L27.8299 19.1547L26.8909 18.2157L25.995 18.614C25.8437 18.6813 25.6688 18.6696 25.5278 18.5827C24.9964 18.2552 24.4182 18.0157 23.8119 17.8717C23.6508 17.8333 23.5189 17.718 23.4594 17.5634ZM22.4428 19.5815C24.6645 19.5815 26.4658 21.3808 26.4658 23.6024C26.4658 25.8239 24.6644 27.6253 22.4428 27.6253C20.2212 27.6253 18.4219 25.8241 18.4219 23.6024C18.4219 21.3807 20.2211 19.5815 22.4428 19.5815ZM22.4428 20.5854C20.7758 20.5854 19.4259 21.9354 19.4259 23.6024C19.4259 25.2695 20.7758 26.6214 22.4428 26.6214C24.11 26.6214 25.4619 25.2696 25.4619 23.6024C25.4619 21.9353 24.1099 20.5854 22.4428 20.5854ZM27.3671 14.0635C27.3685 13.9845 27.3693 13.9053 27.3693 13.826C27.3693 6.99168 21.8207 1.44313 14.9864 1.44313C8.15214 1.44313 2.60353 6.99168 2.60353 13.826C2.60353 20.3355 7.63707 25.6787 14.021 26.1717C14.2972 26.1931 14.5041 26.4346 14.4828 26.7108C14.4615 26.9871 14.2199 27.194 13.9437 27.1727C7.04193 26.6397 1.59961 20.8635 1.59961 13.826C1.59961 6.43764 7.59804 0.439209 14.9864 0.439209C22.3748 0.439209 28.3732 6.43764 28.3732 13.826C28.3732 13.8912 28.3728 13.9563 28.3718 14.0213L29.0015 13.3395C29.1894 13.1359 29.5072 13.1233 29.7107 13.3112C29.9143 13.4992 29.927 13.817 29.739 14.0205L28.2321 15.6524C28.138 15.7543 28.0059 15.8127 27.8673 15.8138C27.7286 15.8149 27.5957 15.7586 27.5 15.6582L26.0089 14.0935C25.8178 13.893 25.8254 13.575 26.026 13.3838C26.2266 13.1927 26.5445 13.2004 26.7357 13.4009L27.3671 14.0635Z" fill="#5CA0EF"/>
</svg>
