<svg width="32" height="32" viewBox="0 0 32 32" fill="none" xmlns="http://www.w3.org/2000/svg">
<g clip-path="url(#clip0_230_9082)">
<path fill-rule="evenodd" clip-rule="evenodd" d="M5.59458 3.90204C6.52854 3.90204 7.28682 4.66032 7.28682 5.59434C7.28682 6.5283 6.52854 7.28657 5.59458 7.28657C4.66056 7.28657 3.90228 6.5283 3.90228 5.59434C3.90228 4.66032 4.66056 3.90204 5.59458 3.90204ZM26.3264 3.90204C27.2604 3.90204 28.0187 4.66032 28.0187 5.59434C28.0187 6.5283 27.2604 7.28657 26.3264 7.28657C25.3924 7.28657 24.6341 6.5283 24.6341 5.59434C24.6341 4.66032 25.3924 3.90204 26.3264 3.90204ZM26.3264 24.6339C27.2604 24.6339 28.0187 25.3922 28.0187 26.3261C28.0187 27.2602 27.2604 28.0184 26.3264 28.0184C25.3924 28.0184 24.6341 27.2602 24.6341 26.3261C24.6341 25.3922 25.3924 24.6339 26.3264 24.6339ZM5.59458 24.6339C6.52854 24.6339 7.28682 25.3922 7.28682 26.3261C7.28682 27.2602 6.52854 28.0184 5.59458 28.0184C4.66056 28.0184 3.90228 27.2602 3.90228 26.3261C3.90228 25.3922 4.66056 24.6339 5.59458 24.6339ZM3.31618 13.5855C4.62687 13.5855 5.69096 14.6496 5.69096 15.9603C5.69096 17.2709 4.62687 18.335 3.31618 18.335C2.0055 18.335 0.941406 17.2709 0.941406 15.9603C0.941406 14.6496 2.0055 13.5855 3.31618 13.5855ZM28.6843 13.5855C29.995 13.5855 31.0591 14.6496 31.0591 15.9603C31.0591 17.2709 29.995 18.335 28.6843 18.335C27.3736 18.335 26.3095 17.2709 26.3095 15.9603C26.3095 14.6496 27.3736 13.5855 28.6843 13.5855ZM16.0002 0.941162C17.0759 0.941162 17.9493 1.81451 17.9493 2.89021C17.9493 3.96598 17.0759 4.83926 16.0002 4.83926C14.9245 4.83926 14.0512 3.96598 14.0512 2.89021C14.0512 1.81451 14.9245 0.941162 16.0002 0.941162ZM16.0002 27.1607C17.0759 27.1607 17.9493 28.034 17.9493 29.1098C17.9493 30.1855 17.0759 31.0588 16.0002 31.0588C14.9245 31.0588 14.0512 30.1855 14.0512 29.1098C14.0512 28.034 14.9245 27.1607 16.0002 27.1607Z" fill="#9BC9FF"/>
<path fill-rule="evenodd" clip-rule="evenodd" d="M9.07617 9.28204C9.07617 8.06491 12.1761 7.07831 16.0001 7.07831C19.8241 7.07831 22.924 8.06491 22.924 9.28204C22.924 10.4991 19.8241 11.4858 16.0001 11.4858C12.1761 11.4858 9.07617 10.4991 9.07617 9.28204ZM22.924 13.7607V18.2392C22.924 19.4563 19.8241 20.443 16.0001 20.443C12.1761 20.443 9.07617 19.4563 9.07617 18.2392V13.7607C9.07617 14.9777 12.1761 15.9643 16.0001 15.9643C19.8241 15.9643 22.924 14.9777 22.924 13.7607Z" fill="#9BC9FF"/>
<path fill-rule="evenodd" clip-rule="evenodd" d="M6.14192 16.502C5.88824 17.8311 4.71873 18.837 3.31619 18.837C1.72849 18.837 0.439453 17.548 0.439453 15.9603C0.439453 14.3725 1.72849 13.0835 3.31619 13.0835C4.74659 13.0835 5.93454 14.1298 6.15591 15.498H8.57348V13.7604V9.28313L6.74998 7.45963C6.41436 7.66807 6.01843 7.78854 5.59459 7.78854C4.38355 7.78854 3.40033 6.80533 3.40033 5.59435C3.40033 4.3833 4.38355 3.40009 5.59459 3.40009C6.80557 3.40009 7.78879 4.3833 7.78879 5.59435C7.78879 6.01819 7.66832 6.41411 7.45988 6.74973L9.00949 8.29935C9.16109 8.13797 9.3529 7.98362 9.58574 7.84062C10.7156 7.14685 12.9191 6.63974 15.4983 6.58101V5.28972C14.3859 5.05781 13.5492 4.07096 13.5492 2.89022C13.5492 1.5375 14.6475 0.439209 16.0002 0.439209C17.353 0.439209 18.4513 1.5375 18.4513 2.89022C18.4513 4.07096 17.6145 5.05781 16.5022 5.28972V6.58101C19.0813 6.63974 21.2849 7.14685 22.4147 7.84062C22.6281 7.97163 22.8069 8.11212 22.952 8.25888L24.4611 6.74973C24.2527 6.41411 24.1322 6.01819 24.1322 5.59435C24.1322 4.3833 25.1154 3.40009 26.3264 3.40009C27.5374 3.40009 28.5206 4.3833 28.5206 5.59435C28.5206 6.80533 27.5374 7.78854 26.3264 7.78854C25.9025 7.78854 25.5066 7.66807 25.171 7.45963L23.4246 9.20608C23.4262 9.23118 23.427 9.25621 23.427 9.28131V15.498H25.8446C26.0659 14.1298 27.2539 13.0835 28.6843 13.0835C30.272 13.0835 31.561 14.3725 31.561 15.9603C31.561 17.548 30.272 18.837 28.6843 18.837C27.2817 18.837 26.1122 17.8311 25.8586 16.502H23.427V22.7169L25.171 24.4609C25.5066 24.2524 25.9025 24.1319 26.3264 24.1319C27.5374 24.1319 28.5206 25.1152 28.5206 26.3261C28.5206 27.5372 27.5374 28.5204 26.3264 28.5204C25.1154 28.5204 24.1322 27.5372 24.1322 26.3261C24.1322 25.9023 24.2527 25.5064 24.4611 25.1708L22.991 23.7006C22.8394 23.862 22.6476 24.0164 22.4147 24.1594C21.2849 24.8531 19.0813 25.3602 16.5022 25.419V26.7103C17.6145 26.9422 18.4513 27.929 18.4513 29.1098C18.4513 30.4625 17.353 31.5608 16.0002 31.5608C14.6475 31.5608 13.5492 30.4625 13.5492 29.1098C13.5492 27.929 14.3859 26.9422 15.4983 26.7103V25.419C12.9191 25.3602 10.7156 24.8531 9.58574 24.1594C9.33301 24.0042 9.12865 23.8355 8.97147 23.6592L7.45988 25.1708C7.66832 25.5064 7.78879 25.9023 7.78879 26.3261C7.78879 27.5372 6.80557 28.5204 5.59459 28.5204C4.38355 28.5204 3.40033 27.5372 3.40033 26.3261C3.40033 25.1152 4.38355 24.1319 5.59459 24.1319C6.01843 24.1319 6.41436 24.2524 6.74998 24.4609L8.57348 22.6374V16.502H6.14192ZM9.5774 15.1959V18.2396C9.5774 18.3605 9.66154 18.4646 9.77536 18.5734C9.96943 18.7589 10.2556 18.9263 10.6114 19.0808C11.8261 19.6082 13.7883 19.9416 16.0002 19.9416C18.2122 19.9416 20.1744 19.6082 21.389 19.0808C21.7449 18.9263 22.031 18.7589 22.2251 18.5734C22.3389 18.4646 22.4231 18.3605 22.4231 18.2396V15.1959C22.4203 15.1977 22.4175 15.1994 22.4147 15.2011C21.2123 15.9394 18.7935 16.4664 16.0002 16.4664C13.207 16.4664 10.7882 15.9394 9.58574 15.2011C9.58298 15.1994 9.58016 15.1977 9.5774 15.1959ZM9.5774 10.7168V13.7604C9.5774 13.8814 9.66154 13.9854 9.77536 14.0942C9.96943 14.2798 10.2556 14.4472 10.6114 14.6017C11.8261 15.129 13.7883 15.4625 16.0002 15.4625C18.2122 15.4625 20.1744 15.129 21.389 14.6017C21.7449 14.4472 22.031 14.2798 22.2251 14.0942C22.3389 13.9854 22.4231 13.8814 22.4231 13.7604V10.7168C22.4203 10.7185 22.4175 10.7202 22.4147 10.7219C21.2123 11.4602 18.7935 11.9872 16.0002 11.9872C13.207 11.9872 10.7882 11.4602 9.58574 10.7219C9.58298 10.7202 9.58016 10.7185 9.5774 10.7168ZM22.4231 9.28131C22.4231 9.16028 22.3389 9.05624 22.2251 8.94744C22.031 8.76191 21.7449 8.5945 21.389 8.44003C20.1744 7.91259 18.2122 7.57923 16.0002 7.57923C13.7883 7.57923 11.8261 7.91259 10.6114 8.44003C10.2556 8.5945 9.96943 8.76191 9.77536 8.94744C9.66154 9.05624 9.5774 9.16028 9.5774 9.28131C9.5774 9.40228 9.66154 9.50632 9.77536 9.61512C9.96943 9.80059 10.2556 9.96799 10.6114 10.1225C11.8261 10.6499 13.7883 10.9833 16.0002 10.9833C18.2122 10.9833 20.1744 10.6499 21.389 10.1225C21.7449 9.96799 22.031 9.80059 22.2251 9.61512C22.3389 9.50632 22.4231 9.40228 22.4231 9.28131ZM9.5774 19.6751V22.7187C9.5774 22.8397 9.66154 22.9437 9.77536 23.0525C9.96943 23.2381 10.2556 23.4055 10.6114 23.56C11.8261 24.0874 13.7883 24.4208 16.0002 24.4208C18.2122 24.4208 20.1744 24.0874 21.389 23.56C21.7449 23.4055 22.031 23.2381 22.2251 23.0525C22.3389 22.9437 22.4231 22.8397 22.4231 22.7187V19.6751C22.4203 19.6768 22.4175 19.6785 22.4147 19.6802C21.2123 20.4186 18.7935 20.9456 16.0002 20.9456C13.207 20.9456 10.7882 20.4186 9.58574 19.6802C9.58298 19.6785 9.58016 19.6768 9.5774 19.6751ZM3.31619 14.0875C2.28253 14.0875 1.44337 14.9266 1.44337 15.9603C1.44337 16.9939 2.28253 17.833 3.31619 17.833C4.34979 17.833 5.18901 16.9939 5.18901 15.9603C5.18901 14.9266 4.34979 14.0875 3.31619 14.0875ZM15.3068 23.1852C15.0297 23.1852 14.8048 22.9602 14.8048 22.6832C14.8048 22.4061 15.0297 22.1813 15.3068 22.1813H16.6937C16.9708 22.1813 17.1957 22.4061 17.1957 22.6832C17.1957 22.9602 16.9708 23.1852 16.6937 23.1852H15.3068ZM28.6843 14.0875C27.6507 14.0875 26.8115 14.9266 26.8115 15.9603C26.8115 16.9939 27.6507 17.833 28.6843 17.833C29.7179 17.833 30.5571 16.9939 30.5571 15.9603C30.5571 14.9266 29.7179 14.0875 28.6843 14.0875ZM5.59459 4.40401C4.93765 4.40401 4.40425 4.93741 4.40425 5.59435C4.40425 6.25129 4.93765 6.78462 5.59459 6.78462C6.25153 6.78462 6.78486 6.25129 6.78486 5.59435C6.78486 4.93741 6.25153 4.40401 5.59459 4.40401ZM16.0002 1.44313C15.2016 1.44313 14.5531 2.09154 14.5531 2.89022C14.5531 3.6889 15.2016 4.33731 16.0002 4.33731C16.7989 4.33731 17.4473 3.6889 17.4473 2.89022C17.4473 2.09154 16.7989 1.44313 16.0002 1.44313ZM26.3264 25.1359C25.6694 25.1359 25.1361 25.6692 25.1361 26.3261C25.1361 26.9831 25.6694 27.5165 26.3264 27.5165C26.9833 27.5165 27.5167 26.9831 27.5167 26.3261C27.5167 25.6692 26.9833 25.1359 26.3264 25.1359ZM16.0002 27.6627C15.2016 27.6627 14.5531 28.3111 14.5531 29.1098C14.5531 29.9085 15.2016 30.5569 16.0002 30.5569C16.7989 30.5569 17.4473 29.9085 17.4473 29.1098C17.4473 28.3111 16.7989 27.6627 16.0002 27.6627ZM5.59459 25.1359C4.93765 25.1359 4.40425 25.6692 4.40425 26.3261C4.40425 26.9831 4.93765 27.5165 5.59459 27.5165C6.25153 27.5165 6.78486 26.9831 6.78486 26.3261C6.78486 25.6692 6.25153 25.1359 5.59459 25.1359ZM26.3264 4.40401C25.6694 4.40401 25.1361 4.93741 25.1361 5.59435C25.1361 6.25129 25.6694 6.78462 26.3264 6.78462C26.9833 6.78462 27.5167 6.25129 27.5167 5.59435C27.5167 4.93741 26.9833 4.40401 26.3264 4.40401ZM15.3068 18.706C15.0297 18.706 14.8048 18.4811 14.8048 18.204C14.8048 17.927 15.0297 17.7021 15.3068 17.7021H16.6937C16.9708 17.7021 17.1957 17.927 17.1957 18.204C17.1957 18.4811 16.9708 18.706 16.6937 18.706H15.3068ZM15.3068 14.2268C15.0297 14.2268 14.8048 14.0019 14.8048 13.7249C14.8048 13.4478 15.0297 13.2229 15.3068 13.2229H16.6937C16.9708 13.2229 17.1957 13.4478 17.1957 13.7249C17.1957 14.0019 16.9708 14.2268 16.6937 14.2268H15.3068Z" fill="#6699FF"/>
</g>
<defs>
<clipPath id="clip0_230_9082">
<rect width="32" height="32" fill="white"/>
</clipPath>
</defs>
</svg>
