<svg width="32" height="32" viewBox="0 0 32 32" fill="none" xmlns="http://www.w3.org/2000/svg">
<path fill-rule="evenodd" clip-rule="evenodd" d="M6.56651 10.0927H1.2867C1.06879 9.71647 0.943359 9.28064 0.943359 8.81508C0.943359 7.40576 2.08777 6.26141 3.49708 6.26141L3.51691 6.26148C5.20394 6.27214 6.56651 7.64287 6.56651 9.33241V10.0927ZM3.51566 6.26148H3.51691C3.51654 6.26148 3.5161 6.26148 3.51566 6.26148Z" fill="#C8DFF9"/>
<path fill-rule="evenodd" clip-rule="evenodd" d="M24.9367 30.0503L9.08789 30.0048C10.4972 30.0048 11.64 28.3887 11.64 27.4512C11.64 26.5137 11.5429 26.5953 11.3265 26.219H27.1471C27.365 26.5953 27.4905 27.031 27.4905 27.4967C27.4905 28.9075 26.3461 30.0503 24.9367 30.0503Z" fill="#C8DFF9"/>
<path fill-rule="evenodd" clip-rule="evenodd" d="M29.7445 17.9936L30.9095 16.7919C31.1143 16.5812 31.1093 16.241 30.8987 16.0363L27.6706 12.9042C27.4599 12.6994 27.1197 12.7054 26.915 12.916L25.75 14.1167C25.5453 14.3274 25.5502 14.6676 25.7609 14.8722L28.989 18.0044C29.1996 18.2092 29.5398 18.2042 29.7445 17.9936Z" fill="#C8DFF9"/>
<path fill-rule="evenodd" clip-rule="evenodd" d="M20.1901 1.94916C23.436 1.94916 26.0677 4.57987 26.0677 7.82668C26.0677 11.0726 23.436 13.7043 20.1901 13.7043C16.9432 13.7043 14.3125 11.0726 14.3125 7.82668C14.3125 4.57987 16.9432 1.94916 20.1901 1.94916ZM20.1379 3.66982C17.842 3.66982 15.9811 5.53071 15.9811 7.82668C15.9811 10.1218 17.842 11.9835 20.1379 11.9835C22.433 11.9835 24.2948 10.1218 24.2948 7.82668C24.2948 5.53071 22.433 3.66982 20.1379 3.66982Z" fill="#C8DFF9"/>
<path fill-rule="evenodd" clip-rule="evenodd" d="M6.06261 10.5957H1.28519C1.10593 10.5957 0.940284 10.5002 0.850433 10.3451C0.589602 9.89472 0.439453 9.37299 0.439453 8.81569C0.439453 7.1291 1.80899 5.75956 3.49558 5.75956H3.49639C3.50286 5.75956 3.50932 5.75956 3.51578 5.75963H3.51647L14.1398 5.79113C14.9894 3.26551 17.3763 1.44666 20.1885 1.44666C23.7125 1.44666 26.5686 4.30287 26.5686 7.82683C26.5686 9.03392 26.2336 10.1626 25.6513 11.1251L26.8972 12.3348C27.2682 12.1808 27.7142 12.25 28.0192 12.5453L28.0196 12.5457L31.2475 15.6784C31.6561 16.0739 31.6677 16.7321 31.2689 17.1439L31.2686 17.1443L30.1038 18.3442L30.1033 18.3447C29.7081 18.7524 29.0509 18.7638 28.6397 18.3688C28.639 18.3681 28.6384 18.3675 28.6378 18.3669L25.4116 15.2344C25.1046 14.9383 25.0214 14.4944 25.1648 14.1187L23.9741 12.9633C23.487 13.3229 22.9469 13.6148 22.3676 13.8253V25.7171H27.145C27.3243 25.7171 27.4899 25.8127 27.5798 25.9678C27.8406 26.4182 27.9908 26.9399 27.9908 27.4972C27.9908 29.1857 26.6212 30.5534 24.9346 30.5534C24.9342 30.5534 24.9338 30.5534 24.9334 30.5534H24.9332C24.9277 30.5534 24.9221 30.5534 24.9166 30.5533H24.9154H24.9149L9.08435 30.5079C9.06295 30.5079 9.04187 30.5064 9.02116 30.5038C7.33432 30.4565 6.06261 28.7369 6.06261 26.9815V10.5957ZM3.49483 6.76443C2.36316 6.76487 1.44432 7.68389 1.44432 8.81569C1.44432 9.09014 1.49859 9.35166 1.59672 9.59084H6.06261V9.33296C6.06261 7.92007 4.92347 6.77365 3.51271 6.76449H3.51189H3.5112C3.50593 6.76443 3.5006 6.76443 3.49526 6.76443H3.49483ZM25.0587 11.949C24.9553 12.071 24.8474 12.1891 24.7352 12.303L25.8043 13.3404L26.1379 12.9968L25.0587 11.949ZM21.3627 14.0992C20.9821 14.17 20.5897 14.2071 20.1885 14.2071C17.6566 14.2071 15.4695 12.7327 14.4387 10.5957H9.67836C9.40108 10.5957 9.17589 10.3706 9.17589 10.0933C9.17589 9.81597 9.40108 9.59084 9.67836 9.59084H14.0552C13.8944 9.03065 13.8083 8.43878 13.8083 7.82683C13.8083 7.47633 13.8365 7.13243 13.8909 6.79731C11.9308 6.79109 5.98744 6.77233 5.98744 6.77233C6.65379 7.42149 7.06747 8.32879 7.06747 9.33296V26.9815C7.06747 28.2177 7.89238 29.496 9.08742 29.4999L9.17508 29.5002C9.70019 29.4665 10.1658 29.1402 10.5143 28.7469C10.8846 28.3291 11.1355 27.8275 11.1355 27.4518C11.1355 26.7054 11.0611 26.7696 10.8888 26.4701C10.7994 26.3146 10.7997 26.1232 10.8895 25.968C10.9793 25.8128 11.145 25.7171 11.3243 25.7171H21.3627V14.0992ZM24.9359 29.5485C26.0673 29.5478 26.9859 28.6301 26.9859 27.4972C26.9859 27.2228 26.9316 26.9613 26.8335 26.7221C24.9429 26.7221 14.9909 26.7221 12.1077 26.7221C12.1297 26.8875 12.1403 27.115 12.1403 27.4518C12.1403 28.0136 11.8199 28.7886 11.2664 29.4134C11.2386 29.4448 11.2102 29.4758 11.1813 29.5063L24.9169 29.5484H24.9174H24.9183C24.9239 29.5484 24.9295 29.5485 24.9351 29.5485H24.9359ZM20.1885 2.45058C17.219 2.45058 14.8122 4.85735 14.8122 7.82683C14.8122 10.7964 17.219 13.2031 20.1885 13.2031C23.1579 13.2031 25.5647 10.7964 25.5647 7.82683C25.5647 4.85735 23.1579 2.45058 20.1885 2.45058ZM20.1885 3.16826C22.7614 3.16826 24.8471 5.2539 24.8471 7.82683C24.8471 10.3998 22.7614 12.4855 20.1885 12.4855C17.6155 12.4855 15.5299 10.3998 15.5299 7.82683C15.5299 5.2539 17.6155 3.16826 20.1885 3.16826ZM20.1885 4.17218C18.17 4.17218 16.5338 5.80838 16.5338 7.82683C16.5338 9.84534 18.17 11.4815 20.1885 11.4815C22.207 11.4815 23.8432 9.84534 23.8432 7.82683C23.8432 5.80838 22.207 4.17218 20.1885 4.17218ZM17.805 8.30212C17.6091 8.10623 17.6091 7.78818 17.805 7.59222C18.0009 7.39633 18.319 7.39633 18.5149 7.59222L19.36 8.43734L21.8798 6.15153C22.0849 5.96537 22.4026 5.98087 22.5888 6.18604C22.7749 6.39122 22.7595 6.70896 22.5543 6.89506L19.6804 9.50218C19.4821 9.68207 19.1775 9.67461 18.9882 9.48531L17.805 8.30212ZM29.3829 17.6454C29.3829 17.6454 30.5479 16.4454 30.5482 16.4451C30.5604 16.4321 30.5619 16.4119 30.5492 16.3996L30.5488 16.3992C30.5488 16.3992 27.3208 13.2665 27.3205 13.2662C27.3077 13.2542 27.2872 13.2542 27.275 13.2668L27.2745 13.2673L26.1092 14.4676C26.1089 14.468 26.1086 14.4683 26.1082 14.4686C26.0965 14.4807 26.0964 14.5001 26.1085 14.5117C26.1092 14.5123 26.1098 14.5129 26.1104 14.5136C26.1104 14.5136 29.3355 17.6451 29.3366 17.6461C29.3499 17.6576 29.3701 17.6586 29.3825 17.6459L29.3829 17.6454ZM14.3103 12.2793C14.5875 12.2793 14.8127 12.5045 14.8127 12.7818C14.8127 13.0591 14.5875 13.2842 14.3103 13.2842H9.67836C9.40108 13.2842 9.17589 13.0591 9.17589 12.7818C9.17589 12.5045 9.40108 12.2793 9.67836 12.2793H14.3103ZM18.7519 17.6548C19.0291 17.6548 19.2543 17.8799 19.2543 18.1572C19.2543 18.4345 19.0291 18.6596 18.7519 18.6596H9.67836C9.40108 18.6596 9.17589 18.4345 9.17589 18.1572C9.17589 17.8799 9.40108 17.6548 9.67836 17.6548H18.7519ZM18.7519 15.9711H9.67836C9.40108 15.9711 9.17589 15.746 9.17589 15.4687C9.17589 15.1914 9.40108 14.9663 9.67836 14.9663H18.7519C19.0291 14.9663 19.2543 15.1914 19.2543 15.4687C19.2543 15.746 19.0291 15.9711 18.7519 15.9711ZM18.7519 20.3417C19.0291 20.3417 19.2543 20.5668 19.2543 20.8442C19.2543 21.1214 19.0291 21.3466 18.7519 21.3466H9.67836C9.40108 21.3466 9.17589 21.1214 9.17589 20.8442C9.17589 20.5668 9.40108 20.3417 9.67836 20.3417H18.7519ZM18.7519 23.0302C19.0291 23.0302 19.2543 23.2553 19.2543 23.5327C19.2543 23.8099 19.0291 24.0351 18.7519 24.0351H9.67836C9.40108 24.0351 9.17589 23.8099 9.17589 23.5327C9.17589 23.2553 9.40108 23.0302 9.67836 23.0302H18.7519Z" fill="#5CA0EF"/>
</svg>
