<svg width="68" height="68" viewBox="0 0 68 68" fill="none" xmlns="http://www.w3.org/2000/svg">
<path d="M59.8841 36.4518C59.4091 41.4662 57.4878 46.2348 54.3537 50.1778C51.2196 54.1209 47.0076 57.0687 42.2296 58.663C37.4517 60.2573 32.3135 60.4295 27.4396 59.1586C22.5656 57.8876 18.1658 55.2283 14.7748 51.5039C11.3837 47.7794 9.14757 43.1502 8.33802 38.1787C7.52846 33.2073 8.18038 28.1078 10.2145 23.4999C12.2487 18.892 15.5775 14.9741 19.7964 12.2225C24.0153 9.4709 28.9426 8.00396 33.9796 8.00001" stroke="#33C994" stroke-width="16" stroke-linejoin="round"/>
<path d="M34 8.00016C37.6248 8.00016 41.2096 8.75812 44.5242 10.2254C47.8388 11.6926 50.81 13.8368 53.247 16.5201C55.6841 19.2035 57.533 22.3668 58.6753 25.8069C59.8176 29.247 60.2279 32.888 59.8799 36.4961" stroke="#FF0000" stroke-width="16" stroke-linejoin="round"/>
</svg>
