<svg width="16" height="16" viewBox="0 0 16 16" fill="none" xmlns="http://www.w3.org/2000/svg">
<path d="M3.33325 12C2.22868 12 1.33325 11.1046 1.33325 10V5.2C1.33325 4.0799 1.33325 3.51984 1.55124 3.09202C1.74299 2.71569 2.04895 2.40973 2.42527 2.21799C2.85309 2 3.41315 2 4.53325 2H11.4666C12.5867 2 13.1467 2 13.5746 2.21799C13.9509 2.40973 14.2569 2.71569 14.4486 3.09202C14.6666 3.51984 14.6666 4.0799 14.6666 5.2V10C14.6666 11.1046 13.7712 12 12.6666 12" stroke="#2680EA" stroke-linecap="round" stroke-linejoin="round"/>
<path d="M4.80671 11.5711C4.76131 11.4992 4.73861 11.4632 4.72591 11.4078C4.71636 11.3662 4.71636 11.3005 4.72591 11.2589C4.73861 11.2034 4.76131 11.1675 4.80671 11.0956C5.18184 10.5016 6.29847 9 8.00013 9C9.7018 9 10.8184 10.5016 11.1936 11.0956C11.239 11.1675 11.2617 11.2034 11.2744 11.2589C11.2839 11.3005 11.2839 11.3662 11.2744 11.4078C11.2617 11.4632 11.239 11.4992 11.1936 11.5711C10.8184 12.1651 9.7018 13.6667 8.00013 13.6667C6.29847 13.6667 5.18184 12.1651 4.80671 11.5711Z" stroke="#2680EA" stroke-linecap="round" stroke-linejoin="round"/>
<path d="M8.00013 12.3333C8.55242 12.3333 9.00013 11.8856 9.00013 11.3333C9.00013 10.781 8.55242 10.3333 8.00013 10.3333C7.44785 10.3333 7.00013 10.781 7.00013 11.3333C7.00013 11.8856 7.44785 12.3333 8.00013 12.3333Z" stroke="#2680EA" stroke-linecap="round" stroke-linejoin="round"/>
</svg>
