<svg width="32" height="32" viewBox="0 0 32 32" fill="none" xmlns="http://www.w3.org/2000/svg">
<path fill-rule="evenodd" clip-rule="evenodd" d="M15.9989 17.9569C17.604 17.9569 18.9087 16.6519 18.9087 15.0469C18.9087 13.4419 17.604 12.1369 15.9989 12.1369C14.3953 12.1369 13.0891 13.4433 13.0891 15.0469C13.0891 16.6505 14.3954 17.9569 15.9989 17.9569ZM28.0535 8.50006C28.0535 7.98231 28.4732 7.5625 28.991 7.5625C29.5073 7.5625 29.9286 7.98369 29.9286 8.50006C29.9286 9.01638 29.5072 9.4375 28.991 9.4375C28.4733 9.4375 28.0535 9.01775 28.0535 8.50006ZM28.991 22.5625C29.5069 22.5625 29.9285 22.9841 29.9285 23.5001C29.9285 24.0164 29.5071 24.4375 28.991 24.4375C28.4733 24.4375 28.0534 24.0177 28.0534 23.5001C28.0535 22.9827 28.4735 22.5625 28.991 22.5625ZM3.00983 24.4375C2.49214 24.4375 2.07227 24.0177 2.07227 23.5001C2.07227 22.9824 2.49208 22.5625 3.00983 22.5625C3.52758 22.5625 3.94739 22.9824 3.94739 23.5001C3.94739 24.0177 3.52752 24.4375 3.00983 24.4375ZM3.00983 9.4375C2.49214 9.4375 2.07227 9.01775 2.07227 8.50006C2.07227 7.98269 2.49233 7.5625 3.00983 7.5625C3.52733 7.5625 3.94739 7.98269 3.94739 8.50006C3.94733 9.01775 3.52752 9.4375 3.00983 9.4375ZM11.8818 15.0469C11.8818 12.7776 13.7296 10.9294 15.999 10.9294C18.2695 10.9294 20.1191 12.7759 20.1191 15.0469C20.1191 16.1293 19.4632 17.2889 18.8703 18.1597C18.168 19.1912 17.3353 20.1416 16.5134 21.0781C16.3888 21.2201 16.2644 21.3623 16.1401 21.5046L15.9989 21.6663L15.8576 21.5046C15.7334 21.3623 15.609 21.2201 15.4844 21.0781C14.6629 20.142 13.831 19.1916 13.1295 18.1602C12.537 17.2891 11.8818 16.1292 11.8818 15.0469Z" fill="#5CA0EF"/>
<path fill-rule="evenodd" clip-rule="evenodd" d="M15.999 17.1444C14.8431 17.1444 13.9018 16.2037 13.9018 15.0469C13.9018 13.8906 14.8431 12.9494 15.999 12.9494C17.158 12.9494 18.0962 13.8906 18.0962 15.0469C18.0963 16.2037 17.158 17.1444 15.999 17.1444ZM15.999 11.9494C14.293 11.9494 12.9018 13.3387 12.9018 15.0469C12.9018 16.7549 14.293 18.1444 15.999 18.1444C17.708 18.1444 19.0963 16.7549 19.0963 15.0469C19.0963 13.3387 17.708 11.9494 15.999 11.9494ZM16.3726 20.9544C17.8756 19.2437 19.9316 16.9012 19.9316 15.0469C19.9316 12.8801 18.1668 11.1168 15.999 11.1168C13.8341 11.1168 12.0693 12.8801 12.0693 15.0469C12.0693 16.9012 14.1253 19.2437 15.6255 20.9544C15.7549 21.1006 15.8784 21.2431 15.999 21.3812C16.1196 21.2431 16.2461 21.1006 16.3726 20.9544ZM15.999 10.1169C13.2812 10.1169 11.0693 12.3288 11.0693 15.0469C11.0693 17.2781 13.1782 19.6824 14.8754 21.6144C15.1401 21.9181 15.3931 22.2056 15.6196 22.4712C15.7137 22.5837 15.852 22.6482 15.999 22.6482C16.1461 22.6482 16.2873 22.5837 16.3814 22.4712C16.6079 22.2056 16.8579 21.9181 17.1256 21.6138C18.8198 19.6819 20.9317 17.2781 20.9317 15.0469C20.9317 12.3288 18.7198 10.1169 15.999 10.1169ZM28.9911 24.25C28.5763 24.25 28.241 23.9138 28.241 23.5001C28.241 23.0869 28.5763 22.75 28.9911 22.75C29.4029 22.75 29.7411 23.0869 29.7411 23.5001C29.7411 23.9138 29.4029 24.25 28.9911 24.25ZM22.2553 25.2081C24.4731 25.4312 26.2909 25.1381 27.4733 24.3694C27.3263 24.1132 27.241 23.8163 27.241 23.5001C27.241 22.5376 28.0234 21.7537 28.9852 21.7507C29.0588 20.3414 28.4028 18.6206 27.1027 16.8132C26.0909 18.0201 24.8525 19.2006 23.4525 20.2976C23.2025 22.0631 22.7995 23.7232 22.2553 25.2081ZM15.999 30.5001C14.2666 30.5001 12.6076 29.0399 11.3252 26.3894C11.2664 26.2682 11.2105 26.145 11.1546 26.0207C12.7076 25.7481 14.349 25.265 15.999 24.6007C17.6521 25.265 19.2933 25.7482 20.8464 26.0207C20.7905 26.145 20.7346 26.2682 20.6758 26.3894C19.3934 29.0399 17.7345 30.5001 15.999 30.5001ZM4.5277 24.3693C4.67477 24.1131 4.76008 23.8162 4.76008 23.5001C4.76008 22.5376 3.97764 21.7537 3.01583 21.75C2.94233 20.3412 3.5982 18.6206 4.89833 16.8131C5.91014 18.02 7.14845 19.2006 8.54858 20.2975C8.79858 22.0631 9.20158 23.7231 9.7457 25.2075C7.52789 25.4312 5.71008 25.1381 4.5277 24.3693ZM2.25989 23.5001C2.25989 23.9138 2.5952 24.25 3.00995 24.25C3.4247 24.25 3.76002 23.9138 3.76002 23.5001C3.76002 23.0863 3.4247 22.75 3.00995 22.75C2.5952 22.75 2.25989 23.0863 2.25989 23.5001ZM3.01583 10.2501C3.97764 10.2463 4.76008 9.46313 4.76008 8.50006C4.76008 8.18375 4.67477 7.8875 4.5277 7.63131C5.71014 6.86181 7.52789 6.56875 9.7457 6.79244C9.20152 8.2775 8.79858 9.93681 8.54858 11.7025C7.14845 12.7994 5.91014 13.98 4.89833 15.1876C3.5982 13.3794 2.94227 11.6594 3.01583 10.2501ZM3.00995 7.75C2.5952 7.75 2.25989 8.08687 2.25989 8.50006C2.25989 8.91381 2.5952 9.25 3.00995 9.25C3.4247 9.25 3.76002 8.91381 3.76002 8.50006C3.75995 8.08694 3.42464 7.75 3.00995 7.75ZM15.999 1.50006C17.7345 1.50006 19.3934 2.96006 20.6758 5.61131C20.7346 5.73181 20.7906 5.85556 20.8464 5.98C19.2933 6.25256 17.6521 6.73556 15.999 7.39931C14.3489 6.73556 12.7076 6.25256 11.1546 5.98C11.2105 5.85556 11.2663 5.73181 11.3252 5.61131C12.6076 2.96006 14.2666 1.50006 15.999 1.50006ZM23.6172 13.1263C24.7055 14.0469 25.6732 15.0157 26.4762 16C25.6732 16.9844 24.7055 17.9537 23.6172 18.8744C23.7025 17.9362 23.7496 16.975 23.7496 16C23.7496 15.0257 23.7025 14.0644 23.6172 13.1263ZM22.3024 10.8468C21.5288 10.2981 20.717 9.77619 19.8728 9.28994C19.0345 8.805 18.1756 8.36306 17.3168 7.9675C18.661 7.48431 19.9846 7.13187 21.2406 6.92687C21.6935 8.12062 22.0495 9.44062 22.3024 10.8468ZM10.7605 6.92687C12.0164 7.13187 13.34 7.48438 14.6843 7.9675C13.8225 8.36306 12.9665 8.805 12.1253 9.28994C11.284 9.77619 10.4722 10.2981 9.6957 10.8468C9.95158 9.44062 10.3075 8.12062 10.7605 6.92687ZM8.38383 18.8744C8.29852 17.9362 8.25145 16.975 8.25145 16C8.25145 15.0257 8.29852 14.0644 8.38383 13.1263C7.29552 14.0469 6.32777 15.0157 5.52483 16C6.32777 16.9844 7.29552 17.9537 8.38383 18.8744ZM9.69564 21.1537C10.4721 21.7019 11.284 22.2238 12.1252 22.7101C12.9665 23.195 13.8224 23.6375 14.6842 24.0332C13.34 24.5157 12.0164 24.8687 10.7604 25.0731C10.3075 23.88 9.95158 22.5594 9.69564 21.1537ZM19.3728 21.8438C20.4817 21.2037 21.5377 20.5019 22.5171 19.7575C22.6701 18.5469 22.7495 17.2869 22.7495 16C22.7495 14.7137 22.6701 13.4537 22.5171 12.2431C21.5376 11.4987 20.4817 10.7962 19.3728 10.1563C18.2669 9.51694 17.1315 8.95506 15.9991 8.48069C14.8666 8.95506 13.7342 9.51694 12.6253 10.1563C11.5165 10.7963 10.4635 11.4987 9.48395 12.2431C9.33102 13.4537 9.25158 14.7137 9.25158 16C9.25158 17.2868 9.33102 18.5469 9.48395 19.7575C10.4635 20.5019 11.5165 21.2037 12.6253 21.8444C13.7343 22.4831 14.8666 23.0451 15.9991 23.5201C17.1315 23.0451 18.2668 22.4831 19.3728 21.8438ZM21.2406 25.0731C19.9846 24.8687 18.661 24.5156 17.3168 24.0332C18.1756 23.6374 19.0345 23.195 19.8728 22.71C20.717 22.2237 21.5288 21.7019 22.3024 21.1537C22.0495 22.5594 21.6935 23.88 21.2406 25.0731ZM27.4733 7.63137C26.2909 6.86187 24.4731 6.56881 22.2553 6.7925C22.7995 8.27756 23.2025 9.93687 23.4525 11.7026C24.8525 12.7995 26.0909 13.9801 27.1027 15.1869C28.4028 13.3794 29.0587 11.6595 28.9852 10.2501C28.0234 10.2463 27.241 9.46319 27.241 8.50012C27.241 8.18375 27.3263 7.8875 27.4733 7.63137ZM29.7411 8.50006C29.7411 8.91381 29.4029 9.25 28.9911 9.25C28.5763 9.25 28.241 8.91381 28.241 8.50006C28.241 8.08619 28.5763 7.75 28.9911 7.75C29.4029 7.75 29.7411 8.08619 29.7411 8.50006ZM29.9647 22.0462C30.1412 20.2944 29.3646 18.1719 27.7469 16C29.3646 13.8281 30.1412 11.7063 29.9647 9.95375C30.4324 9.63937 30.7412 9.105 30.7412 8.50006C30.7412 7.535 29.9559 6.75006 28.9911 6.75006C28.7146 6.75006 28.4528 6.815 28.2175 6.93069C26.788 5.90062 24.5614 5.51194 21.873 5.82812C21.7759 5.60625 21.6788 5.38819 21.5759 5.17631C20.117 2.16056 18.1374 0.5 15.999 0.5C13.8606 0.5 11.8811 2.16062 10.4251 5.17637C10.3221 5.38825 10.2221 5.60631 10.128 5.82819C7.43664 5.51256 5.21002 5.90069 3.78345 6.93075C3.54814 6.81506 3.28633 6.75012 3.00989 6.75012C2.04514 6.75012 1.25977 7.53512 1.25977 8.50012C1.25977 9.10506 1.56858 9.63944 2.03627 9.95381C1.85989 11.7063 2.63639 13.8287 4.25414 16C2.63639 18.1719 1.85989 20.2944 2.03633 22.0462C1.56864 22.3606 1.25983 22.895 1.25983 23.5001C1.25983 24.4649 2.04514 25.2501 3.00995 25.2501C3.28645 25.2501 3.5512 25.1851 3.78352 25.0687C4.88952 25.865 6.46902 26.2787 8.37502 26.2787C8.93095 26.2787 9.5192 26.2438 10.1281 26.1718C10.2222 26.3937 10.3222 26.6119 10.4251 26.8243C11.8811 29.8393 13.8607 31.4999 15.9991 31.4999C18.1375 31.4999 20.117 29.8393 21.576 26.8243C21.6789 26.6119 21.776 26.3944 21.873 26.1718C22.4819 26.2437 23.0672 26.2787 23.6261 26.2787C25.5321 26.2787 27.1116 25.865 28.2176 25.0687C28.45 25.185 28.7117 25.2501 28.9912 25.2501C29.956 25.2501 30.7413 24.4649 30.7413 23.5001C30.7412 22.895 30.4323 22.3606 29.9647 22.0462Z" fill="#5CA0EF"/>
</svg>
