<svg width="32" height="32" viewBox="0 0 32 32" fill="none" xmlns="http://www.w3.org/2000/svg">
<g clip-path="url(#clip0_230_8960)">
<path fill-rule="evenodd" clip-rule="evenodd" d="M11.4047 31.0799H1.58525C1.35128 31.0799 1.16016 30.8888 1.16016 30.6548V18.1136C1.16016 17.8796 1.35128 17.6885 1.58525 17.6885H9.02563C9.10331 17.6885 9.21355 17.7304 9.20025 17.7247V20.1038C9.20025 20.2224 9.29581 20.318 9.41446 20.318H11.7926C11.8172 20.3717 11.8298 20.4302 11.8298 20.4927V30.6548C11.8298 30.8888 11.6386 31.0799 11.4047 31.0799ZM30.4141 31.1305H20.5947C20.3607 31.1305 20.1696 30.9394 20.1696 30.7054V18.1642C20.1696 17.9303 20.3607 17.7392 20.5947 17.7392H28.0351C28.1128 17.7392 28.223 17.7811 28.2097 17.7754V20.1545C28.2097 20.2731 28.3053 20.3687 28.4239 20.3687H30.8021C30.8267 20.4223 30.8392 20.4809 30.8392 20.5433V30.7054C30.8392 30.9394 30.6481 31.1305 30.4141 31.1305ZM8.74466 3.60181V2.01537C8.74466 1.38584 9.25904 0.87146 9.8922 0.87146H13.2449C13.7234 0.87146 14.1335 1.10889 14.3745 1.52257L15.576 3.60181H8.74466Z" fill="#C8DFF9"/>
<path fill-rule="evenodd" clip-rule="evenodd" d="M12.2035 20.1444C12.2639 20.2676 12.2947 20.4032 12.2947 20.5482V30.6359C12.2947 31.1455 11.8784 31.5618 11.3688 31.5618H1.62118C1.11163 31.5618 0.695312 31.1455 0.695312 30.6359V18.1865C0.695312 17.6769 1.11163 17.2606 1.62118 17.2606H9.00709C9.25983 17.2606 9.48283 17.349 9.66397 17.5353L12.0167 19.888C12.0967 19.9636 12.1588 20.0508 12.2035 20.1444ZM10.5742 19.8708L9.68443 18.9811V19.8708H10.5742ZM8.67655 18.2684H1.70319V30.5539H11.2868V20.8787H9.3931C8.99624 20.8787 8.67655 20.559 8.67655 20.1622V18.2684ZM3.52819 20.8166C3.25004 20.8166 3.02428 20.5908 3.02428 20.3126C3.02428 20.0345 3.25004 19.8087 3.52819 19.8087H7.25713C7.53528 19.8087 7.7611 20.0345 7.7611 20.3126C7.7611 20.5908 7.53528 20.8166 7.25713 20.8166H3.52819ZM3.52819 26.2791C3.25004 26.2791 3.02428 26.0533 3.02428 25.7752C3.02428 25.4971 3.25004 25.2712 3.52819 25.2712H9.46181C9.73989 25.2712 9.96571 25.4971 9.96571 25.7752C9.96571 26.0533 9.73989 26.2791 9.46181 26.2791H3.52819ZM3.52819 23.5478C3.25004 23.5478 3.02428 23.3221 3.02428 23.0439C3.02428 22.7658 3.25004 22.5399 3.52819 22.5399H9.46181C9.73989 22.5399 9.96571 22.7658 9.96571 23.0439C9.96571 23.3221 9.73989 23.5478 9.46181 23.5478H3.52819ZM3.52819 29.0104C3.25004 29.0104 3.02428 28.7846 3.02428 28.5065C3.02428 28.2283 3.25004 28.0025 3.52819 28.0025H9.46181C9.73989 28.0025 9.96571 28.2283 9.96571 28.5065C9.96571 28.7846 9.73989 29.0104 9.46181 29.0104H3.52819ZM9.88364 0.438232H13.2113C13.87 0.438232 14.4342 0.760617 14.7661 1.33022C14.7664 1.33084 14.7668 1.33141 14.7672 1.33204L15.8148 3.14819H22.1158C23.0211 3.14819 23.7567 3.88375 23.7567 4.7891V11.3051C23.7567 12.2057 23.0216 12.9424 22.1158 12.9424H9.88364C8.97785 12.9424 8.24273 12.2057 8.24273 11.3051V2.07557C8.24273 1.17499 8.97785 0.438232 9.88364 0.438232ZM14.6558 3.14819C14.3151 2.55751 13.898 1.83456 13.8978 1.83406C13.751 1.58333 13.5017 1.44215 13.2113 1.44215H9.88364C9.53265 1.44215 9.24665 1.72658 9.24665 2.07557V3.14819H14.6558ZM9.24665 4.15211V11.3051C9.24665 11.654 9.53265 11.9385 9.88364 11.9385H22.1158C22.4668 11.9385 22.7528 11.654 22.7528 11.3051V4.7891C22.7528 4.43767 22.4672 4.15211 22.1158 4.15211H9.24665ZM11.4671 7.47986C11.1901 7.47986 10.9652 7.25492 10.9652 6.9779C10.9652 6.70088 11.1901 6.47594 11.4671 6.47594H15.4922C15.7693 6.47594 15.9942 6.70088 15.9942 6.9779C15.9942 7.25492 15.7693 7.47986 15.4922 7.47986H11.4671ZM11.4671 9.60397C11.1901 9.60397 10.9652 9.37903 10.9652 9.10201C10.9652 8.82499 11.1901 8.60005 11.4671 8.60005H18.7924C19.0695 8.60005 19.2944 8.82499 19.2944 9.10201C19.2944 9.37903 19.0695 9.60397 18.7924 9.60397H11.4671ZM20.6307 17.2606H28.0166C28.2693 17.2606 28.4923 17.349 28.6734 17.5353L31.0323 19.8941C31.2118 20.0737 31.3041 20.2967 31.3041 20.5482V30.6359C31.3041 31.1455 30.8878 31.5618 30.3783 31.5618H20.6307C20.1211 31.5618 19.7048 31.1455 19.7048 30.6359V18.1865C19.7048 17.6769 20.1211 17.2606 20.6307 17.2606ZM27.686 18.2684H20.7126V30.5539H30.2963V20.8787H28.4025C28.0057 20.8787 27.686 20.559 27.686 20.1622V18.2684ZM29.5836 19.8708L28.6939 18.9811V19.8708H29.5836ZM22.5376 20.8166C22.2595 20.8166 22.0337 20.5908 22.0337 20.3126C22.0337 20.0345 22.2595 19.8087 22.5376 19.8087H26.2666C26.5447 19.8087 26.7705 20.0345 26.7705 20.3126C26.7705 20.5908 26.5447 20.8166 26.2666 20.8166H22.5376ZM22.5376 29.0104C22.2595 29.0104 22.0337 28.7846 22.0337 28.5065C22.0337 28.2283 22.2595 28.0025 22.5376 28.0025H28.4713C28.7494 28.0025 28.9752 28.2283 28.9752 28.5065C28.9752 28.7846 28.7494 29.0104 28.4713 29.0104H22.5376ZM22.5376 23.5478C22.2595 23.5478 22.0337 23.3221 22.0337 23.0439C22.0337 22.7658 22.2595 22.5399 22.5376 22.5399H28.4713C28.7494 22.5399 28.9752 22.7658 28.9752 23.0439C28.9752 23.3221 28.7494 23.5478 28.4713 23.5478H22.5376ZM22.5376 26.2791C22.2595 26.2791 22.0337 26.0533 22.0337 25.7752C22.0337 25.4971 22.2595 25.2712 22.5376 25.2712H28.4713C28.7494 25.2712 28.9752 25.4971 28.9752 25.7752C28.9752 26.0533 28.7494 26.2791 28.4713 26.2791H22.5376ZM14.4408 13.8596C14.4408 13.5826 14.6656 13.3576 14.9427 13.3576C15.2197 13.3576 15.4447 13.5826 15.4447 13.8596V15.1025C15.4447 15.3797 15.2199 15.6044 14.9427 15.6044H6.99693V16.2875C6.99693 16.5645 6.77205 16.7895 6.49497 16.7895C6.21795 16.7895 5.99301 16.5645 5.99301 16.2875V15.1025C5.99301 14.8252 6.21776 14.6005 6.49497 14.6005H14.4408V13.8596ZM16.5548 13.8596C16.5548 13.5826 16.7797 13.3576 17.0567 13.3576C17.3338 13.3576 17.5587 13.5826 17.5587 13.8596V14.6005H25.5045C25.7817 14.6005 26.0064 14.8252 26.0064 15.1025V16.2875C26.0064 16.5645 25.7815 16.7895 25.5045 16.7895C25.2274 16.7895 25.0025 16.5645 25.0025 16.2875V15.6044H17.0567C16.7795 15.6044 16.5548 15.3797 16.5548 15.1025V13.8596Z" fill="#5CA0EF"/>
</g>
<defs>
<clipPath id="clip0_230_8960">
<rect width="32" height="32" fill="white"/>
</clipPath>
</defs>
</svg>
