<svg width="436" height="255" viewBox="0 0 436 255" fill="none" xmlns="http://www.w3.org/2000/svg">
<path d="M1 15.5H436" stroke="#E6E7E8"/>
<path d="M1 47.5H436" stroke="#E6E7E8"/>
<path d="M1 79.5H436" stroke="#E6E7E8"/>
<path d="M1 111.5H436" stroke="#E6E7E8"/>
<path d="M1 143.5H436" stroke="#E6E7E8"/>
<path d="M1 175.5H436" stroke="#E6E7E8"/>
<path d="M1 207.5H436" stroke="#E6E7E8"/>
<path d="M1 239.5H436" stroke="#E6E7E8"/>
<path d="M36 255L36 -7.15256e-06" stroke="#E6E7E8"/>
<path d="M68 255L68 -7.15256e-06" stroke="#E6E7E8"/>
<path d="M100 255L100 -7.15256e-06" stroke="#E6E7E8"/>
<path d="M132 255L132 -7.15256e-06" stroke="#E6E7E8"/>
<path d="M164 255L164 -7.15256e-06" stroke="#E6E7E8"/>
<path d="M196 255L196 -7.15256e-06" stroke="#E6E7E8"/>
<path d="M228 255L228 -7.15256e-06" stroke="#E6E7E8"/>
<path d="M260 255L260 -7.15256e-06" stroke="#E6E7E8"/>
<path d="M292 255L292 -7.15256e-06" stroke="#E6E7E8"/>
<path d="M324 255L324 -7.15256e-06" stroke="#E6E7E8"/>
<path d="M356 255L356 -7.15256e-06" stroke="#E6E7E8"/>
<path d="M388 255L388 -7.15256e-06" stroke="#E6E7E8"/>
<path d="M420 255L420 -7.15256e-06" stroke="#E6E7E8"/>
<rect x="0.5" width="435" height="255" fill="url(#paint0_linear_1239_143100)"/>
<circle cx="214" cy="123.605" r="90" fill="url(#paint1_linear_1239_143100)"/>
<g clip-path="url(#clip0_1239_143100)">
<path fill-rule="evenodd" clip-rule="evenodd" d="M262.833 90.1667V101.833H166.166V90.1667C166.166 86.4848 169.151 83.5 172.833 83.5H256.166C259.848 83.5 262.833 86.4848 262.833 90.1667Z" fill="#C6D8FB"/>
<path fill-rule="evenodd" clip-rule="evenodd" d="M256.166 83.5H251.166C254.848 83.5 257.833 86.4848 257.833 90.1667V101.833H262.833V90.1667C262.833 86.4848 259.848 83.5 256.166 83.5Z" fill="#A4C3FD"/>
<path fill-rule="evenodd" clip-rule="evenodd" d="M262.833 101.833V165.167C262.833 168.849 259.848 171.834 256.166 171.834H172.833C169.151 171.834 166.166 168.849 166.166 165.167V101.833H262.833Z" fill="#E8EDFC"/>
<path fill-rule="evenodd" clip-rule="evenodd" d="M257.833 101.833V165.167C257.833 168.849 254.848 171.834 251.166 171.834H256.166C259.848 171.834 262.833 168.849 262.833 165.167V101.833H257.833Z" fill="#CAD9FC"/>
<path d="M184.5 80.1665C184.5 77.4051 182.261 75.1665 179.5 75.1665C176.739 75.1665 174.5 77.4051 174.5 80.1665V90.1665C174.5 92.9279 176.739 95.1665 179.5 95.1665C182.261 95.1665 184.5 92.9279 184.5 90.1665V80.1665Z" fill="#A4C2F7"/>
<path d="M207.834 80.1665C207.834 77.4051 205.595 75.1665 202.834 75.1665C200.073 75.1665 197.834 77.4051 197.834 80.1665V90.1665C197.834 92.9279 200.073 95.1665 202.834 95.1665C205.595 95.1665 207.834 92.9279 207.834 90.1665V80.1665Z" fill="#A4C2F7"/>
<path d="M231.166 80.1665C231.166 77.4051 228.927 75.1665 226.166 75.1665C223.405 75.1665 221.166 77.4051 221.166 80.1665V90.1665C221.166 92.9279 223.405 95.1665 226.166 95.1665C228.927 95.1665 231.166 92.9279 231.166 90.1665V80.1665Z" fill="#A4C2F7"/>
<path d="M254.5 80.1665C254.5 77.4051 252.261 75.1665 249.5 75.1665C246.739 75.1665 244.5 77.4051 244.5 80.1665V90.1665C244.5 92.9279 246.739 95.1665 249.5 95.1665C252.261 95.1665 254.5 92.9279 254.5 90.1665V80.1665Z" fill="#A4C2F7"/>
<path d="M187.833 108.5H177.833C176.912 108.5 176.166 109.246 176.166 110.167V120.167C176.166 121.087 176.912 121.833 177.833 121.833H187.833C188.753 121.833 189.499 121.087 189.499 120.167V110.167C189.499 109.246 188.753 108.5 187.833 108.5Z" fill="#E8EDFC"/>
<path d="M187.833 128.5H177.833C176.912 128.5 176.166 129.246 176.166 130.167V140.167C176.166 141.087 176.912 141.833 177.833 141.833H187.833C188.753 141.833 189.499 141.087 189.499 140.167V130.167C189.499 129.246 188.753 128.5 187.833 128.5Z" fill="#E8EDFC"/>
<path d="M187.833 148.5H177.833C176.912 148.5 176.166 149.246 176.166 150.167V160.167C176.166 161.087 176.912 161.833 177.833 161.833H187.833C188.753 161.833 189.499 161.087 189.499 160.167V150.167C189.499 149.246 188.753 148.5 187.833 148.5Z" fill="#E8EDFC"/>
<path fill-rule="evenodd" clip-rule="evenodd" d="M177.833 171.833H172.833C169.151 171.833 166.166 168.849 166.166 165.167V90.1667C166.166 86.4848 169.151 83.5 172.833 83.5H174.499V84.4C172.434 85.5846 171.162 87.7855 171.166 90.1667V165.167C171.166 168.849 174.151 171.833 177.833 171.833Z" fill="white"/>
<path fill-rule="evenodd" clip-rule="evenodd" d="M164.5 151.833H167.833V165.167H164.5V151.833Z" fill="white"/>
<path d="M166.167 160.167C167.087 160.167 167.833 159.421 167.833 158.5C167.833 157.58 167.087 156.833 166.167 156.833C165.246 156.833 164.5 157.58 164.5 158.5C164.5 159.421 165.246 160.167 166.167 160.167Z" fill="#428DFF"/>
<path d="M256.167 81.8333V80.1667C256.167 76.4848 253.182 73.5 249.5 73.5C245.818 73.5 242.833 76.4848 242.833 80.1667V81.8333H232.833V80.1667C232.833 76.4848 229.849 73.5 226.167 73.5C222.485 73.5 219.5 76.4848 219.5 80.1667V81.8333H209.5V80.1667C209.5 76.4848 206.515 73.5 202.833 73.5C199.151 73.5 196.167 76.4848 196.167 80.1667V81.8333H186.167V80.1667C186.167 76.4848 183.182 73.5 179.5 73.5C175.818 73.5 172.833 76.4848 172.833 80.1667V81.8333C168.233 81.8388 164.506 85.5666 164.5 90.1667V151.833C164.5 152.754 165.246 153.5 166.167 153.5C167.087 153.5 167.833 152.754 167.833 151.833V103.5H261.167V165.167C261.167 167.928 258.928 170.167 256.167 170.167H172.833C170.072 170.167 167.833 167.928 167.833 165.167C167.833 164.246 167.087 163.5 166.167 163.5C165.246 163.5 164.5 164.246 164.5 165.167C164.506 169.767 168.233 173.494 172.833 173.5H256.167C260.767 173.494 264.494 169.767 264.5 165.167V90.1667C264.494 85.5666 260.767 81.8388 256.167 81.8333ZM246.167 80.1667C246.167 78.3257 247.659 76.8333 249.5 76.8333C251.341 76.8333 252.833 78.3257 252.833 80.1667V90.1667C252.833 92.0076 251.341 93.5 249.5 93.5C247.659 93.5 246.167 92.0076 246.167 90.1667V80.1667ZM222.833 80.1667C222.833 78.3257 224.326 76.8333 226.167 76.8333C228.008 76.8333 229.5 78.3257 229.5 80.1667V90.1667C229.5 92.0076 228.008 93.5 226.167 93.5C224.326 93.5 222.833 92.0076 222.833 90.1667V80.1667ZM199.5 80.1667C199.5 78.3257 200.992 76.8333 202.833 76.8333C204.674 76.8333 206.167 78.3257 206.167 80.1667V90.1667C206.167 92.0076 204.674 93.5 202.833 93.5C200.992 93.5 199.5 92.0076 199.5 90.1667V80.1667ZM176.167 80.1667C176.167 78.3257 177.659 76.8333 179.5 76.8333C181.341 76.8333 182.833 78.3257 182.833 80.1667V90.1667C182.833 92.0076 181.341 93.5 179.5 93.5C177.659 93.5 176.167 92.0076 176.167 90.1667V80.1667ZM167.833 100.167V90.1667C167.833 87.4052 170.072 85.1667 172.833 85.1667V90.1667C172.833 93.8486 175.818 96.8333 179.5 96.8333C183.182 96.8333 186.167 93.8486 186.167 90.1667V85.1667H196.167V90.1667C196.167 93.8486 199.151 96.8333 202.833 96.8333C206.515 96.8333 209.5 93.8486 209.5 90.1667V85.1667H219.5V90.1667C219.5 93.8486 222.485 96.8333 226.167 96.8333C229.849 96.8333 232.833 93.8486 232.833 90.1667V85.1667H242.833V90.1667C242.833 93.8486 245.818 96.8333 249.5 96.8333C253.182 96.8333 256.167 93.8486 256.167 90.1667V85.1667C258.928 85.1667 261.167 87.4052 261.167 90.1667V100.167H167.833Z" fill="#428DFF"/>
<path d="M177.833 123.5H187.833C189.674 123.5 191.167 122.008 191.167 120.167V110.167C191.167 108.326 189.674 106.833 187.833 106.833H177.833C175.992 106.833 174.5 108.326 174.5 110.167V120.167C174.5 122.008 175.992 123.5 177.833 123.5ZM177.833 110.167H187.833V120.167H177.833V110.167Z" fill="#428DFF"/>
<path fill-rule="evenodd" clip-rule="evenodd" d="M199.501 113.5H227.834C228.754 113.5 229.501 112.754 229.501 111.833C229.501 110.913 228.754 110.167 227.834 110.167H199.501C198.58 110.167 197.834 110.913 197.834 111.833C197.834 112.754 198.58 113.5 199.501 113.5Z" fill="#428DFF"/>
<path fill-rule="evenodd" clip-rule="evenodd" d="M252.834 110.167H234.501C233.58 110.167 232.834 110.913 232.834 111.833C232.834 112.754 233.58 113.5 234.501 113.5H252.834C253.754 113.5 254.501 112.754 254.501 111.833C254.501 110.913 253.754 110.167 252.834 110.167Z" fill="#428DFF"/>
<path fill-rule="evenodd" clip-rule="evenodd" d="M199.501 120.167H239.501C240.421 120.167 241.167 119.421 241.167 118.5C241.167 117.58 240.421 116.833 239.501 116.833H199.501C198.58 116.833 197.834 117.58 197.834 118.5C197.834 119.421 198.58 120.167 199.501 120.167Z" fill="#428DFF"/>
<path d="M174.5 140.167C174.5 142.008 175.992 143.5 177.833 143.5H187.833C189.674 143.5 191.167 142.008 191.167 140.167V130.167C191.167 128.326 189.674 126.833 187.833 126.833H177.833C175.992 126.833 174.5 128.326 174.5 130.167V140.167ZM177.833 130.167H187.833V140.167H177.833V130.167Z" fill="#428DFF"/>
<path fill-rule="evenodd" clip-rule="evenodd" d="M199.501 133.5H227.834C228.754 133.5 229.501 132.754 229.501 131.833C229.501 130.913 228.754 130.167 227.834 130.167H199.501C198.58 130.167 197.834 130.913 197.834 131.833C197.834 132.754 198.58 133.5 199.501 133.5Z" fill="#428DFF"/>
<path fill-rule="evenodd" clip-rule="evenodd" d="M252.834 130.167H234.501C233.58 130.167 232.834 130.913 232.834 131.833C232.834 132.754 233.58 133.5 234.501 133.5H252.834C253.754 133.5 254.501 132.754 254.501 131.833C254.501 130.913 253.754 130.167 252.834 130.167Z" fill="#428DFF"/>
<path fill-rule="evenodd" clip-rule="evenodd" d="M199.501 140.167H239.501C240.421 140.167 241.167 139.421 241.167 138.5C241.167 137.58 240.421 136.833 239.501 136.833H199.501C198.58 136.833 197.834 137.58 197.834 138.5C197.834 139.421 198.58 140.167 199.501 140.167Z" fill="#428DFF"/>
<path d="M174.5 160.167C174.5 162.008 175.992 163.5 177.833 163.5H187.833C189.674 163.5 191.167 162.008 191.167 160.167V150.167C191.167 148.326 189.674 146.833 187.833 146.833H177.833C175.992 146.833 174.5 148.326 174.5 150.167V160.167ZM177.833 150.167H187.833V160.167H177.833V150.167Z" fill="#428DFF"/>
<path fill-rule="evenodd" clip-rule="evenodd" d="M199.501 153.5H227.834C228.754 153.5 229.501 152.754 229.501 151.833C229.501 150.913 228.754 150.167 227.834 150.167H199.501C198.58 150.167 197.834 150.913 197.834 151.833C197.834 152.754 198.58 153.5 199.501 153.5Z" fill="#428DFF"/>
<path fill-rule="evenodd" clip-rule="evenodd" d="M252.834 150.167H234.501C233.58 150.167 232.834 150.913 232.834 151.833C232.834 152.754 233.58 153.5 234.501 153.5H252.834C253.754 153.5 254.501 152.754 254.501 151.833C254.501 150.913 253.754 150.167 252.834 150.167Z" fill="#428DFF"/>
<path fill-rule="evenodd" clip-rule="evenodd" d="M199.501 160.167H239.501C240.421 160.167 241.167 159.421 241.167 158.5C241.167 157.58 240.421 156.833 239.501 156.833H199.501C198.58 156.833 197.834 157.58 197.834 158.5C197.834 159.421 198.58 160.167 199.501 160.167Z" fill="#428DFF"/>
</g>
<circle cx="296.5" cy="173.5" r="29.7741" fill="#FF0000" stroke="white" stroke-width="4.45183"/>
<path d="M302.959 167.263L290.959 179.263" stroke="white" stroke-width="5" stroke-linecap="round" stroke-linejoin="round"/>
<path d="M290.959 167.263L302.959 179.263" stroke="white" stroke-width="5" stroke-linecap="round" stroke-linejoin="round"/>
<defs>
<linearGradient id="paint0_linear_1239_143100" x1="217.5" y1="-4.79269e-08" x2="217.5" y2="255" gradientUnits="userSpaceOnUse">
<stop stop-color="white"/>
<stop offset="0.495" stop-color="white" stop-opacity="0"/>
<stop offset="1" stop-color="white"/>
</linearGradient>
<linearGradient id="paint1_linear_1239_143100" x1="214" y1="33.605" x2="214" y2="213.605" gradientUnits="userSpaceOnUse">
<stop offset="0.316" stop-color="#DFECFC"/>
<stop offset="1" stop-color="#C8DFF9"/>
</linearGradient>
<clipPath id="clip0_1239_143100">
<rect width="100" height="100" fill="white" transform="translate(164.5 73.5)"/>
</clipPath>
</defs>
</svg>
