<svg width="32" height="32" viewBox="0 0 32 32" fill="none" xmlns="http://www.w3.org/2000/svg">
<g clip-path="url(#clip0_230_8964)">
<path fill-rule="evenodd" clip-rule="evenodd" d="M29.7386 28.7274C30.2961 28.7274 30.75 29.1813 30.75 29.7388C30.75 30.2967 30.2966 30.7501 29.7386 30.7501C29.1808 30.7501 28.7279 30.2965 28.7279 29.7388C28.7279 29.1816 29.1812 28.7274 29.7386 28.7274ZM26.7481 19.3057C26.7481 17.2695 25.0916 15.6134 23.0554 15.6134C21.0197 15.6134 19.3631 17.27 19.3631 19.3057C19.3631 21.3417 21.0194 22.9982 23.0554 22.9982C25.0919 22.9983 26.7481 21.3421 26.7481 19.3057ZM27.4645 22.015C27.4214 22.0851 27.4156 22.1724 27.4489 22.2476L27.8354 23.1181L26.8678 24.0857L25.9979 23.6992C25.9229 23.6659 25.8353 23.6717 25.7654 23.7147C25.2986 24.0025 24.7906 24.2133 24.2571 24.3402C24.1771 24.3593 24.1114 24.4169 24.0819 24.4937L23.7401 25.3814H22.3713L22.0296 24.493C21.9999 24.4157 21.9338 24.3594 21.8535 24.3401C21.321 24.2128 20.8128 24.0017 20.3465 23.7147C20.2763 23.6716 20.1892 23.6656 20.1139 23.6991L19.244 24.0856L18.2761 23.1181L18.6619 22.2482C18.6952 22.1729 18.6896 22.0857 18.6464 22.0156C18.3587 21.5488 18.1483 21.0406 18.0215 20.5072C18.0024 20.4271 17.945 20.3617 17.8681 20.3321L16.9804 19.9903V18.6216L17.8681 18.2798C17.9451 18.2501 18.0024 18.1843 18.0215 18.104C18.1484 17.5709 18.3589 17.0628 18.6464 16.5963C18.6897 16.5262 18.6952 16.4392 18.6619 16.364L18.2761 15.4939L19.2439 14.5257L20.1139 14.9122C20.1891 14.9457 20.2761 14.9399 20.3463 14.8967C20.8127 14.6092 21.3207 14.3986 21.8537 14.2717C21.934 14.2526 21.9999 14.1954 22.0295 14.1183L22.3712 13.2306H23.74L24.0818 14.1183C24.1113 14.1951 24.177 14.2527 24.2571 14.2717C24.7902 14.3987 25.2979 14.6098 25.7646 14.8972C25.8349 14.9405 25.9219 14.9456 25.9972 14.9122L26.8678 14.5257L27.8353 15.494L27.4488 16.3642C27.4154 16.4393 27.4212 16.5264 27.4644 16.5964C27.7517 17.0631 27.9629 17.5709 28.0898 18.1041C28.1089 18.1842 28.1663 18.2502 28.2432 18.2799L29.1309 18.6216V19.9904L28.2432 20.3321C28.1662 20.3618 28.1089 20.4271 28.0898 20.5074C27.963 21.0405 27.7519 21.5483 27.4645 22.015ZM13.033 23.3795C13.033 24.7782 11.8947 25.9164 10.4961 25.9164C9.09719 25.9164 7.95944 24.7782 7.95944 23.3795C7.95944 21.9803 9.09675 20.8419 10.4961 20.8419C11.8952 20.8419 13.033 21.9804 13.033 23.3795ZM2.26106 17.7532C1.70312 17.7532 1.25 17.2998 1.25 16.7419C1.25 16.1842 1.70344 15.7315 2.26106 15.7315C2.8185 15.7315 3.27181 16.1844 3.27181 16.7419C3.27181 17.2996 2.81887 17.7532 2.26106 17.7532ZM13.2931 9.80631C13.2931 7.88362 11.729 6.31875 9.80619 6.31875C7.88344 6.31875 6.31862 7.88356 6.31862 9.80631C6.31862 11.7291 7.8835 13.2932 9.80619 13.2932C11.7289 13.2933 13.2931 11.7291 13.2931 9.80631ZM7.26638 13.9392C7.19631 13.8961 7.10906 13.8901 7.03387 13.9236L6.22437 14.2834L5.32925 13.3871L5.68837 12.5787C5.72175 12.5036 5.71594 12.4162 5.67281 12.3462C5.40331 11.9087 5.20556 11.4321 5.08675 10.9323C5.06769 10.8522 5.01006 10.7867 4.93325 10.7571L4.10794 10.4392V9.17287L4.93319 8.85493C5.01012 8.82531 5.06763 8.76006 5.08669 8.67981C5.20537 8.17993 5.40325 7.70387 5.67275 7.26643C5.71588 7.19643 5.72162 7.109 5.68825 7.03387L5.32919 6.22456L6.22437 5.32943L7.03369 5.6885C7.109 5.72193 7.19631 5.716 7.26656 5.67281C7.70406 5.404 8.18 5.20587 8.6795 5.08693C8.7595 5.06787 8.82525 5.01012 8.85481 4.93343L9.17275 4.10818H10.4391L10.7571 4.93343C10.7866 5.01012 10.8524 5.06787 10.9324 5.08693C11.4319 5.20593 11.9078 5.404 12.3453 5.67281C12.4157 5.71606 12.5031 5.72206 12.5786 5.6885L13.3873 5.32943L14.2832 6.22456L13.9241 7.03343C13.8907 7.10862 13.8965 7.19587 13.9396 7.26593C14.2091 7.70325 14.4066 8.18006 14.5257 8.67968C14.5448 8.75993 14.6016 8.82537 14.6786 8.855L15.5042 9.17287V10.4392L14.6786 10.7571C14.6016 10.7867 14.5442 10.8525 14.5251 10.9327C14.4066 11.4325 14.2083 11.9087 13.9391 12.3461C13.8961 12.4159 13.89 12.5035 13.9234 12.5784L14.2833 13.387L13.3874 14.2832L12.5786 13.9241C12.5032 13.8906 12.4164 13.8964 12.3461 13.9397C11.9087 14.2089 11.4319 14.4056 10.9326 14.5251C10.8524 14.5442 10.7868 14.6016 10.7571 14.6786L10.4392 15.5045H9.17275L8.85487 14.6786C8.82537 14.6019 8.75962 14.5441 8.67969 14.5251C8.17994 14.4064 7.70375 14.2084 7.26638 13.9392ZM4.43506 3.27256C3.8775 3.27256 3.42431 2.81862 3.42431 2.26125C3.42431 1.70362 3.87737 1.25018 4.43506 1.25018C4.99287 1.25018 5.44613 1.70343 5.44613 2.26125C5.44606 2.81881 4.99269 3.27256 4.43506 3.27256ZM29.7386 10.0342C29.1808 10.0342 28.7279 9.58093 28.7279 9.02318C28.7279 8.46575 29.1812 8.01243 29.7386 8.01243C30.2962 8.01243 30.75 8.4655 30.75 9.02318C30.75 9.58118 30.2965 10.0342 29.7386 10.0342Z" fill="#C8DFF9"/>
<path fill-rule="evenodd" clip-rule="evenodd" d="M29.7386 30.5001C29.3191 30.5001 28.9778 30.1589 28.9778 29.7388C28.9778 29.3196 29.3191 28.9774 29.7386 28.9774C30.1584 28.9774 30.4999 29.3196 30.4999 29.7388C30.4999 30.1589 30.1584 30.5001 29.7386 30.5001ZM22.2629 24.4032C22.2034 24.2494 22.0722 24.1353 21.9116 24.097C21.4054 23.9758 20.9223 23.7757 20.4775 23.5019C20.3372 23.4157 20.1636 23.4039 20.0124 23.4707L19.2993 23.7875L18.5742 23.0626L18.8904 22.3496C18.9575 22.1986 18.946 22.0245 18.8592 21.8844C18.5854 21.4393 18.3856 20.9569 18.2647 20.4494C18.2267 20.2888 18.1117 20.1576 17.9579 20.0987L17.2304 19.8187V18.7932L17.9579 18.5131C18.1117 18.4537 18.2267 18.3225 18.2647 18.1619C18.3856 17.655 18.5854 17.1726 18.8592 16.7274C18.946 16.5874 18.9581 16.4132 18.8904 16.2626L18.5742 15.5492L19.2993 14.8238L20.0124 15.1406C20.163 15.2083 20.3371 15.1963 20.4774 15.1094C20.9222 14.8356 21.4047 14.6358 21.9116 14.5149C22.0722 14.477 22.2034 14.3619 22.2628 14.2081L22.5429 13.4806H23.5684L23.8484 14.2081C23.9079 14.362 24.0391 14.477 24.1991 14.5149C24.706 14.6359 25.1884 14.8356 25.6336 15.1101C25.7742 15.1962 25.948 15.2083 26.0986 15.1406L26.8123 14.8238L27.5372 15.5492L27.2204 16.2626C27.1536 16.4132 27.1654 16.5868 27.2516 16.7274C27.5261 17.1725 27.7261 17.655 27.8467 18.1619C27.8849 18.3225 27.9999 18.4537 28.1535 18.5131L28.881 18.7932V19.8188L28.1535 20.0988C27.9991 20.1582 27.8849 20.2894 27.8467 20.4495C27.7261 20.9564 27.5261 21.4388 27.2516 21.8839C27.1654 22.0246 27.1536 22.1984 27.2204 22.3491L27.5372 23.0627L26.8124 23.7875L26.0993 23.4707C25.9487 23.4039 25.7742 23.4157 25.6342 23.5019C25.1891 23.7763 24.7067 23.9764 24.1992 24.097C24.0392 24.1353 23.908 24.25 23.8486 24.4038L23.5685 25.1313H22.543L22.2629 24.4032ZM29.7386 8.2625C30.1584 8.2625 30.4999 8.60375 30.4999 9.02325C30.4999 9.44337 30.1584 9.78431 29.7386 9.78431C29.3191 9.78431 28.9778 9.44337 28.9778 9.02325C28.9778 8.60375 29.3191 8.2625 29.7386 8.2625ZM29.7386 27.9776C28.9411 27.9776 28.2668 28.5106 28.0502 29.2388H23.5555V26.1313H23.9117C24.1186 26.1313 24.3042 26.0039 24.3786 25.8106L24.6899 25.0019C25.1206 24.8784 25.5354 24.7063 25.9272 24.4889L26.7203 24.8407C26.9092 24.9251 27.1304 24.8836 27.2766 24.7377L28.4874 23.5269C28.6336 23.3807 28.6748 23.1594 28.5904 22.97L28.2386 22.1769C28.4559 21.785 28.6281 21.3708 28.7516 20.9401L29.5603 20.628C29.7536 20.5544 29.8812 20.3688 29.8812 20.162V18.4502C29.8812 18.2431 29.7536 18.0574 29.5603 17.983L28.7516 17.6721C28.6287 17.2408 28.4566 16.8263 28.2386 16.4339L28.5904 15.6414C28.6749 15.4525 28.6337 15.2313 28.4874 15.0851L27.2766 13.8745C27.1304 13.728 26.9092 13.6871 26.7203 13.7707L25.9272 14.1231C25.5347 13.9051 25.1206 13.7334 24.6899 13.6101L24.3786 12.8008C24.3042 12.6075 24.1186 12.4808 23.9117 12.4808H23.5555V9.52337H28.0502C28.2667 10.2514 28.9411 10.7845 29.7386 10.7845C30.7099 10.7845 31.4998 9.99463 31.4998 9.02325C31.4998 8.05244 30.7099 7.26256 29.7386 7.26256C28.9411 7.26256 28.2668 7.79506 28.0502 8.52312H23.0554C22.7797 8.52312 22.5556 8.747 22.5556 9.02325V12.4808H22.1999C21.9928 12.4808 21.8075 12.6076 21.7328 12.8008L21.4219 13.6101C20.9912 13.7334 20.5767 13.9052 20.1842 14.1231L19.3911 13.7707C19.2026 13.6871 18.9811 13.728 18.8348 13.8745L17.6242 15.0851C17.478 15.2312 17.4368 15.4525 17.5204 15.6414L17.8728 16.4345C17.6548 16.8264 17.483 17.2414 17.3597 17.6721L16.5504 17.9831C16.3572 18.0575 16.2304 18.2431 16.2304 18.4503V20.1621C16.2304 20.3689 16.3572 20.5545 16.5504 20.6281L17.3597 20.9402C17.483 21.3709 17.6548 21.7851 17.8728 22.1775L17.5204 22.97C17.4368 23.1594 17.478 23.3807 17.6242 23.5269L18.8348 24.7377C18.981 24.8837 19.2026 24.9251 19.3911 24.8407L20.1842 24.4889C20.5767 24.7062 20.9912 24.8784 21.4219 25.0013L21.7328 25.8106C21.8075 26.0039 21.9929 26.1313 22.1999 26.1313H22.5556V29.7388C22.5556 30.015 22.7798 30.2389 23.0554 30.2389H28.0503C28.2668 30.967 28.9411 31.5 29.7386 31.5C30.71 31.5 31.4999 30.7101 31.4999 29.7388C31.4998 28.7683 30.7099 27.9776 29.7386 27.9776ZM10.4959 25.6664C9.23481 25.6664 8.20925 24.6401 8.20925 23.3795C8.20925 22.1181 9.23475 21.0919 10.4959 21.0919C11.7568 21.0919 12.7829 22.1181 12.7829 23.3795C12.7829 24.6401 11.7568 25.6664 10.4959 25.6664ZM10.4959 20.0921C8.6835 20.0921 7.20937 21.5671 7.20937 23.3795C7.20937 25.1914 8.6835 26.6664 10.4959 26.6664C12.3087 26.6664 13.7828 25.1914 13.7828 23.3795C13.7829 21.5671 12.3087 20.0921 10.4959 20.0921ZM15.1166 23.7287V23.0294L14.5886 22.8264C14.4347 22.767 14.3197 22.6358 14.2817 22.4752C14.1867 22.0745 14.0284 21.6932 13.8116 21.342C13.7254 21.2014 13.7137 21.0269 13.7804 20.8763L14.0105 20.3589L13.516 19.8644L12.9979 20.0944C12.8473 20.1615 12.6734 20.1494 12.5329 20.0632C12.1816 19.847 11.8004 19.6887 11.3997 19.5931C11.2391 19.5552 11.1079 19.4401 11.0493 19.2863L10.8454 18.7582H10.1462L9.94287 19.2863C9.88344 19.4402 9.75225 19.5552 9.59162 19.5931C9.19181 19.6887 8.81056 19.847 8.45844 20.0632C8.31781 20.1494 8.14425 20.1615 7.99362 20.0944L7.47556 19.8644L6.98106 20.3589L7.21112 20.8769C7.27787 21.0276 7.26612 21.2014 7.17994 21.342C6.96337 21.6932 6.80544 22.0745 6.70981 22.4752C6.67156 22.6358 6.55656 22.767 6.403 22.8264L5.87494 23.0294V23.7287L6.403 23.932C6.55656 23.9914 6.67156 24.1226 6.70981 24.2833C6.80544 24.6839 6.96337 25.0652 7.17994 25.4164C7.26612 25.5571 7.27787 25.7312 7.21112 25.8818L6.98106 26.3996L7.47556 26.8938L7.99362 26.6637C8.14425 26.5969 8.31781 26.609 8.45844 26.6949C8.81056 26.9114 9.19181 27.0694 9.59162 27.165C9.75225 27.2033 9.88344 27.3183 9.94287 27.4718L10.1462 27.9999H10.8454L11.0484 27.4718C11.1079 27.3183 11.2391 27.2033 11.3997 27.165C11.8004 27.07 12.1816 26.912 12.5334 26.6949C12.6735 26.609 12.8479 26.5969 12.9985 26.6637L13.5159 26.8938L14.0104 26.3996L13.7804 25.8813C13.7136 25.7306 13.7254 25.5571 13.8116 25.4164C14.0284 25.0646 14.1866 24.6834 14.2817 24.2833C14.3196 24.1226 14.4346 23.9914 14.5885 23.932L15.1166 23.7287ZM1.49994 16.7419C1.49994 16.3224 1.84119 15.9815 2.261 15.9815C2.6805 15.9815 3.02175 16.3224 3.02175 16.7419C3.02175 17.162 2.6805 17.5033 2.261 17.5033C1.84119 17.5033 1.49994 17.162 1.49994 16.7419ZM15.7962 22.2196L15.1855 21.9845C15.089 21.66 14.9593 21.3476 14.7981 21.0502L15.0643 20.4513C15.1479 20.2621 15.1067 20.0409 14.9604 19.8944L13.9805 18.9144C13.834 18.7683 13.6131 18.7271 13.4242 18.8115L12.825 19.0769C12.5272 18.9157 12.2149 18.7862 11.8904 18.6903L11.6553 18.0788C11.5809 17.8857 11.3956 17.7584 11.1887 17.7584H9.80287C9.59606 17.7584 9.41044 17.8857 9.336 18.0788L9.10094 18.6903C8.77731 18.7862 8.46431 18.9157 8.16663 19.0769L7.56794 18.8115C7.3785 18.7271 7.15725 18.7683 7.01106 18.9144L6.03087 19.8944C5.88494 20.0409 5.8435 20.2621 5.92794 20.4513L6.19362 21.0502C6.03237 21.3476 5.903 21.66 5.80675 21.9845L5.19544 22.2196C5.00244 22.294 4.87481 22.4793 4.87481 22.6864V22.8794H2.76106V18.4309C3.48919 18.2146 4.02162 17.5395 4.02162 16.742C4.02162 15.7715 3.23175 14.9813 2.26094 14.9813C1.28987 14.9813 0.5 15.7715 0.5 16.742C0.5 17.5395 1.03306 18.2146 1.76112 18.4309V23.3796C1.76112 23.6552 1.98469 23.8794 2.26094 23.8794H4.87475V24.0721C4.87475 24.2789 5.00244 24.4645 5.19537 24.5389L5.80612 24.774C5.90231 25.0982 6.03231 25.4106 6.19356 25.7089L5.92787 26.3069C5.84344 26.4964 5.88494 26.7176 6.03081 26.8638L7.011 27.844C7.15719 27.9902 7.37844 28.0314 7.56787 27.947L8.16656 27.6814C8.46425 27.8426 8.77725 27.972 9.10087 28.0682L9.33594 28.6795C9.41037 28.8725 9.596 29.0001 9.80281 29.0001H11.189C11.3955 29.0001 11.5809 28.8724 11.6552 28.6795L11.8903 28.0688C12.2148 27.9726 12.5272 27.8425 12.8255 27.6813L13.4236 27.9469C13.613 28.0314 13.8339 27.9902 13.9804 27.8439L14.9604 26.8638C15.1066 26.7175 15.1477 26.4963 15.0636 26.3069L14.798 25.7082C14.9592 25.4105 15.0889 25.0981 15.1854 24.7739L15.7961 24.5388C15.9891 24.4644 16.1165 24.2787 16.1165 24.0719V22.6864C16.1166 22.4793 15.9892 22.294 15.7962 22.2196ZM23.0554 22.2481C24.6777 22.2481 25.9981 20.9281 25.9981 19.3057C25.9981 17.683 24.6778 16.3633 23.0554 16.3633C21.4329 16.3633 20.113 17.683 20.113 19.3057C20.113 20.9281 21.433 22.2481 23.0554 22.2481ZM26.998 19.3057C26.998 17.132 25.23 15.3634 23.0554 15.3634C20.8817 15.3634 19.1131 17.132 19.1131 19.3057C19.1131 21.4799 20.8817 23.2482 23.0554 23.2482C25.23 23.2483 26.998 21.48 26.998 19.3057ZM9.80612 12.5431C8.29669 12.5431 7.0685 11.3158 7.0685 9.80631C7.0685 8.29688 8.29669 7.06894 9.80612 7.06894C11.3147 7.06894 12.5429 8.29688 12.5429 9.80631C12.5429 11.3158 11.3147 12.5431 9.80612 12.5431ZM9.80612 6.06881C7.74537 6.06881 6.06856 7.74562 6.06856 9.80637C6.06856 11.8671 7.74537 13.5433 9.80612 13.5433C11.8669 13.5433 13.5431 11.8671 13.5431 9.80637C13.5431 7.74562 11.8669 6.06881 9.80612 6.06881ZM15.2541 10.2676L14.5886 10.5238C14.4347 10.5833 14.3197 10.7144 14.2818 10.8751C14.1694 11.3481 13.9823 11.7988 13.7261 12.2151C13.6399 12.3551 13.6282 12.5296 13.6949 12.6802L13.985 13.3318L13.3319 13.9852L12.68 13.6957C12.5294 13.6283 12.3555 13.6401 12.2149 13.7269C11.7992 13.9825 11.348 14.1693 10.8744 14.282C10.7143 14.3208 10.5831 14.4349 10.5237 14.5888L10.2674 15.2546H9.34431L9.08806 14.5888C9.02925 14.4349 8.89744 14.3199 8.73744 14.282C8.26406 14.1693 7.81312 13.9825 7.39744 13.7263C7.25681 13.6401 7.08294 13.6284 6.93231 13.6951L6.27981 13.9852L5.62731 13.3318L5.91681 12.6802C5.98362 12.5296 5.97181 12.3557 5.88562 12.2151C5.62912 11.7994 5.44231 11.3481 5.32994 10.8745C5.29169 10.7144 5.17694 10.5833 5.02312 10.5238L4.358 10.2676V9.3445L5.02312 9.08825C5.177 9.02944 5.29169 8.89819 5.32994 8.73756C5.44231 8.26394 5.62912 7.81325 5.88562 7.39756C5.97181 7.25694 5.98356 7.08306 5.91681 6.93244L5.62731 6.27994L6.27981 5.62744L6.93231 5.91694C7.08294 5.98369 7.25681 5.97194 7.39744 5.88575C7.81312 5.63013 8.26381 5.44269 8.73744 5.33006C8.8975 5.29181 9.02869 5.17681 9.08806 5.02325L9.34431 4.35813H10.2674L10.5237 5.02325C10.5831 5.17681 10.7143 5.29181 10.8744 5.33006C11.348 5.44275 11.7987 5.63013 12.2144 5.88575C12.355 5.97194 12.5289 5.98369 12.6801 5.91694L13.332 5.62744L13.9851 6.27994L13.6956 6.93181C13.6282 7.08244 13.64 7.25688 13.7267 7.39694C13.9824 7.81262 14.1695 8.26388 14.2824 8.7375C14.3207 8.89813 14.4348 9.02931 14.5887 9.08819L15.2541 9.34444V10.2676H15.2541ZM4.435 3.02256C4.0155 3.02256 3.67425 2.68069 3.67425 2.26125C3.67425 1.84144 4.0155 1.50019 4.435 1.50019C4.85481 1.50019 5.19606 1.84144 5.19606 2.26125C5.196 2.68069 4.85475 3.02256 4.435 3.02256ZM16.2542 9.00144V10.6112C16.2542 10.8183 16.1266 11.0031 15.9336 11.0774L15.1861 11.3651C15.0717 11.7626 14.9131 12.145 14.7131 12.5077L15.0381 13.24C15.1217 13.4289 15.0811 13.6501 14.9349 13.7963L13.7961 14.9351C13.6499 15.0813 13.4287 15.1219 13.2398 15.038L12.5079 14.7133C12.1449 14.9133 11.7625 15.0719 11.3647 15.1869L11.0773 15.9338C11.0029 16.1271 10.8181 16.2544 10.6111 16.2544H9.00131C8.79419 16.2544 8.60856 16.1271 8.53419 15.9338L8.24675 15.1863C7.84987 15.0719 7.46744 14.9133 7.10444 14.7133L6.3725 15.0381C6.18306 15.1219 5.96181 15.0813 5.81562 14.9351L4.67744 13.7964C4.53125 13.6502 4.48975 13.4289 4.57362 13.2401L4.89869 12.5081C4.69862 12.1451 4.53981 11.7627 4.42506 11.3652L3.67806 11.0775C3.48537 11.0031 3.358 10.8183 3.358 10.6112V9.0015C3.358 8.79444 3.48475 8.60875 3.67806 8.53463L4.42556 8.24694C4.54056 7.8495 4.69856 7.46706 4.89919 7.10463L4.57356 6.37269C4.48969 6.18325 4.53119 5.962 4.67737 5.81581L5.81556 4.67763C5.96175 4.53138 6.183 4.49025 6.37244 4.57375L7.10437 4.89944C7.46681 4.69881 7.84925 4.54081 8.24669 4.42581L8.53412 3.67831C8.60856 3.48588 8.79419 3.35825 9.00125 3.35825H9.32606V2.76137H6.12356C5.90731 3.4895 5.2325 4.02281 4.43494 4.02281C3.46412 4.02281 2.67425 3.23263 2.67425 2.26125C2.67425 1.29013 3.46412 0.5 4.43494 0.5C5.2325 0.5 5.90731 1.03338 6.12356 1.76144H9.82612C10.1024 1.76144 10.3259 1.985 10.3259 2.26125V3.35825H10.611C10.8181 3.35825 11.0028 3.48594 11.0772 3.67831L11.3647 4.42581C11.7624 4.54081 12.1449 4.69881 12.5073 4.89944L13.2398 4.57375C13.4287 4.49019 13.6499 4.53138 13.7961 4.67763L14.9349 5.81581C15.0811 5.962 15.1217 6.18325 15.0381 6.37269L14.7131 7.10463C14.9131 7.46706 15.0717 7.8495 15.1867 8.24694L15.9336 8.53463C16.1266 8.60875 16.2542 8.79437 16.2542 9.00144Z" fill="#5CA0EF"/>
</g>
<defs>
<clipPath id="clip0_230_8964">
<rect width="32" height="32" fill="white"/>
</clipPath>
</defs>
</svg>
