<svg width="32" height="32" viewBox="0 0 32 32" fill="none" xmlns="http://www.w3.org/2000/svg">
<g clip-path="url(#clip0_230_9104)">
<path fill-rule="evenodd" clip-rule="evenodd" d="M20.1712 7.10909C20.274 6.13183 20.758 5.24377 21.5214 4.62571C22.2838 4.00852 23.2563 3.71921 24.2322 3.8219C24.6481 3.86565 25.0534 3.97883 25.4311 4.15815L25.6046 4.24046L25.5181 4.4119C25.4943 4.45915 25.4823 4.51133 25.4843 4.56427C25.4903 4.73215 25.6285 4.86546 25.7964 4.86546C25.7995 4.86546 25.8027 4.86552 25.8058 4.8654L26.5472 4.83883C26.6431 4.8354 26.7321 4.78765 26.7886 4.71015C26.8453 4.63246 26.8623 4.53302 26.836 4.44065L26.6336 3.7299C26.5864 3.56421 26.4132 3.4674 26.2475 3.5149C26.1841 3.53302 26.1292 3.57008 26.0883 3.62171L25.9917 3.74365L25.854 3.67121C25.3698 3.41627 24.8416 3.2574 24.2973 3.20021C23.1563 3.08027 22.0201 3.41896 21.1288 4.1404C20.2359 4.86308 19.6698 5.90065 19.5496 7.04358C19.4535 7.95846 19.6481 8.87096 20.1107 9.66615C20.167 9.76296 20.2697 9.82152 20.3814 9.82152C20.437 9.82152 20.4903 9.80696 20.5383 9.77902C20.6872 9.6924 20.738 9.50065 20.6513 9.35177C20.2555 8.67227 20.089 7.89115 20.1712 7.10909ZM21.837 11.3205L21.6993 11.2481L21.6027 11.37C21.562 11.4213 21.5065 11.4588 21.4435 11.4768C21.4156 11.4848 21.3866 11.4886 21.3575 11.4886C21.2185 11.4886 21.0956 11.396 21.0575 11.262L20.8548 10.551C20.8285 10.4587 20.8457 10.3594 20.9022 10.2818C20.9588 10.204 21.0476 10.1563 21.1439 10.1529L21.8823 10.1264C22.054 10.1203 22.2001 10.2553 22.206 10.4273C22.2078 10.4799 22.1966 10.5322 22.1728 10.5792L22.086 10.7506L22.2596 10.8331C22.6373 11.0128 23.0428 11.1263 23.4586 11.1701C23.5881 11.1837 23.7181 11.1905 23.8483 11.1905C25.7328 11.1905 27.3223 9.75815 27.5196 7.88259C27.6019 7.10071 27.435 6.31977 27.0395 5.64027C26.9528 5.49133 27.0033 5.2994 27.1523 5.21271C27.3012 5.12608 27.493 5.17658 27.5797 5.32552C28.0423 6.12071 28.2373 7.03315 28.141 7.94808C27.9103 10.1407 26.052 11.8155 23.8489 11.8155C23.6968 11.8155 23.5446 11.8075 23.3934 11.7915C22.8491 11.7343 22.3215 11.5751 21.837 11.3205ZM10.1879 23.9097C8.66795 23.9097 7.43164 22.6734 7.43164 21.1535C7.43164 19.6334 8.66777 18.3966 10.1879 18.3966C11.7081 18.3966 12.9448 19.6332 12.9448 21.1535C12.9447 22.6736 11.7079 23.9097 10.1879 23.9097ZM22.7371 13.2491C22.7001 13.1529 22.6182 13.0812 22.5179 13.0573C21.9291 12.917 21.3679 12.6842 20.8525 12.3668C20.7647 12.3128 20.656 12.3055 20.5618 12.3473L19.6163 12.7673L18.574 11.725L18.9937 10.7798C19.0355 10.6858 19.0281 10.5766 18.9742 10.4891C18.6568 9.97352 18.4236 9.41221 18.284 8.82309C18.2602 8.7229 18.1883 8.64083 18.0922 8.60383L17.1278 8.23252V6.75896L18.0922 6.38765C18.1883 6.35065 18.2601 6.2684 18.284 6.16827C18.4241 5.57952 18.6568 5.01802 18.9743 4.50271C19.0282 4.41508 19.0354 4.30602 18.9937 4.21202L18.5741 3.26652L19.6163 2.22465L20.5618 2.64427C20.656 2.68608 20.7648 2.67884 20.8525 2.62484C21.368 2.3074 21.9291 2.07446 22.5181 1.93427C22.6182 1.91046 22.7002 1.83852 22.7371 1.74246L23.1085 0.77771H24.582L24.954 1.74234C24.991 1.83846 25.0727 1.91034 25.1731 1.93421C25.7621 2.07421 26.3232 2.30727 26.8387 2.62477C26.926 2.67858 27.0353 2.68583 27.1291 2.64421L28.0751 2.22427L29.117 3.26652L28.6974 4.21171C28.6557 4.30565 28.6629 4.41483 28.7168 4.50234C29.0343 5.01771 29.2668 5.5794 29.4071 6.16815C29.431 6.26821 29.5028 6.35065 29.5989 6.38758L30.5636 6.7589V8.23252L29.5989 8.60383C29.5025 8.64096 29.4311 8.72277 29.4071 8.82327C29.2667 9.41202 29.0338 9.97346 28.7163 10.4888C28.6623 10.5763 28.655 10.6853 28.6968 10.7793L29.1171 11.7248L28.0751 12.7671L27.13 12.3474C27.0356 12.3055 26.9266 12.3124 26.8387 12.3666C26.3232 12.6843 25.7622 12.9174 25.1731 13.0575C25.0727 13.0813 24.9911 13.1532 24.954 13.2493L24.582 14.2136H23.1083L22.7371 13.2491Z" fill="#C8DFF9"/>
<path fill-rule="evenodd" clip-rule="evenodd" d="M27.0576 5.05064C26.8191 5.18976 26.7384 5.4957 26.877 5.73458C27.2536 6.38089 27.4109 7.11695 27.3327 7.86295C27.1433 9.66189 25.6176 11.003 23.8478 11.003C23.7251 11.003 23.6022 10.9966 23.4778 10.9836C23.0791 10.9415 22.6953 10.833 22.3396 10.6638C22.3764 10.5911 22.3958 10.5082 22.3928 10.4208C22.3834 10.1446 22.1501 9.92808 21.8751 9.93895L21.1367 9.96545C20.9828 9.97102 20.8404 10.047 20.7501 10.1714C20.6595 10.2955 20.6316 10.4547 20.6739 10.6024L20.8766 11.3135C20.939 11.5332 21.1396 11.6762 21.357 11.6762C21.4026 11.6762 21.4491 11.67 21.4947 11.6571C21.5988 11.6271 21.6865 11.5656 21.7491 11.4865C22.2507 11.75 22.7996 11.9177 23.3733 11.978C23.5328 11.9948 23.6916 12.003 23.8484 12.003C26.1233 12.003 28.0834 10.2797 28.327 7.96776C28.4276 7.00876 28.2252 6.0627 27.7413 5.23133C27.6028 4.9927 27.2965 4.91208 27.0576 5.05064ZM20.8128 9.25739C20.9516 9.49595 20.8707 9.8022 20.6321 9.94108C20.5527 9.98727 20.4665 10.009 20.3809 10.009C20.2082 10.009 20.0408 9.91989 19.9481 9.76045C19.4645 8.92908 19.2621 7.98302 19.3627 7.02402C19.6228 4.55264 21.8453 2.75401 24.3164 3.01377C24.89 3.07408 25.4396 3.24145 25.9408 3.50533C26.0038 3.42589 26.0908 3.3647 26.1953 3.3347C26.4606 3.25883 26.7368 3.41295 26.8133 3.67858L27.0158 4.38933C27.0584 4.53701 27.0301 4.69614 26.9396 4.82058C26.8489 4.9447 26.7066 5.02064 26.5533 5.0262L25.8143 5.0527C25.8081 5.05302 25.802 5.05302 25.7958 5.05302C25.5281 5.05302 25.3063 4.84089 25.2963 4.57114C25.2934 4.48345 25.3134 4.40052 25.3502 4.32758C24.9945 4.1587 24.6109 4.05045 24.212 4.00839C22.2878 3.80602 20.5594 5.2057 20.3571 7.12877C20.2788 7.87476 20.4359 8.61083 20.8128 9.25739ZM30.3754 6.88777V8.10389L29.5308 8.42895C29.3763 8.48839 29.2622 8.61958 29.2239 8.77989C29.0883 9.34883 28.8639 9.89102 28.5559 10.3905C28.4697 10.5308 28.4576 10.7047 28.5247 10.8556L28.8927 11.6834L28.0328 12.5436L27.2053 12.1761C27.0541 12.1091 26.8803 12.1205 26.7396 12.207C26.2401 12.515 25.6985 12.7395 25.129 12.8751C24.9684 12.913 24.8372 13.0281 24.7783 13.1819L24.4527 14.0262H23.2365L22.9114 13.1816C22.852 13.0275 22.7208 12.913 22.5608 12.8748C21.9915 12.7391 21.4496 12.5147 20.9501 12.207C20.8095 12.1205 20.6359 12.1087 20.485 12.1758L19.6572 12.5435L18.797 11.6833L19.1644 10.8558C19.2315 10.7052 19.2198 10.531 19.1333 10.3907C18.8258 9.8912 18.6008 9.34933 18.4658 8.77977C18.4278 8.61945 18.3128 8.48827 18.1589 8.42883L17.3146 8.10377V6.88764L18.1589 6.56258C18.3128 6.50345 18.4278 6.37195 18.4658 6.21164C18.6014 5.6427 18.8258 5.10051 19.1333 4.60102C19.2201 4.4607 19.2315 4.28652 19.1644 4.13595L18.797 3.30814L19.6572 2.44827L20.485 2.8157C20.6359 2.88276 20.8095 2.87101 20.9501 2.78451C21.4496 2.47676 21.9915 2.25233 22.5608 2.1167C22.7208 2.07877 22.852 1.96377 22.9114 1.80989L23.2365 0.965328H24.4526L24.7783 1.80989C24.8371 1.96377 24.9683 2.07877 25.1289 2.1167C25.6984 2.25233 26.2401 2.47708 26.7396 2.78451C26.8796 2.87101 27.054 2.88276 27.2044 2.8157L28.0328 2.44795L28.8926 3.30814L28.5252 4.13564C28.4584 4.28627 28.4696 4.46039 28.5564 4.60077C28.8638 5.10027 29.0883 5.64245 29.2239 6.2117C29.2621 6.37202 29.3771 6.50352 29.5307 6.56264L30.3754 6.88777ZM31.3753 6.54445V8.4472C31.3753 8.65402 31.2476 8.83964 31.0546 8.91376L30.1294 9.27002C29.9903 9.76308 29.7938 10.237 29.5431 10.6845L29.9459 11.5914C30.0297 11.7806 29.9888 12.0018 29.8426 12.1476L28.4971 13.4935C28.3509 13.6397 28.1296 13.6809 27.9402 13.5968L27.0341 13.194C26.5864 13.4453 26.1122 13.6418 25.6191 13.7806L25.2629 14.7058C25.1884 14.8988 25.0034 15.0262 24.7966 15.0262H22.8933C22.6865 15.0262 22.5009 14.8988 22.4264 14.7058L22.0711 13.7803C21.5778 13.6415 21.1041 13.445 20.6566 13.194L19.7496 13.5969C19.5602 13.681 19.3389 13.6398 19.1928 13.4936L17.8472 12.1478C17.701 12.0018 17.6595 11.7806 17.7439 11.5915L18.1464 10.6848C17.8954 10.2374 17.6989 9.76345 17.5604 9.27014L16.6346 8.91389C16.4416 8.83976 16.3149 8.65439 16.3149 8.44733V6.54458C16.3149 6.33777 16.4417 6.15214 16.6346 6.07802L17.5604 5.72177C17.6989 5.2287 17.8954 4.75477 18.1464 4.30733L17.7439 3.40039C17.6595 3.21151 17.701 2.99033 17.8472 2.84408L19.1928 1.49852C19.3389 1.35202 19.5602 1.31114 19.7496 1.39495L20.6566 1.7977C21.104 1.54677 21.5776 1.35027 22.071 1.21139L22.4264 0.28589C22.5008 0.0928901 22.6864 -0.0344849 22.8933 -0.0344849H24.7966C25.0034 -0.0344849 25.1884 0.0928901 25.2628 0.28589L25.6191 1.21139C26.1121 1.35027 26.5858 1.54677 27.0332 1.7977L27.9401 1.39495C28.1296 1.31108 28.3508 1.35202 28.497 1.49852L29.8426 2.84408C29.9888 2.99027 30.0297 3.2112 29.9458 3.40039L29.5431 4.30702C29.7946 4.75445 29.9908 5.2287 30.1294 5.72177L31.0546 6.07802C31.2476 6.15202 31.3753 6.33764 31.3753 6.54445ZM7.61851 21.1535C7.61851 22.57 8.77082 23.7222 10.1873 23.7222C11.604 23.7222 12.7566 22.5699 12.7566 21.1535C12.7566 19.7367 11.604 18.5841 10.1873 18.5841C8.77082 18.5841 7.61851 19.7367 7.61851 21.1535ZM6.61832 21.1535C6.61832 19.1854 8.21951 17.5842 10.1873 17.5842C12.1551 17.5842 13.7566 19.1855 13.7566 21.1535C13.7566 23.1212 12.1551 24.7225 10.1873 24.7225C8.21951 24.7225 6.61832 23.1212 6.61832 21.1535ZM4.18601 21.6898V20.6166L4.94263 20.3256C5.09651 20.2662 5.21094 20.1347 5.24976 19.9746C5.37388 19.4516 5.58013 18.9547 5.86226 18.4961C5.94907 18.3555 5.96026 18.1816 5.89344 18.031L5.56401 17.2891L6.32269 16.5301L7.06551 16.8596C7.21582 16.9266 7.38969 16.9149 7.53032 16.8284C7.98832 16.546 8.48582 16.3398 9.00857 16.2153C9.16919 16.1771 9.30038 16.0624 9.35894 15.9085L9.65107 15.1516H10.7243L11.0152 15.9085C11.0746 16.0624 11.2061 16.1771 11.3668 16.2153C11.8883 16.3398 12.3858 16.546 12.8447 16.8284C12.9853 16.9149 13.1592 16.9266 13.3098 16.8596L14.0517 16.5301L14.811 17.2888L14.4815 18.0304C14.4141 18.181 14.4259 18.3555 14.513 18.4961C14.7948 18.9541 15.0011 19.4516 15.1255 19.9746C15.1641 20.1346 15.2785 20.2661 15.4323 20.3256L16.1893 20.6165V21.6897L15.4323 21.981C15.2784 22.0404 15.1634 22.1716 15.1255 22.3322C15.0011 22.855 14.7949 23.3515 14.5121 23.8105C14.4259 23.9511 14.4142 24.1246 14.4809 24.2753L14.811 25.0178L14.0517 25.7768L13.3104 25.4473C13.1598 25.3805 12.9853 25.3917 12.8447 25.4785C12.3866 25.7609 11.8889 25.9674 11.3658 26.0915C11.2061 26.1298 11.0746 26.2442 11.0151 26.3986L10.7242 27.1547H9.65101L9.35944 26.3978C9.30032 26.2442 9.16913 26.1292 9.00851 26.091C8.48632 25.9668 7.98888 25.7606 7.53026 25.4785C7.38963 25.3917 7.21576 25.3805 7.06544 25.4473L6.32263 25.7768L5.56394 25.0178L5.89338 24.2761C5.96019 24.1255 5.94901 23.9516 5.86219 23.8111C5.57951 23.3525 5.37326 22.855 5.24882 22.3322C5.21088 22.1716 5.09644 22.0404 4.94201 21.981L4.18601 21.6898ZM3.50588 22.4999L4.34401 22.8223C4.47138 23.2692 4.64963 23.6987 4.87532 24.1041L4.51082 24.9255C4.42669 25.1149 4.46788 25.3361 4.61407 25.4823L5.85844 26.7267C6.00469 26.8729 6.22588 26.9141 6.41532 26.83L7.23669 26.4649C7.64269 26.6911 8.07219 26.8691 8.51844 26.9968L8.84088 27.8349C8.91532 28.0279 9.10094 28.155 9.30776 28.155H11.0673C11.2741 28.155 11.4597 28.0279 11.5341 27.8349L11.8566 26.9968C12.3028 26.8691 12.7321 26.6917 13.1386 26.4655L13.9597 26.83C14.1491 26.9141 14.3698 26.8729 14.516 26.7267L15.7604 25.4823C15.9072 25.3361 15.9478 25.1149 15.8643 24.9255L15.4992 24.1041C15.7254 23.6981 15.9034 23.2686 16.0305 22.8223L16.8692 22.4999C17.0616 22.4255 17.1893 22.2398 17.1893 22.033V20.2735C17.1893 20.0667 17.0616 19.8811 16.8692 19.8066L16.0311 19.4842C15.9034 19.038 15.7254 18.6085 15.4992 18.2021L15.8643 17.3811C15.9478 17.192 15.9072 16.9707 15.7604 16.8245L14.516 15.5801C14.3698 15.434 14.1486 15.3927 13.9597 15.4766L13.1386 15.8416C12.7321 15.6155 12.3029 15.4375 11.8566 15.3101L11.5341 14.472C11.4597 14.279 11.2741 14.1516 11.0673 14.1516H9.30776C9.10094 14.1516 8.91532 14.279 8.84088 14.472L8.51844 15.3101C8.07219 15.4375 7.64269 15.6155 7.23669 15.8416L6.41532 15.4766C6.22588 15.3927 6.00463 15.4339 5.85844 15.5801L4.61407 16.8245C4.46788 16.9707 4.42669 17.192 4.51082 17.3811L4.87588 18.2021C4.64963 18.6084 4.47138 19.0379 4.34401 19.4842L3.50588 19.8066C3.31288 19.8811 3.18582 20.0667 3.18582 20.2735V22.0336C3.18582 22.2399 3.31288 22.4255 3.50588 22.4999ZM1.42457 20.2309C1.67082 17.8901 2.81401 15.7855 4.64351 14.3046C6.47269 12.824 8.76907 12.1442 11.1096 12.3904C12.5301 12.5401 13.8734 13.0244 15.0471 13.8025L14.7044 13.8151C14.4285 13.8248 14.2129 14.0566 14.2229 14.3325C14.2329 14.6023 14.4541 14.8147 14.7221 14.8147C14.7283 14.8147 14.7339 14.8144 14.7404 14.8144L16.4572 14.7526C16.6111 14.7471 16.7534 14.6711 16.8434 14.547C16.9341 14.4226 16.962 14.2635 16.9203 14.1158L16.4484 12.464C16.3728 12.1983 16.0959 12.0445 15.8309 12.1203C15.5653 12.196 15.4117 12.4728 15.4873 12.7381L15.542 12.932C14.2485 12.0871 12.7734 11.5599 11.2146 11.396C8.60851 11.1216 6.05088 11.8785 4.01401 13.5276C1.97701 15.1766 0.704131 17.52 0.430194 20.1262C0.210131 22.2134 0.650819 24.2736 1.70401 26.0831C1.79726 26.2422 1.96463 26.3311 2.13701 26.3311C2.22201 26.3311 2.30913 26.3093 2.38763 26.2637C2.62651 26.1243 2.70769 25.8186 2.56826 25.5798C1.62282 23.955 1.22719 22.1054 1.42457 20.2309ZM18.6703 16.2239C19.724 18.0331 20.1647 20.093 19.9446 22.1805C19.4151 27.2136 15.1471 30.9653 10.1946 30.9653C9.85282 30.9653 9.50769 30.9473 9.16032 30.9111C7.60207 30.7467 6.12644 30.2198 4.83263 29.3755L4.88794 29.5685C4.96357 29.8341 4.80969 30.1104 4.54407 30.1869C4.49844 30.1998 4.45226 30.2054 4.40669 30.2054C4.18901 30.2054 3.98894 30.0625 3.92601 29.843L3.45469 28.1911C3.41263 28.0429 3.44088 27.8843 3.53088 27.7599C3.62151 27.6355 3.76419 27.5598 3.91769 27.5543L5.63394 27.4925C5.91019 27.4825 6.14201 27.6978 6.15201 27.9744C6.16201 28.25 5.94582 28.4819 5.67013 28.4918L5.32594 28.5042C6.50032 29.2829 7.84469 29.7668 9.26469 29.9163C9.57651 29.9492 9.88719 29.9654 10.194 29.9654C14.642 29.9654 18.4746 26.5961 18.9503 22.0761C19.1476 20.201 18.752 18.3518 17.8059 16.727C17.6671 16.4885 17.7476 16.1825 17.9865 16.0433C18.2252 15.9044 18.5314 15.9853 18.6703 16.2239Z" fill="#5CA0EF"/>
</g>
<defs>
<clipPath id="clip0_230_9104">
<rect width="32" height="32" fill="white"/>
</clipPath>
</defs>
</svg>
