<svg width="32" height="32" viewBox="0 0 32 32" fill="none" xmlns="http://www.w3.org/2000/svg">
<path fill-rule="evenodd" clip-rule="evenodd" d="M5.76953 29.6963H26.2327V28.1187C26.2327 27.2525 25.3434 26.5411 24.2584 26.5411H7.74381C6.65706 26.5411 5.76953 27.2525 5.76953 28.1187V29.6963Z" fill="#C8DFF9"/>
<path fill-rule="evenodd" clip-rule="evenodd" d="M3.25538 2.30359H28.7433C30.0168 2.30359 31.0591 3.34585 31.0591 4.61938V20.547C31.0591 21.8206 30.0168 22.8628 28.7433 22.8628H3.25538C1.98191 22.8628 0.941406 21.8206 0.941406 20.547V4.61938C0.941406 3.34585 1.98191 2.30359 3.25538 2.30359ZM3.19847 4.24053C3.02065 4.24053 2.87659 4.38459 2.87659 4.56066V18.98H29.1221V4.56066C29.1221 4.38459 28.9781 4.24053 28.802 4.24053H3.19847Z" fill="#C8DFF9"/>
<path fill-rule="evenodd" clip-rule="evenodd" d="M12.1369 8.06647C12.9745 8.06647 13.6546 8.74656 13.6546 9.58421C13.6546 10.4219 12.9745 11.102 12.1369 11.102C11.2992 11.102 10.6191 10.4219 10.6191 9.58421C10.6191 8.74656 11.2992 8.06647 12.1369 8.06647ZM16.6972 14.2431C17.5349 14.2431 18.2149 14.9231 18.2149 15.7608C18.2149 16.5985 17.5349 17.2785 16.6972 17.2785C15.8595 17.2785 15.1795 16.5985 15.1795 15.7608C15.1795 14.9231 15.8595 14.2431 16.6972 14.2431Z" fill="#C8DFF9"/>
<path fill-rule="evenodd" clip-rule="evenodd" d="M24.8032 10.4536C26.1186 10.4536 27.1903 9.38197 27.1903 8.06646C27.1903 6.75257 26.1186 5.67938 24.8032 5.67938C23.4893 5.67938 22.416 6.75257 22.416 8.06646C22.416 9.38197 23.4893 10.4536 24.8032 10.4536Z" fill="#C8DFF9"/>
<path fill-rule="evenodd" clip-rule="evenodd" d="M10.7662 23.365H3.2574C1.70791 23.365 0.439453 22.0965 0.439453 20.547V4.61952C0.439453 3.07003 1.70791 1.80157 3.2574 1.80157H28.7431C30.2926 1.80157 31.561 3.07003 31.561 4.61952V20.547C31.561 22.0965 30.2926 23.365 28.7431 23.365H21.2363V26.0404H24.2584C25.6473 26.0404 26.7349 27.0094 26.7349 28.1184V29.6964C26.7349 29.9736 26.5102 30.1984 26.233 30.1984H5.76959C5.49232 30.1984 5.26763 29.9736 5.26763 29.6964V28.1184C5.26763 27.0094 6.35525 26.0404 7.74417 26.0404H10.7662V23.365ZM20.2324 23.365H11.7702V26.0404H20.2324V23.365ZM3.2574 2.8055C2.25994 2.8055 1.44337 3.62206 1.44337 4.61952V20.547C1.44337 21.5445 2.25994 22.3611 3.2574 22.3611H28.7431C29.7405 22.3611 30.5571 21.5445 30.5571 20.547V4.61952C30.5571 3.62206 29.7405 2.8055 28.7431 2.8055H3.2574ZM3.20011 3.73939H28.8024C29.2531 3.73939 29.6253 4.10626 29.6253 4.56223V18.9629C29.6253 19.2401 29.4005 19.4648 29.1233 19.4648H2.87716C2.59996 19.4648 2.3752 19.2401 2.3752 18.9629V4.56223C2.3752 4.10714 2.74502 3.73939 3.20011 3.73939ZM3.37912 14.695V18.4609H28.6214V4.74332H3.37912V13.6911H8.34565L10.5473 10.8286C10.2784 10.4856 10.118 10.0535 10.118 9.58423C10.118 8.46956 11.023 7.56452 12.1377 7.56452C13.2524 7.56452 14.1574 8.46956 14.1574 9.58423C14.1574 10.0809 13.9778 10.5358 13.68 10.8877L15.8431 13.9308C16.1028 13.8091 16.3925 13.7412 16.698 13.7412C17.1359 13.7412 17.5414 13.8808 17.8724 14.1179L22.3718 9.62451C22.0821 9.17456 21.9138 8.63966 21.9138 8.06648C21.9138 6.47634 23.2127 5.17745 24.8029 5.17745C26.395 5.17745 27.692 6.47634 27.692 8.06648C27.692 9.65858 26.395 10.9556 24.8029 10.9556C24.1464 10.9556 23.5395 10.7345 23.0532 10.3628L18.5204 14.8895C18.6469 15.1534 18.7177 15.4489 18.7177 15.7608C18.7177 16.8755 17.8128 17.7805 16.698 17.7805C15.5834 17.7805 14.6784 16.8755 14.6784 15.7608C14.6784 15.3161 14.8225 14.9047 15.0664 14.5709L12.8622 11.4699C12.6373 11.5565 12.393 11.6039 12.1377 11.6039C11.8555 11.6039 11.5867 11.546 11.3427 11.4412L8.99073 14.499C8.89567 14.6226 8.74872 14.695 8.59287 14.695H3.37912ZM12.1377 8.56844C11.5771 8.56844 11.1219 9.0236 11.1219 9.58423C11.1219 10.1449 11.5771 10.6 12.1377 10.6C12.6983 10.6 13.1535 10.1449 13.1535 9.58423C13.1535 9.0236 12.6983 8.56844 12.1377 8.56844ZM24.8029 9.95166C25.8417 9.95166 26.6881 9.10535 26.6881 8.06648C26.6881 7.02893 25.8417 6.18137 24.8029 6.18137C23.7653 6.18137 22.9177 7.02893 22.9177 8.06648C22.9177 9.10535 23.7653 9.95166 24.8029 9.95166ZM23.3265 8.48882C23.1307 8.29293 23.1307 7.97481 23.3265 7.77892C23.5224 7.58303 23.8406 7.58303 24.0364 7.77892L24.3529 8.09541L25.5886 6.97441C25.7937 6.7883 26.1115 6.80374 26.2976 7.00892C26.4838 7.21416 26.4683 7.53183 26.2631 7.718L24.6733 9.16019C24.475 9.34008 24.1704 9.33268 23.9811 9.14338L23.3265 8.48882ZM16.698 14.7451C16.1375 14.7451 15.6823 15.2002 15.6823 15.7608C15.6823 16.3214 16.1375 16.7766 16.698 16.7766C17.2587 16.7766 17.7138 16.3214 17.7138 15.7608C17.7138 15.2002 17.2587 14.7451 16.698 14.7451ZM6.27155 29.1945H25.731V28.1184C25.731 27.4931 25.0414 27.0444 24.2584 27.0444H7.74417C6.96105 27.0444 6.27155 27.4931 6.27155 28.1184V29.1945Z" fill="#5CA0EF"/>
</svg>
