<svg width="32" height="32" viewBox="0 0 32 32" fill="none" xmlns="http://www.w3.org/2000/svg">
<path fill-rule="evenodd" clip-rule="evenodd" d="M15.812 1.28418V3.59649L6.35292 7.65037L4.22798 6.24874L15.812 1.28418ZM16.1871 3.59649V1.28418L27.7713 6.24874L25.6464 7.65037L16.1871 3.59649ZM21.8135 13.7038V18.2961H18.4835C18.38 18.2961 18.2959 18.3804 18.2959 18.4838V21.8139H13.7034V18.4838C13.7034 18.3804 13.6192 18.2961 13.5158 18.2961H10.1858V13.7038H13.5158C13.6195 13.7038 13.7034 13.6199 13.7034 13.5161V10.1861H18.2959V13.5161C18.2959 13.6199 18.3797 13.7038 18.4835 13.7038H21.8135ZM25.8527 16.5392C25.8527 22.2019 21.9194 27.1973 16.4249 28.5484L16.1871 28.6069V30.7798L16.5666 30.6965C23.13 29.2555 27.9777 23.2669 27.9777 16.5392V6.56187L25.8528 7.96362V16.5392H25.8527ZM15.812 28.6069L15.5741 28.5484C10.0798 27.1973 6.14648 22.2019 6.14648 16.5392V7.96362L4.02148 6.56187V16.5392C4.02148 23.2669 8.86905 29.2555 15.4325 30.6965L15.812 30.7798V28.6069Z" fill="#C8DFF9"/>
<path fill-rule="evenodd" clip-rule="evenodd" d="M21.5009 17.9836H18.4834C18.2072 17.9836 17.9834 18.2081 17.9834 18.4838V21.5013H14.0157V18.4838C14.0157 18.2081 13.7919 17.9836 13.5157 17.9836H10.4982V14.0163H13.5157C13.7919 14.0163 14.0157 13.7924 14.0157 13.5161V10.4985H17.9834V13.5161C17.9834 13.7923 18.2072 14.0163 18.4834 14.0163H21.5009V17.9836ZM22.5009 18.4838V13.5161C22.5009 13.2398 22.2771 13.0162 22.0009 13.0162H18.9834V9.99865C18.9834 9.7224 18.7595 9.49878 18.4834 9.49878H13.5157C13.2396 9.49878 13.0157 9.7224 13.0157 9.99865V13.0162H9.99817C9.72198 13.0162 9.49823 13.2398 9.49823 13.5161V18.4838C9.49823 18.7598 9.72198 18.9837 9.99817 18.9837H13.0157V22.0012C13.0157 22.2775 13.2395 22.5011 13.5157 22.5011H18.4834C18.7595 22.5011 18.9834 22.2775 18.9834 22.0012V18.9837H22.0009C22.2771 18.9837 22.5009 18.7597 22.5009 18.4838ZM16.4995 30.3913C22.9052 28.9849 27.6651 23.1348 27.6651 16.5393V7.14234L26.1651 8.13178V16.5392C26.1651 22.3554 22.124 27.4687 16.4994 28.8518V30.3913H16.4995ZM4.33392 16.5392C4.33392 23.1348 9.09373 28.9848 15.4994 30.3912V28.8518C9.87498 27.4687 5.83392 22.3554 5.83392 16.5392V8.13178L4.33392 7.14234V16.5392ZM6.38442 7.29678L4.8843 6.30728L15.4994 1.75797V3.39034L6.38442 7.29678ZM15.9995 27.943C21.3167 26.765 25.1652 21.9862 25.1652 16.5392V8.19184L15.9995 4.26365L6.83392 8.19184V16.5393C6.83392 21.9862 10.6822 26.765 15.9995 27.943ZM25.6147 7.29678L16.4995 3.3904V1.75803L27.1147 6.30734L25.6147 7.29678ZM28.362 5.75422L16.1965 0.540528C16.0707 0.486653 15.9284 0.486653 15.8025 0.540528L3.63692 5.75422C3.45317 5.83309 3.33398 6.01372 3.33398 6.21378V16.5392C3.33398 20.0949 4.60811 23.5635 6.9218 26.3068C9.22917 29.0425 12.4225 30.8843 15.9138 31.4922C15.9422 31.4975 15.9709 31.4998 15.9997 31.4998C16.0284 31.4998 16.0571 31.4975 16.0855 31.4922C19.5767 30.8843 22.7701 29.0425 25.0774 26.3068C27.391 23.5635 28.6653 20.0949 28.6653 16.5392V6.21378C28.6652 6.01372 28.546 5.83303 28.362 5.75422Z" fill="#5CA0EF"/>
</svg>
