<svg width="32" height="32" viewBox="0 0 32 32" fill="none" xmlns="http://www.w3.org/2000/svg">
<g clip-path="url(#clip0_230_8974)">
<path fill-rule="evenodd" clip-rule="evenodd" d="M22.215 12.0263C22.5932 12.3016 22.9165 12.658 23.1608 13.0814L30.6006 25.9649C31.2122 27.0236 31.2122 28.3026 30.6006 29.3612C29.9891 30.4214 28.8807 31.0593 27.6576 31.0593H12.781C11.5578 31.0593 10.4511 30.4214 9.83954 29.3612C9.22797 28.3026 9.22797 27.0236 9.83954 25.9649L15.3573 16.4079C16.144 16.3964 16.9022 16.2676 17.6152 16.0382L11.3732 26.8497C11.0782 27.362 11.0782 27.9642 11.3732 28.4764C11.6681 28.9871 12.1912 29.2898 12.781 29.2898H27.6576C28.249 29.2898 28.7706 28.9871 29.067 28.4764C29.3619 27.9642 29.3619 27.362 29.067 26.8497L21.6271 13.9662C21.5293 13.7962 21.4063 13.6493 21.2642 13.5291C21.6358 13.0687 21.9557 12.5648 22.215 12.0263Z" fill="#C8DFF9"/>
<path fill-rule="evenodd" clip-rule="evenodd" d="M20.2205 23.7515C19.8293 23.7515 19.5096 23.4426 19.4956 23.0514L19.3109 17.9694C19.3047 17.7645 19.373 17.586 19.5142 17.4385C19.657 17.291 19.8325 17.2166 20.0373 17.2166H20.4037C20.6086 17.2166 20.7855 17.291 20.9268 17.4385C21.0696 17.586 21.1379 17.7645 21.1301 17.9694L20.947 23.0514C20.933 23.4426 20.6117 23.7515 20.2205 23.7515Z" fill="#C8DFF9"/>
<path fill-rule="evenodd" clip-rule="evenodd" d="M20.2208 26.727C20.733 26.727 21.1506 26.3094 21.1506 25.7973C21.1506 25.285 20.733 24.8674 20.2208 24.8674C19.7086 24.8674 19.291 25.285 19.291 25.7973C19.291 26.3094 19.7086 26.727 20.2208 26.727Z" fill="#C8DFF9"/>
<path fill-rule="evenodd" clip-rule="evenodd" d="M2.6723 22.0527L1.13932 20.4715C0.869889 20.1943 0.876414 19.7467 1.15362 19.4773L5.40128 15.3559C5.67842 15.0865 6.12611 15.0943 6.39547 15.3715L7.92852 16.9514C8.19789 17.2286 8.19136 17.6762 7.91422 17.9456L3.66656 22.067C3.38936 22.3364 2.94167 22.3299 2.6723 22.0527Z" fill="#C8DFF9"/>
<path fill-rule="evenodd" clip-rule="evenodd" d="M15.2438 0.940674C19.5162 0.940674 22.9778 4.40226 22.9778 8.67464C22.9778 12.9458 19.5162 16.4087 15.2438 16.4087C10.9727 16.4087 7.50977 12.9458 7.50977 8.67464C7.50977 4.40226 10.9727 0.940674 15.2438 0.940674ZM15.2438 2.74522C11.9701 2.74522 9.31438 5.39965 9.31438 8.67464C9.31438 11.9484 11.9701 14.604 15.2438 14.604C18.5188 14.604 21.1732 11.9484 21.1732 8.67464C21.1732 5.39965 18.5188 2.74522 15.2438 2.74522Z" fill="#C8DFF9"/>
<path fill-rule="evenodd" clip-rule="evenodd" d="M8.50712 16.9139C8.72748 17.3693 8.64403 17.9362 8.26097 18.3053L4.01671 22.4265C4.01608 22.4271 4.01545 22.4277 4.01476 22.4284C3.53658 22.8877 2.77235 22.8747 2.31274 22.4006L2.3123 22.4001L0.77975 20.8214L0.779373 20.821C0.315687 20.3422 0.328926 19.577 0.80353 19.1174L5.05056 14.9958L5.051 14.9954C5.43173 14.6267 6.00146 14.5611 6.44915 14.794L8.2574 13.0384C7.4653 11.7731 7.00739 10.2772 7.00739 8.67425C7.00739 4.12574 10.694 0.439209 15.2424 0.439209C19.7909 0.439209 23.4775 4.12574 23.4775 8.67425C23.4775 9.81157 23.2469 10.895 22.8301 11.8803C23.1277 12.1499 23.3865 12.4686 23.5949 12.8299L31.0347 25.7133C31.7367 26.9284 31.7367 28.3965 31.0348 29.6117C30.3328 30.8284 29.0609 31.5608 27.657 31.5608H12.7804C11.3765 31.5608 10.1062 30.8285 9.40425 29.6117C8.70232 28.3965 8.70232 26.9284 9.40425 25.7134L14.5061 16.8768C12.9134 16.7357 11.4511 16.1413 10.2491 15.2235L8.50712 16.9139ZM7.1918 15.4723C7.39854 15.6853 7.64469 15.9388 7.85118 16.1515L9.48682 14.5643C9.26088 14.3434 9.04755 14.1096 8.84802 13.8642L7.1918 15.4723ZM22.3567 12.825C22.2213 13.0564 22.075 13.2807 21.9184 13.4972C21.9697 13.566 22.0175 13.6385 22.0613 13.7146L29.5013 26.5984L29.5014 26.5987C29.8872 27.2687 29.8872 28.0564 29.501 28.7271L29.5006 28.7279C29.1128 29.3958 28.4304 29.7912 27.657 29.7912H12.7804C12.0085 29.7912 11.3239 29.3953 10.9377 28.7266L10.9376 28.7264C10.5518 28.0564 10.5518 27.2687 10.9377 26.5985L16.5956 16.7987C16.2866 16.8497 15.9719 16.8836 15.6523 16.8993L10.2736 26.2155C9.75249 27.1175 9.75242 28.2075 10.2737 29.1097L10.2738 29.1098C10.7949 30.0133 11.7381 30.5569 12.7804 30.5569H27.657C28.6994 30.5569 29.6441 30.0134 30.1653 29.1097L30.1654 29.1096C30.6866 28.2075 30.6866 27.1176 30.1654 26.2155L22.7254 13.3317C22.6191 13.1474 22.4953 12.9779 22.3567 12.825ZM21.2464 14.311C20.3471 15.2684 19.2215 16.0106 17.9548 16.4522L11.8075 27.0997C11.6035 27.4541 11.6035 27.8707 11.8074 28.2252C12.0113 28.578 12.3728 28.7873 12.7804 28.7873H27.657C28.0661 28.7873 28.4266 28.5777 28.6319 28.2247C28.8355 27.8704 28.8354 27.454 28.6315 27.0997L21.2464 14.311ZM20.4205 24.2364C21.1142 24.3349 21.6505 24.9336 21.6505 25.654C21.6505 26.4427 21.0075 27.0857 20.2187 27.0857C19.43 27.0857 18.787 26.4427 18.787 25.654C18.787 24.9336 19.3232 24.3349 20.017 24.2364C19.4502 24.1429 19.0133 23.6619 18.9922 23.0691L18.8074 17.9856V17.9841C18.7969 17.6392 18.9123 17.3389 19.1509 17.0898L19.1519 17.0888C19.3931 16.8397 19.6895 16.714 20.0356 16.714H20.4019C20.7484 16.714 21.0475 16.8407 21.2865 17.0898C21.5277 17.3393 21.6431 17.6413 21.6299 17.9869L21.4468 23.0688C21.4256 23.6615 20.9873 24.1429 20.4205 24.2364ZM20.2187 23.2489C20.3396 23.2489 20.4392 23.1538 20.4436 23.0328L20.6267 17.9503V17.9499C20.6291 17.8871 20.6081 17.8324 20.5635 17.7862L20.5625 17.7852C20.5192 17.74 20.4647 17.718 20.4019 17.718H20.0356C19.9723 17.718 19.9183 17.741 19.8735 17.7867C19.8299 17.833 19.8091 17.8889 19.8108 17.9529L19.9955 23.0328V23.033C19.9998 23.1535 20.0981 23.2489 20.2187 23.2489ZM20.2187 26.0818C20.4544 26.0818 20.6465 25.8896 20.6465 25.654C20.6465 25.4182 20.4544 25.2261 20.2187 25.2261C19.983 25.2261 19.7909 25.4182 19.7909 25.654C19.7909 25.8896 19.983 26.0818 20.2187 26.0818ZM15.2424 1.44313C11.2485 1.44313 8.01131 4.68028 8.01131 8.67425C8.01131 12.6682 11.2485 15.9054 15.2424 15.9054C19.2364 15.9054 22.4736 12.6682 22.4736 8.67425C22.4736 4.68028 19.2364 1.44313 15.2424 1.44313ZM15.2424 2.24269C18.7946 2.24269 21.674 5.12213 21.674 8.67425C21.674 12.2264 18.7946 15.1058 15.2424 15.1058C11.6903 15.1058 8.81093 12.2264 8.81093 8.67425C8.81093 5.12213 11.6903 2.24269 15.2424 2.24269ZM15.2424 3.24661C12.2448 3.24661 9.81486 5.67654 9.81486 8.67425C9.81486 11.6719 12.2448 14.1018 15.2424 14.1018C18.2401 14.1018 20.6701 11.6719 20.6701 8.67425C20.6701 5.67654 18.2401 3.24661 15.2424 3.24661ZM3.03355 21.7018C3.11048 21.7813 3.23854 21.7815 3.31886 21.7048L7.56218 17.5846C7.56281 17.5839 7.5635 17.5833 7.56413 17.5827C7.64318 17.5067 7.64469 17.3796 7.56808 17.3012C7.56777 17.3009 7.56739 17.3005 7.56708 17.3002L6.03409 15.721L6.03365 15.7206C5.95691 15.6413 5.8286 15.6398 5.74935 15.7166L1.5027 19.8379L1.50232 19.8383C1.42308 19.915 1.42314 20.0427 1.5005 20.1225L3.03305 21.7013L3.03355 21.7018Z" fill="#5CA0EF"/>
</g>
<defs>
<clipPath id="clip0_230_8974">
<rect width="32" height="32" fill="white"/>
</clipPath>
</defs>
</svg>
