<svg width="32" height="32" viewBox="0 0 32 32" fill="none" xmlns="http://www.w3.org/2000/svg">
<g clip-path="url(#clip0_230_8984)">
<path fill-rule="evenodd" clip-rule="evenodd" d="M28.5667 15.7991C28.5975 15.58 28.6137 15.3589 28.6137 15.1376C28.6137 13.1285 27.3265 11.3323 25.4294 10.6773L25.2514 10.6159L25.2226 10.4299C24.7136 7.15269 21.8949 4.75194 18.5799 4.75194C17.9047 4.75194 17.2343 4.8525 16.5894 5.05188L16.4204 5.10413L16.2887 4.98613C14.9212 3.76188 13.1758 3.09744 11.3402 3.09744C10.6846 3.09744 10.031 3.18344 9.39844 3.35588L8.01562 3.73288L9.11606 2.81444C10.3839 1.75638 11.9736 1.18744 13.626 1.18744C15.4662 1.18744 17.2058 1.89281 18.5294 3.17081C18.5812 3.22094 18.6538 3.23694 18.7218 3.21263C19.4109 2.966 20.1338 2.8425 20.8657 2.8425C24.1107 2.8425 26.8293 5.27181 27.1777 8.50025C27.1859 8.57625 27.2399 8.64075 27.3138 8.66088C29.2022 9.17456 30.5243 10.8944 30.5243 12.8527C30.5243 14.0826 29.9969 15.2524 29.0856 16.0744L28.4474 16.6501L28.5667 15.7991ZM20.9064 15.3591L21.3007 15.1496L20.9688 14.8509C19.8419 13.8367 18.4801 13.1159 17.0057 12.7604L15.7759 12.464L16.7262 13.299C17.5828 14.0516 18.3242 14.9328 18.9158 15.9078L19.0444 16.1197L19.2799 16.0428C19.8391 15.8603 20.3867 15.6353 20.9064 15.3591ZM18.2602 16.3273L18.6907 16.2259L18.4514 15.854C17.6871 14.6662 16.6967 13.6459 15.5369 12.8403L15.0461 12.4994V16.7127L15.3687 16.7023C16.3394 16.6709 17.3145 16.5499 18.2602 16.3273ZM14.3483 16.7023L14.6709 16.7126V12.4994L14.1801 12.8403C13.0203 13.6458 12.0271 14.6661 11.2627 15.854L11.0233 16.2259L11.4539 16.3273C12.4007 16.5501 13.3764 16.6709 14.3483 16.7023ZM8.74562 14.8506L8.41281 15.1493L8.80769 15.3591C9.32794 15.6356 9.87737 15.8601 10.4371 16.0428L10.6732 16.1198L10.8016 15.9072C11.391 14.9309 12.1326 14.0505 12.9904 13.2993L13.9463 12.4622L12.7111 12.7604C11.2361 13.1167 9.87462 13.8373 8.74562 14.8506ZM12.7021 30.5557C11.2301 30.1989 9.87156 29.4792 8.74544 28.4669L8.41212 28.1673L8.8085 27.9581C9.32681 27.6846 9.87125 27.4603 10.428 27.2779L10.6643 27.2006L10.7928 27.4134C11.3819 28.3895 12.124 29.2662 12.9816 30.0168L13.9399 30.8556L12.7021 30.5557ZM11.4598 26.9895L11.0302 27.0906L11.2682 27.4622C12.0291 28.6507 13.0221 29.6721 14.1799 30.4779L14.6709 30.8196V26.6047L14.3484 26.6152C13.3788 26.6465 12.4043 26.7674 11.4598 26.9895ZM15.3687 26.6151C16.3388 26.6465 17.3118 26.7679 18.2571 26.9895L18.6879 27.0905L18.4486 27.4627C17.6853 28.6502 16.6957 29.6718 15.5372 30.4779L15.0462 30.8196V26.6047L15.3687 26.6151ZM19.2856 27.2778L19.0496 27.2009L18.9212 27.4134C18.3322 28.3893 17.593 29.2663 16.7354 30.0168L15.7761 30.8565L17.015 30.5556C18.4854 30.1985 19.8436 29.4782 20.9686 28.4669L21.301 28.1681L20.9062 27.9584C20.3883 27.6835 19.8431 27.4594 19.2856 27.2778Z" fill="#C8DFF9"/>
<path fill-rule="evenodd" clip-rule="evenodd" d="M30.2109 12.8527C30.2109 11.0394 28.9871 9.44025 27.2309 8.9625C27.0338 8.90894 26.8867 8.73894 26.8661 8.53387C26.5337 5.46762 23.9537 3.15506 20.8648 3.15506C20.1647 3.15506 19.4792 3.27331 18.8262 3.50694C18.6467 3.57137 18.4496 3.52812 18.3114 3.39575C17.0464 2.17306 15.3842 1.5 13.625 1.5C12.0189 1.5 10.5067 2.06012 9.3153 3.05443C9.95955 2.87881 10.6391 2.785 11.3392 2.785C13.2573 2.785 15.0753 3.48131 16.4962 4.75331C17.1699 4.54506 17.87 4.43944 18.579 4.43944C22.068 4.43944 25.0009 6.972 25.5305 10.3819C27.5456 11.0776 28.9253 12.9868 28.9253 15.1376C28.9253 15.3761 28.9077 15.6118 28.8753 15.8424C29.7109 15.0887 30.2109 14.0077 30.2109 12.8527ZM27.9252 15.1376C27.9252 17.1831 26.3631 18.9014 24.3715 19.1387C23.2536 14.9293 19.4116 11.8181 14.8577 11.8181C10.3008 11.8181 6.4588 14.9293 5.34386 19.1387C3.34936 18.9014 1.78723 17.1831 1.78723 15.1376C1.78723 13.4955 2.77567 12.0308 4.30248 11.4051C4.49961 11.3244 4.62317 11.1271 4.61136 10.9138C4.60548 10.7814 4.60255 10.6508 4.60255 10.5243C4.60255 6.80825 7.6238 3.78525 11.3393 3.78525C13.0985 3.78525 14.7635 4.45831 16.0256 5.68062C16.1639 5.81331 16.3639 5.85625 16.5434 5.79181C17.1964 5.55825 17.8789 5.43937 18.5791 5.43937C21.6709 5.43937 24.248 7.75194 24.5804 10.8187C24.6039 11.0232 24.748 11.1932 24.9481 11.2477C26.7014 11.7246 27.9252 13.3243 27.9252 15.1376ZM6.02936 21.1589C6.14411 19.1199 6.95311 17.2636 8.22392 15.8224C8.78286 16.1401 9.39474 16.4087 10.0449 16.6294C9.35361 18.0399 8.96236 19.585 8.89467 21.1589H6.02936ZM12.7837 13.0642C11.9012 13.8371 11.1393 14.7419 10.5332 15.7457C9.9743 15.5633 9.4418 15.3427 8.95349 15.0832C10.0272 14.1194 11.3364 13.4137 12.7837 13.0642ZM20.7589 15.0832C20.2706 15.3427 19.741 15.5633 19.1821 15.7457C18.5732 14.7419 17.8112 13.8371 16.9317 13.0642C18.379 13.4131 19.6881 14.1194 20.7589 15.0832ZM23.6831 21.1589H20.8207C20.7531 19.585 20.3589 18.0399 19.6675 16.6294C20.3177 16.4087 20.9325 16.1401 21.4915 15.8224C22.7623 17.2636 23.5684 19.1199 23.6831 21.1589ZM21.4914 27.4955C22.7623 26.0543 23.5684 24.198 23.683 22.1588H20.8177C20.7471 23.763 20.35 25.2989 19.6704 26.6901C20.3206 26.9101 20.9325 27.1787 21.4914 27.4955ZM16.9405 30.252C18.382 29.9019 19.6881 29.1971 20.7589 28.2345C20.2736 27.9768 19.747 27.7571 19.188 27.5749C18.5879 28.5693 17.8319 29.4718 16.9405 30.252ZM8.95349 28.2345C10.0243 29.1971 11.3305 29.9019 12.7749 30.252C11.8835 29.4718 11.1245 28.5693 10.5244 27.5749C9.96842 27.7571 9.44186 27.9768 8.95349 28.2345ZM9.8978 22.1588C9.97136 23.6664 10.3567 25.1056 11.0186 26.4026C12.0806 26.1332 13.2132 25.9814 14.3575 25.9469V22.1588H9.8978ZM11.0127 16.9144C10.3509 18.2124 9.96255 19.6532 9.89486 21.1589H14.3575V17.3713C13.2132 17.3369 12.0777 17.1845 11.0127 16.9144ZM11.5246 16.0231C12.2542 14.8894 13.2102 13.8939 14.3575 13.0969V16.39C13.3897 16.3587 12.4307 16.2364 11.5246 16.0231ZM18.1878 16.0231C17.2817 16.2364 16.3227 16.3588 15.3578 16.3899V13.0969C16.5051 13.8938 17.4582 14.8893 18.1878 16.0231ZM19.8175 21.1589C19.7499 19.6532 19.3645 18.2124 18.7026 16.9144C17.6377 17.1845 16.5022 17.3369 15.3578 17.3713V21.1589H19.8175ZM18.6967 26.4026C17.6318 26.1332 16.4992 25.9814 15.3578 25.9469V22.1588H19.8175C19.744 23.6664 19.3557 25.1056 18.6967 26.4026ZM18.1849 27.2937C17.4553 28.4286 16.5022 29.425 15.3578 30.2214V26.9274C16.3227 26.9586 17.2788 27.0813 18.1849 27.2937ZM14.3575 30.2214C13.2132 29.4251 12.2571 28.4286 11.5305 27.2937C12.4336 27.0813 13.3926 26.9586 14.3575 26.9274V30.2214ZM6.02936 22.1588H8.89761C8.96824 23.763 9.36242 25.2989 10.042 26.6901C9.39186 26.9101 8.77992 27.1787 8.22392 27.4955C6.95305 26.0543 6.14411 24.1981 6.02936 22.1588ZM28.3988 17.3646C27.6692 18.8231 26.2513 19.8889 24.5774 20.1196C24.6569 20.6211 24.698 21.1351 24.698 21.6587C24.698 27.0857 20.2824 31.4999 14.8577 31.4999C9.43011 31.4999 5.01448 27.0857 5.01448 21.6587C5.01448 21.1351 5.05861 20.6211 5.13805 20.1196C2.69048 19.7827 0.787109 17.6599 0.787109 15.1376C0.787109 13.2064 1.88148 11.4712 3.60242 10.6252C3.60242 10.5914 3.60242 10.5576 3.60242 10.5242C3.60242 7.80956 5.00567 5.417 7.12674 4.03525C8.56224 1.82006 10.9834 0.500122 13.625 0.500122C15.5431 0.500122 17.3611 1.19706 18.782 2.46818C19.4557 2.26018 20.1529 2.15487 20.8649 2.15487C24.3539 2.15487 27.2868 4.68687 27.8164 8.097C29.8315 8.79244 31.2112 10.7019 31.2112 12.8527C31.2112 14.7657 30.1139 16.517 28.3988 17.3646ZM11.8394 6.02069C11.8394 6.29694 11.6159 6.52081 11.3393 6.52081C9.13299 6.52081 7.33549 8.31706 7.33549 10.5243C7.33549 10.8009 7.11192 11.0244 6.8383 11.0244C6.56174 11.0244 6.33817 10.8009 6.33817 10.5243C6.33817 7.76581 8.57986 5.52087 11.3392 5.52087C11.6158 5.52087 11.8394 5.74444 11.8394 6.02069Z" fill="#5CA0EF"/>
</g>
<defs>
<clipPath id="clip0_230_8984">
<rect width="32" height="32" fill="white"/>
</clipPath>
</defs>
</svg>
