<svg width="32" height="32" viewBox="0 0 32 32" fill="none" xmlns="http://www.w3.org/2000/svg">
<path fill-rule="evenodd" clip-rule="evenodd" d="M8.13687 12.5064H5.40005C5.20353 12.5064 5.04297 12.3458 5.04297 12.1493V9.41246C5.04297 9.21594 5.20353 9.05538 5.40005 9.05538H8.13687C8.33338 9.05538 8.49395 9.21594 8.49395 9.41246V12.1493C8.49395 12.3458 8.33338 12.5064 8.13687 12.5064ZM8.13687 18.7262H5.40005C5.20353 18.7262 5.04297 18.5656 5.04297 18.3691V15.6323C5.04297 15.4357 5.20353 15.2752 5.40005 15.2752H8.13687C8.33338 15.2752 8.49395 15.4357 8.49395 15.6323V18.3691C8.49395 18.5656 8.33338 18.7262 8.13687 18.7262ZM8.13687 24.9473H5.40005C5.20353 24.9473 5.04297 24.7868 5.04297 24.5903V21.8534C5.04297 21.6569 5.20353 21.4952 5.40005 21.4952H8.13687C8.33338 21.4952 8.49395 21.6569 8.49395 21.8534V24.5903C8.49395 24.7868 8.33338 24.9473 8.13687 24.9473ZM22.9773 29.9597C22.9632 29.9826 22.9463 30.0041 22.9269 30.0235C22.8614 30.089 22.7726 30.1257 22.68 30.1257H15.3765C15.2838 30.1257 15.1951 30.089 15.1296 30.0235C15.0641 29.958 15.0273 29.8692 15.0273 29.7766V21.7581H17.6626V24.7203C17.6626 24.809 17.6978 24.894 17.7605 24.9567C17.8231 25.0194 17.9082 25.0546 17.9968 25.0546H20.0597C20.1483 25.0546 20.2334 25.0194 20.2961 24.9567C20.3587 24.894 20.3939 24.809 20.3939 24.7203V21.7581H25.5607V24.7203C25.5607 24.809 25.5959 24.894 25.6586 24.9567C25.7212 25.0194 25.8063 25.0546 25.8949 25.0546H27.9578C28.0464 25.0546 28.1315 25.0194 28.1942 24.9567C28.2568 24.894 28.292 24.809 28.292 24.7203V21.7581H30.9273V29.7766C30.9273 29.8692 30.8904 29.958 30.825 30.0235C30.7595 30.089 30.6707 30.1257 30.5781 30.1257H23.2746C23.182 30.1257 23.0932 30.089 23.0277 30.0235C23.0083 30.0041 22.9915 29.9826 22.9773 29.9597ZM18.0182 1.87891C18.0841 1.91028 18.1453 1.95263 18.2002 2.0076L21.1579 4.96528C21.2128 5.02018 21.2567 5.08135 21.2865 5.14724H18.3289C18.1578 5.14724 18.0182 5.00763 18.0182 4.83658V1.87891ZM24.6049 13.2173H27.24V21.2358C27.24 21.3284 27.2033 21.4172 27.1378 21.4827C27.0723 21.5482 26.9835 21.5849 26.8909 21.5849H19.5874C19.4949 21.5849 19.406 21.5482 19.3406 21.4827C19.2751 21.4172 19.2383 21.3284 19.2383 21.2358V13.2173H21.8735V16.1795C21.8735 16.2682 21.9087 16.3532 21.9714 16.4159C22.0341 16.4786 22.1191 16.5138 22.2078 16.5138H24.2706C24.3593 16.5138 24.4443 16.4786 24.507 16.4159C24.5697 16.3532 24.6049 16.2682 24.6049 16.1795V13.2173Z" fill="#C8DFF9"/>
<path fill-rule="evenodd" clip-rule="evenodd" d="M14.5535 22.8542H11.7289C11.4518 22.8542 11.227 22.6292 11.227 22.3522C11.227 22.0752 11.4518 21.8502 11.7289 21.8502H14.5535V21.7824C14.5535 21.5051 14.7783 21.2804 15.0555 21.2804H18.5545V13.4147C18.5545 13.1375 18.7792 12.9127 19.0564 12.9127H27.0582C27.3354 12.9127 27.5601 13.1375 27.5601 13.4147V21.2804H31.0591C31.3363 21.2804 31.561 21.5051 31.561 21.7824V29.6481C31.561 29.9144 31.4552 30.1697 31.267 30.358C31.0787 30.5463 30.8233 30.6521 30.5571 30.6521H23.5593C23.3815 30.6521 23.2086 30.6049 23.0573 30.5175C22.906 30.6049 22.7331 30.6521 22.5553 30.6521H15.5574C15.2912 30.6521 15.0358 30.5463 14.8476 30.358C14.6593 30.1697 14.5535 29.9144 14.5535 29.6481V24.6425H11.7289C11.4518 24.6425 11.227 24.4176 11.227 24.1405C11.227 23.8635 11.4518 23.6385 11.7289 23.6385H14.5535V22.8542ZM19.9201 22.2844H18.1927V24.577H19.9201V22.2844ZM17.1888 22.2844H15.5574V29.608C15.5593 29.6085 15.5613 29.609 15.5632 29.6096C15.5691 29.5999 15.5782 29.6072 15.5859 29.6198C15.5984 29.6274 15.6057 29.6366 15.596 29.6424C15.5966 29.6443 15.5972 29.6463 15.5976 29.6481H22.5553V22.2844H20.924V24.7447C20.924 24.9665 20.8359 25.1791 20.6791 25.336C20.5223 25.4928 20.3096 25.5809 20.0878 25.5809H18.025C17.8032 25.5809 17.5905 25.4928 17.4337 25.336C17.2768 25.1791 17.1888 24.9665 17.1888 24.7447V22.2844ZM26.5562 21.2804V13.9166H24.9249V16.377C24.9249 16.5987 24.8368 16.8114 24.68 16.9682C24.5232 17.1251 24.3105 17.2132 24.0887 17.2132H22.0258C21.804 17.2132 21.5914 17.1251 21.4345 16.9682C21.2777 16.8114 21.1896 16.5987 21.1896 16.377V13.9166H19.5584V21.2804H26.5562ZM23.921 13.9166H22.1936V16.2093H23.921V13.9166ZM23.5593 29.6481C23.5593 29.5701 23.5916 29.6158 23.5994 29.6481H30.5169C30.5248 29.6158 30.5571 29.5701 30.5571 29.6481V22.2844H28.9258V24.7447C28.9258 24.9665 28.8377 25.1791 28.6809 25.336C28.5241 25.4928 28.3114 25.5809 28.0896 25.5809H26.0267C25.805 25.5809 25.5923 25.4928 25.4355 25.336C25.2786 25.1791 25.1905 24.9665 25.1905 24.7447V22.2844H23.5593V29.6481ZM27.9219 22.2844H26.1944V24.577H27.9219V22.2844ZM17.5557 2.35188C15.3471 2.35188 1.44337 2.35188 1.44337 2.35188V27.8219H13.6723C13.9494 27.8219 14.1742 28.0469 14.1742 28.3239C14.1742 28.6009 13.9494 28.8259 13.6723 28.8259H0.941414C0.664206 28.8259 0.439453 28.6011 0.439453 28.3239V1.84992C0.439453 1.57271 0.664206 1.34796 0.941414 1.34796H18.0577C18.1908 1.34796 18.3185 1.40086 18.4126 1.49497L21.723 4.80534C21.8171 4.89952 21.87 5.02715 21.87 5.16029V12.008C21.87 12.285 21.6451 12.5099 21.368 12.5099C21.091 12.5099 20.8661 12.285 20.8661 12.008V5.66225H18.0577C17.7804 5.66225 17.5557 5.4375 17.5557 5.16029V2.35188ZM20.1562 4.65833L18.5596 3.06178V4.65833H20.1562ZM5.42819 8.57776H8.16501C8.63779 8.57776 9.02405 8.96402 9.02405 9.43681V12.1736C9.02405 12.6463 8.63779 13.0327 8.16501 13.0327H5.42819C4.95547 13.0327 4.56915 12.6463 4.56915 12.1736V9.43681C4.56915 8.96402 4.95547 8.57776 5.42819 8.57776ZM5.57307 9.58169V12.0287H8.02013V9.58169H5.57307ZM5.42819 14.7976H8.16501C8.63779 14.7976 9.02405 15.1839 9.02405 15.6566V18.3934C9.02405 18.8662 8.63779 19.2525 8.16501 19.2525H5.42819C4.95547 19.2525 4.56915 18.8662 4.56915 18.3934V15.6566C4.56915 15.1839 4.95547 14.7976 5.42819 14.7976ZM5.57307 15.8015V18.2485H8.02013V15.8015H5.57307ZM5.42819 21.0175H8.16501C8.63729 21.0175 9.02405 21.4055 9.02405 21.8778V24.6146C9.02405 25.0874 8.63779 25.4736 8.16501 25.4736H5.42819C4.95547 25.4736 4.56915 25.0874 4.56915 24.6146V21.8778C4.56915 21.4055 4.95591 21.0175 5.42819 21.0175ZM5.57307 22.0215V24.4697H8.02013V22.0215H5.57307ZM11.7289 10.413C11.4518 10.413 11.227 10.1881 11.227 9.91104C11.227 9.63402 11.4518 9.40908 11.7289 9.40908H17.3859C17.6629 9.40908 17.8879 9.63402 17.8879 9.91104C17.8879 10.1881 17.6629 10.413 17.3859 10.413H11.7289ZM11.7289 12.2013C11.4518 12.2013 11.227 11.9764 11.227 11.6993C11.227 11.4223 11.4518 11.1974 11.7289 11.1974H15.4115C15.6885 11.1974 15.9135 11.4223 15.9135 11.6993C15.9135 11.9764 15.6885 12.2013 15.4115 12.2013H11.7289ZM11.7289 16.6328C11.4518 16.6328 11.227 16.4079 11.227 16.1308C11.227 15.8538 11.4518 15.6289 11.7289 15.6289H17.3859C17.6629 15.6289 17.8879 15.8538 17.8879 16.1308C17.8879 16.4079 17.6629 16.6328 17.3859 16.6328H11.7289ZM11.7289 18.4212C11.4518 18.4212 11.227 18.1962 11.227 17.9192C11.227 17.6422 11.4518 17.4172 11.7289 17.4172H15.4115C15.6885 17.4172 15.9135 17.6422 15.9135 17.9192C15.9135 18.1962 15.6885 18.4212 15.4115 18.4212H11.7289ZM4.61796 5.66225C4.34088 5.66225 4.116 5.43737 4.116 5.16029C4.116 4.88327 4.34088 4.65833 4.61796 4.65833H14.3978C14.6748 4.65833 14.8998 4.88327 14.8998 5.16029C14.8998 5.43737 14.6748 5.66225 14.3978 5.66225H4.61796Z" fill="#5CA0EF"/>
</svg>
