<svg width="32" height="32" viewBox="0 0 32 32" fill="none" xmlns="http://www.w3.org/2000/svg">
<path fill-rule="evenodd" clip-rule="evenodd" d="M22.5117 0.989197C22.5704 1.01411 22.622 1.0515 22.6718 1.0995L25.7132 4.14095C25.7613 4.18901 25.7986 4.24234 25.8235 4.29925H22.7838C22.6344 4.29925 22.5117 4.17834 22.5117 4.02888V0.989197Z" fill="#C8DFF9"/>
<path fill-rule="evenodd" clip-rule="evenodd" d="M19.2637 4.23877C19.3206 4.2655 19.3739 4.30283 19.4219 4.35083L22.4634 7.39234C22.5114 7.44034 22.5488 7.49367 22.5755 7.55064H19.534C19.3846 7.55064 19.2637 7.42791 19.2637 7.28028V4.23877Z" fill="#C8DFF9"/>
<path fill-rule="evenodd" clip-rule="evenodd" d="M27.5433 20.5381L29.3023 24.3178C29.3237 24.3624 29.3184 24.4105 29.288 24.448C29.2595 24.4873 29.2149 24.5051 29.1667 24.4962L27.2541 24.1626L26.2764 25.8414C26.2532 25.8825 26.2104 25.9057 26.1622 25.9039C26.1141 25.9021 26.0748 25.8753 26.0534 25.8307L24.452 22.3913L24.8169 22.5015C25.4289 22.6853 26.064 22.4551 26.4138 21.9199L26.9972 21.0278C27.1407 20.8094 27.3155 20.6508 27.5433 20.5381ZM22.3184 22.3913L20.717 25.8307C20.6973 25.8753 20.6563 25.9021 20.6082 25.9039C20.56 25.9057 20.5172 25.8825 20.494 25.8414L19.518 24.1626L17.6036 24.4962C17.5555 24.5051 17.5109 24.4873 17.4823 24.448C17.452 24.4105 17.4466 24.3624 17.468 24.3178L19.2271 20.5381C19.4549 20.6508 19.6297 20.8094 19.7732 21.0278L20.3566 21.9199C20.7063 22.4551 21.3414 22.6853 21.9534 22.5015L22.3184 22.3913Z" fill="#C8DFF9"/>
<path fill-rule="evenodd" clip-rule="evenodd" d="M24.2354 9.5629L25.09 10.2034C25.3237 10.3782 25.5682 10.4674 25.8608 10.4835L26.9259 10.5424C27.5629 10.5781 28.082 11.0134 28.2265 11.6342L28.471 12.6744C28.537 12.9581 28.6672 13.1847 28.8813 13.3845L29.6592 14.1142C30.1249 14.5513 30.2426 15.2186 29.9536 15.7878L29.4719 16.7405C29.3416 17.001 29.2953 17.2579 29.331 17.5487L29.4576 18.6085C29.5326 19.2419 29.1954 19.8289 28.6066 20.0804L27.6271 20.4997C27.3577 20.6139 27.1578 20.7834 26.9973 21.0278L26.4139 21.9199C26.0641 22.4551 25.429 22.6853 24.817 22.5015L23.7947 22.1929C23.5164 22.1072 23.2542 22.1072 22.9758 22.1929L21.9535 22.5015C21.3415 22.6853 20.7064 22.4551 20.3567 21.9199L19.7732 21.0278C19.6127 20.7834 19.4128 20.6139 19.1435 20.4997L18.164 20.0804C17.577 19.8289 17.238 19.2419 17.3129 18.6085L17.4396 17.5487C17.4753 17.2579 17.4289 17.001 17.2986 16.7405L16.8169 15.7878C16.5279 15.2186 16.6457 14.5513 17.1113 14.1142L17.8892 13.3845C18.1033 13.1847 18.2335 12.9581 18.2996 12.6744L18.544 11.6342C18.6885 11.0134 19.2077 10.5781 19.8447 10.5424L20.9097 10.4835C21.2023 10.4674 21.4485 10.3782 21.6805 10.2034L22.5351 9.5629C23.0472 9.1811 23.7234 9.1811 24.2354 9.5629ZM23.3862 20.0781C25.674 20.0781 27.5422 18.2101 27.5422 15.9202C27.5422 13.6304 25.674 11.7624 23.3862 11.7624C21.0965 11.7624 19.2284 13.6304 19.2284 15.9202C19.2284 18.2101 21.0965 20.0781 23.3862 20.0781Z" fill="#C8DFF9"/>
<path fill-rule="evenodd" clip-rule="evenodd" d="M22.0118 1.44313C19.784 1.44313 5.64442 1.44313 5.64442 1.44313V2.31064C5.64442 2.58773 5.41948 2.81261 5.14246 2.81261C4.86544 2.81261 4.6405 2.58773 4.6405 2.31064V0.94117C4.6405 0.663962 4.86525 0.439209 5.14246 0.439209H22.5138C22.6456 0.439209 22.7738 0.491225 22.8688 0.586346L26.2267 3.94697C26.3217 4.04203 26.3736 4.16997 26.3736 4.3018V8.60228C26.3736 8.8793 26.1486 9.10425 25.8716 9.10425C25.5946 9.10425 25.3697 8.8793 25.3697 8.60228V4.80376H22.5138C22.2365 4.80376 22.0118 4.57901 22.0118 4.3018V1.44313ZM24.6605 3.79984L23.0157 2.15372V3.79984H24.6605ZM18.7599 4.69496H2.39259V30.5569H22.1178V25.437C22.1178 25.16 22.3427 24.9351 22.6198 24.9351C22.8968 24.9351 23.1218 25.16 23.1218 25.437V31.0588C23.1218 31.336 22.897 31.5608 22.6198 31.5608H1.89063C1.61336 31.5608 1.38867 31.336 1.38867 31.0588V4.193C1.38867 3.91579 1.61336 3.69104 1.89063 3.69104H19.2619C19.3938 3.69104 19.5218 3.74299 19.6168 3.83811L22.9747 7.19598C23.1183 7.33954 23.1612 7.55544 23.0835 7.74299C23.0059 7.9306 22.8228 8.05289 22.6198 8.05289H19.2619C18.9847 8.05289 18.7599 7.82814 18.7599 7.55093V4.69496ZM21.4079 7.04897L19.7638 5.40486V7.04897H21.4079ZM18.5544 20.7933L17.9662 20.5415C17.1717 20.2011 16.713 19.4066 16.8144 18.5494L16.8145 18.5488L16.9412 17.4891C16.9412 17.4886 16.9413 17.4881 16.9414 17.4876C16.9644 17.2998 16.934 17.1339 16.85 16.9657C16.85 16.9657 16.369 16.0144 16.3694 16.0151C15.9779 15.2443 16.1371 14.3405 16.7677 13.7484L17.5457 13.0187L17.5467 13.0178C17.6844 12.8893 17.7681 12.7435 17.8106 12.561L17.8108 12.5599C17.8108 12.5599 18.0552 11.5199 18.055 11.5209C18.2507 10.68 18.9537 10.09 19.8163 10.0417H19.8167L20.8819 9.9828C21.0702 9.97245 21.2288 9.91554 21.378 9.80304C21.3784 9.80279 21.3788 9.80247 21.3791 9.80222L22.2337 9.16178L22.2347 9.16103C22.9274 8.64451 23.8422 8.64451 24.5349 9.16103L24.5359 9.16178L25.3902 9.80197C25.541 9.91485 25.6988 9.97239 25.8876 9.9828L26.9528 10.0417H26.9532C27.8159 10.09 28.5188 10.68 28.7144 11.5199L28.9587 12.5599L28.959 12.561C29.0015 12.7435 29.0852 12.8893 29.223 13.0178L29.2238 13.0187L30.0018 13.7484C30.6325 14.3405 30.7917 15.2443 30.4006 16.0144C30.4006 16.0144 29.9196 16.9657 29.9189 16.9669C29.8355 17.1347 29.8052 17.3002 29.8283 17.4876C29.8283 17.4881 29.8284 17.4886 29.8285 17.4891L29.9551 18.5488L29.9551 18.5494C30.0566 19.4068 29.5999 20.2012 28.8033 20.5417L28.2152 20.7933C28.6857 21.8043 29.7558 24.1037 29.7558 24.1037C29.8613 24.327 29.8319 24.5669 29.6859 24.7525C29.5406 24.9451 29.3181 25.0332 29.078 24.9898L27.5113 24.7165C27.5113 24.7165 26.7122 26.0888 26.7113 26.0903C26.5948 26.2943 26.3834 26.4137 26.1431 26.4048C25.9043 26.396 25.7064 26.2684 25.6003 26.0472C25.5994 26.0455 25.5986 26.0437 25.5977 26.0419L24.0914 22.8065L23.6491 22.673C23.6483 22.6727 23.6474 22.6725 23.6466 22.6722C23.4687 22.6175 23.301 22.6175 23.123 22.6722C23.1221 22.6725 23.1213 22.6727 23.1204 22.673L22.6782 22.8065C22.3344 23.545 21.1734 26.0386 21.1737 26.0379C21.0734 26.2604 20.8685 26.3959 20.6266 26.4048C20.3864 26.4137 20.1752 26.2946 20.0589 26.0915L19.2597 24.7165L17.6915 24.9899C17.4504 25.0332 17.2272 24.9443 17.0844 24.7534C16.9373 24.5648 16.9087 24.3257 17.0138 24.1037L18.5544 20.7933ZM27.3746 21.3665L26.8334 22.1941C26.4834 22.7297 25.9224 23.0399 25.319 23.0647C25.5957 23.6592 25.9541 24.4289 26.2042 24.9661L26.8196 23.9094C26.9254 23.7279 27.1328 23.6314 27.3397 23.6675L28.5432 23.8775L27.3746 21.3665ZM21.4507 23.0647C20.8472 23.0399 20.2862 22.7297 19.9363 22.1943L19.395 21.3665L18.2264 23.8776L19.4318 23.6675C19.6388 23.6314 19.8463 23.7281 19.9519 23.9098L20.5656 24.9655L21.4507 23.0647ZM23.9348 9.96586L23.9339 9.96511C23.6028 9.7189 23.1659 9.71908 22.835 9.96567L21.9814 10.6054C21.6671 10.8422 21.3335 10.9634 20.9372 10.9852L19.8724 11.044C19.4614 11.0671 19.126 11.3478 19.0328 11.7484L19.0325 11.7495C19.0325 11.7495 18.7886 12.7874 18.7884 12.7885C18.6989 13.173 18.5224 13.4802 18.2324 13.751L17.4549 14.4804C17.1543 14.7626 17.078 15.1932 17.2645 15.5606L17.2649 15.5613L17.7466 16.514C17.7469 16.5147 17.7473 16.5154 17.7476 16.516C17.9237 16.8682 17.9859 17.2156 17.9379 17.6087L17.8114 18.6674C17.763 19.0768 17.9822 19.4562 18.3616 19.6188L19.3404 20.0378C19.7046 20.1924 19.9753 20.4212 20.1926 20.7519L20.1932 20.7527L20.7767 21.6449C21.0026 21.9908 21.4132 22.139 21.8086 22.0204L22.8293 21.7122C23.2068 21.5964 23.5627 21.5964 23.9403 21.7122L24.9609 22.0204C25.3564 22.139 25.767 21.9908 25.9929 21.6449L26.5764 20.7527L26.577 20.7519C26.7942 20.4212 27.065 20.1924 27.4293 20.0378L28.4082 19.6187L28.4085 19.6186C28.7889 19.4561 29.0066 19.0767 28.9582 18.6675L28.8316 17.6087C28.7836 17.2156 28.8459 16.8682 29.022 16.516C29.0223 16.5154 29.0227 16.5147 29.023 16.514L29.5047 15.5613L29.5051 15.5606C29.6916 15.1932 29.6153 14.7626 29.3148 14.4804L28.5372 13.751C28.2472 13.4802 28.0707 13.173 27.9815 12.7896L27.737 11.7495L27.7368 11.7484C27.6435 11.3478 27.3082 11.0671 26.8971 11.044L25.8326 10.9852C25.4363 10.9634 25.1053 10.8427 24.7887 10.6058L24.7884 10.6055L23.9348 9.96586ZM23.3858 20.5676C20.8262 20.5676 18.7381 18.4794 18.7381 15.9199C18.7381 13.3603 20.8262 11.2722 23.3858 11.2722C25.9432 11.2722 28.0315 13.3602 28.0315 15.9199C28.0315 18.4795 25.9432 20.5676 23.3858 20.5676ZM23.3858 19.5637C25.3907 19.5637 27.0276 17.9265 27.0276 15.9199C27.0276 13.9132 25.3907 12.2761 23.3858 12.2761C21.3791 12.2761 19.742 13.9132 19.742 15.9199C19.742 17.9266 21.3791 19.5637 23.3858 19.5637ZM21.0909 16.47C20.8951 16.2741 20.8951 15.956 21.0909 15.7601C21.2868 15.5642 21.6049 15.5642 21.8008 15.7601L22.5936 16.5529L24.9865 14.3822C25.1917 14.1961 25.5093 14.2116 25.6955 14.4168C25.8817 14.622 25.8662 14.9397 25.661 15.1258L22.9141 17.6178C22.7157 17.7976 22.4112 17.7902 22.2219 17.6009L21.0909 16.47ZM6.12128 13.0095C5.84426 13.0095 5.61932 12.7846 5.61932 12.5075C5.61932 12.2305 5.84426 12.0056 6.12128 12.0056H16.5095C16.7865 12.0056 17.0114 12.2305 17.0114 12.5075C17.0114 12.7846 16.7865 13.0095 16.5095 13.0095H6.12128ZM6.12128 16.6229C5.84426 16.6229 5.61932 16.398 5.61932 16.121C5.61932 15.8439 5.84426 15.619 6.12128 15.619H15.1031C15.3801 15.619 15.605 15.8439 15.605 16.121C15.605 16.398 15.3801 16.6229 15.1031 16.6229H6.12128ZM6.12128 20.2391C5.84426 20.2391 5.61932 20.0142 5.61932 19.7372C5.61932 19.4601 5.84426 19.2352 6.12128 19.2352H15.7922C16.0693 19.2352 16.2942 19.4601 16.2942 19.7372C16.2942 20.0142 16.0693 20.2391 15.7922 20.2391H6.12128ZM6.12128 23.8553C5.84426 23.8553 5.61932 23.6304 5.61932 23.3533C5.61932 23.0763 5.84426 22.8514 6.12128 22.8514H16.0343C16.3113 22.8514 16.5363 23.0763 16.5363 23.3533C16.5363 23.6304 16.3113 23.8553 16.0343 23.8553H6.12128ZM6.12128 27.4715C5.84426 27.4715 5.61932 27.2466 5.61932 26.9695C5.61932 26.6925 5.84426 26.4676 6.12128 26.4676H18.3918C18.6689 26.4676 18.8938 26.6925 18.8938 26.9695C18.8938 27.2466 18.6689 27.4715 18.3918 27.4715H6.12128ZM6.12128 9.39331C5.84426 9.39331 5.61932 9.16837 5.61932 8.89135C5.61932 8.61433 5.84426 8.38939 6.12128 8.38939H14.9279C15.205 8.38939 15.4299 8.61433 15.4299 8.89135C15.4299 9.16837 15.205 9.39331 14.9279 9.39331H6.12128Z" fill="#5CA0EF"/>
</svg>
