<svg width="66" height="66" viewBox="0 0 66 66" fill="none" xmlns="http://www.w3.org/2000/svg">
<path fill-rule="evenodd" clip-rule="evenodd" d="M33 66C14.7775 66 0 51.2225 0 33C0 14.7775 14.7775 0 33 0C51.2225 0 66 14.7775 66 33C66 51.2225 51.2225 66 33 66ZM33 11.5354C42.0275 11.5354 49.3454 18.8534 49.3454 27.8808C49.3454 36.908 33 54.4643 33 54.4643C33 54.4643 16.6546 36.908 16.6546 27.8808C16.6546 18.8534 23.9726 11.5354 33 11.5354ZM33 21.3866C36.4226 21.3866 39.1983 24.1622 39.1983 27.5851C39.1983 31.0078 36.4226 33.7834 33 33.7834C29.5774 33.7834 26.8017 31.0078 26.8017 27.5851C26.8017 24.1622 29.5774 21.3866 33 21.3866Z" fill="#976DCD"/>
</svg>
