<svg width="32" height="32" viewBox="0 0 32 32" fill="none" xmlns="http://www.w3.org/2000/svg">
<path fill-rule="evenodd" clip-rule="evenodd" d="M9.39964 6.68611C9.39964 4.94217 10.8181 3.52367 12.5621 3.52367C14.3059 3.52367 15.7245 4.94217 15.7245 6.68611C15.7245 8.42999 14.3059 9.84855 12.5621 9.84855C10.8181 9.84849 9.39964 8.42999 9.39964 6.68611ZM16.7244 6.68611C16.7244 4.39092 14.8569 2.52374 12.562 2.52374C10.2671 2.52374 8.39963 4.39092 8.39963 6.68611C8.39963 8.9813 10.2671 10.8484 12.562 10.8484C14.8569 10.8484 16.7244 8.98124 16.7244 6.68611ZM21.2833 26.64V21.1538L27.9389 24.4807L28.4419 29.645L21.2833 26.64ZM4.22701 20.6732L10.8675 24.1071V30.2608L3.65807 27.1707L4.22701 20.6732ZM5.33082 8.07224L4.91895 12.7785L7.64688 14.2159C8.43382 13.9397 9.35845 13.7802 10.0944 13.6894C8.77826 12.142 7.47007 10.4372 6.81932 8.74892L5.33082 8.07224ZM12.562 1.5188C9.71257 1.5188 7.39501 3.83692 7.39501 6.68605C7.39501 9.11067 10.0444 12.1301 11.9789 14.335C12.1808 14.5647 12.3758 14.7871 12.562 15.0019C12.7482 14.7872 12.9433 14.5648 13.1451 14.335C15.0796 12.1301 17.7287 9.11061 17.7287 6.68605C17.7287 3.83692 15.4114 1.5188 12.562 1.5188ZM20.2831 8.00461L18.3583 8.60624C17.7276 10.3413 16.3826 12.0982 15.0296 13.6894C15.4788 13.7449 15.9984 13.8259 16.5138 13.9432L20.2831 12.294V8.00461ZM27.1095 15.9777L21.2833 12.3437V8.30055L26.7444 12.2331L27.1095 15.9777ZM21.2833 13.5222V20.0357L27.8241 23.3058L27.232 17.2327L21.2833 13.5222ZM11.8678 24.1521L20.2831 21.0605V26.6432L11.8678 30.2596V24.1521ZM8.11876 17.4749C6.69432 17.0707 5.97213 16.4976 5.97213 15.7719C5.97213 15.3682 6.19451 15.0382 6.5502 14.7681L4.82395 13.8591L4.32151 19.5965L10.8676 22.9813V17.9335C9.84145 17.8517 8.89832 17.696 8.11876 17.4749ZM20.2831 19.9957L11.8678 23.0863V17.9887C12.0969 17.9961 12.3281 17.9999 12.562 17.9999C14.2338 17.9999 15.8113 17.8134 17.005 17.4748C18.4294 17.0706 19.1519 16.4975 19.1519 15.7718C19.1519 15.166 18.6507 14.7254 17.952 14.4056L20.2831 13.3857V19.9957ZM11.2271 14.9946C11.5689 15.3841 11.8919 15.7521 12.1802 16.093C12.2752 16.2051 12.4153 16.2701 12.562 16.2701C12.7088 16.2701 12.8488 16.2051 12.9438 16.093C13.2321 15.7521 13.5551 15.384 13.8969 14.9946C14.0076 14.8684 14.1193 14.7407 14.2326 14.6115C15.3881 14.7074 16.4224 14.9037 17.1649 15.1687C17.9807 15.4602 18.1519 15.7309 18.1519 15.7718C18.1519 15.8274 17.9051 16.1798 16.7319 16.5128C15.6244 16.827 14.1438 17 12.5619 17C10.9799 17 9.49951 16.827 8.39195 16.5128C7.21876 16.1798 6.97195 15.8274 6.97195 15.7718C6.97195 15.7309 7.14313 15.4602 7.95895 15.1687C8.70114 14.9034 9.73582 14.7074 10.8913 14.6115C11.0043 14.7407 11.1164 14.8684 11.2271 14.9946ZM29.5186 30.382L27.7176 11.911C27.7038 11.7677 27.6287 11.6377 27.5119 11.5539L21.0756 6.91874C20.9476 6.82667 20.7843 6.80017 20.6337 6.84724L18.6639 7.46292C18.7063 7.2023 18.7289 6.94311 18.7289 6.68599C18.7289 3.28524 15.9627 0.518799 12.562 0.518799C9.16132 0.518799 6.39513 3.2853 6.39513 6.68599C6.39513 6.95161 6.41895 7.2193 6.46457 7.4888L5.10132 6.86924C4.95332 6.80217 4.7827 6.81067 4.64213 6.89249C4.50213 6.97424 4.41001 7.11899 4.39651 7.2808L2.63082 27.4446C2.61201 27.6597 2.7332 27.862 2.93207 27.9477L11.1706 31.4784C11.2332 31.5052 11.3009 31.5187 11.3677 31.5187C11.4344 31.5187 11.5021 31.5052 11.5651 31.4784L20.7856 27.5158L28.8302 30.8915C28.992 30.9594 29.1773 30.9371 29.3185 30.8327C29.4598 30.7282 29.5362 30.557 29.5186 30.382Z" fill="#5CA0EF"/>
<path fill-rule="evenodd" clip-rule="evenodd" d="M13.1465 14.335C15.0811 12.1302 17.7302 9.11067 17.7302 6.68611C17.7302 3.83698 15.4129 1.51886 12.5635 1.51886C9.71405 1.51886 7.39648 3.83698 7.39648 6.68611C7.39648 9.11074 10.0459 12.1302 11.9804 14.335C12.1822 14.5648 12.3773 14.7872 12.5635 15.002C12.7497 14.7872 12.9447 14.5648 13.1465 14.335ZM12.5635 10.8484C10.2686 10.8484 8.40111 8.98124 8.40111 6.68611C8.40111 4.39092 10.2685 2.52374 12.5635 2.52374C14.8584 2.52374 16.7259 4.39092 16.7259 6.68611C16.7259 8.98124 14.8584 10.8484 12.5635 10.8484Z" fill="#C8DFF9"/>
<path fill-rule="evenodd" clip-rule="evenodd" d="M27.9407 24.4807L21.2852 21.1539V26.64L28.4437 29.6451L27.9407 24.4807Z" fill="#C8DFF9"/>
<path fill-rule="evenodd" clip-rule="evenodd" d="M21.2852 20.0357L27.8259 23.3058L27.2337 17.2327L21.2852 13.5222V20.0357Z" fill="#C8DFF9"/>
<path fill-rule="evenodd" clip-rule="evenodd" d="M21.2852 12.3437L27.1113 15.9777L26.7463 12.2331L21.2852 8.30054V12.3437Z" fill="#C8DFF9"/>
</svg>
