<svg width="32" height="32" viewBox="0 0 32 32" fill="none" xmlns="http://www.w3.org/2000/svg">
<path fill-rule="evenodd" clip-rule="evenodd" d="M28.1393 1.58271L10.2966 1.63918C10.2582 1.63704 10.2197 1.63598 10.1809 1.63598L28.1393 1.58271ZM28.1393 1.58271L28.1407 1.58264L28.1618 1.58258C29.7607 1.58258 31.0591 2.88097 31.0591 4.47984C31.0591 5.00809 30.9167 5.50252 30.6695 5.92931H24.6794V5.06675C24.6794 3.14989 26.2253 1.59482 28.1393 1.58271ZM16.6816 24.2251V22.368L17.8557 21.9158C18.0048 21.2893 18.2535 20.6914 18.591 20.1437L18.0794 18.9922L19.4368 17.6356L20.5875 18.1464C21.136 17.8089 21.7339 17.5611 22.3595 17.412L22.8117 16.2371H24.7311L25.1834 17.412C25.8097 17.5611 26.4077 17.8089 26.9554 18.1464L27.7199 17.8072L28.1069 17.6356L29.4635 18.9922L28.9527 20.1437C29.2901 20.6914 29.5381 21.2893 29.6871 21.9158L30.862 22.368V24.2874L29.6871 24.7396C29.5381 25.3652 29.2901 25.9631 28.9527 26.5108L29.4635 27.6623L28.1069 29.0198L27.7199 28.8481L27.7201 28.8479L26.9554 28.5081C26.4077 28.8456 25.8097 29.0943 25.1834 29.2433L24.7311 30.4175H22.8117L22.3595 29.2425C21.7436 29.0957 21.1546 28.8532 20.6138 28.5237L20.5528 28.5239L19.4368 29.0198L18.9455 28.5285L3.83866 28.5718C2.23973 28.5718 0.941406 27.2753 0.941406 25.6746C0.941406 25.1464 1.08371 24.6519 1.33093 24.2251H16.6816ZM23.7715 20.0645C21.97 20.0645 20.5091 21.5254 20.5091 23.3276C20.5091 25.1291 21.97 26.59 23.7715 26.59C25.5738 26.59 27.0346 25.1291 27.0346 23.3276C27.0346 21.5254 25.5738 20.0645 23.7715 20.0645Z" fill="#C8DFF9"/>
<path fill-rule="evenodd" clip-rule="evenodd" d="M7.82392 23.7046H15.2651C15.5424 23.7046 15.7675 23.9297 15.7675 24.207C15.7675 24.4843 15.5424 24.7094 15.2651 24.7094C15.2651 24.7094 1.63996 24.7094 1.63989 24.7095C1.51428 25 1.44438 25.32 1.44438 25.6565C1.44438 26.9794 2.51719 28.0511 3.83861 28.0513L17.0768 28.008C17.3541 28.007 17.58 28.2314 17.5808 28.5087C17.5818 28.786 17.3573 29.0119 17.0801 29.0128L3.8408 29.0562C3.84024 29.0562 3.83967 29.0562 3.83917 29.0562C1.96297 29.0562 0.439453 27.5348 0.439453 25.6565C0.439453 25.0365 0.606481 24.4562 0.896614 23.9552C0.986465 23.8001 1.15217 23.7046 1.33144 23.7046H6.81906V5.04871C6.81906 3.06678 8.26584 1.12519 10.1798 1.11904L28.1381 1.0622C28.1457 1.06213 28.1532 1.06213 28.1607 1.06213H28.1623C30.0385 1.06213 31.562 2.58558 31.562 4.46179C31.562 5.08177 31.395 5.6621 31.1049 6.16312C31.015 6.31823 30.8493 6.41373 30.67 6.41373H25.1824V14.8169C25.1824 15.0941 24.9573 15.3193 24.68 15.3193C24.4027 15.3193 24.1776 15.0941 24.1776 14.8169V5.04871C24.1776 3.86696 24.6911 2.80538 25.5073 2.0754L10.183 2.12391C8.79214 2.12836 7.82392 3.60839 7.82392 5.04871V23.7046ZM28.1623 2.067C28.1559 2.067 28.1495 2.067 28.143 2.06706C26.5051 2.07741 25.1824 3.40836 25.1824 5.04871V5.40886C26.5715 5.40886 30.3615 5.40886 30.3616 5.4088C30.4872 5.11829 30.5571 4.79835 30.5571 4.46179C30.5571 3.14069 29.4848 2.06788 28.1639 2.067H28.1623ZM21.1478 12.5123H13.1588C12.8814 12.5123 12.6563 12.2872 12.6563 12.0098C12.6563 11.7326 12.8814 11.5074 13.1588 11.5074H21.1478C21.4251 11.5074 21.6502 11.7326 21.6502 12.0098C21.6502 12.2872 21.4251 12.5123 21.1478 12.5123ZM13.1588 18.6109C12.8814 18.6109 12.6563 18.3857 12.6563 18.1085C12.6563 17.8311 12.8814 17.606 13.1588 17.606H16.8696C17.147 17.606 17.3721 17.8311 17.3721 18.1085C17.3721 18.3857 17.147 18.6109 16.8696 18.6109H13.1588ZM13.1588 21.661C12.8814 21.661 12.6563 21.4359 12.6563 21.1586C12.6563 20.8813 12.8814 20.6562 13.1588 20.6562H16.0007C16.278 20.6562 16.5032 20.8813 16.5032 21.1586C16.5032 21.4359 16.278 21.661 16.0007 21.661H13.1588ZM13.1588 6.41373C12.8814 6.41373 12.6563 6.1886 12.6563 5.91126C12.6563 5.63399 12.8814 5.40886 13.1588 5.40886H21.1478C21.4251 5.40886 21.6502 5.63399 21.6502 5.91126C21.6502 6.1886 21.4251 6.41373 21.1478 6.41373H13.1588ZM13.1588 9.46389C12.8814 9.46389 12.6563 9.23876 12.6563 8.96149C12.6563 8.68416 12.8814 8.45903 13.1588 8.45903H21.1478C21.4251 8.45903 21.6502 8.68416 21.6502 8.96149C21.6502 9.23876 21.4251 9.46389 21.1478 9.46389H13.1588ZM13.1588 15.5625C12.8814 15.5625 12.6563 15.3373 12.6563 15.0601C12.6563 14.7827 12.8814 14.5576 13.1588 14.5576H21.1478C21.4251 14.5576 21.6502 14.7827 21.6502 15.0601C21.6502 15.3373 21.4251 15.5625 21.1478 15.5625H13.1588ZM10.6103 5.09715C11.0596 5.09715 11.4245 5.46195 11.4245 5.91126C11.4245 6.36064 11.0596 6.72544 10.6103 6.72544C10.1609 6.72544 9.79613 6.36064 9.79613 5.91126C9.79613 5.46195 10.1609 5.09715 10.6103 5.09715ZM10.6103 8.14731C11.0596 8.14731 11.4245 8.51211 11.4245 8.96149C11.4245 9.41081 11.0596 9.77561 10.6103 9.77561C10.1609 9.77561 9.79613 9.41081 9.79613 8.96149C9.79613 8.51211 10.1609 8.14731 10.6103 8.14731ZM10.6103 11.1957C11.0596 11.1957 11.4245 11.5605 11.4245 12.0098C11.4245 12.4592 11.0596 12.824 10.6103 12.824C10.1609 12.824 9.79613 12.4592 9.79613 12.0098C9.79613 11.5605 10.1609 11.1957 10.6103 11.1957ZM10.6103 14.245C11.0596 14.245 11.4245 14.6098 11.4245 15.0592C11.4245 15.5085 11.0596 15.8733 10.6103 15.8733C10.1609 15.8733 9.79613 15.5085 9.79613 15.0592C9.79613 14.6098 10.1609 14.245 10.6103 14.245ZM10.6103 17.2943C11.0596 17.2943 11.4245 17.6591 11.4245 18.1085C11.4245 18.5578 11.0596 18.9226 10.6103 18.9226C10.1609 18.9226 9.79613 18.5578 9.79613 18.1085C9.79613 17.6591 10.1609 17.2943 10.6103 17.2943ZM10.6103 20.3436C11.0596 20.3436 11.4245 20.7084 11.4245 21.1578C11.4245 21.6071 11.0596 21.9719 10.6103 21.9719C10.1609 21.9719 9.79613 21.6071 9.79613 21.1578C9.79613 20.7084 10.1609 20.3436 10.6103 20.3436ZM25.5577 16.9867C26.0539 17.1264 26.5314 17.3242 26.9816 17.5767L27.8948 17.1706C28.0847 17.0862 28.3069 17.1275 28.4538 17.2743L29.8072 18.6278C29.9539 18.7745 29.9952 18.9964 29.9112 19.1861C29.9112 19.1861 29.5066 20.0996 29.5065 20.0996C29.7593 20.5501 29.9573 21.0282 30.0971 21.526L31.0284 21.8845C31.2222 21.959 31.3501 22.1452 31.3501 22.3529V24.2674C31.3501 24.4751 31.2222 24.6613 31.0284 24.7359C31.0284 24.7359 30.0967 25.0944 30.0967 25.0944C29.9568 25.5906 29.758 26.0681 29.5063 26.5182L29.9112 27.4323C29.9952 27.622 29.9539 27.8439 29.8072 27.9906L28.4538 29.344C28.307 29.4907 28.0852 29.532 27.8955 29.448C27.8955 29.448 26.9823 29.0435 26.9823 29.0435C26.5328 29.2961 26.0542 29.494 25.5576 29.6337L25.199 30.5653C25.1244 30.759 24.9382 30.8869 24.7306 30.8869H22.816C22.6084 30.8869 22.4222 30.759 22.3476 30.5653L21.9891 29.6338C21.4915 29.4938 21.0136 29.295 20.5633 29.0431L19.6492 29.448C19.4596 29.532 19.2377 29.4907 19.091 29.344L17.7375 27.9906C17.5906 27.8437 17.5494 27.6215 17.6338 27.4317C17.6338 27.4317 18.0398 26.5187 18.0398 26.5188C17.7873 26.0694 17.5893 25.5911 17.4486 25.0947L16.5163 24.7359C16.3225 24.6613 16.1946 24.4751 16.1946 24.2674V22.3529C16.1946 22.1452 16.3225 21.959 16.5163 21.8845C16.5163 21.8845 17.4484 21.5257 17.4484 21.5258C17.5892 21.0281 17.7872 20.5503 18.0399 20.1L17.6338 19.1867C17.5494 18.9969 17.5906 18.7747 17.7375 18.6278L19.091 17.2743C19.2379 17.1275 19.4601 17.0862 19.6499 17.1706C19.6499 17.1706 20.5632 17.5767 20.5631 17.5767C21.0134 17.3241 21.4911 17.1263 21.9874 16.9865L22.3478 16.0528C22.4224 15.8591 22.6085 15.7315 22.816 15.7315H24.7306C24.9383 15.7315 25.1246 15.8594 25.1991 16.0534L25.5577 16.9867ZM24.7131 17.5876L24.3857 16.7354H23.1604L22.8313 17.5883C22.7717 17.7426 22.64 17.8577 22.479 17.896C21.9064 18.032 21.3603 18.2583 20.8583 18.5676C20.7173 18.6545 20.5425 18.6662 20.3911 18.5989L19.5571 18.2281L18.6912 19.0939L19.0621 19.9279C19.1294 20.0793 19.1177 20.2542 19.0308 20.3952C18.7212 20.8975 18.4949 21.4441 18.3569 22.0189C18.3184 22.1795 18.2033 22.3109 18.0491 22.3702L17.1985 22.6976V23.9227L18.0491 24.2501C18.2032 24.3094 18.3182 24.4406 18.3569 24.6011C18.4948 25.1739 18.7209 25.7221 19.0303 26.2225C19.1176 26.3637 19.1295 26.5388 19.0621 26.6905L18.6912 27.5245L19.5574 28.3907L20.3917 28.0211C20.5425 27.9543 20.7166 27.9659 20.8573 28.0521C21.3595 28.3598 21.9059 28.5881 22.4807 28.7242C22.6419 28.7625 22.7739 28.8778 22.8334 29.0324L23.1608 29.883H24.3859L24.7133 29.0324C24.7728 28.8779 24.9046 28.7626 25.0656 28.7244C25.6381 28.5883 26.1858 28.3623 26.6857 28.0531C26.8267 27.966 27.0015 27.954 27.153 28.0211L27.9873 28.3907L28.8539 27.5241L28.4843 26.6898C28.4175 26.539 28.429 26.365 28.5152 26.2243C28.823 25.722 29.0513 25.1756 29.1876 24.6025C29.2258 24.4414 29.3411 24.3096 29.4956 24.2501L30.3461 23.9227V22.6976L29.4956 22.3702C29.341 22.3107 29.2256 22.1787 29.1874 22.0175C29.0514 21.4431 28.8251 20.8971 28.5159 20.3952C28.4291 20.2544 28.4173 20.0798 28.4843 19.9286L28.8539 19.0943L27.9877 18.2281L27.1536 18.5989C27.0023 18.6662 26.8274 18.6545 26.6864 18.5676C26.1845 18.2583 25.6383 18.032 25.0656 17.896C24.9045 17.8576 24.7726 17.7423 24.7131 17.5876ZM23.7723 19.4679C25.8947 19.4679 27.6155 21.1868 27.6155 23.3092C27.6155 25.4314 25.8946 27.1524 23.7723 27.1524C21.65 27.1524 19.9311 25.4316 19.9311 23.3092C19.9311 21.1867 21.6499 19.4679 23.7723 19.4679ZM23.7723 20.4718C22.2046 20.4718 20.935 21.7415 20.935 23.3092C20.935 24.877 22.2045 26.1484 23.7723 26.1484C25.3403 26.1484 26.6116 24.8771 26.6116 23.3092C26.6116 21.7413 25.3402 20.4718 23.7723 20.4718ZM22.0972 23.4144C21.9013 23.2186 21.9013 22.9005 22.0972 22.7046C22.2931 22.5087 22.6112 22.5087 22.8071 22.7046L23.4987 23.3962L24.7376 22.1573C24.9335 21.9615 25.2516 21.9615 25.4475 22.1573C25.6434 22.3532 25.6434 22.6713 25.4475 22.8672L23.8537 24.461C23.6576 24.657 23.3398 24.657 23.1438 24.461L22.0972 23.4144Z" fill="#5CA0EF"/>
</svg>
