<svg width="32" height="32" viewBox="0 0 32 32" fill="none" xmlns="http://www.w3.org/2000/svg">
<path fill-rule="evenodd" clip-rule="evenodd" d="M5.00058 3.9055C5.00058 2.40694 6.21927 1.1875 7.71795 1.1875C9.21664 1.1875 10.4353 2.40694 10.4353 3.9055C10.4353 5.40312 9.21852 6.62156 7.72089 6.62319C7.71989 6.62319 7.71889 6.62319 7.71789 6.62319C7.71708 6.62319 7.71627 6.62319 7.71545 6.62319C6.21752 6.62156 5.00058 5.40363 5.00058 3.9055ZM16.0003 2.93762C17.4991 2.93762 18.718 4.15619 18.718 5.655C18.718 7.15294 17.5 8.37175 15.999 8.37237C14.501 8.37175 13.2829 7.15294 13.2829 5.655C13.2829 4.15638 14.5016 2.93762 16.0003 2.93762ZM21.5655 3.9055C21.5655 2.40694 22.7842 1.1875 24.283 1.1875C25.7816 1.1875 27.001 2.40687 27.001 3.9055C27.001 5.40369 25.783 6.62156 24.2851 6.62319C24.2844 6.62319 24.2837 6.62319 24.283 6.62319C24.2823 6.62319 24.2815 6.62319 24.2808 6.62319C22.7827 6.62156 21.5655 5.40381 21.5655 3.9055ZM30.3034 14.7357V18.3416L28.0234 19.2197C27.966 19.2418 27.9225 19.2912 27.9083 19.3511C27.608 20.6125 27.1095 21.8145 26.4291 22.9184C26.3966 22.9711 26.3927 23.0366 26.4178 23.0931L27.41 25.3278L24.8191 27.9188L22.5829 26.9263C22.5266 26.9013 22.4611 26.9056 22.4086 26.9379C21.3046 27.6175 20.1031 28.116 18.8421 28.4164C18.7823 28.4306 18.7327 28.4741 18.7106 28.5315L17.8325 30.8125H14.1678L13.29 28.5324C13.2679 28.4752 13.2186 28.4312 13.1588 28.417C11.8976 28.1166 10.6956 27.6178 9.59164 26.9379C9.5392 26.9057 9.47283 26.9013 9.41664 26.9263L7.18189 27.9188L4.59089 25.3278L5.58377 23.0919C5.60883 23.0355 5.60414 22.97 5.57177 22.9174C4.89227 21.8137 4.39383 20.6119 4.09333 19.3512C4.07902 19.2911 4.03583 19.2419 3.9782 19.2197L1.69727 18.3416V14.7356H9.18839L9.11239 15.1103C9.01902 15.5705 8.97302 16.0397 8.97302 16.5093C8.97302 20.3842 12.1253 23.5369 16.0003 23.5369C19.8755 23.5369 23.028 20.3845 23.028 16.5093C23.028 16.0395 22.9815 15.5705 22.8885 15.11L22.8129 14.7356L30.3034 14.7357Z" fill="#C8DFF9"/>
<path fill-rule="evenodd" clip-rule="evenodd" d="M7.71589 7.31069H7.71795H7.72058C9.4142 7.31125 11.0116 8.145 11.9897 9.51262C11.3566 10.0419 10.8298 10.6944 10.4467 11.4381H2.59102C3.10552 9.05075 5.2177 7.31125 7.71589 7.31069ZM5.31302 3.9055C5.31302 2.57937 6.39177 1.5 7.71795 1.5C9.04414 1.5 10.1229 2.57937 10.1229 3.9055C10.1229 5.23137 9.04533 6.30925 7.72064 6.31069C7.7192 6.31069 7.71858 6.31069 7.71802 6.31069C7.71739 6.31069 7.71683 6.31069 7.71595 6.31069C6.39033 6.30925 5.31302 5.23137 5.31302 3.9055ZM16.0003 9.05987C15.9998 9.05987 15.9998 9.05987 15.9991 9.05987C13.501 9.06075 11.3879 10.7994 10.8736 13.1881H21.1273C20.613 10.7994 18.4996 9.06075 16.0018 9.05987C16.0012 9.05987 16.0012 9.05987 16.0003 9.05987ZM13.5954 5.655C13.5954 4.32881 14.6741 3.25006 16.0003 3.25006C17.3268 3.25006 18.4056 4.32881 18.4056 5.655C18.4056 6.98056 17.3274 8.05931 16.0018 8.05994C16.0013 8.05994 16.0013 8.05994 16.0003 8.05994C15.9998 8.05994 15.9998 8.05994 15.9991 8.05994C14.6735 8.05931 13.5954 6.98056 13.5954 5.655ZM24.2811 7.31069H24.2829H24.2846C26.7828 7.31187 28.8953 9.04987 29.4099 11.4381H21.5541C21.1717 10.6944 20.6443 10.0419 20.0109 9.51262C20.9899 8.14494 22.5873 7.31125 24.2811 7.31069ZM21.878 3.9055C21.878 2.57937 22.9568 1.5 24.283 1.5C25.6091 1.5 26.6885 2.57937 26.6885 3.9055C26.6885 5.23137 25.6103 6.30925 24.2847 6.31069C24.2841 6.31069 24.2835 6.31069 24.283 6.31069C24.2824 6.31069 24.2818 6.31069 24.2812 6.31069C22.9553 6.30925 21.878 5.23137 21.878 3.9055ZM2.0047 12.4382H10.0379C9.91902 12.8218 9.83489 13.2213 9.79052 13.6343C9.77552 13.7756 9.82114 13.9161 9.91552 14.0217C10.0105 14.1277 10.1453 14.188 10.2873 14.188H21.7136C21.8554 14.188 21.9904 14.1277 22.0855 14.0217C22.1799 13.917 22.2255 13.7755 22.2105 13.6343C22.166 13.2213 22.0816 12.8218 21.963 12.4382H29.9959C30.138 12.4382 30.273 12.3782 30.3677 12.2726C30.4627 12.1669 30.5083 12.0263 30.4927 11.8851C30.228 9.40812 28.5479 7.40681 26.3048 6.64375C27.1435 6.02306 27.6883 5.02694 27.6883 3.9055C27.6883 2.02744 26.1609 0.500061 24.2828 0.500061C22.4054 0.500061 20.8777 2.02744 20.8777 3.9055C20.8777 5.02925 21.426 6.02744 22.2677 6.64812C21.0428 7.06881 19.9596 7.86481 19.1953 8.93506C18.8266 8.71618 18.434 8.53294 18.0221 8.39319C18.8602 7.7725 19.4053 6.77637 19.4053 5.65494C19.4053 3.7775 17.878 2.25012 16.0002 2.25012C14.1228 2.25012 12.5954 3.7775 12.5954 5.65494C12.5954 6.77637 13.1402 7.77244 13.9792 8.39319C13.5668 8.53294 13.1746 8.71618 12.806 8.93506C12.0408 7.86481 10.9586 7.06881 9.73302 6.64812C10.5753 6.02744 11.123 5.02925 11.123 3.9055C11.123 2.02744 9.59533 0.500061 7.71789 0.500061C5.84045 0.500061 4.31283 2.0275 4.31283 3.9055C4.31283 5.02694 4.85795 6.023 5.69664 6.64375C3.45295 7.40687 1.77289 9.40812 1.50783 11.8851C1.49283 12.0263 1.53845 12.1669 1.63283 12.2726C1.72789 12.3782 1.86289 12.4382 2.0047 12.4382ZM29.9909 18.1271L27.9111 18.9281C27.7572 18.9869 27.6422 19.1187 27.6043 19.2788C27.3116 20.5076 26.8273 21.677 26.1631 22.7546C26.0766 22.8952 26.0648 23.0693 26.1322 23.2199L27.0374 25.2586L24.7498 27.5461L22.7097 26.6406C22.5594 26.5739 22.3855 26.5856 22.2449 26.6718C21.1667 27.3357 19.998 27.82 18.7697 28.1124C18.61 28.1507 18.4785 28.2657 18.419 28.4192L17.618 30.5H14.3823L13.5816 28.4201C13.5231 28.2662 13.391 28.1512 13.2312 28.113C12.0024 27.8206 10.833 27.3357 9.75545 26.6718C9.61483 26.5856 9.44039 26.5744 9.28977 26.6406L7.25108 27.5461L4.96358 25.2586L5.86933 23.2187C5.93608 23.0681 5.92402 22.8942 5.83783 22.7536C5.17414 21.6763 4.68995 20.507 4.3972 19.2787C4.35895 19.1187 4.24427 18.9875 4.09039 18.9281L2.00964 18.127V15.0481H8.80608C8.70902 15.5267 8.66045 16.0163 8.66045 16.5093C8.66045 20.5569 11.9529 23.8494 16.0002 23.8494C20.0478 23.8494 23.3403 20.5569 23.3403 16.5093C23.3403 16.0162 23.2915 15.5273 23.1946 15.0481H29.9908V18.1271H29.9909ZM30.491 14.0482C30.7673 14.0482 30.9911 14.2718 30.9911 14.5481V18.4707C30.9911 18.6775 30.864 18.8631 30.6711 18.9369L28.513 19.7674C28.2135 20.9206 27.7566 22.0232 27.1515 23.0519L28.0911 25.1662C28.175 25.3556 28.1335 25.5769 27.9873 25.7231L25.2144 28.4963C25.0679 28.6425 24.8466 28.6837 24.6575 28.5999L22.5424 27.66C21.5131 28.2651 20.4111 28.722 19.2593 29.0212L18.428 31.1802C18.3535 31.3732 18.1688 31.4999 17.9616 31.4999H14.0391C13.8323 31.4999 13.6466 31.3731 13.5731 31.1802L12.7423 29.0221C11.5891 28.7226 10.4868 28.2651 9.45802 27.6606L7.34345 28.5999C7.15427 28.6837 6.93308 28.6426 6.78658 28.4964L4.01364 25.7225C3.86714 25.5763 3.82595 25.3557 3.91039 25.1662L4.8497 23.0508C4.24489 22.0221 3.78802 20.9201 3.48852 19.7681L1.32983 18.9369C1.13652 18.8625 1.00977 18.6775 1.00977 18.4707V14.5481C1.00977 14.2718 1.23364 14.0482 1.50989 14.0482H9.44539C9.60364 14.0482 9.7522 14.123 9.84664 14.2495C9.94108 14.3763 9.96989 14.5401 9.92458 14.6914C9.74927 15.2789 9.66039 15.8902 9.66039 16.5094C9.66039 20.0057 12.504 22.8496 16.0003 22.8496C19.4966 22.8496 22.3405 20.0057 22.3405 16.5094C22.3405 15.8907 22.2516 15.2789 22.076 14.6914C22.031 14.5402 22.0598 14.3763 22.1542 14.2495C22.2483 14.123 22.3972 14.0482 22.5555 14.0482H30.491Z" fill="#5CA0EF"/>
</svg>
