<svg width="66" height="66" viewBox="0 0 66 66" fill="none" xmlns="http://www.w3.org/2000/svg">
<rect width="66" height="66" rx="33" fill="#2AC7C9"/>
<g clip-path="url(#clip0_422_24383)">
<path d="M35.4858 15C26.9884 15 20.0751 21.9133 20.0751 30.4108C20.0751 33.5507 21.0198 36.4738 22.6389 38.9123L16.0464 45.5046C15.4384 46.1126 15.1035 46.9209 15.1035 47.7808C15.1035 48.6408 15.4384 49.4491 16.0464 50.0571C16.6544 50.6651 17.4627 51 18.3227 51C19.1825 51 19.991 50.6651 20.5988 50.0571L27.235 43.4209C29.6221 44.9401 32.4528 45.8212 35.4858 45.8212C43.9833 45.8212 50.8965 38.9081 50.8965 30.4106C50.8965 21.9131 43.9833 15 35.4858 15ZM45.6362 30.4108C45.6362 36.0077 41.0827 40.5611 35.4858 40.5611C29.889 40.5611 25.3355 36.0077 25.3355 30.4108C25.3355 24.8139 29.889 20.2605 35.4858 20.2605C41.0827 20.2605 45.6362 24.8137 45.6362 30.4108ZM40.136 31.7114H35.4858C34.7675 31.7114 34.1852 31.1291 34.1852 30.4108V23.4876C34.1852 22.7693 34.7675 22.187 35.4858 22.187C36.2041 22.187 36.7865 22.7693 36.7865 23.4876V29.11H40.136C40.8543 29.11 41.4367 29.6923 41.4367 30.4106C41.4367 31.1289 40.8543 31.7114 40.136 31.7114Z" fill="white"/>
</g>
<defs>
<clipPath id="clip0_422_24383">
<rect width="36" height="36" fill="white" transform="translate(15 15)"/>
</clipPath>
</defs>
</svg>
