<svg width="66" height="66" viewBox="0 0 66 66" fill="none" xmlns="http://www.w3.org/2000/svg">
<rect width="66" height="66" rx="33" fill="#29A277"/>
<path d="M51.6431 39.431C46.3655 33.6407 36.5037 37.5118 36.549 45.3542C36.5587 47.662 37.4803 49.8724 39.1129 51.5036C40.7455 53.1347 42.9567 54.0544 45.2645 54.0621C52.8087 54.1211 56.7951 44.8362 51.6431 39.431ZM49.1813 42.4146C49.1775 42.607 49.0984 42.7902 48.961 42.9249C48.8236 43.0596 48.6388 43.1351 48.4464 43.135C48.254 43.135 48.0692 43.0596 47.9318 42.9249C47.7944 42.7901 47.7154 42.6069 47.7116 42.4145V41.8414H43.8535L46.8444 44.8323C46.9798 44.9724 47.0561 45.1592 47.0575 45.354C47.056 45.5467 46.9796 45.7312 46.8444 45.8684L43.8535 48.8594H47.7115V48.0069C47.7145 47.8139 47.7932 47.6298 47.9307 47.4944C48.0682 47.359 48.2534 47.2831 48.4464 47.2831C48.6394 47.2831 48.8246 47.359 48.9621 47.4944C49.0996 47.6298 49.1783 47.8139 49.1813 48.0069V49.5942C49.1816 49.6908 49.1628 49.7865 49.126 49.8758C49.0892 49.9652 49.0351 50.0463 48.9668 50.1146C48.8985 50.1829 48.8173 50.237 48.728 50.2738C48.6387 50.3107 48.543 50.3294 48.4464 50.3291H42.0751C41.9311 50.3275 41.7907 50.2836 41.6714 50.2028C41.5522 50.122 41.4593 50.0079 41.4045 49.8747C41.3496 49.7415 41.3352 49.595 41.363 49.4537C41.3908 49.3123 41.4596 49.1823 41.5608 49.0798L45.2865 45.354L41.5607 41.6283C41.4594 41.5252 41.3906 41.3947 41.3627 41.2529C41.3348 41.1111 41.3491 40.9642 41.4039 40.8304C41.4586 40.6967 41.5514 40.5819 41.6707 40.5004C41.7901 40.4188 41.9307 40.3741 42.0752 40.3717H48.4464C48.6411 40.3722 48.8277 40.4498 48.9654 40.5875C49.1031 40.7252 49.1807 40.9118 49.1813 41.1065V42.4146Z" fill="white"/>
<path d="M45.2642 35.1688C48.2929 35.154 48.3167 36.7226 48.3799 32.8979C48.3746 28.7625 46.729 24.7981 43.8042 21.8747C40.8793 18.9512 36.9141 17.3075 32.7788 17.3042C12.0784 18.1588 12.0899 47.6487 32.7789 48.4993C36.6609 48.4236 35.0724 48.4296 35.0787 45.3539C35.0825 42.6538 36.1568 40.0653 38.0661 38.156C39.9755 36.2467 42.564 35.1725 45.2642 35.1688ZM32.7788 33.6329C32.6822 33.6333 32.5864 33.6145 32.4971 33.5777C32.4078 33.5408 32.3267 33.4867 32.2584 33.4184C32.1901 33.3501 32.136 33.269 32.0991 33.1797C32.0623 33.0904 32.0435 32.9946 32.0439 32.8981V20.7581C32.0439 20.5632 32.1213 20.3763 32.2591 20.2385C32.3969 20.1007 32.5839 20.0232 32.7788 20.0232C32.9736 20.0232 33.1606 20.1007 33.2984 20.2385C33.4362 20.3763 33.5136 20.5632 33.5136 20.7581V32.1632H41.3252C41.5201 32.1632 41.7071 32.2406 41.8449 32.3784C41.9827 32.5162 42.0601 32.7032 42.0601 32.8981C42.0601 33.0929 41.9827 33.2799 41.8449 33.4177C41.7071 33.5555 41.5201 33.6329 41.3252 33.6329H32.7788Z" fill="white"/>
<path d="M36.0411 49.653C34.9665 49.8651 33.8736 49.971 32.7783 49.9691C28.2523 49.9642 23.9131 48.164 20.7127 44.9637C17.5124 41.7633 15.7123 37.4241 15.7074 32.8981C16.6456 10.2635 48.9124 10.2654 49.8493 32.8982C49.7126 37.5313 48.7116 35.0192 52.1202 37.8363C55.4337 25.477 45.602 12.7618 32.7782 12.9393C2.92618 14.4286 8.81722 58.244 37.7538 52.2251C37.1336 51.5436 36.6071 50.7824 36.1881 49.9618C36.1367 49.8588 36.0852 49.7559 36.0411 49.653Z" fill="white"/>
</svg>
