<svg width="32" height="32" viewBox="0 0 32 32" fill="none" xmlns="http://www.w3.org/2000/svg">
<path fill-rule="evenodd" clip-rule="evenodd" d="M15.687 4.77464C14.7711 4.62461 14.0712 3.82869 14.0712 2.87064C14.0712 1.91252 14.7711 1.1166 15.687 0.966574C15.789 0.949884 15.8939 0.941162 16.0007 0.941162C17.0656 0.941162 17.9302 1.80573 17.9302 2.87064C17.9302 3.93555 17.0656 4.80011 16.0007 4.80011C15.8939 4.80011 15.789 4.79139 15.687 4.77464ZM3.33841 13.5656C2.42245 13.4156 1.72266 12.6197 1.72266 11.6615C1.72266 10.7035 2.42245 9.90756 3.33841 9.75754C3.44049 9.74079 3.54528 9.73213 3.65213 9.73213C4.71704 9.73213 5.58161 10.5967 5.58161 11.6615C5.58161 12.7264 4.71704 13.591 3.65213 13.591C3.54528 13.591 3.44049 13.5824 3.33841 13.5656ZM28.0355 13.5656C27.1196 13.4156 26.4198 12.6197 26.4198 11.6615C26.4198 10.7035 27.1196 9.90756 28.0355 9.75754C28.1377 9.74079 28.2424 9.73213 28.3492 9.73213C29.4141 9.73213 30.2787 10.5967 30.2787 11.6615C30.2787 12.7264 29.4141 13.591 28.3492 13.591C28.2424 13.591 28.1377 13.5824 28.0355 13.5656ZM15.687 13.5656C14.7711 13.4156 14.0712 12.6197 14.0712 11.6615C14.0712 10.7035 14.7711 9.90756 15.687 9.75754C15.789 9.74079 15.8939 9.73213 16.0007 9.73213C17.0656 9.73213 17.9302 10.5967 17.9302 11.6615C17.9302 12.7264 17.0656 13.591 16.0007 13.591C15.8939 13.591 15.789 13.5824 15.687 13.5656ZM3.33841 22.3566C2.42245 22.2065 1.72266 21.4106 1.72266 20.4525C1.72266 19.4944 2.42245 18.6985 3.33841 18.5484C3.44049 18.5318 3.54528 18.523 3.65213 18.523C4.71704 18.523 5.58161 19.3876 5.58161 20.4525C5.58161 21.5174 4.71704 22.382 3.65213 22.382C3.54528 22.382 3.44049 22.3733 3.33841 22.3566ZM15.687 22.2995C14.7711 22.1494 14.0712 21.3535 14.0712 20.3955C14.0712 19.4374 14.7711 18.6414 15.687 18.4914C15.789 18.4747 15.8939 18.466 16.0007 18.466C17.0656 18.466 17.9302 19.3306 17.9302 20.3955C17.9302 21.4604 17.0656 22.3249 16.0007 22.3249C15.8939 22.3249 15.789 22.3162 15.687 22.2995ZM28.0355 22.3566C27.1196 22.2065 26.4198 21.4106 26.4198 20.4525C26.4198 19.4944 27.1196 18.6985 28.0355 18.5484C28.1377 18.5318 28.2424 18.523 28.3492 18.523C29.4141 18.523 30.2787 19.3876 30.2787 20.4525C30.2787 21.5174 29.4141 22.382 28.3492 22.382C28.2424 22.382 28.1377 22.3733 28.0355 22.3566ZM15.687 31.0334C14.7711 30.8834 14.0712 30.0875 14.0712 29.1293C14.0712 28.1713 14.7711 27.3754 15.687 27.2253C15.789 27.2086 15.8939 27.1999 16.0007 27.1999C17.0656 27.1999 17.9302 28.0644 17.9302 29.1293C17.9302 30.1942 17.0656 31.0588 16.0007 31.0588C15.8939 31.0588 15.789 31.0501 15.687 31.0334Z" fill="#C8DFF9"/>
<path fill-rule="evenodd" clip-rule="evenodd" d="M5.16775 13.5623C4.752 13.8944 4.22506 14.093 3.65214 14.093C2.31021 14.093 1.2207 13.0035 1.2207 11.6615C1.2207 10.3196 2.31021 9.23017 3.65214 9.23017C4.22506 9.23017 4.752 9.42876 5.16775 9.76081L13.749 3.78917C13.6331 3.50569 13.5693 3.19554 13.5693 2.87064C13.5693 1.52871 14.6588 0.439209 16.0007 0.439209C17.3426 0.439209 18.4321 1.52871 18.4321 2.87064C18.4321 3.21744 18.3593 3.54741 18.2282 3.84608L26.785 9.80065C27.2079 9.4447 27.7537 9.23017 28.3492 9.23017C29.6912 9.23017 30.7807 10.3196 30.7807 11.6615C30.7807 13.0035 29.6912 14.093 28.3492 14.093C27.7537 14.093 27.2079 13.8785 26.785 13.5224L23.1428 16.057L26.785 18.5916C27.2079 18.2357 27.7537 18.0211 28.3492 18.0211C29.6912 18.0211 30.7807 19.1106 30.7807 20.4525C30.7807 21.7944 29.6912 22.8839 28.3492 22.8839C27.7537 22.8839 27.2079 22.6694 26.785 22.3134L18.265 28.2424C18.3729 28.5173 18.4321 28.8164 18.4321 29.1293C18.4321 30.4713 17.3426 31.5608 16.0007 31.5608C14.6588 31.5608 13.5693 30.4713 13.5693 29.1293C13.5693 28.8385 13.6205 28.5594 13.7143 28.3008L5.16775 22.3533C4.752 22.6854 4.22506 22.8839 3.65214 22.8839C2.31021 22.8839 1.2207 21.7944 1.2207 20.4525C1.2207 19.1106 2.31021 18.0211 3.65214 18.0211C4.22506 18.0211 4.752 18.2197 5.16775 18.5517L8.75262 16.057L5.16775 13.5623ZM15.5084 22.7769C14.5644 22.5825 13.8194 21.8401 13.6212 20.8974H6.04285C5.9983 21.1379 5.9183 21.366 5.80856 21.5762L14.2456 27.4474C14.5806 27.0978 15.019 26.848 15.5115 26.7473L15.5084 22.7769ZM16.5154 26.7526C16.9767 26.8522 17.3895 27.0828 17.7128 27.4036L26.1652 21.5216C26.0696 21.3267 25.9992 21.1172 25.9585 20.8974H18.3802C18.1833 21.8337 17.4472 22.5723 16.5123 22.7729L16.5154 26.7526ZM15.5017 14.0417C15.0455 13.9463 14.636 13.723 14.3127 13.4109L10.5102 16.057L14.2787 18.6795C14.6078 18.3493 15.0312 18.1131 15.5048 18.0147L15.5017 14.0417ZM16.5087 18.0173C16.9566 18.1126 17.359 18.3315 17.6786 18.6364L21.3852 16.057L17.6437 13.4533C17.3291 13.7419 16.9386 13.9488 16.5057 14.0404L16.5087 18.0173ZM26.1652 19.3834L22.264 16.6686L18.247 19.464C18.3041 19.6012 18.3489 19.7449 18.3802 19.8935H25.9825C26.0245 19.7151 26.0863 19.5443 26.1652 19.3834ZM3.65214 10.2341C2.86425 10.2341 2.22462 10.8737 2.22462 11.6615C2.22462 12.4494 2.86425 13.0891 3.65214 13.0891C4.43997 13.0891 5.07965 12.4494 5.07965 11.6615C5.07965 10.8737 4.43997 10.2341 3.65214 10.2341ZM16.0007 10.2341C15.2128 10.2341 14.5732 10.8737 14.5732 11.6615C14.5732 12.4494 15.2128 13.0891 16.0007 13.0891C16.7886 13.0891 17.4282 12.4494 17.4282 11.6615C17.4282 10.8737 16.7886 10.2341 16.0007 10.2341ZM15.5122 5.25289C15.0517 5.15883 14.6385 4.93439 14.3127 4.61998L5.80856 10.538C5.90964 10.7314 5.98544 10.94 6.03156 11.1596H13.6212C13.8188 10.2199 14.5597 9.47915 15.4996 9.28194L15.5122 5.25289ZM16.5035 9.28232C17.4426 9.48009 18.1827 10.2204 18.3802 11.1596H25.9698C26.0117 10.9606 26.0779 10.7704 26.1652 10.5925L17.6437 4.66239C17.3317 4.94857 16.9449 5.1545 16.5161 5.24724L16.5035 9.28232ZM16.0007 27.7018C15.2128 27.7018 14.5732 28.3415 14.5732 29.1293C14.5732 29.9172 15.2128 30.5569 16.0007 30.5569C16.7886 30.5569 17.4282 29.9172 17.4282 29.1293C17.4282 28.3415 16.7886 27.7018 16.0007 27.7018ZM5.80856 19.3289C5.9008 19.5055 5.97208 19.6948 6.01888 19.8935H13.6212C13.6481 19.7656 13.6851 19.6413 13.7313 19.5216L9.63143 16.6686L5.80856 19.3289ZM28.3492 19.025C27.5614 19.025 26.9217 19.6646 26.9217 20.4525C26.9217 21.2403 27.5614 21.88 28.3492 21.88C29.1371 21.88 29.7768 21.2403 29.7768 20.4525C29.7768 19.6646 29.1371 19.025 28.3492 19.025ZM16.0007 1.44313C15.2128 1.44313 14.5732 2.08275 14.5732 2.87064C14.5732 3.65847 15.2128 4.29816 16.0007 4.29816C16.7886 4.29816 17.4282 3.65847 17.4282 2.87064C17.4282 2.08275 16.7886 1.44313 16.0007 1.44313ZM16.0007 18.968C15.2128 18.968 14.5732 19.6076 14.5732 20.3955C14.5732 21.1833 15.2128 21.823 16.0007 21.823C16.7886 21.823 17.4282 21.1833 17.4282 20.3955C17.4282 19.6076 16.7886 18.968 16.0007 18.968ZM26.1652 12.7307C26.0779 12.5527 26.0117 12.3626 25.9698 12.1635H18.3802C18.3455 12.3281 18.2943 12.4865 18.2282 12.637L22.264 15.4455L26.1652 12.7307ZM6.03156 12.1635C5.98544 12.3831 5.90964 12.5917 5.80856 12.7852L9.63143 15.4455L13.749 12.5801C13.6945 12.4467 13.6515 12.3074 13.6212 12.1635H6.03156ZM28.3492 10.2341C27.5614 10.2341 26.9217 10.8737 26.9217 11.6615C26.9217 12.4494 27.5614 13.0891 28.3492 13.0891C29.1371 13.0891 29.7768 12.4494 29.7768 11.6615C29.7768 10.8737 29.1371 10.2341 28.3492 10.2341ZM3.65214 19.025C2.86425 19.025 2.22462 19.6646 2.22462 20.4525C2.22462 21.2403 2.86425 21.88 3.65214 21.88C4.43997 21.88 5.07965 21.2403 5.07965 20.4525C5.07965 19.6646 4.43997 19.025 3.65214 19.025Z" fill="#5CA0EF"/>
</svg>
