<svg width="436" height="255" viewBox="0 0 436 255" fill="none" xmlns="http://www.w3.org/2000/svg">
<path d="M1 15.5H436" stroke="#E6E7E8"/>
<path d="M1 47.5H436" stroke="#E6E7E8"/>
<path d="M1 79.5H436" stroke="#E6E7E8"/>
<path d="M1 111.5H436" stroke="#E6E7E8"/>
<path d="M1 143.5H436" stroke="#E6E7E8"/>
<path d="M1 175.5H436" stroke="#E6E7E8"/>
<path d="M1 207.5H436" stroke="#E6E7E8"/>
<path d="M1 239.5H436" stroke="#E6E7E8"/>
<path d="M36 255L36 -7.15256e-06" stroke="#E6E7E8"/>
<path d="M68 255L68 -7.15256e-06" stroke="#E6E7E8"/>
<path d="M100 255L100 -7.15256e-06" stroke="#E6E7E8"/>
<path d="M132 255L132 -7.15256e-06" stroke="#E6E7E8"/>
<path d="M164 255L164 -7.15256e-06" stroke="#E6E7E8"/>
<path d="M196 255L196 -7.15256e-06" stroke="#E6E7E8"/>
<path d="M228 255L228 -7.15256e-06" stroke="#E6E7E8"/>
<path d="M260 255L260 -7.15256e-06" stroke="#E6E7E8"/>
<path d="M292 255L292 -7.15256e-06" stroke="#E6E7E8"/>
<path d="M324 255L324 -7.15256e-06" stroke="#E6E7E8"/>
<path d="M356 255L356 -7.15256e-06" stroke="#E6E7E8"/>
<path d="M388 255L388 -7.15256e-06" stroke="#E6E7E8"/>
<path d="M420 255L420 -7.15256e-06" stroke="#E6E7E8"/>
<rect x="0.5" width="435" height="255" fill="url(#paint0_linear_252_28356)"/>
<g clip-path="url(#clip0_252_28356)">
<path d="M281.3 72V85.2H217.5C215.073 85.1927 213.107 83.227 213.1 80.8V76.4C213.093 73.973 211.127 72.0072 208.7 72H153.7C153.7 67.1399 157.64 63.2 162.5 63.2H272.5C277.36 63.2 281.3 67.1399 281.3 72Z" fill="#A4C2F7"/>
<path d="M272.5 63.2H265.9C270.76 63.2 274.7 67.1399 274.7 72V85.2H281.3V72C281.3 67.1399 277.36 63.2 272.5 63.2Z" fill="#7FACFA"/>
<path d="M281.3 85.2V94H153.7V72H208.7C211.127 72.0072 213.093 73.973 213.1 76.4V80.8C213.107 83.227 215.073 85.1928 217.5 85.2H281.3Z" fill="#E8EDFC"/>
<path d="M274.7 85.2H281.3V94H274.7V85.2Z" fill="#CAD9FC"/>
<path d="M281.3 94V177.6C281.3 182.46 277.36 186.4 272.5 186.4H162.5C157.64 186.4 153.7 182.46 153.7 177.6V94H281.3Z" fill="#E8EDFC"/>
<path d="M274.7 94V177.6C274.7 182.46 270.76 186.4 265.9 186.4H272.5C277.36 186.4 281.3 182.46 281.3 177.6V94H274.7Z" fill="#CAD9FC"/>
<path d="M246.1 140.2C246.083 159.519 231.333 175.635 212.091 177.36C192.85 179.085 175.469 165.849 172.016 146.841C168.563 127.833 180.177 109.33 198.796 104.176C217.415 99.0232 236.891 108.922 243.702 127C245.296 131.218 246.108 135.691 246.1 140.2Z" fill="#E8EDFC"/>
<path d="M208.7 102.8C207.585 102.8 206.5 102.866 205.4 102.961C224.683 104.667 239.474 120.811 239.491 140.169C239.509 159.527 224.746 175.697 205.466 177.437C206.536 177.527 207.609 177.6 208.7 177.6C229.356 177.6 246.1 160.855 246.1 140.2C246.1 119.545 229.356 102.8 208.7 102.8Z" fill="#CAD9FC"/>
<path d="M208.7 168.8C224.495 168.8 237.3 155.995 237.3 140.2C237.3 124.405 224.495 111.6 208.7 111.6C192.905 111.6 180.1 124.405 180.1 140.2C180.1 155.995 192.905 168.8 208.7 168.8Z" fill="#E8EDFC"/>
<path d="M208.7 111.6C207.597 111.605 206.495 111.674 205.4 111.807C219.82 113.474 230.7 125.685 230.7 140.2C230.7 154.715 219.82 166.926 205.4 168.593C215.968 169.87 226.37 165.173 232.399 156.401C238.429 147.63 239.089 136.235 234.112 126.827C229.135 117.418 219.344 111.551 208.7 111.6Z" fill="#CAD9FC"/>
<path d="M257.364 188.886C254.774 191.427 250.626 191.427 248.036 188.886L230.062 170.89C233.707 168.367 236.867 165.207 239.39 161.562L257.364 179.558C259.938 182.135 259.938 186.309 257.364 188.886Z" fill="#A4C2F7"/>
<path d="M191.1 107.2C183.092 111.474 176.909 118.51 173.698 127H169.1C166.673 126.993 164.707 125.027 164.7 122.6V111.6C164.707 109.173 166.673 107.207 169.1 107.2H191.1Z" fill="#CAD9FC"/>
<path d="M270.3 111.6V122.6C270.293 125.027 268.327 126.993 265.9 127H243.702C240.492 118.51 234.308 111.474 226.3 107.2H265.9C268.327 107.207 270.293 109.173 270.3 111.6Z" fill="#CAD9FC"/>
<path d="M162.5 186.4H169.1C164.24 186.4 160.3 182.46 160.3 177.6V72C160.3 67.1399 164.24 63.2 169.1 63.2H162.5C157.64 63.2 153.7 67.1399 153.7 72V177.6C153.7 182.46 157.64 186.4 162.5 186.4Z" fill="white"/>
<path d="M151.5 160H155.9V177.6H151.5V160Z" fill="white"/>
<path d="M153.7 171C154.915 171 155.9 170.015 155.9 168.8C155.9 167.585 154.915 166.6 153.7 166.6C152.485 166.6 151.5 167.585 151.5 168.8C151.5 170.015 152.485 171 153.7 171Z" fill="#428DFF"/>
<path d="M272.5 61H162.5C156.428 61.0073 151.507 65.9279 151.5 72V160C151.5 161.215 152.485 162.2 153.7 162.2C154.915 162.2 155.9 161.215 155.9 160V96.2H279.1V177.6C279.1 181.245 276.145 184.2 272.5 184.2H261.5C261.498 181.874 260.573 179.644 258.928 178L242.184 161.245C248.244 151.716 249.895 140.035 246.714 129.2H265.9C269.545 129.2 272.5 126.245 272.5 122.6V111.6C272.5 107.955 269.545 105 265.9 105H226.758C215.434 99.1334 201.966 99.1334 190.642 105H169.1C165.455 105 162.5 107.955 162.5 111.6V122.6C162.5 126.245 165.455 129.2 169.1 129.2H170.686C166.08 144.976 171.717 161.956 184.843 171.845C197.97 181.734 215.846 182.468 229.739 173.688L240.241 184.2H162.5C158.855 184.2 155.9 181.245 155.9 177.6C155.9 176.385 154.915 175.4 153.7 175.4C152.485 175.4 151.5 176.385 151.5 177.6C151.507 183.672 156.428 188.593 162.5 188.6H244.639L246.47 190.433C248.096 192.083 250.319 193.009 252.636 193H252.674C255.012 193.006 257.259 192.088 258.924 190.446C259.461 189.894 259.922 189.273 260.294 188.6H272.5C278.572 188.593 283.493 183.672 283.5 177.6V72C283.493 65.9279 278.572 61.0073 272.5 61ZM265.9 109.4C267.115 109.4 268.1 110.385 268.1 111.6V122.6C268.1 123.815 267.115 124.8 265.9 124.8H245.183C242.624 118.788 238.624 113.499 233.536 109.4H265.9ZM169.1 124.8C167.885 124.8 166.9 123.815 166.9 122.6V111.6C166.9 110.385 167.885 109.4 169.1 109.4H183.864C178.776 113.499 174.776 118.788 172.217 124.8H169.1ZM173.5 140.2C173.5 120.76 189.26 105 208.7 105C228.14 105 243.9 120.76 243.9 140.2C243.9 159.64 228.14 175.4 208.7 175.4C189.269 175.377 173.523 159.631 173.5 140.2ZM252.674 188.6H252.654C251.505 188.609 250.402 188.152 249.596 187.335L247.176 184.915C247.141 184.876 247.105 184.839 247.066 184.805L233.384 171.112C235.682 169.274 237.769 167.188 239.608 164.891L255.813 181.12C256.966 182.285 257.377 183.994 256.878 185.555C256.672 186.23 256.306 186.846 255.811 187.348C254.971 188.162 253.843 188.612 252.674 188.6ZM162.5 65.4H272.5C276.145 65.4 279.1 68.3549 279.1 72V83H217.5C216.285 83 215.3 82.015 215.3 80.8V76.4C215.3 72.7549 212.345 69.8 208.7 69.8H156.305C157.234 67.1724 159.713 65.4116 162.5 65.4ZM155.9 91.8V74.2H208.7C209.915 74.2 210.9 75.185 210.9 76.4V80.8C210.9 84.4451 213.855 87.4 217.5 87.4H279.1V91.8H155.9Z" fill="#428DFF"/>
<path d="M188.9 80.8H164.7C163.485 80.8 162.5 81.785 162.5 83C162.5 84.215 163.485 85.2 164.7 85.2H188.9C190.115 85.2 191.1 84.215 191.1 83C191.1 81.785 190.115 80.8 188.9 80.8Z" fill="#428DFF"/>
<path d="M205.855 79.2446C204.996 78.3858 203.604 78.3858 202.745 79.2446L202.1 79.8892L201.455 79.2446C200.592 78.4109 199.22 78.4228 198.371 79.2714C197.523 80.12 197.511 81.4922 198.345 82.3554L198.989 83L198.345 83.6446C197.773 84.197 197.543 85.0149 197.745 85.7841C197.946 86.5533 198.547 87.154 199.316 87.3553C200.085 87.5567 200.903 87.3273 201.455 86.7554L202.1 86.1108L202.745 86.7554C203.608 87.5891 204.98 87.5772 205.829 86.7286C206.677 85.88 206.689 84.5078 205.855 83.6446L205.211 83L205.855 82.3554C206.714 81.4963 206.714 80.1037 205.855 79.2446Z" fill="#428DFF"/>
<path d="M268.1 76.4C269.315 76.4 270.3 75.415 270.3 74.2C270.3 72.985 269.315 72 268.1 72C266.885 72 265.9 72.985 265.9 74.2C265.9 75.415 266.885 76.4 268.1 76.4Z" fill="#428DFF"/>
<path d="M259.3 76.4C260.515 76.4 261.5 75.415 261.5 74.2C261.5 72.985 260.515 72 259.3 72C258.085 72 257.1 72.985 257.1 74.2C257.1 75.415 258.085 76.4 259.3 76.4Z" fill="#428DFF"/>
<path d="M250.5 76.4C251.715 76.4 252.7 75.415 252.7 74.2C252.7 72.985 251.715 72 250.5 72C249.285 72 248.3 72.985 248.3 74.2C248.3 75.415 249.285 76.4 250.5 76.4Z" fill="#428DFF"/>
<path d="M208.7 109.4C191.69 109.4 177.9 123.19 177.9 140.2C177.9 157.21 191.69 171 208.7 171C225.71 171 239.5 157.21 239.5 140.2C239.482 123.197 225.703 109.418 208.7 109.4ZM208.7 166.6C194.12 166.6 182.3 154.78 182.3 140.2C182.3 125.62 194.12 113.8 208.7 113.8C223.28 113.8 235.1 125.62 235.1 140.2C235.084 154.774 223.274 166.584 208.7 166.6Z" fill="#428DFF"/>
</g>
<defs>
<linearGradient id="paint0_linear_252_28356" x1="217.5" y1="-4.79269e-08" x2="217.5" y2="255" gradientUnits="userSpaceOnUse">
<stop stop-color="white"/>
<stop offset="0.495" stop-color="white" stop-opacity="0"/>
<stop offset="1" stop-color="white"/>
</linearGradient>
<clipPath id="clip0_252_28356">
<rect width="132" height="132" fill="white" transform="translate(151.5 61)"/>
</clipPath>
</defs>
</svg>
