<svg width="66" height="66" viewBox="0 0 66 66" fill="none" xmlns="http://www.w3.org/2000/svg">
<path d="M33 66C51.2254 66 66 51.2254 66 33C66 14.7746 51.2254 0 33 0C14.7746 0 0 14.7746 0 33C0 51.2254 14.7746 66 33 66Z" fill="#FF7171"/>
<path d="M33 39.6C31.8049 39.6 30.6562 39.1375 29.7945 38.3094C28.9329 37.4814 28.425 36.352 28.3774 35.1579L27.7677 19.7613C27.7432 19.139 27.8446 18.5181 28.0659 17.9359C28.2872 17.3537 28.6238 16.8222 29.0554 16.3732C29.4871 15.9242 30.0049 15.567 30.578 15.323C31.151 15.079 31.7674 14.9532 32.3902 14.9531H33.6097C34.2325 14.9532 34.8489 15.079 35.422 15.323C35.995 15.567 36.5129 15.9242 36.9445 16.3732C37.3762 16.8222 37.7128 17.3537 37.934 17.9359C38.1553 18.5181 38.2568 19.139 38.2323 19.7613L37.6226 35.1579C37.5749 36.352 37.0671 37.4814 36.2054 38.3094C35.3437 39.1375 34.195 39.6 33 39.6Z" fill="white"/>
<path d="M37.6187 46.4282C37.6187 43.8773 35.5508 41.8094 33 41.8094C30.4492 41.8094 28.3813 43.8773 28.3813 46.4282C28.3813 48.979 30.4492 51.0469 33 51.0469C35.5508 51.0469 37.6187 48.979 37.6187 46.4282Z" fill="white"/>
</svg>
