<svg width="32" height="32" viewBox="0 0 32 32" fill="none" xmlns="http://www.w3.org/2000/svg">
<path fill-rule="evenodd" clip-rule="evenodd" d="M17.4858 2.32056C18.2214 2.49562 18.9236 2.78669 19.5668 3.18305L20.919 2.58315L22.5122 4.17631L21.9123 5.52853C22.3086 6.17167 22.5997 6.87385 22.7747 7.60947L24.1545 8.14055V10.3946L22.7747 10.9256C22.5997 11.6603 22.3086 12.3624 21.9123 13.0056L22.5122 14.3578L20.919 15.952L19.5668 15.3511C18.9236 15.7474 18.2214 16.0395 17.4858 16.2146L16.9548 17.5933H14.7008L14.1697 16.2136C13.4351 16.0385 12.7329 15.7474 12.0897 15.3511L10.7375 15.952L9.14336 14.3578L9.74421 13.0066C9.34791 12.3624 9.05584 11.6603 8.88078 10.9256L7.50195 10.3946V8.14055L8.88078 7.60947C9.05584 6.87385 9.34791 6.17167 9.74421 5.52853L9.14336 4.17631L10.7375 2.58315L12.0887 3.18305C12.7329 2.78669 13.4351 2.49562 14.1697 2.32056L14.7008 0.940796H16.9548L17.4858 2.32056ZM15.8279 5.33778C13.6583 5.33778 11.899 7.09709 11.899 9.26745C11.899 11.437 13.6583 13.1963 15.8279 13.1963C17.9982 13.1963 19.7575 11.437 19.7575 9.26745C19.7575 7.09709 17.9982 5.33778 15.8279 5.33778Z" fill="#C8DFF9"/>
<path fill-rule="evenodd" clip-rule="evenodd" d="M9.8952 15.8169C9.04682 16.6653 6.97153 18.7406 6.97153 18.7406V23.8188C6.97153 24.0958 6.74658 24.3207 6.46957 24.3207C6.19248 24.3207 5.9676 24.0958 5.9676 23.8188V18.5327C5.9676 18.3996 6.02044 18.2719 6.11462 18.1778L9.18536 15.107L8.79057 14.7122C8.64368 14.5653 8.60246 14.3431 8.68685 14.1533L9.1826 13.0384C8.87126 12.4919 8.62956 11.9077 8.46122 11.3008L7.32277 10.8626C7.12895 10.788 7.00114 10.6018 7.00114 10.3942V8.14148C7.00114 7.93386 7.12895 7.74763 7.32277 7.67303L8.46103 7.23501C8.62944 6.62657 8.8712 6.04329 9.18272 5.4954L8.68685 4.38004C8.60246 4.19024 8.64368 3.96806 8.79057 3.82117L10.383 2.22864C10.5299 2.08175 10.7521 2.04053 10.9419 2.12492L12.0573 2.62086C12.6052 2.30933 13.1882 2.06776 13.7951 1.90079L14.2351 0.760464C14.3098 0.566895 14.4959 0.439209 14.7034 0.439209H16.956C17.1638 0.439209 17.3501 0.567209 17.4246 0.761154L17.8625 1.90092C18.4693 2.06788 19.0522 2.30939 19.5999 2.62086L20.7152 2.12492C20.9051 2.04053 21.1273 2.08175 21.2741 2.22864L22.8666 3.82117C23.0133 3.96787 23.0547 4.18967 22.9706 4.37941L22.4765 5.49496C22.7882 6.0431 23.0299 6.62663 23.1969 7.23526L24.3344 7.67303C24.5282 7.74763 24.656 7.93386 24.656 8.14148V10.3942C24.656 10.6018 24.5282 10.788 24.3344 10.8626L23.1966 11.3005C23.0293 11.9072 22.7866 12.4902 22.4762 13.0378L22.9706 14.154C23.0547 14.3436 23.0133 14.5655 22.8666 14.7122L22.4718 15.107L25.5426 18.1778C25.6367 18.2719 25.6896 18.3996 25.6896 18.5327V23.8188C25.6896 24.0958 25.4647 24.3207 25.1876 24.3207C24.9106 24.3207 24.6857 24.0958 24.6857 23.8188V18.7406L21.762 15.8169L21.2741 16.3047C21.1274 16.4514 20.9056 16.4927 20.7159 16.4087L19.6006 15.9147C19.0539 16.2263 18.4695 16.4678 17.8624 16.6348L17.4245 17.7725C17.3499 17.9663 17.1637 18.0942 16.956 18.0942H16.3305V23.8188C16.3305 24.0958 16.1056 24.3207 15.8286 24.3207C15.5515 24.3207 15.3266 24.0958 15.3266 23.8188V18.0942H14.7034C14.4957 18.0942 14.3095 17.9663 14.235 17.7725L13.7971 16.6349C13.1887 16.4676 12.6053 16.2248 12.0575 15.9143L10.9413 16.4087C10.7516 16.4927 10.5297 16.4514 10.383 16.3047L9.8952 15.8169ZM20.8077 15.3514L21.9133 14.2458L21.4538 13.2085C21.387 13.0577 21.3986 12.8836 21.4848 12.743C21.8518 12.144 22.1241 11.4923 22.2865 10.8089C22.3247 10.6478 22.44 10.516 22.5946 10.4565L23.6521 10.0495V8.48614L22.5946 8.07912C22.4399 8.01963 22.3246 7.88762 22.2864 7.72636C22.1241 7.04137 21.8543 6.39008 21.4855 5.79149C21.3987 5.65063 21.3868 5.47607 21.4538 5.32486L21.9133 4.28762L20.8081 3.18236L19.7711 3.64341C19.6197 3.71074 19.4449 3.69901 19.3038 3.6121C18.7052 3.24322 18.0538 2.97336 17.3708 2.81104C17.2096 2.77276 17.0778 2.65737 17.0183 2.50277L16.6112 1.44313H15.0478L14.6386 2.5034C14.5791 2.65775 14.4473 2.77282 14.2863 2.81104C13.6034 2.97336 12.952 3.24322 12.3534 3.6121C12.2123 3.69901 12.0375 3.71074 11.8861 3.64341L10.8491 3.18236L9.74423 4.28724L10.2053 5.32423C10.2726 5.47557 10.2609 5.65044 10.174 5.79149C9.80491 6.39052 9.53498 7.04232 9.37046 7.72781C9.33187 7.88843 9.2168 8.01982 9.06263 8.07912L8.00506 8.48614V10.0495L9.06263 10.4565C9.21667 10.5158 9.33175 10.647 9.37033 10.8075C9.53485 11.4907 9.80459 12.1445 10.1736 12.7412C10.2609 12.8824 10.2727 13.0575 10.2053 13.2092L9.74423 14.2461L10.8495 15.3514L11.8867 14.8919C12.0376 14.8252 12.2116 14.8367 12.3523 14.9228C12.9513 15.2898 13.6029 15.5621 14.2883 15.7245C14.4495 15.7627 14.5815 15.878 14.641 16.0326L15.0481 17.0903H16.6114L17.0184 16.0326C17.0779 15.8781 17.2098 15.7629 17.3708 15.7246C18.0536 15.5623 18.7068 15.2927 19.3031 14.924C19.4441 14.8368 19.6189 14.8248 19.7704 14.8919L20.8077 15.3514ZM15.8286 4.83563C18.2769 4.83563 20.2619 6.81844 20.2619 9.26669C20.2619 11.7149 18.2767 13.7 15.8286 13.7C13.3803 13.7 11.3975 11.7149 11.3975 9.26669C11.3975 6.81832 13.3802 4.83563 15.8286 4.83563ZM15.8286 5.83955C13.935 5.83955 12.4014 7.37304 12.4014 9.26669C12.4014 11.1604 13.9349 12.6961 15.8286 12.6961C17.7224 12.6961 19.258 11.1605 19.258 9.26669C19.258 7.37298 17.7223 5.83955 15.8286 5.83955ZM16.3305 8.74647V10.9374C16.3305 11.2145 16.1056 11.4394 15.8286 11.4394C15.5515 11.4394 15.3266 11.2145 15.3266 10.9374V8.74647L14.9563 9.09006C14.7532 9.27849 14.4354 9.26663 14.2469 9.06352C14.0585 8.86048 14.0704 8.54261 14.2735 8.35413L15.4872 7.22798C15.6797 7.04934 15.9775 7.04934 16.17 7.22798L17.3837 8.35413C17.5868 8.54261 17.5987 8.86048 17.4102 9.06352C17.2218 9.26663 16.9039 9.27849 16.7008 9.09006L16.3305 8.74647ZM9.47813 26.0455V31.0588C9.47813 31.336 9.25338 31.5608 8.97617 31.5608H3.9629C3.68569 31.5608 3.46094 31.336 3.46094 31.0588V26.0455C3.46094 25.7683 3.68569 25.5436 3.9629 25.5436H8.97617C9.25338 25.5436 9.47813 25.7683 9.47813 26.0455ZM8.47421 26.5475H4.46486V30.5569H8.47421V26.5475ZM16.2633 25.6859L19.2205 30.8078C19.3102 30.9631 19.3102 31.1545 19.2205 31.3098C19.1308 31.4651 18.9651 31.5608 18.7857 31.5608H12.8714C12.6921 31.5608 12.5263 31.4651 12.4367 31.3098C12.347 31.1545 12.347 30.9631 12.4367 30.8078L15.3939 25.6859C15.4835 25.5305 15.6492 25.4349 15.8286 25.4349C16.0079 25.4349 16.1737 25.5305 16.2633 25.6859ZM15.8286 26.9408L13.7408 30.5569H17.9163L15.8286 26.9408ZM25.3583 25.2022C27.113 25.2022 28.5376 26.6268 28.5376 28.3815C28.5376 30.1362 27.113 31.5608 25.3583 31.5608C23.6036 31.5608 22.1791 30.1362 22.1791 28.3815C22.1791 26.6268 23.6036 25.2022 25.3583 25.2022ZM25.3583 26.2061C24.1577 26.2061 23.183 27.1809 23.183 28.3815C23.183 29.5821 24.1577 30.5569 25.3583 30.5569C26.559 30.5569 27.5337 29.5821 27.5337 28.3815C27.5337 27.1809 26.559 26.2061 25.3583 26.2061Z" fill="#5CA0EF"/>
</svg>
