<svg width="32" height="32" viewBox="0 0 32 32" fill="none" xmlns="http://www.w3.org/2000/svg">
<g clip-path="url(#clip0_230_9021)">
<path fill-rule="evenodd" clip-rule="evenodd" d="M11.2416 21.136C13.2452 21.136 14.879 19.5022 14.879 17.4999C14.879 15.4963 13.2452 13.8637 11.2416 13.8637C9.23929 13.8637 7.60547 15.4963 7.60547 17.4999C7.60547 19.5022 9.23929 21.136 11.2416 21.136Z" fill="#C8DFF9"/>
<path fill-rule="evenodd" clip-rule="evenodd" d="M19.3165 7.14618H29.7763C30.1168 7.14618 30.4433 7.01091 30.6841 6.77015C30.9249 6.5294 31.0601 6.20287 31.0601 5.86236V2.74116C31.0601 2.40065 30.9249 2.07412 30.6841 1.83337C30.4433 1.59261 30.1168 1.45734 29.7763 1.45734H14.8775C14.5371 1.45734 14.2105 1.59261 13.9698 1.83337C13.729 2.07412 13.5938 2.40065 13.5938 2.74116V5.86236C13.5938 6.20287 13.729 6.5294 13.9698 6.77015C14.2105 7.01091 14.5371 7.14618 14.8775 7.14618H16.5875C16.5875 7.14618 16.9295 8.42248 17.0868 9.00946C17.1027 9.06907 17.1493 9.11563 17.2089 9.13163C17.2685 9.14763 17.3322 9.13056 17.3758 9.08689C17.9183 8.5444 19.3165 7.14618 19.3165 7.14618Z" fill="#C8DFF9"/>
<path fill-rule="evenodd" clip-rule="evenodd" d="M11.2412 9.44122C17.2075 9.44122 22.043 14.2767 22.043 20.243C22.043 26.2093 17.2075 31.0448 11.2412 31.0448C5.27497 31.0448 0.439453 26.2093 0.439453 20.243C0.439453 14.2767 5.27497 9.44122 11.2412 9.44122ZM18.7105 26.5847C20.1629 24.8758 21.0391 22.6618 21.0391 20.243C21.0391 14.8312 16.653 10.4451 11.2412 10.4451C5.82945 10.4451 1.44337 14.8312 1.44337 20.243C1.44337 22.6618 2.31961 24.8758 3.77197 26.5847C4.41956 23.9547 6.41931 21.8563 8.99092 21.0701C7.8558 20.33 7.10179 19.049 7.10179 17.5998C7.10179 15.3225 8.96381 13.4605 11.2412 13.4605C13.5186 13.4605 15.3806 15.3225 15.3806 17.5998C15.3806 19.049 14.6267 20.33 13.4915 21.0701C16.0632 21.8563 18.0629 23.9547 18.7105 26.5847ZM4.62173 27.4671C6.36523 29.0654 8.68918 30.0409 11.2412 30.0409C13.7933 30.0409 16.1173 29.0654 17.8607 27.4671C17.3941 24.2285 14.6074 21.7393 11.2412 21.7393C7.87512 21.7393 5.08836 24.2285 4.62173 27.4671ZM11.2412 20.7353C12.9663 20.7353 14.3767 19.325 14.3767 17.5998C14.3767 15.8748 12.9663 14.4644 11.2412 14.4644C9.51616 14.4644 8.10571 15.8748 8.10571 17.5998C8.10571 19.325 9.51616 20.7353 11.2412 20.7353ZM19.5234 7.64803L17.5181 9.65336C17.3913 9.78017 17.2065 9.82968 17.0332 9.78325C16.86 9.73688 16.7247 9.60154 16.6783 9.42836L16.2013 7.64803H14.8765C14.4029 7.64803 13.9487 7.45992 13.6138 7.12499C13.2789 6.79012 13.0907 6.3359 13.0907 5.8623V2.74105C13.0907 2.26745 13.2789 1.81324 13.6138 1.4783C13.9487 1.14343 14.4029 0.955261 14.8765 0.955261H29.7753C30.2489 0.955261 30.7031 1.14343 31.038 1.4783C31.3729 1.81324 31.561 2.26745 31.561 2.74105V5.8623C31.561 6.3359 31.3729 6.79012 31.038 7.12499C30.7031 7.45992 30.2489 7.64803 29.7753 7.64803H19.5234ZM19.3155 6.64411H29.7753C29.9826 6.64411 30.1815 6.56179 30.3281 6.41515C30.4747 6.26852 30.5571 6.06968 30.5571 5.8623V2.74105C30.5571 2.53368 30.4747 2.33484 30.3281 2.1882C30.1815 2.04157 29.9826 1.95918 29.7753 1.95918H14.8765C14.6691 1.95918 14.4703 2.04157 14.3236 2.1882C14.1771 2.33484 14.0947 2.53368 14.0947 2.74105V5.8623C14.0947 6.06968 14.1771 6.26852 14.3236 6.41515C14.4703 6.56179 14.6691 6.64411 14.8765 6.64411H16.5865C16.8136 6.64411 17.0125 6.7967 17.0713 7.01619L17.423 8.32869L18.9606 6.79112C19.0547 6.697 19.1824 6.64411 19.3155 6.64411ZM16.8719 3.05647C16.892 2.99366 16.9498 2.95118 17.015 2.95118C17.0801 2.95118 17.1379 2.99366 17.158 3.05647L17.3739 3.72922C17.3941 3.79203 17.4518 3.83451 17.517 3.83451H18.2156C18.2807 3.83451 18.3385 3.87699 18.3586 3.93973C18.3788 4.00254 18.3567 4.07131 18.304 4.11008L17.7388 4.5259C17.6861 4.56467 17.6641 4.63344 17.6842 4.69619L17.9 5.369C17.9202 5.43175 17.8982 5.50052 17.8454 5.53929C17.7927 5.57807 17.7213 5.57807 17.6686 5.53929L17.1034 5.12348C17.0507 5.0847 16.9792 5.0847 16.9265 5.12348L16.3614 5.53929C16.3086 5.57807 16.2372 5.57807 16.1845 5.53929C16.1318 5.50052 16.1097 5.43175 16.1299 5.369L16.3458 4.69619C16.3659 4.63344 16.3438 4.56467 16.2911 4.5259L15.7259 4.11008C15.6732 4.07131 15.6511 4.00254 15.6713 3.93973C15.6914 3.87699 15.7492 3.83451 15.8144 3.83451H16.5129C16.5781 3.83451 16.6358 3.79203 16.656 3.72922L16.8719 3.05647ZM20.4125 3.05647C20.4326 2.99366 20.4904 2.95118 20.5556 2.95118C20.6207 2.95118 20.6785 2.99366 20.6987 3.05647L20.9145 3.72922C20.9346 3.79203 20.9924 3.83451 21.0576 3.83451H21.7562C21.8214 3.83451 21.8791 3.87699 21.8992 3.93973C21.9194 4.00254 21.8973 4.07131 21.8446 4.11008L21.2794 4.5259C21.2267 4.56467 21.2046 4.63344 21.2248 4.69619L21.4407 5.369C21.4608 5.43175 21.4387 5.50052 21.386 5.53929C21.3333 5.57807 21.2619 5.57807 21.2091 5.53929L20.644 5.12348C20.5913 5.0847 20.5199 5.0847 20.4671 5.12348L19.902 5.53929C19.8493 5.57807 19.7779 5.57807 19.7252 5.53929C19.6724 5.50052 19.6504 5.43175 19.6705 5.369L19.8864 4.69619C19.9065 4.63344 19.8844 4.56467 19.8317 4.5259L19.2666 4.11008C19.2138 4.07131 19.1918 4.00254 19.2119 3.93973C19.232 3.87699 19.2898 3.83451 19.355 3.83451H20.0536C20.1187 3.83451 20.1765 3.79203 20.1966 3.72922L20.4125 3.05647ZM23.9531 3.05647C23.9733 2.99366 24.031 2.95118 24.0962 2.95118C24.1614 2.95118 24.2191 2.99366 24.2392 3.05647L24.4551 3.72922C24.4753 3.79203 24.533 3.83451 24.5982 3.83451H25.2968C25.3619 3.83451 25.4197 3.87699 25.4399 3.93973C25.46 4.00254 25.4379 4.07131 25.3852 4.11008L24.8201 4.5259C24.7673 4.56467 24.7453 4.63344 24.7654 4.69619L24.9813 5.369C25.0014 5.43175 24.9793 5.50052 24.9266 5.53929C24.8739 5.57807 24.8025 5.57807 24.7498 5.53929L24.1846 5.12348C24.1319 5.0847 24.0605 5.0847 24.0078 5.12348L23.4426 5.53929C23.3899 5.57807 23.3185 5.57807 23.2657 5.53929C23.213 5.50052 23.191 5.43175 23.2111 5.369L23.427 4.69619C23.4471 4.63344 23.4251 4.56467 23.3723 4.5259L22.8071 4.11008C22.7544 4.07131 22.7323 4.00254 22.7525 3.93973C22.7726 3.87699 22.8304 3.83451 22.8956 3.83451H23.5942C23.6593 3.83451 23.7171 3.79203 23.7372 3.72922L23.9531 3.05647ZM27.4937 3.05647C27.5138 2.99366 27.5716 2.95118 27.6368 2.95118C27.702 2.95118 27.7597 2.99366 27.7799 3.05647L27.9957 3.72922C28.0159 3.79203 28.0737 3.83451 28.1388 3.83451H28.8374C28.9026 3.83451 28.9603 3.87699 28.9804 3.93973C29.0006 4.00254 28.9786 4.07131 28.9258 4.11008L28.3606 4.5259C28.3079 4.56467 28.2859 4.63344 28.306 4.69619L28.5219 5.369C28.542 5.43175 28.52 5.50052 28.4673 5.53929C28.4145 5.57807 28.3431 5.57807 28.2904 5.53929L27.7252 5.12348C27.6725 5.0847 27.6011 5.0847 27.5483 5.12348L26.9832 5.53929C26.9305 5.57807 26.8591 5.57807 26.8064 5.53929C26.7536 5.50052 26.7316 5.43175 26.7517 5.369L26.9676 4.69619C26.9877 4.63344 26.9656 4.56467 26.9129 4.5259L26.3478 4.11008C26.295 4.07131 26.273 4.00254 26.2931 3.93973C26.3133 3.87699 26.371 3.83451 26.4362 3.83451H27.1348C27.1999 3.83451 27.2577 3.79203 27.2779 3.72922L27.4937 3.05647Z" fill="#5CA0EF"/>
</g>
<defs>
<clipPath id="clip0_230_9021">
<rect width="32" height="32" fill="white"/>
</clipPath>
</defs>
</svg>
