<svg width="32" height="32" viewBox="0 0 32 32" fill="none" xmlns="http://www.w3.org/2000/svg">
<path fill-rule="evenodd" clip-rule="evenodd" d="M20.1955 2.63325C20.9373 2.80975 21.6452 3.10327 22.2937 3.5029L23.6572 2.89803L25.2635 4.50437L24.6587 5.86782C25.0583 6.51636 25.3518 7.22431 25.5283 7.96602L26.9195 8.50148V10.7742L25.5283 11.3097C25.3518 12.0504 25.0583 12.7584 24.6587 13.4069L25.2635 14.7703L23.6572 16.3777L22.2937 15.7718C21.6452 16.1714 20.9373 16.466 20.1955 16.6425L19.6601 18.0327H17.3873L16.8519 16.6415C16.1111 16.465 15.4032 16.1714 14.7547 15.7718L13.3912 16.3777L11.7839 14.7703L12.3897 13.4079C11.9901 12.7584 11.6956 12.0504 11.5191 11.3097L10.1289 10.7742V8.50148L11.5191 7.96602C11.6956 7.22431 11.9901 6.51636 12.3897 5.86782L11.7839 4.50437L13.3912 2.89803L14.7537 3.5029C15.4032 3.10327 16.1111 2.80975 16.8519 2.63325L17.3873 1.24207H19.6601L20.1955 2.63325ZM18.5238 5.67551C16.3362 5.67551 14.5623 7.44938 14.5623 9.63774C14.5623 11.8253 16.3362 13.5992 18.5238 13.5992C20.7122 13.5992 22.4861 11.8253 22.4861 9.63774C22.4861 7.44938 20.7122 5.67551 18.5238 5.67551Z" fill="#C8DFF9"/>
<path fill-rule="evenodd" clip-rule="evenodd" d="M22.851 10.1362L27.4145 18.0386C27.5954 18.3529 27.5954 18.7223 27.4145 19.0365C27.2326 19.3497 26.9127 19.5354 26.55 19.5354H17.425C17.0632 19.5354 16.7423 19.3497 16.5615 19.0365C16.3806 18.7223 16.3806 18.3529 16.5615 18.0386L21.1239 10.1362C21.3048 9.82205 21.6257 9.63733 21.9875 9.63733C22.3503 9.63733 22.6701 9.82205 22.851 10.1362Z" fill="#C8DFF9"/>
<path fill-rule="evenodd" clip-rule="evenodd" d="M6.77969 23.0466L10.2449 29.1687C10.4121 29.465 10.3068 29.8441 10.0119 30.0114L8.83227 30.6788C8.53737 30.8461 8.15814 30.7407 7.98967 30.4445L4.5257 24.3224C4.35716 24.0262 4.46251 23.647 4.75873 23.4798L5.93709 22.8122C6.23331 22.6451 6.61247 22.7504 6.77969 23.0466Z" fill="#C8DFF9"/>
<path fill-rule="evenodd" clip-rule="evenodd" d="M10.3667 28.3698L10.6677 28.9016C10.6679 28.902 10.6681 28.9024 10.6684 28.9028C10.9728 29.4443 10.7797 30.1353 10.2413 30.4394L9.04779 31.1159C9.04729 31.1162 9.04679 31.1164 9.04629 31.1167C8.50473 31.4212 7.81379 31.2281 7.50953 30.6894L3.99983 24.4878C3.69256 23.9458 3.88575 23.2541 4.42486 22.9496L5.61978 22.2731L5.62022 22.2729C6.15907 21.9685 6.85033 22.1598 7.15716 22.6985L7.15785 22.6997L7.39433 23.1176L10.4508 21.348C11.4106 20.793 12.3924 20.4361 13.4465 20.7784C14.449 21.1034 16.0854 21.8046 17.7556 22.1065C17.7778 22.1104 17.7996 22.116 17.821 22.1229C18.7062 22.4095 19.2426 23.3054 19.0009 24.2042C18.9807 24.2797 18.9568 24.3521 18.9295 24.4217C19.0482 24.3773 19.1652 24.3217 19.2809 24.2543L23.5366 21.7758C25.1141 20.8567 26.1674 20.9692 26.7627 21.3687C27.2852 21.7191 27.5287 22.3167 27.5131 22.9041C27.4973 23.4983 27.2118 24.0647 26.7458 24.3516L19.0238 29.1061C18.1923 29.6192 17.2815 29.74 16.338 29.4883L16.3374 29.4881L10.9366 28.0407L10.3667 28.3698ZM9.79339 29.395L6.28469 23.1952L6.28425 23.1945C6.24986 23.1351 6.17363 23.1133 6.11396 23.147L4.91948 23.8232L4.91904 23.8234C4.85975 23.8569 4.83942 23.9332 4.87324 23.9928L4.87336 23.993L8.3832 30.1949L8.38345 30.1953C8.41714 30.255 8.49394 30.2753 8.55399 30.2418L9.74627 29.566L9.7469 29.5656C9.8067 29.5319 9.82702 29.4551 9.79339 29.395ZM9.87226 27.496L10.6147 27.0673C10.73 27.0007 10.867 26.9827 10.9957 27.0172L16.5968 28.5183C17.264 28.6962 17.9085 28.6146 18.4965 28.2517L18.497 28.2514L26.2194 23.4969C26.4139 23.377 26.503 23.1255 26.5096 22.8774C26.5292 22.138 25.7844 21.6281 24.0419 22.6433L19.7863 25.1217C19.0875 25.529 18.3552 25.6421 17.557 25.515C17.5564 25.515 17.5558 25.5149 17.5553 25.5148L17.0278 25.429C17.0275 25.4289 15.1521 24.937 14.1621 24.671C13.8945 24.5991 13.7357 24.3235 13.8076 24.056C13.8795 23.7884 14.1551 23.6296 14.4227 23.7015C15.3852 23.9602 16.253 24.244 17.1873 24.4373C17.6158 24.4835 17.9327 24.3113 18.0313 23.9438L18.0314 23.9435C18.1308 23.5739 17.8977 23.2175 17.5397 23.0876C15.8324 22.7732 14.1617 22.0656 13.1367 21.7333L13.1365 21.7332C12.3635 21.4822 11.6572 21.81 10.9535 22.217L7.88883 23.9914L9.87226 27.496ZM5.90552 23.8083C6.17639 23.768 6.42793 23.9551 6.46828 24.226C6.50693 24.4968 6.31989 24.75 6.04902 24.7887C5.77815 24.829 5.5266 24.6403 5.48632 24.3694C5.44761 24.0986 5.63465 23.847 5.90552 23.8083ZM26.0423 11.6858C25.9628 11.9432 25.6924 12.0931 25.4305 12.0216C25.1633 11.9486 25.0056 11.6724 25.0785 11.4052C25.0977 11.3352 25.1156 11.2648 25.1324 11.1941C25.1707 11.033 25.286 10.9012 25.4404 10.8417L26.5099 10.4301V8.8475L25.4404 8.4359C25.2858 8.37641 25.1705 8.2444 25.1323 8.08321C24.9685 7.39182 24.6963 6.73456 24.324 6.13045C24.2372 5.98959 24.2254 5.81503 24.2924 5.66382L24.757 4.61497L23.6381 3.4961L22.5896 3.9623C22.4382 4.02962 22.2633 4.01789 22.1223 3.93099C21.5181 3.55872 20.8607 3.28641 20.1715 3.12258C20.0103 3.08424 19.8784 2.96892 19.819 2.81425L19.4073 1.74281H17.8246L17.4108 2.81494C17.3513 2.96923 17.2195 3.0843 17.0586 3.12258C16.3693 3.28641 15.712 3.55872 15.1078 3.93099C14.9668 4.01789 14.7919 4.02962 14.6405 3.9623L13.592 3.4961L12.4735 4.61459L12.9397 5.66319C13.007 5.81453 12.9953 5.9894 12.9084 6.13045C12.5359 6.735 12.2634 7.39276 12.0974 8.08459C12.0589 8.24521 11.9437 8.3766 11.7896 8.4359L10.7202 8.8475V10.4301L11.7896 10.8417C11.9437 10.901 12.0587 11.0322 12.0973 11.1927C12.2633 11.8822 12.5355 12.542 12.9079 13.1442C12.9952 13.2853 13.0071 13.4605 12.9397 13.6122L12.4735 14.6607L13.5924 15.7796L14.6412 15.315C14.792 15.2482 14.966 15.2598 15.1067 15.346C15.4071 15.53 15.7207 15.6905 16.0449 15.8255C16.3007 15.932 16.4219 16.2261 16.3154 16.4819C16.2089 16.7376 15.9148 16.8588 15.6591 16.7523C15.3687 16.6314 15.0859 16.4928 14.8119 16.3374L13.6842 16.837C13.4945 16.921 13.2726 16.8796 13.1259 16.7329L11.5198 15.1268C11.3729 14.9799 11.3317 14.7577 11.416 14.5679C11.416 14.5679 11.9169 13.4413 11.9169 13.4414C11.6022 12.8894 11.3581 12.2991 11.1882 11.6859L10.0379 11.2432C9.84415 11.1686 9.71628 10.9825 9.71628 10.7748V8.50285C9.71628 8.29516 9.84415 8.10893 10.0379 8.03439L11.188 7.59179C11.3579 6.97707 11.6021 6.38777 11.9171 5.8343L11.416 4.70739C11.3317 4.51759 11.3729 4.29541 11.5198 4.14852L13.1259 2.54237C13.2728 2.39549 13.495 2.35426 13.6848 2.43866L14.8117 2.93974C15.3651 2.62482 15.9542 2.38074 16.5674 2.21221L17.0119 1.06015C17.0866 0.866578 17.2727 0.738892 17.4802 0.738892H19.7522C19.9599 0.738892 20.1462 0.866892 20.2207 1.06084L20.6632 2.21233C21.2762 2.38087 21.8651 2.62488 22.4184 2.93974L23.5453 2.43866C23.7351 2.35426 23.9573 2.39549 24.1042 2.54237L25.7103 4.14852C25.857 4.29522 25.8984 4.51709 25.8143 4.70677L25.315 5.83392C25.6301 6.38758 25.8743 6.97714 26.0429 7.59204L27.1922 8.03439C27.3859 8.10893 27.5138 8.29516 27.5138 8.50285V10.7748C27.5138 10.9825 27.3859 11.1686 27.1922 11.2432L26.0423 11.6858ZM22.7213 7.8769C22.8306 8.13146 22.7127 8.42692 22.4582 8.53629C22.2037 8.64565 21.9082 8.52775 21.7988 8.2732C21.269 7.03994 20.0428 6.17688 18.615 6.17688C16.7028 6.17688 15.1543 7.72543 15.1543 9.63765C15.1543 11.2104 16.2014 12.5387 17.637 12.9608C17.9028 13.0389 18.0552 13.3182 17.977 13.5839C17.8989 13.8497 17.6197 14.0021 17.3539 13.9239C15.5018 13.3794 14.1503 11.6665 14.1503 9.63765C14.1503 7.1707 16.1481 5.17296 18.615 5.17296C20.4565 5.17296 22.0378 6.28631 22.7213 7.8769ZM23.3771 9.88556L23.3775 9.88612L27.9407 17.7882L27.9409 17.7886C28.2126 18.2605 28.2126 18.8153 27.9404 19.288L27.94 19.2889C27.6668 19.7593 27.1861 20.0377 26.6414 20.0377H17.5164C16.9726 20.0377 16.4901 19.7588 16.2181 19.2875L16.2179 19.2873C15.9461 18.8153 15.9461 18.2605 16.218 17.7883L20.7803 9.88612C21.0524 9.41359 21.5348 9.13569 22.0789 9.13569C22.6242 9.13569 23.105 9.4134 23.3771 9.88556ZM22.5074 10.387C22.4177 10.2312 22.2589 10.1396 22.0789 10.1396C21.8994 10.1396 21.7401 10.2312 21.6502 10.3873L17.0878 18.2895C16.9978 18.4459 16.9978 18.6297 17.0877 18.7861C17.1776 18.9415 17.3368 19.0337 17.5164 19.0337H26.6414C26.8218 19.0337 26.9807 18.9411 27.0713 18.7856C27.1609 18.6293 27.1608 18.4457 27.0709 18.2895L22.5076 10.3873L22.5074 10.387ZM22.0789 16.3467C21.795 16.3467 21.5629 16.1225 21.5528 15.8386L21.4187 12.15C21.4142 12.0013 21.4637 11.8717 21.5663 11.7647C21.6699 11.6577 21.7972 11.6036 21.9459 11.6036H22.2118C22.3605 11.6036 22.489 11.6577 22.5915 11.7647C22.6952 11.8717 22.7447 12.0013 22.7391 12.15L22.6062 15.8386C22.596 16.1225 22.3628 16.3467 22.0789 16.3467ZM22.0789 18.4029C21.7071 18.4029 21.4041 18.0998 21.4041 17.728C21.4041 17.3562 21.7071 17.0532 22.0789 17.0532C22.4507 17.0532 22.7538 17.3562 22.7538 17.728C22.7538 18.0998 22.4507 18.4029 22.0789 18.4029Z" fill="#5CA0EF"/>
</svg>
