<svg width="32" height="32" viewBox="0 0 32 32" fill="none" xmlns="http://www.w3.org/2000/svg">
<g clip-path="url(#clip0_230_9041)">
<path fill-rule="evenodd" clip-rule="evenodd" d="M5.54686 29.1834C3.81805 27.1871 1.08594 24.327 1.08594 21.9076C1.08594 19.2845 3.21212 17.1583 5.83524 17.1583C8.45836 17.1583 10.5845 19.2845 10.5845 21.9076C10.5845 23.9531 8.63223 26.3135 6.98354 28.2007C9.07684 28.3595 10.6297 28.9423 10.6297 29.6376C10.6297 30.455 8.48308 31.1171 5.83524 31.1171C5.74658 31.1171 5.65792 31.1163 5.57002 31.1155C8.09463 31.073 10.0993 30.4272 10.0993 29.6376C10.0993 28.9981 8.78445 28.4529 6.94344 28.2466C6.62984 28.6052 6.32798 28.9463 6.05347 29.2645C5.93902 29.3986 5.73221 29.3986 5.61695 29.2645C5.59411 29.2383 5.57039 29.2114 5.54667 29.1836L5.54686 29.1834ZM5.83524 24.8585C7.40148 24.8585 8.67891 23.581 8.67891 22.0147C8.67891 20.4485 7.40148 19.171 5.83524 19.171C4.269 19.171 2.99151 20.4485 2.99151 22.0147C2.99151 23.581 4.269 24.8585 5.83524 24.8585ZM27.4 9.38414C26.1778 7.97276 24.2463 5.9508 24.2463 4.24043C24.2463 2.386 25.7494 0.882874 27.6039 0.882874C29.4583 0.882874 30.9615 2.386 30.9615 4.24043C30.9615 5.97414 28.9776 8.02797 27.7582 9.44149C27.6773 9.53624 27.5311 9.53624 27.4496 9.44149C27.4334 9.42298 27.4167 9.40391 27.3999 9.38427L27.4 9.38414ZM27.6087 5.97884C28.6064 5.97884 29.4202 5.16504 29.4202 4.16739C29.4202 3.16968 28.6064 2.35594 27.6087 2.35594C26.611 2.35594 25.7973 3.16968 25.7973 4.16739C25.7973 5.16504 26.611 5.97884 27.6087 5.97884ZM15.1442 15.1402C15.4144 15.4493 15.6745 15.7432 15.9108 16.0173C16.0094 16.1319 16.1862 16.1319 16.2841 16.0173C16.5204 15.7432 16.7806 15.4493 17.0509 15.1402C18.7854 15.2765 20.0783 15.776 20.0783 16.3684C20.0783 17.0651 18.2897 17.6333 16.0974 17.6333C13.9052 17.6333 12.1172 17.0651 12.1172 16.3684C12.1172 15.776 13.4097 15.2765 15.1442 15.1402ZM16.0974 12.0102C14.8231 12.0102 13.7837 10.9708 13.7837 9.69643C13.7837 8.42214 14.8231 7.38276 16.0974 7.38276C17.3717 7.38276 18.4111 8.42214 18.4111 9.69643C18.4111 10.9708 17.3717 12.0102 16.0974 12.0102Z" fill="#C8DFF9"/>
<path fill-rule="evenodd" clip-rule="evenodd" d="M3.73338 27.9785C3.07431 27.2017 2.40927 26.368 1.86665 25.5229C1.10762 24.3409 0.591797 23.1307 0.591797 22.0133C0.591797 19.0893 2.96337 16.7177 5.88742 16.7177C8.81235 16.7177 11.183 19.0893 11.183 22.0133C11.183 23.1306 10.6673 24.3409 9.90838 25.5229C9.36582 26.368 8.70085 27.2017 8.04177 27.9785C8.37495 28.0253 8.68842 28.0826 8.97755 28.1486L14.6988 17.9834C13.6929 17.8734 12.8632 17.6549 12.3739 17.3875C11.8783 17.1167 11.6674 16.7542 11.6674 16.4289C11.6674 16.1244 11.8445 15.7935 12.2659 15.5332C12.7069 15.2607 13.4882 15.0298 14.4555 14.9032C13.855 14.2033 13.2357 13.4417 12.7394 12.6688C12.0995 11.6722 11.6674 10.6508 11.6674 9.70872C11.6674 7.23386 13.6747 5.22659 16.1496 5.22659C18.6252 5.22659 20.6316 7.23386 20.6316 9.70872C20.6316 10.6508 20.1996 11.6721 19.5598 12.6687C19.0664 13.4373 18.4514 14.1946 17.8542 14.8912L24.8393 10.9503C24.6815 10.8945 24.5432 10.8344 24.4275 10.7712C23.9799 10.5267 23.7965 10.1942 23.7965 9.90053C23.7965 9.62225 23.9547 9.31512 24.3444 9.07794C24.703 8.85959 25.322 8.67198 26.088 8.56306C25.601 7.99339 25.1022 7.37611 24.7002 6.74997C24.159 5.90737 23.7965 5.04274 23.7965 4.24626C23.7965 2.14436 25.5013 0.439636 27.6032 0.439636C29.7057 0.439636 31.4098 2.14436 31.4098 4.24626C31.4098 5.04274 31.0474 5.90737 30.5064 6.74997C30.1044 7.37611 29.6056 7.99339 29.1185 8.56312C29.8845 8.67204 30.5033 8.85959 30.862 9.07794C31.2516 9.31512 31.4098 9.62225 31.4098 9.90053C31.4098 10.1942 31.2264 10.5267 30.7789 10.7712C30.1819 11.0973 28.9834 11.3402 27.6032 11.3402C27.151 11.3402 26.7183 11.3141 26.3199 11.2676L19.3163 15.2189C19.6069 15.3135 19.8496 15.4197 20.0332 15.5332C20.4546 15.7935 20.6316 16.1245 20.6316 16.4289C20.6316 16.7542 20.4208 17.1167 19.9251 17.3875C19.2155 17.7752 17.7902 18.0603 16.1496 18.0603C16.0352 18.0603 15.9219 18.0589 15.8099 18.0562L9.96397 28.4428C10.2016 28.5353 10.4034 28.6351 10.5636 28.7399C10.9959 29.0229 11.183 29.3708 11.183 29.698C11.183 30.0613 10.9391 30.4602 10.3855 30.7626C9.54019 31.2244 7.84168 31.5603 5.88742 31.5603C3.93316 31.5603 2.23459 31.2244 1.38929 30.7626C0.835687 30.4602 0.591797 30.0613 0.591797 29.698C0.591797 29.3708 0.778966 29.0229 1.21128 28.7399C1.70872 28.4144 2.60861 28.1363 3.73338 27.9785ZM7.24723 28.8973C6.89636 29.298 6.56344 29.6755 6.27029 30.022C6.17498 30.1346 6.03493 30.1996 5.88736 30.1996C5.73978 30.1996 5.59967 30.1346 5.50442 30.0219C5.2114 29.6754 4.8786 29.2979 4.52786 28.8972C3.45818 28.9899 2.55528 29.1865 1.989 29.4538C1.85969 29.5148 1.75108 29.5779 1.66882 29.6463C1.65244 29.6599 1.63374 29.6797 1.61856 29.6967C1.64667 29.7258 1.69053 29.7688 1.72987 29.7962C1.85197 29.8816 2.01166 29.9597 2.20127 30.033C3.03384 30.3551 4.37765 30.5573 5.88742 30.5573C7.39719 30.5573 8.74094 30.3551 9.57351 30.033C9.76312 29.9597 9.92281 29.8816 10.0449 29.7962C10.0843 29.7688 10.1282 29.7258 10.1562 29.6967C10.141 29.6797 10.1223 29.6599 10.106 29.6463C10.0238 29.5779 9.91515 29.5148 9.78584 29.4538C9.21962 29.1865 8.31685 28.99 7.24723 28.8973ZM15.2634 15.8306C14.3167 15.8939 13.5079 16.0546 12.9973 16.281C12.9104 16.3195 12.8174 16.3797 12.7504 16.4268C12.8416 16.4875 12.9855 16.5758 13.1196 16.6277C13.804 16.8923 14.9086 17.0572 16.1496 17.0572C17.3905 17.0572 18.4951 16.8923 19.1795 16.6277C19.3136 16.5758 19.4574 16.4875 19.5487 16.4268C19.4817 16.3797 19.3887 16.3195 19.3019 16.281C18.7912 16.0546 17.9825 15.894 17.0359 15.8306C16.8577 16.0342 16.6884 16.2291 16.5324 16.4133C16.4371 16.526 16.2971 16.591 16.1495 16.591C16.0019 16.591 15.8618 16.5259 15.7666 16.4132C15.6108 16.229 15.4414 16.0342 15.2634 15.8306ZM26.8925 9.48735C26.117 9.53761 25.453 9.66674 25.0308 9.8509C25.0008 9.86401 24.9688 9.88089 24.9378 9.89858C24.9939 9.93021 25.0576 9.96277 25.1181 9.98618C25.6794 10.2033 26.5855 10.3371 27.6032 10.3371C28.6209 10.3371 29.527 10.2033 30.0883 9.98618C30.1488 9.96277 30.2125 9.93021 30.2685 9.89858C30.2376 9.88089 30.2056 9.86401 30.1755 9.8509C29.7534 9.66674 29.0894 9.53761 28.314 9.48735C28.1989 9.61931 28.089 9.74649 27.9861 9.86815C27.8908 9.98078 27.7507 10.0458 27.6031 10.0458C27.4555 10.0457 27.3155 9.98072 27.2202 9.86803C27.1173 9.74643 27.0075 9.61931 26.8925 9.48735ZM16.1496 15.3213C16.9554 14.399 17.9772 13.2771 18.7157 12.1268C19.241 11.3086 19.6285 10.4822 19.6285 9.70872C19.6285 7.78771 18.0711 6.22969 16.1496 6.22969C14.2286 6.22969 12.6705 7.78771 12.6705 9.70872C12.6705 10.4822 13.0581 11.3086 13.5835 12.1268C14.3222 13.277 15.344 14.399 16.1496 15.3213ZM16.1496 12.6783C14.5141 12.6783 13.1807 11.3442 13.1807 9.70872C13.1807 8.0732 14.5141 6.73987 16.1496 6.73987C17.785 6.73987 19.1191 8.07327 19.1191 9.70872C19.1191 11.3441 17.785 12.6783 16.1496 12.6783ZM16.1496 11.6751C17.2325 11.6751 18.116 10.7917 18.116 9.70872C18.116 8.62574 17.2325 7.74291 16.1496 7.74291C15.0667 7.74291 14.1838 8.6258 14.1838 9.70872C14.1838 10.7916 15.0666 11.6751 16.1496 11.6751ZM5.88748 28.9289C6.8717 27.7985 8.14831 26.4077 9.06433 24.981C9.70866 23.9773 10.1799 22.9621 10.1799 22.0133C10.1799 19.6432 8.25831 17.7208 5.88742 17.7208C3.51722 17.7208 1.5949 19.6432 1.5949 22.0133C1.5949 22.9621 2.06624 23.9773 2.7107 24.9809C3.62684 26.4076 4.90351 27.7985 5.88748 28.9289ZM5.88742 25.4873C3.97413 25.4873 2.41429 23.9266 2.41429 22.0133C2.41429 20.1001 3.97413 18.5402 5.88742 18.5402C7.80064 18.5402 9.3613 20.1001 9.3613 22.0133C9.3613 23.9265 7.80058 25.4873 5.88742 25.4873ZM5.88742 24.4842C7.24817 24.4842 8.35826 23.3741 8.35826 22.0133C8.35826 20.6526 7.24811 19.5433 5.88742 19.5433C4.52673 19.5433 3.4174 20.6527 3.4174 22.0133C3.4174 23.374 4.52667 24.4842 5.88742 24.4842ZM27.6032 8.77727C28.2596 8.0284 29.0708 7.12933 29.6623 6.20804C30.0888 5.54382 30.4067 4.87415 30.4067 4.24626C30.4067 2.69821 29.1517 1.44268 27.6032 1.44268C26.0551 1.44268 24.7996 2.69821 24.7996 4.24626C24.7996 4.87415 25.1177 5.54376 25.5442 6.20798C26.1358 7.12927 26.9471 8.02834 27.6032 8.77727ZM27.6029 6.43029C26.3544 6.43029 25.3364 5.41181 25.3364 4.16318C25.3364 2.91462 26.3543 1.89664 27.6029 1.89664C28.8515 1.89664 29.87 2.91462 29.87 4.16318C29.87 5.41175 28.8515 6.43029 27.6029 6.43029ZM27.6029 5.42718C28.299 5.42718 28.8669 4.85934 28.8669 4.16318C28.8669 3.46715 28.299 2.89975 27.6029 2.89975C26.9069 2.89975 26.3394 3.46715 26.3394 4.16318C26.3394 4.85927 26.9068 5.42718 27.6029 5.42718Z" fill="#5CA0EF"/>
</g>
<defs>
<clipPath id="clip0_230_9041">
<rect width="32" height="32" fill="white"/>
</clipPath>
</defs>
</svg>
