<svg width="32" height="32" viewBox="0 0 32 32" fill="none" xmlns="http://www.w3.org/2000/svg">
<path fill-rule="evenodd" clip-rule="evenodd" d="M29.1431 17.7846H2.23035V16.1678C2.23035 15.8906 2.4551 15.6659 2.73231 15.6659H4.10147V2.2642C4.10147 1.98769 4.32597 1.76318 4.60255 1.76318H5.60459C5.88111 1.76318 6.10561 1.98769 6.10561 2.2642V15.6659H25.8953V2.2642C25.8953 1.98769 26.1198 1.76318 26.3963 1.76318H27.3984C27.6749 1.76318 27.8994 1.98769 27.8994 2.2642V15.6659H29.2686C29.5458 15.6659 29.7706 15.8906 29.7706 16.1678V21.6114C29.7706 22.4329 29.4442 23.2208 28.8633 23.8016C28.2824 24.3826 27.4945 24.7089 26.673 24.7089H26.0456C26.8671 24.7089 27.6549 24.3826 28.2358 23.8016C28.8168 23.2208 29.1431 22.4329 29.1431 21.6114V17.7846ZM17.3168 27.7797H19.3506C19.5238 27.7797 19.6643 27.9201 19.6643 28.0934V30.0987C19.6643 30.2719 19.5238 30.4124 19.3506 30.4124H12.6503C12.4771 30.4124 12.3366 30.2719 12.3366 30.0987V28.0934C12.3366 27.9201 12.4771 27.7797 12.6503 27.7797H14.6841V24.7089H17.3168V27.7797ZM2.78514 27.682C3.51167 27.682 4.10147 28.2719 4.10147 28.9984C4.10147 29.7249 3.51167 30.3147 2.78514 30.3147C2.05862 30.3147 1.46875 29.7249 1.46875 28.9984C1.46875 28.2719 2.05862 27.682 2.78514 27.682ZM29.2158 27.7797C29.9423 27.7797 30.5322 28.3695 30.5322 29.096C30.5322 29.8225 29.9423 30.4124 29.2158 30.4124C28.4892 30.4124 27.8994 29.8225 27.8994 29.096C27.8994 28.3695 28.4892 27.7797 29.2158 27.7797ZM16.0847 11.8098C16.8136 11.822 17.4145 12.4229 17.4267 13.1518C17.4389 13.8808 16.8579 14.4619 16.1289 14.4496C15.3999 14.4374 14.7991 13.8365 14.7868 13.1076C14.7747 12.3786 15.3557 11.7976 16.0847 11.8098Z" fill="#C8DFF9"/>
<path fill-rule="evenodd" clip-rule="evenodd" d="M4.50211 29.6276C4.25414 30.337 3.57862 30.8463 2.78515 30.8463C1.7816 30.8463 0.966797 30.0316 0.966797 29.028C0.966797 28.0244 1.7816 27.2097 2.78515 27.2097C3.64978 27.2097 4.37423 27.8144 4.55826 28.6237H11.8346V27.8093C11.8346 27.5321 12.0594 27.3073 12.3366 27.3073H14.1821V25.2405H5.3279C4.37329 25.2405 3.45771 24.8613 2.7827 24.1863C2.10763 23.5112 1.7284 22.5957 1.7284 21.641V15.6955C1.7284 15.4183 1.95315 15.1936 2.23036 15.1936H3.59952V2.07225C3.59952 1.51871 4.04896 1.06927 4.60256 1.06927H5.6046C6.15814 1.06927 6.60758 1.51871 6.60758 2.07225V15.1936H25.3933V2.05907C25.3933 1.50547 25.8428 1.05609 26.3963 1.05609H27.3984C27.952 1.05609 28.4014 1.50547 28.4014 2.05907V15.1936H29.7706C30.0478 15.1936 30.2725 15.4183 30.2725 15.6955V21.641C30.2725 22.5957 29.8933 23.5112 29.2182 24.1863C28.5432 24.8613 27.6276 25.2405 26.673 25.2405H17.8188V27.3073H19.6643C19.9415 27.3073 20.1663 27.5321 20.1663 27.8093V28.6237H27.4678C27.6858 27.8639 28.3863 27.3073 29.2158 27.3073C30.2193 27.3073 31.0341 28.1221 31.0341 29.1257C31.0341 30.1292 30.2193 30.944 29.2158 30.944C28.3863 30.944 27.6858 30.3874 27.4678 29.6276H20.1663V30.442C20.1663 30.7193 19.9415 30.944 19.6643 30.944H12.3366C12.0594 30.944 11.8346 30.7193 11.8346 30.442V29.6276H4.50211ZM29.2686 16.1975H2.73232V17.3122H29.2686V16.1975ZM15.186 27.3073H16.8149V25.2405H15.186V27.3073ZM2.78515 28.2136C2.33564 28.2136 1.97072 28.5785 1.97072 29.028C1.97072 29.4775 2.33564 29.8424 2.78515 29.8424C3.23459 29.8424 3.59952 29.4775 3.59952 29.028C3.59952 28.5785 3.23459 28.2136 2.78515 28.2136ZM2.73232 18.3161V21.641C2.73232 22.3294 3.00582 22.9896 3.49254 23.4764C3.97931 23.9631 4.63952 24.2366 5.3279 24.2366H26.673C27.3614 24.2366 28.0216 23.9631 28.5084 23.4764C28.9951 22.9896 29.2686 22.3294 29.2686 21.641V18.3161H2.73232ZM11.6719 21.2487C11.3948 21.2487 11.1699 21.0238 11.1699 20.7467C11.1699 20.4697 11.3948 20.2447 11.6719 20.2447H13.7107C13.9878 20.2447 14.2127 20.4697 14.2127 20.7467C14.2127 21.0238 13.9878 21.2487 13.7107 21.2487H11.6719ZM7.92818 21.2487C7.6511 21.2487 7.42622 21.0238 7.42622 20.7467C7.42622 20.4697 7.6511 20.2447 7.92818 20.2447H9.96695C10.244 20.2447 10.4689 20.4697 10.4689 20.7467C10.4689 21.0238 10.244 21.2487 9.96695 21.2487H7.92818ZM15.4156 21.2487C15.1386 21.2487 14.9137 21.0238 14.9137 20.7467C14.9137 20.4697 15.1386 20.2447 15.4156 20.2447H17.4545C17.7315 20.2447 17.9564 20.4697 17.9564 20.7467C17.9564 21.0238 17.7315 21.2487 17.4545 21.2487H15.4156ZM4.18443 21.2487C3.90735 21.2487 3.68247 21.0238 3.68247 20.7467C3.68247 20.4697 3.90735 20.2447 4.18443 20.2447H6.22327C6.50029 20.2447 6.72523 20.4697 6.72523 20.7467C6.72523 21.0238 6.50029 21.2487 6.22327 21.2487H4.18443ZM19.1624 29.94V28.3112H12.8385V29.94H19.1624ZM29.2158 28.3112C28.7663 28.3112 28.4014 28.6762 28.4014 29.1257C28.4014 29.5751 28.7663 29.94 29.2158 29.94C29.6653 29.94 30.0302 29.5751 30.0302 29.1257C30.0302 28.6762 29.6653 28.3112 29.2158 28.3112ZM4.60344 15.1936H5.60366V2.07319H4.60344V15.1936ZM26.3973 15.1936H27.3975V2.06001H26.3973V15.1936ZM13.6124 11.1094C13.4258 11.3142 13.1081 11.329 12.9032 11.1425C12.6984 10.9559 12.6836 10.6382 12.8702 10.4333C13.676 9.5487 14.8019 9.01455 16.0545 9.03557C17.2975 9.05634 18.4343 9.62193 19.2638 10.5271C19.4509 10.7313 19.4371 11.0491 19.2328 11.2363C19.0286 11.4235 18.7108 11.4096 18.5236 11.2054C17.8801 10.5031 17.0021 10.0555 16.0377 10.0394C15.0829 10.0233 14.2266 10.435 13.6124 11.1094ZM21.0575 8.55777C21.2447 8.762 21.2308 9.07981 21.0266 9.26698C20.8224 9.45415 20.5046 9.44022 20.3174 9.23598C19.1976 8.0139 17.6682 7.23918 15.9902 7.21101C14.3218 7.18302 12.8249 7.90045 11.7516 9.0788C11.565 9.2836 11.2473 9.29841 11.0425 9.11187C10.8377 8.92533 10.8229 8.60759 11.0094 8.40279C12.2743 7.01411 14.0409 6.17427 16.007 6.20721C17.9636 6.24009 19.7518 7.13283 21.0575 8.55777ZM9.89084 7.04831C9.7043 7.25311 9.38656 7.26792 9.18176 7.08138C8.97696 6.89477 8.96209 6.57709 9.1487 6.37223C10.8727 4.47971 13.28 3.33405 15.9597 3.37904C18.6298 3.42371 21.0691 4.64398 22.8512 6.58845C23.0384 6.79269 23.0245 7.11049 22.8203 7.29766C22.6161 7.48483 22.2983 7.47096 22.1111 7.26673C20.515 5.52517 18.3344 4.42287 15.9429 4.38284C13.5609 4.3428 11.4232 5.36611 9.89084 7.04831ZM16.0847 11.8395C16.8136 11.8516 17.4145 12.4525 17.4267 13.1815C17.4389 13.9104 16.8579 14.4915 16.1289 14.4793C15.3999 14.467 14.7991 13.8662 14.7868 13.1372C14.7747 12.4082 15.3557 11.8272 16.0847 11.8395ZM16.0699 12.7178C15.8426 12.7139 15.6614 12.8952 15.6652 13.1225C15.6695 13.3824 15.8838 13.5966 16.1436 13.601C16.371 13.6048 16.5522 13.4235 16.5484 13.1962C16.544 12.9363 16.3298 12.7221 16.0699 12.7178Z" fill="#5CA0EF"/>
</svg>
