<svg width="32" height="32" viewBox="0 0 32 32" fill="none" xmlns="http://www.w3.org/2000/svg">
<path fill-rule="evenodd" clip-rule="evenodd" d="M31.0591 11.791H0.941406V5.88339C0.941406 5.45233 1.2909 5.10284 1.72196 5.10284H30.2785C30.7096 5.10284 31.0591 5.45233 31.0591 5.88339V11.791ZM16.0002 7.25895C15.1827 7.25895 14.5189 7.92273 14.5189 8.7403C14.5189 9.55781 15.1827 10.2216 16.0002 10.2216C16.8178 10.2216 17.4815 9.55781 17.4815 8.7403C17.4815 7.92273 16.8178 7.25895 16.0002 7.25895ZM25.2457 7.25895C24.4282 7.25895 23.7644 7.92273 23.7644 8.7403C23.7644 9.55781 24.4282 10.2216 25.2457 10.2216C26.0633 10.2216 26.727 9.55781 26.727 8.7403C26.727 7.92273 26.0633 7.25895 25.2457 7.25895ZM6.75474 7.25895C5.93717 7.25895 5.27345 7.92273 5.27345 8.7403C5.27345 9.55781 5.93717 10.2216 6.75474 10.2216C7.57231 10.2216 8.23609 9.55781 8.23609 8.7403C8.23609 7.92273 7.57231 7.25895 6.75474 7.25895ZM16.0002 14.3097C19.7636 14.3097 22.8127 17.3588 22.8127 21.1222C22.8127 24.8855 19.7636 27.9346 16.0002 27.9346C12.2369 27.9346 9.18774 24.8855 9.18774 21.1222C9.18774 17.3588 12.2369 14.3097 16.0002 14.3097Z" fill="#C8DFF9"/>
<path fill-rule="evenodd" clip-rule="evenodd" d="M27.6674 4.68427H30.2785C30.9868 4.68427 31.561 5.25845 31.561 5.96678V29.0839C31.561 29.7922 30.9868 30.3664 30.2785 30.3664H1.72196C1.01363 30.3664 0.439453 29.7922 0.439453 29.0839V5.96678C0.439453 5.25845 1.01363 4.68427 1.72196 4.68427H4.33304V4.05525C4.33304 2.71866 5.41815 1.63354 6.75475 1.63354C8.09134 1.63354 9.17646 2.71866 9.17646 4.05525V4.68427H13.5785V4.05525C13.5785 2.71866 14.6636 1.63354 16.0002 1.63354C17.3368 1.63354 18.4219 2.71866 18.4219 4.05525V4.68427H22.824V4.05525C22.824 2.71866 23.9091 1.63354 25.2457 1.63354C26.5823 1.63354 27.6674 2.71866 27.6674 4.05525V4.68427ZM4.33304 5.6882H1.72196C1.56811 5.6882 1.44337 5.81293 1.44337 5.96678V11.3725H30.5571V5.96678C30.5571 5.81293 30.4324 5.6882 30.2785 5.6882H23.8279V6.90394C23.8279 7.06476 23.8547 7.2193 23.9042 7.36349C24.2574 7.03872 24.7286 6.84038 25.2457 6.84038C26.3403 6.84038 27.229 7.72904 27.229 8.82369C27.229 9.91828 26.3403 10.8069 25.2457 10.8069C24.1511 10.8069 23.2624 9.91828 23.2624 8.82369C23.2624 8.6662 23.2809 8.51298 23.3156 8.36603C23.0071 7.95963 22.824 7.45296 22.824 6.90394V5.6882H14.5825V6.90394C14.5825 7.06476 14.6093 7.2193 14.6587 7.36349C15.0119 7.03872 15.4831 6.84038 16.0002 6.84038C17.0948 6.84038 17.9835 7.72904 17.9835 8.82369C17.9835 9.91828 17.0948 10.8069 16.0002 10.8069C14.9057 10.8069 14.017 9.91828 14.017 8.82369C14.017 8.6662 14.0354 8.51298 14.0701 8.36603C13.7617 7.95963 13.5785 7.45296 13.5785 6.90394V5.6882H5.33696V6.90394C5.33696 7.06476 5.36381 7.2193 5.41326 7.36349C5.76645 7.03872 6.2376 6.84038 6.75475 6.84038C7.84934 6.84038 8.73806 7.72904 8.73806 8.82369C8.73806 9.91828 7.84934 10.8069 6.75475 10.8069C5.66016 10.8069 4.7715 9.91828 4.7715 8.82369C4.7715 8.6662 4.78988 8.51298 4.82465 8.36603C4.51619 7.95963 4.33304 7.45296 4.33304 6.90394V5.6882ZM1.44337 12.3764V29.0839C1.44337 29.2377 1.56811 29.3625 1.72196 29.3625H30.2785C30.4324 29.3625 30.5571 29.2377 30.5571 29.0839V12.3764H1.44337ZM23.8279 4.68427H26.6635V4.05525C26.6635 3.27276 26.0282 2.63747 25.2457 2.63747C24.4632 2.63747 23.8279 3.27276 23.8279 4.05525V4.68427ZM8.17254 4.68427V4.05525C8.17254 3.27276 7.53724 2.63747 6.75475 2.63747C5.97225 2.63747 5.33696 3.27276 5.33696 4.05525V4.68427H8.17254ZM17.418 4.68427V4.05525C17.418 3.27276 16.7827 2.63747 16.0002 2.63747C15.2177 2.63747 14.5825 3.27276 14.5825 4.05525V4.68427H17.418ZM24.3193 9.14181C24.4515 9.52638 24.8166 9.80302 25.2457 9.80302C25.7862 9.80302 26.2251 9.36418 26.2251 8.82369C26.2251 8.28314 25.7862 7.84431 25.2457 7.84431C24.9722 7.84431 24.7248 7.95662 24.5471 8.13764C24.7533 8.25478 24.9917 8.32173 25.2457 8.32173C25.5227 8.32173 25.7477 8.54661 25.7477 8.82369C25.7477 9.10071 25.5227 9.32565 25.2457 9.32565C24.9176 9.32565 24.6047 9.26027 24.3193 9.14181ZM15.0738 9.14181C15.206 9.52638 15.5711 9.80302 16.0002 9.80302C16.5408 9.80302 16.9796 9.36418 16.9796 8.82369C16.9796 8.28314 16.5408 7.84431 16.0002 7.84431C15.7268 7.84431 15.4793 7.95662 15.3016 8.13764C15.5078 8.25478 15.7463 8.32173 16.0002 8.32173C16.2773 8.32173 16.5022 8.54661 16.5022 8.82369C16.5022 9.10071 16.2773 9.32565 16.0002 9.32565C15.6721 9.32565 15.3592 9.26027 15.0738 9.14181ZM5.82832 9.14181C5.96052 9.52638 6.32557 9.80302 6.75475 9.80302C7.2953 9.80302 7.73414 9.36418 7.73414 8.82369C7.73414 8.28314 7.2953 7.84431 6.75475 7.84431C6.4813 7.84431 6.23384 7.95662 6.05608 8.13764C6.26232 8.25478 6.50082 8.32173 6.75475 8.32173C7.03183 8.32173 7.25671 8.54661 7.25671 8.82369C7.25671 9.10071 7.03183 9.32565 6.75475 9.32565C6.42672 9.32565 6.11374 9.26027 5.82832 9.14181ZM16.0002 13.5291C20.0561 13.5291 23.3423 16.8153 23.3423 20.8712C23.3423 24.927 20.0561 28.2132 16.0002 28.2132C11.9444 28.2132 8.65818 24.927 8.65818 20.8712C8.65818 16.8153 11.9444 13.5291 16.0002 13.5291ZM16.0002 14.5331C12.4989 14.5331 9.6621 17.3699 9.6621 20.8712C9.6621 24.3724 12.4989 27.2093 16.0002 27.2093C19.5015 27.2093 22.3384 24.3724 22.3384 20.8712C22.3384 17.3699 19.5015 14.5331 16.0002 14.5331ZM15.4983 15.4254C15.4983 15.1483 15.7232 14.9235 16.0002 14.9235C16.2773 14.9235 16.5022 15.1483 16.5022 15.4254V16.015C16.5022 16.292 16.2773 16.5169 16.0002 16.5169C15.7232 16.5169 15.4983 16.292 15.4983 16.015V15.4254ZM21.448 20.3692C21.725 20.3692 21.95 20.5941 21.95 20.8712C21.95 21.1482 21.725 21.3732 21.448 21.3732H20.8564C20.5794 21.3732 20.3544 21.1482 20.3544 20.8712C20.3544 20.5941 20.5794 20.3692 20.8564 20.3692H21.448ZM20.2075 24.3685C20.4034 24.5644 20.4034 24.8825 20.2075 25.0784C20.0115 25.2743 19.6935 25.2743 19.4976 25.0784L19.0793 24.6601C18.8834 24.4642 18.8834 24.1461 19.0793 23.9502C19.2752 23.7543 19.5933 23.7543 19.7892 23.9502L20.2075 24.3685ZM10.5545 21.3732C10.2774 21.3732 10.0525 21.1482 10.0525 20.8712C10.0525 20.5941 10.2774 20.3692 10.5545 20.3692H11.1441C11.4211 20.3692 11.646 20.5941 11.646 20.8712C11.646 21.1482 11.4211 21.3732 11.1441 21.3732H10.5545ZM15.4983 18.2837C15.4983 18.0067 15.7232 17.7817 16.0002 17.7817C16.2773 17.7817 16.5022 18.0067 16.5022 18.2837V20.5813L17.9801 21.4343C18.22 21.5729 18.3024 21.8801 18.1639 22.12C18.0255 22.3599 17.7182 22.4423 17.4783 22.3038L15.7493 21.3059C15.594 21.2162 15.4983 21.0505 15.4983 20.8712V18.2837ZM19.4976 16.6639C19.6935 16.4681 20.0115 16.4681 20.2075 16.6639C20.4034 16.8598 20.4034 17.178 20.2075 17.3738L19.7892 17.7921C19.5933 17.988 19.2752 17.988 19.0793 17.7921C18.8834 17.5962 18.8834 17.2782 19.0793 17.0823L19.4976 16.6639ZM12.5029 25.0784C12.307 25.2743 11.9889 25.2743 11.793 25.0784C11.5971 24.8825 11.5971 24.5644 11.793 24.3685L12.2113 23.9502C12.4072 23.7543 12.7253 23.7543 12.9212 23.9502C13.1171 24.1461 13.1171 24.4642 12.9212 24.6601L12.5029 25.0784ZM11.793 17.3738C11.5971 17.178 11.5971 16.8598 11.793 16.6639C11.9889 16.4681 12.307 16.4681 12.5029 16.6639L12.9212 17.0823C13.1171 17.2782 13.1171 17.5962 12.9212 17.7921C12.7253 17.988 12.4072 17.988 12.2113 17.7921L11.793 17.3738ZM16.5022 26.317C16.5022 26.594 16.2773 26.8189 16.0002 26.8189C15.7232 26.8189 15.4983 26.594 15.4983 26.317V25.7273C15.4983 25.4503 15.7232 25.2254 16.0002 25.2254C16.2773 25.2254 16.5022 25.4503 16.5022 25.7273V26.317Z" fill="#5CA0EF"/>
</svg>
