<svg width="588" height="565" viewBox="0 0 588 565" fill="none" xmlns="http://www.w3.org/2000/svg">
<path d="M303.149 0.129447C152.624 -4.26383 22.2368 103.686 2.53746 245.329C-19.0007 400.196 99.5428 539.54 245.406 561.858C426.835 589.618 602.811 429.024 587.01 254.804C575.106 123.544 456.161 4.59497 303.149 0.129447Z" fill="#F4F7FA"/>
<g opacity="0.7">
<path d="M277.217 363.42C268.216 343.123 282.588 312.636 297.906 295.567C315.79 275.638 327.786 281.997 340.491 265.413C364.147 234.536 332.263 199.831 353.654 166.798C371.142 139.793 399.086 152.739 417.094 121.95C430.089 99.7335 421.784 82.314 439.454 66.7117C440.964 65.3781 457.46 51.2279 475.016 56.1089C492.735 61.0354 501.17 82.4681 503.104 96.827C506.679 123.369 488.574 129.701 481.291 162.724C471.376 207.683 499.066 222.559 484.938 254.152C473.271 280.24 451.699 276.113 439.336 305.296C427.857 332.396 442.287 345.801 432.821 363.291C411.044 403.526 295.576 404.819 277.217 363.42Z" fill="#90CAF9"/>
<path d="M289.907 395.143C289.596 395.143 289.285 395.142 288.974 395.139C288.752 395.138 288.573 394.956 288.575 394.733C288.576 394.511 288.756 394.333 288.977 394.333C288.978 394.333 288.979 394.333 288.98 394.333C308.509 394.446 327.261 390.487 344.633 382.518C361.087 374.968 378.1 367.162 387.154 350.284C393.997 337.528 392.16 327.347 389.836 314.458C387.569 301.889 384.748 286.248 389.843 263.402C392.752 250.356 396.373 234.122 409.541 219.856C417.216 211.543 424.109 208.39 430.191 205.609C436.543 202.704 441.559 200.41 445.148 193.167C451.011 181.334 449.262 170.387 447.238 157.711C445.985 149.872 444.691 141.767 444.913 132.338C445.542 105.799 461.091 78.9437 491.131 52.519C491.299 52.3721 491.552 52.3891 491.699 52.5559C491.845 52.7236 491.829 52.9785 491.662 53.1254C461.799 79.3951 446.341 106.053 445.719 132.357C445.498 141.712 446.786 149.78 448.032 157.583C450.079 170.396 451.846 181.462 445.869 193.525C442.154 201.025 436.765 203.489 430.525 206.343C424.512 209.092 417.697 212.209 410.132 220.404C397.111 234.51 393.517 250.626 390.629 263.576C385.569 286.264 388.375 301.817 390.628 314.314C392.981 327.358 394.839 337.661 387.862 350.666C378.681 367.783 361.543 375.646 344.969 383.25C327.766 391.143 309.246 395.143 289.907 395.143Z" fill="white"/>
<path d="M404.127 227.647C403.956 227.647 403.797 227.536 403.744 227.364C392.117 190.2 392.745 162.514 395.318 145.833C398.112 127.726 403.75 118.279 403.807 118.186C403.922 117.994 404.171 117.936 404.359 118.051C404.55 118.166 404.61 118.414 404.494 118.605C404.439 118.697 398.868 128.043 396.105 146.011C393.553 162.599 392.94 190.137 404.511 227.123C404.578 227.335 404.46 227.562 404.247 227.628C404.208 227.641 404.168 227.647 404.127 227.647Z" fill="white"/>
<path d="M387.53 282.643C387.334 282.643 387.162 282.499 387.132 282.299C387.099 282.078 387.251 281.873 387.471 281.841C433.626 274.978 458.603 251.502 471.428 233.017C485.321 212.993 488.342 194.373 488.371 194.188C488.405 193.967 488.614 193.818 488.83 193.851C489.05 193.886 489.2 194.092 489.166 194.312C489.137 194.5 486.087 213.303 472.089 233.478C459.173 252.093 434.029 275.734 387.589 282.639C387.57 282.641 387.549 282.643 387.53 282.643Z" fill="white"/>
<path d="M363.047 375.264C362.938 375.264 362.831 375.22 362.752 375.135C332.454 342.389 324.978 311.289 324.04 290.966C323.023 268.924 329.274 254.427 329.337 254.284C329.426 254.08 329.665 253.988 329.867 254.077C330.071 254.167 330.163 254.405 330.073 254.609C330.011 254.751 323.829 269.109 324.846 290.974C325.786 311.152 333.227 342.037 363.342 374.586C363.493 374.75 363.483 375.005 363.32 375.156C363.243 375.228 363.144 375.264 363.047 375.264Z" fill="white"/>
<path d="M446.309 128.302C446.135 128.302 445.975 128.188 445.923 128.013C445.86 127.799 445.982 127.575 446.194 127.512C480.176 117.419 496.606 95.5341 504.406 78.9527C512.859 60.9833 513.281 45.2157 513.284 45.0588C513.289 44.8362 513.456 44.6651 513.695 44.6641C513.917 44.6687 514.094 44.8527 514.089 45.0757C514.086 45.2345 513.659 61.1738 505.134 79.297C497.264 96.0276 480.69 118.107 446.424 128.285C446.385 128.297 446.347 128.302 446.309 128.302Z" fill="white"/>
</g>
<g opacity="0.7">
<path d="M290.729 400.131C286.926 379.862 306.417 355.392 323.9 343.249C344.312 329.073 353.796 337.39 368.815 325.126C396.779 302.294 375.371 264.1 401.748 238.834C423.312 218.178 445.802 235.865 468.643 211.902C485.125 194.61 481.337 177.09 500.632 166.777C502.282 165.895 520.207 156.643 535.03 164.816C549.99 173.065 553.041 194.24 551.725 207.63C549.293 232.38 531.581 234.223 517.955 262.503C499.404 301.005 521.253 320.381 501.746 345.902C485.638 366.977 467.024 358.625 449.628 382.347C433.473 404.375 443.653 419.582 431.368 433.358C403.105 465.05 298.487 441.475 290.729 400.131Z" fill="#D8DEE8"/>
<mask id="mask0_201_77239" style="mask-type:luminance" maskUnits="userSpaceOnUse" x="290" y="161" width="263" height="288">
<path d="M290.729 400.131C286.926 379.862 306.417 355.392 323.9 343.249C344.312 329.073 353.796 337.39 368.815 325.126C396.779 302.294 375.371 264.1 401.748 238.834C423.312 218.178 445.802 235.865 468.643 211.902C485.125 194.61 481.337 177.09 500.632 166.777C502.282 165.895 520.207 156.643 535.03 164.816C549.99 173.065 553.041 194.24 551.725 207.63C549.293 232.38 531.581 234.223 517.955 262.503C499.404 301.005 521.253 320.381 501.746 345.902C485.638 366.977 467.024 358.625 449.628 382.347C433.473 404.375 443.653 419.582 431.368 433.358C403.105 465.05 298.487 441.475 290.729 400.131Z" fill="white"/>
</mask>
<g mask="url(#mask0_201_77239)">
<path d="M324.096 435.062C314.265 435.062 304.39 433.86 294.552 431.458C294.272 431.39 294.101 431.108 294.169 430.827C294.237 430.546 294.527 430.377 294.798 430.444C312.423 434.747 330.169 435.167 347.546 431.691C364.001 428.4 381.016 424.997 392.765 411.722C401.636 401.7 402.147 392.129 402.796 380.012C403.429 368.156 404.218 353.4 413.708 333.822C419.128 322.641 425.872 308.726 440.848 298.634C449.581 292.75 456.498 291.375 462.601 290.163C468.932 288.905 473.932 287.911 478.687 282.175C486.479 272.775 487.233 262.529 488.106 250.665C488.647 243.308 489.207 235.699 491.423 227.215C497.664 203.324 517.469 182.358 550.288 164.897C550.544 164.762 550.859 164.859 550.993 165.113C551.128 165.368 551.031 165.684 550.778 165.819C518.226 183.138 498.595 203.883 492.431 227.479C490.239 235.871 489.683 243.431 489.145 250.743C488.259 262.785 487.493 273.185 479.488 282.842C474.497 288.864 469.078 289.94 462.803 291.187C456.797 292.381 449.989 293.733 441.43 299.501C426.686 309.436 420.01 323.21 414.645 334.277C405.247 353.667 404.465 368.306 403.836 380.068C403.177 392.389 402.657 402.12 393.545 412.415C381.563 425.952 364.374 429.391 347.751 432.715C339.925 434.28 332.025 435.062 324.096 435.062Z" fill="white"/>
<path d="M434.461 304.793C434.19 304.793 433.962 304.583 433.942 304.308C431.363 268.206 437.842 243.299 443.733 228.762C450.131 212.971 457.262 205.622 457.333 205.55C457.535 205.344 457.865 205.343 458.069 205.545C458.275 205.747 458.277 206.078 458.075 206.283C458.005 206.355 450.99 213.598 444.671 229.222C438.837 243.648 432.419 268.373 434.981 304.234C435.002 304.522 434.786 304.771 434.499 304.792C434.486 304.793 434.474 304.793 434.461 304.793Z" fill="white"/>
<path d="M420.231 351.477C416.203 351.477 412.025 351.303 407.688 350.932C407.401 350.908 407.189 350.655 407.213 350.367C407.237 350.08 407.496 349.863 407.776 349.892C450.876 353.576 478.404 337.753 493.912 323.833C510.728 308.739 517.438 292.558 517.504 292.397C517.613 292.129 517.917 292.001 518.183 292.11C518.45 292.219 518.577 292.524 518.469 292.791C518.403 292.955 511.622 309.324 494.644 324.577C480.542 337.248 456.599 351.477 420.231 351.477Z" fill="white"/>
<path d="M365.849 429.384C365.667 429.384 365.491 429.289 365.395 429.119C344.981 392.998 344.86 363.255 348.353 344.665C352.143 324.496 360.903 312.707 360.992 312.591C361.165 312.361 361.492 312.316 361.722 312.489C361.951 312.663 361.996 312.991 361.823 313.221C361.736 313.336 353.101 324.969 349.366 344.916C345.918 363.324 346.058 392.786 366.302 428.605C366.444 428.856 366.356 429.175 366.105 429.316C366.024 429.363 365.935 429.384 365.849 429.384Z" fill="white"/>
<path d="M493.772 224.06C493.498 224.06 493.269 223.845 493.253 223.567C493.237 223.279 493.457 223.033 493.744 223.017C526.55 221.181 546.032 204.955 556.599 191.666C568.051 177.263 571.789 163.136 571.825 162.996C571.898 162.716 572.182 162.547 572.461 162.621C572.739 162.693 572.906 162.978 572.835 163.257C572.797 163.4 569.003 177.742 557.414 192.317C546.715 205.772 526.993 222.202 493.802 224.059C493.792 224.06 493.782 224.06 493.772 224.06Z" fill="white"/>
</g>
</g>
<path d="M397.081 235.938V453.41L366.547 446.821V256.589L394.315 237.809L396.731 236.172L397.081 235.938Z" fill="#97A6B7"/>
<path d="M481.947 235.724H397.081V453.41H481.947V235.724Z" fill="#F4F7FA"/>
<path d="M424.023 259.767H413.246V439.115H424.023V259.767Z" fill="#97A6B7"/>
<path d="M446.923 259.767H435.698V439.115H446.923V259.767Z" fill="#97A6B7"/>
<path d="M469.374 259.767H458.149V439.115H469.374V259.767Z" fill="#97A6B7"/>
<path opacity="0.5" d="M424.023 259.767H420.431V439.115H424.023V259.767Z" fill="#97A6B7"/>
<path opacity="0.5" d="M446.923 259.767H443.331V439.115H446.923V259.767Z" fill="#97A6B7"/>
<path opacity="0.5" d="M469.824 259.767H466.231V439.115H469.824V259.767Z" fill="#97A6B7"/>
<path opacity="0.1" d="M481.947 453.397V453.41H397.081L366.547 446.821V424.695C380.692 400.054 376.035 389.807 379.089 371.528C382.07 353.684 375.779 259.663 394.315 237.809C394.984 237.01 395.685 236.315 396.421 235.724C396.524 235.873 396.628 236.022 396.731 236.172C396.848 236.341 396.964 236.51 397.081 236.679C406.726 250.643 411.145 257.31 413.246 264.4C415.294 271.307 415.141 278.611 415.473 293.459C415.887 311.719 415.801 327.607 420.431 338.543C421.401 340.85 422.581 342.93 424.023 344.769C426.82 348.349 430.592 351.007 435.697 352.56C436.263 352.735 436.843 352.898 437.44 353.041C439.429 353.522 441.396 354.276 443.331 355.27C444.543 355.887 445.742 356.602 446.923 357.414C450.888 360.111 454.673 363.815 458.149 368.318C461.085 372.119 463.802 376.486 466.231 381.288C467.34 383.485 468.391 385.772 469.375 388.144C469.527 388.508 469.675 388.871 469.823 389.242C475.319 402.914 478.579 419.127 478.292 435.632C478.166 442.818 479.567 448.602 481.947 453.397Z" fill="#97A6B7"/>
<path d="M385.632 131.754H255.414V453.41H385.632V131.754Z" fill="url(#paint0_linear_201_77239)"/>
<path d="M375.753 162.295H265.292V182.439H375.753V162.295Z" fill="#97A6B7"/>
<path d="M375.753 198.034H265.292V218.178H375.753V198.034Z" fill="#97A6B7"/>
<path d="M375.753 233.774H265.292V253.918H375.753V233.774Z" fill="#97A6B7"/>
<path d="M375.753 269.514H265.292V289.658H375.753V269.514Z" fill="#97A6B7"/>
<path d="M375.753 305.253H265.292V325.397H375.753V305.253Z" fill="#97A6B7"/>
<path d="M375.753 340.993H265.292V361.137H375.753V340.993Z" fill="#97A6B7"/>
<path d="M375.753 376.733H265.292V396.877H375.753V376.733Z" fill="#97A6B7"/>
<path d="M255.414 131.754V453.41H220.39V162.295L254.399 132.638L255.27 131.877L255.414 131.754Z" fill="#97A6B7"/>
<path opacity="0.5" d="M231.167 211.031H209.614V215.58H231.167V211.031Z" fill="#97A6B7"/>
<path opacity="0.5" d="M231.167 267.564H209.614V272.113H231.167V267.564Z" fill="#97A6B7"/>
<path opacity="0.5" d="M231.167 324.098H209.614V328.646H231.167V324.098Z" fill="#97A6B7"/>
<path opacity="0.5" d="M231.167 380.632H209.614V385.18H231.167V380.632Z" fill="#97A6B7"/>
<path opacity="0.5" d="M375.753 162.295H265.292V166.194H375.753V162.295Z" fill="#97A6B7"/>
<path opacity="0.5" d="M375.753 198.034H265.292V201.933H375.753V198.034Z" fill="#97A6B7"/>
<path opacity="0.5" d="M375.753 233.774H265.292V237.673H375.753V233.774Z" fill="#97A6B7"/>
<path opacity="0.5" d="M375.753 269.514H265.292V273.413H375.753V269.514Z" fill="#97A6B7"/>
<path opacity="0.5" d="M375.753 305.253H265.292V309.152H375.753V305.253Z" fill="#97A6B7"/>
<path opacity="0.5" d="M375.753 340.993H265.292V344.892H375.753V340.993Z" fill="#97A6B7"/>
<path opacity="0.5" d="M375.753 376.733H265.292V380.632H375.753V376.733Z" fill="#97A6B7"/>
<path opacity="0.1" d="M381.307 453.41H255.414L220.39 443.663V381.352C221.768 377.467 223.245 373.776 224.826 370.377C239.586 338.614 234.781 325.703 237.87 302.459C240.919 279.514 234.269 156.434 254.399 132.638C254.664 132.326 254.929 132.033 255.203 131.754C255.225 131.793 255.248 131.838 255.27 131.877C255.32 131.968 255.369 132.053 255.414 132.137C263.357 146.589 267.843 154.926 270.416 162.295C270.878 163.614 271.278 164.907 271.62 166.194C272.94 171.087 273.501 175.961 273.793 182.439C273.981 186.76 274.058 191.796 274.152 198.034C274.17 199.282 274.192 200.582 274.215 201.933C274.228 202.713 274.242 203.512 274.255 204.325C274.34 209.081 274.403 213.708 274.493 218.179C274.601 223.624 274.749 228.842 275.014 233.774C275.086 235.093 275.167 236.393 275.257 237.673C275.674 243.58 276.312 249.025 277.331 253.918C278.602 260.066 280.47 265.323 283.254 269.514C284.197 270.943 285.247 272.243 286.419 273.413C289.046 276.045 292.266 278.007 296.222 279.216C301.215 280.736 306.082 284.369 310.617 289.658C314.241 293.875 317.649 299.152 320.743 305.254C321.38 306.514 322.009 307.82 322.62 309.152C324.91 314.143 326.993 319.588 328.821 325.398C330.383 330.356 331.757 335.58 332.916 340.993C333.194 342.28 333.455 343.579 333.706 344.892C334.716 350.162 335.52 355.601 336.086 361.137C336.616 366.264 336.948 371.476 337.051 376.733C337.078 378.026 337.092 379.326 337.092 380.632C337.092 381.431 337.087 382.23 337.073 383.036C337.002 388.196 337.428 392.777 338.25 396.877C344.757 429.406 376.094 431.953 381.307 453.41Z" fill="#97A6B7"/>
<path opacity="0.5" d="M174.563 210.587H152.56V215.136H174.563V210.587Z" fill="#97A6B7"/>
<path opacity="0.5" d="M174.563 267.121H152.56V271.67H174.563V267.121Z" fill="#97A6B7"/>
<path opacity="0.5" d="M174.563 323.654H152.56V328.203H174.563V323.654Z" fill="#97A6B7"/>
<path d="M130.136 179.84V453.41L95.1118 445.119V205.813L130.136 179.84Z" fill="#97A6B7"/>
<path d="M239.698 180.489H130.136V453.41H239.698V180.489Z" fill="#F4F7FA"/>
<path d="M171.446 212.98H149.893V255.868H171.446V212.98Z" fill="#97A6B7"/>
<path d="M201.531 212.98H179.528V255.868H201.531V212.98Z" fill="#97A6B7"/>
<path d="M231.167 212.98H209.614V255.868H231.167V212.98Z" fill="#97A6B7"/>
<path d="M171.446 269.515H149.893V312.402H171.446V269.515Z" fill="#97A6B7"/>
<path d="M201.531 269.515H179.528V312.402H201.531V269.515Z" fill="#97A6B7"/>
<path d="M231.167 269.515H209.614V312.402H231.167V269.515Z" fill="#97A6B7"/>
<path d="M171.446 326.048H149.893V368.935H171.446V326.048Z" fill="#97A6B7"/>
<path d="M201.531 326.048H179.528V368.935H201.531V326.048Z" fill="#97A6B7"/>
<path d="M231.167 326.048H209.614V368.935H231.167V326.048Z" fill="#97A6B7"/>
<path d="M171.446 382.581H149.893V425.469H171.446V382.581Z" fill="#97A6B7"/>
<path d="M201.531 382.581H179.528V425.469H201.531V382.581Z" fill="#97A6B7"/>
<path d="M231.167 382.581H209.614V425.469H231.167V382.581Z" fill="#97A6B7"/>
<path opacity="0.5" d="M171.446 212.98H149.893V217.529H171.446V212.98Z" fill="#97A6B7"/>
<path opacity="0.5" d="M171.446 269.514H149.893V274.062H171.446V269.514Z" fill="#97A6B7"/>
<path opacity="0.5" d="M171.446 326.047H149.893V330.596H171.446V326.047Z" fill="#97A6B7"/>
<path opacity="0.5" d="M171.446 382.581H149.893V387.13H171.446V382.581Z" fill="#97A6B7"/>
<path opacity="0.1" d="M239.698 448.881V453.41H130.136L95.1118 445.118V404.622C97.4556 395.986 100.285 387.577 103.643 380.631C116.517 353.989 112.323 343.156 115.017 323.662C117.711 304.168 111.726 198.47 130.136 180.489C147.347 210.595 146.152 209.295 146.75 241.357C147.069 258.506 147.046 273.672 149.893 284.934C152.363 294.72 157.001 301.549 165.91 304.168C167.782 304.72 169.632 305.597 171.446 306.774C177.239 310.51 182.685 317.262 187.302 326.047C193.372 337.581 198.029 352.618 200.197 368.935C200.795 373.399 201.203 377.967 201.401 382.581C201.468 384.114 201.513 385.661 201.531 387.207C201.549 388.552 201.549 389.897 201.531 391.243C201.522 391.717 201.522 392.185 201.531 392.646C201.616 404.304 204.939 412.342 209.613 418.509C211.594 421.121 213.816 423.395 216.142 425.468C225.432 433.747 236.326 438.744 239.698 448.881Z" fill="#97A6B7"/>
<path d="M522.173 255.648C522.173 240.327 535.508 227.908 551.511 227.91C567.041 227.912 579.297 239.676 579.297 254.187C579.297 268.697 567.041 281.089 551.511 281.885C535.508 282.705 522.173 270.969 522.173 255.648Z" fill="url(#paint1_linear_201_77239)"/>
<path d="M523.899 254.426C523.899 239.105 536.848 226.687 552.388 226.688C567.468 226.69 579.37 238.455 579.37 252.965C579.37 267.476 567.468 279.867 552.388 280.663C536.848 281.483 523.899 269.747 523.899 254.426Z" fill="#365170"/>
<g opacity="0.5">
<path d="M528.332 254.31C528.332 241.438 539.211 231.004 552.267 231.006C564.937 231.007 574.936 240.892 574.936 253.082C574.936 265.273 564.937 275.684 552.267 276.353C539.211 277.042 528.332 267.182 528.332 254.31Z" fill="white"/>
</g>
<path opacity="0.5" d="M551.368 232.984C564.038 232.986 574.038 242.869 574.038 255.061C574.038 257.96 573.467 260.755 572.434 263.345C574.033 260.226 574.937 256.736 574.937 253.083C574.937 240.892 564.937 231.007 552.267 231.006C542.198 231.005 533.429 237.213 529.941 245.958C533.891 238.27 542.076 232.983 551.368 232.984Z" fill="white"/>
<path d="M542.132 251.839C542.346 255.359 546.564 263.026 549.313 267.669C550.411 269.525 553.184 269.513 554.25 267.648C556.915 262.984 560.993 255.288 561.146 251.769C561.394 246.059 557.105 241.174 551.549 241.192C545.991 241.211 541.783 246.126 542.132 251.839ZM546.537 251.823C546.425 248.8 548.688 246.267 551.594 246.256C554.498 246.246 556.804 248.763 556.746 251.785C556.689 254.71 554.426 257.022 551.688 257.033C548.95 257.043 546.645 254.748 546.537 251.823Z" fill="white"/>
<path d="M150.899 165.077C150.291 165.077 149.819 164.583 149.819 163.974V160.299C149.819 159.69 150.291 159.196 150.899 159.196C151.506 159.196 151.978 159.69 151.978 160.299V163.974C151.978 164.583 151.507 165.077 150.899 165.077Z" fill="url(#paint2_linear_201_77239)"/>
<path d="M150.899 154.051C150.291 154.051 149.819 153.557 149.819 152.948V145.598C149.819 144.989 150.291 144.495 150.899 144.495C151.506 144.495 151.978 144.989 151.978 145.598V152.948C151.978 153.557 151.507 154.051 150.899 154.051ZM150.899 139.35C150.291 139.35 149.819 138.856 149.819 138.247V130.896C149.819 130.287 150.291 129.794 150.899 129.794C151.506 129.794 151.978 130.287 151.978 130.896V138.247C151.978 138.856 151.507 139.35 150.899 139.35ZM150.899 124.648C150.291 124.648 149.819 124.155 149.819 123.546V116.195C149.819 115.586 150.291 115.093 150.899 115.093C151.506 115.093 151.978 115.586 151.978 116.195V123.546C151.978 124.155 151.507 124.648 150.899 124.648ZM150.899 109.947C150.291 109.947 149.819 109.454 149.819 108.845V101.494C149.819 100.885 150.291 100.392 150.899 100.392C151.506 100.392 151.978 100.885 151.978 101.494V108.845C151.978 109.454 151.507 109.947 150.899 109.947Z" fill="#365170"/>
<path d="M150.899 93.0412C150.291 93.0412 149.819 92.5476 149.819 91.9387V87.8959C149.819 87.2869 150.145 86.7217 150.753 86.7217H154.054C154.661 86.7217 155.154 87.1945 155.154 87.8034C155.154 88.4124 154.661 88.8852 154.054 88.8852H151.978V91.9384C151.978 92.5478 151.507 93.0412 150.899 93.0412Z" fill="#365170"/>
<path d="M301.474 88.8852H294.14C293.532 88.8852 293.04 88.4124 293.04 87.8035C293.04 87.1945 293.532 86.7217 294.14 86.7217H301.474C302.081 86.7217 302.574 87.1945 302.574 87.8035C302.574 88.4124 302.081 88.8852 301.474 88.8852ZM286.805 88.8852H279.471C278.863 88.8852 278.371 88.4124 278.371 87.8035C278.371 87.1945 278.863 86.7217 279.471 86.7217H286.805C287.413 86.7217 287.906 87.1945 287.906 87.8035C287.906 88.4124 287.413 88.8852 286.805 88.8852ZM272.137 88.8852H264.802C264.195 88.8852 263.702 88.4124 263.702 87.8035C263.702 87.1945 264.195 86.7217 264.802 86.7217H272.137C272.744 86.7217 273.237 87.1945 273.237 87.8035C273.237 88.4124 272.744 88.8852 272.137 88.8852ZM257.468 88.8852H250.134C249.526 88.8852 249.034 88.4124 249.034 87.8035C249.034 87.1945 249.526 86.7217 250.134 86.7217H257.468C258.076 86.7217 258.568 87.1945 258.568 87.8035C258.568 88.4124 258.076 88.8852 257.468 88.8852ZM242.799 88.8852H235.465C234.857 88.8852 234.365 88.4124 234.365 87.8035C234.365 87.1945 234.857 86.7217 235.465 86.7217H242.799C243.407 86.7217 243.899 87.1945 243.899 87.8035C243.9 88.4124 243.407 88.8852 242.799 88.8852ZM228.131 88.8852H220.796C220.189 88.8852 219.696 88.4124 219.696 87.8035C219.696 87.1945 220.189 86.7217 220.796 86.7217H228.131C228.738 86.7217 229.231 87.1945 229.231 87.8035C229.231 88.4124 228.738 88.8852 228.131 88.8852ZM213.462 88.8852H206.128C205.52 88.8852 205.027 88.4124 205.027 87.8035C205.027 87.1945 205.52 86.7217 206.128 86.7217H213.462C214.07 86.7217 214.562 87.1945 214.562 87.8035C214.562 88.4124 214.07 88.8852 213.462 88.8852ZM198.793 88.8852H191.459C190.851 88.8852 190.359 88.4124 190.359 87.8035C190.359 87.1945 190.851 86.7217 191.459 86.7217H198.793C199.401 86.7217 199.893 87.1945 199.893 87.8035C199.893 88.4124 199.401 88.8852 198.793 88.8852ZM184.124 88.8852H176.79C176.182 88.8852 175.69 88.4124 175.69 87.8035C175.69 87.1945 176.182 86.7217 176.79 86.7217H184.124C184.732 86.7217 185.225 87.1945 185.225 87.8035C185.225 88.4124 184.732 88.8852 184.124 88.8852ZM169.456 88.8852H162.121C161.514 88.8852 161.021 88.4124 161.021 87.8035C161.021 87.1945 161.514 86.7217 162.121 86.7217H169.456C170.064 86.7217 170.556 87.1945 170.556 87.8035C170.556 88.4124 170.064 88.8852 169.456 88.8852Z" fill="#365170"/>
<path d="M315.697 93.041C315.089 93.041 314.617 92.5474 314.617 91.9385V88.8852H311.742C311.135 88.8852 310.642 88.4124 310.642 87.8035C310.642 87.1945 311.135 86.7217 311.742 86.7217H315.776C316.384 86.7217 316.776 87.2867 316.776 87.8959V91.9386C316.776 92.5476 316.304 93.041 315.697 93.041Z" fill="#365170"/>
<path d="M315.697 106.272C315.089 106.272 314.617 105.778 314.617 105.169V98.5537C314.617 97.9447 315.089 97.4512 315.697 97.4512C316.304 97.4512 316.776 97.9447 316.776 98.5537V105.169C316.776 105.778 316.304 106.272 315.697 106.272Z" fill="#365170"/>
<path d="M315.697 116.563C315.089 116.563 314.617 116.069 314.617 115.461V111.785C314.617 111.176 315.089 110.683 315.697 110.683C316.304 110.683 316.776 111.176 316.776 111.785V115.461C316.776 116.069 316.304 116.563 315.697 116.563Z" fill="url(#paint3_linear_201_77239)"/>
<path d="M150.478 169.855C153.972 169.855 156.804 167.016 156.804 163.515C156.804 160.013 153.972 157.175 150.478 157.175C146.985 157.175 144.152 160.013 144.152 163.515C144.152 167.016 146.985 169.855 150.478 169.855Z" fill="#365170"/>
<path d="M315.501 122.076C318.995 122.076 321.827 119.238 321.827 115.736C321.827 112.235 318.995 109.396 315.501 109.396C312.007 109.396 309.175 112.235 309.175 115.736C309.175 119.238 312.007 122.076 315.501 122.076Z" fill="#365170"/>
<path d="M448.11 227.557C447.503 227.557 447.031 227.063 447.031 226.454V221.309C447.031 220.7 447.503 220.207 448.11 220.207C448.717 220.207 449.189 220.7 449.189 221.309V226.454C449.19 227.063 448.717 227.557 448.11 227.557ZM448.11 215.061C447.503 215.061 447.031 214.567 447.031 213.958V206.608C447.031 205.999 447.503 205.505 448.11 205.505C448.717 205.505 449.189 205.999 449.189 206.608V213.958C449.19 214.567 448.717 215.061 448.11 215.061ZM448.11 200.36C447.503 200.36 447.031 199.866 447.031 199.257V191.907C447.031 191.298 447.503 190.804 448.11 190.804C448.717 190.804 449.189 191.298 449.189 191.907V199.257C449.19 199.866 448.717 200.36 448.11 200.36ZM448.11 185.659C447.503 185.659 447.031 185.165 447.031 184.556V177.205C447.031 176.596 447.503 176.103 448.11 176.103C448.717 176.103 449.189 176.596 449.189 177.205V184.556C449.19 185.165 448.717 185.659 448.11 185.659ZM448.11 170.958C447.503 170.958 447.031 170.464 447.031 169.855V162.504C447.031 161.895 447.503 161.402 448.11 161.402C448.717 161.402 449.189 161.895 449.189 162.504V169.855C449.19 170.464 448.717 170.958 448.11 170.958ZM448.11 156.256C447.503 156.256 447.031 155.763 447.031 155.154V147.803C447.031 147.194 447.503 146.701 448.11 146.701C448.717 146.701 449.189 147.194 449.189 147.803V155.154C449.19 155.763 448.717 156.256 448.11 156.256ZM448.11 141.555C447.503 141.555 447.031 141.062 447.031 140.453V133.102C447.031 132.493 447.503 132 448.11 132C448.717 132 449.189 132.493 449.189 133.102V140.453C449.19 141.062 448.717 141.555 448.11 141.555ZM448.11 126.854C447.503 126.854 447.031 126.36 447.031 125.751V118.401C447.031 117.792 447.503 117.298 448.11 117.298C448.717 117.298 449.189 117.792 449.189 118.401V125.751C449.19 126.361 448.717 126.854 448.11 126.854ZM282.593 123.914C281.985 123.914 281.514 123.42 281.514 122.811V115.461C281.514 114.852 281.985 114.358 282.593 114.358C283.201 114.358 283.672 114.852 283.672 115.461V122.811C283.672 123.42 283.201 123.914 282.593 123.914ZM448.11 112.153C447.503 112.153 447.031 111.659 447.031 111.05V103.7C447.031 103.091 447.503 102.597 448.11 102.597C448.717 102.597 449.189 103.091 449.189 103.7V111.05C449.19 111.659 448.717 112.153 448.11 112.153ZM282.593 109.213C281.985 109.213 281.514 108.719 281.514 108.11V100.76C281.514 100.151 281.985 99.6569 282.593 99.6569C283.201 99.6569 283.672 100.151 283.672 100.76V108.11C283.672 108.719 283.201 109.213 282.593 109.213ZM448.11 97.4518C447.503 97.4518 447.031 96.9583 447.031 96.3493V88.9986C447.031 88.3896 447.503 87.8961 448.11 87.8961C448.717 87.8961 449.189 88.3896 449.189 88.9986V96.3493C449.19 96.9583 448.717 97.4518 448.11 97.4518ZM282.593 94.5116C281.985 94.5116 281.514 94.018 281.514 93.409V86.0584C281.514 85.4494 281.985 84.9558 282.593 84.9558C283.201 84.9558 283.672 85.4494 283.672 86.0584V93.409C283.672 94.018 283.201 94.5116 282.593 94.5116ZM448.11 82.7507C447.503 82.7507 447.031 82.2572 447.031 81.6482V74.2975C447.031 73.6883 447.503 73.195 448.11 73.195C448.717 73.195 449.189 73.6885 449.189 74.2975V81.6482C449.19 82.2572 448.717 82.7507 448.11 82.7507ZM282.593 79.8105C281.985 79.8105 281.514 79.3169 281.514 78.7079V71.3573C281.514 70.7483 281.985 70.2547 282.593 70.2547C283.201 70.2547 283.672 70.7483 283.672 71.3573V78.7079C283.672 79.3169 283.201 79.8105 282.593 79.8105ZM448.11 68.0494C447.503 68.0494 447.031 67.5559 447.031 66.9469V59.5962C447.031 58.9872 447.503 58.4936 448.11 58.4936C448.717 58.4936 449.189 58.9872 449.189 59.5962V66.9469C449.19 67.5561 448.717 68.0494 448.11 68.0494ZM282.593 65.1092C281.985 65.1092 281.514 64.6156 281.514 64.0066V56.656C281.514 56.047 281.985 55.5534 282.593 55.5534C283.201 55.5534 283.672 56.047 283.672 56.656V64.0066C283.672 64.6158 283.201 65.1092 282.593 65.1092ZM448.11 53.3483C447.503 53.3483 447.031 52.8548 447.031 52.2458V49.9391H443.76C443.153 49.9391 442.66 49.4664 442.66 48.8574C442.66 48.2482 443.153 47.7756 443.76 47.7756H447.794C448.402 47.7756 449.189 48.3291 449.189 48.9383V52.2462C449.19 52.8547 448.717 53.3483 448.11 53.3483ZM282.692 50.3574C282.085 50.3574 281.513 49.9147 281.513 49.3055V48.9381C281.513 48.3291 282.164 47.7754 282.771 47.7754H289.739C290.346 47.7754 290.839 48.2482 290.839 48.8572C290.839 49.4662 290.346 49.9389 289.739 49.9389H283.591C283.39 49.9391 283.018 50.3574 282.692 50.3574ZM436.426 49.9391H429.092C428.484 49.9391 427.992 49.4664 427.992 48.8574C427.992 48.2482 428.485 47.7756 429.092 47.7756H436.426C437.034 47.7756 437.526 48.2484 437.526 48.8574C437.526 49.4664 437.033 49.9391 436.426 49.9391ZM421.757 49.9391H414.423C413.815 49.9391 413.323 49.4664 413.323 48.8574C413.323 48.2482 413.816 47.7756 414.423 47.7756H421.757C422.365 47.7756 422.857 48.2484 422.857 48.8574C422.858 49.4664 422.365 49.9391 421.757 49.9391ZM407.089 49.9391H399.754C399.147 49.9391 398.654 49.4664 398.654 48.8574C398.654 48.2482 399.147 47.7756 399.754 47.7756H407.089C407.696 47.7756 408.189 48.2484 408.189 48.8574C408.189 49.4664 407.696 49.9391 407.089 49.9391ZM392.42 49.9391H385.086C384.478 49.9391 383.985 49.4664 383.985 48.8574C383.985 48.2482 384.478 47.7756 385.086 47.7756H392.42C393.027 47.7756 393.52 48.2484 393.52 48.8574C393.52 49.4664 393.027 49.9391 392.42 49.9391ZM377.751 49.9391H370.417C369.809 49.9391 369.317 49.4664 369.317 48.8574C369.317 48.2482 369.81 47.7756 370.417 47.7756H377.751C378.359 47.7756 378.851 48.2484 378.851 48.8574C378.851 49.4664 378.359 49.9391 377.751 49.9391ZM363.082 49.9391H355.748C355.141 49.9391 354.648 49.4664 354.648 48.8574C354.648 48.2482 355.141 47.7756 355.748 47.7756H363.082C363.69 47.7756 364.183 48.2484 364.183 48.8574C364.183 49.4664 363.69 49.9391 363.082 49.9391ZM348.414 49.9391H341.079C340.472 49.9391 339.979 49.4664 339.979 48.8574C339.979 48.2482 340.472 47.7756 341.079 47.7756H348.414C349.021 47.7756 349.514 48.2484 349.514 48.8574C349.514 49.4664 349.021 49.9391 348.414 49.9391ZM333.745 49.9391H326.411C325.803 49.9391 325.311 49.4664 325.311 48.8574C325.311 48.2482 325.804 47.7756 326.411 47.7756H333.745C334.353 47.7756 334.845 48.2484 334.845 48.8574C334.845 49.4664 334.353 49.9391 333.745 49.9391ZM319.076 49.9391H311.742C311.135 49.9391 310.642 49.4664 310.642 48.8574C310.642 48.2482 311.135 47.7756 311.742 47.7756H319.076C319.684 47.7756 320.177 48.2484 320.177 48.8574C320.177 49.4664 319.684 49.9391 319.076 49.9391ZM304.408 49.9391H297.073C296.466 49.9391 295.973 49.4664 295.973 48.8574C295.973 48.2482 296.466 47.7756 297.073 47.7756H304.408C305.015 47.7756 305.508 48.2484 305.508 48.8574C305.508 49.4664 305.015 49.9391 304.408 49.9391Z" fill="#365170"/>
<path d="M282.496 125.752C285.99 125.752 288.822 122.914 288.822 119.412C288.822 115.911 285.99 113.072 282.496 113.072C279.003 113.072 276.17 115.911 276.17 119.412C276.17 122.914 279.003 125.752 282.496 125.752Z" fill="#365170"/>
<path d="M447.519 230.13C451.013 230.13 453.845 227.292 453.845 223.79C453.845 220.289 451.013 217.45 447.519 217.45C444.025 217.45 441.193 220.289 441.193 223.79C441.193 227.292 444.025 230.13 447.519 230.13Z" fill="#365170"/>
<path d="M64.4124 193.159C64.4124 173.504 81.5198 157.573 102.05 157.575C121.973 157.578 137.696 172.67 137.696 191.285C137.696 209.901 121.973 225.797 102.05 226.818C81.52 227.871 64.4124 212.814 64.4124 193.159Z" fill="url(#paint4_linear_201_77239)"/>
<path d="M66.6255 191.592C66.6255 171.937 83.2381 156.005 103.174 156.008C122.521 156.01 137.789 171.103 137.789 189.718C137.789 208.333 122.52 224.23 103.174 225.251C83.2383 226.304 66.6255 211.247 66.6255 191.592Z" fill="#365170"/>
<g opacity="0.5">
<path d="M72.3132 191.442C72.3132 174.929 86.2703 161.544 103.02 161.546C119.274 161.548 132.102 174.228 132.102 189.868C132.102 205.508 119.274 218.863 103.02 219.721C86.2703 220.605 72.3132 207.955 72.3132 191.442Z" fill="white"/>
</g>
<path opacity="0.5" d="M101.867 164.084C118.121 164.086 130.949 176.766 130.949 192.406C130.949 196.125 130.216 199.711 128.892 203.034C130.943 199.033 132.102 194.555 132.102 189.868C132.102 174.228 119.274 161.548 103.02 161.546C90.1018 161.545 78.8519 169.509 74.3779 180.728C79.4447 170.865 89.9458 164.082 101.867 164.084Z" fill="white"/>
<path d="M86.0777 204.993C85.0676 204.993 84.1267 204.619 83.4148 203.93C82.6992 203.239 82.3052 202.31 82.3052 201.315V180.983C82.3052 178.911 84.0373 177.197 86.1667 177.161L119.715 176.602C120.729 176.598 121.67 176.962 122.381 177.662C123.08 178.351 123.465 179.272 123.465 180.256V199.993C123.465 202.01 121.809 203.711 119.774 203.784L86.2253 204.991C86.1757 204.992 86.1264 204.993 86.0777 204.993ZM119.752 178.841L86.2035 179.4C85.2858 179.416 84.5393 180.125 84.5393 180.983V201.315C84.5393 201.697 84.6909 202.053 84.9661 202.319C85.2721 202.616 85.6911 202.766 86.1451 202.753L119.693 201.546C120.541 201.515 121.231 200.819 121.231 199.993V180.256C121.231 179.877 121.083 179.523 120.814 179.258C120.534 178.982 120.168 178.831 119.752 178.841Z" fill="white"/>
<path d="M103.082 192.409C102.072 192.409 101.067 192.073 100.24 191.395L85.297 179.151C84.8194 178.759 84.7488 178.054 85.1392 177.575C85.5298 177.096 86.2338 177.026 86.7112 177.417L101.654 189.661C102.521 190.373 103.785 190.333 104.659 189.568L119.17 176.875C119.636 176.469 120.341 176.517 120.747 176.983C121.152 177.449 121.104 178.156 120.639 178.562L106.128 191.255C105.25 192.023 104.164 192.409 103.082 192.409Z" fill="white"/>
<path d="M353.854 234.225C353.854 264.226 330.447 287.827 300.53 286.906C269.395 285.948 243.209 258.999 243.209 226.749C243.209 194.5 269.395 171.089 300.53 174.338C330.447 177.46 353.854 204.224 353.854 234.225Z" fill="#365170"/>
<path d="M361.939 231.638C361.939 261.639 338.531 285.24 308.614 284.319C277.479 283.36 251.294 256.411 251.294 224.162C251.294 191.913 277.479 168.502 308.614 171.751C338.532 174.873 361.939 201.637 361.939 231.638Z" fill="url(#paint5_linear_201_77239)"/>
<path d="M359.59 231.479C359.59 260.16 337.194 282.683 308.614 281.755C278.925 280.791 253.998 255.073 253.998 224.345C253.998 193.617 278.925 171.267 308.614 174.315C337.194 177.25 359.59 202.8 359.59 231.479Z" fill="#97A6B7"/>
<path d="M357.116 231.312C357.116 256.497 338.959 276.672 314.805 278.932C312.776 279.124 310.697 279.187 308.59 279.116C280.378 278.167 256.72 253.712 256.72 224.531C256.72 199.154 274.609 179.773 297.829 177.031C301.308 176.62 304.913 176.577 308.59 176.953C335.777 179.71 357.116 204.009 357.116 231.312Z" fill="white"/>
<path opacity="0.4" d="M314.805 278.932C312.776 279.124 310.697 279.188 308.59 279.117C280.378 278.167 256.72 253.712 256.72 224.531C256.72 199.155 274.609 179.774 297.829 177.031C305.67 183.168 312.691 191.02 313.9 200.324C315.873 215.489 300.756 222.469 299.087 238.951C297.716 252.55 304.214 267.701 314.805 278.932Z" fill="#E0E6ED"/>
<path d="M312.385 259.508C313.32 255.543 310.87 251.569 306.913 250.632C302.956 249.696 298.99 252.152 298.056 256.117C297.122 260.083 299.572 264.057 303.529 264.993C307.486 265.93 311.451 263.474 312.385 259.508Z" fill="#365170"/>
<path d="M305.22 195.935C289.839 195.935 275.774 201.577 264.969 210.907C262.751 212.822 262.593 216.207 264.662 218.281L264.87 218.489C266.711 220.335 269.669 220.47 271.64 218.764C280.649 210.964 292.381 206.242 305.22 206.242C318.059 206.242 329.792 210.964 338.801 218.764C340.772 220.469 343.73 220.335 345.571 218.489L345.779 218.281C347.848 216.207 347.689 212.822 345.472 210.907C334.667 201.578 320.602 195.935 305.22 195.935Z" fill="#365170"/>
<path d="M305.22 213.113C294.594 213.113 284.843 216.847 277.186 223.069C274.895 224.932 274.749 228.391 276.835 230.482L276.871 230.518C278.699 232.35 281.593 232.45 283.606 230.825C289.521 226.052 297.035 223.191 305.22 223.191C313.405 223.191 320.92 226.052 326.834 230.825C328.848 232.45 331.741 232.35 333.569 230.518L333.605 230.482C335.691 228.391 335.545 224.932 333.254 223.069C325.598 216.847 315.846 213.113 305.22 213.113Z" fill="#365170"/>
<path d="M289.097 242.771C290.907 244.585 293.715 244.789 295.857 243.386C298.549 241.624 301.765 240.599 305.22 240.599C308.675 240.599 311.891 241.624 314.583 243.386C316.725 244.789 319.533 244.585 321.343 242.771L321.366 242.747C323.585 240.524 323.236 236.827 320.644 235.055C316.25 232.05 310.941 230.292 305.22 230.292C299.499 230.292 294.19 232.05 289.796 235.055C287.204 236.827 286.855 240.524 289.074 242.747L289.097 242.771Z" fill="#365170"/>
<defs>
<linearGradient id="paint0_linear_201_77239" x1="255.414" y1="292.582" x2="385.631" y2="292.582" gradientUnits="userSpaceOnUse">
<stop offset="0.494" stop-color="#EBEFF2"/>
<stop offset="1" stop-color="white"/>
</linearGradient>
<linearGradient id="paint1_linear_201_77239" x1="-139.556" y1="907.258" x2="-78.3578" y2="849.677" gradientUnits="userSpaceOnUse">
<stop stop-color="#311944"/>
<stop offset="1" stop-color="#893976"/>
</linearGradient>
<linearGradient id="paint2_linear_201_77239" x1="149.819" y1="162.137" x2="313.899" y2="162.137" gradientUnits="userSpaceOnUse">
<stop stop-color="#FF9085"/>
<stop offset="1" stop-color="#FB6FBB"/>
</linearGradient>
<linearGradient id="paint3_linear_201_77239" x1="152.698" y1="113.623" x2="316.776" y2="113.623" gradientUnits="userSpaceOnUse">
<stop stop-color="#FF9085"/>
<stop offset="1" stop-color="#FB6FBB"/>
</linearGradient>
<linearGradient id="paint4_linear_201_77239" x1="-784.514" y1="1029.1" x2="-706.003" y2="955.235" gradientUnits="userSpaceOnUse">
<stop stop-color="#311944"/>
<stop offset="1" stop-color="#893976"/>
</linearGradient>
<linearGradient id="paint5_linear_201_77239" x1="331.769" y1="172.199" x2="273.952" y2="299.473" gradientUnits="userSpaceOnUse">
<stop stop-color="#AA80F9"/>
<stop offset="0.9964" stop-color="#6165D7"/>
</linearGradient>
</defs>
</svg>
