<svg width="66" height="66" viewBox="0 0 66 66" fill="none" xmlns="http://www.w3.org/2000/svg">
<path d="M37.9479 37.7128C36.1928 39.468 33.8642 40.4333 31.3809 40.4333C28.8977 40.4333 26.5691 39.468 24.8139 37.7128C23.0588 35.9597 22.0956 33.6291 22.0956 31.1479C22.0956 28.6667 23.0608 26.3361 24.8139 24.5809C26.5691 22.8257 28.8977 21.8604 31.3809 21.8604C33.8642 21.8604 36.1928 22.8257 37.9479 24.5809C39.7031 26.334 40.6663 28.6667 40.6663 31.1479C40.6663 33.6291 39.7031 35.9597 37.9479 37.7128ZM66 33C66 51.1954 51.1954 66 33 66C14.8046 66 0 51.1954 0 33C0 14.8046 14.8046 0 33 0C51.1954 0 66 14.8026 66 33ZM47.6829 44.484L42.2256 39.0122C43.8838 36.7373 44.7913 34.0148 44.7913 31.1458C44.7913 27.5632 43.3971 24.1952 40.8643 21.6624C38.3316 19.1297 34.9656 17.7334 31.3809 17.7334C27.7963 17.7334 24.4303 19.1297 21.8976 21.6624C19.3648 24.1952 17.9706 27.5632 17.9706 31.1458C17.9706 34.7284 19.3669 38.0964 21.8976 40.6271C24.4303 43.1599 27.7963 44.5562 31.3809 44.5562C34.2788 44.5562 37.0301 43.6281 39.3195 41.9368L44.7624 47.3942C45.1646 47.7984 45.6926 48.0006 46.2227 48.0006C46.7507 48.0006 47.2766 47.8005 47.6788 47.3983C48.4853 46.5981 48.4853 45.2904 47.6829 44.484Z" fill="#5CA0EF"/>
</svg>
