<svg width="32" height="32" viewBox="0 0 32 32" fill="none" xmlns="http://www.w3.org/2000/svg">
<g clip-path="url(#clip0_230_9050)">
<path fill-rule="evenodd" clip-rule="evenodd" d="M5.00486 0.927002C7.01797 0.927002 8.65236 2.56139 8.65236 4.5745C8.65236 6.58755 7.01797 8.22194 5.00486 8.22194C2.99181 8.22194 1.35742 6.58755 1.35742 4.5745C1.35742 2.56139 2.99181 0.927002 5.00486 0.927002ZM26.9939 0.927002C29.0069 0.927002 30.6413 2.56139 30.6413 4.5745C30.6413 6.58755 29.0069 8.22194 26.9939 8.22194C24.9808 8.22194 23.3464 6.58755 23.3464 4.5745C23.3464 2.56139 24.9808 0.927002 26.9939 0.927002ZM26.9939 23.7497C29.0069 23.7497 30.6413 25.384 30.6413 27.3972C30.6413 29.4103 29.0069 31.0447 26.9939 31.0447C24.9808 31.0447 23.3464 29.4103 23.3464 27.3972C23.3464 25.384 24.9808 23.7497 26.9939 23.7497ZM5.00486 23.7497C7.01797 23.7497 8.65236 25.384 8.65236 27.3972C8.65236 29.4103 7.01797 31.0447 5.00486 31.0447C2.99181 31.0447 1.35742 29.4103 1.35742 27.3972C1.35742 25.384 2.99181 23.7497 5.00486 23.7497ZM16.4568 6.46965L24.2021 9.78881C24.502 9.91781 24.685 10.1953 24.685 10.5222V16.9881C24.685 22.1191 21.0104 26.0817 16.0384 26.9486C11.0663 26.0817 7.39174 22.1191 7.39174 16.9881V10.5222C7.39174 10.1953 7.57471 9.91781 7.87469 9.78881L15.6199 6.46965C15.8974 6.35113 16.1794 6.35113 16.4568 6.46965ZM20.4018 14.981H11.597C11.2349 14.981 10.9397 15.2761 10.9397 15.6382V22.6362C10.9397 22.9976 11.2349 23.2927 11.597 23.2927H20.4018C20.7639 23.2927 21.059 22.9976 21.059 22.6362V15.6382C21.059 15.2761 20.7639 14.981 20.4018 14.981ZM15.9994 16.4519C16.7061 16.4519 17.2789 17.0247 17.2789 17.7315C17.2789 18.1924 17.0355 18.5964 16.6704 18.8216V20.7744C16.6704 21.1434 16.3683 21.4453 15.9994 21.4453C15.6297 21.4453 15.3276 21.1434 15.3276 20.7744V18.8216C14.9625 18.5964 14.7191 18.1924 14.7191 17.7315C14.7191 17.0247 15.2919 16.4519 15.9994 16.4519Z" fill="#C8DFF9"/>
<path fill-rule="evenodd" clip-rule="evenodd" d="M16.1971 5.93361L24.8048 9.62321C24.9893 9.70233 25.109 9.88379 25.109 10.0846V17.0448C25.109 22.1311 21.4073 26.5264 16.3995 27.3995L16.0858 27.4543C16.0286 27.4643 15.9701 27.4643 15.9129 27.4543L15.5995 27.3995C10.5915 26.5264 6.88979 22.1311 6.88979 17.0448V10.0846C6.88979 9.88379 7.00945 9.70233 7.19398 9.62321L15.8016 5.93361C15.9279 5.87946 16.0708 5.87946 16.1971 5.93361ZM15.9994 6.94104L7.89371 10.4156V17.0448C7.89371 21.6454 11.2422 25.6208 15.7719 26.4105L15.9994 26.4503L16.2268 26.4105C20.7566 25.6208 24.105 21.6454 24.105 17.0448V10.4156L15.9994 6.94104ZM19.9531 14.6377H20.2259C20.851 14.6377 21.3578 15.1472 21.3578 15.7697V22.4876C21.3578 23.1127 20.851 23.6196 20.2259 23.6196H11.7743C11.1496 23.6196 10.6409 23.1124 10.6409 22.4876V15.7697C10.6409 15.1475 11.1496 14.6377 11.7743 14.6377H12.0456V13.6897C12.0456 11.5148 13.8253 9.73515 16.0001 9.73515C18.175 9.73515 19.9531 11.5148 19.9531 13.6897V14.6377ZM13.0495 14.6377H13.6272V13.6897C13.6272 12.3865 14.6988 11.3153 16.0001 11.3153C17.3014 11.3153 18.373 12.3865 18.373 13.6897V14.6377H18.9492V13.6897C18.9492 12.0671 17.6227 10.7391 16.0001 10.7391C14.3774 10.7391 13.0495 12.067 13.0495 13.6897V14.6377ZM14.6311 14.6377H17.3691V13.6897C17.3691 12.9377 16.7511 12.3192 16.0001 12.3192C15.2492 12.3192 14.6311 12.9377 14.6311 13.6897V14.6377ZM11.7743 15.6417C11.7033 15.6417 11.6449 15.6989 11.6449 15.7697V22.4876C11.6449 22.5587 11.7033 22.6157 11.7743 22.6157H20.2259C20.2966 22.6157 20.3539 22.5584 20.3539 22.4876V15.7697C20.3539 15.6993 20.2966 15.6417 20.2259 15.6417H11.7743ZM16.0001 16.2295C16.9554 16.2295 17.7299 17.0054 17.7299 17.9608C17.7299 18.4777 17.5049 18.9407 17.1467 19.2576V20.8813C17.1467 21.513 16.6293 22.0278 16.0001 22.0278C15.3683 22.0278 14.8535 21.513 14.8535 20.8813C14.8535 20.8813 14.8535 19.2577 14.8536 19.2577C14.4949 18.9408 14.2689 18.4776 14.2689 17.9608C14.2689 17.0056 15.045 16.2295 16.0001 16.2295ZM16.0001 17.2334C15.5988 17.2334 15.2728 17.5595 15.2728 17.9608C15.2728 18.2229 15.4113 18.4521 15.619 18.5801C15.7672 18.6715 15.8574 18.8332 15.8574 19.0073V20.8813C15.8574 20.9598 15.9215 21.0239 16.0001 21.0239C16.0784 21.0239 16.1427 20.9598 16.1427 20.8813V19.0073C16.1427 18.8332 16.233 18.6715 16.3812 18.5801C16.5888 18.4521 16.726 18.2228 16.726 17.9608C16.726 17.5596 16.4012 17.2334 16.0001 17.2334ZM5.00487 0.439209C7.29506 0.439209 9.15432 2.29853 9.15432 4.58867C9.15432 6.8788 7.29506 8.73813 5.00487 8.73813C2.71473 8.73813 0.855469 6.8788 0.855469 4.58867C0.855469 2.29853 2.71473 0.439209 5.00487 0.439209ZM5.00487 1.44313C3.26883 1.44313 1.85939 2.85257 1.85939 4.58867C1.85939 6.3247 3.26883 7.73421 5.00487 7.73421C6.74096 7.73421 8.1504 6.3247 8.1504 4.58867C8.1504 2.85257 6.74096 1.44313 5.00487 1.44313ZM3.02783 5.04156C2.83175 4.8458 2.8315 4.52774 3.0272 4.33166C3.22297 4.13559 3.54102 4.13533 3.7371 4.33104L4.34516 4.93816L6.29014 3.17464C6.49538 2.98854 6.81312 3.0041 6.99922 3.20934C7.18526 3.41458 7.16976 3.73232 6.96452 3.91836L4.66573 6.00269C4.46752 6.18233 4.1632 6.17505 3.9739 5.98606L3.02783 5.04156ZM26.9939 0.439209C29.284 0.439209 31.1433 2.29853 31.1433 4.58867C31.1433 6.8788 29.284 8.73813 26.9939 8.73813C24.7037 8.73813 22.8444 6.8788 22.8444 4.58867C22.8444 2.29853 24.7037 0.439209 26.9939 0.439209ZM26.9939 1.44313C25.2578 1.44313 23.8483 2.85257 23.8483 4.58867C23.8483 6.3247 25.2578 7.73421 26.9939 7.73421C28.7299 7.73421 30.1394 6.3247 30.1394 4.58867C30.1394 2.85257 28.7299 1.44313 26.9939 1.44313ZM25.0168 5.04156C24.8207 4.8458 24.8205 4.52774 25.0162 4.33166C25.2119 4.13559 25.53 4.13533 25.7261 4.33104L26.3342 4.93816L28.2792 3.17464C28.4844 2.98854 28.8021 3.0041 28.9882 3.20934C29.1743 3.41458 29.1587 3.73232 28.9535 3.91836L26.6547 6.00269C26.4565 6.18233 26.1522 6.17505 25.9629 5.98606L25.0168 5.04156ZM26.9939 23.2619C29.284 23.2619 31.1433 25.1212 31.1433 27.4113C31.1433 29.7015 29.284 31.5608 26.9939 31.5608C24.7037 31.5608 22.8444 29.7015 22.8444 27.4113C22.8444 25.1212 24.7037 23.2619 26.9939 23.2619ZM26.9939 24.2658C25.2578 24.2658 23.8483 25.6753 23.8483 27.4113C23.8483 29.1474 25.2578 30.5569 26.9939 30.5569C28.7299 30.5569 30.1394 29.1474 30.1394 27.4113C30.1394 25.6753 28.7299 24.2658 26.9939 24.2658ZM25.0168 27.8642C24.8207 27.6685 24.8205 27.3504 25.0162 27.1543C25.2119 26.9583 25.53 26.958 25.7261 27.1538L26.3342 27.7608L28.2792 25.9973C28.4844 25.8113 28.8021 25.8268 28.9882 26.032C29.1743 26.2372 29.1587 26.555 28.9535 26.7411L26.6547 28.8253C26.4565 29.005 26.1522 28.9977 25.9629 28.8087L25.0168 27.8642ZM5.00487 23.2619C7.29506 23.2619 9.15432 25.1212 9.15432 27.4113C9.15432 29.7015 7.29506 31.5608 5.00487 31.5608C2.71473 31.5608 0.855469 29.7015 0.855469 27.4113C0.855469 25.1212 2.71473 23.2619 5.00487 23.2619ZM5.00487 24.2658C3.26883 24.2658 1.85939 25.6753 1.85939 27.4113C1.85939 29.1474 3.26883 30.5569 5.00487 30.5569C6.74096 30.5569 8.1504 29.1474 8.1504 27.4113C8.1504 25.6753 6.74096 24.2658 5.00487 24.2658ZM3.02783 27.8642C2.83175 27.6685 2.8315 27.3504 3.0272 27.1543C3.22297 26.9583 3.54102 26.958 3.7371 27.1538L4.34516 27.7608L6.29014 25.9973C6.49538 25.8113 6.81312 25.8268 6.99922 26.032C7.18526 26.2372 7.16976 26.555 6.96452 26.7411L4.66573 28.8253C4.46752 29.005 4.1632 28.9977 3.9739 28.8087L3.02783 27.8642ZM3.78159 21.7917C3.88882 22.0471 3.76841 22.3416 3.51291 22.4487C3.25748 22.5559 2.96308 22.4356 2.85585 22.1801C2.14538 20.4867 1.75254 18.6276 1.75254 16.6774C1.75254 14.2395 2.36631 11.9438 3.44734 9.9365C3.57873 9.69261 3.88342 9.60119 4.12731 9.73257C4.37127 9.8639 4.46262 10.1686 4.33123 10.4125C3.32656 12.2781 2.75646 14.4117 2.75646 16.6774C2.75646 18.4899 3.12126 20.2178 3.78159 21.7917ZM21.1324 28.8873C21.3876 28.7797 21.6823 28.8996 21.7898 29.1549C21.8974 29.4103 21.7775 29.7048 21.5222 29.8124C19.8234 30.5283 17.9573 30.9242 15.9994 30.9242C13.9474 30.9242 11.9962 30.4893 10.2329 29.707C9.97967 29.5947 9.86529 29.2979 9.9776 29.0447C10.09 28.7915 10.3868 28.6771 10.64 28.7894C12.2788 29.5164 14.0923 29.9203 15.9994 29.9203C17.819 29.9203 19.5535 29.5526 21.1324 28.8873ZM27.6525 10.3847C27.5205 10.141 27.6112 9.83617 27.8547 9.70421C28.0984 9.57226 28.4033 9.66293 28.5352 9.9065C29.6263 11.921 30.2462 14.2274 30.2462 16.6774C30.2462 18.6277 29.8534 20.487 29.1428 22.1804C29.0355 22.4359 28.7411 22.5562 28.4856 22.4491C28.2302 22.3419 28.1098 22.0474 28.217 21.792C28.8774 20.218 29.2423 18.49 29.2423 16.6774C29.2423 14.4004 28.6665 12.2569 27.6525 10.3847ZM10.9902 4.41606C10.7339 4.52103 10.4405 4.39805 10.3355 4.14167C10.2305 3.8853 10.3534 3.59196 10.6098 3.48699C12.2728 2.80608 14.0926 2.43055 15.9994 2.43055C17.946 2.43055 19.802 2.82195 21.4929 3.53003C21.7485 3.63701 21.8691 3.93135 21.762 4.18691C21.655 4.44247 21.3607 4.56307 21.1051 4.45602C19.5336 3.79795 17.8086 3.43447 15.9994 3.43447C14.2271 3.43447 12.5358 3.78321 10.9902 4.41606Z" fill="#5CA0EF"/>
</g>
<defs>
<clipPath id="clip0_230_9050">
<rect width="32" height="32" fill="white"/>
</clipPath>
</defs>
</svg>
