<svg width="66" height="66" viewBox="0 0 66 66" fill="none" xmlns="http://www.w3.org/2000/svg">
<g clip-path="url(#clip0_422_25738)">
<path d="M33 66C51.2254 66 66 51.2254 66 33C66 14.7746 51.2254 0 33 0C14.7746 0 0 14.7746 0 33C0 51.2254 14.7746 66 33 66Z" fill="#FFC107"/>
<path d="M50.0801 37.6497C49.0205 36.7903 47.9441 35.9494 46.851 35.127C46.7056 35.0339 46.59 34.9012 46.5178 34.7445C46.4456 34.5877 46.4199 34.4136 46.4436 34.2427C46.4888 33.3648 46.472 32.4818 46.4436 31.6027C46.4264 31.4869 46.4421 31.3686 46.4888 31.2612C46.5355 31.1539 46.6114 31.0618 46.7079 30.9955C47.8281 30.1396 48.9354 29.2695 50.0466 28.4019C50.6395 27.9392 50.7169 27.5692 50.3495 26.9311C49.2091 24.9614 48.0687 22.9883 46.9283 21.0117C46.5609 20.3788 46.2155 20.2589 45.5464 20.5283C44.2136 21.0633 42.8794 21.5957 41.5503 22.1422C41.451 22.1887 41.3408 22.2069 41.2318 22.1946C41.1228 22.1823 41.0194 22.1401 40.9329 22.0726C40.1491 21.5841 39.3551 21.1123 38.5417 20.6753C38.2736 20.5322 38.1369 20.3865 38.097 20.081C37.9178 18.6992 37.7218 17.3186 37.5195 15.938C37.4125 15.2071 37.107 14.9506 36.3786 14.9506C34.115 14.9506 31.8519 14.9506 29.5891 14.9506C28.8157 14.9506 28.527 15.1916 28.4161 15.947C28.2124 17.3272 28.0178 18.7082 27.8321 20.0901C27.8243 20.2141 27.7822 20.3335 27.7105 20.435C27.6388 20.5365 27.5403 20.6161 27.4261 20.665C26.6011 21.1058 25.7941 21.5841 24.9975 22.0829C24.911 22.15 24.8075 22.1915 24.6986 22.2029C24.5897 22.2143 24.4798 22.1951 24.3813 22.1474C23.0536 21.5995 21.7194 21.0685 20.3852 20.5322C19.7407 20.2744 19.3707 20.3969 19.0278 20.9885C17.8961 22.9479 16.7647 24.9069 15.6337 26.8654C15.2174 27.5847 15.2793 27.9198 15.9367 28.4342C17.0337 29.2952 18.1281 30.1563 19.2367 31.0123C19.3285 31.0741 19.4012 31.1603 19.4468 31.2612C19.4923 31.362 19.5088 31.4736 19.4945 31.5833C19.4648 32.5192 19.4597 33.4576 19.4945 34.3935C19.51 34.5177 19.4906 34.6438 19.4384 34.7577C19.3863 34.8715 19.3035 34.9686 19.1993 35.038C18.0821 35.8974 16.9714 36.7636 15.8671 37.6368C15.3166 38.0712 15.2393 38.4592 15.5783 39.047C16.729 41.0442 17.8832 43.0397 19.0407 45.0334C19.3772 45.6135 19.751 45.7385 20.3607 45.4936C21.7052 44.9522 23.0536 44.4134 24.3929 43.8591C24.4924 43.813 24.6028 43.7955 24.7117 43.8087C24.8205 43.8219 24.9235 43.8653 25.0091 43.9338C25.7658 44.4082 26.5315 44.8749 27.3294 45.2886C27.6568 45.4601 27.8154 45.6367 27.8618 46.0092C28.0281 47.364 28.2292 48.7163 28.4251 50.0685C28.5308 50.7994 28.8299 51.0546 29.5646 51.0546C31.8411 51.0546 34.1185 51.0546 36.3967 51.0546C37.1082 51.0546 37.415 50.7968 37.5169 50.0981C37.7154 48.7317 37.9165 47.3666 38.0918 45.9976C38.1356 45.6483 38.2748 45.4665 38.5932 45.3028C39.3636 44.907 40.1127 44.4712 40.8375 43.997C40.9548 43.903 41.0968 43.8449 41.2463 43.8296C41.3958 43.8142 41.5466 43.8424 41.6805 43.9106C42.9773 44.4559 44.287 44.9754 45.5928 45.4975C46.1871 45.7347 46.5764 45.6006 46.8909 45.0566C48.052 43.05 49.2121 41.0412 50.3714 39.0302C50.4725 38.8203 50.5624 38.6051 50.6408 38.3857C50.4565 38.146 50.3147 37.8404 50.0801 37.6497ZM33 39.3448C31.7451 39.3448 30.5184 38.9727 29.475 38.2755C28.4316 37.5783 27.6184 36.5874 27.1382 35.4281C26.658 34.2687 26.5323 32.993 26.7771 31.7622C27.022 30.5314 27.6262 29.4009 28.5136 28.5136C29.4009 27.6263 30.5314 27.022 31.7622 26.7772C32.993 26.5323 34.2687 26.658 35.428 27.1382C36.5874 27.6184 37.5783 28.4317 38.2755 29.4751C38.9726 30.5184 39.3448 31.7451 39.3448 33C39.3448 33.8332 39.1807 34.6583 38.8618 35.4281C38.5429 36.1978 38.0756 36.8973 37.4864 37.4864C36.8973 38.0756 36.1978 38.543 35.428 38.8618C34.6583 39.1807 33.8332 39.3448 33 39.3448Z" fill="white"/>
</g>
<defs>
<clipPath id="clip0_422_25738">
<rect width="66" height="66" fill="white"/>
</clipPath>
</defs>
</svg>
