<svg width="22" height="22" viewBox="0 0 22 22" fill="none" xmlns="http://www.w3.org/2000/svg">
<path d="M2.75 16.75V16.55C2.75 14.8698 2.75 14.0298 3.07698 13.388C3.3646 12.8235 3.82354 12.3646 4.38803 12.077C5.02976 11.75 5.86984 11.75 7.55 11.75H13.95C15.6302 11.75 16.4702 11.75 17.112 12.077C17.6765 12.3646 18.1354 12.8235 18.423 13.388C18.75 14.0298 18.75 14.8698 18.75 16.55V16.75M2.75 16.75C1.64543 16.75 0.75 17.6454 0.75 18.75C0.75 19.8546 1.64543 20.75 2.75 20.75C3.85457 20.75 4.75 19.8546 4.75 18.75C4.75 17.6454 3.85457 16.75 2.75 16.75ZM18.75 16.75C17.6454 16.75 16.75 17.6454 16.75 18.75C16.75 19.8546 17.6454 20.75 18.75 20.75C19.8546 20.75 20.75 19.8546 20.75 18.75C20.75 17.6454 19.8546 16.75 18.75 16.75ZM10.75 16.75C9.64543 16.75 8.75 17.6454 8.75 18.75C8.75 19.8546 9.64543 20.75 10.75 20.75C11.8546 20.75 12.75 19.8546 12.75 18.75C12.75 17.6454 11.8546 16.75 10.75 16.75ZM10.75 16.75V6.75M4.75 6.75H16.75C17.6819 6.75 18.1478 6.75 18.5154 6.59776C19.0054 6.39477 19.3948 6.00542 19.5978 5.51537C19.75 5.14782 19.75 4.68188 19.75 3.75C19.75 2.81812 19.75 2.35218 19.5978 1.98463C19.3948 1.49458 19.0054 1.10523 18.5154 0.902241C18.1478 0.75 17.6819 0.75 16.75 0.75H4.75C3.81812 0.75 3.35218 0.75 2.98463 0.902241C2.49458 1.10523 2.10523 1.49458 1.90224 1.98463C1.75 2.35218 1.75 2.81812 1.75 3.75C1.75 4.68188 1.75 5.14782 1.90224 5.51537C2.10523 6.00542 2.49458 6.39477 2.98463 6.59776C3.35218 6.75 3.81812 6.75 4.75 6.75Z" stroke="black" stroke-width="1.5" stroke-linecap="round" stroke-linejoin="round"/>
</svg>
