<svg width="32" height="32" viewBox="0 0 32 32" fill="none" xmlns="http://www.w3.org/2000/svg">
<path fill-rule="evenodd" clip-rule="evenodd" d="M9.83288 15.3627H6.30071C6.04709 15.3627 5.83984 15.1555 5.83984 14.9018V11.3697C5.83984 11.1161 6.04709 10.9088 6.30071 10.9088H9.83288C10.0866 10.9088 10.2937 11.1161 10.2937 11.3697V14.9018C10.2937 15.1555 10.0866 15.3627 9.83288 15.3627ZM9.83288 21.7203H6.30071C6.04709 21.7203 5.83984 21.5131 5.83984 21.2595V17.7273C5.83984 17.4736 6.04709 17.2665 6.30071 17.2665H9.83288C10.0866 17.2665 10.2937 17.4736 10.2937 17.7273V21.2595C10.2937 21.5131 10.0866 21.7203 9.83288 21.7203ZM9.83288 28.0795H6.30071C6.04709 28.0795 5.83984 27.8723 5.83984 27.6186V24.0865C5.83984 23.8328 6.04709 23.624 6.30071 23.624H9.83288C10.0866 23.624 10.2937 23.8328 10.2937 24.0865V27.6186C10.2937 27.8723 10.0866 28.0795 9.83288 28.0795ZM18.5859 13.6353L17.2158 12.2652L17.7322 11.1039C17.3916 10.5503 17.1405 9.94687 16.9901 9.31546L15.8051 8.85906V6.92186L16.9901 6.46546C17.1405 5.83324 17.3916 5.22975 17.7322 4.67703L17.2158 3.51487L18.5859 2.14564L19.7472 2.66122C20.3008 2.32058 20.9043 2.07041 21.5356 1.91995L21.992 0.734131H23.9293L24.3857 1.91995C25.0178 2.07041 25.6213 2.32058 26.1741 2.66122L26.9457 2.31888L27.3363 2.14564L28.7055 3.51487L28.1899 4.67703C28.5305 5.22975 28.7807 5.83324 28.9311 6.46546L30.1169 6.92186V8.85906L28.9311 9.31546C28.7807 9.94687 28.5305 10.5503 28.1899 11.1031L28.7055 12.2652L27.3363 13.6353L26.9457 13.462L26.9459 13.4618L26.1741 13.1189C25.6213 13.4595 25.0178 13.7105 24.3857 13.861L23.9293 15.0459H21.992L21.5356 13.8602C20.9043 13.7097 20.3008 13.4595 19.748 13.1189L18.5859 13.6353ZM22.9607 4.46659C21.0704 4.46659 19.5376 5.99939 19.5376 7.8904C19.5376 9.78066 21.0704 11.3135 22.9607 11.3135C24.8517 11.3135 26.3845 9.78066 26.3845 7.8904C26.3845 5.99939 24.8517 4.46659 22.9607 4.46659Z" fill="#C8DFF9"/>
<path fill-rule="evenodd" clip-rule="evenodd" d="M23.4592 15.3734V31.0588C23.4592 31.336 23.2345 31.5608 22.9573 31.5608H2.07813C1.80092 31.5608 1.57617 31.336 1.57617 31.0588V3.99836C1.57617 3.72115 1.80092 3.4964 2.07813 3.4964H16.8875C16.9113 3.42111 16.9529 3.3509 17.0112 3.29261L18.3435 1.96028C18.4904 1.81339 18.7126 1.77217 18.9024 1.85656C18.9024 1.85656 19.7978 2.25468 19.7978 2.25468C20.2395 2.00727 20.7078 1.81326 21.1943 1.67604L21.5476 0.760464C21.6224 0.566895 21.8085 0.439209 22.016 0.439209H23.9005C24.1082 0.439209 24.2945 0.567209 24.3691 0.761154L24.7206 1.67617C25.2071 1.81339 25.6752 2.00733 26.1167 2.25468L27.0121 1.85656C27.202 1.77217 27.4241 1.81339 27.571 1.96028L28.9033 3.29261C29.05 3.4393 29.0913 3.66111 29.0073 3.85079L28.6106 4.74647C28.8581 5.18839 29.0522 5.65709 29.1896 6.14506L30.1027 6.4965C30.2965 6.5711 30.4244 6.75733 30.4244 6.96495V8.84956C30.4244 9.05719 30.2965 9.24341 30.1027 9.31802C30.1027 9.31802 29.1893 9.66958 29.1893 9.66952C29.0517 10.156 28.8569 10.6241 28.6103 11.0656L29.0073 11.9618C29.0913 12.1515 29.05 12.3733 28.9033 12.52L27.571 13.8524C27.4243 13.9991 27.2025 14.0403 27.0128 13.9563L26.1174 13.5597C25.6766 13.8071 25.2074 14.0012 24.7205 14.1384L24.369 15.0517C24.2944 15.2455 24.1082 15.3734 23.9005 15.3734H23.4592ZM17.196 4.50032C15.2315 4.50032 4.97802 4.50032 2.58009 4.50032V30.5569H22.4553V15.3734H22.016C21.8083 15.3734 21.622 15.2455 21.5475 15.0517L21.196 14.1385C20.7082 14.0009 20.2397 13.806 19.798 13.5593L18.9018 13.9563C18.7121 14.0403 18.4902 13.9991 18.3435 13.8524L17.2312 12.74H13.1046C12.8276 12.74 12.6026 12.5151 12.6026 12.238C12.6026 11.961 12.8276 11.7361 13.1046 11.7361H17.0076C17.1255 11.4709 17.3055 11.066 17.3055 11.0661C17.0583 10.6254 16.8641 10.1564 16.7258 9.66977L15.8118 9.31802C15.618 9.24341 15.4901 9.05719 15.4901 8.84956V7.88404H5.83612C5.55904 7.88404 5.33416 7.6591 5.33416 7.38208C5.33416 7.10506 5.55904 6.88012 5.83612 6.88012H15.4974C15.5269 6.70782 15.6449 6.56075 15.8118 6.4965L16.7257 6.14481C16.864 5.65703 17.0582 5.18851 17.3056 4.74685L17.196 4.50032ZM13.1046 14.568C12.8276 14.568 12.6026 14.343 12.6026 14.066C12.6026 13.789 12.8276 13.564 13.1046 13.564H16.8687C17.1458 13.564 17.3707 13.789 17.3707 14.066C17.3707 14.343 17.1458 14.568 16.8687 14.568H13.1046ZM6.29692 10.4231H9.8291C10.359 10.4231 10.7919 10.8561 10.7919 11.386V14.9181C10.7919 15.448 10.359 15.8809 9.8291 15.8809H6.29692C5.76711 15.8809 5.33416 15.448 5.33416 14.9181V11.386C5.33416 10.8561 5.76711 10.4231 6.29692 10.4231ZM6.33809 14.877H9.788V11.4271L6.33809 11.427V14.877ZM6.7682 13.4161C6.57212 13.2204 6.57175 12.9023 6.76745 12.7062C6.96315 12.5101 7.28127 12.5098 7.47735 12.7055L7.85765 13.085L8.61147 12.1528C8.78565 11.9374 9.10194 11.904 9.31735 12.0782C9.53281 12.2524 9.56626 12.5687 9.39208 12.7841L8.28789 14.1496C8.19848 14.2603 8.06627 14.3277 7.92428 14.3353C7.78223 14.3428 7.64369 14.2898 7.54298 14.1893L6.7682 13.4161ZM6.29692 16.7807H9.8291C10.359 16.7807 10.7919 17.2137 10.7919 17.7436V21.2757C10.7919 21.8056 10.359 22.2386 9.8291 22.2386H6.29692C5.76711 22.2386 5.33416 21.8056 5.33416 21.2757V17.7436C5.33416 17.2137 5.76711 16.7807 6.29692 16.7807ZM6.33809 17.7847V21.2346H9.788V17.7847H6.33809ZM6.76783 19.7734C6.57194 19.5775 6.57194 19.2594 6.76783 19.0635C6.96372 18.8676 7.28183 18.8676 7.47772 19.0635L7.85802 19.4438L8.61147 18.512C8.78565 18.2966 9.10194 18.2631 9.31735 18.4373C9.53281 18.6115 9.56626 18.9278 9.39208 19.1433L8.28789 20.5088C8.19841 20.6195 8.06615 20.6869 7.92403 20.6945C7.78191 20.7019 7.64325 20.6488 7.5426 20.5481L6.76783 19.7734ZM6.29692 23.1384H9.8291C10.3585 23.1384 10.7919 23.5733 10.7919 24.1027V27.6349C10.7919 28.1648 10.359 28.5977 9.8291 28.5977H6.29692C5.76711 28.5977 5.33416 28.1648 5.33416 27.6349V24.1027C5.33416 23.5733 5.76754 23.1384 6.29692 23.1384ZM6.33809 24.1423V27.5938H9.788V24.1423H6.33809ZM6.7682 26.1328C6.57212 25.9371 6.57175 25.6191 6.76745 25.423C6.96315 25.2269 7.28127 25.2265 7.47735 25.4222L7.85765 25.8018L8.61147 24.8696C8.78565 24.6542 9.10194 24.6207 9.31735 24.7949C9.53281 24.9692 9.56626 25.2855 9.39208 25.5009L8.28789 26.8664C8.19848 26.977 8.06627 27.0445 7.92428 27.052C7.78223 27.0596 7.64369 27.0066 7.54298 26.9061L6.7682 26.1328ZM13.1046 25.4568C12.8276 25.4568 12.6026 25.2319 12.6026 24.9548C12.6026 24.6778 12.8276 24.4529 13.1046 24.4529H18.8869C19.1639 24.4529 19.3889 24.6778 19.3889 24.9548C19.3889 25.2319 19.1639 25.4568 18.8869 25.4568H13.1046ZM13.1046 20.9255C12.8276 20.9255 12.6026 20.7007 12.6026 20.4236C12.6026 20.1466 12.8276 19.9216 13.1046 19.9216H16.8687C17.1458 19.9216 17.3707 20.1466 17.3707 20.4236C17.3707 20.7007 17.1458 20.9255 16.8687 20.9255H13.1046ZM13.1046 19.0977C12.8276 19.0977 12.6026 18.8727 12.6026 18.5957C12.6026 18.3186 12.8276 18.0937 13.1046 18.0937H18.8869C19.1639 18.0937 19.3889 18.3186 19.3889 18.5957C19.3889 18.8727 19.1639 19.0977 18.8869 19.0977H13.1046ZM13.1046 27.2848C12.8276 27.2848 12.6026 27.0598 12.6026 26.7828C12.6026 26.5057 12.8276 26.2808 13.1046 26.2808H16.8687C17.1458 26.2808 17.3707 26.5057 17.3707 26.7828C17.3707 27.0598 17.1458 27.2848 16.8687 27.2848H13.1046ZM23.876 2.27701L23.5557 1.44313H22.3603L22.0382 2.2777C21.9787 2.43199 21.8469 2.54707 21.686 2.58534C21.1232 2.71912 20.5863 2.94148 20.0929 3.24548C19.9519 3.33239 19.777 3.34412 19.6257 3.27679L18.8096 2.914L17.9649 3.75861L18.3278 4.57468C18.3951 4.72608 18.3834 4.90095 18.2965 5.04194C17.9922 5.53574 17.7697 6.07297 17.6341 6.63799C17.5956 6.79861 17.4805 6.93 17.3263 6.98936L16.4941 7.30961V8.5049L17.3263 8.82515C17.4804 8.88445 17.5954 9.01571 17.634 9.17615C17.7696 9.73929 17.9919 10.2781 18.296 10.77C18.3833 10.9111 18.3952 11.0863 18.3278 11.2379L17.9649 12.054L18.81 12.899L19.6263 12.5374C19.7771 12.4706 19.9512 12.4822 20.0918 12.5683C20.5856 12.8708 21.1226 13.0953 21.6875 13.2291C21.8488 13.2673 21.9808 13.3826 22.0403 13.5372L22.3606 14.3695H23.5558L23.8762 13.5372C23.9356 13.3827 24.0675 13.2674 24.2285 13.2292C24.7912 13.0955 25.3295 12.8733 25.8209 12.5694C25.9619 12.4823 26.1367 12.4703 26.2882 12.5374L27.1046 12.899L27.9499 12.0536L27.5883 11.2373C27.5216 11.0864 27.5331 10.9124 27.6193 10.7718C27.9218 10.278 28.1463 9.74086 28.2802 9.17759C28.3184 9.01647 28.4337 8.88464 28.5882 8.82515L29.4204 8.5049V7.30961L28.5882 6.98936C28.4336 6.92981 28.3183 6.7978 28.28 6.63661C28.1463 6.07203 27.924 5.5353 27.62 5.04194C27.5332 4.90114 27.5214 4.72658 27.5883 4.57537L27.9499 3.75899L27.105 2.914L26.2889 3.27679C26.1375 3.34412 25.9627 3.33239 25.8216 3.24548C25.3282 2.94148 24.7914 2.71912 24.2285 2.58534C24.0673 2.54701 23.9354 2.43168 23.876 2.27701ZM22.9573 4.11726C25.0508 4.11726 26.7482 5.81276 26.7482 7.90632C26.7482 9.99974 25.0507 11.6972 22.9573 11.6972C20.8638 11.6972 19.1682 9.99981 19.1682 7.90632C19.1682 5.8127 20.8636 4.11726 22.9573 4.11726ZM22.9573 5.12119C21.4184 5.12119 20.1721 6.36743 20.1721 7.90632C20.1721 9.44526 21.4183 10.6933 22.9573 10.6933C24.4963 10.6933 25.7443 9.44539 25.7443 7.90632C25.7443 6.3673 24.4963 5.12119 22.9573 5.12119Z" fill="#5CA0EF"/>
</svg>
