<svg width="16" height="16" viewBox="0 0 16 16" fill="none" xmlns="http://www.w3.org/2000/svg">
<path fill-rule="evenodd" clip-rule="evenodd" d="M7.50132 7.63152H5.5013C4.48878 7.63152 3.66797 8.45232 3.66797 9.46485V10.4657H4.66797V9.46485C4.66797 9.00465 5.04106 8.63152 5.5013 8.63152H10.5013C10.9615 8.63152 11.3346 9.00465 11.3346 9.46485V10.4657H12.3346V9.46485C12.3346 8.45232 11.5138 7.63152 10.5013 7.63152H8.50132V5.5343H7.50132V7.63152Z" fill="#1C60AF"/>
<path fill-rule="evenodd" clip-rule="evenodd" d="M5.00227 2.50004C5.00227 1.85571 5.52461 1.33337 6.16894 1.33337H9.83405C10.4784 1.33337 11.0007 1.85571 11.0007 2.50004V4.86762C11.0007 5.51195 10.4784 6.03429 9.83405 6.03429H6.16894C5.52461 6.03429 5.00227 5.51195 5.00227 4.86762V2.50004ZM6.16894 2.33337C6.07689 2.33337 6.00227 2.40799 6.00227 2.50004V4.86762C6.00227 4.95967 6.07689 5.03429 6.16894 5.03429H9.83405C9.92605 5.03429 10.0007 4.95967 10.0007 4.86762V2.50004C10.0007 2.40799 9.92605 2.33337 9.83405 2.33337H6.16894ZM1.33301 11.1324C1.33301 10.4881 1.85534 9.96577 2.49967 9.96577H6.16475C6.80912 9.96577 7.33145 10.4881 7.33145 11.1324V13.5C7.33145 14.1444 6.80905 14.6667 6.16475 14.6667H2.49967C1.85534 14.6667 1.33301 14.1444 1.33301 13.5V11.1324ZM2.49967 10.9658C2.40763 10.9658 2.33301 11.0404 2.33301 11.1324V13.5C2.33301 13.5921 2.40763 13.6667 2.49967 13.6667H6.16475C6.25681 13.6667 6.33142 13.5921 6.33142 13.5V11.1324C6.33142 11.0404 6.2568 10.9658 6.16475 10.9658H2.49967ZM8.66765 11.1324C8.66765 10.4881 9.18999 9.96577 9.83432 9.96577H13.4994C14.1437 9.96577 14.6661 10.4881 14.6661 11.1324V13.5C14.6661 14.1444 14.1437 14.6667 13.4994 14.6667H9.83432C9.18999 14.6667 8.66765 14.1444 8.66765 13.5V11.1324ZM9.83432 10.9658C9.74225 10.9658 9.66765 11.0404 9.66765 11.1324V13.5C9.66765 13.5921 9.74225 13.6667 9.83432 13.6667H13.4994C13.5915 13.6667 13.6661 13.5921 13.6661 13.5V11.1324C13.6661 11.0404 13.5915 10.9658 13.4994 10.9658H9.83432Z" fill="#1C60AF"/>
</svg>
