<svg width="60" height="60" viewBox="0 0 60 60" fill="none" xmlns="http://www.w3.org/2000/svg">
<path d="M30 60C46.5685 60 60 46.5685 60 30C60 13.4315 46.5685 0 30 0C13.4315 0 0 13.4315 0 30C0 46.5685 13.4315 60 30 60Z" fill="#388E3C"/>
<path d="M44.5119 24.265L29.9276 38.8492C28.3276 40.4492 25.7355 40.4493 24.1354 38.8492L15.6952 30.409C14.0951 28.8097 14.0951 26.2163 15.6952 24.6168C17.2953 23.0167 19.8873 23.0167 21.4874 24.6168L27.0315 30.1603L38.7197 18.4725C40.3198 16.8724 42.9118 16.8724 44.5119 18.4725C46.112 20.0722 46.112 22.6655 44.5119 24.265Z" fill="white"/>
</svg>
