<svg width="32" height="32" viewBox="0 0 32 32" fill="none" xmlns="http://www.w3.org/2000/svg">
<path fill-rule="evenodd" clip-rule="evenodd" d="M23.8535 1.00165V4.35437C23.8535 4.54825 24.0118 4.70656 24.2057 4.70656H27.5584C27.5246 4.63183 27.4749 4.56249 27.4126 4.50019L24.0598 1.14747C23.9976 1.08522 23.9282 1.03722 23.8535 1.00165Z" fill="#C8DFF9"/>
<path fill-rule="evenodd" clip-rule="evenodd" d="M19.3322 13.9579L22.1671 15.2253C22.3098 15.2891 22.4017 15.4308 22.4017 15.587C22.4017 15.7433 22.3098 15.885 22.1671 15.9487L15.8498 18.7729C15.7469 18.8189 15.6293 18.8189 15.5265 18.7729L9.20909 15.9487C9.06641 15.885 8.97461 15.7433 8.97461 15.587C8.97461 15.4308 9.06641 15.2891 9.20909 15.2253L12.0441 13.9579L15.5265 15.5147C15.6293 15.5607 15.7469 15.5607 15.8498 15.5147L19.3322 13.9579Z" fill="#C8DFF9"/>
<path fill-rule="evenodd" clip-rule="evenodd" d="M15.5265 5.88465C15.6293 5.83866 15.7469 5.83866 15.8498 5.88465C16.6791 6.25541 20.4811 7.95518 22.1671 8.70887C22.3098 8.77268 22.4017 8.91436 22.4017 9.0706C22.4017 9.22683 22.3098 9.36851 22.1671 9.43232C20.4811 10.1861 16.6791 11.8858 15.8498 12.2565C15.7469 12.3025 15.6293 12.3025 15.5265 12.2565C14.6972 11.8858 10.8951 10.186 9.20909 9.43232C9.06641 9.36851 8.97461 9.22683 8.97461 9.0706C8.97461 8.91436 9.06641 8.77268 9.20909 8.70887C10.8951 7.95518 14.6972 6.25541 15.5265 5.88465Z" fill="#C8DFF9"/>
<path fill-rule="evenodd" clip-rule="evenodd" d="M27.7953 4.17392C28.0097 4.38826 28.1205 4.65229 28.1205 4.9573V30.4522C28.1205 31.0621 27.6218 31.5608 27.012 31.5608H4.98968C4.37616 31.5608 3.87891 31.0616 3.87891 30.4522V1.55005C3.87891 0.937029 4.37673 0.439209 4.98968 0.439209H23.6024C23.9074 0.439209 24.1714 0.550017 24.3858 0.764354L27.7953 4.17392ZM23.3507 1.44313H4.98968C4.9307 1.44313 4.88283 1.49101 4.88283 1.55005V30.4522C4.88283 30.5103 4.9312 30.5569 4.98968 30.5569H27.012C27.0695 30.5569 27.1166 30.5098 27.1166 30.4522V5.20897H24.1571C23.7151 5.20897 23.3507 4.84461 23.3507 4.40257V1.44313ZM26.4067 4.20504L24.3546 2.15303V4.20504H26.4067ZM10.8141 10.6997L8.19508 9.52884C8.01437 9.44809 7.89798 9.26857 7.89798 9.07061C7.89798 8.87265 8.01437 8.69314 8.19508 8.61239L15.4832 5.35416C15.6136 5.29587 15.7626 5.29587 15.893 5.35416L23.1811 8.61239C23.3618 8.69314 23.4782 8.87265 23.4782 9.07061C23.4782 9.26857 23.3618 9.44809 23.1811 9.52884L20.562 10.6997L23.1811 11.8706C23.3618 11.9514 23.4782 12.1309 23.4782 12.3288C23.4782 12.5268 23.3618 12.7063 23.1811 12.7871L20.562 13.958L23.1811 15.1288C23.3618 15.2096 23.4782 15.389 23.4782 15.587C23.4782 15.785 23.3618 15.9645 23.1811 16.0453L15.893 19.3035C15.7626 19.3618 15.6136 19.3618 15.4832 19.3035L8.19508 16.0453C8.01437 15.9645 7.89798 15.785 7.89798 15.587C7.89798 15.389 8.01437 15.2096 8.19508 15.1288L10.8141 13.958L8.19508 12.7871C8.01437 12.7063 7.89798 12.5268 7.89798 12.3288C7.89798 12.1309 8.01437 11.9514 8.19508 11.8706L10.8141 10.6997ZM19.3321 11.2496L15.893 12.7871C15.7626 12.8454 15.6136 12.8454 15.4832 12.7871L12.0441 11.2496L9.62987 12.3288L15.6881 15.0372L21.7463 12.3288L19.3321 11.2496ZM19.3321 14.5078L15.893 16.0453C15.7626 16.1036 15.6136 16.1036 15.4832 16.0453L12.0441 14.5078L9.62987 15.587L15.6881 18.2954L21.7463 15.587L19.3321 14.5078ZM15.6881 6.36222L9.62987 9.07061L15.6881 11.779L21.7463 9.07061L15.6881 6.36222ZM9.02319 25.9839C8.74617 25.9839 8.52123 25.759 8.52123 25.482C8.52123 25.205 8.74617 24.98 9.02319 24.98H22.9762C23.2532 24.98 23.4782 25.205 23.4782 25.482C23.4782 25.759 23.2532 25.9839 22.9762 25.9839H9.02319ZM9.02319 23.355C8.74617 23.355 8.52123 23.1301 8.52123 22.8531C8.52123 22.5761 8.74617 22.3511 9.02319 22.3511H22.9762C23.2532 22.3511 23.4782 22.5761 23.4782 22.8531C23.4782 23.1301 23.2532 23.355 22.9762 23.355H9.02319Z" fill="#5CA0EF"/>
</svg>
