<svg width="32" height="32" viewBox="0 0 32 32" fill="none" xmlns="http://www.w3.org/2000/svg">
<path fill-rule="evenodd" clip-rule="evenodd" d="M17.9261 0.941163H19.6713C19.9696 0.941163 20.2116 1.18305 20.2116 1.48146V5.60143C20.2116 5.89985 19.9696 6.14173 19.6713 6.14173H17.9261C17.6277 6.14173 17.3858 5.89985 17.3858 5.60143V1.48146C17.3858 1.18305 17.6277 0.941163 17.9261 0.941163ZM11.5606 0.658936H13.3058C13.6042 0.658936 13.8461 0.900881 13.8461 1.1993V5.3192C13.8461 5.61762 13.6042 5.8595 13.3058 5.8595H11.5606C11.2622 5.8595 11.0203 5.61762 11.0203 5.3192V1.1993C11.0203 0.900881 11.2622 0.658936 11.5606 0.658936ZM5.52077 0.941163H7.2659C7.56431 0.941163 7.80626 1.18305 7.80626 1.48146V5.60143C7.80626 5.89985 7.56431 6.14173 7.2659 6.14173H5.52077C5.22235 6.14173 4.98047 5.89985 4.98047 5.60143V1.48146C4.98047 1.18305 5.22235 0.941163 5.52077 0.941163Z" fill="#C8DFF9"/>
<path d="M6.99861 13.227C8.23833 13.227 9.24332 12.222 9.24332 10.9823C9.24332 9.74254 8.23833 8.73755 6.99861 8.73755C5.7589 8.73755 4.75391 9.74254 4.75391 10.9823C4.75391 12.222 5.7589 13.227 6.99861 13.227Z" fill="#C8DFF9"/>
<path d="M6.99861 20.7916C8.23833 20.7916 9.24332 19.7866 9.24332 18.5469C9.24332 17.3072 8.23833 16.3022 6.99861 16.3022C5.7589 16.3022 4.75391 17.3072 4.75391 18.5469C4.75391 19.7866 5.7589 20.7916 6.99861 20.7916Z" fill="#C8DFF9"/>
<path d="M6.99861 28.3562C8.23833 28.3562 9.24332 27.3512 9.24332 26.1115C9.24332 24.8718 8.23833 23.8668 6.99861 23.8668C5.7589 23.8668 4.75391 24.8718 4.75391 26.1115C4.75391 27.3512 5.7589 28.3562 6.99861 28.3562Z" fill="#C8DFF9"/>
<path fill-rule="evenodd" clip-rule="evenodd" d="M29.8164 4.72321V20.5941H25.625V4.72321H29.8164ZM27.8526 23.906C27.8205 23.9447 27.7735 23.9666 27.7207 23.9666C27.7698 23.9666 27.819 23.9464 27.8526 23.906ZM27.7207 23.9666C27.6679 23.9666 27.6209 23.9447 27.5887 23.906C27.6224 23.9464 27.6715 23.9666 27.7207 23.9666Z" fill="#C8DFF9"/>
<path fill-rule="evenodd" clip-rule="evenodd" d="M25.2334 20.4109L25.2364 2.68718C25.2352 1.45028 26.2419 0.440465 27.4803 0.441343L28.1784 0.43921H28.1794C29.4162 0.438018 30.4254 1.44909 30.4266 2.68599V2.68649L30.425 20.413C30.425 20.5011 30.4018 20.5877 30.3578 20.664L28.2644 24.2893C28.1747 24.4446 28.009 24.5403 27.8296 24.5403C27.6503 24.5403 27.4846 24.4446 27.395 24.2893L25.3007 20.6619C25.2562 20.5849 25.2334 20.4983 25.2334 20.4109ZM26.2399 5.22541L26.2374 19.909H29.4212L29.4225 5.22541H26.2399ZM29.4226 4.22148L29.4227 2.6868C29.422 2.00276 28.8648 1.44263 28.1806 1.44313L27.4828 1.44527C27.482 1.44527 27.4813 1.44527 27.4805 1.44527C26.796 1.44426 26.2396 2.00263 26.2403 2.68624V2.6868L26.2401 4.22148H29.4226ZM26.6049 20.9129L27.8297 23.0345L29.0548 20.9129H26.6049ZM20.6564 2.9861H21.7256C22.2 2.9861 22.6548 3.17452 22.9902 3.50989C23.3256 3.84533 23.514 4.30023 23.514 4.77452V29.7724C23.514 30.2467 23.3256 30.7015 22.9902 31.037C22.6548 31.3724 22.2 31.5608 21.7256 31.5608H3.36069C2.88634 31.5608 2.43143 31.3724 2.09606 31.037C1.76069 30.7015 1.57227 30.2467 1.57227 29.7724V4.77452C1.57227 4.30023 1.76069 3.84533 2.09606 3.50989C2.43143 3.17452 2.88634 2.9861 3.36069 2.9861H4.42987V1.49301C4.42987 0.91099 4.90165 0.43921 5.48367 0.43921H7.26594C7.84791 0.43921 8.31969 0.91099 8.31969 1.49301V2.9861H10.5982V1.49301C10.5982 0.91099 11.0701 0.43921 11.652 0.43921H13.4343C14.0163 0.43921 14.488 0.91099 14.488 1.49301V2.9861H16.7666V1.49301C16.7666 0.91099 17.2384 0.43921 17.8204 0.43921H19.6026C20.1847 0.43921 20.6564 0.91099 20.6564 1.49301V2.9861ZM4.42987 3.99002H3.36069C3.15263 3.99002 2.95303 4.07265 2.80596 4.21979C2.65882 4.36693 2.57619 4.56646 2.57619 4.77452V29.7724C2.57619 29.9804 2.65882 30.18 2.80596 30.3271C2.95303 30.4742 3.15263 30.5569 3.36069 30.5569H21.7256C21.9337 30.5569 22.1332 30.4742 22.2803 30.3271C22.4275 30.18 22.5101 29.9804 22.5101 29.7724V4.77452C22.5101 4.56646 22.4275 4.36693 22.2803 4.21979C22.1332 4.07265 21.9337 3.99002 21.7256 3.99002H20.6564V5.48316C20.6564 6.06512 20.1847 6.5369 19.6026 6.5369H17.8204C17.2384 6.5369 16.7666 6.06512 16.7666 5.48316V3.99002H14.488V5.48316C14.488 6.06512 14.0163 6.5369 13.4343 6.5369H11.652C11.0701 6.5369 10.5982 6.06512 10.5982 5.48316V3.99002H8.31969V5.48316C8.31969 6.06512 7.84791 6.5369 7.26594 6.5369H5.48367C4.90165 6.5369 4.42987 6.06512 4.42987 5.48316V3.99002ZM13.4343 1.44313H11.652C11.6245 1.44313 11.6021 1.46547 11.6021 1.49301V5.48316C11.6021 5.51071 11.6245 5.53298 11.652 5.53298H13.4343C13.4618 5.53298 13.4841 5.51071 13.4841 5.48316V1.49301C13.4841 1.46547 13.4618 1.44313 13.4343 1.44313ZM19.6026 1.44313H17.8204C17.7928 1.44313 17.7705 1.46547 17.7705 1.49301V5.48316C17.7705 5.51071 17.7928 5.53298 17.8204 5.53298H19.6026C19.6302 5.53298 19.6525 5.51071 19.6525 5.48316V1.49301C19.6525 1.46547 19.6302 1.44313 19.6026 1.44313ZM7.26594 1.44313H5.48361C5.45612 1.44313 5.43379 1.46547 5.43379 1.49301V5.48316C5.43379 5.51071 5.45612 5.53298 5.48367 5.53298H7.26594C7.29343 5.53298 7.31576 5.51071 7.31576 5.48316V1.49301C7.31576 1.46547 7.29343 1.44313 7.26594 1.44313ZM11.4691 20.0203C11.192 20.0203 10.9672 19.7953 10.9672 19.5183C10.9672 19.2413 11.192 19.0163 11.4691 19.0163H18.7831C19.0601 19.0163 19.285 19.2413 19.285 19.5183C19.285 19.7953 19.0601 20.0203 18.7831 20.0203H11.4691ZM11.4691 25.6421C11.192 25.6421 10.9672 25.4172 10.9672 25.1401C10.9672 24.8631 11.192 24.6382 11.4691 24.6382H16.1976C16.4747 24.6382 16.6996 24.8631 16.6996 25.1401C16.6996 25.4172 16.4747 25.6421 16.1976 25.6421H11.4691ZM11.4691 12.4556C11.192 12.4556 10.9672 12.2307 10.9672 11.9536C10.9672 11.6766 11.192 11.4517 11.4691 11.4517H18.7831C19.0601 11.4517 19.285 11.6766 19.285 11.9536C19.285 12.2307 19.0601 12.4556 18.7831 12.4556H11.4691ZM11.4691 18.0775C11.192 18.0775 10.9672 17.8525 10.9672 17.5755C10.9672 17.2984 11.192 17.0736 11.4691 17.0736H16.1976C16.4747 17.0736 16.6996 17.2984 16.6996 17.5755C16.6996 17.8525 16.4747 18.0775 16.1976 18.0775H11.4691ZM11.4691 27.5849C11.192 27.5849 10.9672 27.36 10.9672 27.0829C10.9672 26.8059 11.192 26.581 11.4691 26.581H18.7831C19.0601 26.581 19.285 26.8059 19.285 27.0829C19.285 27.36 19.0601 27.5849 18.7831 27.5849H11.4691ZM11.4691 10.5128C11.192 10.5128 10.9672 10.2879 10.9672 10.0108C10.9672 9.73383 11.192 9.50889 11.4691 9.50889H16.1976C16.4747 9.50889 16.6996 9.73383 16.6996 10.0108C16.6996 10.2879 16.4747 10.5128 16.1976 10.5128H11.4691ZM7.10871 8.2356C8.62463 8.2356 9.85537 9.46635 9.85537 10.9823C9.85537 12.4982 8.62463 13.7289 7.10871 13.7289C5.59278 13.7289 4.36204 12.4982 4.36204 10.9823C4.36204 9.46635 5.59278 8.2356 7.10871 8.2356ZM7.10871 9.23952C6.14689 9.23952 5.36596 10.0204 5.36596 10.9823C5.36596 11.9441 6.14689 12.725 7.10871 12.725C8.07052 12.725 8.85145 11.9441 8.85145 10.9823C8.85145 10.0204 8.07052 9.23952 7.10871 9.23952ZM7.10871 23.3649C8.62463 23.3649 9.85537 24.5956 9.85537 26.1116C9.85537 27.6274 8.62463 28.8582 7.10871 28.8582C5.59278 28.8582 4.36204 27.6274 4.36204 26.1116C4.36204 24.5956 5.59278 23.3649 7.10871 23.3649ZM7.10871 24.3688C6.14689 24.3688 5.36596 25.1497 5.36596 26.1116C5.36596 27.0734 6.14689 27.8542 7.10871 27.8542C8.07052 27.8542 8.85145 27.0734 8.85145 26.1116C8.85145 25.1497 8.07052 24.3688 7.10871 24.3688ZM7.10871 15.8002C8.62463 15.8002 9.85537 17.031 9.85537 18.5469C9.85537 20.0628 8.62463 21.2935 7.10871 21.2935C5.59278 21.2935 4.36204 20.0628 4.36204 18.5469C4.36204 17.031 5.59278 15.8002 7.10871 15.8002ZM7.10871 16.8041C6.14689 16.8041 5.36596 17.5851 5.36596 18.5469C5.36596 19.5087 6.14689 20.2896 7.10871 20.2896C8.07052 20.2896 8.85145 19.5087 8.85145 18.5469C8.85145 17.5851 8.07052 16.8041 7.10871 16.8041Z" fill="#5CA0EF"/>
</svg>
