<svg width="66" height="66" viewBox="0 0 66 66" fill="none" xmlns="http://www.w3.org/2000/svg">
<rect width="66" height="66" rx="33" fill="#D058AB"/>
<g clip-path="url(#clip0_422_24436)">
<path d="M46.4167 32.3053C46.3212 32.5096 46.1698 32.6824 45.9799 32.8036C45.7901 32.9247 45.5697 32.9891 45.3447 32.9893H39.4225V48.4374C39.4225 48.7524 39.2977 49.0544 39.0756 49.2771C38.8534 49.4998 38.5522 49.6249 38.238 49.6249H28.7624C28.4483 49.6249 28.147 49.4998 27.9249 49.2771C27.7027 49.0544 27.578 48.7524 27.578 48.4374V32.9893H21.6557C21.4304 32.9894 21.2098 32.925 21.0197 32.8039C20.8296 32.6827 20.6779 32.5097 20.5824 32.3051C20.4869 32.1006 20.4516 31.8729 20.4806 31.6489C20.5095 31.425 20.6016 31.2139 20.746 31.0406L32.5906 16.7811C32.7053 16.6532 32.8456 16.5509 33.0023 16.4809C33.159 16.4109 33.3286 16.3748 33.5002 16.3748C33.6718 16.3748 33.8414 16.4109 33.9981 16.4809C34.1549 16.5509 34.2951 16.6532 34.4099 16.7811L46.2544 31.0406C46.3986 31.2141 46.4904 31.4252 46.5192 31.6492C46.5479 31.8732 46.5124 32.1008 46.4167 32.3053Z" fill="white"/>
</g>
<defs>
<clipPath id="clip0_422_24436">
<rect width="37" height="38" fill="white" transform="translate(15 14)"/>
</clipPath>
</defs>
</svg>
