<svg width="66" height="66" viewBox="0 0 66 66" fill="none" xmlns="http://www.w3.org/2000/svg">
<path d="M33 66C51.2254 66 66 51.2254 66 33C66 14.7746 51.2254 0 33 0C14.7746 0 0 14.7746 0 33C0 51.2254 14.7746 66 33 66Z" fill="#FFC107"/>
<path d="M32.0944 34.873C32.0923 34.7394 32.0499 34.6095 31.9725 34.5006C31.8952 34.3916 31.7867 34.3087 31.6612 34.2626L23.6222 31.3883C23.4781 31.3357 23.3201 31.3357 23.1759 31.3883L15.1434 34.2626C15.0165 34.3072 14.9063 34.3896 14.8277 34.4987C14.7491 34.6079 14.7058 34.7385 14.7037 34.873L14.625 42.2754C14.6381 47.112 19.0613 49.8813 23.3991 51.0364C27.7434 49.8813 32.1666 47.112 32.1731 42.2688L32.0944 34.873ZM26.9231 39.6176C26.8181 39.7226 22.8412 43.6995 22.815 43.7258C22.6952 43.8311 22.5413 43.8894 22.3819 43.8898C22.2077 43.8896 22.0405 43.8213 21.9159 43.6995C21.8044 43.588 19.9012 41.6914 19.8422 41.6258C19.7337 41.497 19.6787 41.3315 19.6886 41.1634C19.6984 40.9953 19.7724 40.8374 19.8952 40.7222C20.018 40.6069 20.1803 40.5432 20.3486 40.544C20.517 40.5449 20.6787 40.6103 20.8003 40.7267C20.8528 40.7792 22.3753 42.3083 22.3819 42.3083C22.5066 42.177 25.965 38.7186 26.0306 38.653C26.1627 38.5404 26.3336 38.4842 26.5067 38.4965C26.6798 38.5088 26.8411 38.5885 26.9559 38.7186C27.0622 38.8461 27.1176 39.0085 27.1116 39.1744C27.1055 39.3403 27.0384 39.4982 26.9231 39.6176Z" fill="white"/>
<path d="M48.0938 16.9114H42.8438V18.8802C42.8438 19.4023 42.6363 19.9031 42.2671 20.2723C41.8979 20.6415 41.3971 20.8489 40.875 20.8489C40.3529 20.8489 39.8521 20.6415 39.4829 20.2723C39.1137 19.9031 38.9062 19.4023 38.9062 18.8802V16.9114H27.0938V18.8802C27.0938 19.4023 26.8863 19.9031 26.5171 20.2723C26.1479 20.6415 25.6471 20.8489 25.125 20.8489C24.6029 20.8489 24.1021 20.6415 23.7329 20.2723C23.3637 19.9031 23.1562 19.4023 23.1562 18.8802V16.9114H17.9062C17.0361 16.9118 16.2017 17.2576 15.5864 17.8728C14.9711 18.4881 14.6253 19.3225 14.625 20.1927V33.0618C14.6512 33.0421 15.9375 32.5827 15.9375 32.5827V24.7864H50.0625V37.9114C50.06 38.2588 49.9209 38.5911 49.6753 38.8367C49.4297 39.0823 49.0973 39.2214 48.75 39.2239H45.4688C44.5986 39.2243 43.7642 39.5701 43.1489 40.1853C42.5336 40.8006 42.1878 41.635 42.1875 42.5052V45.7864C42.185 46.1338 42.0459 46.4661 41.8003 46.7117C41.5547 46.9573 41.2223 47.0964 40.875 47.0989H31.9762C31.6592 47.5672 31.3013 48.0065 30.9066 48.4114H40.875C41.5713 48.4117 42.2393 48.1355 42.7322 47.6436C42.7322 47.6436 50.6662 39.703 50.6925 39.6702C51.1318 39.1899 51.3753 38.5624 51.375 37.9114V20.1927C51.3747 19.3225 51.0289 18.4881 50.4136 17.8728C49.7983 17.2576 48.9639 16.9118 48.0938 16.9114Z" fill="white"/>
<path d="M25.125 19.5573C25.2989 19.5568 25.4655 19.4875 25.5885 19.3645C25.7114 19.2416 25.7807 19.075 25.7812 18.9011V15.6198C25.7812 15.4458 25.7121 15.2788 25.589 15.1558C25.466 15.0327 25.299 14.9636 25.125 14.9636C24.951 14.9636 24.784 15.0327 24.661 15.1558C24.5379 15.2788 24.4688 15.4458 24.4688 15.6198V18.9011C24.4693 19.075 24.5386 19.2416 24.6615 19.3645C24.7845 19.4875 24.9511 19.5568 25.125 19.5573Z" fill="white"/>
<path d="M40.875 19.5573C41.0489 19.5568 41.2155 19.4875 41.3385 19.3645C41.4614 19.2416 41.5307 19.075 41.5312 18.9011V15.6198C41.5312 15.4458 41.4621 15.2788 41.339 15.1558C41.216 15.0327 41.049 14.9636 40.875 14.9636C40.701 14.9636 40.534 15.0327 40.411 15.1558C40.2879 15.2788 40.2188 15.4458 40.2188 15.6198V18.9011C40.2193 19.075 40.2886 19.2416 40.4115 19.3645C40.5345 19.4875 40.7011 19.5568 40.875 19.5573Z" fill="white"/>
</svg>
