<svg width="66" height="66" viewBox="0 0 66 66" fill="none" xmlns="http://www.w3.org/2000/svg">
<rect width="66" height="66" rx="33" fill="#5CA0EF"/>
<g clip-path="url(#clip0_422_24463)">
<path d="M48.1955 40.4752H47.1817V39.1951C47.1817 36.1641 44.7159 33.6984 41.685 33.6984H34.7489V28.9643H37.7896C39.2893 28.9643 40.5093 27.7442 40.5093 26.2445V19.6427C40.5093 18.1431 39.2893 16.923 37.7896 16.923H29.6655C28.1659 16.923 26.9458 18.143 26.9458 19.6427V26.2444C26.9458 27.7441 28.1659 28.9642 29.6655 28.9642H32.7063V33.6983H25.3616C22.3306 33.6983 19.8649 36.1641 19.8649 39.195V40.4752H18.8057C17.306 40.4752 16.0859 41.6953 16.0859 43.195V46.3572C16.0859 47.8569 17.306 49.0769 18.8057 49.0769H22.9666C24.4662 49.0769 25.6862 47.8569 25.6862 46.3572V43.195C25.6862 41.6953 24.4662 40.4752 22.9666 40.4752H21.9075V39.1951C21.9075 37.2906 23.457 35.7411 25.3615 35.7411H32.7062V40.4752H31.6471C30.1474 40.4752 28.9274 41.6953 28.9274 43.195V46.3572C28.9274 47.8569 30.1474 49.0769 31.6471 49.0769H35.808C37.3076 49.0769 38.5277 47.8569 38.5277 46.3572V43.195C38.5277 41.6953 37.3076 40.4752 35.808 40.4752H34.7489V35.7411H41.685C43.5896 35.7411 45.1391 37.2906 45.1391 39.1951V40.4752H44.0346C42.5349 40.4752 41.3149 41.6953 41.3149 43.195V46.3572C41.3149 47.8569 42.5349 49.0769 44.0346 49.0769H48.1955C49.6952 49.0769 50.9152 47.8569 50.9152 46.3572V43.195C50.9153 41.6953 49.6952 40.4752 48.1955 40.4752Z" fill="white"/>
</g>
<defs>
<clipPath id="clip0_422_24463">
<rect width="34.8293" height="34.8293" fill="white" transform="translate(16.0859 15.5853)"/>
</clipPath>
</defs>
</svg>
