<svg width="32" height="32" viewBox="0 0 32 32" fill="none" xmlns="http://www.w3.org/2000/svg">
<path fill-rule="evenodd" clip-rule="evenodd" d="M12.6934 21.9871V10.0129H30.6264C30.7414 10.0129 30.8516 10.0586 30.9329 10.1399C31.0142 10.2212 31.0599 10.3314 31.0599 10.4464V21.5536C31.0599 21.6686 31.0142 21.7788 30.9329 21.8602C30.8516 21.9414 30.7414 21.9871 30.6264 21.9871H12.6934Z" fill="#C8DFF9"/>
<path fill-rule="evenodd" clip-rule="evenodd" d="M6.81663 16.2057C7.78064 16.2057 8.56577 15.4197 8.56577 14.4566C8.56577 13.4935 7.78064 12.7075 6.81663 12.7075C5.85349 12.7075 5.06836 13.4935 5.06836 14.4566C5.06836 15.4197 5.85349 16.2057 6.81663 16.2057Z" fill="#C8DFF9"/>
<path fill-rule="evenodd" clip-rule="evenodd" d="M31.0591 22.4891H0.941414C0.664206 22.4891 0.439453 22.2643 0.439453 21.9871V10.0129C0.439453 9.73574 0.664206 9.51099 0.941414 9.51099H31.0591C31.3363 9.51099 31.561 9.73574 31.561 10.0129V21.9871C31.561 22.2643 31.3363 22.4891 31.0591 22.4891ZM12.1906 10.5149H1.44337V21.4851H12.1906V10.5149ZM13.1945 21.4851H30.5571V10.5149H13.1945V21.4851ZM8.41141 16.0384C9.67177 16.5962 10.5846 17.7953 10.7371 19.2217C10.7522 19.3633 10.7064 19.5047 10.6112 19.6106C10.516 19.7165 10.3803 19.777 10.2379 19.777H3.39606C3.25357 19.777 3.11785 19.7165 3.02267 19.6105C2.92742 19.5045 2.88174 19.3631 2.89693 19.2215C3.05015 17.7951 3.96328 16.5961 5.22333 16.0383C4.82345 15.633 4.57611 15.0768 4.57611 14.4648C4.57611 13.2303 5.58248 12.223 6.81699 12.223C8.05257 12.223 9.05875 13.2305 9.05875 14.4648C9.05875 15.0769 8.81141 15.633 8.41141 16.0384ZM6.81699 16.7066C5.49796 16.7066 4.38179 17.5759 4.01003 18.7731H9.62427C9.25307 17.5759 8.13671 16.7066 6.81699 16.7066ZM6.81699 15.7027C7.49922 15.7027 8.05483 15.1464 8.05483 14.4648C8.05483 13.7832 7.49922 13.2269 6.81699 13.2269C6.13545 13.2269 5.58003 13.7833 5.58003 14.4648C5.58003 15.1464 6.13545 15.7027 6.81699 15.7027ZM22.8953 19.4635C22.6183 19.4635 22.3933 19.2385 22.3933 18.9615C22.3933 18.6845 22.6183 18.4596 22.8953 18.4596H24.8666C25.1436 18.4596 25.3686 18.6845 25.3686 18.9615C25.3686 19.2385 25.1436 19.4635 24.8666 19.4635H22.8953ZM26.9057 19.4635C26.6286 19.4635 26.4037 19.2385 26.4037 18.9615C26.4037 18.6845 26.6286 18.4596 26.9057 18.4596H28.877C29.154 18.4596 29.3789 18.6845 29.3789 18.9615C29.3789 19.2385 29.154 19.4635 28.877 19.4635H26.9057ZM18.885 19.4635C18.6079 19.4635 18.383 19.2385 18.383 18.9615C18.383 18.6845 18.6079 18.4596 18.885 18.4596H20.8563C21.1333 18.4596 21.3582 18.6845 21.3582 18.9615C21.3582 19.2385 21.1333 19.4635 20.8563 19.4635H18.885ZM14.8747 19.4635C14.5976 19.4635 14.3727 19.2385 14.3727 18.9615C14.3727 18.6845 14.5976 18.4596 14.8747 18.4596H16.8459C17.123 18.4596 17.3479 18.6845 17.3479 18.9615C17.3479 19.2385 17.123 19.4635 16.8459 19.4635H14.8747Z" fill="#5CA0EF"/>
</svg>
