<svg width="32" height="32" viewBox="0 0 32 32" fill="none" xmlns="http://www.w3.org/2000/svg">
<path fill-rule="evenodd" clip-rule="evenodd" d="M21.1704 28.815V30.0769H4.80255V28.815C4.80255 28.1221 5.51245 27.553 6.38172 27.553H19.5912C20.4591 27.553 21.1704 28.1221 21.1704 28.815ZM1.26015 23.7949C1.05912 23.4986 0.941406 23.1418 0.941406 22.7586V10.0186C0.941406 9.00002 1.77366 8.16632 2.79232 8.16632H23.1792C23.9361 8.16632 24.5909 8.62662 24.8775 9.28111C24.9765 9.50737 25.0315 9.75685 25.0315 10.0186V22.7586C25.0315 23.7773 24.1978 24.611 23.1792 24.611H2.79232C2.47803 24.611 2.18125 24.5315 1.92117 24.3917C1.65463 24.2485 1.42643 24.042 1.25727 23.7929C1.25821 23.7936 1.25921 23.7942 1.26015 23.7949ZM2.74677 9.71562C2.60453 9.71562 2.48927 9.83082 2.48927 9.97169V21.5053H23.4822V9.97169C23.4822 9.83082 23.367 9.71562 23.2261 9.71562H2.74677Z" fill="#C8DFF9"/>
<path fill-rule="evenodd" clip-rule="evenodd" d="M8.69928 25.1126H2.79384C1.49922 25.1126 0.439453 24.0528 0.439453 22.7583V10.0187C0.439453 8.7241 1.49922 7.66433 2.79384 7.66433H23.1785C24.473 7.66433 25.5328 8.7241 25.5328 10.0187V22.7583C25.5328 24.0528 24.473 25.1126 23.1785 25.1126H17.2747V27.0516H19.5914C20.7631 27.0516 21.6727 27.8785 21.6727 28.8141V30.0763C21.6727 30.3535 21.448 30.5783 21.1707 30.5783H4.80319C4.52598 30.5783 4.30123 30.3535 4.30123 30.0763V28.8141C4.30123 27.8785 5.21084 27.0516 6.38254 27.0516H8.69928V25.1126ZM16.2707 25.1126H9.7032V27.0516H16.2707V25.1126ZM5.30515 29.5744H20.6688V28.8141C20.6688 28.3621 20.1575 28.0555 19.5914 28.0555H6.38254C5.81646 28.0555 5.30515 28.3621 5.30515 28.8141V29.5744ZM2.79384 8.66825C2.05125 8.66825 1.44337 9.27613 1.44337 10.0187V22.7583C1.44337 23.5008 2.05125 24.1087 2.79384 24.1087H23.1785C23.921 24.1087 24.5289 23.5008 24.5289 22.7583V10.0187C24.5289 9.27613 23.921 8.66825 23.1785 8.66825H2.79384ZM2.74803 9.21426H23.2258C23.6415 9.21426 23.9845 9.55252 23.9845 9.97291V21.4912C23.9845 21.7684 23.7598 21.9931 23.4825 21.9931H2.48971C2.2125 21.9931 1.98775 21.7684 1.98775 21.4912V9.97291C1.98775 9.5534 2.32852 9.21426 2.74803 9.21426ZM2.99167 10.2181V20.9892H22.9806V10.2182L2.99167 10.2181ZM25.4256 5.68121C25.1488 5.6937 24.914 5.47911 24.9015 5.20234C24.889 4.92564 25.1035 4.69078 25.3803 4.67829C26.1634 4.64297 26.9315 4.91033 27.502 5.48087C28.0725 6.05128 28.3397 6.81947 28.3044 7.60253C28.2919 7.8793 28.0571 8.09382 27.7804 8.08134C27.5036 8.06885 27.2891 7.83406 27.3016 7.55729C27.3243 7.05382 27.1589 6.55751 26.7921 6.1907C26.4253 5.82389 25.929 5.6585 25.4256 5.68121ZM29.9296 7.52918C29.9171 7.80595 29.6822 8.02054 29.4055 8.00799C29.1287 7.9955 28.9142 7.76071 28.9267 7.48394C28.9682 6.56454 28.6628 5.65956 27.993 4.9897C27.3232 4.31989 26.4182 4.01464 25.4988 4.05611C25.2221 4.06854 24.9873 3.85401 24.9748 3.57724C24.9623 3.30047 25.1769 3.06568 25.4537 3.0532C26.6527 2.99911 27.8294 3.40633 28.7029 4.27986C29.5765 5.1534 29.9837 6.33018 29.9296 7.52918ZM25.5722 2.43108C25.2954 2.4435 25.0606 2.22898 25.0481 1.95221C25.0357 1.67544 25.2502 1.44065 25.5269 1.42816C27.1418 1.35538 28.7274 1.90245 29.9039 3.07898C31.0804 4.25545 31.6274 5.84096 31.5546 7.45583C31.5421 7.7326 31.3073 7.94719 31.0306 7.9347C30.7538 7.92222 30.5393 7.68742 30.5517 7.41065C30.6119 6.07538 30.1668 4.76162 29.194 3.78882C28.2212 2.81602 26.9074 2.37084 25.5722 2.43108ZM26.1696 6.8132C26.4792 7.12278 26.4792 7.62462 26.1696 7.93414C25.8601 8.24366 25.3582 8.24366 25.0487 7.93414C24.7392 7.62462 24.7392 7.12278 25.0487 6.8132C25.3582 6.50367 25.8601 6.50367 26.1696 6.8132Z" fill="#5CA0EF"/>
</svg>
