<svg width="32" height="32" viewBox="0 0 32 32" fill="none" xmlns="http://www.w3.org/2000/svg">
<g clip-path="url(#clip0_230_8892)">
<path fill-rule="evenodd" clip-rule="evenodd" d="M15.7842 23.133C14.708 23.7802 13.492 24.2393 12.183 24.4719C7.38323 23.6191 3.83594 19.721 3.83594 14.6734V8.31272C3.83594 7.99109 4.01257 7.71815 4.30213 7.59128L11.779 4.32608C12.0469 4.2095 12.3191 4.2095 12.5869 4.32608L20.0638 7.59128C20.3534 7.71815 20.53 7.99109 20.53 8.31272V14.6734C20.53 15.7579 20.3663 16.7892 20.0616 17.7488C20.6321 17.4078 21.2507 17.1561 21.8966 17.0021L22.3835 15.7373H24.4498L24.9367 17.0021C25.611 17.1626 26.2547 17.4295 26.8443 17.7928L28.084 17.2429L29.5444 18.7034L28.9945 19.943C29.3578 20.5326 29.6247 21.1763 29.7852 21.8507L31.0501 22.3375V24.4038L29.7852 24.8907C29.6247 25.5641 29.3578 26.2078 28.9945 26.7974L29.5444 28.0371L28.084 29.4985L26.8443 28.9476C26.2547 29.3109 25.611 29.5787 24.9367 29.7392L24.4498 31.0032H22.3835L21.8966 29.7383C21.2232 29.5778 20.5795 29.3109 19.9899 28.9476L18.7503 29.4985L17.2888 28.0371L17.8397 26.7983C17.4763 26.2078 17.2086 25.5641 17.0481 24.8907L15.7842 24.4038V23.133ZM23.4167 19.7335C21.4087 19.7335 19.7804 21.3618 19.7804 23.3705C19.7804 25.3786 21.4087 27.0069 23.4167 27.0069C25.4255 27.0069 27.0538 25.3786 27.0538 23.3705C27.0538 21.3618 25.4255 19.7335 23.4167 19.7335ZM10.5851 9.47131V12.5993H7.45702C7.37382 12.5993 7.29401 12.6324 7.23515 12.6913C7.17636 12.7501 7.14329 12.8299 7.14329 12.9131V15.5809C7.14329 15.6641 7.17636 15.7439 7.23515 15.8027C7.29401 15.8616 7.37382 15.8946 7.45702 15.8946H10.5851V19.0227C10.5851 19.1059 10.6181 19.1856 10.677 19.2445C10.7358 19.3033 10.8156 19.3364 10.8988 19.3364H13.5666C13.6498 19.3364 13.7296 19.3033 13.7884 19.2445C13.8472 19.1856 13.8803 19.1059 13.8803 19.0227V15.8946H17.0083C17.0915 15.8946 17.1713 15.8616 17.2302 15.8027C17.289 15.7439 17.3221 15.6641 17.3221 15.5809V12.9131C17.3221 12.8299 17.289 12.7501 17.2302 12.6913C17.1713 12.6324 17.0915 12.5993 17.0083 12.5993H13.8803V9.47131C13.8803 9.38811 13.8472 9.3083 13.7884 9.2495C13.7296 9.19065 13.6498 9.15758 13.5666 9.15758H10.8988C10.8156 9.15758 10.7358 9.19065 10.677 9.2495C10.6181 9.3083 10.5851 9.38811 10.5851 9.47131Z" fill="#C8DFF9"/>
<path fill-rule="evenodd" clip-rule="evenodd" d="M17.0302 26.5137C15.7079 27.2695 14.2421 27.81 12.6772 28.0828L12.2697 28.154C12.2125 28.1641 12.154 28.1641 12.0968 28.154L11.6895 28.0828C5.25456 26.961 0.498047 21.3133 0.498047 14.7777V5.73485C0.498047 5.53406 0.617702 5.35254 0.802235 5.27348L11.9855 0.479821C12.1118 0.425672 12.2547 0.425672 12.381 0.479821L23.5643 5.27348C23.7488 5.35254 23.8685 5.53406 23.8685 5.73485V14.7777C23.8685 14.9487 23.8652 15.1191 23.8587 15.2887H24.4004C24.6081 15.2887 24.7944 15.4167 24.8689 15.6106L25.2629 16.6361C25.8085 16.788 26.3331 17.0054 26.8268 17.2842L27.8304 16.838C28.0202 16.7536 28.2424 16.7949 28.3892 16.9418L29.8495 18.402C29.9962 18.5487 30.0376 18.7705 29.9535 18.9602L29.5089 19.964C29.788 20.4582 30.0055 20.9834 30.1575 21.5307L31.1809 21.9245C31.3747 21.9991 31.5025 22.1854 31.5025 22.393V24.4586C31.5025 24.6662 31.3747 24.8525 31.1809 24.9271C31.1809 24.9271 30.1572 25.321 30.1572 25.321C30.005 25.8666 29.7865 26.3912 29.5086 26.8849L29.9535 27.8893C30.0376 28.0789 29.9962 28.3008 29.8495 28.4475L28.3892 29.9078C28.2425 30.0545 28.0207 30.0958 27.831 30.0117L26.8276 29.5673C26.3347 29.8462 25.8087 30.0636 25.2627 30.2155L24.8688 31.2391C24.7942 31.4329 24.608 31.5608 24.4004 31.5608H22.3348C22.1271 31.5608 21.9409 31.4329 21.8663 31.2391L21.4724 30.2156C20.9253 30.0634 20.4003 29.8449 19.9064 29.5669L18.902 30.0117C18.7123 30.0958 18.4905 30.0545 18.3438 29.9078L16.8835 28.4475C16.7366 28.3006 16.6954 28.0784 16.7798 27.8886L17.2258 26.8854C17.1569 26.7635 17.0916 26.6395 17.0302 26.5137ZM22.8541 15.2887C22.861 15.1191 22.8645 14.9488 22.8645 14.7777V6.06577L12.1833 1.48732L1.50197 6.06577V14.7777C1.50197 20.8276 5.90523 26.0554 11.8619 27.0938L12.1833 27.1501L12.5046 27.0938C14 26.8331 15.3976 26.3083 16.652 25.5727C16.6253 25.4894 16.6001 25.4056 16.5765 25.3213L15.5521 24.9271C15.3583 24.8525 15.2305 24.6662 15.2305 24.4586V24.1115C14.3184 24.5904 13.3257 24.9404 12.2746 25.1351C12.2142 25.1462 12.1523 25.1462 12.0918 25.1351C7.13321 24.2164 3.47053 19.8322 3.47053 14.7777V7.69275C3.47053 7.4919 3.59025 7.31044 3.77485 7.23132L11.9856 3.71446C12.1118 3.66043 12.2546 3.66043 12.3808 3.71446L20.5944 7.23132C20.7791 7.31038 20.8988 7.4919 20.8988 7.69275V14.7777C20.8988 15.5046 20.8231 16.2176 20.6787 16.9084C20.9368 16.802 21.2011 16.711 21.4705 16.636L21.8665 15.61C21.9412 15.4164 22.1273 15.2887 22.3348 15.2887H22.8541ZM15.2305 22.9606V22.393C15.2305 22.1854 15.3583 21.9991 15.5521 21.9245L16.5763 21.5304C16.7294 20.9833 16.947 20.4583 17.226 19.9644L16.7798 18.9609C16.6954 18.7711 16.7366 18.5489 16.8835 18.402L18.3438 16.9418C18.4906 16.7949 18.7128 16.7536 18.9026 16.838C18.9026 16.838 19.2981 17.0138 19.5925 17.1448C19.7901 16.3844 19.8949 15.5907 19.8949 14.7777V8.02385L12.1833 4.72195L4.47445 8.02379V14.7777C4.47445 19.3194 7.74354 23.2628 12.1834 24.1305C13.2814 23.916 14.3076 23.5135 15.2305 22.9606ZM10.5356 8.70903H13.8309C14.1081 8.70903 14.3328 8.93378 14.3328 9.21099V12.1508H17.2726C17.5498 12.1508 17.7746 12.3755 17.7746 12.6527V15.948C17.7746 16.2253 17.5498 16.45 17.2726 16.45H14.3328V19.3898C14.3328 19.667 14.1081 19.8918 13.8309 19.8918H10.5356C10.2584 19.8918 10.0337 19.667 10.0337 19.3898V16.45H7.09387C6.8166 16.45 6.59191 16.2253 6.59191 15.948V12.6527C6.59191 12.3755 6.8166 12.1508 7.09387 12.1508H10.0337V9.21099C10.0337 8.93378 10.2584 8.70903 10.5356 8.70903ZM11.0376 9.71295V12.6527C11.0376 12.93 10.8128 13.1547 10.5356 13.1547H7.59583V15.446H10.5356C10.8128 15.446 11.0376 15.6708 11.0376 15.948V18.8879H13.3289V15.948C13.3289 15.6708 13.5537 15.446 13.8309 15.446H16.7707V13.1547H13.8309C13.5537 13.1547 13.3289 12.93 13.3289 12.6527V9.71295H11.0376ZM24.4185 17.2375L24.0554 16.2927H22.6791L22.3143 17.2382C22.2547 17.3925 22.123 17.5076 21.962 17.5458C21.3401 17.6936 20.747 17.9393 20.2018 18.2753C20.0607 18.3622 19.8859 18.3739 19.7345 18.3066L18.8098 17.8954L17.8372 18.8681L18.2483 19.7928C18.3156 19.9442 18.3039 20.119 18.217 20.26C17.8809 20.8055 17.635 21.3991 17.4853 22.0234C17.4467 22.184 17.3316 22.3154 17.1774 22.3747L16.2344 22.7376V24.1139L17.1774 24.4769C17.3315 24.5362 17.4466 24.6674 17.4852 24.8279C17.6349 25.45 17.8806 26.0454 18.2166 26.5888C18.3039 26.7299 18.3158 26.9051 18.2483 27.0568L17.8372 27.9814L18.8102 28.9544L19.7351 28.5447C19.886 28.4779 20.06 28.4895 20.2007 28.5756C20.7461 28.9098 21.3395 29.1578 21.9637 29.3057C22.125 29.3439 22.257 29.4592 22.3165 29.6138L22.6794 30.5569H24.0557L24.4186 29.6138C24.4781 29.4593 24.6099 29.344 24.771 29.3057C25.3927 29.158 25.9875 28.9125 26.5305 28.5768C26.6715 28.4896 26.8463 28.4776 26.9979 28.5447L27.9229 28.9544L28.8962 27.9811L28.4865 27.0561C28.4197 26.9053 28.4312 26.7312 28.5174 26.5906C28.8516 26.0451 29.0996 25.4516 29.2475 24.8293C29.2858 24.6682 29.4011 24.5364 29.5555 24.4769L30.4986 24.1139V22.7376L29.5555 22.3747C29.4009 22.3152 29.2856 22.1832 29.2474 22.022C29.0996 21.3982 28.8539 20.8051 28.5181 20.26C28.4313 20.1192 28.4195 19.9447 28.4865 19.7934L28.8962 18.8684L27.9232 17.8954L26.9985 18.3066C26.8471 18.3739 26.6723 18.3622 26.5312 18.2753C25.9861 17.9393 25.393 17.6936 24.771 17.5458C24.6099 17.5075 24.478 17.3921 24.4185 17.2375ZM23.3665 19.32C25.6345 19.32 27.4734 21.1568 27.4734 23.4248C27.4734 25.6926 25.6344 27.5316 23.3665 27.5316C21.0986 27.5316 19.2618 25.6927 19.2618 23.4248C19.2618 21.1567 21.0985 19.32 23.3665 19.32ZM23.3665 20.3239C21.6532 20.3239 20.2657 21.7114 20.2657 23.4248C20.2657 25.1381 21.6531 26.5276 23.3665 26.5276C25.08 26.5276 26.4694 25.1383 26.4694 23.4248C26.4694 21.7113 25.0799 20.3239 23.3665 20.3239Z" fill="#5CA0EF"/>
</g>
<defs>
<clipPath id="clip0_230_8892">
<rect width="32" height="32" fill="white"/>
</clipPath>
</defs>
</svg>
