<svg id="Group_3333" data-name="Group 3333" xmlns="http://www.w3.org/2000/svg" width="16.326" height="16.326" viewBox="0 0 16.326 16.326">
  <g id="Path_2203" data-name="Path 2203" fill="#c3f9ee">
    <path d="M 8.162867546081543 16.07573699951172 C 3.799697637557983 16.07573699951172 0.249997541308403 12.52603721618652 0.249997541308403 8.162867546081543 C 0.249997541308403 3.799697637557983 3.799697637557983 0.249997541308403 8.162867546081543 0.249997541308403 C 12.52603721618652 0.249997541308403 16.07573699951172 3.799697637557983 16.07573699951172 8.162867546081543 C 16.07573699951172 12.52603721618652 12.52603721618652 16.07573699951172 8.162867546081543 16.07573699951172 Z" stroke="none"/>
    <path d="M 8.162867546081543 0.4999971389770508 C 3.93754768371582 0.4999971389770508 0.4999971389770508 3.93754768371582 0.4999971389770508 8.162867546081543 C 0.4999971389770508 12.38818740844727 3.93754768371582 15.82573795318604 8.162867546081543 15.82573795318604 C 12.38818740844727 15.82573795318604 15.82573795318604 12.38818740844727 15.82573795318604 8.162867546081543 C 15.82573795318604 3.93754768371582 12.38818740844727 0.4999971389770508 8.162867546081543 0.4999971389770508 M 8.162867546081543 -1.9073486328125e-06 C 12.67109775543213 -1.9073486328125e-06 16.32573699951172 3.654637336730957 16.32573699951172 8.162867546081543 C 16.32573699951172 12.67109775543213 12.67109775543213 16.32573699951172 8.162867546081543 16.32573699951172 C 3.654637336730957 16.32573699951172 -1.9073486328125e-06 12.67109775543213 -1.9073486328125e-06 8.162867546081543 C -1.9073486328125e-06 3.654637336730957 3.654637336730957 -1.9073486328125e-06 8.162867546081543 -1.9073486328125e-06 Z" stroke="none" fill="#25b89d"/>
  </g>
  <g id="Icon_feather-dollar-sign" data-name="Icon feather-dollar-sign" transform="translate(5.684 3.618)">
    <path id="Path_2028" data-name="Path 2028" d="M18,1.5v9.09" transform="translate(-15.521 -1.5)" fill="none" stroke="#25b89d" stroke-linecap="round" stroke-linejoin="round" stroke-width="1.2"/>
    <path id="Path_2029" data-name="Path 2029" d="M13.545,7.5h-3.1a1.446,1.446,0,1,0,0,2.892h2.066a1.446,1.446,0,1,1,0,2.892H9" transform="translate(-9 -5.847)" fill="none" stroke="#25b89d" stroke-linecap="round" stroke-linejoin="round" stroke-width="1.2"/>
  </g>
</svg>
