<svg id="Group_3332" data-name="Group 3332" xmlns="http://www.w3.org/2000/svg" width="16.326" height="16.326" viewBox="0 0 16.326 16.326">
  <g id="Path_2203" data-name="Path 2203" fill="#fee0e6">
    <path d="M 8.162867546081543 16.07573699951172 C 3.799697637557983 16.07573699951172 0.249997541308403 12.52603721618652 0.249997541308403 8.162867546081543 C 0.249997541308403 3.799697637557983 3.799697637557983 0.249997541308403 8.162867546081543 0.249997541308403 C 12.52603721618652 0.249997541308403 16.07573699951172 3.799697637557983 16.07573699951172 8.162867546081543 C 16.07573699951172 12.52603721618652 12.52603721618652 16.07573699951172 8.162867546081543 16.07573699951172 Z" stroke="none"/>
    <path d="M 8.162867546081543 0.4999971389770508 C 3.93754768371582 0.4999971389770508 0.4999971389770508 3.93754768371582 0.4999971389770508 8.162867546081543 C 0.4999971389770508 12.38818740844727 3.93754768371582 15.82573795318604 8.162867546081543 15.82573795318604 C 12.38818740844727 15.82573795318604 15.82573795318604 12.38818740844727 15.82573795318604 8.162867546081543 C 15.82573795318604 3.93754768371582 12.38818740844727 0.4999971389770508 8.162867546081543 0.4999971389770508 M 8.162867546081543 -1.9073486328125e-06 C 12.67109775543213 -1.9073486328125e-06 16.32573699951172 3.654637336730957 16.32573699951172 8.162867546081543 C 16.32573699951172 12.67109775543213 12.67109775543213 16.32573699951172 8.162867546081543 16.32573699951172 C 3.654637336730957 16.32573699951172 -1.9073486328125e-06 12.67109775543213 -1.9073486328125e-06 8.162867546081543 C -1.9073486328125e-06 3.654637336730957 3.654637336730957 -1.9073486328125e-06 8.162867546081543 -1.9073486328125e-06 Z" stroke="none" fill="#fa6580"/>
  </g>
  <path id="Icon_awesome-skull" data-name="Icon awesome-skull" d="M4.557,0A4.3,4.3,0,0,0,0,3.987,3.814,3.814,0,0,0,1.682,7.079a.56.56,0,0,1,.24.532L1.755,8.79a.283.283,0,0,0,.279.324H3.418v-1a.143.143,0,0,1,.142-.142h.285a.143.143,0,0,1,.142.142v1H5.126v-1a.143.143,0,0,1,.142-.142h.285a.143.143,0,0,1,.142.142v1H7.079a.283.283,0,0,0,.279-.324L7.191,7.611a.558.558,0,0,1,.24-.532A3.814,3.814,0,0,0,9.113,3.987,4.3,4.3,0,0,0,4.557,0ZM2.848,5.7A1.139,1.139,0,1,1,3.987,4.557,1.14,1.14,0,0,1,2.848,5.7Zm3.418,0A1.139,1.139,0,1,1,7.4,4.557,1.14,1.14,0,0,1,6.266,5.7Z" transform="translate(3.714 3.604)" fill="#fa6580"/>
</svg>
