<svg width="13" height="15" viewBox="0 0 13 15" fill="none" xmlns="http://www.w3.org/2000/svg">
<path d="M7.41667 0.929749V3.68344C7.41667 4.05681 7.41667 4.24349 7.48933 4.3861C7.55324 4.51154 7.65523 4.61353 7.78067 4.67745C7.92328 4.75011 8.10997 4.75011 8.48333 4.75011H11.237M7.41667 10.7501H3.41667M8.75 8.08339H3.41667M11.4167 6.07554V10.8834C11.4167 12.0035 11.4167 12.5636 11.1987 12.9914C11.0069 13.3677 10.701 13.6737 10.3246 13.8654C9.89682 14.0834 9.33677 14.0834 8.21667 14.0834H3.95C2.8299 14.0834 2.26984 14.0834 1.84202 13.8654C1.46569 13.6737 1.15973 13.3677 0.967987 12.9914C0.75 12.5636 0.75 12.0035 0.75 10.8834V3.95006C0.75 2.82996 0.75 2.2699 0.967987 1.84208C1.15973 1.46576 1.46569 1.15979 1.84202 0.968048C2.26984 0.750061 2.8299 0.750061 3.95 0.750061H6.09118C6.58036 0.750061 6.82496 0.750061 7.05513 0.805321C7.2592 0.854315 7.45429 0.935123 7.63324 1.04478C7.83507 1.16846 8.00802 1.34142 8.35393 1.68732L10.4794 3.8128C10.8253 4.15871 10.9983 4.33166 11.1219 4.53349C11.2316 4.71244 11.3124 4.90752 11.3614 5.1116C11.4167 5.34177 11.4167 5.58636 11.4167 6.07554Z" stroke="#2680EA" stroke-width="1.5" stroke-linecap="round" stroke-linejoin="round"/>
</svg>
