<svg width="130" height="32" viewBox="0 0 130 32" fill="none" xmlns="http://www.w3.org/2000/svg">
<g clip-path="url(#clip0_14287_4008)">
<path d="M24.8889 0H7.11111C3.18375 0 0 3.18375 0 7.11111V24.8889C0 28.8162 3.18375 32 7.11111 32H24.8889C28.8162 32 32 28.8162 32 24.8889V7.11111C32 3.18375 28.8162 0 24.8889 0Z" fill="#384A97"/>
<path d="M7.02299 13.7484C7.07999 12.1578 7.61013 10.6204 8.54563 9.33279C9.48112 8.04514 10.7794 7.0658 12.2745 6.52002C12.9172 6.29158 13.5981 6.16978 14.2621 6C14.2918 6.07393 14.3147 6.1504 14.3305 6.22846C14.3305 8.07024 14.3305 9.91287 14.3368 11.7555C14.3368 12.0222 14.2123 12.08 13.9865 12.1413C13.0495 12.3915 12.2446 12.9925 11.7384 13.8198C11.2323 14.6471 11.0638 15.6374 11.2677 16.5856C11.4716 17.5337 12.0324 18.3672 12.8339 18.9132C13.6354 19.4593 14.6162 19.6763 15.5732 19.5191C15.6569 19.5057 15.7424 19.5103 15.8241 19.5327C15.9059 19.5551 15.9818 19.5947 16.047 19.6489C16.7808 20.6776 17.8907 21.3755 19.1359 21.5911C19.2863 21.6284 19.4249 21.7027 19.5394 21.8071C19.7505 22.0234 20.0389 22.147 20.3412 22.1507C20.6434 22.1543 20.9347 22.0378 21.151 21.8267C21.3673 21.6155 21.4909 21.3272 21.4945 21.025C21.4982 20.7227 21.3817 20.4314 21.1705 20.2151C21.0686 20.1067 20.9462 20.0195 20.8104 19.9586C20.6746 19.8977 20.528 19.8644 20.3793 19.8605C20.2305 19.8566 20.0824 19.8823 19.9436 19.936C19.8048 19.9897 19.678 20.0704 19.5705 20.1733C19.471 20.2684 19.3393 20.3227 19.2017 20.3254C18.7661 20.243 18.352 20.0722 17.985 19.8234C17.6181 19.5746 17.3061 19.2533 17.0683 18.8791C17.1385 18.8517 17.2056 18.8168 17.2683 18.7751C17.8269 18.3605 18.2551 17.7946 18.5024 17.1444C18.7497 16.4942 18.8057 15.7868 18.6639 15.1058C18.5469 14.3823 18.2165 13.7101 17.7151 13.1755C17.2138 12.6408 16.5642 12.268 15.8497 12.1049C15.7815 12.073 15.722 12.0251 15.6765 11.9652C15.631 11.9052 15.6007 11.8351 15.5883 11.7609C15.5714 9.96268 15.583 8.16353 15.5723 6.36442C15.5723 6.06575 15.6843 5.98845 15.959 6.0089C17.7205 6.08681 19.4315 6.622 20.9234 7.56179C21.2443 7.77424 21.6043 7.96531 21.5457 8.46398C21.5332 8.56442 21.6568 8.69067 21.7332 8.79378C22.5987 10.001 23.1446 11.4076 23.3199 12.8826C23.3605 13.152 23.4494 13.4119 23.5821 13.6498C24.0265 14.4329 24.5039 15.1929 24.951 15.9733C25.0744 16.1547 25.1546 16.362 25.1853 16.5792C25.216 16.7964 25.1965 17.0177 25.1283 17.2262C25.06 17.4347 24.9448 17.6247 24.7916 17.7816C24.6383 17.9386 24.4511 18.0583 24.2443 18.1316C24.0251 18.2058 23.812 18.2971 23.607 18.4045C23.4632 18.499 23.3611 18.645 23.3217 18.8124C23.2257 19.5893 23.1688 20.3707 23.0923 21.1502C23.0262 21.8888 22.6721 22.5717 22.1066 23.0514C21.5411 23.5311 20.8096 23.769 20.0701 23.7138C19.8123 23.696 19.5563 23.6507 19.2505 23.6115V25.4854C19.0443 25.4996 18.9163 25.5164 18.7883 25.5173C15.9021 25.5173 13.015 25.5129 10.1288 25.5227C9.80965 25.5227 9.73765 25.4 9.74299 25.1102C9.75899 24.3102 9.73143 23.5102 9.75632 22.7173C9.77731 21.9593 9.58745 21.2103 9.20788 20.5538C9.01677 20.2124 8.80343 19.8827 8.58032 19.5609C7.42581 17.8521 6.87748 15.8055 7.02299 13.7484Z" fill="url(#paint0_linear_14287_4008)"/>
<path d="M17.4862 15.4328C17.4858 15.9314 17.3379 16.4188 17.0612 16.8336C16.7845 17.2485 16.3913 17.5722 15.931 17.7641C15.4708 17.956 14.964 18.0075 14.4746 17.9121C13.9851 17.8168 13.5348 17.5787 13.1803 17.228C12.8258 16.8773 12.5829 16.4296 12.4822 15.9412C12.3816 15.4528 12.4276 14.9456 12.6145 14.4833C12.8014 14.021 13.1208 13.6243 13.5326 13.3431C13.9444 13.0619 14.4302 12.9088 14.9288 12.903C15.2633 12.8994 15.5952 12.9623 15.9053 13.0878C16.2153 13.2134 16.4974 13.3991 16.7352 13.6344C16.9731 13.8696 17.1619 14.1497 17.2908 14.4584C17.4197 14.767 17.4861 15.0982 17.4862 15.4328ZM14.9137 13.519C14.4132 13.5385 13.9401 13.7524 13.5947 14.1152C13.2494 14.478 13.0591 14.9611 13.0643 15.4619C13.0696 15.9628 13.2698 16.4419 13.6226 16.7974C13.9754 17.153 14.4529 17.357 14.9537 17.3661C15.2063 17.3635 15.4559 17.3111 15.6883 17.212C15.9207 17.1129 16.1313 16.969 16.308 16.7886C16.4848 16.6081 16.6243 16.3945 16.7185 16.1601C16.8128 15.9258 16.8599 15.6751 16.8573 15.4225C16.8547 15.1699 16.8023 14.9203 16.7032 14.6879C16.6041 14.4555 16.4602 14.245 16.2797 14.0682C16.0993 13.8915 15.8857 13.752 15.6514 13.6577C15.417 13.5635 15.1663 13.5163 14.9137 13.519Z" fill="url(#paint1_linear_14287_4008)"/>
</g>
<path d="M43.9355 13.1895V24H41.6406V13.1895H43.9355ZM42.8027 9.04883C43.1543 9.04883 43.457 9.14323 43.7109 9.33203C43.9714 9.52083 44.1016 9.84635 44.1016 10.3086C44.1016 10.7643 43.9714 11.0898 43.7109 11.2852C43.457 11.474 43.1543 11.5684 42.8027 11.5684C42.4382 11.5684 42.1289 11.474 41.875 11.2852C41.6276 11.0898 41.5039 10.7643 41.5039 10.3086C41.5039 9.84635 41.6276 9.52083 41.875 9.33203C42.1289 9.14323 42.4382 9.04883 42.8027 9.04883ZM51.6113 9.72266C53.4538 9.72266 54.7982 10.1003 55.6445 10.8555C56.4909 11.6107 56.9141 12.6686 56.9141 14.0293C56.9141 14.6478 56.8164 15.237 56.6211 15.7969C56.4323 16.3503 56.1198 16.8418 55.6836 17.2715C55.2474 17.6947 54.6712 18.0299 53.9551 18.2773C53.2454 18.5247 52.3698 18.6484 51.3281 18.6484H49.8047V24H47.4609V9.72266H51.6113ZM51.4551 11.666H49.8047V16.6953H51.084C51.8197 16.6953 52.4447 16.6107 52.959 16.4414C53.4733 16.2656 53.8639 15.9889 54.1309 15.6113C54.3978 15.2337 54.5312 14.7357 54.5312 14.1172C54.5312 13.2904 54.2806 12.6751 53.7793 12.2715C53.2845 11.8678 52.5098 11.666 51.4551 11.666ZM65.0098 12.9844C65.1921 12.9844 65.3906 12.9941 65.6055 13.0137C65.8203 13.0332 66.0059 13.0592 66.1621 13.0918L65.9473 15.2402C65.8105 15.2012 65.6413 15.1719 65.4395 15.1523C65.2441 15.1328 65.0684 15.123 64.9121 15.123C64.502 15.123 64.1113 15.1914 63.7402 15.3281C63.3691 15.4583 63.0404 15.6602 62.7539 15.9336C62.4674 16.2005 62.2428 16.5358 62.0801 16.9395C61.9173 17.3431 61.8359 17.8118 61.8359 18.3457V24H59.5312V13.1895H61.3281L61.6406 15.0938H61.748C61.9629 14.7096 62.2298 14.3581 62.5488 14.0391C62.8678 13.7201 63.2324 13.4661 63.6426 13.2773C64.0592 13.082 64.515 12.9844 65.0098 12.9844ZM77.7344 18.5703C77.7344 19.4688 77.6172 20.2663 77.3828 20.9629C77.1484 21.6595 76.8066 22.2487 76.3574 22.7305C75.9082 23.2057 75.3678 23.5703 74.7363 23.8242C74.1048 24.0716 73.3919 24.1953 72.5977 24.1953C71.8555 24.1953 71.1751 24.0716 70.5566 23.8242C69.9382 23.5703 69.401 23.2057 68.9453 22.7305C68.4961 22.2487 68.1478 21.6595 67.9004 20.9629C67.653 20.2663 67.5293 19.4688 67.5293 18.5703C67.5293 17.3789 67.7344 16.3698 68.1445 15.543C68.5612 14.7096 69.1536 14.0749 69.9219 13.6387C70.6901 13.2025 71.6048 12.9844 72.666 12.9844C73.6621 12.9844 74.541 13.2025 75.3027 13.6387C76.0645 14.0749 76.6602 14.7096 77.0898 15.543C77.5195 16.3763 77.7344 17.3854 77.7344 18.5703ZM69.8926 18.5703C69.8926 19.3581 69.987 20.0319 70.1758 20.5918C70.3711 21.1517 70.6706 21.5814 71.0742 21.8809C71.4779 22.1738 71.9987 22.3203 72.6367 22.3203C73.2747 22.3203 73.7956 22.1738 74.1992 21.8809C74.6029 21.5814 74.8991 21.1517 75.0879 20.5918C75.2767 20.0319 75.3711 19.3581 75.3711 18.5703C75.3711 17.7826 75.2767 17.1152 75.0879 16.5684C74.8991 16.015 74.6029 15.5951 74.1992 15.3086C73.7956 15.0156 73.2715 14.8691 72.627 14.8691C71.6764 14.8691 70.9831 15.1882 70.5469 15.8262C70.1107 16.4642 69.8926 17.3789 69.8926 18.5703ZM82.8418 24L78.7305 13.1895H81.1621L83.3887 19.5371C83.5319 19.9408 83.6621 20.377 83.7793 20.8457C83.8965 21.3145 83.9779 21.7083 84.0234 22.0273H84.1016C84.1471 21.6953 84.235 21.2982 84.3652 20.8359C84.4954 20.3672 84.6289 19.9342 84.7656 19.5371L86.9922 13.1895H89.4141L85.3027 24H82.8418ZM93.3496 13.1895V24H91.0547V13.1895H93.3496ZM92.2168 9.04883C92.5684 9.04883 92.8711 9.14323 93.125 9.33203C93.3854 9.52083 93.5156 9.84635 93.5156 10.3086C93.5156 10.7643 93.3854 11.0898 93.125 11.2852C92.8711 11.474 92.5684 11.5684 92.2168 11.5684C91.8522 11.5684 91.543 11.474 91.2891 11.2852C91.0417 11.0898 90.918 10.7643 90.918 10.3086C90.918 9.84635 91.0417 9.52083 91.2891 9.33203C91.543 9.14323 91.8522 9.04883 92.2168 9.04883ZM103.906 20.9141C103.906 21.6237 103.734 22.2227 103.389 22.7109C103.044 23.1992 102.539 23.5703 101.875 23.8242C101.217 24.0716 100.41 24.1953 99.4531 24.1953C98.6979 24.1953 98.0469 24.14 97.5 24.0293C96.9596 23.9251 96.4486 23.7624 95.9668 23.541V21.5586C96.4811 21.7995 97.0573 22.0078 97.6953 22.1836C98.3398 22.3594 98.9486 22.4473 99.5215 22.4473C100.277 22.4473 100.82 22.3301 101.152 22.0957C101.484 21.8548 101.65 21.5358 101.65 21.1387C101.65 20.9043 101.582 20.696 101.445 20.5137C101.315 20.3249 101.068 20.1328 100.703 19.9375C100.345 19.7357 99.8177 19.4948 99.1211 19.2148C98.4375 18.9414 97.8613 18.668 97.3926 18.3945C96.9238 18.1211 96.569 17.7923 96.3281 17.4082C96.0872 17.0176 95.9668 16.5195 95.9668 15.9141C95.9668 14.957 96.3444 14.2311 97.0996 13.7363C97.8613 13.235 98.8672 12.9844 100.117 12.9844C100.781 12.9844 101.406 13.0527 101.992 13.1895C102.585 13.3197 103.164 13.5117 103.73 13.7656L103.008 15.4941C102.52 15.2793 102.028 15.1035 101.533 14.9668C101.045 14.8236 100.547 14.752 100.039 14.752C99.4466 14.752 98.9941 14.8431 98.6816 15.0254C98.3757 15.2077 98.2227 15.4681 98.2227 15.8066C98.2227 16.0605 98.2975 16.2754 98.4473 16.4512C98.597 16.627 98.8542 16.8027 99.2188 16.9785C99.5898 17.1543 100.104 17.3724 100.762 17.6328C101.406 17.8802 101.963 18.1406 102.432 18.4141C102.907 18.681 103.271 19.0098 103.525 19.4004C103.779 19.791 103.906 20.2956 103.906 20.9141ZM115.957 18.5703C115.957 19.4688 115.84 20.2663 115.605 20.9629C115.371 21.6595 115.029 22.2487 114.58 22.7305C114.131 23.2057 113.59 23.5703 112.959 23.8242C112.327 24.0716 111.615 24.1953 110.82 24.1953C110.078 24.1953 109.398 24.0716 108.779 23.8242C108.161 23.5703 107.624 23.2057 107.168 22.7305C106.719 22.2487 106.37 21.6595 106.123 20.9629C105.876 20.2663 105.752 19.4688 105.752 18.5703C105.752 17.3789 105.957 16.3698 106.367 15.543C106.784 14.7096 107.376 14.0749 108.145 13.6387C108.913 13.2025 109.827 12.9844 110.889 12.9844C111.885 12.9844 112.764 13.2025 113.525 13.6387C114.287 14.0749 114.883 14.7096 115.312 15.543C115.742 16.3763 115.957 17.3854 115.957 18.5703ZM108.115 18.5703C108.115 19.3581 108.21 20.0319 108.398 20.5918C108.594 21.1517 108.893 21.5814 109.297 21.8809C109.701 22.1738 110.221 22.3203 110.859 22.3203C111.497 22.3203 112.018 22.1738 112.422 21.8809C112.826 21.5814 113.122 21.1517 113.311 20.5918C113.499 20.0319 113.594 19.3581 113.594 18.5703C113.594 17.7826 113.499 17.1152 113.311 16.5684C113.122 16.015 112.826 15.5951 112.422 15.3086C112.018 15.0156 111.494 14.8691 110.85 14.8691C109.899 14.8691 109.206 15.1882 108.77 15.8262C108.333 16.4642 108.115 17.3789 108.115 18.5703ZM124.229 12.9844C125.446 12.9844 126.393 13.3001 127.07 13.9316C127.754 14.5566 128.096 15.5625 128.096 16.9492V24H125.801V17.3789C125.801 16.5391 125.628 15.9108 125.283 15.4941C124.938 15.071 124.404 14.8594 123.682 14.8594C122.633 14.8594 121.904 15.1816 121.494 15.8262C121.09 16.4707 120.889 17.4049 120.889 18.6289V24H118.594V13.1895H120.381L120.703 14.6543H120.83C121.064 14.2767 121.354 13.9674 121.699 13.7266C122.051 13.4792 122.441 13.2936 122.871 13.1699C123.307 13.0462 123.76 12.9844 124.229 12.9844Z" fill="white"/>
<defs>
<linearGradient id="paint0_linear_14287_4008" x1="7" y1="15.7613" x2="25.1995" y2="15.7613" gradientUnits="userSpaceOnUse">
<stop stop-color="#889EFF"/>
<stop offset="1" stop-color="#B9EBFF"/>
</linearGradient>
<linearGradient id="paint1_linear_14287_4008" x1="12.4302" y1="15.4308" x2="17.4862" y2="15.4308" gradientUnits="userSpaceOnUse">
<stop stop-color="#889EFF"/>
<stop offset="1" stop-color="#B9EBFF"/>
</linearGradient>
<clipPath id="clip0_14287_4008">
<rect width="32" height="32" fill="white"/>
</clipPath>
</defs>
</svg>
