<svg width="120" height="24" viewBox="0 0 120 24" fill="none" xmlns="http://www.w3.org/2000/svg">
<g clip-path="url(#clip0_5006_3911)">
<path d="M21.9618 24H13.1559C5.90294 24 0 18.6301 0 12.0321C0 5.43411 5.90294 0.064209 13.1559 0.064209H24.8647V2.70501H13.1559C7.5 2.70501 2.90294 6.88695 2.90294 12.0321C2.90294 17.1773 7.5 21.3592 13.1559 21.3592H21.9618V24ZM16.0324 15.9652H13.1559C10.7735 15.9652 8.83235 14.1993 8.83235 12.0321C8.83235 9.86488 10.7735 8.09899 13.1559 8.09899H18.9265V5.45819H13.1559C9.17647 5.45819 5.92941 8.40401 5.92941 12.0321C5.92941 15.6602 9.16765 18.606 13.1559 18.606H16.0324V15.9652ZM24.8647 10.7157H13.1559C12.3529 10.7157 11.7088 11.3097 11.7088 12.0321C11.7088 12.7545 12.3618 13.3485 13.1559 13.3485H24.8647V10.7077V10.7157ZM21.9 8.09899H24.8029V5.45819H21.9V8.09899ZM18.9618 18.606H21.8647V15.9652H18.9618V18.606ZM27.7059 2.70501H30.6088V0.064209H27.7059V2.70501ZM27.7059 13.3565H30.6088V10.7157H27.7059V13.3565ZM24.8647 24.008H27.7676V21.3672H24.8647V24.008Z" fill="url(#paint0_linear_5006_3911)"/>
<path d="M47.824 0.240723V2.60059H42.0887C39.2299 2.60059 37.9769 3.90092 37.9769 6.99925C37.9769 10.0976 39.2034 11.3819 42.0887 11.3819H47.824V13.7417H42.0887C37.7563 13.7417 35.3828 11.5183 35.3828 7.00728C35.3828 2.49624 37.7828 0.240723 42.0887 0.240723H47.824Z" fill="white"/>
<path d="M52.4037 13.7338H49.5449L54.7508 1.73378C55.2979 0.473579 56.3126 0 57.8743 0C59.4361 0 60.4243 0.481605 60.9537 1.73378L65.9655 13.7338H63.089L58.5802 2.87358C58.4479 2.55251 58.2096 2.41605 57.8567 2.41605C57.5037 2.41605 57.2655 2.56054 57.1155 2.87358L52.4126 13.7338H52.4037Z" fill="white"/>
<path d="M76.7472 0.240723V2.60059H72.4148V13.7417H69.8031V2.60059H65.4707V0.240723H76.7472Z" fill="white"/>
<path d="M90.4849 0.240693V2.60056H82.879C81.5378 2.60056 80.9466 3.25875 80.9466 4.19788C80.9466 5.01661 81.4055 5.79521 83.1437 5.79521H86.6202C90.6613 5.79521 91.6054 7.834 91.6054 9.77648C91.6054 12.0561 90.2643 13.7337 86.8849 13.7337H78.6172V11.3658H86.9731C88.376 11.3658 89.0202 10.6674 89.0202 9.68818C89.0202 8.81327 88.5172 8.01059 86.6907 8.01059H83.2407C79.2878 8.01059 78.3613 5.98785 78.3613 4.10959C78.3613 1.87012 79.6849 0.232666 82.976 0.232666H90.4849V0.240693Z" fill="white"/>
<path d="M102.821 17.6669V13.6054H97.174C95.0917 13.6054 94.1211 12.9311 94.1211 11.4863C94.1211 10.6274 94.474 9.88898 94.7387 9.34316L99.5387 0.200684H102.459L102.336 0.43346C101.524 1.98262 97.0505 10.6194 97.0505 10.6194L97.024 10.6836C96.9711 10.8121 96.9005 10.9806 96.9005 11.1331C96.9005 11.2616 96.9005 11.5264 97.5534 11.5264H102.821V6.95921H105.371V11.5264H107.303V13.6054H105.371V17.6749H102.821V17.6669Z" fill="url(#paint1_linear_5006_3911)"/>
<path d="M112.994 12.1606C110.135 12.1606 108.617 10.804 108.617 8.23547V0.200684H111.538V8.08296C111.538 9.07828 112.085 9.5358 113.25 9.5358H115.464C116.62 9.5358 117.158 9.07025 117.158 8.08296V0.200684H120.008V8.23547C120.008 10.804 118.491 12.1606 115.614 12.1606H112.994Z" fill="url(#paint2_linear_5006_3911)"/>
<path d="M38.5672 18.2046C40.0054 18.2046 40.6054 18.8226 40.6054 19.7216C40.6054 20.3638 40.2966 20.7491 39.7319 20.9497C40.3054 21.1665 40.6319 21.5758 40.6319 22.218C40.6319 23.1009 40.023 23.7431 38.5936 23.7431H35.8848C35.5407 23.7431 35.373 23.5986 35.373 23.2936V18.6541C35.373 18.3491 35.5319 18.2046 35.8848 18.2046H38.5583H38.5672ZM36.4319 20.5404H38.5936C39.2289 20.5404 39.5378 20.3237 39.5378 19.8742C39.5378 19.4247 39.2554 19.1517 38.6113 19.1517H36.5554C36.4848 19.1517 36.4319 19.1839 36.4319 19.2481V20.5404ZM36.4319 22.6915C36.4319 22.7558 36.476 22.7798 36.5554 22.7798H38.6289C39.2642 22.7798 39.573 22.5069 39.573 22.0574C39.573 21.6079 39.2554 21.3431 38.6289 21.3431H36.4319V22.6835V22.6915Z" fill="white"/>
<path d="M42.5461 18.2046L44.2578 20.5805L45.9784 18.2046H47.2402L44.7872 21.3591V23.7511H43.7108V21.3591L41.2578 18.2046H42.5461Z" fill="white"/>
<path d="M55.394 18.2046V19.1758H53.0381C51.8646 19.1758 51.3528 19.7056 51.3528 20.9818C51.3528 22.2581 51.8646 22.7798 53.0381 22.7798H55.394V23.7511H53.0381C51.2557 23.7511 50.2852 22.836 50.2852 20.9818C50.2852 19.1277 51.2646 18.2046 53.0381 18.2046H55.394Z" fill="white"/>
<path d="M57.7239 18.2046V23.7511H56.6562V18.2046H57.7239Z" fill="white"/>
<path d="M64.2354 18.2046V19.1758H61.7295C60.556 19.1758 60.0442 19.7056 60.0442 20.9818C60.0442 22.2581 60.556 22.7798 61.7295 22.7798H62.7442C63.3354 22.7798 63.5913 22.4507 63.5913 22.0012C63.5913 21.5517 63.3354 21.2949 62.8413 21.2949H61.4913V20.4521H62.956C64.0413 20.4521 64.5707 21.0621 64.5707 22.0173C64.5707 22.9725 64.0413 23.7511 62.6736 23.7511H61.7295C59.9472 23.7511 58.9766 22.836 58.9766 20.9818C58.9766 19.1277 59.956 18.2046 61.7295 18.2046H64.2442H64.2354Z" fill="white"/>
<path d="M66.8372 23.7432H65.7695V19.3124C65.7695 18.59 66.2195 18.1003 67.1725 18.1003C68.0195 18.1003 68.3989 18.4937 68.6548 19.1278L70.4372 22.6676C70.5078 22.796 70.6313 22.9003 70.8254 22.9003C71.0548 22.9003 71.1872 22.7799 71.1872 22.5873V18.1967H72.2636V22.6194C72.2636 23.3498 71.8048 23.8314 70.8607 23.8314C70.0136 23.8314 69.6254 23.4381 69.3695 22.804L67.5872 19.2642C67.5078 19.0957 67.3931 19.0314 67.2078 19.0314C66.9607 19.0314 66.8372 19.1518 66.8372 19.3525V23.7432Z" fill="white"/>
<path d="M78.5825 18.2046V19.1758H75.5295C74.8943 19.1758 74.6119 19.4487 74.6119 19.8742C74.6119 20.3237 74.9295 20.5323 75.5384 20.5323H78.5295V21.4073H75.5031C74.8854 21.4073 74.5766 21.632 74.5766 22.0815C74.5766 22.531 74.8766 22.7798 75.4943 22.7798H78.5825V23.7511H75.4943C74.0472 23.7511 73.4648 23.1009 73.4648 22.242C73.4648 21.6079 73.7825 21.1825 74.3384 20.9658C73.7648 20.7491 73.4825 20.3237 73.4825 19.7136C73.4825 18.8307 74.0913 18.2046 75.5207 18.2046H78.5737H78.5825Z" fill="white"/>
<path d="M83.258 18.2046C84.6345 18.2046 85.2169 18.9752 85.2169 19.8661C85.2169 20.5564 84.8551 21.2949 83.9286 21.5357L85.3492 23.7511H84.1669L82.7727 21.6079H81.1845C81.0875 21.6079 81.0345 21.6481 81.0345 21.7444V23.7511H79.9669V21.5598C79.9669 20.9337 80.258 20.6849 80.9198 20.6849H83.2933C83.9022 20.6849 84.1404 20.3076 84.1404 19.9143C84.1404 19.521 83.8845 19.1839 83.2933 19.1839H79.9492V18.2126H83.258V18.2046Z" fill="white"/>
<path d="M87.0173 23.7432H85.8438L87.9879 18.8147C88.2173 18.293 88.6232 18.1003 89.2673 18.1003C89.9114 18.1003 90.3173 18.301 90.529 18.8147L92.5849 23.7432H91.4026L89.5496 19.2883C89.4967 19.1599 89.3996 19.1037 89.2496 19.1037C89.0996 19.1037 89.0026 19.1599 88.9408 19.2883L87.0085 23.7432H87.0173Z" fill="white"/>
</g>
<defs>
<linearGradient id="paint0_linear_5006_3911" x1="15.3794" y1="25.7819" x2="15.2918" y2="-2.05491" gradientUnits="userSpaceOnUse">
<stop stop-color="#9682CC"/>
<stop offset="0.2" stop-color="#8D88D0"/>
<stop offset="0.53" stop-color="#7698DB"/>
<stop offset="0.93" stop-color="#50B3EE"/>
<stop offset="1" stop-color="#49B9F2"/>
</linearGradient>
<linearGradient id="paint1_linear_5006_3911" x1="94.1211" y1="8.93379" x2="107.303" y2="8.93379" gradientUnits="userSpaceOnUse">
<stop stop-color="#9682CC"/>
<stop offset="0.2" stop-color="#8D88D0"/>
<stop offset="0.53" stop-color="#7698DB"/>
<stop offset="0.93" stop-color="#50B3EE"/>
<stop offset="1" stop-color="#49B9F2"/>
</linearGradient>
<linearGradient id="paint2_linear_5006_3911" x1="108.617" y1="6.18062" x2="120" y2="6.18062" gradientUnits="userSpaceOnUse">
<stop stop-color="#9682CC"/>
<stop offset="0.2" stop-color="#8D88D0"/>
<stop offset="0.53" stop-color="#7698DB"/>
<stop offset="0.93" stop-color="#50B3EE"/>
<stop offset="1" stop-color="#49B9F2"/>
</linearGradient>
<clipPath id="clip0_5006_3911">
<rect width="120" height="24" fill="white"/>
</clipPath>
</defs>
</svg>
