<svg width="144" height="64" viewBox="0 0 144 64" fill="none" xmlns="http://www.w3.org/2000/svg">
<g clip-path="url(#clip0_937_13753)">
<path d="M33.9618 44H25.1559C17.9029 44 12 38.6301 12 32.0321C12 25.4341 17.9029 20.0642 25.1559 20.0642H36.8647V22.705H25.1559C19.5 22.705 14.9029 26.887 14.9029 32.0321C14.9029 37.1773 19.5 41.3592 25.1559 41.3592H33.9618V44ZM28.0324 35.9652H25.1559C22.7735 35.9652 20.8324 34.1993 20.8324 32.0321C20.8324 29.8649 22.7735 28.099 25.1559 28.099H30.9265V25.4582H25.1559C21.1765 25.4582 17.9294 28.404 17.9294 32.0321C17.9294 35.6602 21.1676 38.606 25.1559 38.606H28.0324V35.9652ZM36.8647 30.7157H25.1559C24.3529 30.7157 23.7088 31.3097 23.7088 32.0321C23.7088 32.7545 24.3618 33.3485 25.1559 33.3485H36.8647V30.7077V30.7157ZM33.9 28.099H36.8029V25.4582H33.9V28.099ZM30.9618 38.606H33.8647V35.9652H30.9618V38.606ZM39.7059 22.705H42.6088V20.0642H39.7059V22.705ZM39.7059 33.3565H42.6088V30.7157H39.7059V33.3565ZM36.8647 44.008H39.7676V41.3672H36.8647V44.008Z" fill="url(#paint0_linear_937_13753)"/>
<path d="M59.824 20.2407V22.6006H54.0887C51.2299 22.6006 49.9769 23.9009 49.9769 26.9993C49.9769 30.0976 51.2034 31.3819 54.0887 31.3819H59.824V33.7417H54.0887C49.7563 33.7417 47.3828 31.5183 47.3828 27.0073C47.3828 22.4962 49.7828 20.2407 54.0887 20.2407H59.824Z" fill="white"/>
<path d="M64.4037 33.7338H61.5449L66.7508 21.7338C67.2979 20.4736 68.3126 20 69.8743 20C71.4361 20 72.4243 20.4816 72.9537 21.7338L77.9655 33.7338H75.089L70.5802 22.8736C70.4479 22.5525 70.2096 22.4161 69.8567 22.4161C69.5037 22.4161 69.2655 22.5605 69.1155 22.8736L64.4126 33.7338H64.4037Z" fill="white"/>
<path d="M88.7472 20.2407V22.6006H84.4148V33.7417H81.8031V22.6006H77.4707V20.2407H88.7472Z" fill="white"/>
<path d="M102.485 20.2407V22.6006H94.879C93.5378 22.6006 92.9466 23.2588 92.9466 24.1979C92.9466 25.0166 93.4055 25.7952 95.1437 25.7952H98.6202C102.661 25.7952 103.605 27.834 103.605 29.7765C103.605 32.0561 102.264 33.7337 98.8849 33.7337H90.6172V31.3658H98.9731C100.376 31.3658 101.02 30.6674 101.02 29.6882C101.02 28.8133 100.517 28.0106 98.6907 28.0106H95.2407C91.2878 28.0106 90.3613 25.9879 90.3613 24.1096C90.3613 21.8701 91.6849 20.2327 94.976 20.2327H102.485V20.2407Z" fill="white"/>
<path d="M114.821 37.6669V33.6054H109.174C107.092 33.6054 106.121 32.9311 106.121 31.4863C106.121 30.6274 106.474 29.889 106.739 29.3432L111.539 20.2007H114.459L114.336 20.4335C113.524 21.9826 109.051 30.6194 109.051 30.6194L109.024 30.6836C108.971 30.8121 108.901 30.9806 108.901 31.1331C108.901 31.2616 108.901 31.5264 109.553 31.5264H114.821V26.9592H117.371V31.5264H119.303V33.6054H117.371V37.6749H114.821V37.6669Z" fill="url(#paint1_linear_937_13753)"/>
<path d="M124.994 32.1606C122.135 32.1606 120.617 30.804 120.617 28.2355V20.2007H123.538V28.083C123.538 29.0783 124.085 29.5358 125.25 29.5358H127.464C128.62 29.5358 129.158 29.0702 129.158 28.083V20.2007H132.008V28.2355C132.008 30.804 130.491 32.1606 127.614 32.1606H124.994Z" fill="url(#paint2_linear_937_13753)"/>
<path d="M50.5672 38.2046C52.0054 38.2046 52.6054 38.8226 52.6054 39.7216C52.6054 40.3638 52.2966 40.7491 51.7319 40.9497C52.3054 41.1665 52.6319 41.5758 52.6319 42.218C52.6319 43.1009 52.023 43.7431 50.5936 43.7431H47.8848C47.5407 43.7431 47.373 43.5986 47.373 43.2936V38.6541C47.373 38.3491 47.5319 38.2046 47.8848 38.2046H50.5583H50.5672ZM48.4319 40.5404H50.5936C51.2289 40.5404 51.5378 40.3237 51.5378 39.8742C51.5378 39.4247 51.2554 39.1517 50.6113 39.1517H48.5554C48.4848 39.1517 48.4319 39.1839 48.4319 39.2481V40.5404ZM48.4319 42.6915C48.4319 42.7558 48.476 42.7798 48.5554 42.7798H50.6289C51.2642 42.7798 51.573 42.5069 51.573 42.0574C51.573 41.6079 51.2554 41.3431 50.6289 41.3431H48.4319V42.6835V42.6915Z" fill="white"/>
<path d="M54.5461 38.2046L56.2578 40.5805L57.9784 38.2046H59.2402L56.7872 41.3591V43.7511H55.7108V41.3591L53.2578 38.2046H54.5461Z" fill="white"/>
<path d="M67.394 38.2046V39.1758H65.0381C63.8646 39.1758 63.3528 39.7056 63.3528 40.9818C63.3528 42.2581 63.8646 42.7798 65.0381 42.7798H67.394V43.7511H65.0381C63.2557 43.7511 62.2852 42.836 62.2852 40.9818C62.2852 39.1277 63.2646 38.2046 65.0381 38.2046H67.394Z" fill="white"/>
<path d="M69.7239 38.2046V43.7511H68.6562V38.2046H69.7239Z" fill="white"/>
<path d="M76.2354 38.2046V39.1758H73.7295C72.556 39.1758 72.0442 39.7056 72.0442 40.9818C72.0442 42.2581 72.556 42.7798 73.7295 42.7798H74.7442C75.3354 42.7798 75.5913 42.4507 75.5913 42.0012C75.5913 41.5517 75.3354 41.2949 74.8413 41.2949H73.4913V40.4521H74.956C76.0413 40.4521 76.5707 41.0621 76.5707 42.0173C76.5707 42.9725 76.0413 43.7511 74.6736 43.7511H73.7295C71.9472 43.7511 70.9766 42.836 70.9766 40.9818C70.9766 39.1277 71.956 38.2046 73.7295 38.2046H76.2442H76.2354Z" fill="white"/>
<path d="M78.8372 43.7432H77.7695V39.3124C77.7695 38.59 78.2195 38.1003 79.1725 38.1003C80.0195 38.1003 80.3989 38.4937 80.6548 39.1278L82.4372 42.6676C82.5078 42.796 82.6313 42.9003 82.8254 42.9003C83.0548 42.9003 83.1872 42.7799 83.1872 42.5873V38.1967H84.2636V42.6194C84.2636 43.3498 83.8048 43.8314 82.8607 43.8314C82.0136 43.8314 81.6254 43.4381 81.3695 42.804L79.5872 39.2642C79.5078 39.0957 79.3931 39.0314 79.2078 39.0314C78.9607 39.0314 78.8372 39.1518 78.8372 39.3525V43.7432Z" fill="white"/>
<path d="M90.5825 38.2046V39.1758H87.5295C86.8943 39.1758 86.6119 39.4487 86.6119 39.8742C86.6119 40.3237 86.9295 40.5323 87.5384 40.5323H90.5295V41.4073H87.5031C86.8854 41.4073 86.5766 41.632 86.5766 42.0815C86.5766 42.531 86.8766 42.7798 87.4943 42.7798H90.5825V43.7511H87.4943C86.0472 43.7511 85.4648 43.1009 85.4648 42.242C85.4648 41.6079 85.7825 41.1825 86.3384 40.9658C85.7648 40.7491 85.4825 40.3237 85.4825 39.7136C85.4825 38.8307 86.0913 38.2046 87.5207 38.2046H90.5737H90.5825Z" fill="white"/>
<path d="M95.258 38.2046C96.6345 38.2046 97.2169 38.9752 97.2169 39.8661C97.2169 40.5564 96.8551 41.2949 95.9286 41.5357L97.3492 43.7511H96.1669L94.7727 41.6079H93.1845C93.0875 41.6079 93.0345 41.6481 93.0345 41.7444V43.7511H91.9669V41.5598C91.9669 40.9337 92.258 40.6849 92.9198 40.6849H95.2933C95.9022 40.6849 96.1404 40.3076 96.1404 39.9143C96.1404 39.521 95.8845 39.1839 95.2933 39.1839H91.9492V38.2126H95.258V38.2046Z" fill="white"/>
<path d="M99.0173 43.7432H97.8438L99.9879 38.8147C100.217 38.293 100.623 38.1003 101.267 38.1003C101.911 38.1003 102.317 38.301 102.529 38.8147L104.585 43.7432H103.403L101.55 39.2883C101.497 39.1599 101.4 39.1037 101.25 39.1037C101.1 39.1037 101.003 39.1599 100.941 39.2883L99.0085 43.7432H99.0173Z" fill="white"/>
</g>
<defs>
<linearGradient id="paint0_linear_937_13753" x1="27.3794" y1="45.7819" x2="27.2918" y2="17.9451" gradientUnits="userSpaceOnUse">
<stop stop-color="#9682CC"/>
<stop offset="0.2" stop-color="#8D88D0"/>
<stop offset="0.53" stop-color="#7698DB"/>
<stop offset="0.93" stop-color="#50B3EE"/>
<stop offset="1" stop-color="#49B9F2"/>
</linearGradient>
<linearGradient id="paint1_linear_937_13753" x1="106.121" y1="28.9338" x2="119.303" y2="28.9338" gradientUnits="userSpaceOnUse">
<stop stop-color="#9682CC"/>
<stop offset="0.2" stop-color="#8D88D0"/>
<stop offset="0.53" stop-color="#7698DB"/>
<stop offset="0.93" stop-color="#50B3EE"/>
<stop offset="1" stop-color="#49B9F2"/>
</linearGradient>
<linearGradient id="paint2_linear_937_13753" x1="120.617" y1="26.1806" x2="132" y2="26.1806" gradientUnits="userSpaceOnUse">
<stop stop-color="#9682CC"/>
<stop offset="0.2" stop-color="#8D88D0"/>
<stop offset="0.53" stop-color="#7698DB"/>
<stop offset="0.93" stop-color="#50B3EE"/>
<stop offset="1" stop-color="#49B9F2"/>
</linearGradient>
<clipPath id="clip0_937_13753">
<rect width="120" height="24" fill="white" transform="translate(12 20)"/>
</clipPath>
</defs>
</svg>
