<svg width="127" height="32" viewBox="0 0 127 32" fill="none" xmlns="http://www.w3.org/2000/svg">
<g clip-path="url(#clip0_39_1513)">
<path d="M24.8889 0H7.11111C3.18375 0 0 3.18375 0 7.11111V24.8889C0 28.8162 3.18375 32 7.11111 32H24.8889C28.8162 32 32 28.8162 32 24.8889V7.11111C32 3.18375 28.8162 0 24.8889 0Z" fill="#384A97"/>
<path d="M9.21579 7.26904L4.88615 9.58186C4.812 9.62097 4.74197 9.66551 4.67578 9.71424L15.7471 15.5249L20.3832 13.2169L9.21579 7.26904Z" fill="url(#paint0_linear_39_1513)"/>
<path d="M27.0856 9.58048L16.4878 4.17588L16.4834 4.17367C16.0115 3.93721 15.4508 3.94249 14.9833 4.18782L10.7148 6.4679L21.9351 12.4439L27.351 9.74782C27.2688 9.68479 27.1805 9.62822 27.0856 9.58048Z" fill="url(#paint1_linear_39_1513)"/>
<path d="M4.00333 10.9575C4.00145 10.9899 4 11.0224 4 11.0551V21.0985C4 21.7194 4.33937 22.2835 4.88574 22.5714L14.9799 27.9635L14.9844 27.9659C15.0012 27.9748 15.0184 27.9825 15.0354 27.9907V16.7475L4.00333 10.9575Z" fill="url(#paint2_linear_39_1513)"/>
<path d="M28 11.0679V21.0864C28 21.7204 27.6501 22.2903 27.0869 22.5737L16.4854 27.98C16.4711 27.9872 16.4558 27.9937 16.4414 28.0005V16.7583L21.0537 14.4624V16.8687C21.0537 17.2593 21.3687 17.5757 21.7568 17.5757C22.1448 17.5755 22.459 17.2592 22.459 16.8687V13.7622L27.998 11.0054C27.9988 11.0261 28 11.047 28 11.0679Z" fill="#ABD5FE"/>
<path d="M23.5206 13.2554L20.2683 14.834V15.128L18.6914 20.253L22.9293 19.5631L23.5206 13.2554Z" fill="#ABD5FE"/>
</g>
<path d="M43.41 13.84V24H41.46V13.84H43.41ZM43.78 10.7C43.78 10.88 43.7433 11.0533 43.67 11.22C43.5967 11.38 43.4967 11.5233 43.37 11.65C43.25 11.77 43.1067 11.8667 42.94 11.94C42.7733 12.0067 42.6 12.04 42.42 12.04C42.24 12.04 42.07 12.0067 41.91 11.94C41.75 11.8667 41.6067 11.77 41.48 11.65C41.36 11.5233 41.2633 11.38 41.19 11.22C41.1233 11.0533 41.09 10.88 41.09 10.7C41.09 10.5133 41.1233 10.34 41.19 10.18C41.2633 10.0133 41.36 9.87 41.48 9.75C41.6067 9.62333 41.75 9.52667 41.91 9.46C42.07 9.38667 42.24 9.35 42.42 9.35C42.6 9.35 42.7733 9.38667 42.94 9.46C43.1067 9.52667 43.25 9.62333 43.37 9.75C43.4967 9.87 43.5967 10.0133 43.67 10.18C43.7433 10.34 43.78 10.5133 43.78 10.7ZM50.827 17.03C51.367 17.03 51.8404 16.96 52.247 16.82C52.6604 16.68 53.0037 16.4833 53.277 16.23C53.557 15.97 53.767 15.6633 53.907 15.31C54.047 14.95 54.117 14.5533 54.117 14.12C54.117 13.2467 53.8437 12.56 53.297 12.06C52.757 11.56 51.9337 11.31 50.827 11.31H48.607V17.03H50.827ZM50.827 9.64C51.747 9.64 52.547 9.74667 53.227 9.96C53.907 10.1733 54.4704 10.4767 54.917 10.87C55.3637 11.2567 55.6937 11.7267 55.907 12.28C56.127 12.8333 56.237 13.4467 56.237 14.12C56.237 14.7933 56.1204 15.4133 55.887 15.98C55.6537 16.54 55.3104 17.0233 54.857 17.43C54.4037 17.8367 53.837 18.1533 53.157 18.38C52.4837 18.6 51.707 18.71 50.827 18.71H48.607V24H46.477V9.64H50.827ZM59.8506 15.79C60.1773 15.1233 60.5706 14.6 61.0306 14.22C61.4906 13.84 62.044 13.65 62.6906 13.65C62.9106 13.65 63.1173 13.6767 63.3106 13.73C63.5106 13.7767 63.684 13.85 63.8306 13.95L63.7006 15.42C63.654 15.6 63.544 15.69 63.3706 15.69C63.2773 15.69 63.1373 15.6733 62.9506 15.64C62.764 15.6 62.564 15.58 62.3506 15.58C62.0373 15.58 61.7606 15.6267 61.5206 15.72C61.2806 15.8067 61.064 15.94 60.8706 16.12C60.684 16.2933 60.5173 16.51 60.3706 16.77C60.224 17.0233 60.0873 17.3133 59.9606 17.64V24H58.0106V13.84H59.1306C59.344 13.84 59.4873 13.88 59.5606 13.96C59.6406 14.0333 59.6973 14.1667 59.7306 14.36L59.8506 15.79ZM69.2938 13.68C70.0404 13.68 70.7138 13.8033 71.3138 14.05C71.9204 14.29 72.4338 14.64 72.8538 15.1C73.2804 15.5533 73.6071 16.1033 73.8338 16.75C74.0604 17.39 74.1738 18.11 74.1738 18.91C74.1738 19.71 74.0604 20.4333 73.8338 21.08C73.6071 21.7267 73.2804 22.2767 72.8538 22.73C72.4338 23.1833 71.9204 23.5333 71.3138 23.78C70.7138 24.02 70.0404 24.14 69.2938 24.14C68.5404 24.14 67.8604 24.02 67.2538 23.78C66.6538 23.5333 66.1404 23.1833 65.7138 22.73C65.2871 22.2767 64.9571 21.7267 64.7238 21.08C64.4971 20.4333 64.3838 19.71 64.3838 18.91C64.3838 18.11 64.4971 17.39 64.7238 16.75C64.9571 16.1033 65.2871 15.5533 65.7138 15.1C66.1404 14.64 66.6538 14.29 67.2538 14.05C67.8604 13.8033 68.5404 13.68 69.2938 13.68ZM69.2938 22.62C70.2538 22.62 70.9704 22.2967 71.4438 21.65C71.9171 21.0033 72.1538 20.0933 72.1538 18.92C72.1538 17.7467 71.9171 16.8367 71.4438 16.19C70.9704 15.5367 70.2538 15.21 69.2938 15.21C68.3204 15.21 67.5938 15.5367 67.1138 16.19C66.6404 16.8367 66.4038 17.7467 66.4038 18.92C66.4038 20.0933 66.6404 21.0033 67.1138 21.65C67.5938 22.2967 68.3204 22.62 69.2938 22.62ZM84.8775 13.84L80.7575 24H78.9975L74.8775 13.84H76.4875C76.6408 13.84 76.7675 13.8767 76.8675 13.95C76.9675 14.0233 77.0342 14.1167 77.0675 14.23L79.4975 20.47C79.5842 20.73 79.6575 20.99 79.7175 21.25C79.7842 21.5033 79.8442 21.7567 79.8975 22.01C79.9508 21.7567 80.0108 21.5033 80.0775 21.25C80.1442 20.9967 80.2242 20.7367 80.3175 20.47L82.7775 14.23C82.8175 14.1167 82.8875 14.0233 82.9875 13.95C83.0875 13.8767 83.2075 13.84 83.3475 13.84H84.8775ZM88.4686 13.84V24H86.5186V13.84H88.4686ZM88.8386 10.7C88.8386 10.88 88.8019 11.0533 88.7286 11.22C88.6553 11.38 88.5553 11.5233 88.4286 11.65C88.3086 11.77 88.1653 11.8667 87.9986 11.94C87.8319 12.0067 87.6586 12.04 87.4786 12.04C87.2986 12.04 87.1286 12.0067 86.9686 11.94C86.8086 11.8667 86.6653 11.77 86.5386 11.65C86.4186 11.5233 86.3219 11.38 86.2486 11.22C86.1819 11.0533 86.1486 10.88 86.1486 10.7C86.1486 10.5133 86.1819 10.34 86.2486 10.18C86.3219 10.0133 86.4186 9.87 86.5386 9.75C86.6653 9.62333 86.8086 9.52667 86.9686 9.46C87.1286 9.38667 87.2986 9.35 87.4786 9.35C87.6586 9.35 87.8319 9.38667 87.9986 9.46C88.1653 9.52667 88.3086 9.62333 88.4286 9.75C88.5553 9.87 88.6553 10.0133 88.7286 10.18C88.8019 10.34 88.8386 10.5133 88.8386 10.7ZM97.2819 15.59C97.2285 15.6767 97.1719 15.74 97.1119 15.78C97.0519 15.8133 96.9752 15.83 96.8819 15.83C96.7752 15.83 96.6552 15.7933 96.5219 15.72C96.3952 15.6467 96.2385 15.5667 96.0519 15.48C95.8719 15.3933 95.6585 15.3133 95.4119 15.24C95.1652 15.1667 94.8719 15.13 94.5319 15.13C94.2519 15.13 93.9952 15.1667 93.7619 15.24C93.5352 15.3067 93.3419 15.4033 93.1819 15.53C93.0219 15.65 92.8985 15.7967 92.8119 15.97C92.7252 16.1367 92.6819 16.3167 92.6819 16.51C92.6819 16.7633 92.7552 16.9733 92.9019 17.14C93.0552 17.3067 93.2519 17.45 93.4919 17.57C93.7385 17.69 94.0152 17.8 94.3219 17.9C94.6352 17.9933 94.9519 18.0933 95.2719 18.2C95.5985 18.3067 95.9152 18.43 96.2219 18.57C96.5352 18.7033 96.8119 18.8733 97.0519 19.08C97.2985 19.28 97.4952 19.5233 97.6419 19.81C97.7952 20.0967 97.8719 20.4467 97.8719 20.86C97.8719 21.3333 97.7852 21.7733 97.6119 22.18C97.4452 22.58 97.1952 22.9267 96.8619 23.22C96.5352 23.5133 96.1285 23.7433 95.6419 23.91C95.1552 24.0767 94.5985 24.16 93.9719 24.16C93.2719 24.16 92.6252 24.0433 92.0319 23.81C91.4385 23.5767 90.9419 23.28 90.5419 22.92L91.0019 22.17C91.0552 22.0767 91.1219 22.0067 91.2019 21.96C91.2819 21.9067 91.3885 21.88 91.5219 21.88C91.6485 21.88 91.7785 21.9267 91.9119 22.02C92.0452 22.1133 92.2052 22.2167 92.3919 22.33C92.5785 22.4367 92.8052 22.5367 93.0719 22.63C93.3385 22.7167 93.6719 22.76 94.0719 22.76C94.4052 22.76 94.6952 22.72 94.9419 22.64C95.1885 22.5533 95.3919 22.44 95.5519 22.3C95.7185 22.1533 95.8419 21.9867 95.9219 21.8C96.0019 21.6133 96.0419 21.4167 96.0419 21.21C96.0419 20.9433 95.9652 20.7233 95.8119 20.55C95.6652 20.37 95.4685 20.2167 95.2219 20.09C94.9819 19.9633 94.7052 19.8533 94.3919 19.76C94.0785 19.6667 93.7585 19.5667 93.4319 19.46C93.1052 19.3533 92.7852 19.23 92.4719 19.09C92.1585 18.95 91.8785 18.7733 91.6319 18.56C91.3919 18.3467 91.1952 18.0867 91.0419 17.78C90.8952 17.4733 90.8219 17.1 90.8219 16.66C90.8219 16.2667 90.9019 15.89 91.0619 15.53C91.2285 15.17 91.4652 14.8533 91.7719 14.58C92.0852 14.3067 92.4685 14.09 92.9219 13.93C93.3819 13.7633 93.9052 13.68 94.4919 13.68C95.1652 13.68 95.7719 13.7867 96.3119 14C96.8585 14.2133 97.3252 14.5067 97.7119 14.88L97.2819 15.59ZM102.023 13.84V24H100.073V13.84H102.023ZM102.393 10.7C102.393 10.88 102.357 11.0533 102.283 11.22C102.21 11.38 102.11 11.5233 101.983 11.65C101.863 11.77 101.72 11.8667 101.553 11.94C101.387 12.0067 101.213 12.04 101.033 12.04C100.853 12.04 100.683 12.0067 100.523 11.94C100.363 11.8667 100.22 11.77 100.093 11.65C99.9733 11.5233 99.8766 11.38 99.8033 11.22C99.7366 11.0533 99.7033 10.88 99.7033 10.7C99.7033 10.5133 99.7366 10.34 99.8033 10.18C99.8766 10.0133 99.9733 9.87 100.093 9.75C100.22 9.62333 100.363 9.52667 100.523 9.46C100.683 9.38667 100.853 9.35 101.033 9.35C101.213 9.35 101.387 9.38667 101.553 9.46C101.72 9.52667 101.863 9.62333 101.983 9.75C102.11 9.87 102.21 10.0133 102.283 10.18C102.357 10.34 102.393 10.5133 102.393 10.7ZM109.177 13.68C109.923 13.68 110.597 13.8033 111.197 14.05C111.803 14.29 112.317 14.64 112.737 15.1C113.163 15.5533 113.49 16.1033 113.717 16.75C113.943 17.39 114.057 18.11 114.057 18.91C114.057 19.71 113.943 20.4333 113.717 21.08C113.49 21.7267 113.163 22.2767 112.737 22.73C112.317 23.1833 111.803 23.5333 111.197 23.78C110.597 24.02 109.923 24.14 109.177 24.14C108.423 24.14 107.743 24.02 107.137 23.78C106.537 23.5333 106.023 23.1833 105.597 22.73C105.17 22.2767 104.84 21.7267 104.607 21.08C104.38 20.4333 104.267 19.71 104.267 18.91C104.267 18.11 104.38 17.39 104.607 16.75C104.84 16.1033 105.17 15.5533 105.597 15.1C106.023 14.64 106.537 14.29 107.137 14.05C107.743 13.8033 108.423 13.68 109.177 13.68ZM109.177 22.62C110.137 22.62 110.853 22.2967 111.327 21.65C111.8 21.0033 112.037 20.0933 112.037 18.92C112.037 17.7467 111.8 16.8367 111.327 16.19C110.853 15.5367 110.137 15.21 109.177 15.21C108.203 15.21 107.477 15.5367 106.997 16.19C106.523 16.8367 106.287 17.7467 106.287 18.92C106.287 20.0933 106.523 21.0033 106.997 21.65C107.477 22.2967 108.203 22.62 109.177 22.62ZM118.063 15.25C118.283 15.0167 118.513 14.8033 118.753 14.61C118.993 14.4167 119.247 14.2533 119.513 14.12C119.787 13.98 120.077 13.8733 120.383 13.8C120.697 13.72 121.03 13.68 121.383 13.68C121.943 13.68 122.433 13.7733 122.853 13.96C123.28 14.1467 123.637 14.41 123.923 14.75C124.21 15.0833 124.427 15.4867 124.573 15.96C124.72 16.4333 124.793 16.9567 124.793 17.53V24H122.833V17.53C122.833 16.8033 122.667 16.24 122.333 15.84C122 15.4333 121.49 15.23 120.803 15.23C120.303 15.23 119.833 15.35 119.393 15.59C118.96 15.8233 118.557 16.1433 118.183 16.55V24H116.233V13.84H117.403C117.677 13.84 117.847 13.97 117.913 14.23L118.063 15.25Z" fill="white"/>
<defs>
<linearGradient id="paint0_linear_39_1513" x1="19.4861" y1="6.15553" x2="13.0402" y2="19.3938" gradientUnits="userSpaceOnUse">
<stop stop-color="#B2E0FF"/>
<stop offset="1" stop-color="#8EA7FF"/>
</linearGradient>
<linearGradient id="paint1_linear_39_1513" x1="26.4009" y1="2.86112" x2="19.951" y2="16.5783" gradientUnits="userSpaceOnUse">
<stop stop-color="#B2E0FF"/>
<stop offset="1" stop-color="#8EA7FF"/>
</linearGradient>
<linearGradient id="paint2_linear_39_1513" x1="14.4052" y1="8.66015" x2="-1.4635" y2="19.7579" gradientUnits="userSpaceOnUse">
<stop stop-color="#B2E0FF"/>
<stop offset="1" stop-color="#8EA7FF"/>
</linearGradient>
<clipPath id="clip0_39_1513">
<rect width="32" height="32" fill="white"/>
</clipPath>
</defs>
</svg>
