<svg width="24" height="24" viewBox="0 0 24 24" fill="none" xmlns="http://www.w3.org/2000/svg">
<path d="M2.33333 3.72624C3.06971 3.72624 3.66667 3.12928 3.66667 2.3929C3.66667 1.65652 3.06971 1.05957 2.33333 1.05957C1.59695 1.05957 1 1.65652 1 2.3929C1 3.12928 1.59695 3.72624 2.33333 3.72624Z" fill="white" stroke="white" stroke-width="1.995" stroke-linecap="round" stroke-linejoin="round"/>
<path d="M11.6673 3.72624C12.4037 3.72624 13.0007 3.12928 13.0007 2.3929C13.0007 1.65652 12.4037 1.05957 11.6673 1.05957C10.9309 1.05957 10.334 1.65652 10.334 2.3929C10.334 3.12928 10.9309 3.72624 11.6673 3.72624Z" fill="white" stroke="white" stroke-width="1.995" stroke-linecap="round" stroke-linejoin="round"/>
<path d="M21.3333 3.66667C22.0697 3.66667 22.6667 3.06971 22.6667 2.33333C22.6667 1.59695 22.0697 1 21.3333 1C20.597 1 20 1.59695 20 2.33333C20 3.06971 20.597 3.66667 21.3333 3.66667Z" fill="white" stroke="white" stroke-width="1.995" stroke-linecap="round" stroke-linejoin="round"/>
<path d="M2.66732 13.3337C3.4037 13.3337 4.00065 12.7367 4.00065 12.0003C4.00065 11.2639 3.4037 10.667 2.66732 10.667C1.93094 10.667 1.33398 11.2639 1.33398 12.0003C1.33398 12.7367 1.93094 13.3337 2.66732 13.3337Z" fill="white" stroke="white" stroke-width="1.995" stroke-linecap="round" stroke-linejoin="round"/>
<path d="M11.9993 13.3337C12.7357 13.3337 13.3327 12.7367 13.3327 12.0003C13.3327 11.2639 12.7357 10.667 11.9993 10.667C11.263 10.667 10.666 11.2639 10.666 12.0003C10.666 12.7367 11.263 13.3337 11.9993 13.3337Z" fill="white" stroke="white" stroke-width="1.995" stroke-linecap="round" stroke-linejoin="round"/>
<path d="M20.9993 12.6667C21.7357 12.6667 22.3327 12.0697 22.3327 11.3333C22.3327 10.597 21.7357 10 20.9993 10C20.263 10 19.666 10.597 19.666 11.3333C19.666 12.0697 20.263 12.6667 20.9993 12.6667Z" fill="white" stroke="white" stroke-width="1.995" stroke-linecap="round" stroke-linejoin="round"/>
<path d="M2.33333 22.3337C3.06971 22.3337 3.66667 21.7367 3.66667 21.0003C3.66667 20.2639 3.06971 19.667 2.33333 19.667C1.59695 19.667 1 20.2639 1 21.0003C1 21.7367 1.59695 22.3337 2.33333 22.3337Z" fill="white" stroke="white" stroke-width="1.995" stroke-linecap="round" stroke-linejoin="round"/>
<path d="M11.6673 22.3337C12.4037 22.3337 13.0007 21.7367 13.0007 21.0003C13.0007 20.2639 12.4037 19.667 11.6673 19.667C10.9309 19.667 10.334 20.2639 10.334 21.0003C10.334 21.7367 10.9309 22.3337 11.6673 22.3337Z" fill="white" stroke="white" stroke-width="1.995" stroke-linecap="round" stroke-linejoin="round"/>
<path d="M20.9993 22.3337C21.7357 22.3337 22.3327 21.7367 22.3327 21.0003C22.3327 20.2639 21.7357 19.667 20.9993 19.667C20.263 19.667 19.666 20.2639 19.666 21.0003C19.666 21.7367 20.263 22.3337 20.9993 22.3337Z" fill="white" stroke="white" stroke-width="1.995" stroke-linecap="round" stroke-linejoin="round"/>
</svg>
