<svg width="24" height="24" viewBox="0 0 24 24" fill="none" xmlns="http://www.w3.org/2000/svg">
<path d="M2.33333 3.72673C3.06971 3.72673 3.66667 3.12977 3.66667 2.39339C3.66667 1.65701 3.06971 1.06006 2.33333 1.06006C1.59695 1.06006 1 1.65701 1 2.39339C1 3.12977 1.59695 3.72673 2.33333 3.72673Z" fill="white" stroke="white" stroke-width="1.995" stroke-linecap="round" stroke-linejoin="round"/>
<path d="M11.6673 3.72673C12.4037 3.72673 13.0007 3.12977 13.0007 2.39339C13.0007 1.65701 12.4037 1.06006 11.6673 1.06006C10.9309 1.06006 10.334 1.65701 10.334 2.39339C10.334 3.12977 10.9309 3.72673 11.6673 3.72673Z" fill="white" stroke="white" stroke-width="1.995" stroke-linecap="round" stroke-linejoin="round"/>
<path d="M21.3333 3.66667C22.0697 3.66667 22.6667 3.06971 22.6667 2.33333C22.6667 1.59695 22.0697 1 21.3333 1C20.597 1 20 1.59695 20 2.33333C20 3.06971 20.597 3.66667 21.3333 3.66667Z" fill="white" stroke="white" stroke-width="1.995" stroke-linecap="round" stroke-linejoin="round"/>
<path d="M2.66732 13.3334C3.4037 13.3334 4.00065 12.7365 4.00065 12.0001C4.00065 11.2637 3.4037 10.6667 2.66732 10.6667C1.93094 10.6667 1.33398 11.2637 1.33398 12.0001C1.33398 12.7365 1.93094 13.3334 2.66732 13.3334Z" fill="white" stroke="white" stroke-width="1.995" stroke-linecap="round" stroke-linejoin="round"/>
<path d="M11.9993 13.3334C12.7357 13.3334 13.3327 12.7365 13.3327 12.0001C13.3327 11.2637 12.7357 10.6667 11.9993 10.6667C11.263 10.6667 10.666 11.2637 10.666 12.0001C10.666 12.7365 11.263 13.3334 11.9993 13.3334Z" fill="white" stroke="white" stroke-width="1.995" stroke-linecap="round" stroke-linejoin="round"/>
<path d="M20.9993 12.6667C21.7357 12.6667 22.3327 12.0697 22.3327 11.3333C22.3327 10.597 21.7357 10 20.9993 10C20.263 10 19.666 10.597 19.666 11.3333C19.666 12.0697 20.263 12.6667 20.9993 12.6667Z" fill="white" stroke="white" stroke-width="1.995" stroke-linecap="round" stroke-linejoin="round"/>
<path d="M2.33333 22.3332C3.06971 22.3332 3.66667 21.7362 3.66667 20.9998C3.66667 20.2635 3.06971 19.6665 2.33333 19.6665C1.59695 19.6665 1 20.2635 1 20.9998C1 21.7362 1.59695 22.3332 2.33333 22.3332Z" fill="white" stroke="white" stroke-width="1.995" stroke-linecap="round" stroke-linejoin="round"/>
<path d="M11.6673 22.3332C12.4037 22.3332 13.0007 21.7362 13.0007 20.9998C13.0007 20.2635 12.4037 19.6665 11.6673 19.6665C10.9309 19.6665 10.334 20.2635 10.334 20.9998C10.334 21.7362 10.9309 22.3332 11.6673 22.3332Z" fill="white" stroke="white" stroke-width="1.995" stroke-linecap="round" stroke-linejoin="round"/>
<path d="M20.9993 22.3332C21.7357 22.3332 22.3327 21.7362 22.3327 20.9998C22.3327 20.2635 21.7357 19.6665 20.9993 19.6665C20.263 19.6665 19.666 20.2635 19.666 20.9998C19.666 21.7362 20.263 22.3332 20.9993 22.3332Z" fill="white" stroke="white" stroke-width="1.995" stroke-linecap="round" stroke-linejoin="round"/>
</svg>
